<?xml version="1.0" encoding="utf-8" standalone="no"?>
<!DOCTYPE svg PUBLIC "-//W3C//DTD SVG 1.1//EN"
  "http://www.w3.org/Graphics/SVG/1.1/DTD/svg11.dtd">
<!-- Created with matplotlib (https://matplotlib.org/) -->
<svg height="345.6pt" version="1.1" viewBox="0 0 460.8 345.6" width="460.8pt" xmlns="http://www.w3.org/2000/svg" xmlns:xlink="http://www.w3.org/1999/xlink">
 <defs>
  <style type="text/css">
*{stroke-linecap:butt;stroke-linejoin:round;}
  </style>
 </defs>
 <g id="figure_1">
  <g id="patch_1">
   <path d="M 0 345.6 
L 460.8 345.6 
L 460.8 0 
L 0 0 
z
" style="fill:#ffffff;"/>
  </g>
  <g id="axes_1">
   <g id="patch_2">
    <path d="M 57.6 307.584 
L 343.296 307.584 
L 343.296 41.472 
L 57.6 41.472 
z
" style="fill:#ffffff;"/>
   </g>
   <g id="PathCollection_1"/>
   <g id="PathCollection_2">
    <path clip-path="url(#p40cf2a0078)" d="M 132.091687 302.217465 
L 140.368541 302.217465 
L 148.645395 302.217465 
L 156.922249 302.217465 
L 165.199103 302.217465 
L 173.475957 302.217465 
L 181.752811 302.217465 
L 190.029665 302.217465 
L 198.30652 302.217465 
L 206.583374 302.217465 
L 214.860228 302.217465 
L 223.137082 302.217465 
L 231.413936 302.217465 
L 239.69079 302.217465 
L 247.967644 302.217465 
L 256.244498 302.217465 
L 264.521352 302.217465 
L 272.798206 302.217465 
L 281.075061 302.217465 
L 289.351915 302.217465 
L 297.628769 302.217465 
L 305.905623 302.217465 
L 314.182477 302.217465 
L 322.459331 302.217465 
L 330.736185 302.217465 
L 339.013039 302.217465 
L 347.289893 302.217465 
L 355.566747 302.217465 
L 363.843601 302.217465 
L 372.120456 302.217465 
L 380.39731 302.217465 
L 388.674164 302.217465 
L 396.951018 302.217465 
L 405.227872 302.217465 
L 413.504726 302.217465 
L 421.78158 302.217465 
L 430.058434 302.217465 
L 438.335288 302.217465 
L 446.612142 302.217465 
L 454.888996 302.217465 
L 463.165851 302.217465 
L 471.442705 302.217465 
L 479.719559 302.217465 
L 487.996413 302.217465 
L 496.273267 302.217465 
L 504.550121 302.217465 
L 512.826975 302.217465 
L 521.103829 302.217465 
L 529.380683 302.217465 
L 537.657537 302.217465 
L 545.934391 302.217465 
L 554.211246 302.217465 
L 562.4881 302.217465 
L 570.764954 302.217465 
L 579.041808 302.217465 
L 587.318662 302.217465 
L 595.595516 302.217465 
L 603.87237 302.217465 
L 612.149224 302.217465 
L 620.426078 302.217465 
L 628.702932 302.217465 
L 636.979786 302.217465 
L 645.256641 302.217465 
L 653.533495 302.217465 
L 661.810349 302.217465 
L 670.087203 302.217465 
L 678.364057 302.217465 
L 686.640911 302.217465 
L 694.917765 302.217465 
L 703.194619 302.217465 
L 711.471473 302.217465 
L 719.748327 302.217465 
L 728.025182 302.217465 
L 736.302036 302.217465 
L 744.57889 302.217465 
L 752.855744 302.217465 
L 761.132598 302.217465 
L 769.409452 302.217465 
L 777.686306 302.217465 
L 785.96316 302.217465 
L 794.240014 302.217465 
L 802.516868 302.217465 
L 810.793722 302.217465 
L 819.070577 302.217465 
L 827.347431 302.217465 
L 835.624285 302.217465 
L 843.901139 302.217465 
L 852.177993 302.217465 
L 860.454847 302.217465 
L 868.731701 302.217465 
L 877.008555 302.217465 
L 885.285409 302.217465 
L 893.562263 302.217465 
L 901.839117 302.217465 
L 910.115972 302.217465 
L 918.392826 302.217465 
L 926.66968 302.217465 
L 934.946534 302.217465 
L 943.223388 302.217465 
L 951.500242 302.217465 
L 959.777096 302.217465 
L 968.05395 302.217465 
L 976.330804 302.217465 
L 984.607658 302.217465 
L 992.884512 302.217465 
L 1001.161367 302.217465 
L 1009.438221 302.217465 
L 1017.715075 302.217465 
L 1025.991929 302.217465 
L 1034.268783 302.217465 
L 1042.545637 302.217465 
L 1050.822491 302.217465 
L 1059.099345 302.217465 
L 1067.376199 302.217465 
L 1075.653053 302.217465 
L 1083.929907 302.217465 
L 1092.206762 302.217465 
L 1100.483616 302.217465 
L 1108.76047 302.217465 
L 1117.037324 302.217465 
L 1125.314178 302.217465 
L 1133.591032 302.217465 
L 1141.867886 302.217465 
L 1150.14474 302.217465 
L 1158.421594 302.217465 
L 1166.698448 302.217465 
L 1174.975303 302.217465 
L 1183.252157 302.217465 
L 1191.529011 302.217465 
L 1199.805865 302.217465 
L 1208.082719 302.217465 
L 1216.359573 302.217465 
L 1224.636427 302.217465 
L 1232.913281 302.217465 
L 1241.190135 302.217465 
L 1249.466989 302.217465 
L 1257.743843 302.217465 
L 1266.020698 302.217465 
L 1274.297552 302.217465 
L 1282.574406 302.217465 
L 1290.85126 302.217465 
L 1299.128114 302.217465 
L 1307.404968 302.217465 
L 1315.681822 302.217465 
L 1323.958676 302.217465 
L 1332.23553 302.217465 
L 1340.512384 302.217465 
L 1348.789238 302.217465 
L 1357.066093 302.217465 
L 1365.342947 302.217465 
L 1373.619801 302.217465 
L 1381.896655 302.217465 
L 1390.173509 302.217465 
L 1398.450363 302.217465 
L 1406.727217 302.217465 
L 1415.004071 302.217465 
L 1423.280925 302.217465 
L 1431.557779 302.217465 
L 1439.834633 302.217465 
L 1448.111488 302.217465 
L 1456.388342 302.217465 
L 1464.665196 302.217465 
L 1472.94205 302.217465 
L 1481.218904 302.217465 
L 1481.218904 296.85093 
L 1481.218904 291.484395 
L 1481.218904 286.117859 
L 1481.218904 280.751324 
L 1481.218904 275.384789 
L 1481.218904 270.018254 
L 1481.218904 264.651719 
L 1481.218904 259.285184 
L 1481.218904 253.918648 
L 1481.218904 248.552113 
L 1481.218904 243.185578 
L 1481.218904 237.819043 
L 1481.218904 232.452508 
L 1481.218904 227.085973 
L 1481.218904 221.719438 
L 1481.218904 216.352902 
L 1481.218904 210.986367 
L 1481.218904 205.619832 
L 1481.218904 200.253297 
L 1481.218904 194.886762 
L 1481.218904 189.520227 
L 1481.218904 184.153692 
L 1481.218904 178.787156 
L 1481.218904 173.420621 
L 1481.218904 168.054086 
L 1481.218904 162.687551 
L 1481.218904 157.321016 
L 1481.218904 151.954481 
L 1481.218904 146.587945 
L 1481.218904 141.22141 
L 1481.218904 135.854875 
L 1481.218904 130.48834 
L 1481.218904 125.121805 
L 1481.218904 119.75527 
L 1481.218904 114.388735 
L 1481.218904 109.022199 
L 1481.218904 103.655664 
L 1481.218904 98.289129 
L 1481.218904 92.922594 
L 1481.218904 87.556059 
L 1481.218904 82.189524 
L 1481.218904 76.822989 
L 1481.218904 71.456453 
L 1481.218904 66.089918 
L 1481.218904 60.723383 
L 1481.218904 55.356848 
L 1481.218904 49.990313 
L 1481.218904 44.623778 
L 1481.218904 39.257242 
L 1481.218904 33.890707 
L 1481.218904 28.524172 
L 1481.218904 23.157637 
L 1481.218904 17.791102 
L 1481.218904 12.424567 
L 1481.218904 7.058032 
L 1481.218904 1.691496 
L 1481.218904 -3.675039 
L 1481.218904 -9.041574 
L 1481.218904 -14.408109 
L 1481.218904 -19.774644 
L 1481.218904 -25.141179 
L 1481.218904 -30.507714 
L 1481.218904 -35.87425 
L 1481.218904 -41.240785 
L 1481.218904 -46.60732 
L 1481.218904 -51.973855 
L 1481.218904 -57.34039 
L 1481.218904 -62.706925 
L 1481.218904 -68.073461 
L 1481.218904 -73.439996 
L 1481.218904 -78.806531 
L 1481.218904 -84.173066 
L 1481.218904 -89.539601 
L 1481.218904 -94.906136 
L 1481.218904 -100.272671 
L 1481.218904 -105.639207 
L 1481.218904 -111.005742 
L 1481.218904 -116.372277 
L 1481.218904 -121.738812 
L 1481.218904 -127.105347 
L 1481.218904 -132.471882 
L 1481.218904 -137.838418 
L 1481.218904 -143.204953 
L 1481.218904 -148.571488 
L 1481.218904 -153.938023 
L 1472.94205 -153.938023 
L 1464.665196 -153.938023 
L 1456.388342 -153.938023 
L 1448.111488 -153.938023 
L 1439.834633 -153.938023 
L 1431.557779 -153.938023 
L 1423.280925 -153.938023 
L 1415.004071 -153.938023 
L 1406.727217 -153.938023 
L 1398.450363 -153.938023 
L 1390.173509 -153.938023 
L 1381.896655 -153.938023 
L 1373.619801 -153.938023 
L 1365.342947 -153.938023 
L 1357.066093 -153.938023 
L 1348.789238 -153.938023 
L 1340.512384 -153.938023 
L 1332.23553 -153.938023 
L 1323.958676 -153.938023 
L 1315.681822 -153.938023 
L 1307.404968 -153.938023 
L 1299.128114 -153.938023 
L 1290.85126 -153.938023 
L 1282.574406 -153.938023 
L 1274.297552 -153.938023 
L 1266.020698 -153.938023 
L 1257.743843 -153.938023 
L 1249.466989 -153.938023 
L 1241.190135 -153.938023 
L 1232.913281 -153.938023 
L 1224.636427 -153.938023 
L 1216.359573 -153.938023 
L 1208.082719 -153.938023 
L 1199.805865 -153.938023 
L 1191.529011 -153.938023 
L 1183.252157 -153.938023 
L 1174.975303 -153.938023 
L 1166.698448 -153.938023 
L 1158.421594 -153.938023 
L 1150.14474 -153.938023 
L 1141.867886 -153.938023 
L 1133.591032 -153.938023 
L 1125.314178 -153.938023 
L 1117.037324 -153.938023 
L 1108.76047 -153.938023 
L 1100.483616 -153.938023 
L 1092.206762 -153.938023 
L 1083.929907 -153.938023 
L 1075.653053 -153.938023 
L 1067.376199 -153.938023 
L 1059.099345 -153.938023 
L 1050.822491 -153.938023 
L 1042.545637 -153.938023 
L 1034.268783 -153.938023 
L 1025.991929 -153.938023 
L 1017.715075 -153.938023 
L 1009.438221 -153.938023 
L 1001.161367 -153.938023 
L 992.884512 -153.938023 
L 984.607658 -153.938023 
L 976.330804 -153.938023 
L 968.05395 -153.938023 
L 959.777096 -153.938023 
L 951.500242 -153.938023 
L 943.223388 -153.938023 
L 934.946534 -153.938023 
L 926.66968 -153.938023 
L 918.392826 -153.938023 
L 910.115972 -153.938023 
L 901.839117 -153.938023 
L 893.562263 -153.938023 
L 885.285409 -153.938023 
L 877.008555 -153.938023 
L 868.731701 -153.938023 
L 860.454847 -153.938023 
L 852.177993 -153.938023 
L 843.901139 -153.938023 
L 835.624285 -153.938023 
L 827.347431 -153.938023 
L 819.070577 -153.938023 
L 810.793722 -153.938023 
L 802.516868 -153.938023 
L 794.240014 -153.938023 
L 785.96316 -153.938023 
L 777.686306 -153.938023 
L 769.409452 -153.938023 
L 761.132598 -153.938023 
L 752.855744 -153.938023 
L 744.57889 -153.938023 
L 736.302036 -153.938023 
L 728.025182 -153.938023 
L 719.748327 -153.938023 
L 711.471473 -153.938023 
L 703.194619 -153.938023 
L 694.917765 -153.938023 
L 686.640911 -153.938023 
L 678.364057 -153.938023 
L 670.087203 -153.938023 
L 661.810349 -153.938023 
L 653.533495 -153.938023 
L 645.256641 -153.938023 
L 636.979786 -153.938023 
L 628.702932 -153.938023 
L 620.426078 -153.938023 
L 612.149224 -153.938023 
L 603.87237 -153.938023 
L 595.595516 -153.938023 
L 587.318662 -153.938023 
L 579.041808 -153.938023 
L 570.764954 -153.938023 
L 562.4881 -153.938023 
L 554.211246 -153.938023 
L 545.934391 -153.938023 
L 537.657537 -153.938023 
L 529.380683 -153.938023 
L 521.103829 -153.938023 
L 512.826975 -153.938023 
L 504.550121 -153.938023 
L 496.273267 -153.938023 
L 487.996413 -153.938023 
L 479.719559 -153.938023 
L 471.442705 -153.938023 
L 463.165851 -153.938023 
L 454.888996 -153.938023 
L 446.612142 -153.938023 
L 438.335288 -153.938023 
L 430.058434 -153.938023 
L 421.78158 -153.938023 
L 413.504726 -153.938023 
L 405.227872 -153.938023 
L 396.951018 -153.938023 
L 388.674164 -153.938023 
L 380.39731 -153.938023 
L 372.120456 -153.938023 
L 363.843601 -153.938023 
L 355.566747 -153.938023 
L 347.289893 -153.938023 
L 339.013039 -153.938023 
L 330.736185 -153.938023 
L 322.459331 -153.938023 
L 314.182477 -153.938023 
L 305.905623 -153.938023 
L 297.628769 -153.938023 
L 289.351915 -153.938023 
L 281.075061 -153.938023 
L 272.798206 -153.938023 
L 264.521352 -153.938023 
L 256.244498 -153.938023 
L 247.967644 -153.938023 
L 239.69079 -153.938023 
L 231.413936 -153.938023 
L 223.137082 -153.938023 
L 214.860228 -153.938023 
L 206.583374 -153.938023 
L 198.30652 -153.938023 
L 190.029665 -153.938023 
L 181.752811 -153.938023 
L 173.475957 -153.938023 
L 165.199103 -153.938023 
L 156.922249 -153.938023 
L 148.645395 -153.938023 
L 140.368541 -153.938023 
L 132.091687 -153.938023 
L 123.814833 -153.938023 
L 115.537979 -153.938023 
L 107.261125 -153.938023 
L 98.98427 -153.938023 
L 90.707416 -153.938023 
L 82.430562 -153.938023 
L 74.153708 -153.938023 
L 65.876854 -153.938023 
L 65.876854 -148.571488 
L 65.876854 -143.204953 
L 65.876854 -137.838418 
L 65.876854 -132.471882 
L 65.876854 -127.105347 
L 65.876854 -121.738812 
L 65.876854 -116.372277 
L 65.876854 -111.005742 
L 65.876854 -105.639207 
L 65.876854 -100.272671 
L 65.876854 -94.906136 
L 65.876854 -89.539601 
L 65.876854 -84.173066 
L 65.876854 -78.806531 
L 65.876854 -73.439996 
L 65.876854 -68.073461 
L 65.876854 -62.706925 
L 65.876854 -57.34039 
L 65.876854 -51.973855 
L 65.876854 -46.60732 
L 65.876854 -41.240785 
L 65.876854 -35.87425 
L 65.876854 -30.507714 
L 65.876854 -25.141179 
L 65.876854 -19.774644 
L 65.876854 -14.408109 
L 65.876854 -9.041574 
L 65.876854 -3.675039 
L 65.876854 1.691496 
L 65.876854 7.058032 
L 65.876854 12.424567 
L 65.876854 17.791102 
L 65.876854 23.157637 
L 65.876854 28.524172 
L 65.876854 33.890707 
L 65.876854 39.257242 
L 65.876854 44.623778 
L 65.876854 49.990313 
L 65.876854 55.356848 
L 65.876854 60.723383 
L 65.876854 66.089918 
L 65.876854 71.456453 
L 65.876854 76.822989 
L 65.876854 82.189524 
L 65.876854 87.556059 
L 65.876854 92.922594 
L 65.876854 98.289129 
L 65.876854 103.655664 
L 65.876854 109.022199 
L 65.876854 114.388735 
L 65.876854 119.75527 
L 65.876854 125.121805 
L 65.876854 130.48834 
L 65.876854 135.854875 
L 65.876854 141.22141 
L 65.876854 146.587945 
L 65.876854 151.954481 
L 65.876854 157.321016 
L 65.876854 162.687551 
L 65.876854 168.054086 
L 65.876854 173.420621 
L 65.876854 178.787156 
L 65.876854 184.153692 
L 65.876854 189.520227 
L 65.876854 194.886762 
L 65.876854 200.253297 
L 65.876854 205.619832 
L 65.876854 210.986367 
L 65.876854 216.352902 
L 65.876854 220.13549 
L 69.377205 216.352902 
L 74.153708 211.191265 
L 82.430562 211.191265 
L 82.746577 210.986367 
L 90.707416 207.889385 
L 93.624375 205.619832 
L 98.98427 200.40697 
L 99.119706 200.253297 
L 103.59672 194.886762 
L 107.261125 193.302814 
L 111.636563 189.520227 
L 115.537979 186.990632 
L 118.454938 184.153692 
L 123.814833 180.67845 
L 125.759472 178.787156 
L 132.091687 174.681484 
L 134.279406 173.420621 
L 140.368541 168.908547 
L 141.906024 168.054086 
L 148.645395 163.684422 
L 150.182878 162.687551 
L 156.922249 158.317887 
L 158.767229 157.321016 
L 165.199103 153.845774 
L 169.574542 151.954481 
L 173.475957 149.424886 
L 181.752811 147.784191 
L 186.365261 146.587945 
L 190.029665 145.003998 
L 198.30652 144.058351 
L 206.583374 142.253025 
L 214.860228 141.249351 
L 214.933154 141.22141 
L 223.137082 136.611393 
L 231.413936 138.124428 
L 239.69079 137.475984 
L 247.967644 137.115738 
L 256.244498 139.637463 
L 262.078416 135.854875 
L 264.521352 133.478954 
L 269.133802 130.48834 
L 270.35527 125.121805 
L 272.798206 123.537857 
L 276.462611 125.121805 
L 281.075061 126.617112 
L 287.04569 130.48834 
L 281.075061 135.649978 
L 280.838049 135.854875 
L 279.921948 141.22141 
L 275.241143 146.587945 
L 276.699622 151.954481 
L 272.798206 155.327273 
L 272.029465 157.321016 
L 271.207138 162.687551 
L 264.521352 167.455963 
L 264.203252 168.054086 
L 264.521352 168.196496 
L 272.798206 168.926991 
L 279.728772 173.420621 
L 280.449998 178.787156 
L 280.710441 184.153692 
L 281.075061 186.990632 
L 284.976476 189.520227 
L 287.407275 194.886762 
L 281.075061 200.165484 
L 281.061517 200.253297 
L 281.075061 200.355746 
L 287.164195 205.619832 
L 288.3224 210.986367 
L 288.185131 216.352902 
L 285.851564 221.719438 
L 281.075061 226.881075 
L 280.939625 227.085973 
L 272.798206 231.704854 
L 270.491982 232.452508 
L 264.521352 235.54949 
L 258.687434 237.819043 
L 256.244498 239.402991 
L 247.967644 241.989333 
L 245.661419 243.185578 
L 239.69079 246.282561 
L 231.413936 246.558371 
L 226.801486 248.552113 
L 223.137082 250.928035 
L 215.808273 248.552113 
L 214.860228 248.429175 
L 214.787301 248.552113 
L 206.583374 253.162131 
L 198.30652 252.921777 
L 196.46154 253.918648 
L 198.30652 256.909262 
L 200.749456 259.285184 
L 198.30652 264.037026 
L 194.642115 259.285184 
L 190.029665 258.088938 
L 181.752811 258.620603 
L 179.446586 259.285184 
L 181.752811 262.275797 
L 184.195748 264.651719 
L 181.752811 266.235666 
L 173.475957 269.403562 
L 172.527912 270.018254 
L 173.475957 270.3256 
L 181.752811 273.800842 
L 185.417216 275.384789 
L 181.752811 277.76071 
L 173.475957 280.443978 
L 172.527912 280.751324 
L 173.475957 280.904997 
L 181.752811 282.246631 
L 190.029665 283.020877 
L 195.863583 280.751324 
L 198.30652 279.167377 
L 206.583374 277.654342 
L 212.417292 275.384789 
L 214.860228 273.800842 
L 218.524632 275.384789 
L 214.860228 280.136632 
L 214.544213 280.751324 
L 206.583374 285.912962 
L 198.30652 285.503167 
L 197.990504 286.117859 
L 190.029665 289.989088 
L 181.752811 289.214842 
L 177.377373 291.484395 
L 173.475957 294.013989 
L 165.199103 293.068342 
L 156.922249 294.581377 
L 151.088331 296.85093 
L 148.645395 298.434877 
L 140.368541 299.947912 
L 132.091687 300.223722 
L 127.479237 302.217465 
z
M 187.586729 270.018254 
L 190.029665 268.434306 
L 193.69407 270.018254 
L 190.029665 272.394175 
z
M 281.549083 119.75527 
L 289.351915 117.225675 
L 294.553802 119.75527 
L 289.351915 124.814459 
z
" style="fill:#ffffff;"/>
    <path clip-path="url(#p40cf2a0078)" d="M 123.814833 286.271533 
L 124.130848 286.117859 
L 123.814833 285.994921 
L 123.34081 286.117859 
z
" style="fill:#ffffff;"/>
    <path clip-path="url(#p40cf2a0078)" d="M 148.645395 286.240798 
L 156.922249 286.322757 
L 157.111858 286.117859 
L 156.922249 285.503167 
L 148.645395 285.912962 
L 148.408384 286.117859 
z
" style="fill:#ffffff;"/>
    <path clip-path="url(#p40cf2a0078)" d="M 107.261125 281.05867 
L 115.537979 281.05867 
L 115.727588 280.751324 
L 115.537979 280.546427 
L 107.57714 275.384789 
L 107.261125 275.361147 
L 107.21598 275.384789 
L 106.787102 280.751324 
z
" style="fill:#ffffff;"/>
    <path clip-path="url(#p40cf2a0078)" d="M 132.091687 280.956222 
L 132.56571 280.751324 
L 140.368541 275.692135 
L 140.684556 275.384789 
L 144.980991 270.018254 
L 140.368541 267.02764 
L 132.091687 269.864581 
L 123.814833 269.96703 
L 123.625224 270.018254 
L 123.814833 270.3256 
L 129.01672 275.384789 
L 131.902078 280.751324 
z
" style="fill:#ffffff;"/>
    <path clip-path="url(#p40cf2a0078)" d="M 165.199103 278.375403 
L 168.27407 275.384789 
L 165.199103 272.394175 
L 162.124137 275.384789 
z
" style="fill:#ffffff;"/>
    <path clip-path="url(#p40cf2a0078)" d="M 148.645395 265.266411 
L 156.922249 266.645461 
L 159.228474 264.651719 
L 156.922249 263.156412 
L 148.645395 264.498046 
L 147.697349 264.651719 
z
" style="fill:#ffffff;"/>
    <path clip-path="url(#p40cf2a0078)" d="M 165.199103 261.554736 
L 168.699454 259.285184 
L 165.199103 258.253569 
L 161.698752 259.285184 
z
" style="fill:#ffffff;"/>
    <path clip-path="url(#p40cf2a0078)" d="M 70.489304 237.819043 
L 65.876854 234.828429 
L 65.876854 237.819043 
L 65.876854 240.809657 
z
" style="fill:#ffffff;"/>
    <path clip-path="url(#p40cf2a0078)" d="M 256.244498 228.082844 
L 257.397611 227.085973 
L 256.244498 226.089101 
L 253.938273 227.085973 
z
" style="fill:#ffffff;"/>
    <path clip-path="url(#p40cf2a0078)" d="M 74.153708 221.821886 
L 74.259047 221.719438 
L 74.153708 221.51454 
L 73.205663 221.719438 
z
" style="fill:#ffffff;"/>
   </g>
   <g id="PathCollection_3">
    <path clip-path="url(#p40cf2a0078)" d="M 115.537979 302.217465 
L 123.814833 302.217465 
L 127.479237 302.217465 
L 132.091687 300.223722 
L 140.368541 299.947912 
L 148.645395 298.434877 
L 151.088331 296.85093 
L 156.922249 294.581377 
L 165.199103 293.068342 
L 173.475957 294.013989 
L 177.377373 291.484395 
L 181.752811 289.214842 
L 190.029665 289.989088 
L 197.990504 286.117859 
L 198.30652 285.503167 
L 206.583374 285.912962 
L 214.544213 280.751324 
L 214.860228 280.136632 
L 218.524632 275.384789 
L 214.860228 273.800842 
L 212.417292 275.384789 
L 206.583374 277.654342 
L 198.30652 279.167377 
L 195.863583 280.751324 
L 190.029665 283.020877 
L 181.752811 282.246631 
L 173.475957 280.904997 
L 172.527912 280.751324 
L 173.475957 280.443978 
L 181.752811 277.76071 
L 185.417216 275.384789 
L 181.752811 273.800842 
L 173.475957 270.3256 
L 172.527912 270.018254 
L 173.475957 269.403562 
L 181.752811 266.235666 
L 184.195748 264.651719 
L 181.752811 262.275797 
L 179.446586 259.285184 
L 181.752811 258.620603 
L 190.029665 258.088938 
L 194.642115 259.285184 
L 198.30652 264.037026 
L 200.749456 259.285184 
L 198.30652 256.909262 
L 196.46154 253.918648 
L 198.30652 252.921777 
L 206.583374 253.162131 
L 214.787301 248.552113 
L 214.860228 248.429175 
L 215.808273 248.552113 
L 223.137082 250.928035 
L 226.801486 248.552113 
L 231.413936 246.558371 
L 239.69079 246.282561 
L 245.661419 243.185578 
L 247.967644 241.989333 
L 256.244498 239.402991 
L 258.687434 237.819043 
L 264.521352 235.54949 
L 270.491982 232.452508 
L 272.798206 231.704854 
L 280.939625 227.085973 
L 281.075061 226.881075 
L 285.851564 221.719438 
L 288.185131 216.352902 
L 288.3224 210.986367 
L 287.164195 205.619832 
L 281.075061 200.355746 
L 281.061517 200.253297 
L 281.075061 200.165484 
L 287.407275 194.886762 
L 284.976476 189.520227 
L 281.075061 186.990632 
L 280.710441 184.153692 
L 280.449998 178.787156 
L 279.728772 173.420621 
L 272.798206 168.926991 
L 264.521352 168.196496 
L 264.203252 168.054086 
L 264.521352 167.455963 
L 271.207138 162.687551 
L 272.029465 157.321016 
L 272.798206 155.327273 
L 276.699622 151.954481 
L 275.241143 146.587945 
L 279.921948 141.22141 
L 280.838049 135.854875 
L 281.075061 135.649978 
L 287.04569 130.48834 
L 281.075061 126.617112 
L 276.462611 125.121805 
L 272.798206 123.537857 
L 270.35527 125.121805 
L 269.133802 130.48834 
L 264.521352 133.478954 
L 262.078416 135.854875 
L 256.244498 139.637463 
L 247.967644 137.115738 
L 239.69079 137.475984 
L 231.413936 138.124428 
L 223.137082 136.611393 
L 214.933154 141.22141 
L 214.860228 141.249351 
L 206.583374 142.253025 
L 198.30652 144.058351 
L 190.029665 145.003998 
L 186.365261 146.587945 
L 181.752811 147.784191 
L 173.475957 149.424886 
L 169.574542 151.954481 
L 165.199103 153.845774 
L 158.767229 157.321016 
L 156.922249 158.317887 
L 150.182878 162.687551 
L 148.645395 163.684422 
L 141.906024 168.054086 
L 140.368541 168.908547 
L 134.279406 173.420621 
L 132.091687 174.681484 
L 125.759472 178.787156 
L 123.814833 180.67845 
L 118.454938 184.153692 
L 115.537979 186.990632 
L 111.636563 189.520227 
L 107.261125 193.302814 
L 103.59672 194.886762 
L 99.119706 200.253297 
L 98.98427 200.40697 
L 93.624375 205.619832 
L 90.707416 207.889385 
L 82.746577 210.986367 
L 82.430562 211.191265 
L 74.153708 211.191265 
L 69.377205 216.352902 
L 65.876854 220.13549 
L 65.876854 221.719438 
L 65.876854 225.017398 
L 74.153708 223.71318 
L 76.203686 221.719438 
L 74.153708 217.731953 
L 72.877556 216.352902 
L 74.153708 214.973852 
L 82.430562 214.973852 
L 88.580495 210.986367 
L 90.707416 210.158937 
L 96.541334 205.619832 
L 98.98427 203.243911 
L 101.619956 200.253297 
L 107.261125 195.986082 
L 108.278419 194.886762 
L 115.537979 189.656825 
L 115.917197 189.520227 
L 121.371897 184.153692 
L 123.814833 182.569744 
L 127.704111 178.787156 
L 132.091687 175.942346 
L 136.467125 173.420621 
L 140.368541 170.529656 
L 144.822983 168.054086 
L 148.645395 165.575716 
L 153.099837 162.687551 
L 156.922249 160.209181 
L 162.26758 157.321016 
L 165.199103 155.737068 
L 173.475957 152.569173 
L 174.424003 151.954481 
L 181.752811 150.053744 
L 190.029665 149.885905 
L 198.30652 146.690394 
L 198.57739 146.587945 
L 206.583374 143.28464 
L 214.860228 141.765158 
L 216.279443 141.22141 
L 223.137082 137.36791 
L 231.413936 140.39398 
L 239.69079 139.097093 
L 247.967644 138.3766 
L 254.549007 141.22141 
L 256.244498 142.540594 
L 259.63548 141.22141 
L 264.521352 138.053515 
L 267.912334 135.854875 
L 272.798206 132.68698 
L 276.462611 135.854875 
L 277.734229 141.22141 
L 272.798206 145.488625 
L 271.344929 146.587945 
L 272.527336 151.954481 
L 270.570985 157.321016 
L 269.616069 162.687551 
L 264.521352 166.321187 
L 263.599744 168.054086 
L 264.521352 168.466681 
L 272.798206 169.799896 
L 278.382483 173.420621 
L 279.824935 178.787156 
L 280.345821 184.153692 
L 281.060696 189.520227 
L 281.075061 189.766104 
L 285.462636 194.886762 
L 281.075061 198.544375 
L 280.811492 200.253297 
L 281.075061 202.24704 
L 284.976476 205.619832 
L 287.292885 210.986367 
L 287.018347 216.352902 
L 282.351213 221.719438 
L 281.075061 223.098488 
L 278.439375 227.085973 
L 272.798206 230.286384 
L 266.116543 232.452508 
L 264.521352 233.279938 
L 256.244498 236.170063 
L 252.853517 237.819043 
L 247.967644 239.71978 
L 241.285981 243.185578 
L 239.69079 244.013008 
L 233.310027 243.185578 
L 231.887959 237.819043 
L 231.413936 236.589658 
L 230.781906 237.819043 
L 229.517845 243.185578 
L 223.137082 245.254153 
L 214.860228 246.159622 
L 213.441012 248.552113 
L 206.583374 252.405613 
L 198.30652 251.030483 
L 192.961189 253.918648 
L 190.029665 255.819386 
L 181.752811 257.35974 
L 175.071148 259.285184 
L 173.475957 261.353759 
L 172.199805 259.285184 
L 165.199103 257.221954 
L 158.198402 259.285184 
L 156.922249 260.319471 
L 148.645395 261.661105 
L 140.368541 264.337627 
L 136.977559 264.651719 
L 132.091687 267.02764 
L 123.814833 269.021383 
L 120.124873 270.018254 
L 121.918742 275.384789 
L 123.814833 275.794584 
L 128.401727 280.751324 
L 123.814833 283.725368 
L 119.227938 280.751324 
L 115.537979 276.763839 
L 113.411058 275.384789 
L 107.261125 274.924695 
L 106.382563 275.384789 
L 98.98427 280.68662 
L 98.811899 280.751324 
L 98.98427 281.980709 
L 105.365033 286.117859 
L 98.98427 290.25501 
L 90.707416 290.25501 
L 82.430562 290.824803 
L 81.505749 291.484395 
L 82.430562 292.426669 
L 90.707416 291.689292 
L 98.98427 291.660021 
L 107.261125 292.099087 
L 107.893155 291.484395 
L 115.537979 286.527654 
L 123.814833 289.108473 
L 128.700705 291.484395 
L 131.712469 296.85093 
L 123.814833 301.118145 
L 115.537979 301.118145 
L 112.146997 302.217465 
z
M 133.987778 296.85093 
L 134.126276 291.484395 
L 132.091687 288.186435 
L 129.964766 286.117859 
L 132.091687 284.738809 
L 140.368541 281.366017 
L 142.264632 280.751324 
L 146.518474 275.384789 
L 148.645395 273.316214 
L 155.026158 275.384789 
L 151.835777 280.751324 
L 148.645395 282.130374 
L 144.032945 286.117859 
L 148.645395 288.51035 
L 156.922249 290.105344 
L 160.612209 286.117859 
L 165.199103 282.400304 
L 173.475957 283.741938 
L 181.752811 285.083572 
L 190.029665 285.290429 
L 192.156586 286.117859 
L 190.029665 287.152147 
L 181.752811 286.945289 
L 173.475957 290.869702 
L 165.199103 289.835415 
L 160.112631 291.484395 
L 156.922249 292.311825 
L 148.645395 295.20195 
L 143.558922 296.85093 
L 140.368541 297.67836 
z
M 123.34081 286.117859 
L 123.814833 285.994921 
L 124.130848 286.117859 
L 123.814833 286.271533 
z
M 148.408384 286.117859 
L 148.645395 285.912962 
L 156.922249 285.503167 
L 157.111858 286.117859 
L 156.922249 286.322757 
L 148.645395 286.240798 
z
M 106.787102 280.751324 
L 107.21598 275.384789 
L 107.261125 275.361147 
L 107.57714 275.384789 
L 115.537979 280.546427 
L 115.727588 280.751324 
L 115.537979 281.05867 
L 107.261125 281.05867 
z
M 131.902078 280.751324 
L 129.01672 275.384789 
L 123.814833 270.3256 
L 123.625224 270.018254 
L 123.814833 269.96703 
L 132.091687 269.864581 
L 140.368541 267.02764 
L 144.980991 270.018254 
L 140.684556 275.384789 
L 140.368541 275.692135 
L 132.56571 280.751324 
L 132.091687 280.956222 
z
M 203.392992 280.751324 
L 206.583374 279.923894 
L 208.710295 280.751324 
L 206.583374 282.130374 
z
M 162.124137 275.384789 
L 165.199103 272.394175 
L 168.27407 275.384789 
L 165.199103 278.375403 
z
M 147.697349 264.651719 
L 148.645395 264.498046 
L 156.922249 263.156412 
L 159.228474 264.651719 
L 156.922249 266.645461 
L 148.645395 265.266411 
z
M 163.603912 264.651719 
L 165.199103 263.824289 
L 168.389485 264.651719 
L 165.199103 266.720294 
z
M 161.698752 259.285184 
L 165.199103 258.253569 
L 168.699454 259.285184 
L 165.199103 261.554736 
z
M 73.205663 221.719438 
L 74.153708 221.51454 
L 74.259047 221.719438 
L 74.153708 221.821886 
z
M 277.884679 130.48834 
L 281.075061 129.454052 
L 282.670251 130.48834 
L 281.075061 131.86739 
z
" style="fill:#f0f0f0;"/>
    <path clip-path="url(#p40cf2a0078)" d="M 190.029665 272.394175 
L 193.69407 270.018254 
L 190.029665 268.434306 
L 187.586729 270.018254 
z
" style="fill:#f0f0f0;"/>
    <path clip-path="url(#p40cf2a0078)" d="M 66.227645 248.552113 
L 67.572345 243.185578 
L 74.153708 238.918363 
L 74.59601 237.819043 
L 74.153708 236.719723 
L 67.572345 232.452508 
L 65.876854 229.154548 
L 65.876854 232.452508 
L 65.876854 234.828429 
L 70.489304 237.819043 
L 65.876854 240.809657 
L 65.876854 243.185578 
L 65.876854 248.552113 
L 65.876854 249.871297 
z
" style="fill:#f0f0f0;"/>
    <path clip-path="url(#p40cf2a0078)" d="M 247.967644 233.0672 
L 248.599674 232.452508 
L 247.967644 231.223123 
L 247.730633 232.452508 
z
" style="fill:#f0f0f0;"/>
    <path clip-path="url(#p40cf2a0078)" d="M 256.244498 229.974138 
L 259.58533 227.085973 
L 256.244498 224.197808 
L 249.562835 227.085973 
z
M 253.938273 227.085973 
L 256.244498 226.089101 
L 257.397611 227.085973 
L 256.244498 228.082844 
z
" style="fill:#f0f0f0;"/>
    <path clip-path="url(#p40cf2a0078)" d="M 264.521352 216.762697 
L 264.758364 216.352902 
L 264.521352 216.265089 
L 264.310676 216.352902 
z
" style="fill:#f0f0f0;"/>
    <path clip-path="url(#p40cf2a0078)" d="M 165.199103 163.916936 
L 166.147149 162.687551 
L 165.199103 162.072858 
L 164.567073 162.687551 
z
" style="fill:#f0f0f0;"/>
    <path clip-path="url(#p40cf2a0078)" d="M 289.351915 124.814459 
L 294.553802 119.75527 
L 289.351915 117.225675 
L 281.549083 119.75527 
z
" style="fill:#f0f0f0;"/>
   </g>
   <g id="PathCollection_4">
    <path clip-path="url(#p40cf2a0078)" d="M 74.153708 302.217465 
L 82.430562 302.217465 
L 90.707416 302.217465 
L 98.98427 302.217465 
L 107.261125 302.217465 
L 112.146997 302.217465 
L 115.537979 301.118145 
L 123.814833 301.118145 
L 131.712469 296.85093 
L 128.700705 291.484395 
L 123.814833 289.108473 
L 115.537979 286.527654 
L 107.893155 291.484395 
L 107.261125 292.099087 
L 98.98427 291.660021 
L 90.707416 291.689292 
L 82.430562 292.426669 
L 81.505749 291.484395 
L 82.430562 290.824803 
L 90.707416 290.25501 
L 98.98427 290.25501 
L 105.365033 286.117859 
L 98.98427 281.980709 
L 98.811899 280.751324 
L 98.98427 280.68662 
L 106.382563 275.384789 
L 107.261125 274.924695 
L 113.411058 275.384789 
L 115.537979 276.763839 
L 119.227938 280.751324 
L 123.814833 283.725368 
L 128.401727 280.751324 
L 123.814833 275.794584 
L 121.918742 275.384789 
L 120.124873 270.018254 
L 123.814833 269.021383 
L 132.091687 267.02764 
L 136.977559 264.651719 
L 140.368541 264.337627 
L 148.645395 261.661105 
L 156.922249 260.319471 
L 158.198402 259.285184 
L 165.199103 257.221954 
L 172.199805 259.285184 
L 173.475957 261.353759 
L 175.071148 259.285184 
L 181.752811 257.35974 
L 190.029665 255.819386 
L 192.961189 253.918648 
L 198.30652 251.030483 
L 206.583374 252.405613 
L 213.441012 248.552113 
L 214.860228 246.159622 
L 223.137082 245.254153 
L 229.517845 243.185578 
L 230.781906 237.819043 
L 231.413936 236.589658 
L 231.887959 237.819043 
L 233.310027 243.185578 
L 239.69079 244.013008 
L 241.285981 243.185578 
L 247.967644 239.71978 
L 252.853517 237.819043 
L 256.244498 236.170063 
L 264.521352 233.279938 
L 266.116543 232.452508 
L 272.798206 230.286384 
L 278.439375 227.085973 
L 281.075061 223.098488 
L 282.351213 221.719438 
L 287.018347 216.352902 
L 287.292885 210.986367 
L 284.976476 205.619832 
L 281.075061 202.24704 
L 280.811492 200.253297 
L 281.075061 198.544375 
L 285.462636 194.886762 
L 281.075061 189.766104 
L 281.060696 189.520227 
L 280.345821 184.153692 
L 279.824935 178.787156 
L 278.382483 173.420621 
L 272.798206 169.799896 
L 264.521352 168.466681 
L 263.599744 168.054086 
L 264.521352 166.321187 
L 269.616069 162.687551 
L 270.570985 157.321016 
L 272.527336 151.954481 
L 271.344929 146.587945 
L 272.798206 145.488625 
L 277.734229 141.22141 
L 276.462611 135.854875 
L 272.798206 132.68698 
L 267.912334 135.854875 
L 264.521352 138.053515 
L 259.63548 141.22141 
L 256.244498 142.540594 
L 254.549007 141.22141 
L 247.967644 138.3766 
L 239.69079 139.097093 
L 231.413936 140.39398 
L 223.137082 137.36791 
L 216.279443 141.22141 
L 214.860228 141.765158 
L 206.583374 143.28464 
L 198.57739 146.587945 
L 198.30652 146.690394 
L 190.029665 149.885905 
L 181.752811 150.053744 
L 174.424003 151.954481 
L 173.475957 152.569173 
L 165.199103 155.737068 
L 162.26758 157.321016 
L 156.922249 160.209181 
L 153.099837 162.687551 
L 148.645395 165.575716 
L 144.822983 168.054086 
L 140.368541 170.529656 
L 136.467125 173.420621 
L 132.091687 175.942346 
L 127.704111 178.787156 
L 123.814833 182.569744 
L 121.371897 184.153692 
L 115.917197 189.520227 
L 115.537979 189.656825 
L 108.278419 194.886762 
L 107.261125 195.986082 
L 101.619956 200.253297 
L 98.98427 203.243911 
L 96.541334 205.619832 
L 90.707416 210.158937 
L 88.580495 210.986367 
L 82.430562 214.973852 
L 74.153708 214.973852 
L 72.877556 216.352902 
L 74.153708 217.731953 
L 76.203686 221.719438 
L 74.153708 223.71318 
L 65.876854 225.017398 
L 65.876854 227.085973 
L 65.876854 229.154548 
L 67.572345 232.452508 
L 74.153708 236.719723 
L 74.59601 237.819043 
L 74.153708 238.918363 
L 67.572345 243.185578 
L 66.227645 248.552113 
L 65.876854 249.871297 
L 65.876854 253.918648 
L 65.876854 254.730797 
L 66.586652 253.918648 
L 68.038172 248.552113 
L 74.153708 243.552535 
L 74.773569 243.185578 
L 76.878848 237.819043 
L 78.492735 232.452508 
L 81.251687 227.085973 
L 82.037604 221.719438 
L 82.430562 221.337259 
L 90.707416 216.791968 
L 90.970762 216.352902 
L 94.255455 210.986367 
L 98.98427 207.664799 
L 101.895628 205.619832 
L 107.261125 201.097297 
L 108.562833 200.253297 
L 113.528945 194.886762 
L 115.537979 193.439413 
L 123.814833 190.725941 
L 125.674416 189.520227 
L 132.091687 186.284032 
L 140.368541 184.537328 
L 141.182109 184.153692 
L 148.645395 179.599305 
L 151.011388 178.787156 
L 156.922249 175.337928 
L 161.850714 173.420621 
L 165.199103 171.792353 
L 169.392239 168.054086 
L 173.475957 165.141511 
L 176.916652 162.687551 
L 181.752811 159.238323 
L 183.865011 157.321016 
L 190.029665 153.823614 
L 194.222802 151.954481 
L 198.30652 149.527335 
L 206.078141 146.587945 
L 206.583374 146.379484 
L 214.860228 143.31258 
L 220.318309 141.22141 
L 223.137082 139.637463 
L 226.801486 141.22141 
L 231.413936 143.215153 
L 239.69079 146.014677 
L 247.967644 144.034743 
L 250.921014 146.587945 
L 256.244498 147.843085 
L 264.521352 149.661408 
L 265.026585 151.954481 
L 266.195547 157.321016 
L 264.842864 162.687551 
L 264.521352 162.916858 
L 261.789217 168.054086 
L 264.521352 169.277236 
L 272.798206 172.41861 
L 274.343617 173.420621 
L 277.949747 178.787156 
L 279.251961 184.153692 
L 280.662929 189.520227 
L 280.757571 194.886762 
L 280.061417 200.253297 
L 280.483562 205.619832 
L 281.075061 207.153891 
L 284.20434 210.986367 
L 283.517997 216.352902 
L 281.075061 218.728824 
L 274.485846 221.719438 
L 272.798206 224.27264 
L 270.43551 221.719438 
L 271.321521 216.352902 
L 264.521352 213.833426 
L 258.476758 216.352902 
L 256.244498 218.523926 
L 252.548149 221.719438 
L 247.967644 224.095359 
L 239.69079 226.646907 
L 237.320676 227.085973 
L 231.413936 228.180202 
L 227.2208 232.452508 
L 223.137082 235.688702 
L 220.862406 237.819043 
L 214.860228 241.710727 
L 206.583374 241.804925 
L 204.808879 243.185578 
L 206.583374 245.15794 
L 209.402146 248.552113 
L 206.583374 250.136061 
L 202.002868 248.552113 
L 198.30652 247.077262 
L 190.029665 246.864114 
L 188.846294 248.552113 
L 181.752811 253.611302 
L 180.804766 253.918648 
L 173.475957 256.29457 
L 165.199103 254.12711 
L 156.922249 257.149031 
L 148.645395 257.841678 
L 146.542748 259.285184 
L 140.368541 262.716518 
L 132.091687 262.764057 
L 127.360731 264.651719 
L 123.814833 266.184442 
L 115.537979 269.500063 
L 114.129846 270.018254 
L 107.261125 273.615337 
L 103.882312 275.384789 
L 98.98427 278.894868 
L 94.038693 280.751324 
L 90.707416 283.127246 
L 84.941854 286.117859 
L 82.430562 287.420474 
L 76.732544 291.484395 
L 74.153708 296.082564 
L 74.040846 296.85093 
L 74.022035 302.217465 
z
M 95.447644 296.85093 
L 98.98427 296.523348 
L 99.691596 296.85093 
L 98.98427 297.233109 
z
M 238.00315 232.452508 
L 239.69079 228.622704 
L 241.167475 232.452508 
L 239.69079 234.36741 
z
M 247.730633 232.452508 
L 247.967644 231.223123 
L 248.599674 232.452508 
L 247.967644 233.0672 
z
M 249.562835 227.085973 
L 256.244498 224.197808 
L 259.58533 227.085973 
L 256.244498 229.974138 
z
M 264.310676 216.352902 
L 264.521352 216.265089 
L 264.758364 216.352902 
L 264.521352 216.762697 
z
M 164.567073 162.687551 
L 165.199103 162.072858 
L 166.147149 162.687551 
L 165.199103 163.916936 
z
" style="fill:#d3d3d3;"/>
    <path clip-path="url(#p40cf2a0078)" d="M 140.368541 297.67836 
L 143.558922 296.85093 
L 148.645395 295.20195 
L 156.922249 292.311825 
L 160.112631 291.484395 
L 165.199103 289.835415 
L 173.475957 290.869702 
L 181.752811 286.945289 
L 190.029665 287.152147 
L 192.156586 286.117859 
L 190.029665 285.290429 
L 181.752811 285.083572 
L 173.475957 283.741938 
L 165.199103 282.400304 
L 160.612209 286.117859 
L 156.922249 290.105344 
L 148.645395 288.51035 
L 144.032945 286.117859 
L 148.645395 282.130374 
L 151.835777 280.751324 
L 155.026158 275.384789 
L 148.645395 273.316214 
L 146.518474 275.384789 
L 142.264632 280.751324 
L 140.368541 281.366017 
L 132.091687 284.738809 
L 129.964766 286.117859 
L 132.091687 288.186435 
L 134.126276 291.484395 
L 133.987778 296.85093 
z
" style="fill:#d3d3d3;"/>
    <path clip-path="url(#p40cf2a0078)" d="M 206.583374 282.130374 
L 208.710295 280.751324 
L 206.583374 279.923894 
L 203.392992 280.751324 
z
" style="fill:#d3d3d3;"/>
    <path clip-path="url(#p40cf2a0078)" d="M 165.199103 266.720294 
L 168.389485 264.651719 
L 165.199103 263.824289 
L 163.603912 264.651719 
z
" style="fill:#d3d3d3;"/>
    <path clip-path="url(#p40cf2a0078)" d="M 214.860228 216.589323 
L 215.085953 216.352902 
L 214.860228 216.298982 
L 214.728555 216.352902 
z
" style="fill:#d3d3d3;"/>
    <path clip-path="url(#p40cf2a0078)" d="M 140.368541 207.729831 
L 142.538055 205.619832 
L 140.368541 205.016975 
L 139.554973 205.619832 
z
" style="fill:#d3d3d3;"/>
    <path clip-path="url(#p40cf2a0078)" d="M 156.922249 201.979114 
L 159.96424 200.253297 
L 156.922249 198.719238 
L 151.598765 200.253297 
z
" style="fill:#d3d3d3;"/>
    <path clip-path="url(#p40cf2a0078)" d="M 181.752811 168.182147 
L 182.937868 168.054086 
L 181.752811 167.61502 
L 180.962773 168.054086 
z
" style="fill:#d3d3d3;"/>
    <path clip-path="url(#p40cf2a0078)" d="M 281.075061 131.86739 
L 282.670251 130.48834 
L 281.075061 129.454052 
L 277.884679 130.48834 
z
" style="fill:#d3d3d3;"/>
   </g>
   <g id="PathCollection_5">
    <path clip-path="url(#p40cf2a0078)" d="M 74.040846 296.85093 
L 74.153708 296.082564 
L 76.732544 291.484395 
L 82.430562 287.420474 
L 84.941854 286.117859 
L 90.707416 283.127246 
L 94.038693 280.751324 
L 98.98427 278.894868 
L 103.882312 275.384789 
L 107.261125 273.615337 
L 114.129846 270.018254 
L 115.537979 269.500063 
L 123.814833 266.184442 
L 127.360731 264.651719 
L 132.091687 262.764057 
L 140.368541 262.716518 
L 146.542748 259.285184 
L 148.645395 257.841678 
L 156.922249 257.149031 
L 165.199103 254.12711 
L 173.475957 256.29457 
L 180.804766 253.918648 
L 181.752811 253.611302 
L 188.846294 248.552113 
L 190.029665 246.864114 
L 198.30652 247.077262 
L 202.002868 248.552113 
L 206.583374 250.136061 
L 209.402146 248.552113 
L 206.583374 245.15794 
L 204.808879 243.185578 
L 206.583374 241.804925 
L 214.860228 241.710727 
L 220.862406 237.819043 
L 223.137082 235.688702 
L 227.2208 232.452508 
L 231.413936 228.180202 
L 237.320676 227.085973 
L 239.69079 226.646907 
L 247.967644 224.095359 
L 252.548149 221.719438 
L 256.244498 218.523926 
L 258.476758 216.352902 
L 264.521352 213.833426 
L 271.321521 216.352902 
L 270.43551 221.719438 
L 272.798206 224.27264 
L 274.485846 221.719438 
L 281.075061 218.728824 
L 283.517997 216.352902 
L 284.20434 210.986367 
L 281.075061 207.153891 
L 280.483562 205.619832 
L 280.061417 200.253297 
L 280.757571 194.886762 
L 280.662929 189.520227 
L 279.251961 184.153692 
L 277.949747 178.787156 
L 274.343617 173.420621 
L 272.798206 172.41861 
L 264.521352 169.277236 
L 261.789217 168.054086 
L 264.521352 162.916858 
L 264.842864 162.687551 
L 266.195547 157.321016 
L 265.026585 151.954481 
L 264.521352 149.661408 
L 256.244498 147.843085 
L 250.921014 146.587945 
L 247.967644 144.034743 
L 239.69079 146.014677 
L 231.413936 143.215153 
L 226.801486 141.22141 
L 223.137082 139.637463 
L 220.318309 141.22141 
L 214.860228 143.31258 
L 206.583374 146.379484 
L 206.078141 146.587945 
L 198.30652 149.527335 
L 194.222802 151.954481 
L 190.029665 153.823614 
L 183.865011 157.321016 
L 181.752811 159.238323 
L 176.916652 162.687551 
L 173.475957 165.141511 
L 169.392239 168.054086 
L 165.199103 171.792353 
L 161.850714 173.420621 
L 156.922249 175.337928 
L 151.011388 178.787156 
L 148.645395 179.599305 
L 141.182109 184.153692 
L 140.368541 184.537328 
L 132.091687 186.284032 
L 125.674416 189.520227 
L 123.814833 190.725941 
L 115.537979 193.439413 
L 113.528945 194.886762 
L 108.562833 200.253297 
L 107.261125 201.097297 
L 101.895628 205.619832 
L 98.98427 207.664799 
L 94.255455 210.986367 
L 90.970762 216.352902 
L 90.707416 216.791968 
L 82.430562 221.337259 
L 82.037604 221.719438 
L 81.251687 227.085973 
L 78.492735 232.452508 
L 76.878848 237.819043 
L 74.773569 243.185578 
L 74.153708 243.552535 
L 68.038172 248.552113 
L 66.586652 253.918648 
L 65.876854 254.730797 
L 65.876854 259.285184 
L 65.876854 263.127011 
L 66.370628 259.285184 
L 70.96209 253.918648 
L 72.564487 248.552113 
L 74.153708 247.252892 
L 79.914634 248.552113 
L 82.430562 249.639629 
L 84.666943 248.552113 
L 82.430562 246.377082 
L 81.024196 243.185578 
L 82.430562 238.398323 
L 90.707416 242.420492 
L 98.98427 242.575695 
L 102.041031 237.819043 
L 107.261125 235.429916 
L 115.537979 232.742148 
L 119.111694 232.452508 
L 115.537979 232.066321 
L 110.929238 227.085973 
L 115.537979 223.350711 
L 122.24712 221.719438 
L 123.814833 221.338261 
L 124.598689 221.719438 
L 123.814833 222.735909 
L 121.298905 227.085973 
L 123.814833 231.436036 
L 132.091687 229.741075 
L 138.006669 227.085973 
L 140.368541 223.640351 
L 142.061479 221.719438 
L 148.645395 219.961668 
L 155.923788 216.352902 
L 156.922249 215.511307 
L 165.199103 212.238118 
L 168.255864 210.986367 
L 173.475957 208.085284 
L 176.433448 205.619832 
L 181.752811 202.352395 
L 184.213279 200.253297 
L 190.029665 197.307031 
L 191.561072 194.886762 
L 190.726758 189.520227 
L 190.029665 188.55977 
L 181.752811 186.422282 
L 173.475957 186.111949 
L 168.496004 189.520227 
L 165.199103 191.286103 
L 158.934991 189.520227 
L 156.922249 188.70459 
L 155.244964 189.520227 
L 150.416799 194.886762 
L 148.645395 195.697496 
L 140.368541 197.183843 
L 136.310787 200.253297 
L 132.091687 204.083101 
L 123.814833 201.936487 
L 122.372611 200.253297 
L 123.814833 199.551968 
L 131.664129 194.886762 
L 132.091687 194.609542 
L 137.847837 189.520227 
L 140.368541 188.405883 
L 148.645395 184.852206 
L 149.435433 184.153692 
L 156.922249 180.987849 
L 161.030954 178.787156 
L 165.199103 176.554625 
L 173.475957 175.582736 
L 176.532718 173.420621 
L 181.752811 171.728323 
L 190.029665 171.56543 
L 198.30652 168.7526 
L 206.583374 168.602919 
L 207.429843 168.054086 
L 214.860228 163.838596 
L 216.753846 162.687551 
L 217.078346 157.321016 
L 214.860228 155.163745 
L 206.583374 153.94662 
L 203.702911 151.954481 
L 206.583374 150.531524 
L 214.860228 147.675461 
L 216.537513 146.587945 
L 223.137082 144.142792 
L 228.086758 146.587945 
L 231.413936 147.633895 
L 239.69079 151.188787 
L 240.871726 151.954481 
L 245.992549 157.321016 
L 247.967644 157.655088 
L 248.31619 157.321016 
L 256.244498 152.951552 
L 262.104552 157.321016 
L 262.065073 162.687551 
L 257.262902 168.054086 
L 264.521352 171.303622 
L 269.092446 173.420621 
L 272.798206 178.226093 
L 273.261778 178.787156 
L 276.517312 184.153692 
L 279.668511 189.520227 
L 277.55603 194.886762 
L 278.186229 200.253297 
L 276.837364 205.619832 
L 272.798206 209.391053 
L 264.521352 207.754267 
L 260.331588 205.619832 
L 256.244498 204.679516 
L 247.967644 204.837815 
L 243.235975 205.619832 
L 239.69079 207.487463 
L 232.495602 210.986367 
L 231.413936 211.633748 
L 230.115937 210.986367 
L 223.137082 210.256538 
L 221.712826 210.986367 
L 223.137082 214.46709 
L 225.500242 216.352902 
L 223.137082 218.804458 
L 221.336579 216.352902 
L 214.860228 214.805855 
L 211.082356 216.352902 
L 206.583374 219.740437 
L 201.017544 221.719438 
L 198.30652 224.435991 
L 190.029665 226.857022 
L 189.538753 227.085973 
L 181.752811 232.393095 
L 181.62958 232.452508 
L 173.475957 236.711186 
L 171.197746 237.819043 
L 165.199103 241.319496 
L 159.442953 243.185578 
L 156.922249 245.414265 
L 153.595072 248.552113 
L 148.645395 252.501977 
L 145.09486 253.918648 
L 140.368541 257.420871 
L 132.091687 258.698671 
L 130.90877 259.285184 
L 123.814833 263.481271 
L 120.384967 264.651719 
L 115.537979 267.199841 
L 107.879219 270.018254 
L 107.261125 270.341944 
L 98.98427 273.968118 
L 90.707416 275.035532 
L 82.430562 275.143119 
L 81.99301 275.384789 
L 79.274531 280.751324 
L 74.153708 283.467878 
L 73.029759 286.117859 
L 71.44592 291.484395 
L 70.915532 296.85093 
L 70.375837 302.217465 
L 74.022035 302.217465 
z
M 89.153011 227.085973 
L 90.707416 225.612971 
L 92.67633 227.085973 
L 90.707416 229.213642 
z
M 98.26316 216.352902 
L 98.98427 215.511307 
L 101.580269 216.352902 
L 98.98427 218.45689 
z
M 114.362194 216.352902 
L 115.537979 216.047961 
L 116.125871 216.352902 
L 115.537979 217.369374 
z
M 214.728555 216.352902 
L 214.860228 216.298982 
L 215.085953 216.352902 
L 214.860228 216.589323 
z
M 238.692329 216.352902 
L 239.69079 215.651573 
L 241.133012 216.352902 
L 239.69079 217.117989 
z
M 245.087181 210.986367 
L 247.967644 208.687745 
L 254.55156 210.986367 
L 247.967644 213.28499 
z
M 114.950086 205.619832 
L 115.537979 205.238655 
L 116.713763 205.619832 
L 115.537979 205.924774 
z
M 139.554973 205.619832 
L 140.368541 205.016975 
L 142.538055 205.619832 
L 140.368541 207.729831 
z
M 151.598765 200.253297 
L 156.922249 198.719238 
L 159.96424 200.253297 
L 156.922249 201.979114 
z
M 180.962773 168.054086 
L 181.752811 167.61502 
L 182.937868 168.054086 
L 181.752811 168.182147 
z
" style="fill:#b8b8b8;"/>
    <path clip-path="url(#p40cf2a0078)" d="M 98.98427 297.233109 
L 99.691596 296.85093 
L 98.98427 296.523348 
L 95.447644 296.85093 
z
" style="fill:#b8b8b8;"/>
    <path clip-path="url(#p40cf2a0078)" d="M 132.091687 238.958554 
L 133.955678 237.819043 
L 132.091687 234.970267 
L 128.674371 237.819043 
z
" style="fill:#b8b8b8;"/>
    <path clip-path="url(#p40cf2a0078)" d="M 239.69079 234.36741 
L 241.167475 232.452508 
L 239.69079 228.622704 
L 238.00315 232.452508 
z
" style="fill:#b8b8b8;"/>
    <path clip-path="url(#p40cf2a0078)" d="M 148.645395 227.721032 
L 149.828907 227.085973 
L 148.645395 225.03967 
L 143.911349 227.085973 
z
" style="fill:#b8b8b8;"/>
    <path clip-path="url(#p40cf2a0078)" d="M 190.029665 180.628829 
L 192.611873 178.787156 
L 190.029665 176.945484 
L 184.34881 178.787156 
z
" style="fill:#b8b8b8;"/>
   </g>
   <g id="PathCollection_6">
    <path clip-path="url(#p40cf2a0078)" d="M 70.915532 296.85093 
L 71.44592 291.484395 
L 73.029759 286.117859 
L 74.153708 283.467878 
L 79.274531 280.751324 
L 81.99301 275.384789 
L 82.430562 275.143119 
L 90.707416 275.035532 
L 98.98427 273.968118 
L 107.261125 270.341944 
L 107.879219 270.018254 
L 115.537979 267.199841 
L 120.384967 264.651719 
L 123.814833 263.481271 
L 130.90877 259.285184 
L 132.091687 258.698671 
L 140.368541 257.420871 
L 145.09486 253.918648 
L 148.645395 252.501977 
L 153.595072 248.552113 
L 156.922249 245.414265 
L 159.442953 243.185578 
L 165.199103 241.319496 
L 171.197746 237.819043 
L 173.475957 236.711186 
L 181.62958 232.452508 
L 181.752811 232.393095 
L 189.538753 227.085973 
L 190.029665 226.857022 
L 198.30652 224.435991 
L 201.017544 221.719438 
L 206.583374 219.740437 
L 211.082356 216.352902 
L 214.860228 214.805855 
L 221.336579 216.352902 
L 223.137082 218.804458 
L 225.500242 216.352902 
L 223.137082 214.46709 
L 221.712826 210.986367 
L 223.137082 210.256538 
L 230.115937 210.986367 
L 231.413936 211.633748 
L 232.495602 210.986367 
L 239.69079 207.487463 
L 243.235975 205.619832 
L 247.967644 204.837815 
L 256.244498 204.679516 
L 260.331588 205.619832 
L 264.521352 207.754267 
L 272.798206 209.391053 
L 276.837364 205.619832 
L 278.186229 200.253297 
L 277.55603 194.886762 
L 279.668511 189.520227 
L 276.517312 184.153692 
L 273.261778 178.787156 
L 272.798206 178.226093 
L 269.092446 173.420621 
L 264.521352 171.303622 
L 257.262902 168.054086 
L 262.065073 162.687551 
L 262.104552 157.321016 
L 256.244498 152.951552 
L 248.31619 157.321016 
L 247.967644 157.655088 
L 245.992549 157.321016 
L 240.871726 151.954481 
L 239.69079 151.188787 
L 231.413936 147.633895 
L 228.086758 146.587945 
L 223.137082 144.142792 
L 216.537513 146.587945 
L 214.860228 147.675461 
L 206.583374 150.531524 
L 203.702911 151.954481 
L 206.583374 153.94662 
L 214.860228 155.163745 
L 217.078346 157.321016 
L 216.753846 162.687551 
L 214.860228 163.838596 
L 207.429843 168.054086 
L 206.583374 168.602919 
L 198.30652 168.7526 
L 190.029665 171.56543 
L 181.752811 171.728323 
L 176.532718 173.420621 
L 173.475957 175.582736 
L 165.199103 176.554625 
L 161.030954 178.787156 
L 156.922249 180.987849 
L 149.435433 184.153692 
L 148.645395 184.852206 
L 140.368541 188.405883 
L 137.847837 189.520227 
L 132.091687 194.609542 
L 131.664129 194.886762 
L 123.814833 199.551968 
L 122.372611 200.253297 
L 123.814833 201.936487 
L 132.091687 204.083101 
L 136.310787 200.253297 
L 140.368541 197.183843 
L 148.645395 195.697496 
L 150.416799 194.886762 
L 155.244964 189.520227 
L 156.922249 188.70459 
L 158.934991 189.520227 
L 165.199103 191.286103 
L 168.496004 189.520227 
L 173.475957 186.111949 
L 181.752811 186.422282 
L 190.029665 188.55977 
L 190.726758 189.520227 
L 191.561072 194.886762 
L 190.029665 197.307031 
L 184.213279 200.253297 
L 181.752811 202.352395 
L 176.433448 205.619832 
L 173.475957 208.085284 
L 168.255864 210.986367 
L 165.199103 212.238118 
L 156.922249 215.511307 
L 155.923788 216.352902 
L 148.645395 219.961668 
L 142.061479 221.719438 
L 140.368541 223.640351 
L 138.006669 227.085973 
L 132.091687 229.741075 
L 123.814833 231.436036 
L 121.298905 227.085973 
L 123.814833 222.735909 
L 124.598689 221.719438 
L 123.814833 221.338261 
L 122.24712 221.719438 
L 115.537979 223.350711 
L 110.929238 227.085973 
L 115.537979 232.066321 
L 119.111694 232.452508 
L 115.537979 232.742148 
L 107.261125 235.429916 
L 102.041031 237.819043 
L 98.98427 242.575695 
L 90.707416 242.420492 
L 82.430562 238.398323 
L 81.024196 243.185578 
L 82.430562 246.377082 
L 84.666943 248.552113 
L 82.430562 249.639629 
L 79.914634 248.552113 
L 74.153708 247.252892 
L 72.564487 248.552113 
L 70.96209 253.918648 
L 66.370628 259.285184 
L 65.876854 263.127011 
L 65.876854 264.651719 
L 65.876854 270.018254 
L 65.876854 275.384789 
L 65.876854 280.751324 
L 65.876854 286.117859 
L 65.876854 291.484395 
L 65.876854 296.85093 
L 65.876854 302.217465 
L 70.375837 302.217465 
z
M 128.674371 237.819043 
L 132.091687 234.970267 
L 133.955678 237.819043 
L 132.091687 238.958554 
z
M 143.911349 227.085973 
L 148.645395 225.03967 
L 149.828907 227.085973 
L 148.645395 227.721032 
z
M 184.34881 178.787156 
L 190.029665 176.945484 
L 192.611873 178.787156 
L 190.029665 180.628829 
z
" style="fill:#a0a0a0;"/>
    <path clip-path="url(#p40cf2a0078)" d="M 90.707416 229.213642 
L 92.67633 227.085973 
L 90.707416 225.612971 
L 89.153011 227.085973 
z
" style="fill:#a0a0a0;"/>
    <path clip-path="url(#p40cf2a0078)" d="M 98.98427 218.45689 
L 101.580269 216.352902 
L 98.98427 215.511307 
L 98.26316 216.352902 
z
" style="fill:#a0a0a0;"/>
    <path clip-path="url(#p40cf2a0078)" d="M 115.537979 217.369374 
L 116.125871 216.352902 
L 115.537979 216.047961 
L 114.362194 216.352902 
z
" style="fill:#a0a0a0;"/>
    <path clip-path="url(#p40cf2a0078)" d="M 239.69079 217.117989 
L 241.133012 216.352902 
L 239.69079 215.651573 
L 238.692329 216.352902 
z
" style="fill:#a0a0a0;"/>
    <path clip-path="url(#p40cf2a0078)" d="M 247.967644 213.28499 
L 254.55156 210.986367 
L 247.967644 208.687745 
L 245.087181 210.986367 
z
" style="fill:#a0a0a0;"/>
    <path clip-path="url(#p40cf2a0078)" d="M 115.537979 205.924774 
L 116.713763 205.619832 
L 115.537979 205.238655 
L 114.950086 205.619832 
z
" style="fill:#a0a0a0;"/>
   </g>
   <g id="PathCollection_7">
    <path clip-path="url(#p40cf2a0078)" d="M 67.214498 307.584 
L 70.419331 307.584 
L 73.624164 307.584 
L 76.828997 307.584 
L 80.033829 307.584 
L 83.238662 307.584 
L 86.443495 307.584 
L 89.648328 307.584 
L 92.853161 307.584 
L 96.057993 307.584 
L 99.262826 307.584 
L 102.467659 307.584 
L 105.672492 307.584 
L 108.877324 307.584 
L 112.082157 307.584 
L 115.28699 307.584 
L 118.491823 307.584 
L 121.696656 307.584 
L 124.901488 307.584 
L 128.106321 307.584 
L 128.446984 307.584 
L 129.622506 306.869346 
L 130.493917 306.154692 
L 130.902179 305.440039 
L 130.855593 304.725385 
L 130.549353 304.010731 
L 129.860407 303.296077 
L 128.869891 302.581424 
L 128.106321 302.137664 
L 127.554436 301.86677 
L 125.841548 301.152116 
L 124.901488 300.859771 
L 123.742288 300.437462 
L 121.696656 299.753035 
L 121.604798 299.722808 
L 119.395632 299.008155 
L 118.491823 298.74772 
L 116.798554 298.293501 
L 115.28699 297.943432 
L 113.648699 297.578847 
L 112.082157 297.206096 
L 110.62036 296.864193 
L 108.877324 296.407754 
L 107.814657 296.149539 
L 105.672492 295.670032 
L 104.249995 295.434886 
L 102.467659 295.143588 
L 100.239359 294.720232 
L 99.262826 294.514384 
L 96.057993 294.08014 
L 95.443239 294.005578 
L 92.853161 293.715736 
L 89.648328 293.420137 
L 87.449387 293.290924 
L 86.443495 293.234667 
L 83.238662 293.151241 
L 80.033829 293.157531 
L 76.828997 293.256189 
L 76.051607 293.290924 
L 73.624164 293.404536 
L 70.419331 293.659951 
L 70.013155 294.005578 
L 69.275449 294.720232 
L 68.50323 295.434886 
L 67.79069 296.149539 
L 67.214498 296.806177 
L 67.201852 296.864193 
L 67.027668 297.578847 
L 66.851609 298.293501 
L 66.706997 299.008155 
L 66.582429 299.722808 
L 66.465308 300.437462 
L 66.359847 301.152116 
L 66.283271 301.86677 
L 66.219318 302.581424 
L 66.168363 303.296077 
L 66.132922 304.010731 
L 66.117168 304.725385 
L 66.114771 305.440039 
L 66.135773 306.154692 
L 66.180601 306.869346 
L 66.241073 307.584 
z
" style="fill:#4d94ff;fill-opacity:0.2;"/>
   </g>
   <g id="PathCollection_8">
    <path clip-path="url(#p40cf2a0078)" d="M 72.868877 307.584 
L 75.922652 307.584 
L 78.976428 307.584 
L 82.030203 307.584 
L 85.083979 307.584 
L 88.137754 307.584 
L 91.191529 307.584 
L 94.245305 307.584 
L 97.29908 307.584 
L 100.352855 307.584 
L 103.406631 307.584 
L 106.460406 307.584 
L 109.514182 307.584 
L 112.567957 307.584 
L 115.621732 307.584 
L 118.675508 307.584 
L 121.729283 307.584 
L 124.783059 307.584 
L 127.836834 307.584 
L 130.890609 307.584 
L 133.944385 307.584 
L 136.99816 307.584 
L 140.051936 307.584 
L 143.105711 307.584 
L 146.159486 307.584 
L 149.213262 307.584 
L 152.267037 307.584 
L 155.320813 307.584 
L 156.857978 307.584 
L 158.374588 306.945462 
L 160.363327 306.136359 
L 161.428363 305.707837 
L 163.623974 304.688718 
L 164.482139 304.236527 
L 166.263088 303.241076 
L 167.535914 302.488397 
L 168.694557 301.793435 
L 170.589689 300.584771 
L 170.937048 300.345794 
L 172.386028 298.898153 
L 173.643465 297.944779 
L 174.182119 297.450512 
L 175.848373 296.00287 
L 176.69724 295.100743 
L 177.210764 294.555229 
L 178.383835 293.107588 
L 179.420831 291.659947 
L 179.751016 290.753577 
L 179.927601 290.212306 
L 180.22891 288.764665 
L 180.22891 287.317023 
L 179.751016 285.936324 
L 179.725126 285.869382 
L 179.177378 284.421741 
L 178.3112 282.9741 
L 177.40341 281.526459 
L 176.69724 280.434394 
L 176.469281 280.078817 
L 175.46258 278.631176 
L 174.109532 277.183535 
L 173.643465 276.757029 
L 172.292899 275.735894 
L 170.589689 274.685893 
L 169.891298 274.288253 
L 167.535914 273.035739 
L 167.162104 272.840611 
L 164.482139 271.405892 
L 164.456494 271.39297 
L 161.428363 270.385369 
L 159.878037 269.945329 
L 158.374588 269.463324 
L 155.432316 268.497688 
L 155.320813 268.47239 
L 152.267037 267.889562 
L 149.213262 267.358683 
L 147.390878 267.050047 
L 146.159486 266.847477 
L 143.105711 266.354458 
L 140.051936 265.937595 
L 137.703943 265.602406 
L 136.99816 265.512432 
L 133.944385 265.173691 
L 130.890609 264.863317 
L 127.836834 264.543485 
L 124.783059 264.172685 
L 124.571451 264.154764 
L 121.729283 263.902581 
L 118.675508 263.506523 
L 115.621732 263.256246 
L 112.567957 263.107755 
L 109.514182 263.008925 
L 106.460406 263.008925 
L 103.406631 263.171245 
L 100.352855 263.360004 
L 97.29908 263.618626 
L 94.245305 263.958061 
L 92.785078 264.154764 
L 91.191529 264.361589 
L 88.137754 264.92516 
L 85.083979 265.429699 
L 84.220093 265.602406 
L 82.030203 266.09984 
L 78.976428 266.932194 
L 78.547862 267.050047 
L 75.922652 267.807359 
L 73.492434 268.497688 
L 72.868877 268.756237 
L 70.520423 269.945329 
L 69.815102 270.267911 
L 69.341752 271.39297 
L 68.955613 272.840611 
L 68.572367 274.288253 
L 68.225231 275.735894 
L 67.947333 277.183535 
L 67.714507 278.631176 
L 67.541279 280.078817 
L 67.383697 281.526459 
L 67.231548 282.9741 
L 67.086373 284.421741 
L 66.994569 285.869382 
L 66.90172 287.317023 
L 66.90172 288.764665 
L 66.957524 290.212306 
L 67.04557 291.659947 
L 67.219374 293.107588 
L 67.415985 294.555229 
L 67.648122 296.00287 
L 67.934842 297.450512 
L 68.211599 298.898153 
L 68.423705 300.345794 
L 68.739977 301.793435 
L 69.083948 303.241076 
L 69.457771 304.688718 
L 69.815102 305.873448 
L 70.220624 306.136359 
L 72.457761 307.584 
z
" style="fill:#ff8533;fill-opacity:0.2;"/>
   </g>
   <g id="PathCollection_9">
    <path clip-path="url(#p40cf2a0078)" d="M 63.245493 307.584 
L 66.068239 307.584 
L 68.890986 307.584 
L 71.713732 307.584 
L 74.536479 307.584 
L 77.359225 307.584 
L 80.181972 307.584 
L 83.004718 307.584 
L 85.827464 307.584 
L 88.650211 307.584 
L 91.472957 307.584 
L 94.295704 307.584 
L 97.11845 307.584 
L 99.941197 307.584 
L 102.763943 307.584 
L 105.58669 307.584 
L 108.409436 307.584 
L 111.232182 307.584 
L 114.054929 307.584 
L 116.877675 307.584 
L 119.700422 307.584 
L 122.523168 307.584 
L 125.345915 307.584 
L 128.168661 307.584 
L 130.991408 307.584 
L 133.814154 307.584 
L 136.6369 307.584 
L 139.459647 307.584 
L 142.282393 307.584 
L 145.10514 307.584 
L 147.927886 307.584 
L 150.750633 307.584 
L 153.573379 307.584 
L 156.396126 307.584 
L 159.218872 307.584 
L 162.041619 307.584 
L 164.864365 307.584 
L 165.840634 307.584 
L 166.699574 306.785328 
L 166.849691 305.986656 
L 166.353754 305.187984 
L 165.527599 304.389312 
L 164.864365 304.030811 
L 163.920018 303.590639 
L 162.041619 303.068435 
L 161.093244 302.791967 
L 159.218872 302.240201 
L 158.382041 301.993295 
L 156.396126 301.518625 
L 154.839534 301.194623 
L 153.573379 300.964085 
L 150.750633 300.537688 
L 149.455432 300.395951 
L 147.927886 300.24139 
L 145.10514 299.874287 
L 142.475936 299.597279 
L 142.282393 299.575861 
L 139.459647 299.329238 
L 136.6369 299.074766 
L 133.814154 298.860543 
L 132.951712 298.798607 
L 130.991408 298.644999 
L 128.168661 298.430948 
L 125.345915 298.207564 
L 122.962564 297.999935 
L 122.523168 297.96924 
L 119.700422 297.793378 
L 116.877675 297.632778 
L 114.054929 297.462119 
L 111.232182 297.301185 
L 109.498916 297.201263 
L 108.409436 297.12916 
L 105.58669 296.957558 
L 102.763943 296.837311 
L 99.941197 296.671596 
L 97.11845 296.543293 
L 94.295704 296.438124 
L 93.315377 296.402591 
L 91.472957 296.321884 
L 88.650211 296.189004 
L 85.827464 296.117351 
L 83.004718 296.077966 
L 80.181972 296.036407 
L 77.359225 296.036407 
L 74.536479 296.084186 
L 71.713732 296.174155 
L 68.890986 296.3086 
L 67.280836 296.402591 
L 66.068239 296.461388 
L 65.344384 297.201263 
L 64.574824 297.999935 
L 64.038787 298.798607 
L 63.522016 299.597279 
L 63.245493 300.040702 
L 63.157199 300.395951 
L 62.98622 301.194623 
L 62.848006 301.993295 
L 62.741879 302.791967 
L 62.639263 303.590639 
L 62.579751 304.389312 
L 62.546974 305.187984 
L 62.527298 305.986656 
L 62.533254 306.785328 
L 62.567331 307.584 
z
" style="fill:#00b300;fill-opacity:0.2;"/>
   </g>
   <g id="PathCollection_10">
    <path clip-path="url(#p40cf2a0078)" d="M 72.877623 307.584 
L 80.516434 307.584 
L 88.155246 307.584 
L 95.794057 307.584 
L 103.432868 307.584 
L 111.07168 307.584 
L 118.710491 307.584 
L 126.349302 307.584 
L 133.988114 307.584 
L 141.626925 307.584 
L 149.265737 307.584 
L 156.904548 307.584 
L 164.543359 307.584 
L 172.182171 307.584 
L 179.820982 307.584 
L 187.459793 307.584 
L 195.098605 307.584 
L 202.737416 307.584 
L 210.376228 307.584 
L 218.015039 307.584 
L 225.65385 307.584 
L 233.292662 307.584 
L 240.931473 307.584 
L 248.570284 307.584 
L 256.209096 307.584 
L 263.847907 307.584 
L 271.486719 307.584 
L 279.12553 307.584 
L 286.764341 307.584 
L 294.403153 307.584 
L 302.041964 307.584 
L 309.680775 307.584 
L 317.319587 307.584 
L 324.958398 307.584 
L 332.59721 307.584 
L 340.236021 307.584 
L 347.874832 307.584 
L 355.513644 307.584 
L 363.152455 307.584 
L 370.791266 307.584 
L 378.430078 307.584 
L 386.068889 307.584 
L 393.707701 307.584 
L 401.346512 307.584 
L 408.985323 307.584 
L 416.624135 307.584 
L 424.262946 307.584 
L 431.901757 307.584 
L 431.901757 306.663646 
L 431.901757 305.743292 
L 431.901757 304.822939 
L 431.901757 303.902585 
L 431.901757 302.982231 
L 431.901757 302.061877 
L 431.901757 301.141523 
L 431.901757 300.22117 
L 431.901757 299.496139 
L 424.262946 299.496139 
L 416.624135 299.496139 
L 408.985323 299.496139 
L 401.346512 299.496139 
L 393.707701 299.496139 
L 386.068889 299.496139 
L 378.430078 299.496139 
L 370.791266 299.496139 
L 363.152455 299.496139 
L 355.513644 299.496139 
L 347.874832 299.496139 
L 340.236021 299.496139 
L 332.59721 299.496139 
L 324.958398 299.496139 
L 317.319587 299.496139 
L 309.680775 299.496139 
L 302.041964 299.496139 
L 294.403153 299.496139 
L 286.764341 299.496139 
L 279.12553 299.496139 
L 271.486719 299.496139 
L 263.847907 299.496139 
L 256.209096 299.496139 
L 248.570284 299.496139 
L 240.931473 299.496139 
L 233.292662 299.496139 
L 225.65385 299.496139 
L 218.015039 299.496139 
L 210.376228 299.496139 
L 202.737416 299.496139 
L 195.098605 299.496139 
L 193.354799 299.300816 
L 187.459793 298.680767 
L 185.019139 298.380462 
L 179.820982 297.861567 
L 175.022375 297.460108 
L 172.182171 297.199321 
L 164.543359 296.692098 
L 161.302032 296.539754 
L 156.904548 296.309426 
L 149.265737 296.08842 
L 141.626925 295.980507 
L 133.988114 295.957739 
L 126.349302 296.042657 
L 118.710491 296.246669 
L 111.07168 296.474556 
L 109.071462 296.539754 
L 103.432868 296.702323 
L 95.794057 296.997197 
L 88.155246 297.376243 
L 86.379366 297.460108 
L 80.516434 297.703713 
L 72.877623 297.970176 
L 72.450094 298.380462 
L 71.703919 299.300816 
L 71.060863 300.22117 
L 70.389587 301.141523 
L 69.960844 302.061877 
L 69.609916 302.982231 
L 69.297774 303.902585 
L 69.108481 304.822939 
L 69.025115 305.743292 
L 69.023924 306.663646 
L 69.096835 307.584 
z
" style="fill:#ffff33;fill-opacity:0.2;"/>
   </g>
   <g id="matplotlib.axis_1">
    <g id="xtick_1">
     <g id="line2d_1">
      <defs>
       <path d="M 0 0 
L 0 3.5 
" id="m52f8d09b32" style="stroke:#000000;stroke-width:0.8;"/>
      </defs>
      <g>
       <use style="stroke:#000000;stroke-width:0.8;" x="57.6" xlink:href="#m52f8d09b32" y="307.584"/>
      </g>
     </g>
     <g id="text_1">
      <!-- 0.00 -->
      <defs>
       <path d="M 31.78125 66.40625 
Q 24.171875 66.40625 20.328125 58.90625 
Q 16.5 51.421875 16.5 36.375 
Q 16.5 21.390625 20.328125 13.890625 
Q 24.171875 6.390625 31.78125 6.390625 
Q 39.453125 6.390625 43.28125 13.890625 
Q 47.125 21.390625 47.125 36.375 
Q 47.125 51.421875 43.28125 58.90625 
Q 39.453125 66.40625 31.78125 66.40625 
z
M 31.78125 74.21875 
Q 44.046875 74.21875 50.515625 64.515625 
Q 56.984375 54.828125 56.984375 36.375 
Q 56.984375 17.96875 50.515625 8.265625 
Q 44.046875 -1.421875 31.78125 -1.421875 
Q 19.53125 -1.421875 13.0625 8.265625 
Q 6.59375 17.96875 6.59375 36.375 
Q 6.59375 54.828125 13.0625 64.515625 
Q 19.53125 74.21875 31.78125 74.21875 
z
" id="DejaVuSans-48"/>
       <path d="M 10.6875 12.40625 
L 21 12.40625 
L 21 0 
L 10.6875 0 
z
" id="DejaVuSans-46"/>
      </defs>
      <g transform="translate(37.560938 328.261187)scale(0.18 -0.18)">
       <use xlink:href="#DejaVuSans-48"/>
       <use x="63.623047" xlink:href="#DejaVuSans-46"/>
       <use x="95.410156" xlink:href="#DejaVuSans-48"/>
       <use x="159.033203" xlink:href="#DejaVuSans-48"/>
      </g>
     </g>
    </g>
    <g id="xtick_2">
     <g id="line2d_2">
      <g>
       <use style="stroke:#000000;stroke-width:0.8;" x="93.312" xlink:href="#m52f8d09b32" y="307.584"/>
      </g>
     </g>
     <g id="text_2">
      <!-- 0.25 -->
      <defs>
       <path d="M 19.1875 8.296875 
L 53.609375 8.296875 
L 53.609375 0 
L 7.328125 0 
L 7.328125 8.296875 
Q 12.9375 14.109375 22.625 23.890625 
Q 32.328125 33.6875 34.8125 36.53125 
Q 39.546875 41.84375 41.421875 45.53125 
Q 43.3125 49.21875 43.3125 52.78125 
Q 43.3125 58.59375 39.234375 62.25 
Q 35.15625 65.921875 28.609375 65.921875 
Q 23.96875 65.921875 18.8125 64.3125 
Q 13.671875 62.703125 7.8125 59.421875 
L 7.8125 69.390625 
Q 13.765625 71.78125 18.9375 73 
Q 24.125 74.21875 28.421875 74.21875 
Q 39.75 74.21875 46.484375 68.546875 
Q 53.21875 62.890625 53.21875 53.421875 
Q 53.21875 48.921875 51.53125 44.890625 
Q 49.859375 40.875 45.40625 35.40625 
Q 44.1875 33.984375 37.640625 27.21875 
Q 31.109375 20.453125 19.1875 8.296875 
z
" id="DejaVuSans-50"/>
       <path d="M 10.796875 72.90625 
L 49.515625 72.90625 
L 49.515625 64.59375 
L 19.828125 64.59375 
L 19.828125 46.734375 
Q 21.96875 47.46875 24.109375 47.828125 
Q 26.265625 48.1875 28.421875 48.1875 
Q 40.625 48.1875 47.75 41.5 
Q 54.890625 34.8125 54.890625 23.390625 
Q 54.890625 11.625 47.5625 5.09375 
Q 40.234375 -1.421875 26.90625 -1.421875 
Q 22.3125 -1.421875 17.546875 -0.640625 
Q 12.796875 0.140625 7.71875 1.703125 
L 7.71875 11.625 
Q 12.109375 9.234375 16.796875 8.0625 
Q 21.484375 6.890625 26.703125 6.890625 
Q 35.15625 6.890625 40.078125 11.328125 
Q 45.015625 15.765625 45.015625 23.390625 
Q 45.015625 31 40.078125 35.4375 
Q 35.15625 39.890625 26.703125 39.890625 
Q 22.75 39.890625 18.8125 39.015625 
Q 14.890625 38.140625 10.796875 36.28125 
z
" id="DejaVuSans-53"/>
      </defs>
      <g transform="translate(73.272938 328.261187)scale(0.18 -0.18)">
       <use xlink:href="#DejaVuSans-48"/>
       <use x="63.623047" xlink:href="#DejaVuSans-46"/>
       <use x="95.410156" xlink:href="#DejaVuSans-50"/>
       <use x="159.033203" xlink:href="#DejaVuSans-53"/>
      </g>
     </g>
    </g>
    <g id="xtick_3">
     <g id="line2d_3">
      <g>
       <use style="stroke:#000000;stroke-width:0.8;" x="129.024" xlink:href="#m52f8d09b32" y="307.584"/>
      </g>
     </g>
     <g id="text_3">
      <!-- 0.50 -->
      <g transform="translate(108.984938 328.261187)scale(0.18 -0.18)">
       <use xlink:href="#DejaVuSans-48"/>
       <use x="63.623047" xlink:href="#DejaVuSans-46"/>
       <use x="95.410156" xlink:href="#DejaVuSans-53"/>
       <use x="159.033203" xlink:href="#DejaVuSans-48"/>
      </g>
     </g>
    </g>
    <g id="xtick_4">
     <g id="line2d_4">
      <g>
       <use style="stroke:#000000;stroke-width:0.8;" x="164.736" xlink:href="#m52f8d09b32" y="307.584"/>
      </g>
     </g>
     <g id="text_4">
      <!-- 0.75 -->
      <defs>
       <path d="M 8.203125 72.90625 
L 55.078125 72.90625 
L 55.078125 68.703125 
L 28.609375 0 
L 18.3125 0 
L 43.21875 64.59375 
L 8.203125 64.59375 
z
" id="DejaVuSans-55"/>
      </defs>
      <g transform="translate(144.696938 328.261187)scale(0.18 -0.18)">
       <use xlink:href="#DejaVuSans-48"/>
       <use x="63.623047" xlink:href="#DejaVuSans-46"/>
       <use x="95.410156" xlink:href="#DejaVuSans-55"/>
       <use x="159.033203" xlink:href="#DejaVuSans-53"/>
      </g>
     </g>
    </g>
    <g id="xtick_5">
     <g id="line2d_5">
      <g>
       <use style="stroke:#000000;stroke-width:0.8;" x="200.448" xlink:href="#m52f8d09b32" y="307.584"/>
      </g>
     </g>
     <g id="text_5">
      <!-- 1.00 -->
      <defs>
       <path d="M 12.40625 8.296875 
L 28.515625 8.296875 
L 28.515625 63.921875 
L 10.984375 60.40625 
L 10.984375 69.390625 
L 28.421875 72.90625 
L 38.28125 72.90625 
L 38.28125 8.296875 
L 54.390625 8.296875 
L 54.390625 0 
L 12.40625 0 
z
" id="DejaVuSans-49"/>
      </defs>
      <g transform="translate(180.408938 328.261187)scale(0.18 -0.18)">
       <use xlink:href="#DejaVuSans-49"/>
       <use x="63.623047" xlink:href="#DejaVuSans-46"/>
       <use x="95.410156" xlink:href="#DejaVuSans-48"/>
       <use x="159.033203" xlink:href="#DejaVuSans-48"/>
      </g>
     </g>
    </g>
    <g id="xtick_6">
     <g id="line2d_6">
      <g>
       <use style="stroke:#000000;stroke-width:0.8;" x="236.16" xlink:href="#m52f8d09b32" y="307.584"/>
      </g>
     </g>
     <g id="text_6">
      <!-- 1.25 -->
      <g transform="translate(216.120937 328.261187)scale(0.18 -0.18)">
       <use xlink:href="#DejaVuSans-49"/>
       <use x="63.623047" xlink:href="#DejaVuSans-46"/>
       <use x="95.410156" xlink:href="#DejaVuSans-50"/>
       <use x="159.033203" xlink:href="#DejaVuSans-53"/>
      </g>
     </g>
    </g>
    <g id="xtick_7">
     <g id="line2d_7">
      <g>
       <use style="stroke:#000000;stroke-width:0.8;" x="271.872" xlink:href="#m52f8d09b32" y="307.584"/>
      </g>
     </g>
     <g id="text_7">
      <!-- 1.50 -->
      <g transform="translate(251.832938 328.261187)scale(0.18 -0.18)">
       <use xlink:href="#DejaVuSans-49"/>
       <use x="63.623047" xlink:href="#DejaVuSans-46"/>
       <use x="95.410156" xlink:href="#DejaVuSans-53"/>
       <use x="159.033203" xlink:href="#DejaVuSans-48"/>
      </g>
     </g>
    </g>
    <g id="xtick_8">
     <g id="line2d_8">
      <g>
       <use style="stroke:#000000;stroke-width:0.8;" x="307.584" xlink:href="#m52f8d09b32" y="307.584"/>
      </g>
     </g>
     <g id="text_8">
      <!-- 1.75 -->
      <g transform="translate(287.544938 328.261187)scale(0.18 -0.18)">
       <use xlink:href="#DejaVuSans-49"/>
       <use x="63.623047" xlink:href="#DejaVuSans-46"/>
       <use x="95.410156" xlink:href="#DejaVuSans-55"/>
       <use x="159.033203" xlink:href="#DejaVuSans-53"/>
      </g>
     </g>
    </g>
    <g id="xtick_9">
     <g id="line2d_9">
      <g>
       <use style="stroke:#000000;stroke-width:0.8;" x="343.296" xlink:href="#m52f8d09b32" y="307.584"/>
      </g>
     </g>
     <g id="text_9">
      <!-- 2.00 -->
      <g transform="translate(323.256938 328.261187)scale(0.18 -0.18)">
       <use xlink:href="#DejaVuSans-50"/>
       <use x="63.623047" xlink:href="#DejaVuSans-46"/>
       <use x="95.410156" xlink:href="#DejaVuSans-48"/>
       <use x="159.033203" xlink:href="#DejaVuSans-48"/>
      </g>
     </g>
    </g>
   </g>
   <g id="matplotlib.axis_2">
    <g id="ytick_1">
     <g id="line2d_10">
      <defs>
       <path d="M 0 0 
L -3.5 0 
" id="mb283f36cde" style="stroke:#000000;stroke-width:0.8;"/>
      </defs>
      <g>
       <use style="stroke:#000000;stroke-width:0.8;" x="57.6" xlink:href="#mb283f36cde" y="307.584"/>
      </g>
     </g>
     <g id="text_10">
      <!-- 0 -->
      <g transform="translate(39.1475 314.422594)scale(0.18 -0.18)">
       <use xlink:href="#DejaVuSans-48"/>
      </g>
     </g>
    </g>
    <g id="ytick_2">
     <g id="line2d_11">
      <g>
       <use style="stroke:#000000;stroke-width:0.8;" x="57.6" xlink:href="#mb283f36cde" y="261.008545"/>
      </g>
     </g>
     <g id="text_11">
      <!-- 1 -->
      <g transform="translate(39.1475 267.847139)scale(0.18 -0.18)">
       <use xlink:href="#DejaVuSans-49"/>
      </g>
     </g>
    </g>
    <g id="ytick_3">
     <g id="line2d_12">
      <g>
       <use style="stroke:#000000;stroke-width:0.8;" x="57.6" xlink:href="#mb283f36cde" y="214.43309"/>
      </g>
     </g>
     <g id="text_12">
      <!-- 2 -->
      <g transform="translate(39.1475 221.271683)scale(0.18 -0.18)">
       <use xlink:href="#DejaVuSans-50"/>
      </g>
     </g>
    </g>
    <g id="ytick_4">
     <g id="line2d_13">
      <g>
       <use style="stroke:#000000;stroke-width:0.8;" x="57.6" xlink:href="#mb283f36cde" y="167.857635"/>
      </g>
     </g>
     <g id="text_13">
      <!-- 3 -->
      <defs>
       <path d="M 40.578125 39.3125 
Q 47.65625 37.796875 51.625 33 
Q 55.609375 28.21875 55.609375 21.1875 
Q 55.609375 10.40625 48.1875 4.484375 
Q 40.765625 -1.421875 27.09375 -1.421875 
Q 22.515625 -1.421875 17.65625 -0.515625 
Q 12.796875 0.390625 7.625 2.203125 
L 7.625 11.71875 
Q 11.71875 9.328125 16.59375 8.109375 
Q 21.484375 6.890625 26.8125 6.890625 
Q 36.078125 6.890625 40.9375 10.546875 
Q 45.796875 14.203125 45.796875 21.1875 
Q 45.796875 27.640625 41.28125 31.265625 
Q 36.765625 34.90625 28.71875 34.90625 
L 20.21875 34.90625 
L 20.21875 43.015625 
L 29.109375 43.015625 
Q 36.375 43.015625 40.234375 45.921875 
Q 44.09375 48.828125 44.09375 54.296875 
Q 44.09375 59.90625 40.109375 62.90625 
Q 36.140625 65.921875 28.71875 65.921875 
Q 24.65625 65.921875 20.015625 65.03125 
Q 15.375 64.15625 9.8125 62.3125 
L 9.8125 71.09375 
Q 15.4375 72.65625 20.34375 73.4375 
Q 25.25 74.21875 29.59375 74.21875 
Q 40.828125 74.21875 47.359375 69.109375 
Q 53.90625 64.015625 53.90625 55.328125 
Q 53.90625 49.265625 50.4375 45.09375 
Q 46.96875 40.921875 40.578125 39.3125 
z
" id="DejaVuSans-51"/>
      </defs>
      <g transform="translate(39.1475 174.696228)scale(0.18 -0.18)">
       <use xlink:href="#DejaVuSans-51"/>
      </g>
     </g>
    </g>
    <g id="ytick_5">
     <g id="line2d_14">
      <g>
       <use style="stroke:#000000;stroke-width:0.8;" x="57.6" xlink:href="#mb283f36cde" y="121.282179"/>
      </g>
     </g>
     <g id="text_14">
      <!-- 4 -->
      <defs>
       <path d="M 37.796875 64.3125 
L 12.890625 25.390625 
L 37.796875 25.390625 
z
M 35.203125 72.90625 
L 47.609375 72.90625 
L 47.609375 25.390625 
L 58.015625 25.390625 
L 58.015625 17.1875 
L 47.609375 17.1875 
L 47.609375 0 
L 37.796875 0 
L 37.796875 17.1875 
L 4.890625 17.1875 
L 4.890625 26.703125 
z
" id="DejaVuSans-52"/>
      </defs>
      <g transform="translate(39.1475 128.120773)scale(0.18 -0.18)">
       <use xlink:href="#DejaVuSans-52"/>
      </g>
     </g>
    </g>
    <g id="ytick_6">
     <g id="line2d_15">
      <g>
       <use style="stroke:#000000;stroke-width:0.8;" x="57.6" xlink:href="#mb283f36cde" y="74.706724"/>
      </g>
     </g>
     <g id="text_15">
      <!-- 5 -->
      <g transform="translate(39.1475 81.545318)scale(0.18 -0.18)">
       <use xlink:href="#DejaVuSans-53"/>
      </g>
     </g>
    </g>
   </g>
   <g id="LineCollection_1">
    <path clip-path="url(#p40cf2a0078)" d="M 128.446984 307.584 
L 129.622506 306.869346 
L 130.493917 306.154692 
L 130.902179 305.440039 
L 130.855593 304.725385 
L 130.549353 304.010731 
L 129.860407 303.296077 
L 128.869891 302.581424 
L 128.106321 302.137664 
L 127.554436 301.86677 
L 125.841548 301.152116 
L 124.901488 300.859771 
L 123.742288 300.437462 
L 121.696656 299.753035 
L 121.604798 299.722808 
L 119.395632 299.008155 
L 118.491823 298.74772 
L 116.798554 298.293501 
L 115.28699 297.943432 
L 113.648699 297.578847 
L 112.082157 297.206096 
L 110.62036 296.864193 
L 108.877324 296.407754 
L 107.814657 296.149539 
L 105.672492 295.670032 
L 104.249995 295.434886 
L 102.467659 295.143588 
L 100.239359 294.720232 
L 99.262826 294.514384 
L 96.057993 294.08014 
L 95.443239 294.005578 
L 92.853161 293.715736 
L 89.648328 293.420137 
L 87.449387 293.290924 
L 86.443495 293.234667 
L 83.238662 293.151241 
L 80.033829 293.157531 
L 76.828997 293.256189 
L 76.051607 293.290924 
L 73.624164 293.404536 
L 70.419331 293.659951 
L 70.013155 294.005578 
L 69.275449 294.720232 
L 68.50323 295.434886 
L 67.79069 296.149539 
L 67.214498 296.806177 
L 67.201852 296.864193 
L 67.027668 297.578847 
L 66.851609 298.293501 
L 66.706997 299.008155 
L 66.582429 299.722808 
L 66.465308 300.437462 
L 66.359847 301.152116 
L 66.283271 301.86677 
L 66.219318 302.581424 
L 66.168363 303.296077 
L 66.132922 304.010731 
L 66.117168 304.725385 
L 66.114771 305.440039 
L 66.135773 306.154692 
L 66.180601 306.869346 
L 66.241073 307.584 
" style="fill:none;stroke:#4d94ff;stroke-width:1.5;"/>
   </g>
   <g id="LineCollection_2">
    <path clip-path="url(#p40cf2a0078)" d="M 156.857978 307.584 
L 158.374588 306.945462 
L 160.363327 306.136359 
L 161.428363 305.707837 
L 163.623974 304.688718 
L 164.482139 304.236527 
L 166.263088 303.241076 
L 167.535914 302.488397 
L 168.694557 301.793435 
L 170.589689 300.584771 
L 170.937048 300.345794 
L 172.386028 298.898153 
L 173.643465 297.944779 
L 174.182119 297.450512 
L 175.848373 296.00287 
L 176.69724 295.100743 
L 177.210764 294.555229 
L 178.383835 293.107588 
L 179.420831 291.659947 
L 179.751016 290.753577 
L 179.927601 290.212306 
L 180.22891 288.764665 
L 180.22891 287.317023 
L 179.751016 285.936324 
L 179.725126 285.869382 
L 179.177378 284.421741 
L 178.3112 282.9741 
L 177.40341 281.526459 
L 176.69724 280.434394 
L 176.469281 280.078817 
L 175.46258 278.631176 
L 174.109532 277.183535 
L 173.643465 276.757029 
L 172.292899 275.735894 
L 170.589689 274.685893 
L 169.891298 274.288253 
L 167.535914 273.035739 
L 167.162104 272.840611 
L 164.482139 271.405892 
L 164.456494 271.39297 
L 161.428363 270.385369 
L 159.878037 269.945329 
L 158.374588 269.463324 
L 155.432316 268.497688 
L 155.320813 268.47239 
L 152.267037 267.889562 
L 149.213262 267.358683 
L 147.390878 267.050047 
L 146.159486 266.847477 
L 143.105711 266.354458 
L 140.051936 265.937595 
L 137.703943 265.602406 
L 136.99816 265.512432 
L 133.944385 265.173691 
L 130.890609 264.863317 
L 127.836834 264.543485 
L 124.783059 264.172685 
L 124.571451 264.154764 
L 121.729283 263.902581 
L 118.675508 263.506523 
L 115.621732 263.256246 
L 112.567957 263.107755 
L 109.514182 263.008925 
L 106.460406 263.008925 
L 103.406631 263.171245 
L 100.352855 263.360004 
L 97.29908 263.618626 
L 94.245305 263.958061 
L 92.785078 264.154764 
L 91.191529 264.361589 
L 88.137754 264.92516 
L 85.083979 265.429699 
L 84.220093 265.602406 
L 82.030203 266.09984 
L 78.976428 266.932194 
L 78.547862 267.050047 
L 75.922652 267.807359 
L 73.492434 268.497688 
L 72.868877 268.756237 
L 70.520423 269.945329 
L 69.815102 270.267911 
L 69.341752 271.39297 
L 68.955613 272.840611 
L 68.572367 274.288253 
L 68.225231 275.735894 
L 67.947333 277.183535 
L 67.714507 278.631176 
L 67.541279 280.078817 
L 67.383697 281.526459 
L 67.231548 282.9741 
L 67.086373 284.421741 
L 66.994569 285.869382 
L 66.90172 287.317023 
L 66.90172 288.764665 
L 66.957524 290.212306 
L 67.04557 291.659947 
L 67.219374 293.107588 
L 67.415985 294.555229 
L 67.648122 296.00287 
L 67.934842 297.450512 
L 68.211599 298.898153 
L 68.423705 300.345794 
L 68.739977 301.793435 
L 69.083948 303.241076 
L 69.457771 304.688718 
L 69.815102 305.873448 
L 70.220624 306.136359 
L 72.457761 307.584 
" style="fill:none;stroke:#ff8533;stroke-width:1.5;"/>
   </g>
   <g id="LineCollection_3">
    <path clip-path="url(#p40cf2a0078)" d="M 165.840634 307.584 
L 166.699574 306.785328 
L 166.849691 305.986656 
L 166.353754 305.187984 
L 165.527599 304.389312 
L 164.864365 304.030811 
L 163.920018 303.590639 
L 162.041619 303.068435 
L 161.093244 302.791967 
L 159.218872 302.240201 
L 158.382041 301.993295 
L 156.396126 301.518625 
L 154.839534 301.194623 
L 153.573379 300.964085 
L 150.750633 300.537688 
L 149.455432 300.395951 
L 147.927886 300.24139 
L 145.10514 299.874287 
L 142.475936 299.597279 
L 142.282393 299.575861 
L 139.459647 299.329238 
L 136.6369 299.074766 
L 133.814154 298.860543 
L 132.951712 298.798607 
L 130.991408 298.644999 
L 128.168661 298.430948 
L 125.345915 298.207564 
L 122.962564 297.999935 
L 122.523168 297.96924 
L 119.700422 297.793378 
L 116.877675 297.632778 
L 114.054929 297.462119 
L 111.232182 297.301185 
L 109.498916 297.201263 
L 108.409436 297.12916 
L 105.58669 296.957558 
L 102.763943 296.837311 
L 99.941197 296.671596 
L 97.11845 296.543293 
L 94.295704 296.438124 
L 93.315377 296.402591 
L 91.472957 296.321884 
L 88.650211 296.189004 
L 85.827464 296.117351 
L 83.004718 296.077966 
L 80.181972 296.036407 
L 77.359225 296.036407 
L 74.536479 296.084186 
L 71.713732 296.174155 
L 68.890986 296.3086 
L 67.280836 296.402591 
L 66.068239 296.461388 
L 65.344384 297.201263 
L 64.574824 297.999935 
L 64.038787 298.798607 
L 63.522016 299.597279 
L 63.245493 300.040702 
L 63.157199 300.395951 
L 62.98622 301.194623 
L 62.848006 301.993295 
L 62.741879 302.791967 
L 62.639263 303.590639 
L 62.579751 304.389312 
L 62.546974 305.187984 
L 62.527298 305.986656 
L 62.533254 306.785328 
L 62.567331 307.584 
" style="fill:none;stroke:#00b300;stroke-width:1.5;"/>
   </g>
   <g id="LineCollection_4">
    <path clip-path="url(#p40cf2a0078)" d="M 431.901757 299.496139 
L 424.262946 299.496139 
L 416.624135 299.496139 
L 408.985323 299.496139 
L 401.346512 299.496139 
L 393.707701 299.496139 
L 386.068889 299.496139 
L 378.430078 299.496139 
L 370.791266 299.496139 
L 363.152455 299.496139 
L 355.513644 299.496139 
L 347.874832 299.496139 
L 340.236021 299.496139 
L 332.59721 299.496139 
L 324.958398 299.496139 
L 317.319587 299.496139 
L 309.680775 299.496139 
L 302.041964 299.496139 
L 294.403153 299.496139 
L 286.764341 299.496139 
L 279.12553 299.496139 
L 271.486719 299.496139 
L 263.847907 299.496139 
L 256.209096 299.496139 
L 248.570284 299.496139 
L 240.931473 299.496139 
L 233.292662 299.496139 
L 225.65385 299.496139 
L 218.015039 299.496139 
L 210.376228 299.496139 
L 202.737416 299.496139 
L 195.098605 299.496139 
L 193.354799 299.300816 
L 187.459793 298.680767 
L 185.019139 298.380462 
L 179.820982 297.861567 
L 175.022375 297.460108 
L 172.182171 297.199321 
L 164.543359 296.692098 
L 161.302032 296.539754 
L 156.904548 296.309426 
L 149.265737 296.08842 
L 141.626925 295.980507 
L 133.988114 295.957739 
L 126.349302 296.042657 
L 118.710491 296.246669 
L 111.07168 296.474556 
L 109.071462 296.539754 
L 103.432868 296.702323 
L 95.794057 296.997197 
L 88.155246 297.376243 
L 86.379366 297.460108 
L 80.516434 297.703713 
L 72.877623 297.970176 
L 72.450094 298.380462 
L 71.703919 299.300816 
L 71.060863 300.22117 
L 70.389587 301.141523 
L 69.960844 302.061877 
L 69.609916 302.982231 
L 69.297774 303.902585 
L 69.108481 304.822939 
L 69.025115 305.743292 
L 69.023924 306.663646 
L 69.096835 307.584 
" style="fill:none;stroke:#ffff33;stroke-width:1.5;"/>
   </g>
   <g id="patch_3">
    <path d="M 57.6 307.584 
L 57.6 41.472 
" style="fill:none;stroke:#000000;stroke-linecap:square;stroke-linejoin:miter;stroke-width:0.8;"/>
   </g>
   <g id="patch_4">
    <path d="M 343.296 307.584 
L 343.296 41.472 
" style="fill:none;stroke:#000000;stroke-linecap:square;stroke-linejoin:miter;stroke-width:0.8;"/>
   </g>
   <g id="patch_5">
    <path d="M 57.6 307.584 
L 343.296 307.584 
" style="fill:none;stroke:#000000;stroke-linecap:square;stroke-linejoin:miter;stroke-width:0.8;"/>
   </g>
   <g id="patch_6">
    <path d="M 57.6 41.472 
L 343.296 41.472 
" style="fill:none;stroke:#000000;stroke-linecap:square;stroke-linejoin:miter;stroke-width:0.8;"/>
   </g>
  </g>
  <g id="axes_2">
   <g id="patch_7">
    <path clip-path="url(#pc2413b552a)" d="M 367.2 307.584 
L 361.152 295.488 
L 361.152 53.568 
L 367.2 41.472 
L 367.2 41.472 
L 373.248 53.568 
L 373.248 295.488 
L 367.2 307.584 
z
" style="fill:#ffffff;stroke:#ffffff;stroke-linejoin:miter;stroke-width:0.01;"/>
   </g>
   <g id="QuadMesh_1">
    <path clip-path="url(#pc2413b552a)" d="M 367.2 307.584 
L 367.2 307.584 
L 373.248 295.488 
L 361.152 295.488 
L 367.2 307.584 
" style="fill:#ffffff;"/>
    <path clip-path="url(#pc2413b552a)" d="M 361.152 295.488 
L 373.248 295.488 
L 373.248 235.008 
L 361.152 235.008 
L 361.152 295.488 
" style="fill:#ffffff;"/>
    <path clip-path="url(#pc2413b552a)" d="M 361.152 235.008 
L 373.248 235.008 
L 373.248 174.528 
L 361.152 174.528 
L 361.152 235.008 
" style="fill:#f0f0f0;"/>
    <path clip-path="url(#pc2413b552a)" d="M 361.152 174.528 
L 373.248 174.528 
L 373.248 114.048 
L 361.152 114.048 
L 361.152 174.528 
" style="fill:#d3d3d3;"/>
    <path clip-path="url(#pc2413b552a)" d="M 361.152 114.048 
L 373.248 114.048 
L 373.248 53.568 
L 361.152 53.568 
L 361.152 114.048 
" style="fill:#b8b8b8;"/>
    <path clip-path="url(#pc2413b552a)" d="M 361.152 53.568 
L 373.248 53.568 
L 367.2 41.472 
L 367.2 41.472 
L 361.152 53.568 
" style="fill:#a0a0a0;"/>
   </g>
   <g id="matplotlib.axis_3"/>
   <g id="matplotlib.axis_4">
    <g id="ytick_7">
     <g id="line2d_16">
      <defs>
       <path d="M 0 0 
L 3.5 0 
" id="mbb82184d21" style="stroke:#000000;stroke-width:0.8;"/>
      </defs>
      <g>
       <use style="stroke:#000000;stroke-width:0.8;" x="373.248" xlink:href="#mbb82184d21" y="295.488"/>
      </g>
     </g>
     <g id="text_16">
      <!-- 0.0000 -->
      <g transform="translate(380.248 302.326594)scale(0.18 -0.18)">
       <use xlink:href="#DejaVuSans-48"/>
       <use x="63.623047" xlink:href="#DejaVuSans-46"/>
       <use x="95.410156" xlink:href="#DejaVuSans-48"/>
       <use x="159.033203" xlink:href="#DejaVuSans-48"/>
       <use x="222.65625" xlink:href="#DejaVuSans-48"/>
       <use x="286.279297" xlink:href="#DejaVuSans-48"/>
      </g>
     </g>
    </g>
    <g id="ytick_8">
     <g id="line2d_17">
      <g>
       <use style="stroke:#000000;stroke-width:0.8;" x="373.248" xlink:href="#mbb82184d21" y="235.008"/>
      </g>
     </g>
     <g id="text_17">
      <!-- 0.0184 -->
      <defs>
       <path d="M 31.78125 34.625 
Q 24.75 34.625 20.71875 30.859375 
Q 16.703125 27.09375 16.703125 20.515625 
Q 16.703125 13.921875 20.71875 10.15625 
Q 24.75 6.390625 31.78125 6.390625 
Q 38.8125 6.390625 42.859375 10.171875 
Q 46.921875 13.96875 46.921875 20.515625 
Q 46.921875 27.09375 42.890625 30.859375 
Q 38.875 34.625 31.78125 34.625 
z
M 21.921875 38.8125 
Q 15.578125 40.375 12.03125 44.71875 
Q 8.5 49.078125 8.5 55.328125 
Q 8.5 64.0625 14.71875 69.140625 
Q 20.953125 74.21875 31.78125 74.21875 
Q 42.671875 74.21875 48.875 69.140625 
Q 55.078125 64.0625 55.078125 55.328125 
Q 55.078125 49.078125 51.53125 44.71875 
Q 48 40.375 41.703125 38.8125 
Q 48.828125 37.15625 52.796875 32.3125 
Q 56.78125 27.484375 56.78125 20.515625 
Q 56.78125 9.90625 50.3125 4.234375 
Q 43.84375 -1.421875 31.78125 -1.421875 
Q 19.734375 -1.421875 13.25 4.234375 
Q 6.78125 9.90625 6.78125 20.515625 
Q 6.78125 27.484375 10.78125 32.3125 
Q 14.796875 37.15625 21.921875 38.8125 
z
M 18.3125 54.390625 
Q 18.3125 48.734375 21.84375 45.5625 
Q 25.390625 42.390625 31.78125 42.390625 
Q 38.140625 42.390625 41.71875 45.5625 
Q 45.3125 48.734375 45.3125 54.390625 
Q 45.3125 60.0625 41.71875 63.234375 
Q 38.140625 66.40625 31.78125 66.40625 
Q 25.390625 66.40625 21.84375 63.234375 
Q 18.3125 60.0625 18.3125 54.390625 
z
" id="DejaVuSans-56"/>
      </defs>
      <g transform="translate(380.248 241.846594)scale(0.18 -0.18)">
       <use xlink:href="#DejaVuSans-48"/>
       <use x="63.623047" xlink:href="#DejaVuSans-46"/>
       <use x="95.410156" xlink:href="#DejaVuSans-48"/>
       <use x="159.033203" xlink:href="#DejaVuSans-49"/>
       <use x="222.65625" xlink:href="#DejaVuSans-56"/>
       <use x="286.279297" xlink:href="#DejaVuSans-52"/>
      </g>
     </g>
    </g>
    <g id="ytick_9">
     <g id="line2d_18">
      <g>
       <use style="stroke:#000000;stroke-width:0.8;" x="373.248" xlink:href="#mbb82184d21" y="174.528"/>
      </g>
     </g>
     <g id="text_18">
      <!-- 0.0368 -->
      <defs>
       <path d="M 33.015625 40.375 
Q 26.375 40.375 22.484375 35.828125 
Q 18.609375 31.296875 18.609375 23.390625 
Q 18.609375 15.53125 22.484375 10.953125 
Q 26.375 6.390625 33.015625 6.390625 
Q 39.65625 6.390625 43.53125 10.953125 
Q 47.40625 15.53125 47.40625 23.390625 
Q 47.40625 31.296875 43.53125 35.828125 
Q 39.65625 40.375 33.015625 40.375 
z
M 52.59375 71.296875 
L 52.59375 62.3125 
Q 48.875 64.0625 45.09375 64.984375 
Q 41.3125 65.921875 37.59375 65.921875 
Q 27.828125 65.921875 22.671875 59.328125 
Q 17.53125 52.734375 16.796875 39.40625 
Q 19.671875 43.65625 24.015625 45.921875 
Q 28.375 48.1875 33.59375 48.1875 
Q 44.578125 48.1875 50.953125 41.515625 
Q 57.328125 34.859375 57.328125 23.390625 
Q 57.328125 12.15625 50.6875 5.359375 
Q 44.046875 -1.421875 33.015625 -1.421875 
Q 20.359375 -1.421875 13.671875 8.265625 
Q 6.984375 17.96875 6.984375 36.375 
Q 6.984375 53.65625 15.1875 63.9375 
Q 23.390625 74.21875 37.203125 74.21875 
Q 40.921875 74.21875 44.703125 73.484375 
Q 48.484375 72.75 52.59375 71.296875 
z
" id="DejaVuSans-54"/>
      </defs>
      <g transform="translate(380.248 181.366594)scale(0.18 -0.18)">
       <use xlink:href="#DejaVuSans-48"/>
       <use x="63.623047" xlink:href="#DejaVuSans-46"/>
       <use x="95.410156" xlink:href="#DejaVuSans-48"/>
       <use x="159.033203" xlink:href="#DejaVuSans-51"/>
       <use x="222.65625" xlink:href="#DejaVuSans-54"/>
       <use x="286.279297" xlink:href="#DejaVuSans-56"/>
      </g>
     </g>
    </g>
    <g id="ytick_10">
     <g id="line2d_19">
      <g>
       <use style="stroke:#000000;stroke-width:0.8;" x="373.248" xlink:href="#mbb82184d21" y="114.048"/>
      </g>
     </g>
     <g id="text_19">
      <!-- 0.0919 -->
      <defs>
       <path d="M 10.984375 1.515625 
L 10.984375 10.5 
Q 14.703125 8.734375 18.5 7.8125 
Q 22.3125 6.890625 25.984375 6.890625 
Q 35.75 6.890625 40.890625 13.453125 
Q 46.046875 20.015625 46.78125 33.40625 
Q 43.953125 29.203125 39.59375 26.953125 
Q 35.25 24.703125 29.984375 24.703125 
Q 19.046875 24.703125 12.671875 31.3125 
Q 6.296875 37.9375 6.296875 49.421875 
Q 6.296875 60.640625 12.9375 67.421875 
Q 19.578125 74.21875 30.609375 74.21875 
Q 43.265625 74.21875 49.921875 64.515625 
Q 56.59375 54.828125 56.59375 36.375 
Q 56.59375 19.140625 48.40625 8.859375 
Q 40.234375 -1.421875 26.421875 -1.421875 
Q 22.703125 -1.421875 18.890625 -0.6875 
Q 15.09375 0.046875 10.984375 1.515625 
z
M 30.609375 32.421875 
Q 37.25 32.421875 41.125 36.953125 
Q 45.015625 41.5 45.015625 49.421875 
Q 45.015625 57.28125 41.125 61.84375 
Q 37.25 66.40625 30.609375 66.40625 
Q 23.96875 66.40625 20.09375 61.84375 
Q 16.21875 57.28125 16.21875 49.421875 
Q 16.21875 41.5 20.09375 36.953125 
Q 23.96875 32.421875 30.609375 32.421875 
z
" id="DejaVuSans-57"/>
      </defs>
      <g transform="translate(380.248 120.886594)scale(0.18 -0.18)">
       <use xlink:href="#DejaVuSans-48"/>
       <use x="63.623047" xlink:href="#DejaVuSans-46"/>
       <use x="95.410156" xlink:href="#DejaVuSans-48"/>
       <use x="159.033203" xlink:href="#DejaVuSans-57"/>
       <use x="222.65625" xlink:href="#DejaVuSans-49"/>
       <use x="286.279297" xlink:href="#DejaVuSans-57"/>
      </g>
     </g>
    </g>
    <g id="ytick_11">
     <g id="line2d_20">
      <g>
       <use style="stroke:#000000;stroke-width:0.8;" x="373.248" xlink:href="#mbb82184d21" y="53.568"/>
      </g>
     </g>
     <g id="text_20">
      <!-- 0.2299 -->
      <g transform="translate(380.248 60.406594)scale(0.18 -0.18)">
       <use xlink:href="#DejaVuSans-48"/>
       <use x="63.623047" xlink:href="#DejaVuSans-46"/>
       <use x="95.410156" xlink:href="#DejaVuSans-50"/>
       <use x="159.033203" xlink:href="#DejaVuSans-50"/>
       <use x="222.65625" xlink:href="#DejaVuSans-57"/>
       <use x="286.279297" xlink:href="#DejaVuSans-57"/>
      </g>
     </g>
    </g>
   </g>
   <g id="patch_8">
    <path d="M 367.2 307.584 
L 361.152 295.488 
L 361.152 53.568 
L 367.2 41.472 
L 367.2 41.472 
L 373.248 53.568 
L 373.248 295.488 
L 367.2 307.584 
z
" style="fill:none;stroke:#000000;stroke-linejoin:miter;stroke-width:0.8;"/>
   </g>
  </g>
 </g>
 <defs>
  <clipPath id="p40cf2a0078">
   <rect height="266.112" width="285.696" x="57.6" y="41.472"/>
  </clipPath>
  <clipPath id="pc2413b552a">
   <rect height="266.112" width="12.096" x="361.152" y="41.472"/>
  </clipPath>
 </defs>
</svg>
