<?xml version="1.0" encoding="utf-8" standalone="no"?>
<!DOCTYPE svg PUBLIC "-//W3C//DTD SVG 1.1//EN"
  "http://www.w3.org/Graphics/SVG/1.1/DTD/svg11.dtd">
<!-- Created with matplotlib (https://matplotlib.org/) -->
<svg height="345.6pt" version="1.1" viewBox="0 0 460.8 345.6" width="460.8pt" xmlns="http://www.w3.org/2000/svg" xmlns:xlink="http://www.w3.org/1999/xlink">
 <defs>
  <style type="text/css">
*{stroke-linecap:butt;stroke-linejoin:round;}
  </style>
 </defs>
 <g id="figure_1">
  <g id="patch_1">
   <path d="M 0 345.6 
L 460.8 345.6 
L 460.8 0 
L 0 0 
z
" style="fill:#ffffff;"/>
  </g>
  <g id="axes_1">
   <g id="patch_2">
    <path d="M 57.6 307.584 
L 343.296 307.584 
L 343.296 41.472 
L 57.6 41.472 
z
" style="fill:#ffffff;"/>
   </g>
   <g id="PathCollection_1"/>
   <g id="PathCollection_2">
    <path clip-path="url(#pe7d67f8876)" d="M 107.261125 302.217465 
L 115.537979 302.217465 
L 123.814833 302.217465 
L 132.091687 302.217465 
L 140.368541 302.217465 
L 148.645395 302.217465 
L 156.922249 302.217465 
L 165.199103 302.217465 
L 173.475957 302.217465 
L 181.752811 302.217465 
L 190.029665 302.217465 
L 198.30652 302.217465 
L 206.583374 302.217465 
L 214.860228 302.217465 
L 223.137082 302.217465 
L 231.413936 302.217465 
L 239.69079 302.217465 
L 247.967644 302.217465 
L 256.244498 302.217465 
L 264.521352 302.217465 
L 272.798206 302.217465 
L 281.075061 302.217465 
L 289.351915 302.217465 
L 297.628769 302.217465 
L 305.905623 302.217465 
L 314.182477 302.217465 
L 322.459331 302.217465 
L 330.736185 302.217465 
L 339.013039 302.217465 
L 347.289893 302.217465 
L 355.566747 302.217465 
L 363.843601 302.217465 
L 372.120456 302.217465 
L 380.39731 302.217465 
L 388.674164 302.217465 
L 396.951018 302.217465 
L 405.227872 302.217465 
L 413.504726 302.217465 
L 421.78158 302.217465 
L 430.058434 302.217465 
L 438.335288 302.217465 
L 446.612142 302.217465 
L 454.888996 302.217465 
L 463.165851 302.217465 
L 471.442705 302.217465 
L 479.719559 302.217465 
L 487.996413 302.217465 
L 496.273267 302.217465 
L 504.550121 302.217465 
L 512.826975 302.217465 
L 521.103829 302.217465 
L 529.380683 302.217465 
L 537.657537 302.217465 
L 545.934391 302.217465 
L 554.211246 302.217465 
L 562.4881 302.217465 
L 570.764954 302.217465 
L 579.041808 302.217465 
L 587.318662 302.217465 
L 595.595516 302.217465 
L 603.87237 302.217465 
L 612.149224 302.217465 
L 620.426078 302.217465 
L 628.702932 302.217465 
L 636.979786 302.217465 
L 645.256641 302.217465 
L 653.533495 302.217465 
L 661.810349 302.217465 
L 670.087203 302.217465 
L 678.364057 302.217465 
L 686.640911 302.217465 
L 694.917765 302.217465 
L 703.194619 302.217465 
L 711.471473 302.217465 
L 719.748327 302.217465 
L 728.025182 302.217465 
L 736.302036 302.217465 
L 744.57889 302.217465 
L 752.855744 302.217465 
L 761.132598 302.217465 
L 769.409452 302.217465 
L 777.686306 302.217465 
L 785.96316 302.217465 
L 794.240014 302.217465 
L 802.516868 302.217465 
L 810.793722 302.217465 
L 819.070577 302.217465 
L 827.347431 302.217465 
L 835.624285 302.217465 
L 843.901139 302.217465 
L 852.177993 302.217465 
L 860.454847 302.217465 
L 868.731701 302.217465 
L 877.008555 302.217465 
L 885.285409 302.217465 
L 893.562263 302.217465 
L 901.839117 302.217465 
L 910.115972 302.217465 
L 918.392826 302.217465 
L 926.66968 302.217465 
L 934.946534 302.217465 
L 943.223388 302.217465 
L 951.500242 302.217465 
L 959.777096 302.217465 
L 968.05395 302.217465 
L 976.330804 302.217465 
L 984.607658 302.217465 
L 992.884512 302.217465 
L 1001.161367 302.217465 
L 1009.438221 302.217465 
L 1017.715075 302.217465 
L 1025.991929 302.217465 
L 1034.268783 302.217465 
L 1042.545637 302.217465 
L 1050.822491 302.217465 
L 1059.099345 302.217465 
L 1067.376199 302.217465 
L 1075.653053 302.217465 
L 1083.929907 302.217465 
L 1092.206762 302.217465 
L 1100.483616 302.217465 
L 1108.76047 302.217465 
L 1117.037324 302.217465 
L 1125.314178 302.217465 
L 1133.591032 302.217465 
L 1141.867886 302.217465 
L 1150.14474 302.217465 
L 1158.421594 302.217465 
L 1166.698448 302.217465 
L 1174.975303 302.217465 
L 1183.252157 302.217465 
L 1191.529011 302.217465 
L 1199.805865 302.217465 
L 1208.082719 302.217465 
L 1216.359573 302.217465 
L 1224.636427 302.217465 
L 1232.913281 302.217465 
L 1241.190135 302.217465 
L 1249.466989 302.217465 
L 1257.743843 302.217465 
L 1266.020698 302.217465 
L 1274.297552 302.217465 
L 1282.574406 302.217465 
L 1290.85126 302.217465 
L 1299.128114 302.217465 
L 1307.404968 302.217465 
L 1315.681822 302.217465 
L 1323.958676 302.217465 
L 1332.23553 302.217465 
L 1340.512384 302.217465 
L 1348.789238 302.217465 
L 1357.066093 302.217465 
L 1365.342947 302.217465 
L 1373.619801 302.217465 
L 1381.896655 302.217465 
L 1390.173509 302.217465 
L 1398.450363 302.217465 
L 1406.727217 302.217465 
L 1415.004071 302.217465 
L 1423.280925 302.217465 
L 1431.557779 302.217465 
L 1439.834633 302.217465 
L 1448.111488 302.217465 
L 1456.388342 302.217465 
L 1464.665196 302.217465 
L 1472.94205 302.217465 
L 1481.218904 302.217465 
L 1481.218904 296.85093 
L 1481.218904 291.484395 
L 1481.218904 286.117859 
L 1481.218904 280.751324 
L 1481.218904 275.384789 
L 1481.218904 270.018254 
L 1481.218904 264.651719 
L 1481.218904 259.285184 
L 1481.218904 253.918648 
L 1481.218904 248.552113 
L 1481.218904 243.185578 
L 1481.218904 237.819043 
L 1481.218904 232.452508 
L 1481.218904 227.085973 
L 1481.218904 221.719438 
L 1481.218904 216.352902 
L 1481.218904 210.986367 
L 1481.218904 205.619832 
L 1481.218904 200.253297 
L 1481.218904 194.886762 
L 1481.218904 189.520227 
L 1481.218904 184.153692 
L 1481.218904 178.787156 
L 1481.218904 173.420621 
L 1481.218904 168.054086 
L 1481.218904 162.687551 
L 1481.218904 157.321016 
L 1481.218904 151.954481 
L 1481.218904 146.587945 
L 1481.218904 141.22141 
L 1481.218904 135.854875 
L 1481.218904 130.48834 
L 1481.218904 125.121805 
L 1481.218904 119.75527 
L 1481.218904 114.388735 
L 1481.218904 109.022199 
L 1481.218904 103.655664 
L 1481.218904 98.289129 
L 1481.218904 92.922594 
L 1481.218904 87.556059 
L 1481.218904 82.189524 
L 1481.218904 76.822989 
L 1481.218904 71.456453 
L 1481.218904 66.089918 
L 1481.218904 60.723383 
L 1481.218904 55.356848 
L 1481.218904 49.990313 
L 1481.218904 44.623778 
L 1481.218904 39.257242 
L 1481.218904 33.890707 
L 1481.218904 28.524172 
L 1481.218904 23.157637 
L 1481.218904 17.791102 
L 1481.218904 12.424567 
L 1481.218904 7.058032 
L 1481.218904 1.691496 
L 1481.218904 -3.675039 
L 1481.218904 -9.041574 
L 1481.218904 -14.408109 
L 1481.218904 -19.774644 
L 1481.218904 -25.141179 
L 1481.218904 -30.507714 
L 1481.218904 -35.87425 
L 1481.218904 -41.240785 
L 1481.218904 -46.60732 
L 1481.218904 -51.973855 
L 1481.218904 -57.34039 
L 1481.218904 -62.706925 
L 1481.218904 -68.073461 
L 1481.218904 -73.439996 
L 1481.218904 -78.806531 
L 1481.218904 -84.173066 
L 1481.218904 -89.539601 
L 1481.218904 -94.906136 
L 1481.218904 -100.272671 
L 1481.218904 -105.639207 
L 1481.218904 -111.005742 
L 1481.218904 -116.372277 
L 1481.218904 -121.738812 
L 1481.218904 -127.105347 
L 1481.218904 -132.471882 
L 1481.218904 -137.838418 
L 1481.218904 -143.204953 
L 1481.218904 -148.571488 
L 1481.218904 -153.938023 
L 1472.94205 -153.938023 
L 1464.665196 -153.938023 
L 1456.388342 -153.938023 
L 1448.111488 -153.938023 
L 1439.834633 -153.938023 
L 1431.557779 -153.938023 
L 1423.280925 -153.938023 
L 1415.004071 -153.938023 
L 1406.727217 -153.938023 
L 1398.450363 -153.938023 
L 1390.173509 -153.938023 
L 1381.896655 -153.938023 
L 1373.619801 -153.938023 
L 1365.342947 -153.938023 
L 1357.066093 -153.938023 
L 1348.789238 -153.938023 
L 1340.512384 -153.938023 
L 1332.23553 -153.938023 
L 1323.958676 -153.938023 
L 1315.681822 -153.938023 
L 1307.404968 -153.938023 
L 1299.128114 -153.938023 
L 1290.85126 -153.938023 
L 1282.574406 -153.938023 
L 1274.297552 -153.938023 
L 1266.020698 -153.938023 
L 1257.743843 -153.938023 
L 1249.466989 -153.938023 
L 1241.190135 -153.938023 
L 1232.913281 -153.938023 
L 1224.636427 -153.938023 
L 1216.359573 -153.938023 
L 1208.082719 -153.938023 
L 1199.805865 -153.938023 
L 1191.529011 -153.938023 
L 1183.252157 -153.938023 
L 1174.975303 -153.938023 
L 1166.698448 -153.938023 
L 1158.421594 -153.938023 
L 1150.14474 -153.938023 
L 1141.867886 -153.938023 
L 1133.591032 -153.938023 
L 1125.314178 -153.938023 
L 1117.037324 -153.938023 
L 1108.76047 -153.938023 
L 1100.483616 -153.938023 
L 1092.206762 -153.938023 
L 1083.929907 -153.938023 
L 1075.653053 -153.938023 
L 1067.376199 -153.938023 
L 1059.099345 -153.938023 
L 1050.822491 -153.938023 
L 1042.545637 -153.938023 
L 1034.268783 -153.938023 
L 1025.991929 -153.938023 
L 1017.715075 -153.938023 
L 1009.438221 -153.938023 
L 1001.161367 -153.938023 
L 992.884512 -153.938023 
L 984.607658 -153.938023 
L 976.330804 -153.938023 
L 968.05395 -153.938023 
L 959.777096 -153.938023 
L 951.500242 -153.938023 
L 943.223388 -153.938023 
L 934.946534 -153.938023 
L 926.66968 -153.938023 
L 918.392826 -153.938023 
L 910.115972 -153.938023 
L 901.839117 -153.938023 
L 893.562263 -153.938023 
L 885.285409 -153.938023 
L 877.008555 -153.938023 
L 868.731701 -153.938023 
L 860.454847 -153.938023 
L 852.177993 -153.938023 
L 843.901139 -153.938023 
L 835.624285 -153.938023 
L 827.347431 -153.938023 
L 819.070577 -153.938023 
L 810.793722 -153.938023 
L 802.516868 -153.938023 
L 794.240014 -153.938023 
L 785.96316 -153.938023 
L 777.686306 -153.938023 
L 769.409452 -153.938023 
L 761.132598 -153.938023 
L 752.855744 -153.938023 
L 744.57889 -153.938023 
L 736.302036 -153.938023 
L 728.025182 -153.938023 
L 719.748327 -153.938023 
L 711.471473 -153.938023 
L 703.194619 -153.938023 
L 694.917765 -153.938023 
L 686.640911 -153.938023 
L 678.364057 -153.938023 
L 670.087203 -153.938023 
L 661.810349 -153.938023 
L 653.533495 -153.938023 
L 645.256641 -153.938023 
L 636.979786 -153.938023 
L 628.702932 -153.938023 
L 620.426078 -153.938023 
L 612.149224 -153.938023 
L 603.87237 -153.938023 
L 595.595516 -153.938023 
L 587.318662 -153.938023 
L 579.041808 -153.938023 
L 570.764954 -153.938023 
L 562.4881 -153.938023 
L 554.211246 -153.938023 
L 545.934391 -153.938023 
L 537.657537 -153.938023 
L 529.380683 -153.938023 
L 521.103829 -153.938023 
L 512.826975 -153.938023 
L 504.550121 -153.938023 
L 496.273267 -153.938023 
L 487.996413 -153.938023 
L 479.719559 -153.938023 
L 471.442705 -153.938023 
L 463.165851 -153.938023 
L 454.888996 -153.938023 
L 446.612142 -153.938023 
L 438.335288 -153.938023 
L 430.058434 -153.938023 
L 421.78158 -153.938023 
L 413.504726 -153.938023 
L 405.227872 -153.938023 
L 396.951018 -153.938023 
L 388.674164 -153.938023 
L 380.39731 -153.938023 
L 372.120456 -153.938023 
L 363.843601 -153.938023 
L 355.566747 -153.938023 
L 347.289893 -153.938023 
L 339.013039 -153.938023 
L 330.736185 -153.938023 
L 322.459331 -153.938023 
L 314.182477 -153.938023 
L 305.905623 -153.938023 
L 297.628769 -153.938023 
L 289.351915 -153.938023 
L 281.075061 -153.938023 
L 272.798206 -153.938023 
L 264.521352 -153.938023 
L 256.244498 -153.938023 
L 247.967644 -153.938023 
L 239.69079 -153.938023 
L 231.413936 -153.938023 
L 223.137082 -153.938023 
L 214.860228 -153.938023 
L 206.583374 -153.938023 
L 198.30652 -153.938023 
L 190.029665 -153.938023 
L 181.752811 -153.938023 
L 173.475957 -153.938023 
L 165.199103 -153.938023 
L 156.922249 -153.938023 
L 148.645395 -153.938023 
L 140.368541 -153.938023 
L 132.091687 -153.938023 
L 123.814833 -153.938023 
L 115.537979 -153.938023 
L 107.261125 -153.938023 
L 98.98427 -153.938023 
L 90.707416 -153.938023 
L 82.430562 -153.938023 
L 74.153708 -153.938023 
L 65.876854 -153.938023 
L 65.876854 -148.571488 
L 65.876854 -143.204953 
L 65.876854 -137.838418 
L 65.876854 -132.471882 
L 65.876854 -127.105347 
L 65.876854 -121.738812 
L 65.876854 -116.372277 
L 65.876854 -111.005742 
L 65.876854 -105.639207 
L 65.876854 -100.272671 
L 65.876854 -94.906136 
L 65.876854 -89.539601 
L 65.876854 -84.173066 
L 65.876854 -78.806531 
L 65.876854 -73.439996 
L 65.876854 -68.073461 
L 65.876854 -62.706925 
L 65.876854 -57.34039 
L 65.876854 -51.973855 
L 65.876854 -46.60732 
L 65.876854 -41.240785 
L 65.876854 -35.87425 
L 65.876854 -30.507714 
L 65.876854 -25.141179 
L 65.876854 -19.774644 
L 65.876854 -14.408109 
L 65.876854 -9.041574 
L 65.876854 -3.675039 
L 65.876854 1.691496 
L 65.876854 7.058032 
L 65.876854 12.424567 
L 65.876854 17.791102 
L 65.876854 23.157637 
L 65.876854 28.524172 
L 65.876854 33.890707 
L 65.876854 39.257242 
L 65.876854 44.623778 
L 65.876854 49.990313 
L 65.876854 55.356848 
L 65.876854 60.723383 
L 65.876854 66.089918 
L 65.876854 71.456453 
L 65.876854 76.822989 
L 65.876854 82.189524 
L 65.876854 87.556059 
L 65.876854 92.922594 
L 65.876854 98.289129 
L 65.876854 103.655664 
L 65.876854 109.022199 
L 65.876854 114.388735 
L 65.876854 119.75527 
L 65.876854 125.121805 
L 65.876854 130.48834 
L 65.876854 135.854875 
L 65.876854 141.22141 
L 65.876854 146.587945 
L 65.876854 151.954481 
L 65.876854 157.321016 
L 65.876854 162.687551 
L 65.876854 168.054086 
L 65.876854 173.420621 
L 65.876854 178.787156 
L 65.876854 184.153692 
L 65.876854 189.520227 
L 65.876854 194.886762 
L 65.876854 200.253297 
L 65.876854 205.619832 
L 65.876854 210.986367 
L 65.876854 216.352902 
L 65.876854 221.719438 
L 65.876854 222.010313 
L 66.175934 221.719438 
L 74.153708 217.839974 
L 82.430562 216.449861 
L 82.542717 216.352902 
L 82.430562 216.158986 
L 76.447232 210.986367 
L 74.153708 208.012224 
L 71.693837 205.619832 
L 74.153708 204.024904 
L 82.430562 202.236059 
L 90.258797 205.619832 
L 90.707416 205.910707 
L 90.886864 205.619832 
L 93.00094 200.253297 
L 98.98427 197.149726 
L 102.47446 194.886762 
L 107.261125 189.714144 
L 107.485434 189.520227 
L 115.537979 184.299129 
L 115.717426 184.153692 
L 123.814833 180.403559 
L 132.091687 178.870264 
L 140.368541 180.274228 
L 141.679126 178.787156 
L 140.368541 175.813013 
L 132.988926 173.420621 
L 140.368541 168.635837 
L 140.667621 168.054086 
L 148.645395 162.881468 
L 156.922249 163.269302 
L 157.370869 162.687551 
L 165.199103 159.303778 
L 169.78615 157.321016 
L 173.475957 152.536231 
L 174.373197 151.954481 
L 181.752811 150.359552 
L 186.115548 146.587945 
L 190.029665 144.050116 
L 192.938157 141.22141 
L 198.30652 137.740679 
L 206.583374 136.846256 
L 214.860228 136.70463 
L 221.826497 141.22141 
L 223.137082 143.204172 
L 231.413936 142.071165 
L 239.69079 143.204172 
L 247.967644 141.286049 
L 248.864883 141.22141 
L 256.244498 139.626482 
L 258.70437 141.22141 
L 261.612861 146.587945 
L 264.521352 148.85091 
L 270.504683 151.954481 
L 268.21116 157.321016 
L 270.504683 162.687551 
L 272.698513 168.054086 
L 272.798206 168.344961 
L 276.712324 173.420621 
L 281.075061 177.192228 
L 289.351915 177.192228 
L 291.811786 178.787156 
L 297.628769 182.558763 
L 300.08864 184.153692 
L 297.628769 188.938476 
L 297.449321 189.520227 
L 296.79476 194.886762 
L 297.449321 200.253297 
L 296.482007 205.619832 
L 296.286388 210.986367 
L 297.017162 216.352902 
L 297.479229 221.719438 
L 289.351915 226.989014 
L 289.052835 227.085973 
L 281.075061 230.189544 
L 276.712324 232.452508 
L 272.798206 237.528168 
L 264.521352 236.969288 
L 263.374591 237.819043 
L 256.244498 241.928376 
L 252.754309 243.185578 
L 250.427516 248.552113 
L 247.967644 250.147041 
L 239.69079 250.147041 
L 231.413936 251.655684 
L 223.137082 251.655684 
L 221.550632 253.918648 
L 214.860228 258.690355 
L 213.025409 259.285184 
L 206.583374 263.462062 
L 198.30652 264.457802 
L 197.40928 264.651719 
L 190.029665 269.436503 
L 182.650051 264.651719 
L 181.752811 264.568612 
L 180.855572 264.651719 
L 178.69478 270.018254 
L 173.475957 272.556084 
L 167.658975 275.384789 
L 165.199103 280.169574 
L 164.750484 280.751324 
L 165.199103 281.333075 
L 166.096342 280.751324 
L 173.475957 279.156396 
L 181.752811 277.647753 
L 190.029665 275.96654 
L 198.30652 279.156396 
L 204.123502 275.384789 
L 206.583374 272.992397 
L 210.273181 275.384789 
L 213.962989 280.751324 
L 209.043245 286.117859 
L 206.583374 288.510252 
L 198.30652 289.501633 
L 190.029665 290.070042 
L 181.752811 289.22143 
L 173.475957 291.193519 
L 172.578718 291.484395 
L 165.199103 293.079323 
L 156.922249 293.079323 
L 148.645395 294.587965 
L 140.368541 296.657013 
L 140.069461 296.85093 
L 132.091687 299.954501 
L 123.814833 299.38876 
L 115.537979 299.243322 
L 107.261125 302.023548 
L 106.363885 302.217465 
z
" style="fill:#ffffff;"/>
    <path clip-path="url(#pe7d67f8876)" d="M 123.814833 286.311776 
L 132.091687 286.69961 
L 132.315997 286.117859 
L 132.091687 285.536109 
L 123.814833 285.826984 
L 122.917594 286.117859 
z
" style="fill:#ffffff;"/>
    <path clip-path="url(#pe7d67f8876)" d="M 156.922249 286.69961 
L 157.819488 286.117859 
L 156.922249 285.826984 
L 156.473629 286.117859 
z
" style="fill:#ffffff;"/>
    <path clip-path="url(#pe7d67f8876)" d="M 148.645395 281.0422 
L 149.094015 280.751324 
L 148.645395 280.460449 
L 147.748156 280.751324 
z
" style="fill:#ffffff;"/>
    <path clip-path="url(#pe7d67f8876)" d="M 140.368541 278.358932 
L 143.426572 275.384789 
L 140.368541 274.535034 
L 138.075018 275.384789 
z
" style="fill:#ffffff;"/>
    <path clip-path="url(#pe7d67f8876)" d="M 156.922249 275.675664 
L 157.819488 275.384789 
L 156.922249 274.803038 
L 156.473629 275.384789 
z
" style="fill:#ffffff;"/>
    <path clip-path="url(#pe7d67f8876)" d="M 190.029665 259.866934 
L 190.328745 259.285184 
L 190.029665 259.2464 
L 189.901488 259.285184 
z
" style="fill:#ffffff;"/>
    <path clip-path="url(#pe7d67f8876)" d="M 148.645395 174.270376 
L 156.922249 173.462175 
L 157.021942 173.420621 
L 156.922249 172.838871 
L 148.645395 171.93355 
L 144.058348 173.420621 
z
" style="fill:#ffffff;"/>
   </g>
   <g id="PathCollection_3">
    <path clip-path="url(#pe7d67f8876)" d="M 82.430562 302.217465 
L 90.707416 302.217465 
L 98.98427 302.217465 
L 106.363885 302.217465 
L 107.261125 302.023548 
L 115.537979 299.243322 
L 123.814833 299.38876 
L 132.091687 299.954501 
L 140.069461 296.85093 
L 140.368541 296.657013 
L 148.645395 294.587965 
L 156.922249 293.079323 
L 165.199103 293.079323 
L 172.578718 291.484395 
L 173.475957 291.193519 
L 181.752811 289.22143 
L 190.029665 290.070042 
L 198.30652 289.501633 
L 206.583374 288.510252 
L 209.043245 286.117859 
L 213.962989 280.751324 
L 210.273181 275.384789 
L 206.583374 272.992397 
L 204.123502 275.384789 
L 198.30652 279.156396 
L 190.029665 275.96654 
L 181.752811 277.647753 
L 173.475957 279.156396 
L 166.096342 280.751324 
L 165.199103 281.333075 
L 164.750484 280.751324 
L 165.199103 280.169574 
L 167.658975 275.384789 
L 173.475957 272.556084 
L 178.69478 270.018254 
L 180.855572 264.651719 
L 181.752811 264.568612 
L 182.650051 264.651719 
L 190.029665 269.436503 
L 197.40928 264.651719 
L 198.30652 264.457802 
L 206.583374 263.462062 
L 213.025409 259.285184 
L 214.860228 258.690355 
L 221.550632 253.918648 
L 223.137082 251.655684 
L 231.413936 251.655684 
L 239.69079 250.147041 
L 247.967644 250.147041 
L 250.427516 248.552113 
L 252.754309 243.185578 
L 256.244498 241.928376 
L 263.374591 237.819043 
L 264.521352 236.969288 
L 272.798206 237.528168 
L 276.712324 232.452508 
L 281.075061 230.189544 
L 289.052835 227.085973 
L 289.351915 226.989014 
L 297.479229 221.719438 
L 297.017162 216.352902 
L 296.286388 210.986367 
L 296.482007 205.619832 
L 297.449321 200.253297 
L 296.79476 194.886762 
L 297.449321 189.520227 
L 297.628769 188.938476 
L 300.08864 184.153692 
L 297.628769 182.558763 
L 291.811786 178.787156 
L 289.351915 177.192228 
L 281.075061 177.192228 
L 276.712324 173.420621 
L 272.798206 168.344961 
L 272.698513 168.054086 
L 270.504683 162.687551 
L 268.21116 157.321016 
L 270.504683 151.954481 
L 264.521352 148.85091 
L 261.612861 146.587945 
L 258.70437 141.22141 
L 256.244498 139.626482 
L 248.864883 141.22141 
L 247.967644 141.286049 
L 239.69079 143.204172 
L 231.413936 142.071165 
L 223.137082 143.204172 
L 221.826497 141.22141 
L 214.860228 136.70463 
L 206.583374 136.846256 
L 198.30652 137.740679 
L 192.938157 141.22141 
L 190.029665 144.050116 
L 186.115548 146.587945 
L 181.752811 150.359552 
L 174.373197 151.954481 
L 173.475957 152.536231 
L 169.78615 157.321016 
L 165.199103 159.303778 
L 157.370869 162.687551 
L 156.922249 163.269302 
L 148.645395 162.881468 
L 140.667621 168.054086 
L 140.368541 168.635837 
L 132.988926 173.420621 
L 140.368541 175.813013 
L 141.679126 178.787156 
L 140.368541 180.274228 
L 132.091687 178.870264 
L 123.814833 180.403559 
L 115.717426 184.153692 
L 115.537979 184.299129 
L 107.485434 189.520227 
L 107.261125 189.714144 
L 102.47446 194.886762 
L 98.98427 197.149726 
L 93.00094 200.253297 
L 90.886864 205.619832 
L 90.707416 205.910707 
L 90.258797 205.619832 
L 82.430562 202.236059 
L 74.153708 204.024904 
L 71.693837 205.619832 
L 74.153708 208.012224 
L 76.447232 210.986367 
L 82.430562 216.158986 
L 82.542717 216.352902 
L 82.430562 216.449861 
L 74.153708 217.839974 
L 66.175934 221.719438 
L 65.876854 222.010313 
L 65.876854 227.085973 
L 65.876854 232.452508 
L 65.876854 235.717526 
L 67.135771 232.452508 
L 66.175934 227.085973 
L 71.992916 221.719438 
L 74.153708 220.668679 
L 82.430562 218.335664 
L 84.724086 216.352902 
L 82.430562 212.387379 
L 80.809968 210.986367 
L 82.430562 206.783334 
L 88.912938 210.986367 
L 90.707416 211.180284 
L 91.156036 210.986367 
L 94.377054 205.619832 
L 97.363677 200.253297 
L 98.98427 199.41269 
L 105.964649 194.886762 
L 107.261125 193.485751 
L 111.848171 189.520227 
L 115.537979 187.127834 
L 119.207616 184.153692 
L 123.814833 182.019962 
L 132.091687 180.486667 
L 140.368541 183.102933 
L 144.172118 178.787156 
L 148.645395 175.886779 
L 156.922249 174.270376 
L 158.960937 173.420621 
L 160.27936 168.054086 
L 165.199103 163.269302 
L 165.797263 162.687551 
L 173.475957 158.953525 
L 181.752811 158.13727 
L 185.109922 157.321016 
L 183.767078 151.954481 
L 190.029665 146.878821 
L 190.627825 146.587945 
L 195.846648 141.22141 
L 198.30652 139.626482 
L 206.583374 138.73206 
L 214.860228 138.321033 
L 219.333505 141.22141 
L 222.973947 146.587945 
L 223.137082 146.733383 
L 223.585701 146.587945 
L 231.413936 143.687568 
L 239.24217 146.587945 
L 239.69079 146.975779 
L 239.947144 146.587945 
L 247.967644 142.543252 
L 256.244498 143.398089 
L 258.70437 146.587945 
L 264.521352 151.113874 
L 266.141946 151.954481 
L 264.521352 154.055997 
L 263.402315 157.321016 
L 264.521352 160.586034 
L 266.141946 162.687551 
L 270.759519 168.054086 
L 272.698513 173.420621 
L 272.798206 173.549899 
L 280.067927 178.787156 
L 281.075061 179.512716 
L 289.351915 182.052175 
L 292.593102 184.153692 
L 293.959131 189.520227 
L 295.20831 194.886762 
L 293.959131 200.253297 
L 294.300639 205.619832 
L 294.944008 210.986367 
L 295.853766 216.352902 
L 294.570738 221.719438 
L 289.351915 225.103211 
L 283.235852 227.085973 
L 281.075061 227.926579 
L 272.798206 232.161633 
L 272.349587 232.452508 
L 264.521352 235.352885 
L 261.193222 237.819043 
L 256.244498 240.671174 
L 249.264119 243.185578 
L 247.967644 245.287095 
L 239.69079 246.919604 
L 234.655124 248.552113 
L 231.413936 249.39272 
L 223.137082 249.39272 
L 219.964182 253.918648 
L 214.860228 257.558873 
L 209.53522 259.285184 
L 206.583374 261.199097 
L 198.30652 260.686195 
L 196.145728 259.285184 
L 190.029665 258.492079 
L 187.408496 259.285184 
L 181.752811 262.952209 
L 173.475957 263.926159 
L 165.199103 264.568612 
L 164.750484 264.651719 
L 156.922249 268.712247 
L 148.645395 269.36525 
L 146.631129 270.018254 
L 140.368541 272.918631 
L 133.712281 275.384789 
L 132.091687 277.486306 
L 123.814833 280.460449 
L 123.366213 280.751324 
L 115.537979 284.811852 
L 107.261125 284.954358 
L 105.466646 286.117859 
L 107.261125 287.281361 
L 110.502312 291.484395 
L 110.502312 296.85093 
L 107.261125 298.251941 
L 98.98427 300.911458 
L 90.707416 300.040786 
L 82.430562 301.564461 
L 80.416296 302.217465 
z
M 125.609311 296.85093 
L 123.814833 295.687428 
L 120.573645 291.484395 
L 123.814833 290.083383 
L 127.056021 291.484395 
L 132.091687 294.749413 
L 134.252479 296.85093 
L 132.091687 297.691536 
z
M 137.127353 291.484395 
L 136.678733 286.117859 
L 140.368541 282.928003 
L 147.748156 286.117859 
L 148.645395 287.281361 
L 151.886583 291.484395 
L 148.645395 292.325001 
L 140.368541 292.885406 
z
M 122.917594 286.117859 
L 123.814833 285.826984 
L 132.091687 285.536109 
L 132.315997 286.117859 
L 132.091687 286.69961 
L 123.814833 286.311776 
z
M 156.473629 286.117859 
L 156.922249 285.826984 
L 157.819488 286.117859 
L 156.922249 286.69961 
z
M 175.270436 286.117859 
L 178.511624 280.751324 
L 181.752811 279.910718 
L 184.993999 280.751324 
L 190.029665 282.057332 
L 197.8579 286.117859 
L 190.029665 288.655689 
L 181.752811 286.958466 
z
M 147.748156 280.751324 
L 148.645395 280.460449 
L 149.094015 280.751324 
L 148.645395 281.0422 
z
M 138.075018 275.384789 
L 140.368541 274.535034 
L 143.426572 275.384789 
L 140.368541 278.358932 
z
M 156.473629 275.384789 
L 156.922249 274.803038 
L 157.819488 275.384789 
L 156.922249 275.675664 
z
M 189.901488 259.285184 
L 190.029665 259.2464 
L 190.328745 259.285184 
L 190.029665 259.866934 
z
M 144.058348 173.420621 
L 148.645395 171.93355 
L 156.922249 172.838871 
L 157.021942 173.420621 
L 156.922249 173.462175 
L 148.645395 174.270376 
z
M 146.484603 168.054086 
L 148.645395 166.653075 
L 151.886583 168.054086 
L 148.645395 169.104845 
z
" style="fill:#f0f0f0;"/>
    <path clip-path="url(#pe7d67f8876)" d="M 66.076241 243.185578 
L 65.876854 242.022077 
L 65.876854 243.185578 
L 65.876854 243.351793 
z
" style="fill:#f0f0f0;"/>
   </g>
   <g id="PathCollection_4">
    <path clip-path="url(#pe7d67f8876)" d="M 74.153708 302.217465 
L 80.416296 302.217465 
L 82.430562 301.564461 
L 90.707416 300.040786 
L 98.98427 300.911458 
L 107.261125 298.251941 
L 110.502312 296.85093 
L 110.502312 291.484395 
L 107.261125 287.281361 
L 105.466646 286.117859 
L 107.261125 284.954358 
L 115.537979 284.811852 
L 123.366213 280.751324 
L 123.814833 280.460449 
L 132.091687 277.486306 
L 133.712281 275.384789 
L 140.368541 272.918631 
L 146.631129 270.018254 
L 148.645395 269.36525 
L 156.922249 268.712247 
L 164.750484 264.651719 
L 165.199103 264.568612 
L 173.475957 263.926159 
L 181.752811 262.952209 
L 187.408496 259.285184 
L 190.029665 258.492079 
L 196.145728 259.285184 
L 198.30652 260.686195 
L 206.583374 261.199097 
L 209.53522 259.285184 
L 214.860228 257.558873 
L 219.964182 253.918648 
L 223.137082 249.39272 
L 231.413936 249.39272 
L 234.655124 248.552113 
L 239.69079 246.919604 
L 247.967644 245.287095 
L 249.264119 243.185578 
L 256.244498 240.671174 
L 261.193222 237.819043 
L 264.521352 235.352885 
L 272.349587 232.452508 
L 272.798206 232.161633 
L 281.075061 227.926579 
L 283.235852 227.085973 
L 289.351915 225.103211 
L 294.570738 221.719438 
L 295.853766 216.352902 
L 294.944008 210.986367 
L 294.300639 205.619832 
L 293.959131 200.253297 
L 295.20831 194.886762 
L 293.959131 189.520227 
L 292.593102 184.153692 
L 289.351915 182.052175 
L 281.075061 179.512716 
L 280.067927 178.787156 
L 272.798206 173.549899 
L 272.698513 173.420621 
L 270.759519 168.054086 
L 266.141946 162.687551 
L 264.521352 160.586034 
L 263.402315 157.321016 
L 264.521352 154.055997 
L 266.141946 151.954481 
L 264.521352 151.113874 
L 258.70437 146.587945 
L 256.244498 143.398089 
L 247.967644 142.543252 
L 239.947144 146.587945 
L 239.69079 146.975779 
L 239.24217 146.587945 
L 231.413936 143.687568 
L 223.585701 146.587945 
L 223.137082 146.733383 
L 222.973947 146.587945 
L 219.333505 141.22141 
L 214.860228 138.321033 
L 206.583374 138.73206 
L 198.30652 139.626482 
L 195.846648 141.22141 
L 190.627825 146.587945 
L 190.029665 146.878821 
L 183.767078 151.954481 
L 185.109922 157.321016 
L 181.752811 158.13727 
L 173.475957 158.953525 
L 165.797263 162.687551 
L 165.199103 163.269302 
L 160.27936 168.054086 
L 158.960937 173.420621 
L 156.922249 174.270376 
L 148.645395 175.886779 
L 144.172118 178.787156 
L 140.368541 183.102933 
L 132.091687 180.486667 
L 123.814833 182.019962 
L 119.207616 184.153692 
L 115.537979 187.127834 
L 111.848171 189.520227 
L 107.261125 193.485751 
L 105.964649 194.886762 
L 98.98427 199.41269 
L 97.363677 200.253297 
L 94.377054 205.619832 
L 91.156036 210.986367 
L 90.707416 211.180284 
L 88.912938 210.986367 
L 82.430562 206.783334 
L 80.809968 210.986367 
L 82.430562 212.387379 
L 84.724086 216.352902 
L 82.430562 218.335664 
L 74.153708 220.668679 
L 71.992916 221.719438 
L 66.175934 227.085973 
L 67.135771 232.452508 
L 65.876854 235.717526 
L 65.876854 237.819043 
L 65.876854 242.022077 
L 66.076241 243.185578 
L 65.876854 243.351793 
L 65.876854 248.201002 
L 71.893223 243.185578 
L 74.153708 239.887865 
L 75.571825 237.819043 
L 74.153708 233.681399 
L 73.679876 232.452508 
L 74.153708 229.994726 
L 82.430562 231.223617 
L 84.253855 227.085973 
L 85.937213 221.719438 
L 90.707416 217.080091 
L 91.604656 216.352902 
L 98.98427 212.935199 
L 101.614259 210.986367 
L 102.241688 205.619832 
L 107.261125 201.435481 
L 110.451887 200.253297 
L 114.906202 194.886762 
L 115.537979 194.395206 
L 123.814833 193.237905 
L 132.091687 190.489811 
L 132.839386 189.520227 
L 140.368541 186.857458 
L 143.897038 184.153692 
L 148.645395 180.151339 
L 151.275383 178.787156 
L 156.922249 176.694981 
L 164.777919 173.420621 
L 165.199103 172.929065 
L 173.475957 172.116568 
L 181.752811 168.881615 
L 184.305421 168.054086 
L 181.752811 163.916442 
L 180.805147 162.687551 
L 181.752811 162.380328 
L 190.029665 160.367878 
L 198.30652 159.697061 
L 205.635709 157.321016 
L 198.30652 152.568926 
L 197.042967 151.954481 
L 198.30652 151.340035 
L 201.971114 146.587945 
L 206.583374 143.597455 
L 214.860228 143.170242 
L 218.214598 146.587945 
L 223.137082 150.976441 
L 231.413936 147.637317 
L 237.596736 151.954481 
L 239.69079 152.954921 
L 247.967644 155.756152 
L 256.244498 155.756152 
L 257.585333 157.321016 
L 261.24489 162.687551 
L 264.521352 167.644456 
L 264.942537 168.054086 
L 269.790022 173.420621 
L 272.798206 177.321506 
L 274.832643 178.787156 
L 281.075061 183.284323 
L 282.798991 184.153692 
L 287.723206 189.520227 
L 289.351915 193.321898 
L 290.448961 194.886762 
L 289.351915 196.451625 
L 287.519617 200.253297 
L 288.820121 205.619832 
L 289.351915 207.688654 
L 290.916866 210.986367 
L 292.363576 216.352902 
L 289.351915 220.01421 
L 282.338613 221.719438 
L 281.075061 222.129068 
L 272.798206 225.380745 
L 264.521352 226.670437 
L 262.278254 227.085973 
L 256.244498 228.650836 
L 253.312822 232.452508 
L 247.967644 236.303285 
L 242.707668 237.819043 
L 239.69079 239.383906 
L 231.413936 240.017518 
L 228.748776 243.185578 
L 223.137082 246.264311 
L 218.040363 248.552113 
L 215.204833 253.918648 
L 214.860228 254.164427 
L 213.912563 253.918648 
L 206.583374 252.918209 
L 198.30652 253.241568 
L 194.888918 253.918648 
L 190.029665 256.229115 
L 181.752811 258.733498 
L 177.498461 259.285184 
L 173.475957 260.154552 
L 165.199103 262.144007 
L 156.922249 264.058596 
L 152.714268 264.651719 
L 148.645395 265.970804 
L 140.368541 269.398171 
L 135.108565 270.018254 
L 132.091687 271.136013 
L 123.814833 274.582329 
L 116.801531 275.384789 
L 115.537979 276.20405 
L 107.261125 279.399441 
L 99.616047 280.751324 
L 98.98427 281.160954 
L 92.431347 286.117859 
L 91.339193 291.484395 
L 90.707416 291.975951 
L 85.3369 296.85093 
L 82.430562 298.170015 
L 74.153708 301.080646 
L 72.400383 302.217465 
z
M 247.426122 146.587945 
L 247.967644 146.314859 
L 248.725776 146.587945 
L 247.967644 147.202391 
z
" style="fill:#d3d3d3;"/>
    <path clip-path="url(#pe7d67f8876)" d="M 132.091687 297.691536 
L 134.252479 296.85093 
L 132.091687 294.749413 
L 127.056021 291.484395 
L 123.814833 290.083383 
L 120.573645 291.484395 
L 123.814833 295.687428 
L 125.609311 296.85093 
z
" style="fill:#d3d3d3;"/>
    <path clip-path="url(#pe7d67f8876)" d="M 140.368541 292.885406 
L 148.645395 292.325001 
L 151.886583 291.484395 
L 148.645395 287.281361 
L 147.748156 286.117859 
L 140.368541 282.928003 
L 136.678733 286.117859 
L 137.127353 291.484395 
z
" style="fill:#d3d3d3;"/>
    <path clip-path="url(#pe7d67f8876)" d="M 181.752811 286.958466 
L 190.029665 288.655689 
L 197.8579 286.117859 
L 190.029665 282.057332 
L 184.993999 280.751324 
L 181.752811 279.910718 
L 178.511624 280.751324 
L 175.270436 286.117859 
z
" style="fill:#d3d3d3;"/>
    <path clip-path="url(#pe7d67f8876)" d="M 148.645395 169.104845 
L 151.886583 168.054086 
L 148.645395 166.653075 
L 146.484603 168.054086 
z
" style="fill:#d3d3d3;"/>
    <path clip-path="url(#pe7d67f8876)" d="M 198.30652 168.963541 
L 199.924974 168.054086 
L 198.30652 166.105254 
L 194.799869 168.054086 
z
" style="fill:#d3d3d3;"/>
   </g>
   <g id="PathCollection_5">
    <path clip-path="url(#pe7d67f8876)" d="M 74.153708 301.080646 
L 82.430562 298.170015 
L 85.3369 296.85093 
L 90.707416 291.975951 
L 91.339193 291.484395 
L 92.431347 286.117859 
L 98.98427 281.160954 
L 99.616047 280.751324 
L 107.261125 279.399441 
L 115.537979 276.20405 
L 116.801531 275.384789 
L 123.814833 274.582329 
L 132.091687 271.136013 
L 135.108565 270.018254 
L 140.368541 269.398171 
L 148.645395 265.970804 
L 152.714268 264.651719 
L 156.922249 264.058596 
L 165.199103 262.144007 
L 173.475957 260.154552 
L 177.498461 259.285184 
L 181.752811 258.733498 
L 190.029665 256.229115 
L 194.888918 253.918648 
L 198.30652 253.241568 
L 206.583374 252.918209 
L 213.912563 253.918648 
L 214.860228 254.164427 
L 215.204833 253.918648 
L 218.040363 248.552113 
L 223.137082 246.264311 
L 228.748776 243.185578 
L 231.413936 240.017518 
L 239.69079 239.383906 
L 242.707668 237.819043 
L 247.967644 236.303285 
L 253.312822 232.452508 
L 256.244498 228.650836 
L 262.278254 227.085973 
L 264.521352 226.670437 
L 272.798206 225.380745 
L 281.075061 222.129068 
L 282.338613 221.719438 
L 289.351915 220.01421 
L 292.363576 216.352902 
L 290.916866 210.986367 
L 289.351915 207.688654 
L 288.820121 205.619832 
L 287.519617 200.253297 
L 289.351915 196.451625 
L 290.448961 194.886762 
L 289.351915 193.321898 
L 287.723206 189.520227 
L 282.798991 184.153692 
L 281.075061 183.284323 
L 274.832643 178.787156 
L 272.798206 177.321506 
L 269.790022 173.420621 
L 264.942537 168.054086 
L 264.521352 167.644456 
L 261.24489 162.687551 
L 257.585333 157.321016 
L 256.244498 155.756152 
L 247.967644 155.756152 
L 239.69079 152.954921 
L 237.596736 151.954481 
L 231.413936 147.637317 
L 223.137082 150.976441 
L 218.214598 146.587945 
L 214.860228 143.170242 
L 206.583374 143.597455 
L 201.971114 146.587945 
L 198.30652 151.340035 
L 197.042967 151.954481 
L 198.30652 152.568926 
L 205.635709 157.321016 
L 198.30652 159.697061 
L 190.029665 160.367878 
L 181.752811 162.380328 
L 180.805147 162.687551 
L 181.752811 163.916442 
L 184.305421 168.054086 
L 181.752811 168.881615 
L 173.475957 172.116568 
L 165.199103 172.929065 
L 164.777919 173.420621 
L 156.922249 176.694981 
L 151.275383 178.787156 
L 148.645395 180.151339 
L 143.897038 184.153692 
L 140.368541 186.857458 
L 132.839386 189.520227 
L 132.091687 190.489811 
L 123.814833 193.237905 
L 115.537979 194.395206 
L 114.906202 194.886762 
L 110.451887 200.253297 
L 107.261125 201.435481 
L 102.241688 205.619832 
L 101.614259 210.986367 
L 98.98427 212.935199 
L 91.604656 216.352902 
L 90.707416 217.080091 
L 85.937213 221.719438 
L 84.253855 227.085973 
L 82.430562 231.223617 
L 74.153708 229.994726 
L 73.679876 232.452508 
L 74.153708 233.681399 
L 75.571825 237.819043 
L 74.153708 239.887865 
L 71.893223 243.185578 
L 65.876854 248.201002 
L 65.876854 248.552113 
L 65.876854 253.918648 
L 65.876854 259.285184 
L 65.876854 261.291334 
L 68.970958 259.285184 
L 70.162213 253.918648 
L 74.153708 250.467982 
L 82.430562 252.76492 
L 90.707416 249.30232 
L 92.690931 248.552113 
L 98.98427 244.743677 
L 106.193481 243.185578 
L 106.775832 237.819043 
L 107.261125 237.530611 
L 115.537979 237.434467 
L 123.814833 233.738576 
L 132.091687 232.928845 
L 132.275352 232.452508 
L 140.368541 228.63618 
L 146.943511 227.085973 
L 146.32472 221.719438 
L 148.645395 220.568803 
L 156.922249 221.488692 
L 165.199103 217.142804 
L 166.823465 216.352902 
L 173.475957 213.628692 
L 179.928484 210.986367 
L 181.752811 206.254948 
L 182.046675 205.619832 
L 181.752811 205.347639 
L 178.814175 205.619832 
L 173.475957 205.965951 
L 172.80868 205.619832 
L 173.475957 203.889239 
L 174.877894 200.253297 
L 181.752811 197.281597 
L 185.782167 194.886762 
L 181.752811 192.970894 
L 173.475957 191.679539 
L 165.199103 192.780359 
L 156.922249 191.539817 
L 153.584929 189.520227 
L 156.922249 187.500636 
L 165.199103 187.564148 
L 169.9809 184.153692 
L 173.475957 180.592645 
L 177.320521 184.153692 
L 181.752811 186.06956 
L 186.185102 184.153692 
L 190.029665 181.037776 
L 198.30652 179.912466 
L 199.69498 178.787156 
L 202.273548 173.420621 
L 206.583374 171.2472 
L 211.015664 168.054086 
L 214.860228 163.899532 
L 215.981777 162.687551 
L 223.137082 158.048204 
L 225.940954 157.321016 
L 231.413936 155.546734 
L 238.711245 157.321016 
L 239.69079 157.391584 
L 247.967644 160.072332 
L 253.345612 162.687551 
L 256.104563 168.054086 
L 256.244498 168.265792 
L 261.748579 173.420621 
L 264.521352 174.719037 
L 268.704216 178.787156 
L 272.798206 181.026853 
L 277.474618 184.153692 
L 280.514286 189.520227 
L 281.075061 191.944188 
L 281.926002 194.886762 
L 281.075061 196.652306 
L 280.551113 200.253297 
L 281.075061 202.053792 
L 283.3667 205.619832 
L 284.327472 210.986367 
L 281.075061 213.428129 
L 272.798206 212.942446 
L 264.521352 213.885959 
L 258.433691 216.352902 
L 256.244498 217.444768 
L 251.2029 221.719438 
L 247.967644 223.948212 
L 245.469892 227.085973 
L 239.69079 230.22539 
L 237.292838 232.452508 
L 231.413936 236.413743 
L 229.062069 237.819043 
L 223.137082 242.118016 
L 221.490571 243.185578 
L 214.860228 247.110727 
L 206.583374 248.446261 
L 206.399709 248.552113 
L 198.30652 250.884314 
L 190.029665 251.527974 
L 181.752811 252.51438 
L 180.453322 253.918648 
L 173.475957 256.431967 
L 165.199103 257.24711 
L 159.879606 259.285184 
L 156.922249 260.36898 
L 148.645395 262.814019 
L 142.143175 264.651719 
L 140.368541 265.540846 
L 132.091687 267.361811 
L 123.814833 269.748925 
L 123.254058 270.018254 
L 115.537979 272.96116 
L 107.594763 275.384789 
L 107.261125 275.542116 
L 98.98427 277.581964 
L 93.458555 280.751324 
L 90.707416 282.616185 
L 82.430562 283.835852 
L 74.153708 284.59974 
L 71.109877 286.117859 
L 70.34892 291.484395 
L 65.876854 294.577292 
L 65.876854 296.85093 
L 65.876854 302.217465 
L 72.400383 302.217465 
z
M 106.213811 216.352902 
L 107.261125 215.617259 
L 108.23363 216.352902 
L 107.261125 217.614005 
z
M 194.799869 168.054086 
L 198.30652 166.105254 
L 199.924974 168.054086 
L 198.30652 168.963541 
z
" style="fill:#b8b8b8;"/>
    <path clip-path="url(#pe7d67f8876)" d="M 107.261125 249.126587 
L 108.189331 248.552113 
L 107.261125 244.339307 
L 105.761713 248.552113 
z
" style="fill:#b8b8b8;"/>
    <path clip-path="url(#pe7d67f8876)" d="M 173.475957 250.834121 
L 178.315352 248.552113 
L 173.475957 243.988098 
L 168.313936 248.552113 
z
" style="fill:#b8b8b8;"/>
    <path clip-path="url(#pe7d67f8876)" d="M 190.029665 245.576253 
L 198.30652 245.322913 
L 201.36749 243.185578 
L 206.583374 239.543567 
L 210.22303 237.819043 
L 214.860228 235.335281 
L 217.624035 232.452508 
L 214.860228 228.032257 
L 207.562919 227.085973 
L 206.583374 226.999366 
L 206.436442 227.085973 
L 201.710288 232.452508 
L 198.30652 233.433366 
L 190.029665 236.024066 
L 188.006598 237.819043 
L 184.073487 243.185578 
z
" style="fill:#b8b8b8;"/>
    <path clip-path="url(#pe7d67f8876)" d="M 223.137082 228.444689 
L 224.441864 227.085973 
L 223.137082 222.60221 
L 216.850403 227.085973 
z
" style="fill:#b8b8b8;"/>
    <path clip-path="url(#pe7d67f8876)" d="M 247.967644 147.202391 
L 248.725776 146.587945 
L 247.967644 146.314859 
L 247.426122 146.587945 
z
" style="fill:#b8b8b8;"/>
   </g>
   <g id="PathCollection_6">
    <path clip-path="url(#pe7d67f8876)" d="M 70.34892 291.484395 
L 71.109877 286.117859 
L 74.153708 284.59974 
L 82.430562 283.835852 
L 90.707416 282.616185 
L 93.458555 280.751324 
L 98.98427 277.581964 
L 107.261125 275.542116 
L 107.594763 275.384789 
L 115.537979 272.96116 
L 123.254058 270.018254 
L 123.814833 269.748925 
L 132.091687 267.361811 
L 140.368541 265.540846 
L 142.143175 264.651719 
L 148.645395 262.814019 
L 156.922249 260.36898 
L 159.879606 259.285184 
L 165.199103 257.24711 
L 173.475957 256.431967 
L 180.453322 253.918648 
L 181.752811 252.51438 
L 190.029665 251.527974 
L 198.30652 250.884314 
L 206.399709 248.552113 
L 206.583374 248.446261 
L 214.860228 247.110727 
L 221.490571 243.185578 
L 223.137082 242.118016 
L 229.062069 237.819043 
L 231.413936 236.413743 
L 237.292838 232.452508 
L 239.69079 230.22539 
L 245.469892 227.085973 
L 247.967644 223.948212 
L 251.2029 221.719438 
L 256.244498 217.444768 
L 258.433691 216.352902 
L 264.521352 213.885959 
L 272.798206 212.942446 
L 281.075061 213.428129 
L 284.327472 210.986367 
L 283.3667 205.619832 
L 281.075061 202.053792 
L 280.551113 200.253297 
L 281.075061 196.652306 
L 281.926002 194.886762 
L 281.075061 191.944188 
L 280.514286 189.520227 
L 277.474618 184.153692 
L 272.798206 181.026853 
L 268.704216 178.787156 
L 264.521352 174.719037 
L 261.748579 173.420621 
L 256.244498 168.265792 
L 256.104563 168.054086 
L 253.345612 162.687551 
L 247.967644 160.072332 
L 239.69079 157.391584 
L 238.711245 157.321016 
L 231.413936 155.546734 
L 225.940954 157.321016 
L 223.137082 158.048204 
L 215.981777 162.687551 
L 214.860228 163.899532 
L 211.015664 168.054086 
L 206.583374 171.2472 
L 202.273548 173.420621 
L 199.69498 178.787156 
L 198.30652 179.912466 
L 190.029665 181.037776 
L 186.185102 184.153692 
L 181.752811 186.06956 
L 177.320521 184.153692 
L 173.475957 180.592645 
L 169.9809 184.153692 
L 165.199103 187.564148 
L 156.922249 187.500636 
L 153.584929 189.520227 
L 156.922249 191.539817 
L 165.199103 192.780359 
L 173.475957 191.679539 
L 181.752811 192.970894 
L 185.782167 194.886762 
L 181.752811 197.281597 
L 174.877894 200.253297 
L 173.475957 203.889239 
L 172.80868 205.619832 
L 173.475957 205.965951 
L 178.814175 205.619832 
L 181.752811 205.347639 
L 182.046675 205.619832 
L 181.752811 206.254948 
L 179.928484 210.986367 
L 173.475957 213.628692 
L 166.823465 216.352902 
L 165.199103 217.142804 
L 156.922249 221.488692 
L 148.645395 220.568803 
L 146.32472 221.719438 
L 146.943511 227.085973 
L 140.368541 228.63618 
L 132.275352 232.452508 
L 132.091687 232.928845 
L 123.814833 233.738576 
L 115.537979 237.434467 
L 107.261125 237.530611 
L 106.775832 237.819043 
L 106.193481 243.185578 
L 98.98427 244.743677 
L 92.690931 248.552113 
L 90.707416 249.30232 
L 82.430562 252.76492 
L 74.153708 250.467982 
L 70.162213 253.918648 
L 68.970958 259.285184 
L 65.876854 261.291334 
L 65.876854 264.651719 
L 65.876854 270.018254 
L 65.876854 275.384789 
L 65.876854 280.751324 
L 65.876854 286.117859 
L 65.876854 291.484395 
L 65.876854 294.577292 
z
M 105.761713 248.552113 
L 107.261125 244.339307 
L 108.189331 248.552113 
L 107.261125 249.126587 
z
M 168.313936 248.552113 
L 173.475957 243.988098 
L 178.315352 248.552113 
L 173.475957 250.834121 
z
M 184.073487 243.185578 
L 188.006598 237.819043 
L 190.029665 236.024066 
L 198.30652 233.433366 
L 201.710288 232.452508 
L 206.436442 227.085973 
L 206.583374 226.999366 
L 207.562919 227.085973 
L 214.860228 228.032257 
L 217.624035 232.452508 
L 214.860228 235.335281 
L 210.22303 237.819043 
L 206.583374 239.543567 
L 201.36749 243.185578 
L 198.30652 245.322913 
L 190.029665 245.576253 
z
M 216.850403 227.085973 
L 223.137082 222.60221 
L 224.441864 227.085973 
L 223.137082 228.444689 
z
" style="fill:#a0a0a0;"/>
    <path clip-path="url(#pe7d67f8876)" d="M 107.261125 217.614005 
L 108.23363 216.352902 
L 107.261125 215.617259 
L 106.213811 216.352902 
z
" style="fill:#a0a0a0;"/>
   </g>
   <g id="PathCollection_7">
    <path clip-path="url(#pe7d67f8876)" d="M 67.214498 307.584 
L 70.419331 307.584 
L 73.624164 307.584 
L 76.828997 307.584 
L 80.033829 307.584 
L 83.238662 307.584 
L 86.443495 307.584 
L 89.648328 307.584 
L 92.853161 307.584 
L 96.057993 307.584 
L 99.262826 307.584 
L 102.467659 307.584 
L 105.672492 307.584 
L 108.877324 307.584 
L 112.082157 307.584 
L 115.28699 307.584 
L 118.491823 307.584 
L 121.696656 307.584 
L 124.901488 307.584 
L 128.106321 307.584 
L 128.446984 307.584 
L 129.622506 306.869346 
L 130.493917 306.154692 
L 130.902179 305.440039 
L 130.855593 304.725385 
L 130.549353 304.010731 
L 129.860407 303.296077 
L 128.869891 302.581424 
L 128.106321 302.137664 
L 127.554436 301.86677 
L 125.841548 301.152116 
L 124.901488 300.859771 
L 123.742288 300.437462 
L 121.696656 299.753035 
L 121.604798 299.722808 
L 119.395632 299.008155 
L 118.491823 298.74772 
L 116.798554 298.293501 
L 115.28699 297.943432 
L 113.648699 297.578847 
L 112.082157 297.206096 
L 110.62036 296.864193 
L 108.877324 296.407754 
L 107.814657 296.149539 
L 105.672492 295.670032 
L 104.249995 295.434886 
L 102.467659 295.143588 
L 100.239359 294.720232 
L 99.262826 294.514384 
L 96.057993 294.08014 
L 95.443239 294.005578 
L 92.853161 293.715736 
L 89.648328 293.420137 
L 87.449387 293.290924 
L 86.443495 293.234667 
L 83.238662 293.151241 
L 80.033829 293.157531 
L 76.828997 293.256189 
L 76.051607 293.290924 
L 73.624164 293.404536 
L 70.419331 293.659951 
L 70.013155 294.005578 
L 69.275449 294.720232 
L 68.50323 295.434886 
L 67.79069 296.149539 
L 67.214498 296.806177 
L 67.201852 296.864193 
L 67.027668 297.578847 
L 66.851609 298.293501 
L 66.706997 299.008155 
L 66.582429 299.722808 
L 66.465308 300.437462 
L 66.359847 301.152116 
L 66.283271 301.86677 
L 66.219318 302.581424 
L 66.168363 303.296077 
L 66.132922 304.010731 
L 66.117168 304.725385 
L 66.114771 305.440039 
L 66.135773 306.154692 
L 66.180601 306.869346 
L 66.241073 307.584 
z
" style="fill:#4d94ff;fill-opacity:0.2;"/>
   </g>
   <g id="PathCollection_8">
    <path clip-path="url(#pe7d67f8876)" d="M 72.868877 307.584 
L 75.922652 307.584 
L 78.976428 307.584 
L 82.030203 307.584 
L 85.083979 307.584 
L 88.137754 307.584 
L 91.191529 307.584 
L 94.245305 307.584 
L 97.29908 307.584 
L 100.352855 307.584 
L 103.406631 307.584 
L 106.460406 307.584 
L 109.514182 307.584 
L 112.567957 307.584 
L 115.621732 307.584 
L 118.675508 307.584 
L 121.729283 307.584 
L 124.783059 307.584 
L 127.836834 307.584 
L 130.890609 307.584 
L 133.944385 307.584 
L 136.99816 307.584 
L 140.051936 307.584 
L 143.105711 307.584 
L 146.159486 307.584 
L 149.213262 307.584 
L 152.267037 307.584 
L 155.320813 307.584 
L 156.857978 307.584 
L 158.374588 306.945462 
L 160.363327 306.136359 
L 161.428363 305.707837 
L 163.623974 304.688718 
L 164.482139 304.236527 
L 166.263088 303.241076 
L 167.535914 302.488397 
L 168.694557 301.793435 
L 170.589689 300.584771 
L 170.937048 300.345794 
L 172.386028 298.898153 
L 173.643465 297.944779 
L 174.182119 297.450512 
L 175.848373 296.00287 
L 176.69724 295.100743 
L 177.210764 294.555229 
L 178.383835 293.107588 
L 179.420831 291.659947 
L 179.751016 290.753577 
L 179.927601 290.212306 
L 180.22891 288.764665 
L 180.22891 287.317023 
L 179.751016 285.936324 
L 179.725126 285.869382 
L 179.177378 284.421741 
L 178.3112 282.9741 
L 177.40341 281.526459 
L 176.69724 280.434394 
L 176.469281 280.078817 
L 175.46258 278.631176 
L 174.109532 277.183535 
L 173.643465 276.757029 
L 172.292899 275.735894 
L 170.589689 274.685893 
L 169.891298 274.288253 
L 167.535914 273.035739 
L 167.162104 272.840611 
L 164.482139 271.405892 
L 164.456494 271.39297 
L 161.428363 270.385369 
L 159.878037 269.945329 
L 158.374588 269.463324 
L 155.432316 268.497688 
L 155.320813 268.47239 
L 152.267037 267.889562 
L 149.213262 267.358683 
L 147.390878 267.050047 
L 146.159486 266.847477 
L 143.105711 266.354458 
L 140.051936 265.937595 
L 137.703943 265.602406 
L 136.99816 265.512432 
L 133.944385 265.173691 
L 130.890609 264.863317 
L 127.836834 264.543485 
L 124.783059 264.172685 
L 124.571451 264.154764 
L 121.729283 263.902581 
L 118.675508 263.506523 
L 115.621732 263.256246 
L 112.567957 263.107755 
L 109.514182 263.008925 
L 106.460406 263.008925 
L 103.406631 263.171245 
L 100.352855 263.360004 
L 97.29908 263.618626 
L 94.245305 263.958061 
L 92.785078 264.154764 
L 91.191529 264.361589 
L 88.137754 264.92516 
L 85.083979 265.429699 
L 84.220093 265.602406 
L 82.030203 266.09984 
L 78.976428 266.932194 
L 78.547862 267.050047 
L 75.922652 267.807359 
L 73.492434 268.497688 
L 72.868877 268.756237 
L 70.520423 269.945329 
L 69.815102 270.267911 
L 69.341752 271.39297 
L 68.955613 272.840611 
L 68.572367 274.288253 
L 68.225231 275.735894 
L 67.947333 277.183535 
L 67.714507 278.631176 
L 67.541279 280.078817 
L 67.383697 281.526459 
L 67.231548 282.9741 
L 67.086373 284.421741 
L 66.994569 285.869382 
L 66.90172 287.317023 
L 66.90172 288.764665 
L 66.957524 290.212306 
L 67.04557 291.659947 
L 67.219374 293.107588 
L 67.415985 294.555229 
L 67.648122 296.00287 
L 67.934842 297.450512 
L 68.211599 298.898153 
L 68.423705 300.345794 
L 68.739977 301.793435 
L 69.083948 303.241076 
L 69.457771 304.688718 
L 69.815102 305.873448 
L 70.220624 306.136359 
L 72.457761 307.584 
z
" style="fill:#ff8533;fill-opacity:0.2;"/>
   </g>
   <g id="PathCollection_9">
    <path clip-path="url(#pe7d67f8876)" d="M 63.245493 307.584 
L 66.068239 307.584 
L 68.890986 307.584 
L 71.713732 307.584 
L 74.536479 307.584 
L 77.359225 307.584 
L 80.181972 307.584 
L 83.004718 307.584 
L 85.827464 307.584 
L 88.650211 307.584 
L 91.472957 307.584 
L 94.295704 307.584 
L 97.11845 307.584 
L 99.941197 307.584 
L 102.763943 307.584 
L 105.58669 307.584 
L 108.409436 307.584 
L 111.232182 307.584 
L 114.054929 307.584 
L 116.877675 307.584 
L 119.700422 307.584 
L 122.523168 307.584 
L 125.345915 307.584 
L 128.168661 307.584 
L 130.991408 307.584 
L 133.814154 307.584 
L 136.6369 307.584 
L 139.459647 307.584 
L 142.282393 307.584 
L 145.10514 307.584 
L 147.927886 307.584 
L 150.750633 307.584 
L 153.573379 307.584 
L 156.396126 307.584 
L 159.218872 307.584 
L 162.041619 307.584 
L 164.864365 307.584 
L 165.840634 307.584 
L 166.699574 306.785328 
L 166.849691 305.986656 
L 166.353754 305.187984 
L 165.527599 304.389312 
L 164.864365 304.030811 
L 163.920018 303.590639 
L 162.041619 303.068435 
L 161.093244 302.791967 
L 159.218872 302.240201 
L 158.382041 301.993295 
L 156.396126 301.518625 
L 154.839534 301.194623 
L 153.573379 300.964085 
L 150.750633 300.537688 
L 149.455432 300.395951 
L 147.927886 300.24139 
L 145.10514 299.874287 
L 142.475936 299.597279 
L 142.282393 299.575861 
L 139.459647 299.329238 
L 136.6369 299.074766 
L 133.814154 298.860543 
L 132.951712 298.798607 
L 130.991408 298.644999 
L 128.168661 298.430948 
L 125.345915 298.207564 
L 122.962564 297.999935 
L 122.523168 297.96924 
L 119.700422 297.793378 
L 116.877675 297.632778 
L 114.054929 297.462119 
L 111.232182 297.301185 
L 109.498916 297.201263 
L 108.409436 297.12916 
L 105.58669 296.957558 
L 102.763943 296.837311 
L 99.941197 296.671596 
L 97.11845 296.543293 
L 94.295704 296.438124 
L 93.315377 296.402591 
L 91.472957 296.321884 
L 88.650211 296.189004 
L 85.827464 296.117351 
L 83.004718 296.077966 
L 80.181972 296.036407 
L 77.359225 296.036407 
L 74.536479 296.084186 
L 71.713732 296.174155 
L 68.890986 296.3086 
L 67.280836 296.402591 
L 66.068239 296.461388 
L 65.344384 297.201263 
L 64.574824 297.999935 
L 64.038787 298.798607 
L 63.522016 299.597279 
L 63.245493 300.040702 
L 63.157199 300.395951 
L 62.98622 301.194623 
L 62.848006 301.993295 
L 62.741879 302.791967 
L 62.639263 303.590639 
L 62.579751 304.389312 
L 62.546974 305.187984 
L 62.527298 305.986656 
L 62.533254 306.785328 
L 62.567331 307.584 
z
" style="fill:#00b300;fill-opacity:0.2;"/>
   </g>
   <g id="PathCollection_10">
    <path clip-path="url(#pe7d67f8876)" d="M 72.877623 307.584 
L 80.516434 307.584 
L 88.155246 307.584 
L 95.794057 307.584 
L 103.432868 307.584 
L 111.07168 307.584 
L 118.710491 307.584 
L 126.349302 307.584 
L 133.988114 307.584 
L 141.626925 307.584 
L 149.265737 307.584 
L 156.904548 307.584 
L 164.543359 307.584 
L 172.182171 307.584 
L 179.820982 307.584 
L 187.459793 307.584 
L 195.098605 307.584 
L 202.737416 307.584 
L 210.376228 307.584 
L 218.015039 307.584 
L 225.65385 307.584 
L 233.292662 307.584 
L 240.931473 307.584 
L 248.570284 307.584 
L 256.209096 307.584 
L 263.847907 307.584 
L 271.486719 307.584 
L 279.12553 307.584 
L 286.764341 307.584 
L 294.403153 307.584 
L 302.041964 307.584 
L 309.680775 307.584 
L 317.319587 307.584 
L 324.958398 307.584 
L 332.59721 307.584 
L 340.236021 307.584 
L 347.874832 307.584 
L 355.513644 307.584 
L 363.152455 307.584 
L 370.791266 307.584 
L 378.430078 307.584 
L 386.068889 307.584 
L 393.707701 307.584 
L 401.346512 307.584 
L 408.985323 307.584 
L 416.624135 307.584 
L 424.262946 307.584 
L 431.901757 307.584 
L 431.901757 306.663646 
L 431.901757 305.743292 
L 431.901757 304.822939 
L 431.901757 303.902585 
L 431.901757 302.982231 
L 431.901757 302.061877 
L 431.901757 301.141523 
L 431.901757 300.22117 
L 431.901757 299.496139 
L 424.262946 299.496139 
L 416.624135 299.496139 
L 408.985323 299.496139 
L 401.346512 299.496139 
L 393.707701 299.496139 
L 386.068889 299.496139 
L 378.430078 299.496139 
L 370.791266 299.496139 
L 363.152455 299.496139 
L 355.513644 299.496139 
L 347.874832 299.496139 
L 340.236021 299.496139 
L 332.59721 299.496139 
L 324.958398 299.496139 
L 317.319587 299.496139 
L 309.680775 299.496139 
L 302.041964 299.496139 
L 294.403153 299.496139 
L 286.764341 299.496139 
L 279.12553 299.496139 
L 271.486719 299.496139 
L 263.847907 299.496139 
L 256.209096 299.496139 
L 248.570284 299.496139 
L 240.931473 299.496139 
L 233.292662 299.496139 
L 225.65385 299.496139 
L 218.015039 299.496139 
L 210.376228 299.496139 
L 202.737416 299.496139 
L 195.098605 299.496139 
L 193.354799 299.300816 
L 187.459793 298.680767 
L 185.019139 298.380462 
L 179.820982 297.861567 
L 175.022375 297.460108 
L 172.182171 297.199321 
L 164.543359 296.692098 
L 161.302032 296.539754 
L 156.904548 296.309426 
L 149.265737 296.08842 
L 141.626925 295.980507 
L 133.988114 295.957739 
L 126.349302 296.042657 
L 118.710491 296.246669 
L 111.07168 296.474556 
L 109.071462 296.539754 
L 103.432868 296.702323 
L 95.794057 296.997197 
L 88.155246 297.376243 
L 86.379366 297.460108 
L 80.516434 297.703713 
L 72.877623 297.970176 
L 72.450094 298.380462 
L 71.703919 299.300816 
L 71.060863 300.22117 
L 70.389587 301.141523 
L 69.960844 302.061877 
L 69.609916 302.982231 
L 69.297774 303.902585 
L 69.108481 304.822939 
L 69.025115 305.743292 
L 69.023924 306.663646 
L 69.096835 307.584 
z
" style="fill:#ffff33;fill-opacity:0.2;"/>
   </g>
   <g id="matplotlib.axis_1">
    <g id="xtick_1">
     <g id="line2d_1">
      <defs>
       <path d="M 0 0 
L 0 3.5 
" id="me08c986e88" style="stroke:#000000;stroke-width:0.8;"/>
      </defs>
      <g>
       <use style="stroke:#000000;stroke-width:0.8;" x="57.6" xlink:href="#me08c986e88" y="307.584"/>
      </g>
     </g>
     <g id="text_1">
      <!-- 0.00 -->
      <defs>
       <path d="M 31.78125 66.40625 
Q 24.171875 66.40625 20.328125 58.90625 
Q 16.5 51.421875 16.5 36.375 
Q 16.5 21.390625 20.328125 13.890625 
Q 24.171875 6.390625 31.78125 6.390625 
Q 39.453125 6.390625 43.28125 13.890625 
Q 47.125 21.390625 47.125 36.375 
Q 47.125 51.421875 43.28125 58.90625 
Q 39.453125 66.40625 31.78125 66.40625 
z
M 31.78125 74.21875 
Q 44.046875 74.21875 50.515625 64.515625 
Q 56.984375 54.828125 56.984375 36.375 
Q 56.984375 17.96875 50.515625 8.265625 
Q 44.046875 -1.421875 31.78125 -1.421875 
Q 19.53125 -1.421875 13.0625 8.265625 
Q 6.59375 17.96875 6.59375 36.375 
Q 6.59375 54.828125 13.0625 64.515625 
Q 19.53125 74.21875 31.78125 74.21875 
z
" id="DejaVuSans-48"/>
       <path d="M 10.6875 12.40625 
L 21 12.40625 
L 21 0 
L 10.6875 0 
z
" id="DejaVuSans-46"/>
      </defs>
      <g transform="translate(37.560938 328.261187)scale(0.18 -0.18)">
       <use xlink:href="#DejaVuSans-48"/>
       <use x="63.623047" xlink:href="#DejaVuSans-46"/>
       <use x="95.410156" xlink:href="#DejaVuSans-48"/>
       <use x="159.033203" xlink:href="#DejaVuSans-48"/>
      </g>
     </g>
    </g>
    <g id="xtick_2">
     <g id="line2d_2">
      <g>
       <use style="stroke:#000000;stroke-width:0.8;" x="93.312" xlink:href="#me08c986e88" y="307.584"/>
      </g>
     </g>
     <g id="text_2">
      <!-- 0.25 -->
      <defs>
       <path d="M 19.1875 8.296875 
L 53.609375 8.296875 
L 53.609375 0 
L 7.328125 0 
L 7.328125 8.296875 
Q 12.9375 14.109375 22.625 23.890625 
Q 32.328125 33.6875 34.8125 36.53125 
Q 39.546875 41.84375 41.421875 45.53125 
Q 43.3125 49.21875 43.3125 52.78125 
Q 43.3125 58.59375 39.234375 62.25 
Q 35.15625 65.921875 28.609375 65.921875 
Q 23.96875 65.921875 18.8125 64.3125 
Q 13.671875 62.703125 7.8125 59.421875 
L 7.8125 69.390625 
Q 13.765625 71.78125 18.9375 73 
Q 24.125 74.21875 28.421875 74.21875 
Q 39.75 74.21875 46.484375 68.546875 
Q 53.21875 62.890625 53.21875 53.421875 
Q 53.21875 48.921875 51.53125 44.890625 
Q 49.859375 40.875 45.40625 35.40625 
Q 44.1875 33.984375 37.640625 27.21875 
Q 31.109375 20.453125 19.1875 8.296875 
z
" id="DejaVuSans-50"/>
       <path d="M 10.796875 72.90625 
L 49.515625 72.90625 
L 49.515625 64.59375 
L 19.828125 64.59375 
L 19.828125 46.734375 
Q 21.96875 47.46875 24.109375 47.828125 
Q 26.265625 48.1875 28.421875 48.1875 
Q 40.625 48.1875 47.75 41.5 
Q 54.890625 34.8125 54.890625 23.390625 
Q 54.890625 11.625 47.5625 5.09375 
Q 40.234375 -1.421875 26.90625 -1.421875 
Q 22.3125 -1.421875 17.546875 -0.640625 
Q 12.796875 0.140625 7.71875 1.703125 
L 7.71875 11.625 
Q 12.109375 9.234375 16.796875 8.0625 
Q 21.484375 6.890625 26.703125 6.890625 
Q 35.15625 6.890625 40.078125 11.328125 
Q 45.015625 15.765625 45.015625 23.390625 
Q 45.015625 31 40.078125 35.4375 
Q 35.15625 39.890625 26.703125 39.890625 
Q 22.75 39.890625 18.8125 39.015625 
Q 14.890625 38.140625 10.796875 36.28125 
z
" id="DejaVuSans-53"/>
      </defs>
      <g transform="translate(73.272938 328.261187)scale(0.18 -0.18)">
       <use xlink:href="#DejaVuSans-48"/>
       <use x="63.623047" xlink:href="#DejaVuSans-46"/>
       <use x="95.410156" xlink:href="#DejaVuSans-50"/>
       <use x="159.033203" xlink:href="#DejaVuSans-53"/>
      </g>
     </g>
    </g>
    <g id="xtick_3">
     <g id="line2d_3">
      <g>
       <use style="stroke:#000000;stroke-width:0.8;" x="129.024" xlink:href="#me08c986e88" y="307.584"/>
      </g>
     </g>
     <g id="text_3">
      <!-- 0.50 -->
      <g transform="translate(108.984938 328.261187)scale(0.18 -0.18)">
       <use xlink:href="#DejaVuSans-48"/>
       <use x="63.623047" xlink:href="#DejaVuSans-46"/>
       <use x="95.410156" xlink:href="#DejaVuSans-53"/>
       <use x="159.033203" xlink:href="#DejaVuSans-48"/>
      </g>
     </g>
    </g>
    <g id="xtick_4">
     <g id="line2d_4">
      <g>
       <use style="stroke:#000000;stroke-width:0.8;" x="164.736" xlink:href="#me08c986e88" y="307.584"/>
      </g>
     </g>
     <g id="text_4">
      <!-- 0.75 -->
      <defs>
       <path d="M 8.203125 72.90625 
L 55.078125 72.90625 
L 55.078125 68.703125 
L 28.609375 0 
L 18.3125 0 
L 43.21875 64.59375 
L 8.203125 64.59375 
z
" id="DejaVuSans-55"/>
      </defs>
      <g transform="translate(144.696938 328.261187)scale(0.18 -0.18)">
       <use xlink:href="#DejaVuSans-48"/>
       <use x="63.623047" xlink:href="#DejaVuSans-46"/>
       <use x="95.410156" xlink:href="#DejaVuSans-55"/>
       <use x="159.033203" xlink:href="#DejaVuSans-53"/>
      </g>
     </g>
    </g>
    <g id="xtick_5">
     <g id="line2d_5">
      <g>
       <use style="stroke:#000000;stroke-width:0.8;" x="200.448" xlink:href="#me08c986e88" y="307.584"/>
      </g>
     </g>
     <g id="text_5">
      <!-- 1.00 -->
      <defs>
       <path d="M 12.40625 8.296875 
L 28.515625 8.296875 
L 28.515625 63.921875 
L 10.984375 60.40625 
L 10.984375 69.390625 
L 28.421875 72.90625 
L 38.28125 72.90625 
L 38.28125 8.296875 
L 54.390625 8.296875 
L 54.390625 0 
L 12.40625 0 
z
" id="DejaVuSans-49"/>
      </defs>
      <g transform="translate(180.408938 328.261187)scale(0.18 -0.18)">
       <use xlink:href="#DejaVuSans-49"/>
       <use x="63.623047" xlink:href="#DejaVuSans-46"/>
       <use x="95.410156" xlink:href="#DejaVuSans-48"/>
       <use x="159.033203" xlink:href="#DejaVuSans-48"/>
      </g>
     </g>
    </g>
    <g id="xtick_6">
     <g id="line2d_6">
      <g>
       <use style="stroke:#000000;stroke-width:0.8;" x="236.16" xlink:href="#me08c986e88" y="307.584"/>
      </g>
     </g>
     <g id="text_6">
      <!-- 1.25 -->
      <g transform="translate(216.120937 328.261187)scale(0.18 -0.18)">
       <use xlink:href="#DejaVuSans-49"/>
       <use x="63.623047" xlink:href="#DejaVuSans-46"/>
       <use x="95.410156" xlink:href="#DejaVuSans-50"/>
       <use x="159.033203" xlink:href="#DejaVuSans-53"/>
      </g>
     </g>
    </g>
    <g id="xtick_7">
     <g id="line2d_7">
      <g>
       <use style="stroke:#000000;stroke-width:0.8;" x="271.872" xlink:href="#me08c986e88" y="307.584"/>
      </g>
     </g>
     <g id="text_7">
      <!-- 1.50 -->
      <g transform="translate(251.832938 328.261187)scale(0.18 -0.18)">
       <use xlink:href="#DejaVuSans-49"/>
       <use x="63.623047" xlink:href="#DejaVuSans-46"/>
       <use x="95.410156" xlink:href="#DejaVuSans-53"/>
       <use x="159.033203" xlink:href="#DejaVuSans-48"/>
      </g>
     </g>
    </g>
    <g id="xtick_8">
     <g id="line2d_8">
      <g>
       <use style="stroke:#000000;stroke-width:0.8;" x="307.584" xlink:href="#me08c986e88" y="307.584"/>
      </g>
     </g>
     <g id="text_8">
      <!-- 1.75 -->
      <g transform="translate(287.544938 328.261187)scale(0.18 -0.18)">
       <use xlink:href="#DejaVuSans-49"/>
       <use x="63.623047" xlink:href="#DejaVuSans-46"/>
       <use x="95.410156" xlink:href="#DejaVuSans-55"/>
       <use x="159.033203" xlink:href="#DejaVuSans-53"/>
      </g>
     </g>
    </g>
    <g id="xtick_9">
     <g id="line2d_9">
      <g>
       <use style="stroke:#000000;stroke-width:0.8;" x="343.296" xlink:href="#me08c986e88" y="307.584"/>
      </g>
     </g>
     <g id="text_9">
      <!-- 2.00 -->
      <g transform="translate(323.256938 328.261187)scale(0.18 -0.18)">
       <use xlink:href="#DejaVuSans-50"/>
       <use x="63.623047" xlink:href="#DejaVuSans-46"/>
       <use x="95.410156" xlink:href="#DejaVuSans-48"/>
       <use x="159.033203" xlink:href="#DejaVuSans-48"/>
      </g>
     </g>
    </g>
   </g>
   <g id="matplotlib.axis_2">
    <g id="ytick_1">
     <g id="line2d_10">
      <defs>
       <path d="M 0 0 
L -3.5 0 
" id="m7f0d961ade" style="stroke:#000000;stroke-width:0.8;"/>
      </defs>
      <g>
       <use style="stroke:#000000;stroke-width:0.8;" x="57.6" xlink:href="#m7f0d961ade" y="307.584"/>
      </g>
     </g>
     <g id="text_10">
      <!-- 0 -->
      <g transform="translate(39.1475 314.422594)scale(0.18 -0.18)">
       <use xlink:href="#DejaVuSans-48"/>
      </g>
     </g>
    </g>
    <g id="ytick_2">
     <g id="line2d_11">
      <g>
       <use style="stroke:#000000;stroke-width:0.8;" x="57.6" xlink:href="#m7f0d961ade" y="261.008545"/>
      </g>
     </g>
     <g id="text_11">
      <!-- 1 -->
      <g transform="translate(39.1475 267.847139)scale(0.18 -0.18)">
       <use xlink:href="#DejaVuSans-49"/>
      </g>
     </g>
    </g>
    <g id="ytick_3">
     <g id="line2d_12">
      <g>
       <use style="stroke:#000000;stroke-width:0.8;" x="57.6" xlink:href="#m7f0d961ade" y="214.43309"/>
      </g>
     </g>
     <g id="text_12">
      <!-- 2 -->
      <g transform="translate(39.1475 221.271683)scale(0.18 -0.18)">
       <use xlink:href="#DejaVuSans-50"/>
      </g>
     </g>
    </g>
    <g id="ytick_4">
     <g id="line2d_13">
      <g>
       <use style="stroke:#000000;stroke-width:0.8;" x="57.6" xlink:href="#m7f0d961ade" y="167.857635"/>
      </g>
     </g>
     <g id="text_13">
      <!-- 3 -->
      <defs>
       <path d="M 40.578125 39.3125 
Q 47.65625 37.796875 51.625 33 
Q 55.609375 28.21875 55.609375 21.1875 
Q 55.609375 10.40625 48.1875 4.484375 
Q 40.765625 -1.421875 27.09375 -1.421875 
Q 22.515625 -1.421875 17.65625 -0.515625 
Q 12.796875 0.390625 7.625 2.203125 
L 7.625 11.71875 
Q 11.71875 9.328125 16.59375 8.109375 
Q 21.484375 6.890625 26.8125 6.890625 
Q 36.078125 6.890625 40.9375 10.546875 
Q 45.796875 14.203125 45.796875 21.1875 
Q 45.796875 27.640625 41.28125 31.265625 
Q 36.765625 34.90625 28.71875 34.90625 
L 20.21875 34.90625 
L 20.21875 43.015625 
L 29.109375 43.015625 
Q 36.375 43.015625 40.234375 45.921875 
Q 44.09375 48.828125 44.09375 54.296875 
Q 44.09375 59.90625 40.109375 62.90625 
Q 36.140625 65.921875 28.71875 65.921875 
Q 24.65625 65.921875 20.015625 65.03125 
Q 15.375 64.15625 9.8125 62.3125 
L 9.8125 71.09375 
Q 15.4375 72.65625 20.34375 73.4375 
Q 25.25 74.21875 29.59375 74.21875 
Q 40.828125 74.21875 47.359375 69.109375 
Q 53.90625 64.015625 53.90625 55.328125 
Q 53.90625 49.265625 50.4375 45.09375 
Q 46.96875 40.921875 40.578125 39.3125 
z
" id="DejaVuSans-51"/>
      </defs>
      <g transform="translate(39.1475 174.696228)scale(0.18 -0.18)">
       <use xlink:href="#DejaVuSans-51"/>
      </g>
     </g>
    </g>
    <g id="ytick_5">
     <g id="line2d_14">
      <g>
       <use style="stroke:#000000;stroke-width:0.8;" x="57.6" xlink:href="#m7f0d961ade" y="121.282179"/>
      </g>
     </g>
     <g id="text_14">
      <!-- 4 -->
      <defs>
       <path d="M 37.796875 64.3125 
L 12.890625 25.390625 
L 37.796875 25.390625 
z
M 35.203125 72.90625 
L 47.609375 72.90625 
L 47.609375 25.390625 
L 58.015625 25.390625 
L 58.015625 17.1875 
L 47.609375 17.1875 
L 47.609375 0 
L 37.796875 0 
L 37.796875 17.1875 
L 4.890625 17.1875 
L 4.890625 26.703125 
z
" id="DejaVuSans-52"/>
      </defs>
      <g transform="translate(39.1475 128.120773)scale(0.18 -0.18)">
       <use xlink:href="#DejaVuSans-52"/>
      </g>
     </g>
    </g>
    <g id="ytick_6">
     <g id="line2d_15">
      <g>
       <use style="stroke:#000000;stroke-width:0.8;" x="57.6" xlink:href="#m7f0d961ade" y="74.706724"/>
      </g>
     </g>
     <g id="text_15">
      <!-- 5 -->
      <g transform="translate(39.1475 81.545318)scale(0.18 -0.18)">
       <use xlink:href="#DejaVuSans-53"/>
      </g>
     </g>
    </g>
   </g>
   <g id="LineCollection_1">
    <path clip-path="url(#pe7d67f8876)" d="M 128.446984 307.584 
L 129.622506 306.869346 
L 130.493917 306.154692 
L 130.902179 305.440039 
L 130.855593 304.725385 
L 130.549353 304.010731 
L 129.860407 303.296077 
L 128.869891 302.581424 
L 128.106321 302.137664 
L 127.554436 301.86677 
L 125.841548 301.152116 
L 124.901488 300.859771 
L 123.742288 300.437462 
L 121.696656 299.753035 
L 121.604798 299.722808 
L 119.395632 299.008155 
L 118.491823 298.74772 
L 116.798554 298.293501 
L 115.28699 297.943432 
L 113.648699 297.578847 
L 112.082157 297.206096 
L 110.62036 296.864193 
L 108.877324 296.407754 
L 107.814657 296.149539 
L 105.672492 295.670032 
L 104.249995 295.434886 
L 102.467659 295.143588 
L 100.239359 294.720232 
L 99.262826 294.514384 
L 96.057993 294.08014 
L 95.443239 294.005578 
L 92.853161 293.715736 
L 89.648328 293.420137 
L 87.449387 293.290924 
L 86.443495 293.234667 
L 83.238662 293.151241 
L 80.033829 293.157531 
L 76.828997 293.256189 
L 76.051607 293.290924 
L 73.624164 293.404536 
L 70.419331 293.659951 
L 70.013155 294.005578 
L 69.275449 294.720232 
L 68.50323 295.434886 
L 67.79069 296.149539 
L 67.214498 296.806177 
L 67.201852 296.864193 
L 67.027668 297.578847 
L 66.851609 298.293501 
L 66.706997 299.008155 
L 66.582429 299.722808 
L 66.465308 300.437462 
L 66.359847 301.152116 
L 66.283271 301.86677 
L 66.219318 302.581424 
L 66.168363 303.296077 
L 66.132922 304.010731 
L 66.117168 304.725385 
L 66.114771 305.440039 
L 66.135773 306.154692 
L 66.180601 306.869346 
L 66.241073 307.584 
" style="fill:none;stroke:#4d94ff;stroke-width:1.5;"/>
   </g>
   <g id="LineCollection_2">
    <path clip-path="url(#pe7d67f8876)" d="M 156.857978 307.584 
L 158.374588 306.945462 
L 160.363327 306.136359 
L 161.428363 305.707837 
L 163.623974 304.688718 
L 164.482139 304.236527 
L 166.263088 303.241076 
L 167.535914 302.488397 
L 168.694557 301.793435 
L 170.589689 300.584771 
L 170.937048 300.345794 
L 172.386028 298.898153 
L 173.643465 297.944779 
L 174.182119 297.450512 
L 175.848373 296.00287 
L 176.69724 295.100743 
L 177.210764 294.555229 
L 178.383835 293.107588 
L 179.420831 291.659947 
L 179.751016 290.753577 
L 179.927601 290.212306 
L 180.22891 288.764665 
L 180.22891 287.317023 
L 179.751016 285.936324 
L 179.725126 285.869382 
L 179.177378 284.421741 
L 178.3112 282.9741 
L 177.40341 281.526459 
L 176.69724 280.434394 
L 176.469281 280.078817 
L 175.46258 278.631176 
L 174.109532 277.183535 
L 173.643465 276.757029 
L 172.292899 275.735894 
L 170.589689 274.685893 
L 169.891298 274.288253 
L 167.535914 273.035739 
L 167.162104 272.840611 
L 164.482139 271.405892 
L 164.456494 271.39297 
L 161.428363 270.385369 
L 159.878037 269.945329 
L 158.374588 269.463324 
L 155.432316 268.497688 
L 155.320813 268.47239 
L 152.267037 267.889562 
L 149.213262 267.358683 
L 147.390878 267.050047 
L 146.159486 266.847477 
L 143.105711 266.354458 
L 140.051936 265.937595 
L 137.703943 265.602406 
L 136.99816 265.512432 
L 133.944385 265.173691 
L 130.890609 264.863317 
L 127.836834 264.543485 
L 124.783059 264.172685 
L 124.571451 264.154764 
L 121.729283 263.902581 
L 118.675508 263.506523 
L 115.621732 263.256246 
L 112.567957 263.107755 
L 109.514182 263.008925 
L 106.460406 263.008925 
L 103.406631 263.171245 
L 100.352855 263.360004 
L 97.29908 263.618626 
L 94.245305 263.958061 
L 92.785078 264.154764 
L 91.191529 264.361589 
L 88.137754 264.92516 
L 85.083979 265.429699 
L 84.220093 265.602406 
L 82.030203 266.09984 
L 78.976428 266.932194 
L 78.547862 267.050047 
L 75.922652 267.807359 
L 73.492434 268.497688 
L 72.868877 268.756237 
L 70.520423 269.945329 
L 69.815102 270.267911 
L 69.341752 271.39297 
L 68.955613 272.840611 
L 68.572367 274.288253 
L 68.225231 275.735894 
L 67.947333 277.183535 
L 67.714507 278.631176 
L 67.541279 280.078817 
L 67.383697 281.526459 
L 67.231548 282.9741 
L 67.086373 284.421741 
L 66.994569 285.869382 
L 66.90172 287.317023 
L 66.90172 288.764665 
L 66.957524 290.212306 
L 67.04557 291.659947 
L 67.219374 293.107588 
L 67.415985 294.555229 
L 67.648122 296.00287 
L 67.934842 297.450512 
L 68.211599 298.898153 
L 68.423705 300.345794 
L 68.739977 301.793435 
L 69.083948 303.241076 
L 69.457771 304.688718 
L 69.815102 305.873448 
L 70.220624 306.136359 
L 72.457761 307.584 
" style="fill:none;stroke:#ff8533;stroke-width:1.5;"/>
   </g>
   <g id="LineCollection_3">
    <path clip-path="url(#pe7d67f8876)" d="M 165.840634 307.584 
L 166.699574 306.785328 
L 166.849691 305.986656 
L 166.353754 305.187984 
L 165.527599 304.389312 
L 164.864365 304.030811 
L 163.920018 303.590639 
L 162.041619 303.068435 
L 161.093244 302.791967 
L 159.218872 302.240201 
L 158.382041 301.993295 
L 156.396126 301.518625 
L 154.839534 301.194623 
L 153.573379 300.964085 
L 150.750633 300.537688 
L 149.455432 300.395951 
L 147.927886 300.24139 
L 145.10514 299.874287 
L 142.475936 299.597279 
L 142.282393 299.575861 
L 139.459647 299.329238 
L 136.6369 299.074766 
L 133.814154 298.860543 
L 132.951712 298.798607 
L 130.991408 298.644999 
L 128.168661 298.430948 
L 125.345915 298.207564 
L 122.962564 297.999935 
L 122.523168 297.96924 
L 119.700422 297.793378 
L 116.877675 297.632778 
L 114.054929 297.462119 
L 111.232182 297.301185 
L 109.498916 297.201263 
L 108.409436 297.12916 
L 105.58669 296.957558 
L 102.763943 296.837311 
L 99.941197 296.671596 
L 97.11845 296.543293 
L 94.295704 296.438124 
L 93.315377 296.402591 
L 91.472957 296.321884 
L 88.650211 296.189004 
L 85.827464 296.117351 
L 83.004718 296.077966 
L 80.181972 296.036407 
L 77.359225 296.036407 
L 74.536479 296.084186 
L 71.713732 296.174155 
L 68.890986 296.3086 
L 67.280836 296.402591 
L 66.068239 296.461388 
L 65.344384 297.201263 
L 64.574824 297.999935 
L 64.038787 298.798607 
L 63.522016 299.597279 
L 63.245493 300.040702 
L 63.157199 300.395951 
L 62.98622 301.194623 
L 62.848006 301.993295 
L 62.741879 302.791967 
L 62.639263 303.590639 
L 62.579751 304.389312 
L 62.546974 305.187984 
L 62.527298 305.986656 
L 62.533254 306.785328 
L 62.567331 307.584 
" style="fill:none;stroke:#00b300;stroke-width:1.5;"/>
   </g>
   <g id="LineCollection_4">
    <path clip-path="url(#pe7d67f8876)" d="M 431.901757 299.496139 
L 424.262946 299.496139 
L 416.624135 299.496139 
L 408.985323 299.496139 
L 401.346512 299.496139 
L 393.707701 299.496139 
L 386.068889 299.496139 
L 378.430078 299.496139 
L 370.791266 299.496139 
L 363.152455 299.496139 
L 355.513644 299.496139 
L 347.874832 299.496139 
L 340.236021 299.496139 
L 332.59721 299.496139 
L 324.958398 299.496139 
L 317.319587 299.496139 
L 309.680775 299.496139 
L 302.041964 299.496139 
L 294.403153 299.496139 
L 286.764341 299.496139 
L 279.12553 299.496139 
L 271.486719 299.496139 
L 263.847907 299.496139 
L 256.209096 299.496139 
L 248.570284 299.496139 
L 240.931473 299.496139 
L 233.292662 299.496139 
L 225.65385 299.496139 
L 218.015039 299.496139 
L 210.376228 299.496139 
L 202.737416 299.496139 
L 195.098605 299.496139 
L 193.354799 299.300816 
L 187.459793 298.680767 
L 185.019139 298.380462 
L 179.820982 297.861567 
L 175.022375 297.460108 
L 172.182171 297.199321 
L 164.543359 296.692098 
L 161.302032 296.539754 
L 156.904548 296.309426 
L 149.265737 296.08842 
L 141.626925 295.980507 
L 133.988114 295.957739 
L 126.349302 296.042657 
L 118.710491 296.246669 
L 111.07168 296.474556 
L 109.071462 296.539754 
L 103.432868 296.702323 
L 95.794057 296.997197 
L 88.155246 297.376243 
L 86.379366 297.460108 
L 80.516434 297.703713 
L 72.877623 297.970176 
L 72.450094 298.380462 
L 71.703919 299.300816 
L 71.060863 300.22117 
L 70.389587 301.141523 
L 69.960844 302.061877 
L 69.609916 302.982231 
L 69.297774 303.902585 
L 69.108481 304.822939 
L 69.025115 305.743292 
L 69.023924 306.663646 
L 69.096835 307.584 
" style="fill:none;stroke:#ffff33;stroke-width:1.5;"/>
   </g>
   <g id="patch_3">
    <path d="M 57.6 307.584 
L 57.6 41.472 
" style="fill:none;stroke:#000000;stroke-linecap:square;stroke-linejoin:miter;stroke-width:0.8;"/>
   </g>
   <g id="patch_4">
    <path d="M 343.296 307.584 
L 343.296 41.472 
" style="fill:none;stroke:#000000;stroke-linecap:square;stroke-linejoin:miter;stroke-width:0.8;"/>
   </g>
   <g id="patch_5">
    <path d="M 57.6 307.584 
L 343.296 307.584 
" style="fill:none;stroke:#000000;stroke-linecap:square;stroke-linejoin:miter;stroke-width:0.8;"/>
   </g>
   <g id="patch_6">
    <path d="M 57.6 41.472 
L 343.296 41.472 
" style="fill:none;stroke:#000000;stroke-linecap:square;stroke-linejoin:miter;stroke-width:0.8;"/>
   </g>
  </g>
  <g id="axes_2">
   <g id="patch_7">
    <path clip-path="url(#p0094a89421)" d="M 367.2 307.584 
L 361.152 295.488 
L 361.152 53.568 
L 367.2 41.472 
L 367.2 41.472 
L 373.248 53.568 
L 373.248 295.488 
L 367.2 307.584 
z
" style="fill:#ffffff;stroke:#ffffff;stroke-linejoin:miter;stroke-width:0.01;"/>
   </g>
   <g id="QuadMesh_1">
    <path clip-path="url(#p0094a89421)" d="M 367.2 307.584 
L 367.2 307.584 
L 373.248 295.488 
L 361.152 295.488 
L 367.2 307.584 
" style="fill:#ffffff;"/>
    <path clip-path="url(#p0094a89421)" d="M 361.152 295.488 
L 373.248 295.488 
L 373.248 235.008 
L 361.152 235.008 
L 361.152 295.488 
" style="fill:#ffffff;"/>
    <path clip-path="url(#p0094a89421)" d="M 361.152 235.008 
L 373.248 235.008 
L 373.248 174.528 
L 361.152 174.528 
L 361.152 235.008 
" style="fill:#f0f0f0;"/>
    <path clip-path="url(#p0094a89421)" d="M 361.152 174.528 
L 373.248 174.528 
L 373.248 114.048 
L 361.152 114.048 
L 361.152 174.528 
" style="fill:#d3d3d3;"/>
    <path clip-path="url(#p0094a89421)" d="M 361.152 114.048 
L 373.248 114.048 
L 373.248 53.568 
L 361.152 53.568 
L 361.152 114.048 
" style="fill:#b8b8b8;"/>
    <path clip-path="url(#p0094a89421)" d="M 361.152 53.568 
L 373.248 53.568 
L 367.2 41.472 
L 367.2 41.472 
L 361.152 53.568 
" style="fill:#a0a0a0;"/>
   </g>
   <g id="matplotlib.axis_3"/>
   <g id="matplotlib.axis_4">
    <g id="ytick_7">
     <g id="line2d_16">
      <defs>
       <path d="M 0 0 
L 3.5 0 
" id="ma1184165d5" style="stroke:#000000;stroke-width:0.8;"/>
      </defs>
      <g>
       <use style="stroke:#000000;stroke-width:0.8;" x="373.248" xlink:href="#ma1184165d5" y="295.488"/>
      </g>
     </g>
     <g id="text_16">
      <!-- 0.0000 -->
      <g transform="translate(380.248 302.326594)scale(0.18 -0.18)">
       <use xlink:href="#DejaVuSans-48"/>
       <use x="63.623047" xlink:href="#DejaVuSans-46"/>
       <use x="95.410156" xlink:href="#DejaVuSans-48"/>
       <use x="159.033203" xlink:href="#DejaVuSans-48"/>
       <use x="222.65625" xlink:href="#DejaVuSans-48"/>
       <use x="286.279297" xlink:href="#DejaVuSans-48"/>
      </g>
     </g>
    </g>
    <g id="ytick_8">
     <g id="line2d_17">
      <g>
       <use style="stroke:#000000;stroke-width:0.8;" x="373.248" xlink:href="#ma1184165d5" y="235.008"/>
      </g>
     </g>
     <g id="text_17">
      <!-- 0.0184 -->
      <defs>
       <path d="M 31.78125 34.625 
Q 24.75 34.625 20.71875 30.859375 
Q 16.703125 27.09375 16.703125 20.515625 
Q 16.703125 13.921875 20.71875 10.15625 
Q 24.75 6.390625 31.78125 6.390625 
Q 38.8125 6.390625 42.859375 10.171875 
Q 46.921875 13.96875 46.921875 20.515625 
Q 46.921875 27.09375 42.890625 30.859375 
Q 38.875 34.625 31.78125 34.625 
z
M 21.921875 38.8125 
Q 15.578125 40.375 12.03125 44.71875 
Q 8.5 49.078125 8.5 55.328125 
Q 8.5 64.0625 14.71875 69.140625 
Q 20.953125 74.21875 31.78125 74.21875 
Q 42.671875 74.21875 48.875 69.140625 
Q 55.078125 64.0625 55.078125 55.328125 
Q 55.078125 49.078125 51.53125 44.71875 
Q 48 40.375 41.703125 38.8125 
Q 48.828125 37.15625 52.796875 32.3125 
Q 56.78125 27.484375 56.78125 20.515625 
Q 56.78125 9.90625 50.3125 4.234375 
Q 43.84375 -1.421875 31.78125 -1.421875 
Q 19.734375 -1.421875 13.25 4.234375 
Q 6.78125 9.90625 6.78125 20.515625 
Q 6.78125 27.484375 10.78125 32.3125 
Q 14.796875 37.15625 21.921875 38.8125 
z
M 18.3125 54.390625 
Q 18.3125 48.734375 21.84375 45.5625 
Q 25.390625 42.390625 31.78125 42.390625 
Q 38.140625 42.390625 41.71875 45.5625 
Q 45.3125 48.734375 45.3125 54.390625 
Q 45.3125 60.0625 41.71875 63.234375 
Q 38.140625 66.40625 31.78125 66.40625 
Q 25.390625 66.40625 21.84375 63.234375 
Q 18.3125 60.0625 18.3125 54.390625 
z
" id="DejaVuSans-56"/>
      </defs>
      <g transform="translate(380.248 241.846594)scale(0.18 -0.18)">
       <use xlink:href="#DejaVuSans-48"/>
       <use x="63.623047" xlink:href="#DejaVuSans-46"/>
       <use x="95.410156" xlink:href="#DejaVuSans-48"/>
       <use x="159.033203" xlink:href="#DejaVuSans-49"/>
       <use x="222.65625" xlink:href="#DejaVuSans-56"/>
       <use x="286.279297" xlink:href="#DejaVuSans-52"/>
      </g>
     </g>
    </g>
    <g id="ytick_9">
     <g id="line2d_18">
      <g>
       <use style="stroke:#000000;stroke-width:0.8;" x="373.248" xlink:href="#ma1184165d5" y="174.528"/>
      </g>
     </g>
     <g id="text_18">
      <!-- 0.0368 -->
      <defs>
       <path d="M 33.015625 40.375 
Q 26.375 40.375 22.484375 35.828125 
Q 18.609375 31.296875 18.609375 23.390625 
Q 18.609375 15.53125 22.484375 10.953125 
Q 26.375 6.390625 33.015625 6.390625 
Q 39.65625 6.390625 43.53125 10.953125 
Q 47.40625 15.53125 47.40625 23.390625 
Q 47.40625 31.296875 43.53125 35.828125 
Q 39.65625 40.375 33.015625 40.375 
z
M 52.59375 71.296875 
L 52.59375 62.3125 
Q 48.875 64.0625 45.09375 64.984375 
Q 41.3125 65.921875 37.59375 65.921875 
Q 27.828125 65.921875 22.671875 59.328125 
Q 17.53125 52.734375 16.796875 39.40625 
Q 19.671875 43.65625 24.015625 45.921875 
Q 28.375 48.1875 33.59375 48.1875 
Q 44.578125 48.1875 50.953125 41.515625 
Q 57.328125 34.859375 57.328125 23.390625 
Q 57.328125 12.15625 50.6875 5.359375 
Q 44.046875 -1.421875 33.015625 -1.421875 
Q 20.359375 -1.421875 13.671875 8.265625 
Q 6.984375 17.96875 6.984375 36.375 
Q 6.984375 53.65625 15.1875 63.9375 
Q 23.390625 74.21875 37.203125 74.21875 
Q 40.921875 74.21875 44.703125 73.484375 
Q 48.484375 72.75 52.59375 71.296875 
z
" id="DejaVuSans-54"/>
      </defs>
      <g transform="translate(380.248 181.366594)scale(0.18 -0.18)">
       <use xlink:href="#DejaVuSans-48"/>
       <use x="63.623047" xlink:href="#DejaVuSans-46"/>
       <use x="95.410156" xlink:href="#DejaVuSans-48"/>
       <use x="159.033203" xlink:href="#DejaVuSans-51"/>
       <use x="222.65625" xlink:href="#DejaVuSans-54"/>
       <use x="286.279297" xlink:href="#DejaVuSans-56"/>
      </g>
     </g>
    </g>
    <g id="ytick_10">
     <g id="line2d_19">
      <g>
       <use style="stroke:#000000;stroke-width:0.8;" x="373.248" xlink:href="#ma1184165d5" y="114.048"/>
      </g>
     </g>
     <g id="text_19">
      <!-- 0.0919 -->
      <defs>
       <path d="M 10.984375 1.515625 
L 10.984375 10.5 
Q 14.703125 8.734375 18.5 7.8125 
Q 22.3125 6.890625 25.984375 6.890625 
Q 35.75 6.890625 40.890625 13.453125 
Q 46.046875 20.015625 46.78125 33.40625 
Q 43.953125 29.203125 39.59375 26.953125 
Q 35.25 24.703125 29.984375 24.703125 
Q 19.046875 24.703125 12.671875 31.3125 
Q 6.296875 37.9375 6.296875 49.421875 
Q 6.296875 60.640625 12.9375 67.421875 
Q 19.578125 74.21875 30.609375 74.21875 
Q 43.265625 74.21875 49.921875 64.515625 
Q 56.59375 54.828125 56.59375 36.375 
Q 56.59375 19.140625 48.40625 8.859375 
Q 40.234375 -1.421875 26.421875 -1.421875 
Q 22.703125 -1.421875 18.890625 -0.6875 
Q 15.09375 0.046875 10.984375 1.515625 
z
M 30.609375 32.421875 
Q 37.25 32.421875 41.125 36.953125 
Q 45.015625 41.5 45.015625 49.421875 
Q 45.015625 57.28125 41.125 61.84375 
Q 37.25 66.40625 30.609375 66.40625 
Q 23.96875 66.40625 20.09375 61.84375 
Q 16.21875 57.28125 16.21875 49.421875 
Q 16.21875 41.5 20.09375 36.953125 
Q 23.96875 32.421875 30.609375 32.421875 
z
" id="DejaVuSans-57"/>
      </defs>
      <g transform="translate(380.248 120.886594)scale(0.18 -0.18)">
       <use xlink:href="#DejaVuSans-48"/>
       <use x="63.623047" xlink:href="#DejaVuSans-46"/>
       <use x="95.410156" xlink:href="#DejaVuSans-48"/>
       <use x="159.033203" xlink:href="#DejaVuSans-57"/>
       <use x="222.65625" xlink:href="#DejaVuSans-49"/>
       <use x="286.279297" xlink:href="#DejaVuSans-57"/>
      </g>
     </g>
    </g>
    <g id="ytick_11">
     <g id="line2d_20">
      <g>
       <use style="stroke:#000000;stroke-width:0.8;" x="373.248" xlink:href="#ma1184165d5" y="53.568"/>
      </g>
     </g>
     <g id="text_20">
      <!-- 0.2299 -->
      <g transform="translate(380.248 60.406594)scale(0.18 -0.18)">
       <use xlink:href="#DejaVuSans-48"/>
       <use x="63.623047" xlink:href="#DejaVuSans-46"/>
       <use x="95.410156" xlink:href="#DejaVuSans-50"/>
       <use x="159.033203" xlink:href="#DejaVuSans-50"/>
       <use x="222.65625" xlink:href="#DejaVuSans-57"/>
       <use x="286.279297" xlink:href="#DejaVuSans-57"/>
      </g>
     </g>
    </g>
   </g>
   <g id="patch_8">
    <path d="M 367.2 307.584 
L 361.152 295.488 
L 361.152 53.568 
L 367.2 41.472 
L 367.2 41.472 
L 373.248 53.568 
L 373.248 295.488 
L 367.2 307.584 
z
" style="fill:none;stroke:#000000;stroke-linejoin:miter;stroke-width:0.8;"/>
   </g>
  </g>
 </g>
 <defs>
  <clipPath id="pe7d67f8876">
   <rect height="266.112" width="285.696" x="57.6" y="41.472"/>
  </clipPath>
  <clipPath id="p0094a89421">
   <rect height="266.112" width="12.096" x="361.152" y="41.472"/>
  </clipPath>
 </defs>
</svg>
