<?xml version="1.0" encoding="utf-8" standalone="no"?>
<!DOCTYPE svg PUBLIC "-//W3C//DTD SVG 1.1//EN"
  "http://www.w3.org/Graphics/SVG/1.1/DTD/svg11.dtd">
<!-- Created with matplotlib (https://matplotlib.org/) -->
<svg height="345.6pt" version="1.1" viewBox="0 0 460.8 345.6" width="460.8pt" xmlns="http://www.w3.org/2000/svg" xmlns:xlink="http://www.w3.org/1999/xlink">
 <defs>
  <style type="text/css">
*{stroke-linecap:butt;stroke-linejoin:round;}
  </style>
 </defs>
 <g id="figure_1">
  <g id="patch_1">
   <path d="M 0 345.6 
L 460.8 345.6 
L 460.8 0 
L 0 0 
z
" style="fill:#ffffff;"/>
  </g>
  <g id="axes_1">
   <g id="patch_2">
    <path d="M 57.6 307.584 
L 343.296 307.584 
L 343.296 41.472 
L 57.6 41.472 
z
" style="fill:#ffffff;"/>
   </g>
   <g id="PathCollection_1"/>
   <g id="PathCollection_2">
    <path clip-path="url(#p760ce03ae4)" d="M 148.645395 302.217465 
L 156.922249 302.217465 
L 165.199103 302.217465 
L 173.475957 302.217465 
L 181.752811 302.217465 
L 190.029665 302.217465 
L 198.30652 302.217465 
L 206.583374 302.217465 
L 214.860228 302.217465 
L 223.137082 302.217465 
L 231.413936 302.217465 
L 239.69079 302.217465 
L 247.967644 302.217465 
L 256.244498 302.217465 
L 264.521352 302.217465 
L 272.798206 302.217465 
L 281.075061 302.217465 
L 289.351915 302.217465 
L 297.628769 302.217465 
L 305.905623 302.217465 
L 314.182477 302.217465 
L 322.459331 302.217465 
L 330.736185 302.217465 
L 339.013039 302.217465 
L 347.289893 302.217465 
L 355.566747 302.217465 
L 363.843601 302.217465 
L 372.120456 302.217465 
L 380.39731 302.217465 
L 388.674164 302.217465 
L 396.951018 302.217465 
L 405.227872 302.217465 
L 413.504726 302.217465 
L 421.78158 302.217465 
L 430.058434 302.217465 
L 438.335288 302.217465 
L 446.612142 302.217465 
L 454.888996 302.217465 
L 463.165851 302.217465 
L 471.442705 302.217465 
L 479.719559 302.217465 
L 487.996413 302.217465 
L 496.273267 302.217465 
L 504.550121 302.217465 
L 512.826975 302.217465 
L 521.103829 302.217465 
L 529.380683 302.217465 
L 537.657537 302.217465 
L 545.934391 302.217465 
L 554.211246 302.217465 
L 562.4881 302.217465 
L 570.764954 302.217465 
L 579.041808 302.217465 
L 587.318662 302.217465 
L 595.595516 302.217465 
L 603.87237 302.217465 
L 612.149224 302.217465 
L 620.426078 302.217465 
L 628.702932 302.217465 
L 636.979786 302.217465 
L 645.256641 302.217465 
L 653.533495 302.217465 
L 661.810349 302.217465 
L 670.087203 302.217465 
L 678.364057 302.217465 
L 686.640911 302.217465 
L 694.917765 302.217465 
L 703.194619 302.217465 
L 711.471473 302.217465 
L 719.748327 302.217465 
L 728.025182 302.217465 
L 736.302036 302.217465 
L 744.57889 302.217465 
L 752.855744 302.217465 
L 761.132598 302.217465 
L 769.409452 302.217465 
L 777.686306 302.217465 
L 785.96316 302.217465 
L 794.240014 302.217465 
L 802.516868 302.217465 
L 810.793722 302.217465 
L 819.070577 302.217465 
L 827.347431 302.217465 
L 835.624285 302.217465 
L 843.901139 302.217465 
L 852.177993 302.217465 
L 860.454847 302.217465 
L 868.731701 302.217465 
L 877.008555 302.217465 
L 885.285409 302.217465 
L 893.562263 302.217465 
L 901.839117 302.217465 
L 910.115972 302.217465 
L 918.392826 302.217465 
L 926.66968 302.217465 
L 934.946534 302.217465 
L 943.223388 302.217465 
L 951.500242 302.217465 
L 959.777096 302.217465 
L 968.05395 302.217465 
L 976.330804 302.217465 
L 984.607658 302.217465 
L 992.884512 302.217465 
L 1001.161367 302.217465 
L 1009.438221 302.217465 
L 1017.715075 302.217465 
L 1025.991929 302.217465 
L 1034.268783 302.217465 
L 1042.545637 302.217465 
L 1050.822491 302.217465 
L 1059.099345 302.217465 
L 1067.376199 302.217465 
L 1075.653053 302.217465 
L 1083.929907 302.217465 
L 1092.206762 302.217465 
L 1100.483616 302.217465 
L 1108.76047 302.217465 
L 1117.037324 302.217465 
L 1125.314178 302.217465 
L 1133.591032 302.217465 
L 1141.867886 302.217465 
L 1150.14474 302.217465 
L 1158.421594 302.217465 
L 1166.698448 302.217465 
L 1174.975303 302.217465 
L 1183.252157 302.217465 
L 1191.529011 302.217465 
L 1199.805865 302.217465 
L 1208.082719 302.217465 
L 1216.359573 302.217465 
L 1224.636427 302.217465 
L 1232.913281 302.217465 
L 1241.190135 302.217465 
L 1249.466989 302.217465 
L 1257.743843 302.217465 
L 1266.020698 302.217465 
L 1274.297552 302.217465 
L 1282.574406 302.217465 
L 1290.85126 302.217465 
L 1299.128114 302.217465 
L 1307.404968 302.217465 
L 1315.681822 302.217465 
L 1323.958676 302.217465 
L 1332.23553 302.217465 
L 1340.512384 302.217465 
L 1348.789238 302.217465 
L 1357.066093 302.217465 
L 1365.342947 302.217465 
L 1373.619801 302.217465 
L 1381.896655 302.217465 
L 1390.173509 302.217465 
L 1398.450363 302.217465 
L 1406.727217 302.217465 
L 1415.004071 302.217465 
L 1423.280925 302.217465 
L 1431.557779 302.217465 
L 1439.834633 302.217465 
L 1448.111488 302.217465 
L 1456.388342 302.217465 
L 1464.665196 302.217465 
L 1472.94205 302.217465 
L 1481.218904 302.217465 
L 1481.218904 296.85093 
L 1481.218904 291.484395 
L 1481.218904 286.117859 
L 1481.218904 280.751324 
L 1481.218904 275.384789 
L 1481.218904 270.018254 
L 1481.218904 264.651719 
L 1481.218904 259.285184 
L 1481.218904 253.918648 
L 1481.218904 248.552113 
L 1481.218904 243.185578 
L 1481.218904 237.819043 
L 1481.218904 232.452508 
L 1481.218904 227.085973 
L 1481.218904 221.719438 
L 1481.218904 216.352902 
L 1481.218904 210.986367 
L 1481.218904 205.619832 
L 1481.218904 200.253297 
L 1481.218904 194.886762 
L 1481.218904 189.520227 
L 1481.218904 184.153692 
L 1481.218904 178.787156 
L 1481.218904 173.420621 
L 1481.218904 168.054086 
L 1481.218904 162.687551 
L 1481.218904 157.321016 
L 1481.218904 151.954481 
L 1481.218904 146.587945 
L 1481.218904 141.22141 
L 1481.218904 135.854875 
L 1481.218904 130.48834 
L 1481.218904 125.121805 
L 1481.218904 119.75527 
L 1481.218904 114.388735 
L 1481.218904 109.022199 
L 1481.218904 103.655664 
L 1481.218904 98.289129 
L 1481.218904 92.922594 
L 1481.218904 87.556059 
L 1481.218904 82.189524 
L 1481.218904 76.822989 
L 1481.218904 71.456453 
L 1481.218904 66.089918 
L 1481.218904 60.723383 
L 1481.218904 55.356848 
L 1481.218904 49.990313 
L 1481.218904 44.623778 
L 1481.218904 39.257242 
L 1481.218904 33.890707 
L 1481.218904 28.524172 
L 1481.218904 23.157637 
L 1481.218904 17.791102 
L 1481.218904 12.424567 
L 1481.218904 7.058032 
L 1481.218904 1.691496 
L 1481.218904 -3.675039 
L 1481.218904 -9.041574 
L 1481.218904 -14.408109 
L 1481.218904 -19.774644 
L 1481.218904 -25.141179 
L 1481.218904 -30.507714 
L 1481.218904 -35.87425 
L 1481.218904 -41.240785 
L 1481.218904 -46.60732 
L 1481.218904 -51.973855 
L 1481.218904 -57.34039 
L 1481.218904 -62.706925 
L 1481.218904 -68.073461 
L 1481.218904 -73.439996 
L 1481.218904 -78.806531 
L 1481.218904 -84.173066 
L 1481.218904 -89.539601 
L 1481.218904 -94.906136 
L 1481.218904 -100.272671 
L 1481.218904 -105.639207 
L 1481.218904 -111.005742 
L 1481.218904 -116.372277 
L 1481.218904 -121.738812 
L 1481.218904 -127.105347 
L 1481.218904 -132.471882 
L 1481.218904 -137.838418 
L 1481.218904 -143.204953 
L 1481.218904 -148.571488 
L 1481.218904 -153.938023 
L 1472.94205 -153.938023 
L 1464.665196 -153.938023 
L 1456.388342 -153.938023 
L 1448.111488 -153.938023 
L 1439.834633 -153.938023 
L 1431.557779 -153.938023 
L 1423.280925 -153.938023 
L 1415.004071 -153.938023 
L 1406.727217 -153.938023 
L 1398.450363 -153.938023 
L 1390.173509 -153.938023 
L 1381.896655 -153.938023 
L 1373.619801 -153.938023 
L 1365.342947 -153.938023 
L 1357.066093 -153.938023 
L 1348.789238 -153.938023 
L 1340.512384 -153.938023 
L 1332.23553 -153.938023 
L 1323.958676 -153.938023 
L 1315.681822 -153.938023 
L 1307.404968 -153.938023 
L 1299.128114 -153.938023 
L 1290.85126 -153.938023 
L 1282.574406 -153.938023 
L 1274.297552 -153.938023 
L 1266.020698 -153.938023 
L 1257.743843 -153.938023 
L 1249.466989 -153.938023 
L 1241.190135 -153.938023 
L 1232.913281 -153.938023 
L 1224.636427 -153.938023 
L 1216.359573 -153.938023 
L 1208.082719 -153.938023 
L 1199.805865 -153.938023 
L 1191.529011 -153.938023 
L 1183.252157 -153.938023 
L 1174.975303 -153.938023 
L 1166.698448 -153.938023 
L 1158.421594 -153.938023 
L 1150.14474 -153.938023 
L 1141.867886 -153.938023 
L 1133.591032 -153.938023 
L 1125.314178 -153.938023 
L 1117.037324 -153.938023 
L 1108.76047 -153.938023 
L 1100.483616 -153.938023 
L 1092.206762 -153.938023 
L 1083.929907 -153.938023 
L 1075.653053 -153.938023 
L 1067.376199 -153.938023 
L 1059.099345 -153.938023 
L 1050.822491 -153.938023 
L 1042.545637 -153.938023 
L 1034.268783 -153.938023 
L 1025.991929 -153.938023 
L 1017.715075 -153.938023 
L 1009.438221 -153.938023 
L 1001.161367 -153.938023 
L 992.884512 -153.938023 
L 984.607658 -153.938023 
L 976.330804 -153.938023 
L 968.05395 -153.938023 
L 959.777096 -153.938023 
L 951.500242 -153.938023 
L 943.223388 -153.938023 
L 934.946534 -153.938023 
L 926.66968 -153.938023 
L 918.392826 -153.938023 
L 910.115972 -153.938023 
L 901.839117 -153.938023 
L 893.562263 -153.938023 
L 885.285409 -153.938023 
L 877.008555 -153.938023 
L 868.731701 -153.938023 
L 860.454847 -153.938023 
L 852.177993 -153.938023 
L 843.901139 -153.938023 
L 835.624285 -153.938023 
L 827.347431 -153.938023 
L 819.070577 -153.938023 
L 810.793722 -153.938023 
L 802.516868 -153.938023 
L 794.240014 -153.938023 
L 785.96316 -153.938023 
L 777.686306 -153.938023 
L 769.409452 -153.938023 
L 761.132598 -153.938023 
L 752.855744 -153.938023 
L 744.57889 -153.938023 
L 736.302036 -153.938023 
L 728.025182 -153.938023 
L 719.748327 -153.938023 
L 711.471473 -153.938023 
L 703.194619 -153.938023 
L 694.917765 -153.938023 
L 686.640911 -153.938023 
L 678.364057 -153.938023 
L 670.087203 -153.938023 
L 661.810349 -153.938023 
L 653.533495 -153.938023 
L 645.256641 -153.938023 
L 636.979786 -153.938023 
L 628.702932 -153.938023 
L 620.426078 -153.938023 
L 612.149224 -153.938023 
L 603.87237 -153.938023 
L 595.595516 -153.938023 
L 587.318662 -153.938023 
L 579.041808 -153.938023 
L 570.764954 -153.938023 
L 562.4881 -153.938023 
L 554.211246 -153.938023 
L 545.934391 -153.938023 
L 537.657537 -153.938023 
L 529.380683 -153.938023 
L 521.103829 -153.938023 
L 512.826975 -153.938023 
L 504.550121 -153.938023 
L 496.273267 -153.938023 
L 487.996413 -153.938023 
L 479.719559 -153.938023 
L 471.442705 -153.938023 
L 463.165851 -153.938023 
L 454.888996 -153.938023 
L 446.612142 -153.938023 
L 438.335288 -153.938023 
L 430.058434 -153.938023 
L 421.78158 -153.938023 
L 413.504726 -153.938023 
L 405.227872 -153.938023 
L 396.951018 -153.938023 
L 388.674164 -153.938023 
L 380.39731 -153.938023 
L 372.120456 -153.938023 
L 363.843601 -153.938023 
L 355.566747 -153.938023 
L 347.289893 -153.938023 
L 339.013039 -153.938023 
L 330.736185 -153.938023 
L 322.459331 -153.938023 
L 314.182477 -153.938023 
L 305.905623 -153.938023 
L 297.628769 -153.938023 
L 289.351915 -153.938023 
L 281.075061 -153.938023 
L 272.798206 -153.938023 
L 264.521352 -153.938023 
L 256.244498 -153.938023 
L 247.967644 -153.938023 
L 239.69079 -153.938023 
L 231.413936 -153.938023 
L 223.137082 -153.938023 
L 214.860228 -153.938023 
L 206.583374 -153.938023 
L 198.30652 -153.938023 
L 190.029665 -153.938023 
L 181.752811 -153.938023 
L 173.475957 -153.938023 
L 165.199103 -153.938023 
L 156.922249 -153.938023 
L 148.645395 -153.938023 
L 140.368541 -153.938023 
L 132.091687 -153.938023 
L 123.814833 -153.938023 
L 115.537979 -153.938023 
L 107.261125 -153.938023 
L 98.98427 -153.938023 
L 90.707416 -153.938023 
L 82.430562 -153.938023 
L 74.153708 -153.938023 
L 65.876854 -153.938023 
L 65.876854 -148.571488 
L 65.876854 -143.204953 
L 65.876854 -137.838418 
L 65.876854 -132.471882 
L 65.876854 -127.105347 
L 65.876854 -121.738812 
L 65.876854 -116.372277 
L 65.876854 -111.005742 
L 65.876854 -105.639207 
L 65.876854 -100.272671 
L 65.876854 -94.906136 
L 65.876854 -89.539601 
L 65.876854 -84.173066 
L 65.876854 -78.806531 
L 65.876854 -73.439996 
L 65.876854 -68.073461 
L 65.876854 -62.706925 
L 65.876854 -57.34039 
L 65.876854 -51.973855 
L 65.876854 -46.60732 
L 65.876854 -41.240785 
L 65.876854 -35.87425 
L 65.876854 -30.507714 
L 65.876854 -25.141179 
L 65.876854 -19.774644 
L 65.876854 -14.408109 
L 65.876854 -9.041574 
L 65.876854 -3.675039 
L 65.876854 1.691496 
L 65.876854 7.058032 
L 65.876854 12.424567 
L 65.876854 17.791102 
L 65.876854 23.157637 
L 65.876854 28.524172 
L 65.876854 33.890707 
L 65.876854 39.257242 
L 65.876854 44.623778 
L 65.876854 49.990313 
L 65.876854 55.356848 
L 65.876854 60.723383 
L 65.876854 66.089918 
L 65.876854 71.456453 
L 65.876854 76.822989 
L 65.876854 82.189524 
L 65.876854 87.556059 
L 65.876854 92.922594 
L 65.876854 98.289129 
L 65.876854 103.655664 
L 65.876854 109.022199 
L 65.876854 114.388735 
L 65.876854 119.75527 
L 65.876854 125.121805 
L 65.876854 130.48834 
L 65.876854 135.854875 
L 65.876854 141.22141 
L 65.876854 146.587945 
L 65.876854 151.954481 
L 65.876854 157.321016 
L 65.876854 162.687551 
L 65.876854 168.054086 
L 65.876854 173.420621 
L 65.876854 178.787156 
L 65.876854 184.153692 
L 65.876854 189.520227 
L 65.876854 194.886762 
L 65.876854 200.253297 
L 65.876854 205.619832 
L 65.876854 210.986367 
L 65.876854 216.352902 
L 65.876854 221.719438 
L 65.876854 222.400343 
L 66.401937 221.719438 
L 66.296921 216.352902 
L 69.335916 210.986367 
L 68.985861 205.619832 
L 74.153708 200.59375 
L 76.254041 200.253297 
L 82.430562 198.918389 
L 88.648576 194.886762 
L 90.707416 193.551854 
L 98.98427 189.792589 
L 101.084603 189.520227 
L 107.261125 187.517864 
L 112.449718 184.153692 
L 115.537979 182.151329 
L 120.726572 178.787156 
L 123.814833 174.782432 
L 124.864999 173.420621 
L 123.814833 172.058811 
L 115.537979 170.056448 
L 113.479138 168.054086 
L 115.537979 166.051724 
L 120.726572 162.687551 
L 123.814833 158.682826 
L 125.915165 157.321016 
L 132.091687 155.318653 
L 134.685983 151.954481 
L 140.368541 149.006922 
L 146.586554 146.587945 
L 148.645395 145.253037 
L 156.922249 142.94925 
L 165.199103 142.062454 
L 166.352124 141.22141 
L 173.475957 137.064363 
L 179.693971 135.854875 
L 181.752811 133.852513 
L 185.211874 130.48834 
L 190.029665 128.145525 
L 198.30652 126.221339 
L 206.583374 126.129712 
L 213.916847 130.48834 
L 214.860228 130.644813 
L 223.137082 131.24427 
L 230.248058 135.854875 
L 231.413936 136.785251 
L 238.255864 141.22141 
L 239.69079 144.245131 
L 243.304134 146.587945 
L 247.967644 149.611666 
L 251.580988 151.954481 
L 256.244498 153.682321 
L 264.521352 155.986108 
L 272.798206 154.978201 
L 276.41155 157.321016 
L 277.344252 162.687551 
L 272.798206 165.63511 
L 270.466451 168.054086 
L 270.466451 173.420621 
L 272.798206 175.436435 
L 281.075061 174.630109 
L 289.351915 177.452248 
L 291.410755 178.787156 
L 297.628769 180.80297 
L 302.796616 184.153692 
L 297.628769 189.179774 
L 297.478745 189.520227 
L 297.518225 194.886762 
L 296.936956 200.253297 
L 296.578602 205.619832 
L 291.410755 210.986367 
L 289.351915 214.991092 
L 288.826832 216.352902 
L 281.075061 220.373768 
L 279.592605 221.719438 
L 278.410198 227.085973 
L 272.798206 232.180146 
L 272.273123 232.452508 
L 266.580193 237.819043 
L 264.521352 239.153951 
L 258.344831 237.819043 
L 256.244498 237.592075 
L 256.104476 237.819043 
L 247.967644 243.094791 
L 247.872174 243.185578 
L 244.508582 248.552113 
L 239.69079 250.894928 
L 231.413936 253.850558 
L 230.36377 253.918648 
L 225.195922 259.285184 
L 223.137082 260.620092 
L 216.96056 259.285184 
L 214.860228 259.058215 
L 214.510172 259.285184 
L 214.860228 260.646994 
L 216.919068 264.651719 
L 214.860228 265.986627 
L 211.771967 264.651719 
L 206.583374 263.690527 
L 205.718608 264.651719 
L 206.320832 270.018254 
L 198.30652 275.214563 
L 198.096486 275.384789 
L 194.847457 280.751324 
L 198.30652 282.433411 
L 206.583374 284.115497 
L 212.759895 286.117859 
L 206.583374 287.452768 
L 198.30652 289.065418 
L 194.575711 291.484395 
L 190.029665 294.431954 
L 183.811652 296.85093 
L 181.752811 298.185838 
L 173.475957 300.873589 
L 165.199103 301.007977 
L 156.922249 301.287089 
L 148.645395 301.376422 
L 143.456802 302.217465 
z
M 224.187248 280.751324 
L 231.413936 277.627571 
L 236.231728 280.751324 
L 231.413936 285.436954 
z
M 103.647781 178.787156 
L 107.261125 174.101527 
L 112.078916 178.787156 
L 107.261125 181.91091 
z
" style="fill:#ffffff;"/>
    <path clip-path="url(#p760ce03ae4)" d="M 82.430562 207.862614 
L 84.160093 205.619832 
L 82.430562 202.255659 
L 80.355125 205.619832 
z
" style="fill:#ffffff;"/>
    <path clip-path="url(#p760ce03ae4)" d="M 132.091687 170.296868 
L 137.28028 168.054086 
L 140.368541 166.051724 
L 142.443978 162.687551 
L 142.468873 157.321016 
L 140.368541 156.867079 
L 138.268209 157.321016 
L 132.091687 161.32574 
L 129.991354 162.687551 
L 126.903094 168.054086 
z
" style="fill:#ffffff;"/>
    <path clip-path="url(#p760ce03ae4)" d="M 148.645395 153.316291 
L 149.695561 151.954481 
L 148.645395 150.59267 
L 147.945284 151.954481 
z
" style="fill:#ffffff;"/>
   </g>
   <g id="PathCollection_3">
    <path clip-path="url(#p760ce03ae4)" d="M 132.091687 302.217465 
L 140.368541 302.217465 
L 143.456802 302.217465 
L 148.645395 301.376422 
L 156.922249 301.287089 
L 165.199103 301.007977 
L 173.475957 300.873589 
L 181.752811 298.185838 
L 183.811652 296.85093 
L 190.029665 294.431954 
L 194.575711 291.484395 
L 198.30652 289.065418 
L 206.583374 287.452768 
L 212.759895 286.117859 
L 206.583374 284.115497 
L 198.30652 282.433411 
L 194.847457 280.751324 
L 198.096486 275.384789 
L 198.30652 275.214563 
L 206.320832 270.018254 
L 205.718608 264.651719 
L 206.583374 263.690527 
L 211.771967 264.651719 
L 214.860228 265.986627 
L 216.919068 264.651719 
L 214.860228 260.646994 
L 214.510172 259.285184 
L 214.860228 259.058215 
L 216.96056 259.285184 
L 223.137082 260.620092 
L 225.195922 259.285184 
L 230.36377 253.918648 
L 231.413936 253.850558 
L 239.69079 250.894928 
L 244.508582 248.552113 
L 247.872174 243.185578 
L 247.967644 243.094791 
L 256.104476 237.819043 
L 256.244498 237.592075 
L 258.344831 237.819043 
L 264.521352 239.153951 
L 266.580193 237.819043 
L 272.273123 232.452508 
L 272.798206 232.180146 
L 278.410198 227.085973 
L 279.592605 221.719438 
L 281.075061 220.373768 
L 288.826832 216.352902 
L 289.351915 214.991092 
L 291.410755 210.986367 
L 296.578602 205.619832 
L 296.936956 200.253297 
L 297.518225 194.886762 
L 297.478745 189.520227 
L 297.628769 189.179774 
L 302.796616 184.153692 
L 297.628769 180.80297 
L 291.410755 178.787156 
L 289.351915 177.452248 
L 281.075061 174.630109 
L 272.798206 175.436435 
L 270.466451 173.420621 
L 270.466451 168.054086 
L 272.798206 165.63511 
L 277.344252 162.687551 
L 276.41155 157.321016 
L 272.798206 154.978201 
L 264.521352 155.986108 
L 256.244498 153.682321 
L 251.580988 151.954481 
L 247.967644 149.611666 
L 243.304134 146.587945 
L 239.69079 144.245131 
L 238.255864 141.22141 
L 231.413936 136.785251 
L 230.248058 135.854875 
L 223.137082 131.24427 
L 214.860228 130.644813 
L 213.916847 130.48834 
L 206.583374 126.129712 
L 198.30652 126.221339 
L 190.029665 128.145525 
L 185.211874 130.48834 
L 181.752811 133.852513 
L 179.693971 135.854875 
L 173.475957 137.064363 
L 166.352124 141.22141 
L 165.199103 142.062454 
L 156.922249 142.94925 
L 148.645395 145.253037 
L 146.586554 146.587945 
L 140.368541 149.006922 
L 134.685983 151.954481 
L 132.091687 155.318653 
L 125.915165 157.321016 
L 123.814833 158.682826 
L 120.726572 162.687551 
L 115.537979 166.051724 
L 113.479138 168.054086 
L 115.537979 170.056448 
L 123.814833 172.058811 
L 124.864999 173.420621 
L 123.814833 174.782432 
L 120.726572 178.787156 
L 115.537979 182.151329 
L 112.449718 184.153692 
L 107.261125 187.517864 
L 101.084603 189.520227 
L 98.98427 189.792589 
L 90.707416 193.551854 
L 88.648576 194.886762 
L 82.430562 198.918389 
L 76.254041 200.253297 
L 74.153708 200.59375 
L 68.985861 205.619832 
L 69.335916 210.986367 
L 66.296921 216.352902 
L 66.401937 221.719438 
L 65.876854 222.400343 
L 65.876854 227.085973 
L 65.876854 227.993846 
L 67.277076 227.085973 
L 71.065447 221.719438 
L 70.027729 216.352902 
L 74.153708 211.894241 
L 81.030341 216.352902 
L 82.430562 216.897627 
L 83.480728 216.352902 
L 83.480728 210.986367 
L 87.2691 205.619832 
L 90.707416 202.275836 
L 94.866589 200.253297 
L 93.826796 194.886762 
L 98.98427 192.211565 
L 107.261125 192.216945 
L 109.043627 189.520227 
L 115.537979 185.309428 
L 117.617565 184.153692 
L 123.814833 180.135516 
L 126.934212 178.787156 
L 132.091687 174.328495 
L 132.93182 173.420621 
L 140.368541 169.402445 
L 148.645395 169.402445 
L 149.779715 168.054086 
L 148.645395 165.357367 
L 146.174786 162.687551 
L 148.645395 160.017735 
L 154.821917 162.687551 
L 156.922249 162.959913 
L 158.322471 162.687551 
L 156.922249 159.96393 
L 154.884154 157.321016 
L 156.922249 154.678102 
L 161.122914 151.954481 
L 156.922249 151.046607 
L 151.764775 146.587945 
L 156.922249 144.677091 
L 165.199103 143.574314 
L 168.424795 141.22141 
L 173.475957 138.273851 
L 181.752811 136.866145 
L 183.832398 135.854875 
L 190.029665 131.033064 
L 190.62976 130.48834 
L 198.30652 127.320874 
L 206.583374 127.137618 
L 212.221025 130.48834 
L 214.860228 130.926089 
L 223.137082 132.0002 
L 229.082181 135.854875 
L 231.413936 137.715626 
L 236.820938 141.22141 
L 239.410746 146.587945 
L 239.69079 147.268851 
L 246.917478 151.954481 
L 247.967644 152.16399 
L 256.244498 155.410161 
L 261.401973 157.321016 
L 264.521352 158.476752 
L 272.798206 160.044637 
L 273.613444 162.687551 
L 272.798206 163.216134 
L 268.134696 168.054086 
L 268.134696 173.420621 
L 272.798206 177.452248 
L 281.075061 175.839597 
L 287.569412 178.787156 
L 289.351915 179.365025 
L 297.628769 182.818783 
L 299.687609 184.153692 
L 297.628769 186.156054 
L 296.146313 189.520227 
L 296.536433 194.886762 
L 295.693354 200.253297 
L 289.351915 205.392864 
L 289.104817 205.619832 
L 287.792225 210.986367 
L 284.163321 216.352902 
L 281.075061 217.954792 
L 276.927742 221.719438 
L 275.745335 227.085973 
L 272.798206 229.76117 
L 267.609613 232.452508 
L 264.521352 235.122324 
L 256.244498 235.576261 
L 254.860873 237.819043 
L 247.967644 242.288465 
L 247.024264 243.185578 
L 239.69079 248.415932 
L 239.45742 248.552113 
L 231.413936 253.245814 
L 223.137082 253.836115 
L 222.086916 253.918648 
L 214.860228 257.042402 
L 211.401166 259.285184 
L 206.583374 261.962686 
L 204.164105 264.651719 
L 203.989077 270.018254 
L 198.30652 273.702703 
L 196.231082 275.384789 
L 190.029665 280.410872 
L 189.329555 280.751324 
L 190.029665 282.113135 
L 198.30652 285.457131 
L 200.344614 286.117859 
L 198.30652 286.646442 
L 190.844903 291.484395 
L 190.029665 292.012977 
L 181.752811 296.041914 
L 179.673225 296.85093 
L 173.475957 299.529714 
L 165.199103 299.798489 
L 156.922249 300.356714 
L 148.645395 299.864562 
L 140.368541 301.408449 
L 132.091687 301.741573 
L 125.852927 302.217465 
z
M 72.094868 205.619832 
L 74.153708 203.61747 
L 76.624317 205.619832 
L 74.153708 209.624557 
z
M 80.355125 205.619832 
L 82.430562 202.255659 
L 84.160093 205.619832 
L 82.430562 207.862614 
z
M 126.903094 168.054086 
L 129.991354 162.687551 
L 132.091687 161.32574 
L 138.268209 157.321016 
L 140.368541 156.867079 
L 142.468873 157.321016 
L 142.443978 162.687551 
L 140.368541 166.051724 
L 137.28028 168.054086 
L 132.091687 170.296868 
z
M 139.349494 151.954481 
L 140.368541 151.425898 
L 141.727271 151.954481 
L 140.368541 152.835452 
z
M 147.945284 151.954481 
L 148.645395 150.59267 
L 149.695561 151.954481 
L 148.645395 153.316291 
z
" style="fill:#f0f0f0;"/>
    <path clip-path="url(#p760ce03ae4)" d="M 173.475957 281.659198 
L 174.176068 280.751324 
L 173.475957 278.027703 
L 172.075736 280.751324 
z
" style="fill:#f0f0f0;"/>
    <path clip-path="url(#p760ce03ae4)" d="M 231.413936 285.436954 
L 236.231728 280.751324 
L 231.413936 277.627571 
L 224.187248 280.751324 
z
" style="fill:#f0f0f0;"/>
    <path clip-path="url(#p760ce03ae4)" d="M 181.752811 271.173991 
L 183.139202 270.018254 
L 181.752811 268.862517 
L 180.193122 270.018254 
z
" style="fill:#f0f0f0;"/>
    <path clip-path="url(#p760ce03ae4)" d="M 107.261125 181.91091 
L 112.078916 178.787156 
L 107.261125 174.101527 
L 103.647781 178.787156 
z
" style="fill:#f0f0f0;"/>
    <path clip-path="url(#p760ce03ae4)" d="M 173.475957 158.130031 
L 175.555544 157.321016 
L 173.475957 155.702985 
L 170.356578 157.321016 
z
" style="fill:#f0f0f0;"/>
   </g>
   <g id="PathCollection_4">
    <path clip-path="url(#p760ce03ae4)" d="M 115.537979 302.217465 
L 123.814833 302.217465 
L 125.852927 302.217465 
L 132.091687 301.741573 
L 140.368541 301.408449 
L 148.645395 299.864562 
L 156.922249 300.356714 
L 165.199103 299.798489 
L 173.475957 299.529714 
L 179.673225 296.85093 
L 181.752811 296.041914 
L 190.029665 292.012977 
L 190.844903 291.484395 
L 198.30652 286.646442 
L 200.344614 286.117859 
L 198.30652 285.457131 
L 190.029665 282.113135 
L 189.329555 280.751324 
L 190.029665 280.410872 
L 196.231082 275.384789 
L 198.30652 273.702703 
L 203.989077 270.018254 
L 204.164105 264.651719 
L 206.583374 261.962686 
L 211.401166 259.285184 
L 214.860228 257.042402 
L 222.086916 253.918648 
L 223.137082 253.836115 
L 231.413936 253.245814 
L 239.45742 248.552113 
L 239.69079 248.415932 
L 247.024264 243.185578 
L 247.967644 242.288465 
L 254.860873 237.819043 
L 256.244498 235.576261 
L 264.521352 235.122324 
L 267.609613 232.452508 
L 272.798206 229.76117 
L 275.745335 227.085973 
L 276.927742 221.719438 
L 281.075061 217.954792 
L 284.163321 216.352902 
L 287.792225 210.986367 
L 289.104817 205.619832 
L 289.351915 205.392864 
L 295.693354 200.253297 
L 296.536433 194.886762 
L 296.146313 189.520227 
L 297.628769 186.156054 
L 299.687609 184.153692 
L 297.628769 182.818783 
L 289.351915 179.365025 
L 287.569412 178.787156 
L 281.075061 175.839597 
L 272.798206 177.452248 
L 268.134696 173.420621 
L 268.134696 168.054086 
L 272.798206 163.216134 
L 273.613444 162.687551 
L 272.798206 160.044637 
L 264.521352 158.476752 
L 261.401973 157.321016 
L 256.244498 155.410161 
L 247.967644 152.16399 
L 246.917478 151.954481 
L 239.69079 147.268851 
L 239.410746 146.587945 
L 236.820938 141.22141 
L 231.413936 137.715626 
L 229.082181 135.854875 
L 223.137082 132.0002 
L 214.860228 130.926089 
L 212.221025 130.48834 
L 206.583374 127.137618 
L 198.30652 127.320874 
L 190.62976 130.48834 
L 190.029665 131.033064 
L 183.832398 135.854875 
L 181.752811 136.866145 
L 173.475957 138.273851 
L 168.424795 141.22141 
L 165.199103 143.574314 
L 156.922249 144.677091 
L 151.764775 146.587945 
L 156.922249 151.046607 
L 161.122914 151.954481 
L 156.922249 154.678102 
L 154.884154 157.321016 
L 156.922249 159.96393 
L 158.322471 162.687551 
L 156.922249 162.959913 
L 154.821917 162.687551 
L 148.645395 160.017735 
L 146.174786 162.687551 
L 148.645395 165.357367 
L 149.779715 168.054086 
L 148.645395 169.402445 
L 140.368541 169.402445 
L 132.93182 173.420621 
L 132.091687 174.328495 
L 126.934212 178.787156 
L 123.814833 180.135516 
L 117.617565 184.153692 
L 115.537979 185.309428 
L 109.043627 189.520227 
L 107.261125 192.216945 
L 98.98427 192.211565 
L 93.826796 194.886762 
L 94.866589 200.253297 
L 90.707416 202.275836 
L 87.2691 205.619832 
L 83.480728 210.986367 
L 83.480728 216.352902 
L 82.430562 216.897627 
L 81.030341 216.352902 
L 74.153708 211.894241 
L 70.027729 216.352902 
L 71.065447 221.719438 
L 67.277076 227.085973 
L 65.876854 227.993846 
L 65.876854 232.452508 
L 65.876854 237.819043 
L 65.876854 243.185578 
L 65.876854 248.552113 
L 65.876854 253.918648 
L 65.876854 259.285184 
L 65.876854 259.643555 
L 66.280764 259.285184 
L 66.524389 253.918648 
L 66.684674 248.552113 
L 67.809381 243.185578 
L 69.335916 237.819043 
L 74.153708 234.472165 
L 78.514616 232.452508 
L 79.201169 227.085973 
L 82.430562 224.154555 
L 84.777877 221.719438 
L 90.707416 218.302027 
L 92.511108 216.352902 
L 95.216645 210.986367 
L 98.98427 208.05495 
L 101.666916 205.619832 
L 105.214139 200.253297 
L 107.261125 198.926075 
L 115.537979 198.704872 
L 120.585439 194.886762 
L 123.814833 191.955344 
L 126.944585 189.520227 
L 132.091687 184.514321 
L 140.368541 185.023376 
L 141.709863 184.153692 
L 147.434986 178.787156 
L 148.645395 177.479151 
L 156.922249 174.290306 
L 158.487125 173.420621 
L 156.922249 170.985504 
L 154.867181 168.054086 
L 156.922249 166.588377 
L 160.689875 168.054086 
L 165.199103 169.40348 
L 167.453717 168.054086 
L 171.087807 162.687551 
L 173.475957 161.758496 
L 181.752811 158.427887 
L 183.839313 157.321016 
L 190.029665 153.708693 
L 191.833357 151.954481 
L 190.029665 149.761715 
L 184.435457 146.587945 
L 190.029665 141.509914 
L 190.585867 141.22141 
L 198.30652 136.215505 
L 198.423615 135.854875 
L 200.531327 130.48834 
L 206.583374 130.161339 
L 207.13356 130.48834 
L 214.860228 131.769918 
L 223.137082 134.26799 
L 225.584548 135.854875 
L 231.413936 140.506752 
L 232.516159 141.22141 
L 235.679938 146.587945 
L 231.413936 151.197919 
L 230.247085 151.954481 
L 231.413936 153.089323 
L 239.69079 153.708693 
L 247.967644 154.955116 
L 252.711276 157.321016 
L 256.244498 160.184598 
L 262.42102 162.687551 
L 262.92986 168.054086 
L 263.809369 173.420621 
L 264.521352 174.025522 
L 271.391462 178.787156 
L 272.798206 180.450403 
L 278.192509 184.153692 
L 281.075061 186.957169 
L 285.398888 184.153692 
L 289.351915 181.956785 
L 293.664307 184.153692 
L 292.149019 189.520227 
L 293.591058 194.886762 
L 291.962545 200.253297 
L 289.351915 202.369143 
L 285.812927 205.619832 
L 281.075061 210.842116 
L 280.85258 210.986367 
L 278.167789 216.352902 
L 272.798206 220.370043 
L 270.86568 221.719438 
L 264.521352 225.832964 
L 262.44017 227.085973 
L 256.244498 231.103114 
L 254.163316 232.452508 
L 251.130065 237.819043 
L 247.967644 239.869489 
L 244.480531 243.185578 
L 239.69079 246.6017 
L 236.348413 248.552113 
L 231.413936 251.431582 
L 223.137082 252.73658 
L 214.860228 253.500979 
L 213.507459 253.918648 
L 206.583374 258.408077 
L 204.991881 259.285184 
L 199.500595 264.651719 
L 198.30652 267.74857 
L 196.259534 264.651719 
L 190.029665 262.632062 
L 181.752811 264.293348 
L 181.002693 264.651719 
L 173.475957 269.907291 
L 172.363553 270.018254 
L 166.063681 275.384789 
L 165.199103 276.169593 
L 160.782575 280.751324 
L 156.922249 282.976171 
L 154.357009 286.117859 
L 156.922249 288.002872 
L 165.199103 287.090581 
L 173.475957 287.754192 
L 181.752811 286.839118 
L 183.543924 291.484395 
L 181.752811 292.41345 
L 173.475957 295.836297 
L 165.199103 295.878208 
L 161.698549 296.85093 
L 156.922249 297.565588 
L 153.340024 296.85093 
L 148.645395 295.633371 
L 143.950766 296.85093 
L 140.368541 297.779985 
L 132.091687 299.607183 
L 123.814833 299.974683 
L 115.537979 301.693692 
L 112.912563 302.217465 
z
M 172.075736 280.751324 
L 173.475957 278.027703 
L 174.176068 280.751324 
L 173.475957 281.659198 
z
M 187.003642 275.384789 
L 189.357216 270.018254 
L 190.029665 269.364251 
L 193.055689 270.018254 
L 190.63487 275.384789 
L 190.029665 275.875291 
z
M 180.193122 270.018254 
L 181.752811 268.862517 
L 183.139202 270.018254 
L 181.752811 271.173991 
z
M 170.356578 157.321016 
L 173.475957 155.702985 
L 175.555544 157.321016 
L 173.475957 158.130031 
z
" style="fill:#d3d3d3;"/>
    <path clip-path="url(#p760ce03ae4)" d="M 98.98427 222.338442 
L 100.034437 221.719438 
L 98.98427 221.195664 
L 97.484033 221.719438 
z
" style="fill:#d3d3d3;"/>
    <path clip-path="url(#p760ce03ae4)" d="M 74.153708 209.624557 
L 76.624317 205.619832 
L 74.153708 203.61747 
L 72.094868 205.619832 
z
" style="fill:#d3d3d3;"/>
    <path clip-path="url(#p760ce03ae4)" d="M 115.537979 206.238837 
L 117.038216 205.619832 
L 115.537979 203.350148 
L 113.787702 205.619832 
z
" style="fill:#d3d3d3;"/>
    <path clip-path="url(#p760ce03ae4)" d="M 140.368541 200.611668 
L 140.80611 200.253297 
L 140.368541 199.118455 
L 139.560721 200.253297 
z
" style="fill:#d3d3d3;"/>
    <path clip-path="url(#p760ce03ae4)" d="M 140.368541 152.835452 
L 141.727271 151.954481 
L 140.368541 151.425898 
L 139.349494 151.954481 
z
" style="fill:#d3d3d3;"/>
   </g>
   <g id="PathCollection_5">
    <path clip-path="url(#p760ce03ae4)" d="M 74.153708 302.217465 
L 82.430562 302.217465 
L 90.707416 302.217465 
L 98.98427 302.217465 
L 107.261125 302.217465 
L 112.912563 302.217465 
L 115.537979 301.693692 
L 123.814833 299.974683 
L 132.091687 299.607183 
L 140.368541 297.779985 
L 143.950766 296.85093 
L 148.645395 295.633371 
L 153.340024 296.85093 
L 156.922249 297.565588 
L 161.698549 296.85093 
L 165.199103 295.878208 
L 173.475957 295.836297 
L 181.752811 292.41345 
L 183.543924 291.484395 
L 181.752811 286.839118 
L 173.475957 287.754192 
L 165.199103 287.090581 
L 156.922249 288.002872 
L 154.357009 286.117859 
L 156.922249 282.976171 
L 160.782575 280.751324 
L 165.199103 276.169593 
L 166.063681 275.384789 
L 172.363553 270.018254 
L 173.475957 269.907291 
L 181.002693 264.651719 
L 181.752811 264.293348 
L 190.029665 262.632062 
L 196.259534 264.651719 
L 198.30652 267.74857 
L 199.500595 264.651719 
L 204.991881 259.285184 
L 206.583374 258.408077 
L 213.507459 253.918648 
L 214.860228 253.500979 
L 223.137082 252.73658 
L 231.413936 251.431582 
L 236.348413 248.552113 
L 239.69079 246.6017 
L 244.480531 243.185578 
L 247.967644 239.869489 
L 251.130065 237.819043 
L 254.163316 232.452508 
L 256.244498 231.103114 
L 262.44017 227.085973 
L 264.521352 225.832964 
L 270.86568 221.719438 
L 272.798206 220.370043 
L 278.167789 216.352902 
L 280.85258 210.986367 
L 281.075061 210.842116 
L 285.812927 205.619832 
L 289.351915 202.369143 
L 291.962545 200.253297 
L 293.591058 194.886762 
L 292.149019 189.520227 
L 293.664307 184.153692 
L 289.351915 181.956785 
L 285.398888 184.153692 
L 281.075061 186.957169 
L 278.192509 184.153692 
L 272.798206 180.450403 
L 271.391462 178.787156 
L 264.521352 174.025522 
L 263.809369 173.420621 
L 262.92986 168.054086 
L 262.42102 162.687551 
L 256.244498 160.184598 
L 252.711276 157.321016 
L 247.967644 154.955116 
L 239.69079 153.708693 
L 231.413936 153.089323 
L 230.247085 151.954481 
L 231.413936 151.197919 
L 235.679938 146.587945 
L 232.516159 141.22141 
L 231.413936 140.506752 
L 225.584548 135.854875 
L 223.137082 134.26799 
L 214.860228 131.769918 
L 207.13356 130.48834 
L 206.583374 130.161339 
L 200.531327 130.48834 
L 198.423615 135.854875 
L 198.30652 136.215505 
L 190.585867 141.22141 
L 190.029665 141.509914 
L 184.435457 146.587945 
L 190.029665 149.761715 
L 191.833357 151.954481 
L 190.029665 153.708693 
L 183.839313 157.321016 
L 181.752811 158.427887 
L 173.475957 161.758496 
L 171.087807 162.687551 
L 167.453717 168.054086 
L 165.199103 169.40348 
L 160.689875 168.054086 
L 156.922249 166.588377 
L 154.867181 168.054086 
L 156.922249 170.985504 
L 158.487125 173.420621 
L 156.922249 174.290306 
L 148.645395 177.479151 
L 147.434986 178.787156 
L 141.709863 184.153692 
L 140.368541 185.023376 
L 132.091687 184.514321 
L 126.944585 189.520227 
L 123.814833 191.955344 
L 120.585439 194.886762 
L 115.537979 198.704872 
L 107.261125 198.926075 
L 105.214139 200.253297 
L 101.666916 205.619832 
L 98.98427 208.05495 
L 95.216645 210.986367 
L 92.511108 216.352902 
L 90.707416 218.302027 
L 84.777877 221.719438 
L 82.430562 224.154555 
L 79.201169 227.085973 
L 78.514616 232.452508 
L 74.153708 234.472165 
L 69.335916 237.819043 
L 67.809381 243.185578 
L 66.684674 248.552113 
L 66.524389 253.918648 
L 66.280764 259.285184 
L 65.876854 259.643555 
L 65.876854 264.41785 
L 71.661737 259.285184 
L 71.34871 253.918648 
L 74.153708 250.402494 
L 78.434494 248.552113 
L 82.430562 244.233839 
L 89.090675 248.552113 
L 82.430562 251.430963 
L 79.964062 253.918648 
L 80.632832 259.285184 
L 82.430562 261.616403 
L 90.707416 262.034382 
L 94.005281 259.285184 
L 98.98427 254.442779 
L 103.834494 253.918648 
L 107.261125 253.283862 
L 108.240162 253.918648 
L 115.182081 259.285184 
L 107.261125 260.99711 
L 98.98427 263.159108 
L 95.845088 264.651719 
L 93.875799 270.018254 
L 98.98427 271.858378 
L 105.36986 270.018254 
L 107.261125 269.03725 
L 115.537979 264.693675 
L 115.680338 264.651719 
L 123.814833 262.14018 
L 131.520582 259.285184 
L 132.091687 258.881228 
L 140.368541 254.532127 
L 141.866649 253.918648 
L 144.862866 248.552113 
L 148.645395 246.917106 
L 156.922249 244.604131 
L 159.110095 243.185578 
L 161.162361 237.819043 
L 165.199103 235.201706 
L 168.909201 232.452508 
L 173.475957 228.808216 
L 176.132189 227.085973 
L 176.709439 221.719438 
L 181.752811 219.757429 
L 186.128504 216.352902 
L 190.029665 214.45583 
L 193.08737 210.986367 
L 198.30652 205.722391 
L 198.78105 205.619832 
L 198.30652 205.158319 
L 193.263148 200.253297 
L 194.346042 194.886762 
L 190.029665 192.851383 
L 181.752811 192.165035 
L 173.475957 193.963735 
L 173.001426 194.886762 
L 165.199103 196.573048 
L 156.922249 195.775463 
L 156.299225 194.886762 
L 156.922249 194.331323 
L 163.517979 189.520227 
L 165.199103 188.430222 
L 173.475957 188.40935 
L 177.85165 184.153692 
L 178.422755 178.787156 
L 181.752811 176.431734 
L 190.029665 173.605227 
L 190.314384 173.420621 
L 198.30652 171.427571 
L 203.943055 168.054086 
L 202.682212 162.687551 
L 206.583374 161.422836 
L 213.484763 157.321016 
L 214.860228 156.429194 
L 223.137082 153.712404 
L 228.16407 157.321016 
L 231.413936 161.675779 
L 234.757789 162.687551 
L 239.69079 163.27674 
L 245.290579 168.054086 
L 247.967644 169.862161 
L 256.244498 168.864688 
L 260.12765 173.420621 
L 264.521352 177.153508 
L 266.878388 178.787156 
L 271.887401 184.153692 
L 272.798206 185.475392 
L 277.650283 189.520227 
L 281.075061 191.097988 
L 287.605986 194.886762 
L 288.207075 200.253297 
L 281.075061 205.156112 
L 280.250594 205.619832 
L 272.798206 210.451801 
L 271.962128 210.986367 
L 269.971465 216.352902 
L 264.521352 220.063326 
L 260.591759 221.719438 
L 256.244498 224.336775 
L 252.752641 227.085973 
L 247.967644 230.188462 
L 244.257546 232.452508 
L 242.830478 237.819043 
L 239.69079 241.150199 
L 236.237689 243.185578 
L 231.413936 245.791927 
L 228.008288 248.552113 
L 223.137082 249.987743 
L 214.860228 251.341179 
L 206.583374 253.876693 
L 198.30652 252.79919 
L 196.148332 253.918648 
L 190.029665 257.092418 
L 182.514285 259.285184 
L 181.752811 259.519052 
L 173.475957 260.920191 
L 168.542956 264.651719 
L 165.199103 265.494862 
L 161.297942 264.651719 
L 156.922249 264.255844 
L 155.540451 264.651719 
L 148.645395 268.696554 
L 140.368541 269.104602 
L 136.98662 270.018254 
L 132.091687 273.192024 
L 123.814833 274.875944 
L 121.512765 275.384789 
L 115.537979 278.151878 
L 107.261125 279.943465 
L 102.617059 280.751324 
L 98.98427 284.452703 
L 90.707416 285.276777 
L 89.280488 286.117859 
L 82.430562 291.242488 
L 81.859948 291.484395 
L 82.430562 292.742307 
L 90.707416 294.85788 
L 96.416085 296.85093 
L 90.707416 298.290355 
L 82.430562 297.878085 
L 74.153708 299.819268 
L 72.098842 302.217465 
z
M 107.464495 291.484395 
L 115.537979 288.867057 
L 123.814833 287.665371 
L 129.214103 291.484395 
L 123.814833 294.109973 
L 115.537979 294.537954 
z
M 137.846855 291.484395 
L 140.368541 290.592572 
L 141.744006 291.484395 
L 140.368541 292.061456 
z
M 114.558941 248.552113 
L 113.016293 243.185578 
L 115.537979 242.531575 
L 116.798822 243.185578 
L 116.517016 248.552113 
L 115.537979 249.1869 
z
M 120.388202 232.452508 
L 123.814833 232.048553 
L 124.437857 232.452508 
L 123.814833 232.896859 
z
M 97.484033 221.719438 
L 98.98427 221.195664 
L 100.034437 221.719438 
L 98.98427 222.338442 
z
M 113.787702 205.619832 
L 115.537979 203.350148 
L 117.038216 205.619832 
L 115.537979 206.238837 
z
M 139.683215 205.619832 
L 140.368541 205.385963 
L 141.130014 205.619832 
L 140.368541 206.360417 
z
M 139.560721 200.253297 
L 140.368541 199.118455 
L 140.80611 200.253297 
L 140.368541 200.611668 
z
M 146.635498 200.253297 
L 148.645395 198.298535 
L 153.469148 200.253297 
L 148.645395 202.48731 
z
M 195.332078 146.587945 
L 198.30652 144.75581 
L 206.093855 141.22141 
L 205.787052 135.854875 
L 206.583374 135.309873 
L 214.860228 133.879491 
L 219.539016 135.854875 
L 214.860228 139.000858 
L 207.154479 141.22141 
L 210.603168 146.587945 
L 206.583374 149.194294 
L 198.30652 149.641505 
z
" style="fill:#b8b8b8;"/>
    <path clip-path="url(#p760ce03ae4)" d="M 74.153708 281.473555 
L 75.534949 280.751324 
L 74.153708 278.263639 
L 72.584117 280.751324 
z
" style="fill:#b8b8b8;"/>
    <path clip-path="url(#p760ce03ae4)" d="M 190.029665 275.875291 
L 190.63487 275.384789 
L 193.055689 270.018254 
L 190.029665 269.364251 
L 189.357216 270.018254 
L 187.003642 275.384789 
z
" style="fill:#b8b8b8;"/>
    <path clip-path="url(#p760ce03ae4)" d="M 82.430562 272.450059 
L 86.181156 270.018254 
L 82.430562 267.181149 
L 77.179731 270.018254 
z
" style="fill:#b8b8b8;"/>
    <path clip-path="url(#p760ce03ae4)" d="M 173.475957 243.99618 
L 175.351254 243.185578 
L 173.475957 241.638066 
L 171.288111 243.185578 
z
" style="fill:#b8b8b8;"/>
    <path clip-path="url(#p760ce03ae4)" d="M 206.583374 244.368515 
L 208.179771 243.185578 
L 206.583374 241.911646 
L 202.326314 243.185578 
z
" style="fill:#b8b8b8;"/>
    <path clip-path="url(#p760ce03ae4)" d="M 214.860228 238.40603 
L 215.797876 237.819043 
L 214.860228 237.045287 
L 213.718743 237.819043 
z
" style="fill:#b8b8b8;"/>
   </g>
   <g id="PathCollection_6">
    <path clip-path="url(#p760ce03ae4)" d="M 74.153708 299.819268 
L 82.430562 297.878085 
L 90.707416 298.290355 
L 96.416085 296.85093 
L 90.707416 294.85788 
L 82.430562 292.742307 
L 81.859948 291.484395 
L 82.430562 291.242488 
L 89.280488 286.117859 
L 90.707416 285.276777 
L 98.98427 284.452703 
L 102.617059 280.751324 
L 107.261125 279.943465 
L 115.537979 278.151878 
L 121.512765 275.384789 
L 123.814833 274.875944 
L 132.091687 273.192024 
L 136.98662 270.018254 
L 140.368541 269.104602 
L 148.645395 268.696554 
L 155.540451 264.651719 
L 156.922249 264.255844 
L 161.297942 264.651719 
L 165.199103 265.494862 
L 168.542956 264.651719 
L 173.475957 260.920191 
L 181.752811 259.519052 
L 182.514285 259.285184 
L 190.029665 257.092418 
L 196.148332 253.918648 
L 198.30652 252.79919 
L 206.583374 253.876693 
L 214.860228 251.341179 
L 223.137082 249.987743 
L 228.008288 248.552113 
L 231.413936 245.791927 
L 236.237689 243.185578 
L 239.69079 241.150199 
L 242.830478 237.819043 
L 244.257546 232.452508 
L 247.967644 230.188462 
L 252.752641 227.085973 
L 256.244498 224.336775 
L 260.591759 221.719438 
L 264.521352 220.063326 
L 269.971465 216.352902 
L 271.962128 210.986367 
L 272.798206 210.451801 
L 280.250594 205.619832 
L 281.075061 205.156112 
L 288.207075 200.253297 
L 287.605986 194.886762 
L 281.075061 191.097988 
L 277.650283 189.520227 
L 272.798206 185.475392 
L 271.887401 184.153692 
L 266.878388 178.787156 
L 264.521352 177.153508 
L 260.12765 173.420621 
L 256.244498 168.864688 
L 247.967644 169.862161 
L 245.290579 168.054086 
L 239.69079 163.27674 
L 234.757789 162.687551 
L 231.413936 161.675779 
L 228.16407 157.321016 
L 223.137082 153.712404 
L 214.860228 156.429194 
L 213.484763 157.321016 
L 206.583374 161.422836 
L 202.682212 162.687551 
L 203.943055 168.054086 
L 198.30652 171.427571 
L 190.314384 173.420621 
L 190.029665 173.605227 
L 181.752811 176.431734 
L 178.422755 178.787156 
L 177.85165 184.153692 
L 173.475957 188.40935 
L 165.199103 188.430222 
L 163.517979 189.520227 
L 156.922249 194.331323 
L 156.299225 194.886762 
L 156.922249 195.775463 
L 165.199103 196.573048 
L 173.001426 194.886762 
L 173.475957 193.963735 
L 181.752811 192.165035 
L 190.029665 192.851383 
L 194.346042 194.886762 
L 193.263148 200.253297 
L 198.30652 205.158319 
L 198.78105 205.619832 
L 198.30652 205.722391 
L 193.08737 210.986367 
L 190.029665 214.45583 
L 186.128504 216.352902 
L 181.752811 219.757429 
L 176.709439 221.719438 
L 176.132189 227.085973 
L 173.475957 228.808216 
L 168.909201 232.452508 
L 165.199103 235.201706 
L 161.162361 237.819043 
L 159.110095 243.185578 
L 156.922249 244.604131 
L 148.645395 246.917106 
L 144.862866 248.552113 
L 141.866649 253.918648 
L 140.368541 254.532127 
L 132.091687 258.881228 
L 131.520582 259.285184 
L 123.814833 262.14018 
L 115.680338 264.651719 
L 115.537979 264.693675 
L 107.261125 269.03725 
L 105.36986 270.018254 
L 98.98427 271.858378 
L 93.875799 270.018254 
L 95.845088 264.651719 
L 98.98427 263.159108 
L 107.261125 260.99711 
L 115.182081 259.285184 
L 108.240162 253.918648 
L 107.261125 253.283862 
L 103.834494 253.918648 
L 98.98427 254.442779 
L 94.005281 259.285184 
L 90.707416 262.034382 
L 82.430562 261.616403 
L 80.632832 259.285184 
L 79.964062 253.918648 
L 82.430562 251.430963 
L 89.090675 248.552113 
L 82.430562 244.233839 
L 78.434494 248.552113 
L 74.153708 250.402494 
L 71.34871 253.918648 
L 71.661737 259.285184 
L 65.876854 264.41785 
L 65.876854 264.651719 
L 65.876854 270.018254 
L 65.876854 275.384789 
L 65.876854 280.751324 
L 65.876854 286.117859 
L 65.876854 291.484395 
L 65.876854 296.85093 
L 65.876854 302.217465 
L 72.098842 302.217465 
z
M 72.584117 280.751324 
L 74.153708 278.263639 
L 75.534949 280.751324 
L 74.153708 281.473555 
z
M 77.179731 270.018254 
L 82.430562 267.181149 
L 86.181156 270.018254 
L 82.430562 272.450059 
z
M 171.288111 243.185578 
L 173.475957 241.638066 
L 175.351254 243.185578 
L 173.475957 243.99618 
z
M 202.326314 243.185578 
L 206.583374 241.911646 
L 208.179771 243.185578 
L 206.583374 244.368515 
z
M 213.718743 237.819043 
L 214.860228 237.045287 
L 215.797876 237.819043 
L 214.860228 238.40603 
z
" style="fill:#a0a0a0;"/>
    <path clip-path="url(#p760ce03ae4)" d="M 115.537979 294.537954 
L 123.814833 294.109973 
L 129.214103 291.484395 
L 123.814833 287.665371 
L 115.537979 288.867057 
L 107.464495 291.484395 
z
" style="fill:#a0a0a0;"/>
    <path clip-path="url(#p760ce03ae4)" d="M 140.368541 292.061456 
L 141.744006 291.484395 
L 140.368541 290.592572 
L 137.846855 291.484395 
z
" style="fill:#a0a0a0;"/>
    <path clip-path="url(#p760ce03ae4)" d="M 115.537979 249.1869 
L 116.517016 248.552113 
L 116.798822 243.185578 
L 115.537979 242.531575 
L 113.016293 243.185578 
L 114.558941 248.552113 
z
" style="fill:#a0a0a0;"/>
    <path clip-path="url(#p760ce03ae4)" d="M 123.814833 232.896859 
L 124.437857 232.452508 
L 123.814833 232.048553 
L 120.388202 232.452508 
z
" style="fill:#a0a0a0;"/>
    <path clip-path="url(#p760ce03ae4)" d="M 140.368541 206.360417 
L 141.130014 205.619832 
L 140.368541 205.385963 
L 139.683215 205.619832 
z
" style="fill:#a0a0a0;"/>
    <path clip-path="url(#p760ce03ae4)" d="M 148.645395 202.48731 
L 153.469148 200.253297 
L 148.645395 198.298535 
L 146.635498 200.253297 
z
" style="fill:#a0a0a0;"/>
    <path clip-path="url(#p760ce03ae4)" d="M 198.30652 149.641505 
L 206.583374 149.194294 
L 210.603168 146.587945 
L 207.154479 141.22141 
L 214.860228 139.000858 
L 219.539016 135.854875 
L 214.860228 133.879491 
L 206.583374 135.309873 
L 205.787052 135.854875 
L 206.093855 141.22141 
L 198.30652 144.75581 
L 195.332078 146.587945 
z
" style="fill:#a0a0a0;"/>
   </g>
   <g id="PathCollection_7">
    <path clip-path="url(#p760ce03ae4)" d="M 67.214498 307.584 
L 70.419331 307.584 
L 73.624164 307.584 
L 76.828997 307.584 
L 80.033829 307.584 
L 83.238662 307.584 
L 86.443495 307.584 
L 89.648328 307.584 
L 92.853161 307.584 
L 96.057993 307.584 
L 99.262826 307.584 
L 102.467659 307.584 
L 105.672492 307.584 
L 108.877324 307.584 
L 112.082157 307.584 
L 115.28699 307.584 
L 118.491823 307.584 
L 121.696656 307.584 
L 124.901488 307.584 
L 128.106321 307.584 
L 128.446984 307.584 
L 129.622506 306.869346 
L 130.493917 306.154692 
L 130.902179 305.440039 
L 130.855593 304.725385 
L 130.549353 304.010731 
L 129.860407 303.296077 
L 128.869891 302.581424 
L 128.106321 302.137664 
L 127.554436 301.86677 
L 125.841548 301.152116 
L 124.901488 300.859771 
L 123.742288 300.437462 
L 121.696656 299.753035 
L 121.604798 299.722808 
L 119.395632 299.008155 
L 118.491823 298.74772 
L 116.798554 298.293501 
L 115.28699 297.943432 
L 113.648699 297.578847 
L 112.082157 297.206096 
L 110.62036 296.864193 
L 108.877324 296.407754 
L 107.814657 296.149539 
L 105.672492 295.670032 
L 104.249995 295.434886 
L 102.467659 295.143588 
L 100.239359 294.720232 
L 99.262826 294.514384 
L 96.057993 294.08014 
L 95.443239 294.005578 
L 92.853161 293.715736 
L 89.648328 293.420137 
L 87.449387 293.290924 
L 86.443495 293.234667 
L 83.238662 293.151241 
L 80.033829 293.157531 
L 76.828997 293.256189 
L 76.051607 293.290924 
L 73.624164 293.404536 
L 70.419331 293.659951 
L 70.013155 294.005578 
L 69.275449 294.720232 
L 68.50323 295.434886 
L 67.79069 296.149539 
L 67.214498 296.806177 
L 67.201852 296.864193 
L 67.027668 297.578847 
L 66.851609 298.293501 
L 66.706997 299.008155 
L 66.582429 299.722808 
L 66.465308 300.437462 
L 66.359847 301.152116 
L 66.283271 301.86677 
L 66.219318 302.581424 
L 66.168363 303.296077 
L 66.132922 304.010731 
L 66.117168 304.725385 
L 66.114771 305.440039 
L 66.135773 306.154692 
L 66.180601 306.869346 
L 66.241073 307.584 
z
" style="fill:#4d94ff;fill-opacity:0.2;"/>
   </g>
   <g id="PathCollection_8">
    <path clip-path="url(#p760ce03ae4)" d="M 72.868877 307.584 
L 75.922652 307.584 
L 78.976428 307.584 
L 82.030203 307.584 
L 85.083979 307.584 
L 88.137754 307.584 
L 91.191529 307.584 
L 94.245305 307.584 
L 97.29908 307.584 
L 100.352855 307.584 
L 103.406631 307.584 
L 106.460406 307.584 
L 109.514182 307.584 
L 112.567957 307.584 
L 115.621732 307.584 
L 118.675508 307.584 
L 121.729283 307.584 
L 124.783059 307.584 
L 127.836834 307.584 
L 130.890609 307.584 
L 133.944385 307.584 
L 136.99816 307.584 
L 140.051936 307.584 
L 143.105711 307.584 
L 146.159486 307.584 
L 149.213262 307.584 
L 152.267037 307.584 
L 155.320813 307.584 
L 156.857978 307.584 
L 158.374588 306.945462 
L 160.363327 306.136359 
L 161.428363 305.707837 
L 163.623974 304.688718 
L 164.482139 304.236527 
L 166.263088 303.241076 
L 167.535914 302.488397 
L 168.694557 301.793435 
L 170.589689 300.584771 
L 170.937048 300.345794 
L 172.386028 298.898153 
L 173.643465 297.944779 
L 174.182119 297.450512 
L 175.848373 296.00287 
L 176.69724 295.100743 
L 177.210764 294.555229 
L 178.383835 293.107588 
L 179.420831 291.659947 
L 179.751016 290.753577 
L 179.927601 290.212306 
L 180.22891 288.764665 
L 180.22891 287.317023 
L 179.751016 285.936324 
L 179.725126 285.869382 
L 179.177378 284.421741 
L 178.3112 282.9741 
L 177.40341 281.526459 
L 176.69724 280.434394 
L 176.469281 280.078817 
L 175.46258 278.631176 
L 174.109532 277.183535 
L 173.643465 276.757029 
L 172.292899 275.735894 
L 170.589689 274.685893 
L 169.891298 274.288253 
L 167.535914 273.035739 
L 167.162104 272.840611 
L 164.482139 271.405892 
L 164.456494 271.39297 
L 161.428363 270.385369 
L 159.878037 269.945329 
L 158.374588 269.463324 
L 155.432316 268.497688 
L 155.320813 268.47239 
L 152.267037 267.889562 
L 149.213262 267.358683 
L 147.390878 267.050047 
L 146.159486 266.847477 
L 143.105711 266.354458 
L 140.051936 265.937595 
L 137.703943 265.602406 
L 136.99816 265.512432 
L 133.944385 265.173691 
L 130.890609 264.863317 
L 127.836834 264.543485 
L 124.783059 264.172685 
L 124.571451 264.154764 
L 121.729283 263.902581 
L 118.675508 263.506523 
L 115.621732 263.256246 
L 112.567957 263.107755 
L 109.514182 263.008925 
L 106.460406 263.008925 
L 103.406631 263.171245 
L 100.352855 263.360004 
L 97.29908 263.618626 
L 94.245305 263.958061 
L 92.785078 264.154764 
L 91.191529 264.361589 
L 88.137754 264.92516 
L 85.083979 265.429699 
L 84.220093 265.602406 
L 82.030203 266.09984 
L 78.976428 266.932194 
L 78.547862 267.050047 
L 75.922652 267.807359 
L 73.492434 268.497688 
L 72.868877 268.756237 
L 70.520423 269.945329 
L 69.815102 270.267911 
L 69.341752 271.39297 
L 68.955613 272.840611 
L 68.572367 274.288253 
L 68.225231 275.735894 
L 67.947333 277.183535 
L 67.714507 278.631176 
L 67.541279 280.078817 
L 67.383697 281.526459 
L 67.231548 282.9741 
L 67.086373 284.421741 
L 66.994569 285.869382 
L 66.90172 287.317023 
L 66.90172 288.764665 
L 66.957524 290.212306 
L 67.04557 291.659947 
L 67.219374 293.107588 
L 67.415985 294.555229 
L 67.648122 296.00287 
L 67.934842 297.450512 
L 68.211599 298.898153 
L 68.423705 300.345794 
L 68.739977 301.793435 
L 69.083948 303.241076 
L 69.457771 304.688718 
L 69.815102 305.873448 
L 70.220624 306.136359 
L 72.457761 307.584 
z
" style="fill:#ff8533;fill-opacity:0.2;"/>
   </g>
   <g id="PathCollection_9">
    <path clip-path="url(#p760ce03ae4)" d="M 63.245493 307.584 
L 66.068239 307.584 
L 68.890986 307.584 
L 71.713732 307.584 
L 74.536479 307.584 
L 77.359225 307.584 
L 80.181972 307.584 
L 83.004718 307.584 
L 85.827464 307.584 
L 88.650211 307.584 
L 91.472957 307.584 
L 94.295704 307.584 
L 97.11845 307.584 
L 99.941197 307.584 
L 102.763943 307.584 
L 105.58669 307.584 
L 108.409436 307.584 
L 111.232182 307.584 
L 114.054929 307.584 
L 116.877675 307.584 
L 119.700422 307.584 
L 122.523168 307.584 
L 125.345915 307.584 
L 128.168661 307.584 
L 130.991408 307.584 
L 133.814154 307.584 
L 136.6369 307.584 
L 139.459647 307.584 
L 142.282393 307.584 
L 145.10514 307.584 
L 147.927886 307.584 
L 150.750633 307.584 
L 153.573379 307.584 
L 156.396126 307.584 
L 159.218872 307.584 
L 162.041619 307.584 
L 164.864365 307.584 
L 165.840634 307.584 
L 166.699574 306.785328 
L 166.849691 305.986656 
L 166.353754 305.187984 
L 165.527599 304.389312 
L 164.864365 304.030811 
L 163.920018 303.590639 
L 162.041619 303.068435 
L 161.093244 302.791967 
L 159.218872 302.240201 
L 158.382041 301.993295 
L 156.396126 301.518625 
L 154.839534 301.194623 
L 153.573379 300.964085 
L 150.750633 300.537688 
L 149.455432 300.395951 
L 147.927886 300.24139 
L 145.10514 299.874287 
L 142.475936 299.597279 
L 142.282393 299.575861 
L 139.459647 299.329238 
L 136.6369 299.074766 
L 133.814154 298.860543 
L 132.951712 298.798607 
L 130.991408 298.644999 
L 128.168661 298.430948 
L 125.345915 298.207564 
L 122.962564 297.999935 
L 122.523168 297.96924 
L 119.700422 297.793378 
L 116.877675 297.632778 
L 114.054929 297.462119 
L 111.232182 297.301185 
L 109.498916 297.201263 
L 108.409436 297.12916 
L 105.58669 296.957558 
L 102.763943 296.837311 
L 99.941197 296.671596 
L 97.11845 296.543293 
L 94.295704 296.438124 
L 93.315377 296.402591 
L 91.472957 296.321884 
L 88.650211 296.189004 
L 85.827464 296.117351 
L 83.004718 296.077966 
L 80.181972 296.036407 
L 77.359225 296.036407 
L 74.536479 296.084186 
L 71.713732 296.174155 
L 68.890986 296.3086 
L 67.280836 296.402591 
L 66.068239 296.461388 
L 65.344384 297.201263 
L 64.574824 297.999935 
L 64.038787 298.798607 
L 63.522016 299.597279 
L 63.245493 300.040702 
L 63.157199 300.395951 
L 62.98622 301.194623 
L 62.848006 301.993295 
L 62.741879 302.791967 
L 62.639263 303.590639 
L 62.579751 304.389312 
L 62.546974 305.187984 
L 62.527298 305.986656 
L 62.533254 306.785328 
L 62.567331 307.584 
z
" style="fill:#00b300;fill-opacity:0.2;"/>
   </g>
   <g id="PathCollection_10">
    <path clip-path="url(#p760ce03ae4)" d="M 72.877623 307.584 
L 80.516434 307.584 
L 88.155246 307.584 
L 95.794057 307.584 
L 103.432868 307.584 
L 111.07168 307.584 
L 118.710491 307.584 
L 126.349302 307.584 
L 133.988114 307.584 
L 141.626925 307.584 
L 149.265737 307.584 
L 156.904548 307.584 
L 164.543359 307.584 
L 172.182171 307.584 
L 179.820982 307.584 
L 187.459793 307.584 
L 195.098605 307.584 
L 202.737416 307.584 
L 210.376228 307.584 
L 218.015039 307.584 
L 225.65385 307.584 
L 233.292662 307.584 
L 240.931473 307.584 
L 248.570284 307.584 
L 256.209096 307.584 
L 263.847907 307.584 
L 271.486719 307.584 
L 279.12553 307.584 
L 286.764341 307.584 
L 294.403153 307.584 
L 302.041964 307.584 
L 309.680775 307.584 
L 317.319587 307.584 
L 324.958398 307.584 
L 332.59721 307.584 
L 340.236021 307.584 
L 347.874832 307.584 
L 355.513644 307.584 
L 363.152455 307.584 
L 370.791266 307.584 
L 378.430078 307.584 
L 386.068889 307.584 
L 393.707701 307.584 
L 401.346512 307.584 
L 408.985323 307.584 
L 416.624135 307.584 
L 424.262946 307.584 
L 431.901757 307.584 
L 431.901757 306.663646 
L 431.901757 305.743292 
L 431.901757 304.822939 
L 431.901757 303.902585 
L 431.901757 302.982231 
L 431.901757 302.061877 
L 431.901757 301.141523 
L 431.901757 300.22117 
L 431.901757 299.496139 
L 424.262946 299.496139 
L 416.624135 299.496139 
L 408.985323 299.496139 
L 401.346512 299.496139 
L 393.707701 299.496139 
L 386.068889 299.496139 
L 378.430078 299.496139 
L 370.791266 299.496139 
L 363.152455 299.496139 
L 355.513644 299.496139 
L 347.874832 299.496139 
L 340.236021 299.496139 
L 332.59721 299.496139 
L 324.958398 299.496139 
L 317.319587 299.496139 
L 309.680775 299.496139 
L 302.041964 299.496139 
L 294.403153 299.496139 
L 286.764341 299.496139 
L 279.12553 299.496139 
L 271.486719 299.496139 
L 263.847907 299.496139 
L 256.209096 299.496139 
L 248.570284 299.496139 
L 240.931473 299.496139 
L 233.292662 299.496139 
L 225.65385 299.496139 
L 218.015039 299.496139 
L 210.376228 299.496139 
L 202.737416 299.496139 
L 195.098605 299.496139 
L 193.354799 299.300816 
L 187.459793 298.680767 
L 185.019139 298.380462 
L 179.820982 297.861567 
L 175.022375 297.460108 
L 172.182171 297.199321 
L 164.543359 296.692098 
L 161.302032 296.539754 
L 156.904548 296.309426 
L 149.265737 296.08842 
L 141.626925 295.980507 
L 133.988114 295.957739 
L 126.349302 296.042657 
L 118.710491 296.246669 
L 111.07168 296.474556 
L 109.071462 296.539754 
L 103.432868 296.702323 
L 95.794057 296.997197 
L 88.155246 297.376243 
L 86.379366 297.460108 
L 80.516434 297.703713 
L 72.877623 297.970176 
L 72.450094 298.380462 
L 71.703919 299.300816 
L 71.060863 300.22117 
L 70.389587 301.141523 
L 69.960844 302.061877 
L 69.609916 302.982231 
L 69.297774 303.902585 
L 69.108481 304.822939 
L 69.025115 305.743292 
L 69.023924 306.663646 
L 69.096835 307.584 
z
" style="fill:#ffff33;fill-opacity:0.2;"/>
   </g>
   <g id="matplotlib.axis_1">
    <g id="xtick_1">
     <g id="line2d_1">
      <defs>
       <path d="M 0 0 
L 0 3.5 
" id="ma60a70ebef" style="stroke:#000000;stroke-width:0.8;"/>
      </defs>
      <g>
       <use style="stroke:#000000;stroke-width:0.8;" x="57.6" xlink:href="#ma60a70ebef" y="307.584"/>
      </g>
     </g>
     <g id="text_1">
      <!-- 0.00 -->
      <defs>
       <path d="M 31.78125 66.40625 
Q 24.171875 66.40625 20.328125 58.90625 
Q 16.5 51.421875 16.5 36.375 
Q 16.5 21.390625 20.328125 13.890625 
Q 24.171875 6.390625 31.78125 6.390625 
Q 39.453125 6.390625 43.28125 13.890625 
Q 47.125 21.390625 47.125 36.375 
Q 47.125 51.421875 43.28125 58.90625 
Q 39.453125 66.40625 31.78125 66.40625 
z
M 31.78125 74.21875 
Q 44.046875 74.21875 50.515625 64.515625 
Q 56.984375 54.828125 56.984375 36.375 
Q 56.984375 17.96875 50.515625 8.265625 
Q 44.046875 -1.421875 31.78125 -1.421875 
Q 19.53125 -1.421875 13.0625 8.265625 
Q 6.59375 17.96875 6.59375 36.375 
Q 6.59375 54.828125 13.0625 64.515625 
Q 19.53125 74.21875 31.78125 74.21875 
z
" id="DejaVuSans-48"/>
       <path d="M 10.6875 12.40625 
L 21 12.40625 
L 21 0 
L 10.6875 0 
z
" id="DejaVuSans-46"/>
      </defs>
      <g transform="translate(37.560938 328.261187)scale(0.18 -0.18)">
       <use xlink:href="#DejaVuSans-48"/>
       <use x="63.623047" xlink:href="#DejaVuSans-46"/>
       <use x="95.410156" xlink:href="#DejaVuSans-48"/>
       <use x="159.033203" xlink:href="#DejaVuSans-48"/>
      </g>
     </g>
    </g>
    <g id="xtick_2">
     <g id="line2d_2">
      <g>
       <use style="stroke:#000000;stroke-width:0.8;" x="93.312" xlink:href="#ma60a70ebef" y="307.584"/>
      </g>
     </g>
     <g id="text_2">
      <!-- 0.25 -->
      <defs>
       <path d="M 19.1875 8.296875 
L 53.609375 8.296875 
L 53.609375 0 
L 7.328125 0 
L 7.328125 8.296875 
Q 12.9375 14.109375 22.625 23.890625 
Q 32.328125 33.6875 34.8125 36.53125 
Q 39.546875 41.84375 41.421875 45.53125 
Q 43.3125 49.21875 43.3125 52.78125 
Q 43.3125 58.59375 39.234375 62.25 
Q 35.15625 65.921875 28.609375 65.921875 
Q 23.96875 65.921875 18.8125 64.3125 
Q 13.671875 62.703125 7.8125 59.421875 
L 7.8125 69.390625 
Q 13.765625 71.78125 18.9375 73 
Q 24.125 74.21875 28.421875 74.21875 
Q 39.75 74.21875 46.484375 68.546875 
Q 53.21875 62.890625 53.21875 53.421875 
Q 53.21875 48.921875 51.53125 44.890625 
Q 49.859375 40.875 45.40625 35.40625 
Q 44.1875 33.984375 37.640625 27.21875 
Q 31.109375 20.453125 19.1875 8.296875 
z
" id="DejaVuSans-50"/>
       <path d="M 10.796875 72.90625 
L 49.515625 72.90625 
L 49.515625 64.59375 
L 19.828125 64.59375 
L 19.828125 46.734375 
Q 21.96875 47.46875 24.109375 47.828125 
Q 26.265625 48.1875 28.421875 48.1875 
Q 40.625 48.1875 47.75 41.5 
Q 54.890625 34.8125 54.890625 23.390625 
Q 54.890625 11.625 47.5625 5.09375 
Q 40.234375 -1.421875 26.90625 -1.421875 
Q 22.3125 -1.421875 17.546875 -0.640625 
Q 12.796875 0.140625 7.71875 1.703125 
L 7.71875 11.625 
Q 12.109375 9.234375 16.796875 8.0625 
Q 21.484375 6.890625 26.703125 6.890625 
Q 35.15625 6.890625 40.078125 11.328125 
Q 45.015625 15.765625 45.015625 23.390625 
Q 45.015625 31 40.078125 35.4375 
Q 35.15625 39.890625 26.703125 39.890625 
Q 22.75 39.890625 18.8125 39.015625 
Q 14.890625 38.140625 10.796875 36.28125 
z
" id="DejaVuSans-53"/>
      </defs>
      <g transform="translate(73.272938 328.261187)scale(0.18 -0.18)">
       <use xlink:href="#DejaVuSans-48"/>
       <use x="63.623047" xlink:href="#DejaVuSans-46"/>
       <use x="95.410156" xlink:href="#DejaVuSans-50"/>
       <use x="159.033203" xlink:href="#DejaVuSans-53"/>
      </g>
     </g>
    </g>
    <g id="xtick_3">
     <g id="line2d_3">
      <g>
       <use style="stroke:#000000;stroke-width:0.8;" x="129.024" xlink:href="#ma60a70ebef" y="307.584"/>
      </g>
     </g>
     <g id="text_3">
      <!-- 0.50 -->
      <g transform="translate(108.984938 328.261187)scale(0.18 -0.18)">
       <use xlink:href="#DejaVuSans-48"/>
       <use x="63.623047" xlink:href="#DejaVuSans-46"/>
       <use x="95.410156" xlink:href="#DejaVuSans-53"/>
       <use x="159.033203" xlink:href="#DejaVuSans-48"/>
      </g>
     </g>
    </g>
    <g id="xtick_4">
     <g id="line2d_4">
      <g>
       <use style="stroke:#000000;stroke-width:0.8;" x="164.736" xlink:href="#ma60a70ebef" y="307.584"/>
      </g>
     </g>
     <g id="text_4">
      <!-- 0.75 -->
      <defs>
       <path d="M 8.203125 72.90625 
L 55.078125 72.90625 
L 55.078125 68.703125 
L 28.609375 0 
L 18.3125 0 
L 43.21875 64.59375 
L 8.203125 64.59375 
z
" id="DejaVuSans-55"/>
      </defs>
      <g transform="translate(144.696938 328.261187)scale(0.18 -0.18)">
       <use xlink:href="#DejaVuSans-48"/>
       <use x="63.623047" xlink:href="#DejaVuSans-46"/>
       <use x="95.410156" xlink:href="#DejaVuSans-55"/>
       <use x="159.033203" xlink:href="#DejaVuSans-53"/>
      </g>
     </g>
    </g>
    <g id="xtick_5">
     <g id="line2d_5">
      <g>
       <use style="stroke:#000000;stroke-width:0.8;" x="200.448" xlink:href="#ma60a70ebef" y="307.584"/>
      </g>
     </g>
     <g id="text_5">
      <!-- 1.00 -->
      <defs>
       <path d="M 12.40625 8.296875 
L 28.515625 8.296875 
L 28.515625 63.921875 
L 10.984375 60.40625 
L 10.984375 69.390625 
L 28.421875 72.90625 
L 38.28125 72.90625 
L 38.28125 8.296875 
L 54.390625 8.296875 
L 54.390625 0 
L 12.40625 0 
z
" id="DejaVuSans-49"/>
      </defs>
      <g transform="translate(180.408938 328.261187)scale(0.18 -0.18)">
       <use xlink:href="#DejaVuSans-49"/>
       <use x="63.623047" xlink:href="#DejaVuSans-46"/>
       <use x="95.410156" xlink:href="#DejaVuSans-48"/>
       <use x="159.033203" xlink:href="#DejaVuSans-48"/>
      </g>
     </g>
    </g>
    <g id="xtick_6">
     <g id="line2d_6">
      <g>
       <use style="stroke:#000000;stroke-width:0.8;" x="236.16" xlink:href="#ma60a70ebef" y="307.584"/>
      </g>
     </g>
     <g id="text_6">
      <!-- 1.25 -->
      <g transform="translate(216.120937 328.261187)scale(0.18 -0.18)">
       <use xlink:href="#DejaVuSans-49"/>
       <use x="63.623047" xlink:href="#DejaVuSans-46"/>
       <use x="95.410156" xlink:href="#DejaVuSans-50"/>
       <use x="159.033203" xlink:href="#DejaVuSans-53"/>
      </g>
     </g>
    </g>
    <g id="xtick_7">
     <g id="line2d_7">
      <g>
       <use style="stroke:#000000;stroke-width:0.8;" x="271.872" xlink:href="#ma60a70ebef" y="307.584"/>
      </g>
     </g>
     <g id="text_7">
      <!-- 1.50 -->
      <g transform="translate(251.832938 328.261187)scale(0.18 -0.18)">
       <use xlink:href="#DejaVuSans-49"/>
       <use x="63.623047" xlink:href="#DejaVuSans-46"/>
       <use x="95.410156" xlink:href="#DejaVuSans-53"/>
       <use x="159.033203" xlink:href="#DejaVuSans-48"/>
      </g>
     </g>
    </g>
    <g id="xtick_8">
     <g id="line2d_8">
      <g>
       <use style="stroke:#000000;stroke-width:0.8;" x="307.584" xlink:href="#ma60a70ebef" y="307.584"/>
      </g>
     </g>
     <g id="text_8">
      <!-- 1.75 -->
      <g transform="translate(287.544938 328.261187)scale(0.18 -0.18)">
       <use xlink:href="#DejaVuSans-49"/>
       <use x="63.623047" xlink:href="#DejaVuSans-46"/>
       <use x="95.410156" xlink:href="#DejaVuSans-55"/>
       <use x="159.033203" xlink:href="#DejaVuSans-53"/>
      </g>
     </g>
    </g>
    <g id="xtick_9">
     <g id="line2d_9">
      <g>
       <use style="stroke:#000000;stroke-width:0.8;" x="343.296" xlink:href="#ma60a70ebef" y="307.584"/>
      </g>
     </g>
     <g id="text_9">
      <!-- 2.00 -->
      <g transform="translate(323.256938 328.261187)scale(0.18 -0.18)">
       <use xlink:href="#DejaVuSans-50"/>
       <use x="63.623047" xlink:href="#DejaVuSans-46"/>
       <use x="95.410156" xlink:href="#DejaVuSans-48"/>
       <use x="159.033203" xlink:href="#DejaVuSans-48"/>
      </g>
     </g>
    </g>
   </g>
   <g id="matplotlib.axis_2">
    <g id="ytick_1">
     <g id="line2d_10">
      <defs>
       <path d="M 0 0 
L -3.5 0 
" id="m97145245d5" style="stroke:#000000;stroke-width:0.8;"/>
      </defs>
      <g>
       <use style="stroke:#000000;stroke-width:0.8;" x="57.6" xlink:href="#m97145245d5" y="307.584"/>
      </g>
     </g>
     <g id="text_10">
      <!-- 0 -->
      <g transform="translate(39.1475 314.422594)scale(0.18 -0.18)">
       <use xlink:href="#DejaVuSans-48"/>
      </g>
     </g>
    </g>
    <g id="ytick_2">
     <g id="line2d_11">
      <g>
       <use style="stroke:#000000;stroke-width:0.8;" x="57.6" xlink:href="#m97145245d5" y="261.008545"/>
      </g>
     </g>
     <g id="text_11">
      <!-- 1 -->
      <g transform="translate(39.1475 267.847139)scale(0.18 -0.18)">
       <use xlink:href="#DejaVuSans-49"/>
      </g>
     </g>
    </g>
    <g id="ytick_3">
     <g id="line2d_12">
      <g>
       <use style="stroke:#000000;stroke-width:0.8;" x="57.6" xlink:href="#m97145245d5" y="214.43309"/>
      </g>
     </g>
     <g id="text_12">
      <!-- 2 -->
      <g transform="translate(39.1475 221.271683)scale(0.18 -0.18)">
       <use xlink:href="#DejaVuSans-50"/>
      </g>
     </g>
    </g>
    <g id="ytick_4">
     <g id="line2d_13">
      <g>
       <use style="stroke:#000000;stroke-width:0.8;" x="57.6" xlink:href="#m97145245d5" y="167.857635"/>
      </g>
     </g>
     <g id="text_13">
      <!-- 3 -->
      <defs>
       <path d="M 40.578125 39.3125 
Q 47.65625 37.796875 51.625 33 
Q 55.609375 28.21875 55.609375 21.1875 
Q 55.609375 10.40625 48.1875 4.484375 
Q 40.765625 -1.421875 27.09375 -1.421875 
Q 22.515625 -1.421875 17.65625 -0.515625 
Q 12.796875 0.390625 7.625 2.203125 
L 7.625 11.71875 
Q 11.71875 9.328125 16.59375 8.109375 
Q 21.484375 6.890625 26.8125 6.890625 
Q 36.078125 6.890625 40.9375 10.546875 
Q 45.796875 14.203125 45.796875 21.1875 
Q 45.796875 27.640625 41.28125 31.265625 
Q 36.765625 34.90625 28.71875 34.90625 
L 20.21875 34.90625 
L 20.21875 43.015625 
L 29.109375 43.015625 
Q 36.375 43.015625 40.234375 45.921875 
Q 44.09375 48.828125 44.09375 54.296875 
Q 44.09375 59.90625 40.109375 62.90625 
Q 36.140625 65.921875 28.71875 65.921875 
Q 24.65625 65.921875 20.015625 65.03125 
Q 15.375 64.15625 9.8125 62.3125 
L 9.8125 71.09375 
Q 15.4375 72.65625 20.34375 73.4375 
Q 25.25 74.21875 29.59375 74.21875 
Q 40.828125 74.21875 47.359375 69.109375 
Q 53.90625 64.015625 53.90625 55.328125 
Q 53.90625 49.265625 50.4375 45.09375 
Q 46.96875 40.921875 40.578125 39.3125 
z
" id="DejaVuSans-51"/>
      </defs>
      <g transform="translate(39.1475 174.696228)scale(0.18 -0.18)">
       <use xlink:href="#DejaVuSans-51"/>
      </g>
     </g>
    </g>
    <g id="ytick_5">
     <g id="line2d_14">
      <g>
       <use style="stroke:#000000;stroke-width:0.8;" x="57.6" xlink:href="#m97145245d5" y="121.282179"/>
      </g>
     </g>
     <g id="text_14">
      <!-- 4 -->
      <defs>
       <path d="M 37.796875 64.3125 
L 12.890625 25.390625 
L 37.796875 25.390625 
z
M 35.203125 72.90625 
L 47.609375 72.90625 
L 47.609375 25.390625 
L 58.015625 25.390625 
L 58.015625 17.1875 
L 47.609375 17.1875 
L 47.609375 0 
L 37.796875 0 
L 37.796875 17.1875 
L 4.890625 17.1875 
L 4.890625 26.703125 
z
" id="DejaVuSans-52"/>
      </defs>
      <g transform="translate(39.1475 128.120773)scale(0.18 -0.18)">
       <use xlink:href="#DejaVuSans-52"/>
      </g>
     </g>
    </g>
    <g id="ytick_6">
     <g id="line2d_15">
      <g>
       <use style="stroke:#000000;stroke-width:0.8;" x="57.6" xlink:href="#m97145245d5" y="74.706724"/>
      </g>
     </g>
     <g id="text_15">
      <!-- 5 -->
      <g transform="translate(39.1475 81.545318)scale(0.18 -0.18)">
       <use xlink:href="#DejaVuSans-53"/>
      </g>
     </g>
    </g>
   </g>
   <g id="LineCollection_1">
    <path clip-path="url(#p760ce03ae4)" d="M 128.446984 307.584 
L 129.622506 306.869346 
L 130.493917 306.154692 
L 130.902179 305.440039 
L 130.855593 304.725385 
L 130.549353 304.010731 
L 129.860407 303.296077 
L 128.869891 302.581424 
L 128.106321 302.137664 
L 127.554436 301.86677 
L 125.841548 301.152116 
L 124.901488 300.859771 
L 123.742288 300.437462 
L 121.696656 299.753035 
L 121.604798 299.722808 
L 119.395632 299.008155 
L 118.491823 298.74772 
L 116.798554 298.293501 
L 115.28699 297.943432 
L 113.648699 297.578847 
L 112.082157 297.206096 
L 110.62036 296.864193 
L 108.877324 296.407754 
L 107.814657 296.149539 
L 105.672492 295.670032 
L 104.249995 295.434886 
L 102.467659 295.143588 
L 100.239359 294.720232 
L 99.262826 294.514384 
L 96.057993 294.08014 
L 95.443239 294.005578 
L 92.853161 293.715736 
L 89.648328 293.420137 
L 87.449387 293.290924 
L 86.443495 293.234667 
L 83.238662 293.151241 
L 80.033829 293.157531 
L 76.828997 293.256189 
L 76.051607 293.290924 
L 73.624164 293.404536 
L 70.419331 293.659951 
L 70.013155 294.005578 
L 69.275449 294.720232 
L 68.50323 295.434886 
L 67.79069 296.149539 
L 67.214498 296.806177 
L 67.201852 296.864193 
L 67.027668 297.578847 
L 66.851609 298.293501 
L 66.706997 299.008155 
L 66.582429 299.722808 
L 66.465308 300.437462 
L 66.359847 301.152116 
L 66.283271 301.86677 
L 66.219318 302.581424 
L 66.168363 303.296077 
L 66.132922 304.010731 
L 66.117168 304.725385 
L 66.114771 305.440039 
L 66.135773 306.154692 
L 66.180601 306.869346 
L 66.241073 307.584 
" style="fill:none;stroke:#4d94ff;stroke-width:1.5;"/>
   </g>
   <g id="LineCollection_2">
    <path clip-path="url(#p760ce03ae4)" d="M 156.857978 307.584 
L 158.374588 306.945462 
L 160.363327 306.136359 
L 161.428363 305.707837 
L 163.623974 304.688718 
L 164.482139 304.236527 
L 166.263088 303.241076 
L 167.535914 302.488397 
L 168.694557 301.793435 
L 170.589689 300.584771 
L 170.937048 300.345794 
L 172.386028 298.898153 
L 173.643465 297.944779 
L 174.182119 297.450512 
L 175.848373 296.00287 
L 176.69724 295.100743 
L 177.210764 294.555229 
L 178.383835 293.107588 
L 179.420831 291.659947 
L 179.751016 290.753577 
L 179.927601 290.212306 
L 180.22891 288.764665 
L 180.22891 287.317023 
L 179.751016 285.936324 
L 179.725126 285.869382 
L 179.177378 284.421741 
L 178.3112 282.9741 
L 177.40341 281.526459 
L 176.69724 280.434394 
L 176.469281 280.078817 
L 175.46258 278.631176 
L 174.109532 277.183535 
L 173.643465 276.757029 
L 172.292899 275.735894 
L 170.589689 274.685893 
L 169.891298 274.288253 
L 167.535914 273.035739 
L 167.162104 272.840611 
L 164.482139 271.405892 
L 164.456494 271.39297 
L 161.428363 270.385369 
L 159.878037 269.945329 
L 158.374588 269.463324 
L 155.432316 268.497688 
L 155.320813 268.47239 
L 152.267037 267.889562 
L 149.213262 267.358683 
L 147.390878 267.050047 
L 146.159486 266.847477 
L 143.105711 266.354458 
L 140.051936 265.937595 
L 137.703943 265.602406 
L 136.99816 265.512432 
L 133.944385 265.173691 
L 130.890609 264.863317 
L 127.836834 264.543485 
L 124.783059 264.172685 
L 124.571451 264.154764 
L 121.729283 263.902581 
L 118.675508 263.506523 
L 115.621732 263.256246 
L 112.567957 263.107755 
L 109.514182 263.008925 
L 106.460406 263.008925 
L 103.406631 263.171245 
L 100.352855 263.360004 
L 97.29908 263.618626 
L 94.245305 263.958061 
L 92.785078 264.154764 
L 91.191529 264.361589 
L 88.137754 264.92516 
L 85.083979 265.429699 
L 84.220093 265.602406 
L 82.030203 266.09984 
L 78.976428 266.932194 
L 78.547862 267.050047 
L 75.922652 267.807359 
L 73.492434 268.497688 
L 72.868877 268.756237 
L 70.520423 269.945329 
L 69.815102 270.267911 
L 69.341752 271.39297 
L 68.955613 272.840611 
L 68.572367 274.288253 
L 68.225231 275.735894 
L 67.947333 277.183535 
L 67.714507 278.631176 
L 67.541279 280.078817 
L 67.383697 281.526459 
L 67.231548 282.9741 
L 67.086373 284.421741 
L 66.994569 285.869382 
L 66.90172 287.317023 
L 66.90172 288.764665 
L 66.957524 290.212306 
L 67.04557 291.659947 
L 67.219374 293.107588 
L 67.415985 294.555229 
L 67.648122 296.00287 
L 67.934842 297.450512 
L 68.211599 298.898153 
L 68.423705 300.345794 
L 68.739977 301.793435 
L 69.083948 303.241076 
L 69.457771 304.688718 
L 69.815102 305.873448 
L 70.220624 306.136359 
L 72.457761 307.584 
" style="fill:none;stroke:#ff8533;stroke-width:1.5;"/>
   </g>
   <g id="LineCollection_3">
    <path clip-path="url(#p760ce03ae4)" d="M 165.840634 307.584 
L 166.699574 306.785328 
L 166.849691 305.986656 
L 166.353754 305.187984 
L 165.527599 304.389312 
L 164.864365 304.030811 
L 163.920018 303.590639 
L 162.041619 303.068435 
L 161.093244 302.791967 
L 159.218872 302.240201 
L 158.382041 301.993295 
L 156.396126 301.518625 
L 154.839534 301.194623 
L 153.573379 300.964085 
L 150.750633 300.537688 
L 149.455432 300.395951 
L 147.927886 300.24139 
L 145.10514 299.874287 
L 142.475936 299.597279 
L 142.282393 299.575861 
L 139.459647 299.329238 
L 136.6369 299.074766 
L 133.814154 298.860543 
L 132.951712 298.798607 
L 130.991408 298.644999 
L 128.168661 298.430948 
L 125.345915 298.207564 
L 122.962564 297.999935 
L 122.523168 297.96924 
L 119.700422 297.793378 
L 116.877675 297.632778 
L 114.054929 297.462119 
L 111.232182 297.301185 
L 109.498916 297.201263 
L 108.409436 297.12916 
L 105.58669 296.957558 
L 102.763943 296.837311 
L 99.941197 296.671596 
L 97.11845 296.543293 
L 94.295704 296.438124 
L 93.315377 296.402591 
L 91.472957 296.321884 
L 88.650211 296.189004 
L 85.827464 296.117351 
L 83.004718 296.077966 
L 80.181972 296.036407 
L 77.359225 296.036407 
L 74.536479 296.084186 
L 71.713732 296.174155 
L 68.890986 296.3086 
L 67.280836 296.402591 
L 66.068239 296.461388 
L 65.344384 297.201263 
L 64.574824 297.999935 
L 64.038787 298.798607 
L 63.522016 299.597279 
L 63.245493 300.040702 
L 63.157199 300.395951 
L 62.98622 301.194623 
L 62.848006 301.993295 
L 62.741879 302.791967 
L 62.639263 303.590639 
L 62.579751 304.389312 
L 62.546974 305.187984 
L 62.527298 305.986656 
L 62.533254 306.785328 
L 62.567331 307.584 
" style="fill:none;stroke:#00b300;stroke-width:1.5;"/>
   </g>
   <g id="LineCollection_4">
    <path clip-path="url(#p760ce03ae4)" d="M 431.901757 299.496139 
L 424.262946 299.496139 
L 416.624135 299.496139 
L 408.985323 299.496139 
L 401.346512 299.496139 
L 393.707701 299.496139 
L 386.068889 299.496139 
L 378.430078 299.496139 
L 370.791266 299.496139 
L 363.152455 299.496139 
L 355.513644 299.496139 
L 347.874832 299.496139 
L 340.236021 299.496139 
L 332.59721 299.496139 
L 324.958398 299.496139 
L 317.319587 299.496139 
L 309.680775 299.496139 
L 302.041964 299.496139 
L 294.403153 299.496139 
L 286.764341 299.496139 
L 279.12553 299.496139 
L 271.486719 299.496139 
L 263.847907 299.496139 
L 256.209096 299.496139 
L 248.570284 299.496139 
L 240.931473 299.496139 
L 233.292662 299.496139 
L 225.65385 299.496139 
L 218.015039 299.496139 
L 210.376228 299.496139 
L 202.737416 299.496139 
L 195.098605 299.496139 
L 193.354799 299.300816 
L 187.459793 298.680767 
L 185.019139 298.380462 
L 179.820982 297.861567 
L 175.022375 297.460108 
L 172.182171 297.199321 
L 164.543359 296.692098 
L 161.302032 296.539754 
L 156.904548 296.309426 
L 149.265737 296.08842 
L 141.626925 295.980507 
L 133.988114 295.957739 
L 126.349302 296.042657 
L 118.710491 296.246669 
L 111.07168 296.474556 
L 109.071462 296.539754 
L 103.432868 296.702323 
L 95.794057 296.997197 
L 88.155246 297.376243 
L 86.379366 297.460108 
L 80.516434 297.703713 
L 72.877623 297.970176 
L 72.450094 298.380462 
L 71.703919 299.300816 
L 71.060863 300.22117 
L 70.389587 301.141523 
L 69.960844 302.061877 
L 69.609916 302.982231 
L 69.297774 303.902585 
L 69.108481 304.822939 
L 69.025115 305.743292 
L 69.023924 306.663646 
L 69.096835 307.584 
" style="fill:none;stroke:#ffff33;stroke-width:1.5;"/>
   </g>
   <g id="patch_3">
    <path d="M 57.6 307.584 
L 57.6 41.472 
" style="fill:none;stroke:#000000;stroke-linecap:square;stroke-linejoin:miter;stroke-width:0.8;"/>
   </g>
   <g id="patch_4">
    <path d="M 343.296 307.584 
L 343.296 41.472 
" style="fill:none;stroke:#000000;stroke-linecap:square;stroke-linejoin:miter;stroke-width:0.8;"/>
   </g>
   <g id="patch_5">
    <path d="M 57.6 307.584 
L 343.296 307.584 
" style="fill:none;stroke:#000000;stroke-linecap:square;stroke-linejoin:miter;stroke-width:0.8;"/>
   </g>
   <g id="patch_6">
    <path d="M 57.6 41.472 
L 343.296 41.472 
" style="fill:none;stroke:#000000;stroke-linecap:square;stroke-linejoin:miter;stroke-width:0.8;"/>
   </g>
  </g>
  <g id="axes_2">
   <g id="patch_7">
    <path clip-path="url(#p26db6e0c69)" d="M 367.2 307.584 
L 361.152 295.488 
L 361.152 53.568 
L 367.2 41.472 
L 367.2 41.472 
L 373.248 53.568 
L 373.248 295.488 
L 367.2 307.584 
z
" style="fill:#ffffff;stroke:#ffffff;stroke-linejoin:miter;stroke-width:0.01;"/>
   </g>
   <g id="QuadMesh_1">
    <path clip-path="url(#p26db6e0c69)" d="M 367.2 307.584 
L 367.2 307.584 
L 373.248 295.488 
L 361.152 295.488 
L 367.2 307.584 
" style="fill:#ffffff;"/>
    <path clip-path="url(#p26db6e0c69)" d="M 361.152 295.488 
L 373.248 295.488 
L 373.248 235.008 
L 361.152 235.008 
L 361.152 295.488 
" style="fill:#ffffff;"/>
    <path clip-path="url(#p26db6e0c69)" d="M 361.152 235.008 
L 373.248 235.008 
L 373.248 174.528 
L 361.152 174.528 
L 361.152 235.008 
" style="fill:#f0f0f0;"/>
    <path clip-path="url(#p26db6e0c69)" d="M 361.152 174.528 
L 373.248 174.528 
L 373.248 114.048 
L 361.152 114.048 
L 361.152 174.528 
" style="fill:#d3d3d3;"/>
    <path clip-path="url(#p26db6e0c69)" d="M 361.152 114.048 
L 373.248 114.048 
L 373.248 53.568 
L 361.152 53.568 
L 361.152 114.048 
" style="fill:#b8b8b8;"/>
    <path clip-path="url(#p26db6e0c69)" d="M 361.152 53.568 
L 373.248 53.568 
L 367.2 41.472 
L 367.2 41.472 
L 361.152 53.568 
" style="fill:#a0a0a0;"/>
   </g>
   <g id="matplotlib.axis_3"/>
   <g id="matplotlib.axis_4">
    <g id="ytick_7">
     <g id="line2d_16">
      <defs>
       <path d="M 0 0 
L 3.5 0 
" id="md8f37ca4fd" style="stroke:#000000;stroke-width:0.8;"/>
      </defs>
      <g>
       <use style="stroke:#000000;stroke-width:0.8;" x="373.248" xlink:href="#md8f37ca4fd" y="295.488"/>
      </g>
     </g>
     <g id="text_16">
      <!-- 0.0000 -->
      <g transform="translate(380.248 302.326594)scale(0.18 -0.18)">
       <use xlink:href="#DejaVuSans-48"/>
       <use x="63.623047" xlink:href="#DejaVuSans-46"/>
       <use x="95.410156" xlink:href="#DejaVuSans-48"/>
       <use x="159.033203" xlink:href="#DejaVuSans-48"/>
       <use x="222.65625" xlink:href="#DejaVuSans-48"/>
       <use x="286.279297" xlink:href="#DejaVuSans-48"/>
      </g>
     </g>
    </g>
    <g id="ytick_8">
     <g id="line2d_17">
      <g>
       <use style="stroke:#000000;stroke-width:0.8;" x="373.248" xlink:href="#md8f37ca4fd" y="235.008"/>
      </g>
     </g>
     <g id="text_17">
      <!-- 0.0184 -->
      <defs>
       <path d="M 31.78125 34.625 
Q 24.75 34.625 20.71875 30.859375 
Q 16.703125 27.09375 16.703125 20.515625 
Q 16.703125 13.921875 20.71875 10.15625 
Q 24.75 6.390625 31.78125 6.390625 
Q 38.8125 6.390625 42.859375 10.171875 
Q 46.921875 13.96875 46.921875 20.515625 
Q 46.921875 27.09375 42.890625 30.859375 
Q 38.875 34.625 31.78125 34.625 
z
M 21.921875 38.8125 
Q 15.578125 40.375 12.03125 44.71875 
Q 8.5 49.078125 8.5 55.328125 
Q 8.5 64.0625 14.71875 69.140625 
Q 20.953125 74.21875 31.78125 74.21875 
Q 42.671875 74.21875 48.875 69.140625 
Q 55.078125 64.0625 55.078125 55.328125 
Q 55.078125 49.078125 51.53125 44.71875 
Q 48 40.375 41.703125 38.8125 
Q 48.828125 37.15625 52.796875 32.3125 
Q 56.78125 27.484375 56.78125 20.515625 
Q 56.78125 9.90625 50.3125 4.234375 
Q 43.84375 -1.421875 31.78125 -1.421875 
Q 19.734375 -1.421875 13.25 4.234375 
Q 6.78125 9.90625 6.78125 20.515625 
Q 6.78125 27.484375 10.78125 32.3125 
Q 14.796875 37.15625 21.921875 38.8125 
z
M 18.3125 54.390625 
Q 18.3125 48.734375 21.84375 45.5625 
Q 25.390625 42.390625 31.78125 42.390625 
Q 38.140625 42.390625 41.71875 45.5625 
Q 45.3125 48.734375 45.3125 54.390625 
Q 45.3125 60.0625 41.71875 63.234375 
Q 38.140625 66.40625 31.78125 66.40625 
Q 25.390625 66.40625 21.84375 63.234375 
Q 18.3125 60.0625 18.3125 54.390625 
z
" id="DejaVuSans-56"/>
      </defs>
      <g transform="translate(380.248 241.846594)scale(0.18 -0.18)">
       <use xlink:href="#DejaVuSans-48"/>
       <use x="63.623047" xlink:href="#DejaVuSans-46"/>
       <use x="95.410156" xlink:href="#DejaVuSans-48"/>
       <use x="159.033203" xlink:href="#DejaVuSans-49"/>
       <use x="222.65625" xlink:href="#DejaVuSans-56"/>
       <use x="286.279297" xlink:href="#DejaVuSans-52"/>
      </g>
     </g>
    </g>
    <g id="ytick_9">
     <g id="line2d_18">
      <g>
       <use style="stroke:#000000;stroke-width:0.8;" x="373.248" xlink:href="#md8f37ca4fd" y="174.528"/>
      </g>
     </g>
     <g id="text_18">
      <!-- 0.0368 -->
      <defs>
       <path d="M 33.015625 40.375 
Q 26.375 40.375 22.484375 35.828125 
Q 18.609375 31.296875 18.609375 23.390625 
Q 18.609375 15.53125 22.484375 10.953125 
Q 26.375 6.390625 33.015625 6.390625 
Q 39.65625 6.390625 43.53125 10.953125 
Q 47.40625 15.53125 47.40625 23.390625 
Q 47.40625 31.296875 43.53125 35.828125 
Q 39.65625 40.375 33.015625 40.375 
z
M 52.59375 71.296875 
L 52.59375 62.3125 
Q 48.875 64.0625 45.09375 64.984375 
Q 41.3125 65.921875 37.59375 65.921875 
Q 27.828125 65.921875 22.671875 59.328125 
Q 17.53125 52.734375 16.796875 39.40625 
Q 19.671875 43.65625 24.015625 45.921875 
Q 28.375 48.1875 33.59375 48.1875 
Q 44.578125 48.1875 50.953125 41.515625 
Q 57.328125 34.859375 57.328125 23.390625 
Q 57.328125 12.15625 50.6875 5.359375 
Q 44.046875 -1.421875 33.015625 -1.421875 
Q 20.359375 -1.421875 13.671875 8.265625 
Q 6.984375 17.96875 6.984375 36.375 
Q 6.984375 53.65625 15.1875 63.9375 
Q 23.390625 74.21875 37.203125 74.21875 
Q 40.921875 74.21875 44.703125 73.484375 
Q 48.484375 72.75 52.59375 71.296875 
z
" id="DejaVuSans-54"/>
      </defs>
      <g transform="translate(380.248 181.366594)scale(0.18 -0.18)">
       <use xlink:href="#DejaVuSans-48"/>
       <use x="63.623047" xlink:href="#DejaVuSans-46"/>
       <use x="95.410156" xlink:href="#DejaVuSans-48"/>
       <use x="159.033203" xlink:href="#DejaVuSans-51"/>
       <use x="222.65625" xlink:href="#DejaVuSans-54"/>
       <use x="286.279297" xlink:href="#DejaVuSans-56"/>
      </g>
     </g>
    </g>
    <g id="ytick_10">
     <g id="line2d_19">
      <g>
       <use style="stroke:#000000;stroke-width:0.8;" x="373.248" xlink:href="#md8f37ca4fd" y="114.048"/>
      </g>
     </g>
     <g id="text_19">
      <!-- 0.0919 -->
      <defs>
       <path d="M 10.984375 1.515625 
L 10.984375 10.5 
Q 14.703125 8.734375 18.5 7.8125 
Q 22.3125 6.890625 25.984375 6.890625 
Q 35.75 6.890625 40.890625 13.453125 
Q 46.046875 20.015625 46.78125 33.40625 
Q 43.953125 29.203125 39.59375 26.953125 
Q 35.25 24.703125 29.984375 24.703125 
Q 19.046875 24.703125 12.671875 31.3125 
Q 6.296875 37.9375 6.296875 49.421875 
Q 6.296875 60.640625 12.9375 67.421875 
Q 19.578125 74.21875 30.609375 74.21875 
Q 43.265625 74.21875 49.921875 64.515625 
Q 56.59375 54.828125 56.59375 36.375 
Q 56.59375 19.140625 48.40625 8.859375 
Q 40.234375 -1.421875 26.421875 -1.421875 
Q 22.703125 -1.421875 18.890625 -0.6875 
Q 15.09375 0.046875 10.984375 1.515625 
z
M 30.609375 32.421875 
Q 37.25 32.421875 41.125 36.953125 
Q 45.015625 41.5 45.015625 49.421875 
Q 45.015625 57.28125 41.125 61.84375 
Q 37.25 66.40625 30.609375 66.40625 
Q 23.96875 66.40625 20.09375 61.84375 
Q 16.21875 57.28125 16.21875 49.421875 
Q 16.21875 41.5 20.09375 36.953125 
Q 23.96875 32.421875 30.609375 32.421875 
z
" id="DejaVuSans-57"/>
      </defs>
      <g transform="translate(380.248 120.886594)scale(0.18 -0.18)">
       <use xlink:href="#DejaVuSans-48"/>
       <use x="63.623047" xlink:href="#DejaVuSans-46"/>
       <use x="95.410156" xlink:href="#DejaVuSans-48"/>
       <use x="159.033203" xlink:href="#DejaVuSans-57"/>
       <use x="222.65625" xlink:href="#DejaVuSans-49"/>
       <use x="286.279297" xlink:href="#DejaVuSans-57"/>
      </g>
     </g>
    </g>
    <g id="ytick_11">
     <g id="line2d_20">
      <g>
       <use style="stroke:#000000;stroke-width:0.8;" x="373.248" xlink:href="#md8f37ca4fd" y="53.568"/>
      </g>
     </g>
     <g id="text_20">
      <!-- 0.2299 -->
      <g transform="translate(380.248 60.406594)scale(0.18 -0.18)">
       <use xlink:href="#DejaVuSans-48"/>
       <use x="63.623047" xlink:href="#DejaVuSans-46"/>
       <use x="95.410156" xlink:href="#DejaVuSans-50"/>
       <use x="159.033203" xlink:href="#DejaVuSans-50"/>
       <use x="222.65625" xlink:href="#DejaVuSans-57"/>
       <use x="286.279297" xlink:href="#DejaVuSans-57"/>
      </g>
     </g>
    </g>
   </g>
   <g id="patch_8">
    <path d="M 367.2 307.584 
L 361.152 295.488 
L 361.152 53.568 
L 367.2 41.472 
L 367.2 41.472 
L 373.248 53.568 
L 373.248 295.488 
L 367.2 307.584 
z
" style="fill:none;stroke:#000000;stroke-linejoin:miter;stroke-width:0.8;"/>
   </g>
  </g>
 </g>
 <defs>
  <clipPath id="p760ce03ae4">
   <rect height="266.112" width="285.696" x="57.6" y="41.472"/>
  </clipPath>
  <clipPath id="p26db6e0c69">
   <rect height="266.112" width="12.096" x="361.152" y="41.472"/>
  </clipPath>
 </defs>
</svg>
