<?xml version="1.0" encoding="utf-8" standalone="no"?>
<!DOCTYPE svg PUBLIC "-//W3C//DTD SVG 1.1//EN"
  "http://www.w3.org/Graphics/SVG/1.1/DTD/svg11.dtd">
<!-- Created with matplotlib (https://matplotlib.org/) -->
<svg height="345.6pt" version="1.1" viewBox="0 0 460.8 345.6" width="460.8pt" xmlns="http://www.w3.org/2000/svg" xmlns:xlink="http://www.w3.org/1999/xlink">
 <defs>
  <style type="text/css">
*{stroke-linecap:butt;stroke-linejoin:round;}
  </style>
 </defs>
 <g id="figure_1">
  <g id="patch_1">
   <path d="M 0 345.6 
L 460.8 345.6 
L 460.8 0 
L 0 0 
z
" style="fill:#ffffff;"/>
  </g>
  <g id="axes_1">
   <g id="patch_2">
    <path d="M 57.6 307.584 
L 343.296 307.584 
L 343.296 41.472 
L 57.6 41.472 
z
" style="fill:#ffffff;"/>
   </g>
   <g id="PathCollection_1"/>
   <g id="PathCollection_2">
    <path clip-path="url(#pca60c8e31f)" d="M 73.239636 302.874628 
L 78.452848 302.874628 
L 83.66606 302.874628 
L 88.879272 302.874628 
L 94.092484 302.874628 
L 99.305696 302.874628 
L 104.518908 302.874628 
L 109.73212 302.874628 
L 114.945332 302.874628 
L 120.158543 302.874628 
L 125.371755 302.874628 
L 130.584967 302.874628 
L 135.798179 302.874628 
L 141.011391 302.874628 
L 146.224603 302.874628 
L 151.437815 302.874628 
L 156.651027 302.874628 
L 161.864239 302.874628 
L 167.077451 302.874628 
L 172.290663 302.874628 
L 177.503875 302.874628 
L 182.717087 302.874628 
L 187.930299 302.874628 
L 193.143511 302.874628 
L 198.356723 302.874628 
L 203.569935 302.874628 
L 208.783147 302.874628 
L 213.996359 302.874628 
L 219.209571 302.874628 
L 224.422783 302.874628 
L 229.635995 302.874628 
L 234.849207 302.874628 
L 240.062419 302.874628 
L 245.27563 302.874628 
L 250.488842 302.874628 
L 255.702054 302.874628 
L 260.915266 302.874628 
L 266.128478 302.874628 
L 271.34169 302.874628 
L 276.554902 302.874628 
L 281.768114 302.874628 
L 286.981326 302.874628 
L 292.194538 302.874628 
L 297.40775 302.874628 
L 302.620962 302.874628 
L 307.834174 302.874628 
L 313.047386 302.874628 
L 318.260598 302.874628 
L 323.47381 302.874628 
L 328.687022 302.874628 
L 333.900234 302.874628 
L 339.113446 302.874628 
L 344.326658 302.874628 
L 349.53987 302.874628 
L 354.753082 302.874628 
L 359.966294 302.874628 
L 365.179505 302.874628 
L 370.392717 302.874628 
L 375.605929 302.874628 
L 380.819141 302.874628 
L 386.032353 302.874628 
L 391.245565 302.874628 
L 396.458777 302.874628 
L 401.671989 302.874628 
L 406.885201 302.874628 
L 412.098413 302.874628 
L 417.311625 302.874628 
L 422.524837 302.874628 
L 427.738049 302.874628 
L 432.951261 302.874628 
L 438.164473 302.874628 
L 443.377685 302.874628 
L 448.590897 302.874628 
L 453.804109 302.874628 
L 459.017321 302.874628 
L 464.230533 302.874628 
L 464.230533 298.165256 
L 464.230533 293.455884 
L 464.230533 288.746512 
L 464.230533 284.03714 
L 464.230533 279.327767 
L 464.230533 274.618395 
L 464.230533 269.909023 
L 464.230533 265.199651 
L 464.230533 260.490279 
L 464.230533 255.780907 
L 464.230533 251.071535 
L 464.230533 246.362163 
L 464.230533 241.652791 
L 464.230533 236.943419 
L 464.230533 232.234047 
L 464.230533 227.524674 
L 464.230533 222.815302 
L 464.230533 218.10593 
L 464.230533 213.396558 
L 464.230533 208.687186 
L 464.230533 203.977814 
L 464.230533 199.268442 
L 464.230533 194.55907 
L 464.230533 189.849698 
L 464.230533 185.140326 
L 464.230533 180.430953 
L 464.230533 175.721581 
L 464.230533 171.012209 
L 464.230533 166.302837 
L 464.230533 161.593465 
L 464.230533 156.884093 
L 464.230533 152.174721 
L 464.230533 147.465349 
L 464.230533 142.755977 
L 464.230533 138.046605 
L 464.230533 133.337233 
L 464.230533 128.62786 
L 464.230533 123.918488 
L 464.230533 119.209116 
L 464.230533 114.499744 
L 464.230533 109.790372 
L 464.230533 105.081 
L 464.230533 100.371628 
L 464.230533 95.662256 
L 464.230533 90.952884 
L 464.230533 86.243512 
L 464.230533 81.53414 
L 464.230533 76.824767 
L 464.230533 72.115395 
L 464.230533 67.406023 
L 464.230533 62.696651 
L 464.230533 57.987279 
L 464.230533 53.277907 
L 464.230533 48.568535 
L 464.230533 43.859163 
L 464.230533 39.149791 
L 464.230533 34.440419 
L 464.230533 29.731046 
L 464.230533 25.021674 
L 464.230533 20.312302 
L 464.230533 15.60293 
L 464.230533 10.893558 
L 464.230533 6.184186 
L 464.230533 1.474814 
L 459.017321 1.474814 
L 453.804109 1.474814 
L 448.590897 1.474814 
L 443.377685 1.474814 
L 438.164473 1.474814 
L 432.951261 1.474814 
L 427.738049 1.474814 
L 422.524837 1.474814 
L 417.311625 1.474814 
L 412.098413 1.474814 
L 406.885201 1.474814 
L 401.671989 1.474814 
L 396.458777 1.474814 
L 391.245565 1.474814 
L 386.032353 1.474814 
L 380.819141 1.474814 
L 375.605929 1.474814 
L 370.392717 1.474814 
L 365.179505 1.474814 
L 359.966294 1.474814 
L 354.753082 1.474814 
L 349.53987 1.474814 
L 344.326658 1.474814 
L 339.113446 1.474814 
L 333.900234 1.474814 
L 328.687022 1.474814 
L 323.47381 1.474814 
L 318.260598 1.474814 
L 313.047386 1.474814 
L 307.834174 1.474814 
L 302.620962 1.474814 
L 297.40775 1.474814 
L 292.194538 1.474814 
L 286.981326 1.474814 
L 281.768114 1.474814 
L 276.554902 1.474814 
L 271.34169 1.474814 
L 266.128478 1.474814 
L 260.915266 1.474814 
L 255.702054 1.474814 
L 250.488842 1.474814 
L 245.27563 1.474814 
L 240.062419 1.474814 
L 234.849207 1.474814 
L 229.635995 1.474814 
L 224.422783 1.474814 
L 219.209571 1.474814 
L 213.996359 1.474814 
L 208.783147 1.474814 
L 203.569935 1.474814 
L 198.356723 1.474814 
L 193.143511 1.474814 
L 187.930299 1.474814 
L 182.717087 1.474814 
L 177.503875 1.474814 
L 172.290663 1.474814 
L 167.077451 1.474814 
L 161.864239 1.474814 
L 156.651027 1.474814 
L 151.437815 1.474814 
L 146.224603 1.474814 
L 141.011391 1.474814 
L 135.798179 1.474814 
L 130.584967 1.474814 
L 125.371755 1.474814 
L 120.158543 1.474814 
L 114.945332 1.474814 
L 109.73212 1.474814 
L 104.518908 1.474814 
L 99.305696 1.474814 
L 94.092484 1.474814 
L 88.879272 1.474814 
L 83.66606 1.474814 
L 78.452848 1.474814 
L 73.239636 1.474814 
L 68.026424 1.474814 
L 62.813212 1.474814 
L 62.813212 6.184186 
L 62.813212 10.893558 
L 62.813212 15.60293 
L 62.813212 20.312302 
L 62.813212 25.021674 
L 62.813212 29.731046 
L 62.813212 34.440419 
L 62.813212 39.149791 
L 62.813212 43.859163 
L 62.813212 48.568535 
L 62.813212 53.277907 
L 62.813212 57.987279 
L 62.813212 62.696651 
L 62.813212 67.406023 
L 62.813212 72.115395 
L 62.813212 76.824767 
L 62.813212 81.53414 
L 62.813212 86.243512 
L 62.813212 90.952884 
L 62.813212 95.662256 
L 62.813212 100.371628 
L 62.813212 105.081 
L 62.813212 109.790372 
L 62.813212 114.499744 
L 62.813212 119.209116 
L 62.813212 123.918488 
L 62.813212 128.62786 
L 62.813212 133.337233 
L 62.813212 138.046605 
L 62.813212 142.755977 
L 62.813212 147.465349 
L 62.813212 152.174721 
L 62.813212 156.884093 
L 62.813212 161.593465 
L 62.813212 166.302837 
L 62.813212 171.012209 
L 62.813212 175.721581 
L 62.813212 180.430953 
L 62.813212 185.140326 
L 62.813212 189.849698 
L 62.813212 194.55907 
L 62.813212 199.268442 
L 62.813212 203.977814 
L 62.813212 208.687186 
L 62.813212 209.869849 
L 63.748349 208.687186 
L 68.026424 204.178471 
L 68.470673 203.977814 
L 70.208411 199.268442 
L 73.239636 197.214741 
L 74.919518 194.55907 
L 78.452848 190.83525 
L 80.634835 189.849698 
L 83.66606 188.206737 
L 88.879272 185.249775 
L 89.027355 185.140326 
L 89.101396 180.430953 
L 91.061258 175.721581 
L 94.092484 173.667881 
L 99.305696 172.192508 
L 103.22542 171.012209 
L 104.518908 170.135852 
L 107.913384 166.302837 
L 109.73212 164.659877 
L 113.126596 161.593465 
L 114.945332 159.539765 
L 117.885125 156.884093 
L 120.158543 152.776692 
L 121.491292 152.174721 
L 125.371755 150.422006 
L 130.584967 147.766334 
L 130.751561 147.465349 
L 135.798179 142.90647 
L 135.931454 142.755977 
L 135.798179 141.552034 
L 131.917716 138.046605 
L 133.857947 133.337233 
L 135.798179 129.831803 
L 137.130927 128.62786 
L 141.011391 127.459384 
L 144.891855 128.62786 
L 142.304879 133.337233 
L 141.011391 136.842662 
L 139.678643 138.046605 
L 141.011391 138.166999 
L 146.224603 138.180376 
L 147.557351 138.046605 
L 151.437815 136.29389 
L 153.619802 133.337233 
L 156.651027 131.283532 
L 157.957602 128.62786 
L 161.864239 124.09048 
L 163.196987 123.918488 
L 163.170814 119.209116 
L 165.137219 114.499744 
L 167.077451 113.623387 
L 172.290663 112.446044 
L 174.642497 109.790372 
L 177.503875 106.559329 
L 180.776855 105.081 
L 182.717087 104.204643 
L 186.597551 105.081 
L 187.930299 105.161263 
L 188.063574 105.081 
L 191.203279 100.371628 
L 193.143511 99.49527 
L 195.972242 95.662256 
L 198.356723 93.077421 
L 203.569935 92.133182 
L 207.476572 95.662256 
L 208.783147 96.421019 
L 210.743009 95.662256 
L 209.449521 90.952884 
L 212.702871 86.243512 
L 213.996359 82.738082 
L 215.329107 81.53414 
L 214.329546 76.824767 
L 219.209571 73.298058 
L 222.462921 76.824767 
L 221.149803 81.53414 
L 224.23239 86.243512 
L 221.149803 90.952884 
L 223.768187 95.662256 
L 224.422783 96.507015 
L 227.695763 95.662256 
L 225.731975 90.952884 
L 229.635995 88.013959 
L 234.51602 90.952884 
L 234.849207 92.156826 
L 236.142694 95.662256 
L 238.72967 100.371628 
L 238.425928 105.081 
L 236.667942 109.790372 
L 238.176598 114.499744 
L 234.849207 118.364357 
L 233.540015 119.209116 
L 234.849207 121.180221 
L 236.667942 123.918488 
L 239.895825 128.62786 
L 240.062419 129.831803 
L 241.032534 133.337233 
L 243.154082 138.046605 
L 244.277255 142.755977 
L 240.062419 147.379353 
L 240.022032 147.465349 
L 239.995781 152.174721 
L 240.062419 153.378663 
L 241.355906 156.884093 
L 245.27563 160.424989 
L 246.245746 161.593465 
L 245.27563 162.761942 
L 244.687672 166.302837 
L 244.295699 171.012209 
L 245.186781 175.721581 
L 245.27563 176.925524 
L 246.245746 180.430953 
L 247.094366 185.140326 
L 245.27563 187.194026 
L 244.295699 189.849698 
L 240.062419 194.438676 
L 239.951356 194.55907 
L 239.94126 199.268442 
L 235.819323 203.977814 
L 234.849207 205.146291 
L 229.635995 208.030151 
L 227.999505 208.687186 
L 224.422783 211.272021 
L 219.209571 211.206264 
L 215.305551 208.687186 
L 213.996359 207.842427 
L 212.905365 208.687186 
L 213.996359 211.643843 
L 214.966475 213.396558 
L 213.996359 214.565035 
L 210.115895 213.396558 
L 208.783147 213.15577 
L 203.569935 212.213895 
L 200.296955 213.396558 
L 198.356723 214.272916 
L 194.113627 218.10593 
L 193.143511 218.982288 
L 187.930299 219.274407 
L 184.010575 222.815302 
L 182.717087 223.983779 
L 179.777294 227.524674 
L 177.503875 230.262942 
L 175.867385 232.234047 
L 172.290663 234.818881 
L 167.077451 234.818881 
L 161.864239 236.573836 
L 160.773246 236.943419 
L 161.197865 241.652791 
L 156.651027 244.391058 
L 151.437815 246.061177 
L 150.993566 246.362163 
L 146.224603 250.670221 
L 141.011391 249.301087 
L 135.798179 249.593206 
L 135.252683 251.071535 
L 130.584967 255.288131 
L 128.948477 255.780907 
L 125.371755 258.365742 
L 123.019921 260.490279 
L 120.158543 263.721323 
L 114.945332 264.019353 
L 112.98547 265.199651 
L 111.025608 269.909023 
L 109.73212 273.414453 
L 109.065746 274.618395 
L 104.518908 276.672096 
L 101.579115 279.327767 
L 104.518908 281.983439 
L 106.792327 284.03714 
L 104.518908 288.14454 
L 104.252358 288.746512 
L 104.518908 289.348483 
L 105.851656 288.746512 
L 109.73212 287.578035 
L 113.612583 288.746512 
L 114.945332 289.950454 
L 115.278519 288.746512 
L 114.945332 288.14454 
L 112.671913 284.03714 
L 114.945332 282.394179 
L 117.21875 284.03714 
L 120.158543 285.807587 
L 124.078267 284.03714 
L 123.431524 279.327767 
L 125.371755 277.575053 
L 129.252219 279.327767 
L 130.584967 279.929739 
L 131.917716 279.327767 
L 135.798179 277.575053 
L 141.011391 277.575053 
L 144.284371 274.618395 
L 146.224603 272.86568 
L 148.164835 274.618395 
L 150.993566 279.327767 
L 151.437815 279.568556 
L 152.104189 279.327767 
L 156.651027 276.5895 
L 159.924007 274.618395 
L 161.864239 272.86568 
L 162.682484 269.909023 
L 161.864239 268.430695 
L 156.651027 266.368128 
L 154.710795 265.199651 
L 156.651027 261.694221 
L 157.317401 260.490279 
L 161.864239 257.752012 
L 162.518835 255.780907 
L 161.864239 252.82425 
L 160.570751 251.071535 
L 161.864239 249.903058 
L 167.077451 249.903058 
L 170.997175 246.362163 
L 172.290663 245.193686 
L 177.503875 243.423238 
L 182.3839 246.362163 
L 182.272838 251.071535 
L 182.717087 252.275477 
L 184.657319 255.780907 
L 182.717087 256.949384 
L 177.503875 257.533622 
L 174.230895 260.490279 
L 172.290663 263.995709 
L 171.846414 265.199651 
L 172.290663 265.44044 
L 175.823993 269.909023 
L 177.503875 272.033561 
L 182.717087 271.112966 
L 187.930299 271.679471 
L 193.143511 272.86568 
L 194.452703 269.909023 
L 194.452703 265.199651 
L 193.58776 260.490279 
L 193.333903 255.780907 
L 193.143511 255.379593 
L 189.566789 251.071535 
L 193.143511 247.840491 
L 198.356723 248.065725 
L 203.569935 246.899737 
L 204.660928 246.362163 
L 208.783147 241.893579 
L 212.316477 246.362163 
L 213.805966 251.071535 
L 212.316477 255.780907 
L 213.848276 260.490279 
L 213.996359 260.610673 
L 219.076296 265.199651 
L 219.209571 265.44044 
L 222.742901 269.909023 
L 224.348741 274.618395 
L 224.422783 274.67312 
L 229.351388 279.327767 
L 229.635995 281.298872 
L 231.45473 284.03714 
L 229.635995 288.14454 
L 229.41387 288.746512 
L 225.392899 293.455884 
L 224.422783 294.62436 
L 221.48299 298.165256 
L 219.209571 299.808216 
L 216.178345 298.165256 
L 213.996359 296.686927 
L 208.783147 297.854029 
L 203.569935 295.974962 
L 198.356723 294.332241 
L 196.416491 293.455884 
L 193.143511 292.470331 
L 187.930299 290.900541 
L 182.717087 290.900541 
L 177.503875 292.178212 
L 172.290663 292.49763 
L 167.077451 292.06206 
L 161.864239 292.393615 
L 156.651027 292.864552 
L 151.437815 291.539376 
L 148.043338 293.455884 
L 146.224603 295.098844 
L 141.011391 294.332241 
L 137.130927 293.455884 
L 135.798179 293.154898 
L 130.584967 293.215095 
L 129.252219 293.455884 
L 127.311987 298.165256 
L 125.371755 299.041613 
L 120.158543 299.808216 
L 117.127318 298.165256 
L 114.945332 295.208599 
L 109.73212 295.509584 
L 104.518908 295.509584 
L 101.487682 293.455884 
L 99.305696 292.470331 
L 96.032716 293.455884 
L 94.092484 294.62436 
L 88.879272 294.332241 
L 83.66606 296.040719 
L 78.452848 298.072645 
L 78.363998 298.165256 
L 73.239636 302.505046 
L 72.148643 302.874628 
z
M 139.071159 269.909023 
L 141.011391 268.740547 
L 142.951623 269.909023 
L 141.011391 271.661738 
z
M 144.931115 260.490279 
L 146.224603 256.984849 
L 147.518091 260.490279 
L 146.224603 262.242994 
z
M 185.65688 260.490279 
L 187.930299 257.752012 
L 192.477137 260.490279 
L 187.930299 262.133239 
z
M 139.717903 255.780907 
L 141.011391 254.61243 
L 144.891855 255.780907 
L 141.011391 256.949384 
z
M 129.291479 128.62786 
L 130.584967 127.751503 
L 134.465431 128.62786 
L 130.584967 130.380575 
z
M 243.982143 95.662256 
L 245.27563 93.909541 
L 246.245746 95.662256 
L 245.27563 96.538613 
z
M 236.181955 90.952884 
L 240.062419 90.076526 
L 242.00265 90.952884 
L 240.062419 92.12136 
z
" style="fill:#ffffff;"/>
    <path clip-path="url(#pca60c8e31f)" d="M 120.158543 294.057855 
L 121.491292 293.455884 
L 120.158543 293.154898 
L 118.825795 293.455884 
z
" style="fill:#ffffff;"/>
    <path clip-path="url(#pca60c8e31f)" d="M 213.996359 290.22484 
L 217.269339 288.746512 
L 213.996359 287.901752 
L 213.178114 288.746512 
z
" style="fill:#ffffff;"/>
    <path clip-path="url(#pca60c8e31f)" d="M 172.290663 120.687445 
L 174.47265 119.209116 
L 172.290663 117.238011 
L 171.472418 119.209116 
z
" style="fill:#ffffff;"/>
    <path clip-path="url(#pca60c8e31f)" d="M 229.635995 111.56082 
L 232.575788 109.790372 
L 229.635995 108.905148 
L 227.28416 109.790372 
z
" style="fill:#ffffff;"/>
   </g>
   <g id="PathCollection_3">
    <path clip-path="url(#pca60c8e31f)" d="M 68.026424 302.874628 
L 72.148643 302.874628 
L 73.239636 302.505046 
L 78.363998 298.165256 
L 78.452848 298.072645 
L 83.66606 296.040719 
L 88.879272 294.332241 
L 94.092484 294.62436 
L 96.032716 293.455884 
L 99.305696 292.470331 
L 101.487682 293.455884 
L 104.518908 295.509584 
L 109.73212 295.509584 
L 114.945332 295.208599 
L 117.127318 298.165256 
L 120.158543 299.808216 
L 125.371755 299.041613 
L 127.311987 298.165256 
L 129.252219 293.455884 
L 130.584967 293.215095 
L 135.798179 293.154898 
L 137.130927 293.455884 
L 141.011391 294.332241 
L 146.224603 295.098844 
L 148.043338 293.455884 
L 151.437815 291.539376 
L 156.651027 292.864552 
L 161.864239 292.393615 
L 167.077451 292.06206 
L 172.290663 292.49763 
L 177.503875 292.178212 
L 182.717087 290.900541 
L 187.930299 290.900541 
L 193.143511 292.470331 
L 196.416491 293.455884 
L 198.356723 294.332241 
L 203.569935 295.974962 
L 208.783147 297.854029 
L 213.996359 296.686927 
L 216.178345 298.165256 
L 219.209571 299.808216 
L 221.48299 298.165256 
L 224.422783 294.62436 
L 225.392899 293.455884 
L 229.41387 288.746512 
L 229.635995 288.14454 
L 231.45473 284.03714 
L 229.635995 281.298872 
L 229.351388 279.327767 
L 224.422783 274.67312 
L 224.348741 274.618395 
L 222.742901 269.909023 
L 219.209571 265.44044 
L 219.076296 265.199651 
L 213.996359 260.610673 
L 213.848276 260.490279 
L 212.316477 255.780907 
L 213.805966 251.071535 
L 212.316477 246.362163 
L 208.783147 241.893579 
L 204.660928 246.362163 
L 203.569935 246.899737 
L 198.356723 248.065725 
L 193.143511 247.840491 
L 189.566789 251.071535 
L 193.143511 255.379593 
L 193.333903 255.780907 
L 193.58776 260.490279 
L 194.452703 265.199651 
L 194.452703 269.909023 
L 193.143511 272.86568 
L 187.930299 271.679471 
L 182.717087 271.112966 
L 177.503875 272.033561 
L 175.823993 269.909023 
L 172.290663 265.44044 
L 171.846414 265.199651 
L 172.290663 263.995709 
L 174.230895 260.490279 
L 177.503875 257.533622 
L 182.717087 256.949384 
L 184.657319 255.780907 
L 182.717087 252.275477 
L 182.272838 251.071535 
L 182.3839 246.362163 
L 177.503875 243.423238 
L 172.290663 245.193686 
L 170.997175 246.362163 
L 167.077451 249.903058 
L 161.864239 249.903058 
L 160.570751 251.071535 
L 161.864239 252.82425 
L 162.518835 255.780907 
L 161.864239 257.752012 
L 157.317401 260.490279 
L 156.651027 261.694221 
L 154.710795 265.199651 
L 156.651027 266.368128 
L 161.864239 268.430695 
L 162.682484 269.909023 
L 161.864239 272.86568 
L 159.924007 274.618395 
L 156.651027 276.5895 
L 152.104189 279.327767 
L 151.437815 279.568556 
L 150.993566 279.327767 
L 148.164835 274.618395 
L 146.224603 272.86568 
L 144.284371 274.618395 
L 141.011391 277.575053 
L 135.798179 277.575053 
L 131.917716 279.327767 
L 130.584967 279.929739 
L 129.252219 279.327767 
L 125.371755 277.575053 
L 123.431524 279.327767 
L 124.078267 284.03714 
L 120.158543 285.807587 
L 117.21875 284.03714 
L 114.945332 282.394179 
L 112.671913 284.03714 
L 114.945332 288.14454 
L 115.278519 288.746512 
L 114.945332 289.950454 
L 113.612583 288.746512 
L 109.73212 287.578035 
L 105.851656 288.746512 
L 104.518908 289.348483 
L 104.252358 288.746512 
L 104.518908 288.14454 
L 106.792327 284.03714 
L 104.518908 281.983439 
L 101.579115 279.327767 
L 104.518908 276.672096 
L 109.065746 274.618395 
L 109.73212 273.414453 
L 111.025608 269.909023 
L 112.98547 265.199651 
L 114.945332 264.019353 
L 120.158543 263.721323 
L 123.019921 260.490279 
L 125.371755 258.365742 
L 128.948477 255.780907 
L 130.584967 255.288131 
L 135.252683 251.071535 
L 135.798179 249.593206 
L 141.011391 249.301087 
L 146.224603 250.670221 
L 150.993566 246.362163 
L 151.437815 246.061177 
L 156.651027 244.391058 
L 161.197865 241.652791 
L 160.773246 236.943419 
L 161.864239 236.573836 
L 167.077451 234.818881 
L 172.290663 234.818881 
L 175.867385 232.234047 
L 177.503875 230.262942 
L 179.777294 227.524674 
L 182.717087 223.983779 
L 184.010575 222.815302 
L 187.930299 219.274407 
L 193.143511 218.982288 
L 194.113627 218.10593 
L 198.356723 214.272916 
L 200.296955 213.396558 
L 203.569935 212.213895 
L 208.783147 213.15577 
L 210.115895 213.396558 
L 213.996359 214.565035 
L 214.966475 213.396558 
L 213.996359 211.643843 
L 212.905365 208.687186 
L 213.996359 207.842427 
L 215.305551 208.687186 
L 219.209571 211.206264 
L 224.422783 211.272021 
L 227.999505 208.687186 
L 229.635995 208.030151 
L 234.849207 205.146291 
L 235.819323 203.977814 
L 239.94126 199.268442 
L 239.951356 194.55907 
L 240.062419 194.438676 
L 244.295699 189.849698 
L 245.27563 187.194026 
L 247.094366 185.140326 
L 246.245746 180.430953 
L 245.27563 176.925524 
L 245.186781 175.721581 
L 244.295699 171.012209 
L 244.687672 166.302837 
L 245.27563 162.761942 
L 246.245746 161.593465 
L 245.27563 160.424989 
L 241.355906 156.884093 
L 240.062419 153.378663 
L 239.995781 152.174721 
L 240.022032 147.465349 
L 240.062419 147.379353 
L 244.277255 142.755977 
L 243.154082 138.046605 
L 241.032534 133.337233 
L 240.062419 129.831803 
L 239.895825 128.62786 
L 236.667942 123.918488 
L 234.849207 121.180221 
L 233.540015 119.209116 
L 234.849207 118.364357 
L 238.176598 114.499744 
L 236.667942 109.790372 
L 238.425928 105.081 
L 238.72967 100.371628 
L 236.142694 95.662256 
L 234.849207 92.156826 
L 234.51602 90.952884 
L 229.635995 88.013959 
L 225.731975 90.952884 
L 227.695763 95.662256 
L 224.422783 96.507015 
L 223.768187 95.662256 
L 221.149803 90.952884 
L 224.23239 86.243512 
L 221.149803 81.53414 
L 222.462921 76.824767 
L 219.209571 73.298058 
L 214.329546 76.824767 
L 215.329107 81.53414 
L 213.996359 82.738082 
L 212.702871 86.243512 
L 209.449521 90.952884 
L 210.743009 95.662256 
L 208.783147 96.421019 
L 207.476572 95.662256 
L 203.569935 92.133182 
L 198.356723 93.077421 
L 195.972242 95.662256 
L 193.143511 99.49527 
L 191.203279 100.371628 
L 188.063574 105.081 
L 187.930299 105.161263 
L 186.597551 105.081 
L 182.717087 104.204643 
L 180.776855 105.081 
L 177.503875 106.559329 
L 174.642497 109.790372 
L 172.290663 112.446044 
L 167.077451 113.623387 
L 165.137219 114.499744 
L 163.170814 119.209116 
L 163.196987 123.918488 
L 161.864239 124.09048 
L 157.957602 128.62786 
L 156.651027 131.283532 
L 153.619802 133.337233 
L 151.437815 136.29389 
L 147.557351 138.046605 
L 146.224603 138.180376 
L 141.011391 138.166999 
L 139.678643 138.046605 
L 141.011391 136.842662 
L 142.304879 133.337233 
L 144.891855 128.62786 
L 141.011391 127.459384 
L 137.130927 128.62786 
L 135.798179 129.831803 
L 133.857947 133.337233 
L 131.917716 138.046605 
L 135.798179 141.552034 
L 135.931454 142.755977 
L 135.798179 142.90647 
L 130.751561 147.465349 
L 130.584967 147.766334 
L 125.371755 150.422006 
L 121.491292 152.174721 
L 120.158543 152.776692 
L 117.885125 156.884093 
L 114.945332 159.539765 
L 113.126596 161.593465 
L 109.73212 164.659877 
L 107.913384 166.302837 
L 104.518908 170.135852 
L 103.22542 171.012209 
L 99.305696 172.192508 
L 94.092484 173.667881 
L 91.061258 175.721581 
L 89.101396 180.430953 
L 89.027355 185.140326 
L 88.879272 185.249775 
L 83.66606 188.206737 
L 80.634835 189.849698 
L 78.452848 190.83525 
L 74.919518 194.55907 
L 73.239636 197.214741 
L 70.208411 199.268442 
L 68.470673 203.977814 
L 68.026424 204.178471 
L 63.748349 208.687186 
L 62.813212 209.869849 
L 62.813212 213.396558 
L 62.813212 218.10593 
L 62.813212 222.815302 
L 62.813212 227.524674 
L 62.813212 232.234047 
L 62.813212 236.943419 
L 62.813212 241.652791 
L 62.813212 244.020776 
L 63.365071 241.652791 
L 63.429995 236.943419 
L 63.716103 232.234047 
L 65.601444 227.524674 
L 68.026424 222.830502 
L 68.030105 222.815302 
L 68.996196 218.10593 
L 71.644631 213.396558 
L 73.239636 211.693732 
L 75.393181 208.687186 
L 78.452848 204.771576 
L 78.829427 203.977814 
L 79.763512 199.268442 
L 83.66606 194.929514 
L 84.332434 194.55907 
L 88.313113 189.849698 
L 88.879272 189.431245 
L 93.974703 189.849698 
L 94.092484 189.854131 
L 94.097014 189.849698 
L 99.305696 186.142507 
L 102.356551 185.140326 
L 103.669669 180.430953 
L 104.518908 179.663791 
L 108.259456 175.721581 
L 109.73212 172.617466 
L 113.168334 175.721581 
L 112.694272 180.430953 
L 114.945332 181.108787 
L 117.196391 180.430953 
L 120.158543 175.748181 
L 120.178174 175.721581 
L 120.158543 175.709759 
L 115.478431 171.012209 
L 119.309305 166.302837 
L 120.158543 165.645269 
L 125.371755 162.784108 
L 126.543334 161.593465 
L 130.584967 157.486064 
L 131.473466 156.884093 
L 134.073529 152.174721 
L 135.798179 149.370377 
L 137.304494 147.465349 
L 141.011391 142.777256 
L 146.224603 143.443944 
L 151.437815 143.870323 
L 156.651027 143.704944 
L 159.277263 142.755977 
L 161.864239 140.419024 
L 163.615063 138.046605 
L 164.490475 133.337233 
L 167.077451 129.831803 
L 167.61055 128.62786 
L 172.290663 125.985488 
L 177.503875 123.931788 
L 177.511727 123.918488 
L 179.595049 119.209116 
L 182.717087 114.508611 
L 182.726902 114.499744 
L 185.934277 109.790372 
L 187.930299 108.227675 
L 193.143511 105.089184 
L 193.167067 105.081 
L 198.356723 102.150942 
L 199.669841 100.371628 
L 203.569935 96.848465 
L 208.783147 99.70646 
L 211.360308 100.371628 
L 213.996359 101.104331 
L 219.209571 104.160405 
L 220.228657 105.081 
L 219.209571 106.615325 
L 218.832992 109.790372 
L 219.209571 110.742886 
L 223.83045 114.499744 
L 224.422783 114.843728 
L 227.983518 119.209116 
L 229.495705 123.918488 
L 229.635995 124.219474 
L 234.228959 128.62786 
L 234.849207 130.532889 
L 236.142694 133.337233 
L 238.684322 138.046605 
L 240.062419 140.674744 
L 241.282128 142.755977 
L 240.062419 144.093912 
L 238.479088 147.465349 
L 237.449924 152.174721 
L 238.85635 156.884093 
L 240.062419 160.746888 
L 240.999568 161.593465 
L 242.141814 166.302837 
L 240.062419 170.99891 
L 240.060063 171.012209 
L 240.062419 171.033489 
L 241.792304 175.721581 
L 242.139851 180.430953 
L 242.487399 185.140326 
L 240.062419 189.834498 
L 240.051711 189.849698 
L 235.70826 194.55907 
L 235.312428 199.268442 
L 234.849207 199.728739 
L 229.635995 202.787171 
L 224.422783 203.0253 
L 219.209571 201.399393 
L 213.996359 202.083425 
L 208.783147 201.130911 
L 203.569935 200.829366 
L 199.422921 199.268442 
L 198.356723 198.733356 
L 198.102866 199.268442 
L 195.20524 203.977814 
L 193.143511 205.529872 
L 188.949385 208.687186 
L 187.930299 209.454348 
L 182.717087 211.819674 
L 181.176861 213.396558 
L 180.090851 218.10593 
L 177.503875 220.109033 
L 174.508071 222.815302 
L 172.290663 224.568017 
L 169.910314 227.524674 
L 167.077451 229.690046 
L 164.026596 232.234047 
L 161.864239 233.699075 
L 156.651027 235.2539 
L 153.378047 236.943419 
L 151.437815 238.501387 
L 146.263863 236.943419 
L 146.224603 236.939986 
L 146.213896 236.943419 
L 141.011391 241.251477 
L 135.798179 240.075907 
L 133.41783 241.652791 
L 130.584967 245.17152 
L 130.082862 246.362163 
L 130.584967 249.53721 
L 131.009587 251.071535 
L 130.584967 251.455116 
L 125.371755 252.10624 
L 120.158543 252.774361 
L 116.497517 255.780907 
L 114.945332 258.11786 
L 113.512839 260.490279 
L 109.73212 263.173749 
L 107.115699 265.199651 
L 104.518908 267.210354 
L 101.033618 269.909023 
L 99.305696 271.782132 
L 94.092484 274.247952 
L 93.607848 274.618395 
L 90.17276 279.327767 
L 88.879272 282.833197 
L 87.102274 284.03714 
L 83.66606 288.693313 
L 83.651337 288.746512 
L 80.005033 293.455884 
L 78.452848 294.534477 
L 74.969521 298.165256 
L 73.239636 299.630285 
L 68.026424 301.964887 
L 67.417497 302.874628 
z
M 118.825795 293.455884 
L 120.158543 293.154898 
L 121.491292 293.455884 
L 120.158543 294.057855 
z
M 205.812581 293.455884 
L 203.569935 290.30448 
L 201.629703 288.746512 
L 203.569935 287.47181 
L 206.156911 288.746512 
L 208.783147 290.040558 
L 211.555674 293.455884 
L 208.783147 295.433177 
z
M 169.186292 288.746512 
L 172.290663 286.743409 
L 175.286467 284.03714 
L 177.503875 282.479171 
L 181.428507 279.327767 
L 182.717087 278.48119 
L 184.778816 279.327767 
L 187.930299 280.751219 
L 191.869653 279.327767 
L 193.143511 278.86747 
L 194.162597 279.327767 
L 193.143511 280.248362 
L 191.23709 284.03714 
L 187.930299 286.384226 
L 182.717087 285.071845 
L 177.503875 287.542569 
L 176.171127 288.746512 
L 172.290663 289.622869 
z
M 213.178114 288.746512 
L 213.996359 287.901752 
L 217.269339 288.746512 
L 213.996359 290.22484 
z
M 214.773049 284.03714 
L 213.996359 283.525143 
L 208.783147 283.089945 
L 203.569935 281.33847 
L 200.453786 279.327767 
L 203.569935 276.200008 
L 208.783147 276.056308 
L 211.071288 274.618395 
L 208.783147 272.256109 
L 206.184954 269.909023 
L 206.235431 265.199651 
L 208.783147 262.898164 
L 213.878578 265.199651 
L 213.329985 269.909023 
L 213.996359 270.3906 
L 219.209571 271.728505 
L 221.52001 274.618395 
L 224.422783 276.763855 
L 227.137598 279.327767 
L 228.329011 284.03714 
L 224.422783 288.069944 
L 219.209571 287.418676 
z
M 171.472418 119.209116 
L 172.290663 117.238011 
L 174.47265 119.209116 
L 172.290663 120.687445 
z
M 227.28416 109.790372 
L 229.635995 108.905148 
L 232.575788 109.790372 
L 229.635995 111.56082 
z
" style="fill:#f0f0f0;"/>
    <path clip-path="url(#pca60c8e31f)" d="M 141.011391 271.661738 
L 142.951623 269.909023 
L 141.011391 268.740547 
L 139.071159 269.909023 
z
" style="fill:#f0f0f0;"/>
    <path clip-path="url(#pca60c8e31f)" d="M 146.224603 262.242994 
L 147.518091 260.490279 
L 146.224603 256.984849 
L 144.931115 260.490279 
z
" style="fill:#f0f0f0;"/>
    <path clip-path="url(#pca60c8e31f)" d="M 187.930299 262.133239 
L 192.477137 260.490279 
L 187.930299 257.752012 
L 185.65688 260.490279 
z
" style="fill:#f0f0f0;"/>
    <path clip-path="url(#pca60c8e31f)" d="M 141.011391 256.949384 
L 144.891855 255.780907 
L 141.011391 254.61243 
L 139.717903 255.780907 
z
" style="fill:#f0f0f0;"/>
    <path clip-path="url(#pca60c8e31f)" d="M 208.783147 194.612268 
L 213.996359 195.749712 
L 215.167937 194.55907 
L 213.996359 191.384023 
L 208.783147 194.551977 
L 208.743887 194.55907 
z
" style="fill:#f0f0f0;"/>
    <path clip-path="url(#pca60c8e31f)" d="M 130.584967 171.241532 
L 130.940367 171.012209 
L 130.584967 170.477124 
L 129.696469 171.012209 
z
" style="fill:#f0f0f0;"/>
    <path clip-path="url(#pca60c8e31f)" d="M 130.584967 130.380575 
L 134.465431 128.62786 
L 130.584967 127.751503 
L 129.291479 128.62786 
z
" style="fill:#f0f0f0;"/>
    <path clip-path="url(#pca60c8e31f)" d="M 245.27563 96.538613 
L 246.245746 95.662256 
L 245.27563 93.909541 
L 243.982143 95.662256 
z
" style="fill:#f0f0f0;"/>
    <path clip-path="url(#pca60c8e31f)" d="M 240.062419 92.12136 
L 242.00265 90.952884 
L 240.062419 90.076526 
L 236.181955 90.952884 
z
" style="fill:#f0f0f0;"/>
   </g>
   <g id="PathCollection_4">
    <path clip-path="url(#pca60c8e31f)" d="M 68.026424 301.964887 
L 73.239636 299.630285 
L 74.969521 298.165256 
L 78.452848 294.534477 
L 80.005033 293.455884 
L 83.651337 288.746512 
L 83.66606 288.693313 
L 87.102274 284.03714 
L 88.879272 282.833197 
L 90.17276 279.327767 
L 93.607848 274.618395 
L 94.092484 274.247952 
L 99.305696 271.782132 
L 101.033618 269.909023 
L 104.518908 267.210354 
L 107.115699 265.199651 
L 109.73212 263.173749 
L 113.512839 260.490279 
L 114.945332 258.11786 
L 116.497517 255.780907 
L 120.158543 252.774361 
L 125.371755 252.10624 
L 130.584967 251.455116 
L 131.009587 251.071535 
L 130.584967 249.53721 
L 130.082862 246.362163 
L 130.584967 245.17152 
L 133.41783 241.652791 
L 135.798179 240.075907 
L 141.011391 241.251477 
L 146.213896 236.943419 
L 146.224603 236.939986 
L 146.263863 236.943419 
L 151.437815 238.501387 
L 153.378047 236.943419 
L 156.651027 235.2539 
L 161.864239 233.699075 
L 164.026596 232.234047 
L 167.077451 229.690046 
L 169.910314 227.524674 
L 172.290663 224.568017 
L 174.508071 222.815302 
L 177.503875 220.109033 
L 180.090851 218.10593 
L 181.176861 213.396558 
L 182.717087 211.819674 
L 187.930299 209.454348 
L 188.949385 208.687186 
L 193.143511 205.529872 
L 195.20524 203.977814 
L 198.102866 199.268442 
L 198.356723 198.733356 
L 199.422921 199.268442 
L 203.569935 200.829366 
L 208.783147 201.130911 
L 213.996359 202.083425 
L 219.209571 201.399393 
L 224.422783 203.0253 
L 229.635995 202.787171 
L 234.849207 199.728739 
L 235.312428 199.268442 
L 235.70826 194.55907 
L 240.051711 189.849698 
L 240.062419 189.834498 
L 242.487399 185.140326 
L 242.139851 180.430953 
L 241.792304 175.721581 
L 240.062419 171.033489 
L 240.060063 171.012209 
L 240.062419 170.99891 
L 242.141814 166.302837 
L 240.999568 161.593465 
L 240.062419 160.746888 
L 238.85635 156.884093 
L 237.449924 152.174721 
L 238.479088 147.465349 
L 240.062419 144.093912 
L 241.282128 142.755977 
L 240.062419 140.674744 
L 238.684322 138.046605 
L 236.142694 133.337233 
L 234.849207 130.532889 
L 234.228959 128.62786 
L 229.635995 124.219474 
L 229.495705 123.918488 
L 227.983518 119.209116 
L 224.422783 114.843728 
L 223.83045 114.499744 
L 219.209571 110.742886 
L 218.832992 109.790372 
L 219.209571 106.615325 
L 220.228657 105.081 
L 219.209571 104.160405 
L 213.996359 101.104331 
L 211.360308 100.371628 
L 208.783147 99.70646 
L 203.569935 96.848465 
L 199.669841 100.371628 
L 198.356723 102.150942 
L 193.167067 105.081 
L 193.143511 105.089184 
L 187.930299 108.227675 
L 185.934277 109.790372 
L 182.726902 114.499744 
L 182.717087 114.508611 
L 179.595049 119.209116 
L 177.511727 123.918488 
L 177.503875 123.931788 
L 172.290663 125.985488 
L 167.61055 128.62786 
L 167.077451 129.831803 
L 164.490475 133.337233 
L 163.615063 138.046605 
L 161.864239 140.419024 
L 159.277263 142.755977 
L 156.651027 143.704944 
L 151.437815 143.870323 
L 146.224603 143.443944 
L 141.011391 142.777256 
L 137.304494 147.465349 
L 135.798179 149.370377 
L 134.073529 152.174721 
L 131.473466 156.884093 
L 130.584967 157.486064 
L 126.543334 161.593465 
L 125.371755 162.784108 
L 120.158543 165.645269 
L 119.309305 166.302837 
L 115.478431 171.012209 
L 120.158543 175.709759 
L 120.178174 175.721581 
L 120.158543 175.748181 
L 117.196391 180.430953 
L 114.945332 181.108787 
L 112.694272 180.430953 
L 113.168334 175.721581 
L 109.73212 172.617466 
L 108.259456 175.721581 
L 104.518908 179.663791 
L 103.669669 180.430953 
L 102.356551 185.140326 
L 99.305696 186.142507 
L 94.097014 189.849698 
L 94.092484 189.854131 
L 93.974703 189.849698 
L 88.879272 189.431245 
L 88.313113 189.849698 
L 84.332434 194.55907 
L 83.66606 194.929514 
L 79.763512 199.268442 
L 78.829427 203.977814 
L 78.452848 204.771576 
L 75.393181 208.687186 
L 73.239636 211.693732 
L 71.644631 213.396558 
L 68.996196 218.10593 
L 68.030105 222.815302 
L 68.026424 222.830502 
L 65.601444 227.524674 
L 63.716103 232.234047 
L 63.429995 236.943419 
L 63.365071 241.652791 
L 62.813212 244.020776 
L 62.813212 246.362163 
L 62.813212 247.869782 
L 63.24713 246.362163 
L 64.481675 241.652791 
L 64.677965 236.943419 
L 65.17924 232.234047 
L 68.026424 227.846494 
L 68.40494 227.524674 
L 69.356072 222.815302 
L 70.567713 218.10593 
L 73.239636 214.485395 
L 73.939503 213.396558 
L 77.88912 208.687186 
L 78.452848 207.965755 
L 80.344818 203.977814 
L 82.415447 199.268442 
L 83.66606 197.877986 
L 88.879272 194.706933 
L 89.235522 194.55907 
L 94.092484 191.45122 
L 95.728974 189.849698 
L 99.305696 187.304027 
L 104.518908 186.629294 
L 109.73212 185.921888 
L 110.282688 185.140326 
L 114.945332 182.934033 
L 120.158543 182.212686 
L 120.993001 180.430953 
L 125.371755 176.145761 
L 126.176717 175.721581 
L 130.584967 173.066777 
L 133.769098 171.012209 
L 130.753576 166.302837 
L 132.099032 161.593465 
L 135.798179 159.365707 
L 136.975514 156.884093 
L 141.011391 152.243954 
L 141.292406 152.174721 
L 146.224603 149.501411 
L 147.834527 147.465349 
L 151.437815 146.125037 
L 156.651027 146.260287 
L 160.652988 147.465349 
L 161.864239 147.85613 
L 163.882991 147.465349 
L 166.34909 142.755977 
L 167.077451 141.440042 
L 167.740361 138.046605 
L 170.067352 133.337233 
L 171.853646 128.62786 
L 172.290663 128.381123 
L 176.66083 128.62786 
L 177.503875 128.712479 
L 177.597547 128.62786 
L 180.340458 123.918488 
L 181.716597 119.209116 
L 182.717087 117.702789 
L 186.262815 114.499744 
L 187.930299 111.91747 
L 189.990634 109.790372 
L 193.143511 108.037657 
L 198.356723 105.790033 
L 203.569935 105.119078 
L 203.599005 105.081 
L 203.569935 104.319433 
L 203.205754 100.371628 
L 203.569935 100.042644 
L 204.194244 100.371628 
L 208.783147 101.200708 
L 213.996359 104.052804 
L 215.476018 105.081 
L 217.317601 109.790372 
L 219.182376 114.499744 
L 219.209571 114.524311 
L 224.422783 117.581595 
L 225.75031 119.209116 
L 228.379101 123.918488 
L 229.635995 126.615108 
L 231.73302 128.62786 
L 234.251226 133.337233 
L 234.849207 135.54709 
L 236.451113 138.046605 
L 239.339222 142.755977 
L 237.193302 147.465349 
L 235.328376 152.174721 
L 237.768376 156.884093 
L 239.278947 161.593465 
L 240.046512 166.302837 
L 239.211444 171.012209 
L 239.604566 175.721581 
L 239.659937 180.430953 
L 238.548354 185.140326 
L 236.194351 189.849698 
L 234.849207 191.33487 
L 229.635995 190.343173 
L 228.543453 189.849698 
L 224.422783 186.127277 
L 220.052615 185.140326 
L 219.209571 185.119743 
L 218.928556 185.140326 
L 213.996359 186.47698 
L 211.329535 189.849698 
L 208.783147 191.996633 
L 203.569935 193.208602 
L 198.356723 194.495606 
L 198.316578 194.55907 
L 196.082344 199.268442 
L 193.143511 202.365714 
L 189.574365 203.977814 
L 187.930299 205.314469 
L 183.781907 208.687186 
L 182.717087 209.264331 
L 179.522627 208.687186 
L 177.503875 208.553748 
L 177.28758 208.687186 
L 177.503875 209.781374 
L 178.680922 213.396558 
L 177.503875 215.404994 
L 175.26145 218.10593 
L 172.290663 220.7896 
L 168.446505 222.815302 
L 167.077451 224.979597 
L 165.199206 227.524674 
L 161.864239 230.106949 
L 157.743569 232.234047 
L 156.651027 232.516033 
L 151.437815 235.664028 
L 146.224603 235.70353 
L 142.356536 236.943419 
L 141.011391 238.057298 
L 135.798179 237.520564 
L 130.584967 240.804431 
L 129.332804 241.652791 
L 128.062341 246.362163 
L 125.371755 249.364605 
L 120.158543 248.621653 
L 118.608837 251.071535 
L 114.945332 254.160345 
L 113.362443 255.780907 
L 109.73212 260.426815 
L 104.518908 258.280422 
L 103.442543 260.490279 
L 101.70154 265.199651 
L 99.305696 266.642514 
L 96.593709 269.909023 
L 94.092484 271.299479 
L 89.750488 274.618395 
L 88.879272 275.855135 
L 85.515634 279.327767 
L 83.66606 280.81294 
L 81.524572 284.03714 
L 78.452848 288.661893 
L 78.332413 288.746512 
L 76.006566 293.455884 
L 73.239636 296.510847 
L 72.209468 298.165256 
L 68.026424 300.490651 
L 66.430731 302.874628 
L 67.417497 302.874628 
z
M 208.743887 194.55907 
L 208.783147 194.551977 
L 213.996359 191.384023 
L 215.167937 194.55907 
L 213.996359 195.749712 
L 208.783147 194.612268 
z
M 119.721527 171.012209 
L 120.158543 170.518734 
L 121.251085 171.012209 
L 120.158543 171.450854 
z
M 129.696469 171.012209 
L 130.584967 170.477124 
L 130.940367 171.012209 
L 130.584967 171.241532 
z
" style="fill:#d3d3d3;"/>
    <path clip-path="url(#pca60c8e31f)" d="M 208.783147 295.433177 
L 211.555674 293.455884 
L 208.783147 290.040558 
L 206.156911 288.746512 
L 203.569935 287.47181 
L 201.629703 288.746512 
L 203.569935 290.30448 
L 205.812581 293.455884 
z
" style="fill:#d3d3d3;"/>
    <path clip-path="url(#pca60c8e31f)" d="M 172.290663 289.622869 
L 176.171127 288.746512 
L 177.503875 287.542569 
L 182.717087 285.071845 
L 187.930299 286.384226 
L 191.23709 284.03714 
L 193.143511 280.248362 
L 194.162597 279.327767 
L 193.143511 278.86747 
L 191.869653 279.327767 
L 187.930299 280.751219 
L 184.778816 279.327767 
L 182.717087 278.48119 
L 181.428507 279.327767 
L 177.503875 282.479171 
L 175.286467 284.03714 
L 172.290663 286.743409 
L 169.186292 288.746512 
z
" style="fill:#d3d3d3;"/>
    <path clip-path="url(#pca60c8e31f)" d="M 219.209571 287.418676 
L 224.422783 288.069944 
L 228.329011 284.03714 
L 227.137598 279.327767 
L 224.422783 276.763855 
L 221.52001 274.618395 
L 219.209571 271.728505 
L 213.996359 270.3906 
L 213.329985 269.909023 
L 213.878578 265.199651 
L 208.783147 262.898164 
L 206.235431 265.199651 
L 206.184954 269.909023 
L 208.783147 272.256109 
L 211.071288 274.618395 
L 208.783147 276.056308 
L 203.569935 276.200008 
L 200.453786 279.327767 
L 203.569935 281.33847 
L 208.783147 283.089945 
L 213.996359 283.525143 
L 214.773049 284.03714 
z
M 216.344566 284.03714 
L 213.996359 282.489193 
L 208.783147 281.173438 
L 204.696882 279.327767 
L 208.783147 277.722837 
L 213.723223 274.618395 
L 213.996359 274.223615 
L 218.366526 274.618395 
L 219.209571 274.660705 
L 224.422783 278.506135 
L 225.292774 279.327767 
L 227.003043 284.03714 
L 224.422783 286.70101 
L 219.209571 286.220859 
z
" style="fill:#d3d3d3;"/>
    <path clip-path="url(#pca60c8e31f)" d="M 151.437815 227.579072 
L 152.28086 227.524674 
L 151.437815 227.484592 
L 151.39767 227.524674 
z
" style="fill:#d3d3d3;"/>
    <path clip-path="url(#pca60c8e31f)" d="M 99.305696 213.943652 
L 99.624446 213.396558 
L 99.305696 213.092617 
L 98.755127 213.396558 
z
" style="fill:#d3d3d3;"/>
    <path clip-path="url(#pca60c8e31f)" d="M 151.437815 153.268909 
L 151.841566 152.174721 
L 151.437815 151.262898 
L 149.923751 152.174721 
z
" style="fill:#d3d3d3;"/>
   </g>
   <g id="PathCollection_5">
    <path clip-path="url(#pca60c8e31f)" d="M 68.026424 300.490651 
L 72.209468 298.165256 
L 73.239636 296.510847 
L 76.006566 293.455884 
L 78.332413 288.746512 
L 78.452848 288.661893 
L 81.524572 284.03714 
L 83.66606 280.81294 
L 85.515634 279.327767 
L 88.879272 275.855135 
L 89.750488 274.618395 
L 94.092484 271.299479 
L 96.593709 269.909023 
L 99.305696 266.642514 
L 101.70154 265.199651 
L 103.442543 260.490279 
L 104.518908 258.280422 
L 109.73212 260.426815 
L 113.362443 255.780907 
L 114.945332 254.160345 
L 118.608837 251.071535 
L 120.158543 248.621653 
L 125.371755 249.364605 
L 128.062341 246.362163 
L 129.332804 241.652791 
L 130.584967 240.804431 
L 135.798179 237.520564 
L 141.011391 238.057298 
L 142.356536 236.943419 
L 146.224603 235.70353 
L 151.437815 235.664028 
L 156.651027 232.516033 
L 157.743569 232.234047 
L 161.864239 230.106949 
L 165.199206 227.524674 
L 167.077451 224.979597 
L 168.446505 222.815302 
L 172.290663 220.7896 
L 175.26145 218.10593 
L 177.503875 215.404994 
L 178.680922 213.396558 
L 177.503875 209.781374 
L 177.28758 208.687186 
L 177.503875 208.553748 
L 179.522627 208.687186 
L 182.717087 209.264331 
L 183.781907 208.687186 
L 187.930299 205.314469 
L 189.574365 203.977814 
L 193.143511 202.365714 
L 196.082344 199.268442 
L 198.316578 194.55907 
L 198.356723 194.495606 
L 203.569935 193.208602 
L 208.783147 191.996633 
L 211.329535 189.849698 
L 213.996359 186.47698 
L 218.928556 185.140326 
L 219.209571 185.119743 
L 220.052615 185.140326 
L 224.422783 186.127277 
L 228.543453 189.849698 
L 229.635995 190.343173 
L 234.849207 191.33487 
L 236.194351 189.849698 
L 238.548354 185.140326 
L 239.659937 180.430953 
L 239.604566 175.721581 
L 239.211444 171.012209 
L 240.046512 166.302837 
L 239.278947 161.593465 
L 237.768376 156.884093 
L 235.328376 152.174721 
L 237.193302 147.465349 
L 239.339222 142.755977 
L 236.451113 138.046605 
L 234.849207 135.54709 
L 234.251226 133.337233 
L 231.73302 128.62786 
L 229.635995 126.615108 
L 228.379101 123.918488 
L 225.75031 119.209116 
L 224.422783 117.581595 
L 219.209571 114.524311 
L 219.182376 114.499744 
L 217.317601 109.790372 
L 215.476018 105.081 
L 213.996359 104.052804 
L 208.783147 101.200708 
L 204.194244 100.371628 
L 203.569935 100.042644 
L 203.205754 100.371628 
L 203.569935 104.319433 
L 203.599005 105.081 
L 203.569935 105.119078 
L 198.356723 105.790033 
L 193.143511 108.037657 
L 189.990634 109.790372 
L 187.930299 111.91747 
L 186.262815 114.499744 
L 182.717087 117.702789 
L 181.716597 119.209116 
L 180.340458 123.918488 
L 177.597547 128.62786 
L 177.503875 128.712479 
L 176.66083 128.62786 
L 172.290663 128.381123 
L 171.853646 128.62786 
L 170.067352 133.337233 
L 167.740361 138.046605 
L 167.077451 141.440042 
L 166.34909 142.755977 
L 163.882991 147.465349 
L 161.864239 147.85613 
L 160.652988 147.465349 
L 156.651027 146.260287 
L 151.437815 146.125037 
L 147.834527 147.465349 
L 146.224603 149.501411 
L 141.292406 152.174721 
L 141.011391 152.243954 
L 136.975514 156.884093 
L 135.798179 159.365707 
L 132.099032 161.593465 
L 130.753576 166.302837 
L 133.769098 171.012209 
L 130.584967 173.066777 
L 126.176717 175.721581 
L 125.371755 176.145761 
L 120.993001 180.430953 
L 120.158543 182.212686 
L 114.945332 182.934033 
L 110.282688 185.140326 
L 109.73212 185.921888 
L 104.518908 186.629294 
L 99.305696 187.304027 
L 95.728974 189.849698 
L 94.092484 191.45122 
L 89.235522 194.55907 
L 88.879272 194.706933 
L 83.66606 197.877986 
L 82.415447 199.268442 
L 80.344818 203.977814 
L 78.452848 207.965755 
L 77.88912 208.687186 
L 73.939503 213.396558 
L 73.239636 214.485395 
L 70.567713 218.10593 
L 69.356072 222.815302 
L 68.40494 227.524674 
L 68.026424 227.846494 
L 65.17924 232.234047 
L 64.677965 236.943419 
L 64.481675 241.652791 
L 63.24713 246.362163 
L 62.813212 247.869782 
L 62.813212 251.071535 
L 62.813212 252.885147 
L 64.307273 251.071535 
L 65.45354 246.362163 
L 67.384846 241.652791 
L 67.922685 236.943419 
L 68.026424 236.412379 
L 71.553546 236.943419 
L 73.239636 237.197274 
L 74.925725 236.943419 
L 78.452848 236.545139 
L 78.956722 236.943419 
L 83.66606 239.921355 
L 86.962596 236.943419 
L 83.66606 232.689223 
L 83.225169 232.234047 
L 83.66606 231.171967 
L 88.879272 231.333691 
L 92.367658 232.234047 
L 94.092484 232.493734 
L 95.817309 232.234047 
L 94.092484 231.454983 
L 92.158795 227.524674 
L 94.092484 225.106023 
L 96.578655 227.524674 
L 99.305696 230.973548 
L 100.578315 227.524674 
L 104.518908 224.714347 
L 109.73212 223.157236 
L 110.180731 222.815302 
L 109.73212 221.252177 
L 107.023234 218.10593 
L 105.160601 213.396558 
L 104.518908 212.65126 
L 100.330193 208.687186 
L 99.305696 207.615574 
L 97.695772 208.687186 
L 94.092484 210.857214 
L 90.81296 213.396558 
L 88.879272 214.893819 
L 86.007308 218.10593 
L 88.879272 221.172037 
L 91.737815 222.815302 
L 88.879272 224.718031 
L 85.241126 222.815302 
L 83.66606 221.771886 
L 78.452848 218.713285 
L 77.4817 218.10593 
L 77.498229 213.396558 
L 78.452848 212.327234 
L 82.832722 208.687186 
L 83.66606 206.213707 
L 84.307753 203.977814 
L 86.488269 199.268442 
L 88.879272 197.400403 
L 94.092484 195.342507 
L 95.049454 194.55907 
L 99.305696 190.429374 
L 104.518908 192.444095 
L 108.323436 194.55907 
L 109.73212 195.313167 
L 113.488609 194.55907 
L 114.945332 193.841287 
L 120.158543 191.976795 
L 123.821361 189.849698 
L 124.825485 185.140326 
L 125.236097 180.430953 
L 125.371755 180.298194 
L 127.135317 180.430953 
L 130.584967 182.508456 
L 135.798179 180.648544 
L 135.849273 180.430953 
L 141.011391 175.767737 
L 141.252261 175.721581 
L 146.224603 173.872024 
L 149.588241 171.012209 
L 146.646126 166.302837 
L 149.958156 161.593465 
L 151.437815 160.431156 
L 156.651027 160.753133 
L 161.864239 158.526414 
L 163.599629 156.884093 
L 166.685549 152.174721 
L 167.077451 152.015409 
L 171.106936 147.465349 
L 172.290663 145.237591 
L 174.488354 142.755977 
L 176.411333 138.046605 
L 177.503875 137.482632 
L 179.288448 133.337233 
L 182.717087 130.23996 
L 184.323203 128.62786 
L 187.930299 124.554758 
L 188.442548 123.918488 
L 188.934998 119.209116 
L 189.773374 114.499744 
L 193.143511 111.391895 
L 198.356723 110.060221 
L 203.569935 110.15699 
L 205.29476 109.790372 
L 207.40316 105.081 
L 208.783147 104.04809 
L 210.322362 105.081 
L 211.108738 109.790372 
L 213.996359 110.994314 
L 215.62365 114.499744 
L 219.209571 117.739097 
L 221.149803 119.209116 
L 224.422783 122.412162 
L 225.47593 123.918488 
L 226.524701 128.62786 
L 229.635995 130.671931 
L 231.79966 133.337233 
L 233.838013 138.046605 
L 234.849207 141.65479 
L 235.661872 142.755977 
L 234.849207 144.758134 
L 234.099994 147.465349 
L 232.983704 152.174721 
L 234.849207 156.724781 
L 234.939646 156.884093 
L 236.588204 161.593465 
L 237.964993 166.302837 
L 237.005034 171.012209 
L 236.540108 175.721581 
L 235.71992 180.430953 
L 234.849207 181.388507 
L 230.785878 180.430953 
L 229.635995 180.26694 
L 226.186344 180.430953 
L 224.422783 180.582679 
L 219.209571 182.426273 
L 215.123306 180.430953 
L 213.996359 179.616529 
L 213.219154 180.430953 
L 208.783147 184.581352 
L 207.339336 185.140326 
L 203.569935 187.543926 
L 198.356723 187.853903 
L 196.4873 189.849698 
L 193.143511 194.469474 
L 193.013812 194.55907 
L 187.930299 197.875664 
L 184.846727 199.268442 
L 182.717087 200.350589 
L 180.644679 203.977814 
L 177.503875 206.123056 
L 173.347562 208.687186 
L 172.290663 209.902327 
L 167.077451 210.482899 
L 161.864239 212.427005 
L 160.130475 213.396558 
L 156.922344 218.10593 
L 156.651027 218.459957 
L 153.123905 218.10593 
L 151.437815 218.063621 
L 151.385125 218.10593 
L 150.800315 222.815302 
L 146.224603 227.435078 
L 146.144313 227.524674 
L 146.224603 228.286242 
L 147.195752 232.234047 
L 146.224603 232.488744 
L 141.011391 233.1916 
L 135.798179 233.805446 
L 130.584967 236.054648 
L 125.371755 236.280174 
L 120.599434 236.943419 
L 120.158543 237.580666 
L 118.424779 241.652791 
L 115.141283 246.362163 
L 114.945332 246.627683 
L 112.674892 251.071535 
L 109.73212 253.951429 
L 104.518908 252.643354 
L 102.2365 255.780907 
L 99.305696 260.193493 
L 98.320081 260.490279 
L 94.092484 264.945795 
L 93.249439 265.199651 
L 90.747643 269.909023 
L 88.879272 271.480423 
L 84.293269 269.909023 
L 83.66606 269.4296 
L 82.803647 269.909023 
L 78.452848 272.76743 
L 77.200685 274.618395 
L 78.452848 278.69052 
L 78.638486 279.327767 
L 78.452848 279.572863 
L 75.883063 284.03714 
L 73.239636 286.248203 
L 69.993068 288.746512 
L 68.026424 291.66517 
L 67.556049 293.455884 
L 66.218433 298.165256 
L 63.865138 302.874628 
L 66.430731 302.874628 
z
M 76.902454 227.524674 
L 78.452848 226.624319 
L 81.243557 227.524674 
L 78.452848 228.785173 
z
M 151.39767 227.524674 
L 151.437815 227.484592 
L 152.28086 227.524674 
L 151.437815 227.579072 
z
M 72.803588 222.815302 
L 73.239636 221.554804 
L 74.236318 222.815302 
L 73.239636 224.215856 
z
M 98.755127 213.396558 
L 99.305696 213.092617 
L 99.624446 213.396558 
L 99.305696 213.943652 
z
M 149.923751 152.174721 
L 151.437815 151.262898 
L 151.841566 152.174721 
L 151.437815 153.268909 
z
" style="fill:#b8b8b8;"/>
    <path clip-path="url(#pca60c8e31f)" d="M 219.209571 286.220859 
L 224.422783 286.70101 
L 227.003043 284.03714 
L 225.292774 279.327767 
L 224.422783 278.506135 
L 219.209571 274.660705 
L 218.366526 274.618395 
L 213.996359 274.223615 
L 213.723223 274.618395 
L 208.783147 277.722837 
L 204.696882 279.327767 
L 208.783147 281.173438 
L 213.996359 282.489193 
L 216.344566 284.03714 
z
M 212.868902 279.327767 
L 213.996359 278.606336 
L 216.734467 279.327767 
L 213.996359 279.795723 
z
" style="fill:#b8b8b8;"/>
    <path clip-path="url(#pca60c8e31f)" d="M 88.879272 253.204584 
L 92.568736 251.071535 
L 94.092484 249.776022 
L 97.012694 246.362163 
L 99.305696 244.083633 
L 101.868468 241.652791 
L 100.432643 236.943419 
L 99.305696 234.034758 
L 98.47092 236.943419 
L 94.092484 239.909875 
L 92.163099 241.652791 
L 88.879272 245.924488 
L 83.66606 244.538516 
L 82.953559 246.362163 
L 83.66606 249.097632 
L 84.338393 251.071535 
z
" style="fill:#b8b8b8;"/>
    <path clip-path="url(#pca60c8e31f)" d="M 120.158543 204.150939 
L 120.503509 203.977814 
L 120.158543 203.087456 
L 119.871073 203.977814 
z
" style="fill:#b8b8b8;"/>
    <path clip-path="url(#pca60c8e31f)" d="M 114.945332 199.52813 
L 115.930946 199.268442 
L 114.945332 197.19094 
L 114.657861 199.268442 
z
" style="fill:#b8b8b8;"/>
    <path clip-path="url(#pca60c8e31f)" d="M 130.584967 195.338133 
L 131.351556 194.55907 
L 135.798179 191.976795 
L 137.171736 189.849698 
L 135.798179 187.558977 
L 130.584967 187.772195 
L 128.860142 189.849698 
L 129.722555 194.55907 
z
" style="fill:#b8b8b8;"/>
    <path clip-path="url(#pca60c8e31f)" d="M 120.158543 171.450854 
L 121.251085 171.012209 
L 120.158543 170.518734 
L 119.721527 171.012209 
z
" style="fill:#b8b8b8;"/>
    <path clip-path="url(#pca60c8e31f)" d="M 156.651027 168.48051 
L 157.684165 166.302837 
L 156.651027 162.739373 
L 153.035045 166.302837 
z
" style="fill:#b8b8b8;"/>
   </g>
   <g id="PathCollection_6">
    <path clip-path="url(#pca60c8e31f)" d="M 66.218433 298.165256 
L 67.556049 293.455884 
L 68.026424 291.66517 
L 69.993068 288.746512 
L 73.239636 286.248203 
L 75.883063 284.03714 
L 78.452848 279.572863 
L 78.638486 279.327767 
L 78.452848 278.69052 
L 77.200685 274.618395 
L 78.452848 272.76743 
L 82.803647 269.909023 
L 83.66606 269.4296 
L 84.293269 269.909023 
L 88.879272 271.480423 
L 90.747643 269.909023 
L 93.249439 265.199651 
L 94.092484 264.945795 
L 98.320081 260.490279 
L 99.305696 260.193493 
L 102.2365 255.780907 
L 104.518908 252.643354 
L 109.73212 253.951429 
L 112.674892 251.071535 
L 114.945332 246.627683 
L 115.141283 246.362163 
L 118.424779 241.652791 
L 120.158543 237.580666 
L 120.599434 236.943419 
L 125.371755 236.280174 
L 130.584967 236.054648 
L 135.798179 233.805446 
L 141.011391 233.1916 
L 146.224603 232.488744 
L 147.195752 232.234047 
L 146.224603 228.286242 
L 146.144313 227.524674 
L 146.224603 227.435078 
L 150.800315 222.815302 
L 151.385125 218.10593 
L 151.437815 218.063621 
L 153.123905 218.10593 
L 156.651027 218.459957 
L 156.922344 218.10593 
L 160.130475 213.396558 
L 161.864239 212.427005 
L 167.077451 210.482899 
L 172.290663 209.902327 
L 173.347562 208.687186 
L 177.503875 206.123056 
L 180.644679 203.977814 
L 182.717087 200.350589 
L 184.846727 199.268442 
L 187.930299 197.875664 
L 193.013812 194.55907 
L 193.143511 194.469474 
L 196.4873 189.849698 
L 198.356723 187.853903 
L 203.569935 187.543926 
L 207.339336 185.140326 
L 208.783147 184.581352 
L 213.219154 180.430953 
L 213.996359 179.616529 
L 215.123306 180.430953 
L 219.209571 182.426273 
L 224.422783 180.582679 
L 226.186344 180.430953 
L 229.635995 180.26694 
L 230.785878 180.430953 
L 234.849207 181.388507 
L 235.71992 180.430953 
L 236.540108 175.721581 
L 237.005034 171.012209 
L 237.964993 166.302837 
L 236.588204 161.593465 
L 234.939646 156.884093 
L 234.849207 156.724781 
L 232.983704 152.174721 
L 234.099994 147.465349 
L 234.849207 144.758134 
L 235.661872 142.755977 
L 234.849207 141.65479 
L 233.838013 138.046605 
L 231.79966 133.337233 
L 229.635995 130.671931 
L 226.524701 128.62786 
L 225.47593 123.918488 
L 224.422783 122.412162 
L 221.149803 119.209116 
L 219.209571 117.739097 
L 215.62365 114.499744 
L 213.996359 110.994314 
L 211.108738 109.790372 
L 210.322362 105.081 
L 208.783147 104.04809 
L 207.40316 105.081 
L 205.29476 109.790372 
L 203.569935 110.15699 
L 198.356723 110.060221 
L 193.143511 111.391895 
L 189.773374 114.499744 
L 188.934998 119.209116 
L 188.442548 123.918488 
L 187.930299 124.554758 
L 184.323203 128.62786 
L 182.717087 130.23996 
L 179.288448 133.337233 
L 177.503875 137.482632 
L 176.411333 138.046605 
L 174.488354 142.755977 
L 172.290663 145.237591 
L 171.106936 147.465349 
L 167.077451 152.015409 
L 166.685549 152.174721 
L 163.599629 156.884093 
L 161.864239 158.526414 
L 156.651027 160.753133 
L 151.437815 160.431156 
L 149.958156 161.593465 
L 146.646126 166.302837 
L 149.588241 171.012209 
L 146.224603 173.872024 
L 141.252261 175.721581 
L 141.011391 175.767737 
L 135.849273 180.430953 
L 135.798179 180.648544 
L 130.584967 182.508456 
L 127.135317 180.430953 
L 125.371755 180.298194 
L 125.236097 180.430953 
L 124.825485 185.140326 
L 123.821361 189.849698 
L 120.158543 191.976795 
L 114.945332 193.841287 
L 113.488609 194.55907 
L 109.73212 195.313167 
L 108.323436 194.55907 
L 104.518908 192.444095 
L 99.305696 190.429374 
L 95.049454 194.55907 
L 94.092484 195.342507 
L 88.879272 197.400403 
L 86.488269 199.268442 
L 84.307753 203.977814 
L 83.66606 206.213707 
L 82.832722 208.687186 
L 78.452848 212.327234 
L 77.498229 213.396558 
L 77.4817 218.10593 
L 78.452848 218.713285 
L 83.66606 221.771886 
L 85.241126 222.815302 
L 88.879272 224.718031 
L 91.737815 222.815302 
L 88.879272 221.172037 
L 86.007308 218.10593 
L 88.879272 214.893819 
L 90.81296 213.396558 
L 94.092484 210.857214 
L 97.695772 208.687186 
L 99.305696 207.615574 
L 100.330193 208.687186 
L 104.518908 212.65126 
L 105.160601 213.396558 
L 107.023234 218.10593 
L 109.73212 221.252177 
L 110.180731 222.815302 
L 109.73212 223.157236 
L 104.518908 224.714347 
L 100.578315 227.524674 
L 99.305696 230.973548 
L 96.578655 227.524674 
L 94.092484 225.106023 
L 92.158795 227.524674 
L 94.092484 231.454983 
L 95.817309 232.234047 
L 94.092484 232.493734 
L 92.367658 232.234047 
L 88.879272 231.333691 
L 83.66606 231.171967 
L 83.225169 232.234047 
L 83.66606 232.689223 
L 86.962596 236.943419 
L 83.66606 239.921355 
L 78.956722 236.943419 
L 78.452848 236.545139 
L 74.925725 236.943419 
L 73.239636 237.197274 
L 71.553546 236.943419 
L 68.026424 236.412379 
L 67.922685 236.943419 
L 67.384846 241.652791 
L 65.45354 246.362163 
L 64.307273 251.071535 
L 62.813212 252.885147 
L 62.813212 255.780907 
L 62.813212 260.490279 
L 62.813212 265.199651 
L 62.813212 269.909023 
L 62.813212 274.618395 
L 62.813212 279.327767 
L 62.813212 284.03714 
L 62.813212 288.746512 
L 62.813212 293.455884 
L 62.813212 298.165256 
L 62.813212 302.874628 
L 63.865138 302.874628 
z
M 84.338393 251.071535 
L 83.66606 249.097632 
L 82.953559 246.362163 
L 83.66606 244.538516 
L 88.879272 245.924488 
L 92.163099 241.652791 
L 94.092484 239.909875 
L 98.47092 236.943419 
L 99.305696 234.034758 
L 100.432643 236.943419 
L 101.868468 241.652791 
L 99.305696 244.083633 
L 97.012694 246.362163 
L 94.092484 249.776022 
L 92.568736 251.071535 
L 88.879272 253.204584 
z
M 119.871073 203.977814 
L 120.158543 203.087456 
L 120.503509 203.977814 
L 120.158543 204.150939 
z
M 114.657861 199.268442 
L 114.945332 197.19094 
L 115.930946 199.268442 
L 114.945332 199.52813 
z
M 129.722555 194.55907 
L 128.860142 189.849698 
L 130.584967 187.772195 
L 135.798179 187.558977 
L 137.171736 189.849698 
L 135.798179 191.976795 
L 131.351556 194.55907 
L 130.584967 195.338133 
z
M 153.035045 166.302837 
L 156.651027 162.739373 
L 157.684165 166.302837 
L 156.651027 168.48051 
z
" style="fill:#a0a0a0;"/>
    <path clip-path="url(#pca60c8e31f)" d="M 213.996359 279.795723 
L 216.734467 279.327767 
L 213.996359 278.606336 
L 212.868902 279.327767 
z
" style="fill:#a0a0a0;"/>
    <path clip-path="url(#pca60c8e31f)" d="M 78.452848 228.785173 
L 81.243557 227.524674 
L 78.452848 226.624319 
L 76.902454 227.524674 
z
" style="fill:#a0a0a0;"/>
    <path clip-path="url(#pca60c8e31f)" d="M 73.239636 224.215856 
L 74.236318 222.815302 
L 73.239636 221.554804 
L 72.803588 222.815302 
z
" style="fill:#a0a0a0;"/>
   </g>
   <g id="PathCollection_7">
    <path clip-path="url(#pca60c8e31f)" d="M 60.347 307.584 
L 61.262666 307.584 
L 62.178333 307.584 
L 63.093999 307.584 
L 64.009666 307.584 
L 64.925332 307.584 
L 65.840999 307.584 
L 66.756665 307.584 
L 67.672332 307.584 
L 68.587998 307.584 
L 69.503665 307.584 
L 70.419331 307.584 
L 71.334998 307.584 
L 72.250664 307.584 
L 73.166331 307.584 
L 74.081997 307.584 
L 74.997664 307.584 
L 75.91333 307.584 
L 76.828997 307.584 
L 77.744663 307.584 
L 77.841996 307.584 
L 78.177859 307.114103 
L 78.426833 306.644207 
L 78.54348 306.17431 
L 78.530169 305.704414 
L 78.442672 305.234517 
L 78.245831 304.76462 
L 77.962826 304.294724 
L 77.744663 304.002945 
L 77.586982 303.824827 
L 77.097585 303.354931 
L 76.828997 303.162709 
L 76.497797 302.885034 
L 75.91333 302.435012 
L 75.887085 302.415138 
L 75.255895 301.945241 
L 74.997664 301.774001 
L 74.513873 301.475344 
L 74.081997 301.245168 
L 73.613914 301.005448 
L 73.166331 300.760358 
L 72.748674 300.535551 
L 72.250664 300.235435 
L 71.947045 300.065655 
L 71.334998 299.750371 
L 70.92857 299.595758 
L 70.419331 299.404225 
L 69.782674 299.125861 
L 69.503665 298.990513 
L 68.587998 298.704991 
L 68.412354 298.655965 
L 67.672332 298.465389 
L 66.756665 298.271028 
L 66.128396 298.186068 
L 65.840999 298.149078 
L 64.925332 298.094224 
L 64.009666 298.09836 
L 63.093999 298.163229 
L 62.871888 298.186068 
L 62.178333 298.26077 
L 61.262666 298.428709 
L 61.146616 298.655965 
L 60.935843 299.125861 
L 60.715209 299.595758 
L 60.511626 300.065655 
L 60.347 300.497404 
L 60.343386 300.535551 
L 60.293619 301.005448 
L 60.243317 301.475344 
L 60.201999 301.945241 
L 60.166408 302.415138 
L 60.132945 302.885034 
L 60.102814 303.354931 
L 60.080934 303.824827 
L 60.062662 304.294724 
L 60.048104 304.76462 
L 60.037978 305.234517 
L 60.033477 305.704414 
L 60.032792 306.17431 
L 60.038792 306.644207 
L 60.0516 307.114103 
L 60.068878 307.584 
z
" style="fill:#4d94ff;fill-opacity:0.2;"/>
   </g>
   <g id="PathCollection_8">
    <path clip-path="url(#pca60c8e31f)" d="M 61.962536 307.584 
L 62.835044 307.584 
L 63.707551 307.584 
L 64.580058 307.584 
L 65.452565 307.584 
L 66.325073 307.584 
L 67.19758 307.584 
L 68.070087 307.584 
L 68.942594 307.584 
L 69.815102 307.584 
L 70.687609 307.584 
L 71.560116 307.584 
L 72.432623 307.584 
L 73.305131 307.584 
L 74.177638 307.584 
L 75.050145 307.584 
L 75.922652 307.584 
L 76.79516 307.584 
L 77.667667 307.584 
L 78.540174 307.584 
L 79.412681 307.584 
L 80.285189 307.584 
L 81.157696 307.584 
L 82.030203 307.584 
L 82.90271 307.584 
L 83.775218 307.584 
L 84.647725 307.584 
L 85.520232 307.584 
L 85.959422 307.584 
L 86.392739 307.16415 
L 86.960951 306.632152 
L 87.265247 306.350392 
L 87.892564 305.680304 
L 88.137754 305.382982 
L 88.646596 304.728457 
L 89.010261 304.233558 
L 89.341302 303.776609 
L 89.882768 302.981892 
L 89.982014 302.824761 
L 90.396008 301.872913 
L 90.755276 301.246054 
L 90.909177 300.921065 
L 91.38525 299.969217 
L 91.627783 299.376054 
L 91.774504 299.01737 
L 92.109667 298.065522 
L 92.405952 297.113674 
L 92.50029 296.517721 
L 92.550743 296.161826 
L 92.636831 295.209978 
L 92.636831 294.25813 
L 92.50029 293.350298 
L 92.492893 293.306283 
L 92.336394 292.354435 
L 92.088914 291.402587 
L 91.829546 290.450739 
L 91.627783 289.732689 
L 91.562652 289.498891 
L 91.275023 288.547043 
L 90.888438 287.595196 
L 90.755276 287.314761 
L 90.3694 286.643348 
L 89.882768 285.952955 
L 89.683228 285.6915 
L 89.010261 284.867951 
L 88.903458 284.739652 
L 88.137754 283.796301 
L 88.130427 283.787804 
L 87.265247 283.12529 
L 86.822296 282.835956 
L 86.392739 282.51903 
L 85.55209 281.884109 
L 85.520232 281.867475 
L 84.647725 281.484256 
L 83.775218 281.135194 
L 83.254536 280.932261 
L 82.90271 280.799068 
L 82.030203 280.4749 
L 81.157696 280.200806 
L 80.486841 279.980413 
L 80.285189 279.921254 
L 79.412681 279.698526 
L 78.540174 279.49445 
L 77.667667 279.284156 
L 76.79516 279.040348 
L 76.7347 279.028565 
L 75.922652 278.862751 
L 75.050145 278.602336 
L 74.177638 278.437774 
L 73.305131 278.34014 
L 72.432623 278.275157 
L 71.560116 278.275157 
L 70.687609 278.381885 
L 69.815102 278.505997 
L 68.942594 278.676045 
L 68.070087 278.899229 
L 67.652879 279.028565 
L 67.19758 279.164556 
L 66.325073 279.535113 
L 65.452565 279.866855 
L 65.205741 279.980413 
L 64.580058 280.307484 
L 63.707551 280.85477 
L 63.585103 280.932261 
L 62.835044 281.430206 
L 62.140696 281.884109 
L 61.962536 282.054109 
L 61.291549 282.835956 
L 61.090029 283.048059 
L 60.954786 283.787804 
L 60.844461 284.739652 
L 60.734962 285.6915 
L 60.63578 286.643348 
L 60.556381 287.595196 
L 60.489859 288.547043 
L 60.440366 289.498891 
L 60.395342 290.450739 
L 60.351871 291.402587 
L 60.310392 292.354435 
L 60.284162 293.306283 
L 60.257634 294.25813 
L 60.257634 295.209978 
L 60.273578 296.161826 
L 60.298734 297.113674 
L 60.348393 298.065522 
L 60.404567 299.01737 
L 60.470892 299.969217 
L 60.552812 300.921065 
L 60.631885 301.872913 
L 60.692487 302.824761 
L 60.782851 303.776609 
L 60.881128 304.728457 
L 60.987935 305.680304 
L 61.090029 306.459284 
L 61.205893 306.632152 
L 61.845075 307.584 
z
" style="fill:#ff8533;fill-opacity:0.2;"/>
   </g>
   <g id="PathCollection_9">
    <path clip-path="url(#pca60c8e31f)" d="M 59.212998 307.584 
L 60.019497 307.584 
L 60.825996 307.584 
L 61.632495 307.584 
L 62.438994 307.584 
L 63.245493 307.584 
L 64.051992 307.584 
L 64.858491 307.584 
L 65.66499 307.584 
L 66.471489 307.584 
L 67.277988 307.584 
L 68.084487 307.584 
L 68.890986 307.584 
L 69.697485 307.584 
L 70.503984 307.584 
L 71.310483 307.584 
L 72.116982 307.584 
L 72.923481 307.584 
L 73.72998 307.584 
L 74.536479 307.584 
L 75.342978 307.584 
L 76.149477 307.584 
L 76.955976 307.584 
L 77.762475 307.584 
L 78.568974 307.584 
L 79.375473 307.584 
L 80.181972 307.584 
L 80.988471 307.584 
L 81.79497 307.584 
L 82.601469 307.584 
L 83.407968 307.584 
L 84.214466 307.584 
L 85.020965 307.584 
L 85.827464 307.584 
L 86.633963 307.584 
L 87.440462 307.584 
L 88.246961 307.584 
L 88.525895 307.584 
L 88.771307 307.05886 
L 88.814197 306.53372 
L 88.672501 306.00858 
L 88.436457 305.48344 
L 88.246961 305.24772 
L 87.977148 304.9583 
L 87.440462 304.614942 
L 87.169498 304.43316 
L 86.633963 304.070365 
L 86.394869 303.90802 
L 85.827464 303.595917 
L 85.382724 303.38288 
L 85.020965 303.231297 
L 84.214466 302.950934 
L 83.844409 302.85774 
L 83.407968 302.756113 
L 82.601469 302.514737 
L 81.850267 302.3326 
L 81.79497 302.318518 
L 80.988471 302.156358 
L 80.181972 301.989039 
L 79.375473 301.848184 
L 79.129061 301.80746 
L 78.568974 301.70646 
L 77.762475 301.565718 
L 76.955976 301.418839 
L 76.275018 301.28232 
L 76.149477 301.262138 
L 75.342978 301.146505 
L 74.536479 301.040908 
L 73.72998 300.928697 
L 72.923481 300.82288 
L 72.428262 300.75718 
L 72.116982 300.709771 
L 71.310483 300.59694 
L 70.503984 300.517876 
L 69.697485 300.408916 
L 68.890986 300.324554 
L 68.084487 300.255404 
L 67.804393 300.23204 
L 67.277988 300.178974 
L 66.471489 300.091603 
L 65.66499 300.04449 
L 64.858491 300.018594 
L 64.051992 299.991268 
L 63.245493 299.991268 
L 62.438994 300.022683 
L 61.632495 300.08184 
L 60.825996 300.17024 
L 60.365953 300.23204 
L 60.019497 300.2707 
L 59.812681 300.75718 
L 59.592807 301.28232 
L 59.439653 301.80746 
L 59.292005 302.3326 
L 59.212998 302.624158 
L 59.187771 302.85774 
L 59.13892 303.38288 
L 59.09943 303.90802 
L 59.069108 304.43316 
L 59.039789 304.9583 
L 59.022786 305.48344 
L 59.013421 306.00858 
L 59.007799 306.53372 
L 59.009501 307.05886 
L 59.019237 307.584 
z
" style="fill:#00b300;fill-opacity:0.2;"/>
   </g>
   <g id="PathCollection_10">
    <path clip-path="url(#pca60c8e31f)" d="M 61.965035 307.584 
L 64.147553 307.584 
L 66.33007 307.584 
L 68.512588 307.584 
L 70.695105 307.584 
L 72.877623 307.584 
L 75.06014 307.584 
L 77.242658 307.584 
L 79.425175 307.584 
L 81.607693 307.584 
L 83.79021 307.584 
L 85.972728 307.584 
L 88.155246 307.584 
L 90.337763 307.584 
L 92.520281 307.584 
L 94.702798 307.584 
L 96.885316 307.584 
L 99.067833 307.584 
L 101.250351 307.584 
L 103.432868 307.584 
L 105.615386 307.584 
L 107.797903 307.584 
L 109.980421 307.584 
L 112.162938 307.584 
L 114.345456 307.584 
L 116.527973 307.584 
L 118.710491 307.584 
L 120.893009 307.584 
L 123.075526 307.584 
L 125.258044 307.584 
L 127.440561 307.584 
L 129.623079 307.584 
L 131.805596 307.584 
L 133.988114 307.584 
L 136.170631 307.584 
L 138.353149 307.584 
L 140.535666 307.584 
L 142.718184 307.584 
L 144.900701 307.584 
L 147.083219 307.584 
L 149.265737 307.584 
L 151.448254 307.584 
L 153.630772 307.584 
L 155.813289 307.584 
L 157.995807 307.584 
L 160.178324 307.584 
L 162.360842 307.584 
L 164.543359 307.584 
L 164.543359 306.978852 
L 164.543359 306.373705 
L 164.543359 305.768557 
L 164.543359 305.163409 
L 164.543359 304.558261 
L 164.543359 303.953114 
L 164.543359 303.347966 
L 164.543359 302.742818 
L 164.543359 302.266099 
L 162.360842 302.266099 
L 160.178324 302.266099 
L 157.995807 302.266099 
L 155.813289 302.266099 
L 153.630772 302.266099 
L 151.448254 302.266099 
L 149.265737 302.266099 
L 147.083219 302.266099 
L 144.900701 302.266099 
L 142.718184 302.266099 
L 140.535666 302.266099 
L 138.353149 302.266099 
L 136.170631 302.266099 
L 133.988114 302.266099 
L 131.805596 302.266099 
L 129.623079 302.266099 
L 127.440561 302.266099 
L 125.258044 302.266099 
L 123.075526 302.266099 
L 120.893009 302.266099 
L 118.710491 302.266099 
L 116.527973 302.266099 
L 114.345456 302.266099 
L 112.162938 302.266099 
L 109.980421 302.266099 
L 107.797903 302.266099 
L 105.615386 302.266099 
L 103.432868 302.266099 
L 101.250351 302.266099 
L 99.067833 302.266099 
L 96.885316 302.266099 
L 96.387085 302.13767 
L 94.702798 301.729978 
L 94.005468 301.532523 
L 92.520281 301.191341 
L 91.14925 300.927375 
L 90.337763 300.755903 
L 88.155246 300.422395 
L 87.229152 300.322227 
L 85.972728 300.170783 
L 83.79021 300.025468 
L 81.607693 299.954513 
L 79.425175 299.939543 
L 77.242658 299.995378 
L 75.06014 300.129519 
L 72.877623 300.279358 
L 72.306132 300.322227 
L 70.695105 300.429119 
L 68.512588 300.623004 
L 66.33007 300.872233 
L 65.822676 300.927375 
L 64.147553 301.087549 
L 61.965035 301.262753 
L 61.842884 301.532523 
L 61.629691 302.13767 
L 61.445961 302.742818 
L 61.254168 303.347966 
L 61.13167 303.953114 
L 61.031405 304.558261 
L 60.942221 305.163409 
L 60.888137 305.768557 
L 60.864318 306.373705 
L 60.863978 306.978852 
L 60.88481 307.584 
z
" style="fill:#ffff33;fill-opacity:0.2;"/>
   </g>
   <g id="matplotlib.axis_1">
    <g id="xtick_1">
     <g id="line2d_1">
      <defs>
       <path d="M 0 0 
L 0 3.5 
" id="mefc35c2567" style="stroke:#000000;stroke-width:0.8;"/>
      </defs>
      <g>
       <use style="stroke:#000000;stroke-width:0.8;" x="57.6" xlink:href="#mefc35c2567" y="307.584"/>
      </g>
     </g>
     <g id="text_1">
      <!-- 0 -->
      <defs>
       <path d="M 31.78125 66.40625 
Q 24.171875 66.40625 20.328125 58.90625 
Q 16.5 51.421875 16.5 36.375 
Q 16.5 21.390625 20.328125 13.890625 
Q 24.171875 6.390625 31.78125 6.390625 
Q 39.453125 6.390625 43.28125 13.890625 
Q 47.125 21.390625 47.125 36.375 
Q 47.125 51.421875 43.28125 58.90625 
Q 39.453125 66.40625 31.78125 66.40625 
z
M 31.78125 74.21875 
Q 44.046875 74.21875 50.515625 64.515625 
Q 56.984375 54.828125 56.984375 36.375 
Q 56.984375 17.96875 50.515625 8.265625 
Q 44.046875 -1.421875 31.78125 -1.421875 
Q 19.53125 -1.421875 13.0625 8.265625 
Q 6.59375 17.96875 6.59375 36.375 
Q 6.59375 54.828125 13.0625 64.515625 
Q 19.53125 74.21875 31.78125 74.21875 
z
" id="DejaVuSans-48"/>
      </defs>
      <g transform="translate(51.87375 328.261187)scale(0.18 -0.18)">
       <use xlink:href="#DejaVuSans-48"/>
      </g>
     </g>
    </g>
    <g id="xtick_2">
     <g id="line2d_2">
      <g>
       <use style="stroke:#000000;stroke-width:0.8;" x="98.413714" xlink:href="#mefc35c2567" y="307.584"/>
      </g>
     </g>
     <g id="text_2">
      <!-- 1 -->
      <defs>
       <path d="M 12.40625 8.296875 
L 28.515625 8.296875 
L 28.515625 63.921875 
L 10.984375 60.40625 
L 10.984375 69.390625 
L 28.421875 72.90625 
L 38.28125 72.90625 
L 38.28125 8.296875 
L 54.390625 8.296875 
L 54.390625 0 
L 12.40625 0 
z
" id="DejaVuSans-49"/>
      </defs>
      <g transform="translate(92.687464 328.261187)scale(0.18 -0.18)">
       <use xlink:href="#DejaVuSans-49"/>
      </g>
     </g>
    </g>
    <g id="xtick_3">
     <g id="line2d_3">
      <g>
       <use style="stroke:#000000;stroke-width:0.8;" x="139.227429" xlink:href="#mefc35c2567" y="307.584"/>
      </g>
     </g>
     <g id="text_3">
      <!-- 2 -->
      <defs>
       <path d="M 19.1875 8.296875 
L 53.609375 8.296875 
L 53.609375 0 
L 7.328125 0 
L 7.328125 8.296875 
Q 12.9375 14.109375 22.625 23.890625 
Q 32.328125 33.6875 34.8125 36.53125 
Q 39.546875 41.84375 41.421875 45.53125 
Q 43.3125 49.21875 43.3125 52.78125 
Q 43.3125 58.59375 39.234375 62.25 
Q 35.15625 65.921875 28.609375 65.921875 
Q 23.96875 65.921875 18.8125 64.3125 
Q 13.671875 62.703125 7.8125 59.421875 
L 7.8125 69.390625 
Q 13.765625 71.78125 18.9375 73 
Q 24.125 74.21875 28.421875 74.21875 
Q 39.75 74.21875 46.484375 68.546875 
Q 53.21875 62.890625 53.21875 53.421875 
Q 53.21875 48.921875 51.53125 44.890625 
Q 49.859375 40.875 45.40625 35.40625 
Q 44.1875 33.984375 37.640625 27.21875 
Q 31.109375 20.453125 19.1875 8.296875 
z
" id="DejaVuSans-50"/>
      </defs>
      <g transform="translate(133.501179 328.261187)scale(0.18 -0.18)">
       <use xlink:href="#DejaVuSans-50"/>
      </g>
     </g>
    </g>
    <g id="xtick_4">
     <g id="line2d_4">
      <g>
       <use style="stroke:#000000;stroke-width:0.8;" x="180.041143" xlink:href="#mefc35c2567" y="307.584"/>
      </g>
     </g>
     <g id="text_4">
      <!-- 3 -->
      <defs>
       <path d="M 40.578125 39.3125 
Q 47.65625 37.796875 51.625 33 
Q 55.609375 28.21875 55.609375 21.1875 
Q 55.609375 10.40625 48.1875 4.484375 
Q 40.765625 -1.421875 27.09375 -1.421875 
Q 22.515625 -1.421875 17.65625 -0.515625 
Q 12.796875 0.390625 7.625 2.203125 
L 7.625 11.71875 
Q 11.71875 9.328125 16.59375 8.109375 
Q 21.484375 6.890625 26.8125 6.890625 
Q 36.078125 6.890625 40.9375 10.546875 
Q 45.796875 14.203125 45.796875 21.1875 
Q 45.796875 27.640625 41.28125 31.265625 
Q 36.765625 34.90625 28.71875 34.90625 
L 20.21875 34.90625 
L 20.21875 43.015625 
L 29.109375 43.015625 
Q 36.375 43.015625 40.234375 45.921875 
Q 44.09375 48.828125 44.09375 54.296875 
Q 44.09375 59.90625 40.109375 62.90625 
Q 36.140625 65.921875 28.71875 65.921875 
Q 24.65625 65.921875 20.015625 65.03125 
Q 15.375 64.15625 9.8125 62.3125 
L 9.8125 71.09375 
Q 15.4375 72.65625 20.34375 73.4375 
Q 25.25 74.21875 29.59375 74.21875 
Q 40.828125 74.21875 47.359375 69.109375 
Q 53.90625 64.015625 53.90625 55.328125 
Q 53.90625 49.265625 50.4375 45.09375 
Q 46.96875 40.921875 40.578125 39.3125 
z
" id="DejaVuSans-51"/>
      </defs>
      <g transform="translate(174.314893 328.261187)scale(0.18 -0.18)">
       <use xlink:href="#DejaVuSans-51"/>
      </g>
     </g>
    </g>
    <g id="xtick_5">
     <g id="line2d_5">
      <g>
       <use style="stroke:#000000;stroke-width:0.8;" x="220.854857" xlink:href="#mefc35c2567" y="307.584"/>
      </g>
     </g>
     <g id="text_5">
      <!-- 4 -->
      <defs>
       <path d="M 37.796875 64.3125 
L 12.890625 25.390625 
L 37.796875 25.390625 
z
M 35.203125 72.90625 
L 47.609375 72.90625 
L 47.609375 25.390625 
L 58.015625 25.390625 
L 58.015625 17.1875 
L 47.609375 17.1875 
L 47.609375 0 
L 37.796875 0 
L 37.796875 17.1875 
L 4.890625 17.1875 
L 4.890625 26.703125 
z
" id="DejaVuSans-52"/>
      </defs>
      <g transform="translate(215.128607 328.261187)scale(0.18 -0.18)">
       <use xlink:href="#DejaVuSans-52"/>
      </g>
     </g>
    </g>
    <g id="xtick_6">
     <g id="line2d_6">
      <g>
       <use style="stroke:#000000;stroke-width:0.8;" x="261.668571" xlink:href="#mefc35c2567" y="307.584"/>
      </g>
     </g>
     <g id="text_6">
      <!-- 5 -->
      <defs>
       <path d="M 10.796875 72.90625 
L 49.515625 72.90625 
L 49.515625 64.59375 
L 19.828125 64.59375 
L 19.828125 46.734375 
Q 21.96875 47.46875 24.109375 47.828125 
Q 26.265625 48.1875 28.421875 48.1875 
Q 40.625 48.1875 47.75 41.5 
Q 54.890625 34.8125 54.890625 23.390625 
Q 54.890625 11.625 47.5625 5.09375 
Q 40.234375 -1.421875 26.90625 -1.421875 
Q 22.3125 -1.421875 17.546875 -0.640625 
Q 12.796875 0.140625 7.71875 1.703125 
L 7.71875 11.625 
Q 12.109375 9.234375 16.796875 8.0625 
Q 21.484375 6.890625 26.703125 6.890625 
Q 35.15625 6.890625 40.078125 11.328125 
Q 45.015625 15.765625 45.015625 23.390625 
Q 45.015625 31 40.078125 35.4375 
Q 35.15625 39.890625 26.703125 39.890625 
Q 22.75 39.890625 18.8125 39.015625 
Q 14.890625 38.140625 10.796875 36.28125 
z
" id="DejaVuSans-53"/>
      </defs>
      <g transform="translate(255.942321 328.261187)scale(0.18 -0.18)">
       <use xlink:href="#DejaVuSans-53"/>
      </g>
     </g>
    </g>
    <g id="xtick_7">
     <g id="line2d_7">
      <g>
       <use style="stroke:#000000;stroke-width:0.8;" x="302.482286" xlink:href="#mefc35c2567" y="307.584"/>
      </g>
     </g>
     <g id="text_7">
      <!-- 6 -->
      <defs>
       <path d="M 33.015625 40.375 
Q 26.375 40.375 22.484375 35.828125 
Q 18.609375 31.296875 18.609375 23.390625 
Q 18.609375 15.53125 22.484375 10.953125 
Q 26.375 6.390625 33.015625 6.390625 
Q 39.65625 6.390625 43.53125 10.953125 
Q 47.40625 15.53125 47.40625 23.390625 
Q 47.40625 31.296875 43.53125 35.828125 
Q 39.65625 40.375 33.015625 40.375 
z
M 52.59375 71.296875 
L 52.59375 62.3125 
Q 48.875 64.0625 45.09375 64.984375 
Q 41.3125 65.921875 37.59375 65.921875 
Q 27.828125 65.921875 22.671875 59.328125 
Q 17.53125 52.734375 16.796875 39.40625 
Q 19.671875 43.65625 24.015625 45.921875 
Q 28.375 48.1875 33.59375 48.1875 
Q 44.578125 48.1875 50.953125 41.515625 
Q 57.328125 34.859375 57.328125 23.390625 
Q 57.328125 12.15625 50.6875 5.359375 
Q 44.046875 -1.421875 33.015625 -1.421875 
Q 20.359375 -1.421875 13.671875 8.265625 
Q 6.984375 17.96875 6.984375 36.375 
Q 6.984375 53.65625 15.1875 63.9375 
Q 23.390625 74.21875 37.203125 74.21875 
Q 40.921875 74.21875 44.703125 73.484375 
Q 48.484375 72.75 52.59375 71.296875 
z
" id="DejaVuSans-54"/>
      </defs>
      <g transform="translate(296.756036 328.261187)scale(0.18 -0.18)">
       <use xlink:href="#DejaVuSans-54"/>
      </g>
     </g>
    </g>
    <g id="xtick_8">
     <g id="line2d_8">
      <g>
       <use style="stroke:#000000;stroke-width:0.8;" x="343.296" xlink:href="#mefc35c2567" y="307.584"/>
      </g>
     </g>
     <g id="text_8">
      <!-- 7 -->
      <defs>
       <path d="M 8.203125 72.90625 
L 55.078125 72.90625 
L 55.078125 68.703125 
L 28.609375 0 
L 18.3125 0 
L 43.21875 64.59375 
L 8.203125 64.59375 
z
" id="DejaVuSans-55"/>
      </defs>
      <g transform="translate(337.56975 328.261187)scale(0.18 -0.18)">
       <use xlink:href="#DejaVuSans-55"/>
      </g>
     </g>
    </g>
   </g>
   <g id="matplotlib.axis_2">
    <g id="ytick_1">
     <g id="line2d_9">
      <defs>
       <path d="M 0 0 
L -3.5 0 
" id="m190078e328" style="stroke:#000000;stroke-width:0.8;"/>
      </defs>
      <g>
       <use style="stroke:#000000;stroke-width:0.8;" x="57.6" xlink:href="#m190078e328" y="307.584"/>
      </g>
     </g>
     <g id="text_9">
      <!-- 0 -->
      <g transform="translate(39.1475 314.422594)scale(0.18 -0.18)">
       <use xlink:href="#DejaVuSans-48"/>
      </g>
     </g>
    </g>
    <g id="ytick_2">
     <g id="line2d_10">
      <g>
       <use style="stroke:#000000;stroke-width:0.8;" x="57.6" xlink:href="#m190078e328" y="276.959874"/>
      </g>
     </g>
     <g id="text_10">
      <!-- 1 -->
      <g transform="translate(39.1475 283.798468)scale(0.18 -0.18)">
       <use xlink:href="#DejaVuSans-49"/>
      </g>
     </g>
    </g>
    <g id="ytick_3">
     <g id="line2d_11">
      <g>
       <use style="stroke:#000000;stroke-width:0.8;" x="57.6" xlink:href="#m190078e328" y="246.335748"/>
      </g>
     </g>
     <g id="text_11">
      <!-- 2 -->
      <g transform="translate(39.1475 253.174342)scale(0.18 -0.18)">
       <use xlink:href="#DejaVuSans-50"/>
      </g>
     </g>
    </g>
    <g id="ytick_4">
     <g id="line2d_12">
      <g>
       <use style="stroke:#000000;stroke-width:0.8;" x="57.6" xlink:href="#m190078e328" y="215.711622"/>
      </g>
     </g>
     <g id="text_12">
      <!-- 3 -->
      <g transform="translate(39.1475 222.550216)scale(0.18 -0.18)">
       <use xlink:href="#DejaVuSans-51"/>
      </g>
     </g>
    </g>
    <g id="ytick_5">
     <g id="line2d_13">
      <g>
       <use style="stroke:#000000;stroke-width:0.8;" x="57.6" xlink:href="#m190078e328" y="185.087496"/>
      </g>
     </g>
     <g id="text_13">
      <!-- 4 -->
      <g transform="translate(39.1475 191.92609)scale(0.18 -0.18)">
       <use xlink:href="#DejaVuSans-52"/>
      </g>
     </g>
    </g>
    <g id="ytick_6">
     <g id="line2d_14">
      <g>
       <use style="stroke:#000000;stroke-width:0.8;" x="57.6" xlink:href="#m190078e328" y="154.46337"/>
      </g>
     </g>
     <g id="text_14">
      <!-- 5 -->
      <g transform="translate(39.1475 161.301964)scale(0.18 -0.18)">
       <use xlink:href="#DejaVuSans-53"/>
      </g>
     </g>
    </g>
    <g id="ytick_7">
     <g id="line2d_15">
      <g>
       <use style="stroke:#000000;stroke-width:0.8;" x="57.6" xlink:href="#m190078e328" y="123.839245"/>
      </g>
     </g>
     <g id="text_15">
      <!-- 6 -->
      <g transform="translate(39.1475 130.677838)scale(0.18 -0.18)">
       <use xlink:href="#DejaVuSans-54"/>
      </g>
     </g>
    </g>
    <g id="ytick_8">
     <g id="line2d_16">
      <g>
       <use style="stroke:#000000;stroke-width:0.8;" x="57.6" xlink:href="#m190078e328" y="93.215119"/>
      </g>
     </g>
     <g id="text_16">
      <!-- 7 -->
      <g transform="translate(39.1475 100.053712)scale(0.18 -0.18)">
       <use xlink:href="#DejaVuSans-55"/>
      </g>
     </g>
    </g>
    <g id="ytick_9">
     <g id="line2d_17">
      <g>
       <use style="stroke:#000000;stroke-width:0.8;" x="57.6" xlink:href="#m190078e328" y="62.590993"/>
      </g>
     </g>
     <g id="text_17">
      <!-- 8 -->
      <defs>
       <path d="M 31.78125 34.625 
Q 24.75 34.625 20.71875 30.859375 
Q 16.703125 27.09375 16.703125 20.515625 
Q 16.703125 13.921875 20.71875 10.15625 
Q 24.75 6.390625 31.78125 6.390625 
Q 38.8125 6.390625 42.859375 10.171875 
Q 46.921875 13.96875 46.921875 20.515625 
Q 46.921875 27.09375 42.890625 30.859375 
Q 38.875 34.625 31.78125 34.625 
z
M 21.921875 38.8125 
Q 15.578125 40.375 12.03125 44.71875 
Q 8.5 49.078125 8.5 55.328125 
Q 8.5 64.0625 14.71875 69.140625 
Q 20.953125 74.21875 31.78125 74.21875 
Q 42.671875 74.21875 48.875 69.140625 
Q 55.078125 64.0625 55.078125 55.328125 
Q 55.078125 49.078125 51.53125 44.71875 
Q 48 40.375 41.703125 38.8125 
Q 48.828125 37.15625 52.796875 32.3125 
Q 56.78125 27.484375 56.78125 20.515625 
Q 56.78125 9.90625 50.3125 4.234375 
Q 43.84375 -1.421875 31.78125 -1.421875 
Q 19.734375 -1.421875 13.25 4.234375 
Q 6.78125 9.90625 6.78125 20.515625 
Q 6.78125 27.484375 10.78125 32.3125 
Q 14.796875 37.15625 21.921875 38.8125 
z
M 18.3125 54.390625 
Q 18.3125 48.734375 21.84375 45.5625 
Q 25.390625 42.390625 31.78125 42.390625 
Q 38.140625 42.390625 41.71875 45.5625 
Q 45.3125 48.734375 45.3125 54.390625 
Q 45.3125 60.0625 41.71875 63.234375 
Q 38.140625 66.40625 31.78125 66.40625 
Q 25.390625 66.40625 21.84375 63.234375 
Q 18.3125 60.0625 18.3125 54.390625 
z
" id="DejaVuSans-56"/>
      </defs>
      <g transform="translate(39.1475 69.429586)scale(0.18 -0.18)">
       <use xlink:href="#DejaVuSans-56"/>
      </g>
     </g>
    </g>
   </g>
   <g id="LineCollection_1">
    <path clip-path="url(#pca60c8e31f)" d="M 77.841996 307.584 
L 78.177859 307.114103 
L 78.426833 306.644207 
L 78.54348 306.17431 
L 78.530169 305.704414 
L 78.442672 305.234517 
L 78.245831 304.76462 
L 77.962826 304.294724 
L 77.744663 304.002945 
L 77.586982 303.824827 
L 77.097585 303.354931 
L 76.828997 303.162709 
L 76.497797 302.885034 
L 75.91333 302.435012 
L 75.887085 302.415138 
L 75.255895 301.945241 
L 74.997664 301.774001 
L 74.513873 301.475344 
L 74.081997 301.245168 
L 73.613914 301.005448 
L 73.166331 300.760358 
L 72.748674 300.535551 
L 72.250664 300.235435 
L 71.947045 300.065655 
L 71.334998 299.750371 
L 70.92857 299.595758 
L 70.419331 299.404225 
L 69.782674 299.125861 
L 69.503665 298.990513 
L 68.587998 298.704991 
L 68.412354 298.655965 
L 67.672332 298.465389 
L 66.756665 298.271028 
L 66.128396 298.186068 
L 65.840999 298.149078 
L 64.925332 298.094224 
L 64.009666 298.09836 
L 63.093999 298.163229 
L 62.871888 298.186068 
L 62.178333 298.26077 
L 61.262666 298.428709 
L 61.146616 298.655965 
L 60.935843 299.125861 
L 60.715209 299.595758 
L 60.511626 300.065655 
L 60.347 300.497404 
L 60.343386 300.535551 
L 60.293619 301.005448 
L 60.243317 301.475344 
L 60.201999 301.945241 
L 60.166408 302.415138 
L 60.132945 302.885034 
L 60.102814 303.354931 
L 60.080934 303.824827 
L 60.062662 304.294724 
L 60.048104 304.76462 
L 60.037978 305.234517 
L 60.033477 305.704414 
L 60.032792 306.17431 
L 60.038792 306.644207 
L 60.0516 307.114103 
L 60.068878 307.584 
" style="fill:none;stroke:#4d94ff;stroke-width:1.5;"/>
   </g>
   <g id="LineCollection_2">
    <path clip-path="url(#pca60c8e31f)" d="M 85.959422 307.584 
L 86.392739 307.16415 
L 86.960951 306.632152 
L 87.265247 306.350392 
L 87.892564 305.680304 
L 88.137754 305.382982 
L 88.646596 304.728457 
L 89.010261 304.233558 
L 89.341302 303.776609 
L 89.882768 302.981892 
L 89.982014 302.824761 
L 90.396008 301.872913 
L 90.755276 301.246054 
L 90.909177 300.921065 
L 91.38525 299.969217 
L 91.627783 299.376054 
L 91.774504 299.01737 
L 92.109667 298.065522 
L 92.405952 297.113674 
L 92.50029 296.517721 
L 92.550743 296.161826 
L 92.636831 295.209978 
L 92.636831 294.25813 
L 92.50029 293.350298 
L 92.492893 293.306283 
L 92.336394 292.354435 
L 92.088914 291.402587 
L 91.829546 290.450739 
L 91.627783 289.732689 
L 91.562652 289.498891 
L 91.275023 288.547043 
L 90.888438 287.595196 
L 90.755276 287.314761 
L 90.3694 286.643348 
L 89.882768 285.952955 
L 89.683228 285.6915 
L 89.010261 284.867951 
L 88.903458 284.739652 
L 88.137754 283.796301 
L 88.130427 283.787804 
L 87.265247 283.12529 
L 86.822296 282.835956 
L 86.392739 282.51903 
L 85.55209 281.884109 
L 85.520232 281.867475 
L 84.647725 281.484256 
L 83.775218 281.135194 
L 83.254536 280.932261 
L 82.90271 280.799068 
L 82.030203 280.4749 
L 81.157696 280.200806 
L 80.486841 279.980413 
L 80.285189 279.921254 
L 79.412681 279.698526 
L 78.540174 279.49445 
L 77.667667 279.284156 
L 76.79516 279.040348 
L 76.7347 279.028565 
L 75.922652 278.862751 
L 75.050145 278.602336 
L 74.177638 278.437774 
L 73.305131 278.34014 
L 72.432623 278.275157 
L 71.560116 278.275157 
L 70.687609 278.381885 
L 69.815102 278.505997 
L 68.942594 278.676045 
L 68.070087 278.899229 
L 67.652879 279.028565 
L 67.19758 279.164556 
L 66.325073 279.535113 
L 65.452565 279.866855 
L 65.205741 279.980413 
L 64.580058 280.307484 
L 63.707551 280.85477 
L 63.585103 280.932261 
L 62.835044 281.430206 
L 62.140696 281.884109 
L 61.962536 282.054109 
L 61.291549 282.835956 
L 61.090029 283.048059 
L 60.954786 283.787804 
L 60.844461 284.739652 
L 60.734962 285.6915 
L 60.63578 286.643348 
L 60.556381 287.595196 
L 60.489859 288.547043 
L 60.440366 289.498891 
L 60.395342 290.450739 
L 60.351871 291.402587 
L 60.310392 292.354435 
L 60.284162 293.306283 
L 60.257634 294.25813 
L 60.257634 295.209978 
L 60.273578 296.161826 
L 60.298734 297.113674 
L 60.348393 298.065522 
L 60.404567 299.01737 
L 60.470892 299.969217 
L 60.552812 300.921065 
L 60.631885 301.872913 
L 60.692487 302.824761 
L 60.782851 303.776609 
L 60.881128 304.728457 
L 60.987935 305.680304 
L 61.090029 306.459284 
L 61.205893 306.632152 
L 61.845075 307.584 
" style="fill:none;stroke:#ff8533;stroke-width:1.5;"/>
   </g>
   <g id="LineCollection_3">
    <path clip-path="url(#pca60c8e31f)" d="M 88.525895 307.584 
L 88.771307 307.05886 
L 88.814197 306.53372 
L 88.672501 306.00858 
L 88.436457 305.48344 
L 88.246961 305.24772 
L 87.977148 304.9583 
L 87.440462 304.614942 
L 87.169498 304.43316 
L 86.633963 304.070365 
L 86.394869 303.90802 
L 85.827464 303.595917 
L 85.382724 303.38288 
L 85.020965 303.231297 
L 84.214466 302.950934 
L 83.844409 302.85774 
L 83.407968 302.756113 
L 82.601469 302.514737 
L 81.850267 302.3326 
L 81.79497 302.318518 
L 80.988471 302.156358 
L 80.181972 301.989039 
L 79.375473 301.848184 
L 79.129061 301.80746 
L 78.568974 301.70646 
L 77.762475 301.565718 
L 76.955976 301.418839 
L 76.275018 301.28232 
L 76.149477 301.262138 
L 75.342978 301.146505 
L 74.536479 301.040908 
L 73.72998 300.928697 
L 72.923481 300.82288 
L 72.428262 300.75718 
L 72.116982 300.709771 
L 71.310483 300.59694 
L 70.503984 300.517876 
L 69.697485 300.408916 
L 68.890986 300.324554 
L 68.084487 300.255404 
L 67.804393 300.23204 
L 67.277988 300.178974 
L 66.471489 300.091603 
L 65.66499 300.04449 
L 64.858491 300.018594 
L 64.051992 299.991268 
L 63.245493 299.991268 
L 62.438994 300.022683 
L 61.632495 300.08184 
L 60.825996 300.17024 
L 60.365953 300.23204 
L 60.019497 300.2707 
L 59.812681 300.75718 
L 59.592807 301.28232 
L 59.439653 301.80746 
L 59.292005 302.3326 
L 59.212998 302.624158 
L 59.187771 302.85774 
L 59.13892 303.38288 
L 59.09943 303.90802 
L 59.069108 304.43316 
L 59.039789 304.9583 
L 59.022786 305.48344 
L 59.013421 306.00858 
L 59.007799 306.53372 
L 59.009501 307.05886 
L 59.019237 307.584 
" style="fill:none;stroke:#00b300;stroke-width:1.5;"/>
   </g>
   <g id="LineCollection_4">
    <path clip-path="url(#pca60c8e31f)" d="M 164.543359 302.266099 
L 162.360842 302.266099 
L 160.178324 302.266099 
L 157.995807 302.266099 
L 155.813289 302.266099 
L 153.630772 302.266099 
L 151.448254 302.266099 
L 149.265737 302.266099 
L 147.083219 302.266099 
L 144.900701 302.266099 
L 142.718184 302.266099 
L 140.535666 302.266099 
L 138.353149 302.266099 
L 136.170631 302.266099 
L 133.988114 302.266099 
L 131.805596 302.266099 
L 129.623079 302.266099 
L 127.440561 302.266099 
L 125.258044 302.266099 
L 123.075526 302.266099 
L 120.893009 302.266099 
L 118.710491 302.266099 
L 116.527973 302.266099 
L 114.345456 302.266099 
L 112.162938 302.266099 
L 109.980421 302.266099 
L 107.797903 302.266099 
L 105.615386 302.266099 
L 103.432868 302.266099 
L 101.250351 302.266099 
L 99.067833 302.266099 
L 96.885316 302.266099 
L 96.387085 302.13767 
L 94.702798 301.729978 
L 94.005468 301.532523 
L 92.520281 301.191341 
L 91.14925 300.927375 
L 90.337763 300.755903 
L 88.155246 300.422395 
L 87.229152 300.322227 
L 85.972728 300.170783 
L 83.79021 300.025468 
L 81.607693 299.954513 
L 79.425175 299.939543 
L 77.242658 299.995378 
L 75.06014 300.129519 
L 72.877623 300.279358 
L 72.306132 300.322227 
L 70.695105 300.429119 
L 68.512588 300.623004 
L 66.33007 300.872233 
L 65.822676 300.927375 
L 64.147553 301.087549 
L 61.965035 301.262753 
L 61.842884 301.532523 
L 61.629691 302.13767 
L 61.445961 302.742818 
L 61.254168 303.347966 
L 61.13167 303.953114 
L 61.031405 304.558261 
L 60.942221 305.163409 
L 60.888137 305.768557 
L 60.864318 306.373705 
L 60.863978 306.978852 
L 60.88481 307.584 
" style="fill:none;stroke:#ffff33;stroke-width:1.5;"/>
   </g>
   <g id="patch_3">
    <path d="M 57.6 307.584 
L 57.6 41.472 
" style="fill:none;stroke:#000000;stroke-linecap:square;stroke-linejoin:miter;stroke-width:0.8;"/>
   </g>
   <g id="patch_4">
    <path d="M 343.296 307.584 
L 343.296 41.472 
" style="fill:none;stroke:#000000;stroke-linecap:square;stroke-linejoin:miter;stroke-width:0.8;"/>
   </g>
   <g id="patch_5">
    <path d="M 57.6 307.584 
L 343.296 307.584 
" style="fill:none;stroke:#000000;stroke-linecap:square;stroke-linejoin:miter;stroke-width:0.8;"/>
   </g>
   <g id="patch_6">
    <path d="M 57.6 41.472 
L 343.296 41.472 
" style="fill:none;stroke:#000000;stroke-linecap:square;stroke-linejoin:miter;stroke-width:0.8;"/>
   </g>
  </g>
  <g id="axes_2">
   <g id="patch_7">
    <path clip-path="url(#p26281915d6)" d="M 367.2 307.584 
L 361.152 295.488 
L 361.152 53.568 
L 367.2 41.472 
L 367.2 41.472 
L 373.248 53.568 
L 373.248 295.488 
L 367.2 307.584 
z
" style="fill:#ffffff;stroke:#ffffff;stroke-linejoin:miter;stroke-width:0.01;"/>
   </g>
   <g id="QuadMesh_1">
    <path clip-path="url(#p26281915d6)" d="M 367.2 307.584 
L 367.2 307.584 
L 373.248 295.488 
L 361.152 295.488 
L 367.2 307.584 
" style="fill:#ffffff;"/>
    <path clip-path="url(#p26281915d6)" d="M 361.152 295.488 
L 373.248 295.488 
L 373.248 235.008 
L 361.152 235.008 
L 361.152 295.488 
" style="fill:#ffffff;"/>
    <path clip-path="url(#p26281915d6)" d="M 361.152 235.008 
L 373.248 235.008 
L 373.248 174.528 
L 361.152 174.528 
L 361.152 235.008 
" style="fill:#f0f0f0;"/>
    <path clip-path="url(#p26281915d6)" d="M 361.152 174.528 
L 373.248 174.528 
L 373.248 114.048 
L 361.152 114.048 
L 361.152 174.528 
" style="fill:#d3d3d3;"/>
    <path clip-path="url(#p26281915d6)" d="M 361.152 114.048 
L 373.248 114.048 
L 373.248 53.568 
L 361.152 53.568 
L 361.152 114.048 
" style="fill:#b8b8b8;"/>
    <path clip-path="url(#p26281915d6)" d="M 361.152 53.568 
L 373.248 53.568 
L 367.2 41.472 
L 367.2 41.472 
L 361.152 53.568 
" style="fill:#a0a0a0;"/>
   </g>
   <g id="matplotlib.axis_3"/>
   <g id="matplotlib.axis_4">
    <g id="ytick_10">
     <g id="line2d_18">
      <defs>
       <path d="M 0 0 
L 3.5 0 
" id="m2794ae7725" style="stroke:#000000;stroke-width:0.8;"/>
      </defs>
      <g>
       <use style="stroke:#000000;stroke-width:0.8;" x="373.248" xlink:href="#m2794ae7725" y="295.488"/>
      </g>
     </g>
     <g id="text_18">
      <!-- 0.00000 -->
      <defs>
       <path d="M 10.6875 12.40625 
L 21 12.40625 
L 21 0 
L 10.6875 0 
z
" id="DejaVuSans-46"/>
      </defs>
      <g transform="translate(380.248 302.326594)scale(0.18 -0.18)">
       <use xlink:href="#DejaVuSans-48"/>
       <use x="63.623047" xlink:href="#DejaVuSans-46"/>
       <use x="95.410156" xlink:href="#DejaVuSans-48"/>
       <use x="159.033203" xlink:href="#DejaVuSans-48"/>
       <use x="222.65625" xlink:href="#DejaVuSans-48"/>
       <use x="286.279297" xlink:href="#DejaVuSans-48"/>
       <use x="349.902344" xlink:href="#DejaVuSans-48"/>
      </g>
     </g>
    </g>
    <g id="ytick_11">
     <g id="line2d_19">
      <g>
       <use style="stroke:#000000;stroke-width:0.8;" x="373.248" xlink:href="#m2794ae7725" y="235.008"/>
      </g>
     </g>
     <g id="text_19">
      <!-- 0.00378 -->
      <g transform="translate(380.248 241.846594)scale(0.18 -0.18)">
       <use xlink:href="#DejaVuSans-48"/>
       <use x="63.623047" xlink:href="#DejaVuSans-46"/>
       <use x="95.410156" xlink:href="#DejaVuSans-48"/>
       <use x="159.033203" xlink:href="#DejaVuSans-48"/>
       <use x="222.65625" xlink:href="#DejaVuSans-51"/>
       <use x="286.279297" xlink:href="#DejaVuSans-55"/>
       <use x="349.902344" xlink:href="#DejaVuSans-56"/>
      </g>
     </g>
    </g>
    <g id="ytick_12">
     <g id="line2d_20">
      <g>
       <use style="stroke:#000000;stroke-width:0.8;" x="373.248" xlink:href="#m2794ae7725" y="174.528"/>
      </g>
     </g>
     <g id="text_20">
      <!-- 0.01512 -->
      <g transform="translate(380.248 181.366594)scale(0.18 -0.18)">
       <use xlink:href="#DejaVuSans-48"/>
       <use x="63.623047" xlink:href="#DejaVuSans-46"/>
       <use x="95.410156" xlink:href="#DejaVuSans-48"/>
       <use x="159.033203" xlink:href="#DejaVuSans-49"/>
       <use x="222.65625" xlink:href="#DejaVuSans-53"/>
       <use x="286.279297" xlink:href="#DejaVuSans-49"/>
       <use x="349.902344" xlink:href="#DejaVuSans-50"/>
      </g>
     </g>
    </g>
    <g id="ytick_13">
     <g id="line2d_21">
      <g>
       <use style="stroke:#000000;stroke-width:0.8;" x="373.248" xlink:href="#m2794ae7725" y="114.048"/>
      </g>
     </g>
     <g id="text_21">
      <!-- 0.02457 -->
      <g transform="translate(380.248 120.886594)scale(0.18 -0.18)">
       <use xlink:href="#DejaVuSans-48"/>
       <use x="63.623047" xlink:href="#DejaVuSans-46"/>
       <use x="95.410156" xlink:href="#DejaVuSans-48"/>
       <use x="159.033203" xlink:href="#DejaVuSans-50"/>
       <use x="222.65625" xlink:href="#DejaVuSans-52"/>
       <use x="286.279297" xlink:href="#DejaVuSans-53"/>
       <use x="349.902344" xlink:href="#DejaVuSans-55"/>
      </g>
     </g>
    </g>
    <g id="ytick_14">
     <g id="line2d_22">
      <g>
       <use style="stroke:#000000;stroke-width:0.8;" x="373.248" xlink:href="#m2794ae7725" y="53.568"/>
      </g>
     </g>
     <g id="text_22">
      <!-- 0.04915 -->
      <defs>
       <path d="M 10.984375 1.515625 
L 10.984375 10.5 
Q 14.703125 8.734375 18.5 7.8125 
Q 22.3125 6.890625 25.984375 6.890625 
Q 35.75 6.890625 40.890625 13.453125 
Q 46.046875 20.015625 46.78125 33.40625 
Q 43.953125 29.203125 39.59375 26.953125 
Q 35.25 24.703125 29.984375 24.703125 
Q 19.046875 24.703125 12.671875 31.3125 
Q 6.296875 37.9375 6.296875 49.421875 
Q 6.296875 60.640625 12.9375 67.421875 
Q 19.578125 74.21875 30.609375 74.21875 
Q 43.265625 74.21875 49.921875 64.515625 
Q 56.59375 54.828125 56.59375 36.375 
Q 56.59375 19.140625 48.40625 8.859375 
Q 40.234375 -1.421875 26.421875 -1.421875 
Q 22.703125 -1.421875 18.890625 -0.6875 
Q 15.09375 0.046875 10.984375 1.515625 
z
M 30.609375 32.421875 
Q 37.25 32.421875 41.125 36.953125 
Q 45.015625 41.5 45.015625 49.421875 
Q 45.015625 57.28125 41.125 61.84375 
Q 37.25 66.40625 30.609375 66.40625 
Q 23.96875 66.40625 20.09375 61.84375 
Q 16.21875 57.28125 16.21875 49.421875 
Q 16.21875 41.5 20.09375 36.953125 
Q 23.96875 32.421875 30.609375 32.421875 
z
" id="DejaVuSans-57"/>
      </defs>
      <g transform="translate(380.248 60.406594)scale(0.18 -0.18)">
       <use xlink:href="#DejaVuSans-48"/>
       <use x="63.623047" xlink:href="#DejaVuSans-46"/>
       <use x="95.410156" xlink:href="#DejaVuSans-48"/>
       <use x="159.033203" xlink:href="#DejaVuSans-52"/>
       <use x="222.65625" xlink:href="#DejaVuSans-57"/>
       <use x="286.279297" xlink:href="#DejaVuSans-49"/>
       <use x="349.902344" xlink:href="#DejaVuSans-53"/>
      </g>
     </g>
    </g>
   </g>
   <g id="patch_8">
    <path d="M 367.2 307.584 
L 361.152 295.488 
L 361.152 53.568 
L 367.2 41.472 
L 367.2 41.472 
L 373.248 53.568 
L 373.248 295.488 
L 367.2 307.584 
z
" style="fill:none;stroke:#000000;stroke-linejoin:miter;stroke-width:0.8;"/>
   </g>
  </g>
 </g>
 <defs>
  <clipPath id="pca60c8e31f">
   <rect height="266.112" width="285.696" x="57.6" y="41.472"/>
  </clipPath>
  <clipPath id="p26281915d6">
   <rect height="266.112" width="12.096" x="361.152" y="41.472"/>
  </clipPath>
 </defs>
</svg>
