<?xml version="1.0" encoding="utf-8" standalone="no"?>
<!DOCTYPE svg PUBLIC "-//W3C//DTD SVG 1.1//EN"
  "http://www.w3.org/Graphics/SVG/1.1/DTD/svg11.dtd">
<!-- Created with matplotlib (https://matplotlib.org/) -->
<svg height="345.6pt" version="1.1" viewBox="0 0 460.8 345.6" width="460.8pt" xmlns="http://www.w3.org/2000/svg" xmlns:xlink="http://www.w3.org/1999/xlink">
 <defs>
  <style type="text/css">
*{stroke-linecap:butt;stroke-linejoin:round;}
  </style>
 </defs>
 <g id="figure_1">
  <g id="patch_1">
   <path d="M 0 345.6 
L 460.8 345.6 
L 460.8 0 
L 0 0 
z
" style="fill:#ffffff;"/>
  </g>
  <g id="axes_1">
   <g id="patch_2">
    <path d="M 57.6 307.584 
L 343.296 307.584 
L 343.296 41.472 
L 57.6 41.472 
z
" style="fill:#ffffff;"/>
   </g>
   <g id="PathCollection_1"/>
   <g id="PathCollection_2">
    <path clip-path="url(#pfe92179a74)" d="M 71.213338 300.415178 
L 78.020007 300.415178 
L 84.826676 300.415178 
L 91.633345 300.415178 
L 98.440014 300.415178 
L 105.246683 300.415178 
L 112.053351 300.415178 
L 118.86002 300.415178 
L 125.666689 300.415178 
L 132.473358 300.415178 
L 139.280027 300.415178 
L 146.086696 300.415178 
L 152.893365 300.415178 
L 159.700034 300.415178 
L 166.506703 300.415178 
L 173.313372 300.415178 
L 180.120041 300.415178 
L 186.92671 300.415178 
L 193.733379 300.415178 
L 200.540048 300.415178 
L 207.346716 300.415178 
L 214.153385 300.415178 
L 220.960054 300.415178 
L 227.766723 300.415178 
L 234.573392 300.415178 
L 241.380061 300.415178 
L 248.18673 300.415178 
L 254.993399 300.415178 
L 261.800068 300.415178 
L 268.606737 300.415178 
L 275.413406 300.415178 
L 282.220075 300.415178 
L 289.026744 300.415178 
L 295.833413 300.415178 
L 302.640082 300.415178 
L 309.44675 300.415178 
L 316.253419 300.415178 
L 323.060088 300.415178 
L 329.866757 300.415178 
L 336.673426 300.415178 
L 343.480095 300.415178 
L 350.286764 300.415178 
L 357.093433 300.415178 
L 363.900102 300.415178 
L 370.706771 300.415178 
L 377.51344 300.415178 
L 384.320109 300.415178 
L 391.126778 300.415178 
L 397.933447 300.415178 
L 404.740116 300.415178 
L 411.546784 300.415178 
L 418.353453 300.415178 
L 425.160122 300.415178 
L 431.966791 300.415178 
L 438.77346 300.415178 
L 445.580129 300.415178 
L 452.386798 300.415178 
L 459.193467 300.415178 
L 466.000136 300.415178 
L 472.806805 300.415178 
L 479.613474 300.415178 
L 486.420143 300.415178 
L 493.226812 300.415178 
L 500.033481 300.415178 
L 506.840149 300.415178 
L 513.646818 300.415178 
L 520.453487 300.415178 
L 527.260156 300.415178 
L 534.066825 300.415178 
L 540.873494 300.415178 
L 547.680163 300.415178 
L 554.486832 300.415178 
L 561.293501 300.415178 
L 568.10017 300.415178 
L 574.906839 300.415178 
L 581.713508 300.415178 
L 588.520177 300.415178 
L 595.326846 300.415178 
L 602.133515 300.415178 
L 608.940183 300.415178 
L 615.746852 300.415178 
L 622.553521 300.415178 
L 629.36019 300.415178 
L 636.166859 300.415178 
L 642.973528 300.415178 
L 649.780197 300.415178 
L 656.586866 300.415178 
L 663.393535 300.415178 
L 670.200204 300.415178 
L 677.006873 300.415178 
L 683.813542 300.415178 
L 690.620211 300.415178 
L 697.42688 300.415178 
L 704.233548 300.415178 
L 711.040217 300.415178 
L 717.846886 300.415178 
L 724.653555 300.415178 
L 731.460224 300.415178 
L 738.266893 300.415178 
L 745.073562 300.415178 
L 751.880231 300.415178 
L 758.6869 300.415178 
L 765.493569 300.415178 
L 772.300238 300.415178 
L 779.106907 300.415178 
L 785.913576 300.415178 
L 792.720245 300.415178 
L 799.526914 300.415178 
L 806.333582 300.415178 
L 813.140251 300.415178 
L 819.94692 300.415178 
L 826.753589 300.415178 
L 833.560258 300.415178 
L 840.366927 300.415178 
L 847.173596 300.415178 
L 853.980265 300.415178 
L 860.786934 300.415178 
L 867.593603 300.415178 
L 874.400272 300.415178 
L 881.206941 300.415178 
L 888.01361 300.415178 
L 894.820279 300.415178 
L 901.626948 300.415178 
L 908.433616 300.415178 
L 915.240285 300.415178 
L 922.046954 300.415178 
L 928.853623 300.415178 
L 935.660292 300.415178 
L 942.466961 300.415178 
L 949.27363 300.415178 
L 956.080299 300.415178 
L 962.886968 300.415178 
L 969.693637 300.415178 
L 976.500306 300.415178 
L 983.306975 300.415178 
L 990.113644 300.415178 
L 996.920313 300.415178 
L 1003.726981 300.415178 
L 1010.53365 300.415178 
L 1017.340319 300.415178 
L 1024.146988 300.415178 
L 1030.953657 300.415178 
L 1037.760326 300.415178 
L 1044.566995 300.415178 
L 1051.373664 300.415178 
L 1058.180333 300.415178 
L 1064.987002 300.415178 
L 1071.793671 300.415178 
L 1078.60034 300.415178 
L 1085.407009 300.415178 
L 1092.213678 300.415178 
L 1099.020347 300.415178 
L 1105.827015 300.415178 
L 1112.633684 300.415178 
L 1119.440353 300.415178 
L 1126.247022 300.415178 
L 1133.053691 300.415178 
L 1139.86036 300.415178 
L 1146.667029 300.415178 
L 1153.473698 300.415178 
L 1160.280367 300.415178 
L 1167.087036 300.415178 
L 1173.893705 300.415178 
L 1180.700374 300.415178 
L 1187.507043 300.415178 
L 1194.313712 300.415178 
L 1201.120381 300.415178 
L 1207.927049 300.415178 
L 1214.733718 300.415178 
L 1221.540387 300.415178 
L 1228.347056 300.415178 
L 1235.153725 300.415178 
L 1241.960394 300.415178 
L 1248.767063 300.415178 
L 1255.573732 300.415178 
L 1262.380401 300.415178 
L 1269.18707 300.415178 
L 1275.993739 300.415178 
L 1282.800408 300.415178 
L 1289.607077 300.415178 
L 1296.413746 300.415178 
L 1303.220414 300.415178 
L 1310.027083 300.415178 
L 1316.833752 300.415178 
L 1323.640421 300.415178 
L 1330.44709 300.415178 
L 1337.253759 300.415178 
L 1344.060428 300.415178 
L 1350.867097 300.415178 
L 1357.673766 300.415178 
L 1364.480435 300.415178 
L 1371.287104 300.415178 
L 1378.093773 300.415178 
L 1384.900442 300.415178 
L 1391.707111 300.415178 
L 1398.51378 300.415178 
L 1405.320448 300.415178 
L 1412.127117 300.415178 
L 1418.933786 300.415178 
L 1425.740455 300.415178 
L 1432.547124 300.415178 
L 1439.353793 300.415178 
L 1446.160462 300.415178 
L 1452.967131 300.415178 
L 1459.7738 300.415178 
L 1466.580469 300.415178 
L 1473.387138 300.415178 
L 1480.193807 300.415178 
L 1480.193807 293.246356 
L 1480.193807 286.077534 
L 1480.193807 278.908712 
L 1480.193807 271.73989 
L 1480.193807 264.571067 
L 1480.193807 257.402245 
L 1480.193807 250.233423 
L 1480.193807 243.064601 
L 1480.193807 235.895779 
L 1480.193807 228.726957 
L 1480.193807 221.558135 
L 1480.193807 214.389313 
L 1480.193807 207.220491 
L 1480.193807 200.051669 
L 1480.193807 192.882846 
L 1480.193807 185.714024 
L 1480.193807 178.545202 
L 1480.193807 171.37638 
L 1480.193807 164.207558 
L 1480.193807 157.038736 
L 1480.193807 149.869914 
L 1480.193807 142.701092 
L 1480.193807 135.53227 
L 1480.193807 128.363448 
L 1480.193807 121.194625 
L 1480.193807 114.025803 
L 1480.193807 106.856981 
L 1480.193807 99.688159 
L 1480.193807 92.519337 
L 1480.193807 85.350515 
L 1480.193807 78.181693 
L 1480.193807 71.012871 
L 1480.193807 63.844049 
L 1480.193807 56.675227 
L 1480.193807 49.506405 
L 1480.193807 42.337582 
L 1480.193807 35.16876 
L 1480.193807 27.999938 
L 1480.193807 20.831116 
L 1480.193807 13.662294 
L 1480.193807 6.493472 
L 1480.193807 -0.67535 
L 1480.193807 -7.844172 
L 1480.193807 -15.012994 
L 1480.193807 -22.181816 
L 1480.193807 -29.350639 
L 1480.193807 -36.519461 
L 1480.193807 -43.688283 
L 1480.193807 -50.857105 
L 1480.193807 -58.025927 
L 1480.193807 -65.194749 
L 1480.193807 -72.363571 
L 1480.193807 -79.532393 
L 1480.193807 -86.701215 
L 1480.193807 -93.870037 
L 1480.193807 -101.03886 
L 1480.193807 -108.207682 
L 1480.193807 -115.376504 
L 1480.193807 -122.545326 
L 1480.193807 -129.714148 
L 1480.193807 -136.88297 
L 1480.193807 -144.051792 
L 1480.193807 -151.220614 
L 1480.193807 -158.389436 
L 1480.193807 -165.558258 
L 1480.193807 -172.72708 
L 1480.193807 -179.895903 
L 1480.193807 -187.064725 
L 1480.193807 -194.233547 
L 1480.193807 -201.402369 
L 1480.193807 -208.571191 
L 1480.193807 -215.740013 
L 1480.193807 -222.908835 
L 1480.193807 -230.077657 
L 1480.193807 -237.246479 
L 1480.193807 -244.415301 
L 1480.193807 -251.584124 
L 1480.193807 -258.752946 
L 1480.193807 -265.921768 
L 1480.193807 -273.09059 
L 1480.193807 -280.259412 
L 1480.193807 -287.428234 
L 1480.193807 -294.597056 
L 1480.193807 -301.765878 
L 1480.193807 -308.9347 
L 1480.193807 -316.103522 
L 1480.193807 -323.272345 
L 1473.387138 -323.272345 
L 1466.580469 -323.272345 
L 1459.7738 -323.272345 
L 1452.967131 -323.272345 
L 1446.160462 -323.272345 
L 1439.353793 -323.272345 
L 1432.547124 -323.272345 
L 1425.740455 -323.272345 
L 1418.933786 -323.272345 
L 1412.127117 -323.272345 
L 1405.320448 -323.272345 
L 1398.51378 -323.272345 
L 1391.707111 -323.272345 
L 1384.900442 -323.272345 
L 1378.093773 -323.272345 
L 1371.287104 -323.272345 
L 1364.480435 -323.272345 
L 1357.673766 -323.272345 
L 1350.867097 -323.272345 
L 1344.060428 -323.272345 
L 1337.253759 -323.272345 
L 1330.44709 -323.272345 
L 1323.640421 -323.272345 
L 1316.833752 -323.272345 
L 1310.027083 -323.272345 
L 1303.220414 -323.272345 
L 1296.413746 -323.272345 
L 1289.607077 -323.272345 
L 1282.800408 -323.272345 
L 1275.993739 -323.272345 
L 1269.18707 -323.272345 
L 1262.380401 -323.272345 
L 1255.573732 -323.272345 
L 1248.767063 -323.272345 
L 1241.960394 -323.272345 
L 1235.153725 -323.272345 
L 1228.347056 -323.272345 
L 1221.540387 -323.272345 
L 1214.733718 -323.272345 
L 1207.927049 -323.272345 
L 1201.120381 -323.272345 
L 1194.313712 -323.272345 
L 1187.507043 -323.272345 
L 1180.700374 -323.272345 
L 1173.893705 -323.272345 
L 1167.087036 -323.272345 
L 1160.280367 -323.272345 
L 1153.473698 -323.272345 
L 1146.667029 -323.272345 
L 1139.86036 -323.272345 
L 1133.053691 -323.272345 
L 1126.247022 -323.272345 
L 1119.440353 -323.272345 
L 1112.633684 -323.272345 
L 1105.827015 -323.272345 
L 1099.020347 -323.272345 
L 1092.213678 -323.272345 
L 1085.407009 -323.272345 
L 1078.60034 -323.272345 
L 1071.793671 -323.272345 
L 1064.987002 -323.272345 
L 1058.180333 -323.272345 
L 1051.373664 -323.272345 
L 1044.566995 -323.272345 
L 1037.760326 -323.272345 
L 1030.953657 -323.272345 
L 1024.146988 -323.272345 
L 1017.340319 -323.272345 
L 1010.53365 -323.272345 
L 1003.726981 -323.272345 
L 996.920313 -323.272345 
L 990.113644 -323.272345 
L 983.306975 -323.272345 
L 976.500306 -323.272345 
L 969.693637 -323.272345 
L 962.886968 -323.272345 
L 956.080299 -323.272345 
L 949.27363 -323.272345 
L 942.466961 -323.272345 
L 935.660292 -323.272345 
L 928.853623 -323.272345 
L 922.046954 -323.272345 
L 915.240285 -323.272345 
L 908.433616 -323.272345 
L 901.626948 -323.272345 
L 894.820279 -323.272345 
L 888.01361 -323.272345 
L 881.206941 -323.272345 
L 874.400272 -323.272345 
L 867.593603 -323.272345 
L 860.786934 -323.272345 
L 853.980265 -323.272345 
L 847.173596 -323.272345 
L 840.366927 -323.272345 
L 833.560258 -323.272345 
L 826.753589 -323.272345 
L 819.94692 -323.272345 
L 813.140251 -323.272345 
L 806.333582 -323.272345 
L 799.526914 -323.272345 
L 792.720245 -323.272345 
L 785.913576 -323.272345 
L 779.106907 -323.272345 
L 772.300238 -323.272345 
L 765.493569 -323.272345 
L 758.6869 -323.272345 
L 751.880231 -323.272345 
L 745.073562 -323.272345 
L 738.266893 -323.272345 
L 731.460224 -323.272345 
L 724.653555 -323.272345 
L 717.846886 -323.272345 
L 711.040217 -323.272345 
L 704.233548 -323.272345 
L 697.42688 -323.272345 
L 690.620211 -323.272345 
L 683.813542 -323.272345 
L 677.006873 -323.272345 
L 670.200204 -323.272345 
L 663.393535 -323.272345 
L 656.586866 -323.272345 
L 649.780197 -323.272345 
L 642.973528 -323.272345 
L 636.166859 -323.272345 
L 629.36019 -323.272345 
L 622.553521 -323.272345 
L 615.746852 -323.272345 
L 608.940183 -323.272345 
L 602.133515 -323.272345 
L 595.326846 -323.272345 
L 588.520177 -323.272345 
L 581.713508 -323.272345 
L 574.906839 -323.272345 
L 568.10017 -323.272345 
L 561.293501 -323.272345 
L 554.486832 -323.272345 
L 547.680163 -323.272345 
L 540.873494 -323.272345 
L 534.066825 -323.272345 
L 527.260156 -323.272345 
L 520.453487 -323.272345 
L 513.646818 -323.272345 
L 506.840149 -323.272345 
L 500.033481 -323.272345 
L 493.226812 -323.272345 
L 486.420143 -323.272345 
L 479.613474 -323.272345 
L 472.806805 -323.272345 
L 466.000136 -323.272345 
L 459.193467 -323.272345 
L 452.386798 -323.272345 
L 445.580129 -323.272345 
L 438.77346 -323.272345 
L 431.966791 -323.272345 
L 425.160122 -323.272345 
L 418.353453 -323.272345 
L 411.546784 -323.272345 
L 404.740116 -323.272345 
L 397.933447 -323.272345 
L 391.126778 -323.272345 
L 384.320109 -323.272345 
L 377.51344 -323.272345 
L 370.706771 -323.272345 
L 363.900102 -323.272345 
L 357.093433 -323.272345 
L 350.286764 -323.272345 
L 343.480095 -323.272345 
L 336.673426 -323.272345 
L 329.866757 -323.272345 
L 323.060088 -323.272345 
L 316.253419 -323.272345 
L 309.44675 -323.272345 
L 302.640082 -323.272345 
L 295.833413 -323.272345 
L 289.026744 -323.272345 
L 282.220075 -323.272345 
L 275.413406 -323.272345 
L 268.606737 -323.272345 
L 261.800068 -323.272345 
L 254.993399 -323.272345 
L 248.18673 -323.272345 
L 241.380061 -323.272345 
L 234.573392 -323.272345 
L 227.766723 -323.272345 
L 220.960054 -323.272345 
L 214.153385 -323.272345 
L 207.346716 -323.272345 
L 200.540048 -323.272345 
L 193.733379 -323.272345 
L 186.92671 -323.272345 
L 180.120041 -323.272345 
L 173.313372 -323.272345 
L 166.506703 -323.272345 
L 159.700034 -323.272345 
L 152.893365 -323.272345 
L 146.086696 -323.272345 
L 139.280027 -323.272345 
L 132.473358 -323.272345 
L 125.666689 -323.272345 
L 118.86002 -323.272345 
L 112.053351 -323.272345 
L 105.246683 -323.272345 
L 98.440014 -323.272345 
L 91.633345 -323.272345 
L 84.826676 -323.272345 
L 78.020007 -323.272345 
L 71.213338 -323.272345 
L 64.406669 -323.272345 
L 64.406669 -316.103522 
L 64.406669 -308.9347 
L 64.406669 -301.765878 
L 64.406669 -294.597056 
L 64.406669 -287.428234 
L 64.406669 -280.259412 
L 64.406669 -273.09059 
L 64.406669 -265.921768 
L 64.406669 -258.752946 
L 64.406669 -251.584124 
L 64.406669 -244.415301 
L 64.406669 -237.246479 
L 64.406669 -230.077657 
L 64.406669 -222.908835 
L 64.406669 -215.740013 
L 64.406669 -208.571191 
L 64.406669 -201.402369 
L 64.406669 -194.233547 
L 64.406669 -187.064725 
L 64.406669 -179.895903 
L 64.406669 -172.72708 
L 64.406669 -165.558258 
L 64.406669 -158.389436 
L 64.406669 -151.220614 
L 64.406669 -144.051792 
L 64.406669 -136.88297 
L 64.406669 -129.714148 
L 64.406669 -122.545326 
L 64.406669 -115.376504 
L 64.406669 -108.207682 
L 64.406669 -101.03886 
L 64.406669 -93.870037 
L 64.406669 -86.701215 
L 64.406669 -79.532393 
L 64.406669 -72.363571 
L 64.406669 -65.194749 
L 64.406669 -58.025927 
L 64.406669 -50.857105 
L 64.406669 -43.688283 
L 64.406669 -36.519461 
L 64.406669 -29.350639 
L 64.406669 -22.181816 
L 64.406669 -15.012994 
L 64.406669 -7.844172 
L 64.406669 -0.67535 
L 64.406669 6.493472 
L 64.406669 13.662294 
L 64.406669 20.831116 
L 64.406669 27.999938 
L 64.406669 35.16876 
L 64.406669 42.337582 
L 64.406669 49.506405 
L 64.406669 56.675227 
L 64.406669 63.844049 
L 64.406669 71.012871 
L 64.406669 78.181693 
L 64.406669 85.350515 
L 64.406669 92.519337 
L 64.406669 99.688159 
L 64.406669 106.856981 
L 64.406669 114.025803 
L 64.406669 121.194625 
L 64.406669 128.363448 
L 64.406669 135.53227 
L 64.406669 142.701092 
L 64.406669 149.869914 
L 64.406669 157.038736 
L 64.406669 164.207558 
L 64.406669 171.37638 
L 64.406669 178.545202 
L 64.406669 185.714024 
L 64.406669 192.882846 
L 64.406669 200.051669 
L 64.406669 207.220491 
L 64.406669 214.389313 
L 64.406669 221.558135 
L 64.406669 228.726957 
L 64.406669 235.895779 
L 64.406669 243.064601 
L 64.406669 250.233423 
L 64.406669 250.408915 
L 64.549492 250.233423 
L 65.586644 243.064601 
L 71.213338 236.027398 
L 71.279988 235.895779 
L 73.461507 228.726957 
L 77.058577 221.558135 
L 78.020007 219.870496 
L 79.321078 214.389313 
L 84.826676 208.063648 
L 85.315908 207.220491 
L 91.633345 200.917118 
L 95.536559 200.051669 
L 98.440014 195.974422 
L 105.246683 193.074292 
L 106.246442 192.882846 
L 112.053351 186.766977 
L 114.05287 185.714024 
L 118.86002 183.182566 
L 120.327718 178.545202 
L 125.666689 172.922168 
L 128.602085 171.37638 
L 125.666689 168.284805 
L 122.763235 164.207558 
L 125.666689 161.76121 
L 131.473599 164.207558 
L 132.473358 165.26051 
L 133.139865 164.207558 
L 135.59593 157.038736 
L 139.280027 154.267227 
L 146.086696 152.610505 
L 151.290982 149.869914 
L 152.893365 148.85733 
L 159.700034 143.011781 
L 160.080026 142.701092 
L 166.506703 136.04529 
L 169.429322 135.53227 
L 173.313372 131.441567 
L 180.120041 128.493876 
L 180.305017 128.363448 
L 186.92671 121.389443 
L 187.523163 121.194625 
L 193.733379 114.653991 
L 200.540048 114.071609 
L 207.346716 114.040907 
L 214.153385 114.313478 
L 220.960054 114.336725 
L 227.766723 114.356784 
L 234.573392 115.165848 
L 240.297609 121.194625 
L 241.22863 128.363448 
L 234.573392 135.409289 
L 234.318625 135.53227 
L 229.70236 142.701092 
L 227.766723 144.739715 
L 226.43826 149.869914 
L 227.766723 150.802677 
L 234.573392 151.053806 
L 240.255977 157.038736 
L 235.534822 164.207558 
L 234.573392 165.220142 
L 227.766723 171.170275 
L 227.347381 171.37638 
L 220.960054 178.439907 
L 220.460175 178.545202 
L 214.153385 182.973433 
L 207.346716 185.168452 
L 205.879019 185.714024 
L 200.540048 189.9313 
L 193.733379 191.055785 
L 188.529093 192.882846 
L 186.92671 193.89543 
L 180.120041 196.631536 
L 175.94487 200.051669 
L 173.313372 203.285096 
L 166.506703 206.633221 
L 165.530899 207.220491 
L 159.700034 212.679246 
L 155.524863 214.389313 
L 152.893365 217.160822 
L 147.048126 221.558135 
L 146.086696 222.823864 
L 139.280027 228.069215 
L 138.601207 228.726957 
L 132.473358 234.664531 
L 130.75417 235.895779 
L 125.666689 241.588828 
L 118.86002 241.525541 
L 112.053351 240.865944 
L 106.208113 243.064601 
L 105.246683 244.330331 
L 99.641801 250.233423 
L 98.440014 251.246007 
L 91.633345 257.200621 
L 91.536573 257.402245 
L 86.762312 264.571067 
L 84.826676 267.629002 
L 82.224533 271.73989 
L 78.020007 275.535516 
L 77.430019 278.908712 
L 78.020007 284.811804 
L 84.826676 284.389895 
L 91.633345 283.631186 
L 94.536799 286.077534 
L 91.633345 288.116157 
L 84.826676 287.343263 
L 79.221794 293.246356 
L 78.020007 294.258939 
L 75.616432 293.246356 
L 76.417623 286.077534 
L 71.213338 285.633113 
L 71.107846 286.077534 
L 71.071303 293.246356 
L 69.488759 300.415178 
z
M 197.636593 286.077534 
L 196.668775 278.908712 
L 193.733379 274.271348 
L 192.130995 271.73989 
L 186.92671 269.390811 
L 180.120041 267.102526 
L 175.312891 264.571067 
L 180.120041 263.305338 
L 186.92671 260.822378 
L 193.333475 264.571067 
L 193.733379 266.676972 
L 195.732898 264.571067 
L 200.540048 262.883428 
L 207.346716 262.883428 
L 214.153385 258.948033 
L 220.960054 258.455198 
L 222.959573 257.402245 
L 227.766723 255.714606 
L 228.728153 257.402245 
L 230.170298 264.571067 
L 233.944379 271.73989 
L 231.450821 278.908712 
L 227.766723 282.142139 
L 220.960054 281.68022 
L 216.354932 278.908712 
L 214.153385 276.59003 
L 212.392148 278.908712 
L 207.346716 283.336942 
L 203.443502 286.077534 
L 200.540048 288.523882 
z
M 97.238226 278.908712 
L 98.440014 277.221072 
L 103.247164 278.908712 
L 98.440014 280.596351 
z
M 130.069783 278.908712 
L 132.473358 276.377253 
L 134.674905 271.73989 
L 139.280027 267.859777 
L 145.42019 271.73989 
L 146.086696 273.845794 
L 146.753202 271.73989 
L 152.893365 266.889749 
L 159.033528 271.73989 
L 159.700034 273.845794 
L 161.699553 271.73989 
L 166.506703 266.676972 
L 173.313372 266.676972 
L 175.716947 271.73989 
L 173.313372 274.271348 
L 166.506703 276.802807 
L 164.507184 278.908712 
L 159.700034 279.921295 
L 152.893365 280.947335 
L 146.086696 280.174441 
L 141.279546 278.908712 
L 139.280027 278.206743 
L 137.280508 278.908712 
L 132.473358 279.921295 
z
M 110.450968 271.73989 
L 112.053351 270.727306 
L 118.86002 269.208431 
L 125.666689 268.681955 
L 129.537962 271.73989 
L 125.666689 275.817136 
L 118.86002 274.271348 
L 112.053351 273.427529 
z
" style="fill:#ffffff;"/>
    <path clip-path="url(#pfe92179a74)" d="M 200.540048 272.792842 
L 207.346716 273.594835 
L 209.548263 271.73989 
L 207.346716 267.102526 
L 200.540048 269.633985 
L 198.540529 271.73989 
z
" style="fill:#ffffff;"/>
   </g>
   <g id="PathCollection_3">
    <path clip-path="url(#pfe92179a74)" d="M 71.071303 293.246356 
L 71.107846 286.077534 
L 71.213338 285.633113 
L 76.417623 286.077534 
L 75.616432 293.246356 
L 78.020007 294.258939 
L 79.221794 293.246356 
L 84.826676 287.343263 
L 91.633345 288.116157 
L 94.536799 286.077534 
L 91.633345 283.631186 
L 84.826676 284.389895 
L 78.020007 284.811804 
L 77.430019 278.908712 
L 78.020007 275.535516 
L 82.224533 271.73989 
L 84.826676 267.629002 
L 86.762312 264.571067 
L 91.536573 257.402245 
L 91.633345 257.200621 
L 98.440014 251.246007 
L 99.641801 250.233423 
L 105.246683 244.330331 
L 106.208113 243.064601 
L 112.053351 240.865944 
L 118.86002 241.525541 
L 125.666689 241.588828 
L 130.75417 235.895779 
L 132.473358 234.664531 
L 138.601207 228.726957 
L 139.280027 228.069215 
L 146.086696 222.823864 
L 147.048126 221.558135 
L 152.893365 217.160822 
L 155.524863 214.389313 
L 159.700034 212.679246 
L 165.530899 207.220491 
L 166.506703 206.633221 
L 173.313372 203.285096 
L 175.94487 200.051669 
L 180.120041 196.631536 
L 186.92671 193.89543 
L 188.529093 192.882846 
L 193.733379 191.055785 
L 200.540048 189.9313 
L 205.879019 185.714024 
L 207.346716 185.168452 
L 214.153385 182.973433 
L 220.460175 178.545202 
L 220.960054 178.439907 
L 227.347381 171.37638 
L 227.766723 171.170275 
L 234.573392 165.220142 
L 235.534822 164.207558 
L 240.255977 157.038736 
L 234.573392 151.053806 
L 227.766723 150.802677 
L 226.43826 149.869914 
L 227.766723 144.739715 
L 229.70236 142.701092 
L 234.318625 135.53227 
L 234.573392 135.409289 
L 241.22863 128.363448 
L 240.297609 121.194625 
L 234.573392 115.165848 
L 227.766723 114.356784 
L 220.960054 114.336725 
L 214.153385 114.313478 
L 207.346716 114.040907 
L 200.540048 114.071609 
L 193.733379 114.653991 
L 187.523163 121.194625 
L 186.92671 121.389443 
L 180.305017 128.363448 
L 180.120041 128.493876 
L 173.313372 131.441567 
L 169.429322 135.53227 
L 166.506703 136.04529 
L 160.080026 142.701092 
L 159.700034 143.011781 
L 152.893365 148.85733 
L 151.290982 149.869914 
L 146.086696 152.610505 
L 139.280027 154.267227 
L 135.59593 157.038736 
L 133.139865 164.207558 
L 132.473358 165.26051 
L 131.473599 164.207558 
L 125.666689 161.76121 
L 122.763235 164.207558 
L 125.666689 168.284805 
L 128.602085 171.37638 
L 125.666689 172.922168 
L 120.327718 178.545202 
L 118.86002 183.182566 
L 114.05287 185.714024 
L 112.053351 186.766977 
L 106.246442 192.882846 
L 105.246683 193.074292 
L 98.440014 195.974422 
L 95.536559 200.051669 
L 91.633345 200.917118 
L 85.315908 207.220491 
L 84.826676 208.063648 
L 79.321078 214.389313 
L 78.020007 219.870496 
L 77.058577 221.558135 
L 73.461507 228.726957 
L 71.279988 235.895779 
L 71.213338 236.027398 
L 65.586644 243.064601 
L 64.549492 250.233423 
L 64.406669 250.408915 
L 64.406669 255.539114 
L 68.724662 250.233423 
L 68.663086 243.064601 
L 71.213338 239.875047 
L 73.228401 235.895779 
L 77.957844 228.726957 
L 78.020007 228.620568 
L 80.84344 221.558135 
L 84.192111 214.389313 
L 84.826676 213.660228 
L 88.563263 207.220491 
L 91.633345 204.157244 
L 98.440014 201.87873 
L 103.644299 200.051669 
L 105.246683 198.670873 
L 112.053351 193.491867 
L 112.624554 192.882846 
L 118.86002 186.394741 
L 119.413064 185.714024 
L 125.666689 178.844387 
L 125.913592 178.545202 
L 132.473358 171.824841 
L 132.899163 171.37638 
L 139.280027 164.594364 
L 139.61643 164.207558 
L 146.086696 157.335287 
L 146.397212 157.038736 
L 152.893365 150.383545 
L 153.638438 149.869914 
L 159.700034 143.821812 
L 161.070744 142.701092 
L 166.506703 137.071329 
L 173.313372 135.616577 
L 173.40015 135.53227 
L 180.120041 128.754734 
L 180.674969 128.363448 
L 186.92671 121.779079 
L 188.716069 121.194625 
L 193.733379 115.910366 
L 200.540048 114.163219 
L 207.346716 114.071114 
L 214.153385 114.888827 
L 220.960054 114.958567 
L 227.766723 115.018745 
L 234.573392 117.445936 
L 238.132706 121.194625 
L 240.925768 128.363448 
L 234.573392 135.088651 
L 233.654393 135.53227 
L 227.766723 142.106747 
L 226.944994 142.701092 
L 223.781333 149.869914 
L 227.766723 152.668204 
L 234.573392 153.42159 
L 238.007808 157.038736 
L 234.573392 161.517107 
L 233.325829 164.207558 
L 227.766723 169.802222 
L 224.563934 171.37638 
L 220.960054 175.361788 
L 214.153385 177.087161 
L 211.384616 178.545202 
L 207.346716 181.547135 
L 200.540048 183.573703 
L 193.733379 184.7507 
L 191.172334 185.714024 
L 186.92671 187.746531 
L 180.120041 191.769879 
L 178.862014 192.882846 
L 173.313372 198.218546 
L 171.572854 200.051669 
L 166.506703 204.434564 
L 161.877625 207.220491 
L 159.700034 209.259114 
L 152.893365 213.218151 
L 151.292089 214.389313 
L 146.086696 219.465562 
L 143.648276 221.558135 
L 139.280027 225.60672 
L 136.059799 228.726957 
L 132.473358 232.202036 
L 127.315794 235.895779 
L 125.666689 237.741179 
L 118.86002 238.447422 
L 112.053351 236.468631 
L 105.246683 238.356312 
L 102.564421 243.064601 
L 98.440014 247.40845 
L 97.220804 250.233423 
L 91.633345 255.862308 
L 90.894239 257.402245 
L 84.826676 264.010492 
L 84.549524 264.571067 
L 78.020007 271.530351 
L 77.896032 271.73989 
L 75.891799 278.908712 
L 71.213338 283.969265 
L 70.712897 286.077534 
L 70.128522 293.246356 
L 64.992421 300.415178 
L 69.488759 300.415178 
z
" style="fill:#f0f0f0;"/>
    <path clip-path="url(#pfe92179a74)" d="M 200.540048 288.523882 
L 203.443502 286.077534 
L 207.346716 283.336942 
L 212.392148 278.908712 
L 214.153385 276.59003 
L 216.354932 278.908712 
L 220.960054 281.68022 
L 227.766723 282.142139 
L 231.450821 278.908712 
L 233.944379 271.73989 
L 230.170298 264.571067 
L 228.728153 257.402245 
L 227.766723 255.714606 
L 222.959573 257.402245 
L 220.960054 258.455198 
L 214.153385 258.948033 
L 207.346716 262.883428 
L 200.540048 262.883428 
L 195.732898 264.571067 
L 193.733379 266.676972 
L 193.333475 264.571067 
L 186.92671 260.822378 
L 180.120041 263.305338 
L 175.312891 264.571067 
L 180.120041 267.102526 
L 186.92671 269.390811 
L 192.130995 271.73989 
L 193.733379 274.271348 
L 196.668775 278.908712 
L 197.636593 286.077534 
z
M 198.540529 271.73989 
L 200.540048 269.633985 
L 207.346716 267.102526 
L 209.548263 271.73989 
L 207.346716 273.594835 
L 200.540048 272.792842 
z
M 224.262375 271.73989 
L 227.766723 269.279356 
L 229.769208 271.73989 
L 227.766723 274.692529 
z
" style="fill:#f0f0f0;"/>
    <path clip-path="url(#pfe92179a74)" d="M 98.440014 280.596351 
L 103.247164 278.908712 
L 98.440014 277.221072 
L 97.238226 278.908712 
z
" style="fill:#f0f0f0;"/>
    <path clip-path="url(#pfe92179a74)" d="M 132.473358 279.921295 
L 137.280508 278.908712 
L 139.280027 278.206743 
L 141.279546 278.908712 
L 146.086696 280.174441 
L 152.893365 280.947335 
L 159.700034 279.921295 
L 164.507184 278.908712 
L 166.506703 276.802807 
L 173.313372 274.271348 
L 175.716947 271.73989 
L 173.313372 266.676972 
L 166.506703 266.676972 
L 161.699553 271.73989 
L 159.700034 273.845794 
L 159.033528 271.73989 
L 152.893365 266.889749 
L 146.753202 271.73989 
L 146.086696 273.845794 
L 145.42019 271.73989 
L 139.280027 267.859777 
L 134.674905 271.73989 
L 132.473358 276.377253 
L 130.069783 278.908712 
z
" style="fill:#f0f0f0;"/>
    <path clip-path="url(#pfe92179a74)" d="M 112.053351 273.427529 
L 118.86002 274.271348 
L 125.666689 275.817136 
L 129.537962 271.73989 
L 125.666689 268.681955 
L 118.86002 269.208431 
L 112.053351 270.727306 
L 110.450968 271.73989 
z
" style="fill:#f0f0f0;"/>
   </g>
   <g id="PathCollection_4">
    <path clip-path="url(#pfe92179a74)" d="M 70.128522 293.246356 
L 70.712897 286.077534 
L 71.213338 283.969265 
L 75.891799 278.908712 
L 77.896032 271.73989 
L 78.020007 271.530351 
L 84.549524 264.571067 
L 84.826676 264.010492 
L 90.894239 257.402245 
L 91.633345 255.862308 
L 97.220804 250.233423 
L 98.440014 247.40845 
L 102.564421 243.064601 
L 105.246683 238.356312 
L 112.053351 236.468631 
L 118.86002 238.447422 
L 125.666689 237.741179 
L 127.315794 235.895779 
L 132.473358 232.202036 
L 136.059799 228.726957 
L 139.280027 225.60672 
L 143.648276 221.558135 
L 146.086696 219.465562 
L 151.292089 214.389313 
L 152.893365 213.218151 
L 159.700034 209.259114 
L 161.877625 207.220491 
L 166.506703 204.434564 
L 171.572854 200.051669 
L 173.313372 198.218546 
L 178.862014 192.882846 
L 180.120041 191.769879 
L 186.92671 187.746531 
L 191.172334 185.714024 
L 193.733379 184.7507 
L 200.540048 183.573703 
L 207.346716 181.547135 
L 211.384616 178.545202 
L 214.153385 177.087161 
L 220.960054 175.361788 
L 224.563934 171.37638 
L 227.766723 169.802222 
L 233.325829 164.207558 
L 234.573392 161.517107 
L 238.007808 157.038736 
L 234.573392 153.42159 
L 227.766723 152.668204 
L 223.781333 149.869914 
L 226.944994 142.701092 
L 227.766723 142.106747 
L 233.654393 135.53227 
L 234.573392 135.088651 
L 240.925768 128.363448 
L 238.132706 121.194625 
L 234.573392 117.445936 
L 227.766723 115.018745 
L 220.960054 114.958567 
L 214.153385 114.888827 
L 207.346716 114.071114 
L 200.540048 114.163219 
L 193.733379 115.910366 
L 188.716069 121.194625 
L 186.92671 121.779079 
L 180.674969 128.363448 
L 180.120041 128.754734 
L 173.40015 135.53227 
L 173.313372 135.616577 
L 166.506703 137.071329 
L 161.070744 142.701092 
L 159.700034 143.821812 
L 153.638438 149.869914 
L 152.893365 150.383545 
L 146.397212 157.038736 
L 146.086696 157.335287 
L 139.61643 164.207558 
L 139.280027 164.594364 
L 132.899163 171.37638 
L 132.473358 171.824841 
L 125.913592 178.545202 
L 125.666689 178.844387 
L 119.413064 185.714024 
L 118.86002 186.394741 
L 112.624554 192.882846 
L 112.053351 193.491867 
L 105.246683 198.670873 
L 103.644299 200.051669 
L 98.440014 201.87873 
L 91.633345 204.157244 
L 88.563263 207.220491 
L 84.826676 213.660228 
L 84.192111 214.389313 
L 80.84344 221.558135 
L 78.020007 228.620568 
L 77.957844 228.726957 
L 73.228401 235.895779 
L 71.213338 239.875047 
L 68.663086 243.064601 
L 68.724662 250.233423 
L 64.406669 255.539114 
L 64.406669 257.402245 
L 64.406669 259.035779 
L 64.76807 257.402245 
L 71.213338 250.479633 
L 71.403749 250.233423 
L 71.525763 243.064601 
L 75.176814 235.895779 
L 78.020007 231.61797 
L 79.461114 228.726957 
L 83.919882 221.558135 
L 84.826676 219.743558 
L 87.368556 214.389313 
L 91.633345 207.479006 
L 91.899255 207.220491 
L 98.440014 204.158818 
L 105.246683 200.943469 
L 105.858223 200.051669 
L 112.053351 194.251896 
L 113.337388 192.882846 
L 118.86002 187.136456 
L 120.015666 185.714024 
L 125.666689 179.506348 
L 126.459876 178.545202 
L 132.473358 172.384499 
L 133.430549 171.37638 
L 139.280027 165.159156 
L 140.107626 164.207558 
L 146.086696 157.857002 
L 146.943496 157.038736 
L 152.893365 150.943203 
L 154.450277 149.869914 
L 159.700034 144.631844 
L 162.061463 142.701092 
L 166.506703 138.097369 
L 173.313372 135.867852 
L 173.658789 135.53227 
L 180.120041 129.015592 
L 181.04492 128.363448 
L 186.92671 122.168714 
L 189.908974 121.194625 
L 193.733379 117.166741 
L 200.540048 114.25483 
L 207.346716 114.101322 
L 214.153385 115.464177 
L 220.960054 115.580409 
L 227.766723 115.680706 
L 234.573392 119.726024 
L 235.967803 121.194625 
L 240.622906 128.363448 
L 234.573392 134.768014 
L 232.990161 135.53227 
L 227.766723 141.365031 
L 225.919513 142.701092 
L 221.124406 149.869914 
L 227.766723 154.533731 
L 234.573392 155.789374 
L 235.759639 157.038736 
L 234.573392 158.585565 
L 231.966471 164.207558 
L 227.766723 168.434169 
L 221.780487 171.37638 
L 220.960054 172.283668 
L 214.153385 174.522061 
L 207.346716 176.790282 
L 202.347919 178.545202 
L 200.540048 178.838135 
L 193.733379 180.353387 
L 186.92671 184.009467 
L 184.858695 185.714024 
L 180.120041 189.307384 
L 176.078567 192.882846 
L 173.313372 195.54192 
L 169.031446 200.051669 
L 166.506703 202.235908 
L 159.700034 205.444264 
L 158.755597 207.220491 
L 152.893365 211.508085 
L 148.953993 214.389313 
L 146.086696 217.185474 
L 140.991349 221.558135 
L 139.280027 223.144224 
L 133.518391 228.726957 
L 132.473358 229.73954 
L 125.666689 234.209674 
L 118.86002 235.519725 
L 112.053351 234.522896 
L 105.246683 235.730645 
L 105.090695 235.895779 
L 99.641801 243.064601 
L 98.440014 244.330331 
L 95.89234 250.233423 
L 91.633345 254.523995 
L 90.251905 257.402245 
L 84.826676 263.310919 
L 84.203652 264.571067 
L 78.020007 271.161714 
L 77.677926 271.73989 
L 74.353578 278.908712 
L 71.213338 282.305417 
L 70.317948 286.077534 
L 69.185742 293.246356 
L 64.406669 299.365326 
L 64.406669 300.415178 
L 64.992421 300.415178 
z
" style="fill:#d3d3d3;"/>
    <path clip-path="url(#pfe92179a74)" d="M 227.766723 274.692529 
L 229.769208 271.73989 
L 227.766723 269.279356 
L 224.262375 271.73989 
z
" style="fill:#d3d3d3;"/>
   </g>
   <g id="PathCollection_5">
    <path clip-path="url(#pfe92179a74)" d="M 69.185742 293.246356 
L 70.317948 286.077534 
L 71.213338 282.305417 
L 74.353578 278.908712 
L 77.677926 271.73989 
L 78.020007 271.161714 
L 84.203652 264.571067 
L 84.826676 263.310919 
L 90.251905 257.402245 
L 91.633345 254.523995 
L 95.89234 250.233423 
L 98.440014 244.330331 
L 99.641801 243.064601 
L 105.090695 235.895779 
L 105.246683 235.730645 
L 112.053351 234.522896 
L 118.86002 235.519725 
L 125.666689 234.209674 
L 132.473358 229.73954 
L 133.518391 228.726957 
L 139.280027 223.144224 
L 140.991349 221.558135 
L 146.086696 217.185474 
L 148.953993 214.389313 
L 152.893365 211.508085 
L 158.755597 207.220491 
L 159.700034 205.444264 
L 166.506703 202.235908 
L 169.031446 200.051669 
L 173.313372 195.54192 
L 176.078567 192.882846 
L 180.120041 189.307384 
L 184.858695 185.714024 
L 186.92671 184.009467 
L 193.733379 180.353387 
L 200.540048 178.838135 
L 202.347919 178.545202 
L 207.346716 176.790282 
L 214.153385 174.522061 
L 220.960054 172.283668 
L 221.780487 171.37638 
L 227.766723 168.434169 
L 231.966471 164.207558 
L 234.573392 158.585565 
L 235.759639 157.038736 
L 234.573392 155.789374 
L 227.766723 154.533731 
L 221.124406 149.869914 
L 225.919513 142.701092 
L 227.766723 141.365031 
L 232.990161 135.53227 
L 234.573392 134.768014 
L 240.622906 128.363448 
L 235.967803 121.194625 
L 234.573392 119.726024 
L 227.766723 115.680706 
L 220.960054 115.580409 
L 214.153385 115.464177 
L 207.346716 114.101322 
L 200.540048 114.25483 
L 193.733379 117.166741 
L 189.908974 121.194625 
L 186.92671 122.168714 
L 181.04492 128.363448 
L 180.120041 129.015592 
L 173.658789 135.53227 
L 173.313372 135.867852 
L 166.506703 138.097369 
L 162.061463 142.701092 
L 159.700034 144.631844 
L 154.450277 149.869914 
L 152.893365 150.943203 
L 146.943496 157.038736 
L 146.086696 157.857002 
L 140.107626 164.207558 
L 139.280027 165.159156 
L 133.430549 171.37638 
L 132.473358 172.384499 
L 126.459876 178.545202 
L 125.666689 179.506348 
L 120.015666 185.714024 
L 118.86002 187.136456 
L 113.337388 192.882846 
L 112.053351 194.251896 
L 105.858223 200.051669 
L 105.246683 200.943469 
L 98.440014 204.158818 
L 91.899255 207.220491 
L 91.633345 207.479006 
L 87.368556 214.389313 
L 84.826676 219.743558 
L 83.919882 221.558135 
L 79.461114 228.726957 
L 78.020007 231.61797 
L 75.176814 235.895779 
L 71.525763 243.064601 
L 71.403749 250.233423 
L 71.213338 250.479633 
L 64.76807 257.402245 
L 64.406669 259.035779 
L 64.406669 263.139938 
L 65.676068 257.402245 
L 71.213338 251.454879 
L 72.157973 250.233423 
L 74.448382 243.064601 
L 78.020007 236.377214 
L 78.14857 235.895779 
L 81.799209 228.726957 
L 84.826676 224.328964 
L 86.485257 221.558135 
L 91.633345 214.63003 
L 91.824695 214.389313 
L 98.440014 207.580369 
L 98.882211 207.220491 
L 105.246683 202.837696 
L 107.157165 200.051669 
L 112.053351 195.467943 
L 114.477922 192.882846 
L 118.86002 188.323201 
L 120.979829 185.714024 
L 125.666689 180.565486 
L 127.33393 178.545202 
L 132.473358 173.279952 
L 134.280765 171.37638 
L 139.280027 166.062824 
L 140.893541 164.207558 
L 146.086696 158.691746 
L 147.817551 157.038736 
L 152.893365 151.838656 
L 155.749219 149.869914 
L 159.700034 145.927894 
L 163.646612 142.701092 
L 166.506703 139.739033 
L 173.313372 136.269892 
L 174.072611 135.53227 
L 180.120041 129.432964 
L 181.636843 128.363448 
L 186.92671 122.79213 
L 191.817624 121.194625 
L 193.733379 119.176942 
L 200.540048 114.401407 
L 207.346716 114.149653 
L 214.153385 116.384736 
L 220.960054 116.575357 
L 227.766723 116.739844 
L 233.726805 121.194625 
L 234.573392 121.549129 
L 240.138326 128.363448 
L 234.573392 134.254994 
L 231.927391 135.53227 
L 227.766723 140.178286 
L 224.278745 142.701092 
L 220.960054 147.56036 
L 218.819386 149.869914 
L 214.153385 155.029885 
L 211.692265 157.038736 
L 207.346716 161.93113 
L 204.935893 164.207558 
L 200.540048 168.665816 
L 198.058331 171.37638 
L 193.733379 175.931444 
L 188.769945 178.545202 
L 186.92671 179.726867 
L 180.120041 181.381109 
L 173.313372 181.880112 
L 170.583198 185.714024 
L 166.506703 189.530369 
L 162.925696 192.882846 
L 159.700034 196.765458 
L 154.239686 200.051669 
L 155.014644 207.220491 
L 152.893365 208.771979 
L 146.086696 211.833371 
L 141.718418 214.389313 
L 139.280027 215.673376 
L 132.473358 221.059132 
L 131.051975 221.558135 
L 126.156261 228.726957 
L 125.666689 229.025473 
L 118.86002 232.001874 
L 112.053351 231.997259 
L 105.246683 235.222914 
L 104.611085 235.895779 
L 98.440014 242.673236 
L 98.132544 243.064601 
L 93.766799 250.233423 
L 91.633345 252.382695 
L 89.224171 257.402245 
L 84.826676 262.191603 
L 83.650257 264.571067 
L 78.020007 270.571894 
L 77.328957 271.73989 
L 71.892425 278.908712 
L 71.213338 279.64326 
L 69.686031 286.077534 
L 67.677293 293.246356 
L 64.406669 297.433957 
L 64.406669 299.365326 
z
M 223.184338 164.207558 
L 227.766723 158.09438 
L 229.791498 164.207558 
L 227.766723 166.245284 
z
" style="fill:#b8b8b8;"/>
    <path clip-path="url(#pfe92179a74)" d="M 125.666689 219.66753 
L 128.673634 214.389313 
L 125.666689 214.285137 
L 125.567777 214.389313 
z
" style="fill:#b8b8b8;"/>
    <path clip-path="url(#pfe92179a74)" d="M 132.473358 211.888131 
L 138.38248 207.220491 
L 132.473358 206.973198 
L 132.244618 207.220491 
z
" style="fill:#b8b8b8;"/>
    <path clip-path="url(#pfe92179a74)" d="M 139.280027 206.511514 
L 143.369033 200.051669 
L 139.280027 199.722504 
L 138.959321 200.051669 
z
" style="fill:#b8b8b8;"/>
    <path clip-path="url(#pfe92179a74)" d="M 146.086696 197.761862 
L 152.403794 192.882846 
L 146.086696 192.487251 
L 145.652396 192.882846 
z
" style="fill:#b8b8b8;"/>
    <path clip-path="url(#pfe92179a74)" d="M 152.893365 191.937544 
L 159.700034 188.353133 
L 161.847851 185.714024 
L 164.982709 178.545202 
L 159.700034 178.390654 
L 159.517084 178.545202 
L 152.893365 185.551672 
L 152.696394 185.714024 
z
" style="fill:#b8b8b8;"/>
    <path clip-path="url(#pfe92179a74)" d="M 166.506703 175.977075 
L 168.18681 171.37638 
L 166.506703 171.313529 
L 166.430066 171.37638 
z
" style="fill:#b8b8b8;"/>
   </g>
   <g id="PathCollection_6">
    <path clip-path="url(#pfe92179a74)" d="M 67.677293 293.246356 
L 69.686031 286.077534 
L 71.213338 279.64326 
L 71.892425 278.908712 
L 77.328957 271.73989 
L 78.020007 270.571894 
L 83.650257 264.571067 
L 84.826676 262.191603 
L 89.224171 257.402245 
L 91.633345 252.382695 
L 93.766799 250.233423 
L 98.132544 243.064601 
L 98.440014 242.673236 
L 104.611085 235.895779 
L 105.246683 235.222914 
L 112.053351 231.997259 
L 118.86002 232.001874 
L 125.666689 229.025473 
L 126.156261 228.726957 
L 131.051975 221.558135 
L 132.473358 221.059132 
L 139.280027 215.673376 
L 141.718418 214.389313 
L 146.086696 211.833371 
L 152.893365 208.771979 
L 155.014644 207.220491 
L 154.239686 200.051669 
L 159.700034 196.765458 
L 162.925696 192.882846 
L 166.506703 189.530369 
L 170.583198 185.714024 
L 173.313372 181.880112 
L 180.120041 181.381109 
L 186.92671 179.726867 
L 188.769945 178.545202 
L 193.733379 175.931444 
L 198.058331 171.37638 
L 200.540048 168.665816 
L 204.935893 164.207558 
L 207.346716 161.93113 
L 211.692265 157.038736 
L 214.153385 155.029885 
L 218.819386 149.869914 
L 220.960054 147.56036 
L 224.278745 142.701092 
L 227.766723 140.178286 
L 231.927391 135.53227 
L 234.573392 134.254994 
L 240.138326 128.363448 
L 234.573392 121.549129 
L 233.726805 121.194625 
L 227.766723 116.739844 
L 220.960054 116.575357 
L 214.153385 116.384736 
L 207.346716 114.149653 
L 200.540048 114.401407 
L 193.733379 119.176942 
L 191.817624 121.194625 
L 186.92671 122.79213 
L 181.636843 128.363448 
L 180.120041 129.432964 
L 174.072611 135.53227 
L 173.313372 136.269892 
L 166.506703 139.739033 
L 163.646612 142.701092 
L 159.700034 145.927894 
L 155.749219 149.869914 
L 152.893365 151.838656 
L 147.817551 157.038736 
L 146.086696 158.691746 
L 140.893541 164.207558 
L 139.280027 166.062824 
L 134.280765 171.37638 
L 132.473358 173.279952 
L 127.33393 178.545202 
L 125.666689 180.565486 
L 120.979829 185.714024 
L 118.86002 188.323201 
L 114.477922 192.882846 
L 112.053351 195.467943 
L 107.157165 200.051669 
L 105.246683 202.837696 
L 98.882211 207.220491 
L 98.440014 207.580369 
L 91.824695 214.389313 
L 91.633345 214.63003 
L 86.485257 221.558135 
L 84.826676 224.328964 
L 81.799209 228.726957 
L 78.14857 235.895779 
L 78.020007 236.377214 
L 74.448382 243.064601 
L 72.157973 250.233423 
L 71.213338 251.454879 
L 65.676068 257.402245 
L 64.406669 263.139938 
L 64.406669 264.571067 
L 64.406669 271.73989 
L 64.406669 278.908712 
L 64.406669 286.077534 
L 64.406669 293.246356 
L 64.406669 297.433957 
z
M 125.567777 214.389313 
L 125.666689 214.285137 
L 128.673634 214.389313 
L 125.666689 219.66753 
z
M 132.244618 207.220491 
L 132.473358 206.973198 
L 138.38248 207.220491 
L 132.473358 211.888131 
z
M 138.959321 200.051669 
L 139.280027 199.722504 
L 143.369033 200.051669 
L 139.280027 206.511514 
z
M 145.652396 192.882846 
L 146.086696 192.487251 
L 152.403794 192.882846 
L 146.086696 197.761862 
z
M 152.696394 185.714024 
L 152.893365 185.551672 
L 159.517084 178.545202 
L 159.700034 178.390654 
L 164.982709 178.545202 
L 161.847851 185.714024 
L 159.700034 188.353133 
L 152.893365 191.937544 
z
M 166.430066 171.37638 
L 166.506703 171.313529 
L 168.18681 171.37638 
L 166.506703 175.977075 
z
" style="fill:#a0a0a0;"/>
    <path clip-path="url(#pfe92179a74)" d="M 227.766723 166.245284 
L 229.791498 164.207558 
L 227.766723 158.09438 
L 223.184338 164.207558 
z
" style="fill:#a0a0a0;"/>
   </g>
   <g id="PathCollection_7">
    <path clip-path="url(#pfe92179a74)" d="M 67.214498 307.584 
L 70.419331 307.584 
L 73.624164 307.584 
L 76.828997 307.584 
L 80.033829 307.584 
L 83.238662 307.584 
L 86.443495 307.584 
L 89.648328 307.584 
L 92.853161 307.584 
L 96.057993 307.584 
L 99.262826 307.584 
L 102.467659 307.584 
L 105.672492 307.584 
L 108.877324 307.584 
L 112.082157 307.584 
L 115.28699 307.584 
L 118.491823 307.584 
L 121.696656 307.584 
L 124.901488 307.584 
L 128.106321 307.584 
L 128.446984 307.584 
L 129.622506 306.610918 
L 130.493917 305.637835 
L 130.902179 304.664753 
L 130.855593 303.69167 
L 130.549353 302.718588 
L 129.860407 301.745505 
L 128.869891 300.772423 
L 128.106321 300.168194 
L 127.554436 299.79934 
L 125.841548 298.826258 
L 124.901488 298.428197 
L 123.742288 297.853175 
L 121.696656 296.921251 
L 121.604798 296.880093 
L 119.395632 295.90701 
L 118.491823 295.552399 
L 116.798554 294.933928 
L 115.28699 294.457269 
L 113.648699 293.960846 
L 112.082157 293.453302 
L 110.62036 292.987763 
L 108.877324 292.366269 
L 107.814657 292.014681 
L 105.672492 291.361777 
L 104.249995 291.041598 
L 102.467659 290.644963 
L 100.239359 290.068516 
L 99.262826 289.788231 
L 96.057993 289.196958 
L 95.443239 289.095433 
L 92.853161 288.70078 
L 89.648328 288.298288 
L 87.449387 288.122351 
L 86.443495 288.04575 
L 83.238662 287.932157 
L 80.033829 287.94072 
L 76.828997 288.075055 
L 76.051607 288.122351 
L 73.624164 288.277046 
L 70.419331 288.624822 
L 70.013155 289.095433 
L 69.275449 290.068516 
L 68.50323 291.041598 
L 67.79069 292.014681 
L 67.214498 292.908767 
L 67.201852 292.987763 
L 67.027668 293.960846 
L 66.851609 294.933928 
L 66.706997 295.90701 
L 66.582429 296.880093 
L 66.465308 297.853175 
L 66.359847 298.826258 
L 66.283271 299.79934 
L 66.219318 300.772423 
L 66.168363 301.745505 
L 66.132922 302.718588 
L 66.117168 303.69167 
L 66.114771 304.664753 
L 66.135773 305.637835 
L 66.180601 306.610918 
L 66.241073 307.584 
z
" style="fill:#4d94ff;fill-opacity:0.2;"/>
   </g>
   <g id="PathCollection_8">
    <path clip-path="url(#pfe92179a74)" d="M 72.868877 307.584 
L 75.922652 307.584 
L 78.976428 307.584 
L 82.030203 307.584 
L 85.083979 307.584 
L 88.137754 307.584 
L 91.191529 307.584 
L 94.245305 307.584 
L 97.29908 307.584 
L 100.352855 307.584 
L 103.406631 307.584 
L 106.460406 307.584 
L 109.514182 307.584 
L 112.567957 307.584 
L 115.621732 307.584 
L 118.675508 307.584 
L 121.729283 307.584 
L 124.783059 307.584 
L 127.836834 307.584 
L 130.890609 307.584 
L 133.944385 307.584 
L 136.99816 307.584 
L 140.051936 307.584 
L 143.105711 307.584 
L 146.159486 307.584 
L 149.213262 307.584 
L 152.267037 307.584 
L 155.320813 307.584 
L 156.857978 307.584 
L 158.374588 306.714557 
L 160.363327 305.612872 
L 161.428363 305.02939 
L 163.623974 303.641744 
L 164.482139 303.026035 
L 166.263088 301.670615 
L 167.535914 300.645757 
L 168.694557 299.699487 
L 170.589689 298.053753 
L 170.937048 297.728359 
L 172.386028 295.757231 
L 173.643465 294.459103 
L 174.182119 293.786102 
L 175.848373 291.814974 
L 176.69724 290.586625 
L 177.210764 289.843846 
L 178.383835 287.872718 
L 179.420831 285.901589 
L 179.751016 284.667464 
L 179.927601 283.930461 
L 180.22891 281.959333 
L 180.22891 279.988205 
L 179.751016 278.108225 
L 179.725126 278.017077 
L 179.177378 276.045948 
L 178.3112 274.07482 
L 177.40341 272.103692 
L 176.69724 270.616722 
L 176.469281 270.132564 
L 175.46258 268.161435 
L 174.109532 266.190307 
L 173.643465 265.609571 
L 172.292899 264.219179 
L 170.589689 262.789483 
L 169.891298 262.248051 
L 167.535914 260.54261 
L 167.162104 260.276923 
L 164.482139 258.323389 
L 164.456494 258.305794 
L 161.428363 256.93383 
L 159.878037 256.334666 
L 158.374588 255.678361 
L 155.432316 254.363538 
L 155.320813 254.329092 
L 152.267037 253.535505 
L 149.213262 252.812653 
L 147.390878 252.39241 
L 146.159486 252.116587 
L 143.105711 251.445287 
L 140.051936 250.877681 
L 137.703943 250.421281 
L 136.99816 250.298773 
L 133.944385 249.837537 
L 130.890609 249.414928 
L 127.836834 248.979441 
L 124.783059 248.474554 
L 124.571451 248.450153 
L 121.729283 248.106777 
L 118.675508 247.567499 
L 115.621732 247.226717 
L 112.567957 247.024531 
L 109.514182 246.889963 
L 106.460406 246.889963 
L 103.406631 247.110979 
L 100.352855 247.367997 
L 97.29908 247.720139 
L 94.245305 248.182319 
L 92.785078 248.450153 
L 91.191529 248.731768 
L 88.137754 249.499134 
L 85.083979 250.186121 
L 84.220093 250.421281 
L 82.030203 251.098595 
L 78.976428 252.231939 
L 78.547862 252.39241 
L 75.922652 253.423577 
L 73.492434 254.363538 
L 72.868877 254.715581 
L 70.520423 256.334666 
L 69.815102 256.773898 
L 69.341752 258.305794 
L 68.955613 260.276923 
L 68.572367 262.248051 
L 68.225231 264.219179 
L 67.947333 266.190307 
L 67.714507 268.161435 
L 67.541279 270.132564 
L 67.383697 272.103692 
L 67.231548 274.07482 
L 67.086373 276.045948 
L 66.994569 278.017077 
L 66.90172 279.988205 
L 66.90172 281.959333 
L 66.957524 283.930461 
L 67.04557 285.901589 
L 67.219374 287.872718 
L 67.415985 289.843846 
L 67.648122 291.814974 
L 67.934842 293.786102 
L 68.211599 295.757231 
L 68.423705 297.728359 
L 68.739977 299.699487 
L 69.083948 301.670615 
L 69.457771 303.641744 
L 69.815102 305.254889 
L 70.220624 305.612872 
L 72.457761 307.584 
z
" style="fill:#ff8533;fill-opacity:0.2;"/>
   </g>
   <g id="PathCollection_9">
    <path clip-path="url(#pfe92179a74)" d="M 63.245493 307.584 
L 66.068239 307.584 
L 68.890986 307.584 
L 71.713732 307.584 
L 74.536479 307.584 
L 77.359225 307.584 
L 80.181972 307.584 
L 83.004718 307.584 
L 85.827464 307.584 
L 88.650211 307.584 
L 91.472957 307.584 
L 94.295704 307.584 
L 97.11845 307.584 
L 99.941197 307.584 
L 102.763943 307.584 
L 105.58669 307.584 
L 108.409436 307.584 
L 111.232182 307.584 
L 114.054929 307.584 
L 116.877675 307.584 
L 119.700422 307.584 
L 122.523168 307.584 
L 125.345915 307.584 
L 128.168661 307.584 
L 130.991408 307.584 
L 133.814154 307.584 
L 136.6369 307.584 
L 139.459647 307.584 
L 142.282393 307.584 
L 145.10514 307.584 
L 147.927886 307.584 
L 150.750633 307.584 
L 153.573379 307.584 
L 156.396126 307.584 
L 159.218872 307.584 
L 162.041619 307.584 
L 164.864365 307.584 
L 165.840634 307.584 
L 166.699574 306.496517 
L 166.849691 305.409034 
L 166.353754 304.321551 
L 165.527599 303.234068 
L 164.864365 302.745929 
L 163.920018 302.146585 
L 162.041619 301.435544 
L 161.093244 301.059102 
L 159.218872 300.30781 
L 158.382041 299.971619 
L 156.396126 299.325302 
L 154.839534 298.884136 
L 153.573379 298.570232 
L 150.750633 297.989644 
L 149.455432 297.796653 
L 147.927886 297.586201 
L 145.10514 297.086349 
L 142.475936 296.70917 
L 142.282393 296.680008 
L 139.459647 296.344202 
L 136.6369 295.99771 
L 133.814154 295.70602 
L 132.951712 295.621687 
L 130.991408 295.412533 
L 128.168661 295.121078 
L 125.345915 294.816915 
L 122.962564 294.534204 
L 122.523168 294.49241 
L 119.700422 294.252954 
L 116.877675 294.034278 
L 114.054929 293.801907 
L 111.232182 293.582777 
L 109.498916 293.446721 
L 108.409436 293.348546 
L 105.58669 293.11489 
L 102.763943 292.951161 
L 99.941197 292.725521 
L 97.11845 292.550821 
L 94.295704 292.407622 
L 93.315377 292.359239 
L 91.472957 292.249347 
L 88.650211 292.068416 
L 85.827464 291.970852 
L 83.004718 291.917225 
L 80.181972 291.860638 
L 77.359225 291.860638 
L 74.536479 291.925694 
L 71.713732 292.048197 
L 68.890986 292.23126 
L 67.280836 292.359239 
L 66.068239 292.439298 
L 65.344384 293.446721 
L 64.574824 294.534204 
L 64.038787 295.621687 
L 63.522016 296.70917 
L 63.245493 297.312941 
L 63.157199 297.796653 
L 62.98622 298.884136 
L 62.848006 299.971619 
L 62.741879 301.059102 
L 62.639263 302.146585 
L 62.579751 303.234068 
L 62.546974 304.321551 
L 62.527298 305.409034 
L 62.533254 306.496517 
L 62.567331 307.584 
z
" style="fill:#00b300;fill-opacity:0.2;"/>
   </g>
   <g id="PathCollection_10">
    <path clip-path="url(#pfe92179a74)" d="M 72.877623 307.584 
L 80.516434 307.584 
L 88.155246 307.584 
L 95.794057 307.584 
L 103.432868 307.584 
L 111.07168 307.584 
L 118.710491 307.584 
L 126.349302 307.584 
L 133.988114 307.584 
L 141.626925 307.584 
L 149.265737 307.584 
L 156.904548 307.584 
L 164.543359 307.584 
L 172.182171 307.584 
L 179.820982 307.584 
L 187.459793 307.584 
L 195.098605 307.584 
L 202.737416 307.584 
L 210.376228 307.584 
L 218.015039 307.584 
L 225.65385 307.584 
L 233.292662 307.584 
L 240.931473 307.584 
L 248.570284 307.584 
L 256.209096 307.584 
L 263.847907 307.584 
L 271.486719 307.584 
L 279.12553 307.584 
L 286.764341 307.584 
L 294.403153 307.584 
L 302.041964 307.584 
L 309.680775 307.584 
L 317.319587 307.584 
L 324.958398 307.584 
L 332.59721 307.584 
L 340.236021 307.584 
L 347.874832 307.584 
L 355.513644 307.584 
L 363.152455 307.584 
L 370.791266 307.584 
L 378.430078 307.584 
L 386.068889 307.584 
L 393.707701 307.584 
L 401.346512 307.584 
L 408.985323 307.584 
L 416.624135 307.584 
L 424.262946 307.584 
L 431.901757 307.584 
L 431.901757 306.330834 
L 431.901757 305.077667 
L 431.901757 303.824501 
L 431.901757 302.571334 
L 431.901757 301.318168 
L 431.901757 300.065001 
L 431.901757 298.811835 
L 431.901757 297.558668 
L 431.901757 296.571457 
L 424.262946 296.571457 
L 416.624135 296.571457 
L 408.985323 296.571457 
L 401.346512 296.571457 
L 393.707701 296.571457 
L 386.068889 296.571457 
L 378.430078 296.571457 
L 370.791266 296.571457 
L 363.152455 296.571457 
L 355.513644 296.571457 
L 347.874832 296.571457 
L 340.236021 296.571457 
L 332.59721 296.571457 
L 324.958398 296.571457 
L 317.319587 296.571457 
L 309.680775 296.571457 
L 302.041964 296.571457 
L 294.403153 296.571457 
L 286.764341 296.571457 
L 279.12553 296.571457 
L 271.486719 296.571457 
L 263.847907 296.571457 
L 256.209096 296.571457 
L 248.570284 296.571457 
L 240.931473 296.571457 
L 233.292662 296.571457 
L 225.65385 296.571457 
L 218.015039 296.571457 
L 210.376228 296.571457 
L 202.737416 296.571457 
L 195.098605 296.571457 
L 193.354799 296.305502 
L 187.459793 295.461234 
L 185.019139 295.052336 
L 179.820982 294.345801 
L 175.022375 293.799169 
L 172.182171 293.444078 
L 164.543359 292.753435 
L 161.302032 292.546003 
L 156.904548 292.232384 
L 149.265737 291.93146 
L 141.626925 291.784524 
L 133.988114 291.753523 
L 126.349302 291.869148 
L 118.710491 292.146934 
L 111.07168 292.457228 
L 109.071462 292.546003 
L 103.432868 292.767359 
L 95.794057 293.168863 
L 88.155246 293.684978 
L 86.379366 293.799169 
L 80.516434 294.130865 
L 72.877623 294.493684 
L 72.450094 295.052336 
L 71.703919 296.305502 
L 71.060863 297.558668 
L 70.389587 298.811835 
L 69.960844 300.065001 
L 69.609916 301.318168 
L 69.297774 302.571334 
L 69.108481 303.824501 
L 69.025115 305.077667 
L 69.023924 306.330834 
L 69.096835 307.584 
z
" style="fill:#ffff33;fill-opacity:0.2;"/>
   </g>
   <g id="matplotlib.axis_1">
    <g id="xtick_1">
     <g id="line2d_1">
      <defs>
       <path d="M 0 0 
L 0 3.5 
" id="mb6ab82a14e" style="stroke:#000000;stroke-width:0.8;"/>
      </defs>
      <g>
       <use style="stroke:#000000;stroke-width:0.8;" x="57.6" xlink:href="#mb6ab82a14e" y="307.584"/>
      </g>
     </g>
     <g id="text_1">
      <!-- 0.00 -->
      <defs>
       <path d="M 31.78125 66.40625 
Q 24.171875 66.40625 20.328125 58.90625 
Q 16.5 51.421875 16.5 36.375 
Q 16.5 21.390625 20.328125 13.890625 
Q 24.171875 6.390625 31.78125 6.390625 
Q 39.453125 6.390625 43.28125 13.890625 
Q 47.125 21.390625 47.125 36.375 
Q 47.125 51.421875 43.28125 58.90625 
Q 39.453125 66.40625 31.78125 66.40625 
z
M 31.78125 74.21875 
Q 44.046875 74.21875 50.515625 64.515625 
Q 56.984375 54.828125 56.984375 36.375 
Q 56.984375 17.96875 50.515625 8.265625 
Q 44.046875 -1.421875 31.78125 -1.421875 
Q 19.53125 -1.421875 13.0625 8.265625 
Q 6.59375 17.96875 6.59375 36.375 
Q 6.59375 54.828125 13.0625 64.515625 
Q 19.53125 74.21875 31.78125 74.21875 
z
" id="DejaVuSans-48"/>
       <path d="M 10.6875 12.40625 
L 21 12.40625 
L 21 0 
L 10.6875 0 
z
" id="DejaVuSans-46"/>
      </defs>
      <g transform="translate(37.560938 328.261187)scale(0.18 -0.18)">
       <use xlink:href="#DejaVuSans-48"/>
       <use x="63.623047" xlink:href="#DejaVuSans-46"/>
       <use x="95.410156" xlink:href="#DejaVuSans-48"/>
       <use x="159.033203" xlink:href="#DejaVuSans-48"/>
      </g>
     </g>
    </g>
    <g id="xtick_2">
     <g id="line2d_2">
      <g>
       <use style="stroke:#000000;stroke-width:0.8;" x="93.312" xlink:href="#mb6ab82a14e" y="307.584"/>
      </g>
     </g>
     <g id="text_2">
      <!-- 0.25 -->
      <defs>
       <path d="M 19.1875 8.296875 
L 53.609375 8.296875 
L 53.609375 0 
L 7.328125 0 
L 7.328125 8.296875 
Q 12.9375 14.109375 22.625 23.890625 
Q 32.328125 33.6875 34.8125 36.53125 
Q 39.546875 41.84375 41.421875 45.53125 
Q 43.3125 49.21875 43.3125 52.78125 
Q 43.3125 58.59375 39.234375 62.25 
Q 35.15625 65.921875 28.609375 65.921875 
Q 23.96875 65.921875 18.8125 64.3125 
Q 13.671875 62.703125 7.8125 59.421875 
L 7.8125 69.390625 
Q 13.765625 71.78125 18.9375 73 
Q 24.125 74.21875 28.421875 74.21875 
Q 39.75 74.21875 46.484375 68.546875 
Q 53.21875 62.890625 53.21875 53.421875 
Q 53.21875 48.921875 51.53125 44.890625 
Q 49.859375 40.875 45.40625 35.40625 
Q 44.1875 33.984375 37.640625 27.21875 
Q 31.109375 20.453125 19.1875 8.296875 
z
" id="DejaVuSans-50"/>
       <path d="M 10.796875 72.90625 
L 49.515625 72.90625 
L 49.515625 64.59375 
L 19.828125 64.59375 
L 19.828125 46.734375 
Q 21.96875 47.46875 24.109375 47.828125 
Q 26.265625 48.1875 28.421875 48.1875 
Q 40.625 48.1875 47.75 41.5 
Q 54.890625 34.8125 54.890625 23.390625 
Q 54.890625 11.625 47.5625 5.09375 
Q 40.234375 -1.421875 26.90625 -1.421875 
Q 22.3125 -1.421875 17.546875 -0.640625 
Q 12.796875 0.140625 7.71875 1.703125 
L 7.71875 11.625 
Q 12.109375 9.234375 16.796875 8.0625 
Q 21.484375 6.890625 26.703125 6.890625 
Q 35.15625 6.890625 40.078125 11.328125 
Q 45.015625 15.765625 45.015625 23.390625 
Q 45.015625 31 40.078125 35.4375 
Q 35.15625 39.890625 26.703125 39.890625 
Q 22.75 39.890625 18.8125 39.015625 
Q 14.890625 38.140625 10.796875 36.28125 
z
" id="DejaVuSans-53"/>
      </defs>
      <g transform="translate(73.272938 328.261187)scale(0.18 -0.18)">
       <use xlink:href="#DejaVuSans-48"/>
       <use x="63.623047" xlink:href="#DejaVuSans-46"/>
       <use x="95.410156" xlink:href="#DejaVuSans-50"/>
       <use x="159.033203" xlink:href="#DejaVuSans-53"/>
      </g>
     </g>
    </g>
    <g id="xtick_3">
     <g id="line2d_3">
      <g>
       <use style="stroke:#000000;stroke-width:0.8;" x="129.024" xlink:href="#mb6ab82a14e" y="307.584"/>
      </g>
     </g>
     <g id="text_3">
      <!-- 0.50 -->
      <g transform="translate(108.984938 328.261187)scale(0.18 -0.18)">
       <use xlink:href="#DejaVuSans-48"/>
       <use x="63.623047" xlink:href="#DejaVuSans-46"/>
       <use x="95.410156" xlink:href="#DejaVuSans-53"/>
       <use x="159.033203" xlink:href="#DejaVuSans-48"/>
      </g>
     </g>
    </g>
    <g id="xtick_4">
     <g id="line2d_4">
      <g>
       <use style="stroke:#000000;stroke-width:0.8;" x="164.736" xlink:href="#mb6ab82a14e" y="307.584"/>
      </g>
     </g>
     <g id="text_4">
      <!-- 0.75 -->
      <defs>
       <path d="M 8.203125 72.90625 
L 55.078125 72.90625 
L 55.078125 68.703125 
L 28.609375 0 
L 18.3125 0 
L 43.21875 64.59375 
L 8.203125 64.59375 
z
" id="DejaVuSans-55"/>
      </defs>
      <g transform="translate(144.696938 328.261187)scale(0.18 -0.18)">
       <use xlink:href="#DejaVuSans-48"/>
       <use x="63.623047" xlink:href="#DejaVuSans-46"/>
       <use x="95.410156" xlink:href="#DejaVuSans-55"/>
       <use x="159.033203" xlink:href="#DejaVuSans-53"/>
      </g>
     </g>
    </g>
    <g id="xtick_5">
     <g id="line2d_5">
      <g>
       <use style="stroke:#000000;stroke-width:0.8;" x="200.448" xlink:href="#mb6ab82a14e" y="307.584"/>
      </g>
     </g>
     <g id="text_5">
      <!-- 1.00 -->
      <defs>
       <path d="M 12.40625 8.296875 
L 28.515625 8.296875 
L 28.515625 63.921875 
L 10.984375 60.40625 
L 10.984375 69.390625 
L 28.421875 72.90625 
L 38.28125 72.90625 
L 38.28125 8.296875 
L 54.390625 8.296875 
L 54.390625 0 
L 12.40625 0 
z
" id="DejaVuSans-49"/>
      </defs>
      <g transform="translate(180.408938 328.261187)scale(0.18 -0.18)">
       <use xlink:href="#DejaVuSans-49"/>
       <use x="63.623047" xlink:href="#DejaVuSans-46"/>
       <use x="95.410156" xlink:href="#DejaVuSans-48"/>
       <use x="159.033203" xlink:href="#DejaVuSans-48"/>
      </g>
     </g>
    </g>
    <g id="xtick_6">
     <g id="line2d_6">
      <g>
       <use style="stroke:#000000;stroke-width:0.8;" x="236.16" xlink:href="#mb6ab82a14e" y="307.584"/>
      </g>
     </g>
     <g id="text_6">
      <!-- 1.25 -->
      <g transform="translate(216.120937 328.261187)scale(0.18 -0.18)">
       <use xlink:href="#DejaVuSans-49"/>
       <use x="63.623047" xlink:href="#DejaVuSans-46"/>
       <use x="95.410156" xlink:href="#DejaVuSans-50"/>
       <use x="159.033203" xlink:href="#DejaVuSans-53"/>
      </g>
     </g>
    </g>
    <g id="xtick_7">
     <g id="line2d_7">
      <g>
       <use style="stroke:#000000;stroke-width:0.8;" x="271.872" xlink:href="#mb6ab82a14e" y="307.584"/>
      </g>
     </g>
     <g id="text_7">
      <!-- 1.50 -->
      <g transform="translate(251.832938 328.261187)scale(0.18 -0.18)">
       <use xlink:href="#DejaVuSans-49"/>
       <use x="63.623047" xlink:href="#DejaVuSans-46"/>
       <use x="95.410156" xlink:href="#DejaVuSans-53"/>
       <use x="159.033203" xlink:href="#DejaVuSans-48"/>
      </g>
     </g>
    </g>
    <g id="xtick_8">
     <g id="line2d_8">
      <g>
       <use style="stroke:#000000;stroke-width:0.8;" x="307.584" xlink:href="#mb6ab82a14e" y="307.584"/>
      </g>
     </g>
     <g id="text_8">
      <!-- 1.75 -->
      <g transform="translate(287.544938 328.261187)scale(0.18 -0.18)">
       <use xlink:href="#DejaVuSans-49"/>
       <use x="63.623047" xlink:href="#DejaVuSans-46"/>
       <use x="95.410156" xlink:href="#DejaVuSans-55"/>
       <use x="159.033203" xlink:href="#DejaVuSans-53"/>
      </g>
     </g>
    </g>
    <g id="xtick_9">
     <g id="line2d_9">
      <g>
       <use style="stroke:#000000;stroke-width:0.8;" x="343.296" xlink:href="#mb6ab82a14e" y="307.584"/>
      </g>
     </g>
     <g id="text_9">
      <!-- 2.00 -->
      <g transform="translate(323.256938 328.261187)scale(0.18 -0.18)">
       <use xlink:href="#DejaVuSans-50"/>
       <use x="63.623047" xlink:href="#DejaVuSans-46"/>
       <use x="95.410156" xlink:href="#DejaVuSans-48"/>
       <use x="159.033203" xlink:href="#DejaVuSans-48"/>
      </g>
     </g>
    </g>
   </g>
   <g id="matplotlib.axis_2">
    <g id="ytick_1">
     <g id="line2d_10">
      <defs>
       <path d="M 0 0 
L -3.5 0 
" id="m123abd9d9b" style="stroke:#000000;stroke-width:0.8;"/>
      </defs>
      <g>
       <use style="stroke:#000000;stroke-width:0.8;" x="57.6" xlink:href="#m123abd9d9b" y="307.584"/>
      </g>
     </g>
     <g id="text_10">
      <!-- 0.0 -->
      <g transform="translate(21.974375 314.422594)scale(0.18 -0.18)">
       <use xlink:href="#DejaVuSans-48"/>
       <use x="63.623047" xlink:href="#DejaVuSans-46"/>
       <use x="95.410156" xlink:href="#DejaVuSans-48"/>
      </g>
     </g>
    </g>
    <g id="ytick_2">
     <g id="line2d_11">
      <g>
       <use style="stroke:#000000;stroke-width:0.8;" x="57.6" xlink:href="#m123abd9d9b" y="275.875109"/>
      </g>
     </g>
     <g id="text_11">
      <!-- 0.5 -->
      <g transform="translate(21.974375 282.713702)scale(0.18 -0.18)">
       <use xlink:href="#DejaVuSans-48"/>
       <use x="63.623047" xlink:href="#DejaVuSans-46"/>
       <use x="95.410156" xlink:href="#DejaVuSans-53"/>
      </g>
     </g>
    </g>
    <g id="ytick_3">
     <g id="line2d_12">
      <g>
       <use style="stroke:#000000;stroke-width:0.8;" x="57.6" xlink:href="#m123abd9d9b" y="244.166217"/>
      </g>
     </g>
     <g id="text_12">
      <!-- 1.0 -->
      <g transform="translate(21.974375 251.004811)scale(0.18 -0.18)">
       <use xlink:href="#DejaVuSans-49"/>
       <use x="63.623047" xlink:href="#DejaVuSans-46"/>
       <use x="95.410156" xlink:href="#DejaVuSans-48"/>
      </g>
     </g>
    </g>
    <g id="ytick_4">
     <g id="line2d_13">
      <g>
       <use style="stroke:#000000;stroke-width:0.8;" x="57.6" xlink:href="#m123abd9d9b" y="212.457326"/>
      </g>
     </g>
     <g id="text_13">
      <!-- 1.5 -->
      <g transform="translate(21.974375 219.29592)scale(0.18 -0.18)">
       <use xlink:href="#DejaVuSans-49"/>
       <use x="63.623047" xlink:href="#DejaVuSans-46"/>
       <use x="95.410156" xlink:href="#DejaVuSans-53"/>
      </g>
     </g>
    </g>
    <g id="ytick_5">
     <g id="line2d_14">
      <g>
       <use style="stroke:#000000;stroke-width:0.8;" x="57.6" xlink:href="#m123abd9d9b" y="180.748434"/>
      </g>
     </g>
     <g id="text_14">
      <!-- 2.0 -->
      <g transform="translate(21.974375 187.587028)scale(0.18 -0.18)">
       <use xlink:href="#DejaVuSans-50"/>
       <use x="63.623047" xlink:href="#DejaVuSans-46"/>
       <use x="95.410156" xlink:href="#DejaVuSans-48"/>
      </g>
     </g>
    </g>
    <g id="ytick_6">
     <g id="line2d_15">
      <g>
       <use style="stroke:#000000;stroke-width:0.8;" x="57.6" xlink:href="#m123abd9d9b" y="149.039543"/>
      </g>
     </g>
     <g id="text_15">
      <!-- 2.5 -->
      <g transform="translate(21.974375 155.878137)scale(0.18 -0.18)">
       <use xlink:href="#DejaVuSans-50"/>
       <use x="63.623047" xlink:href="#DejaVuSans-46"/>
       <use x="95.410156" xlink:href="#DejaVuSans-53"/>
      </g>
     </g>
    </g>
    <g id="ytick_7">
     <g id="line2d_16">
      <g>
       <use style="stroke:#000000;stroke-width:0.8;" x="57.6" xlink:href="#m123abd9d9b" y="117.330652"/>
      </g>
     </g>
     <g id="text_16">
      <!-- 3.0 -->
      <defs>
       <path d="M 40.578125 39.3125 
Q 47.65625 37.796875 51.625 33 
Q 55.609375 28.21875 55.609375 21.1875 
Q 55.609375 10.40625 48.1875 4.484375 
Q 40.765625 -1.421875 27.09375 -1.421875 
Q 22.515625 -1.421875 17.65625 -0.515625 
Q 12.796875 0.390625 7.625 2.203125 
L 7.625 11.71875 
Q 11.71875 9.328125 16.59375 8.109375 
Q 21.484375 6.890625 26.8125 6.890625 
Q 36.078125 6.890625 40.9375 10.546875 
Q 45.796875 14.203125 45.796875 21.1875 
Q 45.796875 27.640625 41.28125 31.265625 
Q 36.765625 34.90625 28.71875 34.90625 
L 20.21875 34.90625 
L 20.21875 43.015625 
L 29.109375 43.015625 
Q 36.375 43.015625 40.234375 45.921875 
Q 44.09375 48.828125 44.09375 54.296875 
Q 44.09375 59.90625 40.109375 62.90625 
Q 36.140625 65.921875 28.71875 65.921875 
Q 24.65625 65.921875 20.015625 65.03125 
Q 15.375 64.15625 9.8125 62.3125 
L 9.8125 71.09375 
Q 15.4375 72.65625 20.34375 73.4375 
Q 25.25 74.21875 29.59375 74.21875 
Q 40.828125 74.21875 47.359375 69.109375 
Q 53.90625 64.015625 53.90625 55.328125 
Q 53.90625 49.265625 50.4375 45.09375 
Q 46.96875 40.921875 40.578125 39.3125 
z
" id="DejaVuSans-51"/>
      </defs>
      <g transform="translate(21.974375 124.169245)scale(0.18 -0.18)">
       <use xlink:href="#DejaVuSans-51"/>
       <use x="63.623047" xlink:href="#DejaVuSans-46"/>
       <use x="95.410156" xlink:href="#DejaVuSans-48"/>
      </g>
     </g>
    </g>
    <g id="ytick_8">
     <g id="line2d_17">
      <g>
       <use style="stroke:#000000;stroke-width:0.8;" x="57.6" xlink:href="#m123abd9d9b" y="85.62176"/>
      </g>
     </g>
     <g id="text_17">
      <!-- 3.5 -->
      <g transform="translate(21.974375 92.460354)scale(0.18 -0.18)">
       <use xlink:href="#DejaVuSans-51"/>
       <use x="63.623047" xlink:href="#DejaVuSans-46"/>
       <use x="95.410156" xlink:href="#DejaVuSans-53"/>
      </g>
     </g>
    </g>
    <g id="ytick_9">
     <g id="line2d_18">
      <g>
       <use style="stroke:#000000;stroke-width:0.8;" x="57.6" xlink:href="#m123abd9d9b" y="53.912869"/>
      </g>
     </g>
     <g id="text_18">
      <!-- 4.0 -->
      <defs>
       <path d="M 37.796875 64.3125 
L 12.890625 25.390625 
L 37.796875 25.390625 
z
M 35.203125 72.90625 
L 47.609375 72.90625 
L 47.609375 25.390625 
L 58.015625 25.390625 
L 58.015625 17.1875 
L 47.609375 17.1875 
L 47.609375 0 
L 37.796875 0 
L 37.796875 17.1875 
L 4.890625 17.1875 
L 4.890625 26.703125 
z
" id="DejaVuSans-52"/>
      </defs>
      <g transform="translate(21.974375 60.751463)scale(0.18 -0.18)">
       <use xlink:href="#DejaVuSans-52"/>
       <use x="63.623047" xlink:href="#DejaVuSans-46"/>
       <use x="95.410156" xlink:href="#DejaVuSans-48"/>
      </g>
     </g>
    </g>
   </g>
   <g id="LineCollection_1">
    <path clip-path="url(#pfe92179a74)" d="M 128.446984 307.584 
L 129.622506 306.610918 
L 130.493917 305.637835 
L 130.902179 304.664753 
L 130.855593 303.69167 
L 130.549353 302.718588 
L 129.860407 301.745505 
L 128.869891 300.772423 
L 128.106321 300.168194 
L 127.554436 299.79934 
L 125.841548 298.826258 
L 124.901488 298.428197 
L 123.742288 297.853175 
L 121.696656 296.921251 
L 121.604798 296.880093 
L 119.395632 295.90701 
L 118.491823 295.552399 
L 116.798554 294.933928 
L 115.28699 294.457269 
L 113.648699 293.960846 
L 112.082157 293.453302 
L 110.62036 292.987763 
L 108.877324 292.366269 
L 107.814657 292.014681 
L 105.672492 291.361777 
L 104.249995 291.041598 
L 102.467659 290.644963 
L 100.239359 290.068516 
L 99.262826 289.788231 
L 96.057993 289.196958 
L 95.443239 289.095433 
L 92.853161 288.70078 
L 89.648328 288.298288 
L 87.449387 288.122351 
L 86.443495 288.04575 
L 83.238662 287.932157 
L 80.033829 287.94072 
L 76.828997 288.075055 
L 76.051607 288.122351 
L 73.624164 288.277046 
L 70.419331 288.624822 
L 70.013155 289.095433 
L 69.275449 290.068516 
L 68.50323 291.041598 
L 67.79069 292.014681 
L 67.214498 292.908767 
L 67.201852 292.987763 
L 67.027668 293.960846 
L 66.851609 294.933928 
L 66.706997 295.90701 
L 66.582429 296.880093 
L 66.465308 297.853175 
L 66.359847 298.826258 
L 66.283271 299.79934 
L 66.219318 300.772423 
L 66.168363 301.745505 
L 66.132922 302.718588 
L 66.117168 303.69167 
L 66.114771 304.664753 
L 66.135773 305.637835 
L 66.180601 306.610918 
L 66.241073 307.584 
" style="fill:none;stroke:#4d94ff;stroke-width:1.5;"/>
   </g>
   <g id="LineCollection_2">
    <path clip-path="url(#pfe92179a74)" d="M 156.857978 307.584 
L 158.374588 306.714557 
L 160.363327 305.612872 
L 161.428363 305.02939 
L 163.623974 303.641744 
L 164.482139 303.026035 
L 166.263088 301.670615 
L 167.535914 300.645757 
L 168.694557 299.699487 
L 170.589689 298.053753 
L 170.937048 297.728359 
L 172.386028 295.757231 
L 173.643465 294.459103 
L 174.182119 293.786102 
L 175.848373 291.814974 
L 176.69724 290.586625 
L 177.210764 289.843846 
L 178.383835 287.872718 
L 179.420831 285.901589 
L 179.751016 284.667464 
L 179.927601 283.930461 
L 180.22891 281.959333 
L 180.22891 279.988205 
L 179.751016 278.108225 
L 179.725126 278.017077 
L 179.177378 276.045948 
L 178.3112 274.07482 
L 177.40341 272.103692 
L 176.69724 270.616722 
L 176.469281 270.132564 
L 175.46258 268.161435 
L 174.109532 266.190307 
L 173.643465 265.609571 
L 172.292899 264.219179 
L 170.589689 262.789483 
L 169.891298 262.248051 
L 167.535914 260.54261 
L 167.162104 260.276923 
L 164.482139 258.323389 
L 164.456494 258.305794 
L 161.428363 256.93383 
L 159.878037 256.334666 
L 158.374588 255.678361 
L 155.432316 254.363538 
L 155.320813 254.329092 
L 152.267037 253.535505 
L 149.213262 252.812653 
L 147.390878 252.39241 
L 146.159486 252.116587 
L 143.105711 251.445287 
L 140.051936 250.877681 
L 137.703943 250.421281 
L 136.99816 250.298773 
L 133.944385 249.837537 
L 130.890609 249.414928 
L 127.836834 248.979441 
L 124.783059 248.474554 
L 124.571451 248.450153 
L 121.729283 248.106777 
L 118.675508 247.567499 
L 115.621732 247.226717 
L 112.567957 247.024531 
L 109.514182 246.889963 
L 106.460406 246.889963 
L 103.406631 247.110979 
L 100.352855 247.367997 
L 97.29908 247.720139 
L 94.245305 248.182319 
L 92.785078 248.450153 
L 91.191529 248.731768 
L 88.137754 249.499134 
L 85.083979 250.186121 
L 84.220093 250.421281 
L 82.030203 251.098595 
L 78.976428 252.231939 
L 78.547862 252.39241 
L 75.922652 253.423577 
L 73.492434 254.363538 
L 72.868877 254.715581 
L 70.520423 256.334666 
L 69.815102 256.773898 
L 69.341752 258.305794 
L 68.955613 260.276923 
L 68.572367 262.248051 
L 68.225231 264.219179 
L 67.947333 266.190307 
L 67.714507 268.161435 
L 67.541279 270.132564 
L 67.383697 272.103692 
L 67.231548 274.07482 
L 67.086373 276.045948 
L 66.994569 278.017077 
L 66.90172 279.988205 
L 66.90172 281.959333 
L 66.957524 283.930461 
L 67.04557 285.901589 
L 67.219374 287.872718 
L 67.415985 289.843846 
L 67.648122 291.814974 
L 67.934842 293.786102 
L 68.211599 295.757231 
L 68.423705 297.728359 
L 68.739977 299.699487 
L 69.083948 301.670615 
L 69.457771 303.641744 
L 69.815102 305.254889 
L 70.220624 305.612872 
L 72.457761 307.584 
" style="fill:none;stroke:#ff8533;stroke-width:1.5;"/>
   </g>
   <g id="LineCollection_3">
    <path clip-path="url(#pfe92179a74)" d="M 165.840634 307.584 
L 166.699574 306.496517 
L 166.849691 305.409034 
L 166.353754 304.321551 
L 165.527599 303.234068 
L 164.864365 302.745929 
L 163.920018 302.146585 
L 162.041619 301.435544 
L 161.093244 301.059102 
L 159.218872 300.30781 
L 158.382041 299.971619 
L 156.396126 299.325302 
L 154.839534 298.884136 
L 153.573379 298.570232 
L 150.750633 297.989644 
L 149.455432 297.796653 
L 147.927886 297.586201 
L 145.10514 297.086349 
L 142.475936 296.70917 
L 142.282393 296.680008 
L 139.459647 296.344202 
L 136.6369 295.99771 
L 133.814154 295.70602 
L 132.951712 295.621687 
L 130.991408 295.412533 
L 128.168661 295.121078 
L 125.345915 294.816915 
L 122.962564 294.534204 
L 122.523168 294.49241 
L 119.700422 294.252954 
L 116.877675 294.034278 
L 114.054929 293.801907 
L 111.232182 293.582777 
L 109.498916 293.446721 
L 108.409436 293.348546 
L 105.58669 293.11489 
L 102.763943 292.951161 
L 99.941197 292.725521 
L 97.11845 292.550821 
L 94.295704 292.407622 
L 93.315377 292.359239 
L 91.472957 292.249347 
L 88.650211 292.068416 
L 85.827464 291.970852 
L 83.004718 291.917225 
L 80.181972 291.860638 
L 77.359225 291.860638 
L 74.536479 291.925694 
L 71.713732 292.048197 
L 68.890986 292.23126 
L 67.280836 292.359239 
L 66.068239 292.439298 
L 65.344384 293.446721 
L 64.574824 294.534204 
L 64.038787 295.621687 
L 63.522016 296.70917 
L 63.245493 297.312941 
L 63.157199 297.796653 
L 62.98622 298.884136 
L 62.848006 299.971619 
L 62.741879 301.059102 
L 62.639263 302.146585 
L 62.579751 303.234068 
L 62.546974 304.321551 
L 62.527298 305.409034 
L 62.533254 306.496517 
L 62.567331 307.584 
" style="fill:none;stroke:#00b300;stroke-width:1.5;"/>
   </g>
   <g id="LineCollection_4">
    <path clip-path="url(#pfe92179a74)" d="M 431.901757 296.571457 
L 424.262946 296.571457 
L 416.624135 296.571457 
L 408.985323 296.571457 
L 401.346512 296.571457 
L 393.707701 296.571457 
L 386.068889 296.571457 
L 378.430078 296.571457 
L 370.791266 296.571457 
L 363.152455 296.571457 
L 355.513644 296.571457 
L 347.874832 296.571457 
L 340.236021 296.571457 
L 332.59721 296.571457 
L 324.958398 296.571457 
L 317.319587 296.571457 
L 309.680775 296.571457 
L 302.041964 296.571457 
L 294.403153 296.571457 
L 286.764341 296.571457 
L 279.12553 296.571457 
L 271.486719 296.571457 
L 263.847907 296.571457 
L 256.209096 296.571457 
L 248.570284 296.571457 
L 240.931473 296.571457 
L 233.292662 296.571457 
L 225.65385 296.571457 
L 218.015039 296.571457 
L 210.376228 296.571457 
L 202.737416 296.571457 
L 195.098605 296.571457 
L 193.354799 296.305502 
L 187.459793 295.461234 
L 185.019139 295.052336 
L 179.820982 294.345801 
L 175.022375 293.799169 
L 172.182171 293.444078 
L 164.543359 292.753435 
L 161.302032 292.546003 
L 156.904548 292.232384 
L 149.265737 291.93146 
L 141.626925 291.784524 
L 133.988114 291.753523 
L 126.349302 291.869148 
L 118.710491 292.146934 
L 111.07168 292.457228 
L 109.071462 292.546003 
L 103.432868 292.767359 
L 95.794057 293.168863 
L 88.155246 293.684978 
L 86.379366 293.799169 
L 80.516434 294.130865 
L 72.877623 294.493684 
L 72.450094 295.052336 
L 71.703919 296.305502 
L 71.060863 297.558668 
L 70.389587 298.811835 
L 69.960844 300.065001 
L 69.609916 301.318168 
L 69.297774 302.571334 
L 69.108481 303.824501 
L 69.025115 305.077667 
L 69.023924 306.330834 
L 69.096835 307.584 
" style="fill:none;stroke:#ffff33;stroke-width:1.5;"/>
   </g>
   <g id="patch_3">
    <path d="M 57.6 307.584 
L 57.6 41.472 
" style="fill:none;stroke:#000000;stroke-linecap:square;stroke-linejoin:miter;stroke-width:0.8;"/>
   </g>
   <g id="patch_4">
    <path d="M 343.296 307.584 
L 343.296 41.472 
" style="fill:none;stroke:#000000;stroke-linecap:square;stroke-linejoin:miter;stroke-width:0.8;"/>
   </g>
   <g id="patch_5">
    <path d="M 57.6 307.584 
L 343.296 307.584 
" style="fill:none;stroke:#000000;stroke-linecap:square;stroke-linejoin:miter;stroke-width:0.8;"/>
   </g>
   <g id="patch_6">
    <path d="M 57.6 41.472 
L 343.296 41.472 
" style="fill:none;stroke:#000000;stroke-linecap:square;stroke-linejoin:miter;stroke-width:0.8;"/>
   </g>
  </g>
  <g id="axes_2">
   <g id="patch_7">
    <path clip-path="url(#p829d9f01fa)" d="M 367.2 307.584 
L 361.152 295.488 
L 361.152 53.568 
L 367.2 41.472 
L 367.2 41.472 
L 373.248 53.568 
L 373.248 295.488 
L 367.2 307.584 
z
" style="fill:#ffffff;stroke:#ffffff;stroke-linejoin:miter;stroke-width:0.01;"/>
   </g>
   <g id="QuadMesh_1">
    <path clip-path="url(#p829d9f01fa)" d="M 367.2 307.584 
L 367.2 307.584 
L 373.248 295.488 
L 361.152 295.488 
L 367.2 307.584 
" style="fill:#ffffff;"/>
    <path clip-path="url(#p829d9f01fa)" d="M 361.152 295.488 
L 373.248 295.488 
L 373.248 235.008 
L 361.152 235.008 
L 361.152 295.488 
" style="fill:#ffffff;"/>
    <path clip-path="url(#p829d9f01fa)" d="M 361.152 235.008 
L 373.248 235.008 
L 373.248 174.528 
L 361.152 174.528 
L 361.152 235.008 
" style="fill:#f0f0f0;"/>
    <path clip-path="url(#p829d9f01fa)" d="M 361.152 174.528 
L 373.248 174.528 
L 373.248 114.048 
L 361.152 114.048 
L 361.152 174.528 
" style="fill:#d3d3d3;"/>
    <path clip-path="url(#p829d9f01fa)" d="M 361.152 114.048 
L 373.248 114.048 
L 373.248 53.568 
L 361.152 53.568 
L 361.152 114.048 
" style="fill:#b8b8b8;"/>
    <path clip-path="url(#p829d9f01fa)" d="M 361.152 53.568 
L 373.248 53.568 
L 367.2 41.472 
L 367.2 41.472 
L 361.152 53.568 
" style="fill:#a0a0a0;"/>
   </g>
   <g id="matplotlib.axis_3"/>
   <g id="matplotlib.axis_4">
    <g id="ytick_10">
     <g id="line2d_19">
      <defs>
       <path d="M 0 0 
L 3.5 0 
" id="maa2e643c9b" style="stroke:#000000;stroke-width:0.8;"/>
      </defs>
      <g>
       <use style="stroke:#000000;stroke-width:0.8;" x="373.248" xlink:href="#maa2e643c9b" y="295.488"/>
      </g>
     </g>
     <g id="text_19">
      <!-- 0.0000 -->
      <g transform="translate(380.248 302.326594)scale(0.18 -0.18)">
       <use xlink:href="#DejaVuSans-48"/>
       <use x="63.623047" xlink:href="#DejaVuSans-46"/>
       <use x="95.410156" xlink:href="#DejaVuSans-48"/>
       <use x="159.033203" xlink:href="#DejaVuSans-48"/>
       <use x="222.65625" xlink:href="#DejaVuSans-48"/>
       <use x="286.279297" xlink:href="#DejaVuSans-48"/>
      </g>
     </g>
    </g>
    <g id="ytick_11">
     <g id="line2d_20">
      <g>
       <use style="stroke:#000000;stroke-width:0.8;" x="373.248" xlink:href="#maa2e643c9b" y="235.008"/>
      </g>
     </g>
     <g id="text_20">
      <!-- 0.0256 -->
      <defs>
       <path d="M 33.015625 40.375 
Q 26.375 40.375 22.484375 35.828125 
Q 18.609375 31.296875 18.609375 23.390625 
Q 18.609375 15.53125 22.484375 10.953125 
Q 26.375 6.390625 33.015625 6.390625 
Q 39.65625 6.390625 43.53125 10.953125 
Q 47.40625 15.53125 47.40625 23.390625 
Q 47.40625 31.296875 43.53125 35.828125 
Q 39.65625 40.375 33.015625 40.375 
z
M 52.59375 71.296875 
L 52.59375 62.3125 
Q 48.875 64.0625 45.09375 64.984375 
Q 41.3125 65.921875 37.59375 65.921875 
Q 27.828125 65.921875 22.671875 59.328125 
Q 17.53125 52.734375 16.796875 39.40625 
Q 19.671875 43.65625 24.015625 45.921875 
Q 28.375 48.1875 33.59375 48.1875 
Q 44.578125 48.1875 50.953125 41.515625 
Q 57.328125 34.859375 57.328125 23.390625 
Q 57.328125 12.15625 50.6875 5.359375 
Q 44.046875 -1.421875 33.015625 -1.421875 
Q 20.359375 -1.421875 13.671875 8.265625 
Q 6.984375 17.96875 6.984375 36.375 
Q 6.984375 53.65625 15.1875 63.9375 
Q 23.390625 74.21875 37.203125 74.21875 
Q 40.921875 74.21875 44.703125 73.484375 
Q 48.484375 72.75 52.59375 71.296875 
z
" id="DejaVuSans-54"/>
      </defs>
      <g transform="translate(380.248 241.846594)scale(0.18 -0.18)">
       <use xlink:href="#DejaVuSans-48"/>
       <use x="63.623047" xlink:href="#DejaVuSans-46"/>
       <use x="95.410156" xlink:href="#DejaVuSans-48"/>
       <use x="159.033203" xlink:href="#DejaVuSans-50"/>
       <use x="222.65625" xlink:href="#DejaVuSans-53"/>
       <use x="286.279297" xlink:href="#DejaVuSans-54"/>
      </g>
     </g>
    </g>
    <g id="ytick_12">
     <g id="line2d_21">
      <g>
       <use style="stroke:#000000;stroke-width:0.8;" x="373.248" xlink:href="#maa2e643c9b" y="174.528"/>
      </g>
     </g>
     <g id="text_21">
      <!-- 0.0769 -->
      <defs>
       <path d="M 10.984375 1.515625 
L 10.984375 10.5 
Q 14.703125 8.734375 18.5 7.8125 
Q 22.3125 6.890625 25.984375 6.890625 
Q 35.75 6.890625 40.890625 13.453125 
Q 46.046875 20.015625 46.78125 33.40625 
Q 43.953125 29.203125 39.59375 26.953125 
Q 35.25 24.703125 29.984375 24.703125 
Q 19.046875 24.703125 12.671875 31.3125 
Q 6.296875 37.9375 6.296875 49.421875 
Q 6.296875 60.640625 12.9375 67.421875 
Q 19.578125 74.21875 30.609375 74.21875 
Q 43.265625 74.21875 49.921875 64.515625 
Q 56.59375 54.828125 56.59375 36.375 
Q 56.59375 19.140625 48.40625 8.859375 
Q 40.234375 -1.421875 26.421875 -1.421875 
Q 22.703125 -1.421875 18.890625 -0.6875 
Q 15.09375 0.046875 10.984375 1.515625 
z
M 30.609375 32.421875 
Q 37.25 32.421875 41.125 36.953125 
Q 45.015625 41.5 45.015625 49.421875 
Q 45.015625 57.28125 41.125 61.84375 
Q 37.25 66.40625 30.609375 66.40625 
Q 23.96875 66.40625 20.09375 61.84375 
Q 16.21875 57.28125 16.21875 49.421875 
Q 16.21875 41.5 20.09375 36.953125 
Q 23.96875 32.421875 30.609375 32.421875 
z
" id="DejaVuSans-57"/>
      </defs>
      <g transform="translate(380.248 181.366594)scale(0.18 -0.18)">
       <use xlink:href="#DejaVuSans-48"/>
       <use x="63.623047" xlink:href="#DejaVuSans-46"/>
       <use x="95.410156" xlink:href="#DejaVuSans-48"/>
       <use x="159.033203" xlink:href="#DejaVuSans-55"/>
       <use x="222.65625" xlink:href="#DejaVuSans-54"/>
       <use x="286.279297" xlink:href="#DejaVuSans-57"/>
      </g>
     </g>
    </g>
    <g id="ytick_13">
     <g id="line2d_22">
      <g>
       <use style="stroke:#000000;stroke-width:0.8;" x="373.248" xlink:href="#maa2e643c9b" y="114.048"/>
      </g>
     </g>
     <g id="text_22">
      <!-- 0.1281 -->
      <defs>
       <path d="M 31.78125 34.625 
Q 24.75 34.625 20.71875 30.859375 
Q 16.703125 27.09375 16.703125 20.515625 
Q 16.703125 13.921875 20.71875 10.15625 
Q 24.75 6.390625 31.78125 6.390625 
Q 38.8125 6.390625 42.859375 10.171875 
Q 46.921875 13.96875 46.921875 20.515625 
Q 46.921875 27.09375 42.890625 30.859375 
Q 38.875 34.625 31.78125 34.625 
z
M 21.921875 38.8125 
Q 15.578125 40.375 12.03125 44.71875 
Q 8.5 49.078125 8.5 55.328125 
Q 8.5 64.0625 14.71875 69.140625 
Q 20.953125 74.21875 31.78125 74.21875 
Q 42.671875 74.21875 48.875 69.140625 
Q 55.078125 64.0625 55.078125 55.328125 
Q 55.078125 49.078125 51.53125 44.71875 
Q 48 40.375 41.703125 38.8125 
Q 48.828125 37.15625 52.796875 32.3125 
Q 56.78125 27.484375 56.78125 20.515625 
Q 56.78125 9.90625 50.3125 4.234375 
Q 43.84375 -1.421875 31.78125 -1.421875 
Q 19.734375 -1.421875 13.25 4.234375 
Q 6.78125 9.90625 6.78125 20.515625 
Q 6.78125 27.484375 10.78125 32.3125 
Q 14.796875 37.15625 21.921875 38.8125 
z
M 18.3125 54.390625 
Q 18.3125 48.734375 21.84375 45.5625 
Q 25.390625 42.390625 31.78125 42.390625 
Q 38.140625 42.390625 41.71875 45.5625 
Q 45.3125 48.734375 45.3125 54.390625 
Q 45.3125 60.0625 41.71875 63.234375 
Q 38.140625 66.40625 31.78125 66.40625 
Q 25.390625 66.40625 21.84375 63.234375 
Q 18.3125 60.0625 18.3125 54.390625 
z
" id="DejaVuSans-56"/>
      </defs>
      <g transform="translate(380.248 120.886594)scale(0.18 -0.18)">
       <use xlink:href="#DejaVuSans-48"/>
       <use x="63.623047" xlink:href="#DejaVuSans-46"/>
       <use x="95.410156" xlink:href="#DejaVuSans-49"/>
       <use x="159.033203" xlink:href="#DejaVuSans-50"/>
       <use x="222.65625" xlink:href="#DejaVuSans-56"/>
       <use x="286.279297" xlink:href="#DejaVuSans-49"/>
      </g>
     </g>
    </g>
    <g id="ytick_14">
     <g id="line2d_23">
      <g>
       <use style="stroke:#000000;stroke-width:0.8;" x="373.248" xlink:href="#maa2e643c9b" y="53.568"/>
      </g>
     </g>
     <g id="text_23">
      <!-- 0.2101 -->
      <g transform="translate(380.248 60.406594)scale(0.18 -0.18)">
       <use xlink:href="#DejaVuSans-48"/>
       <use x="63.623047" xlink:href="#DejaVuSans-46"/>
       <use x="95.410156" xlink:href="#DejaVuSans-50"/>
       <use x="159.033203" xlink:href="#DejaVuSans-49"/>
       <use x="222.65625" xlink:href="#DejaVuSans-48"/>
       <use x="286.279297" xlink:href="#DejaVuSans-49"/>
      </g>
     </g>
    </g>
   </g>
   <g id="patch_8">
    <path d="M 367.2 307.584 
L 361.152 295.488 
L 361.152 53.568 
L 367.2 41.472 
L 367.2 41.472 
L 373.248 53.568 
L 373.248 295.488 
L 367.2 307.584 
z
" style="fill:none;stroke:#000000;stroke-linejoin:miter;stroke-width:0.8;"/>
   </g>
  </g>
 </g>
 <defs>
  <clipPath id="pfe92179a74">
   <rect height="266.112" width="285.696" x="57.6" y="41.472"/>
  </clipPath>
  <clipPath id="p829d9f01fa">
   <rect height="266.112" width="12.096" x="361.152" y="41.472"/>
  </clipPath>
 </defs>
</svg>
