<?xml version="1.0" encoding="utf-8" standalone="no"?>
<!DOCTYPE svg PUBLIC "-//W3C//DTD SVG 1.1//EN"
  "http://www.w3.org/Graphics/SVG/1.1/DTD/svg11.dtd">
<!-- Created with matplotlib (https://matplotlib.org/) -->
<svg height="345.6pt" version="1.1" viewBox="0 0 460.8 345.6" width="460.8pt" xmlns="http://www.w3.org/2000/svg" xmlns:xlink="http://www.w3.org/1999/xlink">
 <defs>
  <style type="text/css">
*{stroke-linecap:butt;stroke-linejoin:round;}
  </style>
 </defs>
 <g id="figure_1">
  <g id="patch_1">
   <path d="M 0 345.6 
L 460.8 345.6 
L 460.8 0 
L 0 0 
z
" style="fill:#ffffff;"/>
  </g>
  <g id="axes_1">
   <g id="patch_2">
    <path d="M 57.6 307.584 
L 343.296 307.584 
L 343.296 41.472 
L 57.6 41.472 
z
" style="fill:#ffffff;"/>
   </g>
   <g id="PathCollection_1"/>
   <g id="PathCollection_2">
    <path clip-path="url(#pdacc9a2467)" d="M 71.213338 300.415178 
L 78.020007 300.415178 
L 84.826676 300.415178 
L 91.633345 300.415178 
L 98.440014 300.415178 
L 105.246683 300.415178 
L 112.053351 300.415178 
L 118.86002 300.415178 
L 125.666689 300.415178 
L 132.473358 300.415178 
L 139.280027 300.415178 
L 146.086696 300.415178 
L 152.893365 300.415178 
L 159.700034 300.415178 
L 166.506703 300.415178 
L 173.313372 300.415178 
L 180.120041 300.415178 
L 186.92671 300.415178 
L 193.733379 300.415178 
L 200.540048 300.415178 
L 207.346716 300.415178 
L 214.153385 300.415178 
L 220.960054 300.415178 
L 227.766723 300.415178 
L 234.573392 300.415178 
L 241.380061 300.415178 
L 248.18673 300.415178 
L 254.993399 300.415178 
L 261.800068 300.415178 
L 268.606737 300.415178 
L 275.413406 300.415178 
L 282.220075 300.415178 
L 289.026744 300.415178 
L 295.833413 300.415178 
L 302.640082 300.415178 
L 309.44675 300.415178 
L 316.253419 300.415178 
L 323.060088 300.415178 
L 329.866757 300.415178 
L 336.673426 300.415178 
L 343.480095 300.415178 
L 350.286764 300.415178 
L 357.093433 300.415178 
L 363.900102 300.415178 
L 370.706771 300.415178 
L 377.51344 300.415178 
L 384.320109 300.415178 
L 391.126778 300.415178 
L 397.933447 300.415178 
L 404.740116 300.415178 
L 411.546784 300.415178 
L 418.353453 300.415178 
L 425.160122 300.415178 
L 431.966791 300.415178 
L 438.77346 300.415178 
L 445.580129 300.415178 
L 452.386798 300.415178 
L 459.193467 300.415178 
L 466.000136 300.415178 
L 472.806805 300.415178 
L 479.613474 300.415178 
L 486.420143 300.415178 
L 493.226812 300.415178 
L 500.033481 300.415178 
L 506.840149 300.415178 
L 513.646818 300.415178 
L 520.453487 300.415178 
L 527.260156 300.415178 
L 534.066825 300.415178 
L 540.873494 300.415178 
L 547.680163 300.415178 
L 554.486832 300.415178 
L 561.293501 300.415178 
L 568.10017 300.415178 
L 574.906839 300.415178 
L 581.713508 300.415178 
L 588.520177 300.415178 
L 595.326846 300.415178 
L 602.133515 300.415178 
L 608.940183 300.415178 
L 615.746852 300.415178 
L 622.553521 300.415178 
L 629.36019 300.415178 
L 636.166859 300.415178 
L 642.973528 300.415178 
L 649.780197 300.415178 
L 656.586866 300.415178 
L 663.393535 300.415178 
L 670.200204 300.415178 
L 677.006873 300.415178 
L 683.813542 300.415178 
L 690.620211 300.415178 
L 697.42688 300.415178 
L 704.233548 300.415178 
L 711.040217 300.415178 
L 717.846886 300.415178 
L 724.653555 300.415178 
L 731.460224 300.415178 
L 738.266893 300.415178 
L 745.073562 300.415178 
L 751.880231 300.415178 
L 758.6869 300.415178 
L 765.493569 300.415178 
L 772.300238 300.415178 
L 779.106907 300.415178 
L 785.913576 300.415178 
L 792.720245 300.415178 
L 799.526914 300.415178 
L 806.333582 300.415178 
L 813.140251 300.415178 
L 819.94692 300.415178 
L 826.753589 300.415178 
L 833.560258 300.415178 
L 840.366927 300.415178 
L 847.173596 300.415178 
L 853.980265 300.415178 
L 860.786934 300.415178 
L 867.593603 300.415178 
L 874.400272 300.415178 
L 881.206941 300.415178 
L 888.01361 300.415178 
L 894.820279 300.415178 
L 901.626948 300.415178 
L 908.433616 300.415178 
L 915.240285 300.415178 
L 922.046954 300.415178 
L 928.853623 300.415178 
L 935.660292 300.415178 
L 942.466961 300.415178 
L 949.27363 300.415178 
L 956.080299 300.415178 
L 962.886968 300.415178 
L 969.693637 300.415178 
L 976.500306 300.415178 
L 983.306975 300.415178 
L 990.113644 300.415178 
L 996.920313 300.415178 
L 1003.726981 300.415178 
L 1010.53365 300.415178 
L 1017.340319 300.415178 
L 1024.146988 300.415178 
L 1030.953657 300.415178 
L 1037.760326 300.415178 
L 1044.566995 300.415178 
L 1051.373664 300.415178 
L 1058.180333 300.415178 
L 1064.987002 300.415178 
L 1071.793671 300.415178 
L 1078.60034 300.415178 
L 1085.407009 300.415178 
L 1092.213678 300.415178 
L 1099.020347 300.415178 
L 1105.827015 300.415178 
L 1112.633684 300.415178 
L 1119.440353 300.415178 
L 1126.247022 300.415178 
L 1133.053691 300.415178 
L 1139.86036 300.415178 
L 1146.667029 300.415178 
L 1153.473698 300.415178 
L 1160.280367 300.415178 
L 1167.087036 300.415178 
L 1173.893705 300.415178 
L 1180.700374 300.415178 
L 1187.507043 300.415178 
L 1194.313712 300.415178 
L 1201.120381 300.415178 
L 1207.927049 300.415178 
L 1214.733718 300.415178 
L 1221.540387 300.415178 
L 1228.347056 300.415178 
L 1235.153725 300.415178 
L 1241.960394 300.415178 
L 1248.767063 300.415178 
L 1255.573732 300.415178 
L 1262.380401 300.415178 
L 1269.18707 300.415178 
L 1275.993739 300.415178 
L 1282.800408 300.415178 
L 1289.607077 300.415178 
L 1296.413746 300.415178 
L 1303.220414 300.415178 
L 1310.027083 300.415178 
L 1316.833752 300.415178 
L 1323.640421 300.415178 
L 1330.44709 300.415178 
L 1337.253759 300.415178 
L 1344.060428 300.415178 
L 1350.867097 300.415178 
L 1357.673766 300.415178 
L 1364.480435 300.415178 
L 1371.287104 300.415178 
L 1378.093773 300.415178 
L 1384.900442 300.415178 
L 1391.707111 300.415178 
L 1398.51378 300.415178 
L 1405.320448 300.415178 
L 1412.127117 300.415178 
L 1418.933786 300.415178 
L 1425.740455 300.415178 
L 1432.547124 300.415178 
L 1439.353793 300.415178 
L 1446.160462 300.415178 
L 1452.967131 300.415178 
L 1459.7738 300.415178 
L 1466.580469 300.415178 
L 1473.387138 300.415178 
L 1480.193807 300.415178 
L 1480.193807 293.246356 
L 1480.193807 286.077534 
L 1480.193807 278.908712 
L 1480.193807 271.73989 
L 1480.193807 264.571067 
L 1480.193807 257.402245 
L 1480.193807 250.233423 
L 1480.193807 243.064601 
L 1480.193807 235.895779 
L 1480.193807 228.726957 
L 1480.193807 221.558135 
L 1480.193807 214.389313 
L 1480.193807 207.220491 
L 1480.193807 200.051669 
L 1480.193807 192.882846 
L 1480.193807 185.714024 
L 1480.193807 178.545202 
L 1480.193807 171.37638 
L 1480.193807 164.207558 
L 1480.193807 157.038736 
L 1480.193807 149.869914 
L 1480.193807 142.701092 
L 1480.193807 135.53227 
L 1480.193807 128.363448 
L 1480.193807 121.194625 
L 1480.193807 114.025803 
L 1480.193807 106.856981 
L 1480.193807 99.688159 
L 1480.193807 92.519337 
L 1480.193807 85.350515 
L 1480.193807 78.181693 
L 1480.193807 71.012871 
L 1480.193807 63.844049 
L 1480.193807 56.675227 
L 1480.193807 49.506405 
L 1480.193807 42.337582 
L 1480.193807 35.16876 
L 1480.193807 27.999938 
L 1480.193807 20.831116 
L 1480.193807 13.662294 
L 1480.193807 6.493472 
L 1480.193807 -0.67535 
L 1480.193807 -7.844172 
L 1480.193807 -15.012994 
L 1480.193807 -22.181816 
L 1480.193807 -29.350639 
L 1480.193807 -36.519461 
L 1480.193807 -43.688283 
L 1480.193807 -50.857105 
L 1480.193807 -58.025927 
L 1480.193807 -65.194749 
L 1480.193807 -72.363571 
L 1480.193807 -79.532393 
L 1480.193807 -86.701215 
L 1480.193807 -93.870037 
L 1480.193807 -101.03886 
L 1480.193807 -108.207682 
L 1480.193807 -115.376504 
L 1480.193807 -122.545326 
L 1480.193807 -129.714148 
L 1480.193807 -136.88297 
L 1480.193807 -144.051792 
L 1480.193807 -151.220614 
L 1480.193807 -158.389436 
L 1480.193807 -165.558258 
L 1480.193807 -172.72708 
L 1480.193807 -179.895903 
L 1480.193807 -187.064725 
L 1480.193807 -194.233547 
L 1480.193807 -201.402369 
L 1480.193807 -208.571191 
L 1480.193807 -215.740013 
L 1480.193807 -222.908835 
L 1480.193807 -230.077657 
L 1480.193807 -237.246479 
L 1480.193807 -244.415301 
L 1480.193807 -251.584124 
L 1480.193807 -258.752946 
L 1480.193807 -265.921768 
L 1480.193807 -273.09059 
L 1480.193807 -280.259412 
L 1480.193807 -287.428234 
L 1480.193807 -294.597056 
L 1480.193807 -301.765878 
L 1480.193807 -308.9347 
L 1480.193807 -316.103522 
L 1480.193807 -323.272345 
L 1473.387138 -323.272345 
L 1466.580469 -323.272345 
L 1459.7738 -323.272345 
L 1452.967131 -323.272345 
L 1446.160462 -323.272345 
L 1439.353793 -323.272345 
L 1432.547124 -323.272345 
L 1425.740455 -323.272345 
L 1418.933786 -323.272345 
L 1412.127117 -323.272345 
L 1405.320448 -323.272345 
L 1398.51378 -323.272345 
L 1391.707111 -323.272345 
L 1384.900442 -323.272345 
L 1378.093773 -323.272345 
L 1371.287104 -323.272345 
L 1364.480435 -323.272345 
L 1357.673766 -323.272345 
L 1350.867097 -323.272345 
L 1344.060428 -323.272345 
L 1337.253759 -323.272345 
L 1330.44709 -323.272345 
L 1323.640421 -323.272345 
L 1316.833752 -323.272345 
L 1310.027083 -323.272345 
L 1303.220414 -323.272345 
L 1296.413746 -323.272345 
L 1289.607077 -323.272345 
L 1282.800408 -323.272345 
L 1275.993739 -323.272345 
L 1269.18707 -323.272345 
L 1262.380401 -323.272345 
L 1255.573732 -323.272345 
L 1248.767063 -323.272345 
L 1241.960394 -323.272345 
L 1235.153725 -323.272345 
L 1228.347056 -323.272345 
L 1221.540387 -323.272345 
L 1214.733718 -323.272345 
L 1207.927049 -323.272345 
L 1201.120381 -323.272345 
L 1194.313712 -323.272345 
L 1187.507043 -323.272345 
L 1180.700374 -323.272345 
L 1173.893705 -323.272345 
L 1167.087036 -323.272345 
L 1160.280367 -323.272345 
L 1153.473698 -323.272345 
L 1146.667029 -323.272345 
L 1139.86036 -323.272345 
L 1133.053691 -323.272345 
L 1126.247022 -323.272345 
L 1119.440353 -323.272345 
L 1112.633684 -323.272345 
L 1105.827015 -323.272345 
L 1099.020347 -323.272345 
L 1092.213678 -323.272345 
L 1085.407009 -323.272345 
L 1078.60034 -323.272345 
L 1071.793671 -323.272345 
L 1064.987002 -323.272345 
L 1058.180333 -323.272345 
L 1051.373664 -323.272345 
L 1044.566995 -323.272345 
L 1037.760326 -323.272345 
L 1030.953657 -323.272345 
L 1024.146988 -323.272345 
L 1017.340319 -323.272345 
L 1010.53365 -323.272345 
L 1003.726981 -323.272345 
L 996.920313 -323.272345 
L 990.113644 -323.272345 
L 983.306975 -323.272345 
L 976.500306 -323.272345 
L 969.693637 -323.272345 
L 962.886968 -323.272345 
L 956.080299 -323.272345 
L 949.27363 -323.272345 
L 942.466961 -323.272345 
L 935.660292 -323.272345 
L 928.853623 -323.272345 
L 922.046954 -323.272345 
L 915.240285 -323.272345 
L 908.433616 -323.272345 
L 901.626948 -323.272345 
L 894.820279 -323.272345 
L 888.01361 -323.272345 
L 881.206941 -323.272345 
L 874.400272 -323.272345 
L 867.593603 -323.272345 
L 860.786934 -323.272345 
L 853.980265 -323.272345 
L 847.173596 -323.272345 
L 840.366927 -323.272345 
L 833.560258 -323.272345 
L 826.753589 -323.272345 
L 819.94692 -323.272345 
L 813.140251 -323.272345 
L 806.333582 -323.272345 
L 799.526914 -323.272345 
L 792.720245 -323.272345 
L 785.913576 -323.272345 
L 779.106907 -323.272345 
L 772.300238 -323.272345 
L 765.493569 -323.272345 
L 758.6869 -323.272345 
L 751.880231 -323.272345 
L 745.073562 -323.272345 
L 738.266893 -323.272345 
L 731.460224 -323.272345 
L 724.653555 -323.272345 
L 717.846886 -323.272345 
L 711.040217 -323.272345 
L 704.233548 -323.272345 
L 697.42688 -323.272345 
L 690.620211 -323.272345 
L 683.813542 -323.272345 
L 677.006873 -323.272345 
L 670.200204 -323.272345 
L 663.393535 -323.272345 
L 656.586866 -323.272345 
L 649.780197 -323.272345 
L 642.973528 -323.272345 
L 636.166859 -323.272345 
L 629.36019 -323.272345 
L 622.553521 -323.272345 
L 615.746852 -323.272345 
L 608.940183 -323.272345 
L 602.133515 -323.272345 
L 595.326846 -323.272345 
L 588.520177 -323.272345 
L 581.713508 -323.272345 
L 574.906839 -323.272345 
L 568.10017 -323.272345 
L 561.293501 -323.272345 
L 554.486832 -323.272345 
L 547.680163 -323.272345 
L 540.873494 -323.272345 
L 534.066825 -323.272345 
L 527.260156 -323.272345 
L 520.453487 -323.272345 
L 513.646818 -323.272345 
L 506.840149 -323.272345 
L 500.033481 -323.272345 
L 493.226812 -323.272345 
L 486.420143 -323.272345 
L 479.613474 -323.272345 
L 472.806805 -323.272345 
L 466.000136 -323.272345 
L 459.193467 -323.272345 
L 452.386798 -323.272345 
L 445.580129 -323.272345 
L 438.77346 -323.272345 
L 431.966791 -323.272345 
L 425.160122 -323.272345 
L 418.353453 -323.272345 
L 411.546784 -323.272345 
L 404.740116 -323.272345 
L 397.933447 -323.272345 
L 391.126778 -323.272345 
L 384.320109 -323.272345 
L 377.51344 -323.272345 
L 370.706771 -323.272345 
L 363.900102 -323.272345 
L 357.093433 -323.272345 
L 350.286764 -323.272345 
L 343.480095 -323.272345 
L 336.673426 -323.272345 
L 329.866757 -323.272345 
L 323.060088 -323.272345 
L 316.253419 -323.272345 
L 309.44675 -323.272345 
L 302.640082 -323.272345 
L 295.833413 -323.272345 
L 289.026744 -323.272345 
L 282.220075 -323.272345 
L 275.413406 -323.272345 
L 268.606737 -323.272345 
L 261.800068 -323.272345 
L 254.993399 -323.272345 
L 248.18673 -323.272345 
L 241.380061 -323.272345 
L 234.573392 -323.272345 
L 227.766723 -323.272345 
L 220.960054 -323.272345 
L 214.153385 -323.272345 
L 207.346716 -323.272345 
L 200.540048 -323.272345 
L 193.733379 -323.272345 
L 186.92671 -323.272345 
L 180.120041 -323.272345 
L 173.313372 -323.272345 
L 166.506703 -323.272345 
L 159.700034 -323.272345 
L 152.893365 -323.272345 
L 146.086696 -323.272345 
L 139.280027 -323.272345 
L 132.473358 -323.272345 
L 125.666689 -323.272345 
L 118.86002 -323.272345 
L 112.053351 -323.272345 
L 105.246683 -323.272345 
L 98.440014 -323.272345 
L 91.633345 -323.272345 
L 84.826676 -323.272345 
L 78.020007 -323.272345 
L 71.213338 -323.272345 
L 64.406669 -323.272345 
L 64.406669 -316.103522 
L 64.406669 -308.9347 
L 64.406669 -301.765878 
L 64.406669 -294.597056 
L 64.406669 -287.428234 
L 64.406669 -280.259412 
L 64.406669 -273.09059 
L 64.406669 -265.921768 
L 64.406669 -258.752946 
L 64.406669 -251.584124 
L 64.406669 -244.415301 
L 64.406669 -237.246479 
L 64.406669 -230.077657 
L 64.406669 -222.908835 
L 64.406669 -215.740013 
L 64.406669 -208.571191 
L 64.406669 -201.402369 
L 64.406669 -194.233547 
L 64.406669 -187.064725 
L 64.406669 -179.895903 
L 64.406669 -172.72708 
L 64.406669 -165.558258 
L 64.406669 -158.389436 
L 64.406669 -151.220614 
L 64.406669 -144.051792 
L 64.406669 -136.88297 
L 64.406669 -129.714148 
L 64.406669 -122.545326 
L 64.406669 -115.376504 
L 64.406669 -108.207682 
L 64.406669 -101.03886 
L 64.406669 -93.870037 
L 64.406669 -86.701215 
L 64.406669 -79.532393 
L 64.406669 -72.363571 
L 64.406669 -65.194749 
L 64.406669 -58.025927 
L 64.406669 -50.857105 
L 64.406669 -43.688283 
L 64.406669 -36.519461 
L 64.406669 -29.350639 
L 64.406669 -22.181816 
L 64.406669 -15.012994 
L 64.406669 -7.844172 
L 64.406669 -0.67535 
L 64.406669 6.493472 
L 64.406669 13.662294 
L 64.406669 20.831116 
L 64.406669 27.999938 
L 64.406669 35.16876 
L 64.406669 42.337582 
L 64.406669 49.506405 
L 64.406669 56.675227 
L 64.406669 63.844049 
L 64.406669 71.012871 
L 64.406669 78.181693 
L 64.406669 85.350515 
L 64.406669 92.519337 
L 64.406669 99.688159 
L 64.406669 106.856981 
L 64.406669 114.025803 
L 64.406669 121.194625 
L 64.406669 128.363448 
L 64.406669 135.53227 
L 64.406669 142.701092 
L 64.406669 149.869914 
L 64.406669 157.038736 
L 64.406669 164.207558 
L 64.406669 171.37638 
L 64.406669 178.545202 
L 64.406669 185.714024 
L 64.406669 192.882846 
L 64.406669 200.051669 
L 64.406669 207.220491 
L 64.406669 214.389313 
L 64.406669 221.558135 
L 64.406669 228.726957 
L 64.406669 235.895779 
L 64.406669 243.064601 
L 64.406669 249.227172 
L 67.332295 243.064601 
L 71.213338 238.522894 
L 72.111321 235.895779 
L 77.064589 228.726957 
L 78.020007 227.720706 
L 79.55981 221.558135 
L 81.270702 214.389313 
L 84.826676 210.175995 
L 86.14724 207.220491 
L 91.633345 201.763494 
L 98.440014 200.120622 
L 98.609145 200.051669 
L 105.246683 193.598722 
L 106.351214 192.882846 
L 112.053351 186.877323 
L 113.315673 185.714024 
L 118.86002 181.172317 
L 121.666219 178.545202 
L 125.666689 174.800031 
L 131.517941 171.37638 
L 132.473358 170.370129 
L 139.280027 164.464332 
L 139.532236 164.207558 
L 146.086696 157.304364 
L 146.391449 157.038736 
L 152.893365 150.190881 
L 153.372976 149.869914 
L 159.700034 143.206221 
L 160.309539 142.701092 
L 166.506703 136.174204 
L 171.382746 135.53227 
L 173.313372 133.498923 
L 180.120041 128.499788 
L 180.316391 128.363448 
L 186.92671 121.401423 
L 187.591625 121.194625 
L 193.733379 114.726096 
L 200.540048 114.073948 
L 207.346716 114.040805 
L 214.153385 114.319259 
L 220.960054 114.333932 
L 227.766723 114.350149 
L 234.573392 115.019766 
L 240.436311 121.194625 
L 241.228474 128.363448 
L 234.573392 135.409124 
L 234.309279 135.53227 
L 227.766723 142.675024 
L 227.731731 142.701092 
L 225.676991 149.869914 
L 227.766723 151.270498 
L 234.573392 151.102428 
L 240.209811 157.038736 
L 238.129366 164.207558 
L 234.573392 167.95273 
L 228.722141 171.37638 
L 227.766723 172.382631 
L 223.587258 178.545202 
L 220.960054 182.418982 
L 214.153385 184.890264 
L 211.546232 185.714024 
L 207.346716 189.505128 
L 200.540048 190.91251 
L 194.927651 192.882846 
L 193.733379 193.889098 
L 186.92671 196.628018 
L 180.120041 198.678734 
L 178.697957 200.051669 
L 173.313372 205.250155 
L 166.506703 207.149238 
L 166.410056 207.220491 
L 159.700034 213.156799 
L 157.040374 214.389313 
L 152.893365 218.756966 
L 148.017322 221.558135 
L 146.086696 223.99815 
L 139.280027 227.911645 
L 138.448561 228.726957 
L 132.473358 234.79532 
L 130.644842 235.895779 
L 125.666689 241.488332 
L 118.86002 241.523958 
L 112.053351 240.863683 
L 107.873886 243.064601 
L 105.246683 246.292751 
L 99.634286 250.233423 
L 98.440014 251.239674 
L 92.588762 257.402245 
L 91.633345 258.408496 
L 87.453879 264.571067 
L 84.826676 267.799217 
L 82.332277 271.73989 
L 78.020007 276.84931 
L 77.672386 278.908712 
L 71.213338 285.866025 
L 71.14884 286.077534 
L 71.077396 293.246356 
L 68.553678 300.415178 
z
M 75.631463 293.246356 
L 78.020007 290.730728 
L 79.214279 293.246356 
L 78.020007 294.252607 
z
M 82.438132 286.077534 
L 84.826676 284.400448 
L 91.633345 282.849384 
L 95.31143 286.077534 
L 91.633345 288.844519 
L 84.826676 287.335348 
z
M 198.151504 286.077534 
L 198.947685 278.908712 
L 200.540048 273.877456 
L 207.346716 273.601167 
L 209.555779 271.73989 
L 207.346716 267.086695 
L 200.540048 271.027367 
L 199.525257 271.73989 
L 193.733379 274.789909 
L 190.837439 271.73989 
L 186.92671 267.621087 
L 181.134831 264.571067 
L 186.92671 262.537721 
L 193.733379 262.537721 
L 200.540048 260.697287 
L 207.346716 262.893982 
L 214.153385 260.148114 
L 220.452659 264.571067 
L 220.960054 264.998581 
L 221.636581 264.571067 
L 222.989636 257.402245 
L 227.766723 254.886617 
L 228.722141 257.402245 
L 232.36433 264.571067 
L 234.454005 271.73989 
L 229.359086 278.908712 
L 227.766723 280.166526 
L 220.960054 281.675697 
L 214.153385 280.166526 
L 207.346716 284.216256 
L 202.928591 286.077534 
L 200.540048 287.083785 
z
M 97.245742 278.908712 
L 98.440014 277.650898 
L 100.828557 278.908712 
L 98.440014 280.585797 
z
M 130.084814 278.908712 
L 125.666689 275.806582 
L 118.86002 275.806582 
L 112.053351 274.255517 
L 110.460989 271.73989 
L 112.053351 270.733638 
L 118.86002 268.68987 
L 125.666689 268.68987 
L 131.458568 271.73989 
L 132.473358 273.877456 
L 133.488149 271.73989 
L 139.280027 268.68987 
L 145.071906 271.73989 
L 146.086696 273.877456 
L 147.101487 271.73989 
L 150.504821 264.571067 
L 152.893365 263.564816 
L 155.281909 264.571067 
L 159.700034 269.224262 
L 166.506703 270.062804 
L 171.283791 271.73989 
L 168.895247 278.908712 
L 166.506703 280.166526 
L 159.700034 280.942058 
L 153.908156 278.908712 
L 152.893365 277.839928 
L 150.863784 278.908712 
L 146.086696 280.166526 
L 141.309608 278.908712 
L 139.280027 277.839928 
L 137.250446 278.908712 
L 132.473358 279.914963 
z
" style="fill:#ffffff;"/>
   </g>
   <g id="PathCollection_3">
    <path clip-path="url(#pdacc9a2467)" d="M 71.077396 293.246356 
L 71.14884 286.077534 
L 71.213338 285.866025 
L 77.672386 278.908712 
L 78.020007 276.84931 
L 82.332277 271.73989 
L 84.826676 267.799217 
L 87.453879 264.571067 
L 91.633345 258.408496 
L 92.588762 257.402245 
L 98.440014 251.239674 
L 99.634286 250.233423 
L 105.246683 246.292751 
L 107.873886 243.064601 
L 112.053351 240.863683 
L 118.86002 241.523958 
L 125.666689 241.488332 
L 130.644842 235.895779 
L 132.473358 234.79532 
L 138.448561 228.726957 
L 139.280027 227.911645 
L 146.086696 223.99815 
L 148.017322 221.558135 
L 152.893365 218.756966 
L 157.040374 214.389313 
L 159.700034 213.156799 
L 166.410056 207.220491 
L 166.506703 207.149238 
L 173.313372 205.250155 
L 178.697957 200.051669 
L 180.120041 198.678734 
L 186.92671 196.628018 
L 193.733379 193.889098 
L 194.927651 192.882846 
L 200.540048 190.91251 
L 207.346716 189.505128 
L 211.546232 185.714024 
L 214.153385 184.890264 
L 220.960054 182.418982 
L 223.587258 178.545202 
L 227.766723 172.382631 
L 228.722141 171.37638 
L 234.573392 167.95273 
L 238.129366 164.207558 
L 240.209811 157.038736 
L 234.573392 151.102428 
L 227.766723 151.270498 
L 225.676991 149.869914 
L 227.731731 142.701092 
L 227.766723 142.675024 
L 234.309279 135.53227 
L 234.573392 135.409124 
L 241.228474 128.363448 
L 240.436311 121.194625 
L 234.573392 115.019766 
L 227.766723 114.350149 
L 220.960054 114.333932 
L 214.153385 114.319259 
L 207.346716 114.040805 
L 200.540048 114.073948 
L 193.733379 114.726096 
L 187.591625 121.194625 
L 186.92671 121.401423 
L 180.316391 128.363448 
L 180.120041 128.499788 
L 173.313372 133.498923 
L 171.382746 135.53227 
L 166.506703 136.174204 
L 160.309539 142.701092 
L 159.700034 143.206221 
L 153.372976 149.869914 
L 152.893365 150.190881 
L 146.391449 157.038736 
L 146.086696 157.304364 
L 139.532236 164.207558 
L 139.280027 164.464332 
L 132.473358 170.370129 
L 131.517941 171.37638 
L 125.666689 174.800031 
L 121.666219 178.545202 
L 118.86002 181.172317 
L 113.315673 185.714024 
L 112.053351 186.877323 
L 106.351214 192.882846 
L 105.246683 193.598722 
L 98.609145 200.051669 
L 98.440014 200.120622 
L 91.633345 201.763494 
L 86.14724 207.220491 
L 84.826676 210.175995 
L 81.270702 214.389313 
L 79.55981 221.558135 
L 78.020007 227.720706 
L 77.064589 228.726957 
L 72.111321 235.895779 
L 71.213338 238.522894 
L 67.332295 243.064601 
L 64.406669 249.227172 
L 64.406669 250.233423 
L 64.406669 257.402245 
L 64.406669 258.576046 
L 64.811943 257.402245 
L 66.473416 250.233423 
L 71.213338 244.052713 
L 71.541706 243.064601 
L 74.451822 235.895779 
L 78.020007 231.421931 
L 79.188168 228.726957 
L 82.639416 221.558135 
L 84.826676 217.181229 
L 85.773417 214.389313 
L 89.589152 207.220491 
L 91.633345 205.187144 
L 98.440014 202.108548 
L 103.485188 200.051669 
L 105.246683 198.339162 
L 112.053351 193.05052 
L 112.205062 192.882846 
L 118.86002 185.955307 
L 119.057041 185.714024 
L 125.666689 178.82163 
L 125.90128 178.545202 
L 132.473358 171.860093 
L 132.940623 171.37638 
L 139.280027 164.977879 
L 140.036655 164.207558 
L 146.086696 157.83562 
L 147.000954 157.038736 
L 152.893365 150.832816 
L 154.332197 149.869914 
L 159.700034 144.216478 
L 161.52855 142.701092 
L 166.506703 137.458073 
L 173.313372 135.749049 
L 173.526684 135.53227 
L 180.120041 128.772468 
L 180.709093 128.363448 
L 186.92671 121.815019 
L 188.921454 121.194625 
L 193.733379 116.12668 
L 200.540048 114.170239 
L 207.346716 114.070808 
L 214.153385 114.906171 
L 220.960054 114.950189 
L 227.766723 114.998841 
L 234.573392 117.007693 
L 238.54881 121.194625 
L 240.925301 128.363448 
L 234.573392 135.088156 
L 233.620897 135.53227 
L 227.766723 141.923491 
L 226.722894 142.701092 
L 221.497525 149.869914 
L 227.766723 154.071667 
L 234.573392 153.567456 
L 237.86931 157.038736 
L 234.573392 162.46261 
L 234.138823 164.207558 
L 227.766723 170.505696 
L 225.847601 171.37638 
L 220.960054 176.91994 
L 218.285248 178.545202 
L 214.153385 181.808978 
L 207.346716 183.764692 
L 200.683633 185.714024 
L 200.540048 185.777035 
L 193.733379 186.594574 
L 186.92671 190.556249 
L 181.62496 192.882846 
L 180.120041 193.543259 
L 173.378638 200.051669 
L 173.313372 200.114679 
L 166.506703 205.095048 
L 163.623746 207.220491 
L 159.700034 210.69177 
L 152.893365 213.951199 
L 152.397388 214.389313 
L 146.086696 219.96376 
L 144.131331 221.558135 
L 139.280027 225.786621 
L 136.281431 228.726957 
L 132.473358 232.594402 
L 126.98781 235.895779 
L 125.666689 237.379952 
L 118.86002 238.442673 
L 112.053351 236.461847 
L 105.246683 240.046258 
L 102.571877 243.064601 
L 98.440014 246.904338 
L 96.947363 250.233423 
L 91.633345 255.830177 
L 90.944429 257.402245 
L 84.826676 264.015057 
L 84.580528 264.571067 
L 78.020007 271.6102 
L 77.941824 271.73989 
L 76.372108 278.908712 
L 71.213338 284.465441 
L 70.721741 286.077534 
L 70.177203 293.246356 
L 64.406669 300.176906 
L 64.406669 300.415178 
L 68.553678 300.415178 
z
" style="fill:#f0f0f0;"/>
    <path clip-path="url(#pdacc9a2467)" d="M 78.020007 294.252607 
L 79.214279 293.246356 
L 78.020007 290.730728 
L 75.631463 293.246356 
z
" style="fill:#f0f0f0;"/>
    <path clip-path="url(#pdacc9a2467)" d="M 84.826676 287.335348 
L 91.633345 288.844519 
L 95.31143 286.077534 
L 91.633345 282.849384 
L 84.826676 284.400448 
L 82.438132 286.077534 
z
" style="fill:#f0f0f0;"/>
    <path clip-path="url(#pdacc9a2467)" d="M 200.540048 287.083785 
L 202.928591 286.077534 
L 207.346716 284.216256 
L 214.153385 280.166526 
L 220.960054 281.675697 
L 227.766723 280.166526 
L 229.359086 278.908712 
L 234.454005 271.73989 
L 232.36433 264.571067 
L 228.722141 257.402245 
L 227.766723 254.886617 
L 222.989636 257.402245 
L 221.636581 264.571067 
L 220.960054 264.998581 
L 220.452659 264.571067 
L 214.153385 260.148114 
L 207.346716 262.893982 
L 200.540048 260.697287 
L 193.733379 262.537721 
L 186.92671 262.537721 
L 181.134831 264.571067 
L 186.92671 267.621087 
L 190.837439 271.73989 
L 193.733379 274.789909 
L 199.525257 271.73989 
L 200.540048 271.027367 
L 207.346716 267.086695 
L 209.555779 271.73989 
L 207.346716 273.601167 
L 200.540048 273.877456 
L 198.947685 278.908712 
L 198.151504 286.077534 
z
M 223.169117 271.73989 
L 227.766723 267.589411 
L 231.012093 271.73989 
L 227.766723 275.371558 
z
" style="fill:#f0f0f0;"/>
    <path clip-path="url(#pdacc9a2467)" d="M 98.440014 280.585797 
L 100.828557 278.908712 
L 98.440014 277.650898 
L 97.245742 278.908712 
z
" style="fill:#f0f0f0;"/>
    <path clip-path="url(#pdacc9a2467)" d="M 132.473358 279.914963 
L 137.250446 278.908712 
L 139.280027 277.839928 
L 141.309608 278.908712 
L 146.086696 280.166526 
L 150.863784 278.908712 
L 152.893365 277.839928 
L 153.908156 278.908712 
L 159.700034 280.942058 
L 166.506703 280.166526 
L 168.895247 278.908712 
L 171.283791 271.73989 
L 166.506703 270.062804 
L 159.700034 269.224262 
L 155.281909 264.571067 
L 152.893365 263.564816 
L 150.504821 264.571067 
L 147.101487 271.73989 
L 146.086696 273.877456 
L 145.071906 271.73989 
L 139.280027 268.68987 
L 133.488149 271.73989 
L 132.473358 273.877456 
L 131.458568 271.73989 
L 125.666689 268.68987 
L 118.86002 268.68987 
L 112.053351 270.733638 
L 110.460989 271.73989 
L 112.053351 274.255517 
L 118.86002 275.806582 
L 125.666689 275.806582 
L 130.084814 278.908712 
z
" style="fill:#f0f0f0;"/>
   </g>
   <g id="PathCollection_4">
    <path clip-path="url(#pdacc9a2467)" d="M 70.177203 293.246356 
L 70.721741 286.077534 
L 71.213338 284.465441 
L 76.372108 278.908712 
L 77.941824 271.73989 
L 78.020007 271.6102 
L 84.580528 264.571067 
L 84.826676 264.015057 
L 90.944429 257.402245 
L 91.633345 255.830177 
L 96.947363 250.233423 
L 98.440014 246.904338 
L 102.571877 243.064601 
L 105.246683 240.046258 
L 112.053351 236.461847 
L 118.86002 238.442673 
L 125.666689 237.379952 
L 126.98781 235.895779 
L 132.473358 232.594402 
L 136.281431 228.726957 
L 139.280027 225.786621 
L 144.131331 221.558135 
L 146.086696 219.96376 
L 152.397388 214.389313 
L 152.893365 213.951199 
L 159.700034 210.69177 
L 163.623746 207.220491 
L 166.506703 205.095048 
L 173.313372 200.114679 
L 173.378638 200.051669 
L 180.120041 193.543259 
L 181.62496 192.882846 
L 186.92671 190.556249 
L 193.733379 186.594574 
L 200.540048 185.777035 
L 200.683633 185.714024 
L 207.346716 183.764692 
L 214.153385 181.808978 
L 218.285248 178.545202 
L 220.960054 176.91994 
L 225.847601 171.37638 
L 227.766723 170.505696 
L 234.138823 164.207558 
L 234.573392 162.46261 
L 237.86931 157.038736 
L 234.573392 153.567456 
L 227.766723 154.071667 
L 221.497525 149.869914 
L 226.722894 142.701092 
L 227.766723 141.923491 
L 233.620897 135.53227 
L 234.573392 135.088156 
L 240.925301 128.363448 
L 238.54881 121.194625 
L 234.573392 117.007693 
L 227.766723 114.998841 
L 220.960054 114.950189 
L 214.153385 114.906171 
L 207.346716 114.070808 
L 200.540048 114.170239 
L 193.733379 116.12668 
L 188.921454 121.194625 
L 186.92671 121.815019 
L 180.709093 128.363448 
L 180.120041 128.772468 
L 173.526684 135.53227 
L 173.313372 135.749049 
L 166.506703 137.458073 
L 161.52855 142.701092 
L 159.700034 144.216478 
L 154.332197 149.869914 
L 152.893365 150.832816 
L 147.000954 157.038736 
L 146.086696 157.83562 
L 140.036655 164.207558 
L 139.280027 164.977879 
L 132.940623 171.37638 
L 132.473358 171.860093 
L 125.90128 178.545202 
L 125.666689 178.82163 
L 119.057041 185.714024 
L 118.86002 185.955307 
L 112.205062 192.882846 
L 112.053351 193.05052 
L 105.246683 198.339162 
L 103.485188 200.051669 
L 98.440014 202.108548 
L 91.633345 205.187144 
L 89.589152 207.220491 
L 85.773417 214.389313 
L 84.826676 217.181229 
L 82.639416 221.558135 
L 79.188168 228.726957 
L 78.020007 231.421931 
L 74.451822 235.895779 
L 71.541706 243.064601 
L 71.213338 244.052713 
L 66.473416 250.233423 
L 64.811943 257.402245 
L 64.406669 258.576046 
L 64.406669 260.287871 
L 65.402978 257.402245 
L 68.723897 250.233423 
L 71.213338 246.98727 
L 72.516914 243.064601 
L 76.792322 235.895779 
L 78.020007 234.356489 
L 80.460179 228.726957 
L 84.826676 222.116155 
L 85.140649 221.558135 
L 87.863149 214.389313 
L 91.633345 208.537621 
L 93.031065 207.220491 
L 98.440014 204.096475 
L 105.246683 200.686558 
L 105.738453 200.051669 
L 112.053351 193.811331 
L 112.893445 192.882846 
L 118.86002 186.671885 
L 119.642166 185.714024 
L 125.666689 179.431785 
L 126.41909 178.545202 
L 132.473358 172.386809 
L 133.449427 171.37638 
L 139.280027 165.491427 
L 140.541073 164.207558 
L 146.086696 158.366876 
L 147.610459 157.038736 
L 152.893365 151.47475 
L 155.291419 149.869914 
L 159.700034 145.226736 
L 162.747561 142.701092 
L 166.506703 138.741942 
L 173.313372 136.019337 
L 173.79265 135.53227 
L 180.120041 129.045148 
L 181.101794 128.363448 
L 186.92671 122.228614 
L 190.251284 121.194625 
L 193.733379 117.527264 
L 200.540048 114.266529 
L 207.346716 114.10081 
L 214.153385 115.493082 
L 220.960054 115.566446 
L 227.766723 115.647533 
L 234.573392 118.995619 
L 236.66131 121.194625 
L 240.622127 128.363448 
L 234.573392 134.767189 
L 232.932514 135.53227 
L 227.766723 141.171958 
L 225.714058 142.701092 
L 220.960054 148.751148 
L 220.080952 149.869914 
L 220.960054 151.858831 
L 227.766723 156.872835 
L 234.573392 156.032485 
L 235.52881 157.038736 
L 234.573392 158.611003 
L 233.179601 164.207558 
L 227.766723 169.557608 
L 223.757868 171.37638 
L 220.960054 174.549721 
L 214.384414 178.545202 
L 214.153385 178.727693 
L 207.346716 180.341041 
L 200.540048 181.909675 
L 193.733379 182.133973 
L 186.92671 185.554069 
L 186.767603 185.714024 
L 180.120041 190.964962 
L 177.120751 192.882846 
L 173.313372 196.670025 
L 170.561249 200.051669 
L 166.506703 203.040858 
L 160.837436 207.220491 
L 159.700034 208.226742 
L 152.893365 211.963273 
L 150.146906 214.389313 
L 146.086696 217.975834 
L 141.69331 221.558135 
L 139.280027 223.661597 
L 134.114301 228.726957 
L 132.473358 230.393484 
L 125.666689 234.021345 
L 118.86002 235.539518 
L 112.053351 234.586004 
L 105.246683 235.87458 
L 105.22812 235.895779 
L 98.671042 243.064601 
L 98.440014 243.279296 
L 95.322015 250.233423 
L 91.633345 254.118352 
L 90.194269 257.402245 
L 84.826676 263.204192 
L 84.221555 264.571067 
L 78.020007 271.225039 
L 77.709631 271.73989 
L 75.07183 278.908712 
L 71.213338 283.064856 
L 70.294642 286.077534 
L 69.277011 293.246356 
L 64.406669 299.095753 
L 64.406669 300.176906 
z
" style="fill:#d3d3d3;"/>
    <path clip-path="url(#pdacc9a2467)" d="M 227.766723 275.371558 
L 231.012093 271.73989 
L 227.766723 267.589411 
L 223.169117 271.73989 
z
" style="fill:#d3d3d3;"/>
   </g>
   <g id="PathCollection_5">
    <path clip-path="url(#pdacc9a2467)" d="M 69.277011 293.246356 
L 70.294642 286.077534 
L 71.213338 283.064856 
L 75.07183 278.908712 
L 77.709631 271.73989 
L 78.020007 271.225039 
L 84.221555 264.571067 
L 84.826676 263.204192 
L 90.194269 257.402245 
L 91.633345 254.118352 
L 95.322015 250.233423 
L 98.440014 243.279296 
L 98.671042 243.064601 
L 105.22812 235.895779 
L 105.246683 235.87458 
L 112.053351 234.586004 
L 118.86002 235.539518 
L 125.666689 234.021345 
L 132.473358 230.393484 
L 134.114301 228.726957 
L 139.280027 223.661597 
L 141.69331 221.558135 
L 146.086696 217.975834 
L 150.146906 214.389313 
L 152.893365 211.963273 
L 159.700034 208.226742 
L 160.837436 207.220491 
L 166.506703 203.040858 
L 170.561249 200.051669 
L 173.313372 196.670025 
L 177.120751 192.882846 
L 180.120041 190.964962 
L 186.767603 185.714024 
L 186.92671 185.554069 
L 193.733379 182.133973 
L 200.540048 181.909675 
L 207.346716 180.341041 
L 214.153385 178.727693 
L 214.384414 178.545202 
L 220.960054 174.549721 
L 223.757868 171.37638 
L 227.766723 169.557608 
L 233.179601 164.207558 
L 234.573392 158.611003 
L 235.52881 157.038736 
L 234.573392 156.032485 
L 227.766723 156.872835 
L 220.960054 151.858831 
L 220.080952 149.869914 
L 220.960054 148.751148 
L 225.714058 142.701092 
L 227.766723 141.171958 
L 232.932514 135.53227 
L 234.573392 134.767189 
L 240.622127 128.363448 
L 236.66131 121.194625 
L 234.573392 118.995619 
L 227.766723 115.647533 
L 220.960054 115.566446 
L 214.153385 115.493082 
L 207.346716 114.10081 
L 200.540048 114.266529 
L 193.733379 117.527264 
L 190.251284 121.194625 
L 186.92671 122.228614 
L 181.101794 128.363448 
L 180.120041 129.045148 
L 173.79265 135.53227 
L 173.313372 136.019337 
L 166.506703 138.741942 
L 162.747561 142.701092 
L 159.700034 145.226736 
L 155.291419 149.869914 
L 152.893365 151.47475 
L 147.610459 157.038736 
L 146.086696 158.366876 
L 140.541073 164.207558 
L 139.280027 165.491427 
L 133.449427 171.37638 
L 132.473358 172.386809 
L 126.41909 178.545202 
L 125.666689 179.431785 
L 119.642166 185.714024 
L 118.86002 186.671885 
L 112.893445 192.882846 
L 112.053351 193.811331 
L 105.738453 200.051669 
L 105.246683 200.686558 
L 98.440014 204.096475 
L 93.031065 207.220491 
L 91.633345 208.537621 
L 87.863149 214.389313 
L 85.140649 221.558135 
L 84.826676 222.116155 
L 80.460179 228.726957 
L 78.020007 234.356489 
L 76.792322 235.895779 
L 72.516914 243.064601 
L 71.213338 246.98727 
L 68.723897 250.233423 
L 65.402978 257.402245 
L 64.406669 260.287871 
L 64.406669 263.026791 
L 66.348635 257.402245 
L 71.213338 250.639182 
L 71.478426 250.233423 
L 74.077248 243.064601 
L 78.020007 237.402053 
L 78.735097 235.895779 
L 82.495397 228.726957 
L 84.826676 225.197441 
L 86.874353 221.558135 
L 91.206722 214.389313 
L 91.633345 213.727154 
L 98.440014 207.262315 
L 98.478802 207.220491 
L 105.246683 202.276898 
L 106.970296 200.051669 
L 112.053351 195.028629 
L 113.994857 192.882846 
L 118.86002 187.81841 
L 120.578367 185.714024 
L 125.666689 180.408034 
L 127.247586 178.545202 
L 132.473358 173.229554 
L 134.263514 171.37638 
L 139.280027 166.313103 
L 141.348142 164.207558 
L 146.086696 159.216886 
L 148.585668 157.038736 
L 152.893365 152.501845 
L 156.826173 149.869914 
L 159.700034 146.843148 
L 164.697978 142.701092 
L 166.506703 140.796132 
L 173.313372 136.451798 
L 174.218196 135.53227 
L 180.120041 129.481436 
L 181.730117 128.363448 
L 186.92671 122.890366 
L 192.379012 121.194625 
L 193.733379 119.768199 
L 200.540048 114.420593 
L 207.346716 114.148815 
L 214.153385 116.432141 
L 220.960054 116.552457 
L 227.766723 116.685439 
L 234.121915 121.194625 
L 234.573392 121.382477 
L 240.137049 128.363448 
L 234.573392 134.253642 
L 231.831102 135.53227 
L 227.766723 139.969505 
L 224.099919 142.701092 
L 220.960054 146.696958 
L 218.466814 149.869914 
L 220.960054 155.510725 
L 223.021745 157.038736 
L 227.766723 159.016889 
L 231.644847 164.207558 
L 227.766723 168.040668 
L 220.960054 166.01162 
L 220.389079 164.207558 
L 218.783825 157.038736 
L 214.153385 155.247256 
L 211.838165 157.038736 
L 207.346716 162.199193 
L 204.8296 164.207558 
L 200.540048 168.91358 
L 198.461483 171.37638 
L 193.733379 176.75442 
L 190.6971 178.545202 
L 186.92671 181.0722 
L 182.309507 185.714024 
L 180.120041 187.443493 
L 173.551642 185.714024 
L 173.313372 185.421252 
L 173.075101 185.714024 
L 168.49761 192.882846 
L 166.506703 197.076516 
L 165.094276 200.051669 
L 159.700034 202.324167 
L 155.598 207.220491 
L 152.893365 208.782591 
L 146.546136 214.389313 
L 146.086696 214.795152 
L 139.280027 217.79806 
L 136.03446 221.558135 
L 132.473358 224.731696 
L 126.993961 228.726957 
L 125.666689 229.326053 
L 118.86002 232.252813 
L 112.053351 232.181099 
L 105.246683 235.280597 
L 104.708009 235.895779 
L 98.440014 242.534147 
L 98.039327 243.064601 
L 92.721459 250.233423 
L 91.633345 251.379431 
L 88.994012 257.402245 
L 84.826676 261.906809 
L 83.6472 264.571067 
L 78.020007 270.608782 
L 77.338123 271.73989 
L 72.991385 278.908712 
L 71.213338 280.823921 
L 69.611285 286.077534 
L 67.836702 293.246356 
L 64.406669 297.365908 
L 64.406669 299.095753 
z
" style="fill:#b8b8b8;"/>
    <path clip-path="url(#pdacc9a2467)" d="M 125.666689 217.281678 
L 130.766866 214.389313 
L 125.666689 214.141939 
L 125.415272 214.389313 
z
" style="fill:#b8b8b8;"/>
    <path clip-path="url(#pdacc9a2467)" d="M 132.473358 212.592026 
L 137.573535 207.220491 
L 132.473358 206.962951 
L 132.238482 207.220491 
z
" style="fill:#b8b8b8;"/>
    <path clip-path="url(#pdacc9a2467)" d="M 139.280027 204.704289 
L 142.041015 200.051669 
L 139.280027 199.89554 
L 139.126639 200.051669 
z
" style="fill:#b8b8b8;"/>
    <path clip-path="url(#pdacc9a2467)" d="M 146.086696 197.429555 
L 150.403715 192.882846 
L 146.086696 192.554473 
L 145.722272 192.882846 
z
" style="fill:#b8b8b8;"/>
    <path clip-path="url(#pdacc9a2467)" d="M 152.893365 189.474099 
L 158.843572 185.714024 
L 152.893365 185.549109 
L 152.691663 185.714024 
z
" style="fill:#b8b8b8;"/>
    <path clip-path="url(#pdacc9a2467)" d="M 159.700034 184.631587 
L 162.589491 178.545202 
L 159.700034 178.438797 
L 159.572745 178.545202 
z
" style="fill:#b8b8b8;"/>
   </g>
   <g id="PathCollection_6">
    <path clip-path="url(#pdacc9a2467)" d="M 67.836702 293.246356 
L 69.611285 286.077534 
L 71.213338 280.823921 
L 72.991385 278.908712 
L 77.338123 271.73989 
L 78.020007 270.608782 
L 83.6472 264.571067 
L 84.826676 261.906809 
L 88.994012 257.402245 
L 91.633345 251.379431 
L 92.721459 250.233423 
L 98.039327 243.064601 
L 98.440014 242.534147 
L 104.708009 235.895779 
L 105.246683 235.280597 
L 112.053351 232.181099 
L 118.86002 232.252813 
L 125.666689 229.326053 
L 126.993961 228.726957 
L 132.473358 224.731696 
L 136.03446 221.558135 
L 139.280027 217.79806 
L 146.086696 214.795152 
L 146.546136 214.389313 
L 152.893365 208.782591 
L 155.598 207.220491 
L 159.700034 202.324167 
L 165.094276 200.051669 
L 166.506703 197.076516 
L 168.49761 192.882846 
L 173.075101 185.714024 
L 173.313372 185.421252 
L 173.551642 185.714024 
L 180.120041 187.443493 
L 182.309507 185.714024 
L 186.92671 181.0722 
L 190.6971 178.545202 
L 193.733379 176.75442 
L 198.461483 171.37638 
L 200.540048 168.91358 
L 204.8296 164.207558 
L 207.346716 162.199193 
L 211.838165 157.038736 
L 214.153385 155.247256 
L 218.783825 157.038736 
L 220.389079 164.207558 
L 220.960054 166.01162 
L 227.766723 168.040668 
L 231.644847 164.207558 
L 227.766723 159.016889 
L 223.021745 157.038736 
L 220.960054 155.510725 
L 218.466814 149.869914 
L 220.960054 146.696958 
L 224.099919 142.701092 
L 227.766723 139.969505 
L 231.831102 135.53227 
L 234.573392 134.253642 
L 240.137049 128.363448 
L 234.573392 121.382477 
L 234.121915 121.194625 
L 227.766723 116.685439 
L 220.960054 116.552457 
L 214.153385 116.432141 
L 207.346716 114.148815 
L 200.540048 114.420593 
L 193.733379 119.768199 
L 192.379012 121.194625 
L 186.92671 122.890366 
L 181.730117 128.363448 
L 180.120041 129.481436 
L 174.218196 135.53227 
L 173.313372 136.451798 
L 166.506703 140.796132 
L 164.697978 142.701092 
L 159.700034 146.843148 
L 156.826173 149.869914 
L 152.893365 152.501845 
L 148.585668 157.038736 
L 146.086696 159.216886 
L 141.348142 164.207558 
L 139.280027 166.313103 
L 134.263514 171.37638 
L 132.473358 173.229554 
L 127.247586 178.545202 
L 125.666689 180.408034 
L 120.578367 185.714024 
L 118.86002 187.81841 
L 113.994857 192.882846 
L 112.053351 195.028629 
L 106.970296 200.051669 
L 105.246683 202.276898 
L 98.478802 207.220491 
L 98.440014 207.262315 
L 91.633345 213.727154 
L 91.206722 214.389313 
L 86.874353 221.558135 
L 84.826676 225.197441 
L 82.495397 228.726957 
L 78.735097 235.895779 
L 78.020007 237.402053 
L 74.077248 243.064601 
L 71.478426 250.233423 
L 71.213338 250.639182 
L 66.348635 257.402245 
L 64.406669 263.026791 
L 64.406669 264.571067 
L 64.406669 271.73989 
L 64.406669 278.908712 
L 64.406669 286.077534 
L 64.406669 293.246356 
L 64.406669 297.365908 
z
M 125.415272 214.389313 
L 125.666689 214.141939 
L 130.766866 214.389313 
L 125.666689 217.281678 
z
M 132.238482 207.220491 
L 132.473358 206.962951 
L 137.573535 207.220491 
L 132.473358 212.592026 
z
M 139.126639 200.051669 
L 139.280027 199.89554 
L 142.041015 200.051669 
L 139.280027 204.704289 
z
M 145.722272 192.882846 
L 146.086696 192.554473 
L 150.403715 192.882846 
L 146.086696 197.429555 
z
M 152.691663 185.714024 
L 152.893365 185.549109 
L 158.843572 185.714024 
L 152.893365 189.474099 
z
M 159.572745 178.545202 
L 159.700034 178.438797 
L 162.589491 178.545202 
L 159.700034 184.631587 
z
" style="fill:#a0a0a0;"/>
   </g>
   <g id="PathCollection_7">
    <path clip-path="url(#pdacc9a2467)" d="M 67.214498 307.584 
L 70.419331 307.584 
L 73.624164 307.584 
L 76.828997 307.584 
L 80.033829 307.584 
L 83.238662 307.584 
L 86.443495 307.584 
L 89.648328 307.584 
L 92.853161 307.584 
L 96.057993 307.584 
L 99.262826 307.584 
L 102.467659 307.584 
L 105.672492 307.584 
L 108.877324 307.584 
L 112.082157 307.584 
L 115.28699 307.584 
L 118.491823 307.584 
L 121.696656 307.584 
L 124.901488 307.584 
L 128.106321 307.584 
L 128.446984 307.584 
L 129.622506 306.610918 
L 130.493917 305.637835 
L 130.902179 304.664753 
L 130.855593 303.69167 
L 130.549353 302.718588 
L 129.860407 301.745505 
L 128.869891 300.772423 
L 128.106321 300.168194 
L 127.554436 299.79934 
L 125.841548 298.826258 
L 124.901488 298.428197 
L 123.742288 297.853175 
L 121.696656 296.921251 
L 121.604798 296.880093 
L 119.395632 295.90701 
L 118.491823 295.552399 
L 116.798554 294.933928 
L 115.28699 294.457269 
L 113.648699 293.960846 
L 112.082157 293.453302 
L 110.62036 292.987763 
L 108.877324 292.366269 
L 107.814657 292.014681 
L 105.672492 291.361777 
L 104.249995 291.041598 
L 102.467659 290.644963 
L 100.239359 290.068516 
L 99.262826 289.788231 
L 96.057993 289.196958 
L 95.443239 289.095433 
L 92.853161 288.70078 
L 89.648328 288.298288 
L 87.449387 288.122351 
L 86.443495 288.04575 
L 83.238662 287.932157 
L 80.033829 287.94072 
L 76.828997 288.075055 
L 76.051607 288.122351 
L 73.624164 288.277046 
L 70.419331 288.624822 
L 70.013155 289.095433 
L 69.275449 290.068516 
L 68.50323 291.041598 
L 67.79069 292.014681 
L 67.214498 292.908767 
L 67.201852 292.987763 
L 67.027668 293.960846 
L 66.851609 294.933928 
L 66.706997 295.90701 
L 66.582429 296.880093 
L 66.465308 297.853175 
L 66.359847 298.826258 
L 66.283271 299.79934 
L 66.219318 300.772423 
L 66.168363 301.745505 
L 66.132922 302.718588 
L 66.117168 303.69167 
L 66.114771 304.664753 
L 66.135773 305.637835 
L 66.180601 306.610918 
L 66.241073 307.584 
z
" style="fill:#4d94ff;fill-opacity:0.2;"/>
   </g>
   <g id="PathCollection_8">
    <path clip-path="url(#pdacc9a2467)" d="M 72.868877 307.584 
L 75.922652 307.584 
L 78.976428 307.584 
L 82.030203 307.584 
L 85.083979 307.584 
L 88.137754 307.584 
L 91.191529 307.584 
L 94.245305 307.584 
L 97.29908 307.584 
L 100.352855 307.584 
L 103.406631 307.584 
L 106.460406 307.584 
L 109.514182 307.584 
L 112.567957 307.584 
L 115.621732 307.584 
L 118.675508 307.584 
L 121.729283 307.584 
L 124.783059 307.584 
L 127.836834 307.584 
L 130.890609 307.584 
L 133.944385 307.584 
L 136.99816 307.584 
L 140.051936 307.584 
L 143.105711 307.584 
L 146.159486 307.584 
L 149.213262 307.584 
L 152.267037 307.584 
L 155.320813 307.584 
L 156.857978 307.584 
L 158.374588 306.714557 
L 160.363327 305.612872 
L 161.428363 305.02939 
L 163.623974 303.641744 
L 164.482139 303.026035 
L 166.263088 301.670615 
L 167.535914 300.645757 
L 168.694557 299.699487 
L 170.589689 298.053753 
L 170.937048 297.728359 
L 172.386028 295.757231 
L 173.643465 294.459103 
L 174.182119 293.786102 
L 175.848373 291.814974 
L 176.69724 290.586625 
L 177.210764 289.843846 
L 178.383835 287.872718 
L 179.420831 285.901589 
L 179.751016 284.667464 
L 179.927601 283.930461 
L 180.22891 281.959333 
L 180.22891 279.988205 
L 179.751016 278.108225 
L 179.725126 278.017077 
L 179.177378 276.045948 
L 178.3112 274.07482 
L 177.40341 272.103692 
L 176.69724 270.616722 
L 176.469281 270.132564 
L 175.46258 268.161435 
L 174.109532 266.190307 
L 173.643465 265.609571 
L 172.292899 264.219179 
L 170.589689 262.789483 
L 169.891298 262.248051 
L 167.535914 260.54261 
L 167.162104 260.276923 
L 164.482139 258.323389 
L 164.456494 258.305794 
L 161.428363 256.93383 
L 159.878037 256.334666 
L 158.374588 255.678361 
L 155.432316 254.363538 
L 155.320813 254.329092 
L 152.267037 253.535505 
L 149.213262 252.812653 
L 147.390878 252.39241 
L 146.159486 252.116587 
L 143.105711 251.445287 
L 140.051936 250.877681 
L 137.703943 250.421281 
L 136.99816 250.298773 
L 133.944385 249.837537 
L 130.890609 249.414928 
L 127.836834 248.979441 
L 124.783059 248.474554 
L 124.571451 248.450153 
L 121.729283 248.106777 
L 118.675508 247.567499 
L 115.621732 247.226717 
L 112.567957 247.024531 
L 109.514182 246.889963 
L 106.460406 246.889963 
L 103.406631 247.110979 
L 100.352855 247.367997 
L 97.29908 247.720139 
L 94.245305 248.182319 
L 92.785078 248.450153 
L 91.191529 248.731768 
L 88.137754 249.499134 
L 85.083979 250.186121 
L 84.220093 250.421281 
L 82.030203 251.098595 
L 78.976428 252.231939 
L 78.547862 252.39241 
L 75.922652 253.423577 
L 73.492434 254.363538 
L 72.868877 254.715581 
L 70.520423 256.334666 
L 69.815102 256.773898 
L 69.341752 258.305794 
L 68.955613 260.276923 
L 68.572367 262.248051 
L 68.225231 264.219179 
L 67.947333 266.190307 
L 67.714507 268.161435 
L 67.541279 270.132564 
L 67.383697 272.103692 
L 67.231548 274.07482 
L 67.086373 276.045948 
L 66.994569 278.017077 
L 66.90172 279.988205 
L 66.90172 281.959333 
L 66.957524 283.930461 
L 67.04557 285.901589 
L 67.219374 287.872718 
L 67.415985 289.843846 
L 67.648122 291.814974 
L 67.934842 293.786102 
L 68.211599 295.757231 
L 68.423705 297.728359 
L 68.739977 299.699487 
L 69.083948 301.670615 
L 69.457771 303.641744 
L 69.815102 305.254889 
L 70.220624 305.612872 
L 72.457761 307.584 
z
" style="fill:#ff8533;fill-opacity:0.2;"/>
   </g>
   <g id="PathCollection_9">
    <path clip-path="url(#pdacc9a2467)" d="M 63.245493 307.584 
L 66.068239 307.584 
L 68.890986 307.584 
L 71.713732 307.584 
L 74.536479 307.584 
L 77.359225 307.584 
L 80.181972 307.584 
L 83.004718 307.584 
L 85.827464 307.584 
L 88.650211 307.584 
L 91.472957 307.584 
L 94.295704 307.584 
L 97.11845 307.584 
L 99.941197 307.584 
L 102.763943 307.584 
L 105.58669 307.584 
L 108.409436 307.584 
L 111.232182 307.584 
L 114.054929 307.584 
L 116.877675 307.584 
L 119.700422 307.584 
L 122.523168 307.584 
L 125.345915 307.584 
L 128.168661 307.584 
L 130.991408 307.584 
L 133.814154 307.584 
L 136.6369 307.584 
L 139.459647 307.584 
L 142.282393 307.584 
L 145.10514 307.584 
L 147.927886 307.584 
L 150.750633 307.584 
L 153.573379 307.584 
L 156.396126 307.584 
L 159.218872 307.584 
L 162.041619 307.584 
L 164.864365 307.584 
L 165.840634 307.584 
L 166.699574 306.496517 
L 166.849691 305.409034 
L 166.353754 304.321551 
L 165.527599 303.234068 
L 164.864365 302.745929 
L 163.920018 302.146585 
L 162.041619 301.435544 
L 161.093244 301.059102 
L 159.218872 300.30781 
L 158.382041 299.971619 
L 156.396126 299.325302 
L 154.839534 298.884136 
L 153.573379 298.570232 
L 150.750633 297.989644 
L 149.455432 297.796653 
L 147.927886 297.586201 
L 145.10514 297.086349 
L 142.475936 296.70917 
L 142.282393 296.680008 
L 139.459647 296.344202 
L 136.6369 295.99771 
L 133.814154 295.70602 
L 132.951712 295.621687 
L 130.991408 295.412533 
L 128.168661 295.121078 
L 125.345915 294.816915 
L 122.962564 294.534204 
L 122.523168 294.49241 
L 119.700422 294.252954 
L 116.877675 294.034278 
L 114.054929 293.801907 
L 111.232182 293.582777 
L 109.498916 293.446721 
L 108.409436 293.348546 
L 105.58669 293.11489 
L 102.763943 292.951161 
L 99.941197 292.725521 
L 97.11845 292.550821 
L 94.295704 292.407622 
L 93.315377 292.359239 
L 91.472957 292.249347 
L 88.650211 292.068416 
L 85.827464 291.970852 
L 83.004718 291.917225 
L 80.181972 291.860638 
L 77.359225 291.860638 
L 74.536479 291.925694 
L 71.713732 292.048197 
L 68.890986 292.23126 
L 67.280836 292.359239 
L 66.068239 292.439298 
L 65.344384 293.446721 
L 64.574824 294.534204 
L 64.038787 295.621687 
L 63.522016 296.70917 
L 63.245493 297.312941 
L 63.157199 297.796653 
L 62.98622 298.884136 
L 62.848006 299.971619 
L 62.741879 301.059102 
L 62.639263 302.146585 
L 62.579751 303.234068 
L 62.546974 304.321551 
L 62.527298 305.409034 
L 62.533254 306.496517 
L 62.567331 307.584 
z
" style="fill:#00b300;fill-opacity:0.2;"/>
   </g>
   <g id="PathCollection_10">
    <path clip-path="url(#pdacc9a2467)" d="M 72.877623 307.584 
L 80.516434 307.584 
L 88.155246 307.584 
L 95.794057 307.584 
L 103.432868 307.584 
L 111.07168 307.584 
L 118.710491 307.584 
L 126.349302 307.584 
L 133.988114 307.584 
L 141.626925 307.584 
L 149.265737 307.584 
L 156.904548 307.584 
L 164.543359 307.584 
L 172.182171 307.584 
L 179.820982 307.584 
L 187.459793 307.584 
L 195.098605 307.584 
L 202.737416 307.584 
L 210.376228 307.584 
L 218.015039 307.584 
L 225.65385 307.584 
L 233.292662 307.584 
L 240.931473 307.584 
L 248.570284 307.584 
L 256.209096 307.584 
L 263.847907 307.584 
L 271.486719 307.584 
L 279.12553 307.584 
L 286.764341 307.584 
L 294.403153 307.584 
L 302.041964 307.584 
L 309.680775 307.584 
L 317.319587 307.584 
L 324.958398 307.584 
L 332.59721 307.584 
L 340.236021 307.584 
L 347.874832 307.584 
L 355.513644 307.584 
L 363.152455 307.584 
L 370.791266 307.584 
L 378.430078 307.584 
L 386.068889 307.584 
L 393.707701 307.584 
L 401.346512 307.584 
L 408.985323 307.584 
L 416.624135 307.584 
L 424.262946 307.584 
L 431.901757 307.584 
L 431.901757 306.330834 
L 431.901757 305.077667 
L 431.901757 303.824501 
L 431.901757 302.571334 
L 431.901757 301.318168 
L 431.901757 300.065001 
L 431.901757 298.811835 
L 431.901757 297.558668 
L 431.901757 296.571457 
L 424.262946 296.571457 
L 416.624135 296.571457 
L 408.985323 296.571457 
L 401.346512 296.571457 
L 393.707701 296.571457 
L 386.068889 296.571457 
L 378.430078 296.571457 
L 370.791266 296.571457 
L 363.152455 296.571457 
L 355.513644 296.571457 
L 347.874832 296.571457 
L 340.236021 296.571457 
L 332.59721 296.571457 
L 324.958398 296.571457 
L 317.319587 296.571457 
L 309.680775 296.571457 
L 302.041964 296.571457 
L 294.403153 296.571457 
L 286.764341 296.571457 
L 279.12553 296.571457 
L 271.486719 296.571457 
L 263.847907 296.571457 
L 256.209096 296.571457 
L 248.570284 296.571457 
L 240.931473 296.571457 
L 233.292662 296.571457 
L 225.65385 296.571457 
L 218.015039 296.571457 
L 210.376228 296.571457 
L 202.737416 296.571457 
L 195.098605 296.571457 
L 193.354799 296.305502 
L 187.459793 295.461234 
L 185.019139 295.052336 
L 179.820982 294.345801 
L 175.022375 293.799169 
L 172.182171 293.444078 
L 164.543359 292.753435 
L 161.302032 292.546003 
L 156.904548 292.232384 
L 149.265737 291.93146 
L 141.626925 291.784524 
L 133.988114 291.753523 
L 126.349302 291.869148 
L 118.710491 292.146934 
L 111.07168 292.457228 
L 109.071462 292.546003 
L 103.432868 292.767359 
L 95.794057 293.168863 
L 88.155246 293.684978 
L 86.379366 293.799169 
L 80.516434 294.130865 
L 72.877623 294.493684 
L 72.450094 295.052336 
L 71.703919 296.305502 
L 71.060863 297.558668 
L 70.389587 298.811835 
L 69.960844 300.065001 
L 69.609916 301.318168 
L 69.297774 302.571334 
L 69.108481 303.824501 
L 69.025115 305.077667 
L 69.023924 306.330834 
L 69.096835 307.584 
z
" style="fill:#ffff33;fill-opacity:0.2;"/>
   </g>
   <g id="matplotlib.axis_1">
    <g id="xtick_1">
     <g id="line2d_1">
      <defs>
       <path d="M 0 0 
L 0 3.5 
" id="meda0abff3e" style="stroke:#000000;stroke-width:0.8;"/>
      </defs>
      <g>
       <use style="stroke:#000000;stroke-width:0.8;" x="57.6" xlink:href="#meda0abff3e" y="307.584"/>
      </g>
     </g>
     <g id="text_1">
      <!-- 0.00 -->
      <defs>
       <path d="M 31.78125 66.40625 
Q 24.171875 66.40625 20.328125 58.90625 
Q 16.5 51.421875 16.5 36.375 
Q 16.5 21.390625 20.328125 13.890625 
Q 24.171875 6.390625 31.78125 6.390625 
Q 39.453125 6.390625 43.28125 13.890625 
Q 47.125 21.390625 47.125 36.375 
Q 47.125 51.421875 43.28125 58.90625 
Q 39.453125 66.40625 31.78125 66.40625 
z
M 31.78125 74.21875 
Q 44.046875 74.21875 50.515625 64.515625 
Q 56.984375 54.828125 56.984375 36.375 
Q 56.984375 17.96875 50.515625 8.265625 
Q 44.046875 -1.421875 31.78125 -1.421875 
Q 19.53125 -1.421875 13.0625 8.265625 
Q 6.59375 17.96875 6.59375 36.375 
Q 6.59375 54.828125 13.0625 64.515625 
Q 19.53125 74.21875 31.78125 74.21875 
z
" id="DejaVuSans-48"/>
       <path d="M 10.6875 12.40625 
L 21 12.40625 
L 21 0 
L 10.6875 0 
z
" id="DejaVuSans-46"/>
      </defs>
      <g transform="translate(37.560938 328.261187)scale(0.18 -0.18)">
       <use xlink:href="#DejaVuSans-48"/>
       <use x="63.623047" xlink:href="#DejaVuSans-46"/>
       <use x="95.410156" xlink:href="#DejaVuSans-48"/>
       <use x="159.033203" xlink:href="#DejaVuSans-48"/>
      </g>
     </g>
    </g>
    <g id="xtick_2">
     <g id="line2d_2">
      <g>
       <use style="stroke:#000000;stroke-width:0.8;" x="93.312" xlink:href="#meda0abff3e" y="307.584"/>
      </g>
     </g>
     <g id="text_2">
      <!-- 0.25 -->
      <defs>
       <path d="M 19.1875 8.296875 
L 53.609375 8.296875 
L 53.609375 0 
L 7.328125 0 
L 7.328125 8.296875 
Q 12.9375 14.109375 22.625 23.890625 
Q 32.328125 33.6875 34.8125 36.53125 
Q 39.546875 41.84375 41.421875 45.53125 
Q 43.3125 49.21875 43.3125 52.78125 
Q 43.3125 58.59375 39.234375 62.25 
Q 35.15625 65.921875 28.609375 65.921875 
Q 23.96875 65.921875 18.8125 64.3125 
Q 13.671875 62.703125 7.8125 59.421875 
L 7.8125 69.390625 
Q 13.765625 71.78125 18.9375 73 
Q 24.125 74.21875 28.421875 74.21875 
Q 39.75 74.21875 46.484375 68.546875 
Q 53.21875 62.890625 53.21875 53.421875 
Q 53.21875 48.921875 51.53125 44.890625 
Q 49.859375 40.875 45.40625 35.40625 
Q 44.1875 33.984375 37.640625 27.21875 
Q 31.109375 20.453125 19.1875 8.296875 
z
" id="DejaVuSans-50"/>
       <path d="M 10.796875 72.90625 
L 49.515625 72.90625 
L 49.515625 64.59375 
L 19.828125 64.59375 
L 19.828125 46.734375 
Q 21.96875 47.46875 24.109375 47.828125 
Q 26.265625 48.1875 28.421875 48.1875 
Q 40.625 48.1875 47.75 41.5 
Q 54.890625 34.8125 54.890625 23.390625 
Q 54.890625 11.625 47.5625 5.09375 
Q 40.234375 -1.421875 26.90625 -1.421875 
Q 22.3125 -1.421875 17.546875 -0.640625 
Q 12.796875 0.140625 7.71875 1.703125 
L 7.71875 11.625 
Q 12.109375 9.234375 16.796875 8.0625 
Q 21.484375 6.890625 26.703125 6.890625 
Q 35.15625 6.890625 40.078125 11.328125 
Q 45.015625 15.765625 45.015625 23.390625 
Q 45.015625 31 40.078125 35.4375 
Q 35.15625 39.890625 26.703125 39.890625 
Q 22.75 39.890625 18.8125 39.015625 
Q 14.890625 38.140625 10.796875 36.28125 
z
" id="DejaVuSans-53"/>
      </defs>
      <g transform="translate(73.272938 328.261187)scale(0.18 -0.18)">
       <use xlink:href="#DejaVuSans-48"/>
       <use x="63.623047" xlink:href="#DejaVuSans-46"/>
       <use x="95.410156" xlink:href="#DejaVuSans-50"/>
       <use x="159.033203" xlink:href="#DejaVuSans-53"/>
      </g>
     </g>
    </g>
    <g id="xtick_3">
     <g id="line2d_3">
      <g>
       <use style="stroke:#000000;stroke-width:0.8;" x="129.024" xlink:href="#meda0abff3e" y="307.584"/>
      </g>
     </g>
     <g id="text_3">
      <!-- 0.50 -->
      <g transform="translate(108.984938 328.261187)scale(0.18 -0.18)">
       <use xlink:href="#DejaVuSans-48"/>
       <use x="63.623047" xlink:href="#DejaVuSans-46"/>
       <use x="95.410156" xlink:href="#DejaVuSans-53"/>
       <use x="159.033203" xlink:href="#DejaVuSans-48"/>
      </g>
     </g>
    </g>
    <g id="xtick_4">
     <g id="line2d_4">
      <g>
       <use style="stroke:#000000;stroke-width:0.8;" x="164.736" xlink:href="#meda0abff3e" y="307.584"/>
      </g>
     </g>
     <g id="text_4">
      <!-- 0.75 -->
      <defs>
       <path d="M 8.203125 72.90625 
L 55.078125 72.90625 
L 55.078125 68.703125 
L 28.609375 0 
L 18.3125 0 
L 43.21875 64.59375 
L 8.203125 64.59375 
z
" id="DejaVuSans-55"/>
      </defs>
      <g transform="translate(144.696938 328.261187)scale(0.18 -0.18)">
       <use xlink:href="#DejaVuSans-48"/>
       <use x="63.623047" xlink:href="#DejaVuSans-46"/>
       <use x="95.410156" xlink:href="#DejaVuSans-55"/>
       <use x="159.033203" xlink:href="#DejaVuSans-53"/>
      </g>
     </g>
    </g>
    <g id="xtick_5">
     <g id="line2d_5">
      <g>
       <use style="stroke:#000000;stroke-width:0.8;" x="200.448" xlink:href="#meda0abff3e" y="307.584"/>
      </g>
     </g>
     <g id="text_5">
      <!-- 1.00 -->
      <defs>
       <path d="M 12.40625 8.296875 
L 28.515625 8.296875 
L 28.515625 63.921875 
L 10.984375 60.40625 
L 10.984375 69.390625 
L 28.421875 72.90625 
L 38.28125 72.90625 
L 38.28125 8.296875 
L 54.390625 8.296875 
L 54.390625 0 
L 12.40625 0 
z
" id="DejaVuSans-49"/>
      </defs>
      <g transform="translate(180.408938 328.261187)scale(0.18 -0.18)">
       <use xlink:href="#DejaVuSans-49"/>
       <use x="63.623047" xlink:href="#DejaVuSans-46"/>
       <use x="95.410156" xlink:href="#DejaVuSans-48"/>
       <use x="159.033203" xlink:href="#DejaVuSans-48"/>
      </g>
     </g>
    </g>
    <g id="xtick_6">
     <g id="line2d_6">
      <g>
       <use style="stroke:#000000;stroke-width:0.8;" x="236.16" xlink:href="#meda0abff3e" y="307.584"/>
      </g>
     </g>
     <g id="text_6">
      <!-- 1.25 -->
      <g transform="translate(216.120937 328.261187)scale(0.18 -0.18)">
       <use xlink:href="#DejaVuSans-49"/>
       <use x="63.623047" xlink:href="#DejaVuSans-46"/>
       <use x="95.410156" xlink:href="#DejaVuSans-50"/>
       <use x="159.033203" xlink:href="#DejaVuSans-53"/>
      </g>
     </g>
    </g>
    <g id="xtick_7">
     <g id="line2d_7">
      <g>
       <use style="stroke:#000000;stroke-width:0.8;" x="271.872" xlink:href="#meda0abff3e" y="307.584"/>
      </g>
     </g>
     <g id="text_7">
      <!-- 1.50 -->
      <g transform="translate(251.832938 328.261187)scale(0.18 -0.18)">
       <use xlink:href="#DejaVuSans-49"/>
       <use x="63.623047" xlink:href="#DejaVuSans-46"/>
       <use x="95.410156" xlink:href="#DejaVuSans-53"/>
       <use x="159.033203" xlink:href="#DejaVuSans-48"/>
      </g>
     </g>
    </g>
    <g id="xtick_8">
     <g id="line2d_8">
      <g>
       <use style="stroke:#000000;stroke-width:0.8;" x="307.584" xlink:href="#meda0abff3e" y="307.584"/>
      </g>
     </g>
     <g id="text_8">
      <!-- 1.75 -->
      <g transform="translate(287.544938 328.261187)scale(0.18 -0.18)">
       <use xlink:href="#DejaVuSans-49"/>
       <use x="63.623047" xlink:href="#DejaVuSans-46"/>
       <use x="95.410156" xlink:href="#DejaVuSans-55"/>
       <use x="159.033203" xlink:href="#DejaVuSans-53"/>
      </g>
     </g>
    </g>
    <g id="xtick_9">
     <g id="line2d_9">
      <g>
       <use style="stroke:#000000;stroke-width:0.8;" x="343.296" xlink:href="#meda0abff3e" y="307.584"/>
      </g>
     </g>
     <g id="text_9">
      <!-- 2.00 -->
      <g transform="translate(323.256938 328.261187)scale(0.18 -0.18)">
       <use xlink:href="#DejaVuSans-50"/>
       <use x="63.623047" xlink:href="#DejaVuSans-46"/>
       <use x="95.410156" xlink:href="#DejaVuSans-48"/>
       <use x="159.033203" xlink:href="#DejaVuSans-48"/>
      </g>
     </g>
    </g>
   </g>
   <g id="matplotlib.axis_2">
    <g id="ytick_1">
     <g id="line2d_10">
      <defs>
       <path d="M 0 0 
L -3.5 0 
" id="m9de3dd0acd" style="stroke:#000000;stroke-width:0.8;"/>
      </defs>
      <g>
       <use style="stroke:#000000;stroke-width:0.8;" x="57.6" xlink:href="#m9de3dd0acd" y="307.584"/>
      </g>
     </g>
     <g id="text_10">
      <!-- 0.0 -->
      <g transform="translate(21.974375 314.422594)scale(0.18 -0.18)">
       <use xlink:href="#DejaVuSans-48"/>
       <use x="63.623047" xlink:href="#DejaVuSans-46"/>
       <use x="95.410156" xlink:href="#DejaVuSans-48"/>
      </g>
     </g>
    </g>
    <g id="ytick_2">
     <g id="line2d_11">
      <g>
       <use style="stroke:#000000;stroke-width:0.8;" x="57.6" xlink:href="#m9de3dd0acd" y="275.875109"/>
      </g>
     </g>
     <g id="text_11">
      <!-- 0.5 -->
      <g transform="translate(21.974375 282.713702)scale(0.18 -0.18)">
       <use xlink:href="#DejaVuSans-48"/>
       <use x="63.623047" xlink:href="#DejaVuSans-46"/>
       <use x="95.410156" xlink:href="#DejaVuSans-53"/>
      </g>
     </g>
    </g>
    <g id="ytick_3">
     <g id="line2d_12">
      <g>
       <use style="stroke:#000000;stroke-width:0.8;" x="57.6" xlink:href="#m9de3dd0acd" y="244.166217"/>
      </g>
     </g>
     <g id="text_12">
      <!-- 1.0 -->
      <g transform="translate(21.974375 251.004811)scale(0.18 -0.18)">
       <use xlink:href="#DejaVuSans-49"/>
       <use x="63.623047" xlink:href="#DejaVuSans-46"/>
       <use x="95.410156" xlink:href="#DejaVuSans-48"/>
      </g>
     </g>
    </g>
    <g id="ytick_4">
     <g id="line2d_13">
      <g>
       <use style="stroke:#000000;stroke-width:0.8;" x="57.6" xlink:href="#m9de3dd0acd" y="212.457326"/>
      </g>
     </g>
     <g id="text_13">
      <!-- 1.5 -->
      <g transform="translate(21.974375 219.29592)scale(0.18 -0.18)">
       <use xlink:href="#DejaVuSans-49"/>
       <use x="63.623047" xlink:href="#DejaVuSans-46"/>
       <use x="95.410156" xlink:href="#DejaVuSans-53"/>
      </g>
     </g>
    </g>
    <g id="ytick_5">
     <g id="line2d_14">
      <g>
       <use style="stroke:#000000;stroke-width:0.8;" x="57.6" xlink:href="#m9de3dd0acd" y="180.748434"/>
      </g>
     </g>
     <g id="text_14">
      <!-- 2.0 -->
      <g transform="translate(21.974375 187.587028)scale(0.18 -0.18)">
       <use xlink:href="#DejaVuSans-50"/>
       <use x="63.623047" xlink:href="#DejaVuSans-46"/>
       <use x="95.410156" xlink:href="#DejaVuSans-48"/>
      </g>
     </g>
    </g>
    <g id="ytick_6">
     <g id="line2d_15">
      <g>
       <use style="stroke:#000000;stroke-width:0.8;" x="57.6" xlink:href="#m9de3dd0acd" y="149.039543"/>
      </g>
     </g>
     <g id="text_15">
      <!-- 2.5 -->
      <g transform="translate(21.974375 155.878137)scale(0.18 -0.18)">
       <use xlink:href="#DejaVuSans-50"/>
       <use x="63.623047" xlink:href="#DejaVuSans-46"/>
       <use x="95.410156" xlink:href="#DejaVuSans-53"/>
      </g>
     </g>
    </g>
    <g id="ytick_7">
     <g id="line2d_16">
      <g>
       <use style="stroke:#000000;stroke-width:0.8;" x="57.6" xlink:href="#m9de3dd0acd" y="117.330652"/>
      </g>
     </g>
     <g id="text_16">
      <!-- 3.0 -->
      <defs>
       <path d="M 40.578125 39.3125 
Q 47.65625 37.796875 51.625 33 
Q 55.609375 28.21875 55.609375 21.1875 
Q 55.609375 10.40625 48.1875 4.484375 
Q 40.765625 -1.421875 27.09375 -1.421875 
Q 22.515625 -1.421875 17.65625 -0.515625 
Q 12.796875 0.390625 7.625 2.203125 
L 7.625 11.71875 
Q 11.71875 9.328125 16.59375 8.109375 
Q 21.484375 6.890625 26.8125 6.890625 
Q 36.078125 6.890625 40.9375 10.546875 
Q 45.796875 14.203125 45.796875 21.1875 
Q 45.796875 27.640625 41.28125 31.265625 
Q 36.765625 34.90625 28.71875 34.90625 
L 20.21875 34.90625 
L 20.21875 43.015625 
L 29.109375 43.015625 
Q 36.375 43.015625 40.234375 45.921875 
Q 44.09375 48.828125 44.09375 54.296875 
Q 44.09375 59.90625 40.109375 62.90625 
Q 36.140625 65.921875 28.71875 65.921875 
Q 24.65625 65.921875 20.015625 65.03125 
Q 15.375 64.15625 9.8125 62.3125 
L 9.8125 71.09375 
Q 15.4375 72.65625 20.34375 73.4375 
Q 25.25 74.21875 29.59375 74.21875 
Q 40.828125 74.21875 47.359375 69.109375 
Q 53.90625 64.015625 53.90625 55.328125 
Q 53.90625 49.265625 50.4375 45.09375 
Q 46.96875 40.921875 40.578125 39.3125 
z
" id="DejaVuSans-51"/>
      </defs>
      <g transform="translate(21.974375 124.169245)scale(0.18 -0.18)">
       <use xlink:href="#DejaVuSans-51"/>
       <use x="63.623047" xlink:href="#DejaVuSans-46"/>
       <use x="95.410156" xlink:href="#DejaVuSans-48"/>
      </g>
     </g>
    </g>
    <g id="ytick_8">
     <g id="line2d_17">
      <g>
       <use style="stroke:#000000;stroke-width:0.8;" x="57.6" xlink:href="#m9de3dd0acd" y="85.62176"/>
      </g>
     </g>
     <g id="text_17">
      <!-- 3.5 -->
      <g transform="translate(21.974375 92.460354)scale(0.18 -0.18)">
       <use xlink:href="#DejaVuSans-51"/>
       <use x="63.623047" xlink:href="#DejaVuSans-46"/>
       <use x="95.410156" xlink:href="#DejaVuSans-53"/>
      </g>
     </g>
    </g>
    <g id="ytick_9">
     <g id="line2d_18">
      <g>
       <use style="stroke:#000000;stroke-width:0.8;" x="57.6" xlink:href="#m9de3dd0acd" y="53.912869"/>
      </g>
     </g>
     <g id="text_18">
      <!-- 4.0 -->
      <defs>
       <path d="M 37.796875 64.3125 
L 12.890625 25.390625 
L 37.796875 25.390625 
z
M 35.203125 72.90625 
L 47.609375 72.90625 
L 47.609375 25.390625 
L 58.015625 25.390625 
L 58.015625 17.1875 
L 47.609375 17.1875 
L 47.609375 0 
L 37.796875 0 
L 37.796875 17.1875 
L 4.890625 17.1875 
L 4.890625 26.703125 
z
" id="DejaVuSans-52"/>
      </defs>
      <g transform="translate(21.974375 60.751463)scale(0.18 -0.18)">
       <use xlink:href="#DejaVuSans-52"/>
       <use x="63.623047" xlink:href="#DejaVuSans-46"/>
       <use x="95.410156" xlink:href="#DejaVuSans-48"/>
      </g>
     </g>
    </g>
   </g>
   <g id="LineCollection_1">
    <path clip-path="url(#pdacc9a2467)" d="M 128.446984 307.584 
L 129.622506 306.610918 
L 130.493917 305.637835 
L 130.902179 304.664753 
L 130.855593 303.69167 
L 130.549353 302.718588 
L 129.860407 301.745505 
L 128.869891 300.772423 
L 128.106321 300.168194 
L 127.554436 299.79934 
L 125.841548 298.826258 
L 124.901488 298.428197 
L 123.742288 297.853175 
L 121.696656 296.921251 
L 121.604798 296.880093 
L 119.395632 295.90701 
L 118.491823 295.552399 
L 116.798554 294.933928 
L 115.28699 294.457269 
L 113.648699 293.960846 
L 112.082157 293.453302 
L 110.62036 292.987763 
L 108.877324 292.366269 
L 107.814657 292.014681 
L 105.672492 291.361777 
L 104.249995 291.041598 
L 102.467659 290.644963 
L 100.239359 290.068516 
L 99.262826 289.788231 
L 96.057993 289.196958 
L 95.443239 289.095433 
L 92.853161 288.70078 
L 89.648328 288.298288 
L 87.449387 288.122351 
L 86.443495 288.04575 
L 83.238662 287.932157 
L 80.033829 287.94072 
L 76.828997 288.075055 
L 76.051607 288.122351 
L 73.624164 288.277046 
L 70.419331 288.624822 
L 70.013155 289.095433 
L 69.275449 290.068516 
L 68.50323 291.041598 
L 67.79069 292.014681 
L 67.214498 292.908767 
L 67.201852 292.987763 
L 67.027668 293.960846 
L 66.851609 294.933928 
L 66.706997 295.90701 
L 66.582429 296.880093 
L 66.465308 297.853175 
L 66.359847 298.826258 
L 66.283271 299.79934 
L 66.219318 300.772423 
L 66.168363 301.745505 
L 66.132922 302.718588 
L 66.117168 303.69167 
L 66.114771 304.664753 
L 66.135773 305.637835 
L 66.180601 306.610918 
L 66.241073 307.584 
" style="fill:none;stroke:#4d94ff;stroke-width:1.5;"/>
   </g>
   <g id="LineCollection_2">
    <path clip-path="url(#pdacc9a2467)" d="M 156.857978 307.584 
L 158.374588 306.714557 
L 160.363327 305.612872 
L 161.428363 305.02939 
L 163.623974 303.641744 
L 164.482139 303.026035 
L 166.263088 301.670615 
L 167.535914 300.645757 
L 168.694557 299.699487 
L 170.589689 298.053753 
L 170.937048 297.728359 
L 172.386028 295.757231 
L 173.643465 294.459103 
L 174.182119 293.786102 
L 175.848373 291.814974 
L 176.69724 290.586625 
L 177.210764 289.843846 
L 178.383835 287.872718 
L 179.420831 285.901589 
L 179.751016 284.667464 
L 179.927601 283.930461 
L 180.22891 281.959333 
L 180.22891 279.988205 
L 179.751016 278.108225 
L 179.725126 278.017077 
L 179.177378 276.045948 
L 178.3112 274.07482 
L 177.40341 272.103692 
L 176.69724 270.616722 
L 176.469281 270.132564 
L 175.46258 268.161435 
L 174.109532 266.190307 
L 173.643465 265.609571 
L 172.292899 264.219179 
L 170.589689 262.789483 
L 169.891298 262.248051 
L 167.535914 260.54261 
L 167.162104 260.276923 
L 164.482139 258.323389 
L 164.456494 258.305794 
L 161.428363 256.93383 
L 159.878037 256.334666 
L 158.374588 255.678361 
L 155.432316 254.363538 
L 155.320813 254.329092 
L 152.267037 253.535505 
L 149.213262 252.812653 
L 147.390878 252.39241 
L 146.159486 252.116587 
L 143.105711 251.445287 
L 140.051936 250.877681 
L 137.703943 250.421281 
L 136.99816 250.298773 
L 133.944385 249.837537 
L 130.890609 249.414928 
L 127.836834 248.979441 
L 124.783059 248.474554 
L 124.571451 248.450153 
L 121.729283 248.106777 
L 118.675508 247.567499 
L 115.621732 247.226717 
L 112.567957 247.024531 
L 109.514182 246.889963 
L 106.460406 246.889963 
L 103.406631 247.110979 
L 100.352855 247.367997 
L 97.29908 247.720139 
L 94.245305 248.182319 
L 92.785078 248.450153 
L 91.191529 248.731768 
L 88.137754 249.499134 
L 85.083979 250.186121 
L 84.220093 250.421281 
L 82.030203 251.098595 
L 78.976428 252.231939 
L 78.547862 252.39241 
L 75.922652 253.423577 
L 73.492434 254.363538 
L 72.868877 254.715581 
L 70.520423 256.334666 
L 69.815102 256.773898 
L 69.341752 258.305794 
L 68.955613 260.276923 
L 68.572367 262.248051 
L 68.225231 264.219179 
L 67.947333 266.190307 
L 67.714507 268.161435 
L 67.541279 270.132564 
L 67.383697 272.103692 
L 67.231548 274.07482 
L 67.086373 276.045948 
L 66.994569 278.017077 
L 66.90172 279.988205 
L 66.90172 281.959333 
L 66.957524 283.930461 
L 67.04557 285.901589 
L 67.219374 287.872718 
L 67.415985 289.843846 
L 67.648122 291.814974 
L 67.934842 293.786102 
L 68.211599 295.757231 
L 68.423705 297.728359 
L 68.739977 299.699487 
L 69.083948 301.670615 
L 69.457771 303.641744 
L 69.815102 305.254889 
L 70.220624 305.612872 
L 72.457761 307.584 
" style="fill:none;stroke:#ff8533;stroke-width:1.5;"/>
   </g>
   <g id="LineCollection_3">
    <path clip-path="url(#pdacc9a2467)" d="M 165.840634 307.584 
L 166.699574 306.496517 
L 166.849691 305.409034 
L 166.353754 304.321551 
L 165.527599 303.234068 
L 164.864365 302.745929 
L 163.920018 302.146585 
L 162.041619 301.435544 
L 161.093244 301.059102 
L 159.218872 300.30781 
L 158.382041 299.971619 
L 156.396126 299.325302 
L 154.839534 298.884136 
L 153.573379 298.570232 
L 150.750633 297.989644 
L 149.455432 297.796653 
L 147.927886 297.586201 
L 145.10514 297.086349 
L 142.475936 296.70917 
L 142.282393 296.680008 
L 139.459647 296.344202 
L 136.6369 295.99771 
L 133.814154 295.70602 
L 132.951712 295.621687 
L 130.991408 295.412533 
L 128.168661 295.121078 
L 125.345915 294.816915 
L 122.962564 294.534204 
L 122.523168 294.49241 
L 119.700422 294.252954 
L 116.877675 294.034278 
L 114.054929 293.801907 
L 111.232182 293.582777 
L 109.498916 293.446721 
L 108.409436 293.348546 
L 105.58669 293.11489 
L 102.763943 292.951161 
L 99.941197 292.725521 
L 97.11845 292.550821 
L 94.295704 292.407622 
L 93.315377 292.359239 
L 91.472957 292.249347 
L 88.650211 292.068416 
L 85.827464 291.970852 
L 83.004718 291.917225 
L 80.181972 291.860638 
L 77.359225 291.860638 
L 74.536479 291.925694 
L 71.713732 292.048197 
L 68.890986 292.23126 
L 67.280836 292.359239 
L 66.068239 292.439298 
L 65.344384 293.446721 
L 64.574824 294.534204 
L 64.038787 295.621687 
L 63.522016 296.70917 
L 63.245493 297.312941 
L 63.157199 297.796653 
L 62.98622 298.884136 
L 62.848006 299.971619 
L 62.741879 301.059102 
L 62.639263 302.146585 
L 62.579751 303.234068 
L 62.546974 304.321551 
L 62.527298 305.409034 
L 62.533254 306.496517 
L 62.567331 307.584 
" style="fill:none;stroke:#00b300;stroke-width:1.5;"/>
   </g>
   <g id="LineCollection_4">
    <path clip-path="url(#pdacc9a2467)" d="M 431.901757 296.571457 
L 424.262946 296.571457 
L 416.624135 296.571457 
L 408.985323 296.571457 
L 401.346512 296.571457 
L 393.707701 296.571457 
L 386.068889 296.571457 
L 378.430078 296.571457 
L 370.791266 296.571457 
L 363.152455 296.571457 
L 355.513644 296.571457 
L 347.874832 296.571457 
L 340.236021 296.571457 
L 332.59721 296.571457 
L 324.958398 296.571457 
L 317.319587 296.571457 
L 309.680775 296.571457 
L 302.041964 296.571457 
L 294.403153 296.571457 
L 286.764341 296.571457 
L 279.12553 296.571457 
L 271.486719 296.571457 
L 263.847907 296.571457 
L 256.209096 296.571457 
L 248.570284 296.571457 
L 240.931473 296.571457 
L 233.292662 296.571457 
L 225.65385 296.571457 
L 218.015039 296.571457 
L 210.376228 296.571457 
L 202.737416 296.571457 
L 195.098605 296.571457 
L 193.354799 296.305502 
L 187.459793 295.461234 
L 185.019139 295.052336 
L 179.820982 294.345801 
L 175.022375 293.799169 
L 172.182171 293.444078 
L 164.543359 292.753435 
L 161.302032 292.546003 
L 156.904548 292.232384 
L 149.265737 291.93146 
L 141.626925 291.784524 
L 133.988114 291.753523 
L 126.349302 291.869148 
L 118.710491 292.146934 
L 111.07168 292.457228 
L 109.071462 292.546003 
L 103.432868 292.767359 
L 95.794057 293.168863 
L 88.155246 293.684978 
L 86.379366 293.799169 
L 80.516434 294.130865 
L 72.877623 294.493684 
L 72.450094 295.052336 
L 71.703919 296.305502 
L 71.060863 297.558668 
L 70.389587 298.811835 
L 69.960844 300.065001 
L 69.609916 301.318168 
L 69.297774 302.571334 
L 69.108481 303.824501 
L 69.025115 305.077667 
L 69.023924 306.330834 
L 69.096835 307.584 
" style="fill:none;stroke:#ffff33;stroke-width:1.5;"/>
   </g>
   <g id="patch_3">
    <path d="M 57.6 307.584 
L 57.6 41.472 
" style="fill:none;stroke:#000000;stroke-linecap:square;stroke-linejoin:miter;stroke-width:0.8;"/>
   </g>
   <g id="patch_4">
    <path d="M 343.296 307.584 
L 343.296 41.472 
" style="fill:none;stroke:#000000;stroke-linecap:square;stroke-linejoin:miter;stroke-width:0.8;"/>
   </g>
   <g id="patch_5">
    <path d="M 57.6 307.584 
L 343.296 307.584 
" style="fill:none;stroke:#000000;stroke-linecap:square;stroke-linejoin:miter;stroke-width:0.8;"/>
   </g>
   <g id="patch_6">
    <path d="M 57.6 41.472 
L 343.296 41.472 
" style="fill:none;stroke:#000000;stroke-linecap:square;stroke-linejoin:miter;stroke-width:0.8;"/>
   </g>
  </g>
  <g id="axes_2">
   <g id="patch_7">
    <path clip-path="url(#p667f03c1ff)" d="M 367.2 307.584 
L 361.152 295.488 
L 361.152 53.568 
L 367.2 41.472 
L 367.2 41.472 
L 373.248 53.568 
L 373.248 295.488 
L 367.2 307.584 
z
" style="fill:#ffffff;stroke:#ffffff;stroke-linejoin:miter;stroke-width:0.01;"/>
   </g>
   <g id="QuadMesh_1">
    <path clip-path="url(#p667f03c1ff)" d="M 367.2 307.584 
L 367.2 307.584 
L 373.248 295.488 
L 361.152 295.488 
L 367.2 307.584 
" style="fill:#ffffff;"/>
    <path clip-path="url(#p667f03c1ff)" d="M 361.152 295.488 
L 373.248 295.488 
L 373.248 235.008 
L 361.152 235.008 
L 361.152 295.488 
" style="fill:#ffffff;"/>
    <path clip-path="url(#p667f03c1ff)" d="M 361.152 235.008 
L 373.248 235.008 
L 373.248 174.528 
L 361.152 174.528 
L 361.152 235.008 
" style="fill:#f0f0f0;"/>
    <path clip-path="url(#p667f03c1ff)" d="M 361.152 174.528 
L 373.248 174.528 
L 373.248 114.048 
L 361.152 114.048 
L 361.152 174.528 
" style="fill:#d3d3d3;"/>
    <path clip-path="url(#p667f03c1ff)" d="M 361.152 114.048 
L 373.248 114.048 
L 373.248 53.568 
L 361.152 53.568 
L 361.152 114.048 
" style="fill:#b8b8b8;"/>
    <path clip-path="url(#p667f03c1ff)" d="M 361.152 53.568 
L 373.248 53.568 
L 367.2 41.472 
L 367.2 41.472 
L 361.152 53.568 
" style="fill:#a0a0a0;"/>
   </g>
   <g id="matplotlib.axis_3"/>
   <g id="matplotlib.axis_4">
    <g id="ytick_10">
     <g id="line2d_19">
      <defs>
       <path d="M 0 0 
L 3.5 0 
" id="md8ee91d097" style="stroke:#000000;stroke-width:0.8;"/>
      </defs>
      <g>
       <use style="stroke:#000000;stroke-width:0.8;" x="373.248" xlink:href="#md8ee91d097" y="295.488"/>
      </g>
     </g>
     <g id="text_19">
      <!-- 0.0000 -->
      <g transform="translate(380.248 302.326594)scale(0.18 -0.18)">
       <use xlink:href="#DejaVuSans-48"/>
       <use x="63.623047" xlink:href="#DejaVuSans-46"/>
       <use x="95.410156" xlink:href="#DejaVuSans-48"/>
       <use x="159.033203" xlink:href="#DejaVuSans-48"/>
       <use x="222.65625" xlink:href="#DejaVuSans-48"/>
       <use x="286.279297" xlink:href="#DejaVuSans-48"/>
      </g>
     </g>
    </g>
    <g id="ytick_11">
     <g id="line2d_20">
      <g>
       <use style="stroke:#000000;stroke-width:0.8;" x="373.248" xlink:href="#md8ee91d097" y="235.008"/>
      </g>
     </g>
     <g id="text_20">
      <!-- 0.0256 -->
      <defs>
       <path d="M 33.015625 40.375 
Q 26.375 40.375 22.484375 35.828125 
Q 18.609375 31.296875 18.609375 23.390625 
Q 18.609375 15.53125 22.484375 10.953125 
Q 26.375 6.390625 33.015625 6.390625 
Q 39.65625 6.390625 43.53125 10.953125 
Q 47.40625 15.53125 47.40625 23.390625 
Q 47.40625 31.296875 43.53125 35.828125 
Q 39.65625 40.375 33.015625 40.375 
z
M 52.59375 71.296875 
L 52.59375 62.3125 
Q 48.875 64.0625 45.09375 64.984375 
Q 41.3125 65.921875 37.59375 65.921875 
Q 27.828125 65.921875 22.671875 59.328125 
Q 17.53125 52.734375 16.796875 39.40625 
Q 19.671875 43.65625 24.015625 45.921875 
Q 28.375 48.1875 33.59375 48.1875 
Q 44.578125 48.1875 50.953125 41.515625 
Q 57.328125 34.859375 57.328125 23.390625 
Q 57.328125 12.15625 50.6875 5.359375 
Q 44.046875 -1.421875 33.015625 -1.421875 
Q 20.359375 -1.421875 13.671875 8.265625 
Q 6.984375 17.96875 6.984375 36.375 
Q 6.984375 53.65625 15.1875 63.9375 
Q 23.390625 74.21875 37.203125 74.21875 
Q 40.921875 74.21875 44.703125 73.484375 
Q 48.484375 72.75 52.59375 71.296875 
z
" id="DejaVuSans-54"/>
      </defs>
      <g transform="translate(380.248 241.846594)scale(0.18 -0.18)">
       <use xlink:href="#DejaVuSans-48"/>
       <use x="63.623047" xlink:href="#DejaVuSans-46"/>
       <use x="95.410156" xlink:href="#DejaVuSans-48"/>
       <use x="159.033203" xlink:href="#DejaVuSans-50"/>
       <use x="222.65625" xlink:href="#DejaVuSans-53"/>
       <use x="286.279297" xlink:href="#DejaVuSans-54"/>
      </g>
     </g>
    </g>
    <g id="ytick_12">
     <g id="line2d_21">
      <g>
       <use style="stroke:#000000;stroke-width:0.8;" x="373.248" xlink:href="#md8ee91d097" y="174.528"/>
      </g>
     </g>
     <g id="text_21">
      <!-- 0.0769 -->
      <defs>
       <path d="M 10.984375 1.515625 
L 10.984375 10.5 
Q 14.703125 8.734375 18.5 7.8125 
Q 22.3125 6.890625 25.984375 6.890625 
Q 35.75 6.890625 40.890625 13.453125 
Q 46.046875 20.015625 46.78125 33.40625 
Q 43.953125 29.203125 39.59375 26.953125 
Q 35.25 24.703125 29.984375 24.703125 
Q 19.046875 24.703125 12.671875 31.3125 
Q 6.296875 37.9375 6.296875 49.421875 
Q 6.296875 60.640625 12.9375 67.421875 
Q 19.578125 74.21875 30.609375 74.21875 
Q 43.265625 74.21875 49.921875 64.515625 
Q 56.59375 54.828125 56.59375 36.375 
Q 56.59375 19.140625 48.40625 8.859375 
Q 40.234375 -1.421875 26.421875 -1.421875 
Q 22.703125 -1.421875 18.890625 -0.6875 
Q 15.09375 0.046875 10.984375 1.515625 
z
M 30.609375 32.421875 
Q 37.25 32.421875 41.125 36.953125 
Q 45.015625 41.5 45.015625 49.421875 
Q 45.015625 57.28125 41.125 61.84375 
Q 37.25 66.40625 30.609375 66.40625 
Q 23.96875 66.40625 20.09375 61.84375 
Q 16.21875 57.28125 16.21875 49.421875 
Q 16.21875 41.5 20.09375 36.953125 
Q 23.96875 32.421875 30.609375 32.421875 
z
" id="DejaVuSans-57"/>
      </defs>
      <g transform="translate(380.248 181.366594)scale(0.18 -0.18)">
       <use xlink:href="#DejaVuSans-48"/>
       <use x="63.623047" xlink:href="#DejaVuSans-46"/>
       <use x="95.410156" xlink:href="#DejaVuSans-48"/>
       <use x="159.033203" xlink:href="#DejaVuSans-55"/>
       <use x="222.65625" xlink:href="#DejaVuSans-54"/>
       <use x="286.279297" xlink:href="#DejaVuSans-57"/>
      </g>
     </g>
    </g>
    <g id="ytick_13">
     <g id="line2d_22">
      <g>
       <use style="stroke:#000000;stroke-width:0.8;" x="373.248" xlink:href="#md8ee91d097" y="114.048"/>
      </g>
     </g>
     <g id="text_22">
      <!-- 0.1281 -->
      <defs>
       <path d="M 31.78125 34.625 
Q 24.75 34.625 20.71875 30.859375 
Q 16.703125 27.09375 16.703125 20.515625 
Q 16.703125 13.921875 20.71875 10.15625 
Q 24.75 6.390625 31.78125 6.390625 
Q 38.8125 6.390625 42.859375 10.171875 
Q 46.921875 13.96875 46.921875 20.515625 
Q 46.921875 27.09375 42.890625 30.859375 
Q 38.875 34.625 31.78125 34.625 
z
M 21.921875 38.8125 
Q 15.578125 40.375 12.03125 44.71875 
Q 8.5 49.078125 8.5 55.328125 
Q 8.5 64.0625 14.71875 69.140625 
Q 20.953125 74.21875 31.78125 74.21875 
Q 42.671875 74.21875 48.875 69.140625 
Q 55.078125 64.0625 55.078125 55.328125 
Q 55.078125 49.078125 51.53125 44.71875 
Q 48 40.375 41.703125 38.8125 
Q 48.828125 37.15625 52.796875 32.3125 
Q 56.78125 27.484375 56.78125 20.515625 
Q 56.78125 9.90625 50.3125 4.234375 
Q 43.84375 -1.421875 31.78125 -1.421875 
Q 19.734375 -1.421875 13.25 4.234375 
Q 6.78125 9.90625 6.78125 20.515625 
Q 6.78125 27.484375 10.78125 32.3125 
Q 14.796875 37.15625 21.921875 38.8125 
z
M 18.3125 54.390625 
Q 18.3125 48.734375 21.84375 45.5625 
Q 25.390625 42.390625 31.78125 42.390625 
Q 38.140625 42.390625 41.71875 45.5625 
Q 45.3125 48.734375 45.3125 54.390625 
Q 45.3125 60.0625 41.71875 63.234375 
Q 38.140625 66.40625 31.78125 66.40625 
Q 25.390625 66.40625 21.84375 63.234375 
Q 18.3125 60.0625 18.3125 54.390625 
z
" id="DejaVuSans-56"/>
      </defs>
      <g transform="translate(380.248 120.886594)scale(0.18 -0.18)">
       <use xlink:href="#DejaVuSans-48"/>
       <use x="63.623047" xlink:href="#DejaVuSans-46"/>
       <use x="95.410156" xlink:href="#DejaVuSans-49"/>
       <use x="159.033203" xlink:href="#DejaVuSans-50"/>
       <use x="222.65625" xlink:href="#DejaVuSans-56"/>
       <use x="286.279297" xlink:href="#DejaVuSans-49"/>
      </g>
     </g>
    </g>
    <g id="ytick_14">
     <g id="line2d_23">
      <g>
       <use style="stroke:#000000;stroke-width:0.8;" x="373.248" xlink:href="#md8ee91d097" y="53.568"/>
      </g>
     </g>
     <g id="text_23">
      <!-- 0.2101 -->
      <g transform="translate(380.248 60.406594)scale(0.18 -0.18)">
       <use xlink:href="#DejaVuSans-48"/>
       <use x="63.623047" xlink:href="#DejaVuSans-46"/>
       <use x="95.410156" xlink:href="#DejaVuSans-50"/>
       <use x="159.033203" xlink:href="#DejaVuSans-49"/>
       <use x="222.65625" xlink:href="#DejaVuSans-48"/>
       <use x="286.279297" xlink:href="#DejaVuSans-49"/>
      </g>
     </g>
    </g>
   </g>
   <g id="patch_8">
    <path d="M 367.2 307.584 
L 361.152 295.488 
L 361.152 53.568 
L 367.2 41.472 
L 367.2 41.472 
L 373.248 53.568 
L 373.248 295.488 
L 367.2 307.584 
z
" style="fill:none;stroke:#000000;stroke-linejoin:miter;stroke-width:0.8;"/>
   </g>
  </g>
 </g>
 <defs>
  <clipPath id="pdacc9a2467">
   <rect height="266.112" width="285.696" x="57.6" y="41.472"/>
  </clipPath>
  <clipPath id="p667f03c1ff">
   <rect height="266.112" width="12.096" x="361.152" y="41.472"/>
  </clipPath>
 </defs>
</svg>
