<?xml version="1.0" encoding="utf-8" standalone="no"?>
<!DOCTYPE svg PUBLIC "-//W3C//DTD SVG 1.1//EN"
  "http://www.w3.org/Graphics/SVG/1.1/DTD/svg11.dtd">
<!-- Created with matplotlib (https://matplotlib.org/) -->
<svg height="345.6pt" version="1.1" viewBox="0 0 460.8 345.6" width="460.8pt" xmlns="http://www.w3.org/2000/svg" xmlns:xlink="http://www.w3.org/1999/xlink">
 <defs>
  <style type="text/css">
*{stroke-linecap:butt;stroke-linejoin:round;}
  </style>
 </defs>
 <g id="figure_1">
  <g id="patch_1">
   <path d="M 0 345.6 
L 460.8 345.6 
L 460.8 0 
L 0 0 
z
" style="fill:#ffffff;"/>
  </g>
  <g id="axes_1">
   <g id="patch_2">
    <path d="M 57.6 307.584 
L 343.296 307.584 
L 343.296 41.472 
L 57.6 41.472 
z
" style="fill:#ffffff;"/>
   </g>
   <g id="PathCollection_1"/>
   <g id="PathCollection_2">
    <path clip-path="url(#pce570b2e83)" d="M 68.341856 301.534405 
L 69.721625 302.770876 
L 73.712785 302.770876 
L 79.083713 302.770876 
L 84.454641 302.770876 
L 89.825569 302.770876 
L 95.196497 302.770876 
L 100.567425 302.770876 
L 105.938354 302.770876 
L 111.309282 302.770876 
L 116.68021 302.770876 
L 122.051138 302.770876 
L 127.422066 302.770876 
L 132.792994 302.770876 
L 138.163923 302.770876 
L 143.534851 302.770876 
L 148.905779 302.770876 
L 154.276707 302.770876 
L 159.647635 302.770876 
L 165.018564 302.770876 
L 170.389492 302.770876 
L 175.76042 302.770876 
L 181.131348 302.770876 
L 186.502276 302.770876 
L 191.873204 302.770876 
L 197.244133 302.770876 
L 202.615061 302.770876 
L 207.985989 302.770876 
L 213.356917 302.770876 
L 218.727845 302.770876 
L 224.098773 302.770876 
L 229.469702 302.770876 
L 234.84063 302.770876 
L 240.211558 302.770876 
L 245.582486 302.770876 
L 250.953414 302.770876 
L 256.324342 302.770876 
L 261.695271 302.770876 
L 267.066199 302.770876 
L 272.437127 302.770876 
L 277.808055 302.770876 
L 283.178983 302.770876 
L 288.549912 302.770876 
L 293.92084 302.770876 
L 299.291768 302.770876 
L 304.662696 302.770876 
L 310.033624 302.770876 
L 315.404552 302.770876 
L 320.775481 302.770876 
L 326.146409 302.770876 
L 331.517337 302.770876 
L 336.888265 302.770876 
L 342.259193 302.770876 
L 347.630121 302.770876 
L 353.00105 302.770876 
L 358.371978 302.770876 
L 363.742906 302.770876 
L 369.113834 302.770876 
L 374.484762 302.770876 
L 379.855691 302.770876 
L 385.226619 302.770876 
L 390.597547 302.770876 
L 395.968475 302.770876 
L 401.339403 302.770876 
L 406.710331 302.770876 
L 412.08126 302.770876 
L 417.452188 302.770876 
L 422.823116 302.770876 
L 428.194044 302.770876 
L 433.564972 302.770876 
L 438.9359 302.770876 
L 444.306829 302.770876 
L 449.677757 302.770876 
L 455.048685 302.770876 
L 460.419613 302.770876 
L 465.790541 302.770876 
L 471.16147 302.770876 
L 476.532398 302.770876 
L 481.903326 302.770876 
L 487.274254 302.770876 
L 492.645182 302.770876 
L 498.01611 302.770876 
L 503.387039 302.770876 
L 508.757967 302.770876 
L 514.128895 302.770876 
L 519.499823 302.770876 
L 524.870751 302.770876 
L 530.241679 302.770876 
L 535.612608 302.770876 
L 540.983536 302.770876 
L 546.354464 302.770876 
L 551.725392 302.770876 
L 557.09632 302.770876 
L 562.467248 302.770876 
L 567.838177 302.770876 
L 573.209105 302.770876 
L 578.580033 302.770876 
L 583.950961 302.770876 
L 589.321889 302.770876 
L 594.692818 302.770876 
L 600.063746 302.770876 
L 605.434674 302.770876 
L 610.805602 302.770876 
L 616.17653 302.770876 
L 621.547458 302.770876 
L 626.918387 302.770876 
L 632.289315 302.770876 
L 637.660243 302.770876 
L 643.031171 302.770876 
L 648.402099 302.770876 
L 653.773027 302.770876 
L 659.143956 302.770876 
L 664.514884 302.770876 
L 669.885812 302.770876 
L 675.25674 302.770876 
L 680.627668 302.770876 
L 685.998597 302.770876 
L 691.369525 302.770876 
L 696.740453 302.770876 
L 702.111381 302.770876 
L 707.482309 302.770876 
L 712.853237 302.770876 
L 718.224166 302.770876 
L 723.595094 302.770876 
L 728.966022 302.770876 
L 734.33695 302.770876 
L 739.707878 302.770876 
L 745.078806 302.770876 
L 750.449735 302.770876 
L 755.820663 302.770876 
L 761.191591 302.770876 
L 766.562519 302.770876 
L 771.933447 302.770876 
L 777.304376 302.770876 
L 782.675304 302.770876 
L 788.046232 302.770876 
L 793.41716 302.770876 
L 798.788088 302.770876 
L 804.159016 302.770876 
L 809.529945 302.770876 
L 814.900873 302.770876 
L 820.271801 302.770876 
L 825.642729 302.770876 
L 831.013657 302.770876 
L 836.384585 302.770876 
L 841.755514 302.770876 
L 847.126442 302.770876 
L 852.49737 302.770876 
L 857.868298 302.770876 
L 863.239226 302.770876 
L 868.610154 302.770876 
L 873.981083 302.770876 
L 879.352011 302.770876 
L 884.722939 302.770876 
L 890.093867 302.770876 
L 895.464795 302.770876 
L 900.835724 302.770876 
L 906.206652 302.770876 
L 911.57758 302.770876 
L 916.948508 302.770876 
L 922.319436 302.770876 
L 927.690364 302.770876 
L 933.061293 302.770876 
L 938.432221 302.770876 
L 943.803149 302.770876 
L 949.174077 302.770876 
L 954.545005 302.770876 
L 959.915933 302.770876 
L 965.286862 302.770876 
L 970.65779 302.770876 
L 976.028718 302.770876 
L 981.399646 302.770876 
L 986.770574 302.770876 
L 992.141503 302.770876 
L 997.512431 302.770876 
L 1002.883359 302.770876 
L 1008.254287 302.770876 
L 1013.625215 302.770876 
L 1018.996143 302.770876 
L 1024.367072 302.770876 
L 1029.738 302.770876 
L 1035.108928 302.770876 
L 1040.479856 302.770876 
L 1045.850784 302.770876 
L 1051.221712 302.770876 
L 1056.592641 302.770876 
L 1061.963569 302.770876 
L 1067.334497 302.770876 
L 1072.705425 302.770876 
L 1078.076353 302.770876 
L 1083.447282 302.770876 
L 1088.81821 302.770876 
L 1094.189138 302.770876 
L 1099.560066 302.770876 
L 1104.930994 302.770876 
L 1110.301922 302.770876 
L 1115.672851 302.770876 
L 1121.043779 302.770876 
L 1126.414707 302.770876 
L 1131.785635 302.770876 
L 1137.156563 302.770876 
L 1142.527491 302.770876 
L 1147.89842 302.770876 
L 1153.269348 302.770876 
L 1158.640276 302.770876 
L 1164.011204 302.770876 
L 1169.382132 302.770876 
L 1174.75306 302.770876 
L 1180.123989 302.770876 
L 1185.494917 302.770876 
L 1190.865845 302.770876 
L 1196.236773 302.770876 
L 1196.236773 297.957752 
L 1196.236773 293.144628 
L 1196.236773 288.331504 
L 1196.236773 283.51838 
L 1196.236773 278.705256 
L 1196.236773 273.892132 
L 1196.236773 269.079007 
L 1196.236773 264.265883 
L 1196.236773 259.452759 
L 1196.236773 254.639635 
L 1196.236773 249.826511 
L 1196.236773 245.013387 
L 1196.236773 240.200263 
L 1196.236773 235.387139 
L 1196.236773 230.574015 
L 1196.236773 225.760891 
L 1196.236773 220.947767 
L 1196.236773 216.134643 
L 1196.236773 211.321519 
L 1196.236773 206.508395 
L 1196.236773 201.695271 
L 1196.236773 196.882147 
L 1196.236773 192.069022 
L 1196.236773 187.255898 
L 1196.236773 182.442774 
L 1196.236773 177.62965 
L 1196.236773 172.816526 
L 1196.236773 168.003402 
L 1196.236773 163.190278 
L 1196.236773 158.377154 
L 1196.236773 153.56403 
L 1196.236773 148.750906 
L 1196.236773 143.937782 
L 1196.236773 139.124658 
L 1196.236773 134.311534 
L 1196.236773 129.49841 
L 1196.236773 124.685286 
L 1196.236773 119.872161 
L 1196.236773 115.059037 
L 1196.236773 110.245913 
L 1196.236773 105.432789 
L 1196.236773 100.619665 
L 1196.236773 95.806541 
L 1196.236773 90.993417 
L 1196.236773 86.180293 
L 1196.236773 81.367169 
L 1196.236773 76.554045 
L 1196.236773 71.740921 
L 1196.236773 66.927797 
L 1196.236773 62.114673 
L 1196.236773 57.301549 
L 1196.236773 52.488425 
L 1196.236773 47.675301 
L 1196.236773 42.862176 
L 1196.236773 38.049052 
L 1196.236773 33.235928 
L 1196.236773 28.422804 
L 1196.236773 23.60968 
L 1196.236773 18.796556 
L 1196.236773 13.983432 
L 1196.236773 9.170308 
L 1196.236773 4.357184 
L 1196.236773 -0.45594 
L 1196.236773 -5.269064 
L 1196.236773 -10.082188 
L 1196.236773 -14.895312 
L 1196.236773 -19.708436 
L 1196.236773 -24.52156 
L 1196.236773 -29.334684 
L 1196.236773 -34.147809 
L 1196.236773 -38.960933 
L 1196.236773 -43.774057 
L 1196.236773 -48.587181 
L 1196.236773 -53.400305 
L 1196.236773 -58.213429 
L 1196.236773 -63.026553 
L 1196.236773 -67.839677 
L 1196.236773 -72.652801 
L 1196.236773 -77.465925 
L 1196.236773 -82.279049 
L 1196.236773 -87.092173 
L 1196.236773 -91.905297 
L 1196.236773 -96.718421 
L 1196.236773 -101.531545 
L 1196.236773 -106.34467 
L 1196.236773 -111.157794 
L 1196.236773 -115.970918 
L 1196.236773 -120.784042 
L 1196.236773 -125.597166 
L 1196.236773 -130.41029 
L 1196.236773 -135.223414 
L 1196.236773 -140.036538 
L 1196.236773 -144.849662 
L 1196.236773 -149.662786 
L 1196.236773 -154.47591 
L 1196.236773 -159.289034 
L 1190.865845 -159.289034 
L 1185.494917 -159.289034 
L 1180.123989 -159.289034 
L 1174.75306 -159.289034 
L 1169.382132 -159.289034 
L 1164.011204 -159.289034 
L 1158.640276 -159.289034 
L 1153.269348 -159.289034 
L 1147.89842 -159.289034 
L 1142.527491 -159.289034 
L 1137.156563 -159.289034 
L 1131.785635 -159.289034 
L 1126.414707 -159.289034 
L 1121.043779 -159.289034 
L 1115.672851 -159.289034 
L 1110.301922 -159.289034 
L 1104.930994 -159.289034 
L 1099.560066 -159.289034 
L 1094.189138 -159.289034 
L 1088.81821 -159.289034 
L 1083.447282 -159.289034 
L 1078.076353 -159.289034 
L 1072.705425 -159.289034 
L 1067.334497 -159.289034 
L 1061.963569 -159.289034 
L 1056.592641 -159.289034 
L 1051.221712 -159.289034 
L 1045.850784 -159.289034 
L 1040.479856 -159.289034 
L 1035.108928 -159.289034 
L 1029.738 -159.289034 
L 1024.367072 -159.289034 
L 1018.996143 -159.289034 
L 1013.625215 -159.289034 
L 1008.254287 -159.289034 
L 1002.883359 -159.289034 
L 997.512431 -159.289034 
L 992.141503 -159.289034 
L 986.770574 -159.289034 
L 981.399646 -159.289034 
L 976.028718 -159.289034 
L 970.65779 -159.289034 
L 965.286862 -159.289034 
L 959.915933 -159.289034 
L 954.545005 -159.289034 
L 949.174077 -159.289034 
L 943.803149 -159.289034 
L 938.432221 -159.289034 
L 933.061293 -159.289034 
L 927.690364 -159.289034 
L 922.319436 -159.289034 
L 916.948508 -159.289034 
L 911.57758 -159.289034 
L 906.206652 -159.289034 
L 900.835724 -159.289034 
L 895.464795 -159.289034 
L 890.093867 -159.289034 
L 884.722939 -159.289034 
L 879.352011 -159.289034 
L 873.981083 -159.289034 
L 868.610154 -159.289034 
L 863.239226 -159.289034 
L 857.868298 -159.289034 
L 852.49737 -159.289034 
L 847.126442 -159.289034 
L 841.755514 -159.289034 
L 836.384585 -159.289034 
L 831.013657 -159.289034 
L 825.642729 -159.289034 
L 820.271801 -159.289034 
L 814.900873 -159.289034 
L 809.529945 -159.289034 
L 804.159016 -159.289034 
L 798.788088 -159.289034 
L 793.41716 -159.289034 
L 788.046232 -159.289034 
L 782.675304 -159.289034 
L 777.304376 -159.289034 
L 771.933447 -159.289034 
L 766.562519 -159.289034 
L 761.191591 -159.289034 
L 755.820663 -159.289034 
L 750.449735 -159.289034 
L 745.078806 -159.289034 
L 739.707878 -159.289034 
L 734.33695 -159.289034 
L 728.966022 -159.289034 
L 723.595094 -159.289034 
L 718.224166 -159.289034 
L 712.853237 -159.289034 
L 707.482309 -159.289034 
L 702.111381 -159.289034 
L 696.740453 -159.289034 
L 691.369525 -159.289034 
L 685.998597 -159.289034 
L 680.627668 -159.289034 
L 675.25674 -159.289034 
L 669.885812 -159.289034 
L 664.514884 -159.289034 
L 659.143956 -159.289034 
L 653.773027 -159.289034 
L 648.402099 -159.289034 
L 643.031171 -159.289034 
L 637.660243 -159.289034 
L 632.289315 -159.289034 
L 626.918387 -159.289034 
L 621.547458 -159.289034 
L 616.17653 -159.289034 
L 610.805602 -159.289034 
L 605.434674 -159.289034 
L 600.063746 -159.289034 
L 594.692818 -159.289034 
L 589.321889 -159.289034 
L 583.950961 -159.289034 
L 578.580033 -159.289034 
L 573.209105 -159.289034 
L 567.838177 -159.289034 
L 562.467248 -159.289034 
L 557.09632 -159.289034 
L 551.725392 -159.289034 
L 546.354464 -159.289034 
L 540.983536 -159.289034 
L 535.612608 -159.289034 
L 530.241679 -159.289034 
L 524.870751 -159.289034 
L 519.499823 -159.289034 
L 514.128895 -159.289034 
L 508.757967 -159.289034 
L 503.387039 -159.289034 
L 498.01611 -159.289034 
L 492.645182 -159.289034 
L 487.274254 -159.289034 
L 481.903326 -159.289034 
L 476.532398 -159.289034 
L 471.16147 -159.289034 
L 465.790541 -159.289034 
L 460.419613 -159.289034 
L 455.048685 -159.289034 
L 449.677757 -159.289034 
L 444.306829 -159.289034 
L 438.9359 -159.289034 
L 433.564972 -159.289034 
L 428.194044 -159.289034 
L 422.823116 -159.289034 
L 417.452188 -159.289034 
L 412.08126 -159.289034 
L 406.710331 -159.289034 
L 401.339403 -159.289034 
L 395.968475 -159.289034 
L 390.597547 -159.289034 
L 385.226619 -159.289034 
L 379.855691 -159.289034 
L 374.484762 -159.289034 
L 369.113834 -159.289034 
L 363.742906 -159.289034 
L 358.371978 -159.289034 
L 353.00105 -159.289034 
L 347.630121 -159.289034 
L 342.259193 -159.289034 
L 336.888265 -159.289034 
L 331.517337 -159.289034 
L 326.146409 -159.289034 
L 320.775481 -159.289034 
L 315.404552 -159.289034 
L 310.033624 -159.289034 
L 304.662696 -159.289034 
L 299.291768 -159.289034 
L 293.92084 -159.289034 
L 288.549912 -159.289034 
L 283.178983 -159.289034 
L 277.808055 -159.289034 
L 272.437127 -159.289034 
L 267.066199 -159.289034 
L 261.695271 -159.289034 
L 256.324342 -159.289034 
L 250.953414 -159.289034 
L 245.582486 -159.289034 
L 240.211558 -159.289034 
L 234.84063 -159.289034 
L 229.469702 -159.289034 
L 224.098773 -159.289034 
L 218.727845 -159.289034 
L 213.356917 -159.289034 
L 207.985989 -159.289034 
L 202.615061 -159.289034 
L 197.244133 -159.289034 
L 191.873204 -159.289034 
L 186.502276 -159.289034 
L 181.131348 -159.289034 
L 175.76042 -159.289034 
L 170.389492 -159.289034 
L 165.018564 -159.289034 
L 159.647635 -159.289034 
L 154.276707 -159.289034 
L 148.905779 -159.289034 
L 143.534851 -159.289034 
L 138.163923 -159.289034 
L 132.792994 -159.289034 
L 127.422066 -159.289034 
L 122.051138 -159.289034 
L 116.68021 -159.289034 
L 111.309282 -159.289034 
L 105.938354 -159.289034 
L 100.567425 -159.289034 
L 95.196497 -159.289034 
L 89.825569 -159.289034 
L 84.454641 -159.289034 
L 79.083713 -159.289034 
L 73.712785 -159.289034 
L 68.341856 -159.289034 
L 62.970928 -159.289034 
L 62.970928 -154.47591 
L 62.970928 -149.662786 
L 62.970928 -144.849662 
L 62.970928 -140.036538 
L 62.970928 -135.223414 
L 62.970928 -130.41029 
L 62.970928 -125.597166 
L 62.970928 -120.784042 
L 62.970928 -115.970918 
L 62.970928 -111.157794 
L 62.970928 -106.34467 
L 62.970928 -101.531545 
L 62.970928 -96.718421 
L 62.970928 -91.905297 
L 62.970928 -87.092173 
L 62.970928 -82.279049 
L 62.970928 -77.465925 
L 62.970928 -72.652801 
L 62.970928 -67.839677 
L 62.970928 -63.026553 
L 62.970928 -58.213429 
L 62.970928 -53.400305 
L 62.970928 -48.587181 
L 62.970928 -43.774057 
L 62.970928 -38.960933 
L 62.970928 -34.147809 
L 62.970928 -29.334684 
L 62.970928 -24.52156 
L 62.970928 -19.708436 
L 62.970928 -14.895312 
L 62.970928 -10.082188 
L 62.970928 -5.269064 
L 62.970928 -0.45594 
L 62.970928 4.357184 
L 62.970928 9.170308 
L 62.970928 13.983432 
L 62.970928 18.796556 
L 62.970928 23.60968 
L 62.970928 28.422804 
L 62.970928 33.235928 
L 62.970928 38.049052 
L 62.970928 42.862176 
L 62.970928 47.675301 
L 62.970928 52.488425 
L 62.970928 57.301549 
L 62.970928 62.114673 
L 62.970928 66.927797 
L 62.970928 71.740921 
L 62.970928 76.554045 
L 62.970928 81.367169 
L 62.970928 86.180293 
L 62.970928 90.993417 
L 62.970928 95.806541 
L 62.970928 100.619665 
L 62.970928 105.432789 
L 62.970928 110.245913 
L 62.970928 115.059037 
L 62.970928 119.872161 
L 62.970928 124.685286 
L 62.970928 129.49841 
L 62.970928 134.311534 
L 62.970928 139.124658 
L 62.970928 143.937782 
L 62.970928 148.750906 
L 62.970928 153.56403 
L 62.970928 158.377154 
L 62.970928 163.190278 
L 62.970928 168.003402 
L 62.970928 172.816526 
L 62.970928 177.62965 
L 62.970928 182.442774 
L 62.970928 187.255898 
L 62.970928 192.069022 
L 62.970928 196.882147 
L 62.970928 201.695271 
L 62.970928 206.508395 
L 62.970928 211.321519 
L 62.970928 216.134643 
L 62.970928 220.947767 
L 62.970928 225.760891 
L 62.970928 230.574015 
L 62.970928 235.387139 
L 62.970928 240.200263 
L 62.970928 245.013387 
L 62.970928 249.826511 
L 62.970928 250.541842 
L 63.290221 249.826511 
L 63.527313 245.013387 
L 65.196469 240.200263 
L 68.341856 235.972185 
L 68.994704 235.387139 
L 73.712785 231.159061 
L 73.813223 230.574015 
L 73.712785 228.233833 
L 72.333016 225.760891 
L 73.712785 224.936577 
L 79.083713 224.936577 
L 79.454636 220.947767 
L 80.99132 216.134643 
L 81.754362 211.321519 
L 84.454641 208.901681 
L 87.12529 206.508395 
L 89.825569 203.483597 
L 90.823359 201.695271 
L 95.196497 197.216458 
L 95.257227 196.882147 
L 97.422039 192.069022 
L 100.567425 188.68656 
L 100.914483 187.255898 
L 105.938354 182.549146 
L 105.984986 182.442774 
L 108.163895 177.62965 
L 111.309282 174.810931 
L 111.786183 172.816526 
L 116.68021 168.430775 
L 116.841092 168.003402 
L 119.350859 163.190278 
L 122.051138 160.77044 
L 122.564725 158.377154 
L 127.422066 154.024277 
L 127.621368 153.56403 
L 131.873149 148.750906 
L 132.792994 147.926592 
L 135.018536 143.937782 
L 138.163923 141.119063 
L 138.658487 139.124658 
L 143.534851 134.754735 
L 143.769118 134.311534 
L 148.905779 129.540958 
L 148.924299 129.49841 
L 151.13132 124.685286 
L 154.276707 121.866567 
L 154.528655 119.872161 
L 159.647635 115.284819 
L 165.018564 115.077307 
L 166.353888 115.059037 
L 170.389492 111.442556 
L 173.060141 110.245913 
L 175.76042 107.826075 
L 176.87319 105.432789 
L 181.131348 101.616868 
L 186.502276 101.949269 
L 191.873204 101.417427 
L 193.54236 100.619665 
L 194.098746 95.806541 
L 193.780811 90.993417 
L 193.780811 86.180293 
L 193.208529 81.367169 
L 196.324287 76.554045 
L 197.244133 75.729731 
L 198.163978 76.554045 
L 201.279736 81.367169 
L 200.707454 86.180293 
L 200.707454 90.993417 
L 200.389519 95.806541 
L 200.945905 100.619665 
L 201.587888 105.432789 
L 201.587888 110.245913 
L 200.707454 115.059037 
L 199.276749 119.872161 
L 197.244133 121.693678 
L 196.608264 124.685286 
L 196.21696 129.49841 
L 193.905821 134.311534 
L 191.873204 136.740222 
L 190.732873 139.124658 
L 189.212431 143.937782 
L 186.502276 145.759298 
L 185.166951 148.750906 
L 183.163964 153.56403 
L 181.131348 155.992719 
L 175.76042 158.117134 
L 175.573892 158.377154 
L 175.76042 160.717336 
L 177.140188 163.190278 
L 181.131348 166.766931 
L 182.511116 168.003402 
L 181.131348 168.827716 
L 175.76042 172.482214 
L 175.238142 172.816526 
L 170.389492 177.161614 
L 169.519028 177.62965 
L 165.938409 182.442774 
L 165.018564 183.679245 
L 162.35779 187.255898 
L 159.647635 189.684587 
L 155.656476 192.069022 
L 154.276707 193.305493 
L 152.680243 196.882147 
L 148.905779 199.700866 
L 146.998172 201.695271 
L 146.245006 206.508395 
L 143.534851 208.937083 
L 141.539271 211.321519 
L 140.196539 216.134643 
L 139.083768 220.947767 
L 138.163923 222.184238 
L 135.503149 225.760891 
L 132.792994 228.18958 
L 127.422066 229.143354 
L 122.051138 226.585205 
L 121.131292 225.760891 
L 116.68021 224.265087 
L 113.341898 225.760891 
L 111.309282 228.18958 
L 108.599127 225.760891 
L 107.244049 220.947767 
L 105.938354 220.713749 
L 105.720738 220.947767 
L 103.27758 225.760891 
L 101.947194 230.574015 
L 100.567425 231.810486 
L 95.196497 234.802093 
L 95.106449 235.387139 
L 92.535724 240.200263 
L 89.825569 243.843296 
L 89.732305 245.013387 
L 84.454641 249.742933 
L 84.427439 249.826511 
L 84.226575 254.639635 
L 82.2291 259.452759 
L 79.083713 262.271478 
L 78.589148 264.265883 
L 77.088133 269.079007 
L 73.712785 272.103805 
L 73.646815 273.892132 
L 73.609118 278.705256 
L 68.341856 283.487588 
L 68.325737 283.51838 
L 68.265103 288.331504 
L 68.310768 293.144628 
L 68.131795 297.957752 
z
M 88.905723 293.144628 
L 89.825569 290.671686 
L 91.205337 293.144628 
L 89.825569 293.968942 
z
M 87.066032 283.51838 
L 89.825569 282.281909 
L 90.745415 283.51838 
L 89.825569 285.991322 
z
M 99.64758 283.51838 
L 100.567425 282.281909 
L 101.487271 283.51838 
L 100.567425 284.754851 
z
M 169.009723 283.51838 
L 165.018564 281.730053 
L 159.647635 281.133944 
L 154.276707 279.941727 
L 148.905779 281.178197 
L 146.146242 278.705256 
L 143.534851 277.535165 
L 140.923459 278.705256 
L 138.163923 281.178197 
L 132.792994 279.52957 
L 127.422066 281.178197 
L 126.502221 278.705256 
L 127.422066 276.232314 
L 128.29253 273.892132 
L 127.422066 271.551949 
L 126.042298 269.079007 
L 127.422066 267.842537 
L 132.792994 268.254694 
L 135.552531 269.079007 
L 137.293459 273.892132 
L 138.163923 276.232314 
L 139.469618 273.892132 
L 138.686201 269.079007 
L 143.534851 264.73392 
L 146.146242 264.265883 
L 148.905779 263.441569 
L 149.825625 264.265883 
L 154.276707 265.595487 
L 159.647635 264.73392 
L 162.259027 264.265883 
L 165.018564 263.029412 
L 165.938409 264.265883 
L 165.018564 265.090197 
L 163.110957 269.079007 
L 165.018564 270.574811 
L 168.356875 269.079007 
L 170.389492 267.257491 
L 173.099647 269.079007 
L 175.76042 269.973171 
L 181.131348 269.87677 
L 185.582431 269.079007 
L 183.742739 264.265883 
L 182.001812 259.452759 
L 186.502276 256.427962 
L 191.873204 258.216288 
L 194.632741 259.452759 
L 197.244133 260.62285 
L 199.276749 264.265883 
L 202.615061 266.659169 
L 205.315339 269.079007 
L 207.985989 271.472294 
L 210.686268 273.892132 
L 211.44931 278.705256 
L 211.361337 283.51838 
L 207.985989 286.543177 
L 205.28571 283.51838 
L 203.137339 278.705256 
L 202.615061 278.549243 
L 197.244133 277.907494 
L 191.873204 278.155001 
L 190.542818 278.705256 
L 186.502276 281.80889 
L 181.653626 278.705256 
L 181.131348 278.525242 
L 180.60907 278.705256 
L 175.76042 282.326162 
L 171.76926 283.51838 
L 170.389492 284.342694 
z
M 112.614977 278.705256 
L 111.309282 276.365073 
L 108.549745 273.892132 
L 110.389436 269.079007 
L 111.309282 268.254694 
L 114.068819 269.079007 
L 116.68021 271.41919 
L 119.439747 273.892132 
L 118.712826 278.705256 
L 116.68021 281.133944 
z
M 88.905723 269.079007 
L 89.825569 268.254694 
L 91.205337 269.079007 
L 89.825569 269.903321 
z
M 169.009723 259.452759 
L 170.389492 258.216288 
L 173.149029 259.452759 
L 170.389492 260.277073 
z
M 187.807972 249.826511 
L 191.873204 246.183478 
L 193.905821 249.826511 
L 191.873204 252.2552 
z
M 185.582431 235.387139 
L 186.502276 234.150668 
L 187.882045 235.387139 
L 186.502276 236.211453 
z
" style="fill:#ffffff;"/>
    <path clip-path="url(#pce570b2e83)" d="M 148.905779 276.232314 
L 149.776243 273.892132 
L 148.905779 273.112071 
L 147.600083 273.892132 
z
" style="fill:#ffffff;"/>
    <path clip-path="url(#pce570b2e83)" d="M 127.422066 198.074364 
L 128.752453 196.882147 
L 127.422066 193.305493 
L 126.09168 196.882147 
z
" style="fill:#ffffff;"/>
   </g>
   <g id="PathCollection_3">
    <path clip-path="url(#pce570b2e83)" d="M 68.341856 302.770876 
L 69.721625 302.770876 
L 68.341856 301.534405 
L 68.131795 297.957752 
L 68.310768 293.144628 
L 68.265103 288.331504 
L 68.325737 283.51838 
L 68.341856 283.487588 
L 73.609118 278.705256 
L 73.646815 273.892132 
L 73.712785 272.103805 
L 77.088133 269.079007 
L 78.589148 264.265883 
L 79.083713 262.271478 
L 82.2291 259.452759 
L 84.226575 254.639635 
L 84.427439 249.826511 
L 84.454641 249.742933 
L 89.732305 245.013387 
L 89.825569 243.843296 
L 92.535724 240.200263 
L 95.106449 235.387139 
L 95.196497 234.802093 
L 100.567425 231.810486 
L 101.947194 230.574015 
L 103.27758 225.760891 
L 105.720738 220.947767 
L 105.938354 220.713749 
L 107.244049 220.947767 
L 108.599127 225.760891 
L 111.309282 228.18958 
L 113.341898 225.760891 
L 116.68021 224.265087 
L 121.131292 225.760891 
L 122.051138 226.585205 
L 127.422066 229.143354 
L 132.792994 228.18958 
L 135.503149 225.760891 
L 138.163923 222.184238 
L 139.083768 220.947767 
L 140.196539 216.134643 
L 141.539271 211.321519 
L 143.534851 208.937083 
L 146.245006 206.508395 
L 146.998172 201.695271 
L 148.905779 199.700866 
L 152.680243 196.882147 
L 154.276707 193.305493 
L 155.656476 192.069022 
L 159.647635 189.684587 
L 162.35779 187.255898 
L 165.018564 183.679245 
L 165.938409 182.442774 
L 169.519028 177.62965 
L 170.389492 177.161614 
L 175.238142 172.816526 
L 175.76042 172.482214 
L 181.131348 168.827716 
L 182.511116 168.003402 
L 181.131348 166.766931 
L 177.140188 163.190278 
L 175.76042 160.717336 
L 175.573892 158.377154 
L 175.76042 158.117134 
L 181.131348 155.992719 
L 183.163964 153.56403 
L 185.166951 148.750906 
L 186.502276 145.759298 
L 189.212431 143.937782 
L 190.732873 139.124658 
L 191.873204 136.740222 
L 193.905821 134.311534 
L 196.21696 129.49841 
L 196.608264 124.685286 
L 197.244133 121.693678 
L 199.276749 119.872161 
L 200.707454 115.059037 
L 201.587888 110.245913 
L 201.587888 105.432789 
L 200.945905 100.619665 
L 200.389519 95.806541 
L 200.707454 90.993417 
L 200.707454 86.180293 
L 201.279736 81.367169 
L 198.163978 76.554045 
L 197.244133 75.729731 
L 196.324287 76.554045 
L 193.208529 81.367169 
L 193.780811 86.180293 
L 193.780811 90.993417 
L 194.098746 95.806541 
L 193.54236 100.619665 
L 191.873204 101.417427 
L 186.502276 101.949269 
L 181.131348 101.616868 
L 176.87319 105.432789 
L 175.76042 107.826075 
L 173.060141 110.245913 
L 170.389492 111.442556 
L 166.353888 115.059037 
L 165.018564 115.077307 
L 159.647635 115.284819 
L 154.528655 119.872161 
L 154.276707 121.866567 
L 151.13132 124.685286 
L 148.924299 129.49841 
L 148.905779 129.540958 
L 143.769118 134.311534 
L 143.534851 134.754735 
L 138.658487 139.124658 
L 138.163923 141.119063 
L 135.018536 143.937782 
L 132.792994 147.926592 
L 131.873149 148.750906 
L 127.621368 153.56403 
L 127.422066 154.024277 
L 122.564725 158.377154 
L 122.051138 160.77044 
L 119.350859 163.190278 
L 116.841092 168.003402 
L 116.68021 168.430775 
L 111.786183 172.816526 
L 111.309282 174.810931 
L 108.163895 177.62965 
L 105.984986 182.442774 
L 105.938354 182.549146 
L 100.914483 187.255898 
L 100.567425 188.68656 
L 97.422039 192.069022 
L 95.257227 196.882147 
L 95.196497 197.216458 
L 90.823359 201.695271 
L 89.825569 203.483597 
L 87.12529 206.508395 
L 84.454641 208.901681 
L 81.754362 211.321519 
L 80.99132 216.134643 
L 79.454636 220.947767 
L 79.083713 224.936577 
L 73.712785 224.936577 
L 72.333016 225.760891 
L 73.712785 228.233833 
L 73.813223 230.574015 
L 73.712785 231.159061 
L 68.994704 235.387139 
L 68.341856 235.972185 
L 65.196469 240.200263 
L 63.527313 245.013387 
L 63.290221 249.826511 
L 62.970928 250.541842 
L 62.970928 252.536247 
L 64.180437 249.826511 
L 64.454622 245.013387 
L 68.341856 240.368693 
L 68.5533 240.200263 
L 73.712785 235.576623 
L 73.748775 235.387139 
L 74.6692 230.574015 
L 79.083713 226.459735 
L 79.254729 225.760891 
L 80.072842 220.947767 
L 84.170664 216.134643 
L 84.454641 215.243949 
L 85.705215 211.321519 
L 89.825569 207.629089 
L 89.987681 206.508395 
L 93.605286 201.695271 
L 95.196497 200.065608 
L 95.774795 196.882147 
L 100.567425 192.146759 
L 100.600271 192.069022 
L 101.882109 187.255898 
L 105.938354 183.455694 
L 106.382404 182.442774 
L 111.309282 177.687953 
L 111.332775 177.62965 
L 112.58102 172.816526 
L 116.68021 169.143062 
L 117.10923 168.003402 
L 122.051138 163.290853 
L 122.12117 163.190278 
L 123.420702 158.377154 
L 127.422066 154.791356 
L 127.953539 153.56403 
L 132.792994 149.023892 
L 132.958214 148.750906 
L 138.163923 143.964145 
L 138.179658 143.937782 
L 139.482762 139.124658 
L 143.534851 135.493403 
L 144.159564 134.311534 
L 148.905779 129.903577 
L 149.082139 129.49841 
L 154.276707 124.707415 
L 154.284414 124.685286 
L 154.948569 119.872161 
L 159.647635 115.661122 
L 165.018564 115.107756 
L 168.57943 115.059037 
L 170.389492 113.436961 
L 175.76042 110.452357 
L 176.635822 110.245913 
L 178.727808 105.432789 
L 181.131348 103.278872 
L 186.502276 104.165274 
L 191.873204 102.747031 
L 196.324287 100.619665 
L 197.244133 97.322409 
L 198.163978 100.619665 
L 199.875933 105.432789 
L 199.875933 110.245913 
L 197.528109 115.059037 
L 197.244133 115.652833 
L 196.067054 119.872161 
L 195.548482 124.685286 
L 194.505005 129.49841 
L 191.873204 132.905091 
L 190.990395 134.311534 
L 187.553528 139.124658 
L 186.502276 140.773286 
L 184.932838 143.937782 
L 182.94141 148.750906 
L 181.131348 151.454366 
L 179.113498 153.56403 
L 175.76042 155.901128 
L 173.98422 158.377154 
L 173.810832 163.190278 
L 175.76042 166.10213 
L 177.882035 168.003402 
L 175.76042 169.633064 
L 171.517189 168.003402 
L 170.389492 167.570297 
L 169.825643 168.003402 
L 170.389492 171.035139 
L 170.787059 172.816526 
L 170.389492 173.172804 
L 169.395573 172.816526 
L 165.018564 171.695832 
L 162.100557 172.816526 
L 160.641554 177.62965 
L 159.647635 178.520344 
L 157.896831 182.442774 
L 154.276707 186.497964 
L 150.893616 187.255898 
L 148.905779 188.146592 
L 148.40882 187.255898 
L 148.905779 185.474511 
L 149.751552 182.442774 
L 152.804954 177.62965 
L 154.276707 174.332394 
L 155.968253 172.816526 
L 155.404404 168.003402 
L 157.659799 163.190278 
L 154.276707 163.063956 
L 154.065264 163.190278 
L 152.585161 168.003402 
L 148.905779 170.201573 
L 145.987772 172.816526 
L 143.534851 175.014697 
L 138.163923 177.023303 
L 137.881998 177.62965 
L 132.792994 181.538633 
L 132.178866 182.442774 
L 127.422066 186.899314 
L 127.297009 187.255898 
L 126.029504 192.069022 
L 122.382444 196.882147 
L 122.051138 197.475942 
L 119.226149 201.695271 
L 119.133132 206.508395 
L 116.68021 208.706565 
L 115.950708 211.321519 
L 116.68021 212.106005 
L 119.598216 211.321519 
L 122.051138 209.123348 
L 124.50406 211.321519 
L 122.051138 212.970147 
L 120.767052 216.134643 
L 122.051138 217.541086 
L 126.938768 220.947767 
L 122.051138 224.01378 
L 116.68021 221.772081 
L 114.840519 220.947767 
L 111.309282 219.365519 
L 105.938354 218.719344 
L 103.86612 220.947767 
L 100.567425 224.495092 
L 100.195716 225.760891 
L 95.196497 230.4898 
L 95.161976 230.574015 
L 94.339021 235.387139 
L 89.825569 239.731449 
L 89.663213 240.200263 
L 88.937469 245.013387 
L 84.454641 249.030646 
L 84.195612 249.826511 
L 83.590706 254.639635 
L 79.083713 259.351701 
L 79.060698 259.452759 
L 77.764873 264.265883 
L 73.712785 268.722423 
L 73.653233 269.079007 
L 73.462886 273.892132 
L 73.320087 278.705256 
L 68.341856 283.225166 
L 68.188358 283.51838 
L 68.051109 288.331504 
L 68.045823 293.144628 
L 67.546127 297.957752 
L 67.645575 302.770876 
z
M 126.759454 201.695271 
L 127.422066 201.398373 
L 132.461688 196.882147 
L 132.792994 196.288351 
L 133.289954 196.882147 
L 133.289954 201.695271 
L 132.792994 202.140617 
L 127.422066 202.140617 
z
M 143.037892 201.695271 
L 141.413235 196.882147 
L 143.534851 194.980874 
L 147.778082 196.882147 
L 143.818827 201.695271 
L 143.534851 202.289066 
z
M 126.09168 196.882147 
L 127.422066 193.305493 
L 128.752453 196.882147 
L 127.422066 198.074364 
z
M 137.50131 192.069022 
L 138.163923 191.475227 
L 138.660882 192.069022 
L 138.163923 192.514369 
z
M 196.960156 90.993417 
L 196.960156 86.180293 
L 195.43407 81.367169 
L 197.244133 79.049918 
L 199.054195 81.367169 
L 197.528109 86.180293 
L 197.528109 90.993417 
L 197.244133 92.774805 
z
" style="fill:#f0f0f0;"/>
    <path clip-path="url(#pce570b2e83)" d="M 89.825569 293.968942 
L 91.205337 293.144628 
L 89.825569 290.671686 
L 88.905723 293.144628 
z
" style="fill:#f0f0f0;"/>
    <path clip-path="url(#pce570b2e83)" d="M 89.825569 285.991322 
L 90.745415 283.51838 
L 89.825569 282.281909 
L 87.066032 283.51838 
z
" style="fill:#f0f0f0;"/>
    <path clip-path="url(#pce570b2e83)" d="M 100.567425 284.754851 
L 101.487271 283.51838 
L 100.567425 282.281909 
L 99.64758 283.51838 
z
" style="fill:#f0f0f0;"/>
    <path clip-path="url(#pce570b2e83)" d="M 170.389492 284.342694 
L 171.76926 283.51838 
L 175.76042 282.326162 
L 180.60907 278.705256 
L 181.131348 278.525242 
L 181.653626 278.705256 
L 186.502276 281.80889 
L 190.542818 278.705256 
L 191.873204 278.155001 
L 197.244133 277.907494 
L 202.615061 278.549243 
L 203.137339 278.705256 
L 205.28571 283.51838 
L 207.985989 286.543177 
L 211.361337 283.51838 
L 211.44931 278.705256 
L 210.686268 273.892132 
L 207.985989 271.472294 
L 205.315339 269.079007 
L 202.615061 266.659169 
L 199.276749 264.265883 
L 197.244133 260.62285 
L 194.632741 259.452759 
L 191.873204 258.216288 
L 186.502276 256.427962 
L 182.001812 259.452759 
L 183.742739 264.265883 
L 185.582431 269.079007 
L 181.131348 269.87677 
L 175.76042 269.973171 
L 173.099647 269.079007 
L 170.389492 267.257491 
L 168.356875 269.079007 
L 165.018564 270.574811 
L 163.110957 269.079007 
L 165.018564 265.090197 
L 165.938409 264.265883 
L 165.018564 263.029412 
L 162.259027 264.265883 
L 159.647635 264.73392 
L 154.276707 265.595487 
L 149.825625 264.265883 
L 148.905779 263.441569 
L 146.146242 264.265883 
L 143.534851 264.73392 
L 138.686201 269.079007 
L 139.469618 273.892132 
L 138.163923 276.232314 
L 137.293459 273.892132 
L 135.552531 269.079007 
L 132.792994 268.254694 
L 127.422066 267.842537 
L 126.042298 269.079007 
L 127.422066 271.551949 
L 128.29253 273.892132 
L 127.422066 276.232314 
L 126.502221 278.705256 
L 127.422066 281.178197 
L 132.792994 279.52957 
L 138.163923 281.178197 
L 140.923459 278.705256 
L 143.534851 277.535165 
L 146.146242 278.705256 
L 148.905779 281.178197 
L 154.276707 279.941727 
L 159.647635 281.133944 
L 165.018564 281.730053 
L 169.009723 283.51838 
z
M 173.772583 278.705256 
L 170.389492 275.673519 
L 165.018564 276.090302 
L 163.178872 273.892132 
L 165.018564 273.067818 
L 170.389492 273.298336 
L 175.76042 272.466177 
L 181.131348 271.206373 
L 186.502276 271.020242 
L 191.873204 270.344806 
L 196.58152 269.079007 
L 197.244133 268.485212 
L 198.238051 269.079007 
L 202.615061 269.732746 
L 207.256487 273.892132 
L 207.985989 277.814562 
L 208.269966 278.705256 
L 207.985989 279.595949 
L 207.588422 278.705256 
L 202.615061 277.21964 
L 197.244133 276.57789 
L 191.873204 276.620844 
L 186.833582 278.705256 
L 186.502276 278.95974 
L 186.104709 278.705256 
L 181.131348 276.991084 
L 176.157987 278.705256 
L 175.76042 279.002154 
z
M 147.600083 273.892132 
L 148.905779 273.112071 
L 149.776243 273.892132 
L 148.905779 276.232314 
z
M 143.137283 269.079007 
L 143.534851 268.72273 
L 144.528769 269.079007 
L 143.534851 269.672803 
z
M 151.094284 269.079007 
L 154.276707 267.811492 
L 159.647635 268.72273 
L 159.931612 269.079007 
L 159.647635 269.672803 
L 154.276707 271.930916 
z
" style="fill:#f0f0f0;"/>
    <path clip-path="url(#pce570b2e83)" d="M 116.68021 281.133944 
L 118.712826 278.705256 
L 119.439747 273.892132 
L 116.68021 271.41919 
L 114.068819 269.079007 
L 111.309282 268.254694 
L 110.389436 269.079007 
L 108.549745 273.892132 
L 111.309282 276.365073 
L 112.614977 278.705256 
z
" style="fill:#f0f0f0;"/>
    <path clip-path="url(#pce570b2e83)" d="M 89.825569 269.903321 
L 91.205337 269.079007 
L 89.825569 268.254694 
L 88.905723 269.079007 
z
" style="fill:#f0f0f0;"/>
    <path clip-path="url(#pce570b2e83)" d="M 170.389492 260.277073 
L 173.149029 259.452759 
L 170.389492 258.216288 
L 169.009723 259.452759 
z
" style="fill:#f0f0f0;"/>
    <path clip-path="url(#pce570b2e83)" d="M 191.873204 252.2552 
L 193.905821 249.826511 
L 191.873204 246.183478 
L 187.807972 249.826511 
z
" style="fill:#f0f0f0;"/>
    <path clip-path="url(#pce570b2e83)" d="M 186.502276 236.211453 
L 187.882045 235.387139 
L 186.502276 234.150668 
L 185.582431 235.387139 
z
" style="fill:#f0f0f0;"/>
    <path clip-path="url(#pce570b2e83)" d="M 170.389492 134.772996 
L 175.76042 137.34327 
L 179.143511 134.311534 
L 175.76042 131.279797 
L 170.389492 132.350319 
L 170.293294 134.311534 
z
" style="fill:#f0f0f0;"/>
    <path clip-path="url(#pce570b2e83)" d="M 175.76042 128.607716 
L 181.131348 125.44322 
L 184.514439 124.685286 
L 181.131348 121.653549 
L 175.76042 124.081835 
L 175.6437 124.685286 
z
" style="fill:#f0f0f0;"/>
    <path clip-path="url(#pce570b2e83)" d="M 181.131348 119.278366 
L 185.839664 115.059037 
L 181.131348 113.908312 
L 180.76917 115.059037 
z
" style="fill:#f0f0f0;"/>
   </g>
   <g id="PathCollection_4">
    <path clip-path="url(#pce570b2e83)" d="M 67.546127 297.957752 
L 68.045823 293.144628 
L 68.051109 288.331504 
L 68.188358 283.51838 
L 68.341856 283.225166 
L 73.320087 278.705256 
L 73.462886 273.892132 
L 73.653233 269.079007 
L 73.712785 268.722423 
L 77.764873 264.265883 
L 79.060698 259.452759 
L 79.083713 259.351701 
L 83.590706 254.639635 
L 84.195612 249.826511 
L 84.454641 249.030646 
L 88.937469 245.013387 
L 89.663213 240.200263 
L 89.825569 239.731449 
L 94.339021 235.387139 
L 95.161976 230.574015 
L 95.196497 230.4898 
L 100.195716 225.760891 
L 100.567425 224.495092 
L 103.86612 220.947767 
L 105.938354 218.719344 
L 111.309282 219.365519 
L 114.840519 220.947767 
L 116.68021 221.772081 
L 122.051138 224.01378 
L 126.938768 220.947767 
L 122.051138 217.541086 
L 120.767052 216.134643 
L 122.051138 212.970147 
L 124.50406 211.321519 
L 122.051138 209.123348 
L 119.598216 211.321519 
L 116.68021 212.106005 
L 115.950708 211.321519 
L 116.68021 208.706565 
L 119.133132 206.508395 
L 119.226149 201.695271 
L 122.051138 197.475942 
L 122.382444 196.882147 
L 126.029504 192.069022 
L 127.297009 187.255898 
L 127.422066 186.899314 
L 132.178866 182.442774 
L 132.792994 181.538633 
L 137.881998 177.62965 
L 138.163923 177.023303 
L 143.534851 175.014697 
L 145.987772 172.816526 
L 148.905779 170.201573 
L 152.585161 168.003402 
L 154.065264 163.190278 
L 154.276707 163.063956 
L 157.659799 163.190278 
L 155.404404 168.003402 
L 155.968253 172.816526 
L 154.276707 174.332394 
L 152.804954 177.62965 
L 149.751552 182.442774 
L 148.905779 185.474511 
L 148.40882 187.255898 
L 148.905779 188.146592 
L 150.893616 187.255898 
L 154.276707 186.497964 
L 157.896831 182.442774 
L 159.647635 178.520344 
L 160.641554 177.62965 
L 162.100557 172.816526 
L 165.018564 171.695832 
L 169.395573 172.816526 
L 170.389492 173.172804 
L 170.787059 172.816526 
L 170.389492 171.035139 
L 169.825643 168.003402 
L 170.389492 167.570297 
L 171.517189 168.003402 
L 175.76042 169.633064 
L 177.882035 168.003402 
L 175.76042 166.10213 
L 173.810832 163.190278 
L 173.98422 158.377154 
L 175.76042 155.901128 
L 179.113498 153.56403 
L 181.131348 151.454366 
L 182.94141 148.750906 
L 184.932838 143.937782 
L 186.502276 140.773286 
L 187.553528 139.124658 
L 190.990395 134.311534 
L 191.873204 132.905091 
L 194.505005 129.49841 
L 195.548482 124.685286 
L 196.067054 119.872161 
L 197.244133 115.652833 
L 197.528109 115.059037 
L 199.875933 110.245913 
L 199.875933 105.432789 
L 198.163978 100.619665 
L 197.244133 97.322409 
L 196.324287 100.619665 
L 191.873204 102.747031 
L 186.502276 104.165274 
L 181.131348 103.278872 
L 178.727808 105.432789 
L 176.635822 110.245913 
L 175.76042 110.452357 
L 170.389492 113.436961 
L 168.57943 115.059037 
L 165.018564 115.107756 
L 159.647635 115.661122 
L 154.948569 119.872161 
L 154.284414 124.685286 
L 154.276707 124.707415 
L 149.082139 129.49841 
L 148.905779 129.903577 
L 144.159564 134.311534 
L 143.534851 135.493403 
L 139.482762 139.124658 
L 138.179658 143.937782 
L 138.163923 143.964145 
L 132.958214 148.750906 
L 132.792994 149.023892 
L 127.953539 153.56403 
L 127.422066 154.791356 
L 123.420702 158.377154 
L 122.12117 163.190278 
L 122.051138 163.290853 
L 117.10923 168.003402 
L 116.68021 169.143062 
L 112.58102 172.816526 
L 111.332775 177.62965 
L 111.309282 177.687953 
L 106.382404 182.442774 
L 105.938354 183.455694 
L 101.882109 187.255898 
L 100.600271 192.069022 
L 100.567425 192.146759 
L 95.774795 196.882147 
L 95.196497 200.065608 
L 93.605286 201.695271 
L 89.987681 206.508395 
L 89.825569 207.629089 
L 85.705215 211.321519 
L 84.454641 215.243949 
L 84.170664 216.134643 
L 80.072842 220.947767 
L 79.254729 225.760891 
L 79.083713 226.459735 
L 74.6692 230.574015 
L 73.748775 235.387139 
L 73.712785 235.576623 
L 68.5533 240.200263 
L 68.341856 240.368693 
L 64.454622 245.013387 
L 64.180437 249.826511 
L 62.970928 252.536247 
L 62.970928 254.639635 
L 62.970928 256.162504 
L 63.608187 254.639635 
L 66.138914 249.826511 
L 66.494702 245.013387 
L 68.341856 242.806299 
L 71.613419 240.200263 
L 73.712785 238.31893 
L 74.269646 235.387139 
L 76.55235 230.574015 
L 79.083713 228.214812 
L 79.68422 225.760891 
L 81.432895 220.947767 
L 84.454641 217.586213 
L 85.034568 216.134643 
L 89.825569 211.558754 
L 89.946045 211.321519 
L 90.894383 206.508395 
L 95.196497 202.344656 
L 95.433309 201.695271 
L 96.913444 196.882147 
L 100.567425 193.271808 
L 101.075629 192.069022 
L 104.010888 187.255898 
L 105.938354 185.450099 
L 107.256723 182.442774 
L 111.309282 178.53174 
L 111.672789 177.62965 
L 114.329659 172.816526 
L 116.68021 170.710095 
L 117.699132 168.003402 
L 122.051138 163.853378 
L 122.512866 163.190278 
L 125.303852 158.377154 
L 127.422066 156.47893 
L 128.684314 153.56403 
L 132.792994 149.709469 
L 133.373145 148.750906 
L 138.163923 144.345683 
L 138.407388 143.937782 
L 141.296166 139.124658 
L 143.534851 137.118474 
L 145.018545 134.311534 
L 148.905779 130.70134 
L 149.429387 129.49841 
L 154.276707 125.027684 
L 154.395944 124.685286 
L 155.872378 119.872161 
L 159.647635 116.488988 
L 165.018564 115.174743 
L 170.389492 115.25518 
L 171.324682 115.059037 
L 175.76042 111.607013 
L 179.513736 115.059037 
L 176.860978 119.872161 
L 175.76042 120.706688 
L 174.990874 124.685286 
L 170.389492 129.041096 
L 170.314477 129.49841 
L 169.755251 134.311534 
L 170.389492 137.353991 
L 172.628815 139.124658 
L 173.948809 143.937782 
L 174.921597 148.750906 
L 174.698322 153.56403 
L 170.48694 158.377154 
L 170.389492 158.784685 
L 165.018564 161.873318 
L 159.647635 160.38391 
L 154.276707 161.235751 
L 151.005145 163.190278 
L 148.905779 165.340374 
L 143.534851 166.444309 
L 142.330387 168.003402 
L 138.163923 172.163868 
L 137.80989 172.816526 
L 133.801839 177.62965 
L 132.792994 178.404567 
L 130.050088 182.442774 
L 127.422066 184.904909 
L 126.597553 187.255898 
L 122.532225 192.069022 
L 122.051138 192.672594 
L 120.172175 196.882147 
L 116.68021 200.283563 
L 116.033206 201.695271 
L 112.898106 206.508395 
L 111.870549 211.321519 
L 111.309282 212.528662 
L 105.938354 215.533646 
L 105.650933 216.134643 
L 100.567425 220.824184 
L 100.4918 220.947767 
L 98.907245 225.760891 
L 95.196497 229.270997 
L 94.662365 230.574015 
L 92.65068 235.387139 
L 89.825569 238.106378 
L 89.100433 240.200263 
L 87.188829 245.013387 
L 84.454641 247.463613 
L 83.685592 249.826511 
L 82.191794 254.639635 
L 79.083713 257.889138 
L 78.727624 259.452759 
L 75.951469 264.265883 
L 73.712785 266.728018 
L 73.320159 269.079007 
L 73.058242 273.892132 
L 72.684218 278.705256 
L 68.341856 282.647838 
L 67.886124 283.51838 
L 67.580321 288.331504 
L 67.462943 293.144628 
L 66.257655 297.957752 
L 65.896935 302.770876 
L 67.645575 302.770876 
z
M 170.293294 134.311534 
L 170.389492 132.350319 
L 175.76042 131.279797 
L 179.143511 134.311534 
L 175.76042 137.34327 
L 170.389492 134.772996 
z
M 184.744738 134.311534 
L 186.502276 130.899019 
L 187.930276 134.311534 
L 186.502276 136.017791 
z
M 175.6437 124.685286 
L 175.76042 124.081835 
L 181.131348 121.653549 
L 184.514439 124.685286 
L 181.131348 125.44322 
L 175.76042 128.607716 
z
M 189.857567 124.685286 
L 191.721617 119.872161 
L 191.873204 119.260865 
L 191.986895 119.872161 
L 193.216963 124.685286 
L 191.873204 127.846312 
z
M 180.76917 115.059037 
L 181.131348 113.908312 
L 185.839664 115.059037 
L 181.131348 119.278366 
z
" style="fill:#d3d3d3;"/>
    <path clip-path="url(#pce570b2e83)" d="M 175.76042 279.002154 
L 176.157987 278.705256 
L 181.131348 276.991084 
L 186.104709 278.705256 
L 186.502276 278.95974 
L 186.833582 278.705256 
L 191.873204 276.620844 
L 197.244133 276.57789 
L 202.615061 277.21964 
L 207.588422 278.705256 
L 207.985989 279.595949 
L 208.269966 278.705256 
L 207.985989 277.814562 
L 207.256487 273.892132 
L 202.615061 269.732746 
L 198.238051 269.079007 
L 197.244133 268.485212 
L 196.58152 269.079007 
L 191.873204 270.344806 
L 186.502276 271.020242 
L 181.131348 271.206373 
L 175.76042 272.466177 
L 170.389492 273.298336 
L 165.018564 273.067818 
L 163.178872 273.892132 
L 165.018564 276.090302 
L 170.389492 275.673519 
L 173.772583 278.705256 
z
M 199.247456 273.892132 
L 202.615061 273.389155 
L 203.176328 273.892132 
L 202.615061 274.294513 
z
" style="fill:#d3d3d3;"/>
    <path clip-path="url(#pce570b2e83)" d="M 143.534851 269.672803 
L 144.528769 269.079007 
L 143.534851 268.72273 
L 143.137283 269.079007 
z
" style="fill:#d3d3d3;"/>
    <path clip-path="url(#pce570b2e83)" d="M 154.276707 271.930916 
L 159.647635 269.672803 
L 159.931612 269.079007 
L 159.647635 268.72273 
L 154.276707 267.811492 
L 151.094284 269.079007 
z
" style="fill:#d3d3d3;"/>
    <path clip-path="url(#pce570b2e83)" d="M 127.422066 202.140617 
L 132.792994 202.140617 
L 133.289954 201.695271 
L 133.289954 196.882147 
L 132.792994 196.288351 
L 132.461688 196.882147 
L 127.422066 201.398373 
L 126.759454 201.695271 
z
" style="fill:#d3d3d3;"/>
    <path clip-path="url(#pce570b2e83)" d="M 143.534851 202.289066 
L 143.818827 201.695271 
L 147.778082 196.882147 
L 143.534851 194.980874 
L 141.413235 196.882147 
L 143.037892 201.695271 
z
" style="fill:#d3d3d3;"/>
    <path clip-path="url(#pce570b2e83)" d="M 138.163923 192.514369 
L 138.660882 192.069022 
L 138.163923 191.475227 
L 137.50131 192.069022 
z
" style="fill:#d3d3d3;"/>
    <path clip-path="url(#pce570b2e83)" d="M 197.244133 92.774805 
L 197.528109 90.993417 
L 197.528109 86.180293 
L 199.054195 81.367169 
L 197.244133 79.049918 
L 195.43407 81.367169 
L 196.960156 86.180293 
L 196.960156 90.993417 
z
" style="fill:#d3d3d3;"/>
   </g>
   <g id="PathCollection_5">
    <path clip-path="url(#pce570b2e83)" d="M 66.257655 297.957752 
L 67.462943 293.144628 
L 67.580321 288.331504 
L 67.886124 283.51838 
L 68.341856 282.647838 
L 72.684218 278.705256 
L 73.058242 273.892132 
L 73.320159 269.079007 
L 73.712785 266.728018 
L 75.951469 264.265883 
L 78.727624 259.452759 
L 79.083713 257.889138 
L 82.191794 254.639635 
L 83.685592 249.826511 
L 84.454641 247.463613 
L 87.188829 245.013387 
L 89.100433 240.200263 
L 89.825569 238.106378 
L 92.65068 235.387139 
L 94.662365 230.574015 
L 95.196497 229.270997 
L 98.907245 225.760891 
L 100.4918 220.947767 
L 100.567425 220.824184 
L 105.650933 216.134643 
L 105.938354 215.533646 
L 111.309282 212.528662 
L 111.870549 211.321519 
L 112.898106 206.508395 
L 116.033206 201.695271 
L 116.68021 200.283563 
L 120.172175 196.882147 
L 122.051138 192.672594 
L 122.532225 192.069022 
L 126.597553 187.255898 
L 127.422066 184.904909 
L 130.050088 182.442774 
L 132.792994 178.404567 
L 133.801839 177.62965 
L 137.80989 172.816526 
L 138.163923 172.163868 
L 142.330387 168.003402 
L 143.534851 166.444309 
L 148.905779 165.340374 
L 151.005145 163.190278 
L 154.276707 161.235751 
L 159.647635 160.38391 
L 165.018564 161.873318 
L 170.389492 158.784685 
L 170.48694 158.377154 
L 174.698322 153.56403 
L 174.921597 148.750906 
L 173.948809 143.937782 
L 172.628815 139.124658 
L 170.389492 137.353991 
L 169.755251 134.311534 
L 170.314477 129.49841 
L 170.389492 129.041096 
L 174.990874 124.685286 
L 175.76042 120.706688 
L 176.860978 119.872161 
L 179.513736 115.059037 
L 175.76042 111.607013 
L 171.324682 115.059037 
L 170.389492 115.25518 
L 165.018564 115.174743 
L 159.647635 116.488988 
L 155.872378 119.872161 
L 154.395944 124.685286 
L 154.276707 125.027684 
L 149.429387 129.49841 
L 148.905779 130.70134 
L 145.018545 134.311534 
L 143.534851 137.118474 
L 141.296166 139.124658 
L 138.407388 143.937782 
L 138.163923 144.345683 
L 133.373145 148.750906 
L 132.792994 149.709469 
L 128.684314 153.56403 
L 127.422066 156.47893 
L 125.303852 158.377154 
L 122.512866 163.190278 
L 122.051138 163.853378 
L 117.699132 168.003402 
L 116.68021 170.710095 
L 114.329659 172.816526 
L 111.672789 177.62965 
L 111.309282 178.53174 
L 107.256723 182.442774 
L 105.938354 185.450099 
L 104.010888 187.255898 
L 101.075629 192.069022 
L 100.567425 193.271808 
L 96.913444 196.882147 
L 95.433309 201.695271 
L 95.196497 202.344656 
L 90.894383 206.508395 
L 89.946045 211.321519 
L 89.825569 211.558754 
L 85.034568 216.134643 
L 84.454641 217.586213 
L 81.432895 220.947767 
L 79.68422 225.760891 
L 79.083713 228.214812 
L 76.55235 230.574015 
L 74.269646 235.387139 
L 73.712785 238.31893 
L 71.613419 240.200263 
L 68.341856 242.806299 
L 66.494702 245.013387 
L 66.138914 249.826511 
L 63.608187 254.639635 
L 62.970928 256.162504 
L 62.970928 258.821711 
L 64.720958 254.639635 
L 67.919347 249.826511 
L 68.341856 245.093645 
L 68.345927 245.013387 
L 73.712785 240.413019 
L 73.769962 240.200263 
L 74.743166 235.387139 
L 78.264305 230.574015 
L 79.083713 229.810336 
L 80.074665 225.760891 
L 82.669307 220.947767 
L 84.454641 218.961664 
L 85.584084 216.134643 
L 89.825569 212.083598 
L 90.212577 211.321519 
L 91.718657 206.508395 
L 95.196497 203.142418 
L 95.72423 201.695271 
L 97.94858 196.882147 
L 100.567425 194.29458 
L 101.507773 192.069022 
L 105.938354 187.257787 
L 105.939349 187.255898 
L 108.05156 182.442774 
L 111.309282 179.298819 
L 111.981892 177.62965 
L 115.919332 172.816526 
L 116.68021 172.13467 
L 118.235407 168.003402 
L 122.051138 164.364764 
L 122.868952 163.190278 
L 127.015807 158.377154 
L 127.422066 158.013087 
L 129.348654 153.56403 
L 132.792994 150.33272 
L 133.750356 148.750906 
L 138.163923 144.692536 
L 138.614415 143.937782 
L 142.944715 139.124658 
L 143.534851 138.595811 
L 145.799437 134.311534 
L 148.905779 131.426578 
L 149.745066 129.49841 
L 154.276707 125.318838 
L 154.497335 124.685286 
L 156.712205 119.872161 
L 159.647635 117.241594 
L 165.018564 115.235641 
L 170.389492 115.538075 
L 172.673495 115.059037 
L 175.76042 112.656699 
L 178.372433 115.059037 
L 175.76042 118.710591 
L 175.516776 119.872161 
L 174.397396 124.685286 
L 170.389492 128.479292 
L 170.222322 129.49841 
L 169.266121 134.311534 
L 169.985011 139.124658 
L 170.389492 140.522767 
L 171.723268 143.937782 
L 174.126761 148.750906 
L 172.843704 153.56403 
L 170.389492 156.342127 
L 167.513055 158.377154 
L 165.018564 159.973885 
L 160.861077 158.377154 
L 159.647635 157.624326 
L 158.282514 158.377154 
L 154.276707 159.573747 
L 148.905779 162.646569 
L 147.995698 163.190278 
L 143.534851 164.966972 
L 141.189084 168.003402 
L 138.163923 171.024208 
L 137.191684 172.816526 
L 132.792994 177.182892 
L 132.525187 177.62965 
L 128.114834 182.442774 
L 127.422066 183.091813 
L 125.961684 187.255898 
L 122.051138 191.485361 
L 121.611887 192.069022 
L 118.391742 196.882147 
L 116.68021 198.549298 
L 115.23837 201.695271 
L 111.309282 205.98174 
L 111.012207 206.508395 
L 109.798257 211.321519 
L 105.938354 214.204043 
L 105.015064 216.134643 
L 100.567425 220.237594 
L 100.132842 220.947767 
L 97.735907 225.760891 
L 95.196497 228.162994 
L 94.208172 230.574015 
L 91.115824 235.387139 
L 89.825569 236.629041 
L 88.588814 240.200263 
L 85.599157 245.013387 
L 84.454641 246.039038 
L 83.221937 249.826511 
L 80.920056 254.639635 
L 79.083713 256.559534 
L 78.42483 259.452759 
L 74.30292 264.265883 
L 73.712785 264.914922 
L 73.017364 269.079007 
L 72.690384 273.892132 
L 72.106155 278.705256 
L 68.341856 282.122995 
L 67.611365 283.51838 
L 67.152333 288.331504 
L 66.933052 293.144628 
L 65.086318 297.957752 
L 64.307263 302.770876 
L 65.896935 302.770876 
z
" style="fill:#b8b8b8;"/>
    <path clip-path="url(#pce570b2e83)" d="M 202.615061 274.294513 
L 203.176328 273.892132 
L 202.615061 273.389155 
L 199.247456 273.892132 
z
" style="fill:#b8b8b8;"/>
    <path clip-path="url(#pce570b2e83)" d="M 159.647635 144.671907 
L 161.449886 143.937782 
L 159.647635 143.631122 
L 159.431365 143.937782 
z
" style="fill:#b8b8b8;"/>
    <path clip-path="url(#pce570b2e83)" d="M 186.502276 136.017791 
L 187.930276 134.311534 
L 186.502276 130.899019 
L 184.744738 134.311534 
z
" style="fill:#b8b8b8;"/>
    <path clip-path="url(#pce570b2e83)" d="M 191.873204 127.846312 
L 193.216963 124.685286 
L 191.986895 119.872161 
L 191.873204 119.260865 
L 191.721617 119.872161 
L 189.857567 124.685286 
z
" style="fill:#b8b8b8;"/>
   </g>
   <g id="PathCollection_6">
    <path clip-path="url(#pce570b2e83)" d="M 65.086318 297.957752 
L 66.933052 293.144628 
L 67.152333 288.331504 
L 67.611365 283.51838 
L 68.341856 282.122995 
L 72.106155 278.705256 
L 72.690384 273.892132 
L 73.017364 269.079007 
L 73.712785 264.914922 
L 74.30292 264.265883 
L 78.42483 259.452759 
L 79.083713 256.559534 
L 80.920056 254.639635 
L 83.221937 249.826511 
L 84.454641 246.039038 
L 85.599157 245.013387 
L 88.588814 240.200263 
L 89.825569 236.629041 
L 91.115824 235.387139 
L 94.208172 230.574015 
L 95.196497 228.162994 
L 97.735907 225.760891 
L 100.132842 220.947767 
L 100.567425 220.237594 
L 105.015064 216.134643 
L 105.938354 214.204043 
L 109.798257 211.321519 
L 111.012207 206.508395 
L 111.309282 205.98174 
L 115.23837 201.695271 
L 116.68021 198.549298 
L 118.391742 196.882147 
L 121.611887 192.069022 
L 122.051138 191.485361 
L 125.961684 187.255898 
L 127.422066 183.091813 
L 128.114834 182.442774 
L 132.525187 177.62965 
L 132.792994 177.182892 
L 137.191684 172.816526 
L 138.163923 171.024208 
L 141.189084 168.003402 
L 143.534851 164.966972 
L 147.995698 163.190278 
L 148.905779 162.646569 
L 154.276707 159.573747 
L 158.282514 158.377154 
L 159.647635 157.624326 
L 160.861077 158.377154 
L 165.018564 159.973885 
L 167.513055 158.377154 
L 170.389492 156.342127 
L 172.843704 153.56403 
L 174.126761 148.750906 
L 171.723268 143.937782 
L 170.389492 140.522767 
L 169.985011 139.124658 
L 169.266121 134.311534 
L 170.222322 129.49841 
L 170.389492 128.479292 
L 174.397396 124.685286 
L 175.516776 119.872161 
L 175.76042 118.710591 
L 178.372433 115.059037 
L 175.76042 112.656699 
L 172.673495 115.059037 
L 170.389492 115.538075 
L 165.018564 115.235641 
L 159.647635 117.241594 
L 156.712205 119.872161 
L 154.497335 124.685286 
L 154.276707 125.318838 
L 149.745066 129.49841 
L 148.905779 131.426578 
L 145.799437 134.311534 
L 143.534851 138.595811 
L 142.944715 139.124658 
L 138.614415 143.937782 
L 138.163923 144.692536 
L 133.750356 148.750906 
L 132.792994 150.33272 
L 129.348654 153.56403 
L 127.422066 158.013087 
L 127.015807 158.377154 
L 122.868952 163.190278 
L 122.051138 164.364764 
L 118.235407 168.003402 
L 116.68021 172.13467 
L 115.919332 172.816526 
L 111.981892 177.62965 
L 111.309282 179.298819 
L 108.05156 182.442774 
L 105.939349 187.255898 
L 105.938354 187.257787 
L 101.507773 192.069022 
L 100.567425 194.29458 
L 97.94858 196.882147 
L 95.72423 201.695271 
L 95.196497 203.142418 
L 91.718657 206.508395 
L 90.212577 211.321519 
L 89.825569 212.083598 
L 85.584084 216.134643 
L 84.454641 218.961664 
L 82.669307 220.947767 
L 80.074665 225.760891 
L 79.083713 229.810336 
L 78.264305 230.574015 
L 74.743166 235.387139 
L 73.769962 240.200263 
L 73.712785 240.413019 
L 68.345927 245.013387 
L 68.341856 245.093645 
L 67.919347 249.826511 
L 64.720958 254.639635 
L 62.970928 258.821711 
L 62.970928 259.452759 
L 62.970928 264.265883 
L 62.970928 269.079007 
L 62.970928 273.892132 
L 62.970928 278.705256 
L 62.970928 283.51838 
L 62.970928 288.331504 
L 62.970928 293.144628 
L 62.970928 297.957752 
L 62.970928 302.770876 
L 64.307263 302.770876 
z
M 159.431365 143.937782 
L 159.647635 143.631122 
L 161.449886 143.937782 
L 159.647635 144.671907 
z
" style="fill:#a0a0a0;"/>
   </g>
   <g id="PathCollection_7">
    <path clip-path="url(#pce570b2e83)" d="M 65.291599 307.584 
L 67.855465 307.584 
L 70.419331 307.584 
L 72.983197 307.584 
L 75.547064 307.584 
L 78.11093 307.584 
L 80.674796 307.584 
L 83.238662 307.584 
L 85.802528 307.584 
L 88.366395 307.584 
L 90.930261 307.584 
L 93.494127 307.584 
L 96.057993 307.584 
L 98.62186 307.584 
L 101.185726 307.584 
L 103.749592 307.584 
L 106.313458 307.584 
L 108.877324 307.584 
L 111.441191 307.584 
L 114.005057 307.584 
L 114.277587 307.584 
L 115.218005 306.863054 
L 115.915134 306.142107 
L 116.241743 305.421161 
L 116.204474 304.700214 
L 115.959482 303.979268 
L 115.408326 303.258321 
L 114.615913 302.537375 
L 114.005057 302.089708 
L 113.563549 301.816428 
L 112.193239 301.095482 
L 111.441191 300.800563 
L 110.51383 300.374535 
L 108.877324 299.684082 
L 108.803838 299.653589 
L 107.036505 298.932642 
L 106.313458 298.669914 
L 104.958844 298.211696 
L 103.749592 297.858544 
L 102.438959 297.490749 
L 101.185726 297.114716 
L 100.016288 296.769803 
L 98.62186 296.309344 
L 97.771725 296.048856 
L 96.057993 295.565127 
L 94.919996 295.32791 
L 93.494127 295.034047 
L 91.711487 294.606964 
L 90.930261 294.399303 
L 88.366395 293.961236 
L 87.874591 293.886017 
L 85.802528 293.593623 
L 83.238662 293.295421 
L 81.479509 293.165071 
L 80.674796 293.108318 
L 78.11093 293.024158 
L 75.547064 293.030502 
L 72.983197 293.13003 
L 72.361286 293.165071 
L 70.419331 293.279683 
L 67.855465 293.537346 
L 67.530524 293.886017 
L 66.940359 294.606964 
L 66.322584 295.32791 
L 65.752552 296.048856 
L 65.291599 296.711275 
L 65.281482 296.769803 
L 65.142135 297.490749 
L 65.001287 298.211696 
L 64.885598 298.932642 
L 64.785943 299.653589 
L 64.692246 300.374535 
L 64.607878 301.095482 
L 64.546616 301.816428 
L 64.495454 302.537375 
L 64.45469 303.258321 
L 64.426337 303.979268 
L 64.413734 304.700214 
L 64.411817 305.421161 
L 64.428619 306.142107 
L 64.464481 306.863054 
L 64.512859 307.584 
z
" style="fill:#4d94ff;fill-opacity:0.2;"/>
   </g>
   <g id="PathCollection_8">
    <path clip-path="url(#pce570b2e83)" d="M 69.815102 307.584 
L 72.258122 307.584 
L 74.701142 307.584 
L 77.144163 307.584 
L 79.587183 307.584 
L 82.030203 307.584 
L 84.473223 307.584 
L 86.916244 307.584 
L 89.359264 307.584 
L 91.802284 307.584 
L 94.245305 307.584 
L 96.688325 307.584 
L 99.131345 307.584 
L 101.574366 307.584 
L 104.017386 307.584 
L 106.460406 307.584 
L 108.903427 307.584 
L 111.346447 307.584 
L 113.789467 307.584 
L 116.232488 307.584 
L 118.675508 307.584 
L 121.118528 307.584 
L 123.561548 307.584 
L 126.004569 307.584 
L 128.447589 307.584 
L 130.890609 307.584 
L 133.33363 307.584 
L 135.77665 307.584 
L 137.006382 307.584 
L 138.21967 306.939839 
L 139.810662 306.123612 
L 140.662691 305.691317 
L 142.41918 304.663224 
L 143.105711 304.207052 
L 144.53047 303.202836 
L 145.548731 302.44353 
L 146.475646 301.742448 
L 147.991752 300.523141 
L 148.269639 300.28206 
L 149.428822 298.821672 
L 150.434772 297.859903 
L 150.865695 297.361284 
L 152.198699 295.900896 
L 152.877792 294.990825 
L 153.288611 294.440508 
L 154.227068 292.98012 
L 155.056665 291.519732 
L 155.320813 290.605381 
L 155.462081 290.059344 
L 155.703128 288.598956 
L 155.703128 287.138568 
L 155.320813 285.745711 
L 155.300101 285.67818 
L 154.861903 284.217792 
L 154.16896 282.757404 
L 153.442728 281.297016 
L 152.877792 280.195336 
L 152.695425 279.836628 
L 151.890064 278.37624 
L 150.807626 276.915852 
L 150.434772 276.485591 
L 149.35432 275.455464 
L 147.991752 274.396217 
L 147.433038 273.995076 
L 145.548731 272.731534 
L 145.249683 272.534688 
L 143.105711 271.087336 
L 143.085195 271.0743 
L 140.662691 270.057827 
L 139.422429 269.613912 
L 138.21967 269.127663 
L 135.865853 268.153524 
L 135.77665 268.128003 
L 133.33363 267.540044 
L 130.890609 267.00449 
L 129.432702 266.693136 
L 128.447589 266.488783 
L 126.004569 265.991423 
L 123.561548 265.57089 
L 121.683155 265.232748 
L 121.118528 265.141983 
L 118.675508 264.800258 
L 116.232488 264.487152 
L 113.789467 264.164504 
L 111.346447 263.790439 
L 111.177161 263.77236 
L 108.903427 263.517957 
L 106.460406 263.118411 
L 104.017386 262.86593 
L 101.574366 262.716132 
L 99.131345 262.616432 
L 96.688325 262.616432 
L 94.245305 262.780181 
L 91.802284 262.970602 
L 89.359264 263.231501 
L 86.916244 263.573925 
L 85.748062 263.77236 
L 84.473223 263.981006 
L 82.030203 264.549539 
L 79.587183 265.058521 
L 78.896074 265.232748 
L 77.144163 265.734563 
L 74.701142 266.574246 
L 74.35829 266.693136 
L 72.258122 267.457117 
L 70.313947 268.153524 
L 69.815102 268.41435 
L 67.936338 269.613912 
L 67.372081 269.939334 
L 66.993402 271.0743 
L 66.684491 272.534688 
L 66.377893 273.995076 
L 66.100185 275.455464 
L 65.877866 276.915852 
L 65.691606 278.37624 
L 65.553024 279.836628 
L 65.426957 281.297016 
L 65.305238 282.757404 
L 65.189099 284.217792 
L 65.115655 285.67818 
L 65.041376 287.138568 
L 65.041376 288.598956 
L 65.08602 290.059344 
L 65.156456 291.519732 
L 65.295499 292.98012 
L 65.452788 294.440508 
L 65.638498 295.900896 
L 65.867874 297.361284 
L 66.089279 298.821672 
L 66.258964 300.28206 
L 66.511982 301.742448 
L 66.787158 303.202836 
L 67.086217 304.663224 
L 67.372081 305.858387 
L 67.696499 306.123612 
L 69.486209 307.584 
z
" style="fill:#ff8533;fill-opacity:0.2;"/>
   </g>
   <g id="PathCollection_9">
    <path clip-path="url(#pce570b2e83)" d="M 62.116394 307.584 
L 64.374591 307.584 
L 66.632789 307.584 
L 68.890986 307.584 
L 71.149183 307.584 
L 73.40738 307.584 
L 75.665577 307.584 
L 77.923774 307.584 
L 80.181972 307.584 
L 82.440169 307.584 
L 84.698366 307.584 
L 86.956563 307.584 
L 89.21476 307.584 
L 91.472957 307.584 
L 93.731155 307.584 
L 95.989352 307.584 
L 98.247549 307.584 
L 100.505746 307.584 
L 102.763943 307.584 
L 105.02214 307.584 
L 107.280337 307.584 
L 109.538535 307.584 
L 111.796732 307.584 
L 114.054929 307.584 
L 116.313126 307.584 
L 118.571323 307.584 
L 120.82952 307.584 
L 123.087718 307.584 
L 125.345915 307.584 
L 127.604112 307.584 
L 129.862309 307.584 
L 132.120506 307.584 
L 134.378703 307.584 
L 136.6369 307.584 
L 138.895098 307.584 
L 141.153295 307.584 
L 143.411492 307.584 
L 144.192507 307.584 
L 144.87966 306.778295 
L 144.999753 305.972591 
L 144.603003 305.166886 
L 143.942079 304.361182 
L 143.411492 303.999524 
L 142.656014 303.555477 
L 141.153295 303.028674 
L 140.394595 302.749772 
L 138.895098 302.193148 
L 138.225633 301.944068 
L 136.6369 301.465218 
L 135.391627 301.138363 
L 134.378703 300.905795 
L 132.120506 300.475643 
L 131.084345 300.332659 
L 129.862309 300.176737 
L 127.604112 299.806402 
L 125.500749 299.526954 
L 125.345915 299.505348 
L 123.087718 299.256553 
L 120.82952 298.999841 
L 118.571323 298.783731 
L 117.881369 298.72125 
L 116.313126 298.566289 
L 114.054929 298.350353 
L 111.796732 298.125002 
L 109.890051 297.915545 
L 109.538535 297.88458 
L 107.280337 297.707169 
L 105.02214 297.545155 
L 102.763943 297.372994 
L 100.505746 297.210642 
L 99.119133 297.10984 
L 98.247549 297.037103 
L 95.989352 296.86399 
L 93.731155 296.742684 
L 91.472957 296.57551 
L 89.21476 296.446078 
L 86.956563 296.339982 
L 86.172301 296.304136 
L 84.698366 296.222718 
L 82.440169 296.088668 
L 80.181972 296.016385 
L 77.923774 295.976653 
L 75.665577 295.934728 
L 73.40738 295.934728 
L 71.149183 295.982927 
L 68.890986 296.073689 
L 66.632789 296.209318 
L 65.344669 296.304136 
L 64.374591 296.363451 
L 63.795507 297.10984 
L 63.179859 297.915545 
L 62.75103 298.72125 
L 62.337613 299.526954 
L 62.116394 299.974281 
L 62.045759 300.332659 
L 61.908976 301.138363 
L 61.798405 301.944068 
L 61.713503 302.749772 
L 61.63141 303.555477 
L 61.5838 304.361182 
L 61.557579 305.166886 
L 61.541838 305.972591 
L 61.546603 306.778295 
L 61.573865 307.584 
z
" style="fill:#00b300;fill-opacity:0.2;"/>
   </g>
   <g id="PathCollection_10">
    <path clip-path="url(#pce570b2e83)" d="M 69.822098 307.584 
L 75.933147 307.584 
L 82.044196 307.584 
L 88.155246 307.584 
L 94.266295 307.584 
L 100.377344 307.584 
L 106.488393 307.584 
L 112.599442 307.584 
L 118.710491 307.584 
L 124.82154 307.584 
L 130.932589 307.584 
L 137.043638 307.584 
L 143.154687 307.584 
L 149.265737 307.584 
L 155.376786 307.584 
L 161.487835 307.584 
L 167.598884 307.584 
L 173.709933 307.584 
L 179.820982 307.584 
L 185.932031 307.584 
L 192.04308 307.584 
L 198.154129 307.584 
L 204.265178 307.584 
L 210.376228 307.584 
L 216.487277 307.584 
L 222.598326 307.584 
L 228.709375 307.584 
L 234.820424 307.584 
L 240.931473 307.584 
L 247.042522 307.584 
L 253.153571 307.584 
L 259.26462 307.584 
L 265.375669 307.584 
L 271.486719 307.584 
L 277.597768 307.584 
L 283.708817 307.584 
L 289.819866 307.584 
L 295.930915 307.584 
L 302.041964 307.584 
L 308.153013 307.584 
L 314.264062 307.584 
L 320.375111 307.584 
L 326.48616 307.584 
L 332.59721 307.584 
L 338.708259 307.584 
L 344.819308 307.584 
L 350.930357 307.584 
L 357.041406 307.584 
L 357.041406 306.655542 
L 357.041406 305.727085 
L 357.041406 304.798627 
L 357.041406 303.870169 
L 357.041406 302.941711 
L 357.041406 302.013254 
L 357.041406 301.084796 
L 357.041406 300.156338 
L 357.041406 299.424924 
L 350.930357 299.424924 
L 344.819308 299.424924 
L 338.708259 299.424924 
L 332.59721 299.424924 
L 326.48616 299.424924 
L 320.375111 299.424924 
L 314.264062 299.424924 
L 308.153013 299.424924 
L 302.041964 299.424924 
L 295.930915 299.424924 
L 289.819866 299.424924 
L 283.708817 299.424924 
L 277.597768 299.424924 
L 271.486719 299.424924 
L 265.375669 299.424924 
L 259.26462 299.424924 
L 253.153571 299.424924 
L 247.042522 299.424924 
L 240.931473 299.424924 
L 234.820424 299.424924 
L 228.709375 299.424924 
L 222.598326 299.424924 
L 216.487277 299.424924 
L 210.376228 299.424924 
L 204.265178 299.424924 
L 198.154129 299.424924 
L 192.04308 299.424924 
L 185.932031 299.424924 
L 179.820982 299.424924 
L 173.709933 299.424924 
L 167.598884 299.424924 
L 166.203839 299.22788 
L 161.487835 298.602372 
L 159.535311 298.299423 
L 155.376786 297.775959 
L 151.5379 297.370965 
L 149.265737 297.107882 
L 143.154687 296.596192 
L 140.561625 296.442507 
L 137.043638 296.210151 
L 130.932589 295.987199 
L 124.82154 295.878336 
L 118.710491 295.855367 
L 112.599442 295.941033 
L 106.488393 296.146841 
L 100.377344 296.376735 
L 98.777169 296.442507 
L 94.266295 296.606508 
L 88.155246 296.903978 
L 82.044196 297.286362 
L 80.623493 297.370965 
L 75.933147 297.616715 
L 69.822098 297.885524 
L 69.480075 298.299423 
L 68.883135 299.22788 
L 68.36869 300.156338 
L 67.831669 301.084796 
L 67.488675 302.013254 
L 67.207933 302.941711 
L 66.95822 303.870169 
L 66.806784 304.798627 
L 66.740092 305.727085 
L 66.739139 306.655542 
L 66.797468 307.584 
z
" style="fill:#ffff33;fill-opacity:0.2;"/>
   </g>
   <g id="matplotlib.axis_1">
    <g id="xtick_1">
     <g id="line2d_1">
      <defs>
       <path d="M 0 0 
L 0 3.5 
" id="m3ca4a55331" style="stroke:#000000;stroke-width:0.8;"/>
      </defs>
      <g>
       <use style="stroke:#000000;stroke-width:0.8;" x="57.6" xlink:href="#m3ca4a55331" y="307.584"/>
      </g>
     </g>
     <g id="text_1">
      <!-- 0.0 -->
      <defs>
       <path d="M 31.78125 66.40625 
Q 24.171875 66.40625 20.328125 58.90625 
Q 16.5 51.421875 16.5 36.375 
Q 16.5 21.390625 20.328125 13.890625 
Q 24.171875 6.390625 31.78125 6.390625 
Q 39.453125 6.390625 43.28125 13.890625 
Q 47.125 21.390625 47.125 36.375 
Q 47.125 51.421875 43.28125 58.90625 
Q 39.453125 66.40625 31.78125 66.40625 
z
M 31.78125 74.21875 
Q 44.046875 74.21875 50.515625 64.515625 
Q 56.984375 54.828125 56.984375 36.375 
Q 56.984375 17.96875 50.515625 8.265625 
Q 44.046875 -1.421875 31.78125 -1.421875 
Q 19.53125 -1.421875 13.0625 8.265625 
Q 6.59375 17.96875 6.59375 36.375 
Q 6.59375 54.828125 13.0625 64.515625 
Q 19.53125 74.21875 31.78125 74.21875 
z
" id="DejaVuSans-48"/>
       <path d="M 10.6875 12.40625 
L 21 12.40625 
L 21 0 
L 10.6875 0 
z
" id="DejaVuSans-46"/>
      </defs>
      <g transform="translate(43.287188 328.261187)scale(0.18 -0.18)">
       <use xlink:href="#DejaVuSans-48"/>
       <use x="63.623047" xlink:href="#DejaVuSans-46"/>
       <use x="95.410156" xlink:href="#DejaVuSans-48"/>
      </g>
     </g>
    </g>
    <g id="xtick_2">
     <g id="line2d_2">
      <g>
       <use style="stroke:#000000;stroke-width:0.8;" x="114.7392" xlink:href="#m3ca4a55331" y="307.584"/>
      </g>
     </g>
     <g id="text_2">
      <!-- 0.5 -->
      <defs>
       <path d="M 10.796875 72.90625 
L 49.515625 72.90625 
L 49.515625 64.59375 
L 19.828125 64.59375 
L 19.828125 46.734375 
Q 21.96875 47.46875 24.109375 47.828125 
Q 26.265625 48.1875 28.421875 48.1875 
Q 40.625 48.1875 47.75 41.5 
Q 54.890625 34.8125 54.890625 23.390625 
Q 54.890625 11.625 47.5625 5.09375 
Q 40.234375 -1.421875 26.90625 -1.421875 
Q 22.3125 -1.421875 17.546875 -0.640625 
Q 12.796875 0.140625 7.71875 1.703125 
L 7.71875 11.625 
Q 12.109375 9.234375 16.796875 8.0625 
Q 21.484375 6.890625 26.703125 6.890625 
Q 35.15625 6.890625 40.078125 11.328125 
Q 45.015625 15.765625 45.015625 23.390625 
Q 45.015625 31 40.078125 35.4375 
Q 35.15625 39.890625 26.703125 39.890625 
Q 22.75 39.890625 18.8125 39.015625 
Q 14.890625 38.140625 10.796875 36.28125 
z
" id="DejaVuSans-53"/>
      </defs>
      <g transform="translate(100.426388 328.261187)scale(0.18 -0.18)">
       <use xlink:href="#DejaVuSans-48"/>
       <use x="63.623047" xlink:href="#DejaVuSans-46"/>
       <use x="95.410156" xlink:href="#DejaVuSans-53"/>
      </g>
     </g>
    </g>
    <g id="xtick_3">
     <g id="line2d_3">
      <g>
       <use style="stroke:#000000;stroke-width:0.8;" x="171.8784" xlink:href="#m3ca4a55331" y="307.584"/>
      </g>
     </g>
     <g id="text_3">
      <!-- 1.0 -->
      <defs>
       <path d="M 12.40625 8.296875 
L 28.515625 8.296875 
L 28.515625 63.921875 
L 10.984375 60.40625 
L 10.984375 69.390625 
L 28.421875 72.90625 
L 38.28125 72.90625 
L 38.28125 8.296875 
L 54.390625 8.296875 
L 54.390625 0 
L 12.40625 0 
z
" id="DejaVuSans-49"/>
      </defs>
      <g transform="translate(157.565588 328.261187)scale(0.18 -0.18)">
       <use xlink:href="#DejaVuSans-49"/>
       <use x="63.623047" xlink:href="#DejaVuSans-46"/>
       <use x="95.410156" xlink:href="#DejaVuSans-48"/>
      </g>
     </g>
    </g>
    <g id="xtick_4">
     <g id="line2d_4">
      <g>
       <use style="stroke:#000000;stroke-width:0.8;" x="229.0176" xlink:href="#m3ca4a55331" y="307.584"/>
      </g>
     </g>
     <g id="text_4">
      <!-- 1.5 -->
      <g transform="translate(214.704788 328.261187)scale(0.18 -0.18)">
       <use xlink:href="#DejaVuSans-49"/>
       <use x="63.623047" xlink:href="#DejaVuSans-46"/>
       <use x="95.410156" xlink:href="#DejaVuSans-53"/>
      </g>
     </g>
    </g>
    <g id="xtick_5">
     <g id="line2d_5">
      <g>
       <use style="stroke:#000000;stroke-width:0.8;" x="286.1568" xlink:href="#m3ca4a55331" y="307.584"/>
      </g>
     </g>
     <g id="text_5">
      <!-- 2.0 -->
      <defs>
       <path d="M 19.1875 8.296875 
L 53.609375 8.296875 
L 53.609375 0 
L 7.328125 0 
L 7.328125 8.296875 
Q 12.9375 14.109375 22.625 23.890625 
Q 32.328125 33.6875 34.8125 36.53125 
Q 39.546875 41.84375 41.421875 45.53125 
Q 43.3125 49.21875 43.3125 52.78125 
Q 43.3125 58.59375 39.234375 62.25 
Q 35.15625 65.921875 28.609375 65.921875 
Q 23.96875 65.921875 18.8125 64.3125 
Q 13.671875 62.703125 7.8125 59.421875 
L 7.8125 69.390625 
Q 13.765625 71.78125 18.9375 73 
Q 24.125 74.21875 28.421875 74.21875 
Q 39.75 74.21875 46.484375 68.546875 
Q 53.21875 62.890625 53.21875 53.421875 
Q 53.21875 48.921875 51.53125 44.890625 
Q 49.859375 40.875 45.40625 35.40625 
Q 44.1875 33.984375 37.640625 27.21875 
Q 31.109375 20.453125 19.1875 8.296875 
z
" id="DejaVuSans-50"/>
      </defs>
      <g transform="translate(271.843988 328.261187)scale(0.18 -0.18)">
       <use xlink:href="#DejaVuSans-50"/>
       <use x="63.623047" xlink:href="#DejaVuSans-46"/>
       <use x="95.410156" xlink:href="#DejaVuSans-48"/>
      </g>
     </g>
    </g>
    <g id="xtick_6">
     <g id="line2d_6">
      <g>
       <use style="stroke:#000000;stroke-width:0.8;" x="343.296" xlink:href="#m3ca4a55331" y="307.584"/>
      </g>
     </g>
     <g id="text_6">
      <!-- 2.5 -->
      <g transform="translate(328.983188 328.261187)scale(0.18 -0.18)">
       <use xlink:href="#DejaVuSans-50"/>
       <use x="63.623047" xlink:href="#DejaVuSans-46"/>
       <use x="95.410156" xlink:href="#DejaVuSans-53"/>
      </g>
     </g>
    </g>
   </g>
   <g id="matplotlib.axis_2">
    <g id="ytick_1">
     <g id="line2d_7">
      <defs>
       <path d="M 0 0 
L -3.5 0 
" id="m4c0ac44ee8" style="stroke:#000000;stroke-width:0.8;"/>
      </defs>
      <g>
       <use style="stroke:#000000;stroke-width:0.8;" x="57.6" xlink:href="#m4c0ac44ee8" y="307.584"/>
      </g>
     </g>
     <g id="text_7">
      <!-- 0 -->
      <g transform="translate(39.1475 314.422594)scale(0.18 -0.18)">
       <use xlink:href="#DejaVuSans-48"/>
      </g>
     </g>
    </g>
    <g id="ytick_2">
     <g id="line2d_8">
      <g>
       <use style="stroke:#000000;stroke-width:0.8;" x="57.6" xlink:href="#m4c0ac44ee8" y="260.598438"/>
      </g>
     </g>
     <g id="text_8">
      <!-- 1 -->
      <g transform="translate(39.1475 267.437031)scale(0.18 -0.18)">
       <use xlink:href="#DejaVuSans-49"/>
      </g>
     </g>
    </g>
    <g id="ytick_3">
     <g id="line2d_9">
      <g>
       <use style="stroke:#000000;stroke-width:0.8;" x="57.6" xlink:href="#m4c0ac44ee8" y="213.612875"/>
      </g>
     </g>
     <g id="text_9">
      <!-- 2 -->
      <g transform="translate(39.1475 220.451469)scale(0.18 -0.18)">
       <use xlink:href="#DejaVuSans-50"/>
      </g>
     </g>
    </g>
    <g id="ytick_4">
     <g id="line2d_10">
      <g>
       <use style="stroke:#000000;stroke-width:0.8;" x="57.6" xlink:href="#m4c0ac44ee8" y="166.627313"/>
      </g>
     </g>
     <g id="text_10">
      <!-- 3 -->
      <defs>
       <path d="M 40.578125 39.3125 
Q 47.65625 37.796875 51.625 33 
Q 55.609375 28.21875 55.609375 21.1875 
Q 55.609375 10.40625 48.1875 4.484375 
Q 40.765625 -1.421875 27.09375 -1.421875 
Q 22.515625 -1.421875 17.65625 -0.515625 
Q 12.796875 0.390625 7.625 2.203125 
L 7.625 11.71875 
Q 11.71875 9.328125 16.59375 8.109375 
Q 21.484375 6.890625 26.8125 6.890625 
Q 36.078125 6.890625 40.9375 10.546875 
Q 45.796875 14.203125 45.796875 21.1875 
Q 45.796875 27.640625 41.28125 31.265625 
Q 36.765625 34.90625 28.71875 34.90625 
L 20.21875 34.90625 
L 20.21875 43.015625 
L 29.109375 43.015625 
Q 36.375 43.015625 40.234375 45.921875 
Q 44.09375 48.828125 44.09375 54.296875 
Q 44.09375 59.90625 40.109375 62.90625 
Q 36.140625 65.921875 28.71875 65.921875 
Q 24.65625 65.921875 20.015625 65.03125 
Q 15.375 64.15625 9.8125 62.3125 
L 9.8125 71.09375 
Q 15.4375 72.65625 20.34375 73.4375 
Q 25.25 74.21875 29.59375 74.21875 
Q 40.828125 74.21875 47.359375 69.109375 
Q 53.90625 64.015625 53.90625 55.328125 
Q 53.90625 49.265625 50.4375 45.09375 
Q 46.96875 40.921875 40.578125 39.3125 
z
" id="DejaVuSans-51"/>
      </defs>
      <g transform="translate(39.1475 173.465907)scale(0.18 -0.18)">
       <use xlink:href="#DejaVuSans-51"/>
      </g>
     </g>
    </g>
    <g id="ytick_5">
     <g id="line2d_11">
      <g>
       <use style="stroke:#000000;stroke-width:0.8;" x="57.6" xlink:href="#m4c0ac44ee8" y="119.641751"/>
      </g>
     </g>
     <g id="text_11">
      <!-- 4 -->
      <defs>
       <path d="M 37.796875 64.3125 
L 12.890625 25.390625 
L 37.796875 25.390625 
z
M 35.203125 72.90625 
L 47.609375 72.90625 
L 47.609375 25.390625 
L 58.015625 25.390625 
L 58.015625 17.1875 
L 47.609375 17.1875 
L 47.609375 0 
L 37.796875 0 
L 37.796875 17.1875 
L 4.890625 17.1875 
L 4.890625 26.703125 
z
" id="DejaVuSans-52"/>
      </defs>
      <g transform="translate(39.1475 126.480344)scale(0.18 -0.18)">
       <use xlink:href="#DejaVuSans-52"/>
      </g>
     </g>
    </g>
    <g id="ytick_6">
     <g id="line2d_12">
      <g>
       <use style="stroke:#000000;stroke-width:0.8;" x="57.6" xlink:href="#m4c0ac44ee8" y="72.656188"/>
      </g>
     </g>
     <g id="text_12">
      <!-- 5 -->
      <g transform="translate(39.1475 79.494782)scale(0.18 -0.18)">
       <use xlink:href="#DejaVuSans-53"/>
      </g>
     </g>
    </g>
   </g>
   <g id="LineCollection_1">
    <path clip-path="url(#pce570b2e83)" d="M 114.277587 307.584 
L 115.218005 306.863054 
L 115.915134 306.142107 
L 116.241743 305.421161 
L 116.204474 304.700214 
L 115.959482 303.979268 
L 115.408326 303.258321 
L 114.615913 302.537375 
L 114.005057 302.089708 
L 113.563549 301.816428 
L 112.193239 301.095482 
L 111.441191 300.800563 
L 110.51383 300.374535 
L 108.877324 299.684082 
L 108.803838 299.653589 
L 107.036505 298.932642 
L 106.313458 298.669914 
L 104.958844 298.211696 
L 103.749592 297.858544 
L 102.438959 297.490749 
L 101.185726 297.114716 
L 100.016288 296.769803 
L 98.62186 296.309344 
L 97.771725 296.048856 
L 96.057993 295.565127 
L 94.919996 295.32791 
L 93.494127 295.034047 
L 91.711487 294.606964 
L 90.930261 294.399303 
L 88.366395 293.961236 
L 87.874591 293.886017 
L 85.802528 293.593623 
L 83.238662 293.295421 
L 81.479509 293.165071 
L 80.674796 293.108318 
L 78.11093 293.024158 
L 75.547064 293.030502 
L 72.983197 293.13003 
L 72.361286 293.165071 
L 70.419331 293.279683 
L 67.855465 293.537346 
L 67.530524 293.886017 
L 66.940359 294.606964 
L 66.322584 295.32791 
L 65.752552 296.048856 
L 65.291599 296.711275 
L 65.281482 296.769803 
L 65.142135 297.490749 
L 65.001287 298.211696 
L 64.885598 298.932642 
L 64.785943 299.653589 
L 64.692246 300.374535 
L 64.607878 301.095482 
L 64.546616 301.816428 
L 64.495454 302.537375 
L 64.45469 303.258321 
L 64.426337 303.979268 
L 64.413734 304.700214 
L 64.411817 305.421161 
L 64.428619 306.142107 
L 64.464481 306.863054 
L 64.512859 307.584 
" style="fill:none;stroke:#4d94ff;stroke-width:1.5;"/>
   </g>
   <g id="LineCollection_2">
    <path clip-path="url(#pce570b2e83)" d="M 137.006382 307.584 
L 138.21967 306.939839 
L 139.810662 306.123612 
L 140.662691 305.691317 
L 142.41918 304.663224 
L 143.105711 304.207052 
L 144.53047 303.202836 
L 145.548731 302.44353 
L 146.475646 301.742448 
L 147.991752 300.523141 
L 148.269639 300.28206 
L 149.428822 298.821672 
L 150.434772 297.859903 
L 150.865695 297.361284 
L 152.198699 295.900896 
L 152.877792 294.990825 
L 153.288611 294.440508 
L 154.227068 292.98012 
L 155.056665 291.519732 
L 155.320813 290.605381 
L 155.462081 290.059344 
L 155.703128 288.598956 
L 155.703128 287.138568 
L 155.320813 285.745711 
L 155.300101 285.67818 
L 154.861903 284.217792 
L 154.16896 282.757404 
L 153.442728 281.297016 
L 152.877792 280.195336 
L 152.695425 279.836628 
L 151.890064 278.37624 
L 150.807626 276.915852 
L 150.434772 276.485591 
L 149.35432 275.455464 
L 147.991752 274.396217 
L 147.433038 273.995076 
L 145.548731 272.731534 
L 145.249683 272.534688 
L 143.105711 271.087336 
L 143.085195 271.0743 
L 140.662691 270.057827 
L 139.422429 269.613912 
L 138.21967 269.127663 
L 135.865853 268.153524 
L 135.77665 268.128003 
L 133.33363 267.540044 
L 130.890609 267.00449 
L 129.432702 266.693136 
L 128.447589 266.488783 
L 126.004569 265.991423 
L 123.561548 265.57089 
L 121.683155 265.232748 
L 121.118528 265.141983 
L 118.675508 264.800258 
L 116.232488 264.487152 
L 113.789467 264.164504 
L 111.346447 263.790439 
L 111.177161 263.77236 
L 108.903427 263.517957 
L 106.460406 263.118411 
L 104.017386 262.86593 
L 101.574366 262.716132 
L 99.131345 262.616432 
L 96.688325 262.616432 
L 94.245305 262.780181 
L 91.802284 262.970602 
L 89.359264 263.231501 
L 86.916244 263.573925 
L 85.748062 263.77236 
L 84.473223 263.981006 
L 82.030203 264.549539 
L 79.587183 265.058521 
L 78.896074 265.232748 
L 77.144163 265.734563 
L 74.701142 266.574246 
L 74.35829 266.693136 
L 72.258122 267.457117 
L 70.313947 268.153524 
L 69.815102 268.41435 
L 67.936338 269.613912 
L 67.372081 269.939334 
L 66.993402 271.0743 
L 66.684491 272.534688 
L 66.377893 273.995076 
L 66.100185 275.455464 
L 65.877866 276.915852 
L 65.691606 278.37624 
L 65.553024 279.836628 
L 65.426957 281.297016 
L 65.305238 282.757404 
L 65.189099 284.217792 
L 65.115655 285.67818 
L 65.041376 287.138568 
L 65.041376 288.598956 
L 65.08602 290.059344 
L 65.156456 291.519732 
L 65.295499 292.98012 
L 65.452788 294.440508 
L 65.638498 295.900896 
L 65.867874 297.361284 
L 66.089279 298.821672 
L 66.258964 300.28206 
L 66.511982 301.742448 
L 66.787158 303.202836 
L 67.086217 304.663224 
L 67.372081 305.858387 
L 67.696499 306.123612 
L 69.486209 307.584 
" style="fill:none;stroke:#ff8533;stroke-width:1.5;"/>
   </g>
   <g id="LineCollection_3">
    <path clip-path="url(#pce570b2e83)" d="M 144.192507 307.584 
L 144.87966 306.778295 
L 144.999753 305.972591 
L 144.603003 305.166886 
L 143.942079 304.361182 
L 143.411492 303.999524 
L 142.656014 303.555477 
L 141.153295 303.028674 
L 140.394595 302.749772 
L 138.895098 302.193148 
L 138.225633 301.944068 
L 136.6369 301.465218 
L 135.391627 301.138363 
L 134.378703 300.905795 
L 132.120506 300.475643 
L 131.084345 300.332659 
L 129.862309 300.176737 
L 127.604112 299.806402 
L 125.500749 299.526954 
L 125.345915 299.505348 
L 123.087718 299.256553 
L 120.82952 298.999841 
L 118.571323 298.783731 
L 117.881369 298.72125 
L 116.313126 298.566289 
L 114.054929 298.350353 
L 111.796732 298.125002 
L 109.890051 297.915545 
L 109.538535 297.88458 
L 107.280337 297.707169 
L 105.02214 297.545155 
L 102.763943 297.372994 
L 100.505746 297.210642 
L 99.119133 297.10984 
L 98.247549 297.037103 
L 95.989352 296.86399 
L 93.731155 296.742684 
L 91.472957 296.57551 
L 89.21476 296.446078 
L 86.956563 296.339982 
L 86.172301 296.304136 
L 84.698366 296.222718 
L 82.440169 296.088668 
L 80.181972 296.016385 
L 77.923774 295.976653 
L 75.665577 295.934728 
L 73.40738 295.934728 
L 71.149183 295.982927 
L 68.890986 296.073689 
L 66.632789 296.209318 
L 65.344669 296.304136 
L 64.374591 296.363451 
L 63.795507 297.10984 
L 63.179859 297.915545 
L 62.75103 298.72125 
L 62.337613 299.526954 
L 62.116394 299.974281 
L 62.045759 300.332659 
L 61.908976 301.138363 
L 61.798405 301.944068 
L 61.713503 302.749772 
L 61.63141 303.555477 
L 61.5838 304.361182 
L 61.557579 305.166886 
L 61.541838 305.972591 
L 61.546603 306.778295 
L 61.573865 307.584 
" style="fill:none;stroke:#00b300;stroke-width:1.5;"/>
   </g>
   <g id="LineCollection_4">
    <path clip-path="url(#pce570b2e83)" d="M 357.041406 299.424924 
L 350.930357 299.424924 
L 344.819308 299.424924 
L 338.708259 299.424924 
L 332.59721 299.424924 
L 326.48616 299.424924 
L 320.375111 299.424924 
L 314.264062 299.424924 
L 308.153013 299.424924 
L 302.041964 299.424924 
L 295.930915 299.424924 
L 289.819866 299.424924 
L 283.708817 299.424924 
L 277.597768 299.424924 
L 271.486719 299.424924 
L 265.375669 299.424924 
L 259.26462 299.424924 
L 253.153571 299.424924 
L 247.042522 299.424924 
L 240.931473 299.424924 
L 234.820424 299.424924 
L 228.709375 299.424924 
L 222.598326 299.424924 
L 216.487277 299.424924 
L 210.376228 299.424924 
L 204.265178 299.424924 
L 198.154129 299.424924 
L 192.04308 299.424924 
L 185.932031 299.424924 
L 179.820982 299.424924 
L 173.709933 299.424924 
L 167.598884 299.424924 
L 166.203839 299.22788 
L 161.487835 298.602372 
L 159.535311 298.299423 
L 155.376786 297.775959 
L 151.5379 297.370965 
L 149.265737 297.107882 
L 143.154687 296.596192 
L 140.561625 296.442507 
L 137.043638 296.210151 
L 130.932589 295.987199 
L 124.82154 295.878336 
L 118.710491 295.855367 
L 112.599442 295.941033 
L 106.488393 296.146841 
L 100.377344 296.376735 
L 98.777169 296.442507 
L 94.266295 296.606508 
L 88.155246 296.903978 
L 82.044196 297.286362 
L 80.623493 297.370965 
L 75.933147 297.616715 
L 69.822098 297.885524 
L 69.480075 298.299423 
L 68.883135 299.22788 
L 68.36869 300.156338 
L 67.831669 301.084796 
L 67.488675 302.013254 
L 67.207933 302.941711 
L 66.95822 303.870169 
L 66.806784 304.798627 
L 66.740092 305.727085 
L 66.739139 306.655542 
L 66.797468 307.584 
" style="fill:none;stroke:#ffff33;stroke-width:1.5;"/>
   </g>
   <g id="patch_3">
    <path d="M 57.6 307.584 
L 57.6 41.472 
" style="fill:none;stroke:#000000;stroke-linecap:square;stroke-linejoin:miter;stroke-width:0.8;"/>
   </g>
   <g id="patch_4">
    <path d="M 343.296 307.584 
L 343.296 41.472 
" style="fill:none;stroke:#000000;stroke-linecap:square;stroke-linejoin:miter;stroke-width:0.8;"/>
   </g>
   <g id="patch_5">
    <path d="M 57.6 307.584 
L 343.296 307.584 
" style="fill:none;stroke:#000000;stroke-linecap:square;stroke-linejoin:miter;stroke-width:0.8;"/>
   </g>
   <g id="patch_6">
    <path d="M 57.6 41.472 
L 343.296 41.472 
" style="fill:none;stroke:#000000;stroke-linecap:square;stroke-linejoin:miter;stroke-width:0.8;"/>
   </g>
  </g>
  <g id="axes_2">
   <g id="patch_7">
    <path clip-path="url(#pb6644be3a7)" d="M 367.2 307.584 
L 361.152 295.488 
L 361.152 53.568 
L 367.2 41.472 
L 367.2 41.472 
L 373.248 53.568 
L 373.248 295.488 
L 367.2 307.584 
z
" style="fill:#ffffff;stroke:#ffffff;stroke-linejoin:miter;stroke-width:0.01;"/>
   </g>
   <g id="QuadMesh_1">
    <path clip-path="url(#pb6644be3a7)" d="M 367.2 307.584 
L 367.2 307.584 
L 373.248 295.488 
L 361.152 295.488 
L 367.2 307.584 
" style="fill:#ffffff;"/>
    <path clip-path="url(#pb6644be3a7)" d="M 361.152 295.488 
L 373.248 295.488 
L 373.248 235.008 
L 361.152 235.008 
L 361.152 295.488 
" style="fill:#ffffff;"/>
    <path clip-path="url(#pb6644be3a7)" d="M 361.152 235.008 
L 373.248 235.008 
L 373.248 174.528 
L 361.152 174.528 
L 361.152 235.008 
" style="fill:#f0f0f0;"/>
    <path clip-path="url(#pb6644be3a7)" d="M 361.152 174.528 
L 373.248 174.528 
L 373.248 114.048 
L 361.152 114.048 
L 361.152 174.528 
" style="fill:#d3d3d3;"/>
    <path clip-path="url(#pb6644be3a7)" d="M 361.152 114.048 
L 373.248 114.048 
L 373.248 53.568 
L 361.152 53.568 
L 361.152 114.048 
" style="fill:#b8b8b8;"/>
    <path clip-path="url(#pb6644be3a7)" d="M 361.152 53.568 
L 373.248 53.568 
L 367.2 41.472 
L 367.2 41.472 
L 361.152 53.568 
" style="fill:#a0a0a0;"/>
   </g>
   <g id="matplotlib.axis_3"/>
   <g id="matplotlib.axis_4">
    <g id="ytick_7">
     <g id="line2d_13">
      <defs>
       <path d="M 0 0 
L 3.5 0 
" id="m7144aecd9a" style="stroke:#000000;stroke-width:0.8;"/>
      </defs>
      <g>
       <use style="stroke:#000000;stroke-width:0.8;" x="373.248" xlink:href="#m7144aecd9a" y="295.488"/>
      </g>
     </g>
     <g id="text_13">
      <!-- 0.0000 -->
      <g transform="translate(380.248 302.326594)scale(0.18 -0.18)">
       <use xlink:href="#DejaVuSans-48"/>
       <use x="63.623047" xlink:href="#DejaVuSans-46"/>
       <use x="95.410156" xlink:href="#DejaVuSans-48"/>
       <use x="159.033203" xlink:href="#DejaVuSans-48"/>
       <use x="222.65625" xlink:href="#DejaVuSans-48"/>
       <use x="286.279297" xlink:href="#DejaVuSans-48"/>
      </g>
     </g>
    </g>
    <g id="ytick_8">
     <g id="line2d_14">
      <g>
       <use style="stroke:#000000;stroke-width:0.8;" x="373.248" xlink:href="#m7144aecd9a" y="235.008"/>
      </g>
     </g>
     <g id="text_14">
      <!-- 0.0216 -->
      <defs>
       <path d="M 33.015625 40.375 
Q 26.375 40.375 22.484375 35.828125 
Q 18.609375 31.296875 18.609375 23.390625 
Q 18.609375 15.53125 22.484375 10.953125 
Q 26.375 6.390625 33.015625 6.390625 
Q 39.65625 6.390625 43.53125 10.953125 
Q 47.40625 15.53125 47.40625 23.390625 
Q 47.40625 31.296875 43.53125 35.828125 
Q 39.65625 40.375 33.015625 40.375 
z
M 52.59375 71.296875 
L 52.59375 62.3125 
Q 48.875 64.0625 45.09375 64.984375 
Q 41.3125 65.921875 37.59375 65.921875 
Q 27.828125 65.921875 22.671875 59.328125 
Q 17.53125 52.734375 16.796875 39.40625 
Q 19.671875 43.65625 24.015625 45.921875 
Q 28.375 48.1875 33.59375 48.1875 
Q 44.578125 48.1875 50.953125 41.515625 
Q 57.328125 34.859375 57.328125 23.390625 
Q 57.328125 12.15625 50.6875 5.359375 
Q 44.046875 -1.421875 33.015625 -1.421875 
Q 20.359375 -1.421875 13.671875 8.265625 
Q 6.984375 17.96875 6.984375 36.375 
Q 6.984375 53.65625 15.1875 63.9375 
Q 23.390625 74.21875 37.203125 74.21875 
Q 40.921875 74.21875 44.703125 73.484375 
Q 48.484375 72.75 52.59375 71.296875 
z
" id="DejaVuSans-54"/>
      </defs>
      <g transform="translate(380.248 241.846594)scale(0.18 -0.18)">
       <use xlink:href="#DejaVuSans-48"/>
       <use x="63.623047" xlink:href="#DejaVuSans-46"/>
       <use x="95.410156" xlink:href="#DejaVuSans-48"/>
       <use x="159.033203" xlink:href="#DejaVuSans-50"/>
       <use x="222.65625" xlink:href="#DejaVuSans-49"/>
       <use x="286.279297" xlink:href="#DejaVuSans-54"/>
      </g>
     </g>
    </g>
    <g id="ytick_9">
     <g id="line2d_15">
      <g>
       <use style="stroke:#000000;stroke-width:0.8;" x="373.248" xlink:href="#m7144aecd9a" y="174.528"/>
      </g>
     </g>
     <g id="text_15">
      <!-- 0.0577 -->
      <defs>
       <path d="M 8.203125 72.90625 
L 55.078125 72.90625 
L 55.078125 68.703125 
L 28.609375 0 
L 18.3125 0 
L 43.21875 64.59375 
L 8.203125 64.59375 
z
" id="DejaVuSans-55"/>
      </defs>
      <g transform="translate(380.248 181.366594)scale(0.18 -0.18)">
       <use xlink:href="#DejaVuSans-48"/>
       <use x="63.623047" xlink:href="#DejaVuSans-46"/>
       <use x="95.410156" xlink:href="#DejaVuSans-48"/>
       <use x="159.033203" xlink:href="#DejaVuSans-53"/>
       <use x="222.65625" xlink:href="#DejaVuSans-55"/>
       <use x="286.279297" xlink:href="#DejaVuSans-55"/>
      </g>
     </g>
    </g>
    <g id="ytick_10">
     <g id="line2d_16">
      <g>
       <use style="stroke:#000000;stroke-width:0.8;" x="373.248" xlink:href="#m7144aecd9a" y="114.048"/>
      </g>
     </g>
     <g id="text_16">
      <!-- 0.1371 -->
      <g transform="translate(380.248 120.886594)scale(0.18 -0.18)">
       <use xlink:href="#DejaVuSans-48"/>
       <use x="63.623047" xlink:href="#DejaVuSans-46"/>
       <use x="95.410156" xlink:href="#DejaVuSans-49"/>
       <use x="159.033203" xlink:href="#DejaVuSans-51"/>
       <use x="222.65625" xlink:href="#DejaVuSans-55"/>
       <use x="286.279297" xlink:href="#DejaVuSans-49"/>
      </g>
     </g>
    </g>
    <g id="ytick_11">
     <g id="line2d_17">
      <g>
       <use style="stroke:#000000;stroke-width:0.8;" x="373.248" xlink:href="#m7144aecd9a" y="53.568"/>
      </g>
     </g>
     <g id="text_17">
      <!-- 0.2093 -->
      <defs>
       <path d="M 10.984375 1.515625 
L 10.984375 10.5 
Q 14.703125 8.734375 18.5 7.8125 
Q 22.3125 6.890625 25.984375 6.890625 
Q 35.75 6.890625 40.890625 13.453125 
Q 46.046875 20.015625 46.78125 33.40625 
Q 43.953125 29.203125 39.59375 26.953125 
Q 35.25 24.703125 29.984375 24.703125 
Q 19.046875 24.703125 12.671875 31.3125 
Q 6.296875 37.9375 6.296875 49.421875 
Q 6.296875 60.640625 12.9375 67.421875 
Q 19.578125 74.21875 30.609375 74.21875 
Q 43.265625 74.21875 49.921875 64.515625 
Q 56.59375 54.828125 56.59375 36.375 
Q 56.59375 19.140625 48.40625 8.859375 
Q 40.234375 -1.421875 26.421875 -1.421875 
Q 22.703125 -1.421875 18.890625 -0.6875 
Q 15.09375 0.046875 10.984375 1.515625 
z
M 30.609375 32.421875 
Q 37.25 32.421875 41.125 36.953125 
Q 45.015625 41.5 45.015625 49.421875 
Q 45.015625 57.28125 41.125 61.84375 
Q 37.25 66.40625 30.609375 66.40625 
Q 23.96875 66.40625 20.09375 61.84375 
Q 16.21875 57.28125 16.21875 49.421875 
Q 16.21875 41.5 20.09375 36.953125 
Q 23.96875 32.421875 30.609375 32.421875 
z
" id="DejaVuSans-57"/>
      </defs>
      <g transform="translate(380.248 60.406594)scale(0.18 -0.18)">
       <use xlink:href="#DejaVuSans-48"/>
       <use x="63.623047" xlink:href="#DejaVuSans-46"/>
       <use x="95.410156" xlink:href="#DejaVuSans-50"/>
       <use x="159.033203" xlink:href="#DejaVuSans-48"/>
       <use x="222.65625" xlink:href="#DejaVuSans-57"/>
       <use x="286.279297" xlink:href="#DejaVuSans-51"/>
      </g>
     </g>
    </g>
   </g>
   <g id="patch_8">
    <path d="M 367.2 307.584 
L 361.152 295.488 
L 361.152 53.568 
L 367.2 41.472 
L 367.2 41.472 
L 373.248 53.568 
L 373.248 295.488 
L 367.2 307.584 
z
" style="fill:none;stroke:#000000;stroke-linejoin:miter;stroke-width:0.8;"/>
   </g>
  </g>
 </g>
 <defs>
  <clipPath id="pce570b2e83">
   <rect height="266.112" width="285.696" x="57.6" y="41.472"/>
  </clipPath>
  <clipPath id="pb6644be3a7">
   <rect height="266.112" width="12.096" x="361.152" y="41.472"/>
  </clipPath>
 </defs>
</svg>
