<?xml version="1.0" encoding="utf-8" standalone="no"?>
<!DOCTYPE svg PUBLIC "-//W3C//DTD SVG 1.1//EN"
  "http://www.w3.org/Graphics/SVG/1.1/DTD/svg11.dtd">
<!-- Created with matplotlib (https://matplotlib.org/) -->
<svg height="345.6pt" version="1.1" viewBox="0 0 460.8 345.6" width="460.8pt" xmlns="http://www.w3.org/2000/svg" xmlns:xlink="http://www.w3.org/1999/xlink">
 <defs>
  <style type="text/css">
*{stroke-linecap:butt;stroke-linejoin:round;}
  </style>
 </defs>
 <g id="figure_1">
  <g id="patch_1">
   <path d="M 0 345.6 
L 460.8 345.6 
L 460.8 0 
L 0 0 
z
" style="fill:#ffffff;"/>
  </g>
  <g id="axes_1">
   <g id="patch_2">
    <path d="M 57.6 307.584 
L 343.296 307.584 
L 343.296 41.472 
L 57.6 41.472 
z
" style="fill:#ffffff;"/>
   </g>
   <g id="PathCollection_1"/>
   <g id="PathCollection_2">
    <path clip-path="url(#p649f6f5305)" d="M 68.341856 302.770876 
L 73.712785 302.770876 
L 79.083713 302.770876 
L 84.454641 302.770876 
L 89.825569 302.770876 
L 95.196497 302.770876 
L 100.567425 302.770876 
L 105.938354 302.770876 
L 111.309282 302.770876 
L 116.68021 302.770876 
L 122.051138 302.770876 
L 127.422066 302.770876 
L 132.792994 302.770876 
L 138.163923 302.770876 
L 143.534851 302.770876 
L 148.905779 302.770876 
L 154.276707 302.770876 
L 159.647635 302.770876 
L 165.018564 302.770876 
L 170.389492 302.770876 
L 175.76042 302.770876 
L 181.131348 302.770876 
L 186.502276 302.770876 
L 191.873204 302.770876 
L 197.244133 302.770876 
L 202.615061 302.770876 
L 207.985989 302.770876 
L 213.356917 302.770876 
L 218.727845 302.770876 
L 224.098773 302.770876 
L 229.469702 302.770876 
L 234.84063 302.770876 
L 240.211558 302.770876 
L 245.582486 302.770876 
L 250.953414 302.770876 
L 256.324342 302.770876 
L 261.695271 302.770876 
L 267.066199 302.770876 
L 272.437127 302.770876 
L 277.808055 302.770876 
L 283.178983 302.770876 
L 288.549912 302.770876 
L 293.92084 302.770876 
L 299.291768 302.770876 
L 304.662696 302.770876 
L 310.033624 302.770876 
L 315.404552 302.770876 
L 320.775481 302.770876 
L 326.146409 302.770876 
L 331.517337 302.770876 
L 336.888265 302.770876 
L 342.259193 302.770876 
L 347.630121 302.770876 
L 353.00105 302.770876 
L 358.371978 302.770876 
L 363.742906 302.770876 
L 369.113834 302.770876 
L 374.484762 302.770876 
L 379.855691 302.770876 
L 385.226619 302.770876 
L 390.597547 302.770876 
L 395.968475 302.770876 
L 401.339403 302.770876 
L 406.710331 302.770876 
L 412.08126 302.770876 
L 417.452188 302.770876 
L 422.823116 302.770876 
L 428.194044 302.770876 
L 433.564972 302.770876 
L 438.9359 302.770876 
L 444.306829 302.770876 
L 449.677757 302.770876 
L 455.048685 302.770876 
L 460.419613 302.770876 
L 465.790541 302.770876 
L 471.16147 302.770876 
L 476.532398 302.770876 
L 481.903326 302.770876 
L 487.274254 302.770876 
L 492.645182 302.770876 
L 498.01611 302.770876 
L 503.387039 302.770876 
L 508.757967 302.770876 
L 514.128895 302.770876 
L 519.499823 302.770876 
L 524.870751 302.770876 
L 530.241679 302.770876 
L 535.612608 302.770876 
L 540.983536 302.770876 
L 546.354464 302.770876 
L 551.725392 302.770876 
L 557.09632 302.770876 
L 562.467248 302.770876 
L 567.838177 302.770876 
L 573.209105 302.770876 
L 578.580033 302.770876 
L 583.950961 302.770876 
L 589.321889 302.770876 
L 594.692818 302.770876 
L 600.063746 302.770876 
L 605.434674 302.770876 
L 610.805602 302.770876 
L 616.17653 302.770876 
L 621.547458 302.770876 
L 626.918387 302.770876 
L 632.289315 302.770876 
L 637.660243 302.770876 
L 643.031171 302.770876 
L 648.402099 302.770876 
L 653.773027 302.770876 
L 659.143956 302.770876 
L 664.514884 302.770876 
L 669.885812 302.770876 
L 675.25674 302.770876 
L 680.627668 302.770876 
L 685.998597 302.770876 
L 691.369525 302.770876 
L 696.740453 302.770876 
L 702.111381 302.770876 
L 707.482309 302.770876 
L 712.853237 302.770876 
L 718.224166 302.770876 
L 723.595094 302.770876 
L 728.966022 302.770876 
L 734.33695 302.770876 
L 739.707878 302.770876 
L 745.078806 302.770876 
L 750.449735 302.770876 
L 755.820663 302.770876 
L 761.191591 302.770876 
L 766.562519 302.770876 
L 771.933447 302.770876 
L 777.304376 302.770876 
L 782.675304 302.770876 
L 788.046232 302.770876 
L 793.41716 302.770876 
L 798.788088 302.770876 
L 804.159016 302.770876 
L 809.529945 302.770876 
L 814.900873 302.770876 
L 820.271801 302.770876 
L 825.642729 302.770876 
L 831.013657 302.770876 
L 836.384585 302.770876 
L 841.755514 302.770876 
L 847.126442 302.770876 
L 852.49737 302.770876 
L 857.868298 302.770876 
L 863.239226 302.770876 
L 868.610154 302.770876 
L 873.981083 302.770876 
L 879.352011 302.770876 
L 884.722939 302.770876 
L 890.093867 302.770876 
L 895.464795 302.770876 
L 900.835724 302.770876 
L 906.206652 302.770876 
L 911.57758 302.770876 
L 916.948508 302.770876 
L 922.319436 302.770876 
L 927.690364 302.770876 
L 933.061293 302.770876 
L 938.432221 302.770876 
L 943.803149 302.770876 
L 949.174077 302.770876 
L 954.545005 302.770876 
L 959.915933 302.770876 
L 965.286862 302.770876 
L 970.65779 302.770876 
L 976.028718 302.770876 
L 981.399646 302.770876 
L 986.770574 302.770876 
L 992.141503 302.770876 
L 997.512431 302.770876 
L 1002.883359 302.770876 
L 1008.254287 302.770876 
L 1013.625215 302.770876 
L 1018.996143 302.770876 
L 1024.367072 302.770876 
L 1029.738 302.770876 
L 1035.108928 302.770876 
L 1040.479856 302.770876 
L 1045.850784 302.770876 
L 1051.221712 302.770876 
L 1056.592641 302.770876 
L 1061.963569 302.770876 
L 1067.334497 302.770876 
L 1072.705425 302.770876 
L 1078.076353 302.770876 
L 1083.447282 302.770876 
L 1088.81821 302.770876 
L 1094.189138 302.770876 
L 1099.560066 302.770876 
L 1104.930994 302.770876 
L 1110.301922 302.770876 
L 1115.672851 302.770876 
L 1121.043779 302.770876 
L 1126.414707 302.770876 
L 1131.785635 302.770876 
L 1137.156563 302.770876 
L 1142.527491 302.770876 
L 1147.89842 302.770876 
L 1153.269348 302.770876 
L 1158.640276 302.770876 
L 1164.011204 302.770876 
L 1169.382132 302.770876 
L 1174.75306 302.770876 
L 1180.123989 302.770876 
L 1185.494917 302.770876 
L 1190.865845 302.770876 
L 1196.236773 302.770876 
L 1196.236773 297.957752 
L 1196.236773 293.144628 
L 1196.236773 288.331504 
L 1196.236773 283.51838 
L 1196.236773 278.705256 
L 1196.236773 273.892132 
L 1196.236773 269.079007 
L 1196.236773 264.265883 
L 1196.236773 259.452759 
L 1196.236773 254.639635 
L 1196.236773 249.826511 
L 1196.236773 245.013387 
L 1196.236773 240.200263 
L 1196.236773 235.387139 
L 1196.236773 230.574015 
L 1196.236773 225.760891 
L 1196.236773 220.947767 
L 1196.236773 216.134643 
L 1196.236773 211.321519 
L 1196.236773 206.508395 
L 1196.236773 201.695271 
L 1196.236773 196.882147 
L 1196.236773 192.069022 
L 1196.236773 187.255898 
L 1196.236773 182.442774 
L 1196.236773 177.62965 
L 1196.236773 172.816526 
L 1196.236773 168.003402 
L 1196.236773 163.190278 
L 1196.236773 158.377154 
L 1196.236773 153.56403 
L 1196.236773 148.750906 
L 1196.236773 143.937782 
L 1196.236773 139.124658 
L 1196.236773 134.311534 
L 1196.236773 129.49841 
L 1196.236773 124.685286 
L 1196.236773 119.872161 
L 1196.236773 115.059037 
L 1196.236773 110.245913 
L 1196.236773 105.432789 
L 1196.236773 100.619665 
L 1196.236773 95.806541 
L 1196.236773 90.993417 
L 1196.236773 86.180293 
L 1196.236773 81.367169 
L 1196.236773 76.554045 
L 1196.236773 71.740921 
L 1196.236773 66.927797 
L 1196.236773 62.114673 
L 1196.236773 57.301549 
L 1196.236773 52.488425 
L 1196.236773 47.675301 
L 1196.236773 42.862176 
L 1196.236773 38.049052 
L 1196.236773 33.235928 
L 1196.236773 28.422804 
L 1196.236773 23.60968 
L 1196.236773 18.796556 
L 1196.236773 13.983432 
L 1196.236773 9.170308 
L 1196.236773 4.357184 
L 1196.236773 -0.45594 
L 1196.236773 -5.269064 
L 1196.236773 -10.082188 
L 1196.236773 -14.895312 
L 1196.236773 -19.708436 
L 1196.236773 -24.52156 
L 1196.236773 -29.334684 
L 1196.236773 -34.147809 
L 1196.236773 -38.960933 
L 1196.236773 -43.774057 
L 1196.236773 -48.587181 
L 1196.236773 -53.400305 
L 1196.236773 -58.213429 
L 1196.236773 -63.026553 
L 1196.236773 -67.839677 
L 1196.236773 -72.652801 
L 1196.236773 -77.465925 
L 1196.236773 -82.279049 
L 1196.236773 -87.092173 
L 1196.236773 -91.905297 
L 1196.236773 -96.718421 
L 1196.236773 -101.531545 
L 1196.236773 -106.34467 
L 1196.236773 -111.157794 
L 1196.236773 -115.970918 
L 1196.236773 -120.784042 
L 1196.236773 -125.597166 
L 1196.236773 -130.41029 
L 1196.236773 -135.223414 
L 1196.236773 -140.036538 
L 1196.236773 -144.849662 
L 1196.236773 -149.662786 
L 1196.236773 -154.47591 
L 1196.236773 -159.289034 
L 1190.865845 -159.289034 
L 1185.494917 -159.289034 
L 1180.123989 -159.289034 
L 1174.75306 -159.289034 
L 1169.382132 -159.289034 
L 1164.011204 -159.289034 
L 1158.640276 -159.289034 
L 1153.269348 -159.289034 
L 1147.89842 -159.289034 
L 1142.527491 -159.289034 
L 1137.156563 -159.289034 
L 1131.785635 -159.289034 
L 1126.414707 -159.289034 
L 1121.043779 -159.289034 
L 1115.672851 -159.289034 
L 1110.301922 -159.289034 
L 1104.930994 -159.289034 
L 1099.560066 -159.289034 
L 1094.189138 -159.289034 
L 1088.81821 -159.289034 
L 1083.447282 -159.289034 
L 1078.076353 -159.289034 
L 1072.705425 -159.289034 
L 1067.334497 -159.289034 
L 1061.963569 -159.289034 
L 1056.592641 -159.289034 
L 1051.221712 -159.289034 
L 1045.850784 -159.289034 
L 1040.479856 -159.289034 
L 1035.108928 -159.289034 
L 1029.738 -159.289034 
L 1024.367072 -159.289034 
L 1018.996143 -159.289034 
L 1013.625215 -159.289034 
L 1008.254287 -159.289034 
L 1002.883359 -159.289034 
L 997.512431 -159.289034 
L 992.141503 -159.289034 
L 986.770574 -159.289034 
L 981.399646 -159.289034 
L 976.028718 -159.289034 
L 970.65779 -159.289034 
L 965.286862 -159.289034 
L 959.915933 -159.289034 
L 954.545005 -159.289034 
L 949.174077 -159.289034 
L 943.803149 -159.289034 
L 938.432221 -159.289034 
L 933.061293 -159.289034 
L 927.690364 -159.289034 
L 922.319436 -159.289034 
L 916.948508 -159.289034 
L 911.57758 -159.289034 
L 906.206652 -159.289034 
L 900.835724 -159.289034 
L 895.464795 -159.289034 
L 890.093867 -159.289034 
L 884.722939 -159.289034 
L 879.352011 -159.289034 
L 873.981083 -159.289034 
L 868.610154 -159.289034 
L 863.239226 -159.289034 
L 857.868298 -159.289034 
L 852.49737 -159.289034 
L 847.126442 -159.289034 
L 841.755514 -159.289034 
L 836.384585 -159.289034 
L 831.013657 -159.289034 
L 825.642729 -159.289034 
L 820.271801 -159.289034 
L 814.900873 -159.289034 
L 809.529945 -159.289034 
L 804.159016 -159.289034 
L 798.788088 -159.289034 
L 793.41716 -159.289034 
L 788.046232 -159.289034 
L 782.675304 -159.289034 
L 777.304376 -159.289034 
L 771.933447 -159.289034 
L 766.562519 -159.289034 
L 761.191591 -159.289034 
L 755.820663 -159.289034 
L 750.449735 -159.289034 
L 745.078806 -159.289034 
L 739.707878 -159.289034 
L 734.33695 -159.289034 
L 728.966022 -159.289034 
L 723.595094 -159.289034 
L 718.224166 -159.289034 
L 712.853237 -159.289034 
L 707.482309 -159.289034 
L 702.111381 -159.289034 
L 696.740453 -159.289034 
L 691.369525 -159.289034 
L 685.998597 -159.289034 
L 680.627668 -159.289034 
L 675.25674 -159.289034 
L 669.885812 -159.289034 
L 664.514884 -159.289034 
L 659.143956 -159.289034 
L 653.773027 -159.289034 
L 648.402099 -159.289034 
L 643.031171 -159.289034 
L 637.660243 -159.289034 
L 632.289315 -159.289034 
L 626.918387 -159.289034 
L 621.547458 -159.289034 
L 616.17653 -159.289034 
L 610.805602 -159.289034 
L 605.434674 -159.289034 
L 600.063746 -159.289034 
L 594.692818 -159.289034 
L 589.321889 -159.289034 
L 583.950961 -159.289034 
L 578.580033 -159.289034 
L 573.209105 -159.289034 
L 567.838177 -159.289034 
L 562.467248 -159.289034 
L 557.09632 -159.289034 
L 551.725392 -159.289034 
L 546.354464 -159.289034 
L 540.983536 -159.289034 
L 535.612608 -159.289034 
L 530.241679 -159.289034 
L 524.870751 -159.289034 
L 519.499823 -159.289034 
L 514.128895 -159.289034 
L 508.757967 -159.289034 
L 503.387039 -159.289034 
L 498.01611 -159.289034 
L 492.645182 -159.289034 
L 487.274254 -159.289034 
L 481.903326 -159.289034 
L 476.532398 -159.289034 
L 471.16147 -159.289034 
L 465.790541 -159.289034 
L 460.419613 -159.289034 
L 455.048685 -159.289034 
L 449.677757 -159.289034 
L 444.306829 -159.289034 
L 438.9359 -159.289034 
L 433.564972 -159.289034 
L 428.194044 -159.289034 
L 422.823116 -159.289034 
L 417.452188 -159.289034 
L 412.08126 -159.289034 
L 406.710331 -159.289034 
L 401.339403 -159.289034 
L 395.968475 -159.289034 
L 390.597547 -159.289034 
L 385.226619 -159.289034 
L 379.855691 -159.289034 
L 374.484762 -159.289034 
L 369.113834 -159.289034 
L 363.742906 -159.289034 
L 358.371978 -159.289034 
L 353.00105 -159.289034 
L 347.630121 -159.289034 
L 342.259193 -159.289034 
L 336.888265 -159.289034 
L 331.517337 -159.289034 
L 326.146409 -159.289034 
L 320.775481 -159.289034 
L 315.404552 -159.289034 
L 310.033624 -159.289034 
L 304.662696 -159.289034 
L 299.291768 -159.289034 
L 293.92084 -159.289034 
L 288.549912 -159.289034 
L 283.178983 -159.289034 
L 277.808055 -159.289034 
L 272.437127 -159.289034 
L 267.066199 -159.289034 
L 261.695271 -159.289034 
L 256.324342 -159.289034 
L 250.953414 -159.289034 
L 245.582486 -159.289034 
L 240.211558 -159.289034 
L 234.84063 -159.289034 
L 229.469702 -159.289034 
L 224.098773 -159.289034 
L 218.727845 -159.289034 
L 213.356917 -159.289034 
L 207.985989 -159.289034 
L 202.615061 -159.289034 
L 197.244133 -159.289034 
L 191.873204 -159.289034 
L 186.502276 -159.289034 
L 181.131348 -159.289034 
L 175.76042 -159.289034 
L 170.389492 -159.289034 
L 165.018564 -159.289034 
L 159.647635 -159.289034 
L 154.276707 -159.289034 
L 148.905779 -159.289034 
L 143.534851 -159.289034 
L 138.163923 -159.289034 
L 132.792994 -159.289034 
L 127.422066 -159.289034 
L 122.051138 -159.289034 
L 116.68021 -159.289034 
L 111.309282 -159.289034 
L 105.938354 -159.289034 
L 100.567425 -159.289034 
L 95.196497 -159.289034 
L 89.825569 -159.289034 
L 84.454641 -159.289034 
L 79.083713 -159.289034 
L 73.712785 -159.289034 
L 68.341856 -159.289034 
L 62.970928 -159.289034 
L 62.970928 -154.47591 
L 62.970928 -149.662786 
L 62.970928 -144.849662 
L 62.970928 -140.036538 
L 62.970928 -135.223414 
L 62.970928 -130.41029 
L 62.970928 -125.597166 
L 62.970928 -120.784042 
L 62.970928 -115.970918 
L 62.970928 -111.157794 
L 62.970928 -106.34467 
L 62.970928 -101.531545 
L 62.970928 -96.718421 
L 62.970928 -91.905297 
L 62.970928 -87.092173 
L 62.970928 -82.279049 
L 62.970928 -77.465925 
L 62.970928 -72.652801 
L 62.970928 -67.839677 
L 62.970928 -63.026553 
L 62.970928 -58.213429 
L 62.970928 -53.400305 
L 62.970928 -48.587181 
L 62.970928 -43.774057 
L 62.970928 -38.960933 
L 62.970928 -34.147809 
L 62.970928 -29.334684 
L 62.970928 -24.52156 
L 62.970928 -19.708436 
L 62.970928 -14.895312 
L 62.970928 -10.082188 
L 62.970928 -5.269064 
L 62.970928 -0.45594 
L 62.970928 4.357184 
L 62.970928 9.170308 
L 62.970928 13.983432 
L 62.970928 18.796556 
L 62.970928 23.60968 
L 62.970928 28.422804 
L 62.970928 33.235928 
L 62.970928 38.049052 
L 62.970928 42.862176 
L 62.970928 47.675301 
L 62.970928 52.488425 
L 62.970928 57.301549 
L 62.970928 62.114673 
L 62.970928 66.927797 
L 62.970928 71.740921 
L 62.970928 76.554045 
L 62.970928 81.367169 
L 62.970928 86.180293 
L 62.970928 90.993417 
L 62.970928 95.806541 
L 62.970928 100.619665 
L 62.970928 105.432789 
L 62.970928 110.245913 
L 62.970928 115.059037 
L 62.970928 119.872161 
L 62.970928 124.685286 
L 62.970928 129.49841 
L 62.970928 134.311534 
L 62.970928 139.124658 
L 62.970928 143.937782 
L 62.970928 148.750906 
L 62.970928 153.56403 
L 62.970928 158.377154 
L 62.970928 163.190278 
L 62.970928 168.003402 
L 62.970928 172.816526 
L 62.970928 177.62965 
L 62.970928 182.442774 
L 62.970928 187.255898 
L 62.970928 192.069022 
L 62.970928 196.882147 
L 62.970928 201.695271 
L 62.970928 206.508395 
L 62.970928 211.321519 
L 62.970928 216.134643 
L 62.970928 220.947767 
L 62.970928 225.760891 
L 62.970928 230.574015 
L 62.970928 233.581674 
L 67.445893 230.574015 
L 68.341856 229.369647 
L 70.355348 225.760891 
L 72.816821 220.947767 
L 73.712785 219.743399 
L 75.323578 216.134643 
L 79.083713 213.326625 
L 80.575368 211.321519 
L 80.426202 206.508395 
L 84.454641 201.995819 
L 84.837932 201.695271 
L 88.929606 196.882147 
L 88.929606 192.069022 
L 89.825569 191.266111 
L 94.300534 187.255898 
L 95.196497 186.051531 
L 97.209989 182.442774 
L 99.223481 177.62965 
L 100.567425 176.826738 
L 102.804908 172.816526 
L 105.938354 170.008508 
L 106.77741 168.003402 
L 111.309282 163.671446 
L 111.577747 163.190278 
L 112.651771 158.377154 
L 116.68021 154.767094 
L 117.099738 153.56403 
L 119.365189 148.750906 
L 122.051138 146.343909 
L 122.757712 143.937782 
L 126.526103 139.124658 
L 127.422066 138.321746 
L 128.913721 134.311534 
L 132.792994 130.400599 
L 133.070717 129.49841 
L 135.030477 124.685286 
L 138.163923 121.877268 
L 138.583451 119.872161 
L 143.534851 115.434995 
L 143.735222 115.059037 
L 144.032069 110.245913 
L 148.905779 105.878368 
L 149.278693 105.432789 
L 154.276707 100.95385 
L 159.647635 101.00775 
L 165.018564 101.421708 
L 169.494499 105.432789 
L 170.389492 105.726219 
L 175.76042 106.29212 
L 181.131348 106.101158 
L 186.502276 106.358223 
L 191.873204 106.635853 
L 197.244133 106.526484 
L 198.735788 105.432789 
L 202.615061 100.963149 
L 202.950441 100.619665 
L 203.647745 95.806541 
L 204.852543 90.993417 
L 207.985989 86.78139 
L 211.119435 90.993417 
L 212.324233 95.806541 
L 212.014428 100.619665 
L 212.350171 105.432789 
L 207.985989 109.343724 
L 207.741929 110.245913 
L 207.469647 115.059037 
L 206.765544 119.872161 
L 202.615061 123.591591 
L 201.869233 124.685286 
L 201.464494 129.49841 
L 197.244133 133.910802 
L 196.946017 134.311534 
L 195.32629 139.124658 
L 191.873204 142.219119 
L 191.656674 143.937782 
L 191.873204 147.947994 
L 197.244133 147.947994 
L 198.588077 148.750906 
L 197.244133 149.553818 
L 191.873204 149.955274 
L 186.502276 153.296876 
L 186.233972 153.56403 
L 181.131348 158.136715 
L 180.997196 158.377154 
L 179.789829 163.190278 
L 178.446692 168.003402 
L 175.76042 170.410689 
L 171.733437 172.816526 
L 170.389492 174.020894 
L 169.494606 177.62965 
L 170.389492 181.238406 
L 171.733437 182.442774 
L 170.389492 183.647142 
L 165.018564 183.245686 
L 163.340452 187.255898 
L 159.647635 191.668291 
L 158.976876 192.069022 
L 157.634144 196.882147 
L 156.964597 201.695271 
L 154.276707 204.104006 
L 152.935188 206.508395 
L 150.249724 211.321519 
L 149.801742 216.134643 
L 148.905779 216.937555 
L 144.430814 220.947767 
L 143.534851 222.152135 
L 140.850195 225.760891 
L 138.163923 227.566356 
L 134.134514 225.760891 
L 132.792994 224.959428 
L 127.422066 225.280013 
L 122.587746 220.947767 
L 122.051138 220.81419 
L 121.667847 220.947767 
L 118.024155 225.760891 
L 116.68021 226.563803 
L 112.205245 230.574015 
L 111.309282 231.376927 
L 107.953058 235.387139 
L 105.938354 237.794426 
L 103.924862 240.200263 
L 100.567425 243.209009 
L 99.225098 245.013387 
L 95.196497 249.345634 
L 94.928193 249.826511 
L 89.825569 254.399196 
L 89.684356 254.639635 
L 87.907727 259.452759 
L 86.469345 264.265883 
L 84.454641 266.071348 
L 82.217158 269.079007 
L 79.083713 272.448629 
L 77.933146 273.892132 
L 76.84623 278.705256 
L 73.712785 281.513274 
L 73.153414 283.51838 
L 68.341856 288.017699 
L 68.291202 288.331504 
L 68.323604 293.144628 
L 68.21024 297.957752 
L 68.231528 302.770876 
z
M 203.95658 297.957752 
L 202.615061 295.553363 
L 201.719098 293.144628 
L 197.244133 291.80789 
L 191.873204 290.738501 
L 186.502276 290.136969 
L 182.472867 288.331504 
L 181.131348 285.927115 
L 179.789829 288.331504 
L 175.76042 290.136969 
L 170.389492 289.134416 
L 167.701602 288.331504 
L 170.389492 287.528592 
L 175.76042 285.924217 
L 179.787403 283.51838 
L 175.76042 279.909623 
L 173.07253 278.705256 
L 170.389492 276.300867 
L 167.706453 278.705256 
L 165.018564 281.113991 
L 162.330674 278.705256 
L 165.018564 276.29652 
L 167.701602 273.892132 
L 165.018564 272.689937 
L 163.003859 269.079007 
L 159.647635 266.071348 
L 156.961363 264.265883 
L 159.647635 262.460418 
L 163.677044 264.265883 
L 165.018564 265.468078 
L 169.047972 269.079007 
L 170.389492 271.483396 
L 173.07253 269.079007 
L 175.76042 268.276096 
L 177.104365 269.079007 
L 181.131348 271.484845 
L 186.502276 271.484845 
L 190.52926 269.079007 
L 187.844604 264.265883 
L 189.186932 259.452759 
L 191.873204 255.841829 
L 193.887909 259.452759 
L 196.707525 264.265883 
L 197.244133 265.468078 
L 199.930405 269.079007 
L 199.932022 273.892132 
L 202.615061 274.373009 
L 206.068147 278.705256 
L 207.985989 281.712915 
L 210.672262 283.51838 
L 213.356917 284.119839 
L 218.727845 284.420569 
L 222.607118 288.331504 
L 218.727845 291.80789 
L 217.049733 293.144628 
L 213.356917 297.55702 
L 212.015398 297.957752 
L 207.985989 300.365038 
z
M 146.217889 293.144628 
L 148.905779 292.341716 
L 150.249724 293.144628 
L 148.905779 293.94754 
z
M 156.961363 293.144628 
L 159.647635 289.533698 
L 163.677044 293.144628 
L 159.647635 294.950093 
z
M 121.155175 288.331504 
L 122.051138 287.528592 
L 122.947101 288.331504 
L 122.051138 289.134416 
z
M 139.774716 278.705256 
L 143.534851 275.897238 
L 147.294986 278.705256 
L 143.534851 282.074877 
z
M 105.04239 273.892132 
L 105.938354 272.687764 
L 108.626243 273.892132 
L 105.938354 275.096499 
z
M 151.588818 273.892132 
L 148.905779 271.487743 
L 148.009816 269.079007 
L 143.534851 266.67288 
L 140.177414 264.265883 
L 143.534851 261.858887 
L 148.905779 261.858887 
L 152.263215 264.265883 
L 151.593669 269.079007 
L 154.276707 271.483396 
L 155.17267 273.892132 
L 154.276707 276.300867 
z
M 118.021729 269.079007 
L 122.051138 265.468078 
L 124.065843 269.079007 
L 122.051138 271.486294 
z
M 131.897031 269.079007 
L 129.435558 264.265883 
L 132.792994 261.858887 
L 136.150431 264.265883 
L 138.163923 267.87464 
L 139.059886 269.079007 
L 138.163923 270.283375 
L 132.792994 270.283375 
z
M 105.04239 259.452759 
L 105.938354 258.649847 
L 106.834317 259.452759 
L 105.938354 260.657127 
z
M 115.784247 259.452759 
L 116.68021 258.649847 
L 119.3681 259.452759 
L 116.68021 260.657127 
z
M 185.606313 245.013387 
L 186.502276 242.604651 
L 187.846221 245.013387 
L 186.502276 245.816299 
z
" style="fill:#ffffff;"/>
    <path clip-path="url(#p649f6f5305)" d="M 186.502276 284.720574 
L 189.185315 283.51838 
L 186.502276 281.113991 
L 183.819238 283.51838 
z
" style="fill:#ffffff;"/>
    <path clip-path="url(#p649f6f5305)" d="M 191.873204 276.29652 
L 194.556243 273.892132 
L 191.873204 271.487743 
L 190.531685 273.892132 
z
" style="fill:#ffffff;"/>
    <path clip-path="url(#p649f6f5305)" d="M 159.647635 182.843506 
L 162.330674 182.442774 
L 159.647635 182.09929 
L 159.312256 182.442774 
z
" style="fill:#ffffff;"/>
   </g>
   <g id="PathCollection_3">
    <path clip-path="url(#p649f6f5305)" d="M 68.21024 297.957752 
L 68.323604 293.144628 
L 68.291202 288.331504 
L 68.341856 288.017699 
L 73.153414 283.51838 
L 73.712785 281.513274 
L 76.84623 278.705256 
L 77.933146 273.892132 
L 79.083713 272.448629 
L 82.217158 269.079007 
L 84.454641 266.071348 
L 86.469345 264.265883 
L 87.907727 259.452759 
L 89.684356 254.639635 
L 89.825569 254.399196 
L 94.928193 249.826511 
L 95.196497 249.345634 
L 99.225098 245.013387 
L 100.567425 243.209009 
L 103.924862 240.200263 
L 105.938354 237.794426 
L 107.953058 235.387139 
L 111.309282 231.376927 
L 112.205245 230.574015 
L 116.68021 226.563803 
L 118.024155 225.760891 
L 121.667847 220.947767 
L 122.051138 220.81419 
L 122.587746 220.947767 
L 127.422066 225.280013 
L 132.792994 224.959428 
L 134.134514 225.760891 
L 138.163923 227.566356 
L 140.850195 225.760891 
L 143.534851 222.152135 
L 144.430814 220.947767 
L 148.905779 216.937555 
L 149.801742 216.134643 
L 150.249724 211.321519 
L 152.935188 206.508395 
L 154.276707 204.104006 
L 156.964597 201.695271 
L 157.634144 196.882147 
L 158.976876 192.069022 
L 159.647635 191.668291 
L 163.340452 187.255898 
L 165.018564 183.245686 
L 170.389492 183.647142 
L 171.733437 182.442774 
L 170.389492 181.238406 
L 169.494606 177.62965 
L 170.389492 174.020894 
L 171.733437 172.816526 
L 175.76042 170.410689 
L 178.446692 168.003402 
L 179.789829 163.190278 
L 180.997196 158.377154 
L 181.131348 158.136715 
L 186.233972 153.56403 
L 186.502276 153.296876 
L 191.873204 149.955274 
L 197.244133 149.553818 
L 198.588077 148.750906 
L 197.244133 147.947994 
L 191.873204 147.947994 
L 191.656674 143.937782 
L 191.873204 142.219119 
L 195.32629 139.124658 
L 196.946017 134.311534 
L 197.244133 133.910802 
L 201.464494 129.49841 
L 201.869233 124.685286 
L 202.615061 123.591591 
L 206.765544 119.872161 
L 207.469647 115.059037 
L 207.741929 110.245913 
L 207.985989 109.343724 
L 212.350171 105.432789 
L 212.014428 100.619665 
L 212.324233 95.806541 
L 211.119435 90.993417 
L 207.985989 86.78139 
L 204.852543 90.993417 
L 203.647745 95.806541 
L 202.950441 100.619665 
L 202.615061 100.963149 
L 198.735788 105.432789 
L 197.244133 106.526484 
L 191.873204 106.635853 
L 186.502276 106.358223 
L 181.131348 106.101158 
L 175.76042 106.29212 
L 170.389492 105.726219 
L 169.494499 105.432789 
L 165.018564 101.421708 
L 159.647635 101.00775 
L 154.276707 100.95385 
L 149.278693 105.432789 
L 148.905779 105.878368 
L 144.032069 110.245913 
L 143.735222 115.059037 
L 143.534851 115.434995 
L 138.583451 119.872161 
L 138.163923 121.877268 
L 135.030477 124.685286 
L 133.070717 129.49841 
L 132.792994 130.400599 
L 128.913721 134.311534 
L 127.422066 138.321746 
L 126.526103 139.124658 
L 122.757712 143.937782 
L 122.051138 146.343909 
L 119.365189 148.750906 
L 117.099738 153.56403 
L 116.68021 154.767094 
L 112.651771 158.377154 
L 111.577747 163.190278 
L 111.309282 163.671446 
L 106.77741 168.003402 
L 105.938354 170.008508 
L 102.804908 172.816526 
L 100.567425 176.826738 
L 99.223481 177.62965 
L 97.209989 182.442774 
L 95.196497 186.051531 
L 94.300534 187.255898 
L 89.825569 191.266111 
L 88.929606 192.069022 
L 88.929606 196.882147 
L 84.837932 201.695271 
L 84.454641 201.995819 
L 80.426202 206.508395 
L 80.575368 211.321519 
L 79.083713 213.326625 
L 75.323578 216.134643 
L 73.712785 219.743399 
L 72.816821 220.947767 
L 70.355348 225.760891 
L 68.341856 229.369647 
L 67.445893 230.574015 
L 62.970928 233.581674 
L 62.970928 235.387139 
L 62.970928 240.200263 
L 62.970928 242.766103 
L 68.341856 241.128807 
L 68.90434 240.200263 
L 69.856236 235.387139 
L 70.31055 230.574015 
L 73.712785 226.762901 
L 74.400868 225.760891 
L 79.083713 221.21468 
L 79.134053 220.947767 
L 79.339009 216.134643 
L 83.061459 211.321519 
L 82.663685 206.508395 
L 84.454641 204.502202 
L 88.034336 201.695271 
L 89.825569 199.822534 
L 91.056003 196.882147 
L 95.196497 192.641599 
L 95.382853 192.069022 
L 96.50896 187.255898 
L 100.567425 183.059396 
L 100.822999 182.442774 
L 101.973635 177.62965 
L 105.938354 173.107704 
L 106.066002 172.816526 
L 108.175836 168.003402 
L 111.309282 165.008183 
L 112.323575 163.190278 
L 114.889254 158.377154 
L 116.68021 156.7722 
L 117.798951 153.56403 
L 122.051138 149.047798 
L 122.249918 148.750906 
L 123.935334 143.937782 
L 127.422066 140.227303 
L 127.954146 139.124658 
L 131.399813 134.311534 
L 132.792994 132.906981 
L 133.842263 129.49841 
L 138.163923 124.818742 
L 138.239968 124.685286 
L 139.282664 119.872161 
L 143.534851 116.06159 
L 144.069175 115.059037 
L 144.860766 110.245913 
L 148.905779 106.621 
L 149.900216 105.432789 
L 154.276707 101.510823 
L 159.647635 101.654559 
L 165.018564 102.758445 
L 168.002844 105.432789 
L 170.389492 106.21527 
L 175.76042 107.724339 
L 181.131348 107.215106 
L 186.502276 107.900612 
L 191.873204 108.640959 
L 197.244133 108.349307 
L 201.221879 105.432789 
L 202.615061 103.827587 
L 205.747294 100.619665 
L 205.368885 95.806541 
L 207.985989 91.450982 
L 210.603092 95.806541 
L 209.776945 100.619665 
L 209.553318 105.432789 
L 207.985989 106.837342 
L 207.063904 110.245913 
L 206.609077 115.059037 
L 204.731469 119.872161 
L 202.615061 121.768768 
L 200.626187 124.685286 
L 198.268091 129.49841 
L 197.244133 130.568959 
L 194.459926 134.311534 
L 192.129887 139.124658 
L 191.873204 139.354682 
L 191.29579 143.937782 
L 189.412337 148.750906 
L 186.502276 151.06898 
L 183.99649 153.56403 
L 181.131348 156.131609 
L 179.878455 158.377154 
L 175.76042 162.477545 
L 174.865669 163.190278 
L 170.988418 168.003402 
L 170.389492 168.405945 
L 165.018564 172.243949 
L 164.205375 172.816526 
L 165.018564 174.419742 
L 167.008515 177.62965 
L 165.018564 179.922442 
L 159.647635 179.234853 
L 156.515402 182.442774 
L 154.276707 184.735566 
L 151.464288 187.255898 
L 148.905779 189.54869 
L 146.718342 192.069022 
L 143.534851 195.278496 
L 142.10325 196.882147 
L 138.163923 200.41235 
L 136.374422 201.695271 
L 135.300721 206.508395 
L 132.792994 208.755678 
L 129.213993 211.321519 
L 132.792994 214.528819 
L 134.584921 216.134643 
L 132.792994 218.275741 
L 128.320455 220.947767 
L 127.422066 221.269801 
L 127.062711 220.947767 
L 122.051138 219.700242 
L 118.471443 220.947767 
L 116.68021 222.820503 
L 113.867791 225.760891 
L 111.309282 228.053683 
L 108.848415 230.574015 
L 105.938354 233.554396 
L 103.89321 235.387139 
L 100.567425 238.86425 
L 99.971087 240.200263 
L 95.49596 245.013387 
L 95.196497 245.335421 
L 92.690711 249.826511 
L 89.825569 252.39409 
L 88.506734 254.639635 
L 84.711323 259.452759 
L 84.454641 259.989483 
L 82.863973 264.265883 
L 79.083713 268.621443 
L 78.981594 269.079007 
L 74.736742 273.892132 
L 73.712785 277.103779 
L 73.65008 278.705256 
L 72.22113 283.51838 
L 68.341856 287.145914 
L 68.15048 288.331504 
L 68.171395 293.144628 
L 67.990879 297.957752 
L 67.925024 302.770876 
L 68.231528 302.770876 
z
M 158.214094 187.255898 
L 159.647635 186.185349 
L 160.543599 187.255898 
L 159.647635 188.326448 
z
M 159.312256 182.442774 
L 159.647635 182.09929 
L 162.330674 182.442774 
L 159.647635 182.843506 
z
" style="fill:#f0f0f0;"/>
    <path clip-path="url(#p649f6f5305)" d="M 207.985989 300.365038 
L 212.015398 297.957752 
L 213.356917 297.55702 
L 217.049733 293.144628 
L 218.727845 291.80789 
L 222.607118 288.331504 
L 218.727845 284.420569 
L 213.356917 284.119839 
L 210.672262 283.51838 
L 207.985989 281.712915 
L 206.068147 278.705256 
L 202.615061 274.373009 
L 199.932022 273.892132 
L 199.930405 269.079007 
L 197.244133 265.468078 
L 196.707525 264.265883 
L 193.887909 259.452759 
L 191.873204 255.841829 
L 189.186932 259.452759 
L 187.844604 264.265883 
L 190.52926 269.079007 
L 186.502276 271.484845 
L 181.131348 271.484845 
L 177.104365 269.079007 
L 175.76042 268.276096 
L 173.07253 269.079007 
L 170.389492 271.483396 
L 169.047972 269.079007 
L 165.018564 265.468078 
L 163.677044 264.265883 
L 159.647635 262.460418 
L 156.961363 264.265883 
L 159.647635 266.071348 
L 163.003859 269.079007 
L 165.018564 272.689937 
L 167.701602 273.892132 
L 165.018564 276.29652 
L 162.330674 278.705256 
L 165.018564 281.113991 
L 167.706453 278.705256 
L 170.389492 276.300867 
L 173.07253 278.705256 
L 175.76042 279.909623 
L 179.787403 283.51838 
L 175.76042 285.924217 
L 170.389492 287.528592 
L 167.701602 288.331504 
L 170.389492 289.134416 
L 175.76042 290.136969 
L 179.789829 288.331504 
L 181.131348 285.927115 
L 182.472867 288.331504 
L 186.502276 290.136969 
L 191.873204 290.738501 
L 197.244133 291.80789 
L 201.719098 293.144628 
L 202.615061 295.553363 
L 203.95658 297.957752 
z
M 206.552448 293.144628 
L 202.615061 291.884462 
L 197.244133 289.579995 
L 194.109474 288.331504 
L 195.810591 283.51838 
L 195.810591 278.705256 
L 197.244133 277.420597 
L 202.615061 278.383221 
L 202.871743 278.705256 
L 202.615061 279.510341 
L 199.633368 283.51838 
L 202.615061 284.186386 
L 207.985989 284.943846 
L 213.356917 285.790761 
L 218.727845 286.926951 
L 220.121027 288.331504 
L 218.727845 289.579995 
L 214.25288 293.144628 
L 213.356917 294.215177 
L 207.985989 294.750452 
z
M 183.819238 283.51838 
L 186.502276 281.113991 
L 189.185315 283.51838 
L 186.502276 284.720574 
z
M 190.531685 273.892132 
L 191.873204 271.487743 
L 194.556243 273.892132 
L 191.873204 276.29652 
z
M 191.573741 264.265883 
L 191.873204 263.72916 
L 192.23256 264.265883 
L 191.873204 264.668426 
z
" style="fill:#f0f0f0;"/>
    <path clip-path="url(#p649f6f5305)" d="M 148.905779 293.94754 
L 150.249724 293.144628 
L 148.905779 292.341716 
L 146.217889 293.144628 
z
" style="fill:#f0f0f0;"/>
    <path clip-path="url(#p649f6f5305)" d="M 159.647635 294.950093 
L 163.677044 293.144628 
L 159.647635 289.533698 
L 156.961363 293.144628 
z
" style="fill:#f0f0f0;"/>
    <path clip-path="url(#p649f6f5305)" d="M 122.051138 289.134416 
L 122.947101 288.331504 
L 122.051138 287.528592 
L 121.155175 288.331504 
z
" style="fill:#f0f0f0;"/>
    <path clip-path="url(#p649f6f5305)" d="M 143.534851 282.074877 
L 147.294986 278.705256 
L 143.534851 275.897238 
L 139.774716 278.705256 
z
" style="fill:#f0f0f0;"/>
    <path clip-path="url(#p649f6f5305)" d="M 105.938354 275.096499 
L 108.626243 273.892132 
L 105.938354 272.687764 
L 105.04239 273.892132 
z
" style="fill:#f0f0f0;"/>
    <path clip-path="url(#p649f6f5305)" d="M 154.276707 276.300867 
L 155.17267 273.892132 
L 154.276707 271.483396 
L 151.593669 269.079007 
L 152.263215 264.265883 
L 148.905779 261.858887 
L 143.534851 261.858887 
L 140.177414 264.265883 
L 143.534851 266.67288 
L 148.009816 269.079007 
L 148.905779 271.487743 
L 151.588818 273.892132 
z
" style="fill:#f0f0f0;"/>
    <path clip-path="url(#p649f6f5305)" d="M 122.051138 271.486294 
L 124.065843 269.079007 
L 122.051138 265.468078 
L 118.021729 269.079007 
z
" style="fill:#f0f0f0;"/>
    <path clip-path="url(#p649f6f5305)" d="M 132.792994 270.283375 
L 138.163923 270.283375 
L 139.059886 269.079007 
L 138.163923 267.87464 
L 136.150431 264.265883 
L 132.792994 261.858887 
L 129.435558 264.265883 
L 131.897031 269.079007 
z
" style="fill:#f0f0f0;"/>
    <path clip-path="url(#p649f6f5305)" d="M 105.938354 260.657127 
L 106.834317 259.452759 
L 105.938354 258.649847 
L 105.04239 259.452759 
z
" style="fill:#f0f0f0;"/>
    <path clip-path="url(#p649f6f5305)" d="M 116.68021 260.657127 
L 119.3681 259.452759 
L 116.68021 258.649847 
L 115.784247 259.452759 
z
" style="fill:#f0f0f0;"/>
    <path clip-path="url(#p649f6f5305)" d="M 186.502276 245.816299 
L 187.846221 245.013387 
L 186.502276 242.604651 
L 185.606313 245.013387 
z
" style="fill:#f0f0f0;"/>
    <path clip-path="url(#p649f6f5305)" d="M 186.502276 125.41402 
L 188.738546 124.685286 
L 186.502276 122.681266 
L 186.213725 124.685286 
z
" style="fill:#f0f0f0;"/>
   </g>
   <g id="PathCollection_4">
    <path clip-path="url(#p649f6f5305)" d="M 67.990879 297.957752 
L 68.171395 293.144628 
L 68.15048 288.331504 
L 68.341856 287.145914 
L 72.22113 283.51838 
L 73.65008 278.705256 
L 73.712785 277.103779 
L 74.736742 273.892132 
L 78.981594 269.079007 
L 79.083713 268.621443 
L 82.863973 264.265883 
L 84.454641 259.989483 
L 84.711323 259.452759 
L 88.506734 254.639635 
L 89.825569 252.39409 
L 92.690711 249.826511 
L 95.196497 245.335421 
L 95.49596 245.013387 
L 99.971087 240.200263 
L 100.567425 238.86425 
L 103.89321 235.387139 
L 105.938354 233.554396 
L 108.848415 230.574015 
L 111.309282 228.053683 
L 113.867791 225.760891 
L 116.68021 222.820503 
L 118.471443 220.947767 
L 122.051138 219.700242 
L 127.062711 220.947767 
L 127.422066 221.269801 
L 128.320455 220.947767 
L 132.792994 218.275741 
L 134.584921 216.134643 
L 132.792994 214.528819 
L 129.213993 211.321519 
L 132.792994 208.755678 
L 135.300721 206.508395 
L 136.374422 201.695271 
L 138.163923 200.41235 
L 142.10325 196.882147 
L 143.534851 195.278496 
L 146.718342 192.069022 
L 148.905779 189.54869 
L 151.464288 187.255898 
L 154.276707 184.735566 
L 156.515402 182.442774 
L 159.647635 179.234853 
L 165.018564 179.922442 
L 167.008515 177.62965 
L 165.018564 174.419742 
L 164.205375 172.816526 
L 165.018564 172.243949 
L 170.389492 168.405945 
L 170.988418 168.003402 
L 174.865669 163.190278 
L 175.76042 162.477545 
L 179.878455 158.377154 
L 181.131348 156.131609 
L 183.99649 153.56403 
L 186.502276 151.06898 
L 189.412337 148.750906 
L 191.29579 143.937782 
L 191.873204 139.354682 
L 192.129887 139.124658 
L 194.459926 134.311534 
L 197.244133 130.568959 
L 198.268091 129.49841 
L 200.626187 124.685286 
L 202.615061 121.768768 
L 204.731469 119.872161 
L 206.609077 115.059037 
L 207.063904 110.245913 
L 207.985989 106.837342 
L 209.553318 105.432789 
L 209.776945 100.619665 
L 210.603092 95.806541 
L 207.985989 91.450982 
L 205.368885 95.806541 
L 205.747294 100.619665 
L 202.615061 103.827587 
L 201.221879 105.432789 
L 197.244133 108.349307 
L 191.873204 108.640959 
L 186.502276 107.900612 
L 181.131348 107.215106 
L 175.76042 107.724339 
L 170.389492 106.21527 
L 168.002844 105.432789 
L 165.018564 102.758445 
L 159.647635 101.654559 
L 154.276707 101.510823 
L 149.900216 105.432789 
L 148.905779 106.621 
L 144.860766 110.245913 
L 144.069175 115.059037 
L 143.534851 116.06159 
L 139.282664 119.872161 
L 138.239968 124.685286 
L 138.163923 124.818742 
L 133.842263 129.49841 
L 132.792994 132.906981 
L 131.399813 134.311534 
L 127.954146 139.124658 
L 127.422066 140.227303 
L 123.935334 143.937782 
L 122.249918 148.750906 
L 122.051138 149.047798 
L 117.798951 153.56403 
L 116.68021 156.7722 
L 114.889254 158.377154 
L 112.323575 163.190278 
L 111.309282 165.008183 
L 108.175836 168.003402 
L 106.066002 172.816526 
L 105.938354 173.107704 
L 101.973635 177.62965 
L 100.822999 182.442774 
L 100.567425 183.059396 
L 96.50896 187.255898 
L 95.382853 192.069022 
L 95.196497 192.641599 
L 91.056003 196.882147 
L 89.825569 199.822534 
L 88.034336 201.695271 
L 84.454641 204.502202 
L 82.663685 206.508395 
L 83.061459 211.321519 
L 79.339009 216.134643 
L 79.134053 220.947767 
L 79.083713 221.21468 
L 74.400868 225.760891 
L 73.712785 226.762901 
L 70.31055 230.574015 
L 69.856236 235.387139 
L 68.90434 240.200263 
L 68.341856 241.128807 
L 62.970928 242.766103 
L 62.970928 245.013387 
L 62.970928 249.826511 
L 62.970928 254.537641 
L 64.528591 249.826511 
L 65.792927 245.013387 
L 68.341856 243.450508 
L 70.310758 240.200263 
L 73.642745 235.387139 
L 73.712785 235.115154 
L 74.173459 230.574015 
L 78.187376 225.760891 
L 79.083713 224.890707 
L 79.827357 220.947767 
L 82.855053 216.134643 
L 84.454641 214.310238 
L 85.160141 211.321519 
L 88.369022 206.508395 
L 89.825569 205.34815 
L 90.58986 201.695271 
L 94.132541 196.882147 
L 95.196497 195.79248 
L 96.408366 192.069022 
L 99.790601 187.255898 
L 100.567425 186.452652 
L 102.229417 182.442774 
L 105.489679 177.62965 
L 105.938354 177.117916 
L 107.824024 172.816526 
L 111.252374 168.003402 
L 111.309282 167.949005 
L 113.964395 163.190278 
L 116.68021 159.713477 
L 117.3761 158.377154 
L 119.33722 153.56403 
L 122.051138 150.681588 
L 123.343798 148.750906 
L 126.526103 143.937782 
L 127.422066 142.984324 
L 129.284541 139.124658 
L 132.792994 135.372047 
L 133.526714 134.311534 
L 135.539664 129.49841 
L 138.163923 126.656756 
L 139.287301 124.685286 
L 140.820933 119.872161 
L 143.534851 117.440101 
L 144.803871 115.059037 
L 146.6839 110.245913 
L 148.905779 108.25479 
L 151.267566 105.432789 
L 154.276707 102.736166 
L 159.647635 103.077537 
L 164.739788 105.432789 
L 165.018564 105.682612 
L 170.389492 107.29118 
L 175.396296 110.245913 
L 175.76042 110.320577 
L 178.218255 110.245913 
L 181.131348 109.665791 
L 183.461823 110.245913 
L 181.131348 111.406158 
L 180.833088 115.059037 
L 181.131348 119.755597 
L 181.261422 119.872161 
L 184.625834 124.685286 
L 186.502276 129.424232 
L 186.68438 129.49841 
L 190.912311 134.311534 
L 189.614736 139.124658 
L 190.501844 143.937782 
L 186.502276 148.29503 
L 186.160906 148.750906 
L 181.131348 153.318209 
L 180.64151 153.56403 
L 177.417224 158.377154 
L 175.76042 160.026859 
L 171.789131 163.190278 
L 170.389492 164.734005 
L 166.437172 168.003402 
L 165.018564 169.093068 
L 159.73041 172.816526 
L 159.647635 172.933091 
L 154.276707 176.650729 
L 151.818872 177.62965 
L 148.905779 180.240201 
L 146.939511 182.442774 
L 143.534851 184.137811 
L 138.163923 186.454963 
L 137.461684 187.255898 
L 137.526721 192.069022 
L 133.248253 196.882147 
L 132.792994 197.086135 
L 127.422066 199.711637 
L 124.618272 201.695271 
L 126.926465 206.508395 
L 122.051138 210.440489 
L 121.436679 211.321519 
L 122.051138 212.789901 
L 124.290561 216.134643 
L 122.051138 217.249557 
L 116.68021 216.251208 
L 111.439356 220.947767 
L 111.309282 221.083759 
L 105.938354 224.057964 
L 105.044103 225.760891 
L 103.343941 230.574015 
L 100.567425 233.062172 
L 98.405415 235.387139 
L 96.689446 240.200263 
L 95.196497 241.74399 
L 92.034641 245.013387 
L 89.825569 247.982857 
L 88.931082 249.826511 
L 85.915965 254.639635 
L 84.454641 256.416891 
L 82.29883 259.452759 
L 79.083713 263.41442 
L 78.807308 264.265883 
L 77.575177 269.079007 
L 73.712785 272.750039 
L 73.27008 273.892132 
L 72.78649 278.705256 
L 70.170104 283.51838 
L 68.341856 285.227986 
L 67.840892 288.331504 
L 67.836533 293.144628 
L 67.508284 297.957752 
L 67.250714 302.770876 
L 67.925024 302.770876 
z
M 186.213725 124.685286 
L 186.502276 122.681266 
L 188.738546 124.685286 
L 186.502276 125.41402 
z
M 195.949424 124.685286 
L 196.546194 119.872161 
L 197.244133 117.057623 
L 197.649625 115.059037 
L 198.372138 110.245913 
L 202.615061 106.747826 
L 205.572249 110.245913 
L 204.715822 115.059037 
L 202.615061 118.322184 
L 198.29104 119.872161 
L 197.891487 124.685286 
L 197.244133 125.729506 
z
" style="fill:#d3d3d3;"/>
    <path clip-path="url(#p649f6f5305)" d="M 207.985989 294.750452 
L 213.356917 294.215177 
L 214.25288 293.144628 
L 218.727845 289.579995 
L 220.121027 288.331504 
L 218.727845 286.926951 
L 213.356917 285.790761 
L 207.985989 284.943846 
L 202.615061 284.186386 
L 199.633368 283.51838 
L 202.615061 279.510341 
L 202.871743 278.705256 
L 202.615061 278.383221 
L 197.244133 277.420597 
L 195.810591 278.705256 
L 195.810591 283.51838 
L 194.109474 288.331504 
L 197.244133 289.579995 
L 202.615061 291.884462 
L 206.552448 293.144628 
z
M 201.82988 288.331504 
L 202.615061 287.862414 
L 204.185422 288.331504 
L 202.615061 288.733581 
z
" style="fill:#d3d3d3;"/>
    <path clip-path="url(#p649f6f5305)" d="M 191.873204 264.668426 
L 192.23256 264.265883 
L 191.873204 263.72916 
L 191.573741 264.265883 
z
" style="fill:#d3d3d3;"/>
    <path clip-path="url(#p649f6f5305)" d="M 159.647635 188.326448 
L 160.543599 187.255898 
L 159.647635 186.185349 
L 158.214094 187.255898 
z
" style="fill:#d3d3d3;"/>
   </g>
   <g id="PathCollection_5">
    <path clip-path="url(#p649f6f5305)" d="M 67.508284 297.957752 
L 67.836533 293.144628 
L 67.840892 288.331504 
L 68.341856 285.227986 
L 70.170104 283.51838 
L 72.78649 278.705256 
L 73.27008 273.892132 
L 73.712785 272.750039 
L 77.575177 269.079007 
L 78.807308 264.265883 
L 79.083713 263.41442 
L 82.29883 259.452759 
L 84.454641 256.416891 
L 85.915965 254.639635 
L 88.931082 249.826511 
L 89.825569 247.982857 
L 92.034641 245.013387 
L 95.196497 241.74399 
L 96.689446 240.200263 
L 98.405415 235.387139 
L 100.567425 233.062172 
L 103.343941 230.574015 
L 105.044103 225.760891 
L 105.938354 224.057964 
L 111.309282 221.083759 
L 111.439356 220.947767 
L 116.68021 216.251208 
L 122.051138 217.249557 
L 124.290561 216.134643 
L 122.051138 212.789901 
L 121.436679 211.321519 
L 122.051138 210.440489 
L 126.926465 206.508395 
L 124.618272 201.695271 
L 127.422066 199.711637 
L 132.792994 197.086135 
L 133.248253 196.882147 
L 137.526721 192.069022 
L 137.461684 187.255898 
L 138.163923 186.454963 
L 143.534851 184.137811 
L 146.939511 182.442774 
L 148.905779 180.240201 
L 151.818872 177.62965 
L 154.276707 176.650729 
L 159.647635 172.933091 
L 159.73041 172.816526 
L 165.018564 169.093068 
L 166.437172 168.003402 
L 170.389492 164.734005 
L 171.789131 163.190278 
L 175.76042 160.026859 
L 177.417224 158.377154 
L 180.64151 153.56403 
L 181.131348 153.318209 
L 186.160906 148.750906 
L 186.502276 148.29503 
L 190.501844 143.937782 
L 189.614736 139.124658 
L 190.912311 134.311534 
L 186.68438 129.49841 
L 186.502276 129.424232 
L 184.625834 124.685286 
L 181.261422 119.872161 
L 181.131348 119.755597 
L 180.833088 115.059037 
L 181.131348 111.406158 
L 183.461823 110.245913 
L 181.131348 109.665791 
L 178.218255 110.245913 
L 175.76042 110.320577 
L 175.396296 110.245913 
L 170.389492 107.29118 
L 165.018564 105.682612 
L 164.739788 105.432789 
L 159.647635 103.077537 
L 154.276707 102.736166 
L 151.267566 105.432789 
L 148.905779 108.25479 
L 146.6839 110.245913 
L 144.803871 115.059037 
L 143.534851 117.440101 
L 140.820933 119.872161 
L 139.287301 124.685286 
L 138.163923 126.656756 
L 135.539664 129.49841 
L 133.526714 134.311534 
L 132.792994 135.372047 
L 129.284541 139.124658 
L 127.422066 142.984324 
L 126.526103 143.937782 
L 123.343798 148.750906 
L 122.051138 150.681588 
L 119.33722 153.56403 
L 117.3761 158.377154 
L 116.68021 159.713477 
L 113.964395 163.190278 
L 111.309282 167.949005 
L 111.252374 168.003402 
L 107.824024 172.816526 
L 105.938354 177.117916 
L 105.489679 177.62965 
L 102.229417 182.442774 
L 100.567425 186.452652 
L 99.790601 187.255898 
L 96.408366 192.069022 
L 95.196497 195.79248 
L 94.132541 196.882147 
L 90.58986 201.695271 
L 89.825569 205.34815 
L 88.369022 206.508395 
L 85.160141 211.321519 
L 84.454641 214.310238 
L 82.855053 216.134643 
L 79.827357 220.947767 
L 79.083713 224.890707 
L 78.187376 225.760891 
L 74.173459 230.574015 
L 73.712785 235.115154 
L 73.642745 235.387139 
L 70.310758 240.200263 
L 68.341856 243.450508 
L 65.792927 245.013387 
L 64.528591 249.826511 
L 62.970928 254.537641 
L 62.970928 254.639635 
L 62.970928 259.004765 
L 63.990443 254.639635 
L 66.185986 249.826511 
L 68.341856 245.813958 
L 68.63964 245.013387 
L 71.589319 240.200263 
L 73.712785 237.172874 
L 74.348134 235.387139 
L 75.529509 230.574015 
L 79.083713 226.820174 
L 79.497429 225.760891 
L 80.457634 220.947767 
L 84.454641 216.486111 
L 84.700305 216.134643 
L 86.020711 211.321519 
L 89.825569 207.19816 
L 90.201674 206.508395 
L 91.522145 201.695271 
L 95.196497 197.53601 
L 95.592588 196.882147 
L 97.34065 192.069022 
L 100.567425 188.103325 
L 101.110004 187.255898 
L 103.507978 182.442774 
L 105.938354 179.128478 
L 106.637775 177.62965 
L 109.422226 172.816526 
L 111.309282 170.185967 
L 112.121118 168.003402 
L 115.45605 163.190278 
L 116.68021 161.623102 
L 118.370537 158.377154 
L 120.735647 153.56403 
L 122.051138 152.166852 
L 124.338235 148.750906 
L 127.422066 144.739291 
L 128.011989 143.937782 
L 130.493991 139.124658 
L 132.792994 136.665664 
L 134.421707 134.311534 
L 137.082755 129.49841 
L 138.163923 128.327678 
L 140.239421 124.685286 
L 142.21936 119.872161 
L 143.534851 118.693292 
L 145.471776 115.059037 
L 148.341295 110.245913 
L 148.905779 109.740054 
L 152.510612 105.432789 
L 154.276707 103.850114 
L 159.647635 104.371154 
L 161.942935 105.432789 
L 165.018564 108.188995 
L 170.389492 108.269281 
L 173.738902 110.245913 
L 175.76042 110.660425 
L 180.46927 115.059037 
L 180.633176 119.872161 
L 181.131348 121.83647 
L 183.182297 124.685286 
L 185.6076 129.49841 
L 186.502276 131.284145 
L 189.254916 134.311534 
L 187.4838 139.124658 
L 189.780076 143.937782 
L 186.502276 147.508714 
L 185.572095 148.750906 
L 181.131348 152.783514 
L 179.576042 153.56403 
L 175.76042 158.051922 
L 174.308724 158.377154 
L 170.389492 161.186911 
L 167.19586 163.190278 
L 165.018564 164.897553 
L 163.325111 163.190278 
L 165.018564 158.637546 
L 165.163848 158.377154 
L 169.292808 153.56403 
L 165.018564 153.158465 
L 164.512403 153.56403 
L 159.647635 158.165758 
L 159.390295 158.377154 
L 154.276707 163.177878 
L 154.26443 163.190278 
L 150.3158 168.003402 
L 148.905779 169.109036 
L 147.526726 172.816526 
L 143.534851 176.904862 
L 143.063059 177.62965 
L 138.913793 182.442774 
L 138.163923 182.809315 
L 134.265281 187.255898 
L 132.792994 190.334452 
L 127.422066 191.762922 
L 127.185055 192.069022 
L 127.422066 194.150507 
L 128.807619 196.882147 
L 127.422066 197.600999 
L 122.051138 201.229079 
L 121.779719 201.695271 
L 121.905853 206.508395 
L 118.639826 211.321519 
L 116.68021 213.328488 
L 113.940264 216.134643 
L 111.309282 218.492381 
L 105.938354 219.933064 
L 105.623826 220.947767 
L 102.41177 225.760891 
L 100.567425 228.882843 
L 99.914176 230.574015 
L 95.196497 235.154043 
L 95.088866 235.387139 
L 93.47685 240.200263 
L 89.825569 244.067258 
L 89.606445 245.013387 
L 86.985445 249.826511 
L 84.454641 253.552453 
L 84.156667 254.639635 
L 80.264755 259.452759 
L 79.083713 260.908037 
L 77.993678 264.265883 
L 76.296615 269.079007 
L 73.712785 271.534824 
L 72.799031 273.892132 
L 72.001409 278.705256 
L 68.341856 283.49835 
L 68.334938 283.51838 
L 67.559447 288.331504 
L 67.532114 293.144628 
L 67.069562 297.957752 
L 66.637705 302.770876 
L 67.250714 302.770876 
z
" style="fill:#b8b8b8;"/>
    <path clip-path="url(#p649f6f5305)" d="M 202.615061 288.733581 
L 204.185422 288.331504 
L 202.615061 287.862414 
L 201.82988 288.331504 
z
" style="fill:#b8b8b8;"/>
    <path clip-path="url(#p649f6f5305)" d="M 170.389492 152.679523 
L 172.075612 148.750906 
L 170.389492 147.896859 
L 169.879734 148.750906 
z
" style="fill:#b8b8b8;"/>
    <path clip-path="url(#p649f6f5305)" d="M 197.244133 125.729506 
L 197.891487 124.685286 
L 198.29104 119.872161 
L 202.615061 118.322184 
L 204.715822 115.059037 
L 205.572249 110.245913 
L 202.615061 106.747826 
L 198.372138 110.245913 
L 197.649625 115.059037 
L 197.244133 117.057623 
L 196.546194 119.872161 
L 195.949424 124.685286 
z
M 201.717774 115.059037 
L 200.317775 110.245913 
L 202.615061 108.351911 
L 204.216199 110.245913 
L 202.994682 115.059037 
L 202.615061 115.648709 
z
" style="fill:#b8b8b8;"/>
    <path clip-path="url(#p649f6f5305)" d="M 159.647635 115.394761 
L 160.703414 115.059037 
L 159.647635 114.88264 
L 159.562865 115.059037 
z
" style="fill:#b8b8b8;"/>
   </g>
   <g id="PathCollection_6">
    <path clip-path="url(#p649f6f5305)" d="M 67.069562 297.957752 
L 67.532114 293.144628 
L 67.559447 288.331504 
L 68.334938 283.51838 
L 68.341856 283.49835 
L 72.001409 278.705256 
L 72.799031 273.892132 
L 73.712785 271.534824 
L 76.296615 269.079007 
L 77.993678 264.265883 
L 79.083713 260.908037 
L 80.264755 259.452759 
L 84.156667 254.639635 
L 84.454641 253.552453 
L 86.985445 249.826511 
L 89.606445 245.013387 
L 89.825569 244.067258 
L 93.47685 240.200263 
L 95.088866 235.387139 
L 95.196497 235.154043 
L 99.914176 230.574015 
L 100.567425 228.882843 
L 102.41177 225.760891 
L 105.623826 220.947767 
L 105.938354 219.933064 
L 111.309282 218.492381 
L 113.940264 216.134643 
L 116.68021 213.328488 
L 118.639826 211.321519 
L 121.905853 206.508395 
L 121.779719 201.695271 
L 122.051138 201.229079 
L 127.422066 197.600999 
L 128.807619 196.882147 
L 127.422066 194.150507 
L 127.185055 192.069022 
L 127.422066 191.762922 
L 132.792994 190.334452 
L 134.265281 187.255898 
L 138.163923 182.809315 
L 138.913793 182.442774 
L 143.063059 177.62965 
L 143.534851 176.904862 
L 147.526726 172.816526 
L 148.905779 169.109036 
L 150.3158 168.003402 
L 154.26443 163.190278 
L 154.276707 163.177878 
L 159.390295 158.377154 
L 159.647635 158.165758 
L 164.512403 153.56403 
L 165.018564 153.158465 
L 169.292808 153.56403 
L 165.163848 158.377154 
L 165.018564 158.637546 
L 163.325111 163.190278 
L 165.018564 164.897553 
L 167.19586 163.190278 
L 170.389492 161.186911 
L 174.308724 158.377154 
L 175.76042 158.051922 
L 179.576042 153.56403 
L 181.131348 152.783514 
L 185.572095 148.750906 
L 186.502276 147.508714 
L 189.780076 143.937782 
L 187.4838 139.124658 
L 189.254916 134.311534 
L 186.502276 131.284145 
L 185.6076 129.49841 
L 183.182297 124.685286 
L 181.131348 121.83647 
L 180.633176 119.872161 
L 180.46927 115.059037 
L 175.76042 110.660425 
L 173.738902 110.245913 
L 170.389492 108.269281 
L 165.018564 108.188995 
L 161.942935 105.432789 
L 159.647635 104.371154 
L 154.276707 103.850114 
L 152.510612 105.432789 
L 148.905779 109.740054 
L 148.341295 110.245913 
L 145.471776 115.059037 
L 143.534851 118.693292 
L 142.21936 119.872161 
L 140.239421 124.685286 
L 138.163923 128.327678 
L 137.082755 129.49841 
L 134.421707 134.311534 
L 132.792994 136.665664 
L 130.493991 139.124658 
L 128.011989 143.937782 
L 127.422066 144.739291 
L 124.338235 148.750906 
L 122.051138 152.166852 
L 120.735647 153.56403 
L 118.370537 158.377154 
L 116.68021 161.623102 
L 115.45605 163.190278 
L 112.121118 168.003402 
L 111.309282 170.185967 
L 109.422226 172.816526 
L 106.637775 177.62965 
L 105.938354 179.128478 
L 103.507978 182.442774 
L 101.110004 187.255898 
L 100.567425 188.103325 
L 97.34065 192.069022 
L 95.592588 196.882147 
L 95.196497 197.53601 
L 91.522145 201.695271 
L 90.201674 206.508395 
L 89.825569 207.19816 
L 86.020711 211.321519 
L 84.700305 216.134643 
L 84.454641 216.486111 
L 80.457634 220.947767 
L 79.497429 225.760891 
L 79.083713 226.820174 
L 75.529509 230.574015 
L 74.348134 235.387139 
L 73.712785 237.172874 
L 71.589319 240.200263 
L 68.63964 245.013387 
L 68.341856 245.813958 
L 66.185986 249.826511 
L 63.990443 254.639635 
L 62.970928 259.004765 
L 62.970928 259.452759 
L 62.970928 264.265883 
L 62.970928 269.079007 
L 62.970928 273.892132 
L 62.970928 278.705256 
L 62.970928 283.51838 
L 62.970928 288.331504 
L 62.970928 293.144628 
L 62.970928 297.957752 
L 62.970928 302.770876 
L 66.637705 302.770876 
z
M 169.879734 148.750906 
L 170.389492 147.896859 
L 172.075612 148.750906 
L 170.389492 152.679523 
z
M 159.562865 115.059037 
L 159.647635 114.88264 
L 160.703414 115.059037 
L 159.647635 115.394761 
z
" style="fill:#a0a0a0;"/>
    <path clip-path="url(#p649f6f5305)" d="M 202.615061 115.648709 
L 202.994682 115.059037 
L 204.216199 110.245913 
L 202.615061 108.351911 
L 200.317775 110.245913 
L 201.717774 115.059037 
z
" style="fill:#a0a0a0;"/>
   </g>
   <g id="PathCollection_7">
    <path clip-path="url(#p649f6f5305)" d="M 65.291599 307.584 
L 67.855465 307.584 
L 70.419331 307.584 
L 72.983197 307.584 
L 75.547064 307.584 
L 78.11093 307.584 
L 80.674796 307.584 
L 83.238662 307.584 
L 85.802528 307.584 
L 88.366395 307.584 
L 90.930261 307.584 
L 93.494127 307.584 
L 96.057993 307.584 
L 98.62186 307.584 
L 101.185726 307.584 
L 103.749592 307.584 
L 106.313458 307.584 
L 108.877324 307.584 
L 111.441191 307.584 
L 114.005057 307.584 
L 114.277587 307.584 
L 115.218005 306.863054 
L 115.915134 306.142107 
L 116.241743 305.421161 
L 116.204474 304.700214 
L 115.959482 303.979268 
L 115.408326 303.258321 
L 114.615913 302.537375 
L 114.005057 302.089708 
L 113.563549 301.816428 
L 112.193239 301.095482 
L 111.441191 300.800563 
L 110.51383 300.374535 
L 108.877324 299.684082 
L 108.803838 299.653589 
L 107.036505 298.932642 
L 106.313458 298.669914 
L 104.958844 298.211696 
L 103.749592 297.858544 
L 102.438959 297.490749 
L 101.185726 297.114716 
L 100.016288 296.769803 
L 98.62186 296.309344 
L 97.771725 296.048856 
L 96.057993 295.565127 
L 94.919996 295.32791 
L 93.494127 295.034047 
L 91.711487 294.606964 
L 90.930261 294.399303 
L 88.366395 293.961236 
L 87.874591 293.886017 
L 85.802528 293.593623 
L 83.238662 293.295421 
L 81.479509 293.165071 
L 80.674796 293.108318 
L 78.11093 293.024158 
L 75.547064 293.030502 
L 72.983197 293.13003 
L 72.361286 293.165071 
L 70.419331 293.279683 
L 67.855465 293.537346 
L 67.530524 293.886017 
L 66.940359 294.606964 
L 66.322584 295.32791 
L 65.752552 296.048856 
L 65.291599 296.711275 
L 65.281482 296.769803 
L 65.142135 297.490749 
L 65.001287 298.211696 
L 64.885598 298.932642 
L 64.785943 299.653589 
L 64.692246 300.374535 
L 64.607878 301.095482 
L 64.546616 301.816428 
L 64.495454 302.537375 
L 64.45469 303.258321 
L 64.426337 303.979268 
L 64.413734 304.700214 
L 64.411817 305.421161 
L 64.428619 306.142107 
L 64.464481 306.863054 
L 64.512859 307.584 
z
" style="fill:#4d94ff;fill-opacity:0.2;"/>
   </g>
   <g id="PathCollection_8">
    <path clip-path="url(#p649f6f5305)" d="M 69.815102 307.584 
L 72.258122 307.584 
L 74.701142 307.584 
L 77.144163 307.584 
L 79.587183 307.584 
L 82.030203 307.584 
L 84.473223 307.584 
L 86.916244 307.584 
L 89.359264 307.584 
L 91.802284 307.584 
L 94.245305 307.584 
L 96.688325 307.584 
L 99.131345 307.584 
L 101.574366 307.584 
L 104.017386 307.584 
L 106.460406 307.584 
L 108.903427 307.584 
L 111.346447 307.584 
L 113.789467 307.584 
L 116.232488 307.584 
L 118.675508 307.584 
L 121.118528 307.584 
L 123.561548 307.584 
L 126.004569 307.584 
L 128.447589 307.584 
L 130.890609 307.584 
L 133.33363 307.584 
L 135.77665 307.584 
L 137.006382 307.584 
L 138.21967 306.939839 
L 139.810662 306.123612 
L 140.662691 305.691317 
L 142.41918 304.663224 
L 143.105711 304.207052 
L 144.53047 303.202836 
L 145.548731 302.44353 
L 146.475646 301.742448 
L 147.991752 300.523141 
L 148.269639 300.28206 
L 149.428822 298.821672 
L 150.434772 297.859903 
L 150.865695 297.361284 
L 152.198699 295.900896 
L 152.877792 294.990825 
L 153.288611 294.440508 
L 154.227068 292.98012 
L 155.056665 291.519732 
L 155.320813 290.605381 
L 155.462081 290.059344 
L 155.703128 288.598956 
L 155.703128 287.138568 
L 155.320813 285.745711 
L 155.300101 285.67818 
L 154.861903 284.217792 
L 154.16896 282.757404 
L 153.442728 281.297016 
L 152.877792 280.195336 
L 152.695425 279.836628 
L 151.890064 278.37624 
L 150.807626 276.915852 
L 150.434772 276.485591 
L 149.35432 275.455464 
L 147.991752 274.396217 
L 147.433038 273.995076 
L 145.548731 272.731534 
L 145.249683 272.534688 
L 143.105711 271.087336 
L 143.085195 271.0743 
L 140.662691 270.057827 
L 139.422429 269.613912 
L 138.21967 269.127663 
L 135.865853 268.153524 
L 135.77665 268.128003 
L 133.33363 267.540044 
L 130.890609 267.00449 
L 129.432702 266.693136 
L 128.447589 266.488783 
L 126.004569 265.991423 
L 123.561548 265.57089 
L 121.683155 265.232748 
L 121.118528 265.141983 
L 118.675508 264.800258 
L 116.232488 264.487152 
L 113.789467 264.164504 
L 111.346447 263.790439 
L 111.177161 263.77236 
L 108.903427 263.517957 
L 106.460406 263.118411 
L 104.017386 262.86593 
L 101.574366 262.716132 
L 99.131345 262.616432 
L 96.688325 262.616432 
L 94.245305 262.780181 
L 91.802284 262.970602 
L 89.359264 263.231501 
L 86.916244 263.573925 
L 85.748062 263.77236 
L 84.473223 263.981006 
L 82.030203 264.549539 
L 79.587183 265.058521 
L 78.896074 265.232748 
L 77.144163 265.734563 
L 74.701142 266.574246 
L 74.35829 266.693136 
L 72.258122 267.457117 
L 70.313947 268.153524 
L 69.815102 268.41435 
L 67.936338 269.613912 
L 67.372081 269.939334 
L 66.993402 271.0743 
L 66.684491 272.534688 
L 66.377893 273.995076 
L 66.100185 275.455464 
L 65.877866 276.915852 
L 65.691606 278.37624 
L 65.553024 279.836628 
L 65.426957 281.297016 
L 65.305238 282.757404 
L 65.189099 284.217792 
L 65.115655 285.67818 
L 65.041376 287.138568 
L 65.041376 288.598956 
L 65.08602 290.059344 
L 65.156456 291.519732 
L 65.295499 292.98012 
L 65.452788 294.440508 
L 65.638498 295.900896 
L 65.867874 297.361284 
L 66.089279 298.821672 
L 66.258964 300.28206 
L 66.511982 301.742448 
L 66.787158 303.202836 
L 67.086217 304.663224 
L 67.372081 305.858387 
L 67.696499 306.123612 
L 69.486209 307.584 
z
" style="fill:#ff8533;fill-opacity:0.2;"/>
   </g>
   <g id="PathCollection_9">
    <path clip-path="url(#p649f6f5305)" d="M 62.116394 307.584 
L 64.374591 307.584 
L 66.632789 307.584 
L 68.890986 307.584 
L 71.149183 307.584 
L 73.40738 307.584 
L 75.665577 307.584 
L 77.923774 307.584 
L 80.181972 307.584 
L 82.440169 307.584 
L 84.698366 307.584 
L 86.956563 307.584 
L 89.21476 307.584 
L 91.472957 307.584 
L 93.731155 307.584 
L 95.989352 307.584 
L 98.247549 307.584 
L 100.505746 307.584 
L 102.763943 307.584 
L 105.02214 307.584 
L 107.280337 307.584 
L 109.538535 307.584 
L 111.796732 307.584 
L 114.054929 307.584 
L 116.313126 307.584 
L 118.571323 307.584 
L 120.82952 307.584 
L 123.087718 307.584 
L 125.345915 307.584 
L 127.604112 307.584 
L 129.862309 307.584 
L 132.120506 307.584 
L 134.378703 307.584 
L 136.6369 307.584 
L 138.895098 307.584 
L 141.153295 307.584 
L 143.411492 307.584 
L 144.192507 307.584 
L 144.87966 306.778295 
L 144.999753 305.972591 
L 144.603003 305.166886 
L 143.942079 304.361182 
L 143.411492 303.999524 
L 142.656014 303.555477 
L 141.153295 303.028674 
L 140.394595 302.749772 
L 138.895098 302.193148 
L 138.225633 301.944068 
L 136.6369 301.465218 
L 135.391627 301.138363 
L 134.378703 300.905795 
L 132.120506 300.475643 
L 131.084345 300.332659 
L 129.862309 300.176737 
L 127.604112 299.806402 
L 125.500749 299.526954 
L 125.345915 299.505348 
L 123.087718 299.256553 
L 120.82952 298.999841 
L 118.571323 298.783731 
L 117.881369 298.72125 
L 116.313126 298.566289 
L 114.054929 298.350353 
L 111.796732 298.125002 
L 109.890051 297.915545 
L 109.538535 297.88458 
L 107.280337 297.707169 
L 105.02214 297.545155 
L 102.763943 297.372994 
L 100.505746 297.210642 
L 99.119133 297.10984 
L 98.247549 297.037103 
L 95.989352 296.86399 
L 93.731155 296.742684 
L 91.472957 296.57551 
L 89.21476 296.446078 
L 86.956563 296.339982 
L 86.172301 296.304136 
L 84.698366 296.222718 
L 82.440169 296.088668 
L 80.181972 296.016385 
L 77.923774 295.976653 
L 75.665577 295.934728 
L 73.40738 295.934728 
L 71.149183 295.982927 
L 68.890986 296.073689 
L 66.632789 296.209318 
L 65.344669 296.304136 
L 64.374591 296.363451 
L 63.795507 297.10984 
L 63.179859 297.915545 
L 62.75103 298.72125 
L 62.337613 299.526954 
L 62.116394 299.974281 
L 62.045759 300.332659 
L 61.908976 301.138363 
L 61.798405 301.944068 
L 61.713503 302.749772 
L 61.63141 303.555477 
L 61.5838 304.361182 
L 61.557579 305.166886 
L 61.541838 305.972591 
L 61.546603 306.778295 
L 61.573865 307.584 
z
" style="fill:#00b300;fill-opacity:0.2;"/>
   </g>
   <g id="PathCollection_10">
    <path clip-path="url(#p649f6f5305)" d="M 69.822098 307.584 
L 75.933147 307.584 
L 82.044196 307.584 
L 88.155246 307.584 
L 94.266295 307.584 
L 100.377344 307.584 
L 106.488393 307.584 
L 112.599442 307.584 
L 118.710491 307.584 
L 124.82154 307.584 
L 130.932589 307.584 
L 137.043638 307.584 
L 143.154687 307.584 
L 149.265737 307.584 
L 155.376786 307.584 
L 161.487835 307.584 
L 167.598884 307.584 
L 173.709933 307.584 
L 179.820982 307.584 
L 185.932031 307.584 
L 192.04308 307.584 
L 198.154129 307.584 
L 204.265178 307.584 
L 210.376228 307.584 
L 216.487277 307.584 
L 222.598326 307.584 
L 228.709375 307.584 
L 234.820424 307.584 
L 240.931473 307.584 
L 247.042522 307.584 
L 253.153571 307.584 
L 259.26462 307.584 
L 265.375669 307.584 
L 271.486719 307.584 
L 277.597768 307.584 
L 283.708817 307.584 
L 289.819866 307.584 
L 295.930915 307.584 
L 302.041964 307.584 
L 308.153013 307.584 
L 314.264062 307.584 
L 320.375111 307.584 
L 326.48616 307.584 
L 332.59721 307.584 
L 338.708259 307.584 
L 344.819308 307.584 
L 350.930357 307.584 
L 357.041406 307.584 
L 357.041406 306.655542 
L 357.041406 305.727085 
L 357.041406 304.798627 
L 357.041406 303.870169 
L 357.041406 302.941711 
L 357.041406 302.013254 
L 357.041406 301.084796 
L 357.041406 300.156338 
L 357.041406 299.424924 
L 350.930357 299.424924 
L 344.819308 299.424924 
L 338.708259 299.424924 
L 332.59721 299.424924 
L 326.48616 299.424924 
L 320.375111 299.424924 
L 314.264062 299.424924 
L 308.153013 299.424924 
L 302.041964 299.424924 
L 295.930915 299.424924 
L 289.819866 299.424924 
L 283.708817 299.424924 
L 277.597768 299.424924 
L 271.486719 299.424924 
L 265.375669 299.424924 
L 259.26462 299.424924 
L 253.153571 299.424924 
L 247.042522 299.424924 
L 240.931473 299.424924 
L 234.820424 299.424924 
L 228.709375 299.424924 
L 222.598326 299.424924 
L 216.487277 299.424924 
L 210.376228 299.424924 
L 204.265178 299.424924 
L 198.154129 299.424924 
L 192.04308 299.424924 
L 185.932031 299.424924 
L 179.820982 299.424924 
L 173.709933 299.424924 
L 167.598884 299.424924 
L 166.203839 299.22788 
L 161.487835 298.602372 
L 159.535311 298.299423 
L 155.376786 297.775959 
L 151.5379 297.370965 
L 149.265737 297.107882 
L 143.154687 296.596192 
L 140.561625 296.442507 
L 137.043638 296.210151 
L 130.932589 295.987199 
L 124.82154 295.878336 
L 118.710491 295.855367 
L 112.599442 295.941033 
L 106.488393 296.146841 
L 100.377344 296.376735 
L 98.777169 296.442507 
L 94.266295 296.606508 
L 88.155246 296.903978 
L 82.044196 297.286362 
L 80.623493 297.370965 
L 75.933147 297.616715 
L 69.822098 297.885524 
L 69.480075 298.299423 
L 68.883135 299.22788 
L 68.36869 300.156338 
L 67.831669 301.084796 
L 67.488675 302.013254 
L 67.207933 302.941711 
L 66.95822 303.870169 
L 66.806784 304.798627 
L 66.740092 305.727085 
L 66.739139 306.655542 
L 66.797468 307.584 
z
" style="fill:#ffff33;fill-opacity:0.2;"/>
   </g>
   <g id="matplotlib.axis_1">
    <g id="xtick_1">
     <g id="line2d_1">
      <defs>
       <path d="M 0 0 
L 0 3.5 
" id="m7993654e0f" style="stroke:#000000;stroke-width:0.8;"/>
      </defs>
      <g>
       <use style="stroke:#000000;stroke-width:0.8;" x="57.6" xlink:href="#m7993654e0f" y="307.584"/>
      </g>
     </g>
     <g id="text_1">
      <!-- 0.0 -->
      <defs>
       <path d="M 31.78125 66.40625 
Q 24.171875 66.40625 20.328125 58.90625 
Q 16.5 51.421875 16.5 36.375 
Q 16.5 21.390625 20.328125 13.890625 
Q 24.171875 6.390625 31.78125 6.390625 
Q 39.453125 6.390625 43.28125 13.890625 
Q 47.125 21.390625 47.125 36.375 
Q 47.125 51.421875 43.28125 58.90625 
Q 39.453125 66.40625 31.78125 66.40625 
z
M 31.78125 74.21875 
Q 44.046875 74.21875 50.515625 64.515625 
Q 56.984375 54.828125 56.984375 36.375 
Q 56.984375 17.96875 50.515625 8.265625 
Q 44.046875 -1.421875 31.78125 -1.421875 
Q 19.53125 -1.421875 13.0625 8.265625 
Q 6.59375 17.96875 6.59375 36.375 
Q 6.59375 54.828125 13.0625 64.515625 
Q 19.53125 74.21875 31.78125 74.21875 
z
" id="DejaVuSans-48"/>
       <path d="M 10.6875 12.40625 
L 21 12.40625 
L 21 0 
L 10.6875 0 
z
" id="DejaVuSans-46"/>
      </defs>
      <g transform="translate(43.287188 328.261187)scale(0.18 -0.18)">
       <use xlink:href="#DejaVuSans-48"/>
       <use x="63.623047" xlink:href="#DejaVuSans-46"/>
       <use x="95.410156" xlink:href="#DejaVuSans-48"/>
      </g>
     </g>
    </g>
    <g id="xtick_2">
     <g id="line2d_2">
      <g>
       <use style="stroke:#000000;stroke-width:0.8;" x="114.7392" xlink:href="#m7993654e0f" y="307.584"/>
      </g>
     </g>
     <g id="text_2">
      <!-- 0.5 -->
      <defs>
       <path d="M 10.796875 72.90625 
L 49.515625 72.90625 
L 49.515625 64.59375 
L 19.828125 64.59375 
L 19.828125 46.734375 
Q 21.96875 47.46875 24.109375 47.828125 
Q 26.265625 48.1875 28.421875 48.1875 
Q 40.625 48.1875 47.75 41.5 
Q 54.890625 34.8125 54.890625 23.390625 
Q 54.890625 11.625 47.5625 5.09375 
Q 40.234375 -1.421875 26.90625 -1.421875 
Q 22.3125 -1.421875 17.546875 -0.640625 
Q 12.796875 0.140625 7.71875 1.703125 
L 7.71875 11.625 
Q 12.109375 9.234375 16.796875 8.0625 
Q 21.484375 6.890625 26.703125 6.890625 
Q 35.15625 6.890625 40.078125 11.328125 
Q 45.015625 15.765625 45.015625 23.390625 
Q 45.015625 31 40.078125 35.4375 
Q 35.15625 39.890625 26.703125 39.890625 
Q 22.75 39.890625 18.8125 39.015625 
Q 14.890625 38.140625 10.796875 36.28125 
z
" id="DejaVuSans-53"/>
      </defs>
      <g transform="translate(100.426388 328.261187)scale(0.18 -0.18)">
       <use xlink:href="#DejaVuSans-48"/>
       <use x="63.623047" xlink:href="#DejaVuSans-46"/>
       <use x="95.410156" xlink:href="#DejaVuSans-53"/>
      </g>
     </g>
    </g>
    <g id="xtick_3">
     <g id="line2d_3">
      <g>
       <use style="stroke:#000000;stroke-width:0.8;" x="171.8784" xlink:href="#m7993654e0f" y="307.584"/>
      </g>
     </g>
     <g id="text_3">
      <!-- 1.0 -->
      <defs>
       <path d="M 12.40625 8.296875 
L 28.515625 8.296875 
L 28.515625 63.921875 
L 10.984375 60.40625 
L 10.984375 69.390625 
L 28.421875 72.90625 
L 38.28125 72.90625 
L 38.28125 8.296875 
L 54.390625 8.296875 
L 54.390625 0 
L 12.40625 0 
z
" id="DejaVuSans-49"/>
      </defs>
      <g transform="translate(157.565588 328.261187)scale(0.18 -0.18)">
       <use xlink:href="#DejaVuSans-49"/>
       <use x="63.623047" xlink:href="#DejaVuSans-46"/>
       <use x="95.410156" xlink:href="#DejaVuSans-48"/>
      </g>
     </g>
    </g>
    <g id="xtick_4">
     <g id="line2d_4">
      <g>
       <use style="stroke:#000000;stroke-width:0.8;" x="229.0176" xlink:href="#m7993654e0f" y="307.584"/>
      </g>
     </g>
     <g id="text_4">
      <!-- 1.5 -->
      <g transform="translate(214.704788 328.261187)scale(0.18 -0.18)">
       <use xlink:href="#DejaVuSans-49"/>
       <use x="63.623047" xlink:href="#DejaVuSans-46"/>
       <use x="95.410156" xlink:href="#DejaVuSans-53"/>
      </g>
     </g>
    </g>
    <g id="xtick_5">
     <g id="line2d_5">
      <g>
       <use style="stroke:#000000;stroke-width:0.8;" x="286.1568" xlink:href="#m7993654e0f" y="307.584"/>
      </g>
     </g>
     <g id="text_5">
      <!-- 2.0 -->
      <defs>
       <path d="M 19.1875 8.296875 
L 53.609375 8.296875 
L 53.609375 0 
L 7.328125 0 
L 7.328125 8.296875 
Q 12.9375 14.109375 22.625 23.890625 
Q 32.328125 33.6875 34.8125 36.53125 
Q 39.546875 41.84375 41.421875 45.53125 
Q 43.3125 49.21875 43.3125 52.78125 
Q 43.3125 58.59375 39.234375 62.25 
Q 35.15625 65.921875 28.609375 65.921875 
Q 23.96875 65.921875 18.8125 64.3125 
Q 13.671875 62.703125 7.8125 59.421875 
L 7.8125 69.390625 
Q 13.765625 71.78125 18.9375 73 
Q 24.125 74.21875 28.421875 74.21875 
Q 39.75 74.21875 46.484375 68.546875 
Q 53.21875 62.890625 53.21875 53.421875 
Q 53.21875 48.921875 51.53125 44.890625 
Q 49.859375 40.875 45.40625 35.40625 
Q 44.1875 33.984375 37.640625 27.21875 
Q 31.109375 20.453125 19.1875 8.296875 
z
" id="DejaVuSans-50"/>
      </defs>
      <g transform="translate(271.843988 328.261187)scale(0.18 -0.18)">
       <use xlink:href="#DejaVuSans-50"/>
       <use x="63.623047" xlink:href="#DejaVuSans-46"/>
       <use x="95.410156" xlink:href="#DejaVuSans-48"/>
      </g>
     </g>
    </g>
    <g id="xtick_6">
     <g id="line2d_6">
      <g>
       <use style="stroke:#000000;stroke-width:0.8;" x="343.296" xlink:href="#m7993654e0f" y="307.584"/>
      </g>
     </g>
     <g id="text_6">
      <!-- 2.5 -->
      <g transform="translate(328.983188 328.261187)scale(0.18 -0.18)">
       <use xlink:href="#DejaVuSans-50"/>
       <use x="63.623047" xlink:href="#DejaVuSans-46"/>
       <use x="95.410156" xlink:href="#DejaVuSans-53"/>
      </g>
     </g>
    </g>
   </g>
   <g id="matplotlib.axis_2">
    <g id="ytick_1">
     <g id="line2d_7">
      <defs>
       <path d="M 0 0 
L -3.5 0 
" id="m6475672d97" style="stroke:#000000;stroke-width:0.8;"/>
      </defs>
      <g>
       <use style="stroke:#000000;stroke-width:0.8;" x="57.6" xlink:href="#m6475672d97" y="307.584"/>
      </g>
     </g>
     <g id="text_7">
      <!-- 0 -->
      <g transform="translate(39.1475 314.422594)scale(0.18 -0.18)">
       <use xlink:href="#DejaVuSans-48"/>
      </g>
     </g>
    </g>
    <g id="ytick_2">
     <g id="line2d_8">
      <g>
       <use style="stroke:#000000;stroke-width:0.8;" x="57.6" xlink:href="#m6475672d97" y="260.598438"/>
      </g>
     </g>
     <g id="text_8">
      <!-- 1 -->
      <g transform="translate(39.1475 267.437031)scale(0.18 -0.18)">
       <use xlink:href="#DejaVuSans-49"/>
      </g>
     </g>
    </g>
    <g id="ytick_3">
     <g id="line2d_9">
      <g>
       <use style="stroke:#000000;stroke-width:0.8;" x="57.6" xlink:href="#m6475672d97" y="213.612875"/>
      </g>
     </g>
     <g id="text_9">
      <!-- 2 -->
      <g transform="translate(39.1475 220.451469)scale(0.18 -0.18)">
       <use xlink:href="#DejaVuSans-50"/>
      </g>
     </g>
    </g>
    <g id="ytick_4">
     <g id="line2d_10">
      <g>
       <use style="stroke:#000000;stroke-width:0.8;" x="57.6" xlink:href="#m6475672d97" y="166.627313"/>
      </g>
     </g>
     <g id="text_10">
      <!-- 3 -->
      <defs>
       <path d="M 40.578125 39.3125 
Q 47.65625 37.796875 51.625 33 
Q 55.609375 28.21875 55.609375 21.1875 
Q 55.609375 10.40625 48.1875 4.484375 
Q 40.765625 -1.421875 27.09375 -1.421875 
Q 22.515625 -1.421875 17.65625 -0.515625 
Q 12.796875 0.390625 7.625 2.203125 
L 7.625 11.71875 
Q 11.71875 9.328125 16.59375 8.109375 
Q 21.484375 6.890625 26.8125 6.890625 
Q 36.078125 6.890625 40.9375 10.546875 
Q 45.796875 14.203125 45.796875 21.1875 
Q 45.796875 27.640625 41.28125 31.265625 
Q 36.765625 34.90625 28.71875 34.90625 
L 20.21875 34.90625 
L 20.21875 43.015625 
L 29.109375 43.015625 
Q 36.375 43.015625 40.234375 45.921875 
Q 44.09375 48.828125 44.09375 54.296875 
Q 44.09375 59.90625 40.109375 62.90625 
Q 36.140625 65.921875 28.71875 65.921875 
Q 24.65625 65.921875 20.015625 65.03125 
Q 15.375 64.15625 9.8125 62.3125 
L 9.8125 71.09375 
Q 15.4375 72.65625 20.34375 73.4375 
Q 25.25 74.21875 29.59375 74.21875 
Q 40.828125 74.21875 47.359375 69.109375 
Q 53.90625 64.015625 53.90625 55.328125 
Q 53.90625 49.265625 50.4375 45.09375 
Q 46.96875 40.921875 40.578125 39.3125 
z
" id="DejaVuSans-51"/>
      </defs>
      <g transform="translate(39.1475 173.465907)scale(0.18 -0.18)">
       <use xlink:href="#DejaVuSans-51"/>
      </g>
     </g>
    </g>
    <g id="ytick_5">
     <g id="line2d_11">
      <g>
       <use style="stroke:#000000;stroke-width:0.8;" x="57.6" xlink:href="#m6475672d97" y="119.641751"/>
      </g>
     </g>
     <g id="text_11">
      <!-- 4 -->
      <defs>
       <path d="M 37.796875 64.3125 
L 12.890625 25.390625 
L 37.796875 25.390625 
z
M 35.203125 72.90625 
L 47.609375 72.90625 
L 47.609375 25.390625 
L 58.015625 25.390625 
L 58.015625 17.1875 
L 47.609375 17.1875 
L 47.609375 0 
L 37.796875 0 
L 37.796875 17.1875 
L 4.890625 17.1875 
L 4.890625 26.703125 
z
" id="DejaVuSans-52"/>
      </defs>
      <g transform="translate(39.1475 126.480344)scale(0.18 -0.18)">
       <use xlink:href="#DejaVuSans-52"/>
      </g>
     </g>
    </g>
    <g id="ytick_6">
     <g id="line2d_12">
      <g>
       <use style="stroke:#000000;stroke-width:0.8;" x="57.6" xlink:href="#m6475672d97" y="72.656188"/>
      </g>
     </g>
     <g id="text_12">
      <!-- 5 -->
      <g transform="translate(39.1475 79.494782)scale(0.18 -0.18)">
       <use xlink:href="#DejaVuSans-53"/>
      </g>
     </g>
    </g>
   </g>
   <g id="LineCollection_1">
    <path clip-path="url(#p649f6f5305)" d="M 114.277587 307.584 
L 115.218005 306.863054 
L 115.915134 306.142107 
L 116.241743 305.421161 
L 116.204474 304.700214 
L 115.959482 303.979268 
L 115.408326 303.258321 
L 114.615913 302.537375 
L 114.005057 302.089708 
L 113.563549 301.816428 
L 112.193239 301.095482 
L 111.441191 300.800563 
L 110.51383 300.374535 
L 108.877324 299.684082 
L 108.803838 299.653589 
L 107.036505 298.932642 
L 106.313458 298.669914 
L 104.958844 298.211696 
L 103.749592 297.858544 
L 102.438959 297.490749 
L 101.185726 297.114716 
L 100.016288 296.769803 
L 98.62186 296.309344 
L 97.771725 296.048856 
L 96.057993 295.565127 
L 94.919996 295.32791 
L 93.494127 295.034047 
L 91.711487 294.606964 
L 90.930261 294.399303 
L 88.366395 293.961236 
L 87.874591 293.886017 
L 85.802528 293.593623 
L 83.238662 293.295421 
L 81.479509 293.165071 
L 80.674796 293.108318 
L 78.11093 293.024158 
L 75.547064 293.030502 
L 72.983197 293.13003 
L 72.361286 293.165071 
L 70.419331 293.279683 
L 67.855465 293.537346 
L 67.530524 293.886017 
L 66.940359 294.606964 
L 66.322584 295.32791 
L 65.752552 296.048856 
L 65.291599 296.711275 
L 65.281482 296.769803 
L 65.142135 297.490749 
L 65.001287 298.211696 
L 64.885598 298.932642 
L 64.785943 299.653589 
L 64.692246 300.374535 
L 64.607878 301.095482 
L 64.546616 301.816428 
L 64.495454 302.537375 
L 64.45469 303.258321 
L 64.426337 303.979268 
L 64.413734 304.700214 
L 64.411817 305.421161 
L 64.428619 306.142107 
L 64.464481 306.863054 
L 64.512859 307.584 
" style="fill:none;stroke:#4d94ff;stroke-width:1.5;"/>
   </g>
   <g id="LineCollection_2">
    <path clip-path="url(#p649f6f5305)" d="M 137.006382 307.584 
L 138.21967 306.939839 
L 139.810662 306.123612 
L 140.662691 305.691317 
L 142.41918 304.663224 
L 143.105711 304.207052 
L 144.53047 303.202836 
L 145.548731 302.44353 
L 146.475646 301.742448 
L 147.991752 300.523141 
L 148.269639 300.28206 
L 149.428822 298.821672 
L 150.434772 297.859903 
L 150.865695 297.361284 
L 152.198699 295.900896 
L 152.877792 294.990825 
L 153.288611 294.440508 
L 154.227068 292.98012 
L 155.056665 291.519732 
L 155.320813 290.605381 
L 155.462081 290.059344 
L 155.703128 288.598956 
L 155.703128 287.138568 
L 155.320813 285.745711 
L 155.300101 285.67818 
L 154.861903 284.217792 
L 154.16896 282.757404 
L 153.442728 281.297016 
L 152.877792 280.195336 
L 152.695425 279.836628 
L 151.890064 278.37624 
L 150.807626 276.915852 
L 150.434772 276.485591 
L 149.35432 275.455464 
L 147.991752 274.396217 
L 147.433038 273.995076 
L 145.548731 272.731534 
L 145.249683 272.534688 
L 143.105711 271.087336 
L 143.085195 271.0743 
L 140.662691 270.057827 
L 139.422429 269.613912 
L 138.21967 269.127663 
L 135.865853 268.153524 
L 135.77665 268.128003 
L 133.33363 267.540044 
L 130.890609 267.00449 
L 129.432702 266.693136 
L 128.447589 266.488783 
L 126.004569 265.991423 
L 123.561548 265.57089 
L 121.683155 265.232748 
L 121.118528 265.141983 
L 118.675508 264.800258 
L 116.232488 264.487152 
L 113.789467 264.164504 
L 111.346447 263.790439 
L 111.177161 263.77236 
L 108.903427 263.517957 
L 106.460406 263.118411 
L 104.017386 262.86593 
L 101.574366 262.716132 
L 99.131345 262.616432 
L 96.688325 262.616432 
L 94.245305 262.780181 
L 91.802284 262.970602 
L 89.359264 263.231501 
L 86.916244 263.573925 
L 85.748062 263.77236 
L 84.473223 263.981006 
L 82.030203 264.549539 
L 79.587183 265.058521 
L 78.896074 265.232748 
L 77.144163 265.734563 
L 74.701142 266.574246 
L 74.35829 266.693136 
L 72.258122 267.457117 
L 70.313947 268.153524 
L 69.815102 268.41435 
L 67.936338 269.613912 
L 67.372081 269.939334 
L 66.993402 271.0743 
L 66.684491 272.534688 
L 66.377893 273.995076 
L 66.100185 275.455464 
L 65.877866 276.915852 
L 65.691606 278.37624 
L 65.553024 279.836628 
L 65.426957 281.297016 
L 65.305238 282.757404 
L 65.189099 284.217792 
L 65.115655 285.67818 
L 65.041376 287.138568 
L 65.041376 288.598956 
L 65.08602 290.059344 
L 65.156456 291.519732 
L 65.295499 292.98012 
L 65.452788 294.440508 
L 65.638498 295.900896 
L 65.867874 297.361284 
L 66.089279 298.821672 
L 66.258964 300.28206 
L 66.511982 301.742448 
L 66.787158 303.202836 
L 67.086217 304.663224 
L 67.372081 305.858387 
L 67.696499 306.123612 
L 69.486209 307.584 
" style="fill:none;stroke:#ff8533;stroke-width:1.5;"/>
   </g>
   <g id="LineCollection_3">
    <path clip-path="url(#p649f6f5305)" d="M 144.192507 307.584 
L 144.87966 306.778295 
L 144.999753 305.972591 
L 144.603003 305.166886 
L 143.942079 304.361182 
L 143.411492 303.999524 
L 142.656014 303.555477 
L 141.153295 303.028674 
L 140.394595 302.749772 
L 138.895098 302.193148 
L 138.225633 301.944068 
L 136.6369 301.465218 
L 135.391627 301.138363 
L 134.378703 300.905795 
L 132.120506 300.475643 
L 131.084345 300.332659 
L 129.862309 300.176737 
L 127.604112 299.806402 
L 125.500749 299.526954 
L 125.345915 299.505348 
L 123.087718 299.256553 
L 120.82952 298.999841 
L 118.571323 298.783731 
L 117.881369 298.72125 
L 116.313126 298.566289 
L 114.054929 298.350353 
L 111.796732 298.125002 
L 109.890051 297.915545 
L 109.538535 297.88458 
L 107.280337 297.707169 
L 105.02214 297.545155 
L 102.763943 297.372994 
L 100.505746 297.210642 
L 99.119133 297.10984 
L 98.247549 297.037103 
L 95.989352 296.86399 
L 93.731155 296.742684 
L 91.472957 296.57551 
L 89.21476 296.446078 
L 86.956563 296.339982 
L 86.172301 296.304136 
L 84.698366 296.222718 
L 82.440169 296.088668 
L 80.181972 296.016385 
L 77.923774 295.976653 
L 75.665577 295.934728 
L 73.40738 295.934728 
L 71.149183 295.982927 
L 68.890986 296.073689 
L 66.632789 296.209318 
L 65.344669 296.304136 
L 64.374591 296.363451 
L 63.795507 297.10984 
L 63.179859 297.915545 
L 62.75103 298.72125 
L 62.337613 299.526954 
L 62.116394 299.974281 
L 62.045759 300.332659 
L 61.908976 301.138363 
L 61.798405 301.944068 
L 61.713503 302.749772 
L 61.63141 303.555477 
L 61.5838 304.361182 
L 61.557579 305.166886 
L 61.541838 305.972591 
L 61.546603 306.778295 
L 61.573865 307.584 
" style="fill:none;stroke:#00b300;stroke-width:1.5;"/>
   </g>
   <g id="LineCollection_4">
    <path clip-path="url(#p649f6f5305)" d="M 357.041406 299.424924 
L 350.930357 299.424924 
L 344.819308 299.424924 
L 338.708259 299.424924 
L 332.59721 299.424924 
L 326.48616 299.424924 
L 320.375111 299.424924 
L 314.264062 299.424924 
L 308.153013 299.424924 
L 302.041964 299.424924 
L 295.930915 299.424924 
L 289.819866 299.424924 
L 283.708817 299.424924 
L 277.597768 299.424924 
L 271.486719 299.424924 
L 265.375669 299.424924 
L 259.26462 299.424924 
L 253.153571 299.424924 
L 247.042522 299.424924 
L 240.931473 299.424924 
L 234.820424 299.424924 
L 228.709375 299.424924 
L 222.598326 299.424924 
L 216.487277 299.424924 
L 210.376228 299.424924 
L 204.265178 299.424924 
L 198.154129 299.424924 
L 192.04308 299.424924 
L 185.932031 299.424924 
L 179.820982 299.424924 
L 173.709933 299.424924 
L 167.598884 299.424924 
L 166.203839 299.22788 
L 161.487835 298.602372 
L 159.535311 298.299423 
L 155.376786 297.775959 
L 151.5379 297.370965 
L 149.265737 297.107882 
L 143.154687 296.596192 
L 140.561625 296.442507 
L 137.043638 296.210151 
L 130.932589 295.987199 
L 124.82154 295.878336 
L 118.710491 295.855367 
L 112.599442 295.941033 
L 106.488393 296.146841 
L 100.377344 296.376735 
L 98.777169 296.442507 
L 94.266295 296.606508 
L 88.155246 296.903978 
L 82.044196 297.286362 
L 80.623493 297.370965 
L 75.933147 297.616715 
L 69.822098 297.885524 
L 69.480075 298.299423 
L 68.883135 299.22788 
L 68.36869 300.156338 
L 67.831669 301.084796 
L 67.488675 302.013254 
L 67.207933 302.941711 
L 66.95822 303.870169 
L 66.806784 304.798627 
L 66.740092 305.727085 
L 66.739139 306.655542 
L 66.797468 307.584 
" style="fill:none;stroke:#ffff33;stroke-width:1.5;"/>
   </g>
   <g id="patch_3">
    <path d="M 57.6 307.584 
L 57.6 41.472 
" style="fill:none;stroke:#000000;stroke-linecap:square;stroke-linejoin:miter;stroke-width:0.8;"/>
   </g>
   <g id="patch_4">
    <path d="M 343.296 307.584 
L 343.296 41.472 
" style="fill:none;stroke:#000000;stroke-linecap:square;stroke-linejoin:miter;stroke-width:0.8;"/>
   </g>
   <g id="patch_5">
    <path d="M 57.6 307.584 
L 343.296 307.584 
" style="fill:none;stroke:#000000;stroke-linecap:square;stroke-linejoin:miter;stroke-width:0.8;"/>
   </g>
   <g id="patch_6">
    <path d="M 57.6 41.472 
L 343.296 41.472 
" style="fill:none;stroke:#000000;stroke-linecap:square;stroke-linejoin:miter;stroke-width:0.8;"/>
   </g>
  </g>
  <g id="axes_2">
   <g id="patch_7">
    <path clip-path="url(#pa13a26e9de)" d="M 367.2 307.584 
L 361.152 295.488 
L 361.152 53.568 
L 367.2 41.472 
L 367.2 41.472 
L 373.248 53.568 
L 373.248 295.488 
L 367.2 307.584 
z
" style="fill:#ffffff;stroke:#ffffff;stroke-linejoin:miter;stroke-width:0.01;"/>
   </g>
   <g id="QuadMesh_1">
    <path clip-path="url(#pa13a26e9de)" d="M 367.2 307.584 
L 367.2 307.584 
L 373.248 295.488 
L 361.152 295.488 
L 367.2 307.584 
" style="fill:#ffffff;"/>
    <path clip-path="url(#pa13a26e9de)" d="M 361.152 295.488 
L 373.248 295.488 
L 373.248 235.008 
L 361.152 235.008 
L 361.152 295.488 
" style="fill:#ffffff;"/>
    <path clip-path="url(#pa13a26e9de)" d="M 361.152 235.008 
L 373.248 235.008 
L 373.248 174.528 
L 361.152 174.528 
L 361.152 235.008 
" style="fill:#f0f0f0;"/>
    <path clip-path="url(#pa13a26e9de)" d="M 361.152 174.528 
L 373.248 174.528 
L 373.248 114.048 
L 361.152 114.048 
L 361.152 174.528 
" style="fill:#d3d3d3;"/>
    <path clip-path="url(#pa13a26e9de)" d="M 361.152 114.048 
L 373.248 114.048 
L 373.248 53.568 
L 361.152 53.568 
L 361.152 114.048 
" style="fill:#b8b8b8;"/>
    <path clip-path="url(#pa13a26e9de)" d="M 361.152 53.568 
L 373.248 53.568 
L 367.2 41.472 
L 367.2 41.472 
L 361.152 53.568 
" style="fill:#a0a0a0;"/>
   </g>
   <g id="matplotlib.axis_3"/>
   <g id="matplotlib.axis_4">
    <g id="ytick_7">
     <g id="line2d_13">
      <defs>
       <path d="M 0 0 
L 3.5 0 
" id="m4c132b1bb0" style="stroke:#000000;stroke-width:0.8;"/>
      </defs>
      <g>
       <use style="stroke:#000000;stroke-width:0.8;" x="373.248" xlink:href="#m4c132b1bb0" y="295.488"/>
      </g>
     </g>
     <g id="text_13">
      <!-- 0.0000 -->
      <g transform="translate(380.248 302.326594)scale(0.18 -0.18)">
       <use xlink:href="#DejaVuSans-48"/>
       <use x="63.623047" xlink:href="#DejaVuSans-46"/>
       <use x="95.410156" xlink:href="#DejaVuSans-48"/>
       <use x="159.033203" xlink:href="#DejaVuSans-48"/>
       <use x="222.65625" xlink:href="#DejaVuSans-48"/>
       <use x="286.279297" xlink:href="#DejaVuSans-48"/>
      </g>
     </g>
    </g>
    <g id="ytick_8">
     <g id="line2d_14">
      <g>
       <use style="stroke:#000000;stroke-width:0.8;" x="373.248" xlink:href="#m4c132b1bb0" y="235.008"/>
      </g>
     </g>
     <g id="text_14">
      <!-- 0.0216 -->
      <defs>
       <path d="M 33.015625 40.375 
Q 26.375 40.375 22.484375 35.828125 
Q 18.609375 31.296875 18.609375 23.390625 
Q 18.609375 15.53125 22.484375 10.953125 
Q 26.375 6.390625 33.015625 6.390625 
Q 39.65625 6.390625 43.53125 10.953125 
Q 47.40625 15.53125 47.40625 23.390625 
Q 47.40625 31.296875 43.53125 35.828125 
Q 39.65625 40.375 33.015625 40.375 
z
M 52.59375 71.296875 
L 52.59375 62.3125 
Q 48.875 64.0625 45.09375 64.984375 
Q 41.3125 65.921875 37.59375 65.921875 
Q 27.828125 65.921875 22.671875 59.328125 
Q 17.53125 52.734375 16.796875 39.40625 
Q 19.671875 43.65625 24.015625 45.921875 
Q 28.375 48.1875 33.59375 48.1875 
Q 44.578125 48.1875 50.953125 41.515625 
Q 57.328125 34.859375 57.328125 23.390625 
Q 57.328125 12.15625 50.6875 5.359375 
Q 44.046875 -1.421875 33.015625 -1.421875 
Q 20.359375 -1.421875 13.671875 8.265625 
Q 6.984375 17.96875 6.984375 36.375 
Q 6.984375 53.65625 15.1875 63.9375 
Q 23.390625 74.21875 37.203125 74.21875 
Q 40.921875 74.21875 44.703125 73.484375 
Q 48.484375 72.75 52.59375 71.296875 
z
" id="DejaVuSans-54"/>
      </defs>
      <g transform="translate(380.248 241.846594)scale(0.18 -0.18)">
       <use xlink:href="#DejaVuSans-48"/>
       <use x="63.623047" xlink:href="#DejaVuSans-46"/>
       <use x="95.410156" xlink:href="#DejaVuSans-48"/>
       <use x="159.033203" xlink:href="#DejaVuSans-50"/>
       <use x="222.65625" xlink:href="#DejaVuSans-49"/>
       <use x="286.279297" xlink:href="#DejaVuSans-54"/>
      </g>
     </g>
    </g>
    <g id="ytick_9">
     <g id="line2d_15">
      <g>
       <use style="stroke:#000000;stroke-width:0.8;" x="373.248" xlink:href="#m4c132b1bb0" y="174.528"/>
      </g>
     </g>
     <g id="text_15">
      <!-- 0.0577 -->
      <defs>
       <path d="M 8.203125 72.90625 
L 55.078125 72.90625 
L 55.078125 68.703125 
L 28.609375 0 
L 18.3125 0 
L 43.21875 64.59375 
L 8.203125 64.59375 
z
" id="DejaVuSans-55"/>
      </defs>
      <g transform="translate(380.248 181.366594)scale(0.18 -0.18)">
       <use xlink:href="#DejaVuSans-48"/>
       <use x="63.623047" xlink:href="#DejaVuSans-46"/>
       <use x="95.410156" xlink:href="#DejaVuSans-48"/>
       <use x="159.033203" xlink:href="#DejaVuSans-53"/>
       <use x="222.65625" xlink:href="#DejaVuSans-55"/>
       <use x="286.279297" xlink:href="#DejaVuSans-55"/>
      </g>
     </g>
    </g>
    <g id="ytick_10">
     <g id="line2d_16">
      <g>
       <use style="stroke:#000000;stroke-width:0.8;" x="373.248" xlink:href="#m4c132b1bb0" y="114.048"/>
      </g>
     </g>
     <g id="text_16">
      <!-- 0.1371 -->
      <g transform="translate(380.248 120.886594)scale(0.18 -0.18)">
       <use xlink:href="#DejaVuSans-48"/>
       <use x="63.623047" xlink:href="#DejaVuSans-46"/>
       <use x="95.410156" xlink:href="#DejaVuSans-49"/>
       <use x="159.033203" xlink:href="#DejaVuSans-51"/>
       <use x="222.65625" xlink:href="#DejaVuSans-55"/>
       <use x="286.279297" xlink:href="#DejaVuSans-49"/>
      </g>
     </g>
    </g>
    <g id="ytick_11">
     <g id="line2d_17">
      <g>
       <use style="stroke:#000000;stroke-width:0.8;" x="373.248" xlink:href="#m4c132b1bb0" y="53.568"/>
      </g>
     </g>
     <g id="text_17">
      <!-- 0.2093 -->
      <defs>
       <path d="M 10.984375 1.515625 
L 10.984375 10.5 
Q 14.703125 8.734375 18.5 7.8125 
Q 22.3125 6.890625 25.984375 6.890625 
Q 35.75 6.890625 40.890625 13.453125 
Q 46.046875 20.015625 46.78125 33.40625 
Q 43.953125 29.203125 39.59375 26.953125 
Q 35.25 24.703125 29.984375 24.703125 
Q 19.046875 24.703125 12.671875 31.3125 
Q 6.296875 37.9375 6.296875 49.421875 
Q 6.296875 60.640625 12.9375 67.421875 
Q 19.578125 74.21875 30.609375 74.21875 
Q 43.265625 74.21875 49.921875 64.515625 
Q 56.59375 54.828125 56.59375 36.375 
Q 56.59375 19.140625 48.40625 8.859375 
Q 40.234375 -1.421875 26.421875 -1.421875 
Q 22.703125 -1.421875 18.890625 -0.6875 
Q 15.09375 0.046875 10.984375 1.515625 
z
M 30.609375 32.421875 
Q 37.25 32.421875 41.125 36.953125 
Q 45.015625 41.5 45.015625 49.421875 
Q 45.015625 57.28125 41.125 61.84375 
Q 37.25 66.40625 30.609375 66.40625 
Q 23.96875 66.40625 20.09375 61.84375 
Q 16.21875 57.28125 16.21875 49.421875 
Q 16.21875 41.5 20.09375 36.953125 
Q 23.96875 32.421875 30.609375 32.421875 
z
" id="DejaVuSans-57"/>
      </defs>
      <g transform="translate(380.248 60.406594)scale(0.18 -0.18)">
       <use xlink:href="#DejaVuSans-48"/>
       <use x="63.623047" xlink:href="#DejaVuSans-46"/>
       <use x="95.410156" xlink:href="#DejaVuSans-50"/>
       <use x="159.033203" xlink:href="#DejaVuSans-48"/>
       <use x="222.65625" xlink:href="#DejaVuSans-57"/>
       <use x="286.279297" xlink:href="#DejaVuSans-51"/>
      </g>
     </g>
    </g>
   </g>
   <g id="patch_8">
    <path d="M 367.2 307.584 
L 361.152 295.488 
L 361.152 53.568 
L 367.2 41.472 
L 367.2 41.472 
L 373.248 53.568 
L 373.248 295.488 
L 367.2 307.584 
z
" style="fill:none;stroke:#000000;stroke-linejoin:miter;stroke-width:0.8;"/>
   </g>
  </g>
 </g>
 <defs>
  <clipPath id="p649f6f5305">
   <rect height="266.112" width="285.696" x="57.6" y="41.472"/>
  </clipPath>
  <clipPath id="pa13a26e9de">
   <rect height="266.112" width="12.096" x="361.152" y="41.472"/>
  </clipPath>
 </defs>
</svg>
