<?xml version="1.0" encoding="utf-8" standalone="no"?>
<!DOCTYPE svg PUBLIC "-//W3C//DTD SVG 1.1//EN"
  "http://www.w3.org/Graphics/SVG/1.1/DTD/svg11.dtd">
<!-- Created with matplotlib (https://matplotlib.org/) -->
<svg height="345.6pt" version="1.1" viewBox="0 0 460.8 345.6" width="460.8pt" xmlns="http://www.w3.org/2000/svg" xmlns:xlink="http://www.w3.org/1999/xlink">
 <defs>
  <style type="text/css">
*{stroke-linecap:butt;stroke-linejoin:round;}
  </style>
 </defs>
 <g id="figure_1">
  <g id="patch_1">
   <path d="M 0 345.6 
L 460.8 345.6 
L 460.8 0 
L 0 0 
z
" style="fill:#ffffff;"/>
  </g>
  <g id="axes_1">
   <g id="patch_2">
    <path d="M 57.6 307.584 
L 414.72 307.584 
L 414.72 41.472 
L 57.6 41.472 
z
" style="fill:#ffffff;"/>
   </g>
   <g id="matplotlib.axis_1">
    <g id="xtick_1">
     <g id="line2d_1">
      <defs>
       <path d="M 0 0 
L 0 3.5 
" id="m54c169cf4e" style="stroke:#000000;stroke-width:0.8;"/>
      </defs>
      <g>
       <use style="stroke:#000000;stroke-width:0.8;" x="77.44" xlink:href="#m54c169cf4e" y="307.584"/>
      </g>
     </g>
     <g id="text_1">
      <!-- 0 -->
      <defs>
       <path d="M 31.78125 66.40625 
Q 24.171875 66.40625 20.328125 58.90625 
Q 16.5 51.421875 16.5 36.375 
Q 16.5 21.390625 20.328125 13.890625 
Q 24.171875 6.390625 31.78125 6.390625 
Q 39.453125 6.390625 43.28125 13.890625 
Q 47.125 21.390625 47.125 36.375 
Q 47.125 51.421875 43.28125 58.90625 
Q 39.453125 66.40625 31.78125 66.40625 
z
M 31.78125 74.21875 
Q 44.046875 74.21875 50.515625 64.515625 
Q 56.984375 54.828125 56.984375 36.375 
Q 56.984375 17.96875 50.515625 8.265625 
Q 44.046875 -1.421875 31.78125 -1.421875 
Q 19.53125 -1.421875 13.0625 8.265625 
Q 6.59375 17.96875 6.59375 36.375 
Q 6.59375 54.828125 13.0625 64.515625 
Q 19.53125 74.21875 31.78125 74.21875 
z
" id="DejaVuSans-48"/>
      </defs>
      <g transform="translate(71.71375 328.261187)scale(0.18 -0.18)">
       <use xlink:href="#DejaVuSans-48"/>
      </g>
     </g>
    </g>
    <g id="xtick_2">
     <g id="line2d_2">
      <g>
       <use style="stroke:#000000;stroke-width:0.8;" x="156.8" xlink:href="#m54c169cf4e" y="307.584"/>
      </g>
     </g>
     <g id="text_2">
      <!-- 20 -->
      <defs>
       <path d="M 19.1875 8.296875 
L 53.609375 8.296875 
L 53.609375 0 
L 7.328125 0 
L 7.328125 8.296875 
Q 12.9375 14.109375 22.625 23.890625 
Q 32.328125 33.6875 34.8125 36.53125 
Q 39.546875 41.84375 41.421875 45.53125 
Q 43.3125 49.21875 43.3125 52.78125 
Q 43.3125 58.59375 39.234375 62.25 
Q 35.15625 65.921875 28.609375 65.921875 
Q 23.96875 65.921875 18.8125 64.3125 
Q 13.671875 62.703125 7.8125 59.421875 
L 7.8125 69.390625 
Q 13.765625 71.78125 18.9375 73 
Q 24.125 74.21875 28.421875 74.21875 
Q 39.75 74.21875 46.484375 68.546875 
Q 53.21875 62.890625 53.21875 53.421875 
Q 53.21875 48.921875 51.53125 44.890625 
Q 49.859375 40.875 45.40625 35.40625 
Q 44.1875 33.984375 37.640625 27.21875 
Q 31.109375 20.453125 19.1875 8.296875 
z
" id="DejaVuSans-50"/>
      </defs>
      <g transform="translate(145.3475 328.261187)scale(0.18 -0.18)">
       <use xlink:href="#DejaVuSans-50"/>
       <use x="63.623047" xlink:href="#DejaVuSans-48"/>
      </g>
     </g>
    </g>
    <g id="xtick_3">
     <g id="line2d_3">
      <g>
       <use style="stroke:#000000;stroke-width:0.8;" x="236.16" xlink:href="#m54c169cf4e" y="307.584"/>
      </g>
     </g>
     <g id="text_3">
      <!-- 40 -->
      <defs>
       <path d="M 37.796875 64.3125 
L 12.890625 25.390625 
L 37.796875 25.390625 
z
M 35.203125 72.90625 
L 47.609375 72.90625 
L 47.609375 25.390625 
L 58.015625 25.390625 
L 58.015625 17.1875 
L 47.609375 17.1875 
L 47.609375 0 
L 37.796875 0 
L 37.796875 17.1875 
L 4.890625 17.1875 
L 4.890625 26.703125 
z
" id="DejaVuSans-52"/>
      </defs>
      <g transform="translate(224.7075 328.261187)scale(0.18 -0.18)">
       <use xlink:href="#DejaVuSans-52"/>
       <use x="63.623047" xlink:href="#DejaVuSans-48"/>
      </g>
     </g>
    </g>
    <g id="xtick_4">
     <g id="line2d_4">
      <g>
       <use style="stroke:#000000;stroke-width:0.8;" x="315.52" xlink:href="#m54c169cf4e" y="307.584"/>
      </g>
     </g>
     <g id="text_4">
      <!-- 60 -->
      <defs>
       <path d="M 33.015625 40.375 
Q 26.375 40.375 22.484375 35.828125 
Q 18.609375 31.296875 18.609375 23.390625 
Q 18.609375 15.53125 22.484375 10.953125 
Q 26.375 6.390625 33.015625 6.390625 
Q 39.65625 6.390625 43.53125 10.953125 
Q 47.40625 15.53125 47.40625 23.390625 
Q 47.40625 31.296875 43.53125 35.828125 
Q 39.65625 40.375 33.015625 40.375 
z
M 52.59375 71.296875 
L 52.59375 62.3125 
Q 48.875 64.0625 45.09375 64.984375 
Q 41.3125 65.921875 37.59375 65.921875 
Q 27.828125 65.921875 22.671875 59.328125 
Q 17.53125 52.734375 16.796875 39.40625 
Q 19.671875 43.65625 24.015625 45.921875 
Q 28.375 48.1875 33.59375 48.1875 
Q 44.578125 48.1875 50.953125 41.515625 
Q 57.328125 34.859375 57.328125 23.390625 
Q 57.328125 12.15625 50.6875 5.359375 
Q 44.046875 -1.421875 33.015625 -1.421875 
Q 20.359375 -1.421875 13.671875 8.265625 
Q 6.984375 17.96875 6.984375 36.375 
Q 6.984375 53.65625 15.1875 63.9375 
Q 23.390625 74.21875 37.203125 74.21875 
Q 40.921875 74.21875 44.703125 73.484375 
Q 48.484375 72.75 52.59375 71.296875 
z
" id="DejaVuSans-54"/>
      </defs>
      <g transform="translate(304.0675 328.261187)scale(0.18 -0.18)">
       <use xlink:href="#DejaVuSans-54"/>
       <use x="63.623047" xlink:href="#DejaVuSans-48"/>
      </g>
     </g>
    </g>
    <g id="xtick_5">
     <g id="line2d_5">
      <g>
       <use style="stroke:#000000;stroke-width:0.8;" x="394.88" xlink:href="#m54c169cf4e" y="307.584"/>
      </g>
     </g>
     <g id="text_5">
      <!-- 80 -->
      <defs>
       <path d="M 31.78125 34.625 
Q 24.75 34.625 20.71875 30.859375 
Q 16.703125 27.09375 16.703125 20.515625 
Q 16.703125 13.921875 20.71875 10.15625 
Q 24.75 6.390625 31.78125 6.390625 
Q 38.8125 6.390625 42.859375 10.171875 
Q 46.921875 13.96875 46.921875 20.515625 
Q 46.921875 27.09375 42.890625 30.859375 
Q 38.875 34.625 31.78125 34.625 
z
M 21.921875 38.8125 
Q 15.578125 40.375 12.03125 44.71875 
Q 8.5 49.078125 8.5 55.328125 
Q 8.5 64.0625 14.71875 69.140625 
Q 20.953125 74.21875 31.78125 74.21875 
Q 42.671875 74.21875 48.875 69.140625 
Q 55.078125 64.0625 55.078125 55.328125 
Q 55.078125 49.078125 51.53125 44.71875 
Q 48 40.375 41.703125 38.8125 
Q 48.828125 37.15625 52.796875 32.3125 
Q 56.78125 27.484375 56.78125 20.515625 
Q 56.78125 9.90625 50.3125 4.234375 
Q 43.84375 -1.421875 31.78125 -1.421875 
Q 19.734375 -1.421875 13.25 4.234375 
Q 6.78125 9.90625 6.78125 20.515625 
Q 6.78125 27.484375 10.78125 32.3125 
Q 14.796875 37.15625 21.921875 38.8125 
z
M 18.3125 54.390625 
Q 18.3125 48.734375 21.84375 45.5625 
Q 25.390625 42.390625 31.78125 42.390625 
Q 38.140625 42.390625 41.71875 45.5625 
Q 45.3125 48.734375 45.3125 54.390625 
Q 45.3125 60.0625 41.71875 63.234375 
Q 38.140625 66.40625 31.78125 66.40625 
Q 25.390625 66.40625 21.84375 63.234375 
Q 18.3125 60.0625 18.3125 54.390625 
z
" id="DejaVuSans-56"/>
      </defs>
      <g transform="translate(383.4275 328.261187)scale(0.18 -0.18)">
       <use xlink:href="#DejaVuSans-56"/>
       <use x="63.623047" xlink:href="#DejaVuSans-48"/>
      </g>
     </g>
    </g>
    <g id="text_6">
     <!-- FIRST_DIST -->
     <defs>
      <path d="M 9.8125 72.90625 
L 51.703125 72.90625 
L 51.703125 64.59375 
L 19.671875 64.59375 
L 19.671875 43.109375 
L 48.578125 43.109375 
L 48.578125 34.8125 
L 19.671875 34.8125 
L 19.671875 0 
L 9.8125 0 
z
" id="DejaVuSans-70"/>
      <path d="M 9.8125 72.90625 
L 19.671875 72.90625 
L 19.671875 0 
L 9.8125 0 
z
" id="DejaVuSans-73"/>
      <path d="M 44.390625 34.1875 
Q 47.5625 33.109375 50.5625 29.59375 
Q 53.5625 26.078125 56.59375 19.921875 
L 66.609375 0 
L 56 0 
L 46.6875 18.703125 
Q 43.0625 26.03125 39.671875 28.421875 
Q 36.28125 30.8125 30.421875 30.8125 
L 19.671875 30.8125 
L 19.671875 0 
L 9.8125 0 
L 9.8125 72.90625 
L 32.078125 72.90625 
Q 44.578125 72.90625 50.734375 67.671875 
Q 56.890625 62.453125 56.890625 51.90625 
Q 56.890625 45.015625 53.6875 40.46875 
Q 50.484375 35.9375 44.390625 34.1875 
z
M 19.671875 64.796875 
L 19.671875 38.921875 
L 32.078125 38.921875 
Q 39.203125 38.921875 42.84375 42.21875 
Q 46.484375 45.515625 46.484375 51.90625 
Q 46.484375 58.296875 42.84375 61.546875 
Q 39.203125 64.796875 32.078125 64.796875 
z
" id="DejaVuSans-82"/>
      <path d="M 53.515625 70.515625 
L 53.515625 60.890625 
Q 47.90625 63.578125 42.921875 64.890625 
Q 37.9375 66.21875 33.296875 66.21875 
Q 25.25 66.21875 20.875 63.09375 
Q 16.5 59.96875 16.5 54.203125 
Q 16.5 49.359375 19.40625 46.890625 
Q 22.3125 44.4375 30.421875 42.921875 
L 36.375 41.703125 
Q 47.40625 39.59375 52.65625 34.296875 
Q 57.90625 29 57.90625 20.125 
Q 57.90625 9.515625 50.796875 4.046875 
Q 43.703125 -1.421875 29.984375 -1.421875 
Q 24.8125 -1.421875 18.96875 -0.25 
Q 13.140625 0.921875 6.890625 3.21875 
L 6.890625 13.375 
Q 12.890625 10.015625 18.65625 8.296875 
Q 24.421875 6.59375 29.984375 6.59375 
Q 38.421875 6.59375 43.015625 9.90625 
Q 47.609375 13.234375 47.609375 19.390625 
Q 47.609375 24.75 44.3125 27.78125 
Q 41.015625 30.8125 33.5 32.328125 
L 27.484375 33.5 
Q 16.453125 35.6875 11.515625 40.375 
Q 6.59375 45.0625 6.59375 53.421875 
Q 6.59375 63.09375 13.40625 68.65625 
Q 20.21875 74.21875 32.171875 74.21875 
Q 37.3125 74.21875 42.625 73.28125 
Q 47.953125 72.359375 53.515625 70.515625 
z
" id="DejaVuSans-83"/>
      <path d="M -0.296875 72.90625 
L 61.375 72.90625 
L 61.375 64.59375 
L 35.5 64.59375 
L 35.5 0 
L 25.59375 0 
L 25.59375 64.59375 
L -0.296875 64.59375 
z
" id="DejaVuSans-84"/>
      <path d="M 50.984375 -16.609375 
L 50.984375 -23.578125 
L -0.984375 -23.578125 
L -0.984375 -16.609375 
z
" id="DejaVuSans-95"/>
      <path d="M 19.671875 64.796875 
L 19.671875 8.109375 
L 31.59375 8.109375 
Q 46.6875 8.109375 53.6875 14.9375 
Q 60.6875 21.78125 60.6875 36.53125 
Q 60.6875 51.171875 53.6875 57.984375 
Q 46.6875 64.796875 31.59375 64.796875 
z
M 9.8125 72.90625 
L 30.078125 72.90625 
Q 51.265625 72.90625 61.171875 64.09375 
Q 71.09375 55.28125 71.09375 36.53125 
Q 71.09375 17.671875 61.125 8.828125 
Q 51.171875 0 30.078125 0 
L 9.8125 0 
z
" id="DejaVuSans-68"/>
     </defs>
     <g transform="translate(208.05375 343.4265)scale(0.1 -0.1)">
      <use xlink:href="#DejaVuSans-70"/>
      <use x="57.519531" xlink:href="#DejaVuSans-73"/>
      <use x="87.011719" xlink:href="#DejaVuSans-82"/>
      <use x="156.494141" xlink:href="#DejaVuSans-83"/>
      <use x="219.970703" xlink:href="#DejaVuSans-84"/>
      <use x="281.054688" xlink:href="#DejaVuSans-95"/>
      <use x="331.054688" xlink:href="#DejaVuSans-68"/>
      <use x="408.056641" xlink:href="#DejaVuSans-73"/>
      <use x="437.548828" xlink:href="#DejaVuSans-83"/>
      <use x="501.025391" xlink:href="#DejaVuSans-84"/>
     </g>
    </g>
   </g>
   <g id="matplotlib.axis_2">
    <g id="ytick_1">
     <g id="line2d_6">
      <defs>
       <path d="M 0 0 
L -3.5 0 
" id="m936d195708" style="stroke:#000000;stroke-width:0.8;"/>
      </defs>
      <g>
       <use style="stroke:#000000;stroke-width:0.8;" x="57.6" xlink:href="#m936d195708" y="278.016"/>
      </g>
     </g>
     <g id="text_7">
      <!-- 998 -->
      <defs>
       <path d="M 10.984375 1.515625 
L 10.984375 10.5 
Q 14.703125 8.734375 18.5 7.8125 
Q 22.3125 6.890625 25.984375 6.890625 
Q 35.75 6.890625 40.890625 13.453125 
Q 46.046875 20.015625 46.78125 33.40625 
Q 43.953125 29.203125 39.59375 26.953125 
Q 35.25 24.703125 29.984375 24.703125 
Q 19.046875 24.703125 12.671875 31.3125 
Q 6.296875 37.9375 6.296875 49.421875 
Q 6.296875 60.640625 12.9375 67.421875 
Q 19.578125 74.21875 30.609375 74.21875 
Q 43.265625 74.21875 49.921875 64.515625 
Q 56.59375 54.828125 56.59375 36.375 
Q 56.59375 19.140625 48.40625 8.859375 
Q 40.234375 -1.421875 26.421875 -1.421875 
Q 22.703125 -1.421875 18.890625 -0.6875 
Q 15.09375 0.046875 10.984375 1.515625 
z
M 30.609375 32.421875 
Q 37.25 32.421875 41.125 36.953125 
Q 45.015625 41.5 45.015625 49.421875 
Q 45.015625 57.28125 41.125 61.84375 
Q 37.25 66.40625 30.609375 66.40625 
Q 23.96875 66.40625 20.09375 61.84375 
Q 16.21875 57.28125 16.21875 49.421875 
Q 16.21875 41.5 20.09375 36.953125 
Q 23.96875 32.421875 30.609375 32.421875 
z
" id="DejaVuSans-57"/>
      </defs>
      <g transform="translate(16.2425 284.854594)scale(0.18 -0.18)">
       <use xlink:href="#DejaVuSans-57"/>
       <use x="63.623047" xlink:href="#DejaVuSans-57"/>
       <use x="127.246094" xlink:href="#DejaVuSans-56"/>
      </g>
     </g>
    </g>
    <g id="ytick_2">
     <g id="line2d_7">
      <g>
       <use style="stroke:#000000;stroke-width:0.8;" x="57.6" xlink:href="#m936d195708" y="159.744"/>
      </g>
     </g>
     <g id="text_8">
      <!-- 1000 -->
      <defs>
       <path d="M 12.40625 8.296875 
L 28.515625 8.296875 
L 28.515625 63.921875 
L 10.984375 60.40625 
L 10.984375 69.390625 
L 28.421875 72.90625 
L 38.28125 72.90625 
L 38.28125 8.296875 
L 54.390625 8.296875 
L 54.390625 0 
L 12.40625 0 
z
" id="DejaVuSans-49"/>
      </defs>
      <g transform="translate(4.79 166.582594)scale(0.18 -0.18)">
       <use xlink:href="#DejaVuSans-49"/>
       <use x="63.623047" xlink:href="#DejaVuSans-48"/>
       <use x="127.246094" xlink:href="#DejaVuSans-48"/>
       <use x="190.869141" xlink:href="#DejaVuSans-48"/>
      </g>
     </g>
    </g>
    <g id="ytick_3">
     <g id="line2d_8">
      <g>
       <use style="stroke:#000000;stroke-width:0.8;" x="57.6" xlink:href="#m936d195708" y="41.472"/>
      </g>
     </g>
     <g id="text_9">
      <!-- 1002 -->
      <g transform="translate(4.79 48.310594)scale(0.18 -0.18)">
       <use xlink:href="#DejaVuSans-49"/>
       <use x="63.623047" xlink:href="#DejaVuSans-48"/>
       <use x="127.246094" xlink:href="#DejaVuSans-48"/>
       <use x="190.869141" xlink:href="#DejaVuSans-50"/>
      </g>
     </g>
    </g>
    <g id="text_10">
     <!-- FIRST_Z -->
     <defs>
      <path d="M 5.609375 72.90625 
L 62.890625 72.90625 
L 62.890625 65.375 
L 16.796875 8.296875 
L 64.015625 8.296875 
L 64.015625 0 
L 4.5 0 
L 4.5 7.515625 
L 50.59375 64.59375 
L 5.609375 64.59375 
z
" id="DejaVuSans-90"/>
     </defs>
     <g transform="translate(-1.567812 194.506125)rotate(-90)scale(0.1 -0.1)">
      <use xlink:href="#DejaVuSans-70"/>
      <use x="57.519531" xlink:href="#DejaVuSans-73"/>
      <use x="87.011719" xlink:href="#DejaVuSans-82"/>
      <use x="156.494141" xlink:href="#DejaVuSans-83"/>
      <use x="219.970703" xlink:href="#DejaVuSans-84"/>
      <use x="281.054688" xlink:href="#DejaVuSans-95"/>
      <use x="331.054688" xlink:href="#DejaVuSans-90"/>
     </g>
    </g>
   </g>
   <g id="line2d_9">
    <path clip-path="url(#p96cb0b115b)" d="M 89.344 124.209178 
L 93.23514 128.437402 
L 97.126279 132.32855 
L 101.017419 135.799834 
L 104.908558 139.211981 
L 108.799698 142.588646 
L 112.690837 145.983053 
L 116.581977 148.993075 
L 120.473117 151.967616 
L 124.364256 155.024947 
L 128.255396 157.709722 
L 132.146535 160.288051 
L 136.037675 162.819072 
L 139.928814 165.332352 
L 143.819954 167.721446 
L 147.711094 169.873997 
L 151.602233 171.967411 
L 155.493373 173.800627 
L 159.384512 175.64567 
L 163.275652 177.467059 
L 167.166792 179.116954 
L 171.057931 180.50665 
L 174.949071 181.896346 
L 178.84021 183.173683 
L 182.73135 184.267699 
L 186.622489 185.278925 
L 190.513629 186.296064 
L 194.404769 187.01161 
L 198.295908 187.614797 
L 202.187048 188.217984 
L 206.078187 188.649677 
L 209.969327 188.880307 
L 213.860466 189.093197 
L 217.751606 189.211469 
L 221.642746 189.116851 
L 225.533885 188.921702 
L 229.425025 188.708813 
L 233.316164 188.306688 
L 237.207304 187.709414 
L 241.098444 187.129882 
L 244.989583 186.408422 
L 248.880723 185.456333 
L 252.771862 184.474675 
L 256.663002 183.451622 
L 260.554141 182.227507 
L 264.445281 180.855552 
L 268.336421 179.495424 
L 272.22756 177.987456 
L 276.1187 176.130586 
L 280.009839 174.291456 
L 283.900979 172.422758 
L 287.792118 170.311603 
L 291.683258 168.111744 
L 295.574398 165.900058 
L 299.465537 163.534618 
L 303.356677 160.968115 
L 307.247816 158.419354 
L 311.138956 155.793715 
L 315.030096 152.825088 
L 318.921235 149.820979 
L 322.812375 146.876006 
L 326.703514 143.617613 
L 330.594654 140.187725 
L 334.485793 136.905677 
L 338.376933 133.304294 
L 342.268073 129.395405 
L 346.159212 125.551565 
" style="fill:none;stroke:#ff0000;stroke-dasharray:3,0;stroke-dashoffset:0;stroke-width:1.5;"/>
   </g>
   <g id="line2d_10">
    <path clip-path="url(#p96cb0b115b)" d="M 77.44 70.80937 
L 81.371881 75.824102 
L 85.303761 80.827008 
L 89.235642 85.871309 
L 93.167522 90.897869 
L 97.099403 95.900774 
L 101.031283 100.891853 
L 104.963164 105.86519 
L 108.895044 110.820787 
L 112.826925 115.764557 
L 116.758805 120.684672 
L 120.690686 125.581133 
L 124.622566 132.074266 
L 128.554447 142.026854 
L 132.486327 153.114854 
L 136.418208 161.689574 
L 140.350088 167.774669 
L 144.281969 173.321626 
L 148.213849 178.714829 
L 152.14573 183.788698 
L 156.07761 188.466355 
L 160.009491 192.972518 
L 163.941372 197.041075 
L 167.873252 200.92631 
L 171.805133 204.551347 
L 175.737013 207.898445 
L 179.668894 210.967603 
L 183.600774 213.800218 
L 187.532655 216.236621 
L 191.464535 218.324122 
L 195.396416 220.110029 
L 199.328296 221.570688 
L 203.260177 222.818458 
L 207.192057 223.735066 
L 211.123938 224.486093 
L 215.055818 224.840909 
L 218.987699 225.000576 
L 222.919579 224.752205 
L 226.85146 224.314598 
L 230.78334 223.534003 
L 234.715221 222.522778 
L 238.647101 221.263181 
L 242.578982 219.666509 
L 246.510862 217.904256 
L 250.442743 215.686656 
L 254.374624 213.356698 
L 258.306504 210.512256 
L 262.238385 207.537715 
L 266.170265 204.196531 
L 270.102146 200.666112 
L 274.034026 196.970112 
L 277.965907 192.801024 
L 281.897787 188.484096 
L 285.829668 183.753216 
L 289.761548 179.02825 
L 293.693429 173.759232 
L 297.625309 168.6144 
L 301.55719 162.718541 
L 305.48907 156.107136 
L 309.420951 146.367437 
L 313.352831 135.001498 
L 317.284712 127.059533 
L 321.216592 122.157158 
L 325.148473 117.160166 
L 329.080353 111.92663 
L 333.012234 106.746317 
L 336.944115 101.619226 
L 340.875995 96.527616 
L 344.807876 91.270426 
L 348.739756 85.97184 
L 352.671637 80.667341 
L 356.603517 75.345101 
L 360.535398 70.016947 
" style="fill:none;stroke:#000000;stroke-dasharray:3,0;stroke-dashoffset:0;stroke-width:1.5;"/>
   </g>
   <g id="line2d_11">
    <path clip-path="url(#p96cb0b115b)" d="M 86.1696 124.847846 
L 90.059523 127.881523 
L 93.949447 130.921114 
L 97.83937 133.942963 
L 101.729293 136.994381 
L 105.619216 140.01623 
L 109.50914 143.055821 
L 113.399063 146.083584 
L 117.288986 149.123174 
L 121.178909 152.145024 
L 125.068833 155.172787 
L 128.958756 158.206464 
L 132.848679 161.228314 
L 136.738603 164.26199 
L 140.628526 167.289754 
L 144.518449 170.311603 
L 148.408372 173.333453 
L 152.298296 176.361216 
L 156.188219 179.383066 
L 160.078142 182.404915 
L 163.968065 185.432678 
L 167.857989 190.754918 
L 171.747912 209.826278 
L 175.637835 230.092186 
L 179.527759 242.138189 
L 183.417682 253.019213 
L 187.307605 262.859443 
L 191.197528 271.156224 
L 195.087452 278.039654 
L 198.977375 283.752192 
L 202.867298 288.80832 
L 206.757221 292.155418 
L 210.647145 294.585907 
L 214.537068 295.632614 
L 218.426991 295.614874 
L 222.316915 294.384845 
L 226.206838 291.877478 
L 230.096761 288.500813 
L 233.986684 283.184486 
L 237.876608 277.708493 
L 241.766531 270.281011 
L 245.656454 261.641242 
L 249.546377 251.718221 
L 253.436301 241.044173 
L 257.326224 227.933722 
L 261.216147 206.751206 
L 265.106071 187.715328 
L 268.995994 184.723046 
L 272.885917 181.730765 
L 276.77584 178.73257 
L 280.665764 175.746202 
L 284.555687 172.742093 
L 288.44561 169.761638 
L 292.335533 166.75753 
L 296.225457 163.771162 
L 300.11538 160.767053 
L 304.005303 157.780685 
L 307.895227 154.78249 
L 311.78515 151.784294 
L 315.675073 148.797926 
L 319.564996 145.793818 
L 323.45492 142.819277 
L 327.344843 139.809254 
L 331.234766 136.8288 
L 335.124689 133.812864 
L 339.014613 130.83241 
L 342.904536 127.828301 
L 346.794459 124.836019 
L 350.684383 121.843738 
" style="fill:none;stroke:#ff0000;stroke-dasharray:3,3;stroke-dashoffset:0;stroke-width:1.5;"/>
   </g>
   <g id="line2d_12">
    <path clip-path="url(#p96cb0b115b)" d="M 91.328 102.429389 
L 95.232218 105.433498 
L 99.136436 108.484915 
L 103.040655 111.577728 
L 106.944873 114.552269 
L 110.849091 117.532723 
L 114.753309 120.554573 
L 118.657527 123.576422 
L 122.561746 126.574618 
L 126.465964 129.572813 
L 130.370182 132.571008 
L 134.2744 135.56329 
L 138.178618 138.561485 
L 142.082837 141.55968 
L 145.987055 144.563789 
L 149.891273 147.55607 
L 153.795491 150.548352 
L 157.699709 153.558374 
L 161.603928 156.544742 
L 165.508146 159.542938 
L 169.412364 166.03607 
L 173.316582 182.061926 
L 177.2208 200.873088 
L 181.125019 213.267994 
L 185.029237 223.900646 
L 188.933455 232.847923 
L 192.837673 241.316198 
L 196.741891 248.116838 
L 200.64611 253.793894 
L 204.550328 258.276403 
L 208.454546 261.452006 
L 212.358764 263.480371 
L 216.262982 264.225485 
L 220.167201 263.793792 
L 224.071419 262.043366 
L 227.975637 259.110221 
L 231.879855 255.006182 
L 235.784073 249.737165 
L 239.688292 243.297254 
L 243.59251 235.982131 
L 247.496728 227.318707 
L 251.400946 216.697882 
L 255.305164 205.621709 
L 259.209383 190.778573 
L 263.113601 168.502042 
L 267.017819 160.849843 
L 270.922037 157.727462 
L 274.826255 154.699699 
L 278.730474 151.742899 
L 282.634692 148.679654 
L 286.53891 145.669632 
L 290.443128 142.718746 
L 294.347346 139.679155 
L 298.251565 136.675046 
L 302.155783 133.682765 
L 306.060001 130.649088 
L 309.964219 127.656806 
L 313.868437 124.658611 
L 317.772656 121.624934 
L 321.676874 118.626739 
L 325.581092 115.593062 
L 329.48531 112.571213 
L 333.389528 109.555277 
L 337.293747 106.539341 
L 341.197965 103.511578 
" style="fill:none;stroke:#000000;stroke-dasharray:3,3;stroke-dashoffset:0;stroke-width:1.5;"/>
   </g>
   <g id="line2d_13"/>
   <g id="line2d_14"/>
   <g id="line2d_15"/>
   <g id="line2d_16"/>
   <g id="patch_3">
    <path d="M 57.6 307.584 
L 57.6 41.472 
" style="fill:none;stroke:#000000;stroke-linecap:square;stroke-linejoin:miter;stroke-width:0.8;"/>
   </g>
   <g id="patch_4">
    <path d="M 414.72 307.584 
L 414.72 41.472 
" style="fill:none;stroke:#000000;stroke-linecap:square;stroke-linejoin:miter;stroke-width:0.8;"/>
   </g>
   <g id="patch_5">
    <path d="M 57.6 307.584 
L 414.72 307.584 
" style="fill:none;stroke:#000000;stroke-linecap:square;stroke-linejoin:miter;stroke-width:0.8;"/>
   </g>
   <g id="patch_6">
    <path d="M 57.6 41.472 
L 414.72 41.472 
" style="fill:none;stroke:#000000;stroke-linecap:square;stroke-linejoin:miter;stroke-width:0.8;"/>
   </g>
   <g id="legend_1">
    <g id="patch_7">
     <path d="M 365.748125 123.14075 
L 407.72 123.14075 
Q 409.72 123.14075 409.72 121.14075 
L 409.72 48.472 
Q 409.72 46.472 407.72 46.472 
L 365.748125 46.472 
Q 363.748125 46.472 363.748125 48.472 
L 363.748125 121.14075 
Q 363.748125 123.14075 365.748125 123.14075 
z
" style="fill:#ffffff;opacity:0.8;stroke:#cccccc;stroke-linejoin:miter;"/>
    </g>
    <g id="text_11">
     <!-- LINE_ID -->
     <defs>
      <path d="M 9.8125 72.90625 
L 19.671875 72.90625 
L 19.671875 8.296875 
L 55.171875 8.296875 
L 55.171875 0 
L 9.8125 0 
z
" id="DejaVuSans-76"/>
      <path d="M 9.8125 72.90625 
L 23.09375 72.90625 
L 55.421875 11.921875 
L 55.421875 72.90625 
L 64.984375 72.90625 
L 64.984375 0 
L 51.703125 0 
L 19.390625 60.984375 
L 19.390625 0 
L 9.8125 0 
z
" id="DejaVuSans-78"/>
      <path d="M 9.8125 72.90625 
L 55.90625 72.90625 
L 55.90625 64.59375 
L 19.671875 64.59375 
L 19.671875 43.015625 
L 54.390625 43.015625 
L 54.390625 34.71875 
L 19.671875 34.71875 
L 19.671875 8.296875 
L 56.78125 8.296875 
L 56.78125 0 
L 9.8125 0 
z
" id="DejaVuSans-69"/>
     </defs>
     <g transform="translate(367.748125 58.070437)scale(0.1 -0.1)">
      <use xlink:href="#DejaVuSans-76"/>
      <use x="55.712891" xlink:href="#DejaVuSans-73"/>
      <use x="85.205078" xlink:href="#DejaVuSans-78"/>
      <use x="160.009766" xlink:href="#DejaVuSans-69"/>
      <use x="223.193359" xlink:href="#DejaVuSans-95"/>
      <use x="273.193359" xlink:href="#DejaVuSans-73"/>
      <use x="302.685547" xlink:href="#DejaVuSans-68"/>
     </g>
    </g>
    <g id="line2d_17">
     <path d="M 369.552813 69.526687 
L 389.552813 69.526687 
" style="fill:none;stroke:#ff0000;stroke-dasharray:3,0;stroke-dashoffset:0;stroke-width:1.5;"/>
    </g>
    <g id="line2d_18"/>
    <g id="text_12">
     <!-- 0 -->
     <g transform="translate(397.552813 73.026687)scale(0.1 -0.1)">
      <use xlink:href="#DejaVuSans-48"/>
     </g>
    </g>
    <g id="line2d_19">
     <path d="M 369.552813 84.204813 
L 389.552813 84.204813 
" style="fill:none;stroke:#000000;stroke-dasharray:3,0;stroke-dashoffset:0;stroke-width:1.5;"/>
    </g>
    <g id="line2d_20"/>
    <g id="text_13">
     <!-- 1 -->
     <g transform="translate(397.552813 87.704813)scale(0.1 -0.1)">
      <use xlink:href="#DejaVuSans-49"/>
     </g>
    </g>
    <g id="line2d_21">
     <path d="M 369.552813 98.882937 
L 389.552813 98.882937 
" style="fill:none;stroke:#ff0000;stroke-dasharray:3,3;stroke-dashoffset:0;stroke-width:1.5;"/>
    </g>
    <g id="line2d_22"/>
    <g id="text_14">
     <!-- 2 -->
     <g transform="translate(397.552813 102.382937)scale(0.1 -0.1)">
      <use xlink:href="#DejaVuSans-50"/>
     </g>
    </g>
    <g id="line2d_23">
     <path d="M 369.552813 113.561062 
L 389.552813 113.561062 
" style="fill:none;stroke:#000000;stroke-dasharray:3,3;stroke-dashoffset:0;stroke-width:1.5;"/>
    </g>
    <g id="line2d_24"/>
    <g id="text_15">
     <!-- 3 -->
     <defs>
      <path d="M 40.578125 39.3125 
Q 47.65625 37.796875 51.625 33 
Q 55.609375 28.21875 55.609375 21.1875 
Q 55.609375 10.40625 48.1875 4.484375 
Q 40.765625 -1.421875 27.09375 -1.421875 
Q 22.515625 -1.421875 17.65625 -0.515625 
Q 12.796875 0.390625 7.625 2.203125 
L 7.625 11.71875 
Q 11.71875 9.328125 16.59375 8.109375 
Q 21.484375 6.890625 26.8125 6.890625 
Q 36.078125 6.890625 40.9375 10.546875 
Q 45.796875 14.203125 45.796875 21.1875 
Q 45.796875 27.640625 41.28125 31.265625 
Q 36.765625 34.90625 28.71875 34.90625 
L 20.21875 34.90625 
L 20.21875 43.015625 
L 29.109375 43.015625 
Q 36.375 43.015625 40.234375 45.921875 
Q 44.09375 48.828125 44.09375 54.296875 
Q 44.09375 59.90625 40.109375 62.90625 
Q 36.140625 65.921875 28.71875 65.921875 
Q 24.65625 65.921875 20.015625 65.03125 
Q 15.375 64.15625 9.8125 62.3125 
L 9.8125 71.09375 
Q 15.4375 72.65625 20.34375 73.4375 
Q 25.25 74.21875 29.59375 74.21875 
Q 40.828125 74.21875 47.359375 69.109375 
Q 53.90625 64.015625 53.90625 55.328125 
Q 53.90625 49.265625 50.4375 45.09375 
Q 46.96875 40.921875 40.578125 39.3125 
z
" id="DejaVuSans-51"/>
     </defs>
     <g transform="translate(397.552813 117.061062)scale(0.1 -0.1)">
      <use xlink:href="#DejaVuSans-51"/>
     </g>
    </g>
   </g>
  </g>
 </g>
 <defs>
  <clipPath id="p96cb0b115b">
   <rect height="266.112" width="357.12" x="57.6" y="41.472"/>
  </clipPath>
 </defs>
</svg>
