<?xml version="1.0" encoding="utf-8" standalone="no"?>
<!DOCTYPE svg PUBLIC "-//W3C//DTD SVG 1.1//EN"
  "http://www.w3.org/Graphics/SVG/1.1/DTD/svg11.dtd">
<!-- Created with matplotlib (https://matplotlib.org/) -->
<svg height="345.6pt" version="1.1" viewBox="0 0 460.8 345.6" width="460.8pt" xmlns="http://www.w3.org/2000/svg" xmlns:xlink="http://www.w3.org/1999/xlink">
 <defs>
  <style type="text/css">
*{stroke-linecap:butt;stroke-linejoin:round;}
  </style>
 </defs>
 <g id="figure_1">
  <g id="patch_1">
   <path d="M 0 345.6 
L 460.8 345.6 
L 460.8 0 
L 0 0 
z
" style="fill:#ffffff;"/>
  </g>
  <g id="axes_1">
   <g id="patch_2">
    <path d="M 57.6 307.584 
L 414.72 307.584 
L 414.72 41.472 
L 57.6 41.472 
z
" style="fill:#ffffff;"/>
   </g>
   <g id="matplotlib.axis_1">
    <g id="xtick_1">
     <g id="line2d_1">
      <defs>
       <path d="M 0 0 
L 0 3.5 
" id="m53fc616456" style="stroke:#000000;stroke-width:0.8;"/>
      </defs>
      <g>
       <use style="stroke:#000000;stroke-width:0.8;" x="83.108571" xlink:href="#m53fc616456" y="307.584"/>
      </g>
     </g>
     <g id="text_1">
      <!-- 0 -->
      <defs>
       <path d="M 31.78125 66.40625 
Q 24.171875 66.40625 20.328125 58.90625 
Q 16.5 51.421875 16.5 36.375 
Q 16.5 21.390625 20.328125 13.890625 
Q 24.171875 6.390625 31.78125 6.390625 
Q 39.453125 6.390625 43.28125 13.890625 
Q 47.125 21.390625 47.125 36.375 
Q 47.125 51.421875 43.28125 58.90625 
Q 39.453125 66.40625 31.78125 66.40625 
z
M 31.78125 74.21875 
Q 44.046875 74.21875 50.515625 64.515625 
Q 56.984375 54.828125 56.984375 36.375 
Q 56.984375 17.96875 50.515625 8.265625 
Q 44.046875 -1.421875 31.78125 -1.421875 
Q 19.53125 -1.421875 13.0625 8.265625 
Q 6.59375 17.96875 6.59375 36.375 
Q 6.59375 54.828125 13.0625 64.515625 
Q 19.53125 74.21875 31.78125 74.21875 
z
" id="DejaVuSans-48"/>
      </defs>
      <g transform="translate(77.382321 328.261187)scale(0.18 -0.18)">
       <use xlink:href="#DejaVuSans-48"/>
      </g>
     </g>
    </g>
    <g id="xtick_2">
     <g id="line2d_2">
      <g>
       <use style="stroke:#000000;stroke-width:0.8;" x="185.142857" xlink:href="#m53fc616456" y="307.584"/>
      </g>
     </g>
     <g id="text_2">
      <!-- 20 -->
      <defs>
       <path d="M 19.1875 8.296875 
L 53.609375 8.296875 
L 53.609375 0 
L 7.328125 0 
L 7.328125 8.296875 
Q 12.9375 14.109375 22.625 23.890625 
Q 32.328125 33.6875 34.8125 36.53125 
Q 39.546875 41.84375 41.421875 45.53125 
Q 43.3125 49.21875 43.3125 52.78125 
Q 43.3125 58.59375 39.234375 62.25 
Q 35.15625 65.921875 28.609375 65.921875 
Q 23.96875 65.921875 18.8125 64.3125 
Q 13.671875 62.703125 7.8125 59.421875 
L 7.8125 69.390625 
Q 13.765625 71.78125 18.9375 73 
Q 24.125 74.21875 28.421875 74.21875 
Q 39.75 74.21875 46.484375 68.546875 
Q 53.21875 62.890625 53.21875 53.421875 
Q 53.21875 48.921875 51.53125 44.890625 
Q 49.859375 40.875 45.40625 35.40625 
Q 44.1875 33.984375 37.640625 27.21875 
Q 31.109375 20.453125 19.1875 8.296875 
z
" id="DejaVuSans-50"/>
      </defs>
      <g transform="translate(173.690357 328.261187)scale(0.18 -0.18)">
       <use xlink:href="#DejaVuSans-50"/>
       <use x="63.623047" xlink:href="#DejaVuSans-48"/>
      </g>
     </g>
    </g>
    <g id="xtick_3">
     <g id="line2d_3">
      <g>
       <use style="stroke:#000000;stroke-width:0.8;" x="287.177143" xlink:href="#m53fc616456" y="307.584"/>
      </g>
     </g>
     <g id="text_3">
      <!-- 40 -->
      <defs>
       <path d="M 37.796875 64.3125 
L 12.890625 25.390625 
L 37.796875 25.390625 
z
M 35.203125 72.90625 
L 47.609375 72.90625 
L 47.609375 25.390625 
L 58.015625 25.390625 
L 58.015625 17.1875 
L 47.609375 17.1875 
L 47.609375 0 
L 37.796875 0 
L 37.796875 17.1875 
L 4.890625 17.1875 
L 4.890625 26.703125 
z
" id="DejaVuSans-52"/>
      </defs>
      <g transform="translate(275.724643 328.261187)scale(0.18 -0.18)">
       <use xlink:href="#DejaVuSans-52"/>
       <use x="63.623047" xlink:href="#DejaVuSans-48"/>
      </g>
     </g>
    </g>
    <g id="xtick_4">
     <g id="line2d_4">
      <g>
       <use style="stroke:#000000;stroke-width:0.8;" x="389.211429" xlink:href="#m53fc616456" y="307.584"/>
      </g>
     </g>
     <g id="text_4">
      <!-- 60 -->
      <defs>
       <path d="M 33.015625 40.375 
Q 26.375 40.375 22.484375 35.828125 
Q 18.609375 31.296875 18.609375 23.390625 
Q 18.609375 15.53125 22.484375 10.953125 
Q 26.375 6.390625 33.015625 6.390625 
Q 39.65625 6.390625 43.53125 10.953125 
Q 47.40625 15.53125 47.40625 23.390625 
Q 47.40625 31.296875 43.53125 35.828125 
Q 39.65625 40.375 33.015625 40.375 
z
M 52.59375 71.296875 
L 52.59375 62.3125 
Q 48.875 64.0625 45.09375 64.984375 
Q 41.3125 65.921875 37.59375 65.921875 
Q 27.828125 65.921875 22.671875 59.328125 
Q 17.53125 52.734375 16.796875 39.40625 
Q 19.671875 43.65625 24.015625 45.921875 
Q 28.375 48.1875 33.59375 48.1875 
Q 44.578125 48.1875 50.953125 41.515625 
Q 57.328125 34.859375 57.328125 23.390625 
Q 57.328125 12.15625 50.6875 5.359375 
Q 44.046875 -1.421875 33.015625 -1.421875 
Q 20.359375 -1.421875 13.671875 8.265625 
Q 6.984375 17.96875 6.984375 36.375 
Q 6.984375 53.65625 15.1875 63.9375 
Q 23.390625 74.21875 37.203125 74.21875 
Q 40.921875 74.21875 44.703125 73.484375 
Q 48.484375 72.75 52.59375 71.296875 
z
" id="DejaVuSans-54"/>
      </defs>
      <g transform="translate(377.758929 328.261187)scale(0.18 -0.18)">
       <use xlink:href="#DejaVuSans-54"/>
       <use x="63.623047" xlink:href="#DejaVuSans-48"/>
      </g>
     </g>
    </g>
    <g id="text_5">
     <!-- FIRST_DIST -->
     <defs>
      <path d="M 9.8125 72.90625 
L 51.703125 72.90625 
L 51.703125 64.59375 
L 19.671875 64.59375 
L 19.671875 43.109375 
L 48.578125 43.109375 
L 48.578125 34.8125 
L 19.671875 34.8125 
L 19.671875 0 
L 9.8125 0 
z
" id="DejaVuSans-70"/>
      <path d="M 9.8125 72.90625 
L 19.671875 72.90625 
L 19.671875 0 
L 9.8125 0 
z
" id="DejaVuSans-73"/>
      <path d="M 44.390625 34.1875 
Q 47.5625 33.109375 50.5625 29.59375 
Q 53.5625 26.078125 56.59375 19.921875 
L 66.609375 0 
L 56 0 
L 46.6875 18.703125 
Q 43.0625 26.03125 39.671875 28.421875 
Q 36.28125 30.8125 30.421875 30.8125 
L 19.671875 30.8125 
L 19.671875 0 
L 9.8125 0 
L 9.8125 72.90625 
L 32.078125 72.90625 
Q 44.578125 72.90625 50.734375 67.671875 
Q 56.890625 62.453125 56.890625 51.90625 
Q 56.890625 45.015625 53.6875 40.46875 
Q 50.484375 35.9375 44.390625 34.1875 
z
M 19.671875 64.796875 
L 19.671875 38.921875 
L 32.078125 38.921875 
Q 39.203125 38.921875 42.84375 42.21875 
Q 46.484375 45.515625 46.484375 51.90625 
Q 46.484375 58.296875 42.84375 61.546875 
Q 39.203125 64.796875 32.078125 64.796875 
z
" id="DejaVuSans-82"/>
      <path d="M 53.515625 70.515625 
L 53.515625 60.890625 
Q 47.90625 63.578125 42.921875 64.890625 
Q 37.9375 66.21875 33.296875 66.21875 
Q 25.25 66.21875 20.875 63.09375 
Q 16.5 59.96875 16.5 54.203125 
Q 16.5 49.359375 19.40625 46.890625 
Q 22.3125 44.4375 30.421875 42.921875 
L 36.375 41.703125 
Q 47.40625 39.59375 52.65625 34.296875 
Q 57.90625 29 57.90625 20.125 
Q 57.90625 9.515625 50.796875 4.046875 
Q 43.703125 -1.421875 29.984375 -1.421875 
Q 24.8125 -1.421875 18.96875 -0.25 
Q 13.140625 0.921875 6.890625 3.21875 
L 6.890625 13.375 
Q 12.890625 10.015625 18.65625 8.296875 
Q 24.421875 6.59375 29.984375 6.59375 
Q 38.421875 6.59375 43.015625 9.90625 
Q 47.609375 13.234375 47.609375 19.390625 
Q 47.609375 24.75 44.3125 27.78125 
Q 41.015625 30.8125 33.5 32.328125 
L 27.484375 33.5 
Q 16.453125 35.6875 11.515625 40.375 
Q 6.59375 45.0625 6.59375 53.421875 
Q 6.59375 63.09375 13.40625 68.65625 
Q 20.21875 74.21875 32.171875 74.21875 
Q 37.3125 74.21875 42.625 73.28125 
Q 47.953125 72.359375 53.515625 70.515625 
z
" id="DejaVuSans-83"/>
      <path d="M -0.296875 72.90625 
L 61.375 72.90625 
L 61.375 64.59375 
L 35.5 64.59375 
L 35.5 0 
L 25.59375 0 
L 25.59375 64.59375 
L -0.296875 64.59375 
z
" id="DejaVuSans-84"/>
      <path d="M 50.984375 -16.609375 
L 50.984375 -23.578125 
L -0.984375 -23.578125 
L -0.984375 -16.609375 
z
" id="DejaVuSans-95"/>
      <path d="M 19.671875 64.796875 
L 19.671875 8.109375 
L 31.59375 8.109375 
Q 46.6875 8.109375 53.6875 14.9375 
Q 60.6875 21.78125 60.6875 36.53125 
Q 60.6875 51.171875 53.6875 57.984375 
Q 46.6875 64.796875 31.59375 64.796875 
z
M 9.8125 72.90625 
L 30.078125 72.90625 
Q 51.265625 72.90625 61.171875 64.09375 
Q 71.09375 55.28125 71.09375 36.53125 
Q 71.09375 17.671875 61.125 8.828125 
Q 51.171875 0 30.078125 0 
L 9.8125 0 
z
" id="DejaVuSans-68"/>
     </defs>
     <g transform="translate(208.05375 343.4265)scale(0.1 -0.1)">
      <use xlink:href="#DejaVuSans-70"/>
      <use x="57.519531" xlink:href="#DejaVuSans-73"/>
      <use x="87.011719" xlink:href="#DejaVuSans-82"/>
      <use x="156.494141" xlink:href="#DejaVuSans-83"/>
      <use x="219.970703" xlink:href="#DejaVuSans-84"/>
      <use x="281.054688" xlink:href="#DejaVuSans-95"/>
      <use x="331.054688" xlink:href="#DejaVuSans-68"/>
      <use x="408.056641" xlink:href="#DejaVuSans-73"/>
      <use x="437.548828" xlink:href="#DejaVuSans-83"/>
      <use x="501.025391" xlink:href="#DejaVuSans-84"/>
     </g>
    </g>
   </g>
   <g id="matplotlib.axis_2">
    <g id="ytick_1">
     <g id="line2d_5">
      <defs>
       <path d="M 0 0 
L -3.5 0 
" id="md0ec3f131f" style="stroke:#000000;stroke-width:0.8;"/>
      </defs>
      <g>
       <use style="stroke:#000000;stroke-width:0.8;" x="57.6" xlink:href="#md0ec3f131f" y="307.584"/>
      </g>
     </g>
     <g id="text_6">
      <!-- 992 -->
      <defs>
       <path d="M 10.984375 1.515625 
L 10.984375 10.5 
Q 14.703125 8.734375 18.5 7.8125 
Q 22.3125 6.890625 25.984375 6.890625 
Q 35.75 6.890625 40.890625 13.453125 
Q 46.046875 20.015625 46.78125 33.40625 
Q 43.953125 29.203125 39.59375 26.953125 
Q 35.25 24.703125 29.984375 24.703125 
Q 19.046875 24.703125 12.671875 31.3125 
Q 6.296875 37.9375 6.296875 49.421875 
Q 6.296875 60.640625 12.9375 67.421875 
Q 19.578125 74.21875 30.609375 74.21875 
Q 43.265625 74.21875 49.921875 64.515625 
Q 56.59375 54.828125 56.59375 36.375 
Q 56.59375 19.140625 48.40625 8.859375 
Q 40.234375 -1.421875 26.421875 -1.421875 
Q 22.703125 -1.421875 18.890625 -0.6875 
Q 15.09375 0.046875 10.984375 1.515625 
z
M 30.609375 32.421875 
Q 37.25 32.421875 41.125 36.953125 
Q 45.015625 41.5 45.015625 49.421875 
Q 45.015625 57.28125 41.125 61.84375 
Q 37.25 66.40625 30.609375 66.40625 
Q 23.96875 66.40625 20.09375 61.84375 
Q 16.21875 57.28125 16.21875 49.421875 
Q 16.21875 41.5 20.09375 36.953125 
Q 23.96875 32.421875 30.609375 32.421875 
z
" id="DejaVuSans-57"/>
      </defs>
      <g transform="translate(16.2425 314.422594)scale(0.18 -0.18)">
       <use xlink:href="#DejaVuSans-57"/>
       <use x="63.623047" xlink:href="#DejaVuSans-57"/>
       <use x="127.246094" xlink:href="#DejaVuSans-50"/>
      </g>
     </g>
    </g>
    <g id="ytick_2">
     <g id="line2d_6">
      <g>
       <use style="stroke:#000000;stroke-width:0.8;" x="57.6" xlink:href="#md0ec3f131f" y="193.536"/>
      </g>
     </g>
     <g id="text_7">
      <!-- 998 -->
      <defs>
       <path d="M 31.78125 34.625 
Q 24.75 34.625 20.71875 30.859375 
Q 16.703125 27.09375 16.703125 20.515625 
Q 16.703125 13.921875 20.71875 10.15625 
Q 24.75 6.390625 31.78125 6.390625 
Q 38.8125 6.390625 42.859375 10.171875 
Q 46.921875 13.96875 46.921875 20.515625 
Q 46.921875 27.09375 42.890625 30.859375 
Q 38.875 34.625 31.78125 34.625 
z
M 21.921875 38.8125 
Q 15.578125 40.375 12.03125 44.71875 
Q 8.5 49.078125 8.5 55.328125 
Q 8.5 64.0625 14.71875 69.140625 
Q 20.953125 74.21875 31.78125 74.21875 
Q 42.671875 74.21875 48.875 69.140625 
Q 55.078125 64.0625 55.078125 55.328125 
Q 55.078125 49.078125 51.53125 44.71875 
Q 48 40.375 41.703125 38.8125 
Q 48.828125 37.15625 52.796875 32.3125 
Q 56.78125 27.484375 56.78125 20.515625 
Q 56.78125 9.90625 50.3125 4.234375 
Q 43.84375 -1.421875 31.78125 -1.421875 
Q 19.734375 -1.421875 13.25 4.234375 
Q 6.78125 9.90625 6.78125 20.515625 
Q 6.78125 27.484375 10.78125 32.3125 
Q 14.796875 37.15625 21.921875 38.8125 
z
M 18.3125 54.390625 
Q 18.3125 48.734375 21.84375 45.5625 
Q 25.390625 42.390625 31.78125 42.390625 
Q 38.140625 42.390625 41.71875 45.5625 
Q 45.3125 48.734375 45.3125 54.390625 
Q 45.3125 60.0625 41.71875 63.234375 
Q 38.140625 66.40625 31.78125 66.40625 
Q 25.390625 66.40625 21.84375 63.234375 
Q 18.3125 60.0625 18.3125 54.390625 
z
" id="DejaVuSans-56"/>
      </defs>
      <g transform="translate(16.2425 200.374594)scale(0.18 -0.18)">
       <use xlink:href="#DejaVuSans-57"/>
       <use x="63.623047" xlink:href="#DejaVuSans-57"/>
       <use x="127.246094" xlink:href="#DejaVuSans-56"/>
      </g>
     </g>
    </g>
    <g id="ytick_3">
     <g id="line2d_7">
      <g>
       <use style="stroke:#000000;stroke-width:0.8;" x="57.6" xlink:href="#md0ec3f131f" y="79.488"/>
      </g>
     </g>
     <g id="text_8">
      <!-- 1004 -->
      <defs>
       <path d="M 12.40625 8.296875 
L 28.515625 8.296875 
L 28.515625 63.921875 
L 10.984375 60.40625 
L 10.984375 69.390625 
L 28.421875 72.90625 
L 38.28125 72.90625 
L 38.28125 8.296875 
L 54.390625 8.296875 
L 54.390625 0 
L 12.40625 0 
z
" id="DejaVuSans-49"/>
      </defs>
      <g transform="translate(4.79 86.326594)scale(0.18 -0.18)">
       <use xlink:href="#DejaVuSans-49"/>
       <use x="63.623047" xlink:href="#DejaVuSans-48"/>
       <use x="127.246094" xlink:href="#DejaVuSans-48"/>
       <use x="190.869141" xlink:href="#DejaVuSans-52"/>
      </g>
     </g>
    </g>
    <g id="text_9">
     <!-- FIRST_Z -->
     <defs>
      <path d="M 5.609375 72.90625 
L 62.890625 72.90625 
L 62.890625 65.375 
L 16.796875 8.296875 
L 64.015625 8.296875 
L 64.015625 0 
L 4.5 0 
L 4.5 7.515625 
L 50.59375 64.59375 
L 5.609375 64.59375 
z
" id="DejaVuSans-90"/>
     </defs>
     <g transform="translate(-1.567812 194.506125)rotate(-90)scale(0.1 -0.1)">
      <use xlink:href="#DejaVuSans-70"/>
      <use x="57.519531" xlink:href="#DejaVuSans-73"/>
      <use x="87.011719" xlink:href="#DejaVuSans-82"/>
      <use x="156.494141" xlink:href="#DejaVuSans-83"/>
      <use x="219.970703" xlink:href="#DejaVuSans-84"/>
      <use x="281.054688" xlink:href="#DejaVuSans-95"/>
      <use x="331.054688" xlink:href="#DejaVuSans-90"/>
     </g>
    </g>
   </g>
   <g id="line2d_8">
    <path clip-path="url(#pe1c8963005)" d="M 83.108571 88.505395 
L 88.170784 93.559622 
L 93.232996 98.572032 
L 98.295208 103.612954 
L 103.35742 108.670982 
L 108.419633 113.683392 
L 113.481845 118.709107 
L 118.544057 123.748128 
L 123.60627 128.771942 
L 128.668482 133.820467 
L 133.730694 138.870893 
L 138.792906 143.921318 
L 143.855119 149.771981 
L 148.917331 160.188365 
L 153.979543 169.525094 
L 159.041755 174.653453 
L 164.103968 178.896038 
L 169.16618 182.574086 
L 174.228392 185.476608 
L 179.290605 187.841203 
L 184.352817 189.888365 
L 189.415029 191.530656 
L 194.477241 192.904934 
L 199.539454 194.022605 
L 204.601666 194.661274 
L 209.663878 195.113664 
L 214.72609 195.343661 
L 219.788303 195.337958 
L 224.850515 195.075648 
L 229.912727 194.60425 
L 234.97494 193.994093 
L 240.037152 193.140634 
L 245.099364 192.055277 
L 250.161576 190.743725 
L 255.223789 189.230688 
L 260.286001 187.721453 
L 265.348213 186.029741 
L 270.410425 184.125139 
L 275.472638 181.912608 
L 280.53485 179.479584 
L 285.597062 177.09408 
L 290.659275 174.615437 
L 295.721487 171.882086 
L 300.783699 169.055597 
L 305.845911 165.970598 
L 310.908124 162.701222 
L 315.970336 158.949043 
L 321.032548 153.442426 
L 326.09476 147.778042 
L 331.156973 142.744723 
L 336.219185 137.711405 
L 341.281397 132.672384 
L 346.34361 127.637165 
L 351.405822 122.601946 
L 356.468034 117.564826 
L 361.530246 112.529606 
L 366.592459 107.494387 
L 371.654671 102.457267 
L 376.716883 97.420147 
L 381.779095 92.383027 
" style="fill:none;stroke:#ff0000;stroke-dasharray:3,0;stroke-dashoffset:0;stroke-width:1.5;"/>
   </g>
   <g id="line2d_9">
    <path clip-path="url(#pe1c8963005)" d="M 83.108571 89.307533 
L 88.126144 94.308538 
L 93.143717 99.30384 
L 98.16129 104.299142 
L 103.178863 109.294445 
L 108.196436 114.285946 
L 113.214008 119.28505 
L 118.231581 124.27465 
L 123.249154 129.281357 
L 128.266727 134.269056 
L 133.2843 139.270061 
L 138.301872 144.263462 
L 143.319445 149.260666 
L 148.337018 154.252166 
L 153.354591 159.255072 
L 158.372164 175.38336 
L 163.389737 211.40352 
L 168.407309 231.886541 
L 173.424882 235.621613 
L 178.442455 237.455885 
L 183.460028 238.168685 
L 188.477601 238.028026 
L 193.495173 237.351341 
L 198.512746 236.361024 
L 203.530319 235.047571 
L 208.547892 233.566848 
L 213.565465 231.635635 
L 218.583038 229.896403 
L 223.60061 227.96519 
L 228.618183 225.737453 
L 233.635756 223.564838 
L 238.653329 221.297184 
L 243.670902 218.930688 
L 248.688474 216.659232 
L 253.706047 214.030426 
L 258.72362 211.606906 
L 263.741193 208.999008 
L 268.758766 206.43863 
L 273.776339 203.899162 
L 278.793911 201.302669 
L 283.811484 198.681466 
L 288.829057 196.10208 
L 293.84663 193.2984 
L 298.864203 190.555546 
L 303.881776 188.006573 
L 308.899348 185.282726 
L 313.916921 182.556979 
L 318.934494 179.73239 
L 323.952067 177.251846 
L 328.96964 174.31511 
L 333.987212 167.905613 
L 339.004785 162.182304 
L 344.022358 157.589971 
L 349.039931 152.59847 
L 354.057504 147.612672 
L 359.075077 142.61927 
L 364.092649 137.637274 
L 369.110222 132.643872 
L 374.127795 127.663776 
L 379.145368 122.670374 
L 384.162941 117.692179 
L 389.180513 112.700678 
L 394.198086 107.724384 
L 399.215659 102.734784 
" style="fill:none;stroke:#000000;stroke-dasharray:3,0;stroke-dashoffset:0;stroke-width:1.5;"/>
   </g>
   <g id="line2d_10">
    <path clip-path="url(#pe1c8963005)" d="M 83.108571 115.854106 
L 88.142467 120.87792 
L 93.176362 125.903635 
L 98.210258 130.92745 
L 103.244153 135.951264 
L 108.278049 140.976979 
L 113.311944 146.002694 
L 118.34584 151.03031 
L 123.379735 156.056026 
L 128.413631 161.083642 
L 133.447526 166.111258 
L 138.481422 171.136973 
L 143.515317 183.250771 
L 148.549213 203.258592 
L 153.583108 210.972038 
L 158.617004 211.918637 
L 163.650899 211.962355 
L 168.684795 211.597402 
L 173.71869 211.055674 
L 178.752586 210.342874 
L 183.786481 209.52743 
L 188.820377 208.656864 
L 193.854272 207.72167 
L 198.888168 206.754163 
L 203.922063 205.760045 
L 208.955959 204.743117 
L 213.989854 203.709082 
L 219.02375 202.665542 
L 224.057645 201.608698 
L 229.091541 200.54425 
L 234.125436 199.496909 
L 239.159332 198.483782 
L 244.193227 197.417434 
L 249.227123 196.352986 
L 254.261018 195.298042 
L 259.294914 194.227891 
L 264.328809 193.15584 
L 269.362705 192.081888 
L 274.3966 191.009837 
L 279.430496 189.954893 
L 284.464391 188.917056 
L 289.498287 187.90583 
L 294.532182 186.847085 
L 299.566078 185.801645 
L 304.599973 184.786618 
L 309.633869 183.748781 
L 314.667764 181.325261 
L 319.70166 177.078874 
L 324.735555 172.298362 
L 329.769451 167.365786 
L 334.803346 162.38569 
L 339.837242 157.403693 
L 344.871137 152.423597 
L 349.905033 147.443501 
L 354.938928 142.465306 
L 359.972824 137.489011 
L 365.006719 132.514618 
L 370.040615 127.540224 
L 375.07451 122.567731 
L 380.108406 117.593338 
L 385.142301 112.618944 
" style="fill:none;stroke:#ff0000;stroke-dasharray:3,3;stroke-dashoffset:0;stroke-width:1.5;"/>
   </g>
   <g id="line2d_11">
    <path clip-path="url(#pe1c8963005)" d="M 83.108571 144.463046 
L 88.131561 149.426035 
L 93.15455 154.438445 
L 98.177539 159.435648 
L 103.200528 164.42905 
L 108.223517 169.445261 
L 113.246507 174.461472 
L 118.269496 179.477683 
L 123.292485 184.493894 
L 128.315474 191.226528 
L 133.338463 208.656864 
L 138.361453 238.936608 
L 143.384442 253.899706 
L 148.407431 262.649088 
L 153.43042 269.172634 
L 158.453409 273.951245 
L 163.476399 277.659706 
L 168.499388 280.309421 
L 173.522377 282.156998 
L 178.545366 283.350701 
L 183.568355 283.856314 
L 188.591345 283.939949 
L 193.614334 283.464749 
L 198.637323 282.679718 
L 203.660312 281.531635 
L 208.683301 279.934963 
L 213.706291 278.022758 
L 218.72928 275.802624 
L 223.752269 273.375302 
L 228.775258 270.670464 
L 233.798247 267.64439 
L 238.821237 264.614515 
L 243.844226 261.234893 
L 248.867215 257.741222 
L 253.890204 253.878797 
L 258.913193 249.831994 
L 263.936183 245.756678 
L 268.959172 241.41335 
L 273.982161 236.828621 
L 279.00515 231.835219 
L 284.028139 227.404454 
L 289.051128 222.701875 
L 294.074118 217.65335 
L 299.097107 212.412845 
L 304.120096 206.330285 
L 309.143085 196.516454 
L 314.166074 189.776218 
L 319.189064 184.972896 
L 324.212053 179.988998 
L 329.235042 174.999398 
L 334.258031 170.007898 
L 339.28102 165.035405 
L 344.30401 160.10473 
L 349.326999 155.134138 
L 354.349988 150.167347 
L 359.372977 145.189152 
L 364.395966 140.212858 
L 369.418956 135.308794 
L 374.441945 130.31159 
L 379.464934 125.377114 
L 384.487923 120.383712 
" style="fill:none;stroke:#000000;stroke-dasharray:3,3;stroke-dashoffset:0;stroke-width:1.5;"/>
   </g>
   <g id="line2d_12"/>
   <g id="line2d_13"/>
   <g id="line2d_14"/>
   <g id="line2d_15"/>
   <g id="patch_3">
    <path d="M 57.6 307.584 
L 57.6 41.472 
" style="fill:none;stroke:#000000;stroke-linecap:square;stroke-linejoin:miter;stroke-width:0.8;"/>
   </g>
   <g id="patch_4">
    <path d="M 414.72 307.584 
L 414.72 41.472 
" style="fill:none;stroke:#000000;stroke-linecap:square;stroke-linejoin:miter;stroke-width:0.8;"/>
   </g>
   <g id="patch_5">
    <path d="M 57.6 307.584 
L 414.72 307.584 
" style="fill:none;stroke:#000000;stroke-linecap:square;stroke-linejoin:miter;stroke-width:0.8;"/>
   </g>
   <g id="patch_6">
    <path d="M 57.6 41.472 
L 414.72 41.472 
" style="fill:none;stroke:#000000;stroke-linecap:square;stroke-linejoin:miter;stroke-width:0.8;"/>
   </g>
   <g id="legend_1">
    <g id="patch_7">
     <path d="M 64.6 302.584 
L 106.571875 302.584 
Q 108.571875 302.584 108.571875 300.584 
L 108.571875 227.91525 
Q 108.571875 225.91525 106.571875 225.91525 
L 64.6 225.91525 
Q 62.6 225.91525 62.6 227.91525 
L 62.6 300.584 
Q 62.6 302.584 64.6 302.584 
z
" style="fill:#ffffff;opacity:0.8;stroke:#cccccc;stroke-linejoin:miter;"/>
    </g>
    <g id="text_10">
     <!-- LINE_ID -->
     <defs>
      <path d="M 9.8125 72.90625 
L 19.671875 72.90625 
L 19.671875 8.296875 
L 55.171875 8.296875 
L 55.171875 0 
L 9.8125 0 
z
" id="DejaVuSans-76"/>
      <path d="M 9.8125 72.90625 
L 23.09375 72.90625 
L 55.421875 11.921875 
L 55.421875 72.90625 
L 64.984375 72.90625 
L 64.984375 0 
L 51.703125 0 
L 19.390625 60.984375 
L 19.390625 0 
L 9.8125 0 
z
" id="DejaVuSans-78"/>
      <path d="M 9.8125 72.90625 
L 55.90625 72.90625 
L 55.90625 64.59375 
L 19.671875 64.59375 
L 19.671875 43.015625 
L 54.390625 43.015625 
L 54.390625 34.71875 
L 19.671875 34.71875 
L 19.671875 8.296875 
L 56.78125 8.296875 
L 56.78125 0 
L 9.8125 0 
z
" id="DejaVuSans-69"/>
     </defs>
     <g transform="translate(66.6 237.513687)scale(0.1 -0.1)">
      <use xlink:href="#DejaVuSans-76"/>
      <use x="55.712891" xlink:href="#DejaVuSans-73"/>
      <use x="85.205078" xlink:href="#DejaVuSans-78"/>
      <use x="160.009766" xlink:href="#DejaVuSans-69"/>
      <use x="223.193359" xlink:href="#DejaVuSans-95"/>
      <use x="273.193359" xlink:href="#DejaVuSans-73"/>
      <use x="302.685547" xlink:href="#DejaVuSans-68"/>
     </g>
    </g>
    <g id="line2d_16">
     <path d="M 68.404687 248.969937 
L 88.404687 248.969937 
" style="fill:none;stroke:#ff0000;stroke-dasharray:3,0;stroke-dashoffset:0;stroke-width:1.5;"/>
    </g>
    <g id="line2d_17"/>
    <g id="text_11">
     <!-- 0 -->
     <g transform="translate(96.404687 252.469937)scale(0.1 -0.1)">
      <use xlink:href="#DejaVuSans-48"/>
     </g>
    </g>
    <g id="line2d_18">
     <path d="M 68.404687 263.648062 
L 88.404687 263.648062 
" style="fill:none;stroke:#000000;stroke-dasharray:3,0;stroke-dashoffset:0;stroke-width:1.5;"/>
    </g>
    <g id="line2d_19"/>
    <g id="text_12">
     <!-- 1 -->
     <g transform="translate(96.404687 267.148062)scale(0.1 -0.1)">
      <use xlink:href="#DejaVuSans-49"/>
     </g>
    </g>
    <g id="line2d_20">
     <path d="M 68.404687 278.326187 
L 88.404687 278.326187 
" style="fill:none;stroke:#ff0000;stroke-dasharray:3,3;stroke-dashoffset:0;stroke-width:1.5;"/>
    </g>
    <g id="line2d_21"/>
    <g id="text_13">
     <!-- 2 -->
     <g transform="translate(96.404687 281.826187)scale(0.1 -0.1)">
      <use xlink:href="#DejaVuSans-50"/>
     </g>
    </g>
    <g id="line2d_22">
     <path d="M 68.404687 293.004312 
L 88.404687 293.004312 
" style="fill:none;stroke:#000000;stroke-dasharray:3,3;stroke-dashoffset:0;stroke-width:1.5;"/>
    </g>
    <g id="line2d_23"/>
    <g id="text_14">
     <!-- 3 -->
     <defs>
      <path d="M 40.578125 39.3125 
Q 47.65625 37.796875 51.625 33 
Q 55.609375 28.21875 55.609375 21.1875 
Q 55.609375 10.40625 48.1875 4.484375 
Q 40.765625 -1.421875 27.09375 -1.421875 
Q 22.515625 -1.421875 17.65625 -0.515625 
Q 12.796875 0.390625 7.625 2.203125 
L 7.625 11.71875 
Q 11.71875 9.328125 16.59375 8.109375 
Q 21.484375 6.890625 26.8125 6.890625 
Q 36.078125 6.890625 40.9375 10.546875 
Q 45.796875 14.203125 45.796875 21.1875 
Q 45.796875 27.640625 41.28125 31.265625 
Q 36.765625 34.90625 28.71875 34.90625 
L 20.21875 34.90625 
L 20.21875 43.015625 
L 29.109375 43.015625 
Q 36.375 43.015625 40.234375 45.921875 
Q 44.09375 48.828125 44.09375 54.296875 
Q 44.09375 59.90625 40.109375 62.90625 
Q 36.140625 65.921875 28.71875 65.921875 
Q 24.65625 65.921875 20.015625 65.03125 
Q 15.375 64.15625 9.8125 62.3125 
L 9.8125 71.09375 
Q 15.4375 72.65625 20.34375 73.4375 
Q 25.25 74.21875 29.59375 74.21875 
Q 40.828125 74.21875 47.359375 69.109375 
Q 53.90625 64.015625 53.90625 55.328125 
Q 53.90625 49.265625 50.4375 45.09375 
Q 46.96875 40.921875 40.578125 39.3125 
z
" id="DejaVuSans-51"/>
     </defs>
     <g transform="translate(96.404687 296.504312)scale(0.1 -0.1)">
      <use xlink:href="#DejaVuSans-51"/>
     </g>
    </g>
   </g>
  </g>
 </g>
 <defs>
  <clipPath id="pe1c8963005">
   <rect height="266.112" width="357.12" x="57.6" y="41.472"/>
  </clipPath>
 </defs>
</svg>
