<?xml version="1.0" encoding="utf-8" standalone="no"?>
<!DOCTYPE svg PUBLIC "-//W3C//DTD SVG 1.1//EN"
  "http://www.w3.org/Graphics/SVG/1.1/DTD/svg11.dtd">
<!-- Created with matplotlib (https://matplotlib.org/) -->
<svg height="345.6pt" version="1.1" viewBox="0 0 460.8 345.6" width="460.8pt" xmlns="http://www.w3.org/2000/svg" xmlns:xlink="http://www.w3.org/1999/xlink">
 <defs>
  <style type="text/css">
*{stroke-linecap:butt;stroke-linejoin:round;}
  </style>
 </defs>
 <g id="figure_1">
  <g id="patch_1">
   <path d="M 0 345.6 
L 460.8 345.6 
L 460.8 0 
L 0 0 
z
" style="fill:#ffffff;"/>
  </g>
  <g id="axes_1">
   <g id="patch_2">
    <path d="M 57.6 307.584 
L 414.72 307.584 
L 414.72 41.472 
L 57.6 41.472 
z
" style="fill:#ffffff;"/>
   </g>
   <g id="matplotlib.axis_1">
    <g id="xtick_1">
     <g id="line2d_1">
      <defs>
       <path d="M 0 0 
L 0 3.5 
" id="md9754a4eac" style="stroke:#000000;stroke-width:0.8;"/>
      </defs>
      <g>
       <use style="stroke:#000000;stroke-width:0.8;" x="87.36" xlink:href="#md9754a4eac" y="307.584"/>
      </g>
     </g>
     <g id="text_1">
      <!-- 0 -->
      <defs>
       <path d="M 31.78125 66.40625 
Q 24.171875 66.40625 20.328125 58.90625 
Q 16.5 51.421875 16.5 36.375 
Q 16.5 21.390625 20.328125 13.890625 
Q 24.171875 6.390625 31.78125 6.390625 
Q 39.453125 6.390625 43.28125 13.890625 
Q 47.125 21.390625 47.125 36.375 
Q 47.125 51.421875 43.28125 58.90625 
Q 39.453125 66.40625 31.78125 66.40625 
z
M 31.78125 74.21875 
Q 44.046875 74.21875 50.515625 64.515625 
Q 56.984375 54.828125 56.984375 36.375 
Q 56.984375 17.96875 50.515625 8.265625 
Q 44.046875 -1.421875 31.78125 -1.421875 
Q 19.53125 -1.421875 13.0625 8.265625 
Q 6.59375 17.96875 6.59375 36.375 
Q 6.59375 54.828125 13.0625 64.515625 
Q 19.53125 74.21875 31.78125 74.21875 
z
" id="DejaVuSans-48"/>
      </defs>
      <g transform="translate(81.63375 328.261187)scale(0.18 -0.18)">
       <use xlink:href="#DejaVuSans-48"/>
      </g>
     </g>
    </g>
    <g id="xtick_2">
     <g id="line2d_2">
      <g>
       <use style="stroke:#000000;stroke-width:0.8;" x="236.16" xlink:href="#md9754a4eac" y="307.584"/>
      </g>
     </g>
     <g id="text_2">
      <!-- 10 -->
      <defs>
       <path d="M 12.40625 8.296875 
L 28.515625 8.296875 
L 28.515625 63.921875 
L 10.984375 60.40625 
L 10.984375 69.390625 
L 28.421875 72.90625 
L 38.28125 72.90625 
L 38.28125 8.296875 
L 54.390625 8.296875 
L 54.390625 0 
L 12.40625 0 
z
" id="DejaVuSans-49"/>
      </defs>
      <g transform="translate(224.7075 328.261187)scale(0.18 -0.18)">
       <use xlink:href="#DejaVuSans-49"/>
       <use x="63.623047" xlink:href="#DejaVuSans-48"/>
      </g>
     </g>
    </g>
    <g id="xtick_3">
     <g id="line2d_3">
      <g>
       <use style="stroke:#000000;stroke-width:0.8;" x="384.96" xlink:href="#md9754a4eac" y="307.584"/>
      </g>
     </g>
     <g id="text_3">
      <!-- 20 -->
      <defs>
       <path d="M 19.1875 8.296875 
L 53.609375 8.296875 
L 53.609375 0 
L 7.328125 0 
L 7.328125 8.296875 
Q 12.9375 14.109375 22.625 23.890625 
Q 32.328125 33.6875 34.8125 36.53125 
Q 39.546875 41.84375 41.421875 45.53125 
Q 43.3125 49.21875 43.3125 52.78125 
Q 43.3125 58.59375 39.234375 62.25 
Q 35.15625 65.921875 28.609375 65.921875 
Q 23.96875 65.921875 18.8125 64.3125 
Q 13.671875 62.703125 7.8125 59.421875 
L 7.8125 69.390625 
Q 13.765625 71.78125 18.9375 73 
Q 24.125 74.21875 28.421875 74.21875 
Q 39.75 74.21875 46.484375 68.546875 
Q 53.21875 62.890625 53.21875 53.421875 
Q 53.21875 48.921875 51.53125 44.890625 
Q 49.859375 40.875 45.40625 35.40625 
Q 44.1875 33.984375 37.640625 27.21875 
Q 31.109375 20.453125 19.1875 8.296875 
z
" id="DejaVuSans-50"/>
      </defs>
      <g transform="translate(373.5075 328.261187)scale(0.18 -0.18)">
       <use xlink:href="#DejaVuSans-50"/>
       <use x="63.623047" xlink:href="#DejaVuSans-48"/>
      </g>
     </g>
    </g>
    <g id="text_4">
     <!-- FIRST_DIST -->
     <defs>
      <path d="M 9.8125 72.90625 
L 51.703125 72.90625 
L 51.703125 64.59375 
L 19.671875 64.59375 
L 19.671875 43.109375 
L 48.578125 43.109375 
L 48.578125 34.8125 
L 19.671875 34.8125 
L 19.671875 0 
L 9.8125 0 
z
" id="DejaVuSans-70"/>
      <path d="M 9.8125 72.90625 
L 19.671875 72.90625 
L 19.671875 0 
L 9.8125 0 
z
" id="DejaVuSans-73"/>
      <path d="M 44.390625 34.1875 
Q 47.5625 33.109375 50.5625 29.59375 
Q 53.5625 26.078125 56.59375 19.921875 
L 66.609375 0 
L 56 0 
L 46.6875 18.703125 
Q 43.0625 26.03125 39.671875 28.421875 
Q 36.28125 30.8125 30.421875 30.8125 
L 19.671875 30.8125 
L 19.671875 0 
L 9.8125 0 
L 9.8125 72.90625 
L 32.078125 72.90625 
Q 44.578125 72.90625 50.734375 67.671875 
Q 56.890625 62.453125 56.890625 51.90625 
Q 56.890625 45.015625 53.6875 40.46875 
Q 50.484375 35.9375 44.390625 34.1875 
z
M 19.671875 64.796875 
L 19.671875 38.921875 
L 32.078125 38.921875 
Q 39.203125 38.921875 42.84375 42.21875 
Q 46.484375 45.515625 46.484375 51.90625 
Q 46.484375 58.296875 42.84375 61.546875 
Q 39.203125 64.796875 32.078125 64.796875 
z
" id="DejaVuSans-82"/>
      <path d="M 53.515625 70.515625 
L 53.515625 60.890625 
Q 47.90625 63.578125 42.921875 64.890625 
Q 37.9375 66.21875 33.296875 66.21875 
Q 25.25 66.21875 20.875 63.09375 
Q 16.5 59.96875 16.5 54.203125 
Q 16.5 49.359375 19.40625 46.890625 
Q 22.3125 44.4375 30.421875 42.921875 
L 36.375 41.703125 
Q 47.40625 39.59375 52.65625 34.296875 
Q 57.90625 29 57.90625 20.125 
Q 57.90625 9.515625 50.796875 4.046875 
Q 43.703125 -1.421875 29.984375 -1.421875 
Q 24.8125 -1.421875 18.96875 -0.25 
Q 13.140625 0.921875 6.890625 3.21875 
L 6.890625 13.375 
Q 12.890625 10.015625 18.65625 8.296875 
Q 24.421875 6.59375 29.984375 6.59375 
Q 38.421875 6.59375 43.015625 9.90625 
Q 47.609375 13.234375 47.609375 19.390625 
Q 47.609375 24.75 44.3125 27.78125 
Q 41.015625 30.8125 33.5 32.328125 
L 27.484375 33.5 
Q 16.453125 35.6875 11.515625 40.375 
Q 6.59375 45.0625 6.59375 53.421875 
Q 6.59375 63.09375 13.40625 68.65625 
Q 20.21875 74.21875 32.171875 74.21875 
Q 37.3125 74.21875 42.625 73.28125 
Q 47.953125 72.359375 53.515625 70.515625 
z
" id="DejaVuSans-83"/>
      <path d="M -0.296875 72.90625 
L 61.375 72.90625 
L 61.375 64.59375 
L 35.5 64.59375 
L 35.5 0 
L 25.59375 0 
L 25.59375 64.59375 
L -0.296875 64.59375 
z
" id="DejaVuSans-84"/>
      <path d="M 50.984375 -16.609375 
L 50.984375 -23.578125 
L -0.984375 -23.578125 
L -0.984375 -16.609375 
z
" id="DejaVuSans-95"/>
      <path d="M 19.671875 64.796875 
L 19.671875 8.109375 
L 31.59375 8.109375 
Q 46.6875 8.109375 53.6875 14.9375 
Q 60.6875 21.78125 60.6875 36.53125 
Q 60.6875 51.171875 53.6875 57.984375 
Q 46.6875 64.796875 31.59375 64.796875 
z
M 9.8125 72.90625 
L 30.078125 72.90625 
Q 51.265625 72.90625 61.171875 64.09375 
Q 71.09375 55.28125 71.09375 36.53125 
Q 71.09375 17.671875 61.125 8.828125 
Q 51.171875 0 30.078125 0 
L 9.8125 0 
z
" id="DejaVuSans-68"/>
     </defs>
     <g transform="translate(208.05375 343.4265)scale(0.1 -0.1)">
      <use xlink:href="#DejaVuSans-70"/>
      <use x="57.519531" xlink:href="#DejaVuSans-73"/>
      <use x="87.011719" xlink:href="#DejaVuSans-82"/>
      <use x="156.494141" xlink:href="#DejaVuSans-83"/>
      <use x="219.970703" xlink:href="#DejaVuSans-84"/>
      <use x="281.054688" xlink:href="#DejaVuSans-95"/>
      <use x="331.054688" xlink:href="#DejaVuSans-68"/>
      <use x="408.056641" xlink:href="#DejaVuSans-73"/>
      <use x="437.548828" xlink:href="#DejaVuSans-83"/>
      <use x="501.025391" xlink:href="#DejaVuSans-84"/>
     </g>
    </g>
   </g>
   <g id="matplotlib.axis_2">
    <g id="ytick_1">
     <g id="line2d_4">
      <defs>
       <path d="M 0 0 
L -3.5 0 
" id="m16f5648698" style="stroke:#000000;stroke-width:0.8;"/>
      </defs>
      <g>
       <use style="stroke:#000000;stroke-width:0.8;" x="57.6" xlink:href="#m16f5648698" y="263.232"/>
      </g>
     </g>
     <g id="text_5">
      <!-- 994 -->
      <defs>
       <path d="M 10.984375 1.515625 
L 10.984375 10.5 
Q 14.703125 8.734375 18.5 7.8125 
Q 22.3125 6.890625 25.984375 6.890625 
Q 35.75 6.890625 40.890625 13.453125 
Q 46.046875 20.015625 46.78125 33.40625 
Q 43.953125 29.203125 39.59375 26.953125 
Q 35.25 24.703125 29.984375 24.703125 
Q 19.046875 24.703125 12.671875 31.3125 
Q 6.296875 37.9375 6.296875 49.421875 
Q 6.296875 60.640625 12.9375 67.421875 
Q 19.578125 74.21875 30.609375 74.21875 
Q 43.265625 74.21875 49.921875 64.515625 
Q 56.59375 54.828125 56.59375 36.375 
Q 56.59375 19.140625 48.40625 8.859375 
Q 40.234375 -1.421875 26.421875 -1.421875 
Q 22.703125 -1.421875 18.890625 -0.6875 
Q 15.09375 0.046875 10.984375 1.515625 
z
M 30.609375 32.421875 
Q 37.25 32.421875 41.125 36.953125 
Q 45.015625 41.5 45.015625 49.421875 
Q 45.015625 57.28125 41.125 61.84375 
Q 37.25 66.40625 30.609375 66.40625 
Q 23.96875 66.40625 20.09375 61.84375 
Q 16.21875 57.28125 16.21875 49.421875 
Q 16.21875 41.5 20.09375 36.953125 
Q 23.96875 32.421875 30.609375 32.421875 
z
" id="DejaVuSans-57"/>
       <path d="M 37.796875 64.3125 
L 12.890625 25.390625 
L 37.796875 25.390625 
z
M 35.203125 72.90625 
L 47.609375 72.90625 
L 47.609375 25.390625 
L 58.015625 25.390625 
L 58.015625 17.1875 
L 47.609375 17.1875 
L 47.609375 0 
L 37.796875 0 
L 37.796875 17.1875 
L 4.890625 17.1875 
L 4.890625 26.703125 
z
" id="DejaVuSans-52"/>
      </defs>
      <g transform="translate(16.2425 270.070594)scale(0.18 -0.18)">
       <use xlink:href="#DejaVuSans-57"/>
       <use x="63.623047" xlink:href="#DejaVuSans-57"/>
       <use x="127.246094" xlink:href="#DejaVuSans-52"/>
      </g>
     </g>
    </g>
    <g id="ytick_2">
     <g id="line2d_5">
      <g>
       <use style="stroke:#000000;stroke-width:0.8;" x="57.6" xlink:href="#m16f5648698" y="174.528"/>
      </g>
     </g>
     <g id="text_6">
      <!-- 998 -->
      <defs>
       <path d="M 31.78125 34.625 
Q 24.75 34.625 20.71875 30.859375 
Q 16.703125 27.09375 16.703125 20.515625 
Q 16.703125 13.921875 20.71875 10.15625 
Q 24.75 6.390625 31.78125 6.390625 
Q 38.8125 6.390625 42.859375 10.171875 
Q 46.921875 13.96875 46.921875 20.515625 
Q 46.921875 27.09375 42.890625 30.859375 
Q 38.875 34.625 31.78125 34.625 
z
M 21.921875 38.8125 
Q 15.578125 40.375 12.03125 44.71875 
Q 8.5 49.078125 8.5 55.328125 
Q 8.5 64.0625 14.71875 69.140625 
Q 20.953125 74.21875 31.78125 74.21875 
Q 42.671875 74.21875 48.875 69.140625 
Q 55.078125 64.0625 55.078125 55.328125 
Q 55.078125 49.078125 51.53125 44.71875 
Q 48 40.375 41.703125 38.8125 
Q 48.828125 37.15625 52.796875 32.3125 
Q 56.78125 27.484375 56.78125 20.515625 
Q 56.78125 9.90625 50.3125 4.234375 
Q 43.84375 -1.421875 31.78125 -1.421875 
Q 19.734375 -1.421875 13.25 4.234375 
Q 6.78125 9.90625 6.78125 20.515625 
Q 6.78125 27.484375 10.78125 32.3125 
Q 14.796875 37.15625 21.921875 38.8125 
z
M 18.3125 54.390625 
Q 18.3125 48.734375 21.84375 45.5625 
Q 25.390625 42.390625 31.78125 42.390625 
Q 38.140625 42.390625 41.71875 45.5625 
Q 45.3125 48.734375 45.3125 54.390625 
Q 45.3125 60.0625 41.71875 63.234375 
Q 38.140625 66.40625 31.78125 66.40625 
Q 25.390625 66.40625 21.84375 63.234375 
Q 18.3125 60.0625 18.3125 54.390625 
z
" id="DejaVuSans-56"/>
      </defs>
      <g transform="translate(16.2425 181.366594)scale(0.18 -0.18)">
       <use xlink:href="#DejaVuSans-57"/>
       <use x="63.623047" xlink:href="#DejaVuSans-57"/>
       <use x="127.246094" xlink:href="#DejaVuSans-56"/>
      </g>
     </g>
    </g>
    <g id="ytick_3">
     <g id="line2d_6">
      <g>
       <use style="stroke:#000000;stroke-width:0.8;" x="57.6" xlink:href="#m16f5648698" y="85.824"/>
      </g>
     </g>
     <g id="text_7">
      <!-- 1002 -->
      <g transform="translate(4.79 92.662594)scale(0.18 -0.18)">
       <use xlink:href="#DejaVuSans-49"/>
       <use x="63.623047" xlink:href="#DejaVuSans-48"/>
       <use x="127.246094" xlink:href="#DejaVuSans-48"/>
       <use x="190.869141" xlink:href="#DejaVuSans-50"/>
      </g>
     </g>
    </g>
    <g id="text_8">
     <!-- FIRST_Z -->
     <defs>
      <path d="M 5.609375 72.90625 
L 62.890625 72.90625 
L 62.890625 65.375 
L 16.796875 8.296875 
L 64.015625 8.296875 
L 64.015625 0 
L 4.5 0 
L 4.5 7.515625 
L 50.59375 64.59375 
L 5.609375 64.59375 
z
" id="DejaVuSans-90"/>
     </defs>
     <g transform="translate(-1.567812 194.506125)rotate(-90)scale(0.1 -0.1)">
      <use xlink:href="#DejaVuSans-70"/>
      <use x="57.519531" xlink:href="#DejaVuSans-73"/>
      <use x="87.011719" xlink:href="#DejaVuSans-82"/>
      <use x="156.494141" xlink:href="#DejaVuSans-83"/>
      <use x="219.970703" xlink:href="#DejaVuSans-84"/>
      <use x="281.054688" xlink:href="#DejaVuSans-95"/>
      <use x="331.054688" xlink:href="#DejaVuSans-90"/>
     </g>
    </g>
   </g>
   <g id="line2d_7">
    <path clip-path="url(#p0687ee4eea)" d="M 87.36 46.987171 
L 91.734116 49.947667 
L 96.108232 53.830685 
L 100.482348 57.680438 
L 104.856464 61.556803 
L 109.23058 65.417645 
L 113.604695 69.223046 
L 117.978811 73.048406 
L 122.352927 76.875984 
L 126.727043 80.716867 
L 131.101159 84.533357 
L 135.475275 88.3188 
L 139.849391 90.241459 
L 144.223507 95.007082 
L 148.597623 100.364803 
L 152.971739 104.919754 
L 157.345854 108.858211 
L 161.71997 111.559248 
L 166.094086 113.204707 
L 170.468202 114.790291 
L 174.842318 116.974627 
L 179.216434 119.400682 
L 183.59055 121.465267 
L 187.964666 122.822438 
L 192.338782 123.039763 
L 196.712898 122.161594 
L 201.087013 120.14136 
L 205.461129 118.167696 
L 209.835245 117.269568 
L 214.209361 117.486893 
L 218.583477 117.653213 
L 222.957593 117.733046 
L 227.331709 117.469152 
L 231.705825 117.178646 
L 236.079941 116.340394 
L 240.454057 113.76576 
L 244.828172 110.434925 
L 249.202288 106.696051 
L 253.576404 99.47111 
L 257.95052 89.165923 
L 262.324636 85.965926 
L 266.698752 82.169395 
L 271.072868 78.270854 
L 275.446984 74.374531 
L 279.8211 70.478208 
L 284.195216 66.581885 
L 288.569331 62.685562 
L 292.943447 58.789238 
L 297.317563 54.892915 
L 301.691679 51.074208 
L 306.065795 47.308723 
" style="fill:none;stroke:#ff0000;stroke-dasharray:3,0;stroke-dashoffset:0;stroke-width:1.5;"/>
   </g>
   <g id="line2d_8">
    <path clip-path="url(#p0687ee4eea)" d="M 87.36 82.003075 
L 91.792969 85.305082 
L 96.225938 88.615958 
L 100.658906 91.917965 
L 105.091875 95.528218 
L 109.524844 99.293702 
L 113.957813 103.061405 
L 118.390782 106.829107 
L 122.823751 110.594592 
L 127.256719 114.362294 
L 131.689688 118.129997 
L 136.122657 121.899917 
L 140.555626 125.68536 
L 144.988595 129.492979 
L 149.421564 133.302816 
L 153.854532 147.497674 
L 158.287501 161.510688 
L 162.72047 167.926205 
L 167.153439 169.837776 
L 171.586408 170.511926 
L 176.019377 170.507491 
L 180.452345 170.205898 
L 184.885314 171.183859 
L 189.318283 173.603261 
L 193.751252 176.991754 
L 198.184221 179.393414 
L 202.617189 179.663962 
L 207.050158 177.951974 
L 211.483127 175.607971 
L 215.916096 172.733962 
L 220.349065 170.574019 
L 224.782034 169.906522 
L 229.215002 169.87991 
L 233.647971 169.553923 
L 238.08094 168.465082 
L 242.513909 166.968202 
L 246.946878 165.624336 
L 251.379847 164.189549 
L 255.812815 162.306806 
L 260.245784 159.619075 
L 264.678753 156.199536 
L 269.111722 148.089773 
L 273.544691 137.498515 
L 277.97766 131.22049 
L 282.410628 127.410653 
L 286.843597 123.600816 
L 291.276566 119.786544 
L 295.709535 115.916832 
L 300.142504 112.044902 
L 304.575473 108.17519 
L 309.008441 104.305478 
L 313.44141 100.433549 
L 317.874379 96.563837 
L 322.307348 93.13321 
L 326.740317 90.598493 
L 331.173285 88.482902 
L 335.606254 86.36953 
L 340.039223 84.251722 
" style="fill:none;stroke:#000000;stroke-dasharray:3,0;stroke-dashoffset:0;stroke-width:1.5;"/>
   </g>
   <g id="line2d_9">
    <path clip-path="url(#p0687ee4eea)" d="M 87.36 113.2668 
L 91.775968 116.262778 
L 96.191936 119.260973 
L 100.607905 122.270256 
L 105.023873 125.308368 
L 109.439841 128.34648 
L 113.855809 131.38681 
L 118.271777 134.424922 
L 122.687745 137.334413 
L 127.103714 141.148685 
L 131.519682 144.971827 
L 135.93565 148.79497 
L 140.351618 152.575978 
L 144.767586 156.34368 
L 149.183554 160.111382 
L 153.599523 163.876867 
L 158.015491 167.64457 
L 162.431459 171.412272 
L 166.847427 175.179974 
L 171.263395 180.433469 
L 175.679364 196.034285 
L 180.095332 206.048966 
L 184.5113 212.455613 
L 188.927268 216.178963 
L 193.343236 217.811117 
L 197.759204 217.944173 
L 202.175173 216.877507 
L 206.591141 215.500378 
L 211.007109 215.884022 
L 215.423077 218.456438 
L 219.839045 222.046733 
L 224.255013 225.30217 
L 228.670982 228.180614 
L 233.08695 230.404867 
L 237.502918 231.072365 
L 241.918886 230.063357 
L 246.334854 228.13848 
L 250.750823 226.091635 
L 255.166791 224.251027 
L 259.582759 223.350682 
L 263.998727 223.244237 
L 268.414695 223.04687 
L 272.830663 222.71423 
L 277.246632 220.968979 
L 281.6626 217.802246 
L 286.078568 211.956653 
L 290.494536 194.045098 
L 294.910504 178.36223 
L 299.326473 172.747267 
L 303.742441 168.853162 
L 308.158409 165.005626 
L 312.574377 161.080474 
L 316.990345 157.071053 
L 321.406313 153.092678 
L 325.822282 149.198573 
L 330.23825 145.368778 
L 334.654218 141.483542 
L 339.070186 137.647094 
L 343.486154 134.963798 
L 347.902122 133.16089 
L 352.318091 130.854586 
L 356.734059 128.552717 
L 361.150027 126.255283 
L 365.565995 123.948979 
L 369.981963 121.631587 
L 374.397932 119.320848 
L 378.8139 117.018979 
L 383.229868 114.721546 
L 387.645836 112.430765 
L 392.061804 110.148854 
" style="fill:none;stroke:#ff0000;stroke-dasharray:3,3;stroke-dashoffset:0;stroke-width:1.5;"/>
   </g>
   <g id="line2d_10">
    <path clip-path="url(#p0687ee4eea)" d="M 87.36 170.640547 
L 91.786315 172.678522 
L 96.21263 174.734237 
L 100.638945 176.537146 
L 105.06526 178.763616 
L 109.491575 182.333952 
L 113.91789 186.307891 
L 118.344206 190.297354 
L 122.770521 194.257987 
L 127.196836 198.20088 
L 131.623151 202.165949 
L 136.049466 206.124365 
L 140.475781 210.025123 
L 144.902096 213.959146 
L 149.328411 217.757894 
L 153.754726 224.20224 
L 158.181041 246.81289 
L 162.607356 261.253901 
L 167.033671 265.826592 
L 171.459986 268.744954 
L 175.886302 270.000115 
L 180.312617 269.472326 
L 184.738932 269.075376 
L 189.165247 270.102125 
L 193.591562 273.022704 
L 198.017877 276.985555 
L 202.444192 279.748685 
L 206.870507 280.642378 
L 211.296822 280.553674 
L 215.723137 281.882016 
L 220.149452 283.252493 
L 224.575767 283.611744 
L 229.002083 281.478413 
L 233.428398 277.737322 
L 237.854713 273.251117 
L 242.281028 268.744954 
L 246.707343 265.99513 
L 251.133658 265.179053 
L 255.559973 265.356461 
L 259.986288 266.112662 
L 264.412603 265.691318 
L 268.838918 258.56617 
L 273.265233 238.44145 
L 277.691548 218.622758 
L 282.117863 214.857274 
L 286.544179 211.058525 
L 290.970494 207.124502 
L 295.396809 203.219309 
L 299.823124 199.31855 
L 304.249439 195.404486 
L 308.675754 191.466029 
L 313.102069 187.5564 
L 317.528384 183.657859 
L 321.954699 179.746013 
L 326.381014 177.220166 
L 330.807329 174.335069 
L 335.233644 171.126202 
L 339.659959 167.983862 
L 344.086275 164.865917 
L 348.51259 161.705837 
L 352.938905 158.543539 
" style="fill:none;stroke:#000000;stroke-dasharray:3,3;stroke-dashoffset:0;stroke-width:1.5;"/>
   </g>
   <g id="line2d_11"/>
   <g id="line2d_12"/>
   <g id="line2d_13"/>
   <g id="line2d_14"/>
   <g id="patch_3">
    <path d="M 57.6 307.584 
L 57.6 41.472 
" style="fill:none;stroke:#000000;stroke-linecap:square;stroke-linejoin:miter;stroke-width:0.8;"/>
   </g>
   <g id="patch_4">
    <path d="M 414.72 307.584 
L 414.72 41.472 
" style="fill:none;stroke:#000000;stroke-linecap:square;stroke-linejoin:miter;stroke-width:0.8;"/>
   </g>
   <g id="patch_5">
    <path d="M 57.6 307.584 
L 414.72 307.584 
" style="fill:none;stroke:#000000;stroke-linecap:square;stroke-linejoin:miter;stroke-width:0.8;"/>
   </g>
   <g id="patch_6">
    <path d="M 57.6 41.472 
L 414.72 41.472 
" style="fill:none;stroke:#000000;stroke-linecap:square;stroke-linejoin:miter;stroke-width:0.8;"/>
   </g>
   <g id="legend_1">
    <g id="patch_7">
     <path d="M 64.6 302.584 
L 106.571875 302.584 
Q 108.571875 302.584 108.571875 300.584 
L 108.571875 227.91525 
Q 108.571875 225.91525 106.571875 225.91525 
L 64.6 225.91525 
Q 62.6 225.91525 62.6 227.91525 
L 62.6 300.584 
Q 62.6 302.584 64.6 302.584 
z
" style="fill:#ffffff;opacity:0.8;stroke:#cccccc;stroke-linejoin:miter;"/>
    </g>
    <g id="text_9">
     <!-- LINE_ID -->
     <defs>
      <path d="M 9.8125 72.90625 
L 19.671875 72.90625 
L 19.671875 8.296875 
L 55.171875 8.296875 
L 55.171875 0 
L 9.8125 0 
z
" id="DejaVuSans-76"/>
      <path d="M 9.8125 72.90625 
L 23.09375 72.90625 
L 55.421875 11.921875 
L 55.421875 72.90625 
L 64.984375 72.90625 
L 64.984375 0 
L 51.703125 0 
L 19.390625 60.984375 
L 19.390625 0 
L 9.8125 0 
z
" id="DejaVuSans-78"/>
      <path d="M 9.8125 72.90625 
L 55.90625 72.90625 
L 55.90625 64.59375 
L 19.671875 64.59375 
L 19.671875 43.015625 
L 54.390625 43.015625 
L 54.390625 34.71875 
L 19.671875 34.71875 
L 19.671875 8.296875 
L 56.78125 8.296875 
L 56.78125 0 
L 9.8125 0 
z
" id="DejaVuSans-69"/>
     </defs>
     <g transform="translate(66.6 237.513687)scale(0.1 -0.1)">
      <use xlink:href="#DejaVuSans-76"/>
      <use x="55.712891" xlink:href="#DejaVuSans-73"/>
      <use x="85.205078" xlink:href="#DejaVuSans-78"/>
      <use x="160.009766" xlink:href="#DejaVuSans-69"/>
      <use x="223.193359" xlink:href="#DejaVuSans-95"/>
      <use x="273.193359" xlink:href="#DejaVuSans-73"/>
      <use x="302.685547" xlink:href="#DejaVuSans-68"/>
     </g>
    </g>
    <g id="line2d_15">
     <path d="M 68.404687 248.969937 
L 88.404687 248.969937 
" style="fill:none;stroke:#ff0000;stroke-dasharray:3,0;stroke-dashoffset:0;stroke-width:1.5;"/>
    </g>
    <g id="line2d_16"/>
    <g id="text_10">
     <!-- 0 -->
     <g transform="translate(96.404687 252.469937)scale(0.1 -0.1)">
      <use xlink:href="#DejaVuSans-48"/>
     </g>
    </g>
    <g id="line2d_17">
     <path d="M 68.404687 263.648062 
L 88.404687 263.648062 
" style="fill:none;stroke:#000000;stroke-dasharray:3,0;stroke-dashoffset:0;stroke-width:1.5;"/>
    </g>
    <g id="line2d_18"/>
    <g id="text_11">
     <!-- 1 -->
     <g transform="translate(96.404687 267.148062)scale(0.1 -0.1)">
      <use xlink:href="#DejaVuSans-49"/>
     </g>
    </g>
    <g id="line2d_19">
     <path d="M 68.404687 278.326187 
L 88.404687 278.326187 
" style="fill:none;stroke:#ff0000;stroke-dasharray:3,3;stroke-dashoffset:0;stroke-width:1.5;"/>
    </g>
    <g id="line2d_20"/>
    <g id="text_12">
     <!-- 2 -->
     <g transform="translate(96.404687 281.826187)scale(0.1 -0.1)">
      <use xlink:href="#DejaVuSans-50"/>
     </g>
    </g>
    <g id="line2d_21">
     <path d="M 68.404687 293.004312 
L 88.404687 293.004312 
" style="fill:none;stroke:#000000;stroke-dasharray:3,3;stroke-dashoffset:0;stroke-width:1.5;"/>
    </g>
    <g id="line2d_22"/>
    <g id="text_13">
     <!-- 3 -->
     <defs>
      <path d="M 40.578125 39.3125 
Q 47.65625 37.796875 51.625 33 
Q 55.609375 28.21875 55.609375 21.1875 
Q 55.609375 10.40625 48.1875 4.484375 
Q 40.765625 -1.421875 27.09375 -1.421875 
Q 22.515625 -1.421875 17.65625 -0.515625 
Q 12.796875 0.390625 7.625 2.203125 
L 7.625 11.71875 
Q 11.71875 9.328125 16.59375 8.109375 
Q 21.484375 6.890625 26.8125 6.890625 
Q 36.078125 6.890625 40.9375 10.546875 
Q 45.796875 14.203125 45.796875 21.1875 
Q 45.796875 27.640625 41.28125 31.265625 
Q 36.765625 34.90625 28.71875 34.90625 
L 20.21875 34.90625 
L 20.21875 43.015625 
L 29.109375 43.015625 
Q 36.375 43.015625 40.234375 45.921875 
Q 44.09375 48.828125 44.09375 54.296875 
Q 44.09375 59.90625 40.109375 62.90625 
Q 36.140625 65.921875 28.71875 65.921875 
Q 24.65625 65.921875 20.015625 65.03125 
Q 15.375 64.15625 9.8125 62.3125 
L 9.8125 71.09375 
Q 15.4375 72.65625 20.34375 73.4375 
Q 25.25 74.21875 29.59375 74.21875 
Q 40.828125 74.21875 47.359375 69.109375 
Q 53.90625 64.015625 53.90625 55.328125 
Q 53.90625 49.265625 50.4375 45.09375 
Q 46.96875 40.921875 40.578125 39.3125 
z
" id="DejaVuSans-51"/>
     </defs>
     <g transform="translate(96.404687 296.504312)scale(0.1 -0.1)">
      <use xlink:href="#DejaVuSans-51"/>
     </g>
    </g>
   </g>
  </g>
 </g>
 <defs>
  <clipPath id="p0687ee4eea">
   <rect height="266.112" width="357.12" x="57.6" y="41.472"/>
  </clipPath>
 </defs>
</svg>
