<?xml version="1.0" encoding="utf-8" standalone="no"?>
<!DOCTYPE svg PUBLIC "-//W3C//DTD SVG 1.1//EN"
  "http://www.w3.org/Graphics/SVG/1.1/DTD/svg11.dtd">
<!-- Created with matplotlib (https://matplotlib.org/) -->
<svg height="345.6pt" version="1.1" viewBox="0 0 460.8 345.6" width="460.8pt" xmlns="http://www.w3.org/2000/svg" xmlns:xlink="http://www.w3.org/1999/xlink">
 <defs>
  <style type="text/css">
*{stroke-linecap:butt;stroke-linejoin:round;}
  </style>
 </defs>
 <g id="figure_1">
  <g id="patch_1">
   <path d="M 0 345.6 
L 460.8 345.6 
L 460.8 0 
L 0 0 
z
" style="fill:#ffffff;"/>
  </g>
  <g id="axes_1">
   <g id="patch_2">
    <path d="M 57.6 307.584 
L 414.72 307.584 
L 414.72 41.472 
L 57.6 41.472 
z
" style="fill:#ffffff;"/>
   </g>
   <g id="matplotlib.axis_1">
    <g id="xtick_1">
     <g id="line2d_1">
      <defs>
       <path d="M 0 0 
L 0 3.5 
" id="m46e99d4ca9" style="stroke:#000000;stroke-width:0.8;"/>
      </defs>
      <g>
       <use style="stroke:#000000;stroke-width:0.8;" x="73.832727" xlink:href="#m46e99d4ca9" y="307.584"/>
      </g>
     </g>
     <g id="text_1">
      <!-- 0.0 -->
      <defs>
       <path d="M 31.78125 66.40625 
Q 24.171875 66.40625 20.328125 58.90625 
Q 16.5 51.421875 16.5 36.375 
Q 16.5 21.390625 20.328125 13.890625 
Q 24.171875 6.390625 31.78125 6.390625 
Q 39.453125 6.390625 43.28125 13.890625 
Q 47.125 21.390625 47.125 36.375 
Q 47.125 51.421875 43.28125 58.90625 
Q 39.453125 66.40625 31.78125 66.40625 
z
M 31.78125 74.21875 
Q 44.046875 74.21875 50.515625 64.515625 
Q 56.984375 54.828125 56.984375 36.375 
Q 56.984375 17.96875 50.515625 8.265625 
Q 44.046875 -1.421875 31.78125 -1.421875 
Q 19.53125 -1.421875 13.0625 8.265625 
Q 6.59375 17.96875 6.59375 36.375 
Q 6.59375 54.828125 13.0625 64.515625 
Q 19.53125 74.21875 31.78125 74.21875 
z
" id="DejaVuSans-48"/>
       <path d="M 10.6875 12.40625 
L 21 12.40625 
L 21 0 
L 10.6875 0 
z
" id="DejaVuSans-46"/>
      </defs>
      <g transform="translate(61.905384 325.981656)scale(0.15 -0.15)">
       <use xlink:href="#DejaVuSans-48"/>
       <use x="63.623047" xlink:href="#DejaVuSans-46"/>
       <use x="95.410156" xlink:href="#DejaVuSans-48"/>
      </g>
     </g>
    </g>
    <g id="xtick_2">
     <g id="line2d_2">
      <g>
       <use style="stroke:#000000;stroke-width:0.8;" x="138.763636" xlink:href="#m46e99d4ca9" y="307.584"/>
      </g>
     </g>
     <g id="text_2">
      <!-- 0.2 -->
      <defs>
       <path d="M 19.1875 8.296875 
L 53.609375 8.296875 
L 53.609375 0 
L 7.328125 0 
L 7.328125 8.296875 
Q 12.9375 14.109375 22.625 23.890625 
Q 32.328125 33.6875 34.8125 36.53125 
Q 39.546875 41.84375 41.421875 45.53125 
Q 43.3125 49.21875 43.3125 52.78125 
Q 43.3125 58.59375 39.234375 62.25 
Q 35.15625 65.921875 28.609375 65.921875 
Q 23.96875 65.921875 18.8125 64.3125 
Q 13.671875 62.703125 7.8125 59.421875 
L 7.8125 69.390625 
Q 13.765625 71.78125 18.9375 73 
Q 24.125 74.21875 28.421875 74.21875 
Q 39.75 74.21875 46.484375 68.546875 
Q 53.21875 62.890625 53.21875 53.421875 
Q 53.21875 48.921875 51.53125 44.890625 
Q 49.859375 40.875 45.40625 35.40625 
Q 44.1875 33.984375 37.640625 27.21875 
Q 31.109375 20.453125 19.1875 8.296875 
z
" id="DejaVuSans-50"/>
      </defs>
      <g transform="translate(126.836293 325.981656)scale(0.15 -0.15)">
       <use xlink:href="#DejaVuSans-48"/>
       <use x="63.623047" xlink:href="#DejaVuSans-46"/>
       <use x="95.410156" xlink:href="#DejaVuSans-50"/>
      </g>
     </g>
    </g>
    <g id="xtick_3">
     <g id="line2d_3">
      <g>
       <use style="stroke:#000000;stroke-width:0.8;" x="203.694545" xlink:href="#m46e99d4ca9" y="307.584"/>
      </g>
     </g>
     <g id="text_3">
      <!-- 0.4 -->
      <defs>
       <path d="M 37.796875 64.3125 
L 12.890625 25.390625 
L 37.796875 25.390625 
z
M 35.203125 72.90625 
L 47.609375 72.90625 
L 47.609375 25.390625 
L 58.015625 25.390625 
L 58.015625 17.1875 
L 47.609375 17.1875 
L 47.609375 0 
L 37.796875 0 
L 37.796875 17.1875 
L 4.890625 17.1875 
L 4.890625 26.703125 
z
" id="DejaVuSans-52"/>
      </defs>
      <g transform="translate(191.767202 325.981656)scale(0.15 -0.15)">
       <use xlink:href="#DejaVuSans-48"/>
       <use x="63.623047" xlink:href="#DejaVuSans-46"/>
       <use x="95.410156" xlink:href="#DejaVuSans-52"/>
      </g>
     </g>
    </g>
    <g id="xtick_4">
     <g id="line2d_4">
      <g>
       <use style="stroke:#000000;stroke-width:0.8;" x="268.625455" xlink:href="#m46e99d4ca9" y="307.584"/>
      </g>
     </g>
     <g id="text_4">
      <!-- 0.6 -->
      <defs>
       <path d="M 33.015625 40.375 
Q 26.375 40.375 22.484375 35.828125 
Q 18.609375 31.296875 18.609375 23.390625 
Q 18.609375 15.53125 22.484375 10.953125 
Q 26.375 6.390625 33.015625 6.390625 
Q 39.65625 6.390625 43.53125 10.953125 
Q 47.40625 15.53125 47.40625 23.390625 
Q 47.40625 31.296875 43.53125 35.828125 
Q 39.65625 40.375 33.015625 40.375 
z
M 52.59375 71.296875 
L 52.59375 62.3125 
Q 48.875 64.0625 45.09375 64.984375 
Q 41.3125 65.921875 37.59375 65.921875 
Q 27.828125 65.921875 22.671875 59.328125 
Q 17.53125 52.734375 16.796875 39.40625 
Q 19.671875 43.65625 24.015625 45.921875 
Q 28.375 48.1875 33.59375 48.1875 
Q 44.578125 48.1875 50.953125 41.515625 
Q 57.328125 34.859375 57.328125 23.390625 
Q 57.328125 12.15625 50.6875 5.359375 
Q 44.046875 -1.421875 33.015625 -1.421875 
Q 20.359375 -1.421875 13.671875 8.265625 
Q 6.984375 17.96875 6.984375 36.375 
Q 6.984375 53.65625 15.1875 63.9375 
Q 23.390625 74.21875 37.203125 74.21875 
Q 40.921875 74.21875 44.703125 73.484375 
Q 48.484375 72.75 52.59375 71.296875 
z
" id="DejaVuSans-54"/>
      </defs>
      <g transform="translate(256.698111 325.981656)scale(0.15 -0.15)">
       <use xlink:href="#DejaVuSans-48"/>
       <use x="63.623047" xlink:href="#DejaVuSans-46"/>
       <use x="95.410156" xlink:href="#DejaVuSans-54"/>
      </g>
     </g>
    </g>
    <g id="xtick_5">
     <g id="line2d_5">
      <g>
       <use style="stroke:#000000;stroke-width:0.8;" x="333.556364" xlink:href="#m46e99d4ca9" y="307.584"/>
      </g>
     </g>
     <g id="text_5">
      <!-- 0.8 -->
      <defs>
       <path d="M 31.78125 34.625 
Q 24.75 34.625 20.71875 30.859375 
Q 16.703125 27.09375 16.703125 20.515625 
Q 16.703125 13.921875 20.71875 10.15625 
Q 24.75 6.390625 31.78125 6.390625 
Q 38.8125 6.390625 42.859375 10.171875 
Q 46.921875 13.96875 46.921875 20.515625 
Q 46.921875 27.09375 42.890625 30.859375 
Q 38.875 34.625 31.78125 34.625 
z
M 21.921875 38.8125 
Q 15.578125 40.375 12.03125 44.71875 
Q 8.5 49.078125 8.5 55.328125 
Q 8.5 64.0625 14.71875 69.140625 
Q 20.953125 74.21875 31.78125 74.21875 
Q 42.671875 74.21875 48.875 69.140625 
Q 55.078125 64.0625 55.078125 55.328125 
Q 55.078125 49.078125 51.53125 44.71875 
Q 48 40.375 41.703125 38.8125 
Q 48.828125 37.15625 52.796875 32.3125 
Q 56.78125 27.484375 56.78125 20.515625 
Q 56.78125 9.90625 50.3125 4.234375 
Q 43.84375 -1.421875 31.78125 -1.421875 
Q 19.734375 -1.421875 13.25 4.234375 
Q 6.78125 9.90625 6.78125 20.515625 
Q 6.78125 27.484375 10.78125 32.3125 
Q 14.796875 37.15625 21.921875 38.8125 
z
M 18.3125 54.390625 
Q 18.3125 48.734375 21.84375 45.5625 
Q 25.390625 42.390625 31.78125 42.390625 
Q 38.140625 42.390625 41.71875 45.5625 
Q 45.3125 48.734375 45.3125 54.390625 
Q 45.3125 60.0625 41.71875 63.234375 
Q 38.140625 66.40625 31.78125 66.40625 
Q 25.390625 66.40625 21.84375 63.234375 
Q 18.3125 60.0625 18.3125 54.390625 
z
" id="DejaVuSans-56"/>
      </defs>
      <g transform="translate(321.62902 325.981656)scale(0.15 -0.15)">
       <use xlink:href="#DejaVuSans-48"/>
       <use x="63.623047" xlink:href="#DejaVuSans-46"/>
       <use x="95.410156" xlink:href="#DejaVuSans-56"/>
      </g>
     </g>
    </g>
    <g id="xtick_6">
     <g id="line2d_6">
      <g>
       <use style="stroke:#000000;stroke-width:0.8;" x="398.487273" xlink:href="#m46e99d4ca9" y="307.584"/>
      </g>
     </g>
     <g id="text_6">
      <!-- 1.0 -->
      <defs>
       <path d="M 12.40625 8.296875 
L 28.515625 8.296875 
L 28.515625 63.921875 
L 10.984375 60.40625 
L 10.984375 69.390625 
L 28.421875 72.90625 
L 38.28125 72.90625 
L 38.28125 8.296875 
L 54.390625 8.296875 
L 54.390625 0 
L 12.40625 0 
z
" id="DejaVuSans-49"/>
      </defs>
      <g transform="translate(386.559929 325.981656)scale(0.15 -0.15)">
       <use xlink:href="#DejaVuSans-49"/>
       <use x="63.623047" xlink:href="#DejaVuSans-46"/>
       <use x="95.410156" xlink:href="#DejaVuSans-48"/>
      </g>
     </g>
    </g>
    <g id="text_7">
     <!-- Q / Q$_{bf}$ -->
     <defs>
      <path d="M 39.40625 66.21875 
Q 28.65625 66.21875 22.328125 58.203125 
Q 16.015625 50.203125 16.015625 36.375 
Q 16.015625 22.609375 22.328125 14.59375 
Q 28.65625 6.59375 39.40625 6.59375 
Q 50.140625 6.59375 56.421875 14.59375 
Q 62.703125 22.609375 62.703125 36.375 
Q 62.703125 50.203125 56.421875 58.203125 
Q 50.140625 66.21875 39.40625 66.21875 
z
M 53.21875 1.3125 
L 66.21875 -12.890625 
L 54.296875 -12.890625 
L 43.5 -1.21875 
Q 41.890625 -1.3125 41.03125 -1.359375 
Q 40.1875 -1.421875 39.40625 -1.421875 
Q 24.03125 -1.421875 14.8125 8.859375 
Q 5.609375 19.140625 5.609375 36.375 
Q 5.609375 53.65625 14.8125 63.9375 
Q 24.03125 74.21875 39.40625 74.21875 
Q 54.734375 74.21875 63.90625 63.9375 
Q 73.09375 53.65625 73.09375 36.375 
Q 73.09375 23.6875 67.984375 14.640625 
Q 62.890625 5.609375 53.21875 1.3125 
z
" id="DejaVuSans-81"/>
      <path id="DejaVuSans-32"/>
      <path d="M 25.390625 72.90625 
L 33.6875 72.90625 
L 8.296875 -9.28125 
L 0 -9.28125 
z
" id="DejaVuSans-47"/>
      <path d="M 49.515625 33.40625 
Q 49.515625 40.484375 46.265625 44.484375 
Q 43.015625 48.484375 37.3125 48.484375 
Q 33.15625 48.484375 29.515625 46.453125 
Q 25.875 44.4375 23.1875 40.578125 
Q 20.359375 36.53125 18.71875 31.171875 
Q 17.09375 25.828125 17.09375 20.515625 
Q 17.09375 13.765625 20.28125 9.9375 
Q 23.484375 6.109375 29.109375 6.109375 
Q 33.34375 6.109375 36.953125 8.078125 
Q 40.578125 10.0625 43.3125 13.921875 
Q 46.09375 17.921875 47.796875 23.234375 
Q 49.515625 28.5625 49.515625 33.40625 
z
M 21.578125 46.390625 
Q 24.90625 50.875 29.90625 53.4375 
Q 34.90625 56 40.375 56 
Q 48.78125 56 53.734375 50.328125 
Q 58.6875 44.671875 58.6875 35.015625 
Q 58.6875 27.09375 55.78125 19.671875 
Q 52.875 12.25 47.515625 6.5 
Q 44 2.6875 39.40625 0.625 
Q 34.8125 -1.421875 29.78125 -1.421875 
Q 24.46875 -1.421875 20.5625 1.015625 
Q 16.65625 3.46875 14.203125 8.296875 
L 12.59375 0 
L 3.609375 0 
L 18.40625 75.984375 
L 27.390625 75.984375 
z
" id="DejaVuSans-Oblique-98"/>
      <path d="M 47.796875 75.984375 
L 46.390625 68.5 
L 37.796875 68.5 
Q 32.90625 68.5 30.6875 66.578125 
Q 28.46875 64.65625 27.390625 59.515625 
L 26.421875 54.6875 
L 41.21875 54.6875 
L 39.890625 47.703125 
L 25.09375 47.703125 
L 15.828125 0 
L 6.78125 0 
L 16.109375 47.703125 
L 7.515625 47.703125 
L 8.796875 54.6875 
L 17.390625 54.6875 
L 18.109375 58.5 
Q 19.96875 68.171875 24.625 72.078125 
Q 29.296875 75.984375 39.3125 75.984375 
z
" id="DejaVuSans-Oblique-102"/>
     </defs>
     <g transform="translate(208.28 346.018531)scale(0.17 -0.17)">
      <use transform="translate(0 0.78125)" xlink:href="#DejaVuSans-81"/>
      <use transform="translate(78.710938 0.78125)" xlink:href="#DejaVuSans-32"/>
      <use transform="translate(110.498047 0.78125)" xlink:href="#DejaVuSans-47"/>
      <use transform="translate(144.189453 0.78125)" xlink:href="#DejaVuSans-32"/>
      <use transform="translate(175.976562 0.78125)" xlink:href="#DejaVuSans-81"/>
      <use transform="translate(255.644531 -15.625)scale(0.7)" xlink:href="#DejaVuSans-Oblique-98"/>
      <use transform="translate(300.078125 -15.625)scale(0.7)" xlink:href="#DejaVuSans-Oblique-102"/>
     </g>
    </g>
   </g>
   <g id="matplotlib.axis_2">
    <g id="ytick_1">
     <g id="line2d_7">
      <defs>
       <path d="M 0 0 
L -3.5 0 
" id="md4fb95095e" style="stroke:#000000;stroke-width:0.8;"/>
      </defs>
      <g>
       <use style="stroke:#000000;stroke-width:0.8;" x="57.6" xlink:href="#md4fb95095e" y="295.488"/>
      </g>
     </g>
     <g id="text_8">
      <!-- 0.00 -->
      <g transform="translate(17.201563 301.186828)scale(0.15 -0.15)">
       <use xlink:href="#DejaVuSans-48"/>
       <use x="63.623047" xlink:href="#DejaVuSans-46"/>
       <use x="95.410156" xlink:href="#DejaVuSans-48"/>
       <use x="159.033203" xlink:href="#DejaVuSans-48"/>
      </g>
     </g>
    </g>
    <g id="ytick_2">
     <g id="line2d_8">
      <g>
       <use style="stroke:#000000;stroke-width:0.8;" x="57.6" xlink:href="#md4fb95095e" y="242.773214"/>
      </g>
     </g>
     <g id="text_9">
      <!-- 0.02 -->
      <g transform="translate(17.201563 248.472042)scale(0.15 -0.15)">
       <use xlink:href="#DejaVuSans-48"/>
       <use x="63.623047" xlink:href="#DejaVuSans-46"/>
       <use x="95.410156" xlink:href="#DejaVuSans-48"/>
       <use x="159.033203" xlink:href="#DejaVuSans-50"/>
      </g>
     </g>
    </g>
    <g id="ytick_3">
     <g id="line2d_9">
      <g>
       <use style="stroke:#000000;stroke-width:0.8;" x="57.6" xlink:href="#md4fb95095e" y="190.058428"/>
      </g>
     </g>
     <g id="text_10">
      <!-- 0.04 -->
      <g transform="translate(17.201563 195.757256)scale(0.15 -0.15)">
       <use xlink:href="#DejaVuSans-48"/>
       <use x="63.623047" xlink:href="#DejaVuSans-46"/>
       <use x="95.410156" xlink:href="#DejaVuSans-48"/>
       <use x="159.033203" xlink:href="#DejaVuSans-52"/>
      </g>
     </g>
    </g>
    <g id="ytick_4">
     <g id="line2d_10">
      <g>
       <use style="stroke:#000000;stroke-width:0.8;" x="57.6" xlink:href="#md4fb95095e" y="137.343641"/>
      </g>
     </g>
     <g id="text_11">
      <!-- 0.06 -->
      <g transform="translate(17.201563 143.04247)scale(0.15 -0.15)">
       <use xlink:href="#DejaVuSans-48"/>
       <use x="63.623047" xlink:href="#DejaVuSans-46"/>
       <use x="95.410156" xlink:href="#DejaVuSans-48"/>
       <use x="159.033203" xlink:href="#DejaVuSans-54"/>
      </g>
     </g>
    </g>
    <g id="ytick_5">
     <g id="line2d_11">
      <g>
       <use style="stroke:#000000;stroke-width:0.8;" x="57.6" xlink:href="#md4fb95095e" y="84.628855"/>
      </g>
     </g>
     <g id="text_12">
      <!-- 0.08 -->
      <g transform="translate(17.201563 90.327683)scale(0.15 -0.15)">
       <use xlink:href="#DejaVuSans-48"/>
       <use x="63.623047" xlink:href="#DejaVuSans-46"/>
       <use x="95.410156" xlink:href="#DejaVuSans-48"/>
       <use x="159.033203" xlink:href="#DejaVuSans-56"/>
      </g>
     </g>
    </g>
    <g id="text_13">
     <!-- Habitat area / A$_{bf}$ -->
     <defs>
      <path d="M 9.8125 72.90625 
L 19.671875 72.90625 
L 19.671875 43.015625 
L 55.515625 43.015625 
L 55.515625 72.90625 
L 65.375 72.90625 
L 65.375 0 
L 55.515625 0 
L 55.515625 34.71875 
L 19.671875 34.71875 
L 19.671875 0 
L 9.8125 0 
z
" id="DejaVuSans-72"/>
      <path d="M 34.28125 27.484375 
Q 23.390625 27.484375 19.1875 25 
Q 14.984375 22.515625 14.984375 16.5 
Q 14.984375 11.71875 18.140625 8.90625 
Q 21.296875 6.109375 26.703125 6.109375 
Q 34.1875 6.109375 38.703125 11.40625 
Q 43.21875 16.703125 43.21875 25.484375 
L 43.21875 27.484375 
z
M 52.203125 31.203125 
L 52.203125 0 
L 43.21875 0 
L 43.21875 8.296875 
Q 40.140625 3.328125 35.546875 0.953125 
Q 30.953125 -1.421875 24.3125 -1.421875 
Q 15.921875 -1.421875 10.953125 3.296875 
Q 6 8.015625 6 15.921875 
Q 6 25.140625 12.171875 29.828125 
Q 18.359375 34.515625 30.609375 34.515625 
L 43.21875 34.515625 
L 43.21875 35.40625 
Q 43.21875 41.609375 39.140625 45 
Q 35.0625 48.390625 27.6875 48.390625 
Q 23 48.390625 18.546875 47.265625 
Q 14.109375 46.140625 10.015625 43.890625 
L 10.015625 52.203125 
Q 14.9375 54.109375 19.578125 55.046875 
Q 24.21875 56 28.609375 56 
Q 40.484375 56 46.34375 49.84375 
Q 52.203125 43.703125 52.203125 31.203125 
z
" id="DejaVuSans-97"/>
      <path d="M 48.6875 27.296875 
Q 48.6875 37.203125 44.609375 42.84375 
Q 40.53125 48.484375 33.40625 48.484375 
Q 26.265625 48.484375 22.1875 42.84375 
Q 18.109375 37.203125 18.109375 27.296875 
Q 18.109375 17.390625 22.1875 11.75 
Q 26.265625 6.109375 33.40625 6.109375 
Q 40.53125 6.109375 44.609375 11.75 
Q 48.6875 17.390625 48.6875 27.296875 
z
M 18.109375 46.390625 
Q 20.953125 51.265625 25.265625 53.625 
Q 29.59375 56 35.59375 56 
Q 45.5625 56 51.78125 48.09375 
Q 58.015625 40.1875 58.015625 27.296875 
Q 58.015625 14.40625 51.78125 6.484375 
Q 45.5625 -1.421875 35.59375 -1.421875 
Q 29.59375 -1.421875 25.265625 0.953125 
Q 20.953125 3.328125 18.109375 8.203125 
L 18.109375 0 
L 9.078125 0 
L 9.078125 75.984375 
L 18.109375 75.984375 
z
" id="DejaVuSans-98"/>
      <path d="M 9.421875 54.6875 
L 18.40625 54.6875 
L 18.40625 0 
L 9.421875 0 
z
M 9.421875 75.984375 
L 18.40625 75.984375 
L 18.40625 64.59375 
L 9.421875 64.59375 
z
" id="DejaVuSans-105"/>
      <path d="M 18.3125 70.21875 
L 18.3125 54.6875 
L 36.8125 54.6875 
L 36.8125 47.703125 
L 18.3125 47.703125 
L 18.3125 18.015625 
Q 18.3125 11.328125 20.140625 9.421875 
Q 21.96875 7.515625 27.59375 7.515625 
L 36.8125 7.515625 
L 36.8125 0 
L 27.59375 0 
Q 17.1875 0 13.234375 3.875 
Q 9.28125 7.765625 9.28125 18.015625 
L 9.28125 47.703125 
L 2.6875 47.703125 
L 2.6875 54.6875 
L 9.28125 54.6875 
L 9.28125 70.21875 
z
" id="DejaVuSans-116"/>
      <path d="M 41.109375 46.296875 
Q 39.59375 47.171875 37.8125 47.578125 
Q 36.03125 48 33.890625 48 
Q 26.265625 48 22.1875 43.046875 
Q 18.109375 38.09375 18.109375 28.8125 
L 18.109375 0 
L 9.078125 0 
L 9.078125 54.6875 
L 18.109375 54.6875 
L 18.109375 46.1875 
Q 20.953125 51.171875 25.484375 53.578125 
Q 30.03125 56 36.53125 56 
Q 37.453125 56 38.578125 55.875 
Q 39.703125 55.765625 41.0625 55.515625 
z
" id="DejaVuSans-114"/>
      <path d="M 56.203125 29.59375 
L 56.203125 25.203125 
L 14.890625 25.203125 
Q 15.484375 15.921875 20.484375 11.0625 
Q 25.484375 6.203125 34.421875 6.203125 
Q 39.59375 6.203125 44.453125 7.46875 
Q 49.3125 8.734375 54.109375 11.28125 
L 54.109375 2.78125 
Q 49.265625 0.734375 44.1875 -0.34375 
Q 39.109375 -1.421875 33.890625 -1.421875 
Q 20.796875 -1.421875 13.15625 6.1875 
Q 5.515625 13.8125 5.515625 26.8125 
Q 5.515625 40.234375 12.765625 48.109375 
Q 20.015625 56 32.328125 56 
Q 43.359375 56 49.78125 48.890625 
Q 56.203125 41.796875 56.203125 29.59375 
z
M 47.21875 32.234375 
Q 47.125 39.59375 43.09375 43.984375 
Q 39.0625 48.390625 32.421875 48.390625 
Q 24.90625 48.390625 20.390625 44.140625 
Q 15.875 39.890625 15.1875 32.171875 
z
" id="DejaVuSans-101"/>
      <path d="M 34.1875 63.1875 
L 20.796875 26.90625 
L 47.609375 26.90625 
z
M 28.609375 72.90625 
L 39.796875 72.90625 
L 67.578125 0 
L 57.328125 0 
L 50.6875 18.703125 
L 17.828125 18.703125 
L 11.1875 0 
L 0.78125 0 
z
" id="DejaVuSans-65"/>
     </defs>
     <g transform="translate(9.666094 247.883)rotate(-90)scale(0.17 -0.17)">
      <use transform="translate(0 0.015625)" xlink:href="#DejaVuSans-72"/>
      <use transform="translate(75.195312 0.015625)" xlink:href="#DejaVuSans-97"/>
      <use transform="translate(136.474609 0.015625)" xlink:href="#DejaVuSans-98"/>
      <use transform="translate(199.951172 0.015625)" xlink:href="#DejaVuSans-105"/>
      <use transform="translate(227.734375 0.015625)" xlink:href="#DejaVuSans-116"/>
      <use transform="translate(266.943359 0.015625)" xlink:href="#DejaVuSans-97"/>
      <use transform="translate(328.222656 0.015625)" xlink:href="#DejaVuSans-116"/>
      <use transform="translate(367.431641 0.015625)" xlink:href="#DejaVuSans-32"/>
      <use transform="translate(399.21875 0.015625)" xlink:href="#DejaVuSans-97"/>
      <use transform="translate(460.498047 0.015625)" xlink:href="#DejaVuSans-114"/>
      <use transform="translate(501.611328 0.015625)" xlink:href="#DejaVuSans-101"/>
      <use transform="translate(563.134766 0.015625)" xlink:href="#DejaVuSans-97"/>
      <use transform="translate(624.414062 0.015625)" xlink:href="#DejaVuSans-32"/>
      <use transform="translate(656.201172 0.015625)" xlink:href="#DejaVuSans-47"/>
      <use transform="translate(689.892578 0.015625)" xlink:href="#DejaVuSans-32"/>
      <use transform="translate(721.679688 0.015625)" xlink:href="#DejaVuSans-65"/>
      <use transform="translate(791.044922 -16.390625)scale(0.7)" xlink:href="#DejaVuSans-Oblique-98"/>
      <use transform="translate(835.478516 -16.390625)scale(0.7)" xlink:href="#DejaVuSans-Oblique-102"/>
     </g>
    </g>
   </g>
   <g id="line2d_12">
    <path clip-path="url(#p99dd11858e)" d="M 398.487273 187.129421 
L 267.582973 214.383911 
L 181.173172 229.329922 
L 149.669177 213.944323 
L 122.054231 186.250244 
L 100.124317 121.191138 
L 91.441476 91.958499 
L 84.419582 71.297836 
L 79.436738 106.684715 
L 77.154623 151.742542 
L 75.979806 181.634564 
L 75.048055 203.174403 
L 73.940756 231.747659 
L 73.832727 295.488 
" style="fill:none;"/>
    <defs>
     <path d="M 0 3 
C 0.795609 3 1.55874 2.683901 2.12132 2.12132 
C 2.683901 1.55874 3 0.795609 3 0 
C 3 -0.795609 2.683901 -1.55874 2.12132 -2.12132 
C 1.55874 -2.683901 0.795609 -3 0 -3 
C -0.795609 -3 -1.55874 -2.683901 -2.12132 -2.12132 
C -2.683901 -1.55874 -3 -0.795609 -3 0 
C -3 0.795609 -2.683901 1.55874 -2.12132 2.12132 
C -1.55874 2.683901 -0.795609 3 0 3 
z
" id="mbeadf3b5eb" style="stroke:#ff7f0e;"/>
    </defs>
    <g clip-path="url(#p99dd11858e)">
     <use style="fill:#ff7f0e;stroke:#ff7f0e;" x="398.487273" xlink:href="#mbeadf3b5eb" y="187.129421"/>
     <use style="fill:#ff7f0e;stroke:#ff7f0e;" x="267.582973" xlink:href="#mbeadf3b5eb" y="214.383911"/>
     <use style="fill:#ff7f0e;stroke:#ff7f0e;" x="181.173172" xlink:href="#mbeadf3b5eb" y="229.329922"/>
     <use style="fill:#ff7f0e;stroke:#ff7f0e;" x="149.669177" xlink:href="#mbeadf3b5eb" y="213.944323"/>
     <use style="fill:#ff7f0e;stroke:#ff7f0e;" x="122.054231" xlink:href="#mbeadf3b5eb" y="186.250244"/>
     <use style="fill:#ff7f0e;stroke:#ff7f0e;" x="100.124317" xlink:href="#mbeadf3b5eb" y="121.191138"/>
     <use style="fill:#ff7f0e;stroke:#ff7f0e;" x="91.441476" xlink:href="#mbeadf3b5eb" y="91.958499"/>
     <use style="fill:#ff7f0e;stroke:#ff7f0e;" x="84.419582" xlink:href="#mbeadf3b5eb" y="71.297836"/>
     <use style="fill:#ff7f0e;stroke:#ff7f0e;" x="79.436738" xlink:href="#mbeadf3b5eb" y="106.684715"/>
     <use style="fill:#ff7f0e;stroke:#ff7f0e;" x="77.154623" xlink:href="#mbeadf3b5eb" y="151.742542"/>
     <use style="fill:#ff7f0e;stroke:#ff7f0e;" x="75.979806" xlink:href="#mbeadf3b5eb" y="181.634564"/>
     <use style="fill:#ff7f0e;stroke:#ff7f0e;" x="75.048055" xlink:href="#mbeadf3b5eb" y="203.174403"/>
     <use style="fill:#ff7f0e;stroke:#ff7f0e;" x="73.940756" xlink:href="#mbeadf3b5eb" y="231.747659"/>
     <use style="fill:#ff7f0e;stroke:#ff7f0e;" x="73.832727" xlink:href="#mbeadf3b5eb" y="295.488"/>
    </g>
   </g>
   <g id="line2d_13">
    <path clip-path="url(#p99dd11858e)" d="M 73.832727 295.488 
L 74.02752 229.508771 
L 76.981876 156.137906 
L 77.631185 142.333348 
L 79.579113 105.673609 
L 84.416465 71.31997 
L 84.481396 71.479714 
L 92.24064 94.649056 
L 101.071244 124.000369 
L 122.206255 186.402703 
L 149.964218 214.088412 
L 181.358313 229.297899 
L 270.768175 213.720747 
L 398.487273 187.129421 
L 398.487273 187.129421 
" style="fill:none;stroke:#ff7f0e;stroke-linecap:square;stroke-width:3;"/>
   </g>
   <g id="line2d_14">
    <path clip-path="url(#p99dd11858e)" d="M 398.487273 284.822852 
L 267.582973 284.061056 
L 181.173172 284.314988 
L 149.669177 284.061056 
L 122.054231 285.838581 
L 100.124317 288.123969 
L 91.441476 289.647562 
L 84.419582 291.932951 
L 79.436738 295.488 
L 77.154623 295.488 
L 75.979806 295.488 
L 75.048055 295.488 
L 73.940756 295.488 
L 73.832727 295.488 
" style="fill:none;"/>
    <defs>
     <path d="M 0 3 
C 0.795609 3 1.55874 2.683901 2.12132 2.12132 
C 2.683901 1.55874 3 0.795609 3 0 
C 3 -0.795609 2.683901 -1.55874 2.12132 -2.12132 
C 1.55874 -2.683901 0.795609 -3 0 -3 
C -0.795609 -3 -1.55874 -2.683901 -2.12132 -2.12132 
C -2.683901 -1.55874 -3 -0.795609 -3 0 
C -3 0.795609 -2.683901 1.55874 -2.12132 2.12132 
C -1.55874 2.683901 -0.795609 3 0 3 
z
" id="ma596bf56ea" style="stroke:#1f77b4;"/>
    </defs>
    <g clip-path="url(#p99dd11858e)">
     <use style="fill:#1f77b4;stroke:#1f77b4;" x="398.487273" xlink:href="#ma596bf56ea" y="284.822852"/>
     <use style="fill:#1f77b4;stroke:#1f77b4;" x="267.582973" xlink:href="#ma596bf56ea" y="284.061056"/>
     <use style="fill:#1f77b4;stroke:#1f77b4;" x="181.173172" xlink:href="#ma596bf56ea" y="284.314988"/>
     <use style="fill:#1f77b4;stroke:#1f77b4;" x="149.669177" xlink:href="#ma596bf56ea" y="284.061056"/>
     <use style="fill:#1f77b4;stroke:#1f77b4;" x="122.054231" xlink:href="#ma596bf56ea" y="285.838581"/>
     <use style="fill:#1f77b4;stroke:#1f77b4;" x="100.124317" xlink:href="#ma596bf56ea" y="288.123969"/>
     <use style="fill:#1f77b4;stroke:#1f77b4;" x="91.441476" xlink:href="#ma596bf56ea" y="289.647562"/>
     <use style="fill:#1f77b4;stroke:#1f77b4;" x="84.419582" xlink:href="#ma596bf56ea" y="291.932951"/>
     <use style="fill:#1f77b4;stroke:#1f77b4;" x="79.436738" xlink:href="#ma596bf56ea" y="295.488"/>
     <use style="fill:#1f77b4;stroke:#1f77b4;" x="77.154623" xlink:href="#ma596bf56ea" y="295.488"/>
     <use style="fill:#1f77b4;stroke:#1f77b4;" x="75.979806" xlink:href="#ma596bf56ea" y="295.488"/>
     <use style="fill:#1f77b4;stroke:#1f77b4;" x="75.048055" xlink:href="#ma596bf56ea" y="295.488"/>
     <use style="fill:#1f77b4;stroke:#1f77b4;" x="73.940756" xlink:href="#ma596bf56ea" y="295.488"/>
     <use style="fill:#1f77b4;stroke:#1f77b4;" x="73.832727" xlink:href="#ma596bf56ea" y="295.488"/>
    </g>
   </g>
   <g id="line2d_15">
    <path clip-path="url(#p99dd11858e)" d="M 73.832727 295.488 
L 79.579113 295.386422 
L 84.74112 291.828301 
L 92.208175 289.513028 
L 101.688087 287.961004 
L 124.835956 285.659526 
L 151.197905 284.073378 
L 191.260276 284.285345 
L 280.248087 284.134761 
L 398.487273 284.822852 
L 398.487273 284.822852 
" style="fill:none;stroke:#1f77b4;stroke-dasharray:1.5,2.475;stroke-dashoffset:0;stroke-width:1.5;"/>
   </g>
   <g id="line2d_16">
    <path clip-path="url(#p99dd11858e)" d="M 398.487273 244.019327 
L 267.582973 220.89572 
L 181.173172 202.24765 
L 149.669177 195.534344 
L 122.054231 200.258522 
L 100.124317 180.615888 
L 91.441476 168.432483 
L 84.419582 149.535772 
L 79.436738 131.882265 
L 77.154623 138.844211 
L 75.979806 154.011308 
L 75.048055 186.085989 
L 73.940756 250.483991 
L 73.832727 295.488 
" style="fill:none;"/>
    <g clip-path="url(#p99dd11858e)">
     <use style="fill:#1f77b4;stroke:#1f77b4;" x="398.487273" xlink:href="#ma596bf56ea" y="244.019327"/>
     <use style="fill:#1f77b4;stroke:#1f77b4;" x="267.582973" xlink:href="#ma596bf56ea" y="220.89572"/>
     <use style="fill:#1f77b4;stroke:#1f77b4;" x="181.173172" xlink:href="#ma596bf56ea" y="202.24765"/>
     <use style="fill:#1f77b4;stroke:#1f77b4;" x="149.669177" xlink:href="#ma596bf56ea" y="195.534344"/>
     <use style="fill:#1f77b4;stroke:#1f77b4;" x="122.054231" xlink:href="#ma596bf56ea" y="200.258522"/>
     <use style="fill:#1f77b4;stroke:#1f77b4;" x="100.124317" xlink:href="#ma596bf56ea" y="180.615888"/>
     <use style="fill:#1f77b4;stroke:#1f77b4;" x="91.441476" xlink:href="#ma596bf56ea" y="168.432483"/>
     <use style="fill:#1f77b4;stroke:#1f77b4;" x="84.419582" xlink:href="#ma596bf56ea" y="149.535772"/>
     <use style="fill:#1f77b4;stroke:#1f77b4;" x="79.436738" xlink:href="#ma596bf56ea" y="131.882265"/>
     <use style="fill:#1f77b4;stroke:#1f77b4;" x="77.154623" xlink:href="#ma596bf56ea" y="138.844211"/>
     <use style="fill:#1f77b4;stroke:#1f77b4;" x="75.979806" xlink:href="#ma596bf56ea" y="154.011308"/>
     <use style="fill:#1f77b4;stroke:#1f77b4;" x="75.048055" xlink:href="#ma596bf56ea" y="186.085989"/>
     <use style="fill:#1f77b4;stroke:#1f77b4;" x="73.940756" xlink:href="#ma596bf56ea" y="250.483991"/>
     <use style="fill:#1f77b4;stroke:#1f77b4;" x="73.832727" xlink:href="#ma596bf56ea" y="295.488"/>
    </g>
   </g>
   <g id="line2d_17">
    <path clip-path="url(#p99dd11858e)" d="M 73.832727 295.488 
L 74.059985 243.549897 
L 75.293673 177.630824 
L 76.137775 151.971909 
L 77.274065 138.479834 
L 79.449251 131.926595 
L 79.481716 132.041616 
L 84.870982 150.750539 
L 91.688727 168.779416 
L 100.486865 180.940623 
L 122.173789 200.238069 
L 149.931753 195.590298 
L 222.979025 211.269757 
L 270.475985 221.406756 
L 398.487273 244.019327 
L 398.487273 244.019327 
" style="fill:none;stroke:#1f77b4;stroke-dasharray:5.55,2.4;stroke-dashoffset:0;stroke-width:1.5;"/>
   </g>
   <g id="line2d_18">
    <path clip-path="url(#p99dd11858e)" d="M 398.487273 285.884768 
L 267.582973 284.873902 
L 181.173172 285.379335 
L 149.669177 285.632052 
L 122.054231 286.390201 
L 100.124317 288.411934 
L 91.441476 290.180951 
L 84.419582 291.949967 
L 79.436738 295.488 
L 77.154623 295.488 
L 75.979806 295.488 
L 75.048055 295.488 
L 73.940756 295.488 
L 73.832727 295.488 
" style="fill:none;"/>
    <g clip-path="url(#p99dd11858e)">
     <use style="fill:#1f77b4;stroke:#1f77b4;" x="398.487273" xlink:href="#ma596bf56ea" y="285.884768"/>
     <use style="fill:#1f77b4;stroke:#1f77b4;" x="267.582973" xlink:href="#ma596bf56ea" y="284.873902"/>
     <use style="fill:#1f77b4;stroke:#1f77b4;" x="181.173172" xlink:href="#ma596bf56ea" y="285.379335"/>
     <use style="fill:#1f77b4;stroke:#1f77b4;" x="149.669177" xlink:href="#ma596bf56ea" y="285.632052"/>
     <use style="fill:#1f77b4;stroke:#1f77b4;" x="122.054231" xlink:href="#ma596bf56ea" y="286.390201"/>
     <use style="fill:#1f77b4;stroke:#1f77b4;" x="100.124317" xlink:href="#ma596bf56ea" y="288.411934"/>
     <use style="fill:#1f77b4;stroke:#1f77b4;" x="91.441476" xlink:href="#ma596bf56ea" y="290.180951"/>
     <use style="fill:#1f77b4;stroke:#1f77b4;" x="84.419582" xlink:href="#ma596bf56ea" y="291.949967"/>
     <use style="fill:#1f77b4;stroke:#1f77b4;" x="79.436738" xlink:href="#ma596bf56ea" y="295.488"/>
     <use style="fill:#1f77b4;stroke:#1f77b4;" x="77.154623" xlink:href="#ma596bf56ea" y="295.488"/>
     <use style="fill:#1f77b4;stroke:#1f77b4;" x="75.979806" xlink:href="#ma596bf56ea" y="295.488"/>
     <use style="fill:#1f77b4;stroke:#1f77b4;" x="75.048055" xlink:href="#ma596bf56ea" y="295.488"/>
     <use style="fill:#1f77b4;stroke:#1f77b4;" x="73.940756" xlink:href="#ma596bf56ea" y="295.488"/>
     <use style="fill:#1f77b4;stroke:#1f77b4;" x="73.832727" xlink:href="#ma596bf56ea" y="295.488"/>
    </g>
   </g>
   <g id="line2d_19">
    <path clip-path="url(#p99dd11858e)" d="M 73.832727 295.488 
L 79.579113 295.386908 
L 84.708655 291.877142 
L 93.798982 289.700639 
L 101.136175 288.318651 
L 123.764596 286.343244 
L 155.385949 285.586193 
L 232.296611 285.080301 
L 275.767855 284.937107 
L 398.487273 285.884768 
L 398.487273 285.884768 
" style="fill:none;stroke:#1f77b4;stroke-dasharray:9.6,2.4,1.5,2.4;stroke-dashoffset:0;stroke-width:1.5;"/>
   </g>
   <g id="line2d_20">
    <path clip-path="url(#p99dd11858e)" d="M 398.487273 206.598814 
L 267.582973 188.416935 
L 181.173172 174.528 
L 149.669177 160.386539 
L 122.054231 135.133929 
L 100.124317 81.093344 
L 91.441476 54.578104 
L 84.419582 53.568 
L 79.436738 98.517645 
L 77.154623 124.022781 
L 75.979806 144.477395 
L 75.048055 169.98253 
L 73.940756 223.265537 
L 73.832727 295.488 
" style="fill:none;"/>
    <g clip-path="url(#p99dd11858e)">
     <use style="fill:#1f77b4;stroke:#1f77b4;" x="398.487273" xlink:href="#ma596bf56ea" y="206.598814"/>
     <use style="fill:#1f77b4;stroke:#1f77b4;" x="267.582973" xlink:href="#ma596bf56ea" y="188.416935"/>
     <use style="fill:#1f77b4;stroke:#1f77b4;" x="181.173172" xlink:href="#ma596bf56ea" y="174.528"/>
     <use style="fill:#1f77b4;stroke:#1f77b4;" x="149.669177" xlink:href="#ma596bf56ea" y="160.386539"/>
     <use style="fill:#1f77b4;stroke:#1f77b4;" x="122.054231" xlink:href="#ma596bf56ea" y="135.133929"/>
     <use style="fill:#1f77b4;stroke:#1f77b4;" x="100.124317" xlink:href="#ma596bf56ea" y="81.093344"/>
     <use style="fill:#1f77b4;stroke:#1f77b4;" x="91.441476" xlink:href="#ma596bf56ea" y="54.578104"/>
     <use style="fill:#1f77b4;stroke:#1f77b4;" x="84.419582" xlink:href="#ma596bf56ea" y="53.568"/>
     <use style="fill:#1f77b4;stroke:#1f77b4;" x="79.436738" xlink:href="#ma596bf56ea" y="98.517645"/>
     <use style="fill:#1f77b4;stroke:#1f77b4;" x="77.154623" xlink:href="#ma596bf56ea" y="124.022781"/>
     <use style="fill:#1f77b4;stroke:#1f77b4;" x="75.979806" xlink:href="#ma596bf56ea" y="144.477395"/>
     <use style="fill:#1f77b4;stroke:#1f77b4;" x="75.048055" xlink:href="#ma596bf56ea" y="169.98253"/>
     <use style="fill:#1f77b4;stroke:#1f77b4;" x="73.940756" xlink:href="#ma596bf56ea" y="223.265537"/>
     <use style="fill:#1f77b4;stroke:#1f77b4;" x="73.832727" xlink:href="#ma596bf56ea" y="295.488"/>
    </g>
   </g>
   <g id="line2d_21">
    <path clip-path="url(#p99dd11858e)" d="M 73.832727 295.488 
L 74.059985 217.528256 
L 75.293673 163.259155 
L 76.267636 139.466014 
L 77.436393 120.873696 
L 80.001164 93.426032 
L 84.448931 53.572222 
L 84.513862 53.581562 
L 91.461469 54.63916 
L 100.714124 82.54677 
L 122.23872 135.302636 
L 149.964218 160.518976 
L 181.585571 174.594286 
L 272.716102 189.129898 
L 398.487273 206.598814 
L 398.487273 206.598814 
" style="fill:none;stroke:#1f77b4;stroke-linecap:square;stroke-width:1.5;"/>
   </g>
   <g id="patch_3">
    <path d="M 57.6 307.584 
L 57.6 41.472 
" style="fill:none;stroke:#000000;stroke-linecap:square;stroke-linejoin:miter;stroke-width:0.8;"/>
   </g>
   <g id="patch_4">
    <path d="M 414.72 307.584 
L 414.72 41.472 
" style="fill:none;stroke:#000000;stroke-linecap:square;stroke-linejoin:miter;stroke-width:0.8;"/>
   </g>
   <g id="patch_5">
    <path d="M 57.6 307.584 
L 414.72 307.584 
" style="fill:none;stroke:#000000;stroke-linecap:square;stroke-linejoin:miter;stroke-width:0.8;"/>
   </g>
   <g id="patch_6">
    <path d="M 57.6 41.472 
L 414.72 41.472 
" style="fill:none;stroke:#000000;stroke-linecap:square;stroke-linejoin:miter;stroke-width:0.8;"/>
   </g>
   <g id="legend_1">
    <g id="patch_7">
     <path d="M 286.862969 147.279812 
L 405.62 147.279812 
Q 408.22 147.279812 408.22 144.679812 
L 408.22 50.572 
Q 408.22 47.972 405.62 47.972 
L 286.862969 47.972 
Q 284.262969 47.972 284.262969 50.572 
L 284.262969 144.679812 
Q 284.262969 147.279812 286.862969 147.279812 
z
" style="fill:#ffffff;opacity:0.8;stroke:#cccccc;stroke-linejoin:miter;"/>
    </g>
    <g id="line2d_22">
     <path d="M 289.462969 58.499969 
L 315.462969 58.499969 
" style="fill:none;stroke:#ff7f0e;stroke-linecap:square;stroke-width:3;"/>
    </g>
    <g id="line2d_23"/>
    <g id="text_14">
     <!-- Surveyed -->
     <defs>
      <path d="M 53.515625 70.515625 
L 53.515625 60.890625 
Q 47.90625 63.578125 42.921875 64.890625 
Q 37.9375 66.21875 33.296875 66.21875 
Q 25.25 66.21875 20.875 63.09375 
Q 16.5 59.96875 16.5 54.203125 
Q 16.5 49.359375 19.40625 46.890625 
Q 22.3125 44.4375 30.421875 42.921875 
L 36.375 41.703125 
Q 47.40625 39.59375 52.65625 34.296875 
Q 57.90625 29 57.90625 20.125 
Q 57.90625 9.515625 50.796875 4.046875 
Q 43.703125 -1.421875 29.984375 -1.421875 
Q 24.8125 -1.421875 18.96875 -0.25 
Q 13.140625 0.921875 6.890625 3.21875 
L 6.890625 13.375 
Q 12.890625 10.015625 18.65625 8.296875 
Q 24.421875 6.59375 29.984375 6.59375 
Q 38.421875 6.59375 43.015625 9.90625 
Q 47.609375 13.234375 47.609375 19.390625 
Q 47.609375 24.75 44.3125 27.78125 
Q 41.015625 30.8125 33.5 32.328125 
L 27.484375 33.5 
Q 16.453125 35.6875 11.515625 40.375 
Q 6.59375 45.0625 6.59375 53.421875 
Q 6.59375 63.09375 13.40625 68.65625 
Q 20.21875 74.21875 32.171875 74.21875 
Q 37.3125 74.21875 42.625 73.28125 
Q 47.953125 72.359375 53.515625 70.515625 
z
" id="DejaVuSans-83"/>
      <path d="M 8.5 21.578125 
L 8.5 54.6875 
L 17.484375 54.6875 
L 17.484375 21.921875 
Q 17.484375 14.15625 20.5 10.265625 
Q 23.53125 6.390625 29.59375 6.390625 
Q 36.859375 6.390625 41.078125 11.03125 
Q 45.3125 15.671875 45.3125 23.6875 
L 45.3125 54.6875 
L 54.296875 54.6875 
L 54.296875 0 
L 45.3125 0 
L 45.3125 8.40625 
Q 42.046875 3.421875 37.71875 1 
Q 33.40625 -1.421875 27.6875 -1.421875 
Q 18.265625 -1.421875 13.375 4.4375 
Q 8.5 10.296875 8.5 21.578125 
z
M 31.109375 56 
z
" id="DejaVuSans-117"/>
      <path d="M 2.984375 54.6875 
L 12.5 54.6875 
L 29.59375 8.796875 
L 46.6875 54.6875 
L 56.203125 54.6875 
L 35.6875 0 
L 23.484375 0 
z
" id="DejaVuSans-118"/>
      <path d="M 32.171875 -5.078125 
Q 28.375 -14.84375 24.75 -17.8125 
Q 21.140625 -20.796875 15.09375 -20.796875 
L 7.90625 -20.796875 
L 7.90625 -13.28125 
L 13.1875 -13.28125 
Q 16.890625 -13.28125 18.9375 -11.515625 
Q 21 -9.765625 23.484375 -3.21875 
L 25.09375 0.875 
L 2.984375 54.6875 
L 12.5 54.6875 
L 29.59375 11.921875 
L 46.6875 54.6875 
L 56.203125 54.6875 
z
" id="DejaVuSans-121"/>
      <path d="M 45.40625 46.390625 
L 45.40625 75.984375 
L 54.390625 75.984375 
L 54.390625 0 
L 45.40625 0 
L 45.40625 8.203125 
Q 42.578125 3.328125 38.25 0.953125 
Q 33.9375 -1.421875 27.875 -1.421875 
Q 17.96875 -1.421875 11.734375 6.484375 
Q 5.515625 14.40625 5.515625 27.296875 
Q 5.515625 40.1875 11.734375 48.09375 
Q 17.96875 56 27.875 56 
Q 33.9375 56 38.25 53.625 
Q 42.578125 51.265625 45.40625 46.390625 
z
M 14.796875 27.296875 
Q 14.796875 17.390625 18.875 11.75 
Q 22.953125 6.109375 30.078125 6.109375 
Q 37.203125 6.109375 41.296875 11.75 
Q 45.40625 17.390625 45.40625 27.296875 
Q 45.40625 37.203125 41.296875 42.84375 
Q 37.203125 48.484375 30.078125 48.484375 
Q 22.953125 48.484375 18.875 42.84375 
Q 14.796875 37.203125 14.796875 27.296875 
z
" id="DejaVuSans-100"/>
     </defs>
     <g transform="translate(325.862969 63.049969)scale(0.13 -0.13)">
      <use xlink:href="#DejaVuSans-83"/>
      <use x="63.476562" xlink:href="#DejaVuSans-117"/>
      <use x="126.855469" xlink:href="#DejaVuSans-114"/>
      <use x="167.96875" xlink:href="#DejaVuSans-118"/>
      <use x="227.148438" xlink:href="#DejaVuSans-101"/>
      <use x="288.671875" xlink:href="#DejaVuSans-121"/>
      <use x="347.851562" xlink:href="#DejaVuSans-101"/>
      <use x="409.375" xlink:href="#DejaVuSans-100"/>
     </g>
    </g>
    <g id="line2d_24">
     <path d="M 289.462969 77.581531 
L 315.462969 77.581531 
" style="fill:none;stroke:#1f77b4;stroke-dasharray:1.5,2.475;stroke-dashoffset:0;stroke-width:1.5;"/>
    </g>
    <g id="line2d_25"/>
    <g id="text_15">
     <!-- Scenario n0 -->
     <defs>
      <path d="M 48.78125 52.59375 
L 48.78125 44.1875 
Q 44.96875 46.296875 41.140625 47.34375 
Q 37.3125 48.390625 33.40625 48.390625 
Q 24.65625 48.390625 19.8125 42.84375 
Q 14.984375 37.3125 14.984375 27.296875 
Q 14.984375 17.28125 19.8125 11.734375 
Q 24.65625 6.203125 33.40625 6.203125 
Q 37.3125 6.203125 41.140625 7.25 
Q 44.96875 8.296875 48.78125 10.40625 
L 48.78125 2.09375 
Q 45.015625 0.34375 40.984375 -0.53125 
Q 36.96875 -1.421875 32.421875 -1.421875 
Q 20.0625 -1.421875 12.78125 6.34375 
Q 5.515625 14.109375 5.515625 27.296875 
Q 5.515625 40.671875 12.859375 48.328125 
Q 20.21875 56 33.015625 56 
Q 37.15625 56 41.109375 55.140625 
Q 45.0625 54.296875 48.78125 52.59375 
z
" id="DejaVuSans-99"/>
      <path d="M 54.890625 33.015625 
L 54.890625 0 
L 45.90625 0 
L 45.90625 32.71875 
Q 45.90625 40.484375 42.875 44.328125 
Q 39.84375 48.1875 33.796875 48.1875 
Q 26.515625 48.1875 22.3125 43.546875 
Q 18.109375 38.921875 18.109375 30.90625 
L 18.109375 0 
L 9.078125 0 
L 9.078125 54.6875 
L 18.109375 54.6875 
L 18.109375 46.1875 
Q 21.34375 51.125 25.703125 53.5625 
Q 30.078125 56 35.796875 56 
Q 45.21875 56 50.046875 50.171875 
Q 54.890625 44.34375 54.890625 33.015625 
z
" id="DejaVuSans-110"/>
      <path d="M 30.609375 48.390625 
Q 23.390625 48.390625 19.1875 42.75 
Q 14.984375 37.109375 14.984375 27.296875 
Q 14.984375 17.484375 19.15625 11.84375 
Q 23.34375 6.203125 30.609375 6.203125 
Q 37.796875 6.203125 41.984375 11.859375 
Q 46.1875 17.53125 46.1875 27.296875 
Q 46.1875 37.015625 41.984375 42.703125 
Q 37.796875 48.390625 30.609375 48.390625 
z
M 30.609375 56 
Q 42.328125 56 49.015625 48.375 
Q 55.71875 40.765625 55.71875 27.296875 
Q 55.71875 13.875 49.015625 6.21875 
Q 42.328125 -1.421875 30.609375 -1.421875 
Q 18.84375 -1.421875 12.171875 6.21875 
Q 5.515625 13.875 5.515625 27.296875 
Q 5.515625 40.765625 12.171875 48.375 
Q 18.84375 56 30.609375 56 
z
" id="DejaVuSans-111"/>
     </defs>
     <g transform="translate(325.862969 82.131531)scale(0.13 -0.13)">
      <use xlink:href="#DejaVuSans-83"/>
      <use x="63.476562" xlink:href="#DejaVuSans-99"/>
      <use x="118.457031" xlink:href="#DejaVuSans-101"/>
      <use x="179.980469" xlink:href="#DejaVuSans-110"/>
      <use x="243.359375" xlink:href="#DejaVuSans-97"/>
      <use x="304.638672" xlink:href="#DejaVuSans-114"/>
      <use x="345.751953" xlink:href="#DejaVuSans-105"/>
      <use x="373.535156" xlink:href="#DejaVuSans-111"/>
      <use x="434.716797" xlink:href="#DejaVuSans-32"/>
      <use x="466.503906" xlink:href="#DejaVuSans-110"/>
      <use x="529.882812" xlink:href="#DejaVuSans-48"/>
     </g>
    </g>
    <g id="line2d_26">
     <path d="M 289.462969 96.663094 
L 315.462969 96.663094 
" style="fill:none;stroke:#1f77b4;stroke-dasharray:5.55,2.4;stroke-dashoffset:0;stroke-width:1.5;"/>
    </g>
    <g id="line2d_27"/>
    <g id="text_16">
     <!-- Scenario s0 -->
     <defs>
      <path d="M 44.28125 53.078125 
L 44.28125 44.578125 
Q 40.484375 46.53125 36.375 47.5 
Q 32.28125 48.484375 27.875 48.484375 
Q 21.1875 48.484375 17.84375 46.4375 
Q 14.5 44.390625 14.5 40.28125 
Q 14.5 37.15625 16.890625 35.375 
Q 19.28125 33.59375 26.515625 31.984375 
L 29.59375 31.296875 
Q 39.15625 29.25 43.1875 25.515625 
Q 47.21875 21.78125 47.21875 15.09375 
Q 47.21875 7.46875 41.1875 3.015625 
Q 35.15625 -1.421875 24.609375 -1.421875 
Q 20.21875 -1.421875 15.453125 -0.5625 
Q 10.6875 0.296875 5.421875 2 
L 5.421875 11.28125 
Q 10.40625 8.6875 15.234375 7.390625 
Q 20.0625 6.109375 24.8125 6.109375 
Q 31.15625 6.109375 34.5625 8.28125 
Q 37.984375 10.453125 37.984375 14.40625 
Q 37.984375 18.0625 35.515625 20.015625 
Q 33.0625 21.96875 24.703125 23.78125 
L 21.578125 24.515625 
Q 13.234375 26.265625 9.515625 29.90625 
Q 5.8125 33.546875 5.8125 39.890625 
Q 5.8125 47.609375 11.28125 51.796875 
Q 16.75 56 26.8125 56 
Q 31.78125 56 36.171875 55.265625 
Q 40.578125 54.546875 44.28125 53.078125 
z
" id="DejaVuSans-115"/>
     </defs>
     <g transform="translate(325.862969 101.213094)scale(0.13 -0.13)">
      <use xlink:href="#DejaVuSans-83"/>
      <use x="63.476562" xlink:href="#DejaVuSans-99"/>
      <use x="118.457031" xlink:href="#DejaVuSans-101"/>
      <use x="179.980469" xlink:href="#DejaVuSans-110"/>
      <use x="243.359375" xlink:href="#DejaVuSans-97"/>
      <use x="304.638672" xlink:href="#DejaVuSans-114"/>
      <use x="345.751953" xlink:href="#DejaVuSans-105"/>
      <use x="373.535156" xlink:href="#DejaVuSans-111"/>
      <use x="434.716797" xlink:href="#DejaVuSans-32"/>
      <use x="466.503906" xlink:href="#DejaVuSans-115"/>
      <use x="518.603516" xlink:href="#DejaVuSans-48"/>
     </g>
    </g>
    <g id="line2d_28">
     <path d="M 289.462969 115.744656 
L 315.462969 115.744656 
" style="fill:none;stroke:#1f77b4;stroke-dasharray:9.6,2.4,1.5,2.4;stroke-dashoffset:0;stroke-width:1.5;"/>
    </g>
    <g id="line2d_29"/>
    <g id="text_17">
     <!-- Scenario s1 -->
     <g transform="translate(325.862969 120.294656)scale(0.13 -0.13)">
      <use xlink:href="#DejaVuSans-83"/>
      <use x="63.476562" xlink:href="#DejaVuSans-99"/>
      <use x="118.457031" xlink:href="#DejaVuSans-101"/>
      <use x="179.980469" xlink:href="#DejaVuSans-110"/>
      <use x="243.359375" xlink:href="#DejaVuSans-97"/>
      <use x="304.638672" xlink:href="#DejaVuSans-114"/>
      <use x="345.751953" xlink:href="#DejaVuSans-105"/>
      <use x="373.535156" xlink:href="#DejaVuSans-111"/>
      <use x="434.716797" xlink:href="#DejaVuSans-32"/>
      <use x="466.503906" xlink:href="#DejaVuSans-115"/>
      <use x="518.603516" xlink:href="#DejaVuSans-49"/>
     </g>
    </g>
    <g id="line2d_30">
     <path d="M 289.462969 134.826219 
L 315.462969 134.826219 
" style="fill:none;stroke:#1f77b4;stroke-linecap:square;stroke-width:1.5;"/>
    </g>
    <g id="line2d_31"/>
    <g id="text_18">
     <!-- Scenario s2 -->
     <g transform="translate(325.862969 139.376219)scale(0.13 -0.13)">
      <use xlink:href="#DejaVuSans-83"/>
      <use x="63.476562" xlink:href="#DejaVuSans-99"/>
      <use x="118.457031" xlink:href="#DejaVuSans-101"/>
      <use x="179.980469" xlink:href="#DejaVuSans-110"/>
      <use x="243.359375" xlink:href="#DejaVuSans-97"/>
      <use x="304.638672" xlink:href="#DejaVuSans-114"/>
      <use x="345.751953" xlink:href="#DejaVuSans-105"/>
      <use x="373.535156" xlink:href="#DejaVuSans-111"/>
      <use x="434.716797" xlink:href="#DejaVuSans-32"/>
      <use x="466.503906" xlink:href="#DejaVuSans-115"/>
      <use x="518.603516" xlink:href="#DejaVuSans-50"/>
     </g>
    </g>
   </g>
  </g>
 </g>
 <defs>
  <clipPath id="p99dd11858e">
   <rect height="266.112" width="357.12" x="57.6" y="41.472"/>
  </clipPath>
 </defs>
</svg>
