<?xml version="1.0" encoding="utf-8" standalone="no"?>
<!DOCTYPE svg PUBLIC "-//W3C//DTD SVG 1.1//EN"
  "http://www.w3.org/Graphics/SVG/1.1/DTD/svg11.dtd">
<!-- Created with matplotlib (https://matplotlib.org/) -->
<svg height="345.6pt" version="1.1" viewBox="0 0 460.8 345.6" width="460.8pt" xmlns="http://www.w3.org/2000/svg" xmlns:xlink="http://www.w3.org/1999/xlink">
 <defs>
  <style type="text/css">
*{stroke-linecap:butt;stroke-linejoin:round;}
  </style>
 </defs>
 <g id="figure_1">
  <g id="patch_1">
   <path d="M 0 345.6 
L 460.8 345.6 
L 460.8 0 
L 0 0 
z
" style="fill:#ffffff;"/>
  </g>
  <g id="axes_1">
   <g id="patch_2">
    <path d="M 57.6 307.584 
L 343.296 307.584 
L 343.296 41.472 
L 57.6 41.472 
z
" style="fill:#ffffff;"/>
   </g>
   <g id="PathCollection_1"/>
   <g id="PathCollection_2">
    <path clip-path="url(#p542f8a6c0d)" d="M 115.340852 301.98436 
L 124.964327 301.98436 
L 134.587802 301.98436 
L 144.211277 301.98436 
L 153.834753 301.98436 
L 163.458228 301.98436 
L 173.081703 301.98436 
L 182.705178 301.98436 
L 192.328654 301.98436 
L 201.952129 301.98436 
L 211.575604 301.98436 
L 221.199079 301.98436 
L 230.822555 301.98436 
L 240.44603 301.98436 
L 250.069505 301.98436 
L 259.69298 301.98436 
L 269.316456 301.98436 
L 278.939931 301.98436 
L 288.563406 301.98436 
L 298.186881 301.98436 
L 307.810357 301.98436 
L 317.433832 301.98436 
L 327.057307 301.98436 
L 336.680782 301.98436 
L 346.304258 301.98436 
L 355.927733 301.98436 
L 365.551208 301.98436 
L 375.174684 301.98436 
L 384.798159 301.98436 
L 394.421634 301.98436 
L 404.045109 301.98436 
L 413.668585 301.98436 
L 423.29206 301.98436 
L 432.915535 301.98436 
L 442.53901 301.98436 
L 452.162486 301.98436 
L 461.785961 301.98436 
L 471.409436 301.98436 
L 481.032911 301.98436 
L 490.656387 301.98436 
L 500.279862 301.98436 
L 509.903337 301.98436 
L 519.526812 301.98436 
L 529.150288 301.98436 
L 538.773763 301.98436 
L 548.397238 301.98436 
L 558.020713 301.98436 
L 567.644189 301.98436 
L 577.267664 301.98436 
L 586.891139 301.98436 
L 596.514614 301.98436 
L 606.13809 301.98436 
L 615.761565 301.98436 
L 625.38504 301.98436 
L 635.008515 301.98436 
L 644.631991 301.98436 
L 654.255466 301.98436 
L 663.878941 301.98436 
L 673.502417 301.98436 
L 683.125892 301.98436 
L 692.749367 301.98436 
L 702.372842 301.98436 
L 711.996318 301.98436 
L 721.619793 301.98436 
L 731.243268 301.98436 
L 740.866743 301.98436 
L 750.490219 301.98436 
L 760.113694 301.98436 
L 769.737169 301.98436 
L 779.360644 301.98436 
L 788.98412 301.98436 
L 798.607595 301.98436 
L 808.23107 301.98436 
L 817.854545 301.98436 
L 827.478021 301.98436 
L 837.101496 301.98436 
L 846.724971 301.98436 
L 856.348446 301.98436 
L 865.971922 301.98436 
L 875.595397 301.98436 
L 885.218872 301.98436 
L 894.842347 301.98436 
L 904.465823 301.98436 
L 914.089298 301.98436 
L 923.712773 301.98436 
L 933.336248 301.98436 
L 942.959724 301.98436 
L 952.583199 301.98436 
L 962.206674 301.98436 
L 971.83015 301.98436 
L 981.453625 301.98436 
L 991.0771 301.98436 
L 1000.700575 301.98436 
L 1010.324051 301.98436 
L 1019.947526 301.98436 
L 1029.571001 301.98436 
L 1039.194476 301.98436 
L 1048.817952 301.98436 
L 1058.441427 301.98436 
L 1068.064902 301.98436 
L 1077.688377 301.98436 
L 1087.311853 301.98436 
L 1096.935328 301.98436 
L 1106.558803 301.98436 
L 1116.182278 301.98436 
L 1125.805754 301.98436 
L 1135.429229 301.98436 
L 1145.052704 301.98436 
L 1154.676179 301.98436 
L 1164.299655 301.98436 
L 1173.92313 301.98436 
L 1183.546605 301.98436 
L 1193.17008 301.98436 
L 1202.793556 301.98436 
L 1212.417031 301.98436 
L 1222.040506 301.98436 
L 1231.663982 301.98436 
L 1241.287457 301.98436 
L 1250.910932 301.98436 
L 1260.534407 301.98436 
L 1270.157883 301.98436 
L 1279.781358 301.98436 
L 1289.404833 301.98436 
L 1299.028308 301.98436 
L 1308.651784 301.98436 
L 1318.275259 301.98436 
L 1327.898734 301.98436 
L 1337.522209 301.98436 
L 1347.145685 301.98436 
L 1356.76916 301.98436 
L 1366.392635 301.98436 
L 1376.01611 301.98436 
L 1385.639586 301.98436 
L 1395.263061 301.98436 
L 1404.886536 301.98436 
L 1414.510011 301.98436 
L 1424.133487 301.98436 
L 1433.756962 301.98436 
L 1443.380437 301.98436 
L 1453.003912 301.98436 
L 1462.627388 301.98436 
L 1472.250863 301.98436 
L 1481.874338 301.98436 
L 1491.497813 301.98436 
L 1501.121289 301.98436 
L 1510.744764 301.98436 
L 1520.368239 301.98436 
L 1529.991715 301.98436 
L 1539.61519 301.98436 
L 1549.238665 301.98436 
L 1558.86214 301.98436 
L 1568.485616 301.98436 
L 1578.109091 301.98436 
L 1587.732566 301.98436 
L 1597.356041 301.98436 
L 1606.979517 301.98436 
L 1616.602992 301.98436 
L 1626.226467 301.98436 
L 1635.849942 301.98436 
L 1645.473418 301.98436 
L 1655.096893 301.98436 
L 1664.720368 301.98436 
L 1674.343843 301.98436 
L 1683.967319 301.98436 
L 1693.590794 301.98436 
L 1703.214269 301.98436 
L 1712.837744 301.98436 
L 1722.46122 301.98436 
L 1732.084695 301.98436 
L 1741.70817 301.98436 
L 1751.331645 301.98436 
L 1760.955121 301.98436 
L 1770.578596 301.98436 
L 1780.202071 301.98436 
L 1789.825546 301.98436 
L 1799.449022 301.98436 
L 1809.072497 301.98436 
L 1818.695972 301.98436 
L 1828.319448 301.98436 
L 1837.942923 301.98436 
L 1847.566398 301.98436 
L 1857.189873 301.98436 
L 1866.813349 301.98436 
L 1876.436824 301.98436 
L 1886.060299 301.98436 
L 1895.683774 301.98436 
L 1905.30725 301.98436 
L 1914.930725 301.98436 
L 1924.5542 301.98436 
L 1934.177675 301.98436 
L 1943.801151 301.98436 
L 1953.424626 301.98436 
L 1953.424626 296.38472 
L 1953.424626 290.785081 
L 1953.424626 285.185441 
L 1953.424626 279.585801 
L 1953.424626 273.986161 
L 1953.424626 268.386521 
L 1953.424626 262.786882 
L 1953.424626 257.187242 
L 1953.424626 251.587602 
L 1953.424626 245.987962 
L 1953.424626 240.388322 
L 1953.424626 234.788683 
L 1953.424626 229.189043 
L 1953.424626 223.589403 
L 1953.424626 217.989763 
L 1953.424626 212.390123 
L 1953.424626 206.790484 
L 1953.424626 201.190844 
L 1953.424626 195.591204 
L 1953.424626 189.991564 
L 1953.424626 184.391925 
L 1953.424626 178.792285 
L 1953.424626 173.192645 
L 1953.424626 167.593005 
L 1953.424626 161.993365 
L 1953.424626 156.393726 
L 1953.424626 150.794086 
L 1953.424626 145.194446 
L 1953.424626 139.594806 
L 1953.424626 133.995166 
L 1953.424626 128.395527 
L 1953.424626 122.795887 
L 1953.424626 117.196247 
L 1953.424626 111.596607 
L 1953.424626 105.996967 
L 1953.424626 100.397328 
L 1953.424626 94.797688 
L 1953.424626 89.198048 
L 1953.424626 83.598408 
L 1953.424626 77.998768 
L 1953.424626 72.399129 
L 1953.424626 66.799489 
L 1953.424626 61.199849 
L 1953.424626 55.600209 
L 1953.424626 50.000569 
L 1953.424626 44.40093 
L 1953.424626 38.80129 
L 1953.424626 33.20165 
L 1953.424626 27.60201 
L 1953.424626 22.00237 
L 1953.424626 16.402731 
L 1953.424626 10.803091 
L 1953.424626 5.203451 
L 1953.424626 -0.396189 
L 1953.424626 -5.995829 
L 1953.424626 -11.595468 
L 1953.424626 -17.195108 
L 1953.424626 -22.794748 
L 1953.424626 -28.394388 
L 1953.424626 -33.994027 
L 1953.424626 -39.593667 
L 1953.424626 -45.193307 
L 1953.424626 -50.792947 
L 1953.424626 -56.392587 
L 1953.424626 -61.992226 
L 1953.424626 -67.591866 
L 1953.424626 -73.191506 
L 1953.424626 -78.791146 
L 1953.424626 -84.390786 
L 1953.424626 -89.990425 
L 1953.424626 -95.590065 
L 1953.424626 -101.189705 
L 1953.424626 -106.789345 
L 1953.424626 -112.388985 
L 1953.424626 -117.988624 
L 1953.424626 -123.588264 
L 1953.424626 -129.187904 
L 1953.424626 -134.787544 
L 1953.424626 -140.387184 
L 1953.424626 -145.986823 
L 1953.424626 -151.586463 
L 1953.424626 -157.186103 
L 1953.424626 -162.785743 
L 1953.424626 -168.385383 
L 1953.424626 -173.985022 
L 1953.424626 -179.584662 
L 1953.424626 -185.184302 
L 1953.424626 -190.783942 
L 1953.424626 -196.383582 
L 1953.424626 -201.983221 
L 1953.424626 -207.582861 
L 1953.424626 -213.182501 
L 1953.424626 -218.782141 
L 1953.424626 -224.381781 
L 1953.424626 -229.98142 
L 1953.424626 -235.58106 
L 1953.424626 -241.1807 
L 1953.424626 -246.78034 
L 1953.424626 -252.37998 
L 1953.424626 -257.979619 
L 1953.424626 -263.579259 
L 1953.424626 -269.178899 
L 1953.424626 -274.778539 
L 1953.424626 -280.378178 
L 1953.424626 -285.977818 
L 1953.424626 -291.577458 
L 1953.424626 -297.177098 
L 1953.424626 -302.776738 
L 1953.424626 -308.376377 
L 1953.424626 -313.976017 
L 1953.424626 -319.575657 
L 1953.424626 -325.175297 
L 1953.424626 -330.774937 
L 1953.424626 -336.374576 
L 1953.424626 -341.974216 
L 1953.424626 -347.573856 
L 1953.424626 -353.173496 
L 1953.424626 -358.773136 
L 1953.424626 -364.372775 
L 1953.424626 -369.972415 
L 1943.801151 -369.972415 
L 1934.177675 -369.972415 
L 1924.5542 -369.972415 
L 1914.930725 -369.972415 
L 1905.30725 -369.972415 
L 1895.683774 -369.972415 
L 1886.060299 -369.972415 
L 1876.436824 -369.972415 
L 1866.813349 -369.972415 
L 1857.189873 -369.972415 
L 1847.566398 -369.972415 
L 1837.942923 -369.972415 
L 1828.319448 -369.972415 
L 1818.695972 -369.972415 
L 1809.072497 -369.972415 
L 1799.449022 -369.972415 
L 1789.825546 -369.972415 
L 1780.202071 -369.972415 
L 1770.578596 -369.972415 
L 1760.955121 -369.972415 
L 1751.331645 -369.972415 
L 1741.70817 -369.972415 
L 1732.084695 -369.972415 
L 1722.46122 -369.972415 
L 1712.837744 -369.972415 
L 1703.214269 -369.972415 
L 1693.590794 -369.972415 
L 1683.967319 -369.972415 
L 1674.343843 -369.972415 
L 1664.720368 -369.972415 
L 1655.096893 -369.972415 
L 1645.473418 -369.972415 
L 1635.849942 -369.972415 
L 1626.226467 -369.972415 
L 1616.602992 -369.972415 
L 1606.979517 -369.972415 
L 1597.356041 -369.972415 
L 1587.732566 -369.972415 
L 1578.109091 -369.972415 
L 1568.485616 -369.972415 
L 1558.86214 -369.972415 
L 1549.238665 -369.972415 
L 1539.61519 -369.972415 
L 1529.991715 -369.972415 
L 1520.368239 -369.972415 
L 1510.744764 -369.972415 
L 1501.121289 -369.972415 
L 1491.497813 -369.972415 
L 1481.874338 -369.972415 
L 1472.250863 -369.972415 
L 1462.627388 -369.972415 
L 1453.003912 -369.972415 
L 1443.380437 -369.972415 
L 1433.756962 -369.972415 
L 1424.133487 -369.972415 
L 1414.510011 -369.972415 
L 1404.886536 -369.972415 
L 1395.263061 -369.972415 
L 1385.639586 -369.972415 
L 1376.01611 -369.972415 
L 1366.392635 -369.972415 
L 1356.76916 -369.972415 
L 1347.145685 -369.972415 
L 1337.522209 -369.972415 
L 1327.898734 -369.972415 
L 1318.275259 -369.972415 
L 1308.651784 -369.972415 
L 1299.028308 -369.972415 
L 1289.404833 -369.972415 
L 1279.781358 -369.972415 
L 1270.157883 -369.972415 
L 1260.534407 -369.972415 
L 1250.910932 -369.972415 
L 1241.287457 -369.972415 
L 1231.663982 -369.972415 
L 1222.040506 -369.972415 
L 1212.417031 -369.972415 
L 1202.793556 -369.972415 
L 1193.17008 -369.972415 
L 1183.546605 -369.972415 
L 1173.92313 -369.972415 
L 1164.299655 -369.972415 
L 1154.676179 -369.972415 
L 1145.052704 -369.972415 
L 1135.429229 -369.972415 
L 1125.805754 -369.972415 
L 1116.182278 -369.972415 
L 1106.558803 -369.972415 
L 1096.935328 -369.972415 
L 1087.311853 -369.972415 
L 1077.688377 -369.972415 
L 1068.064902 -369.972415 
L 1058.441427 -369.972415 
L 1048.817952 -369.972415 
L 1039.194476 -369.972415 
L 1029.571001 -369.972415 
L 1019.947526 -369.972415 
L 1010.324051 -369.972415 
L 1000.700575 -369.972415 
L 991.0771 -369.972415 
L 981.453625 -369.972415 
L 971.83015 -369.972415 
L 962.206674 -369.972415 
L 952.583199 -369.972415 
L 942.959724 -369.972415 
L 933.336248 -369.972415 
L 923.712773 -369.972415 
L 914.089298 -369.972415 
L 904.465823 -369.972415 
L 894.842347 -369.972415 
L 885.218872 -369.972415 
L 875.595397 -369.972415 
L 865.971922 -369.972415 
L 856.348446 -369.972415 
L 846.724971 -369.972415 
L 837.101496 -369.972415 
L 827.478021 -369.972415 
L 817.854545 -369.972415 
L 808.23107 -369.972415 
L 798.607595 -369.972415 
L 788.98412 -369.972415 
L 779.360644 -369.972415 
L 769.737169 -369.972415 
L 760.113694 -369.972415 
L 750.490219 -369.972415 
L 740.866743 -369.972415 
L 731.243268 -369.972415 
L 721.619793 -369.972415 
L 711.996318 -369.972415 
L 702.372842 -369.972415 
L 692.749367 -369.972415 
L 683.125892 -369.972415 
L 673.502417 -369.972415 
L 663.878941 -369.972415 
L 654.255466 -369.972415 
L 644.631991 -369.972415 
L 635.008515 -369.972415 
L 625.38504 -369.972415 
L 615.761565 -369.972415 
L 606.13809 -369.972415 
L 596.514614 -369.972415 
L 586.891139 -369.972415 
L 577.267664 -369.972415 
L 567.644189 -369.972415 
L 558.020713 -369.972415 
L 548.397238 -369.972415 
L 538.773763 -369.972415 
L 529.150288 -369.972415 
L 519.526812 -369.972415 
L 509.903337 -369.972415 
L 500.279862 -369.972415 
L 490.656387 -369.972415 
L 481.032911 -369.972415 
L 471.409436 -369.972415 
L 461.785961 -369.972415 
L 452.162486 -369.972415 
L 442.53901 -369.972415 
L 432.915535 -369.972415 
L 423.29206 -369.972415 
L 413.668585 -369.972415 
L 404.045109 -369.972415 
L 394.421634 -369.972415 
L 384.798159 -369.972415 
L 375.174684 -369.972415 
L 365.551208 -369.972415 
L 355.927733 -369.972415 
L 346.304258 -369.972415 
L 336.680782 -369.972415 
L 327.057307 -369.972415 
L 317.433832 -369.972415 
L 307.810357 -369.972415 
L 298.186881 -369.972415 
L 288.563406 -369.972415 
L 278.939931 -369.972415 
L 269.316456 -369.972415 
L 259.69298 -369.972415 
L 250.069505 -369.972415 
L 240.44603 -369.972415 
L 230.822555 -369.972415 
L 221.199079 -369.972415 
L 211.575604 -369.972415 
L 201.952129 -369.972415 
L 192.328654 -369.972415 
L 182.705178 -369.972415 
L 173.081703 -369.972415 
L 163.458228 -369.972415 
L 153.834753 -369.972415 
L 144.211277 -369.972415 
L 134.587802 -369.972415 
L 124.964327 -369.972415 
L 115.340852 -369.972415 
L 105.717376 -369.972415 
L 96.093901 -369.972415 
L 86.470426 -369.972415 
L 76.846951 -369.972415 
L 67.223475 -369.972415 
L 67.223475 -364.372775 
L 67.223475 -358.773136 
L 67.223475 -353.173496 
L 67.223475 -347.573856 
L 67.223475 -341.974216 
L 67.223475 -336.374576 
L 67.223475 -330.774937 
L 67.223475 -325.175297 
L 67.223475 -319.575657 
L 67.223475 -313.976017 
L 67.223475 -308.376377 
L 67.223475 -302.776738 
L 67.223475 -297.177098 
L 67.223475 -291.577458 
L 67.223475 -285.977818 
L 67.223475 -280.378178 
L 67.223475 -274.778539 
L 67.223475 -269.178899 
L 67.223475 -263.579259 
L 67.223475 -257.979619 
L 67.223475 -252.37998 
L 67.223475 -246.78034 
L 67.223475 -241.1807 
L 67.223475 -235.58106 
L 67.223475 -229.98142 
L 67.223475 -224.381781 
L 67.223475 -218.782141 
L 67.223475 -213.182501 
L 67.223475 -207.582861 
L 67.223475 -201.983221 
L 67.223475 -196.383582 
L 67.223475 -190.783942 
L 67.223475 -185.184302 
L 67.223475 -179.584662 
L 67.223475 -173.985022 
L 67.223475 -168.385383 
L 67.223475 -162.785743 
L 67.223475 -157.186103 
L 67.223475 -151.586463 
L 67.223475 -145.986823 
L 67.223475 -140.387184 
L 67.223475 -134.787544 
L 67.223475 -129.187904 
L 67.223475 -123.588264 
L 67.223475 -117.988624 
L 67.223475 -112.388985 
L 67.223475 -106.789345 
L 67.223475 -101.189705 
L 67.223475 -95.590065 
L 67.223475 -89.990425 
L 67.223475 -84.390786 
L 67.223475 -78.791146 
L 67.223475 -73.191506 
L 67.223475 -67.591866 
L 67.223475 -61.992226 
L 67.223475 -56.392587 
L 67.223475 -50.792947 
L 67.223475 -45.193307 
L 67.223475 -39.593667 
L 67.223475 -33.994027 
L 67.223475 -28.394388 
L 67.223475 -22.794748 
L 67.223475 -17.195108 
L 67.223475 -11.595468 
L 67.223475 -5.995829 
L 67.223475 -0.396189 
L 67.223475 5.203451 
L 67.223475 10.803091 
L 67.223475 16.402731 
L 67.223475 22.00237 
L 67.223475 27.60201 
L 67.223475 33.20165 
L 67.223475 38.80129 
L 67.223475 44.40093 
L 67.223475 50.000569 
L 67.223475 55.600209 
L 67.223475 61.199849 
L 67.223475 66.799489 
L 67.223475 72.399129 
L 67.223475 77.998768 
L 67.223475 83.598408 
L 67.223475 89.198048 
L 67.223475 94.797688 
L 67.223475 100.397328 
L 67.223475 105.996967 
L 67.223475 111.596607 
L 67.223475 117.196247 
L 67.223475 122.795887 
L 67.223475 128.395527 
L 67.223475 133.995166 
L 67.223475 139.594806 
L 67.223475 145.194446 
L 67.223475 150.794086 
L 67.223475 156.393726 
L 67.223475 161.993365 
L 67.223475 167.593005 
L 67.223475 173.192645 
L 67.223475 178.792285 
L 67.223475 184.391925 
L 67.223475 189.991564 
L 67.223475 195.591204 
L 67.223475 201.190844 
L 67.223475 206.790484 
L 67.223475 212.390123 
L 67.223475 216.123217 
L 76.846951 212.390123 
L 76.846951 212.390123 
L 80.054776 206.790484 
L 83.262601 201.190844 
L 86.470426 195.591204 
L 86.470426 195.591204 
L 86.470426 195.591204 
L 81.658688 189.991564 
L 86.470426 187.191744 
L 96.093901 189.991564 
L 96.093901 189.991564 
L 105.717376 191.858111 
L 115.340852 195.591204 
L 115.340852 195.591204 
L 115.340852 195.591204 
L 120.152589 189.991564 
L 124.964327 184.391925 
L 124.964327 184.391925 
L 134.587802 179.49224 
L 139.39954 178.792285 
L 139.39954 173.192645 
L 144.211277 170.392825 
L 147.419102 173.192645 
L 153.834753 178.792285 
L 153.834753 178.792285 
L 153.834753 178.792285 
L 157.684143 173.192645 
L 153.834753 169.459552 
L 149.023015 167.593005 
L 153.834753 165.726459 
L 158.64649 167.593005 
L 163.458228 168.992915 
L 168.269965 167.593005 
L 173.081703 164.793185 
L 177.893441 167.593005 
L 182.705178 168.392954 
L 183.908113 167.593005 
L 182.705178 161.993365 
L 187.516916 156.393726 
L 185.913003 150.794086 
L 185.913003 145.194446 
L 182.705178 142.394626 
L 179.497353 139.594806 
L 182.705178 137.72826 
L 192.328654 136.794986 
L 201.952129 133.995166 
L 201.952129 133.995166 
L 211.575604 128.395527 
L 211.575604 128.395527 
L 221.199079 123.050416 
L 221.584018 122.795887 
L 230.822555 117.626988 
L 234.03038 117.196247 
L 240.44603 113.463154 
L 246.86168 117.196247 
L 250.069505 118.214363 
L 257.943258 122.795887 
L 259.69298 124.662433 
L 269.316456 124.040251 
L 273.165846 122.795887 
L 278.939931 119.436103 
L 288.563406 117.996196 
L 298.186881 118.316175 
L 298.956759 117.196247 
L 307.810357 112.044578 
L 317.433832 111.907698 
L 326.52267 117.196247 
L 327.057307 122.795887 
L 335.306 128.395527 
L 335.548609 133.995166 
L 327.057307 139.594806 
L 327.057307 145.194446 
L 336.279804 150.794086 
L 336.680782 150.945427 
L 345.797759 156.393726 
L 339.888608 161.993365 
L 336.680782 163.859912 
L 336.017095 167.593005 
L 330.265132 173.192645 
L 327.057307 175.059192 
L 324.307743 178.792285 
L 317.433832 183.458651 
L 316.364557 184.391925 
L 307.810357 188.871636 
L 306.206444 189.991564 
L 303.960967 195.591204 
L 298.186881 199.790934 
L 297.224534 201.190844 
L 288.563406 205.772367 
L 287.494131 206.790484 
L 286.638711 212.390123 
L 278.939931 217.989763 
L 278.939931 217.989763 
L 278.939931 217.989763 
L 282.147756 223.589403 
L 278.939931 229.189043 
L 274.128193 223.589403 
L 269.316456 223.029439 
L 259.69298 223.589403 
L 269.316456 229.189043 
L 259.69298 234.788683 
L 250.069505 229.189043 
L 250.069505 229.189043 
L 250.069505 229.189043 
L 240.44603 234.228719 
L 239.243095 234.788683 
L 237.238205 240.388322 
L 230.822555 243.188142 
L 224.406904 245.987962 
L 221.199079 247.854509 
L 211.575604 250.887647 
L 209.971692 251.587602 
L 201.952129 257.187242 
L 201.952129 257.187242 
L 192.328654 261.986933 
L 190.953871 262.786882 
L 182.705178 267.586573 
L 181.502244 268.386521 
L 173.081703 273.286206 
L 171.157008 273.986161 
L 163.458228 279.585801 
L 163.458228 279.585801 
L 158.64649 285.185441 
L 153.834753 287.985261 
L 144.211277 289.851807 
L 141.003452 290.785081 
L 134.587802 293.584901 
L 131.838238 296.38472 
L 124.964327 300.384463 
L 115.340852 300.384463 
L 112.591287 301.98436 
z
M 91.282163 178.792285 
L 96.093901 175.992465 
L 99.301726 173.192645 
L 105.717376 169.459552 
L 115.340852 173.192645 
L 115.340852 173.192645 
L 120.152589 178.792285 
L 115.340852 184.391925 
L 105.717376 178.792285 
L 105.717376 178.792285 
L 105.717376 178.792285 
L 96.093901 180.658831 
z
M 115.340852 156.393726 
L 115.340852 156.393726 
L 124.964327 154.527179 
L 129.776064 156.393726 
L 124.964327 159.193545 
L 115.340852 159.543523 
z
M 166.666053 156.393726 
L 173.081703 150.794086 
L 177.893441 156.393726 
L 173.081703 160.126819 
z
M 139.39954 150.794086 
L 144.211277 148.927539 
L 149.023015 150.794086 
L 144.211277 153.593906 
z
M 129.776064 145.194446 
L 134.587802 143.327899 
L 137.795627 145.194446 
L 134.587802 147.994266 
z
M 150.626927 145.194446 
L 153.834753 143.327899 
L 163.458228 142.394626 
L 173.081703 143.327899 
L 177.893441 145.194446 
L 173.081703 150.794086 
L 163.458228 147.994266 
L 153.834753 147.994266 
z
" style="fill:#ffffff;"/>
    <path clip-path="url(#p542f8a6c0d)" d="M 144.211277 279.585801 
L 144.211277 279.585801 
L 144.211277 279.585801 
L 144.211277 279.585801 
z
" style="fill:#ffffff;"/>
    <path clip-path="url(#p542f8a6c0d)" d="M 173.081703 259.053788 
L 174.150978 257.187242 
L 173.081703 255.320695 
L 170.675834 257.187242 
z
" style="fill:#ffffff;"/>
    <path clip-path="url(#p542f8a6c0d)" d="M 182.705178 251.587602 
L 182.705178 251.587602 
L 182.705178 251.587602 
L 182.705178 251.587602 
z
" style="fill:#ffffff;"/>
    <path clip-path="url(#p542f8a6c0d)" d="M 69.14817 229.189043 
L 67.223475 226.389223 
L 67.223475 229.189043 
L 67.223475 231.988863 
z
" style="fill:#ffffff;"/>
    <path clip-path="url(#p542f8a6c0d)" d="M 192.328654 230.122316 
L 193.703436 229.189043 
L 192.328654 228.25577 
L 191.687089 229.189043 
z
" style="fill:#ffffff;"/>
    <path clip-path="url(#p542f8a6c0d)" d="M 221.199079 223.589403 
L 221.199079 223.589403 
L 221.199079 223.589403 
z
" style="fill:#ffffff;"/>
    <path clip-path="url(#p542f8a6c0d)" d="M 96.093901 208.190394 
L 98.49977 206.790484 
L 102.509551 201.190844 
L 96.093901 197.457751 
L 89.678251 201.190844 
L 92.886076 206.790484 
z
" style="fill:#ffffff;"/>
    <path clip-path="url(#p542f8a6c0d)" d="M 134.587802 189.991564 
L 144.211277 189.991564 
L 144.211277 189.991564 
L 144.211277 189.991564 
L 134.587802 189.991564 
L 134.587802 189.991564 
z
" style="fill:#ffffff;"/>
   </g>
   <g id="PathCollection_3">
    <path clip-path="url(#p542f8a6c0d)" d="M 96.093901 296.38472 
L 96.093901 296.38472 
L 96.093901 296.38472 
L 96.093901 296.38472 
z
" style="fill:#f0f0f0;"/>
    <path clip-path="url(#p542f8a6c0d)" d="M 105.717376 301.98436 
L 112.591287 301.98436 
L 115.340852 300.384463 
L 124.964327 300.384463 
L 131.838238 296.38472 
L 134.587802 293.584901 
L 141.003452 290.785081 
L 144.211277 289.851807 
L 153.834753 287.985261 
L 158.64649 285.185441 
L 163.458228 279.585801 
L 163.458228 279.585801 
L 171.157008 273.986161 
L 173.081703 273.286206 
L 181.502244 268.386521 
L 182.705178 267.586573 
L 190.953871 262.786882 
L 192.328654 261.986933 
L 201.952129 257.187242 
L 201.952129 257.187242 
L 209.971692 251.587602 
L 211.575604 250.887647 
L 221.199079 247.854509 
L 224.406904 245.987962 
L 230.822555 243.188142 
L 237.238205 240.388322 
L 239.243095 234.788683 
L 240.44603 234.228719 
L 250.069505 229.189043 
L 259.69298 234.788683 
L 269.316456 229.189043 
L 259.69298 223.589403 
L 269.316456 223.029439 
L 274.128193 223.589403 
L 278.939931 229.189043 
L 282.147756 223.589403 
L 278.939931 217.989763 
L 278.939931 217.989763 
L 278.939931 217.989763 
L 286.638711 212.390123 
L 287.494131 206.790484 
L 288.563406 205.772367 
L 297.224534 201.190844 
L 298.186881 199.790934 
L 303.960967 195.591204 
L 306.206444 189.991564 
L 307.810357 188.871636 
L 316.364557 184.391925 
L 317.433832 183.458651 
L 324.307743 178.792285 
L 327.057307 175.059192 
L 330.265132 173.192645 
L 336.017095 167.593005 
L 336.680782 163.859912 
L 339.888608 161.993365 
L 345.797759 156.393726 
L 336.680782 150.945427 
L 336.279804 150.794086 
L 327.057307 145.194446 
L 327.057307 139.594806 
L 335.548609 133.995166 
L 335.306 128.395527 
L 327.057307 122.795887 
L 326.52267 117.196247 
L 317.433832 111.907698 
L 307.810357 112.044578 
L 298.956759 117.196247 
L 298.186881 118.316175 
L 288.563406 117.996196 
L 278.939931 119.436103 
L 273.165846 122.795887 
L 269.316456 124.040251 
L 259.69298 124.662433 
L 257.943258 122.795887 
L 250.069505 118.214363 
L 246.86168 117.196247 
L 240.44603 113.463154 
L 234.03038 117.196247 
L 230.822555 117.626988 
L 221.584018 122.795887 
L 221.199079 123.050416 
L 211.575604 128.395527 
L 201.952129 133.995166 
L 201.952129 133.995166 
L 192.328654 136.794986 
L 182.705178 137.72826 
L 179.497353 139.594806 
L 182.705178 142.394626 
L 185.913003 145.194446 
L 185.913003 150.794086 
L 187.516916 156.393726 
L 182.705178 161.993365 
L 183.908113 167.593005 
L 182.705178 168.392954 
L 177.893441 167.593005 
L 173.081703 164.793185 
L 168.269965 167.593005 
L 163.458228 168.992915 
L 158.64649 167.593005 
L 153.834753 165.726459 
L 149.023015 167.593005 
L 153.834753 169.459552 
L 157.684143 173.192645 
L 153.834753 178.792285 
L 153.834753 178.792285 
L 153.834753 178.792285 
L 147.419102 173.192645 
L 144.211277 170.392825 
L 139.39954 173.192645 
L 139.39954 178.792285 
L 134.587802 179.49224 
L 124.964327 184.391925 
L 124.964327 184.391925 
L 120.152589 189.991564 
L 115.340852 195.591204 
L 115.340852 195.591204 
L 115.340852 195.591204 
L 105.717376 191.858111 
L 96.093901 189.991564 
L 96.093901 189.991564 
L 86.470426 187.191744 
L 81.658688 189.991564 
L 86.470426 195.591204 
L 86.470426 195.591204 
L 86.470426 195.591204 
L 83.262601 201.190844 
L 80.054776 206.790484 
L 76.846951 212.390123 
L 76.846951 212.390123 
L 67.223475 216.123217 
L 67.223475 217.989763 
L 67.223475 223.589403 
L 67.223475 226.389223 
L 69.14817 229.189043 
L 67.223475 231.988863 
L 67.223475 234.788683 
L 67.223475 240.388322 
L 67.223475 245.987962 
L 67.223475 248.387808 
L 70.4313 245.987962 
L 70.4313 240.388322 
L 73.639125 234.788683 
L 76.846951 231.055589 
L 78.771646 229.189043 
L 86.470426 223.589403 
L 86.470426 223.589403 
L 91.282163 217.989763 
L 96.093901 215.189943 
L 105.717376 212.390123 
L 105.717376 212.390123 
L 109.566766 206.790484 
L 111.216505 201.190844 
L 115.340852 199.090979 
L 124.964327 199.324297 
L 134.587802 198.950988 
L 144.211277 198.391024 
L 149.023015 195.591204 
L 152.23084 189.991564 
L 153.834753 188.871636 
L 163.458228 188.591654 
L 173.081703 186.258471 
L 177.893441 184.391925 
L 182.705178 181.992079 
L 186.982278 178.792285 
L 182.705178 174.312573 
L 180.29931 173.192645 
L 182.705178 172.392696 
L 189.922785 167.593005 
L 190.724741 161.993365 
L 192.328654 160.593455 
L 198.102739 156.393726 
L 201.952129 150.794086 
L 201.952129 150.794086 
L 201.952129 150.794086 
L 199.54626 145.194446 
L 200.027434 139.594806 
L 201.952129 138.661533 
L 205.96191 133.995166 
L 211.575604 130.72871 
L 213.866908 128.395527 
L 221.199079 124.323061 
L 223.508713 122.795887 
L 230.822555 118.703842 
L 240.44603 117.43971 
L 250.069505 120.759654 
L 253.568951 122.795887 
L 257.287112 128.395527 
L 259.69298 129.017709 
L 262.900806 128.395527 
L 269.316456 127.151162 
L 278.939931 123.454668 
L 281.078481 122.795887 
L 288.563406 119.996067 
L 298.186881 121.115995 
L 300.881455 117.196247 
L 307.810357 113.164506 
L 317.433832 112.685426 
L 325.186076 117.196247 
L 321.042635 122.795887 
L 327.057307 125.12907 
L 331.869045 128.395527 
L 332.718175 133.995166 
L 327.057307 137.72826 
L 325.33883 139.594806 
L 323.620352 145.194446 
L 327.057307 146.411759 
L 334.274914 150.794086 
L 336.680782 151.702135 
L 344.531512 156.393726 
L 336.680782 161.353406 
L 334.542232 161.993365 
L 334.357875 167.593005 
L 327.057307 172.331162 
L 324.491047 173.192645 
L 317.433832 178.792285 
L 317.433832 178.792285 
L 311.018182 184.391925 
L 307.810357 186.071816 
L 302.196663 189.991564 
L 298.186881 193.991307 
L 296.582969 195.591204 
L 292.412796 201.190844 
L 288.563406 203.227077 
L 284.820944 206.790484 
L 278.939931 211.923487 
L 277.336018 212.390123 
L 273.593556 217.989763 
L 269.316456 220.229619 
L 259.69298 220.478492 
L 255.683199 223.589403 
L 250.069505 226.85586 
L 244.72313 229.189043 
L 240.44603 231.428899 
L 233.228423 234.788683 
L 230.822555 237.028539 
L 227.61473 234.788683 
L 221.199079 229.189043 
L 213.500299 234.788683 
L 211.575604 236.655229 
L 208.367779 234.788683 
L 201.952129 231.055589 
L 200.577347 229.189043 
L 192.328654 223.589403 
L 188.479264 229.189043 
L 182.705178 234.228719 
L 173.081703 234.788683 
L 163.458228 237.988477 
L 159.333881 240.388322 
L 161.052359 245.987962 
L 153.834753 248.387808 
L 144.211277 249.987705 
L 134.587802 249.487737 
L 131.700759 251.587602 
L 134.587802 257.187242 
L 134.587802 257.187242 
L 136.993671 262.786882 
L 134.587802 263.90681 
L 124.964327 262.786882 
L 124.964327 262.786882 
L 124.964327 262.786882 
L 115.340852 267.877463 
L 114.137917 268.386521 
L 115.340852 270.253068 
L 121.756502 273.986161 
L 115.340852 275.852708 
L 107.642071 279.585801 
L 112.934983 285.185441 
L 105.717376 289.385171 
L 100.905639 290.785081 
L 105.717376 293.584901 
L 115.340852 296.38472 
L 121.114937 296.38472 
L 115.340852 296.38472 
L 105.717376 301.98436 
L 105.717376 301.98436 
z
M 144.211277 279.585801 
L 144.211277 279.585801 
L 144.211277 279.585801 
L 144.211277 279.585801 
z
M 168.269965 268.386521 
L 173.081703 266.146666 
L 175.487572 268.386521 
L 173.081703 269.786431 
z
M 180.29931 262.786882 
L 179.497353 257.187242 
L 182.705178 255.087377 
L 192.328654 254.387422 
L 193.932566 257.187242 
L 192.328654 257.98719 
L 184.079961 262.786882 
L 182.705178 263.58683 
z
M 170.675834 257.187242 
L 173.081703 255.320695 
L 174.150978 257.187242 
L 173.081703 259.053788 
z
M 182.705178 251.587602 
L 182.705178 251.587602 
L 182.705178 251.587602 
L 182.705178 251.587602 
z
M 206.763867 245.987962 
L 211.575604 243.188142 
L 214.783429 245.987962 
L 211.575604 247.387872 
z
M 173.081703 240.388322 
L 182.705178 237.588503 
L 187.516916 240.388322 
L 182.705178 241.788232 
z
M 217.991254 240.388322 
L 221.199079 239.268395 
L 223.604948 240.388322 
L 221.199079 241.50825 
z
M 191.687089 229.189043 
L 192.328654 228.25577 
L 193.703436 229.189043 
L 192.328654 230.122316 
z
M 92.886076 206.790484 
L 89.678251 201.190844 
L 96.093901 197.457751 
L 102.509551 201.190844 
L 98.49977 206.790484 
L 96.093901 208.190394 
z
M 134.587802 189.991564 
L 134.587802 189.991564 
L 144.211277 189.991564 
L 144.211277 189.991564 
L 144.211277 189.991564 
L 134.587802 189.991564 
z
M 131.838238 184.391925 
L 134.587802 182.992015 
L 138.437192 184.391925 
L 134.587802 185.991822 
z
" style="fill:#f0f0f0;"/>
    <path clip-path="url(#p542f8a6c0d)" d="M 221.199079 229.189043 
L 230.822555 226.389223 
L 233.228423 223.589403 
L 240.44603 217.989763 
L 245.257768 212.390123 
L 240.44603 211.372007 
L 239.483682 212.390123 
L 230.822555 217.695045 
L 228.89786 217.989763 
L 221.199079 220.478492 
L 214.325168 223.589403 
z
M 221.199079 223.589403 
L 221.199079 223.589403 
L 221.199079 223.589403 
z
" style="fill:#f0f0f0;"/>
    <path clip-path="url(#p542f8a6c0d)" d="M 96.093901 180.658831 
L 105.717376 178.792285 
L 105.717376 178.792285 
L 105.717376 178.792285 
L 115.340852 184.391925 
L 120.152589 178.792285 
L 115.340852 173.192645 
L 115.340852 173.192645 
L 105.717376 169.459552 
L 99.301726 173.192645 
L 96.093901 175.992465 
L 91.282163 178.792285 
z
" style="fill:#f0f0f0;"/>
    <path clip-path="url(#p542f8a6c0d)" d="M 240.44603 161.993365 
z
" style="fill:#f0f0f0;"/>
    <path clip-path="url(#p542f8a6c0d)" d="M 115.340852 159.543523 
L 124.964327 159.193545 
L 129.776064 156.393726 
L 124.964327 154.527179 
L 115.340852 156.393726 
L 115.340852 156.393726 
z
" style="fill:#f0f0f0;"/>
    <path clip-path="url(#p542f8a6c0d)" d="M 173.081703 160.126819 
L 177.893441 156.393726 
L 173.081703 150.794086 
L 166.666053 156.393726 
z
" style="fill:#f0f0f0;"/>
    <path clip-path="url(#p542f8a6c0d)" d="M 250.069505 156.673708 
L 250.241353 156.393726 
L 250.069505 156.246367 
L 249.611244 156.393726 
z
" style="fill:#f0f0f0;"/>
    <path clip-path="url(#p542f8a6c0d)" d="M 144.211277 153.593906 
L 149.023015 150.794086 
L 144.211277 148.927539 
L 139.39954 150.794086 
z
" style="fill:#f0f0f0;"/>
    <path clip-path="url(#p542f8a6c0d)" d="M 134.587802 147.994266 
L 137.795627 145.194446 
L 134.587802 143.327899 
L 129.776064 145.194446 
z
" style="fill:#f0f0f0;"/>
    <path clip-path="url(#p542f8a6c0d)" d="M 153.834753 147.994266 
L 163.458228 147.994266 
L 173.081703 150.794086 
L 177.893441 145.194446 
L 173.081703 143.327899 
L 163.458228 142.394626 
L 153.834753 143.327899 
L 150.626927 145.194446 
z
" style="fill:#f0f0f0;"/>
   </g>
   <g id="PathCollection_4">
    <path clip-path="url(#p542f8a6c0d)" d="M 86.470426 301.98436 
L 96.093901 301.98436 
L 105.717376 301.98436 
L 105.717376 301.98436 
L 115.340852 296.38472 
L 121.114937 296.38472 
L 115.340852 296.38472 
L 105.717376 293.584901 
L 100.905639 290.785081 
L 105.717376 289.385171 
L 112.934983 285.185441 
L 107.642071 279.585801 
L 115.340852 275.852708 
L 121.756502 273.986161 
L 115.340852 270.253068 
L 114.137917 268.386521 
L 115.340852 267.877463 
L 124.964327 262.786882 
L 124.964327 262.786882 
L 124.964327 262.786882 
L 134.587802 263.90681 
L 136.993671 262.786882 
L 134.587802 257.187242 
L 134.587802 257.187242 
L 131.700759 251.587602 
L 134.587802 249.487737 
L 144.211277 249.987705 
L 153.834753 248.387808 
L 161.052359 245.987962 
L 159.333881 240.388322 
L 163.458228 237.988477 
L 173.081703 234.788683 
L 182.705178 234.228719 
L 188.479264 229.189043 
L 192.328654 223.589403 
L 200.577347 229.189043 
L 201.952129 231.055589 
L 208.367779 234.788683 
L 211.575604 236.655229 
L 213.500299 234.788683 
L 221.199079 229.189043 
L 227.61473 234.788683 
L 230.822555 237.028539 
L 233.228423 234.788683 
L 240.44603 231.428899 
L 244.72313 229.189043 
L 250.069505 226.85586 
L 255.683199 223.589403 
L 259.69298 220.478492 
L 269.316456 220.229619 
L 273.593556 217.989763 
L 277.336018 212.390123 
L 278.939931 211.923487 
L 284.820944 206.790484 
L 288.563406 203.227077 
L 292.412796 201.190844 
L 296.582969 195.591204 
L 298.186881 193.991307 
L 302.196663 189.991564 
L 307.810357 186.071816 
L 311.018182 184.391925 
L 317.433832 178.792285 
L 317.433832 178.792285 
L 324.491047 173.192645 
L 327.057307 172.331162 
L 334.357875 167.593005 
L 334.542232 161.993365 
L 336.680782 161.353406 
L 344.531512 156.393726 
L 336.680782 151.702135 
L 334.274914 150.794086 
L 327.057307 146.411759 
L 323.620352 145.194446 
L 325.33883 139.594806 
L 327.057307 137.72826 
L 332.718175 133.995166 
L 331.869045 128.395527 
L 327.057307 125.12907 
L 321.042635 122.795887 
L 325.186076 117.196247 
L 317.433832 112.685426 
L 307.810357 113.164506 
L 300.881455 117.196247 
L 298.186881 121.115995 
L 288.563406 119.996067 
L 281.078481 122.795887 
L 278.939931 123.454668 
L 269.316456 127.151162 
L 262.900806 128.395527 
L 259.69298 129.017709 
L 257.287112 128.395527 
L 253.568951 122.795887 
L 250.069505 120.759654 
L 240.44603 117.43971 
L 230.822555 118.703842 
L 223.508713 122.795887 
L 221.199079 124.323061 
L 213.866908 128.395527 
L 211.575604 130.72871 
L 205.96191 133.995166 
L 201.952129 138.661533 
L 200.027434 139.594806 
L 199.54626 145.194446 
L 201.952129 150.794086 
L 201.952129 150.794086 
L 201.952129 150.794086 
L 198.102739 156.393726 
L 192.328654 160.593455 
L 190.724741 161.993365 
L 189.922785 167.593005 
L 182.705178 172.392696 
L 180.29931 173.192645 
L 182.705178 174.312573 
L 186.982278 178.792285 
L 182.705178 181.992079 
L 177.893441 184.391925 
L 173.081703 186.258471 
L 163.458228 188.591654 
L 153.834753 188.871636 
L 152.23084 189.991564 
L 149.023015 195.591204 
L 144.211277 198.391024 
L 134.587802 198.950988 
L 124.964327 199.324297 
L 115.340852 199.090979 
L 111.216505 201.190844 
L 109.566766 206.790484 
L 105.717376 212.390123 
L 105.717376 212.390123 
L 96.093901 215.189943 
L 91.282163 217.989763 
L 86.470426 223.589403 
L 86.470426 223.589403 
L 78.771646 229.189043 
L 76.846951 231.055589 
L 73.639125 234.788683 
L 70.4313 240.388322 
L 70.4313 245.987962 
L 67.223475 248.387808 
L 67.223475 251.587602 
L 67.223475 257.187242 
L 67.223475 258.587152 
L 72.035213 257.187242 
L 70.832278 251.587602 
L 76.846951 246.921236 
L 77.809298 245.987962 
L 86.470426 242.628178 
L 96.093901 240.388322 
L 96.093901 240.388322 
L 96.093901 240.388322 
L 86.470426 236.655229 
L 82.861623 234.788683 
L 86.470426 231.988863 
L 92.244511 229.189043 
L 96.093901 226.389223 
L 98.843465 223.589403 
L 105.717376 218.923037 
L 107.642071 217.989763 
L 115.340852 215.189943 
L 124.964327 215.501034 
L 130.310702 212.390123 
L 134.587802 208.65703 
L 144.211277 208.65703 
L 153.834753 206.790484 
L 153.834753 206.790484 
L 163.458228 201.190844 
L 163.458228 201.190844 
L 173.081703 196.524477 
L 175.006398 195.591204 
L 182.705178 191.858111 
L 185.111047 189.991564 
L 192.328654 186.258471 
L 197.140391 184.391925 
L 201.952129 181.032141 
L 204.357998 178.792285 
L 206.763867 173.192645 
L 211.575604 168.992915 
L 212.217169 167.593005 
L 213.019125 161.993365 
L 211.575604 157.193674 
L 209.971692 156.393726 
L 211.575604 150.794086 
L 213.179517 156.393726 
L 221.199079 157.111628 
L 222.222853 156.393726 
L 221.199079 152.393983 
L 211.575604 150.794086 
L 214.462647 145.194446 
L 216.921979 139.594806 
L 221.199079 133.995166 
L 217.074733 128.395527 
L 221.199079 126.104765 
L 226.203287 122.795887 
L 230.822555 120.211438 
L 240.44603 119.143948 
L 248.465593 122.795887 
L 248.694723 128.395527 
L 250.069505 130.262073 
L 259.69298 133.372984 
L 261.067763 133.995166 
L 269.316456 137.049515 
L 276.534062 133.995166 
L 273.017792 128.395527 
L 278.939931 125.760402 
L 288.563406 122.795887 
L 288.563406 122.795887 
L 288.563406 122.795887 
L 297.749451 128.395527 
L 298.186881 128.706618 
L 298.988838 128.395527 
L 299.612581 122.795887 
L 303.576028 117.196247 
L 307.810357 114.732405 
L 317.433832 113.774245 
L 323.314845 117.196247 
L 317.433832 121.934404 
L 316.008132 122.795887 
L 316.631876 128.395527 
L 317.433832 128.638989 
L 327.057307 128.395527 
L 327.057307 128.395527 
L 328.755568 133.995166 
L 327.057307 135.115094 
L 322.932961 139.594806 
L 318.808614 145.194446 
L 327.057307 148.115997 
L 331.468067 150.794086 
L 336.680782 152.761527 
L 342.758767 156.393726 
L 336.680782 160.233479 
L 330.79977 161.993365 
L 332.034967 167.593005 
L 327.057307 170.823567 
L 320.000092 173.192645 
L 317.433832 175.228878 
L 307.810357 178.792285 
L 307.810357 178.792285 
L 298.186881 184.391925 
L 298.186881 184.391925 
L 296.582969 189.991564 
L 290.969275 195.591204 
L 288.563406 198.391024 
L 285.938822 201.190844 
L 281.078481 206.790484 
L 278.939931 208.65703 
L 269.316456 210.150268 
L 262.900806 212.390123 
L 259.69298 213.790033 
L 258.089068 212.390123 
L 259.69298 209.590304 
L 262.098849 206.790484 
L 261.83153 201.190844 
L 259.69298 200.070916 
L 258.560807 201.190844 
L 254.881243 206.790484 
L 250.069505 207.723757 
L 240.44603 207.8086 
L 236.115466 212.390123 
L 230.822555 215.63202 
L 224.206415 212.390123 
L 221.199079 210.743171 
L 217.497743 212.390123 
L 211.575604 216.869835 
L 206.763867 217.989763 
L 201.952129 220.229619 
L 192.328654 219.234128 
L 182.705178 222.189493 
L 173.081703 223.589403 
L 173.081703 223.589403 
L 173.081703 224.389352 
L 182.705178 226.389223 
L 183.988308 229.189043 
L 182.705178 230.308971 
L 173.081703 229.189043 
L 173.081703 229.189043 
L 163.458228 227.589146 
L 159.608838 229.189043 
L 153.834753 231.055589 
L 144.211277 233.388773 
L 141.003452 234.788683 
L 144.211277 237.588503 
L 148.060667 240.388322 
L 144.211277 243.188142 
L 134.587802 243.188142 
L 131.379977 245.987962 
L 124.964327 251.587602 
L 115.340852 254.698513 
L 113.591129 257.187242 
L 115.340852 260.387036 
L 118.227894 262.786882 
L 115.340852 264.314056 
L 105.717376 268.386521 
L 100.905639 273.986161 
L 96.093901 277.719254 
L 94.613366 279.585801 
L 96.093901 285.185441 
L 92.69738 290.785081 
L 92.131294 296.38472 
L 86.470426 301.051087 
L 85.338252 301.98436 
z
M 96.093901 296.38472 
L 96.093901 296.38472 
L 96.093901 296.38472 
L 96.093901 296.38472 
z
M 214.325168 223.589403 
L 221.199079 220.478492 
L 228.89786 217.989763 
L 230.822555 217.695045 
L 239.483682 212.390123 
L 240.44603 211.372007 
L 245.257768 212.390123 
L 240.44603 217.989763 
L 233.228423 223.589403 
L 230.822555 226.389223 
L 221.199079 229.189043 
z
" style="fill:#d3d3d3;"/>
    <path clip-path="url(#p542f8a6c0d)" d="M 173.081703 269.786431 
L 175.487572 268.386521 
L 173.081703 266.146666 
L 168.269965 268.386521 
z
" style="fill:#d3d3d3;"/>
    <path clip-path="url(#p542f8a6c0d)" d="M 182.705178 263.58683 
L 184.079961 262.786882 
L 192.328654 257.98719 
L 193.932566 257.187242 
L 192.328654 254.387422 
L 182.705178 255.087377 
L 179.497353 257.187242 
L 180.29931 262.786882 
z
" style="fill:#d3d3d3;"/>
    <path clip-path="url(#p542f8a6c0d)" d="M 211.575604 247.387872 
L 214.783429 245.987962 
L 211.575604 243.188142 
L 206.763867 245.987962 
z
" style="fill:#d3d3d3;"/>
    <path clip-path="url(#p542f8a6c0d)" d="M 182.705178 241.788232 
L 187.516916 240.388322 
L 182.705178 237.588503 
L 173.081703 240.388322 
z
" style="fill:#d3d3d3;"/>
    <path clip-path="url(#p542f8a6c0d)" d="M 221.199079 241.50825 
L 223.604948 240.388322 
L 221.199079 239.268395 
L 217.991254 240.388322 
z
" style="fill:#d3d3d3;"/>
    <path clip-path="url(#p542f8a6c0d)" d="M 115.340852 229.189043 
L 124.964327 223.589403 
L 124.964327 223.589403 
L 124.964327 223.589403 
L 115.340852 220.789583 
L 111.063751 223.589403 
z
" style="fill:#d3d3d3;"/>
    <path clip-path="url(#p542f8a6c0d)" d="M 134.587802 219.85631 
L 135.962584 217.989763 
L 134.587802 216.869835 
L 132.663107 217.989763 
z
" style="fill:#d3d3d3;"/>
    <path clip-path="url(#p542f8a6c0d)" d="M 134.587802 185.991822 
L 138.437192 184.391925 
L 134.587802 182.992015 
L 131.838238 184.391925 
z
" style="fill:#d3d3d3;"/>
    <path clip-path="url(#p542f8a6c0d)" d="M 240.44603 166.348641 
L 243.991521 161.993365 
L 240.44603 160.033491 
L 236.703567 161.993365 
z
M 240.44603 161.993365 
z
" style="fill:#d3d3d3;"/>
    <path clip-path="url(#p542f8a6c0d)" d="M 250.069505 158.633581 
L 251.444287 156.393726 
L 250.069505 155.214854 
L 246.403419 156.393726 
z
M 249.611244 156.393726 
L 250.069505 156.246367 
L 250.241353 156.393726 
L 250.069505 156.673708 
z
" style="fill:#d3d3d3;"/>
    <path clip-path="url(#p542f8a6c0d)" d="M 230.822555 146.127719 
L 231.932956 145.194446 
L 230.822555 143.667271 
L 227.935512 145.194446 
z
" style="fill:#d3d3d3;"/>
    <path clip-path="url(#p542f8a6c0d)" d="M 240.44603 139.828124 
L 240.73765 139.594806 
L 240.44603 139.340277 
L 239.376755 139.594806 
z
" style="fill:#d3d3d3;"/>
   </g>
   <g id="PathCollection_5">
    <path clip-path="url(#p542f8a6c0d)" d="M 86.470426 301.051087 
L 92.131294 296.38472 
L 92.69738 290.785081 
L 96.093901 285.185441 
L 94.613366 279.585801 
L 96.093901 277.719254 
L 100.905639 273.986161 
L 105.717376 268.386521 
L 115.340852 264.314056 
L 118.227894 262.786882 
L 115.340852 260.387036 
L 113.591129 257.187242 
L 115.340852 254.698513 
L 124.964327 251.587602 
L 131.379977 245.987962 
L 134.587802 243.188142 
L 144.211277 243.188142 
L 148.060667 240.388322 
L 144.211277 237.588503 
L 141.003452 234.788683 
L 144.211277 233.388773 
L 153.834753 231.055589 
L 159.608838 229.189043 
L 163.458228 227.589146 
L 173.081703 229.189043 
L 173.081703 229.189043 
L 182.705178 230.308971 
L 183.988308 229.189043 
L 182.705178 226.389223 
L 173.081703 224.389352 
L 173.081703 223.589403 
L 173.081703 223.589403 
L 182.705178 222.189493 
L 192.328654 219.234128 
L 201.952129 220.229619 
L 206.763867 217.989763 
L 211.575604 216.869835 
L 217.497743 212.390123 
L 221.199079 210.743171 
L 224.206415 212.390123 
L 230.822555 215.63202 
L 236.115466 212.390123 
L 240.44603 207.8086 
L 250.069505 207.723757 
L 254.881243 206.790484 
L 258.560807 201.190844 
L 259.69298 200.070916 
L 261.83153 201.190844 
L 262.098849 206.790484 
L 259.69298 209.590304 
L 258.089068 212.390123 
L 259.69298 213.790033 
L 262.900806 212.390123 
L 269.316456 210.150268 
L 278.939931 208.65703 
L 281.078481 206.790484 
L 285.938822 201.190844 
L 288.563406 198.391024 
L 290.969275 195.591204 
L 296.582969 189.991564 
L 298.186881 184.391925 
L 298.186881 184.391925 
L 307.810357 178.792285 
L 307.810357 178.792285 
L 317.433832 175.228878 
L 320.000092 173.192645 
L 327.057307 170.823567 
L 332.034967 167.593005 
L 330.79977 161.993365 
L 336.680782 160.233479 
L 342.758767 156.393726 
L 336.680782 152.761527 
L 331.468067 150.794086 
L 327.057307 148.115997 
L 318.808614 145.194446 
L 322.932961 139.594806 
L 327.057307 135.115094 
L 328.755568 133.995166 
L 327.057307 128.395527 
L 327.057307 128.395527 
L 317.433832 128.638989 
L 316.631876 128.395527 
L 316.008132 122.795887 
L 317.433832 121.934404 
L 323.314845 117.196247 
L 317.433832 113.774245 
L 307.810357 114.732405 
L 303.576028 117.196247 
L 299.612581 122.795887 
L 298.988838 128.395527 
L 298.186881 128.706618 
L 297.749451 128.395527 
L 288.563406 122.795887 
L 288.563406 122.795887 
L 288.563406 122.795887 
L 278.939931 125.760402 
L 273.017792 128.395527 
L 276.534062 133.995166 
L 269.316456 137.049515 
L 261.067763 133.995166 
L 259.69298 133.372984 
L 250.069505 130.262073 
L 248.694723 128.395527 
L 248.465593 122.795887 
L 240.44603 119.143948 
L 230.822555 120.211438 
L 226.203287 122.795887 
L 221.199079 126.104765 
L 217.074733 128.395527 
L 221.199079 133.995166 
L 216.921979 139.594806 
L 214.462647 145.194446 
L 211.575604 150.794086 
L 221.199079 152.393983 
L 222.222853 156.393726 
L 221.199079 157.111628 
L 213.179517 156.393726 
L 211.575604 150.794086 
L 209.971692 156.393726 
L 211.575604 157.193674 
L 213.019125 161.993365 
L 212.217169 167.593005 
L 211.575604 168.992915 
L 206.763867 173.192645 
L 204.357998 178.792285 
L 201.952129 181.032141 
L 197.140391 184.391925 
L 192.328654 186.258471 
L 185.111047 189.991564 
L 182.705178 191.858111 
L 175.006398 195.591204 
L 173.081703 196.524477 
L 163.458228 201.190844 
L 163.458228 201.190844 
L 153.834753 206.790484 
L 153.834753 206.790484 
L 144.211277 208.65703 
L 134.587802 208.65703 
L 130.310702 212.390123 
L 124.964327 215.501034 
L 115.340852 215.189943 
L 107.642071 217.989763 
L 105.717376 218.923037 
L 98.843465 223.589403 
L 96.093901 226.389223 
L 92.244511 229.189043 
L 86.470426 231.988863 
L 82.861623 234.788683 
L 86.470426 236.655229 
L 96.093901 240.388322 
L 96.093901 240.388322 
L 96.093901 240.388322 
L 86.470426 242.628178 
L 77.809298 245.987962 
L 76.846951 246.921236 
L 70.832278 251.587602 
L 72.035213 257.187242 
L 67.223475 258.587152 
L 67.223475 262.786882 
L 67.223475 266.146666 
L 76.846951 263.58683 
L 84.064557 268.386521 
L 83.583383 273.986161 
L 81.658688 279.585801 
L 76.846951 281.452348 
L 76.077072 285.185441 
L 75.203918 290.785081 
L 76.846951 292.091663 
L 85.700548 296.38472 
L 78.545211 301.98436 
L 85.338252 301.98436 
z
M 88.876295 268.386521 
L 96.093901 265.586702 
L 99.301726 268.386521 
L 96.093901 270.786367 
z
M 83.03347 257.187242 
L 86.470426 255.18737 
L 96.093901 256.253969 
L 102.108573 251.587602 
L 96.093901 246.921236 
L 93.688032 245.987962 
L 96.093901 245.557221 
L 105.717376 242.972772 
L 115.340852 245.987962 
L 108.604419 251.587602 
L 108.34196 257.187242 
L 105.717376 260.920335 
L 96.093901 257.98719 
L 86.470426 262.786882 
z
M 110.529114 234.788683 
L 115.340852 232.725657 
L 124.964327 234.788683 
L 115.340852 238.708431 
z
M 124.964327 229.189043 
L 124.964327 229.189043 
L 134.587802 229.189043 
L 134.587802 229.189043 
L 134.587802 229.189043 
L 124.964327 232.455499 
z
M 111.063751 223.589403 
L 115.340852 220.789583 
L 124.964327 223.589403 
L 124.964327 223.589403 
L 124.964327 223.589403 
L 115.340852 229.189043 
z
M 132.663107 217.989763 
L 134.587802 216.869835 
L 135.962584 217.989763 
L 134.587802 219.85631 
z
M 200.882854 201.190844 
L 201.952129 200.490889 
L 205.014144 195.591204 
L 211.575604 191.939265 
L 215.424994 189.991564 
L 211.575604 186.545632 
L 208.138649 184.391925 
L 211.575604 181.846634 
L 217.991254 178.792285 
L 221.199079 174.592555 
L 230.822555 175.737936 
L 240.44603 173.192645 
L 245.511017 167.593005 
L 250.069505 161.993365 
L 250.069505 161.993365 
L 253.506461 156.393726 
L 250.069505 153.446547 
L 240.904291 156.393726 
L 240.44603 156.673708 
L 230.822555 161.812732 
L 230.404143 161.993365 
L 227.61473 167.593005 
L 221.199079 172.863254 
L 216.066559 167.593005 
L 215.906168 161.993365 
L 221.199079 158.834594 
L 224.679911 156.393726 
L 228.601753 150.794086 
L 230.822555 149.860812 
L 236.37456 145.194446 
L 240.44603 142.627944 
L 244.237096 139.594806 
L 240.44603 136.285928 
L 230.822555 138.101569 
L 226.220023 133.995166 
L 221.75428 128.395527 
L 230.822555 122.795887 
L 230.822555 122.795887 
L 240.44603 122.065499 
L 242.049942 122.795887 
L 244.570376 128.395527 
L 247.108436 133.995166 
L 250.069505 134.92844 
L 259.69298 135.861713 
L 266.993548 139.594806 
L 269.316456 139.979095 
L 272.011029 139.594806 
L 278.939931 135.995038 
L 280.987479 133.995166 
L 281.901 128.395527 
L 288.563406 125.995681 
L 292.500282 128.395527 
L 298.186881 132.439711 
L 307.810357 131.195346 
L 317.433832 131.56054 
L 322.498819 133.995166 
L 318.808614 139.594806 
L 317.433832 141.194703 
L 311.772964 145.194446 
L 312.622094 150.794086 
L 317.433832 151.224827 
L 327.057307 150.913227 
L 336.680782 154.577626 
L 339.719775 156.393726 
L 336.680782 158.313602 
L 327.057307 161.444381 
L 326.407072 161.993365 
L 327.057307 165.49314 
L 328.052839 167.593005 
L 327.057307 168.239117 
L 317.433832 171.592748 
L 307.810357 172.259372 
L 305.885662 173.192645 
L 298.186881 178.418975 
L 296.437159 178.792285 
L 290.969275 184.391925 
L 288.563406 188.125018 
L 287.360472 189.991564 
L 282.789321 195.591204 
L 278.939931 198.950988 
L 269.316456 196.524477 
L 267.391761 195.591204 
L 259.69298 194.729721 
L 256.193535 195.591204 
L 251.767766 201.190844 
L 250.069505 202.390767 
L 244.29542 201.190844 
L 240.44603 200.172728 
L 238.696307 201.190844 
L 230.822555 205.067518 
L 221.199079 206.790484 
L 221.199079 201.190844 
L 211.575604 200.257571 
L 204.357998 201.190844 
L 201.952129 206.790484 
z
M 236.703567 161.993365 
L 240.44603 160.033491 
L 243.991521 161.993365 
L 240.44603 166.348641 
z
M 246.403419 156.393726 
L 250.069505 155.214854 
L 251.444287 156.393726 
L 250.069505 158.633581 
z
M 227.935512 145.194446 
L 230.822555 143.667271 
L 231.932956 145.194446 
L 230.822555 146.127719 
z
M 239.376755 139.594806 
L 240.44603 139.340277 
L 240.73765 139.594806 
L 240.44603 139.828124 
z
M 303.889682 122.795887 
L 307.810357 117.662884 
L 308.685218 117.196247 
L 317.433832 115.640791 
L 320.10702 117.196247 
L 317.433832 119.349955 
L 311.731032 122.795887 
L 307.810357 127.92889 
z
" style="fill:#b8b8b8;"/>
    <path clip-path="url(#p542f8a6c0d)" d="M 221.199079 201.190844 
L 224.406904 195.591204 
L 221.199079 195.160463 
L 220.597612 195.591204 
z
" style="fill:#b8b8b8;"/>
    <path clip-path="url(#p542f8a6c0d)" d="M 230.822555 189.991564 
L 230.822555 189.991564 
L 230.822555 189.991564 
L 230.822555 189.991564 
z
" style="fill:#b8b8b8;"/>
   </g>
   <g id="PathCollection_6">
    <path clip-path="url(#p542f8a6c0d)" d="M 76.846951 301.98436 
L 78.545211 301.98436 
L 85.700548 296.38472 
L 76.846951 292.091663 
L 75.203918 290.785081 
L 76.077072 285.185441 
L 76.846951 281.452348 
L 81.658688 279.585801 
L 83.583383 273.986161 
L 84.064557 268.386521 
L 76.846951 263.58683 
L 67.223475 266.146666 
L 67.223475 268.386521 
L 67.223475 273.986161 
L 67.223475 279.585801 
L 67.223475 285.185441 
L 67.223475 290.785081 
L 67.223475 296.38472 
L 67.223475 301.98436 
z
" style="fill:#a0a0a0;"/>
    <path clip-path="url(#p542f8a6c0d)" d="M 96.093901 270.786367 
L 99.301726 268.386521 
L 96.093901 265.586702 
L 88.876295 268.386521 
z
" style="fill:#a0a0a0;"/>
    <path clip-path="url(#p542f8a6c0d)" d="M 86.470426 262.786882 
L 96.093901 257.98719 
L 105.717376 260.920335 
L 108.34196 257.187242 
L 108.604419 251.587602 
L 115.340852 245.987962 
L 105.717376 242.972772 
L 96.093901 245.557221 
L 93.688032 245.987962 
L 96.093901 246.921236 
L 102.108573 251.587602 
L 96.093901 256.253969 
L 86.470426 255.18737 
L 83.03347 257.187242 
z
" style="fill:#a0a0a0;"/>
    <path clip-path="url(#p542f8a6c0d)" d="M 115.340852 238.708431 
L 124.964327 234.788683 
L 115.340852 232.725657 
L 110.529114 234.788683 
z
" style="fill:#a0a0a0;"/>
    <path clip-path="url(#p542f8a6c0d)" d="M 124.964327 232.455499 
L 134.587802 229.189043 
L 134.587802 229.189043 
L 134.587802 229.189043 
L 124.964327 229.189043 
L 124.964327 229.189043 
z
" style="fill:#a0a0a0;"/>
    <path clip-path="url(#p542f8a6c0d)" d="M 201.952129 206.790484 
L 204.357998 201.190844 
L 211.575604 200.257571 
L 221.199079 201.190844 
L 221.199079 206.790484 
L 230.822555 205.067518 
L 238.696307 201.190844 
L 240.44603 200.172728 
L 244.29542 201.190844 
L 250.069505 202.390767 
L 251.767766 201.190844 
L 256.193535 195.591204 
L 259.69298 194.729721 
L 267.391761 195.591204 
L 269.316456 196.524477 
L 278.939931 198.950988 
L 282.789321 195.591204 
L 287.360472 189.991564 
L 288.563406 188.125018 
L 290.969275 184.391925 
L 296.437159 178.792285 
L 298.186881 178.418975 
L 305.885662 173.192645 
L 307.810357 172.259372 
L 317.433832 171.592748 
L 327.057307 168.239117 
L 328.052839 167.593005 
L 327.057307 165.49314 
L 326.407072 161.993365 
L 327.057307 161.444381 
L 336.680782 158.313602 
L 339.719775 156.393726 
L 336.680782 154.577626 
L 327.057307 150.913227 
L 317.433832 151.224827 
L 312.622094 150.794086 
L 311.772964 145.194446 
L 317.433832 141.194703 
L 318.808614 139.594806 
L 322.498819 133.995166 
L 317.433832 131.56054 
L 307.810357 131.195346 
L 298.186881 132.439711 
L 292.500282 128.395527 
L 288.563406 125.995681 
L 281.901 128.395527 
L 280.987479 133.995166 
L 278.939931 135.995038 
L 272.011029 139.594806 
L 269.316456 139.979095 
L 266.993548 139.594806 
L 259.69298 135.861713 
L 250.069505 134.92844 
L 247.108436 133.995166 
L 244.570376 128.395527 
L 242.049942 122.795887 
L 240.44603 122.065499 
L 230.822555 122.795887 
L 230.822555 122.795887 
L 221.75428 128.395527 
L 226.220023 133.995166 
L 230.822555 138.101569 
L 240.44603 136.285928 
L 244.237096 139.594806 
L 240.44603 142.627944 
L 236.37456 145.194446 
L 230.822555 149.860812 
L 228.601753 150.794086 
L 224.679911 156.393726 
L 221.199079 158.834594 
L 215.906168 161.993365 
L 216.066559 167.593005 
L 221.199079 172.863254 
L 227.61473 167.593005 
L 230.404143 161.993365 
L 230.822555 161.812732 
L 240.44603 156.673708 
L 240.904291 156.393726 
L 250.069505 153.446547 
L 253.506461 156.393726 
L 250.069505 161.993365 
L 250.069505 161.993365 
L 245.511017 167.593005 
L 240.44603 173.192645 
L 230.822555 175.737936 
L 221.199079 174.592555 
L 217.991254 178.792285 
L 211.575604 181.846634 
L 208.138649 184.391925 
L 211.575604 186.545632 
L 215.424994 189.991564 
L 211.575604 191.939265 
L 205.014144 195.591204 
L 201.952129 200.490889 
L 200.882854 201.190844 
z
M 220.597612 195.591204 
L 221.199079 195.160463 
L 224.406904 195.591204 
L 221.199079 201.190844 
z
M 230.822555 189.991564 
L 230.822555 189.991564 
L 230.822555 189.991564 
L 230.822555 189.991564 
z
" style="fill:#a0a0a0;"/>
    <path clip-path="url(#p542f8a6c0d)" d="M 307.810357 127.92889 
L 311.731032 122.795887 
L 317.433832 119.349955 
L 320.10702 117.196247 
L 317.433832 115.640791 
L 308.685218 117.196247 
L 307.810357 117.662884 
L 303.889682 122.795887 
z
" style="fill:#a0a0a0;"/>
   </g>
   <g id="PathCollection_7">
    <path clip-path="url(#p542f8a6c0d)" d="M 70.419331 307.584 
L 74.692441 307.584 
L 78.965552 307.584 
L 83.238662 307.584 
L 87.511773 307.584 
L 91.784883 307.584 
L 96.057993 307.584 
L 100.331104 307.584 
L 104.604214 307.584 
L 108.877324 307.584 
L 113.150435 307.584 
L 117.423545 307.584 
L 121.696656 307.584 
L 125.969766 307.584 
L 130.242876 307.584 
L 134.515987 307.584 
L 138.789097 307.584 
L 143.062207 307.584 
L 147.335318 307.584 
L 151.608428 307.584 
L 152.062646 307.584 
L 153.630008 306.542683 
L 154.79189 305.501365 
L 155.336238 304.460048 
L 155.274124 303.41873 
L 154.865804 302.377413 
L 153.94721 301.336095 
L 152.626522 300.294778 
L 151.608428 299.648179 
L 150.872581 299.25346 
L 148.588731 298.212143 
L 147.335318 297.786169 
L 145.789717 297.170826 
L 143.062207 296.173552 
L 142.93973 296.129508 
L 139.994176 295.088191 
L 138.789097 294.708712 
L 136.531406 294.046873 
L 134.515987 293.53679 
L 132.331598 293.005556 
L 130.242876 292.462422 
L 128.293813 291.964238 
L 125.969766 291.299163 
L 124.552876 290.922921 
L 121.696656 290.224234 
L 119.799994 289.881604 
L 117.423545 289.457155 
L 114.452478 288.840286 
L 113.150435 288.540347 
L 108.877324 287.907612 
L 108.057652 287.798969 
L 104.604214 287.376641 
L 100.331104 286.945926 
L 97.399182 286.757651 
L 96.057993 286.675679 
L 91.784883 286.55412 
L 87.511773 286.563284 
L 83.238662 286.707039 
L 82.202143 286.757651 
L 78.965552 286.923194 
L 74.692441 287.295357 
L 74.150873 287.798969 
L 73.167266 288.840286 
L 72.13764 289.881604 
L 71.187587 290.922921 
L 70.419331 291.879703 
L 70.402469 291.964238 
L 70.170224 293.005556 
L 69.935479 294.046873 
L 69.742663 295.088191 
L 69.576572 296.129508 
L 69.420411 297.170826 
L 69.279797 298.212143 
L 69.177694 299.25346 
L 69.092424 300.294778 
L 69.024484 301.336095 
L 68.977229 302.377413 
L 68.956224 303.41873 
L 68.953028 304.460048 
L 68.981031 305.501365 
L 69.040802 306.542683 
L 69.121431 307.584 
z
" style="fill:#4d94ff;fill-opacity:0.2;"/>
   </g>
   <g id="PathCollection_8">
    <path clip-path="url(#p542f8a6c0d)" d="M 77.958503 307.584 
L 82.030203 307.584 
L 86.101904 307.584 
L 90.173604 307.584 
L 94.245305 307.584 
L 98.317005 307.584 
L 102.388706 307.584 
L 106.460406 307.584 
L 110.532107 307.584 
L 114.603807 307.584 
L 118.675508 307.584 
L 122.747208 307.584 
L 126.818909 307.584 
L 130.890609 307.584 
L 134.96231 307.584 
L 139.03401 307.584 
L 143.105711 307.584 
L 147.177411 307.584 
L 151.249112 307.584 
L 155.320813 307.584 
L 159.392513 307.584 
L 163.464214 307.584 
L 167.535914 307.584 
L 171.607615 307.584 
L 175.679315 307.584 
L 179.751016 307.584 
L 183.822716 307.584 
L 187.894417 307.584 
L 189.94397 307.584 
L 191.966117 306.65359 
L 194.61777 305.474651 
L 196.037818 304.850254 
L 198.965299 303.365303 
L 200.109518 302.706419 
L 202.484117 301.255954 
L 204.181219 300.15923 
L 205.726076 299.146605 
L 208.252919 297.385468 
L 208.716064 297.037257 
L 210.648037 294.927908 
L 212.32462 293.538752 
L 213.042825 292.818559 
L 215.264498 290.709211 
L 216.39632 289.394726 
L 217.081019 288.599862 
L 218.645114 286.490513 
L 220.027775 284.381165 
L 220.468021 283.060499 
L 220.703468 282.271816 
L 221.105213 280.162467 
L 221.105213 278.053118 
L 220.468021 276.04131 
L 220.433502 275.94377 
L 219.703171 273.834421 
L 218.548267 271.725072 
L 217.33788 269.615724 
L 216.39632 268.024483 
L 216.092375 267.506375 
L 214.750106 265.397026 
L 212.946043 263.287678 
L 212.32462 262.666218 
L 210.523866 261.178329 
L 208.252919 259.648379 
L 207.32173 259.06898 
L 204.181219 257.24395 
L 203.682805 256.959632 
L 200.109518 254.869112 
L 200.075326 254.850283 
L 196.037818 253.382113 
L 193.970716 252.740934 
L 191.966117 252.038608 
L 188.043088 250.631586 
L 187.894417 250.594724 
L 183.822716 249.745489 
L 179.751016 248.971948 
L 177.32117 248.522237 
L 175.679315 248.227073 
L 171.607615 247.508699 
L 167.535914 246.901291 
L 164.405258 246.412888 
L 163.464214 246.281789 
L 159.392513 245.78821 
L 155.320813 245.335967 
L 151.249112 244.869943 
L 147.177411 244.329651 
L 146.895268 244.30354 
L 143.105711 243.936085 
L 139.03401 243.358992 
L 134.96231 242.994314 
L 130.890609 242.77795 
L 126.818909 242.633945 
L 122.747208 242.633945 
L 118.675508 242.87046 
L 114.603807 243.1455 
L 110.532107 243.522335 
L 106.460406 244.016924 
L 104.513437 244.30354 
L 102.388706 244.604902 
L 98.317005 245.426078 
L 94.245305 246.161238 
L 93.093457 246.412888 
L 90.173604 247.137697 
L 86.101904 248.350514 
L 85.530483 248.522237 
L 82.030203 249.625712 
L 78.789912 250.631586 
L 77.958503 251.008315 
L 74.82723 252.740934 
L 73.886802 253.210966 
L 73.25567 254.850283 
L 72.740818 256.959632 
L 72.229822 259.06898 
L 71.766975 261.178329 
L 71.396444 263.287678 
L 71.08601 265.397026 
L 70.855039 267.506375 
L 70.644929 269.615724 
L 70.442064 271.725072 
L 70.248498 273.834421 
L 70.126092 275.94377 
L 70.002293 278.053118 
L 70.002293 280.162467 
L 70.076699 282.271816 
L 70.194093 284.381165 
L 70.425832 286.490513 
L 70.68798 288.599862 
L 70.997496 290.709211 
L 71.37979 292.818559 
L 71.748798 294.927908 
L 72.031607 297.037257 
L 72.453303 299.146605 
L 72.911931 301.255954 
L 73.410361 303.365303 
L 73.886802 305.091566 
L 74.427499 305.474651 
L 77.410348 307.584 
z
" style="fill:#ff8533;fill-opacity:0.2;"/>
   </g>
   <g id="PathCollection_9">
    <path clip-path="url(#p542f8a6c0d)" d="M 65.127324 307.584 
L 68.890986 307.584 
L 72.654648 307.584 
L 76.41831 307.584 
L 80.181972 307.584 
L 83.945633 307.584 
L 87.709295 307.584 
L 91.472957 307.584 
L 95.236619 307.584 
L 99.000281 307.584 
L 102.763943 307.584 
L 106.527605 307.584 
L 110.291267 307.584 
L 114.054929 307.584 
L 117.818591 307.584 
L 121.582253 307.584 
L 125.345915 307.584 
L 129.109577 307.584 
L 132.873239 307.584 
L 136.6369 307.584 
L 140.400562 307.584 
L 144.164224 307.584 
L 147.927886 307.584 
L 151.691548 307.584 
L 155.45521 307.584 
L 159.218872 307.584 
L 162.982534 307.584 
L 166.746196 307.584 
L 170.509858 307.584 
L 174.27352 307.584 
L 178.037182 307.584 
L 181.800844 307.584 
L 185.564506 307.584 
L 189.328167 307.584 
L 193.091829 307.584 
L 196.855491 307.584 
L 200.619153 307.584 
L 201.920846 307.584 
L 203.066099 306.42026 
L 203.266255 305.25652 
L 202.605005 304.09278 
L 201.503465 302.92904 
L 200.619153 302.406671 
L 199.360024 301.7653 
L 196.855491 301.004399 
L 195.590992 300.60156 
L 193.091829 299.797585 
L 191.976054 299.43782 
L 189.328167 298.746182 
L 187.252712 298.27408 
L 185.564506 297.938164 
L 181.800844 297.316864 
L 180.073909 297.11034 
L 178.037182 296.88513 
L 174.27352 296.350227 
L 170.767914 295.9466 
L 170.509858 295.915393 
L 166.746196 295.556039 
L 162.982534 295.18525 
L 159.218872 294.873106 
L 158.068949 294.78286 
L 155.45521 294.559039 
L 151.691548 294.247147 
L 147.927886 293.921655 
L 144.750086 293.61912 
L 144.164224 293.574395 
L 140.400562 293.318147 
L 136.6369 293.084138 
L 132.873239 292.835472 
L 129.109577 292.600976 
L 126.798555 292.45538 
L 125.345915 292.35032 
L 121.582253 292.100279 
L 117.818591 291.925069 
L 114.054929 291.683607 
L 110.291267 291.496657 
L 106.527605 291.343416 
L 105.220502 291.29164 
L 102.763943 291.174042 
L 99.000281 290.980424 
L 95.236619 290.876019 
L 91.472957 290.818632 
L 87.709295 290.758077 
L 83.945633 290.758077 
L 80.181972 290.827694 
L 76.41831 290.958788 
L 72.654648 291.154688 
L 70.507781 291.29164 
L 68.890986 291.377314 
L 67.925846 292.45538 
L 66.899766 293.61912 
L 66.185049 294.78286 
L 65.496022 295.9466 
L 65.127324 296.592709 
L 65.009599 297.11034 
L 64.781627 298.27408 
L 64.597342 299.43782 
L 64.455838 300.60156 
L 64.319017 301.7653 
L 64.239667 302.92904 
L 64.195965 304.09278 
L 64.16973 305.25652 
L 64.177671 306.42026 
L 64.223108 307.584 
z
" style="fill:#00b300;fill-opacity:0.2;"/>
   </g>
   <g id="PathCollection_10">
    <path clip-path="url(#p542f8a6c0d)" d="M 77.970164 307.584 
L 88.155246 307.584 
L 98.340327 307.584 
L 108.525409 307.584 
L 118.710491 307.584 
L 128.895573 307.584 
L 139.080655 307.584 
L 149.265737 307.584 
L 159.450818 307.584 
L 169.6359 307.584 
L 179.820982 307.584 
L 190.006064 307.584 
L 200.191146 307.584 
L 210.376228 307.584 
L 220.561309 307.584 
L 230.746391 307.584 
L 240.931473 307.584 
L 251.116555 307.584 
L 261.301637 307.584 
L 271.486719 307.584 
L 281.6718 307.584 
L 291.856882 307.584 
L 302.041964 307.584 
L 312.227046 307.584 
L 322.412128 307.584 
L 332.59721 307.584 
L 342.782291 307.584 
L 352.967373 307.584 
L 363.152455 307.584 
L 373.337537 307.584 
L 383.522619 307.584 
L 393.707701 307.584 
L 403.892782 307.584 
L 414.077864 307.584 
L 424.262946 307.584 
L 434.448028 307.584 
L 444.63311 307.584 
L 454.818192 307.584 
L 465.003273 307.584 
L 475.188355 307.584 
L 485.373437 307.584 
L 495.558519 307.584 
L 505.743601 307.584 
L 515.928683 307.584 
L 526.113764 307.584 
L 536.298846 307.584 
L 546.483928 307.584 
L 556.66901 307.584 
L 556.66901 306.242958 
L 556.66901 304.901917 
L 556.66901 303.560875 
L 556.66901 302.219834 
L 556.66901 300.878792 
L 556.66901 299.53775 
L 556.66901 298.196709 
L 556.66901 296.855667 
L 556.66901 295.79923 
L 546.483928 295.79923 
L 536.298846 295.79923 
L 526.113764 295.79923 
L 515.928683 295.79923 
L 505.743601 295.79923 
L 495.558519 295.79923 
L 485.373437 295.79923 
L 475.188355 295.79923 
L 465.003273 295.79923 
L 454.818192 295.79923 
L 444.63311 295.79923 
L 434.448028 295.79923 
L 424.262946 295.79923 
L 414.077864 295.79923 
L 403.892782 295.79923 
L 393.707701 295.79923 
L 383.522619 295.79923 
L 373.337537 295.79923 
L 363.152455 295.79923 
L 352.967373 295.79923 
L 342.782291 295.79923 
L 332.59721 295.79923 
L 322.412128 295.79923 
L 312.227046 295.79923 
L 302.041964 295.79923 
L 291.856882 295.79923 
L 281.6718 295.79923 
L 271.486719 295.79923 
L 261.301637 295.79923 
L 251.116555 295.79923 
L 240.931473 295.79923 
L 238.606398 295.514625 
L 230.746391 294.611156 
L 227.492186 294.173584 
L 220.561309 293.417506 
L 214.163167 292.832542 
L 210.376228 292.452551 
L 200.191146 291.713479 
L 195.869376 291.491501 
L 190.006064 291.155891 
L 179.820982 290.833865 
L 169.6359 290.676625 
L 159.450818 290.64345 
L 149.265737 290.767183 
L 139.080655 291.064448 
L 128.895573 291.3965 
L 126.228615 291.491501 
L 118.710491 291.728379 
L 108.525409 292.158038 
L 98.340327 292.710343 
L 95.972488 292.832542 
L 88.155246 293.187497 
L 77.970164 293.575759 
L 77.400125 294.173584 
L 76.405225 295.514625 
L 75.547817 296.855667 
L 74.652782 298.196709 
L 74.081125 299.53775 
L 73.613222 300.878792 
L 73.197033 302.219834 
L 72.944641 303.560875 
L 72.833486 304.901917 
L 72.831898 306.242958 
L 72.929113 307.584 
z
" style="fill:#ffff33;fill-opacity:0.2;"/>
   </g>
   <g id="matplotlib.axis_1">
    <g id="xtick_1">
     <g id="line2d_1">
      <defs>
       <path d="M 0 0 
L 0 3.5 
" id="mb316f0227e" style="stroke:#000000;stroke-width:0.8;"/>
      </defs>
      <g>
       <use style="stroke:#000000;stroke-width:0.8;" x="57.6" xlink:href="#mb316f0227e" y="307.584"/>
      </g>
     </g>
     <g id="text_1">
      <!-- 0.0 -->
      <defs>
       <path d="M 31.78125 66.40625 
Q 24.171875 66.40625 20.328125 58.90625 
Q 16.5 51.421875 16.5 36.375 
Q 16.5 21.390625 20.328125 13.890625 
Q 24.171875 6.390625 31.78125 6.390625 
Q 39.453125 6.390625 43.28125 13.890625 
Q 47.125 21.390625 47.125 36.375 
Q 47.125 51.421875 43.28125 58.90625 
Q 39.453125 66.40625 31.78125 66.40625 
z
M 31.78125 74.21875 
Q 44.046875 74.21875 50.515625 64.515625 
Q 56.984375 54.828125 56.984375 36.375 
Q 56.984375 17.96875 50.515625 8.265625 
Q 44.046875 -1.421875 31.78125 -1.421875 
Q 19.53125 -1.421875 13.0625 8.265625 
Q 6.59375 17.96875 6.59375 36.375 
Q 6.59375 54.828125 13.0625 64.515625 
Q 19.53125 74.21875 31.78125 74.21875 
z
" id="DejaVuSans-48"/>
       <path d="M 10.6875 12.40625 
L 21 12.40625 
L 21 0 
L 10.6875 0 
z
" id="DejaVuSans-46"/>
      </defs>
      <g transform="translate(43.287188 328.261187)scale(0.18 -0.18)">
       <use xlink:href="#DejaVuSans-48"/>
       <use x="63.623047" xlink:href="#DejaVuSans-46"/>
       <use x="95.410156" xlink:href="#DejaVuSans-48"/>
      </g>
     </g>
    </g>
    <g id="xtick_2">
     <g id="line2d_2">
      <g>
       <use style="stroke:#000000;stroke-width:0.8;" x="95.6928" xlink:href="#mb316f0227e" y="307.584"/>
      </g>
     </g>
     <g id="text_2">
      <!-- 0.2 -->
      <defs>
       <path d="M 19.1875 8.296875 
L 53.609375 8.296875 
L 53.609375 0 
L 7.328125 0 
L 7.328125 8.296875 
Q 12.9375 14.109375 22.625 23.890625 
Q 32.328125 33.6875 34.8125 36.53125 
Q 39.546875 41.84375 41.421875 45.53125 
Q 43.3125 49.21875 43.3125 52.78125 
Q 43.3125 58.59375 39.234375 62.25 
Q 35.15625 65.921875 28.609375 65.921875 
Q 23.96875 65.921875 18.8125 64.3125 
Q 13.671875 62.703125 7.8125 59.421875 
L 7.8125 69.390625 
Q 13.765625 71.78125 18.9375 73 
Q 24.125 74.21875 28.421875 74.21875 
Q 39.75 74.21875 46.484375 68.546875 
Q 53.21875 62.890625 53.21875 53.421875 
Q 53.21875 48.921875 51.53125 44.890625 
Q 49.859375 40.875 45.40625 35.40625 
Q 44.1875 33.984375 37.640625 27.21875 
Q 31.109375 20.453125 19.1875 8.296875 
z
" id="DejaVuSans-50"/>
      </defs>
      <g transform="translate(81.379987 328.261187)scale(0.18 -0.18)">
       <use xlink:href="#DejaVuSans-48"/>
       <use x="63.623047" xlink:href="#DejaVuSans-46"/>
       <use x="95.410156" xlink:href="#DejaVuSans-50"/>
      </g>
     </g>
    </g>
    <g id="xtick_3">
     <g id="line2d_3">
      <g>
       <use style="stroke:#000000;stroke-width:0.8;" x="133.7856" xlink:href="#mb316f0227e" y="307.584"/>
      </g>
     </g>
     <g id="text_3">
      <!-- 0.4 -->
      <defs>
       <path d="M 37.796875 64.3125 
L 12.890625 25.390625 
L 37.796875 25.390625 
z
M 35.203125 72.90625 
L 47.609375 72.90625 
L 47.609375 25.390625 
L 58.015625 25.390625 
L 58.015625 17.1875 
L 47.609375 17.1875 
L 47.609375 0 
L 37.796875 0 
L 37.796875 17.1875 
L 4.890625 17.1875 
L 4.890625 26.703125 
z
" id="DejaVuSans-52"/>
      </defs>
      <g transform="translate(119.472788 328.261187)scale(0.18 -0.18)">
       <use xlink:href="#DejaVuSans-48"/>
       <use x="63.623047" xlink:href="#DejaVuSans-46"/>
       <use x="95.410156" xlink:href="#DejaVuSans-52"/>
      </g>
     </g>
    </g>
    <g id="xtick_4">
     <g id="line2d_4">
      <g>
       <use style="stroke:#000000;stroke-width:0.8;" x="171.8784" xlink:href="#mb316f0227e" y="307.584"/>
      </g>
     </g>
     <g id="text_4">
      <!-- 0.6 -->
      <defs>
       <path d="M 33.015625 40.375 
Q 26.375 40.375 22.484375 35.828125 
Q 18.609375 31.296875 18.609375 23.390625 
Q 18.609375 15.53125 22.484375 10.953125 
Q 26.375 6.390625 33.015625 6.390625 
Q 39.65625 6.390625 43.53125 10.953125 
Q 47.40625 15.53125 47.40625 23.390625 
Q 47.40625 31.296875 43.53125 35.828125 
Q 39.65625 40.375 33.015625 40.375 
z
M 52.59375 71.296875 
L 52.59375 62.3125 
Q 48.875 64.0625 45.09375 64.984375 
Q 41.3125 65.921875 37.59375 65.921875 
Q 27.828125 65.921875 22.671875 59.328125 
Q 17.53125 52.734375 16.796875 39.40625 
Q 19.671875 43.65625 24.015625 45.921875 
Q 28.375 48.1875 33.59375 48.1875 
Q 44.578125 48.1875 50.953125 41.515625 
Q 57.328125 34.859375 57.328125 23.390625 
Q 57.328125 12.15625 50.6875 5.359375 
Q 44.046875 -1.421875 33.015625 -1.421875 
Q 20.359375 -1.421875 13.671875 8.265625 
Q 6.984375 17.96875 6.984375 36.375 
Q 6.984375 53.65625 15.1875 63.9375 
Q 23.390625 74.21875 37.203125 74.21875 
Q 40.921875 74.21875 44.703125 73.484375 
Q 48.484375 72.75 52.59375 71.296875 
z
" id="DejaVuSans-54"/>
      </defs>
      <g transform="translate(157.565588 328.261187)scale(0.18 -0.18)">
       <use xlink:href="#DejaVuSans-48"/>
       <use x="63.623047" xlink:href="#DejaVuSans-46"/>
       <use x="95.410156" xlink:href="#DejaVuSans-54"/>
      </g>
     </g>
    </g>
    <g id="xtick_5">
     <g id="line2d_5">
      <g>
       <use style="stroke:#000000;stroke-width:0.8;" x="209.9712" xlink:href="#mb316f0227e" y="307.584"/>
      </g>
     </g>
     <g id="text_5">
      <!-- 0.8 -->
      <defs>
       <path d="M 31.78125 34.625 
Q 24.75 34.625 20.71875 30.859375 
Q 16.703125 27.09375 16.703125 20.515625 
Q 16.703125 13.921875 20.71875 10.15625 
Q 24.75 6.390625 31.78125 6.390625 
Q 38.8125 6.390625 42.859375 10.171875 
Q 46.921875 13.96875 46.921875 20.515625 
Q 46.921875 27.09375 42.890625 30.859375 
Q 38.875 34.625 31.78125 34.625 
z
M 21.921875 38.8125 
Q 15.578125 40.375 12.03125 44.71875 
Q 8.5 49.078125 8.5 55.328125 
Q 8.5 64.0625 14.71875 69.140625 
Q 20.953125 74.21875 31.78125 74.21875 
Q 42.671875 74.21875 48.875 69.140625 
Q 55.078125 64.0625 55.078125 55.328125 
Q 55.078125 49.078125 51.53125 44.71875 
Q 48 40.375 41.703125 38.8125 
Q 48.828125 37.15625 52.796875 32.3125 
Q 56.78125 27.484375 56.78125 20.515625 
Q 56.78125 9.90625 50.3125 4.234375 
Q 43.84375 -1.421875 31.78125 -1.421875 
Q 19.734375 -1.421875 13.25 4.234375 
Q 6.78125 9.90625 6.78125 20.515625 
Q 6.78125 27.484375 10.78125 32.3125 
Q 14.796875 37.15625 21.921875 38.8125 
z
M 18.3125 54.390625 
Q 18.3125 48.734375 21.84375 45.5625 
Q 25.390625 42.390625 31.78125 42.390625 
Q 38.140625 42.390625 41.71875 45.5625 
Q 45.3125 48.734375 45.3125 54.390625 
Q 45.3125 60.0625 41.71875 63.234375 
Q 38.140625 66.40625 31.78125 66.40625 
Q 25.390625 66.40625 21.84375 63.234375 
Q 18.3125 60.0625 18.3125 54.390625 
z
" id="DejaVuSans-56"/>
      </defs>
      <g transform="translate(195.658388 328.261187)scale(0.18 -0.18)">
       <use xlink:href="#DejaVuSans-48"/>
       <use x="63.623047" xlink:href="#DejaVuSans-46"/>
       <use x="95.410156" xlink:href="#DejaVuSans-56"/>
      </g>
     </g>
    </g>
    <g id="xtick_6">
     <g id="line2d_6">
      <g>
       <use style="stroke:#000000;stroke-width:0.8;" x="248.064" xlink:href="#mb316f0227e" y="307.584"/>
      </g>
     </g>
     <g id="text_6">
      <!-- 1.0 -->
      <defs>
       <path d="M 12.40625 8.296875 
L 28.515625 8.296875 
L 28.515625 63.921875 
L 10.984375 60.40625 
L 10.984375 69.390625 
L 28.421875 72.90625 
L 38.28125 72.90625 
L 38.28125 8.296875 
L 54.390625 8.296875 
L 54.390625 0 
L 12.40625 0 
z
" id="DejaVuSans-49"/>
      </defs>
      <g transform="translate(233.751187 328.261187)scale(0.18 -0.18)">
       <use xlink:href="#DejaVuSans-49"/>
       <use x="63.623047" xlink:href="#DejaVuSans-46"/>
       <use x="95.410156" xlink:href="#DejaVuSans-48"/>
      </g>
     </g>
    </g>
    <g id="xtick_7">
     <g id="line2d_7">
      <g>
       <use style="stroke:#000000;stroke-width:0.8;" x="286.1568" xlink:href="#mb316f0227e" y="307.584"/>
      </g>
     </g>
     <g id="text_7">
      <!-- 1.2 -->
      <g transform="translate(271.843988 328.261187)scale(0.18 -0.18)">
       <use xlink:href="#DejaVuSans-49"/>
       <use x="63.623047" xlink:href="#DejaVuSans-46"/>
       <use x="95.410156" xlink:href="#DejaVuSans-50"/>
      </g>
     </g>
    </g>
    <g id="xtick_8">
     <g id="line2d_8">
      <g>
       <use style="stroke:#000000;stroke-width:0.8;" x="324.2496" xlink:href="#mb316f0227e" y="307.584"/>
      </g>
     </g>
     <g id="text_8">
      <!-- 1.4 -->
      <g transform="translate(309.936788 328.261187)scale(0.18 -0.18)">
       <use xlink:href="#DejaVuSans-49"/>
       <use x="63.623047" xlink:href="#DejaVuSans-46"/>
       <use x="95.410156" xlink:href="#DejaVuSans-52"/>
      </g>
     </g>
    </g>
   </g>
   <g id="matplotlib.axis_2">
    <g id="ytick_1">
     <g id="line2d_9">
      <defs>
       <path d="M 0 0 
L -3.5 0 
" id="m7e44bffe57" style="stroke:#000000;stroke-width:0.8;"/>
      </defs>
      <g>
       <use style="stroke:#000000;stroke-width:0.8;" x="57.6" xlink:href="#m7e44bffe57" y="307.584"/>
      </g>
     </g>
     <g id="text_9">
      <!-- 0.0 -->
      <g transform="translate(21.974375 314.422594)scale(0.18 -0.18)">
       <use xlink:href="#DejaVuSans-48"/>
       <use x="63.623047" xlink:href="#DejaVuSans-46"/>
       <use x="95.410156" xlink:href="#DejaVuSans-48"/>
      </g>
     </g>
    </g>
    <g id="ytick_2">
     <g id="line2d_10">
      <g>
       <use style="stroke:#000000;stroke-width:0.8;" x="57.6" xlink:href="#m7e44bffe57" y="273.651602"/>
      </g>
     </g>
     <g id="text_10">
      <!-- 0.5 -->
      <defs>
       <path d="M 10.796875 72.90625 
L 49.515625 72.90625 
L 49.515625 64.59375 
L 19.828125 64.59375 
L 19.828125 46.734375 
Q 21.96875 47.46875 24.109375 47.828125 
Q 26.265625 48.1875 28.421875 48.1875 
Q 40.625 48.1875 47.75 41.5 
Q 54.890625 34.8125 54.890625 23.390625 
Q 54.890625 11.625 47.5625 5.09375 
Q 40.234375 -1.421875 26.90625 -1.421875 
Q 22.3125 -1.421875 17.546875 -0.640625 
Q 12.796875 0.140625 7.71875 1.703125 
L 7.71875 11.625 
Q 12.109375 9.234375 16.796875 8.0625 
Q 21.484375 6.890625 26.703125 6.890625 
Q 35.15625 6.890625 40.078125 11.328125 
Q 45.015625 15.765625 45.015625 23.390625 
Q 45.015625 31 40.078125 35.4375 
Q 35.15625 39.890625 26.703125 39.890625 
Q 22.75 39.890625 18.8125 39.015625 
Q 14.890625 38.140625 10.796875 36.28125 
z
" id="DejaVuSans-53"/>
      </defs>
      <g transform="translate(21.974375 280.490195)scale(0.18 -0.18)">
       <use xlink:href="#DejaVuSans-48"/>
       <use x="63.623047" xlink:href="#DejaVuSans-46"/>
       <use x="95.410156" xlink:href="#DejaVuSans-53"/>
      </g>
     </g>
    </g>
    <g id="ytick_3">
     <g id="line2d_11">
      <g>
       <use style="stroke:#000000;stroke-width:0.8;" x="57.6" xlink:href="#m7e44bffe57" y="239.719203"/>
      </g>
     </g>
     <g id="text_11">
      <!-- 1.0 -->
      <g transform="translate(21.974375 246.557797)scale(0.18 -0.18)">
       <use xlink:href="#DejaVuSans-49"/>
       <use x="63.623047" xlink:href="#DejaVuSans-46"/>
       <use x="95.410156" xlink:href="#DejaVuSans-48"/>
      </g>
     </g>
    </g>
    <g id="ytick_4">
     <g id="line2d_12">
      <g>
       <use style="stroke:#000000;stroke-width:0.8;" x="57.6" xlink:href="#m7e44bffe57" y="205.786805"/>
      </g>
     </g>
     <g id="text_12">
      <!-- 1.5 -->
      <g transform="translate(21.974375 212.625399)scale(0.18 -0.18)">
       <use xlink:href="#DejaVuSans-49"/>
       <use x="63.623047" xlink:href="#DejaVuSans-46"/>
       <use x="95.410156" xlink:href="#DejaVuSans-53"/>
      </g>
     </g>
    </g>
    <g id="ytick_5">
     <g id="line2d_13">
      <g>
       <use style="stroke:#000000;stroke-width:0.8;" x="57.6" xlink:href="#m7e44bffe57" y="171.854407"/>
      </g>
     </g>
     <g id="text_13">
      <!-- 2.0 -->
      <g transform="translate(21.974375 178.693)scale(0.18 -0.18)">
       <use xlink:href="#DejaVuSans-50"/>
       <use x="63.623047" xlink:href="#DejaVuSans-46"/>
       <use x="95.410156" xlink:href="#DejaVuSans-48"/>
      </g>
     </g>
    </g>
    <g id="ytick_6">
     <g id="line2d_14">
      <g>
       <use style="stroke:#000000;stroke-width:0.8;" x="57.6" xlink:href="#m7e44bffe57" y="137.922008"/>
      </g>
     </g>
     <g id="text_14">
      <!-- 2.5 -->
      <g transform="translate(21.974375 144.760602)scale(0.18 -0.18)">
       <use xlink:href="#DejaVuSans-50"/>
       <use x="63.623047" xlink:href="#DejaVuSans-46"/>
       <use x="95.410156" xlink:href="#DejaVuSans-53"/>
      </g>
     </g>
    </g>
    <g id="ytick_7">
     <g id="line2d_15">
      <g>
       <use style="stroke:#000000;stroke-width:0.8;" x="57.6" xlink:href="#m7e44bffe57" y="103.98961"/>
      </g>
     </g>
     <g id="text_15">
      <!-- 3.0 -->
      <defs>
       <path d="M 40.578125 39.3125 
Q 47.65625 37.796875 51.625 33 
Q 55.609375 28.21875 55.609375 21.1875 
Q 55.609375 10.40625 48.1875 4.484375 
Q 40.765625 -1.421875 27.09375 -1.421875 
Q 22.515625 -1.421875 17.65625 -0.515625 
Q 12.796875 0.390625 7.625 2.203125 
L 7.625 11.71875 
Q 11.71875 9.328125 16.59375 8.109375 
Q 21.484375 6.890625 26.8125 6.890625 
Q 36.078125 6.890625 40.9375 10.546875 
Q 45.796875 14.203125 45.796875 21.1875 
Q 45.796875 27.640625 41.28125 31.265625 
Q 36.765625 34.90625 28.71875 34.90625 
L 20.21875 34.90625 
L 20.21875 43.015625 
L 29.109375 43.015625 
Q 36.375 43.015625 40.234375 45.921875 
Q 44.09375 48.828125 44.09375 54.296875 
Q 44.09375 59.90625 40.109375 62.90625 
Q 36.140625 65.921875 28.71875 65.921875 
Q 24.65625 65.921875 20.015625 65.03125 
Q 15.375 64.15625 9.8125 62.3125 
L 9.8125 71.09375 
Q 15.4375 72.65625 20.34375 73.4375 
Q 25.25 74.21875 29.59375 74.21875 
Q 40.828125 74.21875 47.359375 69.109375 
Q 53.90625 64.015625 53.90625 55.328125 
Q 53.90625 49.265625 50.4375 45.09375 
Q 46.96875 40.921875 40.578125 39.3125 
z
" id="DejaVuSans-51"/>
      </defs>
      <g transform="translate(21.974375 110.828204)scale(0.18 -0.18)">
       <use xlink:href="#DejaVuSans-51"/>
       <use x="63.623047" xlink:href="#DejaVuSans-46"/>
       <use x="95.410156" xlink:href="#DejaVuSans-48"/>
      </g>
     </g>
    </g>
    <g id="ytick_8">
     <g id="line2d_16">
      <g>
       <use style="stroke:#000000;stroke-width:0.8;" x="57.6" xlink:href="#m7e44bffe57" y="70.057211"/>
      </g>
     </g>
     <g id="text_16">
      <!-- 3.5 -->
      <g transform="translate(21.974375 76.895805)scale(0.18 -0.18)">
       <use xlink:href="#DejaVuSans-51"/>
       <use x="63.623047" xlink:href="#DejaVuSans-46"/>
       <use x="95.410156" xlink:href="#DejaVuSans-53"/>
      </g>
     </g>
    </g>
   </g>
   <g id="LineCollection_1">
    <path clip-path="url(#p542f8a6c0d)" d="M 152.062646 307.584 
L 153.630008 306.542683 
L 154.79189 305.501365 
L 155.336238 304.460048 
L 155.274124 303.41873 
L 154.865804 302.377413 
L 153.94721 301.336095 
L 152.626522 300.294778 
L 151.608428 299.648179 
L 150.872581 299.25346 
L 148.588731 298.212143 
L 147.335318 297.786169 
L 145.789717 297.170826 
L 143.062207 296.173552 
L 142.93973 296.129508 
L 139.994176 295.088191 
L 138.789097 294.708712 
L 136.531406 294.046873 
L 134.515987 293.53679 
L 132.331598 293.005556 
L 130.242876 292.462422 
L 128.293813 291.964238 
L 125.969766 291.299163 
L 124.552876 290.922921 
L 121.696656 290.224234 
L 119.799994 289.881604 
L 117.423545 289.457155 
L 114.452478 288.840286 
L 113.150435 288.540347 
L 108.877324 287.907612 
L 108.057652 287.798969 
L 104.604214 287.376641 
L 100.331104 286.945926 
L 97.399182 286.757651 
L 96.057993 286.675679 
L 91.784883 286.55412 
L 87.511773 286.563284 
L 83.238662 286.707039 
L 82.202143 286.757651 
L 78.965552 286.923194 
L 74.692441 287.295357 
L 74.150873 287.798969 
L 73.167266 288.840286 
L 72.13764 289.881604 
L 71.187587 290.922921 
L 70.419331 291.879703 
L 70.402469 291.964238 
L 70.170224 293.005556 
L 69.935479 294.046873 
L 69.742663 295.088191 
L 69.576572 296.129508 
L 69.420411 297.170826 
L 69.279797 298.212143 
L 69.177694 299.25346 
L 69.092424 300.294778 
L 69.024484 301.336095 
L 68.977229 302.377413 
L 68.956224 303.41873 
L 68.953028 304.460048 
L 68.981031 305.501365 
L 69.040802 306.542683 
L 69.121431 307.584 
" style="fill:none;stroke:#4d94ff;stroke-width:1.5;"/>
   </g>
   <g id="LineCollection_2">
    <path clip-path="url(#p542f8a6c0d)" d="M 189.94397 307.584 
L 191.966117 306.65359 
L 194.61777 305.474651 
L 196.037818 304.850254 
L 198.965299 303.365303 
L 200.109518 302.706419 
L 202.484117 301.255954 
L 204.181219 300.15923 
L 205.726076 299.146605 
L 208.252919 297.385468 
L 208.716064 297.037257 
L 210.648037 294.927908 
L 212.32462 293.538752 
L 213.042825 292.818559 
L 215.264498 290.709211 
L 216.39632 289.394726 
L 217.081019 288.599862 
L 218.645114 286.490513 
L 220.027775 284.381165 
L 220.468021 283.060499 
L 220.703468 282.271816 
L 221.105213 280.162467 
L 221.105213 278.053118 
L 220.468021 276.04131 
L 220.433502 275.94377 
L 219.703171 273.834421 
L 218.548267 271.725072 
L 217.33788 269.615724 
L 216.39632 268.024483 
L 216.092375 267.506375 
L 214.750106 265.397026 
L 212.946043 263.287678 
L 212.32462 262.666218 
L 210.523866 261.178329 
L 208.252919 259.648379 
L 207.32173 259.06898 
L 204.181219 257.24395 
L 203.682805 256.959632 
L 200.109518 254.869112 
L 200.075326 254.850283 
L 196.037818 253.382113 
L 193.970716 252.740934 
L 191.966117 252.038608 
L 188.043088 250.631586 
L 187.894417 250.594724 
L 183.822716 249.745489 
L 179.751016 248.971948 
L 177.32117 248.522237 
L 175.679315 248.227073 
L 171.607615 247.508699 
L 167.535914 246.901291 
L 164.405258 246.412888 
L 163.464214 246.281789 
L 159.392513 245.78821 
L 155.320813 245.335967 
L 151.249112 244.869943 
L 147.177411 244.329651 
L 146.895268 244.30354 
L 143.105711 243.936085 
L 139.03401 243.358992 
L 134.96231 242.994314 
L 130.890609 242.77795 
L 126.818909 242.633945 
L 122.747208 242.633945 
L 118.675508 242.87046 
L 114.603807 243.1455 
L 110.532107 243.522335 
L 106.460406 244.016924 
L 104.513437 244.30354 
L 102.388706 244.604902 
L 98.317005 245.426078 
L 94.245305 246.161238 
L 93.093457 246.412888 
L 90.173604 247.137697 
L 86.101904 248.350514 
L 85.530483 248.522237 
L 82.030203 249.625712 
L 78.789912 250.631586 
L 77.958503 251.008315 
L 74.82723 252.740934 
L 73.886802 253.210966 
L 73.25567 254.850283 
L 72.740818 256.959632 
L 72.229822 259.06898 
L 71.766975 261.178329 
L 71.396444 263.287678 
L 71.08601 265.397026 
L 70.855039 267.506375 
L 70.644929 269.615724 
L 70.442064 271.725072 
L 70.248498 273.834421 
L 70.126092 275.94377 
L 70.002293 278.053118 
L 70.002293 280.162467 
L 70.076699 282.271816 
L 70.194093 284.381165 
L 70.425832 286.490513 
L 70.68798 288.599862 
L 70.997496 290.709211 
L 71.37979 292.818559 
L 71.748798 294.927908 
L 72.031607 297.037257 
L 72.453303 299.146605 
L 72.911931 301.255954 
L 73.410361 303.365303 
L 73.886802 305.091566 
L 74.427499 305.474651 
L 77.410348 307.584 
" style="fill:none;stroke:#ff8533;stroke-width:1.5;"/>
   </g>
   <g id="LineCollection_3">
    <path clip-path="url(#p542f8a6c0d)" d="M 201.920846 307.584 
L 203.066099 306.42026 
L 203.266255 305.25652 
L 202.605005 304.09278 
L 201.503465 302.92904 
L 200.619153 302.406671 
L 199.360024 301.7653 
L 196.855491 301.004399 
L 195.590992 300.60156 
L 193.091829 299.797585 
L 191.976054 299.43782 
L 189.328167 298.746182 
L 187.252712 298.27408 
L 185.564506 297.938164 
L 181.800844 297.316864 
L 180.073909 297.11034 
L 178.037182 296.88513 
L 174.27352 296.350227 
L 170.767914 295.9466 
L 170.509858 295.915393 
L 166.746196 295.556039 
L 162.982534 295.18525 
L 159.218872 294.873106 
L 158.068949 294.78286 
L 155.45521 294.559039 
L 151.691548 294.247147 
L 147.927886 293.921655 
L 144.750086 293.61912 
L 144.164224 293.574395 
L 140.400562 293.318147 
L 136.6369 293.084138 
L 132.873239 292.835472 
L 129.109577 292.600976 
L 126.798555 292.45538 
L 125.345915 292.35032 
L 121.582253 292.100279 
L 117.818591 291.925069 
L 114.054929 291.683607 
L 110.291267 291.496657 
L 106.527605 291.343416 
L 105.220502 291.29164 
L 102.763943 291.174042 
L 99.000281 290.980424 
L 95.236619 290.876019 
L 91.472957 290.818632 
L 87.709295 290.758077 
L 83.945633 290.758077 
L 80.181972 290.827694 
L 76.41831 290.958788 
L 72.654648 291.154688 
L 70.507781 291.29164 
L 68.890986 291.377314 
L 67.925846 292.45538 
L 66.899766 293.61912 
L 66.185049 294.78286 
L 65.496022 295.9466 
L 65.127324 296.592709 
L 65.009599 297.11034 
L 64.781627 298.27408 
L 64.597342 299.43782 
L 64.455838 300.60156 
L 64.319017 301.7653 
L 64.239667 302.92904 
L 64.195965 304.09278 
L 64.16973 305.25652 
L 64.177671 306.42026 
L 64.223108 307.584 
" style="fill:none;stroke:#00b300;stroke-width:1.5;"/>
   </g>
   <g id="LineCollection_4">
    <path clip-path="url(#p542f8a6c0d)" d="M 461.8 295.79923 
L 454.818192 295.79923 
L 444.63311 295.79923 
L 434.448028 295.79923 
L 424.262946 295.79923 
L 414.077864 295.79923 
L 403.892782 295.79923 
L 393.707701 295.79923 
L 383.522619 295.79923 
L 373.337537 295.79923 
L 363.152455 295.79923 
L 352.967373 295.79923 
L 342.782291 295.79923 
L 332.59721 295.79923 
L 322.412128 295.79923 
L 312.227046 295.79923 
L 302.041964 295.79923 
L 291.856882 295.79923 
L 281.6718 295.79923 
L 271.486719 295.79923 
L 261.301637 295.79923 
L 251.116555 295.79923 
L 240.931473 295.79923 
L 238.606398 295.514625 
L 230.746391 294.611156 
L 227.492186 294.173584 
L 220.561309 293.417506 
L 214.163167 292.832542 
L 210.376228 292.452551 
L 200.191146 291.713479 
L 195.869376 291.491501 
L 190.006064 291.155891 
L 179.820982 290.833865 
L 169.6359 290.676625 
L 159.450818 290.64345 
L 149.265737 290.767183 
L 139.080655 291.064448 
L 128.895573 291.3965 
L 126.228615 291.491501 
L 118.710491 291.728379 
L 108.525409 292.158038 
L 98.340327 292.710343 
L 95.972488 292.832542 
L 88.155246 293.187497 
L 77.970164 293.575759 
L 77.400125 294.173584 
L 76.405225 295.514625 
L 75.547817 296.855667 
L 74.652782 298.196709 
L 74.081125 299.53775 
L 73.613222 300.878792 
L 73.197033 302.219834 
L 72.944641 303.560875 
L 72.833486 304.901917 
L 72.831898 306.242958 
L 72.929113 307.584 
" style="fill:none;stroke:#ffff33;stroke-width:1.5;"/>
   </g>
   <g id="patch_3">
    <path d="M 57.6 307.584 
L 57.6 41.472 
" style="fill:none;stroke:#000000;stroke-linecap:square;stroke-linejoin:miter;stroke-width:0.8;"/>
   </g>
   <g id="patch_4">
    <path d="M 343.296 307.584 
L 343.296 41.472 
" style="fill:none;stroke:#000000;stroke-linecap:square;stroke-linejoin:miter;stroke-width:0.8;"/>
   </g>
   <g id="patch_5">
    <path d="M 57.6 307.584 
L 343.296 307.584 
" style="fill:none;stroke:#000000;stroke-linecap:square;stroke-linejoin:miter;stroke-width:0.8;"/>
   </g>
   <g id="patch_6">
    <path d="M 57.6 41.472 
L 343.296 41.472 
" style="fill:none;stroke:#000000;stroke-linecap:square;stroke-linejoin:miter;stroke-width:0.8;"/>
   </g>
  </g>
  <g id="axes_2">
   <g id="patch_7">
    <path clip-path="url(#p3287ddb131)" d="M 367.2 307.584 
L 361.152 295.488 
L 361.152 53.568 
L 367.2 41.472 
L 367.2 41.472 
L 373.248 53.568 
L 373.248 295.488 
L 367.2 307.584 
z
" style="fill:#ffffff;stroke:#ffffff;stroke-linejoin:miter;stroke-width:0.01;"/>
   </g>
   <g id="QuadMesh_1">
    <path clip-path="url(#p3287ddb131)" d="M 367.2 307.584 
L 367.2 307.584 
L 373.248 295.488 
L 361.152 295.488 
L 367.2 307.584 
" style="fill:#ffffff;"/>
    <path clip-path="url(#p3287ddb131)" d="M 361.152 295.488 
L 373.248 295.488 
L 373.248 235.008 
L 361.152 235.008 
L 361.152 295.488 
" style="fill:#ffffff;"/>
    <path clip-path="url(#p3287ddb131)" d="M 361.152 235.008 
L 373.248 235.008 
L 373.248 174.528 
L 361.152 174.528 
L 361.152 235.008 
" style="fill:#f0f0f0;"/>
    <path clip-path="url(#p3287ddb131)" d="M 361.152 174.528 
L 373.248 174.528 
L 373.248 114.048 
L 361.152 114.048 
L 361.152 174.528 
" style="fill:#d3d3d3;"/>
    <path clip-path="url(#p3287ddb131)" d="M 361.152 114.048 
L 373.248 114.048 
L 373.248 53.568 
L 361.152 53.568 
L 361.152 114.048 
" style="fill:#b8b8b8;"/>
    <path clip-path="url(#p3287ddb131)" d="M 361.152 53.568 
L 373.248 53.568 
L 367.2 41.472 
L 367.2 41.472 
L 361.152 53.568 
" style="fill:#a0a0a0;"/>
   </g>
   <g id="matplotlib.axis_3"/>
   <g id="matplotlib.axis_4">
    <g id="ytick_9">
     <g id="line2d_17">
      <defs>
       <path d="M 0 0 
L 3.5 0 
" id="mf30afb36fa" style="stroke:#000000;stroke-width:0.8;"/>
      </defs>
      <g>
       <use style="stroke:#000000;stroke-width:0.8;" x="373.248" xlink:href="#mf30afb36fa" y="295.488"/>
      </g>
     </g>
     <g id="text_17">
      <!-- 0.0000 -->
      <g transform="translate(380.248 302.326594)scale(0.18 -0.18)">
       <use xlink:href="#DejaVuSans-48"/>
       <use x="63.623047" xlink:href="#DejaVuSans-46"/>
       <use x="95.410156" xlink:href="#DejaVuSans-48"/>
       <use x="159.033203" xlink:href="#DejaVuSans-48"/>
       <use x="222.65625" xlink:href="#DejaVuSans-48"/>
       <use x="286.279297" xlink:href="#DejaVuSans-48"/>
      </g>
     </g>
    </g>
    <g id="ytick_10">
     <g id="line2d_18">
      <g>
       <use style="stroke:#000000;stroke-width:0.8;" x="373.248" xlink:href="#mf30afb36fa" y="235.008"/>
      </g>
     </g>
     <g id="text_18">
      <!-- 0.0400 -->
      <g transform="translate(380.248 241.846594)scale(0.18 -0.18)">
       <use xlink:href="#DejaVuSans-48"/>
       <use x="63.623047" xlink:href="#DejaVuSans-46"/>
       <use x="95.410156" xlink:href="#DejaVuSans-48"/>
       <use x="159.033203" xlink:href="#DejaVuSans-52"/>
       <use x="222.65625" xlink:href="#DejaVuSans-48"/>
       <use x="286.279297" xlink:href="#DejaVuSans-48"/>
      </g>
     </g>
    </g>
    <g id="ytick_11">
     <g id="line2d_19">
      <g>
       <use style="stroke:#000000;stroke-width:0.8;" x="373.248" xlink:href="#mf30afb36fa" y="174.528"/>
      </g>
     </g>
     <g id="text_19">
      <!-- 0.1399 -->
      <defs>
       <path d="M 10.984375 1.515625 
L 10.984375 10.5 
Q 14.703125 8.734375 18.5 7.8125 
Q 22.3125 6.890625 25.984375 6.890625 
Q 35.75 6.890625 40.890625 13.453125 
Q 46.046875 20.015625 46.78125 33.40625 
Q 43.953125 29.203125 39.59375 26.953125 
Q 35.25 24.703125 29.984375 24.703125 
Q 19.046875 24.703125 12.671875 31.3125 
Q 6.296875 37.9375 6.296875 49.421875 
Q 6.296875 60.640625 12.9375 67.421875 
Q 19.578125 74.21875 30.609375 74.21875 
Q 43.265625 74.21875 49.921875 64.515625 
Q 56.59375 54.828125 56.59375 36.375 
Q 56.59375 19.140625 48.40625 8.859375 
Q 40.234375 -1.421875 26.421875 -1.421875 
Q 22.703125 -1.421875 18.890625 -0.6875 
Q 15.09375 0.046875 10.984375 1.515625 
z
M 30.609375 32.421875 
Q 37.25 32.421875 41.125 36.953125 
Q 45.015625 41.5 45.015625 49.421875 
Q 45.015625 57.28125 41.125 61.84375 
Q 37.25 66.40625 30.609375 66.40625 
Q 23.96875 66.40625 20.09375 61.84375 
Q 16.21875 57.28125 16.21875 49.421875 
Q 16.21875 41.5 20.09375 36.953125 
Q 23.96875 32.421875 30.609375 32.421875 
z
" id="DejaVuSans-57"/>
      </defs>
      <g transform="translate(380.248 181.366594)scale(0.18 -0.18)">
       <use xlink:href="#DejaVuSans-48"/>
       <use x="63.623047" xlink:href="#DejaVuSans-46"/>
       <use x="95.410156" xlink:href="#DejaVuSans-49"/>
       <use x="159.033203" xlink:href="#DejaVuSans-51"/>
       <use x="222.65625" xlink:href="#DejaVuSans-57"/>
       <use x="286.279297" xlink:href="#DejaVuSans-57"/>
      </g>
     </g>
    </g>
    <g id="ytick_12">
     <g id="line2d_20">
      <g>
       <use style="stroke:#000000;stroke-width:0.8;" x="373.248" xlink:href="#mf30afb36fa" y="114.048"/>
      </g>
     </g>
     <g id="text_20">
      <!-- 0.2798 -->
      <defs>
       <path d="M 8.203125 72.90625 
L 55.078125 72.90625 
L 55.078125 68.703125 
L 28.609375 0 
L 18.3125 0 
L 43.21875 64.59375 
L 8.203125 64.59375 
z
" id="DejaVuSans-55"/>
      </defs>
      <g transform="translate(380.248 120.886594)scale(0.18 -0.18)">
       <use xlink:href="#DejaVuSans-48"/>
       <use x="63.623047" xlink:href="#DejaVuSans-46"/>
       <use x="95.410156" xlink:href="#DejaVuSans-50"/>
       <use x="159.033203" xlink:href="#DejaVuSans-55"/>
       <use x="222.65625" xlink:href="#DejaVuSans-57"/>
       <use x="286.279297" xlink:href="#DejaVuSans-56"/>
      </g>
     </g>
    </g>
    <g id="ytick_13">
     <g id="line2d_21">
      <g>
       <use style="stroke:#000000;stroke-width:0.8;" x="373.248" xlink:href="#mf30afb36fa" y="53.568"/>
      </g>
     </g>
     <g id="text_21">
      <!-- 0.5196 -->
      <g transform="translate(380.248 60.406594)scale(0.18 -0.18)">
       <use xlink:href="#DejaVuSans-48"/>
       <use x="63.623047" xlink:href="#DejaVuSans-46"/>
       <use x="95.410156" xlink:href="#DejaVuSans-53"/>
       <use x="159.033203" xlink:href="#DejaVuSans-49"/>
       <use x="222.65625" xlink:href="#DejaVuSans-57"/>
       <use x="286.279297" xlink:href="#DejaVuSans-54"/>
      </g>
     </g>
    </g>
   </g>
   <g id="patch_8">
    <path d="M 367.2 307.584 
L 361.152 295.488 
L 361.152 53.568 
L 367.2 41.472 
L 367.2 41.472 
L 373.248 53.568 
L 373.248 295.488 
L 367.2 307.584 
z
" style="fill:none;stroke:#000000;stroke-linejoin:miter;stroke-width:0.8;"/>
   </g>
  </g>
 </g>
 <defs>
  <clipPath id="p542f8a6c0d">
   <rect height="266.112" width="285.696" x="57.6" y="41.472"/>
  </clipPath>
  <clipPath id="p3287ddb131">
   <rect height="266.112" width="12.096" x="361.152" y="41.472"/>
  </clipPath>
 </defs>
</svg>
