<?xml version="1.0" encoding="utf-8" standalone="no"?>
<!DOCTYPE svg PUBLIC "-//W3C//DTD SVG 1.1//EN"
  "http://www.w3.org/Graphics/SVG/1.1/DTD/svg11.dtd">
<!-- Created with matplotlib (https://matplotlib.org/) -->
<svg height="345.6pt" version="1.1" viewBox="0 0 460.8 345.6" width="460.8pt" xmlns="http://www.w3.org/2000/svg" xmlns:xlink="http://www.w3.org/1999/xlink">
 <defs>
  <style type="text/css">
*{stroke-linecap:butt;stroke-linejoin:round;}
  </style>
 </defs>
 <g id="figure_1">
  <g id="patch_1">
   <path d="M 0 345.6 
L 460.8 345.6 
L 460.8 0 
L 0 0 
z
" style="fill:#ffffff;"/>
  </g>
  <g id="axes_1">
   <g id="patch_2">
    <path d="M 57.6 307.584 
L 343.296 307.584 
L 343.296 41.472 
L 57.6 41.472 
z
" style="fill:#ffffff;"/>
   </g>
   <g id="PathCollection_1"/>
   <g id="PathCollection_2">
    <path clip-path="url(#p7ad6fa8999)" d="M 94.77199 302.104294 
L 101.345282 302.104294 
L 94.77199 300.893042 
L 91.485344 302.104294 
z
" style="fill:#ffffff;"/>
    <path clip-path="url(#p7ad6fa8999)" d="M 124.509581 302.104294 
L 131.082874 302.104294 
L 131.943979 301.469595 
L 132.805085 302.104294 
L 139.378377 302.104294 
L 145.95167 302.104294 
L 146.812775 301.469595 
L 147.673881 302.104294 
L 154.247173 302.104294 
L 161.681571 302.104294 
L 168.254863 302.104294 
L 169.115969 301.469595 
L 169.977075 302.104294 
L 176.550367 302.104294 
L 179.837013 302.104294 
L 183.984765 299.047091 
L 191.419163 299.047091 
L 198.853561 301.469595 
L 206.287959 299.047091 
L 210.43571 302.104294 
L 213.722357 302.104294 
L 220.295649 302.104294 
L 221.156754 301.469595 
L 222.01786 302.104294 
L 228.591152 302.104294 
L 236.02555 302.104294 
L 243.459948 302.104294 
L 250.894346 302.104294 
L 258.328744 302.104294 
L 265.763142 302.104294 
L 273.19754 302.104294 
L 280.631938 302.104294 
L 288.066336 302.104294 
L 295.500734 302.104294 
L 302.935132 302.104294 
L 310.36953 302.104294 
L 317.803928 302.104294 
L 325.238326 302.104294 
L 332.672723 302.104294 
L 340.107121 302.104294 
L 347.541519 302.104294 
L 354.975917 302.104294 
L 362.410315 302.104294 
L 369.844713 302.104294 
L 377.279111 302.104294 
L 384.713509 302.104294 
L 392.147907 302.104294 
L 399.582305 302.104294 
L 407.016703 302.104294 
L 414.451101 302.104294 
L 421.885499 302.104294 
L 429.319897 302.104294 
L 436.754294 302.104294 
L 444.188692 302.104294 
L 451.62309 302.104294 
L 459.057488 302.104294 
L 466.491886 302.104294 
L 473.926284 302.104294 
L 481.360682 302.104294 
L 488.79508 302.104294 
L 496.229478 302.104294 
L 503.663876 302.104294 
L 511.098274 302.104294 
L 518.532672 302.104294 
L 525.96707 302.104294 
L 533.401468 302.104294 
L 540.835865 302.104294 
L 548.270263 302.104294 
L 555.704661 302.104294 
L 563.139059 302.104294 
L 570.573457 302.104294 
L 578.007855 302.104294 
L 585.442253 302.104294 
L 592.876651 302.104294 
L 600.311049 302.104294 
L 607.745447 302.104294 
L 615.179845 302.104294 
L 622.614243 302.104294 
L 630.048641 302.104294 
L 637.483039 302.104294 
L 644.917437 302.104294 
L 652.351834 302.104294 
L 659.786232 302.104294 
L 667.22063 302.104294 
L 674.655028 302.104294 
L 682.089426 302.104294 
L 689.523824 302.104294 
L 696.958222 302.104294 
L 704.39262 302.104294 
L 711.827018 302.104294 
L 719.261416 302.104294 
L 726.695814 302.104294 
L 734.130212 302.104294 
L 741.56461 302.104294 
L 748.999008 302.104294 
L 756.433405 302.104294 
L 763.867803 302.104294 
L 771.302201 302.104294 
L 778.736599 302.104294 
L 786.170997 302.104294 
L 793.605395 302.104294 
L 801.039793 302.104294 
L 808.474191 302.104294 
L 815.908589 302.104294 
L 823.342987 302.104294 
L 830.777385 302.104294 
L 838.211783 302.104294 
L 845.646181 302.104294 
L 853.080579 302.104294 
L 860.514977 302.104294 
L 867.949374 302.104294 
L 875.383772 302.104294 
L 882.81817 302.104294 
L 890.252568 302.104294 
L 897.686966 302.104294 
L 905.121364 302.104294 
L 912.555762 302.104294 
L 919.99016 302.104294 
L 927.424558 302.104294 
L 934.858956 302.104294 
L 942.293354 302.104294 
L 949.727752 302.104294 
L 957.16215 302.104294 
L 964.596548 302.104294 
L 972.030945 302.104294 
L 979.465343 302.104294 
L 986.899741 302.104294 
L 994.334139 302.104294 
L 1001.768537 302.104294 
L 1009.202935 302.104294 
L 1016.637333 302.104294 
L 1024.071731 302.104294 
L 1031.506129 302.104294 
L 1038.940527 302.104294 
L 1046.374925 302.104294 
L 1053.809323 302.104294 
L 1061.243721 302.104294 
L 1068.678119 302.104294 
L 1076.112516 302.104294 
L 1083.546914 302.104294 
L 1090.981312 302.104294 
L 1098.41571 302.104294 
L 1105.850108 302.104294 
L 1113.284506 302.104294 
L 1120.718904 302.104294 
L 1128.153302 302.104294 
L 1135.5877 302.104294 
L 1143.022098 302.104294 
L 1150.456496 302.104294 
L 1157.890894 302.104294 
L 1165.325292 302.104294 
L 1172.75969 302.104294 
L 1180.194088 302.104294 
L 1187.628485 302.104294 
L 1195.062883 302.104294 
L 1202.497281 302.104294 
L 1209.931679 302.104294 
L 1217.366077 302.104294 
L 1224.800475 302.104294 
L 1232.234873 302.104294 
L 1239.669271 302.104294 
L 1247.103669 302.104294 
L 1254.538067 302.104294 
L 1261.972465 302.104294 
L 1269.406863 302.104294 
L 1276.841261 302.104294 
L 1284.275659 302.104294 
L 1291.710056 302.104294 
L 1299.144454 302.104294 
L 1306.578852 302.104294 
L 1314.01325 302.104294 
L 1321.447648 302.104294 
L 1328.882046 302.104294 
L 1336.316444 302.104294 
L 1343.750842 302.104294 
L 1351.18524 302.104294 
L 1358.619638 302.104294 
L 1366.054036 302.104294 
L 1373.488434 302.104294 
L 1380.922832 302.104294 
L 1388.35723 302.104294 
L 1395.791628 302.104294 
L 1403.226025 302.104294 
L 1410.660423 302.104294 
L 1418.094821 302.104294 
L 1425.529219 302.104294 
L 1432.963617 302.104294 
L 1440.398015 302.104294 
L 1447.832413 302.104294 
L 1455.266811 302.104294 
L 1462.701209 302.104294 
L 1470.135607 302.104294 
L 1477.570005 302.104294 
L 1485.004403 302.104294 
L 1485.004403 296.624588 
L 1485.004403 291.144882 
L 1485.004403 285.665176 
L 1485.004403 280.18547 
L 1485.004403 274.705763 
L 1485.004403 269.226057 
L 1485.004403 263.746351 
L 1485.004403 258.266645 
L 1485.004403 252.786939 
L 1485.004403 247.307233 
L 1485.004403 241.827527 
L 1485.004403 236.347821 
L 1485.004403 230.868115 
L 1485.004403 225.388409 
L 1485.004403 219.908702 
L 1485.004403 214.428996 
L 1485.004403 208.94929 
L 1485.004403 203.469584 
L 1485.004403 197.989878 
L 1485.004403 192.510172 
L 1485.004403 187.030466 
L 1485.004403 181.55076 
L 1485.004403 176.071054 
L 1485.004403 170.591348 
L 1485.004403 165.111641 
L 1485.004403 159.631935 
L 1485.004403 154.152229 
L 1485.004403 148.672523 
L 1485.004403 143.192817 
L 1485.004403 137.713111 
L 1485.004403 132.233405 
L 1485.004403 126.753699 
L 1485.004403 121.273993 
L 1485.004403 115.794287 
L 1485.004403 110.31458 
L 1485.004403 104.834874 
L 1485.004403 99.355168 
L 1485.004403 93.875462 
L 1485.004403 88.395756 
L 1485.004403 82.91605 
L 1485.004403 77.436344 
L 1485.004403 71.956638 
L 1485.004403 66.476932 
L 1485.004403 60.997226 
L 1485.004403 55.517519 
L 1485.004403 50.037813 
L 1485.004403 44.558107 
L 1485.004403 39.078401 
L 1485.004403 33.598695 
L 1485.004403 28.118989 
L 1485.004403 22.639283 
L 1485.004403 17.159577 
L 1485.004403 11.679871 
L 1485.004403 6.200165 
L 1485.004403 0.720458 
L 1485.004403 -4.759248 
L 1485.004403 -10.238954 
L 1485.004403 -15.71866 
L 1485.004403 -21.198366 
L 1485.004403 -26.678072 
L 1485.004403 -32.157778 
L 1485.004403 -37.637484 
L 1485.004403 -43.11719 
L 1485.004403 -48.596896 
L 1485.004403 -54.076602 
L 1485.004403 -59.556309 
L 1485.004403 -65.036015 
L 1485.004403 -70.515721 
L 1485.004403 -75.995427 
L 1485.004403 -81.475133 
L 1485.004403 -86.954839 
L 1485.004403 -92.434545 
L 1485.004403 -97.914251 
L 1485.004403 -103.393957 
L 1485.004403 -108.873663 
L 1485.004403 -114.35337 
L 1485.004403 -119.833076 
L 1485.004403 -125.312782 
L 1485.004403 -130.792488 
L 1485.004403 -136.272194 
L 1485.004403 -141.7519 
L 1485.004403 -147.231606 
L 1485.004403 -152.711312 
L 1485.004403 -158.191018 
L 1485.004403 -163.670724 
L 1477.570005 -163.670724 
L 1470.135607 -163.670724 
L 1462.701209 -163.670724 
L 1455.266811 -163.670724 
L 1447.832413 -163.670724 
L 1440.398015 -163.670724 
L 1432.963617 -163.670724 
L 1425.529219 -163.670724 
L 1418.094821 -163.670724 
L 1410.660423 -163.670724 
L 1403.226025 -163.670724 
L 1395.791628 -163.670724 
L 1388.35723 -163.670724 
L 1380.922832 -163.670724 
L 1373.488434 -163.670724 
L 1366.054036 -163.670724 
L 1358.619638 -163.670724 
L 1351.18524 -163.670724 
L 1343.750842 -163.670724 
L 1336.316444 -163.670724 
L 1328.882046 -163.670724 
L 1321.447648 -163.670724 
L 1314.01325 -163.670724 
L 1306.578852 -163.670724 
L 1299.144454 -163.670724 
L 1291.710056 -163.670724 
L 1284.275659 -163.670724 
L 1276.841261 -163.670724 
L 1269.406863 -163.670724 
L 1261.972465 -163.670724 
L 1254.538067 -163.670724 
L 1247.103669 -163.670724 
L 1239.669271 -163.670724 
L 1232.234873 -163.670724 
L 1224.800475 -163.670724 
L 1217.366077 -163.670724 
L 1209.931679 -163.670724 
L 1202.497281 -163.670724 
L 1195.062883 -163.670724 
L 1187.628485 -163.670724 
L 1180.194088 -163.670724 
L 1172.75969 -163.670724 
L 1165.325292 -163.670724 
L 1157.890894 -163.670724 
L 1150.456496 -163.670724 
L 1143.022098 -163.670724 
L 1135.5877 -163.670724 
L 1128.153302 -163.670724 
L 1120.718904 -163.670724 
L 1113.284506 -163.670724 
L 1105.850108 -163.670724 
L 1098.41571 -163.670724 
L 1090.981312 -163.670724 
L 1083.546914 -163.670724 
L 1076.112516 -163.670724 
L 1068.678119 -163.670724 
L 1061.243721 -163.670724 
L 1053.809323 -163.670724 
L 1046.374925 -163.670724 
L 1038.940527 -163.670724 
L 1031.506129 -163.670724 
L 1024.071731 -163.670724 
L 1016.637333 -163.670724 
L 1009.202935 -163.670724 
L 1001.768537 -163.670724 
L 994.334139 -163.670724 
L 986.899741 -163.670724 
L 979.465343 -163.670724 
L 972.030945 -163.670724 
L 964.596548 -163.670724 
L 957.16215 -163.670724 
L 949.727752 -163.670724 
L 942.293354 -163.670724 
L 934.858956 -163.670724 
L 927.424558 -163.670724 
L 919.99016 -163.670724 
L 912.555762 -163.670724 
L 905.121364 -163.670724 
L 897.686966 -163.670724 
L 890.252568 -163.670724 
L 882.81817 -163.670724 
L 875.383772 -163.670724 
L 867.949374 -163.670724 
L 860.514977 -163.670724 
L 853.080579 -163.670724 
L 845.646181 -163.670724 
L 838.211783 -163.670724 
L 830.777385 -163.670724 
L 823.342987 -163.670724 
L 815.908589 -163.670724 
L 808.474191 -163.670724 
L 801.039793 -163.670724 
L 793.605395 -163.670724 
L 786.170997 -163.670724 
L 778.736599 -163.670724 
L 771.302201 -163.670724 
L 763.867803 -163.670724 
L 756.433405 -163.670724 
L 748.999008 -163.670724 
L 741.56461 -163.670724 
L 734.130212 -163.670724 
L 726.695814 -163.670724 
L 719.261416 -163.670724 
L 711.827018 -163.670724 
L 704.39262 -163.670724 
L 696.958222 -163.670724 
L 689.523824 -163.670724 
L 682.089426 -163.670724 
L 674.655028 -163.670724 
L 667.22063 -163.670724 
L 659.786232 -163.670724 
L 652.351834 -163.670724 
L 644.917437 -163.670724 
L 637.483039 -163.670724 
L 630.048641 -163.670724 
L 622.614243 -163.670724 
L 615.179845 -163.670724 
L 607.745447 -163.670724 
L 600.311049 -163.670724 
L 592.876651 -163.670724 
L 585.442253 -163.670724 
L 578.007855 -163.670724 
L 570.573457 -163.670724 
L 563.139059 -163.670724 
L 555.704661 -163.670724 
L 548.270263 -163.670724 
L 540.835865 -163.670724 
L 533.401468 -163.670724 
L 525.96707 -163.670724 
L 518.532672 -163.670724 
L 511.098274 -163.670724 
L 503.663876 -163.670724 
L 496.229478 -163.670724 
L 488.79508 -163.670724 
L 481.360682 -163.670724 
L 473.926284 -163.670724 
L 466.491886 -163.670724 
L 459.057488 -163.670724 
L 451.62309 -163.670724 
L 444.188692 -163.670724 
L 436.754294 -163.670724 
L 429.319897 -163.670724 
L 421.885499 -163.670724 
L 414.451101 -163.670724 
L 407.016703 -163.670724 
L 399.582305 -163.670724 
L 392.147907 -163.670724 
L 384.713509 -163.670724 
L 377.279111 -163.670724 
L 369.844713 -163.670724 
L 362.410315 -163.670724 
L 354.975917 -163.670724 
L 347.541519 -163.670724 
L 340.107121 -163.670724 
L 332.672723 -163.670724 
L 325.238326 -163.670724 
L 317.803928 -163.670724 
L 310.36953 -163.670724 
L 302.935132 -163.670724 
L 295.500734 -163.670724 
L 288.066336 -163.670724 
L 280.631938 -163.670724 
L 273.19754 -163.670724 
L 265.763142 -163.670724 
L 258.328744 -163.670724 
L 250.894346 -163.670724 
L 243.459948 -163.670724 
L 236.02555 -163.670724 
L 228.591152 -163.670724 
L 221.156754 -163.670724 
L 213.722357 -163.670724 
L 206.287959 -163.670724 
L 198.853561 -163.670724 
L 191.419163 -163.670724 
L 183.984765 -163.670724 
L 176.550367 -163.670724 
L 169.115969 -163.670724 
L 161.681571 -163.670724 
L 154.247173 -163.670724 
L 146.812775 -163.670724 
L 139.378377 -163.670724 
L 131.943979 -163.670724 
L 124.509581 -163.670724 
L 117.075183 -163.670724 
L 109.640786 -163.670724 
L 102.206388 -163.670724 
L 94.77199 -163.670724 
L 87.337592 -163.670724 
L 79.903194 -163.670724 
L 72.468796 -163.670724 
L 65.034398 -163.670724 
L 65.034398 -158.191018 
L 65.034398 -152.711312 
L 65.034398 -147.231606 
L 65.034398 -141.7519 
L 65.034398 -136.272194 
L 65.034398 -130.792488 
L 65.034398 -125.312782 
L 65.034398 -119.833076 
L 65.034398 -114.35337 
L 65.034398 -108.873663 
L 65.034398 -103.393957 
L 65.034398 -97.914251 
L 65.034398 -92.434545 
L 65.034398 -86.954839 
L 65.034398 -81.475133 
L 65.034398 -75.995427 
L 65.034398 -70.515721 
L 65.034398 -65.036015 
L 65.034398 -59.556309 
L 65.034398 -54.076602 
L 65.034398 -48.596896 
L 65.034398 -43.11719 
L 65.034398 -37.637484 
L 65.034398 -32.157778 
L 65.034398 -26.678072 
L 65.034398 -21.198366 
L 65.034398 -15.71866 
L 65.034398 -10.238954 
L 65.034398 -4.759248 
L 65.034398 0.720458 
L 65.034398 6.200165 
L 65.034398 11.679871 
L 65.034398 17.159577 
L 65.034398 22.639283 
L 65.034398 28.118989 
L 65.034398 33.598695 
L 65.034398 39.078401 
L 65.034398 44.558107 
L 65.034398 50.037813 
L 65.034398 55.517519 
L 65.034398 60.997226 
L 65.034398 66.476932 
L 65.034398 71.956638 
L 65.034398 77.436344 
L 65.034398 82.91605 
L 65.034398 88.395756 
L 65.034398 93.875462 
L 65.034398 99.355168 
L 65.034398 104.834874 
L 65.034398 110.31458 
L 65.034398 115.794287 
L 65.034398 121.273993 
L 65.034398 126.753699 
L 65.034398 132.233405 
L 65.034398 137.713111 
L 65.034398 143.192817 
L 65.034398 148.672523 
L 65.034398 154.152229 
L 65.034398 159.631935 
L 65.034398 165.111641 
L 65.034398 170.591348 
L 65.034398 176.071054 
L 65.034398 181.55076 
L 65.034398 187.030466 
L 65.034398 192.510172 
L 65.034398 197.989878 
L 65.034398 203.469584 
L 65.034398 208.94929 
L 65.034398 214.428996 
L 65.034398 219.908702 
L 65.034398 225.388409 
L 65.034398 227.810912 
L 66.349056 225.388409 
L 68.321044 219.908702 
L 71.60769 214.428996 
L 72.468796 213.794297 
L 79.042088 208.94929 
L 79.903194 208.314591 
L 86.476486 203.469584 
L 87.337592 202.834885 
L 93.910884 197.989878 
L 93.910884 192.510172 
L 94.77199 191.875473 
L 102.206388 191.875473 
L 103.067493 192.510172 
L 109.640786 194.125174 
L 110.736334 192.510172 
L 116.214078 187.030466 
L 109.640786 182.185459 
L 102.206388 184.607962 
L 98.058636 181.55076 
L 102.206388 178.493557 
L 109.640786 180.916061 
L 116.214078 176.071054 
L 109.640786 171.226047 
L 108.77968 170.591348 
L 109.640786 169.956648 
L 116.214078 165.111641 
L 117.075183 164.476942 
L 124.509581 162.054439 
L 131.082874 159.631935 
L 131.943979 158.997236 
L 134.135077 154.152229 
L 138.517272 148.672523 
L 138.517272 143.192817 
L 139.378377 142.558118 
L 140.239483 143.192817 
L 146.812775 145.615321 
L 150.099421 143.192817 
L 154.247173 140.135614 
L 158.394925 143.192817 
L 161.681571 143.798443 
L 162.620613 143.192817 
L 169.115969 138.405255 
L 175.611325 143.192817 
L 176.550367 143.49563 
L 178.741464 143.192817 
L 183.984765 139.328113 
L 189.228065 143.192817 
L 191.419163 143.515818 
L 197.992455 143.192817 
L 198.853561 142.558118 
L 206.287959 138.682112 
L 207.931282 137.713111 
L 209.574605 132.233405 
L 206.287959 127.388398 
L 205.426853 126.753699 
L 198.853561 121.908692 
L 197.992455 121.273993 
L 198.853561 120.639294 
L 206.287959 120.639294 
L 213.722357 118.21679 
L 217.870108 121.273993 
L 214.583462 126.753699 
L 221.156754 129.176202 
L 227.730047 126.753699 
L 228.591152 126.119 
L 229.452258 126.753699 
L 236.02555 129.176202 
L 243.459948 131.598706 
L 244.321054 132.233405 
L 243.459948 132.868104 
L 236.02555 135.290607 
L 228.591152 132.868104 
L 225.304506 137.713111 
L 228.591152 140.135614 
L 232.738904 143.192817 
L 236.02555 145.615321 
L 242.598843 143.192817 
L 243.459948 142.558118 
L 250.894346 142.558118 
L 251.755452 143.192817 
L 250.894346 143.827516 
L 244.321054 148.672523 
L 250.894346 153.51753 
L 251.755452 154.152229 
L 258.328744 158.997236 
L 259.18985 159.631935 
L 265.763142 162.054439 
L 272.336434 159.631935 
L 272.336434 154.152229 
L 272.336434 148.672523 
L 273.19754 148.037824 
L 274.058646 148.672523 
L 280.631938 153.51753 
L 281.493044 154.152229 
L 288.066336 158.997236 
L 288.927441 159.631935 
L 288.066336 160.266634 
L 281.493044 165.111641 
L 280.631938 165.746341 
L 278.44084 170.591348 
L 278.44084 176.071054 
L 274.058646 181.55076 
L 274.058646 187.030466 
L 278.44084 192.510172 
L 274.058646 197.989878 
L 273.19754 198.624577 
L 269.910894 203.469584 
L 265.763142 206.526787 
L 259.18985 208.94929 
L 259.18985 214.428996 
L 258.328744 215.063695 
L 251.755452 219.908702 
L 250.894346 220.543402 
L 243.459948 220.543402 
L 242.598843 219.908702 
L 236.02555 218.2937 
L 232.738904 219.908702 
L 228.591152 222.965905 
L 222.01786 225.388409 
L 221.156754 226.023108 
L 214.583462 230.868115 
L 213.722357 231.502814 
L 206.287959 234.732818 
L 203.001312 236.347821 
L 199.714666 241.827527 
L 206.287959 243.038779 
L 213.722357 246.672534 
L 214.583462 247.307233 
L 213.722357 247.941932 
L 207.149064 252.786939 
L 206.287959 253.421638 
L 205.426853 252.786939 
L 198.853561 247.941932 
L 197.992455 247.307233 
L 191.419163 244.884729 
L 183.984765 245.692231 
L 182.341442 247.307233 
L 183.984765 248.922235 
L 189.228065 252.786939 
L 191.419163 257.631946 
L 192.280268 258.266645 
L 198.853561 263.111652 
L 199.714666 263.746351 
L 198.853561 264.38105 
L 191.419163 264.38105 
L 190.558057 263.746351 
L 183.984765 258.901344 
L 183.123659 258.266645 
L 176.550367 257.661019 
L 173.263721 258.266645 
L 173.263721 263.746351 
L 173.263721 269.226057 
L 169.115969 272.28326 
L 161.681571 273.494512 
L 160.586022 274.705763 
L 154.247173 279.377968 
L 152.056076 280.18547 
L 147.673881 285.665176 
L 154.247173 290.510183 
L 155.108279 291.144882 
L 154.247173 291.779581 
L 146.812775 291.779581 
L 145.95167 291.144882 
L 139.378377 289.529879 
L 136.091731 291.144882 
L 131.943979 294.202084 
L 128.657333 296.624588 
L 124.509581 299.68179 
L 117.936289 302.104294 
z
M 160.820465 296.624588 
L 161.681571 295.989889 
L 162.542677 296.624588 
L 161.681571 297.259287 
z
M 168.254863 291.144882 
L 164.968217 285.665176 
L 169.115969 282.607973 
L 173.263721 285.665176 
L 169.977075 291.144882 
L 169.115969 291.779581 
z
M 187.271411 291.144882 
L 183.984765 286.299875 
L 183.123659 285.665176 
L 183.984765 285.030476 
L 191.419163 281.800472 
L 198.853561 282.607973 
L 206.287959 282.607973 
L 213.722357 282.607973 
L 217.870108 285.665176 
L 213.722357 288.722378 
L 207.149064 291.144882 
L 206.287959 291.779581 
L 198.853561 291.779581 
L 191.419163 294.202084 
z
M 183.123659 269.226057 
L 183.984765 268.591358 
L 184.84587 269.226057 
L 183.984765 269.860756 
z
M 220.295649 236.347821 
L 221.156754 235.713122 
L 222.01786 236.347821 
L 221.156754 236.98252 
z
M 257.467638 148.672523 
L 258.328744 148.037824 
L 259.18985 148.672523 
L 258.328744 149.307222 
z
M 257.467638 137.713111 
L 258.328744 137.078412 
L 259.18985 137.713111 
L 258.328744 138.34781 
z
M 194.705809 132.233405 
L 198.853561 129.176202 
L 203.001312 132.233405 
L 198.853561 135.290607 
z
" style="fill:#ffffff;"/>
    <path clip-path="url(#p7ad6fa8999)" d="M 228.591152 216.8515 
L 230.78225 214.428996 
L 228.591152 213.621495 
L 227.860787 214.428996 
z
" style="fill:#ffffff;"/>
    <path clip-path="url(#p7ad6fa8999)" d="M 139.378377 164.476942 
L 140.473926 159.631935 
L 139.378377 158.016933 
L 132.805085 159.631935 
z
" style="fill:#ffffff;"/>
    <path clip-path="url(#p7ad6fa8999)" d="M 243.459948 160.072391 
L 245.651046 159.631935 
L 243.459948 157.209432 
L 242.638287 159.631935 
z
" style="fill:#ffffff;"/>
   </g>
   <g id="PathCollection_3">
    <path clip-path="url(#p7ad6fa8999)" d="M 72.468796 302.104294 
L 79.903194 302.104294 
L 87.337592 302.104294 
L 91.485344 302.104294 
L 94.77199 300.893042 
L 101.345282 302.104294 
L 102.206388 302.104294 
L 109.640786 302.104294 
L 117.075183 302.104294 
L 117.936289 302.104294 
L 124.509581 299.68179 
L 128.657333 296.624588 
L 131.943979 294.202084 
L 136.091731 291.144882 
L 139.378377 289.529879 
L 145.95167 291.144882 
L 146.812775 291.779581 
L 154.247173 291.779581 
L 155.108279 291.144882 
L 154.247173 290.510183 
L 147.673881 285.665176 
L 152.056076 280.18547 
L 154.247173 279.377968 
L 160.586022 274.705763 
L 161.681571 273.494512 
L 169.115969 272.28326 
L 173.263721 269.226057 
L 173.263721 263.746351 
L 173.263721 258.266645 
L 176.550367 257.661019 
L 183.123659 258.266645 
L 183.984765 258.901344 
L 190.558057 263.746351 
L 191.419163 264.38105 
L 198.853561 264.38105 
L 199.714666 263.746351 
L 198.853561 263.111652 
L 192.280268 258.266645 
L 191.419163 257.631946 
L 189.228065 252.786939 
L 183.984765 248.922235 
L 182.341442 247.307233 
L 183.984765 245.692231 
L 191.419163 244.884729 
L 197.992455 247.307233 
L 198.853561 247.941932 
L 205.426853 252.786939 
L 206.287959 253.421638 
L 207.149064 252.786939 
L 213.722357 247.941932 
L 214.583462 247.307233 
L 213.722357 246.672534 
L 206.287959 243.038779 
L 199.714666 241.827527 
L 203.001312 236.347821 
L 206.287959 234.732818 
L 213.722357 231.502814 
L 214.583462 230.868115 
L 221.156754 226.023108 
L 222.01786 225.388409 
L 228.591152 222.965905 
L 232.738904 219.908702 
L 236.02555 218.2937 
L 242.598843 219.908702 
L 243.459948 220.543402 
L 250.894346 220.543402 
L 251.755452 219.908702 
L 258.328744 215.063695 
L 259.18985 214.428996 
L 259.18985 208.94929 
L 265.763142 206.526787 
L 269.910894 203.469584 
L 273.19754 198.624577 
L 274.058646 197.989878 
L 278.44084 192.510172 
L 274.058646 187.030466 
L 274.058646 181.55076 
L 278.44084 176.071054 
L 278.44084 170.591348 
L 280.631938 165.746341 
L 281.493044 165.111641 
L 288.066336 160.266634 
L 288.927441 159.631935 
L 288.066336 158.997236 
L 281.493044 154.152229 
L 280.631938 153.51753 
L 274.058646 148.672523 
L 273.19754 148.037824 
L 272.336434 148.672523 
L 272.336434 154.152229 
L 272.336434 159.631935 
L 265.763142 162.054439 
L 259.18985 159.631935 
L 258.328744 158.997236 
L 251.755452 154.152229 
L 250.894346 153.51753 
L 244.321054 148.672523 
L 250.894346 143.827516 
L 251.755452 143.192817 
L 250.894346 142.558118 
L 243.459948 142.558118 
L 242.598843 143.192817 
L 236.02555 145.615321 
L 232.738904 143.192817 
L 228.591152 140.135614 
L 225.304506 137.713111 
L 228.591152 132.868104 
L 236.02555 135.290607 
L 243.459948 132.868104 
L 244.321054 132.233405 
L 243.459948 131.598706 
L 236.02555 129.176202 
L 229.452258 126.753699 
L 228.591152 126.119 
L 227.730047 126.753699 
L 221.156754 129.176202 
L 214.583462 126.753699 
L 217.870108 121.273993 
L 213.722357 118.21679 
L 206.287959 120.639294 
L 198.853561 120.639294 
L 197.992455 121.273993 
L 198.853561 121.908692 
L 205.426853 126.753699 
L 206.287959 127.388398 
L 209.574605 132.233405 
L 207.931282 137.713111 
L 206.287959 138.682112 
L 198.853561 142.558118 
L 197.992455 143.192817 
L 191.419163 143.515818 
L 189.228065 143.192817 
L 183.984765 139.328113 
L 178.741464 143.192817 
L 176.550367 143.49563 
L 175.611325 143.192817 
L 169.115969 138.405255 
L 162.620613 143.192817 
L 161.681571 143.798443 
L 158.394925 143.192817 
L 154.247173 140.135614 
L 150.099421 143.192817 
L 146.812775 145.615321 
L 140.239483 143.192817 
L 139.378377 142.558118 
L 138.517272 143.192817 
L 138.517272 148.672523 
L 134.135077 154.152229 
L 131.943979 158.997236 
L 131.082874 159.631935 
L 124.509581 162.054439 
L 117.075183 164.476942 
L 116.214078 165.111641 
L 109.640786 169.956648 
L 108.77968 170.591348 
L 109.640786 171.226047 
L 116.214078 176.071054 
L 109.640786 180.916061 
L 102.206388 178.493557 
L 98.058636 181.55076 
L 102.206388 184.607962 
L 109.640786 182.185459 
L 116.214078 187.030466 
L 110.736334 192.510172 
L 109.640786 194.125174 
L 103.067493 192.510172 
L 102.206388 191.875473 
L 94.77199 191.875473 
L 93.910884 192.510172 
L 93.910884 197.989878 
L 87.337592 202.834885 
L 86.476486 203.469584 
L 79.903194 208.314591 
L 79.042088 208.94929 
L 72.468796 213.794297 
L 71.60769 214.428996 
L 68.321044 219.908702 
L 66.349056 225.388409 
L 65.034398 227.810912 
L 65.034398 230.868115 
L 65.034398 236.347821 
L 65.034398 237.083048 
L 65.533145 236.347821 
L 70.746585 230.868115 
L 70.293032 225.388409 
L 72.468796 222.715574 
L 76.27692 219.908702 
L 79.903194 217.904077 
L 83.046322 214.428996 
L 87.337592 211.266011 
L 94.77199 213.159598 
L 97.056864 208.94929 
L 102.206388 205.153707 
L 103.348825 203.469584 
L 109.640786 198.316646 
L 109.947707 197.989878 
L 114.02298 192.510172 
L 117.075183 189.81053 
L 120.218312 187.030466 
L 124.509581 182.285987 
L 124.872306 181.55076 
L 124.509581 180.815532 
L 120.218312 176.071054 
L 124.509581 172.275471 
L 130.221768 170.591348 
L 131.943979 169.745082 
L 139.378377 169.745082 
L 145.664634 165.111641 
L 143.760572 159.631935 
L 140.708369 154.152229 
L 146.812775 150.777677 
L 149.668869 148.672523 
L 154.247173 145.297971 
L 161.681571 145.615321 
L 165.437738 143.192817 
L 169.115969 140.481686 
L 172.7942 143.192817 
L 176.550367 144.404069 
L 183.984765 143.682969 
L 191.419163 144.484819 
L 198.853561 143.965057 
L 203.568253 143.192817 
L 206.287959 141.589117 
L 212.861251 137.713111 
L 213.722357 136.443713 
L 215.444568 137.713111 
L 219.161767 143.192817 
L 221.156754 143.928044 
L 226.306278 148.672523 
L 228.591152 149.608147 
L 236.02555 150.356646 
L 241.175074 154.152229 
L 240.173302 159.631935 
L 243.459948 161.393756 
L 250.894346 162.572845 
L 254.338769 165.111641 
L 258.328744 166.582096 
L 263.768154 170.591348 
L 264.048708 176.071054 
L 265.763142 177.808594 
L 270.840194 181.55076 
L 265.763142 186.540314 
L 263.768154 187.030466 
L 265.763142 189.971375 
L 269.207565 192.510172 
L 265.763142 193.77957 
L 258.328744 196.519423 
L 256.333756 197.989878 
L 252.616557 203.469584 
L 252.042487 208.94929 
L 250.894346 209.795556 
L 247.449924 208.94929 
L 249.746205 203.469584 
L 243.459948 201.152864 
L 239.688194 203.469584 
L 236.02555 207.968987 
L 234.695559 208.94929 
L 228.591152 211.198992 
L 225.669689 214.428996 
L 221.156754 218.171162 
L 214.870497 219.908702 
L 213.722357 222.447499 
L 206.287959 224.898257 
L 205.290465 225.388409 
L 202.297983 230.868115 
L 198.853561 232.137513 
L 196.949498 236.347821 
L 191.419163 240.424091 
L 183.984765 241.337375 
L 176.550367 241.407397 
L 175.552873 241.827527 
L 176.550367 244.768436 
L 177.411473 247.307233 
L 183.18677 252.786939 
L 176.550367 255.844142 
L 169.913964 252.786939 
L 174.828156 247.307233 
L 169.115969 245.62311 
L 167.483916 247.307233 
L 168.118475 252.786939 
L 161.681571 257.531418 
L 160.351579 258.266645 
L 154.247173 261.641197 
L 152.343111 263.746351 
L 146.812775 267.822621 
L 143.004651 269.226057 
L 141.100588 274.705763 
L 142.8228 280.18547 
L 139.378377 282.724266 
L 135.933955 280.18547 
L 131.943979 277.24456 
L 129.948992 280.18547 
L 125.657722 285.665176 
L 126.231793 291.144882 
L 124.509581 292.41428 
L 122.78737 291.144882 
L 122.78737 285.665176 
L 117.075183 284.26174 
L 114.21909 285.665176 
L 109.640786 290.164578 
L 105.65081 291.144882 
L 105.65081 296.624588 
L 102.206388 297.470853 
L 94.77199 297.259287 
L 87.337592 299.99914 
L 79.903194 300.420171 
L 72.468796 299.297422 
L 71.326359 302.104294 
z
M 149.668869 274.705763 
L 154.247173 271.331211 
L 157.299376 274.705763 
L 154.247173 276.955465 
z
M 159.95936 269.226057 
L 161.681571 266.687261 
L 163.403782 269.226057 
L 161.681571 269.860756 
z
M 205.139818 247.307233 
L 206.287959 246.672534 
L 207.436099 247.307233 
L 206.287959 248.153498 
z
M 227.860787 214.428996 
L 228.591152 213.621495 
L 230.78225 214.428996 
L 228.591152 216.8515 
z
M 132.805085 159.631935 
L 139.378377 158.016933 
L 140.473926 159.631935 
L 139.378377 164.476942 
z
M 242.638287 159.631935 
L 243.459948 157.209432 
L 245.651046 159.631935 
L 243.459948 160.072391 
z
" style="fill:#f0f0f0;"/>
    <path clip-path="url(#p7ad6fa8999)" d="M 131.943979 302.104294 
L 132.805085 302.104294 
L 131.943979 301.469595 
L 131.082874 302.104294 
z
" style="fill:#f0f0f0;"/>
    <path clip-path="url(#p7ad6fa8999)" d="M 146.812775 302.104294 
L 147.673881 302.104294 
L 146.812775 301.469595 
L 145.95167 302.104294 
z
" style="fill:#f0f0f0;"/>
    <path clip-path="url(#p7ad6fa8999)" d="M 161.681571 297.259287 
L 162.542677 296.624588 
L 161.681571 295.989889 
L 160.820465 296.624588 
z
" style="fill:#f0f0f0;"/>
    <path clip-path="url(#p7ad6fa8999)" d="M 169.115969 302.104294 
L 169.977075 302.104294 
L 169.115969 301.469595 
L 168.254863 302.104294 
z
" style="fill:#f0f0f0;"/>
    <path clip-path="url(#p7ad6fa8999)" d="M 183.984765 302.104294 
L 191.419163 302.104294 
L 198.853561 302.104294 
L 206.287959 302.104294 
L 210.43571 302.104294 
L 206.287959 299.047091 
L 198.853561 301.469595 
L 191.419163 299.047091 
L 183.984765 299.047091 
L 179.837013 302.104294 
z
" style="fill:#f0f0f0;"/>
    <path clip-path="url(#p7ad6fa8999)" d="M 221.156754 302.104294 
L 222.01786 302.104294 
L 221.156754 301.469595 
L 220.295649 302.104294 
z
" style="fill:#f0f0f0;"/>
    <path clip-path="url(#p7ad6fa8999)" d="M 169.115969 291.779581 
L 169.977075 291.144882 
L 173.263721 285.665176 
L 169.115969 282.607973 
L 164.968217 285.665176 
L 168.254863 291.144882 
z
" style="fill:#f0f0f0;"/>
    <path clip-path="url(#p7ad6fa8999)" d="M 191.419163 294.202084 
L 198.853561 291.779581 
L 206.287959 291.779581 
L 207.149064 291.144882 
L 213.722357 288.722378 
L 217.870108 285.665176 
L 213.722357 282.607973 
L 206.287959 282.607973 
L 198.853561 282.607973 
L 191.419163 281.800472 
L 183.984765 285.030476 
L 183.123659 285.665176 
L 183.984765 286.299875 
L 187.271411 291.144882 
z
" style="fill:#f0f0f0;"/>
    <path clip-path="url(#p7ad6fa8999)" d="M 102.206388 288.606085 
L 103.536379 285.665176 
L 102.206388 285.175024 
L 101.541392 285.665176 
z
" style="fill:#f0f0f0;"/>
    <path clip-path="url(#p7ad6fa8999)" d="M 183.984765 269.860756 
L 184.84587 269.226057 
L 183.984765 268.591358 
L 183.123659 269.226057 
z
" style="fill:#f0f0f0;"/>
    <path clip-path="url(#p7ad6fa8999)" d="M 221.156754 236.98252 
L 222.01786 236.347821 
L 221.156754 235.713122 
L 220.295649 236.347821 
z
" style="fill:#f0f0f0;"/>
    <path clip-path="url(#p7ad6fa8999)" d="M 79.903194 228.329318 
L 80.56819 225.388409 
L 79.903194 223.917954 
L 77.908206 225.388409 
z
" style="fill:#f0f0f0;"/>
    <path clip-path="url(#p7ad6fa8999)" d="M 87.337592 220.398854 
L 87.836339 219.908702 
L 87.337592 219.173475 
L 85.342604 219.908702 
z
" style="fill:#f0f0f0;"/>
    <path clip-path="url(#p7ad6fa8999)" d="M 258.328744 149.307222 
L 259.18985 148.672523 
L 258.328744 148.037824 
L 257.467638 148.672523 
z
" style="fill:#f0f0f0;"/>
    <path clip-path="url(#p7ad6fa8999)" d="M 258.328744 138.34781 
L 259.18985 137.713111 
L 258.328744 137.078412 
L 257.467638 137.713111 
z
" style="fill:#f0f0f0;"/>
    <path clip-path="url(#p7ad6fa8999)" d="M 198.853561 135.290607 
L 203.001312 132.233405 
L 198.853561 129.176202 
L 194.705809 132.233405 
z
" style="fill:#f0f0f0;"/>
   </g>
   <g id="PathCollection_4">
    <path clip-path="url(#p7ad6fa8999)" d="M 72.468796 299.297422 
L 79.903194 300.420171 
L 87.337592 299.99914 
L 94.77199 297.259287 
L 102.206388 297.470853 
L 105.65081 296.624588 
L 105.65081 291.144882 
L 109.640786 290.164578 
L 114.21909 285.665176 
L 117.075183 284.26174 
L 122.78737 285.665176 
L 122.78737 291.144882 
L 124.509581 292.41428 
L 126.231793 291.144882 
L 125.657722 285.665176 
L 129.948992 280.18547 
L 131.943979 277.24456 
L 135.933955 280.18547 
L 139.378377 282.724266 
L 142.8228 280.18547 
L 141.100588 274.705763 
L 143.004651 269.226057 
L 146.812775 267.822621 
L 152.343111 263.746351 
L 154.247173 261.641197 
L 160.351579 258.266645 
L 161.681571 257.531418 
L 168.118475 252.786939 
L 167.483916 247.307233 
L 169.115969 245.62311 
L 174.828156 247.307233 
L 169.913964 252.786939 
L 176.550367 255.844142 
L 183.18677 252.786939 
L 177.411473 247.307233 
L 176.550367 244.768436 
L 175.552873 241.827527 
L 176.550367 241.407397 
L 183.984765 241.337375 
L 191.419163 240.424091 
L 196.949498 236.347821 
L 198.853561 232.137513 
L 202.297983 230.868115 
L 205.290465 225.388409 
L 206.287959 224.898257 
L 213.722357 222.447499 
L 214.870497 219.908702 
L 221.156754 218.171162 
L 225.669689 214.428996 
L 228.591152 211.198992 
L 234.695559 208.94929 
L 236.02555 207.968987 
L 239.688194 203.469584 
L 243.459948 201.152864 
L 249.746205 203.469584 
L 247.449924 208.94929 
L 250.894346 209.795556 
L 252.042487 208.94929 
L 252.616557 203.469584 
L 256.333756 197.989878 
L 258.328744 196.519423 
L 265.763142 193.77957 
L 269.207565 192.510172 
L 265.763142 189.971375 
L 263.768154 187.030466 
L 265.763142 186.540314 
L 270.840194 181.55076 
L 265.763142 177.808594 
L 264.048708 176.071054 
L 263.768154 170.591348 
L 258.328744 166.582096 
L 254.338769 165.111641 
L 250.894346 162.572845 
L 243.459948 161.393756 
L 240.173302 159.631935 
L 241.175074 154.152229 
L 236.02555 150.356646 
L 228.591152 149.608147 
L 226.306278 148.672523 
L 221.156754 143.928044 
L 219.161767 143.192817 
L 215.444568 137.713111 
L 213.722357 136.443713 
L 212.861251 137.713111 
L 206.287959 141.589117 
L 203.568253 143.192817 
L 198.853561 143.965057 
L 191.419163 144.484819 
L 183.984765 143.682969 
L 176.550367 144.404069 
L 172.7942 143.192817 
L 169.115969 140.481686 
L 165.437738 143.192817 
L 161.681571 145.615321 
L 154.247173 145.297971 
L 149.668869 148.672523 
L 146.812775 150.777677 
L 140.708369 154.152229 
L 143.760572 159.631935 
L 145.664634 165.111641 
L 139.378377 169.745082 
L 131.943979 169.745082 
L 130.221768 170.591348 
L 124.509581 172.275471 
L 120.218312 176.071054 
L 124.509581 180.815532 
L 124.872306 181.55076 
L 124.509581 182.285987 
L 120.218312 187.030466 
L 117.075183 189.81053 
L 114.02298 192.510172 
L 109.947707 197.989878 
L 109.640786 198.316646 
L 103.348825 203.469584 
L 102.206388 205.153707 
L 97.056864 208.94929 
L 94.77199 213.159598 
L 87.337592 211.266011 
L 83.046322 214.428996 
L 79.903194 217.904077 
L 76.27692 219.908702 
L 72.468796 222.715574 
L 70.293032 225.388409 
L 70.746585 230.868115 
L 65.533145 236.347821 
L 65.034398 237.083048 
L 65.034398 241.827527 
L 65.034398 242.976537 
L 70.100755 241.827527 
L 71.284776 236.347821 
L 72.468796 235.350436 
L 79.903194 233.281673 
L 83.177703 230.868115 
L 87.337592 225.885624 
L 94.77199 225.75002 
L 95.187115 225.388409 
L 94.77199 223.399548 
L 93.587969 219.908702 
L 94.77199 218.911318 
L 102.206388 216.285073 
L 104.184947 214.428996 
L 109.640786 210.098301 
L 111.088316 208.94929 
L 109.640786 205.961863 
L 107.95013 203.469584 
L 109.640786 202.084985 
L 113.487172 197.989878 
L 117.075183 194.551856 
L 119.053743 192.510172 
L 124.509581 188.179476 
L 126.536124 187.030466 
L 129.055311 181.55076 
L 131.943979 178.948448 
L 139.378377 177.065484 
L 139.978003 176.071054 
L 146.812775 171.949269 
L 148.079365 170.591348 
L 148.839852 165.111641 
L 149.330941 159.631935 
L 154.247173 155.203055 
L 161.681571 154.82776 
L 162.394406 154.152229 
L 164.247777 148.672523 
L 169.115969 145.682339 
L 176.550367 146.523759 
L 183.213817 148.672523 
L 183.984765 148.871409 
L 184.884204 148.672523 
L 191.419163 146.745822 
L 198.853561 145.849227 
L 205.748295 148.672523 
L 206.287959 148.845468 
L 207.058906 148.672523 
L 213.722357 145.547049 
L 218.90504 148.672523 
L 221.156754 151.162046 
L 228.591152 153.376486 
L 230.959193 154.152229 
L 234.421671 159.631935 
L 236.02555 160.307466 
L 243.459948 164.476942 
L 244.813114 165.111641 
L 249.335467 170.591348 
L 250.894346 171.836109 
L 258.328744 174.290854 
L 259.865704 176.071054 
L 264.863703 181.55076 
L 258.328744 184.440811 
L 256.262025 187.030466 
L 250.894346 191.514363 
L 248.361167 192.510172 
L 243.459948 196.122736 
L 240.564887 197.989878 
L 236.02555 200.917479 
L 228.591152 202.74209 
L 227.424695 203.469584 
L 221.156754 208.551518 
L 220.482175 208.94929 
L 213.722357 213.378171 
L 206.287959 213.750036 
L 203.392897 214.428996 
L 203.589642 219.908702 
L 198.853561 221.654125 
L 192.098417 225.388409 
L 191.419163 225.88907 
L 184.664019 230.868115 
L 183.984765 232.370099 
L 178.588131 236.347821 
L 176.550367 236.56239 
L 169.115969 240.582766 
L 162.360826 241.827527 
L 161.681571 243.329511 
L 156.284937 247.307233 
L 154.247173 248.058225 
L 146.812775 252.48096 
L 146.213149 252.786939 
L 146.812775 253.582483 
L 150.784695 258.266645 
L 146.812775 262.170113 
L 140.397259 263.746351 
L 139.378377 264.046748 
L 132.351532 269.226057 
L 131.943979 269.476388 
L 127.214132 274.705763 
L 124.509581 276.948401 
L 117.075183 275.456755 
L 109.640786 277.916932 
L 102.206388 278.196609 
L 101.43544 280.18547 
L 94.77199 285.09693 
L 87.337592 284.420414 
L 79.903194 283.77369 
L 78.736736 285.665176 
L 79.903194 290.39389 
L 80.922076 291.144882 
L 79.903194 291.645543 
L 72.468796 292.308497 
L 69.274775 296.624588 
L 66.725054 302.104294 
L 71.326359 302.104294 
z
M 101.541392 285.665176 
L 102.206388 285.175024 
L 103.536379 285.665176 
L 102.206388 288.606085 
z
M 77.908206 225.388409 
L 79.903194 223.917954 
L 80.56819 225.388409 
L 79.903194 228.329318 
z
M 85.342604 219.908702 
L 87.337592 219.173475 
L 87.836339 219.908702 
L 87.337592 220.398854 
z
" style="fill:#d3d3d3;"/>
    <path clip-path="url(#p7ad6fa8999)" d="M 154.247173 276.955465 
L 157.299376 274.705763 
L 154.247173 271.331211 
L 149.668869 274.705763 
z
" style="fill:#d3d3d3;"/>
    <path clip-path="url(#p7ad6fa8999)" d="M 161.681571 269.860756 
L 163.403782 269.226057 
L 161.681571 266.687261 
L 159.95936 269.226057 
z
" style="fill:#d3d3d3;"/>
    <path clip-path="url(#p7ad6fa8999)" d="M 124.509581 268.475065 
L 127.075788 263.746351 
L 124.509581 263.018857 
L 123.343124 263.746351 
z
" style="fill:#d3d3d3;"/>
    <path clip-path="url(#p7ad6fa8999)" d="M 139.378377 262.244367 
L 140.457704 258.266645 
L 139.378377 257.824676 
L 138.60743 258.266645 
z
" style="fill:#d3d3d3;"/>
    <path clip-path="url(#p7ad6fa8999)" d="M 206.287959 248.153498 
L 207.436099 247.307233 
L 206.287959 246.672534 
L 205.139818 247.307233 
z
" style="fill:#d3d3d3;"/>
    <path clip-path="url(#p7ad6fa8999)" d="M 79.903194 242.324742 
L 80.442857 241.827527 
L 79.903194 241.330312 
L 77.204877 241.827527 
z
" style="fill:#d3d3d3;"/>
   </g>
   <g id="PathCollection_5">
    <path clip-path="url(#p7ad6fa8999)" d="M 69.274775 296.624588 
L 72.468796 292.308497 
L 79.903194 291.645543 
L 80.922076 291.144882 
L 79.903194 290.39389 
L 78.736736 285.665176 
L 79.903194 283.77369 
L 87.337592 284.420414 
L 94.77199 285.09693 
L 101.43544 280.18547 
L 102.206388 278.196609 
L 109.640786 277.916932 
L 117.075183 275.456755 
L 124.509581 276.948401 
L 127.214132 274.705763 
L 131.943979 269.476388 
L 132.351532 269.226057 
L 139.378377 264.046748 
L 140.397259 263.746351 
L 146.812775 262.170113 
L 150.784695 258.266645 
L 146.812775 253.582483 
L 146.213149 252.786939 
L 146.812775 252.48096 
L 154.247173 248.058225 
L 156.284937 247.307233 
L 161.681571 243.329511 
L 162.360826 241.827527 
L 169.115969 240.582766 
L 176.550367 236.56239 
L 178.588131 236.347821 
L 183.984765 232.370099 
L 184.664019 230.868115 
L 191.419163 225.88907 
L 192.098417 225.388409 
L 198.853561 221.654125 
L 203.589642 219.908702 
L 203.392897 214.428996 
L 206.287959 213.750036 
L 213.722357 213.378171 
L 220.482175 208.94929 
L 221.156754 208.551518 
L 227.424695 203.469584 
L 228.591152 202.74209 
L 236.02555 200.917479 
L 240.564887 197.989878 
L 243.459948 196.122736 
L 248.361167 192.510172 
L 250.894346 191.514363 
L 256.262025 187.030466 
L 258.328744 184.440811 
L 264.863703 181.55076 
L 259.865704 176.071054 
L 258.328744 174.290854 
L 250.894346 171.836109 
L 249.335467 170.591348 
L 244.813114 165.111641 
L 243.459948 164.476942 
L 236.02555 160.307466 
L 234.421671 159.631935 
L 230.959193 154.152229 
L 228.591152 153.376486 
L 221.156754 151.162046 
L 218.90504 148.672523 
L 213.722357 145.547049 
L 207.058906 148.672523 
L 206.287959 148.845468 
L 205.748295 148.672523 
L 198.853561 145.849227 
L 191.419163 146.745822 
L 184.884204 148.672523 
L 183.984765 148.871409 
L 183.213817 148.672523 
L 176.550367 146.523759 
L 169.115969 145.682339 
L 164.247777 148.672523 
L 162.394406 154.152229 
L 161.681571 154.82776 
L 154.247173 155.203055 
L 149.330941 159.631935 
L 148.839852 165.111641 
L 148.079365 170.591348 
L 146.812775 171.949269 
L 139.978003 176.071054 
L 139.378377 177.065484 
L 131.943979 178.948448 
L 129.055311 181.55076 
L 126.536124 187.030466 
L 124.509581 188.179476 
L 119.053743 192.510172 
L 117.075183 194.551856 
L 113.487172 197.989878 
L 109.640786 202.084985 
L 107.95013 203.469584 
L 109.640786 205.961863 
L 111.088316 208.94929 
L 109.640786 210.098301 
L 104.184947 214.428996 
L 102.206388 216.285073 
L 94.77199 218.911318 
L 93.587969 219.908702 
L 94.77199 223.399548 
L 95.187115 225.388409 
L 94.77199 225.75002 
L 87.337592 225.885624 
L 83.177703 230.868115 
L 79.903194 233.281673 
L 72.468796 235.350436 
L 71.284776 236.347821 
L 70.100755 241.827527 
L 65.034398 242.976537 
L 65.034398 247.307233 
L 65.034398 252.786939 
L 65.034398 258.266645 
L 65.034398 263.746351 
L 65.034398 264.161076 
L 71.281429 269.226057 
L 72.468796 274.039535 
L 78.999312 269.226057 
L 73.875454 263.746351 
L 72.468796 261.672727 
L 70.158255 258.266645 
L 72.288019 252.786939 
L 72.468796 252.653693 
L 73.372678 252.786939 
L 79.903194 257.600417 
L 87.337592 258.133399 
L 87.595844 258.266645 
L 88.241474 263.746351 
L 87.337592 264.190504 
L 80.505782 269.226057 
L 82.68262 274.705763 
L 79.903194 275.583754 
L 72.468796 274.826896 
L 72.016855 274.705763 
L 65.034398 273.122197 
L 65.034398 274.705763 
L 65.034398 277.279059 
L 67.137422 280.18547 
L 66.354707 285.665176 
L 65.034398 286.422083 
L 65.034398 291.144882 
L 65.034398 296.624588 
L 65.034398 302.104294 
L 66.725054 302.104294 
z
M 123.343124 263.746351 
L 124.509581 263.018857 
L 127.075788 263.746351 
L 124.509581 268.475065 
z
M 98.360063 258.266645 
L 94.77199 254.900692 
L 92.51875 252.786939 
L 94.77199 250.673186 
L 102.206388 249.380858 
L 103.130604 252.786939 
L 105.796291 258.266645 
L 102.206388 261.874863 
z
M 138.60743 258.266645 
L 139.378377 257.824676 
L 140.457704 258.266645 
L 139.378377 262.244367 
z
M 105.019705 247.307233 
L 106.275251 241.827527 
L 106.856517 236.347821 
L 109.640786 233.735913 
L 117.075183 235.681592 
L 124.509581 235.4963 
L 125.536488 236.347821 
L 124.509581 236.871833 
L 119.36811 241.827527 
L 117.075183 244.037603 
L 110.667692 247.307233 
L 109.640786 247.988449 
z
M 125.634908 247.307233 
L 131.943979 245.369626 
L 135.098515 247.307233 
L 131.943979 249.890709 
z
M 77.204877 241.827527 
L 79.903194 241.330312 
L 80.442857 241.827527 
L 79.903194 242.324742 
z
M 136.749598 241.827527 
L 137.186472 236.347821 
L 132.948674 230.868115 
L 131.943979 229.992937 
L 124.509581 228.02 
L 121.415305 225.388409 
L 117.075183 221.026145 
L 115.792371 219.908702 
L 117.075183 215.811413 
L 124.509581 217.057811 
L 131.943979 215.070793 
L 132.87691 214.428996 
L 131.943979 209.615519 
L 131.685727 208.94929 
L 131.943979 208.727214 
L 136.223842 203.469584 
L 139.378377 202.016379 
L 144.519848 197.989878 
L 146.812775 193.20138 
L 148.68832 192.510172 
L 153.343291 187.030466 
L 152.926864 181.55076 
L 154.247173 179.847719 
L 155.711132 176.071054 
L 157.512431 170.591348 
L 154.247173 165.77787 
L 154.161089 165.111641 
L 154.247173 164.945084 
L 161.681571 161.142601 
L 169.115969 160.092741 
L 169.42856 159.631935 
L 169.115969 157.558311 
L 168.602516 154.152229 
L 169.115969 153.628217 
L 176.550367 152.671265 
L 183.984765 152.989665 
L 191.419163 152.23683 
L 198.853561 152.17761 
L 206.287959 152.42656 
L 212.271131 154.152229 
L 213.722357 154.633577 
L 221.156754 159.520897 
L 221.357617 159.631935 
L 228.591152 162.630991 
L 233.976007 165.111641 
L 236.02555 166.37053 
L 240.933932 170.591348 
L 243.459948 173.197955 
L 247.003562 176.071054 
L 250.135256 181.55076 
L 243.459948 186.864576 
L 242.834767 187.030466 
L 236.02555 191.136839 
L 230.901693 192.510172 
L 228.591152 193.872605 
L 221.156754 197.644274 
L 220.687868 197.989878 
L 213.722357 202.09716 
L 206.287959 202.580957 
L 202.188873 203.469584 
L 206.287959 205.627679 
L 208.916738 208.94929 
L 206.287959 210.006167 
L 198.853561 210.499376 
L 191.583505 214.428996 
L 191.419163 214.595553 
L 183.984765 217.060588 
L 179.418126 219.908702 
L 176.550367 221.697263 
L 169.115969 223.705432 
L 161.681571 224.786724 
L 160.593152 225.388409 
L 161.681571 226.763688 
L 164.929884 230.868115 
L 161.681571 232.380272 
L 157.783596 230.868115 
L 154.247173 229.130376 
L 148.353135 230.868115 
L 146.812775 232.571155 
L 143.39687 236.347821 
L 142.246137 241.827527 
L 139.378377 244.152655 
z
M 94.642864 236.347821 
L 94.77199 236.081329 
L 94.972852 236.347821 
L 94.77199 236.614312 
z
" style="fill:#b8b8b8;"/>
   </g>
   <g id="PathCollection_6">
    <path clip-path="url(#p7ad6fa8999)" d="M 66.354707 285.665176 
L 67.137422 280.18547 
L 65.034398 277.279059 
L 65.034398 280.18547 
L 65.034398 285.665176 
L 65.034398 286.422083 
z
" style="fill:#a0a0a0;"/>
    <path clip-path="url(#p7ad6fa8999)" d="M 72.468796 274.826896 
L 79.903194 275.583754 
L 82.68262 274.705763 
L 80.505782 269.226057 
L 87.337592 264.190504 
L 88.241474 263.746351 
L 87.595844 258.266645 
L 87.337592 258.133399 
L 79.903194 257.600417 
L 73.372678 252.786939 
L 72.468796 252.653693 
L 72.288019 252.786939 
L 70.158255 258.266645 
L 72.468796 261.672727 
L 73.875454 263.746351 
L 78.999312 269.226057 
L 72.468796 274.039535 
L 71.281429 269.226057 
L 65.034398 264.161076 
L 65.034398 269.226057 
L 65.034398 273.122197 
L 72.016855 274.705763 
z
" style="fill:#a0a0a0;"/>
    <path clip-path="url(#p7ad6fa8999)" d="M 102.206388 261.874863 
L 105.796291 258.266645 
L 103.130604 252.786939 
L 102.206388 249.380858 
L 94.77199 250.673186 
L 92.51875 252.786939 
L 94.77199 254.900692 
L 98.360063 258.266645 
z
" style="fill:#a0a0a0;"/>
    <path clip-path="url(#p7ad6fa8999)" d="M 109.640786 247.988449 
L 110.667692 247.307233 
L 117.075183 244.037603 
L 119.36811 241.827527 
L 124.509581 236.871833 
L 125.536488 236.347821 
L 124.509581 235.4963 
L 117.075183 235.681592 
L 109.640786 233.735913 
L 106.856517 236.347821 
L 106.275251 241.827527 
L 105.019705 247.307233 
z
" style="fill:#a0a0a0;"/>
    <path clip-path="url(#p7ad6fa8999)" d="M 131.943979 249.890709 
L 135.098515 247.307233 
L 131.943979 245.369626 
L 125.634908 247.307233 
z
" style="fill:#a0a0a0;"/>
    <path clip-path="url(#p7ad6fa8999)" d="M 139.378377 244.152655 
L 142.246137 241.827527 
L 143.39687 236.347821 
L 146.812775 232.571155 
L 148.353135 230.868115 
L 154.247173 229.130376 
L 157.783596 230.868115 
L 161.681571 232.380272 
L 164.929884 230.868115 
L 161.681571 226.763688 
L 160.593152 225.388409 
L 161.681571 224.786724 
L 169.115969 223.705432 
L 176.550367 221.697263 
L 179.418126 219.908702 
L 183.984765 217.060588 
L 191.419163 214.595553 
L 191.583505 214.428996 
L 198.853561 210.499376 
L 206.287959 210.006167 
L 208.916738 208.94929 
L 206.287959 205.627679 
L 202.188873 203.469584 
L 206.287959 202.580957 
L 213.722357 202.09716 
L 220.687868 197.989878 
L 221.156754 197.644274 
L 228.591152 193.872605 
L 230.901693 192.510172 
L 236.02555 191.136839 
L 242.834767 187.030466 
L 243.459948 186.864576 
L 250.135256 181.55076 
L 247.003562 176.071054 
L 243.459948 173.197955 
L 240.933932 170.591348 
L 236.02555 166.37053 
L 233.976007 165.111641 
L 228.591152 162.630991 
L 221.357617 159.631935 
L 221.156754 159.520897 
L 213.722357 154.633577 
L 212.271131 154.152229 
L 206.287959 152.42656 
L 198.853561 152.17761 
L 191.419163 152.23683 
L 183.984765 152.989665 
L 176.550367 152.671265 
L 169.115969 153.628217 
L 168.602516 154.152229 
L 169.115969 157.558311 
L 169.42856 159.631935 
L 169.115969 160.092741 
L 161.681571 161.142601 
L 154.247173 164.945084 
L 154.161089 165.111641 
L 154.247173 165.77787 
L 157.512431 170.591348 
L 155.711132 176.071054 
L 154.247173 179.847719 
L 152.926864 181.55076 
L 153.343291 187.030466 
L 148.68832 192.510172 
L 146.812775 193.20138 
L 144.519848 197.989878 
L 139.378377 202.016379 
L 136.223842 203.469584 
L 131.943979 208.727214 
L 131.685727 208.94929 
L 131.943979 209.615519 
L 132.87691 214.428996 
L 131.943979 215.070793 
L 124.509581 217.057811 
L 117.075183 215.811413 
L 115.792371 219.908702 
L 117.075183 221.026145 
L 121.415305 225.388409 
L 124.509581 228.02 
L 131.943979 229.992937 
L 132.948674 230.868115 
L 137.186472 236.347821 
L 136.749598 241.827527 
z
" style="fill:#a0a0a0;"/>
    <path clip-path="url(#p7ad6fa8999)" d="M 94.77199 236.614312 
L 94.972852 236.347821 
L 94.77199 236.081329 
L 94.642864 236.347821 
z
" style="fill:#a0a0a0;"/>
   </g>
   <g id="PathCollection_7">
    <path clip-path="url(#p7ad6fa8999)" d="M 67.214498 307.584 
L 70.419331 307.584 
L 73.624164 307.584 
L 76.828997 307.584 
L 80.033829 307.584 
L 83.238662 307.584 
L 86.443495 307.584 
L 89.648328 307.584 
L 92.853161 307.584 
L 96.057993 307.584 
L 99.262826 307.584 
L 102.467659 307.584 
L 105.672492 307.584 
L 108.877324 307.584 
L 112.082157 307.584 
L 115.28699 307.584 
L 118.491823 307.584 
L 121.696656 307.584 
L 124.901488 307.584 
L 128.106321 307.584 
L 128.446984 307.584 
L 129.622506 306.854618 
L 130.493917 306.125236 
L 130.902179 305.395854 
L 130.855593 304.666473 
L 130.549353 303.937091 
L 129.860407 303.207709 
L 128.869891 302.478327 
L 128.106321 302.025423 
L 127.554436 301.748945 
L 125.841548 301.019563 
L 124.901488 300.721193 
L 123.742288 300.290181 
L 121.696656 299.59165 
L 121.604798 299.5608 
L 119.395632 298.831418 
L 118.491823 298.565615 
L 116.798554 298.102036 
L 115.28699 297.744752 
L 113.648699 297.372654 
L 112.082157 296.992221 
L 110.62036 296.643272 
L 108.877324 296.177426 
L 107.814657 295.91389 
L 105.672492 295.424501 
L 104.249995 295.184508 
L 102.467659 294.887207 
L 100.239359 294.455127 
L 99.262826 294.245037 
L 96.057993 293.801843 
L 95.443239 293.725745 
L 92.853161 293.429929 
L 89.648328 293.128238 
L 87.449387 292.996363 
L 86.443495 292.938946 
L 83.238662 292.853801 
L 80.033829 292.86022 
L 76.828997 292.960912 
L 76.051607 292.996363 
L 73.624164 293.112316 
L 70.419331 293.372994 
L 70.013155 293.725745 
L 69.275449 294.455127 
L 68.50323 295.184508 
L 67.79069 295.91389 
L 67.214498 296.58406 
L 67.201852 296.643272 
L 67.027668 297.372654 
L 66.851609 298.102036 
L 66.706997 298.831418 
L 66.582429 299.5608 
L 66.465308 300.290181 
L 66.359847 301.019563 
L 66.283271 301.748945 
L 66.219318 302.478327 
L 66.168363 303.207709 
L 66.132922 303.937091 
L 66.117168 304.666473 
L 66.114771 305.395854 
L 66.135773 306.125236 
L 66.180601 306.854618 
L 66.241073 307.584 
z
" style="fill:#4d94ff;fill-opacity:0.2;"/>
   </g>
   <g id="PathCollection_8">
    <path clip-path="url(#p7ad6fa8999)" d="M 72.868877 307.584 
L 75.922652 307.584 
L 78.976428 307.584 
L 82.030203 307.584 
L 85.083979 307.584 
L 88.137754 307.584 
L 91.191529 307.584 
L 94.245305 307.584 
L 97.29908 307.584 
L 100.352855 307.584 
L 103.406631 307.584 
L 106.460406 307.584 
L 109.514182 307.584 
L 112.567957 307.584 
L 115.621732 307.584 
L 118.675508 307.584 
L 121.729283 307.584 
L 124.783059 307.584 
L 127.836834 307.584 
L 130.890609 307.584 
L 133.944385 307.584 
L 136.99816 307.584 
L 140.051936 307.584 
L 143.105711 307.584 
L 146.159486 307.584 
L 149.213262 307.584 
L 152.267037 307.584 
L 155.320813 307.584 
L 156.857978 307.584 
L 158.374588 306.932302 
L 160.363327 306.106525 
L 161.428363 305.669171 
L 163.623974 304.62905 
L 164.482139 304.16754 
L 166.263088 303.151574 
L 167.535914 302.383384 
L 168.694557 301.674099 
L 170.589689 300.440526 
L 170.937048 300.196624 
L 172.386028 298.719149 
L 173.643465 297.746127 
L 174.182119 297.241674 
L 175.848373 295.764199 
L 176.69724 294.843479 
L 177.210764 294.286723 
L 178.383835 292.809248 
L 179.420831 291.331773 
L 179.751016 290.406724 
L 179.927601 289.854298 
L 180.22891 288.376823 
L 180.22891 286.899348 
L 179.751016 285.490194 
L 179.725126 285.421872 
L 179.177378 283.944397 
L 178.3112 282.466922 
L 177.40341 280.989447 
L 176.69724 279.874876 
L 176.469281 279.511972 
L 175.46258 278.034497 
L 174.109532 276.557021 
L 173.643465 276.121726 
L 172.292899 275.079546 
L 170.589689 274.007906 
L 169.891298 273.602071 
L 167.535914 272.323744 
L 167.162104 272.124596 
L 164.482139 270.660309 
L 164.456494 270.647121 
L 161.428363 269.618754 
L 159.878037 269.169646 
L 158.374588 268.677707 
L 155.432316 267.69217 
L 155.320813 267.666351 
L 152.267037 267.071512 
L 149.213262 266.529692 
L 147.390878 266.214695 
L 146.159486 266.00795 
L 143.105711 265.504771 
L 140.051936 265.079318 
L 137.703943 264.73722 
L 136.99816 264.645393 
L 133.944385 264.29967 
L 130.890609 263.9829 
L 127.836834 263.656477 
L 124.783059 263.278035 
L 124.571451 263.259745 
L 121.729283 263.002365 
L 118.675508 262.598144 
L 115.621732 262.342709 
L 112.567957 262.191158 
L 109.514182 262.090292 
L 106.460406 262.090292 
L 103.406631 262.255956 
L 100.352855 262.448606 
L 97.29908 262.712557 
L 94.245305 263.058988 
L 92.785078 263.259745 
L 91.191529 263.470832 
L 88.137754 264.046017 
L 85.083979 264.560954 
L 84.220093 264.73722 
L 82.030203 265.244906 
L 78.976428 266.094413 
L 78.547862 266.214695 
L 75.922652 266.987615 
L 73.492434 267.69217 
L 72.868877 267.956047 
L 70.520423 269.169646 
L 69.815102 269.498875 
L 69.341752 270.647121 
L 68.955613 272.124596 
L 68.572367 273.602071 
L 68.225231 275.079546 
L 67.947333 276.557021 
L 67.714507 278.034497 
L 67.541279 279.511972 
L 67.383697 280.989447 
L 67.231548 282.466922 
L 67.086373 283.944397 
L 66.994569 285.421872 
L 66.90172 286.899348 
L 66.90172 288.376823 
L 66.957524 289.854298 
L 67.04557 291.331773 
L 67.219374 292.809248 
L 67.415985 294.286723 
L 67.648122 295.764199 
L 67.934842 297.241674 
L 68.211599 298.719149 
L 68.423705 300.196624 
L 68.739977 301.674099 
L 69.083948 303.151574 
L 69.457771 304.62905 
L 69.815102 305.838196 
L 70.220624 306.106525 
L 72.457761 307.584 
z
" style="fill:#ff8533;fill-opacity:0.2;"/>
   </g>
   <g id="PathCollection_9">
    <path clip-path="url(#p7ad6fa8999)" d="M 63.245493 307.584 
L 66.068239 307.584 
L 68.890986 307.584 
L 71.713732 307.584 
L 74.536479 307.584 
L 77.359225 307.584 
L 80.181972 307.584 
L 83.004718 307.584 
L 85.827464 307.584 
L 88.650211 307.584 
L 91.472957 307.584 
L 94.295704 307.584 
L 97.11845 307.584 
L 99.941197 307.584 
L 102.763943 307.584 
L 105.58669 307.584 
L 108.409436 307.584 
L 111.232182 307.584 
L 114.054929 307.584 
L 116.877675 307.584 
L 119.700422 307.584 
L 122.523168 307.584 
L 125.345915 307.584 
L 128.168661 307.584 
L 130.991408 307.584 
L 133.814154 307.584 
L 136.6369 307.584 
L 139.459647 307.584 
L 142.282393 307.584 
L 145.10514 307.584 
L 147.927886 307.584 
L 150.750633 307.584 
L 153.573379 307.584 
L 156.396126 307.584 
L 159.218872 307.584 
L 162.041619 307.584 
L 164.864365 307.584 
L 165.840634 307.584 
L 166.699574 306.768868 
L 166.849691 305.953737 
L 166.353754 305.138605 
L 165.527599 304.323473 
L 164.864365 303.957584 
L 163.920018 303.508342 
L 162.041619 302.975375 
L 161.093244 302.69321 
L 159.218872 302.130073 
L 158.382041 301.878078 
L 156.396126 301.393626 
L 154.839534 301.062947 
L 153.573379 300.827657 
L 150.750633 300.392473 
L 149.455432 300.247815 
L 147.927886 300.090068 
L 145.10514 299.7154 
L 142.475936 299.432683 
L 142.282393 299.410824 
L 139.459647 299.159118 
L 136.6369 298.899402 
L 133.814154 298.680764 
L 132.951712 298.617551 
L 130.991408 298.460778 
L 128.168661 298.242316 
L 125.345915 298.014328 
L 122.962564 297.80242 
L 122.523168 297.771093 
L 119.700422 297.591606 
L 116.877675 297.427696 
L 114.054929 297.253521 
L 111.232182 297.089269 
L 109.498916 296.987288 
L 108.409436 296.9137 
L 105.58669 296.738561 
L 102.763943 296.615836 
L 99.941197 296.446706 
L 97.11845 296.315759 
L 94.295704 296.208422 
L 93.315377 296.172156 
L 91.472957 296.089786 
L 88.650211 295.954168 
L 85.827464 295.881038 
L 83.004718 295.840842 
L 80.181972 295.798426 
L 77.359225 295.798426 
L 74.536479 295.847189 
L 71.713732 295.939013 
L 68.890986 296.076229 
L 67.280836 296.172156 
L 66.068239 296.232166 
L 65.344384 296.987288 
L 64.574824 297.80242 
L 64.038787 298.617551 
L 63.522016 299.432683 
L 63.245493 299.885244 
L 63.157199 300.247815 
L 62.98622 301.062947 
L 62.848006 301.878078 
L 62.741879 302.69321 
L 62.639263 303.508342 
L 62.579751 304.323473 
L 62.546974 305.138605 
L 62.527298 305.953737 
L 62.533254 306.768868 
L 62.567331 307.584 
z
" style="fill:#00b300;fill-opacity:0.2;"/>
   </g>
   <g id="PathCollection_10">
    <path clip-path="url(#p7ad6fa8999)" d="M 72.877623 307.584 
L 80.516434 307.584 
L 88.155246 307.584 
L 95.794057 307.584 
L 103.432868 307.584 
L 111.07168 307.584 
L 118.710491 307.584 
L 126.349302 307.584 
L 133.988114 307.584 
L 141.626925 307.584 
L 149.265737 307.584 
L 156.904548 307.584 
L 164.543359 307.584 
L 172.182171 307.584 
L 179.820982 307.584 
L 187.459793 307.584 
L 195.098605 307.584 
L 202.737416 307.584 
L 210.376228 307.584 
L 218.015039 307.584 
L 225.65385 307.584 
L 233.292662 307.584 
L 240.931473 307.584 
L 248.570284 307.584 
L 256.209096 307.584 
L 263.847907 307.584 
L 271.486719 307.584 
L 279.12553 307.584 
L 286.764341 307.584 
L 294.403153 307.584 
L 302.041964 307.584 
L 309.680775 307.584 
L 317.319587 307.584 
L 324.958398 307.584 
L 332.59721 307.584 
L 340.236021 307.584 
L 347.874832 307.584 
L 355.513644 307.584 
L 363.152455 307.584 
L 370.791266 307.584 
L 378.430078 307.584 
L 386.068889 307.584 
L 393.707701 307.584 
L 401.346512 307.584 
L 408.985323 307.584 
L 416.624135 307.584 
L 424.262946 307.584 
L 431.901757 307.584 
L 431.901757 306.644679 
L 431.901757 305.705358 
L 431.901757 304.766037 
L 431.901757 303.826716 
L 431.901757 302.887395 
L 431.901757 301.948073 
L 431.901757 301.008752 
L 431.901757 300.069431 
L 431.901757 299.329459 
L 424.262946 299.329459 
L 416.624135 299.329459 
L 408.985323 299.329459 
L 401.346512 299.329459 
L 393.707701 299.329459 
L 386.068889 299.329459 
L 378.430078 299.329459 
L 370.791266 299.329459 
L 363.152455 299.329459 
L 355.513644 299.329459 
L 347.874832 299.329459 
L 340.236021 299.329459 
L 332.59721 299.329459 
L 324.958398 299.329459 
L 317.319587 299.329459 
L 309.680775 299.329459 
L 302.041964 299.329459 
L 294.403153 299.329459 
L 286.764341 299.329459 
L 279.12553 299.329459 
L 271.486719 299.329459 
L 263.847907 299.329459 
L 256.209096 299.329459 
L 248.570284 299.329459 
L 240.931473 299.329459 
L 233.292662 299.329459 
L 225.65385 299.329459 
L 218.015039 299.329459 
L 210.376228 299.329459 
L 202.737416 299.329459 
L 195.098605 299.329459 
L 193.354799 299.13011 
L 187.459793 298.497283 
L 185.019139 298.190789 
L 179.820982 297.661201 
L 175.022375 297.251468 
L 172.182171 296.985306 
L 164.543359 296.46763 
L 161.302032 296.312147 
L 156.904548 296.077072 
L 149.265737 295.851512 
L 141.626925 295.741374 
L 133.988114 295.718137 
L 126.349302 295.804805 
L 118.710491 296.013022 
L 111.07168 296.245605 
L 109.071462 296.312147 
L 103.432868 296.478066 
L 95.794057 296.779017 
L 88.155246 297.165875 
L 86.379366 297.251468 
L 80.516434 297.500093 
L 72.877623 297.772048 
L 72.450094 298.190789 
L 71.703919 299.13011 
L 71.060863 300.069431 
L 70.389587 301.008752 
L 69.960844 301.948073 
L 69.609916 302.887395 
L 69.297774 303.826716 
L 69.108481 304.766037 
L 69.025115 305.705358 
L 69.023924 306.644679 
L 69.096835 307.584 
z
" style="fill:#ffff33;fill-opacity:0.2;"/>
   </g>
   <g id="matplotlib.axis_1">
    <g id="xtick_1">
     <g id="line2d_1">
      <defs>
       <path d="M 0 0 
L 0 3.5 
" id="mcd279060db" style="stroke:#000000;stroke-width:0.8;"/>
      </defs>
      <g>
       <use style="stroke:#000000;stroke-width:0.8;" x="57.6" xlink:href="#mcd279060db" y="307.584"/>
      </g>
     </g>
     <g id="text_1">
      <!-- 0.00 -->
      <defs>
       <path d="M 31.78125 66.40625 
Q 24.171875 66.40625 20.328125 58.90625 
Q 16.5 51.421875 16.5 36.375 
Q 16.5 21.390625 20.328125 13.890625 
Q 24.171875 6.390625 31.78125 6.390625 
Q 39.453125 6.390625 43.28125 13.890625 
Q 47.125 21.390625 47.125 36.375 
Q 47.125 51.421875 43.28125 58.90625 
Q 39.453125 66.40625 31.78125 66.40625 
z
M 31.78125 74.21875 
Q 44.046875 74.21875 50.515625 64.515625 
Q 56.984375 54.828125 56.984375 36.375 
Q 56.984375 17.96875 50.515625 8.265625 
Q 44.046875 -1.421875 31.78125 -1.421875 
Q 19.53125 -1.421875 13.0625 8.265625 
Q 6.59375 17.96875 6.59375 36.375 
Q 6.59375 54.828125 13.0625 64.515625 
Q 19.53125 74.21875 31.78125 74.21875 
z
" id="DejaVuSans-48"/>
       <path d="M 10.6875 12.40625 
L 21 12.40625 
L 21 0 
L 10.6875 0 
z
" id="DejaVuSans-46"/>
      </defs>
      <g transform="translate(37.560938 328.261187)scale(0.18 -0.18)">
       <use xlink:href="#DejaVuSans-48"/>
       <use x="63.623047" xlink:href="#DejaVuSans-46"/>
       <use x="95.410156" xlink:href="#DejaVuSans-48"/>
       <use x="159.033203" xlink:href="#DejaVuSans-48"/>
      </g>
     </g>
    </g>
    <g id="xtick_2">
     <g id="line2d_2">
      <g>
       <use style="stroke:#000000;stroke-width:0.8;" x="93.312" xlink:href="#mcd279060db" y="307.584"/>
      </g>
     </g>
     <g id="text_2">
      <!-- 0.25 -->
      <defs>
       <path d="M 19.1875 8.296875 
L 53.609375 8.296875 
L 53.609375 0 
L 7.328125 0 
L 7.328125 8.296875 
Q 12.9375 14.109375 22.625 23.890625 
Q 32.328125 33.6875 34.8125 36.53125 
Q 39.546875 41.84375 41.421875 45.53125 
Q 43.3125 49.21875 43.3125 52.78125 
Q 43.3125 58.59375 39.234375 62.25 
Q 35.15625 65.921875 28.609375 65.921875 
Q 23.96875 65.921875 18.8125 64.3125 
Q 13.671875 62.703125 7.8125 59.421875 
L 7.8125 69.390625 
Q 13.765625 71.78125 18.9375 73 
Q 24.125 74.21875 28.421875 74.21875 
Q 39.75 74.21875 46.484375 68.546875 
Q 53.21875 62.890625 53.21875 53.421875 
Q 53.21875 48.921875 51.53125 44.890625 
Q 49.859375 40.875 45.40625 35.40625 
Q 44.1875 33.984375 37.640625 27.21875 
Q 31.109375 20.453125 19.1875 8.296875 
z
" id="DejaVuSans-50"/>
       <path d="M 10.796875 72.90625 
L 49.515625 72.90625 
L 49.515625 64.59375 
L 19.828125 64.59375 
L 19.828125 46.734375 
Q 21.96875 47.46875 24.109375 47.828125 
Q 26.265625 48.1875 28.421875 48.1875 
Q 40.625 48.1875 47.75 41.5 
Q 54.890625 34.8125 54.890625 23.390625 
Q 54.890625 11.625 47.5625 5.09375 
Q 40.234375 -1.421875 26.90625 -1.421875 
Q 22.3125 -1.421875 17.546875 -0.640625 
Q 12.796875 0.140625 7.71875 1.703125 
L 7.71875 11.625 
Q 12.109375 9.234375 16.796875 8.0625 
Q 21.484375 6.890625 26.703125 6.890625 
Q 35.15625 6.890625 40.078125 11.328125 
Q 45.015625 15.765625 45.015625 23.390625 
Q 45.015625 31 40.078125 35.4375 
Q 35.15625 39.890625 26.703125 39.890625 
Q 22.75 39.890625 18.8125 39.015625 
Q 14.890625 38.140625 10.796875 36.28125 
z
" id="DejaVuSans-53"/>
      </defs>
      <g transform="translate(73.272938 328.261187)scale(0.18 -0.18)">
       <use xlink:href="#DejaVuSans-48"/>
       <use x="63.623047" xlink:href="#DejaVuSans-46"/>
       <use x="95.410156" xlink:href="#DejaVuSans-50"/>
       <use x="159.033203" xlink:href="#DejaVuSans-53"/>
      </g>
     </g>
    </g>
    <g id="xtick_3">
     <g id="line2d_3">
      <g>
       <use style="stroke:#000000;stroke-width:0.8;" x="129.024" xlink:href="#mcd279060db" y="307.584"/>
      </g>
     </g>
     <g id="text_3">
      <!-- 0.50 -->
      <g transform="translate(108.984938 328.261187)scale(0.18 -0.18)">
       <use xlink:href="#DejaVuSans-48"/>
       <use x="63.623047" xlink:href="#DejaVuSans-46"/>
       <use x="95.410156" xlink:href="#DejaVuSans-53"/>
       <use x="159.033203" xlink:href="#DejaVuSans-48"/>
      </g>
     </g>
    </g>
    <g id="xtick_4">
     <g id="line2d_4">
      <g>
       <use style="stroke:#000000;stroke-width:0.8;" x="164.736" xlink:href="#mcd279060db" y="307.584"/>
      </g>
     </g>
     <g id="text_4">
      <!-- 0.75 -->
      <defs>
       <path d="M 8.203125 72.90625 
L 55.078125 72.90625 
L 55.078125 68.703125 
L 28.609375 0 
L 18.3125 0 
L 43.21875 64.59375 
L 8.203125 64.59375 
z
" id="DejaVuSans-55"/>
      </defs>
      <g transform="translate(144.696938 328.261187)scale(0.18 -0.18)">
       <use xlink:href="#DejaVuSans-48"/>
       <use x="63.623047" xlink:href="#DejaVuSans-46"/>
       <use x="95.410156" xlink:href="#DejaVuSans-55"/>
       <use x="159.033203" xlink:href="#DejaVuSans-53"/>
      </g>
     </g>
    </g>
    <g id="xtick_5">
     <g id="line2d_5">
      <g>
       <use style="stroke:#000000;stroke-width:0.8;" x="200.448" xlink:href="#mcd279060db" y="307.584"/>
      </g>
     </g>
     <g id="text_5">
      <!-- 1.00 -->
      <defs>
       <path d="M 12.40625 8.296875 
L 28.515625 8.296875 
L 28.515625 63.921875 
L 10.984375 60.40625 
L 10.984375 69.390625 
L 28.421875 72.90625 
L 38.28125 72.90625 
L 38.28125 8.296875 
L 54.390625 8.296875 
L 54.390625 0 
L 12.40625 0 
z
" id="DejaVuSans-49"/>
      </defs>
      <g transform="translate(180.408938 328.261187)scale(0.18 -0.18)">
       <use xlink:href="#DejaVuSans-49"/>
       <use x="63.623047" xlink:href="#DejaVuSans-46"/>
       <use x="95.410156" xlink:href="#DejaVuSans-48"/>
       <use x="159.033203" xlink:href="#DejaVuSans-48"/>
      </g>
     </g>
    </g>
    <g id="xtick_6">
     <g id="line2d_6">
      <g>
       <use style="stroke:#000000;stroke-width:0.8;" x="236.16" xlink:href="#mcd279060db" y="307.584"/>
      </g>
     </g>
     <g id="text_6">
      <!-- 1.25 -->
      <g transform="translate(216.120937 328.261187)scale(0.18 -0.18)">
       <use xlink:href="#DejaVuSans-49"/>
       <use x="63.623047" xlink:href="#DejaVuSans-46"/>
       <use x="95.410156" xlink:href="#DejaVuSans-50"/>
       <use x="159.033203" xlink:href="#DejaVuSans-53"/>
      </g>
     </g>
    </g>
    <g id="xtick_7">
     <g id="line2d_7">
      <g>
       <use style="stroke:#000000;stroke-width:0.8;" x="271.872" xlink:href="#mcd279060db" y="307.584"/>
      </g>
     </g>
     <g id="text_7">
      <!-- 1.50 -->
      <g transform="translate(251.832938 328.261187)scale(0.18 -0.18)">
       <use xlink:href="#DejaVuSans-49"/>
       <use x="63.623047" xlink:href="#DejaVuSans-46"/>
       <use x="95.410156" xlink:href="#DejaVuSans-53"/>
       <use x="159.033203" xlink:href="#DejaVuSans-48"/>
      </g>
     </g>
    </g>
    <g id="xtick_8">
     <g id="line2d_8">
      <g>
       <use style="stroke:#000000;stroke-width:0.8;" x="307.584" xlink:href="#mcd279060db" y="307.584"/>
      </g>
     </g>
     <g id="text_8">
      <!-- 1.75 -->
      <g transform="translate(287.544938 328.261187)scale(0.18 -0.18)">
       <use xlink:href="#DejaVuSans-49"/>
       <use x="63.623047" xlink:href="#DejaVuSans-46"/>
       <use x="95.410156" xlink:href="#DejaVuSans-55"/>
       <use x="159.033203" xlink:href="#DejaVuSans-53"/>
      </g>
     </g>
    </g>
    <g id="xtick_9">
     <g id="line2d_9">
      <g>
       <use style="stroke:#000000;stroke-width:0.8;" x="343.296" xlink:href="#mcd279060db" y="307.584"/>
      </g>
     </g>
     <g id="text_9">
      <!-- 2.00 -->
      <g transform="translate(323.256938 328.261187)scale(0.18 -0.18)">
       <use xlink:href="#DejaVuSans-50"/>
       <use x="63.623047" xlink:href="#DejaVuSans-46"/>
       <use x="95.410156" xlink:href="#DejaVuSans-48"/>
       <use x="159.033203" xlink:href="#DejaVuSans-48"/>
      </g>
     </g>
    </g>
   </g>
   <g id="matplotlib.axis_2">
    <g id="ytick_1">
     <g id="line2d_10">
      <defs>
       <path d="M 0 0 
L -3.5 0 
" id="mf8c02ce53d" style="stroke:#000000;stroke-width:0.8;"/>
      </defs>
      <g>
       <use style="stroke:#000000;stroke-width:0.8;" x="57.6" xlink:href="#mf8c02ce53d" y="307.584"/>
      </g>
     </g>
     <g id="text_10">
      <!-- 0 -->
      <g transform="translate(39.1475 314.422594)scale(0.18 -0.18)">
       <use xlink:href="#DejaVuSans-48"/>
      </g>
     </g>
    </g>
    <g id="ytick_2">
     <g id="line2d_11">
      <g>
       <use style="stroke:#000000;stroke-width:0.8;" x="57.6" xlink:href="#mf8c02ce53d" y="260.048686"/>
      </g>
     </g>
     <g id="text_11">
      <!-- 1 -->
      <g transform="translate(39.1475 266.88728)scale(0.18 -0.18)">
       <use xlink:href="#DejaVuSans-49"/>
      </g>
     </g>
    </g>
    <g id="ytick_3">
     <g id="line2d_12">
      <g>
       <use style="stroke:#000000;stroke-width:0.8;" x="57.6" xlink:href="#mf8c02ce53d" y="212.513372"/>
      </g>
     </g>
     <g id="text_12">
      <!-- 2 -->
      <g transform="translate(39.1475 219.351966)scale(0.18 -0.18)">
       <use xlink:href="#DejaVuSans-50"/>
      </g>
     </g>
    </g>
    <g id="ytick_4">
     <g id="line2d_13">
      <g>
       <use style="stroke:#000000;stroke-width:0.8;" x="57.6" xlink:href="#mf8c02ce53d" y="164.978058"/>
      </g>
     </g>
     <g id="text_13">
      <!-- 3 -->
      <defs>
       <path d="M 40.578125 39.3125 
Q 47.65625 37.796875 51.625 33 
Q 55.609375 28.21875 55.609375 21.1875 
Q 55.609375 10.40625 48.1875 4.484375 
Q 40.765625 -1.421875 27.09375 -1.421875 
Q 22.515625 -1.421875 17.65625 -0.515625 
Q 12.796875 0.390625 7.625 2.203125 
L 7.625 11.71875 
Q 11.71875 9.328125 16.59375 8.109375 
Q 21.484375 6.890625 26.8125 6.890625 
Q 36.078125 6.890625 40.9375 10.546875 
Q 45.796875 14.203125 45.796875 21.1875 
Q 45.796875 27.640625 41.28125 31.265625 
Q 36.765625 34.90625 28.71875 34.90625 
L 20.21875 34.90625 
L 20.21875 43.015625 
L 29.109375 43.015625 
Q 36.375 43.015625 40.234375 45.921875 
Q 44.09375 48.828125 44.09375 54.296875 
Q 44.09375 59.90625 40.109375 62.90625 
Q 36.140625 65.921875 28.71875 65.921875 
Q 24.65625 65.921875 20.015625 65.03125 
Q 15.375 64.15625 9.8125 62.3125 
L 9.8125 71.09375 
Q 15.4375 72.65625 20.34375 73.4375 
Q 25.25 74.21875 29.59375 74.21875 
Q 40.828125 74.21875 47.359375 69.109375 
Q 53.90625 64.015625 53.90625 55.328125 
Q 53.90625 49.265625 50.4375 45.09375 
Q 46.96875 40.921875 40.578125 39.3125 
z
" id="DejaVuSans-51"/>
      </defs>
      <g transform="translate(39.1475 171.816651)scale(0.18 -0.18)">
       <use xlink:href="#DejaVuSans-51"/>
      </g>
     </g>
    </g>
    <g id="ytick_5">
     <g id="line2d_14">
      <g>
       <use style="stroke:#000000;stroke-width:0.8;" x="57.6" xlink:href="#mf8c02ce53d" y="117.442744"/>
      </g>
     </g>
     <g id="text_14">
      <!-- 4 -->
      <defs>
       <path d="M 37.796875 64.3125 
L 12.890625 25.390625 
L 37.796875 25.390625 
z
M 35.203125 72.90625 
L 47.609375 72.90625 
L 47.609375 25.390625 
L 58.015625 25.390625 
L 58.015625 17.1875 
L 47.609375 17.1875 
L 47.609375 0 
L 37.796875 0 
L 37.796875 17.1875 
L 4.890625 17.1875 
L 4.890625 26.703125 
z
" id="DejaVuSans-52"/>
      </defs>
      <g transform="translate(39.1475 124.281337)scale(0.18 -0.18)">
       <use xlink:href="#DejaVuSans-52"/>
      </g>
     </g>
    </g>
    <g id="ytick_6">
     <g id="line2d_15">
      <g>
       <use style="stroke:#000000;stroke-width:0.8;" x="57.6" xlink:href="#mf8c02ce53d" y="69.907429"/>
      </g>
     </g>
     <g id="text_15">
      <!-- 5 -->
      <g transform="translate(39.1475 76.746023)scale(0.18 -0.18)">
       <use xlink:href="#DejaVuSans-53"/>
      </g>
     </g>
    </g>
   </g>
   <g id="LineCollection_1">
    <path clip-path="url(#p7ad6fa8999)" d="M 128.446984 307.584 
L 129.622506 306.854618 
L 130.493917 306.125236 
L 130.902179 305.395854 
L 130.855593 304.666473 
L 130.549353 303.937091 
L 129.860407 303.207709 
L 128.869891 302.478327 
L 128.106321 302.025423 
L 127.554436 301.748945 
L 125.841548 301.019563 
L 124.901488 300.721193 
L 123.742288 300.290181 
L 121.696656 299.59165 
L 121.604798 299.5608 
L 119.395632 298.831418 
L 118.491823 298.565615 
L 116.798554 298.102036 
L 115.28699 297.744752 
L 113.648699 297.372654 
L 112.082157 296.992221 
L 110.62036 296.643272 
L 108.877324 296.177426 
L 107.814657 295.91389 
L 105.672492 295.424501 
L 104.249995 295.184508 
L 102.467659 294.887207 
L 100.239359 294.455127 
L 99.262826 294.245037 
L 96.057993 293.801843 
L 95.443239 293.725745 
L 92.853161 293.429929 
L 89.648328 293.128238 
L 87.449387 292.996363 
L 86.443495 292.938946 
L 83.238662 292.853801 
L 80.033829 292.86022 
L 76.828997 292.960912 
L 76.051607 292.996363 
L 73.624164 293.112316 
L 70.419331 293.372994 
L 70.013155 293.725745 
L 69.275449 294.455127 
L 68.50323 295.184508 
L 67.79069 295.91389 
L 67.214498 296.58406 
L 67.201852 296.643272 
L 67.027668 297.372654 
L 66.851609 298.102036 
L 66.706997 298.831418 
L 66.582429 299.5608 
L 66.465308 300.290181 
L 66.359847 301.019563 
L 66.283271 301.748945 
L 66.219318 302.478327 
L 66.168363 303.207709 
L 66.132922 303.937091 
L 66.117168 304.666473 
L 66.114771 305.395854 
L 66.135773 306.125236 
L 66.180601 306.854618 
L 66.241073 307.584 
" style="fill:none;stroke:#4d94ff;stroke-width:1.5;"/>
   </g>
   <g id="LineCollection_2">
    <path clip-path="url(#p7ad6fa8999)" d="M 156.857978 307.584 
L 158.374588 306.932302 
L 160.363327 306.106525 
L 161.428363 305.669171 
L 163.623974 304.62905 
L 164.482139 304.16754 
L 166.263088 303.151574 
L 167.535914 302.383384 
L 168.694557 301.674099 
L 170.589689 300.440526 
L 170.937048 300.196624 
L 172.386028 298.719149 
L 173.643465 297.746127 
L 174.182119 297.241674 
L 175.848373 295.764199 
L 176.69724 294.843479 
L 177.210764 294.286723 
L 178.383835 292.809248 
L 179.420831 291.331773 
L 179.751016 290.406724 
L 179.927601 289.854298 
L 180.22891 288.376823 
L 180.22891 286.899348 
L 179.751016 285.490194 
L 179.725126 285.421872 
L 179.177378 283.944397 
L 178.3112 282.466922 
L 177.40341 280.989447 
L 176.69724 279.874876 
L 176.469281 279.511972 
L 175.46258 278.034497 
L 174.109532 276.557021 
L 173.643465 276.121726 
L 172.292899 275.079546 
L 170.589689 274.007906 
L 169.891298 273.602071 
L 167.535914 272.323744 
L 167.162104 272.124596 
L 164.482139 270.660309 
L 164.456494 270.647121 
L 161.428363 269.618754 
L 159.878037 269.169646 
L 158.374588 268.677707 
L 155.432316 267.69217 
L 155.320813 267.666351 
L 152.267037 267.071512 
L 149.213262 266.529692 
L 147.390878 266.214695 
L 146.159486 266.00795 
L 143.105711 265.504771 
L 140.051936 265.079318 
L 137.703943 264.73722 
L 136.99816 264.645393 
L 133.944385 264.29967 
L 130.890609 263.9829 
L 127.836834 263.656477 
L 124.783059 263.278035 
L 124.571451 263.259745 
L 121.729283 263.002365 
L 118.675508 262.598144 
L 115.621732 262.342709 
L 112.567957 262.191158 
L 109.514182 262.090292 
L 106.460406 262.090292 
L 103.406631 262.255956 
L 100.352855 262.448606 
L 97.29908 262.712557 
L 94.245305 263.058988 
L 92.785078 263.259745 
L 91.191529 263.470832 
L 88.137754 264.046017 
L 85.083979 264.560954 
L 84.220093 264.73722 
L 82.030203 265.244906 
L 78.976428 266.094413 
L 78.547862 266.214695 
L 75.922652 266.987615 
L 73.492434 267.69217 
L 72.868877 267.956047 
L 70.520423 269.169646 
L 69.815102 269.498875 
L 69.341752 270.647121 
L 68.955613 272.124596 
L 68.572367 273.602071 
L 68.225231 275.079546 
L 67.947333 276.557021 
L 67.714507 278.034497 
L 67.541279 279.511972 
L 67.383697 280.989447 
L 67.231548 282.466922 
L 67.086373 283.944397 
L 66.994569 285.421872 
L 66.90172 286.899348 
L 66.90172 288.376823 
L 66.957524 289.854298 
L 67.04557 291.331773 
L 67.219374 292.809248 
L 67.415985 294.286723 
L 67.648122 295.764199 
L 67.934842 297.241674 
L 68.211599 298.719149 
L 68.423705 300.196624 
L 68.739977 301.674099 
L 69.083948 303.151574 
L 69.457771 304.62905 
L 69.815102 305.838196 
L 70.220624 306.106525 
L 72.457761 307.584 
" style="fill:none;stroke:#ff8533;stroke-width:1.5;"/>
   </g>
   <g id="LineCollection_3">
    <path clip-path="url(#p7ad6fa8999)" d="M 165.840634 307.584 
L 166.699574 306.768868 
L 166.849691 305.953737 
L 166.353754 305.138605 
L 165.527599 304.323473 
L 164.864365 303.957584 
L 163.920018 303.508342 
L 162.041619 302.975375 
L 161.093244 302.69321 
L 159.218872 302.130073 
L 158.382041 301.878078 
L 156.396126 301.393626 
L 154.839534 301.062947 
L 153.573379 300.827657 
L 150.750633 300.392473 
L 149.455432 300.247815 
L 147.927886 300.090068 
L 145.10514 299.7154 
L 142.475936 299.432683 
L 142.282393 299.410824 
L 139.459647 299.159118 
L 136.6369 298.899402 
L 133.814154 298.680764 
L 132.951712 298.617551 
L 130.991408 298.460778 
L 128.168661 298.242316 
L 125.345915 298.014328 
L 122.962564 297.80242 
L 122.523168 297.771093 
L 119.700422 297.591606 
L 116.877675 297.427696 
L 114.054929 297.253521 
L 111.232182 297.089269 
L 109.498916 296.987288 
L 108.409436 296.9137 
L 105.58669 296.738561 
L 102.763943 296.615836 
L 99.941197 296.446706 
L 97.11845 296.315759 
L 94.295704 296.208422 
L 93.315377 296.172156 
L 91.472957 296.089786 
L 88.650211 295.954168 
L 85.827464 295.881038 
L 83.004718 295.840842 
L 80.181972 295.798426 
L 77.359225 295.798426 
L 74.536479 295.847189 
L 71.713732 295.939013 
L 68.890986 296.076229 
L 67.280836 296.172156 
L 66.068239 296.232166 
L 65.344384 296.987288 
L 64.574824 297.80242 
L 64.038787 298.617551 
L 63.522016 299.432683 
L 63.245493 299.885244 
L 63.157199 300.247815 
L 62.98622 301.062947 
L 62.848006 301.878078 
L 62.741879 302.69321 
L 62.639263 303.508342 
L 62.579751 304.323473 
L 62.546974 305.138605 
L 62.527298 305.953737 
L 62.533254 306.768868 
L 62.567331 307.584 
" style="fill:none;stroke:#00b300;stroke-width:1.5;"/>
   </g>
   <g id="LineCollection_4">
    <path clip-path="url(#p7ad6fa8999)" d="M 431.901757 299.329459 
L 424.262946 299.329459 
L 416.624135 299.329459 
L 408.985323 299.329459 
L 401.346512 299.329459 
L 393.707701 299.329459 
L 386.068889 299.329459 
L 378.430078 299.329459 
L 370.791266 299.329459 
L 363.152455 299.329459 
L 355.513644 299.329459 
L 347.874832 299.329459 
L 340.236021 299.329459 
L 332.59721 299.329459 
L 324.958398 299.329459 
L 317.319587 299.329459 
L 309.680775 299.329459 
L 302.041964 299.329459 
L 294.403153 299.329459 
L 286.764341 299.329459 
L 279.12553 299.329459 
L 271.486719 299.329459 
L 263.847907 299.329459 
L 256.209096 299.329459 
L 248.570284 299.329459 
L 240.931473 299.329459 
L 233.292662 299.329459 
L 225.65385 299.329459 
L 218.015039 299.329459 
L 210.376228 299.329459 
L 202.737416 299.329459 
L 195.098605 299.329459 
L 193.354799 299.13011 
L 187.459793 298.497283 
L 185.019139 298.190789 
L 179.820982 297.661201 
L 175.022375 297.251468 
L 172.182171 296.985306 
L 164.543359 296.46763 
L 161.302032 296.312147 
L 156.904548 296.077072 
L 149.265737 295.851512 
L 141.626925 295.741374 
L 133.988114 295.718137 
L 126.349302 295.804805 
L 118.710491 296.013022 
L 111.07168 296.245605 
L 109.071462 296.312147 
L 103.432868 296.478066 
L 95.794057 296.779017 
L 88.155246 297.165875 
L 86.379366 297.251468 
L 80.516434 297.500093 
L 72.877623 297.772048 
L 72.450094 298.190789 
L 71.703919 299.13011 
L 71.060863 300.069431 
L 70.389587 301.008752 
L 69.960844 301.948073 
L 69.609916 302.887395 
L 69.297774 303.826716 
L 69.108481 304.766037 
L 69.025115 305.705358 
L 69.023924 306.644679 
L 69.096835 307.584 
" style="fill:none;stroke:#ffff33;stroke-width:1.5;"/>
   </g>
   <g id="patch_3">
    <path d="M 57.6 307.584 
L 57.6 41.472 
" style="fill:none;stroke:#000000;stroke-linecap:square;stroke-linejoin:miter;stroke-width:0.8;"/>
   </g>
   <g id="patch_4">
    <path d="M 343.296 307.584 
L 343.296 41.472 
" style="fill:none;stroke:#000000;stroke-linecap:square;stroke-linejoin:miter;stroke-width:0.8;"/>
   </g>
   <g id="patch_5">
    <path d="M 57.6 307.584 
L 343.296 307.584 
" style="fill:none;stroke:#000000;stroke-linecap:square;stroke-linejoin:miter;stroke-width:0.8;"/>
   </g>
   <g id="patch_6">
    <path d="M 57.6 41.472 
L 343.296 41.472 
" style="fill:none;stroke:#000000;stroke-linecap:square;stroke-linejoin:miter;stroke-width:0.8;"/>
   </g>
  </g>
  <g id="axes_2">
   <g id="patch_7">
    <path clip-path="url(#p4e823e9eb0)" d="M 367.2 307.584 
L 361.152 295.488 
L 361.152 53.568 
L 367.2 41.472 
L 367.2 41.472 
L 373.248 53.568 
L 373.248 295.488 
L 367.2 307.584 
z
" style="fill:#ffffff;stroke:#ffffff;stroke-linejoin:miter;stroke-width:0.01;"/>
   </g>
   <g id="QuadMesh_1">
    <path clip-path="url(#p4e823e9eb0)" d="M 367.2 307.584 
L 367.2 307.584 
L 373.248 295.488 
L 361.152 295.488 
L 367.2 307.584 
" style="fill:#ffffff;"/>
    <path clip-path="url(#p4e823e9eb0)" d="M 361.152 295.488 
L 373.248 295.488 
L 373.248 235.008 
L 361.152 235.008 
L 361.152 295.488 
" style="fill:#ffffff;"/>
    <path clip-path="url(#p4e823e9eb0)" d="M 361.152 235.008 
L 373.248 235.008 
L 373.248 174.528 
L 361.152 174.528 
L 361.152 235.008 
" style="fill:#f0f0f0;"/>
    <path clip-path="url(#p4e823e9eb0)" d="M 361.152 174.528 
L 373.248 174.528 
L 373.248 114.048 
L 361.152 114.048 
L 361.152 174.528 
" style="fill:#d3d3d3;"/>
    <path clip-path="url(#p4e823e9eb0)" d="M 361.152 114.048 
L 373.248 114.048 
L 373.248 53.568 
L 361.152 53.568 
L 361.152 114.048 
" style="fill:#b8b8b8;"/>
    <path clip-path="url(#p4e823e9eb0)" d="M 361.152 53.568 
L 373.248 53.568 
L 367.2 41.472 
L 367.2 41.472 
L 361.152 53.568 
" style="fill:#a0a0a0;"/>
   </g>
   <g id="matplotlib.axis_3"/>
   <g id="matplotlib.axis_4">
    <g id="ytick_7">
     <g id="line2d_16">
      <defs>
       <path d="M 0 0 
L 3.5 0 
" id="m87d6ca6dbf" style="stroke:#000000;stroke-width:0.8;"/>
      </defs>
      <g>
       <use style="stroke:#000000;stroke-width:0.8;" x="373.248" xlink:href="#m87d6ca6dbf" y="295.488"/>
      </g>
     </g>
     <g id="text_16">
      <!-- 0.0000 -->
      <g transform="translate(380.248 302.326594)scale(0.18 -0.18)">
       <use xlink:href="#DejaVuSans-48"/>
       <use x="63.623047" xlink:href="#DejaVuSans-46"/>
       <use x="95.410156" xlink:href="#DejaVuSans-48"/>
       <use x="159.033203" xlink:href="#DejaVuSans-48"/>
       <use x="222.65625" xlink:href="#DejaVuSans-48"/>
       <use x="286.279297" xlink:href="#DejaVuSans-48"/>
      </g>
     </g>
    </g>
    <g id="ytick_8">
     <g id="line2d_17">
      <g>
       <use style="stroke:#000000;stroke-width:0.8;" x="373.248" xlink:href="#m87d6ca6dbf" y="235.008"/>
      </g>
     </g>
     <g id="text_17">
      <!-- 0.0139 -->
      <defs>
       <path d="M 10.984375 1.515625 
L 10.984375 10.5 
Q 14.703125 8.734375 18.5 7.8125 
Q 22.3125 6.890625 25.984375 6.890625 
Q 35.75 6.890625 40.890625 13.453125 
Q 46.046875 20.015625 46.78125 33.40625 
Q 43.953125 29.203125 39.59375 26.953125 
Q 35.25 24.703125 29.984375 24.703125 
Q 19.046875 24.703125 12.671875 31.3125 
Q 6.296875 37.9375 6.296875 49.421875 
Q 6.296875 60.640625 12.9375 67.421875 
Q 19.578125 74.21875 30.609375 74.21875 
Q 43.265625 74.21875 49.921875 64.515625 
Q 56.59375 54.828125 56.59375 36.375 
Q 56.59375 19.140625 48.40625 8.859375 
Q 40.234375 -1.421875 26.421875 -1.421875 
Q 22.703125 -1.421875 18.890625 -0.6875 
Q 15.09375 0.046875 10.984375 1.515625 
z
M 30.609375 32.421875 
Q 37.25 32.421875 41.125 36.953125 
Q 45.015625 41.5 45.015625 49.421875 
Q 45.015625 57.28125 41.125 61.84375 
Q 37.25 66.40625 30.609375 66.40625 
Q 23.96875 66.40625 20.09375 61.84375 
Q 16.21875 57.28125 16.21875 49.421875 
Q 16.21875 41.5 20.09375 36.953125 
Q 23.96875 32.421875 30.609375 32.421875 
z
" id="DejaVuSans-57"/>
      </defs>
      <g transform="translate(380.248 241.846594)scale(0.18 -0.18)">
       <use xlink:href="#DejaVuSans-48"/>
       <use x="63.623047" xlink:href="#DejaVuSans-46"/>
       <use x="95.410156" xlink:href="#DejaVuSans-48"/>
       <use x="159.033203" xlink:href="#DejaVuSans-49"/>
       <use x="222.65625" xlink:href="#DejaVuSans-51"/>
       <use x="286.279297" xlink:href="#DejaVuSans-57"/>
      </g>
     </g>
    </g>
    <g id="ytick_9">
     <g id="line2d_18">
      <g>
       <use style="stroke:#000000;stroke-width:0.8;" x="373.248" xlink:href="#m87d6ca6dbf" y="174.528"/>
      </g>
     </g>
     <g id="text_18">
      <!-- 0.0556 -->
      <defs>
       <path d="M 33.015625 40.375 
Q 26.375 40.375 22.484375 35.828125 
Q 18.609375 31.296875 18.609375 23.390625 
Q 18.609375 15.53125 22.484375 10.953125 
Q 26.375 6.390625 33.015625 6.390625 
Q 39.65625 6.390625 43.53125 10.953125 
Q 47.40625 15.53125 47.40625 23.390625 
Q 47.40625 31.296875 43.53125 35.828125 
Q 39.65625 40.375 33.015625 40.375 
z
M 52.59375 71.296875 
L 52.59375 62.3125 
Q 48.875 64.0625 45.09375 64.984375 
Q 41.3125 65.921875 37.59375 65.921875 
Q 27.828125 65.921875 22.671875 59.328125 
Q 17.53125 52.734375 16.796875 39.40625 
Q 19.671875 43.65625 24.015625 45.921875 
Q 28.375 48.1875 33.59375 48.1875 
Q 44.578125 48.1875 50.953125 41.515625 
Q 57.328125 34.859375 57.328125 23.390625 
Q 57.328125 12.15625 50.6875 5.359375 
Q 44.046875 -1.421875 33.015625 -1.421875 
Q 20.359375 -1.421875 13.671875 8.265625 
Q 6.984375 17.96875 6.984375 36.375 
Q 6.984375 53.65625 15.1875 63.9375 
Q 23.390625 74.21875 37.203125 74.21875 
Q 40.921875 74.21875 44.703125 73.484375 
Q 48.484375 72.75 52.59375 71.296875 
z
" id="DejaVuSans-54"/>
      </defs>
      <g transform="translate(380.248 181.366594)scale(0.18 -0.18)">
       <use xlink:href="#DejaVuSans-48"/>
       <use x="63.623047" xlink:href="#DejaVuSans-46"/>
       <use x="95.410156" xlink:href="#DejaVuSans-48"/>
       <use x="159.033203" xlink:href="#DejaVuSans-53"/>
       <use x="222.65625" xlink:href="#DejaVuSans-53"/>
       <use x="286.279297" xlink:href="#DejaVuSans-54"/>
      </g>
     </g>
    </g>
    <g id="ytick_10">
     <g id="line2d_19">
      <g>
       <use style="stroke:#000000;stroke-width:0.8;" x="373.248" xlink:href="#m87d6ca6dbf" y="114.048"/>
      </g>
     </g>
     <g id="text_19">
      <!-- 0.1529 -->
      <g transform="translate(380.248 120.886594)scale(0.18 -0.18)">
       <use xlink:href="#DejaVuSans-48"/>
       <use x="63.623047" xlink:href="#DejaVuSans-46"/>
       <use x="95.410156" xlink:href="#DejaVuSans-49"/>
       <use x="159.033203" xlink:href="#DejaVuSans-53"/>
       <use x="222.65625" xlink:href="#DejaVuSans-50"/>
       <use x="286.279297" xlink:href="#DejaVuSans-57"/>
      </g>
     </g>
    </g>
    <g id="ytick_11">
     <g id="line2d_20">
      <g>
       <use style="stroke:#000000;stroke-width:0.8;" x="373.248" xlink:href="#m87d6ca6dbf" y="53.568"/>
      </g>
     </g>
     <g id="text_20">
      <!-- 0.3892 -->
      <defs>
       <path d="M 31.78125 34.625 
Q 24.75 34.625 20.71875 30.859375 
Q 16.703125 27.09375 16.703125 20.515625 
Q 16.703125 13.921875 20.71875 10.15625 
Q 24.75 6.390625 31.78125 6.390625 
Q 38.8125 6.390625 42.859375 10.171875 
Q 46.921875 13.96875 46.921875 20.515625 
Q 46.921875 27.09375 42.890625 30.859375 
Q 38.875 34.625 31.78125 34.625 
z
M 21.921875 38.8125 
Q 15.578125 40.375 12.03125 44.71875 
Q 8.5 49.078125 8.5 55.328125 
Q 8.5 64.0625 14.71875 69.140625 
Q 20.953125 74.21875 31.78125 74.21875 
Q 42.671875 74.21875 48.875 69.140625 
Q 55.078125 64.0625 55.078125 55.328125 
Q 55.078125 49.078125 51.53125 44.71875 
Q 48 40.375 41.703125 38.8125 
Q 48.828125 37.15625 52.796875 32.3125 
Q 56.78125 27.484375 56.78125 20.515625 
Q 56.78125 9.90625 50.3125 4.234375 
Q 43.84375 -1.421875 31.78125 -1.421875 
Q 19.734375 -1.421875 13.25 4.234375 
Q 6.78125 9.90625 6.78125 20.515625 
Q 6.78125 27.484375 10.78125 32.3125 
Q 14.796875 37.15625 21.921875 38.8125 
z
M 18.3125 54.390625 
Q 18.3125 48.734375 21.84375 45.5625 
Q 25.390625 42.390625 31.78125 42.390625 
Q 38.140625 42.390625 41.71875 45.5625 
Q 45.3125 48.734375 45.3125 54.390625 
Q 45.3125 60.0625 41.71875 63.234375 
Q 38.140625 66.40625 31.78125 66.40625 
Q 25.390625 66.40625 21.84375 63.234375 
Q 18.3125 60.0625 18.3125 54.390625 
z
" id="DejaVuSans-56"/>
      </defs>
      <g transform="translate(380.248 60.406594)scale(0.18 -0.18)">
       <use xlink:href="#DejaVuSans-48"/>
       <use x="63.623047" xlink:href="#DejaVuSans-46"/>
       <use x="95.410156" xlink:href="#DejaVuSans-51"/>
       <use x="159.033203" xlink:href="#DejaVuSans-56"/>
       <use x="222.65625" xlink:href="#DejaVuSans-57"/>
       <use x="286.279297" xlink:href="#DejaVuSans-50"/>
      </g>
     </g>
    </g>
   </g>
   <g id="patch_8">
    <path d="M 367.2 307.584 
L 361.152 295.488 
L 361.152 53.568 
L 367.2 41.472 
L 367.2 41.472 
L 373.248 53.568 
L 373.248 295.488 
L 367.2 307.584 
z
" style="fill:none;stroke:#000000;stroke-linejoin:miter;stroke-width:0.8;"/>
   </g>
  </g>
 </g>
 <defs>
  <clipPath id="p7ad6fa8999">
   <rect height="266.112" width="285.696" x="57.6" y="41.472"/>
  </clipPath>
  <clipPath id="p4e823e9eb0">
   <rect height="266.112" width="12.096" x="361.152" y="41.472"/>
  </clipPath>
 </defs>
</svg>
