<?xml version="1.0" encoding="utf-8" standalone="no"?>
<!DOCTYPE svg PUBLIC "-//W3C//DTD SVG 1.1//EN"
  "http://www.w3.org/Graphics/SVG/1.1/DTD/svg11.dtd">
<!-- Created with matplotlib (https://matplotlib.org/) -->
<svg height="345.6pt" version="1.1" viewBox="0 0 460.8 345.6" width="460.8pt" xmlns="http://www.w3.org/2000/svg" xmlns:xlink="http://www.w3.org/1999/xlink">
 <defs>
  <style type="text/css">
*{stroke-linecap:butt;stroke-linejoin:round;}
  </style>
 </defs>
 <g id="figure_1">
  <g id="patch_1">
   <path d="M 0 345.6 
L 460.8 345.6 
L 460.8 0 
L 0 0 
z
" style="fill:#ffffff;"/>
  </g>
  <g id="axes_1">
   <g id="patch_2">
    <path d="M 57.6 307.584 
L 343.296 307.584 
L 343.296 41.472 
L 57.6 41.472 
z
" style="fill:#ffffff;"/>
   </g>
   <g id="PathCollection_1"/>
   <g id="PathCollection_2">
    <path clip-path="url(#pf02c2618a6)" d="M 72.468796 302.104294 
L 79.903194 302.104294 
L 86.372335 302.104294 
L 87.337592 301.392828 
L 88.302848 302.104294 
L 94.77199 302.104294 
L 102.206388 302.104294 
L 108.675529 302.104294 
L 109.640786 301.392828 
L 110.606042 302.104294 
L 117.075183 302.104294 
L 124.509581 302.104294 
L 130.978723 302.104294 
L 131.943979 301.392828 
L 132.909236 302.104294 
L 139.378377 302.104294 
L 145.847519 302.104294 
L 146.812775 301.392828 
L 147.778032 302.104294 
L 154.247173 302.104294 
L 160.716314 302.104294 
L 161.681571 301.392828 
L 162.646828 302.104294 
L 169.115969 302.104294 
L 175.58511 302.104294 
L 176.550367 301.392828 
L 183.984765 301.392828 
L 184.950021 302.104294 
L 191.419163 302.104294 
L 197.888304 302.104294 
L 198.853561 301.392828 
L 206.287959 299.008708 
L 213.722357 299.008708 
L 221.156754 299.008708 
L 225.356582 302.104294 
L 228.591152 302.104294 
L 236.02555 302.104294 
L 243.459948 302.104294 
L 250.894346 302.104294 
L 258.328744 302.104294 
L 265.763142 302.104294 
L 273.19754 302.104294 
L 280.631938 302.104294 
L 288.066336 302.104294 
L 295.500734 302.104294 
L 302.935132 302.104294 
L 310.36953 302.104294 
L 317.803928 302.104294 
L 325.238326 302.104294 
L 332.672723 302.104294 
L 340.107121 302.104294 
L 347.541519 302.104294 
L 354.975917 302.104294 
L 362.410315 302.104294 
L 369.844713 302.104294 
L 377.279111 302.104294 
L 384.713509 302.104294 
L 392.147907 302.104294 
L 399.582305 302.104294 
L 407.016703 302.104294 
L 414.451101 302.104294 
L 421.885499 302.104294 
L 429.319897 302.104294 
L 436.754294 302.104294 
L 444.188692 302.104294 
L 451.62309 302.104294 
L 459.057488 302.104294 
L 466.491886 302.104294 
L 473.926284 302.104294 
L 481.360682 302.104294 
L 488.79508 302.104294 
L 496.229478 302.104294 
L 503.663876 302.104294 
L 511.098274 302.104294 
L 518.532672 302.104294 
L 525.96707 302.104294 
L 533.401468 302.104294 
L 540.835865 302.104294 
L 548.270263 302.104294 
L 555.704661 302.104294 
L 563.139059 302.104294 
L 570.573457 302.104294 
L 578.007855 302.104294 
L 585.442253 302.104294 
L 592.876651 302.104294 
L 600.311049 302.104294 
L 607.745447 302.104294 
L 615.179845 302.104294 
L 622.614243 302.104294 
L 630.048641 302.104294 
L 637.483039 302.104294 
L 644.917437 302.104294 
L 652.351834 302.104294 
L 659.786232 302.104294 
L 667.22063 302.104294 
L 674.655028 302.104294 
L 682.089426 302.104294 
L 689.523824 302.104294 
L 696.958222 302.104294 
L 704.39262 302.104294 
L 711.827018 302.104294 
L 719.261416 302.104294 
L 726.695814 302.104294 
L 734.130212 302.104294 
L 741.56461 302.104294 
L 748.999008 302.104294 
L 756.433405 302.104294 
L 763.867803 302.104294 
L 771.302201 302.104294 
L 778.736599 302.104294 
L 786.170997 302.104294 
L 793.605395 302.104294 
L 801.039793 302.104294 
L 808.474191 302.104294 
L 815.908589 302.104294 
L 823.342987 302.104294 
L 830.777385 302.104294 
L 838.211783 302.104294 
L 845.646181 302.104294 
L 853.080579 302.104294 
L 860.514977 302.104294 
L 867.949374 302.104294 
L 875.383772 302.104294 
L 882.81817 302.104294 
L 890.252568 302.104294 
L 897.686966 302.104294 
L 905.121364 302.104294 
L 912.555762 302.104294 
L 919.99016 302.104294 
L 927.424558 302.104294 
L 934.858956 302.104294 
L 942.293354 302.104294 
L 949.727752 302.104294 
L 957.16215 302.104294 
L 964.596548 302.104294 
L 972.030945 302.104294 
L 979.465343 302.104294 
L 986.899741 302.104294 
L 994.334139 302.104294 
L 1001.768537 302.104294 
L 1009.202935 302.104294 
L 1016.637333 302.104294 
L 1024.071731 302.104294 
L 1031.506129 302.104294 
L 1038.940527 302.104294 
L 1046.374925 302.104294 
L 1053.809323 302.104294 
L 1061.243721 302.104294 
L 1068.678119 302.104294 
L 1076.112516 302.104294 
L 1083.546914 302.104294 
L 1090.981312 302.104294 
L 1098.41571 302.104294 
L 1105.850108 302.104294 
L 1113.284506 302.104294 
L 1120.718904 302.104294 
L 1128.153302 302.104294 
L 1135.5877 302.104294 
L 1143.022098 302.104294 
L 1150.456496 302.104294 
L 1157.890894 302.104294 
L 1165.325292 302.104294 
L 1172.75969 302.104294 
L 1180.194088 302.104294 
L 1187.628485 302.104294 
L 1195.062883 302.104294 
L 1202.497281 302.104294 
L 1209.931679 302.104294 
L 1217.366077 302.104294 
L 1224.800475 302.104294 
L 1232.234873 302.104294 
L 1239.669271 302.104294 
L 1247.103669 302.104294 
L 1254.538067 302.104294 
L 1261.972465 302.104294 
L 1269.406863 302.104294 
L 1276.841261 302.104294 
L 1284.275659 302.104294 
L 1291.710056 302.104294 
L 1299.144454 302.104294 
L 1306.578852 302.104294 
L 1314.01325 302.104294 
L 1321.447648 302.104294 
L 1328.882046 302.104294 
L 1336.316444 302.104294 
L 1343.750842 302.104294 
L 1351.18524 302.104294 
L 1358.619638 302.104294 
L 1366.054036 302.104294 
L 1373.488434 302.104294 
L 1380.922832 302.104294 
L 1388.35723 302.104294 
L 1395.791628 302.104294 
L 1403.226025 302.104294 
L 1410.660423 302.104294 
L 1418.094821 302.104294 
L 1425.529219 302.104294 
L 1432.963617 302.104294 
L 1440.398015 302.104294 
L 1447.832413 302.104294 
L 1455.266811 302.104294 
L 1462.701209 302.104294 
L 1470.135607 302.104294 
L 1477.570005 302.104294 
L 1485.004403 302.104294 
L 1485.004403 296.624588 
L 1485.004403 291.144882 
L 1485.004403 285.665176 
L 1485.004403 280.18547 
L 1485.004403 274.705763 
L 1485.004403 269.226057 
L 1485.004403 263.746351 
L 1485.004403 258.266645 
L 1485.004403 252.786939 
L 1485.004403 247.307233 
L 1485.004403 241.827527 
L 1485.004403 236.347821 
L 1485.004403 230.868115 
L 1485.004403 225.388409 
L 1485.004403 219.908702 
L 1485.004403 214.428996 
L 1485.004403 208.94929 
L 1485.004403 203.469584 
L 1485.004403 197.989878 
L 1485.004403 192.510172 
L 1485.004403 187.030466 
L 1485.004403 181.55076 
L 1485.004403 176.071054 
L 1485.004403 170.591348 
L 1485.004403 165.111641 
L 1485.004403 159.631935 
L 1485.004403 154.152229 
L 1485.004403 148.672523 
L 1485.004403 143.192817 
L 1485.004403 137.713111 
L 1485.004403 132.233405 
L 1485.004403 126.753699 
L 1485.004403 121.273993 
L 1485.004403 115.794287 
L 1485.004403 110.31458 
L 1485.004403 104.834874 
L 1485.004403 99.355168 
L 1485.004403 93.875462 
L 1485.004403 88.395756 
L 1485.004403 82.91605 
L 1485.004403 77.436344 
L 1485.004403 71.956638 
L 1485.004403 66.476932 
L 1485.004403 60.997226 
L 1485.004403 55.517519 
L 1485.004403 50.037813 
L 1485.004403 44.558107 
L 1485.004403 39.078401 
L 1485.004403 33.598695 
L 1485.004403 28.118989 
L 1485.004403 22.639283 
L 1485.004403 17.159577 
L 1485.004403 11.679871 
L 1485.004403 6.200165 
L 1485.004403 0.720458 
L 1485.004403 -4.759248 
L 1485.004403 -10.238954 
L 1485.004403 -15.71866 
L 1485.004403 -21.198366 
L 1485.004403 -26.678072 
L 1485.004403 -32.157778 
L 1485.004403 -37.637484 
L 1485.004403 -43.11719 
L 1485.004403 -48.596896 
L 1485.004403 -54.076602 
L 1485.004403 -59.556309 
L 1485.004403 -65.036015 
L 1485.004403 -70.515721 
L 1485.004403 -75.995427 
L 1485.004403 -81.475133 
L 1485.004403 -86.954839 
L 1485.004403 -92.434545 
L 1485.004403 -97.914251 
L 1485.004403 -103.393957 
L 1485.004403 -108.873663 
L 1485.004403 -114.35337 
L 1485.004403 -119.833076 
L 1485.004403 -125.312782 
L 1485.004403 -130.792488 
L 1485.004403 -136.272194 
L 1485.004403 -141.7519 
L 1485.004403 -147.231606 
L 1485.004403 -152.711312 
L 1485.004403 -158.191018 
L 1485.004403 -163.670724 
L 1477.570005 -163.670724 
L 1470.135607 -163.670724 
L 1462.701209 -163.670724 
L 1455.266811 -163.670724 
L 1447.832413 -163.670724 
L 1440.398015 -163.670724 
L 1432.963617 -163.670724 
L 1425.529219 -163.670724 
L 1418.094821 -163.670724 
L 1410.660423 -163.670724 
L 1403.226025 -163.670724 
L 1395.791628 -163.670724 
L 1388.35723 -163.670724 
L 1380.922832 -163.670724 
L 1373.488434 -163.670724 
L 1366.054036 -163.670724 
L 1358.619638 -163.670724 
L 1351.18524 -163.670724 
L 1343.750842 -163.670724 
L 1336.316444 -163.670724 
L 1328.882046 -163.670724 
L 1321.447648 -163.670724 
L 1314.01325 -163.670724 
L 1306.578852 -163.670724 
L 1299.144454 -163.670724 
L 1291.710056 -163.670724 
L 1284.275659 -163.670724 
L 1276.841261 -163.670724 
L 1269.406863 -163.670724 
L 1261.972465 -163.670724 
L 1254.538067 -163.670724 
L 1247.103669 -163.670724 
L 1239.669271 -163.670724 
L 1232.234873 -163.670724 
L 1224.800475 -163.670724 
L 1217.366077 -163.670724 
L 1209.931679 -163.670724 
L 1202.497281 -163.670724 
L 1195.062883 -163.670724 
L 1187.628485 -163.670724 
L 1180.194088 -163.670724 
L 1172.75969 -163.670724 
L 1165.325292 -163.670724 
L 1157.890894 -163.670724 
L 1150.456496 -163.670724 
L 1143.022098 -163.670724 
L 1135.5877 -163.670724 
L 1128.153302 -163.670724 
L 1120.718904 -163.670724 
L 1113.284506 -163.670724 
L 1105.850108 -163.670724 
L 1098.41571 -163.670724 
L 1090.981312 -163.670724 
L 1083.546914 -163.670724 
L 1076.112516 -163.670724 
L 1068.678119 -163.670724 
L 1061.243721 -163.670724 
L 1053.809323 -163.670724 
L 1046.374925 -163.670724 
L 1038.940527 -163.670724 
L 1031.506129 -163.670724 
L 1024.071731 -163.670724 
L 1016.637333 -163.670724 
L 1009.202935 -163.670724 
L 1001.768537 -163.670724 
L 994.334139 -163.670724 
L 986.899741 -163.670724 
L 979.465343 -163.670724 
L 972.030945 -163.670724 
L 964.596548 -163.670724 
L 957.16215 -163.670724 
L 949.727752 -163.670724 
L 942.293354 -163.670724 
L 934.858956 -163.670724 
L 927.424558 -163.670724 
L 919.99016 -163.670724 
L 912.555762 -163.670724 
L 905.121364 -163.670724 
L 897.686966 -163.670724 
L 890.252568 -163.670724 
L 882.81817 -163.670724 
L 875.383772 -163.670724 
L 867.949374 -163.670724 
L 860.514977 -163.670724 
L 853.080579 -163.670724 
L 845.646181 -163.670724 
L 838.211783 -163.670724 
L 830.777385 -163.670724 
L 823.342987 -163.670724 
L 815.908589 -163.670724 
L 808.474191 -163.670724 
L 801.039793 -163.670724 
L 793.605395 -163.670724 
L 786.170997 -163.670724 
L 778.736599 -163.670724 
L 771.302201 -163.670724 
L 763.867803 -163.670724 
L 756.433405 -163.670724 
L 748.999008 -163.670724 
L 741.56461 -163.670724 
L 734.130212 -163.670724 
L 726.695814 -163.670724 
L 719.261416 -163.670724 
L 711.827018 -163.670724 
L 704.39262 -163.670724 
L 696.958222 -163.670724 
L 689.523824 -163.670724 
L 682.089426 -163.670724 
L 674.655028 -163.670724 
L 667.22063 -163.670724 
L 659.786232 -163.670724 
L 652.351834 -163.670724 
L 644.917437 -163.670724 
L 637.483039 -163.670724 
L 630.048641 -163.670724 
L 622.614243 -163.670724 
L 615.179845 -163.670724 
L 607.745447 -163.670724 
L 600.311049 -163.670724 
L 592.876651 -163.670724 
L 585.442253 -163.670724 
L 578.007855 -163.670724 
L 570.573457 -163.670724 
L 563.139059 -163.670724 
L 555.704661 -163.670724 
L 548.270263 -163.670724 
L 540.835865 -163.670724 
L 533.401468 -163.670724 
L 525.96707 -163.670724 
L 518.532672 -163.670724 
L 511.098274 -163.670724 
L 503.663876 -163.670724 
L 496.229478 -163.670724 
L 488.79508 -163.670724 
L 481.360682 -163.670724 
L 473.926284 -163.670724 
L 466.491886 -163.670724 
L 459.057488 -163.670724 
L 451.62309 -163.670724 
L 444.188692 -163.670724 
L 436.754294 -163.670724 
L 429.319897 -163.670724 
L 421.885499 -163.670724 
L 414.451101 -163.670724 
L 407.016703 -163.670724 
L 399.582305 -163.670724 
L 392.147907 -163.670724 
L 384.713509 -163.670724 
L 377.279111 -163.670724 
L 369.844713 -163.670724 
L 362.410315 -163.670724 
L 354.975917 -163.670724 
L 347.541519 -163.670724 
L 340.107121 -163.670724 
L 332.672723 -163.670724 
L 325.238326 -163.670724 
L 317.803928 -163.670724 
L 310.36953 -163.670724 
L 302.935132 -163.670724 
L 295.500734 -163.670724 
L 288.066336 -163.670724 
L 280.631938 -163.670724 
L 273.19754 -163.670724 
L 265.763142 -163.670724 
L 258.328744 -163.670724 
L 250.894346 -163.670724 
L 243.459948 -163.670724 
L 236.02555 -163.670724 
L 228.591152 -163.670724 
L 221.156754 -163.670724 
L 213.722357 -163.670724 
L 206.287959 -163.670724 
L 198.853561 -163.670724 
L 191.419163 -163.670724 
L 183.984765 -163.670724 
L 176.550367 -163.670724 
L 169.115969 -163.670724 
L 161.681571 -163.670724 
L 154.247173 -163.670724 
L 146.812775 -163.670724 
L 139.378377 -163.670724 
L 131.943979 -163.670724 
L 124.509581 -163.670724 
L 117.075183 -163.670724 
L 109.640786 -163.670724 
L 102.206388 -163.670724 
L 94.77199 -163.670724 
L 87.337592 -163.670724 
L 79.903194 -163.670724 
L 72.468796 -163.670724 
L 65.034398 -163.670724 
L 65.034398 -158.191018 
L 65.034398 -152.711312 
L 65.034398 -147.231606 
L 65.034398 -141.7519 
L 65.034398 -136.272194 
L 65.034398 -130.792488 
L 65.034398 -125.312782 
L 65.034398 -119.833076 
L 65.034398 -114.35337 
L 65.034398 -108.873663 
L 65.034398 -103.393957 
L 65.034398 -97.914251 
L 65.034398 -92.434545 
L 65.034398 -86.954839 
L 65.034398 -81.475133 
L 65.034398 -75.995427 
L 65.034398 -70.515721 
L 65.034398 -65.036015 
L 65.034398 -59.556309 
L 65.034398 -54.076602 
L 65.034398 -48.596896 
L 65.034398 -43.11719 
L 65.034398 -37.637484 
L 65.034398 -32.157778 
L 65.034398 -26.678072 
L 65.034398 -21.198366 
L 65.034398 -15.71866 
L 65.034398 -10.238954 
L 65.034398 -4.759248 
L 65.034398 0.720458 
L 65.034398 6.200165 
L 65.034398 11.679871 
L 65.034398 17.159577 
L 65.034398 22.639283 
L 65.034398 28.118989 
L 65.034398 33.598695 
L 65.034398 39.078401 
L 65.034398 44.558107 
L 65.034398 50.037813 
L 65.034398 55.517519 
L 65.034398 60.997226 
L 65.034398 66.476932 
L 65.034398 71.956638 
L 65.034398 77.436344 
L 65.034398 82.91605 
L 65.034398 88.395756 
L 65.034398 93.875462 
L 65.034398 99.355168 
L 65.034398 104.834874 
L 65.034398 110.31458 
L 65.034398 115.794287 
L 65.034398 121.273993 
L 65.034398 126.753699 
L 65.034398 132.233405 
L 65.034398 137.713111 
L 65.034398 143.192817 
L 65.034398 148.672523 
L 65.034398 154.152229 
L 65.034398 159.631935 
L 65.034398 165.111641 
L 65.034398 170.591348 
L 65.034398 176.071054 
L 65.034398 181.55076 
L 65.034398 187.030466 
L 65.034398 192.510172 
L 65.034398 197.989878 
L 65.034398 203.469584 
L 65.034398 208.94929 
L 65.034398 214.428996 
L 65.034398 219.908702 
L 65.034398 222.292822 
L 69.234225 225.388409 
L 65.034398 228.483995 
L 65.034398 230.868115 
L 65.034398 235.636355 
L 65.999655 236.347821 
L 65.999655 241.827527 
L 72.468796 243.019587 
L 73.0569 241.827527 
L 74.086081 236.347821 
L 75.703367 230.868115 
L 79.903194 227.772528 
L 83.137764 225.388409 
L 87.337592 222.292822 
L 88.146234 219.908702 
L 87.337592 215.140463 
L 86.372335 214.428996 
L 86.372335 208.94929 
L 87.337592 208.237824 
L 93.806733 203.469584 
L 94.77199 202.758118 
L 101.241131 197.989878 
L 98.00656 192.510172 
L 101.241131 187.030466 
L 101.241131 181.55076 
L 102.206388 180.839294 
L 103.171644 181.55076 
L 109.640786 183.93488 
L 111.258071 181.55076 
L 117.075183 177.263114 
L 120.309754 176.071054 
L 117.075183 171.302814 
L 109.640786 171.302814 
L 102.206388 173.686934 
L 98.00656 170.591348 
L 102.206388 167.495761 
L 109.640786 169.879881 
L 112.875356 165.111641 
L 117.075183 162.016055 
L 120.309754 159.631935 
L 124.509581 156.536349 
L 126.665962 154.152229 
L 127.744152 148.672523 
L 131.943979 145.576937 
L 134.10036 143.192817 
L 138.413121 137.713111 
L 139.378377 137.001645 
L 146.812775 133.425465 
L 150.047346 132.233405 
L 154.247173 129.137819 
L 161.681571 128.343112 
L 169.115969 127.187175 
L 176.550367 126.845396 
L 183.984765 127.004659 
L 191.078682 132.233405 
L 190.987887 137.713111 
L 188.184592 143.192817 
L 191.17035 148.672523 
L 191.419163 148.778484 
L 191.492676 148.672523 
L 198.853561 143.247002 
L 206.287959 143.443777 
L 213.722357 143.400132 
L 221.156754 143.376211 
L 228.591152 143.431229 
L 236.02555 143.306347 
L 236.744344 143.192817 
L 243.459948 138.242915 
L 250.175553 143.192817 
L 250.534949 148.672523 
L 243.459948 153.887327 
L 243.055627 154.152229 
L 236.02555 159.33392 
L 235.621229 159.631935 
L 229.556409 165.111641 
L 228.591152 165.823108 
L 227.297324 170.591348 
L 228.591152 171.783408 
L 234.408265 176.071054 
L 228.591152 180.3587 
L 225.356582 181.55076 
L 221.156754 184.646346 
L 217.922184 187.030466 
L 213.722357 190.126052 
L 207.253215 192.510172 
L 207.253215 197.989878 
L 206.287959 198.701344 
L 205.322702 197.989878 
L 198.853561 193.221638 
L 197.236275 197.989878 
L 198.853561 202.758118 
L 199.818817 203.469584 
L 198.853561 204.18105 
L 197.888304 203.469584 
L 191.419163 202.277524 
L 189.801877 203.469584 
L 184.950021 208.94929 
L 184.950021 214.428996 
L 183.984765 215.140463 
L 176.550367 217.524582 
L 170.081226 219.908702 
L 169.115969 220.620169 
L 165.881398 225.388409 
L 161.681571 228.483995 
L 157.481744 225.388409 
L 154.247173 224.707231 
L 153.168983 225.388409 
L 147.778032 230.868115 
L 147.778032 236.347821 
L 154.247173 241.116061 
L 161.681571 241.116061 
L 169.115969 241.116061 
L 170.081226 241.827527 
L 169.115969 242.538993 
L 161.681571 242.538993 
L 154.247173 242.538993 
L 146.812775 242.538993 
L 139.378377 244.923113 
L 135.17855 241.827527 
L 131.943979 237.059287 
L 124.509581 237.059287 
L 121.275011 241.827527 
L 117.075183 244.923113 
L 109.640786 246.940445 
L 109.391972 247.307233 
L 102.206388 252.603545 
L 102.074364 252.786939 
L 102.206388 257.555179 
L 103.171644 258.266645 
L 102.206388 258.978111 
L 98.971817 263.746351 
L 95.737246 269.226057 
L 94.77199 269.937523 
L 87.337592 269.937523 
L 86.043763 274.705763 
L 80.86845 280.18547 
L 79.903194 280.896936 
L 79.364099 285.665176 
L 73.434052 291.144882 
L 72.468796 291.856348 
L 72.307067 296.624588 
L 72.160742 302.104294 
z
M 86.372335 291.144882 
L 87.337592 290.433416 
L 94.77199 290.433416 
L 95.737246 291.144882 
L 94.77199 291.856348 
L 87.337592 291.856348 
z
M 108.675529 291.144882 
L 109.640786 290.433416 
L 117.075183 290.433416 
L 118.04044 291.144882 
L 117.075183 291.856348 
L 109.640786 291.856348 
z
M 127.744152 291.144882 
L 131.943979 288.049296 
L 136.143807 291.144882 
L 131.943979 294.240468 
z
M 142.612948 291.144882 
L 146.812775 288.049296 
L 151.012602 291.144882 
L 146.812775 294.240468 
z
M 157.481744 291.144882 
L 161.681571 288.049296 
L 165.881398 291.144882 
L 161.681571 294.240468 
z
M 172.35054 291.144882 
L 176.550367 288.049296 
L 183.984765 288.049296 
L 191.419163 290.433416 
L 198.853561 288.049296 
L 202.088131 285.665176 
L 206.287959 282.569589 
L 213.722357 281.377529 
L 221.156754 282.569589 
L 225.356582 285.665176 
L 221.156754 288.760762 
L 213.722357 289.952822 
L 207.253215 291.144882 
L 206.287959 291.856348 
L 198.853561 294.240468 
L 191.419163 291.856348 
L 183.984765 294.240468 
L 176.550367 294.240468 
z
M 130.978723 269.226057 
L 130.978723 263.746351 
L 131.943979 263.034885 
L 132.909236 263.746351 
L 132.909236 269.226057 
L 131.943979 269.937523 
z
M 142.612948 269.226057 
L 146.812775 266.130471 
L 151.012602 269.226057 
L 146.812775 272.321643 
z
M 157.481744 269.226057 
L 161.681571 266.130471 
L 165.881398 269.226057 
L 161.681571 272.321643 
z
M 175.58511 269.226057 
L 176.550367 268.514591 
L 177.515624 269.226057 
L 176.550367 269.937523 
z
M 105.440958 263.746351 
L 109.640786 260.650765 
L 113.840613 263.746351 
L 109.640786 266.841937 
z
M 168.150712 263.746351 
L 169.115969 263.034885 
L 170.081226 263.746351 
L 169.115969 264.457817 
z
M 183.019508 263.746351 
L 183.019508 258.266645 
L 183.984765 257.555179 
L 191.419163 255.171059 
L 197.888304 252.786939 
L 198.853561 252.075473 
L 206.287959 249.691353 
L 213.722357 248.10194 
L 220.078564 252.786939 
L 213.722357 257.471938 
L 206.287959 255.882525 
L 199.818817 258.266645 
L 198.853561 258.978111 
L 191.419163 261.362231 
L 184.950021 263.746351 
L 183.984765 264.457817 
z
M 130.978723 247.307233 
L 131.943979 246.595767 
L 132.909236 247.307233 
L 131.943979 248.018699 
z
M 172.35054 236.347821 
L 176.550367 233.252235 
L 183.019508 230.868115 
L 183.984765 230.156648 
L 184.950021 230.868115 
L 184.950021 236.347821 
L 183.984765 237.059287 
L 176.550367 239.443407 
z
M 190.453906 225.388409 
L 191.419163 224.676942 
L 197.888304 219.908702 
L 198.853561 219.197236 
L 206.287959 219.197236 
L 208.444339 214.428996 
L 213.722357 210.538704 
L 221.156754 210.538704 
L 226.434772 214.428996 
L 221.156754 218.319289 
L 214.687613 219.908702 
L 213.722357 220.620169 
L 207.253215 225.388409 
L 206.287959 226.099875 
L 198.853561 226.099875 
L 191.419163 226.099875 
z
M 71.503539 203.469584 
L 72.468796 202.758118 
L 73.434052 203.469584 
L 72.468796 204.18105 
z
M 86.372335 197.989878 
L 87.337592 197.278412 
L 88.302848 197.989878 
L 87.337592 198.701344 
z
M 71.503539 192.510172 
L 72.468796 191.798706 
L 79.903194 191.798706 
L 80.86845 192.510172 
L 79.903194 193.221638 
L 72.468796 193.221638 
z
" style="fill:#ffffff;"/>
    <path clip-path="url(#pf02c2618a6)" d="M 154.247173 215.110173 
L 155.541001 214.428996 
L 154.247173 214.178036 
L 153.659069 214.428996 
z
" style="fill:#ffffff;"/>
    <path clip-path="url(#pf02c2618a6)" d="M 109.640786 202.758118 
L 112.875356 197.989878 
L 112.875356 192.510172 
L 109.640786 190.126052 
L 106.406215 192.510172 
L 103.171644 197.989878 
z
" style="fill:#ffffff;"/>
    <path clip-path="url(#pf02c2618a6)" d="M 117.075183 189.414586 
L 123.544325 187.030466 
L 117.075183 185.838406 
L 113.840613 187.030466 
z
" style="fill:#ffffff;"/>
    <path clip-path="url(#pf02c2618a6)" d="M 131.943979 172.975468 
L 133.561265 170.591348 
L 131.943979 165.823108 
L 128.709409 170.591348 
z
" style="fill:#ffffff;"/>
   </g>
   <g id="PathCollection_3">
    <path clip-path="url(#pf02c2618a6)" d="M 72.307067 296.624588 
L 72.468796 291.856348 
L 73.434052 291.144882 
L 79.364099 285.665176 
L 79.903194 280.896936 
L 80.86845 280.18547 
L 86.043763 274.705763 
L 87.337592 269.937523 
L 94.77199 269.937523 
L 95.737246 269.226057 
L 98.971817 263.746351 
L 102.206388 258.978111 
L 103.171644 258.266645 
L 102.206388 257.555179 
L 102.074364 252.786939 
L 102.206388 252.603545 
L 109.391972 247.307233 
L 109.640786 246.940445 
L 117.075183 244.923113 
L 121.275011 241.827527 
L 124.509581 237.059287 
L 131.943979 237.059287 
L 135.17855 241.827527 
L 139.378377 244.923113 
L 146.812775 242.538993 
L 154.247173 242.538993 
L 161.681571 242.538993 
L 169.115969 242.538993 
L 170.081226 241.827527 
L 169.115969 241.116061 
L 161.681571 241.116061 
L 154.247173 241.116061 
L 147.778032 236.347821 
L 147.778032 230.868115 
L 153.168983 225.388409 
L 154.247173 224.707231 
L 157.481744 225.388409 
L 161.681571 228.483995 
L 165.881398 225.388409 
L 169.115969 220.620169 
L 170.081226 219.908702 
L 176.550367 217.524582 
L 183.984765 215.140463 
L 184.950021 214.428996 
L 184.950021 208.94929 
L 189.801877 203.469584 
L 191.419163 202.277524 
L 197.888304 203.469584 
L 198.853561 204.18105 
L 199.818817 203.469584 
L 198.853561 202.758118 
L 197.236275 197.989878 
L 198.853561 193.221638 
L 205.322702 197.989878 
L 206.287959 198.701344 
L 207.253215 197.989878 
L 207.253215 192.510172 
L 213.722357 190.126052 
L 217.922184 187.030466 
L 221.156754 184.646346 
L 225.356582 181.55076 
L 228.591152 180.3587 
L 234.408265 176.071054 
L 228.591152 171.783408 
L 227.297324 170.591348 
L 228.591152 165.823108 
L 229.556409 165.111641 
L 235.621229 159.631935 
L 236.02555 159.33392 
L 243.055627 154.152229 
L 243.459948 153.887327 
L 250.534949 148.672523 
L 250.175553 143.192817 
L 243.459948 138.242915 
L 236.744344 143.192817 
L 236.02555 143.306347 
L 228.591152 143.431229 
L 221.156754 143.376211 
L 213.722357 143.400132 
L 206.287959 143.443777 
L 198.853561 143.247002 
L 191.492676 148.672523 
L 191.419163 148.778484 
L 191.17035 148.672523 
L 188.184592 143.192817 
L 190.987887 137.713111 
L 191.078682 132.233405 
L 183.984765 127.004659 
L 176.550367 126.845396 
L 169.115969 127.187175 
L 161.681571 128.343112 
L 154.247173 129.137819 
L 150.047346 132.233405 
L 146.812775 133.425465 
L 139.378377 137.001645 
L 138.413121 137.713111 
L 134.10036 143.192817 
L 131.943979 145.576937 
L 127.744152 148.672523 
L 126.665962 154.152229 
L 124.509581 156.536349 
L 120.309754 159.631935 
L 117.075183 162.016055 
L 112.875356 165.111641 
L 109.640786 169.879881 
L 102.206388 167.495761 
L 98.00656 170.591348 
L 102.206388 173.686934 
L 109.640786 171.302814 
L 117.075183 171.302814 
L 120.309754 176.071054 
L 117.075183 177.263114 
L 111.258071 181.55076 
L 109.640786 183.93488 
L 103.171644 181.55076 
L 102.206388 180.839294 
L 101.241131 181.55076 
L 101.241131 187.030466 
L 98.00656 192.510172 
L 101.241131 197.989878 
L 94.77199 202.758118 
L 93.806733 203.469584 
L 87.337592 208.237824 
L 86.372335 208.94929 
L 86.372335 214.428996 
L 87.337592 215.140463 
L 88.146234 219.908702 
L 87.337592 222.292822 
L 83.137764 225.388409 
L 79.903194 227.772528 
L 75.703367 230.868115 
L 74.086081 236.347821 
L 73.0569 241.827527 
L 72.468796 243.019587 
L 65.999655 241.827527 
L 65.999655 236.347821 
L 65.034398 235.636355 
L 65.034398 236.347821 
L 65.034398 241.827527 
L 65.034398 247.307233 
L 65.034398 252.786939 
L 65.034398 253.693156 
L 65.872678 252.786939 
L 71.181787 247.307233 
L 72.468796 246.595767 
L 74.821211 241.827527 
L 78.937937 236.347821 
L 79.903194 234.924888 
L 81.737822 230.868115 
L 87.337592 226.740666 
L 90.089534 225.388409 
L 90.572162 219.908702 
L 94.77199 216.37089 
L 99.382531 214.428996 
L 102.206388 211.653806 
L 107.710272 208.94929 
L 109.640786 208.000669 
L 113.329219 203.469584 
L 117.075183 200.018265 
L 119.276737 197.989878 
L 122.579068 192.510172 
L 124.509581 191.56155 
L 131.943979 188.382724 
L 132.591495 187.030466 
L 139.378377 181.715375 
L 139.515815 181.55076 
L 139.378377 180.233839 
L 135.613236 176.071054 
L 138.413121 170.591348 
L 139.378377 169.642726 
L 146.812775 166.428562 
L 148.003899 165.111641 
L 146.812775 162.4778 
L 139.378377 161.713328 
L 135.613236 159.631935 
L 139.378377 156.856745 
L 146.812775 158.683314 
L 151.423317 154.152229 
L 146.812775 151.433579 
L 142.13032 148.672523 
L 146.812775 144.070764 
L 148.003899 143.192817 
L 146.812775 140.558976 
L 145.525766 137.713111 
L 146.812775 137.001645 
L 154.247173 136.290179 
L 161.681571 132.672378 
L 162.128242 132.233405 
L 169.115969 128.487604 
L 176.550367 127.120486 
L 183.984765 127.757539 
L 190.057238 132.233405 
L 189.694058 137.713111 
L 183.984765 142.568698 
L 183.544454 143.192817 
L 183.984765 143.530882 
L 190.42391 148.672523 
L 191.419163 149.096367 
L 191.713215 148.672523 
L 198.853561 143.409555 
L 206.287959 144.196657 
L 213.722357 144.022076 
L 221.156754 143.926392 
L 228.591152 144.146465 
L 236.02555 143.646935 
L 238.900724 143.192817 
L 243.459948 139.832329 
L 248.019172 143.192817 
L 249.456759 148.672523 
L 243.459948 153.09262 
L 241.842663 154.152229 
L 236.02555 158.439875 
L 234.408265 159.631935 
L 228.591152 164.205425 
L 227.054305 165.111641 
L 223.415839 170.591348 
L 221.156754 172.67274 
L 215.009365 176.071054 
L 213.722357 177.019675 
L 206.287959 181.258111 
L 205.096835 181.55076 
L 203.214264 187.030466 
L 198.853561 190.24463 
L 192.706172 192.510172 
L 192.384419 197.989878 
L 191.419163 198.701344 
L 184.950021 203.469584 
L 183.984765 204.418206 
L 180.123738 203.469584 
L 176.550367 202.152663 
L 169.115969 203.199133 
L 168.427983 203.469584 
L 169.115969 204.821842 
L 174.715739 208.94929 
L 171.046482 214.428996 
L 169.115969 215.377618 
L 161.681571 216.510389 
L 159.422486 214.428996 
L 154.247173 213.425156 
L 151.894758 214.428996 
L 154.247173 217.153705 
L 158.607876 219.908702 
L 154.247173 222.6637 
L 149.934412 225.388409 
L 146.812775 228.149464 
L 140.569501 225.388409 
L 139.378377 225.168922 
L 138.663703 225.388409 
L 131.943979 229.515857 
L 129.742425 230.868115 
L 124.509581 234.082278 
L 122.20431 236.347821 
L 117.075183 240.668449 
L 116.074477 241.827527 
L 109.640786 245.840082 
L 108.645533 247.307233 
L 102.206388 252.053364 
L 101.678294 252.786939 
L 94.77199 257.983452 
L 94.515848 258.266645 
L 92.937361 263.746351 
L 87.337592 267.284164 
L 86.839155 269.226057 
L 82.162279 274.705763 
L 79.903194 276.787156 
L 79.417874 280.18547 
L 77.746813 285.665176 
L 72.468796 289.909131 
L 72.107185 291.144882 
L 71.821882 296.624588 
L 71.236578 302.104294 
L 72.160742 302.104294 
z
M 153.659069 214.428996 
L 154.247173 214.178036 
L 155.541001 214.428996 
L 154.247173 215.110173 
z
M 103.171644 197.989878 
L 106.406215 192.510172 
L 109.640786 190.126052 
L 112.875356 192.510172 
L 112.875356 197.989878 
L 109.640786 202.758118 
z
M 113.840613 187.030466 
L 117.075183 185.838406 
L 123.544325 187.030466 
L 117.075183 189.414586 
z
M 116.109927 181.55076 
L 117.075183 180.839294 
L 119.005697 181.55076 
L 117.075183 182.262226 
z
M 227.304144 176.071054 
L 228.591152 175.359587 
L 229.556409 176.071054 
L 228.591152 176.78252 
z
M 128.709409 170.591348 
L 131.943979 165.823108 
L 133.561265 170.591348 
L 131.943979 172.975468 
z
" style="fill:#f0f0f0;"/>
    <path clip-path="url(#pf02c2618a6)" d="M 87.337592 302.104294 
L 88.302848 302.104294 
L 87.337592 301.392828 
L 86.372335 302.104294 
z
" style="fill:#f0f0f0;"/>
    <path clip-path="url(#pf02c2618a6)" d="M 109.640786 302.104294 
L 110.606042 302.104294 
L 109.640786 301.392828 
L 108.675529 302.104294 
z
" style="fill:#f0f0f0;"/>
    <path clip-path="url(#pf02c2618a6)" d="M 131.943979 302.104294 
L 132.909236 302.104294 
L 131.943979 301.392828 
L 130.978723 302.104294 
z
" style="fill:#f0f0f0;"/>
    <path clip-path="url(#pf02c2618a6)" d="M 146.812775 302.104294 
L 147.778032 302.104294 
L 146.812775 301.392828 
L 145.847519 302.104294 
z
" style="fill:#f0f0f0;"/>
    <path clip-path="url(#pf02c2618a6)" d="M 161.681571 302.104294 
L 162.646828 302.104294 
L 161.681571 301.392828 
L 160.716314 302.104294 
z
" style="fill:#f0f0f0;"/>
    <path clip-path="url(#pf02c2618a6)" d="M 176.550367 302.104294 
L 183.984765 302.104294 
L 184.950021 302.104294 
L 183.984765 301.392828 
L 176.550367 301.392828 
L 175.58511 302.104294 
z
" style="fill:#f0f0f0;"/>
    <path clip-path="url(#pf02c2618a6)" d="M 198.853561 302.104294 
L 206.287959 302.104294 
L 213.722357 302.104294 
L 221.156754 302.104294 
L 225.356582 302.104294 
L 221.156754 299.008708 
L 213.722357 299.008708 
L 206.287959 299.008708 
L 198.853561 301.392828 
L 197.888304 302.104294 
z
" style="fill:#f0f0f0;"/>
    <path clip-path="url(#pf02c2618a6)" d="M 87.337592 291.856348 
L 94.77199 291.856348 
L 95.737246 291.144882 
L 94.77199 290.433416 
L 87.337592 290.433416 
L 86.372335 291.144882 
z
" style="fill:#f0f0f0;"/>
    <path clip-path="url(#pf02c2618a6)" d="M 109.640786 291.856348 
L 117.075183 291.856348 
L 118.04044 291.144882 
L 117.075183 290.433416 
L 109.640786 290.433416 
L 108.675529 291.144882 
z
" style="fill:#f0f0f0;"/>
    <path clip-path="url(#pf02c2618a6)" d="M 131.943979 294.240468 
L 136.143807 291.144882 
L 131.943979 288.049296 
L 127.744152 291.144882 
z
" style="fill:#f0f0f0;"/>
    <path clip-path="url(#pf02c2618a6)" d="M 146.812775 294.240468 
L 151.012602 291.144882 
L 146.812775 288.049296 
L 142.612948 291.144882 
z
" style="fill:#f0f0f0;"/>
    <path clip-path="url(#pf02c2618a6)" d="M 161.681571 294.240468 
L 165.881398 291.144882 
L 161.681571 288.049296 
L 157.481744 291.144882 
z
" style="fill:#f0f0f0;"/>
    <path clip-path="url(#pf02c2618a6)" d="M 176.550367 294.240468 
L 183.984765 294.240468 
L 191.419163 291.856348 
L 198.853561 294.240468 
L 206.287959 291.856348 
L 207.253215 291.144882 
L 213.722357 289.952822 
L 221.156754 288.760762 
L 225.356582 285.665176 
L 221.156754 282.569589 
L 213.722357 281.377529 
L 206.287959 282.569589 
L 202.088131 285.665176 
L 198.853561 288.049296 
L 191.419163 290.433416 
L 183.984765 288.049296 
L 176.550367 288.049296 
L 172.35054 291.144882 
z
M 211.791843 285.665176 
L 213.722357 284.953709 
L 215.65287 285.665176 
L 213.722357 286.376642 
z
" style="fill:#f0f0f0;"/>
    <path clip-path="url(#pf02c2618a6)" d="M 131.943979 269.937523 
L 132.909236 269.226057 
L 132.909236 263.746351 
L 131.943979 263.034885 
L 130.978723 263.746351 
L 130.978723 269.226057 
z
" style="fill:#f0f0f0;"/>
    <path clip-path="url(#pf02c2618a6)" d="M 146.812775 272.321643 
L 151.012602 269.226057 
L 146.812775 266.130471 
L 142.612948 269.226057 
z
" style="fill:#f0f0f0;"/>
    <path clip-path="url(#pf02c2618a6)" d="M 161.681571 272.321643 
L 165.881398 269.226057 
L 161.681571 266.130471 
L 157.481744 269.226057 
z
" style="fill:#f0f0f0;"/>
    <path clip-path="url(#pf02c2618a6)" d="M 176.550367 269.937523 
L 177.515624 269.226057 
L 176.550367 268.514591 
L 175.58511 269.226057 
z
" style="fill:#f0f0f0;"/>
    <path clip-path="url(#pf02c2618a6)" d="M 109.640786 266.841937 
L 113.840613 263.746351 
L 109.640786 260.650765 
L 105.440958 263.746351 
z
" style="fill:#f0f0f0;"/>
    <path clip-path="url(#pf02c2618a6)" d="M 169.115969 264.457817 
L 170.081226 263.746351 
L 169.115969 263.034885 
L 168.150712 263.746351 
z
" style="fill:#f0f0f0;"/>
    <path clip-path="url(#pf02c2618a6)" d="M 183.984765 264.457817 
L 184.950021 263.746351 
L 191.419163 261.362231 
L 198.853561 258.978111 
L 199.818817 258.266645 
L 206.287959 255.882525 
L 213.722357 257.471938 
L 220.078564 252.786939 
L 213.722357 248.10194 
L 206.287959 249.691353 
L 198.853561 252.075473 
L 197.888304 252.786939 
L 191.419163 255.171059 
L 183.984765 257.555179 
L 183.019508 258.266645 
L 183.019508 263.746351 
z
M 209.039901 252.786939 
L 213.722357 250.48606 
L 216.843994 252.786939 
L 213.722357 255.087819 
z
" style="fill:#f0f0f0;"/>
    <path clip-path="url(#pf02c2618a6)" d="M 131.943979 248.018699 
L 132.909236 247.307233 
L 131.943979 246.595767 
L 130.978723 247.307233 
z
" style="fill:#f0f0f0;"/>
    <path clip-path="url(#pf02c2618a6)" d="M 176.550367 239.443407 
L 183.984765 237.059287 
L 184.950021 236.347821 
L 184.950021 230.868115 
L 183.984765 230.156648 
L 183.019508 230.868115 
L 176.550367 233.252235 
L 172.35054 236.347821 
z
" style="fill:#f0f0f0;"/>
    <path clip-path="url(#pf02c2618a6)" d="M 69.234225 225.388409 
L 65.034398 222.292822 
L 65.034398 225.388409 
L 65.034398 228.483995 
z
" style="fill:#f0f0f0;"/>
    <path clip-path="url(#pf02c2618a6)" d="M 191.419163 226.099875 
L 198.853561 226.099875 
L 206.287959 226.099875 
L 207.253215 225.388409 
L 213.722357 220.620169 
L 214.687613 219.908702 
L 221.156754 218.319289 
L 226.434772 214.428996 
L 221.156754 210.538704 
L 213.722357 210.538704 
L 208.444339 214.428996 
L 206.287959 219.197236 
L 198.853561 219.197236 
L 197.888304 219.908702 
L 191.419163 224.676942 
L 190.453906 225.388409 
z
" style="fill:#f0f0f0;"/>
    <path clip-path="url(#pf02c2618a6)" d="M 72.468796 204.18105 
L 73.434052 203.469584 
L 72.468796 202.758118 
L 71.503539 203.469584 
z
" style="fill:#f0f0f0;"/>
    <path clip-path="url(#pf02c2618a6)" d="M 87.337592 198.701344 
L 88.302848 197.989878 
L 87.337592 197.278412 
L 86.372335 197.989878 
z
" style="fill:#f0f0f0;"/>
    <path clip-path="url(#pf02c2618a6)" d="M 72.468796 193.221638 
L 79.903194 193.221638 
L 80.86845 192.510172 
L 79.903194 191.798706 
L 72.468796 191.798706 
L 71.503539 192.510172 
z
" style="fill:#f0f0f0;"/>
    <path clip-path="url(#pf02c2618a6)" d="M 183.984765 193.168632 
L 187.558136 192.510172 
L 183.984765 192.462284 
L 183.885505 192.510172 
z
" style="fill:#f0f0f0;"/>
    <path clip-path="url(#pf02c2618a6)" d="M 183.984765 154.283921 
L 184.069845 154.152229 
L 183.984765 154.037714 
L 183.95396 154.152229 
z
" style="fill:#f0f0f0;"/>
   </g>
   <g id="PathCollection_4">
    <path clip-path="url(#pf02c2618a6)" d="M 71.821882 296.624588 
L 72.107185 291.144882 
L 72.468796 289.909131 
L 77.746813 285.665176 
L 79.417874 280.18547 
L 79.903194 276.787156 
L 82.162279 274.705763 
L 86.839155 269.226057 
L 87.337592 267.284164 
L 92.937361 263.746351 
L 94.515848 258.266645 
L 94.77199 257.983452 
L 101.678294 252.786939 
L 102.206388 252.053364 
L 108.645533 247.307233 
L 109.640786 245.840082 
L 116.074477 241.827527 
L 117.075183 240.668449 
L 122.20431 236.347821 
L 124.509581 234.082278 
L 129.742425 230.868115 
L 131.943979 229.515857 
L 138.663703 225.388409 
L 139.378377 225.168922 
L 140.569501 225.388409 
L 146.812775 228.149464 
L 149.934412 225.388409 
L 154.247173 222.6637 
L 158.607876 219.908702 
L 154.247173 217.153705 
L 151.894758 214.428996 
L 154.247173 213.425156 
L 159.422486 214.428996 
L 161.681571 216.510389 
L 169.115969 215.377618 
L 171.046482 214.428996 
L 174.715739 208.94929 
L 169.115969 204.821842 
L 168.427983 203.469584 
L 169.115969 203.199133 
L 176.550367 202.152663 
L 180.123738 203.469584 
L 183.984765 204.418206 
L 184.950021 203.469584 
L 191.419163 198.701344 
L 192.384419 197.989878 
L 192.706172 192.510172 
L 198.853561 190.24463 
L 203.214264 187.030466 
L 205.096835 181.55076 
L 206.287959 181.258111 
L 213.722357 177.019675 
L 215.009365 176.071054 
L 221.156754 172.67274 
L 223.415839 170.591348 
L 227.054305 165.111641 
L 228.591152 164.205425 
L 234.408265 159.631935 
L 236.02555 158.439875 
L 241.842663 154.152229 
L 243.459948 153.09262 
L 249.456759 148.672523 
L 248.019172 143.192817 
L 243.459948 139.832329 
L 238.900724 143.192817 
L 236.02555 143.646935 
L 228.591152 144.146465 
L 221.156754 143.926392 
L 213.722357 144.022076 
L 206.287959 144.196657 
L 198.853561 143.409555 
L 191.713215 148.672523 
L 191.419163 149.096367 
L 190.42391 148.672523 
L 183.984765 143.530882 
L 183.544454 143.192817 
L 183.984765 142.568698 
L 189.694058 137.713111 
L 190.057238 132.233405 
L 183.984765 127.757539 
L 176.550367 127.120486 
L 169.115969 128.487604 
L 162.128242 132.233405 
L 161.681571 132.672378 
L 154.247173 136.290179 
L 146.812775 137.001645 
L 145.525766 137.713111 
L 146.812775 140.558976 
L 148.003899 143.192817 
L 146.812775 144.070764 
L 142.13032 148.672523 
L 146.812775 151.433579 
L 151.423317 154.152229 
L 146.812775 158.683314 
L 139.378377 156.856745 
L 135.613236 159.631935 
L 139.378377 161.713328 
L 146.812775 162.4778 
L 148.003899 165.111641 
L 146.812775 166.428562 
L 139.378377 169.642726 
L 138.413121 170.591348 
L 135.613236 176.071054 
L 139.378377 180.233839 
L 139.515815 181.55076 
L 139.378377 181.715375 
L 132.591495 187.030466 
L 131.943979 188.382724 
L 124.509581 191.56155 
L 122.579068 192.510172 
L 119.276737 197.989878 
L 117.075183 200.018265 
L 113.329219 203.469584 
L 109.640786 208.000669 
L 107.710272 208.94929 
L 102.206388 211.653806 
L 99.382531 214.428996 
L 94.77199 216.37089 
L 90.572162 219.908702 
L 90.089534 225.388409 
L 87.337592 226.740666 
L 81.737822 230.868115 
L 79.903194 234.924888 
L 78.937937 236.347821 
L 74.821211 241.827527 
L 72.468796 246.595767 
L 71.181787 247.307233 
L 65.872678 252.786939 
L 65.034398 253.693156 
L 65.034398 255.918335 
L 67.931041 252.786939 
L 72.468796 248.914171 
L 73.948187 247.307233 
L 78.937937 241.827527 
L 79.903194 240.709509 
L 83.355107 236.347821 
L 87.337592 231.944738 
L 88.116616 230.868115 
L 94.77199 226.539726 
L 95.755477 225.388409 
L 96.441328 219.908702 
L 102.206388 216.934207 
L 105.982895 214.428996 
L 109.640786 212.002472 
L 111.942061 208.94929 
L 117.075183 204.692859 
L 118.339668 203.469584 
L 124.509581 198.694513 
L 125.126348 197.989878 
L 131.943979 192.797272 
L 132.228988 192.510172 
L 135.255259 187.030466 
L 139.378377 183.80148 
L 141.257506 181.55076 
L 146.812775 176.922028 
L 147.669361 176.071054 
L 150.211632 170.591348 
L 154.247173 167.286353 
L 155.644761 165.111641 
L 161.681571 160.662062 
L 162.234783 159.631935 
L 166.461513 154.152229 
L 161.681571 150.629055 
L 159.027115 148.672523 
L 161.681571 146.715991 
L 163.419732 143.192817 
L 162.035819 137.713111 
L 167.788741 132.233405 
L 169.115969 131.521939 
L 176.550367 127.762365 
L 183.984765 129.514259 
L 187.67387 132.233405 
L 186.675126 137.713111 
L 183.984765 140.001184 
L 181.733094 143.192817 
L 183.984765 144.921618 
L 188.682218 148.672523 
L 191.419163 149.838093 
L 192.227805 148.672523 
L 198.853561 143.788847 
L 206.287959 145.953377 
L 213.722357 145.47328 
L 221.156754 145.210149 
L 228.591152 145.815349 
L 236.02555 144.441642 
L 243.459948 143.54096 
L 246.940982 148.672523 
L 243.459948 151.238305 
L 239.012414 154.152229 
L 236.02555 156.35377 
L 231.578016 159.631935 
L 228.591152 161.980246 
L 222.617426 159.631935 
L 221.156754 155.32544 
L 220.541735 159.631935 
L 221.156754 161.354533 
L 223.280639 165.111641 
L 221.156754 167.459834 
L 213.722357 167.458063 
L 213.687225 170.591348 
L 208.544486 176.071054 
L 206.287959 177.54948 
L 198.853561 181.392918 
L 198.418246 181.55076 
L 191.419163 186.6264 
L 190.777869 187.030466 
L 183.984765 191.855417 
L 182.627616 192.510172 
L 176.550367 197.253051 
L 175.291531 197.989878 
L 169.115969 202.086543 
L 165.597734 203.469584 
L 161.681571 206.768446 
L 158.92004 208.94929 
L 154.247173 211.668436 
L 147.778032 214.428996 
L 146.812775 215.994222 
L 143.862312 219.908702 
L 139.378377 222.387448 
L 131.943979 225.253831 
L 131.783906 225.388409 
L 124.509581 230.677673 
L 124.155512 230.868115 
L 117.075183 236.287565 
L 117.023342 236.347821 
L 111.957751 241.827527 
L 109.640786 243.272568 
L 106.903841 247.307233 
L 102.206388 250.769607 
L 100.754131 252.786939 
L 94.77199 257.288084 
L 93.886904 258.266645 
L 87.337592 263.613844 
L 87.155008 263.746351 
L 85.615263 269.226057 
L 79.903194 273.946609 
L 79.093942 274.705763 
L 78.22619 280.18547 
L 73.973148 285.665176 
L 72.468796 286.874797 
L 71.219263 291.144882 
L 70.689782 296.624588 
L 69.080198 302.104294 
L 71.236578 302.104294 
z
M 183.885505 192.510172 
L 183.984765 192.462284 
L 187.558136 192.510172 
L 183.984765 193.168632 
z
" style="fill:#d3d3d3;"/>
    <path clip-path="url(#pf02c2618a6)" d="M 213.722357 286.376642 
L 215.65287 285.665176 
L 213.722357 284.953709 
L 211.791843 285.665176 
z
" style="fill:#d3d3d3;"/>
    <path clip-path="url(#pf02c2618a6)" d="M 213.722357 255.087819 
L 216.843994 252.786939 
L 213.722357 250.48606 
L 209.039901 252.786939 
z
" style="fill:#d3d3d3;"/>
    <path clip-path="url(#pf02c2618a6)" d="M 117.075183 182.262226 
L 119.005697 181.55076 
L 117.075183 180.839294 
L 116.109927 181.55076 
z
" style="fill:#d3d3d3;"/>
    <path clip-path="url(#pf02c2618a6)" d="M 228.591152 176.78252 
L 229.556409 176.071054 
L 228.591152 175.359587 
L 227.304144 176.071054 
z
" style="fill:#d3d3d3;"/>
    <path clip-path="url(#pf02c2618a6)" d="M 183.984765 155.952805 
L 185.148035 154.152229 
L 183.984765 152.586511 
L 183.563581 154.152229 
z
M 183.95396 154.152229 
L 183.984765 154.037714 
L 184.069845 154.152229 
L 183.984765 154.283921 
z
" style="fill:#d3d3d3;"/>
   </g>
   <g id="PathCollection_5">
    <path clip-path="url(#pf02c2618a6)" d="M 70.689782 296.624588 
L 71.219263 291.144882 
L 72.468796 286.874797 
L 73.973148 285.665176 
L 78.22619 280.18547 
L 79.093942 274.705763 
L 79.903194 273.946609 
L 85.615263 269.226057 
L 87.155008 263.746351 
L 87.337592 263.613844 
L 93.886904 258.266645 
L 94.77199 257.288084 
L 100.754131 252.786939 
L 102.206388 250.769607 
L 106.903841 247.307233 
L 109.640786 243.272568 
L 111.957751 241.827527 
L 117.023342 236.347821 
L 117.075183 236.287565 
L 124.155512 230.868115 
L 124.509581 230.677673 
L 131.783906 225.388409 
L 131.943979 225.253831 
L 139.378377 222.387448 
L 143.862312 219.908702 
L 146.812775 215.994222 
L 147.778032 214.428996 
L 154.247173 211.668436 
L 158.92004 208.94929 
L 161.681571 206.768446 
L 165.597734 203.469584 
L 169.115969 202.086543 
L 175.291531 197.989878 
L 176.550367 197.253051 
L 182.627616 192.510172 
L 183.984765 191.855417 
L 190.777869 187.030466 
L 191.419163 186.6264 
L 198.418246 181.55076 
L 198.853561 181.392918 
L 206.287959 177.54948 
L 208.544486 176.071054 
L 213.687225 170.591348 
L 213.722357 167.458063 
L 221.156754 167.459834 
L 223.280639 165.111641 
L 221.156754 161.354533 
L 220.541735 159.631935 
L 221.156754 155.32544 
L 222.617426 159.631935 
L 228.591152 161.980246 
L 231.578016 159.631935 
L 236.02555 156.35377 
L 239.012414 154.152229 
L 243.459948 151.238305 
L 246.940982 148.672523 
L 243.459948 143.54096 
L 236.02555 144.441642 
L 228.591152 145.815349 
L 221.156754 145.210149 
L 213.722357 145.47328 
L 206.287959 145.953377 
L 198.853561 143.788847 
L 192.227805 148.672523 
L 191.419163 149.838093 
L 188.682218 148.672523 
L 183.984765 144.921618 
L 181.733094 143.192817 
L 183.984765 140.001184 
L 186.675126 137.713111 
L 187.67387 132.233405 
L 183.984765 129.514259 
L 176.550367 127.762365 
L 169.115969 131.521939 
L 167.788741 132.233405 
L 162.035819 137.713111 
L 163.419732 143.192817 
L 161.681571 146.715991 
L 159.027115 148.672523 
L 161.681571 150.629055 
L 166.461513 154.152229 
L 162.234783 159.631935 
L 161.681571 160.662062 
L 155.644761 165.111641 
L 154.247173 167.286353 
L 150.211632 170.591348 
L 147.669361 176.071054 
L 146.812775 176.922028 
L 141.257506 181.55076 
L 139.378377 183.80148 
L 135.255259 187.030466 
L 132.228988 192.510172 
L 131.943979 192.797272 
L 125.126348 197.989878 
L 124.509581 198.694513 
L 118.339668 203.469584 
L 117.075183 204.692859 
L 111.942061 208.94929 
L 109.640786 212.002472 
L 105.982895 214.428996 
L 102.206388 216.934207 
L 96.441328 219.908702 
L 95.755477 225.388409 
L 94.77199 226.539726 
L 88.116616 230.868115 
L 87.337592 231.944738 
L 83.355107 236.347821 
L 79.903194 240.709509 
L 78.937937 241.827527 
L 73.948187 247.307233 
L 72.468796 248.914171 
L 67.931041 252.786939 
L 65.034398 255.918335 
L 65.034398 258.266645 
L 65.034398 261.32234 
L 67.625464 258.266645 
L 72.468796 253.226791 
L 72.909874 252.786939 
L 77.87588 247.307233 
L 79.903194 245.314858 
L 84.223089 241.827527 
L 87.337592 238.894233 
L 89.343578 236.347821 
L 94.77199 231.179676 
L 95.002553 230.868115 
L 99.82864 225.388409 
L 102.206388 222.759543 
L 105.687387 219.908702 
L 109.640786 217.133512 
L 111.781185 214.428996 
L 117.075183 209.412047 
L 117.493736 208.94929 
L 123.576591 203.469584 
L 124.509581 202.747517 
L 128.673942 197.989878 
L 131.943979 195.499274 
L 134.911315 192.510172 
L 139.378377 188.010343 
L 141.040144 187.030466 
L 145.48733 181.55076 
L 146.812775 180.446379 
L 151.216955 176.071054 
L 154.247173 172.923853 
L 156.492979 170.591348 
L 161.43294 165.111641 
L 161.681571 164.928382 
L 164.525937 159.631935 
L 169.115969 155.855344 
L 170.035947 154.152229 
L 172.285734 148.672523 
L 174.37339 143.192817 
L 170.505613 137.713111 
L 171.539325 132.233405 
L 176.550367 129.321213 
L 182.776207 132.233405 
L 181.083932 137.713111 
L 177.334078 143.192817 
L 183.984765 148.299121 
L 184.452395 148.672523 
L 183.984765 149.06216 
L 182.615517 154.152229 
L 183.883317 159.631935 
L 183.984765 159.737252 
L 184.129691 159.631935 
L 187.766497 154.152229 
L 191.419163 151.639428 
L 193.477526 148.672523 
L 198.853561 144.709984 
L 205.709953 148.672523 
L 206.287959 148.884007 
L 213.722357 149.139865 
L 217.103958 148.672523 
L 221.156754 148.327845 
L 223.183153 148.672523 
L 221.156754 149.232626 
L 217.474273 154.152229 
L 214.753556 159.631935 
L 213.722357 160.481426 
L 212.435706 165.111641 
L 212.778337 170.591348 
L 206.287959 175.496865 
L 205.508949 176.071054 
L 198.853561 180.739207 
L 196.615371 181.55076 
L 191.419163 185.318979 
L 188.702861 187.030466 
L 183.984765 190.381597 
L 179.572744 192.510172 
L 176.550367 194.868931 
L 171.218368 197.989878 
L 169.115969 199.384541 
L 161.681571 202.93303 
L 160.652945 203.469584 
L 154.247173 208.296039 
L 153.398611 208.94929 
L 146.812775 213.09747 
L 144.652828 214.428996 
L 139.378377 218.686914 
L 138.156974 219.908702 
L 131.943979 223.987267 
L 130.277393 225.388409 
L 124.509581 229.582266 
L 122.11893 230.868115 
L 117.075183 234.728718 
L 115.682179 236.347821 
L 109.640786 241.029135 
L 108.360652 241.827527 
L 102.674018 247.307233 
L 102.206388 247.651911 
L 98.509735 252.786939 
L 94.77199 255.599332 
L 92.359468 258.266645 
L 87.337592 262.366766 
L 85.436642 263.746351 
L 82.642955 269.226057 
L 79.903194 271.490243 
L 76.47548 274.705763 
L 75.3321 280.18547 
L 72.468796 283.155759 
L 70.111791 285.665176 
L 69.062883 291.144882 
L 67.940397 296.624588 
L 65.034398 301.133931 
L 65.034398 302.104294 
L 69.080198 302.104294 
z
M 183.563581 154.152229 
L 183.984765 152.586511 
L 185.148035 154.152229 
L 183.984765 155.952805 
z
M 230.066061 148.672523 
L 236.02555 146.371644 
L 241.488415 148.672523 
L 236.02555 152.389328 
z
" style="fill:#b8b8b8;"/>
   </g>
   <g id="PathCollection_6">
    <path clip-path="url(#pf02c2618a6)" d="M 67.940397 296.624588 
L 69.062883 291.144882 
L 70.111791 285.665176 
L 72.468796 283.155759 
L 75.3321 280.18547 
L 76.47548 274.705763 
L 79.903194 271.490243 
L 82.642955 269.226057 
L 85.436642 263.746351 
L 87.337592 262.366766 
L 92.359468 258.266645 
L 94.77199 255.599332 
L 98.509735 252.786939 
L 102.206388 247.651911 
L 102.674018 247.307233 
L 108.360652 241.827527 
L 109.640786 241.029135 
L 115.682179 236.347821 
L 117.075183 234.728718 
L 122.11893 230.868115 
L 124.509581 229.582266 
L 130.277393 225.388409 
L 131.943979 223.987267 
L 138.156974 219.908702 
L 139.378377 218.686914 
L 144.652828 214.428996 
L 146.812775 213.09747 
L 153.398611 208.94929 
L 154.247173 208.296039 
L 160.652945 203.469584 
L 161.681571 202.93303 
L 169.115969 199.384541 
L 171.218368 197.989878 
L 176.550367 194.868931 
L 179.572744 192.510172 
L 183.984765 190.381597 
L 188.702861 187.030466 
L 191.419163 185.318979 
L 196.615371 181.55076 
L 198.853561 180.739207 
L 205.508949 176.071054 
L 206.287959 175.496865 
L 212.778337 170.591348 
L 212.435706 165.111641 
L 213.722357 160.481426 
L 214.753556 159.631935 
L 217.474273 154.152229 
L 221.156754 149.232626 
L 223.183153 148.672523 
L 221.156754 148.327845 
L 217.103958 148.672523 
L 213.722357 149.139865 
L 206.287959 148.884007 
L 205.709953 148.672523 
L 198.853561 144.709984 
L 193.477526 148.672523 
L 191.419163 151.639428 
L 187.766497 154.152229 
L 184.129691 159.631935 
L 183.984765 159.737252 
L 183.883317 159.631935 
L 182.615517 154.152229 
L 183.984765 149.06216 
L 184.452395 148.672523 
L 183.984765 148.299121 
L 177.334078 143.192817 
L 181.083932 137.713111 
L 182.776207 132.233405 
L 176.550367 129.321213 
L 171.539325 132.233405 
L 170.505613 137.713111 
L 174.37339 143.192817 
L 172.285734 148.672523 
L 170.035947 154.152229 
L 169.115969 155.855344 
L 164.525937 159.631935 
L 161.681571 164.928382 
L 161.43294 165.111641 
L 156.492979 170.591348 
L 154.247173 172.923853 
L 151.216955 176.071054 
L 146.812775 180.446379 
L 145.48733 181.55076 
L 141.040144 187.030466 
L 139.378377 188.010343 
L 134.911315 192.510172 
L 131.943979 195.499274 
L 128.673942 197.989878 
L 124.509581 202.747517 
L 123.576591 203.469584 
L 117.493736 208.94929 
L 117.075183 209.412047 
L 111.781185 214.428996 
L 109.640786 217.133512 
L 105.687387 219.908702 
L 102.206388 222.759543 
L 99.82864 225.388409 
L 95.002553 230.868115 
L 94.77199 231.179676 
L 89.343578 236.347821 
L 87.337592 238.894233 
L 84.223089 241.827527 
L 79.903194 245.314858 
L 77.87588 247.307233 
L 72.909874 252.786939 
L 72.468796 253.226791 
L 67.625464 258.266645 
L 65.034398 261.32234 
L 65.034398 263.746351 
L 65.034398 269.226057 
L 65.034398 274.705763 
L 65.034398 280.18547 
L 65.034398 285.665176 
L 65.034398 291.144882 
L 65.034398 296.624588 
L 65.034398 301.133931 
z
" style="fill:#a0a0a0;"/>
    <path clip-path="url(#pf02c2618a6)" d="M 236.02555 152.389328 
L 241.488415 148.672523 
L 236.02555 146.371644 
L 230.066061 148.672523 
z
" style="fill:#a0a0a0;"/>
   </g>
   <g id="PathCollection_7">
    <path clip-path="url(#pf02c2618a6)" d="M 67.214498 307.584 
L 70.419331 307.584 
L 73.624164 307.584 
L 76.828997 307.584 
L 80.033829 307.584 
L 83.238662 307.584 
L 86.443495 307.584 
L 89.648328 307.584 
L 92.853161 307.584 
L 96.057993 307.584 
L 99.262826 307.584 
L 102.467659 307.584 
L 105.672492 307.584 
L 108.877324 307.584 
L 112.082157 307.584 
L 115.28699 307.584 
L 118.491823 307.584 
L 121.696656 307.584 
L 124.901488 307.584 
L 128.106321 307.584 
L 128.446984 307.584 
L 129.622506 306.854618 
L 130.493917 306.125236 
L 130.902179 305.395854 
L 130.855593 304.666473 
L 130.549353 303.937091 
L 129.860407 303.207709 
L 128.869891 302.478327 
L 128.106321 302.025423 
L 127.554436 301.748945 
L 125.841548 301.019563 
L 124.901488 300.721193 
L 123.742288 300.290181 
L 121.696656 299.59165 
L 121.604798 299.5608 
L 119.395632 298.831418 
L 118.491823 298.565615 
L 116.798554 298.102036 
L 115.28699 297.744752 
L 113.648699 297.372654 
L 112.082157 296.992221 
L 110.62036 296.643272 
L 108.877324 296.177426 
L 107.814657 295.91389 
L 105.672492 295.424501 
L 104.249995 295.184508 
L 102.467659 294.887207 
L 100.239359 294.455127 
L 99.262826 294.245037 
L 96.057993 293.801843 
L 95.443239 293.725745 
L 92.853161 293.429929 
L 89.648328 293.128238 
L 87.449387 292.996363 
L 86.443495 292.938946 
L 83.238662 292.853801 
L 80.033829 292.86022 
L 76.828997 292.960912 
L 76.051607 292.996363 
L 73.624164 293.112316 
L 70.419331 293.372994 
L 70.013155 293.725745 
L 69.275449 294.455127 
L 68.50323 295.184508 
L 67.79069 295.91389 
L 67.214498 296.58406 
L 67.201852 296.643272 
L 67.027668 297.372654 
L 66.851609 298.102036 
L 66.706997 298.831418 
L 66.582429 299.5608 
L 66.465308 300.290181 
L 66.359847 301.019563 
L 66.283271 301.748945 
L 66.219318 302.478327 
L 66.168363 303.207709 
L 66.132922 303.937091 
L 66.117168 304.666473 
L 66.114771 305.395854 
L 66.135773 306.125236 
L 66.180601 306.854618 
L 66.241073 307.584 
z
" style="fill:#4d94ff;fill-opacity:0.2;"/>
   </g>
   <g id="PathCollection_8">
    <path clip-path="url(#pf02c2618a6)" d="M 72.868877 307.584 
L 75.922652 307.584 
L 78.976428 307.584 
L 82.030203 307.584 
L 85.083979 307.584 
L 88.137754 307.584 
L 91.191529 307.584 
L 94.245305 307.584 
L 97.29908 307.584 
L 100.352855 307.584 
L 103.406631 307.584 
L 106.460406 307.584 
L 109.514182 307.584 
L 112.567957 307.584 
L 115.621732 307.584 
L 118.675508 307.584 
L 121.729283 307.584 
L 124.783059 307.584 
L 127.836834 307.584 
L 130.890609 307.584 
L 133.944385 307.584 
L 136.99816 307.584 
L 140.051936 307.584 
L 143.105711 307.584 
L 146.159486 307.584 
L 149.213262 307.584 
L 152.267037 307.584 
L 155.320813 307.584 
L 156.857978 307.584 
L 158.374588 306.932302 
L 160.363327 306.106525 
L 161.428363 305.669171 
L 163.623974 304.62905 
L 164.482139 304.16754 
L 166.263088 303.151574 
L 167.535914 302.383384 
L 168.694557 301.674099 
L 170.589689 300.440526 
L 170.937048 300.196624 
L 172.386028 298.719149 
L 173.643465 297.746127 
L 174.182119 297.241674 
L 175.848373 295.764199 
L 176.69724 294.843479 
L 177.210764 294.286723 
L 178.383835 292.809248 
L 179.420831 291.331773 
L 179.751016 290.406724 
L 179.927601 289.854298 
L 180.22891 288.376823 
L 180.22891 286.899348 
L 179.751016 285.490194 
L 179.725126 285.421872 
L 179.177378 283.944397 
L 178.3112 282.466922 
L 177.40341 280.989447 
L 176.69724 279.874876 
L 176.469281 279.511972 
L 175.46258 278.034497 
L 174.109532 276.557021 
L 173.643465 276.121726 
L 172.292899 275.079546 
L 170.589689 274.007906 
L 169.891298 273.602071 
L 167.535914 272.323744 
L 167.162104 272.124596 
L 164.482139 270.660309 
L 164.456494 270.647121 
L 161.428363 269.618754 
L 159.878037 269.169646 
L 158.374588 268.677707 
L 155.432316 267.69217 
L 155.320813 267.666351 
L 152.267037 267.071512 
L 149.213262 266.529692 
L 147.390878 266.214695 
L 146.159486 266.00795 
L 143.105711 265.504771 
L 140.051936 265.079318 
L 137.703943 264.73722 
L 136.99816 264.645393 
L 133.944385 264.29967 
L 130.890609 263.9829 
L 127.836834 263.656477 
L 124.783059 263.278035 
L 124.571451 263.259745 
L 121.729283 263.002365 
L 118.675508 262.598144 
L 115.621732 262.342709 
L 112.567957 262.191158 
L 109.514182 262.090292 
L 106.460406 262.090292 
L 103.406631 262.255956 
L 100.352855 262.448606 
L 97.29908 262.712557 
L 94.245305 263.058988 
L 92.785078 263.259745 
L 91.191529 263.470832 
L 88.137754 264.046017 
L 85.083979 264.560954 
L 84.220093 264.73722 
L 82.030203 265.244906 
L 78.976428 266.094413 
L 78.547862 266.214695 
L 75.922652 266.987615 
L 73.492434 267.69217 
L 72.868877 267.956047 
L 70.520423 269.169646 
L 69.815102 269.498875 
L 69.341752 270.647121 
L 68.955613 272.124596 
L 68.572367 273.602071 
L 68.225231 275.079546 
L 67.947333 276.557021 
L 67.714507 278.034497 
L 67.541279 279.511972 
L 67.383697 280.989447 
L 67.231548 282.466922 
L 67.086373 283.944397 
L 66.994569 285.421872 
L 66.90172 286.899348 
L 66.90172 288.376823 
L 66.957524 289.854298 
L 67.04557 291.331773 
L 67.219374 292.809248 
L 67.415985 294.286723 
L 67.648122 295.764199 
L 67.934842 297.241674 
L 68.211599 298.719149 
L 68.423705 300.196624 
L 68.739977 301.674099 
L 69.083948 303.151574 
L 69.457771 304.62905 
L 69.815102 305.838196 
L 70.220624 306.106525 
L 72.457761 307.584 
z
" style="fill:#ff8533;fill-opacity:0.2;"/>
   </g>
   <g id="PathCollection_9">
    <path clip-path="url(#pf02c2618a6)" d="M 63.245493 307.584 
L 66.068239 307.584 
L 68.890986 307.584 
L 71.713732 307.584 
L 74.536479 307.584 
L 77.359225 307.584 
L 80.181972 307.584 
L 83.004718 307.584 
L 85.827464 307.584 
L 88.650211 307.584 
L 91.472957 307.584 
L 94.295704 307.584 
L 97.11845 307.584 
L 99.941197 307.584 
L 102.763943 307.584 
L 105.58669 307.584 
L 108.409436 307.584 
L 111.232182 307.584 
L 114.054929 307.584 
L 116.877675 307.584 
L 119.700422 307.584 
L 122.523168 307.584 
L 125.345915 307.584 
L 128.168661 307.584 
L 130.991408 307.584 
L 133.814154 307.584 
L 136.6369 307.584 
L 139.459647 307.584 
L 142.282393 307.584 
L 145.10514 307.584 
L 147.927886 307.584 
L 150.750633 307.584 
L 153.573379 307.584 
L 156.396126 307.584 
L 159.218872 307.584 
L 162.041619 307.584 
L 164.864365 307.584 
L 165.840634 307.584 
L 166.699574 306.768868 
L 166.849691 305.953737 
L 166.353754 305.138605 
L 165.527599 304.323473 
L 164.864365 303.957584 
L 163.920018 303.508342 
L 162.041619 302.975375 
L 161.093244 302.69321 
L 159.218872 302.130073 
L 158.382041 301.878078 
L 156.396126 301.393626 
L 154.839534 301.062947 
L 153.573379 300.827657 
L 150.750633 300.392473 
L 149.455432 300.247815 
L 147.927886 300.090068 
L 145.10514 299.7154 
L 142.475936 299.432683 
L 142.282393 299.410824 
L 139.459647 299.159118 
L 136.6369 298.899402 
L 133.814154 298.680764 
L 132.951712 298.617551 
L 130.991408 298.460778 
L 128.168661 298.242316 
L 125.345915 298.014328 
L 122.962564 297.80242 
L 122.523168 297.771093 
L 119.700422 297.591606 
L 116.877675 297.427696 
L 114.054929 297.253521 
L 111.232182 297.089269 
L 109.498916 296.987288 
L 108.409436 296.9137 
L 105.58669 296.738561 
L 102.763943 296.615836 
L 99.941197 296.446706 
L 97.11845 296.315759 
L 94.295704 296.208422 
L 93.315377 296.172156 
L 91.472957 296.089786 
L 88.650211 295.954168 
L 85.827464 295.881038 
L 83.004718 295.840842 
L 80.181972 295.798426 
L 77.359225 295.798426 
L 74.536479 295.847189 
L 71.713732 295.939013 
L 68.890986 296.076229 
L 67.280836 296.172156 
L 66.068239 296.232166 
L 65.344384 296.987288 
L 64.574824 297.80242 
L 64.038787 298.617551 
L 63.522016 299.432683 
L 63.245493 299.885244 
L 63.157199 300.247815 
L 62.98622 301.062947 
L 62.848006 301.878078 
L 62.741879 302.69321 
L 62.639263 303.508342 
L 62.579751 304.323473 
L 62.546974 305.138605 
L 62.527298 305.953737 
L 62.533254 306.768868 
L 62.567331 307.584 
z
" style="fill:#00b300;fill-opacity:0.2;"/>
   </g>
   <g id="PathCollection_10">
    <path clip-path="url(#pf02c2618a6)" d="M 72.877623 307.584 
L 80.516434 307.584 
L 88.155246 307.584 
L 95.794057 307.584 
L 103.432868 307.584 
L 111.07168 307.584 
L 118.710491 307.584 
L 126.349302 307.584 
L 133.988114 307.584 
L 141.626925 307.584 
L 149.265737 307.584 
L 156.904548 307.584 
L 164.543359 307.584 
L 172.182171 307.584 
L 179.820982 307.584 
L 187.459793 307.584 
L 195.098605 307.584 
L 202.737416 307.584 
L 210.376228 307.584 
L 218.015039 307.584 
L 225.65385 307.584 
L 233.292662 307.584 
L 240.931473 307.584 
L 248.570284 307.584 
L 256.209096 307.584 
L 263.847907 307.584 
L 271.486719 307.584 
L 279.12553 307.584 
L 286.764341 307.584 
L 294.403153 307.584 
L 302.041964 307.584 
L 309.680775 307.584 
L 317.319587 307.584 
L 324.958398 307.584 
L 332.59721 307.584 
L 340.236021 307.584 
L 347.874832 307.584 
L 355.513644 307.584 
L 363.152455 307.584 
L 370.791266 307.584 
L 378.430078 307.584 
L 386.068889 307.584 
L 393.707701 307.584 
L 401.346512 307.584 
L 408.985323 307.584 
L 416.624135 307.584 
L 424.262946 307.584 
L 431.901757 307.584 
L 431.901757 306.644679 
L 431.901757 305.705358 
L 431.901757 304.766037 
L 431.901757 303.826716 
L 431.901757 302.887395 
L 431.901757 301.948073 
L 431.901757 301.008752 
L 431.901757 300.069431 
L 431.901757 299.329459 
L 424.262946 299.329459 
L 416.624135 299.329459 
L 408.985323 299.329459 
L 401.346512 299.329459 
L 393.707701 299.329459 
L 386.068889 299.329459 
L 378.430078 299.329459 
L 370.791266 299.329459 
L 363.152455 299.329459 
L 355.513644 299.329459 
L 347.874832 299.329459 
L 340.236021 299.329459 
L 332.59721 299.329459 
L 324.958398 299.329459 
L 317.319587 299.329459 
L 309.680775 299.329459 
L 302.041964 299.329459 
L 294.403153 299.329459 
L 286.764341 299.329459 
L 279.12553 299.329459 
L 271.486719 299.329459 
L 263.847907 299.329459 
L 256.209096 299.329459 
L 248.570284 299.329459 
L 240.931473 299.329459 
L 233.292662 299.329459 
L 225.65385 299.329459 
L 218.015039 299.329459 
L 210.376228 299.329459 
L 202.737416 299.329459 
L 195.098605 299.329459 
L 193.354799 299.13011 
L 187.459793 298.497283 
L 185.019139 298.190789 
L 179.820982 297.661201 
L 175.022375 297.251468 
L 172.182171 296.985306 
L 164.543359 296.46763 
L 161.302032 296.312147 
L 156.904548 296.077072 
L 149.265737 295.851512 
L 141.626925 295.741374 
L 133.988114 295.718137 
L 126.349302 295.804805 
L 118.710491 296.013022 
L 111.07168 296.245605 
L 109.071462 296.312147 
L 103.432868 296.478066 
L 95.794057 296.779017 
L 88.155246 297.165875 
L 86.379366 297.251468 
L 80.516434 297.500093 
L 72.877623 297.772048 
L 72.450094 298.190789 
L 71.703919 299.13011 
L 71.060863 300.069431 
L 70.389587 301.008752 
L 69.960844 301.948073 
L 69.609916 302.887395 
L 69.297774 303.826716 
L 69.108481 304.766037 
L 69.025115 305.705358 
L 69.023924 306.644679 
L 69.096835 307.584 
z
" style="fill:#ffff33;fill-opacity:0.2;"/>
   </g>
   <g id="matplotlib.axis_1">
    <g id="xtick_1">
     <g id="line2d_1">
      <defs>
       <path d="M 0 0 
L 0 3.5 
" id="md8a8c23001" style="stroke:#000000;stroke-width:0.8;"/>
      </defs>
      <g>
       <use style="stroke:#000000;stroke-width:0.8;" x="57.6" xlink:href="#md8a8c23001" y="307.584"/>
      </g>
     </g>
     <g id="text_1">
      <!-- 0.00 -->
      <defs>
       <path d="M 31.78125 66.40625 
Q 24.171875 66.40625 20.328125 58.90625 
Q 16.5 51.421875 16.5 36.375 
Q 16.5 21.390625 20.328125 13.890625 
Q 24.171875 6.390625 31.78125 6.390625 
Q 39.453125 6.390625 43.28125 13.890625 
Q 47.125 21.390625 47.125 36.375 
Q 47.125 51.421875 43.28125 58.90625 
Q 39.453125 66.40625 31.78125 66.40625 
z
M 31.78125 74.21875 
Q 44.046875 74.21875 50.515625 64.515625 
Q 56.984375 54.828125 56.984375 36.375 
Q 56.984375 17.96875 50.515625 8.265625 
Q 44.046875 -1.421875 31.78125 -1.421875 
Q 19.53125 -1.421875 13.0625 8.265625 
Q 6.59375 17.96875 6.59375 36.375 
Q 6.59375 54.828125 13.0625 64.515625 
Q 19.53125 74.21875 31.78125 74.21875 
z
" id="DejaVuSans-48"/>
       <path d="M 10.6875 12.40625 
L 21 12.40625 
L 21 0 
L 10.6875 0 
z
" id="DejaVuSans-46"/>
      </defs>
      <g transform="translate(37.560938 328.261187)scale(0.18 -0.18)">
       <use xlink:href="#DejaVuSans-48"/>
       <use x="63.623047" xlink:href="#DejaVuSans-46"/>
       <use x="95.410156" xlink:href="#DejaVuSans-48"/>
       <use x="159.033203" xlink:href="#DejaVuSans-48"/>
      </g>
     </g>
    </g>
    <g id="xtick_2">
     <g id="line2d_2">
      <g>
       <use style="stroke:#000000;stroke-width:0.8;" x="93.312" xlink:href="#md8a8c23001" y="307.584"/>
      </g>
     </g>
     <g id="text_2">
      <!-- 0.25 -->
      <defs>
       <path d="M 19.1875 8.296875 
L 53.609375 8.296875 
L 53.609375 0 
L 7.328125 0 
L 7.328125 8.296875 
Q 12.9375 14.109375 22.625 23.890625 
Q 32.328125 33.6875 34.8125 36.53125 
Q 39.546875 41.84375 41.421875 45.53125 
Q 43.3125 49.21875 43.3125 52.78125 
Q 43.3125 58.59375 39.234375 62.25 
Q 35.15625 65.921875 28.609375 65.921875 
Q 23.96875 65.921875 18.8125 64.3125 
Q 13.671875 62.703125 7.8125 59.421875 
L 7.8125 69.390625 
Q 13.765625 71.78125 18.9375 73 
Q 24.125 74.21875 28.421875 74.21875 
Q 39.75 74.21875 46.484375 68.546875 
Q 53.21875 62.890625 53.21875 53.421875 
Q 53.21875 48.921875 51.53125 44.890625 
Q 49.859375 40.875 45.40625 35.40625 
Q 44.1875 33.984375 37.640625 27.21875 
Q 31.109375 20.453125 19.1875 8.296875 
z
" id="DejaVuSans-50"/>
       <path d="M 10.796875 72.90625 
L 49.515625 72.90625 
L 49.515625 64.59375 
L 19.828125 64.59375 
L 19.828125 46.734375 
Q 21.96875 47.46875 24.109375 47.828125 
Q 26.265625 48.1875 28.421875 48.1875 
Q 40.625 48.1875 47.75 41.5 
Q 54.890625 34.8125 54.890625 23.390625 
Q 54.890625 11.625 47.5625 5.09375 
Q 40.234375 -1.421875 26.90625 -1.421875 
Q 22.3125 -1.421875 17.546875 -0.640625 
Q 12.796875 0.140625 7.71875 1.703125 
L 7.71875 11.625 
Q 12.109375 9.234375 16.796875 8.0625 
Q 21.484375 6.890625 26.703125 6.890625 
Q 35.15625 6.890625 40.078125 11.328125 
Q 45.015625 15.765625 45.015625 23.390625 
Q 45.015625 31 40.078125 35.4375 
Q 35.15625 39.890625 26.703125 39.890625 
Q 22.75 39.890625 18.8125 39.015625 
Q 14.890625 38.140625 10.796875 36.28125 
z
" id="DejaVuSans-53"/>
      </defs>
      <g transform="translate(73.272938 328.261187)scale(0.18 -0.18)">
       <use xlink:href="#DejaVuSans-48"/>
       <use x="63.623047" xlink:href="#DejaVuSans-46"/>
       <use x="95.410156" xlink:href="#DejaVuSans-50"/>
       <use x="159.033203" xlink:href="#DejaVuSans-53"/>
      </g>
     </g>
    </g>
    <g id="xtick_3">
     <g id="line2d_3">
      <g>
       <use style="stroke:#000000;stroke-width:0.8;" x="129.024" xlink:href="#md8a8c23001" y="307.584"/>
      </g>
     </g>
     <g id="text_3">
      <!-- 0.50 -->
      <g transform="translate(108.984938 328.261187)scale(0.18 -0.18)">
       <use xlink:href="#DejaVuSans-48"/>
       <use x="63.623047" xlink:href="#DejaVuSans-46"/>
       <use x="95.410156" xlink:href="#DejaVuSans-53"/>
       <use x="159.033203" xlink:href="#DejaVuSans-48"/>
      </g>
     </g>
    </g>
    <g id="xtick_4">
     <g id="line2d_4">
      <g>
       <use style="stroke:#000000;stroke-width:0.8;" x="164.736" xlink:href="#md8a8c23001" y="307.584"/>
      </g>
     </g>
     <g id="text_4">
      <!-- 0.75 -->
      <defs>
       <path d="M 8.203125 72.90625 
L 55.078125 72.90625 
L 55.078125 68.703125 
L 28.609375 0 
L 18.3125 0 
L 43.21875 64.59375 
L 8.203125 64.59375 
z
" id="DejaVuSans-55"/>
      </defs>
      <g transform="translate(144.696938 328.261187)scale(0.18 -0.18)">
       <use xlink:href="#DejaVuSans-48"/>
       <use x="63.623047" xlink:href="#DejaVuSans-46"/>
       <use x="95.410156" xlink:href="#DejaVuSans-55"/>
       <use x="159.033203" xlink:href="#DejaVuSans-53"/>
      </g>
     </g>
    </g>
    <g id="xtick_5">
     <g id="line2d_5">
      <g>
       <use style="stroke:#000000;stroke-width:0.8;" x="200.448" xlink:href="#md8a8c23001" y="307.584"/>
      </g>
     </g>
     <g id="text_5">
      <!-- 1.00 -->
      <defs>
       <path d="M 12.40625 8.296875 
L 28.515625 8.296875 
L 28.515625 63.921875 
L 10.984375 60.40625 
L 10.984375 69.390625 
L 28.421875 72.90625 
L 38.28125 72.90625 
L 38.28125 8.296875 
L 54.390625 8.296875 
L 54.390625 0 
L 12.40625 0 
z
" id="DejaVuSans-49"/>
      </defs>
      <g transform="translate(180.408938 328.261187)scale(0.18 -0.18)">
       <use xlink:href="#DejaVuSans-49"/>
       <use x="63.623047" xlink:href="#DejaVuSans-46"/>
       <use x="95.410156" xlink:href="#DejaVuSans-48"/>
       <use x="159.033203" xlink:href="#DejaVuSans-48"/>
      </g>
     </g>
    </g>
    <g id="xtick_6">
     <g id="line2d_6">
      <g>
       <use style="stroke:#000000;stroke-width:0.8;" x="236.16" xlink:href="#md8a8c23001" y="307.584"/>
      </g>
     </g>
     <g id="text_6">
      <!-- 1.25 -->
      <g transform="translate(216.120937 328.261187)scale(0.18 -0.18)">
       <use xlink:href="#DejaVuSans-49"/>
       <use x="63.623047" xlink:href="#DejaVuSans-46"/>
       <use x="95.410156" xlink:href="#DejaVuSans-50"/>
       <use x="159.033203" xlink:href="#DejaVuSans-53"/>
      </g>
     </g>
    </g>
    <g id="xtick_7">
     <g id="line2d_7">
      <g>
       <use style="stroke:#000000;stroke-width:0.8;" x="271.872" xlink:href="#md8a8c23001" y="307.584"/>
      </g>
     </g>
     <g id="text_7">
      <!-- 1.50 -->
      <g transform="translate(251.832938 328.261187)scale(0.18 -0.18)">
       <use xlink:href="#DejaVuSans-49"/>
       <use x="63.623047" xlink:href="#DejaVuSans-46"/>
       <use x="95.410156" xlink:href="#DejaVuSans-53"/>
       <use x="159.033203" xlink:href="#DejaVuSans-48"/>
      </g>
     </g>
    </g>
    <g id="xtick_8">
     <g id="line2d_8">
      <g>
       <use style="stroke:#000000;stroke-width:0.8;" x="307.584" xlink:href="#md8a8c23001" y="307.584"/>
      </g>
     </g>
     <g id="text_8">
      <!-- 1.75 -->
      <g transform="translate(287.544938 328.261187)scale(0.18 -0.18)">
       <use xlink:href="#DejaVuSans-49"/>
       <use x="63.623047" xlink:href="#DejaVuSans-46"/>
       <use x="95.410156" xlink:href="#DejaVuSans-55"/>
       <use x="159.033203" xlink:href="#DejaVuSans-53"/>
      </g>
     </g>
    </g>
    <g id="xtick_9">
     <g id="line2d_9">
      <g>
       <use style="stroke:#000000;stroke-width:0.8;" x="343.296" xlink:href="#md8a8c23001" y="307.584"/>
      </g>
     </g>
     <g id="text_9">
      <!-- 2.00 -->
      <g transform="translate(323.256938 328.261187)scale(0.18 -0.18)">
       <use xlink:href="#DejaVuSans-50"/>
       <use x="63.623047" xlink:href="#DejaVuSans-46"/>
       <use x="95.410156" xlink:href="#DejaVuSans-48"/>
       <use x="159.033203" xlink:href="#DejaVuSans-48"/>
      </g>
     </g>
    </g>
   </g>
   <g id="matplotlib.axis_2">
    <g id="ytick_1">
     <g id="line2d_10">
      <defs>
       <path d="M 0 0 
L -3.5 0 
" id="ma1e6a665cb" style="stroke:#000000;stroke-width:0.8;"/>
      </defs>
      <g>
       <use style="stroke:#000000;stroke-width:0.8;" x="57.6" xlink:href="#ma1e6a665cb" y="307.584"/>
      </g>
     </g>
     <g id="text_10">
      <!-- 0 -->
      <g transform="translate(39.1475 314.422594)scale(0.18 -0.18)">
       <use xlink:href="#DejaVuSans-48"/>
      </g>
     </g>
    </g>
    <g id="ytick_2">
     <g id="line2d_11">
      <g>
       <use style="stroke:#000000;stroke-width:0.8;" x="57.6" xlink:href="#ma1e6a665cb" y="260.048686"/>
      </g>
     </g>
     <g id="text_11">
      <!-- 1 -->
      <g transform="translate(39.1475 266.88728)scale(0.18 -0.18)">
       <use xlink:href="#DejaVuSans-49"/>
      </g>
     </g>
    </g>
    <g id="ytick_3">
     <g id="line2d_12">
      <g>
       <use style="stroke:#000000;stroke-width:0.8;" x="57.6" xlink:href="#ma1e6a665cb" y="212.513372"/>
      </g>
     </g>
     <g id="text_12">
      <!-- 2 -->
      <g transform="translate(39.1475 219.351966)scale(0.18 -0.18)">
       <use xlink:href="#DejaVuSans-50"/>
      </g>
     </g>
    </g>
    <g id="ytick_4">
     <g id="line2d_13">
      <g>
       <use style="stroke:#000000;stroke-width:0.8;" x="57.6" xlink:href="#ma1e6a665cb" y="164.978058"/>
      </g>
     </g>
     <g id="text_13">
      <!-- 3 -->
      <defs>
       <path d="M 40.578125 39.3125 
Q 47.65625 37.796875 51.625 33 
Q 55.609375 28.21875 55.609375 21.1875 
Q 55.609375 10.40625 48.1875 4.484375 
Q 40.765625 -1.421875 27.09375 -1.421875 
Q 22.515625 -1.421875 17.65625 -0.515625 
Q 12.796875 0.390625 7.625 2.203125 
L 7.625 11.71875 
Q 11.71875 9.328125 16.59375 8.109375 
Q 21.484375 6.890625 26.8125 6.890625 
Q 36.078125 6.890625 40.9375 10.546875 
Q 45.796875 14.203125 45.796875 21.1875 
Q 45.796875 27.640625 41.28125 31.265625 
Q 36.765625 34.90625 28.71875 34.90625 
L 20.21875 34.90625 
L 20.21875 43.015625 
L 29.109375 43.015625 
Q 36.375 43.015625 40.234375 45.921875 
Q 44.09375 48.828125 44.09375 54.296875 
Q 44.09375 59.90625 40.109375 62.90625 
Q 36.140625 65.921875 28.71875 65.921875 
Q 24.65625 65.921875 20.015625 65.03125 
Q 15.375 64.15625 9.8125 62.3125 
L 9.8125 71.09375 
Q 15.4375 72.65625 20.34375 73.4375 
Q 25.25 74.21875 29.59375 74.21875 
Q 40.828125 74.21875 47.359375 69.109375 
Q 53.90625 64.015625 53.90625 55.328125 
Q 53.90625 49.265625 50.4375 45.09375 
Q 46.96875 40.921875 40.578125 39.3125 
z
" id="DejaVuSans-51"/>
      </defs>
      <g transform="translate(39.1475 171.816651)scale(0.18 -0.18)">
       <use xlink:href="#DejaVuSans-51"/>
      </g>
     </g>
    </g>
    <g id="ytick_5">
     <g id="line2d_14">
      <g>
       <use style="stroke:#000000;stroke-width:0.8;" x="57.6" xlink:href="#ma1e6a665cb" y="117.442744"/>
      </g>
     </g>
     <g id="text_14">
      <!-- 4 -->
      <defs>
       <path d="M 37.796875 64.3125 
L 12.890625 25.390625 
L 37.796875 25.390625 
z
M 35.203125 72.90625 
L 47.609375 72.90625 
L 47.609375 25.390625 
L 58.015625 25.390625 
L 58.015625 17.1875 
L 47.609375 17.1875 
L 47.609375 0 
L 37.796875 0 
L 37.796875 17.1875 
L 4.890625 17.1875 
L 4.890625 26.703125 
z
" id="DejaVuSans-52"/>
      </defs>
      <g transform="translate(39.1475 124.281337)scale(0.18 -0.18)">
       <use xlink:href="#DejaVuSans-52"/>
      </g>
     </g>
    </g>
    <g id="ytick_6">
     <g id="line2d_15">
      <g>
       <use style="stroke:#000000;stroke-width:0.8;" x="57.6" xlink:href="#ma1e6a665cb" y="69.907429"/>
      </g>
     </g>
     <g id="text_15">
      <!-- 5 -->
      <g transform="translate(39.1475 76.746023)scale(0.18 -0.18)">
       <use xlink:href="#DejaVuSans-53"/>
      </g>
     </g>
    </g>
   </g>
   <g id="LineCollection_1">
    <path clip-path="url(#pf02c2618a6)" d="M 128.446984 307.584 
L 129.622506 306.854618 
L 130.493917 306.125236 
L 130.902179 305.395854 
L 130.855593 304.666473 
L 130.549353 303.937091 
L 129.860407 303.207709 
L 128.869891 302.478327 
L 128.106321 302.025423 
L 127.554436 301.748945 
L 125.841548 301.019563 
L 124.901488 300.721193 
L 123.742288 300.290181 
L 121.696656 299.59165 
L 121.604798 299.5608 
L 119.395632 298.831418 
L 118.491823 298.565615 
L 116.798554 298.102036 
L 115.28699 297.744752 
L 113.648699 297.372654 
L 112.082157 296.992221 
L 110.62036 296.643272 
L 108.877324 296.177426 
L 107.814657 295.91389 
L 105.672492 295.424501 
L 104.249995 295.184508 
L 102.467659 294.887207 
L 100.239359 294.455127 
L 99.262826 294.245037 
L 96.057993 293.801843 
L 95.443239 293.725745 
L 92.853161 293.429929 
L 89.648328 293.128238 
L 87.449387 292.996363 
L 86.443495 292.938946 
L 83.238662 292.853801 
L 80.033829 292.86022 
L 76.828997 292.960912 
L 76.051607 292.996363 
L 73.624164 293.112316 
L 70.419331 293.372994 
L 70.013155 293.725745 
L 69.275449 294.455127 
L 68.50323 295.184508 
L 67.79069 295.91389 
L 67.214498 296.58406 
L 67.201852 296.643272 
L 67.027668 297.372654 
L 66.851609 298.102036 
L 66.706997 298.831418 
L 66.582429 299.5608 
L 66.465308 300.290181 
L 66.359847 301.019563 
L 66.283271 301.748945 
L 66.219318 302.478327 
L 66.168363 303.207709 
L 66.132922 303.937091 
L 66.117168 304.666473 
L 66.114771 305.395854 
L 66.135773 306.125236 
L 66.180601 306.854618 
L 66.241073 307.584 
" style="fill:none;stroke:#4d94ff;stroke-width:1.5;"/>
   </g>
   <g id="LineCollection_2">
    <path clip-path="url(#pf02c2618a6)" d="M 156.857978 307.584 
L 158.374588 306.932302 
L 160.363327 306.106525 
L 161.428363 305.669171 
L 163.623974 304.62905 
L 164.482139 304.16754 
L 166.263088 303.151574 
L 167.535914 302.383384 
L 168.694557 301.674099 
L 170.589689 300.440526 
L 170.937048 300.196624 
L 172.386028 298.719149 
L 173.643465 297.746127 
L 174.182119 297.241674 
L 175.848373 295.764199 
L 176.69724 294.843479 
L 177.210764 294.286723 
L 178.383835 292.809248 
L 179.420831 291.331773 
L 179.751016 290.406724 
L 179.927601 289.854298 
L 180.22891 288.376823 
L 180.22891 286.899348 
L 179.751016 285.490194 
L 179.725126 285.421872 
L 179.177378 283.944397 
L 178.3112 282.466922 
L 177.40341 280.989447 
L 176.69724 279.874876 
L 176.469281 279.511972 
L 175.46258 278.034497 
L 174.109532 276.557021 
L 173.643465 276.121726 
L 172.292899 275.079546 
L 170.589689 274.007906 
L 169.891298 273.602071 
L 167.535914 272.323744 
L 167.162104 272.124596 
L 164.482139 270.660309 
L 164.456494 270.647121 
L 161.428363 269.618754 
L 159.878037 269.169646 
L 158.374588 268.677707 
L 155.432316 267.69217 
L 155.320813 267.666351 
L 152.267037 267.071512 
L 149.213262 266.529692 
L 147.390878 266.214695 
L 146.159486 266.00795 
L 143.105711 265.504771 
L 140.051936 265.079318 
L 137.703943 264.73722 
L 136.99816 264.645393 
L 133.944385 264.29967 
L 130.890609 263.9829 
L 127.836834 263.656477 
L 124.783059 263.278035 
L 124.571451 263.259745 
L 121.729283 263.002365 
L 118.675508 262.598144 
L 115.621732 262.342709 
L 112.567957 262.191158 
L 109.514182 262.090292 
L 106.460406 262.090292 
L 103.406631 262.255956 
L 100.352855 262.448606 
L 97.29908 262.712557 
L 94.245305 263.058988 
L 92.785078 263.259745 
L 91.191529 263.470832 
L 88.137754 264.046017 
L 85.083979 264.560954 
L 84.220093 264.73722 
L 82.030203 265.244906 
L 78.976428 266.094413 
L 78.547862 266.214695 
L 75.922652 266.987615 
L 73.492434 267.69217 
L 72.868877 267.956047 
L 70.520423 269.169646 
L 69.815102 269.498875 
L 69.341752 270.647121 
L 68.955613 272.124596 
L 68.572367 273.602071 
L 68.225231 275.079546 
L 67.947333 276.557021 
L 67.714507 278.034497 
L 67.541279 279.511972 
L 67.383697 280.989447 
L 67.231548 282.466922 
L 67.086373 283.944397 
L 66.994569 285.421872 
L 66.90172 286.899348 
L 66.90172 288.376823 
L 66.957524 289.854298 
L 67.04557 291.331773 
L 67.219374 292.809248 
L 67.415985 294.286723 
L 67.648122 295.764199 
L 67.934842 297.241674 
L 68.211599 298.719149 
L 68.423705 300.196624 
L 68.739977 301.674099 
L 69.083948 303.151574 
L 69.457771 304.62905 
L 69.815102 305.838196 
L 70.220624 306.106525 
L 72.457761 307.584 
" style="fill:none;stroke:#ff8533;stroke-width:1.5;"/>
   </g>
   <g id="LineCollection_3">
    <path clip-path="url(#pf02c2618a6)" d="M 165.840634 307.584 
L 166.699574 306.768868 
L 166.849691 305.953737 
L 166.353754 305.138605 
L 165.527599 304.323473 
L 164.864365 303.957584 
L 163.920018 303.508342 
L 162.041619 302.975375 
L 161.093244 302.69321 
L 159.218872 302.130073 
L 158.382041 301.878078 
L 156.396126 301.393626 
L 154.839534 301.062947 
L 153.573379 300.827657 
L 150.750633 300.392473 
L 149.455432 300.247815 
L 147.927886 300.090068 
L 145.10514 299.7154 
L 142.475936 299.432683 
L 142.282393 299.410824 
L 139.459647 299.159118 
L 136.6369 298.899402 
L 133.814154 298.680764 
L 132.951712 298.617551 
L 130.991408 298.460778 
L 128.168661 298.242316 
L 125.345915 298.014328 
L 122.962564 297.80242 
L 122.523168 297.771093 
L 119.700422 297.591606 
L 116.877675 297.427696 
L 114.054929 297.253521 
L 111.232182 297.089269 
L 109.498916 296.987288 
L 108.409436 296.9137 
L 105.58669 296.738561 
L 102.763943 296.615836 
L 99.941197 296.446706 
L 97.11845 296.315759 
L 94.295704 296.208422 
L 93.315377 296.172156 
L 91.472957 296.089786 
L 88.650211 295.954168 
L 85.827464 295.881038 
L 83.004718 295.840842 
L 80.181972 295.798426 
L 77.359225 295.798426 
L 74.536479 295.847189 
L 71.713732 295.939013 
L 68.890986 296.076229 
L 67.280836 296.172156 
L 66.068239 296.232166 
L 65.344384 296.987288 
L 64.574824 297.80242 
L 64.038787 298.617551 
L 63.522016 299.432683 
L 63.245493 299.885244 
L 63.157199 300.247815 
L 62.98622 301.062947 
L 62.848006 301.878078 
L 62.741879 302.69321 
L 62.639263 303.508342 
L 62.579751 304.323473 
L 62.546974 305.138605 
L 62.527298 305.953737 
L 62.533254 306.768868 
L 62.567331 307.584 
" style="fill:none;stroke:#00b300;stroke-width:1.5;"/>
   </g>
   <g id="LineCollection_4">
    <path clip-path="url(#pf02c2618a6)" d="M 431.901757 299.329459 
L 424.262946 299.329459 
L 416.624135 299.329459 
L 408.985323 299.329459 
L 401.346512 299.329459 
L 393.707701 299.329459 
L 386.068889 299.329459 
L 378.430078 299.329459 
L 370.791266 299.329459 
L 363.152455 299.329459 
L 355.513644 299.329459 
L 347.874832 299.329459 
L 340.236021 299.329459 
L 332.59721 299.329459 
L 324.958398 299.329459 
L 317.319587 299.329459 
L 309.680775 299.329459 
L 302.041964 299.329459 
L 294.403153 299.329459 
L 286.764341 299.329459 
L 279.12553 299.329459 
L 271.486719 299.329459 
L 263.847907 299.329459 
L 256.209096 299.329459 
L 248.570284 299.329459 
L 240.931473 299.329459 
L 233.292662 299.329459 
L 225.65385 299.329459 
L 218.015039 299.329459 
L 210.376228 299.329459 
L 202.737416 299.329459 
L 195.098605 299.329459 
L 193.354799 299.13011 
L 187.459793 298.497283 
L 185.019139 298.190789 
L 179.820982 297.661201 
L 175.022375 297.251468 
L 172.182171 296.985306 
L 164.543359 296.46763 
L 161.302032 296.312147 
L 156.904548 296.077072 
L 149.265737 295.851512 
L 141.626925 295.741374 
L 133.988114 295.718137 
L 126.349302 295.804805 
L 118.710491 296.013022 
L 111.07168 296.245605 
L 109.071462 296.312147 
L 103.432868 296.478066 
L 95.794057 296.779017 
L 88.155246 297.165875 
L 86.379366 297.251468 
L 80.516434 297.500093 
L 72.877623 297.772048 
L 72.450094 298.190789 
L 71.703919 299.13011 
L 71.060863 300.069431 
L 70.389587 301.008752 
L 69.960844 301.948073 
L 69.609916 302.887395 
L 69.297774 303.826716 
L 69.108481 304.766037 
L 69.025115 305.705358 
L 69.023924 306.644679 
L 69.096835 307.584 
" style="fill:none;stroke:#ffff33;stroke-width:1.5;"/>
   </g>
   <g id="patch_3">
    <path d="M 57.6 307.584 
L 57.6 41.472 
" style="fill:none;stroke:#000000;stroke-linecap:square;stroke-linejoin:miter;stroke-width:0.8;"/>
   </g>
   <g id="patch_4">
    <path d="M 343.296 307.584 
L 343.296 41.472 
" style="fill:none;stroke:#000000;stroke-linecap:square;stroke-linejoin:miter;stroke-width:0.8;"/>
   </g>
   <g id="patch_5">
    <path d="M 57.6 307.584 
L 343.296 307.584 
" style="fill:none;stroke:#000000;stroke-linecap:square;stroke-linejoin:miter;stroke-width:0.8;"/>
   </g>
   <g id="patch_6">
    <path d="M 57.6 41.472 
L 343.296 41.472 
" style="fill:none;stroke:#000000;stroke-linecap:square;stroke-linejoin:miter;stroke-width:0.8;"/>
   </g>
  </g>
  <g id="axes_2">
   <g id="patch_7">
    <path clip-path="url(#peb9f1f9bac)" d="M 367.2 307.584 
L 361.152 295.488 
L 361.152 53.568 
L 367.2 41.472 
L 367.2 41.472 
L 373.248 53.568 
L 373.248 295.488 
L 367.2 307.584 
z
" style="fill:#ffffff;stroke:#ffffff;stroke-linejoin:miter;stroke-width:0.01;"/>
   </g>
   <g id="QuadMesh_1">
    <path clip-path="url(#peb9f1f9bac)" d="M 367.2 307.584 
L 367.2 307.584 
L 373.248 295.488 
L 361.152 295.488 
L 367.2 307.584 
" style="fill:#ffffff;"/>
    <path clip-path="url(#peb9f1f9bac)" d="M 361.152 295.488 
L 373.248 295.488 
L 373.248 235.008 
L 361.152 235.008 
L 361.152 295.488 
" style="fill:#ffffff;"/>
    <path clip-path="url(#peb9f1f9bac)" d="M 361.152 235.008 
L 373.248 235.008 
L 373.248 174.528 
L 361.152 174.528 
L 361.152 235.008 
" style="fill:#f0f0f0;"/>
    <path clip-path="url(#peb9f1f9bac)" d="M 361.152 174.528 
L 373.248 174.528 
L 373.248 114.048 
L 361.152 114.048 
L 361.152 174.528 
" style="fill:#d3d3d3;"/>
    <path clip-path="url(#peb9f1f9bac)" d="M 361.152 114.048 
L 373.248 114.048 
L 373.248 53.568 
L 361.152 53.568 
L 361.152 114.048 
" style="fill:#b8b8b8;"/>
    <path clip-path="url(#peb9f1f9bac)" d="M 361.152 53.568 
L 373.248 53.568 
L 367.2 41.472 
L 367.2 41.472 
L 361.152 53.568 
" style="fill:#a0a0a0;"/>
   </g>
   <g id="matplotlib.axis_3"/>
   <g id="matplotlib.axis_4">
    <g id="ytick_7">
     <g id="line2d_16">
      <defs>
       <path d="M 0 0 
L 3.5 0 
" id="m5dee000875" style="stroke:#000000;stroke-width:0.8;"/>
      </defs>
      <g>
       <use style="stroke:#000000;stroke-width:0.8;" x="373.248" xlink:href="#m5dee000875" y="295.488"/>
      </g>
     </g>
     <g id="text_16">
      <!-- 0.0000 -->
      <g transform="translate(380.248 302.326594)scale(0.18 -0.18)">
       <use xlink:href="#DejaVuSans-48"/>
       <use x="63.623047" xlink:href="#DejaVuSans-46"/>
       <use x="95.410156" xlink:href="#DejaVuSans-48"/>
       <use x="159.033203" xlink:href="#DejaVuSans-48"/>
       <use x="222.65625" xlink:href="#DejaVuSans-48"/>
       <use x="286.279297" xlink:href="#DejaVuSans-48"/>
      </g>
     </g>
    </g>
    <g id="ytick_8">
     <g id="line2d_17">
      <g>
       <use style="stroke:#000000;stroke-width:0.8;" x="373.248" xlink:href="#m5dee000875" y="235.008"/>
      </g>
     </g>
     <g id="text_17">
      <!-- 0.0139 -->
      <defs>
       <path d="M 10.984375 1.515625 
L 10.984375 10.5 
Q 14.703125 8.734375 18.5 7.8125 
Q 22.3125 6.890625 25.984375 6.890625 
Q 35.75 6.890625 40.890625 13.453125 
Q 46.046875 20.015625 46.78125 33.40625 
Q 43.953125 29.203125 39.59375 26.953125 
Q 35.25 24.703125 29.984375 24.703125 
Q 19.046875 24.703125 12.671875 31.3125 
Q 6.296875 37.9375 6.296875 49.421875 
Q 6.296875 60.640625 12.9375 67.421875 
Q 19.578125 74.21875 30.609375 74.21875 
Q 43.265625 74.21875 49.921875 64.515625 
Q 56.59375 54.828125 56.59375 36.375 
Q 56.59375 19.140625 48.40625 8.859375 
Q 40.234375 -1.421875 26.421875 -1.421875 
Q 22.703125 -1.421875 18.890625 -0.6875 
Q 15.09375 0.046875 10.984375 1.515625 
z
M 30.609375 32.421875 
Q 37.25 32.421875 41.125 36.953125 
Q 45.015625 41.5 45.015625 49.421875 
Q 45.015625 57.28125 41.125 61.84375 
Q 37.25 66.40625 30.609375 66.40625 
Q 23.96875 66.40625 20.09375 61.84375 
Q 16.21875 57.28125 16.21875 49.421875 
Q 16.21875 41.5 20.09375 36.953125 
Q 23.96875 32.421875 30.609375 32.421875 
z
" id="DejaVuSans-57"/>
      </defs>
      <g transform="translate(380.248 241.846594)scale(0.18 -0.18)">
       <use xlink:href="#DejaVuSans-48"/>
       <use x="63.623047" xlink:href="#DejaVuSans-46"/>
       <use x="95.410156" xlink:href="#DejaVuSans-48"/>
       <use x="159.033203" xlink:href="#DejaVuSans-49"/>
       <use x="222.65625" xlink:href="#DejaVuSans-51"/>
       <use x="286.279297" xlink:href="#DejaVuSans-57"/>
      </g>
     </g>
    </g>
    <g id="ytick_9">
     <g id="line2d_18">
      <g>
       <use style="stroke:#000000;stroke-width:0.8;" x="373.248" xlink:href="#m5dee000875" y="174.528"/>
      </g>
     </g>
     <g id="text_18">
      <!-- 0.0556 -->
      <defs>
       <path d="M 33.015625 40.375 
Q 26.375 40.375 22.484375 35.828125 
Q 18.609375 31.296875 18.609375 23.390625 
Q 18.609375 15.53125 22.484375 10.953125 
Q 26.375 6.390625 33.015625 6.390625 
Q 39.65625 6.390625 43.53125 10.953125 
Q 47.40625 15.53125 47.40625 23.390625 
Q 47.40625 31.296875 43.53125 35.828125 
Q 39.65625 40.375 33.015625 40.375 
z
M 52.59375 71.296875 
L 52.59375 62.3125 
Q 48.875 64.0625 45.09375 64.984375 
Q 41.3125 65.921875 37.59375 65.921875 
Q 27.828125 65.921875 22.671875 59.328125 
Q 17.53125 52.734375 16.796875 39.40625 
Q 19.671875 43.65625 24.015625 45.921875 
Q 28.375 48.1875 33.59375 48.1875 
Q 44.578125 48.1875 50.953125 41.515625 
Q 57.328125 34.859375 57.328125 23.390625 
Q 57.328125 12.15625 50.6875 5.359375 
Q 44.046875 -1.421875 33.015625 -1.421875 
Q 20.359375 -1.421875 13.671875 8.265625 
Q 6.984375 17.96875 6.984375 36.375 
Q 6.984375 53.65625 15.1875 63.9375 
Q 23.390625 74.21875 37.203125 74.21875 
Q 40.921875 74.21875 44.703125 73.484375 
Q 48.484375 72.75 52.59375 71.296875 
z
" id="DejaVuSans-54"/>
      </defs>
      <g transform="translate(380.248 181.366594)scale(0.18 -0.18)">
       <use xlink:href="#DejaVuSans-48"/>
       <use x="63.623047" xlink:href="#DejaVuSans-46"/>
       <use x="95.410156" xlink:href="#DejaVuSans-48"/>
       <use x="159.033203" xlink:href="#DejaVuSans-53"/>
       <use x="222.65625" xlink:href="#DejaVuSans-53"/>
       <use x="286.279297" xlink:href="#DejaVuSans-54"/>
      </g>
     </g>
    </g>
    <g id="ytick_10">
     <g id="line2d_19">
      <g>
       <use style="stroke:#000000;stroke-width:0.8;" x="373.248" xlink:href="#m5dee000875" y="114.048"/>
      </g>
     </g>
     <g id="text_19">
      <!-- 0.1529 -->
      <g transform="translate(380.248 120.886594)scale(0.18 -0.18)">
       <use xlink:href="#DejaVuSans-48"/>
       <use x="63.623047" xlink:href="#DejaVuSans-46"/>
       <use x="95.410156" xlink:href="#DejaVuSans-49"/>
       <use x="159.033203" xlink:href="#DejaVuSans-53"/>
       <use x="222.65625" xlink:href="#DejaVuSans-50"/>
       <use x="286.279297" xlink:href="#DejaVuSans-57"/>
      </g>
     </g>
    </g>
    <g id="ytick_11">
     <g id="line2d_20">
      <g>
       <use style="stroke:#000000;stroke-width:0.8;" x="373.248" xlink:href="#m5dee000875" y="53.568"/>
      </g>
     </g>
     <g id="text_20">
      <!-- 0.3892 -->
      <defs>
       <path d="M 31.78125 34.625 
Q 24.75 34.625 20.71875 30.859375 
Q 16.703125 27.09375 16.703125 20.515625 
Q 16.703125 13.921875 20.71875 10.15625 
Q 24.75 6.390625 31.78125 6.390625 
Q 38.8125 6.390625 42.859375 10.171875 
Q 46.921875 13.96875 46.921875 20.515625 
Q 46.921875 27.09375 42.890625 30.859375 
Q 38.875 34.625 31.78125 34.625 
z
M 21.921875 38.8125 
Q 15.578125 40.375 12.03125 44.71875 
Q 8.5 49.078125 8.5 55.328125 
Q 8.5 64.0625 14.71875 69.140625 
Q 20.953125 74.21875 31.78125 74.21875 
Q 42.671875 74.21875 48.875 69.140625 
Q 55.078125 64.0625 55.078125 55.328125 
Q 55.078125 49.078125 51.53125 44.71875 
Q 48 40.375 41.703125 38.8125 
Q 48.828125 37.15625 52.796875 32.3125 
Q 56.78125 27.484375 56.78125 20.515625 
Q 56.78125 9.90625 50.3125 4.234375 
Q 43.84375 -1.421875 31.78125 -1.421875 
Q 19.734375 -1.421875 13.25 4.234375 
Q 6.78125 9.90625 6.78125 20.515625 
Q 6.78125 27.484375 10.78125 32.3125 
Q 14.796875 37.15625 21.921875 38.8125 
z
M 18.3125 54.390625 
Q 18.3125 48.734375 21.84375 45.5625 
Q 25.390625 42.390625 31.78125 42.390625 
Q 38.140625 42.390625 41.71875 45.5625 
Q 45.3125 48.734375 45.3125 54.390625 
Q 45.3125 60.0625 41.71875 63.234375 
Q 38.140625 66.40625 31.78125 66.40625 
Q 25.390625 66.40625 21.84375 63.234375 
Q 18.3125 60.0625 18.3125 54.390625 
z
" id="DejaVuSans-56"/>
      </defs>
      <g transform="translate(380.248 60.406594)scale(0.18 -0.18)">
       <use xlink:href="#DejaVuSans-48"/>
       <use x="63.623047" xlink:href="#DejaVuSans-46"/>
       <use x="95.410156" xlink:href="#DejaVuSans-51"/>
       <use x="159.033203" xlink:href="#DejaVuSans-56"/>
       <use x="222.65625" xlink:href="#DejaVuSans-57"/>
       <use x="286.279297" xlink:href="#DejaVuSans-50"/>
      </g>
     </g>
    </g>
   </g>
   <g id="patch_8">
    <path d="M 367.2 307.584 
L 361.152 295.488 
L 361.152 53.568 
L 367.2 41.472 
L 367.2 41.472 
L 373.248 53.568 
L 373.248 295.488 
L 367.2 307.584 
z
" style="fill:none;stroke:#000000;stroke-linejoin:miter;stroke-width:0.8;"/>
   </g>
  </g>
 </g>
 <defs>
  <clipPath id="pf02c2618a6">
   <rect height="266.112" width="285.696" x="57.6" y="41.472"/>
  </clipPath>
  <clipPath id="peb9f1f9bac">
   <rect height="266.112" width="12.096" x="361.152" y="41.472"/>
  </clipPath>
 </defs>
</svg>
