<?xml version="1.0" encoding="utf-8" standalone="no"?>
<!DOCTYPE svg PUBLIC "-//W3C//DTD SVG 1.1//EN"
  "http://www.w3.org/Graphics/SVG/1.1/DTD/svg11.dtd">
<!-- Created with matplotlib (https://matplotlib.org/) -->
<svg height="345.6pt" version="1.1" viewBox="0 0 460.8 345.6" width="460.8pt" xmlns="http://www.w3.org/2000/svg" xmlns:xlink="http://www.w3.org/1999/xlink">
 <defs>
  <style type="text/css">
*{stroke-linecap:butt;stroke-linejoin:round;}
  </style>
 </defs>
 <g id="figure_1">
  <g id="patch_1">
   <path d="M 0 345.6 
L 460.8 345.6 
L 460.8 0 
L 0 0 
z
" style="fill:#ffffff;"/>
  </g>
  <g id="axes_1">
   <g id="patch_2">
    <path d="M 57.6 307.584 
L 219.927273 307.584 
L 219.927273 41.472 
L 57.6 41.472 
z
" style="fill:#ffffff;"/>
   </g>
   <g id="matplotlib.axis_1">
    <g id="xtick_1">
     <g id="line2d_1">
      <defs>
       <path d="M 0 0 
L 0 3.5 
" id="m526371e2ac" style="stroke:#000000;stroke-width:0.8;"/>
      </defs>
      <g>
       <use style="stroke:#000000;stroke-width:0.8;" x="212.911341" xlink:href="#m526371e2ac" y="307.584"/>
      </g>
     </g>
     <g id="text_1">
      <!-- 0 -->
      <defs>
       <path d="M 31.78125 66.40625 
Q 24.171875 66.40625 20.328125 58.90625 
Q 16.5 51.421875 16.5 36.375 
Q 16.5 21.390625 20.328125 13.890625 
Q 24.171875 6.390625 31.78125 6.390625 
Q 39.453125 6.390625 43.28125 13.890625 
Q 47.125 21.390625 47.125 36.375 
Q 47.125 51.421875 43.28125 58.90625 
Q 39.453125 66.40625 31.78125 66.40625 
z
M 31.78125 74.21875 
Q 44.046875 74.21875 50.515625 64.515625 
Q 56.984375 54.828125 56.984375 36.375 
Q 56.984375 17.96875 50.515625 8.265625 
Q 44.046875 -1.421875 31.78125 -1.421875 
Q 19.53125 -1.421875 13.0625 8.265625 
Q 6.59375 17.96875 6.59375 36.375 
Q 6.59375 54.828125 13.0625 64.515625 
Q 19.53125 74.21875 31.78125 74.21875 
z
" id="DejaVuSans-48"/>
      </defs>
      <g transform="translate(208.139466 325.981656)scale(0.15 -0.15)">
       <use xlink:href="#DejaVuSans-48"/>
      </g>
     </g>
    </g>
    <g id="xtick_2">
     <g id="line2d_2">
      <g>
       <use style="stroke:#000000;stroke-width:0.8;" x="174.974009" xlink:href="#m526371e2ac" y="307.584"/>
      </g>
     </g>
     <g id="text_2">
      <!-- 1 -->
      <defs>
       <path d="M 12.40625 8.296875 
L 28.515625 8.296875 
L 28.515625 63.921875 
L 10.984375 60.40625 
L 10.984375 69.390625 
L 28.421875 72.90625 
L 38.28125 72.90625 
L 38.28125 8.296875 
L 54.390625 8.296875 
L 54.390625 0 
L 12.40625 0 
z
" id="DejaVuSans-49"/>
      </defs>
      <g transform="translate(170.202134 325.981656)scale(0.15 -0.15)">
       <use xlink:href="#DejaVuSans-49"/>
      </g>
     </g>
    </g>
    <g id="xtick_3">
     <g id="line2d_3">
      <g>
       <use style="stroke:#000000;stroke-width:0.8;" x="137.036678" xlink:href="#m526371e2ac" y="307.584"/>
      </g>
     </g>
     <g id="text_3">
      <!-- 2 -->
      <defs>
       <path d="M 19.1875 8.296875 
L 53.609375 8.296875 
L 53.609375 0 
L 7.328125 0 
L 7.328125 8.296875 
Q 12.9375 14.109375 22.625 23.890625 
Q 32.328125 33.6875 34.8125 36.53125 
Q 39.546875 41.84375 41.421875 45.53125 
Q 43.3125 49.21875 43.3125 52.78125 
Q 43.3125 58.59375 39.234375 62.25 
Q 35.15625 65.921875 28.609375 65.921875 
Q 23.96875 65.921875 18.8125 64.3125 
Q 13.671875 62.703125 7.8125 59.421875 
L 7.8125 69.390625 
Q 13.765625 71.78125 18.9375 73 
Q 24.125 74.21875 28.421875 74.21875 
Q 39.75 74.21875 46.484375 68.546875 
Q 53.21875 62.890625 53.21875 53.421875 
Q 53.21875 48.921875 51.53125 44.890625 
Q 49.859375 40.875 45.40625 35.40625 
Q 44.1875 33.984375 37.640625 27.21875 
Q 31.109375 20.453125 19.1875 8.296875 
z
" id="DejaVuSans-50"/>
      </defs>
      <g transform="translate(132.264803 325.981656)scale(0.15 -0.15)">
       <use xlink:href="#DejaVuSans-50"/>
      </g>
     </g>
    </g>
    <g id="xtick_4">
     <g id="line2d_4">
      <g>
       <use style="stroke:#000000;stroke-width:0.8;" x="99.099347" xlink:href="#m526371e2ac" y="307.584"/>
      </g>
     </g>
     <g id="text_4">
      <!-- 3 -->
      <defs>
       <path d="M 40.578125 39.3125 
Q 47.65625 37.796875 51.625 33 
Q 55.609375 28.21875 55.609375 21.1875 
Q 55.609375 10.40625 48.1875 4.484375 
Q 40.765625 -1.421875 27.09375 -1.421875 
Q 22.515625 -1.421875 17.65625 -0.515625 
Q 12.796875 0.390625 7.625 2.203125 
L 7.625 11.71875 
Q 11.71875 9.328125 16.59375 8.109375 
Q 21.484375 6.890625 26.8125 6.890625 
Q 36.078125 6.890625 40.9375 10.546875 
Q 45.796875 14.203125 45.796875 21.1875 
Q 45.796875 27.640625 41.28125 31.265625 
Q 36.765625 34.90625 28.71875 34.90625 
L 20.21875 34.90625 
L 20.21875 43.015625 
L 29.109375 43.015625 
Q 36.375 43.015625 40.234375 45.921875 
Q 44.09375 48.828125 44.09375 54.296875 
Q 44.09375 59.90625 40.109375 62.90625 
Q 36.140625 65.921875 28.71875 65.921875 
Q 24.65625 65.921875 20.015625 65.03125 
Q 15.375 64.15625 9.8125 62.3125 
L 9.8125 71.09375 
Q 15.4375 72.65625 20.34375 73.4375 
Q 25.25 74.21875 29.59375 74.21875 
Q 40.828125 74.21875 47.359375 69.109375 
Q 53.90625 64.015625 53.90625 55.328125 
Q 53.90625 49.265625 50.4375 45.09375 
Q 46.96875 40.921875 40.578125 39.3125 
z
" id="DejaVuSans-51"/>
      </defs>
      <g transform="translate(94.327472 325.981656)scale(0.15 -0.15)">
       <use xlink:href="#DejaVuSans-51"/>
      </g>
     </g>
    </g>
    <g id="xtick_5">
     <g id="line2d_5">
      <g>
       <use style="stroke:#000000;stroke-width:0.8;" x="61.162015" xlink:href="#m526371e2ac" y="307.584"/>
      </g>
     </g>
     <g id="text_5">
      <!-- 4 -->
      <defs>
       <path d="M 37.796875 64.3125 
L 12.890625 25.390625 
L 37.796875 25.390625 
z
M 35.203125 72.90625 
L 47.609375 72.90625 
L 47.609375 25.390625 
L 58.015625 25.390625 
L 58.015625 17.1875 
L 47.609375 17.1875 
L 47.609375 0 
L 37.796875 0 
L 37.796875 17.1875 
L 4.890625 17.1875 
L 4.890625 26.703125 
z
" id="DejaVuSans-52"/>
      </defs>
      <g transform="translate(56.39014 325.981656)scale(0.15 -0.15)">
       <use xlink:href="#DejaVuSans-52"/>
      </g>
     </g>
    </g>
    <g id="text_6">
     <!-- PDF -->
     <defs>
      <path d="M 19.671875 64.796875 
L 19.671875 37.40625 
L 32.078125 37.40625 
Q 38.96875 37.40625 42.71875 40.96875 
Q 46.484375 44.53125 46.484375 51.125 
Q 46.484375 57.671875 42.71875 61.234375 
Q 38.96875 64.796875 32.078125 64.796875 
z
M 9.8125 72.90625 
L 32.078125 72.90625 
Q 44.34375 72.90625 50.609375 67.359375 
Q 56.890625 61.8125 56.890625 51.125 
Q 56.890625 40.328125 50.609375 34.8125 
Q 44.34375 29.296875 32.078125 29.296875 
L 19.671875 29.296875 
L 19.671875 0 
L 9.8125 0 
z
" id="DejaVuSans-80"/>
      <path d="M 19.671875 64.796875 
L 19.671875 8.109375 
L 31.59375 8.109375 
Q 46.6875 8.109375 53.6875 14.9375 
Q 60.6875 21.78125 60.6875 36.53125 
Q 60.6875 51.171875 53.6875 57.984375 
Q 46.6875 64.796875 31.59375 64.796875 
z
M 9.8125 72.90625 
L 30.078125 72.90625 
Q 51.265625 72.90625 61.171875 64.09375 
Q 71.09375 55.28125 71.09375 36.53125 
Q 71.09375 17.671875 61.125 8.828125 
Q 51.171875 0 30.078125 0 
L 9.8125 0 
z
" id="DejaVuSans-68"/>
      <path d="M 9.8125 72.90625 
L 51.703125 72.90625 
L 51.703125 64.59375 
L 19.671875 64.59375 
L 19.671875 43.109375 
L 48.578125 43.109375 
L 48.578125 34.8125 
L 19.671875 34.8125 
L 19.671875 0 
L 9.8125 0 
z
" id="DejaVuSans-70"/>
     </defs>
     <g transform="translate(122.204574 346.018531)scale(0.17 -0.17)">
      <use xlink:href="#DejaVuSans-80"/>
      <use x="60.302734" xlink:href="#DejaVuSans-68"/>
      <use x="137.304688" xlink:href="#DejaVuSans-70"/>
     </g>
    </g>
   </g>
   <g id="matplotlib.axis_2">
    <g id="ytick_1">
     <g id="line2d_6">
      <defs>
       <path d="M 0 0 
L -3.5 0 
" id="mf4eafac142" style="stroke:#000000;stroke-width:0.8;"/>
      </defs>
      <g>
       <use style="stroke:#000000;stroke-width:0.8;" x="57.6" xlink:href="#mf4eafac142" y="53.568"/>
      </g>
     </g>
     <g id="text_7">
      <!-- 0.00 -->
      <defs>
       <path d="M 10.6875 12.40625 
L 21 12.40625 
L 21 0 
L 10.6875 0 
z
" id="DejaVuSans-46"/>
      </defs>
      <g transform="translate(17.201563 59.266828)scale(0.15 -0.15)">
       <use xlink:href="#DejaVuSans-48"/>
       <use x="63.623047" xlink:href="#DejaVuSans-46"/>
       <use x="95.410156" xlink:href="#DejaVuSans-48"/>
       <use x="159.033203" xlink:href="#DejaVuSans-48"/>
      </g>
     </g>
    </g>
    <g id="ytick_2">
     <g id="line2d_7">
      <g>
       <use style="stroke:#000000;stroke-width:0.8;" x="57.6" xlink:href="#mf4eafac142" y="85.009235"/>
      </g>
     </g>
     <g id="text_8">
      <!-- 0.25 -->
      <defs>
       <path d="M 10.796875 72.90625 
L 49.515625 72.90625 
L 49.515625 64.59375 
L 19.828125 64.59375 
L 19.828125 46.734375 
Q 21.96875 47.46875 24.109375 47.828125 
Q 26.265625 48.1875 28.421875 48.1875 
Q 40.625 48.1875 47.75 41.5 
Q 54.890625 34.8125 54.890625 23.390625 
Q 54.890625 11.625 47.5625 5.09375 
Q 40.234375 -1.421875 26.90625 -1.421875 
Q 22.3125 -1.421875 17.546875 -0.640625 
Q 12.796875 0.140625 7.71875 1.703125 
L 7.71875 11.625 
Q 12.109375 9.234375 16.796875 8.0625 
Q 21.484375 6.890625 26.703125 6.890625 
Q 35.15625 6.890625 40.078125 11.328125 
Q 45.015625 15.765625 45.015625 23.390625 
Q 45.015625 31 40.078125 35.4375 
Q 35.15625 39.890625 26.703125 39.890625 
Q 22.75 39.890625 18.8125 39.015625 
Q 14.890625 38.140625 10.796875 36.28125 
z
" id="DejaVuSans-53"/>
      </defs>
      <g transform="translate(17.201563 90.708064)scale(0.15 -0.15)">
       <use xlink:href="#DejaVuSans-48"/>
       <use x="63.623047" xlink:href="#DejaVuSans-46"/>
       <use x="95.410156" xlink:href="#DejaVuSans-50"/>
       <use x="159.033203" xlink:href="#DejaVuSans-53"/>
      </g>
     </g>
    </g>
    <g id="ytick_3">
     <g id="line2d_8">
      <g>
       <use style="stroke:#000000;stroke-width:0.8;" x="57.6" xlink:href="#mf4eafac142" y="116.450471"/>
      </g>
     </g>
     <g id="text_9">
      <!-- 0.50 -->
      <g transform="translate(17.201563 122.149299)scale(0.15 -0.15)">
       <use xlink:href="#DejaVuSans-48"/>
       <use x="63.623047" xlink:href="#DejaVuSans-46"/>
       <use x="95.410156" xlink:href="#DejaVuSans-53"/>
       <use x="159.033203" xlink:href="#DejaVuSans-48"/>
      </g>
     </g>
    </g>
    <g id="ytick_4">
     <g id="line2d_9">
      <g>
       <use style="stroke:#000000;stroke-width:0.8;" x="57.6" xlink:href="#mf4eafac142" y="147.891706"/>
      </g>
     </g>
     <g id="text_10">
      <!-- 0.75 -->
      <defs>
       <path d="M 8.203125 72.90625 
L 55.078125 72.90625 
L 55.078125 68.703125 
L 28.609375 0 
L 18.3125 0 
L 43.21875 64.59375 
L 8.203125 64.59375 
z
" id="DejaVuSans-55"/>
      </defs>
      <g transform="translate(17.201563 153.590534)scale(0.15 -0.15)">
       <use xlink:href="#DejaVuSans-48"/>
       <use x="63.623047" xlink:href="#DejaVuSans-46"/>
       <use x="95.410156" xlink:href="#DejaVuSans-55"/>
       <use x="159.033203" xlink:href="#DejaVuSans-53"/>
      </g>
     </g>
    </g>
    <g id="ytick_5">
     <g id="line2d_10">
      <g>
       <use style="stroke:#000000;stroke-width:0.8;" x="57.6" xlink:href="#mf4eafac142" y="179.332942"/>
      </g>
     </g>
     <g id="text_11">
      <!-- 1.00 -->
      <g transform="translate(17.201563 185.03177)scale(0.15 -0.15)">
       <use xlink:href="#DejaVuSans-49"/>
       <use x="63.623047" xlink:href="#DejaVuSans-46"/>
       <use x="95.410156" xlink:href="#DejaVuSans-48"/>
       <use x="159.033203" xlink:href="#DejaVuSans-48"/>
      </g>
     </g>
    </g>
    <g id="ytick_6">
     <g id="line2d_11">
      <g>
       <use style="stroke:#000000;stroke-width:0.8;" x="57.6" xlink:href="#mf4eafac142" y="210.774177"/>
      </g>
     </g>
     <g id="text_12">
      <!-- 1.25 -->
      <g transform="translate(17.201563 216.473005)scale(0.15 -0.15)">
       <use xlink:href="#DejaVuSans-49"/>
       <use x="63.623047" xlink:href="#DejaVuSans-46"/>
       <use x="95.410156" xlink:href="#DejaVuSans-50"/>
       <use x="159.033203" xlink:href="#DejaVuSans-53"/>
      </g>
     </g>
    </g>
    <g id="ytick_7">
     <g id="line2d_12">
      <g>
       <use style="stroke:#000000;stroke-width:0.8;" x="57.6" xlink:href="#mf4eafac142" y="242.215413"/>
      </g>
     </g>
     <g id="text_13">
      <!-- 1.50 -->
      <g transform="translate(17.201563 247.914241)scale(0.15 -0.15)">
       <use xlink:href="#DejaVuSans-49"/>
       <use x="63.623047" xlink:href="#DejaVuSans-46"/>
       <use x="95.410156" xlink:href="#DejaVuSans-53"/>
       <use x="159.033203" xlink:href="#DejaVuSans-48"/>
      </g>
     </g>
    </g>
    <g id="ytick_8">
     <g id="line2d_13">
      <g>
       <use style="stroke:#000000;stroke-width:0.8;" x="57.6" xlink:href="#mf4eafac142" y="273.656648"/>
      </g>
     </g>
     <g id="text_14">
      <!-- 1.75 -->
      <g transform="translate(17.201563 279.355476)scale(0.15 -0.15)">
       <use xlink:href="#DejaVuSans-49"/>
       <use x="63.623047" xlink:href="#DejaVuSans-46"/>
       <use x="95.410156" xlink:href="#DejaVuSans-55"/>
       <use x="159.033203" xlink:href="#DejaVuSans-53"/>
      </g>
     </g>
    </g>
    <g id="ytick_9">
     <g id="line2d_14">
      <g>
       <use style="stroke:#000000;stroke-width:0.8;" x="57.6" xlink:href="#mf4eafac142" y="305.097883"/>
      </g>
     </g>
     <g id="text_15">
      <!-- 2.00 -->
      <g transform="translate(17.201563 310.796711)scale(0.15 -0.15)">
       <use xlink:href="#DejaVuSans-50"/>
       <use x="63.623047" xlink:href="#DejaVuSans-46"/>
       <use x="95.410156" xlink:href="#DejaVuSans-48"/>
       <use x="159.033203" xlink:href="#DejaVuSans-48"/>
      </g>
     </g>
    </g>
    <g id="text_16">
     <!-- Depth (m) -->
     <defs>
      <path d="M 56.203125 29.59375 
L 56.203125 25.203125 
L 14.890625 25.203125 
Q 15.484375 15.921875 20.484375 11.0625 
Q 25.484375 6.203125 34.421875 6.203125 
Q 39.59375 6.203125 44.453125 7.46875 
Q 49.3125 8.734375 54.109375 11.28125 
L 54.109375 2.78125 
Q 49.265625 0.734375 44.1875 -0.34375 
Q 39.109375 -1.421875 33.890625 -1.421875 
Q 20.796875 -1.421875 13.15625 6.1875 
Q 5.515625 13.8125 5.515625 26.8125 
Q 5.515625 40.234375 12.765625 48.109375 
Q 20.015625 56 32.328125 56 
Q 43.359375 56 49.78125 48.890625 
Q 56.203125 41.796875 56.203125 29.59375 
z
M 47.21875 32.234375 
Q 47.125 39.59375 43.09375 43.984375 
Q 39.0625 48.390625 32.421875 48.390625 
Q 24.90625 48.390625 20.390625 44.140625 
Q 15.875 39.890625 15.1875 32.171875 
z
" id="DejaVuSans-101"/>
      <path d="M 18.109375 8.203125 
L 18.109375 -20.796875 
L 9.078125 -20.796875 
L 9.078125 54.6875 
L 18.109375 54.6875 
L 18.109375 46.390625 
Q 20.953125 51.265625 25.265625 53.625 
Q 29.59375 56 35.59375 56 
Q 45.5625 56 51.78125 48.09375 
Q 58.015625 40.1875 58.015625 27.296875 
Q 58.015625 14.40625 51.78125 6.484375 
Q 45.5625 -1.421875 35.59375 -1.421875 
Q 29.59375 -1.421875 25.265625 0.953125 
Q 20.953125 3.328125 18.109375 8.203125 
z
M 48.6875 27.296875 
Q 48.6875 37.203125 44.609375 42.84375 
Q 40.53125 48.484375 33.40625 48.484375 
Q 26.265625 48.484375 22.1875 42.84375 
Q 18.109375 37.203125 18.109375 27.296875 
Q 18.109375 17.390625 22.1875 11.75 
Q 26.265625 6.109375 33.40625 6.109375 
Q 40.53125 6.109375 44.609375 11.75 
Q 48.6875 17.390625 48.6875 27.296875 
z
" id="DejaVuSans-112"/>
      <path d="M 18.3125 70.21875 
L 18.3125 54.6875 
L 36.8125 54.6875 
L 36.8125 47.703125 
L 18.3125 47.703125 
L 18.3125 18.015625 
Q 18.3125 11.328125 20.140625 9.421875 
Q 21.96875 7.515625 27.59375 7.515625 
L 36.8125 7.515625 
L 36.8125 0 
L 27.59375 0 
Q 17.1875 0 13.234375 3.875 
Q 9.28125 7.765625 9.28125 18.015625 
L 9.28125 47.703125 
L 2.6875 47.703125 
L 2.6875 54.6875 
L 9.28125 54.6875 
L 9.28125 70.21875 
z
" id="DejaVuSans-116"/>
      <path d="M 54.890625 33.015625 
L 54.890625 0 
L 45.90625 0 
L 45.90625 32.71875 
Q 45.90625 40.484375 42.875 44.328125 
Q 39.84375 48.1875 33.796875 48.1875 
Q 26.515625 48.1875 22.3125 43.546875 
Q 18.109375 38.921875 18.109375 30.90625 
L 18.109375 0 
L 9.078125 0 
L 9.078125 75.984375 
L 18.109375 75.984375 
L 18.109375 46.1875 
Q 21.34375 51.125 25.703125 53.5625 
Q 30.078125 56 35.796875 56 
Q 45.21875 56 50.046875 50.171875 
Q 54.890625 44.34375 54.890625 33.015625 
z
" id="DejaVuSans-104"/>
      <path id="DejaVuSans-32"/>
      <path d="M 31 75.875 
Q 24.46875 64.65625 21.28125 53.65625 
Q 18.109375 42.671875 18.109375 31.390625 
Q 18.109375 20.125 21.3125 9.0625 
Q 24.515625 -2 31 -13.1875 
L 23.1875 -13.1875 
Q 15.875 -1.703125 12.234375 9.375 
Q 8.59375 20.453125 8.59375 31.390625 
Q 8.59375 42.28125 12.203125 53.3125 
Q 15.828125 64.359375 23.1875 75.875 
z
" id="DejaVuSans-40"/>
      <path d="M 52 44.1875 
Q 55.375 50.25 60.0625 53.125 
Q 64.75 56 71.09375 56 
Q 79.640625 56 84.28125 50.015625 
Q 88.921875 44.046875 88.921875 33.015625 
L 88.921875 0 
L 79.890625 0 
L 79.890625 32.71875 
Q 79.890625 40.578125 77.09375 44.375 
Q 74.3125 48.1875 68.609375 48.1875 
Q 61.625 48.1875 57.5625 43.546875 
Q 53.515625 38.921875 53.515625 30.90625 
L 53.515625 0 
L 44.484375 0 
L 44.484375 32.71875 
Q 44.484375 40.625 41.703125 44.40625 
Q 38.921875 48.1875 33.109375 48.1875 
Q 26.21875 48.1875 22.15625 43.53125 
Q 18.109375 38.875 18.109375 30.90625 
L 18.109375 0 
L 9.078125 0 
L 9.078125 54.6875 
L 18.109375 54.6875 
L 18.109375 46.1875 
Q 21.1875 51.21875 25.484375 53.609375 
Q 29.78125 56 35.6875 56 
Q 41.65625 56 45.828125 52.96875 
Q 50 49.953125 52 44.1875 
z
" id="DejaVuSans-109"/>
      <path d="M 8.015625 75.875 
L 15.828125 75.875 
Q 23.140625 64.359375 26.78125 53.3125 
Q 30.421875 42.28125 30.421875 31.390625 
Q 30.421875 20.453125 26.78125 9.375 
Q 23.140625 -1.703125 15.828125 -13.1875 
L 8.015625 -13.1875 
Q 14.5 -2 17.703125 9.0625 
Q 20.90625 20.125 20.90625 31.390625 
Q 20.90625 42.671875 17.703125 53.65625 
Q 14.5 64.65625 8.015625 75.875 
z
" id="DejaVuSans-41"/>
     </defs>
     <g transform="translate(9.666094 218.032062)rotate(-90)scale(0.17 -0.17)">
      <use xlink:href="#DejaVuSans-68"/>
      <use x="77.001953" xlink:href="#DejaVuSans-101"/>
      <use x="138.525391" xlink:href="#DejaVuSans-112"/>
      <use x="202.001953" xlink:href="#DejaVuSans-116"/>
      <use x="241.210938" xlink:href="#DejaVuSans-104"/>
      <use x="304.589844" xlink:href="#DejaVuSans-32"/>
      <use x="336.376953" xlink:href="#DejaVuSans-40"/>
      <use x="375.390625" xlink:href="#DejaVuSans-109"/>
      <use x="472.802734" xlink:href="#DejaVuSans-41"/>
     </g>
    </g>
   </g>
   <g id="line2d_15">
    <path clip-path="url(#p5fbe05370a)" d="M 154.049247 53.568 
L 177.807643 56.036571 
L 185.081984 58.505143 
L 185.549143 60.973714 
L 187.017359 63.442286 
L 188.885996 65.910857 
L 189.019471 68.379429 
L 190.420949 70.848 
L 191.422005 73.316571 
L 191.75569 75.785143 
L 191.155057 78.253714 
L 193.290643 80.722286 
L 189.286419 83.190857 
L 190.487686 85.659429 
L 191.555479 88.128 
L 191.555479 90.596571 
L 189.152945 93.065143 
L 190.554423 95.533714 
L 188.3521 98.002286 
L 191.555479 100.470857 
L 188.619048 102.939429 
L 186.616936 105.408 
L 188.619048 107.876571 
L 189.753578 110.345143 
L 188.285363 112.813714 
L 188.018415 115.282286 
L 186.75041 117.750857 
L 187.951677 120.219429 
L 187.951677 122.688 
L 183.013134 125.156571 
L 185.949565 127.625143 
L 184.214402 130.093714 
L 185.482406 132.562286 
L 186.283251 135.030857 
L 186.616936 137.499429 
L 185.482406 139.968 
L 184.347876 142.436571 
L 186.950621 144.905143 
L 184.614824 147.373714 
L 183.280083 149.842286 
L 184.815035 152.310857 
L 184.48135 154.779429 
L 184.948509 157.248 
L 186.283251 159.716571 
L 184.01419 162.185143 
L 184.147665 164.653714 
L 186.149777 167.122286 
L 183.34682 169.590857 
L 186.75041 172.059429 
L 188.151889 174.528 
L 185.348932 176.996571 
L 187.417781 179.465143 
L 185.61588 181.933714 
L 189.620104 184.402286 
L 190.821371 186.870857 
L 192.089376 189.339429 
L 187.150833 191.808 
L 189.086208 194.276571 
L 187.551255 196.745143 
L 190.154001 199.213714 
L 189.753578 201.682286 
L 189.686841 204.150857 
L 190.954846 206.619429 
L 191.021583 209.088 
L 192.22285 211.556571 
L 194.358436 214.025143 
L 191.889164 216.493714 
L 191.889164 218.962286 
L 192.089376 221.430857 
L 196.427285 223.899429 
L 195.359492 226.368 
L 199.764138 228.836571 
L 200.364772 231.305143 
L 201.232354 233.773714 
L 201.699513 236.242286 
L 201.76625 238.710857 
L 204.702681 241.179429 
L 204.435733 243.648 
L 204.168785 246.116571 
L 205.637 248.585143 
L 206.237634 251.053714 
L 206.170897 253.522286 
L 207.772587 255.990857 
L 208.239746 258.459429 
L 208.640168 260.928 
L 209.240802 263.396571 
L 209.841436 265.865143 
L 210.775755 268.333714 
L 210.308595 270.802286 
L 210.575543 273.270857 
L 211.176177 275.739429 
L 211.309651 278.208 
L 211.443125 280.676571 
L 210.842492 283.145143 
L 211.443125 285.613714 
L 211.309651 288.082286 
L 211.443125 290.550857 
L 212.24397 293.019429 
L 212.310707 295.488 
" style="fill:none;stroke:#000000;stroke-linecap:square;stroke-width:3;"/>
   </g>
   <g id="line2d_16">
    <path clip-path="url(#p5fbe05370a)" d="M 178.466197 53.568 
L 179.070498 55.223078 
L 185.596946 56.878156 
L 193.694576 58.533234 
L 184.509205 60.188311 
L 187.288988 61.843389 
L 186.563827 63.498467 
L 188.49759 65.153545 
L 193.211136 66.808623 
L 192.365115 68.463701 
L 191.639954 70.118779 
L 189.706191 71.773856 
L 185.959526 73.428934 
L 191.519094 75.084012 
L 191.519094 76.73909 
L 192.727695 78.394168 
L 189.706191 80.049246 
L 186.805548 81.704324 
L 188.73931 83.359401 
L 193.331996 85.014479 
L 189.827051 86.669557 
L 188.86017 88.324635 
L 186.201247 89.979713 
L 186.563827 91.634791 
L 192.969415 93.289869 
L 188.37673 94.944946 
L 187.047268 96.600024 
L 181.608561 98.255102 
L 189.464471 99.91018 
L 193.331996 101.565258 
L 186.926408 103.220336 
L 180.279099 104.875414 
L 182.696302 106.530491 
L 188.49759 108.185569 
L 190.431352 109.840647 
L 181.850281 111.495725 
L 179.795659 113.150803 
L 187.288988 114.805881 
L 183.179743 116.460959 
L 181.850281 118.116036 
L 181.12512 119.771114 
L 184.630065 121.426192 
L 180.64168 123.08127 
L 179.674798 124.736348 
L 180.037379 126.391426 
L 182.696302 128.046504 
L 178.707917 129.701581 
L 173.994371 131.356659 
L 179.916519 133.011737 
L 177.861896 134.666815 
L 171.698028 136.321893 
L 175.444693 137.976971 
L 175.444693 139.632049 
L 172.544049 141.287126 
L 171.214588 142.942204 
L 170.126846 144.597282 
L 169.643406 146.25236 
L 165.4133 147.907438 
L 165.655021 149.562516 
L 164.92986 151.217594 
L 156.590509 152.872671 
L 160.699754 154.527749 
L 149.45976 156.182827 
L 152.843844 157.837905 
L 140.153528 159.492983 
L 139.790948 161.148061 
L 125.046009 162.803139 
L 106.554405 164.458216 
L 64.978512 166.113294 
L 78.393989 167.768372 
L 128.792674 169.42345 
L 172.060609 171.078528 
L 196.83694 172.733606 
L 197.199521 174.388684 
L 203.967689 176.043761 
L 206.022312 177.698839 
L 207.351774 179.353917 
L 207.835214 181.008995 
L 208.560375 182.664073 
L 208.318655 184.319151 
L 207.593494 185.974229 
L 207.835214 187.629306 
L 206.747473 189.284384 
L 209.164676 190.939462 
L 208.197795 192.59454 
L 209.406396 194.249618 
L 208.681235 195.904696 
L 208.318655 197.559774 
L 208.560375 199.214851 
L 208.439515 200.869929 
L 207.593494 202.525007 
L 209.648117 204.180085 
L 211.461019 205.835163 
L 211.94446 207.490241 
L 212.18618 209.145319 
L 212.18618 210.800396 
L 212.06532 212.455474 
L 212.54876 214.110552 
L 212.06532 215.76563 
" style="fill:none;stroke:#a2eb7f;stroke-dasharray:1.5,2.475;stroke-dashoffset:0;stroke-width:1.5;"/>
   </g>
   <g id="line2d_17">
    <path clip-path="url(#p5fbe05370a)" d="M 191.359898 53.568 
L 194.499282 55.781859 
L 196.026549 57.995719 
L 195.941701 60.209578 
L 196.790183 62.423437 
L 195.432612 64.637297 
L 196.875031 66.851156 
L 195.51746 69.065016 
L 194.753826 71.278875 
L 195.178067 73.492734 
L 191.868987 75.706594 
L 194.499282 77.920453 
L 193.820496 80.134312 
L 190.681113 82.348172 
L 190.681113 84.562031 
L 192.887166 86.77589 
L 188.814452 88.98975 
L 190.34172 91.203609 
L 187.372033 93.417468 
L 191.020505 95.631328 
L 186.862944 97.845187 
L 188.644756 100.059047 
L 186.693247 102.272906 
L 186.014462 104.486765 
L 183.044775 106.700625 
L 184.826587 108.914484 
L 186.269006 111.128343 
L 185.505373 113.342203 
L 183.214471 115.556062 
L 182.875078 117.769921 
L 182.959927 119.983781 
L 182.450837 122.19764 
L 183.384168 124.411499 
L 177.105401 126.625359 
L 182.026596 128.839218 
L 180.244784 131.053078 
L 180.669025 133.266937 
L 179.48115 135.480796 
L 179.565999 137.694656 
L 180.669025 139.908515 
L 180.499329 142.122374 
L 177.444794 144.336234 
L 179.056909 146.550093 
L 178.717517 148.763952 
L 181.008418 150.977812 
L 178.293276 153.191671 
L 179.735695 155.405531 
L 180.244784 157.61939 
L 180.838722 159.833249 
L 180.244784 162.047109 
L 179.905391 164.260968 
L 181.517507 166.474827 
L 181.517507 168.688687 
L 180.753873 170.902546 
L 182.281141 173.116405 
L 185.250828 175.330265 
L 185.250828 177.544124 
L 184.656891 179.757983 
L 187.287185 181.971843 
L 184.656891 184.185702 
L 188.220515 186.399562 
L 184.487194 188.613421 
L 189.493238 190.82728 
L 187.03264 193.04114 
L 187.626578 195.254999 
L 188.47506 197.468858 
L 189.832631 199.682718 
L 191.020505 201.896577 
L 190.426568 204.110436 
L 192.547773 206.324296 
L 191.529595 208.538155 
L 192.123532 210.752014 
L 191.190202 212.965874 
L 195.51746 215.179733 
L 193.905344 217.393593 
L 197.044728 219.607452 
L 194.923523 221.821311 
L 196.959879 224.035171 
L 198.656843 226.24903 
L 200.523504 228.462889 
L 201.62653 230.676749 
L 200.438656 232.890608 
L 202.729557 235.104467 
L 201.711379 237.318327 
L 204.681066 239.532186 
L 204.087128 241.746046 
L 204.256825 243.959905 
L 203.917432 246.173764 
L 206.378029 248.387624 
L 207.650752 250.601483 
L 207.905297 252.815342 
L 207.396208 255.029202 
L 208.668931 257.243061 
L 209.008324 259.45692 
L 209.347716 261.67078 
L 210.535591 263.884639 
L 211.299225 266.098498 
L 211.468921 268.312358 
L 212.402252 270.526217 
" style="fill:none;stroke:#77cd86;stroke-dasharray:5.55,2.4;stroke-dashoffset:0;stroke-width:1.5;"/>
   </g>
   <g id="line2d_18">
    <path clip-path="url(#p5fbe05370a)" d="M 157.523279 53.568 
L 186.579311 55.320923 
L 188.622314 57.073845 
L 187.600812 58.826768 
L 187.487312 60.57969 
L 190.438316 62.332613 
L 190.665316 64.085535 
L 192.481318 65.838458 
L 191.119316 67.591381 
L 189.303314 69.344303 
L 189.076314 71.097226 
L 188.962814 72.850148 
L 193.389319 74.603071 
L 190.892316 76.355993 
L 189.416814 78.108916 
L 189.416814 79.861839 
L 188.849314 81.614761 
L 192.027317 83.367684 
L 191.005816 85.120606 
L 188.168313 86.873529 
L 186.125311 88.626452 
L 188.508813 90.379374 
L 189.530315 92.132297 
L 189.076314 93.885219 
L 188.622314 95.638142 
L 186.919812 97.391064 
L 185.55781 99.143987 
L 188.735814 100.89691 
L 183.855308 102.649832 
L 188.622314 104.402755 
L 186.692811 106.155677 
L 185.21731 107.9086 
L 181.585306 109.661522 
L 184.422809 111.414445 
L 187.033312 113.167368 
L 181.585306 114.92029 
L 182.833807 116.673213 
L 183.628308 118.426135 
L 179.882804 120.179058 
L 176.8183 121.93198 
L 180.904305 123.684903 
L 181.585306 125.437826 
L 178.747802 127.190748 
L 177.612801 128.943671 
L 175.456299 130.696593 
L 176.023799 132.449516 
L 177.158801 134.202439 
L 172.164795 135.955361 
L 171.597294 137.708284 
L 171.597294 139.461206 
L 166.376289 141.214129 
L 167.73829 142.967051 
L 164.673787 144.719974 
L 159.225781 146.472897 
L 156.274777 148.225819 
L 145.832766 149.978742 
L 142.541262 151.731664 
L 143.449263 153.484587 
L 137.774257 155.237509 
L 141.860261 156.990432 
L 164.106286 158.743355 
L 162.290284 160.496277 
L 158.31778 162.2492 
L 146.967767 164.002122 
L 152.869773 165.755045 
L 170.916294 167.507967 
L 177.499301 169.26089 
L 178.747802 171.013813 
L 182.493307 172.766735 
L 178.747802 174.519658 
L 177.499301 176.27258 
L 178.180302 178.025503 
L 186.579311 179.778426 
L 189.757315 181.531348 
L 195.091821 183.284271 
L 197.134823 185.037193 
L 200.653327 186.790116 
L 200.880327 188.543038 
L 204.398831 190.295961 
L 205.760833 192.048884 
L 208.598336 193.801806 
L 209.960337 195.554729 
L 208.257836 197.307651 
L 209.733337 199.060574 
L 207.803835 200.813496 
L 209.846837 202.566419 
L 208.825336 204.319342 
L 209.619837 206.072264 
L 208.484836 207.825187 
L 209.619837 209.578109 
L 208.484836 211.331032 
L 208.938836 213.083954 
L 210.073838 214.836877 
L 211.77634 216.5898 
L 212.11684 218.342722 
L 211.77634 220.095645 
L 212.00334 221.848567 
L 212.45734 223.60149 
L 212.23034 225.354413 
" style="fill:none;stroke:#258d41;stroke-dasharray:9.6,2.4,1.5,2.4;stroke-dashoffset:0;stroke-width:1.5;"/>
   </g>
   <g id="line2d_19">
    <path clip-path="url(#p5fbe05370a)" d="M 196.640441 53.568 
L 190.097645 55.729854 
L 191.647255 57.891708 
L 195.3491 60.053562 
L 196.984799 62.215416 
L 195.951726 64.377269 
L 196.81262 66.539123 
L 197.156977 68.700977 
L 194.746474 70.862831 
L 194.746474 73.024685 
L 196.037815 75.186539 
L 194.918653 77.348393 
L 194.057758 79.510247 
L 193.110775 81.672101 
L 192.33597 83.833955 
L 191.905523 85.995808 
L 192.163791 88.157662 
L 188.806304 90.319516 
L 189.236751 92.48137 
L 188.634125 94.643224 
L 187.256694 96.805078 
L 189.32284 98.966932 
L 184.071386 101.128786 
L 182.435687 103.29064 
L 184.587922 105.452494 
L 184.587922 107.614347 
L 180.369541 109.776201 
L 180.45563 111.938055 
L 181.919151 114.099909 
L 177.442501 116.261763 
L 176.06507 118.423617 
L 173.740656 120.585471 
L 174.257192 122.747325 
L 165.389982 124.909179 
L 163.496015 127.071033 
L 159.191544 129.232886 
L 165.648251 131.39474 
L 164.184731 133.556594 
L 166.423055 135.718448 
L 170.297079 137.880302 
L 166.939592 140.042156 
L 167.886575 142.20401 
L 166.595234 144.365864 
L 160.827243 146.527718 
L 160.568975 148.689571 
L 161.085511 150.851425 
L 165.131714 153.013279 
L 165.045625 155.175133 
L 169.608364 157.336987 
L 173.568477 159.498841 
L 171.58842 161.660695 
L 174.343282 163.822549 
L 177.61468 165.984403 
L 179.508647 168.146257 
L 178.99211 170.30811 
L 190.269824 172.469964 
L 187.94541 174.631818 
L 190.442003 176.793672 
L 189.925466 178.955526 
L 190.528092 181.11738 
L 191.819434 183.279234 
L 191.647255 185.441088 
L 190.355913 187.602942 
L 195.004742 189.764796 
L 196.123904 191.926649 
L 195.865636 194.088503 
L 199.481392 196.250357 
L 201.20318 198.412211 
L 202.064074 200.574065 
L 201.633627 202.735919 
L 203.355415 204.897773 
L 201.461448 207.059627 
L 203.613684 209.221481 
L 202.064074 211.383335 
L 204.818936 213.545188 
L 204.388488 215.707042 
L 204.388488 217.868896 
L 205.163293 220.03075 
L 204.560667 222.192604 
L 205.335472 224.354458 
L 205.507651 226.516312 
L 208.262512 228.678166 
L 209.639943 230.84002 
L 208.951228 233.001874 
L 208.520781 235.163727 
L 209.295585 237.325581 
L 209.037317 239.487435 
L 210.673016 241.649289 
L 210.759105 243.811143 
L 211.103463 245.972997 
L 210.931284 248.134851 
L 210.673016 250.296705 
L 211.878268 252.458559 
L 211.706089 254.620412 
L 211.792178 256.782266 
L 212.050447 258.94412 
L 211.62 261.105974 
L 211.706089 263.267828 
L 211.878268 265.429682 
" style="fill:none;stroke:#115029;stroke-linecap:square;stroke-width:1.5;"/>
   </g>
   <g id="patch_3">
    <path d="M 57.6 307.584 
L 57.6 41.472 
" style="fill:none;stroke:#000000;stroke-linecap:square;stroke-linejoin:miter;stroke-width:0.8;"/>
   </g>
   <g id="patch_4">
    <path d="M 219.927273 307.584 
L 219.927273 41.472 
" style="fill:none;stroke:#000000;stroke-linecap:square;stroke-linejoin:miter;stroke-width:0.8;"/>
   </g>
   <g id="patch_5">
    <path d="M 57.6 307.584 
L 219.927273 307.584 
" style="fill:none;stroke:#000000;stroke-linecap:square;stroke-linejoin:miter;stroke-width:0.8;"/>
   </g>
   <g id="patch_6">
    <path d="M 57.6 41.472 
L 219.927273 41.472 
" style="fill:none;stroke:#000000;stroke-linecap:square;stroke-linejoin:miter;stroke-width:0.8;"/>
   </g>
  </g>
  <g id="axes_2">
   <g id="patch_7">
    <path d="M 252.392727 307.584 
L 414.72 307.584 
L 414.72 41.472 
L 252.392727 41.472 
z
" style="fill:#ffffff;"/>
   </g>
   <g id="matplotlib.axis_3">
    <g id="xtick_6">
     <g id="line2d_20">
      <g>
       <use style="stroke:#000000;stroke-width:0.8;" x="258.675206" xlink:href="#m526371e2ac" y="307.584"/>
      </g>
     </g>
     <g id="text_17">
      <!-- 0.0 -->
      <g transform="translate(246.747862 325.981656)scale(0.15 -0.15)">
       <use xlink:href="#DejaVuSans-48"/>
       <use x="63.623047" xlink:href="#DejaVuSans-46"/>
       <use x="95.410156" xlink:href="#DejaVuSans-48"/>
      </g>
     </g>
    </g>
    <g id="xtick_7">
     <g id="line2d_21">
      <g>
       <use style="stroke:#000000;stroke-width:0.8;" x="333.008347" xlink:href="#m526371e2ac" y="307.584"/>
      </g>
     </g>
     <g id="text_18">
      <!-- 0.5 -->
      <g transform="translate(321.081003 325.981656)scale(0.15 -0.15)">
       <use xlink:href="#DejaVuSans-48"/>
       <use x="63.623047" xlink:href="#DejaVuSans-46"/>
       <use x="95.410156" xlink:href="#DejaVuSans-53"/>
      </g>
     </g>
    </g>
    <g id="xtick_8">
     <g id="line2d_22">
      <g>
       <use style="stroke:#000000;stroke-width:0.8;" x="407.341488" xlink:href="#m526371e2ac" y="307.584"/>
      </g>
     </g>
     <g id="text_19">
      <!-- 1.0 -->
      <g transform="translate(395.414144 325.981656)scale(0.15 -0.15)">
       <use xlink:href="#DejaVuSans-49"/>
       <use x="63.623047" xlink:href="#DejaVuSans-46"/>
       <use x="95.410156" xlink:href="#DejaVuSans-48"/>
      </g>
     </g>
    </g>
    <g id="text_20">
     <!-- CDF -->
     <defs>
      <path d="M 64.40625 67.28125 
L 64.40625 56.890625 
Q 59.421875 61.53125 53.78125 63.8125 
Q 48.140625 66.109375 41.796875 66.109375 
Q 29.296875 66.109375 22.65625 58.46875 
Q 16.015625 50.828125 16.015625 36.375 
Q 16.015625 21.96875 22.65625 14.328125 
Q 29.296875 6.6875 41.796875 6.6875 
Q 48.140625 6.6875 53.78125 8.984375 
Q 59.421875 11.28125 64.40625 15.921875 
L 64.40625 5.609375 
Q 59.234375 2.09375 53.4375 0.328125 
Q 47.65625 -1.421875 41.21875 -1.421875 
Q 24.65625 -1.421875 15.125 8.703125 
Q 5.609375 18.84375 5.609375 36.375 
Q 5.609375 53.953125 15.125 64.078125 
Q 24.65625 74.21875 41.21875 74.21875 
Q 47.75 74.21875 53.53125 72.484375 
Q 59.328125 70.75 64.40625 67.28125 
z
" id="DejaVuSans-67"/>
     </defs>
     <g transform="translate(316.187145 346.018531)scale(0.17 -0.17)">
      <use xlink:href="#DejaVuSans-67"/>
      <use x="69.824219" xlink:href="#DejaVuSans-68"/>
      <use x="146.826172" xlink:href="#DejaVuSans-70"/>
     </g>
    </g>
   </g>
   <g id="matplotlib.axis_4"/>
   <g id="line2d_23">
    <path clip-path="url(#pa153552483)" d="M 263.2028 53.568 
L 265.90293 56.036571 
L 268.043527 58.505143 
L 270.148191 60.973714 
L 272.139922 63.442286 
L 273.98792 65.910857 
L 275.825651 68.379429 
L 277.555582 70.848 
L 279.208513 73.316571 
L 280.835778 75.785143 
L 282.509243 78.253714 
L 284.018441 80.722286 
L 285.835639 83.190857 
L 287.560436 85.659429 
L 289.203101 88.128 
L 290.845766 90.596571 
L 292.67323 93.065143 
L 294.392895 95.533714 
L 296.281959 98.002286 
L 297.924624 100.470857 
L 299.793155 102.939429 
L 301.815685 105.408 
L 303.684216 107.876571 
L 305.465481 110.345143 
L 307.359679 112.813714 
L 309.274409 115.282286 
L 311.286674 117.750857 
L 313.206538 120.219429 
L 315.126402 122.688 
L 317.426133 125.156571 
L 319.499997 127.625143 
L 321.707327 130.093714 
L 323.817125 132.562286 
L 325.865322 135.030857 
L 327.887853 137.499429 
L 329.99765 139.968 
L 332.194714 142.436571 
L 334.191579 144.905143 
L 336.368109 147.373714 
L 338.647306 149.842286 
L 340.808437 152.310857 
L 342.995234 154.779429 
L 345.146098 157.248 
L 347.194296 159.716571 
L 349.417026 162.185143 
L 351.62949 164.653714 
L 353.687954 167.122286 
L 355.962018 169.590857 
L 357.974282 172.059429 
L 359.878747 174.528 
L 361.998811 176.996571 
L 363.959742 179.465143 
L 366.059272 181.933714 
L 367.850803 184.402286 
L 369.549935 186.870857 
L 371.151533 189.339429 
L 373.132997 191.808 
L 374.965595 194.276571 
L 376.916259 196.745143 
L 378.666723 199.213714 
L 380.447988 201.682286 
L 382.234385 204.150857 
L 383.92325 206.619429 
L 385.606981 209.088 
L 387.198313 211.556571 
L 388.625378 214.025143 
L 390.242376 216.493714 
L 391.859374 218.962286 
L 393.460972 221.430857 
L 394.728903 223.899429 
L 396.078968 226.368 
L 397.090234 228.836571 
L 398.055299 231.305143 
L 398.953631 233.773714 
L 399.81603 236.242286 
L 400.673296 238.710857 
L 401.304695 241.179429 
L 401.956628 243.648 
L 402.629093 246.116571 
L 403.188626 248.585143 
L 403.701959 251.053714 
L 404.220425 253.522286 
L 404.615691 255.990857 
L 404.975024 258.459429 
L 405.303557 260.928 
L 405.58589 263.396571 
L 405.822023 265.865143 
L 405.986289 268.333714 
L 406.186489 270.802286 
L 406.366155 273.270857 
L 406.499622 275.739429 
L 406.622822 278.208 
L 406.735755 280.676571 
L 406.894888 283.145143 
L 407.007821 285.613714 
L 407.131021 288.082286 
L 407.243954 290.550857 
L 407.295288 293.019429 
L 407.341488 295.488 
" style="fill:none;stroke:#000000;stroke-linecap:square;stroke-width:3;"/>
   </g>
   <g id="line2d_24">
    <path clip-path="url(#pa153552483)" d="M 260.451572 53.568 
L 262.196774 55.223078 
L 263.605401 56.878156 
L 264.596427 58.533234 
L 266.06115 60.188311 
L 267.382517 61.843389 
L 268.741282 63.498467 
L 270.00032 65.153545 
L 271.016277 66.808623 
L 272.075864 68.463701 
L 273.172848 70.118779 
L 274.369558 71.773856 
L 275.759487 73.428934 
L 276.862704 75.084012 
L 277.965921 76.73909 
L 279.006809 78.394168 
L 280.203519 80.049246 
L 281.549818 81.704324 
L 282.796391 83.359401 
L 283.806115 85.014479 
L 284.996592 86.669557 
L 286.236932 88.324635 
L 287.614395 89.979713 
L 288.97316 91.634791 
L 290.001582 93.289869 
L 291.266854 94.944946 
L 292.600687 96.600024 
L 294.214999 98.255102 
L 295.424174 99.91018 
L 296.433898 101.565258 
L 297.773964 103.220336 
L 299.456838 104.875414 
L 301.015054 106.530491 
L 302.274092 108.185569 
L 303.433405 109.840647 
L 305.035251 111.495725 
L 306.743056 113.150803 
L 308.064423 114.805881 
L 309.597708 116.460959 
L 311.199554 118.116036 
L 312.838797 119.771114 
L 314.297288 121.426192 
L 315.961462 123.08127 
L 317.6755 124.736348 
L 319.370839 126.391426 
L 320.929055 128.046504 
L 322.692956 129.701581 
L 324.699938 131.356659 
L 326.40151 133.011737 
L 328.209041 134.666815 
L 330.334448 136.321893 
L 332.266636 137.976971 
L 334.198824 139.632049 
L 336.2806 141.287126 
L 338.430939 142.942204 
L 340.637373 144.597282 
L 342.868738 146.25236 
L 345.318254 147.907438 
L 347.755304 149.562516 
L 350.229751 151.217594 
L 353.134266 152.872671 
L 355.826863 154.527749 
L 359.099117 156.182827 
L 362.196851 157.837905 
L 365.949035 159.492983 
L 369.719918 161.148061 
L 374.25121 162.803139 
L 379.736131 164.458216 
L 387.365157 166.113294 
L 394.302335 167.768372 
L 398.640409 169.42345 
L 400.747117 171.078528 
L 401.576088 172.733606 
L 402.38636 174.388684 
L 402.847592 176.043761 
L 403.202866 177.698839 
L 403.489577 179.353917 
L 403.751358 181.008995 
L 403.975741 182.664073 
L 404.21259 184.319151 
L 404.486836 185.974229 
L 404.748616 187.629306 
L 405.066492 189.284384 
L 405.259711 190.939462 
L 405.502793 192.59454 
L 405.683546 194.249618 
L 405.901696 195.904696 
L 406.138545 197.559774 
L 406.362928 199.214851 
L 406.593544 200.869929 
L 406.86779 202.525007 
L 407.036077 204.180085 
L 407.110872 205.835163 
L 407.160735 207.490241 
L 407.198132 209.145319 
L 407.235529 210.800396 
L 407.279159 212.455474 
L 407.297858 214.110552 
L 407.341488 215.76563 
" style="fill:none;stroke:#a2eb7f;stroke-dasharray:1.5,2.475;stroke-dashoffset:0;stroke-width:1.5;"/>
   </g>
   <g id="line2d_25">
    <path clip-path="url(#pa153552483)" d="M 260.161869 53.568 
L 261.43197 55.781859 
L 262.596718 57.995719 
L 263.767318 60.209578 
L 264.879389 62.423437 
L 266.085108 64.637297 
L 267.191325 66.851156 
L 268.391191 69.065016 
L 269.643734 71.278875 
L 270.867011 73.492734 
L 272.318556 75.706594 
L 273.588658 77.920453 
L 274.905584 80.134312 
L 276.43907 82.348172 
L 277.972557 84.562031 
L 279.353866 86.77589 
L 281.016119 88.98975 
L 282.573018 91.203609 
L 284.334772 93.417468 
L 285.844847 95.631328 
L 287.641719 97.845187 
L 289.315678 100.059047 
L 291.124256 102.272906 
L 292.979658 104.486765 
L 295.039915 106.700625 
L 296.977259 108.914484 
L 298.815102 111.128343 
L 300.705622 113.342203 
L 302.754173 115.556062 
L 304.826136 117.769921 
L 306.892246 119.983781 
L 308.993474 122.19764 
L 311.03032 124.411499 
L 313.500287 126.625359 
L 315.63078 128.839218 
L 317.884186 131.053078 
L 320.108328 133.266937 
L 322.414411 135.480796 
L 324.714641 137.694656 
L 326.938782 139.908515 
L 329.17463 142.122374 
L 331.621185 144.336234 
L 333.956533 146.550093 
L 336.315293 148.763952 
L 338.516023 150.977812 
L 340.904048 153.191671 
L 343.192572 155.405531 
L 345.445978 157.61939 
L 347.658414 159.833249 
L 349.91182 162.047109 
L 352.188638 164.260968 
L 354.354249 166.474827 
L 356.519861 168.688687 
L 358.738149 170.902546 
L 360.851083 173.116405 
L 362.759162 175.330265 
L 364.667241 177.544124 
L 366.616291 179.757983 
L 368.383898 181.971843 
L 370.332948 184.185702 
L 372.036172 186.399562 
L 373.996928 188.613421 
L 375.612357 190.82728 
L 377.397523 193.04114 
L 379.141718 195.254999 
L 380.827383 197.468858 
L 382.4194 199.682718 
L 383.929475 201.896577 
L 385.480521 204.110436 
L 386.885241 206.324296 
L 388.360198 208.538155 
L 389.794184 210.752014 
L 391.292553 212.965874 
L 392.492418 215.179733 
L 393.803491 217.393593 
L 394.898003 219.607452 
L 396.138839 221.821311 
L 397.239204 224.035171 
L 398.222509 226.24903 
L 399.077047 228.462889 
L 399.855496 230.676749 
L 400.715888 232.890608 
L 401.418248 235.104467 
L 402.190845 237.318327 
L 402.758586 239.532186 
L 403.367298 241.746046 
L 403.964305 243.959905 
L 404.584723 246.173764 
L 405.035404 248.387624 
L 405.398291 250.601483 
L 405.743618 252.815342 
L 406.124063 255.029202 
L 406.416713 257.243061 
L 406.685951 259.45692 
L 406.931777 261.67078 
L 407.095661 263.884639 
L 407.206869 266.098498 
L 407.30637 268.312358 
L 407.341488 270.526217 
" style="fill:none;stroke:#77cd86;stroke-dasharray:5.55,2.4;stroke-dashoffset:0;stroke-width:1.5;"/>
   </g>
   <g id="line2d_26">
    <path clip-path="url(#pa153552483)" d="M 261.700482 53.568 
L 263.138728 55.320923 
L 264.465386 57.073845 
L 265.847838 58.826768 
L 267.236489 60.57969 
L 268.463958 62.332613 
L 269.679027 64.085535 
L 270.794908 65.838458 
L 271.985181 67.591381 
L 273.274642 69.344303 
L 274.576503 71.097226 
L 275.884563 72.850148 
L 276.950849 74.603071 
L 278.15352 76.355993 
L 279.436783 78.108916 
L 280.720045 79.861839 
L 282.034305 81.614761 
L 283.174982 83.367684 
L 284.371454 85.120606 
L 285.72291 86.873529 
L 287.185953 88.626452 
L 288.51881 90.379374 
L 289.795874 92.132297 
L 291.097734 93.885219 
L 292.424392 95.638142 
L 293.84404 97.391064 
L 295.33808 99.143987 
L 296.658539 100.89691 
L 298.245569 102.649832 
L 299.572227 104.402755 
L 301.004273 106.155677 
L 302.516911 107.9086 
L 304.227928 109.661522 
L 305.783962 111.414445 
L 307.19741 113.167368 
L 308.908427 114.92029 
L 310.551251 116.673213 
L 312.15068 118.426135 
L 313.954687 120.179058 
L 315.926076 121.93198 
L 317.674288 123.684903 
L 319.385305 125.437826 
L 321.251305 127.190748 
L 323.179299 128.943671 
L 325.22508 130.696593 
L 327.239864 132.449516 
L 329.192655 134.202439 
L 331.418217 135.955361 
L 333.674775 137.708284 
L 335.931334 139.461206 
L 338.473062 141.214129 
L 340.940397 142.967051 
L 343.575115 144.719974 
L 346.507401 146.472897 
L 349.60087 148.225819 
L 353.264678 149.978742 
L 357.108266 151.731664 
L 360.90226 153.484587 
L 365.006221 155.237509 
L 368.887005 156.990432 
L 371.55272 158.743355 
L 374.317624 160.496277 
L 377.299504 162.2492 
L 380.901319 164.002122 
L 384.180767 165.755045 
L 386.474522 167.507967 
L 388.408715 169.26089 
L 390.274715 171.013813 
L 391.936137 172.766735 
L 393.802137 174.519658 
L 395.73633 176.27258 
L 397.633327 178.025503 
L 399.071573 179.778426 
L 400.336238 181.531348 
L 401.309533 183.284271 
L 402.171241 185.037193 
L 402.84077 186.790116 
L 403.497899 188.543038 
L 403.962849 190.295961 
L 404.353408 192.048884 
L 404.588982 193.801806 
L 404.750165 195.554729 
L 405.004338 197.307651 
L 405.177919 199.060574 
L 405.456889 200.813496 
L 405.624271 202.566419 
L 405.847448 204.319342 
L 406.027228 206.072264 
L 406.269002 207.825187 
L 406.448783 209.578109 
L 406.690557 211.331032 
L 406.907534 213.083954 
L 407.062517 214.836877 
L 407.124511 216.5898 
L 407.167906 218.342722 
L 407.2299 220.095645 
L 407.279494 221.848567 
L 407.304292 223.60149 
L 407.341488 225.354413 
" style="fill:none;stroke:#258d41;stroke-dasharray:9.6,2.4,1.5,2.4;stroke-dashoffset:0;stroke-width:1.5;"/>
   </g>
   <g id="line2d_27">
    <path clip-path="url(#pa153552483)" d="M 259.77124 53.568 
L 261.308007 55.729854 
L 262.74039 57.891708 
L 263.923411 60.053562 
L 264.996248 62.215416 
L 266.138675 64.377269 
L 267.223111 66.539123 
L 268.28435 68.700977 
L 269.507965 70.862831 
L 270.73158 73.024685 
L 271.868207 75.186539 
L 273.080224 77.348393 
L 274.350231 79.510247 
L 275.684029 81.672101 
L 277.070019 83.833955 
L 278.485005 85.995808 
L 279.882593 88.157662 
L 281.506348 90.319516 
L 283.101106 92.48137 
L 284.736458 94.643224 
L 286.464596 96.805078 
L 288.053556 98.966932 
L 289.996262 101.128786 
L 292.049151 103.29064 
L 293.957062 105.452494 
L 295.864973 107.614347 
L 298.057041 109.776201 
L 300.243309 111.938055 
L 302.330993 114.099909 
L 304.720231 116.261763 
L 307.202255 118.423617 
L 309.840856 120.585471 
L 312.444661 122.747325 
L 315.645777 124.909179 
L 318.974472 127.071033 
L 322.593124 129.232886 
L 325.776842 131.39474 
L 329.059145 133.556594 
L 332.19067 135.718448 
L 335.061236 137.880302 
L 338.157967 140.042156 
L 341.190907 142.20401 
L 344.310835 144.365864 
L 347.819303 146.527718 
L 351.345169 148.689571 
L 354.83624 150.851425 
L 358.054753 153.013279 
L 361.279065 155.175133 
L 364.196023 157.336987 
L 366.846221 159.498841 
L 369.6298 161.660695 
L 372.227806 163.822549 
L 374.605446 165.984403 
L 376.855505 168.146257 
L 379.140359 170.30811 
L 380.665528 172.469964 
L 382.347273 174.631818 
L 383.860844 176.793672 
L 385.40921 178.955526 
L 386.916981 181.11738 
L 388.337766 183.279234 
L 389.770149 185.441088 
L 391.289519 187.602942 
L 392.495736 189.764796 
L 393.626565 191.926649 
L 394.774791 194.088503 
L 395.679454 196.250357 
L 396.468135 198.412211 
L 397.198824 200.574065 
L 397.958509 202.735919 
L 398.602211 204.897773 
L 399.373494 207.059627 
L 399.9998 209.221481 
L 400.730489 211.383335 
L 401.275606 213.545188 
L 401.849719 215.707042 
L 402.423832 217.868896 
L 402.945753 220.03075 
L 403.508268 222.192604 
L 404.018591 224.354458 
L 404.517315 226.516312 
L 404.830468 228.678166 
L 405.050835 230.84002 
L 405.317594 233.001874 
L 405.613349 235.163727 
L 405.856912 237.325581 
L 406.117873 239.487435 
L 406.26865 241.649289 
L 406.413628 243.811143 
L 406.53541 245.972997 
L 406.668789 248.134851 
L 406.819567 250.296705 
L 406.889156 252.458559 
L 406.970344 254.620412 
L 407.045732 256.782266 
L 407.103724 258.94412 
L 407.19071 261.105974 
L 407.271898 263.267828 
L 407.341488 265.429682 
" style="fill:none;stroke:#115029;stroke-linecap:square;stroke-width:1.5;"/>
   </g>
   <g id="patch_8">
    <path d="M 252.392727 307.584 
L 252.392727 41.472 
" style="fill:none;stroke:#000000;stroke-linecap:square;stroke-linejoin:miter;stroke-width:0.8;"/>
   </g>
   <g id="patch_9">
    <path d="M 414.72 307.584 
L 414.72 41.472 
" style="fill:none;stroke:#000000;stroke-linecap:square;stroke-linejoin:miter;stroke-width:0.8;"/>
   </g>
   <g id="patch_10">
    <path d="M 252.392727 307.584 
L 414.72 307.584 
" style="fill:none;stroke:#000000;stroke-linecap:square;stroke-linejoin:miter;stroke-width:0.8;"/>
   </g>
   <g id="patch_11">
    <path d="M 252.392727 41.472 
L 414.72 41.472 
" style="fill:none;stroke:#000000;stroke-linecap:square;stroke-linejoin:miter;stroke-width:0.8;"/>
   </g>
   <g id="legend_1">
    <g id="patch_12">
     <path d="M 261.492727 301.084 
L 345.81804 301.084 
Q 348.41804 301.084 348.41804 298.484 
L 348.41804 225.176187 
Q 348.41804 222.576187 345.81804 222.576187 
L 261.492727 222.576187 
Q 258.892727 222.576187 258.892727 225.176187 
L 258.892727 298.484 
Q 258.892727 301.084 261.492727 301.084 
z
" style="fill:#ffffff;opacity:0.8;stroke:#cccccc;stroke-linejoin:miter;"/>
    </g>
    <g id="line2d_28">
     <path d="M 264.092727 233.104156 
L 290.092727 233.104156 
" style="fill:none;stroke:#000000;stroke-linecap:square;stroke-width:3;"/>
    </g>
    <g id="line2d_29"/>
    <g id="text_21">
     <!-- TS -->
     <defs>
      <path d="M -0.296875 72.90625 
L 61.375 72.90625 
L 61.375 64.59375 
L 35.5 64.59375 
L 35.5 0 
L 25.59375 0 
L 25.59375 64.59375 
L -0.296875 64.59375 
z
" id="DejaVuSans-84"/>
      <path d="M 53.515625 70.515625 
L 53.515625 60.890625 
Q 47.90625 63.578125 42.921875 64.890625 
Q 37.9375 66.21875 33.296875 66.21875 
Q 25.25 66.21875 20.875 63.09375 
Q 16.5 59.96875 16.5 54.203125 
Q 16.5 49.359375 19.40625 46.890625 
Q 22.3125 44.4375 30.421875 42.921875 
L 36.375 41.703125 
Q 47.40625 39.59375 52.65625 34.296875 
Q 57.90625 29 57.90625 20.125 
Q 57.90625 9.515625 50.796875 4.046875 
Q 43.703125 -1.421875 29.984375 -1.421875 
Q 24.8125 -1.421875 18.96875 -0.25 
Q 13.140625 0.921875 6.890625 3.21875 
L 6.890625 13.375 
Q 12.890625 10.015625 18.65625 8.296875 
Q 24.421875 6.59375 29.984375 6.59375 
Q 38.421875 6.59375 43.015625 9.90625 
Q 47.609375 13.234375 47.609375 19.390625 
Q 47.609375 24.75 44.3125 27.78125 
Q 41.015625 30.8125 33.5 32.328125 
L 27.484375 33.5 
Q 16.453125 35.6875 11.515625 40.375 
Q 6.59375 45.0625 6.59375 53.421875 
Q 6.59375 63.09375 13.40625 68.65625 
Q 20.21875 74.21875 32.171875 74.21875 
Q 37.3125 74.21875 42.625 73.28125 
Q 47.953125 72.359375 53.515625 70.515625 
z
" id="DejaVuSans-83"/>
     </defs>
     <g transform="translate(300.492727 237.654156)scale(0.13 -0.13)">
      <use xlink:href="#DejaVuSans-84"/>
      <use x="61.083984" xlink:href="#DejaVuSans-83"/>
     </g>
    </g>
    <g id="line2d_30">
     <path d="M 264.092727 246.985719 
L 290.092727 246.985719 
" style="fill:none;stroke:#a2eb7f;stroke-dasharray:1.5,2.475;stroke-dashoffset:0;stroke-width:1.5;"/>
    </g>
    <g id="line2d_31"/>
    <g id="text_22">
     <!-- RB, n0 -->
     <defs>
      <path d="M 44.390625 34.1875 
Q 47.5625 33.109375 50.5625 29.59375 
Q 53.5625 26.078125 56.59375 19.921875 
L 66.609375 0 
L 56 0 
L 46.6875 18.703125 
Q 43.0625 26.03125 39.671875 28.421875 
Q 36.28125 30.8125 30.421875 30.8125 
L 19.671875 30.8125 
L 19.671875 0 
L 9.8125 0 
L 9.8125 72.90625 
L 32.078125 72.90625 
Q 44.578125 72.90625 50.734375 67.671875 
Q 56.890625 62.453125 56.890625 51.90625 
Q 56.890625 45.015625 53.6875 40.46875 
Q 50.484375 35.9375 44.390625 34.1875 
z
M 19.671875 64.796875 
L 19.671875 38.921875 
L 32.078125 38.921875 
Q 39.203125 38.921875 42.84375 42.21875 
Q 46.484375 45.515625 46.484375 51.90625 
Q 46.484375 58.296875 42.84375 61.546875 
Q 39.203125 64.796875 32.078125 64.796875 
z
" id="DejaVuSans-82"/>
      <path d="M 19.671875 34.8125 
L 19.671875 8.109375 
L 35.5 8.109375 
Q 43.453125 8.109375 47.28125 11.40625 
Q 51.125 14.703125 51.125 21.484375 
Q 51.125 28.328125 47.28125 31.5625 
Q 43.453125 34.8125 35.5 34.8125 
z
M 19.671875 64.796875 
L 19.671875 42.828125 
L 34.28125 42.828125 
Q 41.5 42.828125 45.03125 45.53125 
Q 48.578125 48.25 48.578125 53.8125 
Q 48.578125 59.328125 45.03125 62.0625 
Q 41.5 64.796875 34.28125 64.796875 
z
M 9.8125 72.90625 
L 35.015625 72.90625 
Q 46.296875 72.90625 52.390625 68.21875 
Q 58.5 63.53125 58.5 54.890625 
Q 58.5 48.1875 55.375 44.234375 
Q 52.25 40.28125 46.1875 39.3125 
Q 53.46875 37.75 57.5 32.78125 
Q 61.53125 27.828125 61.53125 20.40625 
Q 61.53125 10.640625 54.890625 5.3125 
Q 48.25 0 35.984375 0 
L 9.8125 0 
z
" id="DejaVuSans-66"/>
      <path d="M 11.71875 12.40625 
L 22.015625 12.40625 
L 22.015625 4 
L 14.015625 -11.625 
L 7.71875 -11.625 
L 11.71875 4 
z
" id="DejaVuSans-44"/>
      <path d="M 54.890625 33.015625 
L 54.890625 0 
L 45.90625 0 
L 45.90625 32.71875 
Q 45.90625 40.484375 42.875 44.328125 
Q 39.84375 48.1875 33.796875 48.1875 
Q 26.515625 48.1875 22.3125 43.546875 
Q 18.109375 38.921875 18.109375 30.90625 
L 18.109375 0 
L 9.078125 0 
L 9.078125 54.6875 
L 18.109375 54.6875 
L 18.109375 46.1875 
Q 21.34375 51.125 25.703125 53.5625 
Q 30.078125 56 35.796875 56 
Q 45.21875 56 50.046875 50.171875 
Q 54.890625 44.34375 54.890625 33.015625 
z
" id="DejaVuSans-110"/>
     </defs>
     <g transform="translate(300.492727 251.535719)scale(0.13 -0.13)">
      <use xlink:href="#DejaVuSans-82"/>
      <use x="69.482422" xlink:href="#DejaVuSans-66"/>
      <use x="138.085938" xlink:href="#DejaVuSans-44"/>
      <use x="169.873047" xlink:href="#DejaVuSans-32"/>
      <use x="201.660156" xlink:href="#DejaVuSans-110"/>
      <use x="265.039062" xlink:href="#DejaVuSans-48"/>
     </g>
    </g>
    <g id="line2d_32">
     <path d="M 264.092727 260.867281 
L 290.092727 260.867281 
" style="fill:none;stroke:#77cd86;stroke-dasharray:5.55,2.4;stroke-dashoffset:0;stroke-width:1.5;"/>
    </g>
    <g id="line2d_33"/>
    <g id="text_23">
     <!-- RB, s0 -->
     <defs>
      <path d="M 44.28125 53.078125 
L 44.28125 44.578125 
Q 40.484375 46.53125 36.375 47.5 
Q 32.28125 48.484375 27.875 48.484375 
Q 21.1875 48.484375 17.84375 46.4375 
Q 14.5 44.390625 14.5 40.28125 
Q 14.5 37.15625 16.890625 35.375 
Q 19.28125 33.59375 26.515625 31.984375 
L 29.59375 31.296875 
Q 39.15625 29.25 43.1875 25.515625 
Q 47.21875 21.78125 47.21875 15.09375 
Q 47.21875 7.46875 41.1875 3.015625 
Q 35.15625 -1.421875 24.609375 -1.421875 
Q 20.21875 -1.421875 15.453125 -0.5625 
Q 10.6875 0.296875 5.421875 2 
L 5.421875 11.28125 
Q 10.40625 8.6875 15.234375 7.390625 
Q 20.0625 6.109375 24.8125 6.109375 
Q 31.15625 6.109375 34.5625 8.28125 
Q 37.984375 10.453125 37.984375 14.40625 
Q 37.984375 18.0625 35.515625 20.015625 
Q 33.0625 21.96875 24.703125 23.78125 
L 21.578125 24.515625 
Q 13.234375 26.265625 9.515625 29.90625 
Q 5.8125 33.546875 5.8125 39.890625 
Q 5.8125 47.609375 11.28125 51.796875 
Q 16.75 56 26.8125 56 
Q 31.78125 56 36.171875 55.265625 
Q 40.578125 54.546875 44.28125 53.078125 
z
" id="DejaVuSans-115"/>
     </defs>
     <g transform="translate(300.492727 265.417281)scale(0.13 -0.13)">
      <use xlink:href="#DejaVuSans-82"/>
      <use x="69.482422" xlink:href="#DejaVuSans-66"/>
      <use x="138.085938" xlink:href="#DejaVuSans-44"/>
      <use x="169.873047" xlink:href="#DejaVuSans-32"/>
      <use x="201.660156" xlink:href="#DejaVuSans-115"/>
      <use x="253.759766" xlink:href="#DejaVuSans-48"/>
     </g>
    </g>
    <g id="line2d_34">
     <path d="M 264.092727 274.748844 
L 290.092727 274.748844 
" style="fill:none;stroke:#258d41;stroke-dasharray:9.6,2.4,1.5,2.4;stroke-dashoffset:0;stroke-width:1.5;"/>
    </g>
    <g id="line2d_35"/>
    <g id="text_24">
     <!-- RB, s1 -->
     <g transform="translate(300.492727 279.298844)scale(0.13 -0.13)">
      <use xlink:href="#DejaVuSans-82"/>
      <use x="69.482422" xlink:href="#DejaVuSans-66"/>
      <use x="138.085938" xlink:href="#DejaVuSans-44"/>
      <use x="169.873047" xlink:href="#DejaVuSans-32"/>
      <use x="201.660156" xlink:href="#DejaVuSans-115"/>
      <use x="253.759766" xlink:href="#DejaVuSans-49"/>
     </g>
    </g>
    <g id="line2d_36">
     <path d="M 264.092727 288.630406 
L 290.092727 288.630406 
" style="fill:none;stroke:#115029;stroke-linecap:square;stroke-width:1.5;"/>
    </g>
    <g id="line2d_37"/>
    <g id="text_25">
     <!-- RB, s2 -->
     <g transform="translate(300.492727 293.180406)scale(0.13 -0.13)">
      <use xlink:href="#DejaVuSans-82"/>
      <use x="69.482422" xlink:href="#DejaVuSans-66"/>
      <use x="138.085938" xlink:href="#DejaVuSans-44"/>
      <use x="169.873047" xlink:href="#DejaVuSans-32"/>
      <use x="201.660156" xlink:href="#DejaVuSans-115"/>
      <use x="253.759766" xlink:href="#DejaVuSans-50"/>
     </g>
    </g>
   </g>
  </g>
 </g>
 <defs>
  <clipPath id="p5fbe05370a">
   <rect height="266.112" width="162.327273" x="57.6" y="41.472"/>
  </clipPath>
  <clipPath id="pa153552483">
   <rect height="266.112" width="162.327273" x="252.392727" y="41.472"/>
  </clipPath>
 </defs>
</svg>
