<?xml version="1.0" encoding="utf-8" standalone="no"?>
<!DOCTYPE svg PUBLIC "-//W3C//DTD SVG 1.1//EN"
  "http://www.w3.org/Graphics/SVG/1.1/DTD/svg11.dtd">
<!-- Created with matplotlib (https://matplotlib.org/) -->
<svg height="345.6pt" version="1.1" viewBox="0 0 460.8 345.6" width="460.8pt" xmlns="http://www.w3.org/2000/svg" xmlns:xlink="http://www.w3.org/1999/xlink">
 <defs>
  <style type="text/css">
*{stroke-linecap:butt;stroke-linejoin:round;}
  </style>
 </defs>
 <g id="figure_1">
  <g id="patch_1">
   <path d="M 0 345.6 
L 460.8 345.6 
L 460.8 0 
L 0 0 
z
" style="fill:#ffffff;"/>
  </g>
  <g id="axes_1">
   <g id="patch_2">
    <path d="M 57.6 307.584 
L 219.927273 307.584 
L 219.927273 41.472 
L 57.6 41.472 
z
" style="fill:#ffffff;"/>
   </g>
   <g id="matplotlib.axis_1">
    <g id="xtick_1">
     <g id="line2d_1">
      <defs>
       <path d="M 0 0 
L 0 3.5 
" id="ma02660127d" style="stroke:#000000;stroke-width:0.8;"/>
      </defs>
      <g>
       <use style="stroke:#000000;stroke-width:0.8;" x="213.013182" xlink:href="#ma02660127d" y="307.584"/>
      </g>
     </g>
     <g id="text_1">
      <!-- 0 -->
      <defs>
       <path d="M 31.78125 66.40625 
Q 24.171875 66.40625 20.328125 58.90625 
Q 16.5 51.421875 16.5 36.375 
Q 16.5 21.390625 20.328125 13.890625 
Q 24.171875 6.390625 31.78125 6.390625 
Q 39.453125 6.390625 43.28125 13.890625 
Q 47.125 21.390625 47.125 36.375 
Q 47.125 51.421875 43.28125 58.90625 
Q 39.453125 66.40625 31.78125 66.40625 
z
M 31.78125 74.21875 
Q 44.046875 74.21875 50.515625 64.515625 
Q 56.984375 54.828125 56.984375 36.375 
Q 56.984375 17.96875 50.515625 8.265625 
Q 44.046875 -1.421875 31.78125 -1.421875 
Q 19.53125 -1.421875 13.0625 8.265625 
Q 6.59375 17.96875 6.59375 36.375 
Q 6.59375 54.828125 13.0625 64.515625 
Q 19.53125 74.21875 31.78125 74.21875 
z
" id="DejaVuSans-48"/>
      </defs>
      <g transform="translate(208.241307 325.981656)scale(0.15 -0.15)">
       <use xlink:href="#DejaVuSans-48"/>
      </g>
     </g>
    </g>
    <g id="xtick_2">
     <g id="line2d_2">
      <g>
       <use style="stroke:#000000;stroke-width:0.8;" x="158.38057" xlink:href="#ma02660127d" y="307.584"/>
      </g>
     </g>
     <g id="text_2">
      <!-- 1 -->
      <defs>
       <path d="M 12.40625 8.296875 
L 28.515625 8.296875 
L 28.515625 63.921875 
L 10.984375 60.40625 
L 10.984375 69.390625 
L 28.421875 72.90625 
L 38.28125 72.90625 
L 38.28125 8.296875 
L 54.390625 8.296875 
L 54.390625 0 
L 12.40625 0 
z
" id="DejaVuSans-49"/>
      </defs>
      <g transform="translate(153.608695 325.981656)scale(0.15 -0.15)">
       <use xlink:href="#DejaVuSans-49"/>
      </g>
     </g>
    </g>
    <g id="xtick_3">
     <g id="line2d_3">
      <g>
       <use style="stroke:#000000;stroke-width:0.8;" x="103.747959" xlink:href="#ma02660127d" y="307.584"/>
      </g>
     </g>
     <g id="text_3">
      <!-- 2 -->
      <defs>
       <path d="M 19.1875 8.296875 
L 53.609375 8.296875 
L 53.609375 0 
L 7.328125 0 
L 7.328125 8.296875 
Q 12.9375 14.109375 22.625 23.890625 
Q 32.328125 33.6875 34.8125 36.53125 
Q 39.546875 41.84375 41.421875 45.53125 
Q 43.3125 49.21875 43.3125 52.78125 
Q 43.3125 58.59375 39.234375 62.25 
Q 35.15625 65.921875 28.609375 65.921875 
Q 23.96875 65.921875 18.8125 64.3125 
Q 13.671875 62.703125 7.8125 59.421875 
L 7.8125 69.390625 
Q 13.765625 71.78125 18.9375 73 
Q 24.125 74.21875 28.421875 74.21875 
Q 39.75 74.21875 46.484375 68.546875 
Q 53.21875 62.890625 53.21875 53.421875 
Q 53.21875 48.921875 51.53125 44.890625 
Q 49.859375 40.875 45.40625 35.40625 
Q 44.1875 33.984375 37.640625 27.21875 
Q 31.109375 20.453125 19.1875 8.296875 
z
" id="DejaVuSans-50"/>
      </defs>
      <g transform="translate(98.976084 325.981656)scale(0.15 -0.15)">
       <use xlink:href="#DejaVuSans-50"/>
      </g>
     </g>
    </g>
    <g id="text_4">
     <!-- PDF -->
     <defs>
      <path d="M 19.671875 64.796875 
L 19.671875 37.40625 
L 32.078125 37.40625 
Q 38.96875 37.40625 42.71875 40.96875 
Q 46.484375 44.53125 46.484375 51.125 
Q 46.484375 57.671875 42.71875 61.234375 
Q 38.96875 64.796875 32.078125 64.796875 
z
M 9.8125 72.90625 
L 32.078125 72.90625 
Q 44.34375 72.90625 50.609375 67.359375 
Q 56.890625 61.8125 56.890625 51.125 
Q 56.890625 40.328125 50.609375 34.8125 
Q 44.34375 29.296875 32.078125 29.296875 
L 19.671875 29.296875 
L 19.671875 0 
L 9.8125 0 
z
" id="DejaVuSans-80"/>
      <path d="M 19.671875 64.796875 
L 19.671875 8.109375 
L 31.59375 8.109375 
Q 46.6875 8.109375 53.6875 14.9375 
Q 60.6875 21.78125 60.6875 36.53125 
Q 60.6875 51.171875 53.6875 57.984375 
Q 46.6875 64.796875 31.59375 64.796875 
z
M 9.8125 72.90625 
L 30.078125 72.90625 
Q 51.265625 72.90625 61.171875 64.09375 
Q 71.09375 55.28125 71.09375 36.53125 
Q 71.09375 17.671875 61.125 8.828125 
Q 51.171875 0 30.078125 0 
L 9.8125 0 
z
" id="DejaVuSans-68"/>
      <path d="M 9.8125 72.90625 
L 51.703125 72.90625 
L 51.703125 64.59375 
L 19.671875 64.59375 
L 19.671875 43.109375 
L 48.578125 43.109375 
L 48.578125 34.8125 
L 19.671875 34.8125 
L 19.671875 0 
L 9.8125 0 
z
" id="DejaVuSans-70"/>
     </defs>
     <g transform="translate(122.204574 346.018531)scale(0.17 -0.17)">
      <use xlink:href="#DejaVuSans-80"/>
      <use x="60.302734" xlink:href="#DejaVuSans-68"/>
      <use x="137.304688" xlink:href="#DejaVuSans-70"/>
     </g>
    </g>
   </g>
   <g id="matplotlib.axis_2">
    <g id="ytick_1">
     <g id="line2d_4">
      <defs>
       <path d="M 0 0 
L -3.5 0 
" id="m7fb84db364" style="stroke:#000000;stroke-width:0.8;"/>
      </defs>
      <g>
       <use style="stroke:#000000;stroke-width:0.8;" x="57.6" xlink:href="#m7fb84db364" y="53.568"/>
      </g>
     </g>
     <g id="text_5">
      <!-- 0.0 -->
      <defs>
       <path d="M 10.6875 12.40625 
L 21 12.40625 
L 21 0 
L 10.6875 0 
z
" id="DejaVuSans-46"/>
      </defs>
      <g transform="translate(26.745313 59.266828)scale(0.15 -0.15)">
       <use xlink:href="#DejaVuSans-48"/>
       <use x="63.623047" xlink:href="#DejaVuSans-46"/>
       <use x="95.410156" xlink:href="#DejaVuSans-48"/>
      </g>
     </g>
    </g>
    <g id="ytick_2">
     <g id="line2d_5">
      <g>
       <use style="stroke:#000000;stroke-width:0.8;" x="57.6" xlink:href="#m7fb84db364" y="93.865918"/>
      </g>
     </g>
     <g id="text_6">
      <!-- 0.5 -->
      <defs>
       <path d="M 10.796875 72.90625 
L 49.515625 72.90625 
L 49.515625 64.59375 
L 19.828125 64.59375 
L 19.828125 46.734375 
Q 21.96875 47.46875 24.109375 47.828125 
Q 26.265625 48.1875 28.421875 48.1875 
Q 40.625 48.1875 47.75 41.5 
Q 54.890625 34.8125 54.890625 23.390625 
Q 54.890625 11.625 47.5625 5.09375 
Q 40.234375 -1.421875 26.90625 -1.421875 
Q 22.3125 -1.421875 17.546875 -0.640625 
Q 12.796875 0.140625 7.71875 1.703125 
L 7.71875 11.625 
Q 12.109375 9.234375 16.796875 8.0625 
Q 21.484375 6.890625 26.703125 6.890625 
Q 35.15625 6.890625 40.078125 11.328125 
Q 45.015625 15.765625 45.015625 23.390625 
Q 45.015625 31 40.078125 35.4375 
Q 35.15625 39.890625 26.703125 39.890625 
Q 22.75 39.890625 18.8125 39.015625 
Q 14.890625 38.140625 10.796875 36.28125 
z
" id="DejaVuSans-53"/>
      </defs>
      <g transform="translate(26.745313 99.564746)scale(0.15 -0.15)">
       <use xlink:href="#DejaVuSans-48"/>
       <use x="63.623047" xlink:href="#DejaVuSans-46"/>
       <use x="95.410156" xlink:href="#DejaVuSans-53"/>
      </g>
     </g>
    </g>
    <g id="ytick_3">
     <g id="line2d_6">
      <g>
       <use style="stroke:#000000;stroke-width:0.8;" x="57.6" xlink:href="#m7fb84db364" y="134.163835"/>
      </g>
     </g>
     <g id="text_7">
      <!-- 1.0 -->
      <g transform="translate(26.745313 139.862663)scale(0.15 -0.15)">
       <use xlink:href="#DejaVuSans-49"/>
       <use x="63.623047" xlink:href="#DejaVuSans-46"/>
       <use x="95.410156" xlink:href="#DejaVuSans-48"/>
      </g>
     </g>
    </g>
    <g id="ytick_4">
     <g id="line2d_7">
      <g>
       <use style="stroke:#000000;stroke-width:0.8;" x="57.6" xlink:href="#m7fb84db364" y="174.461753"/>
      </g>
     </g>
     <g id="text_8">
      <!-- 1.5 -->
      <g transform="translate(26.745313 180.160581)scale(0.15 -0.15)">
       <use xlink:href="#DejaVuSans-49"/>
       <use x="63.623047" xlink:href="#DejaVuSans-46"/>
       <use x="95.410156" xlink:href="#DejaVuSans-53"/>
      </g>
     </g>
    </g>
    <g id="ytick_5">
     <g id="line2d_8">
      <g>
       <use style="stroke:#000000;stroke-width:0.8;" x="57.6" xlink:href="#m7fb84db364" y="214.75967"/>
      </g>
     </g>
     <g id="text_9">
      <!-- 2.0 -->
      <g transform="translate(26.745313 220.458499)scale(0.15 -0.15)">
       <use xlink:href="#DejaVuSans-50"/>
       <use x="63.623047" xlink:href="#DejaVuSans-46"/>
       <use x="95.410156" xlink:href="#DejaVuSans-48"/>
      </g>
     </g>
    </g>
    <g id="ytick_6">
     <g id="line2d_9">
      <g>
       <use style="stroke:#000000;stroke-width:0.8;" x="57.6" xlink:href="#m7fb84db364" y="255.057588"/>
      </g>
     </g>
     <g id="text_10">
      <!-- 2.5 -->
      <g transform="translate(26.745313 260.756416)scale(0.15 -0.15)">
       <use xlink:href="#DejaVuSans-50"/>
       <use x="63.623047" xlink:href="#DejaVuSans-46"/>
       <use x="95.410156" xlink:href="#DejaVuSans-53"/>
      </g>
     </g>
    </g>
    <g id="ytick_7">
     <g id="line2d_10">
      <g>
       <use style="stroke:#000000;stroke-width:0.8;" x="57.6" xlink:href="#m7fb84db364" y="295.355506"/>
      </g>
     </g>
     <g id="text_11">
      <!-- 3.0 -->
      <defs>
       <path d="M 40.578125 39.3125 
Q 47.65625 37.796875 51.625 33 
Q 55.609375 28.21875 55.609375 21.1875 
Q 55.609375 10.40625 48.1875 4.484375 
Q 40.765625 -1.421875 27.09375 -1.421875 
Q 22.515625 -1.421875 17.65625 -0.515625 
Q 12.796875 0.390625 7.625 2.203125 
L 7.625 11.71875 
Q 11.71875 9.328125 16.59375 8.109375 
Q 21.484375 6.890625 26.8125 6.890625 
Q 36.078125 6.890625 40.9375 10.546875 
Q 45.796875 14.203125 45.796875 21.1875 
Q 45.796875 27.640625 41.28125 31.265625 
Q 36.765625 34.90625 28.71875 34.90625 
L 20.21875 34.90625 
L 20.21875 43.015625 
L 29.109375 43.015625 
Q 36.375 43.015625 40.234375 45.921875 
Q 44.09375 48.828125 44.09375 54.296875 
Q 44.09375 59.90625 40.109375 62.90625 
Q 36.140625 65.921875 28.71875 65.921875 
Q 24.65625 65.921875 20.015625 65.03125 
Q 15.375 64.15625 9.8125 62.3125 
L 9.8125 71.09375 
Q 15.4375 72.65625 20.34375 73.4375 
Q 25.25 74.21875 29.59375 74.21875 
Q 40.828125 74.21875 47.359375 69.109375 
Q 53.90625 64.015625 53.90625 55.328125 
Q 53.90625 49.265625 50.4375 45.09375 
Q 46.96875 40.921875 40.578125 39.3125 
z
" id="DejaVuSans-51"/>
      </defs>
      <g transform="translate(26.745313 301.054334)scale(0.15 -0.15)">
       <use xlink:href="#DejaVuSans-51"/>
       <use x="63.623047" xlink:href="#DejaVuSans-46"/>
       <use x="95.410156" xlink:href="#DejaVuSans-48"/>
      </g>
     </g>
    </g>
    <g id="text_12">
     <!-- Depth (m) -->
     <defs>
      <path d="M 56.203125 29.59375 
L 56.203125 25.203125 
L 14.890625 25.203125 
Q 15.484375 15.921875 20.484375 11.0625 
Q 25.484375 6.203125 34.421875 6.203125 
Q 39.59375 6.203125 44.453125 7.46875 
Q 49.3125 8.734375 54.109375 11.28125 
L 54.109375 2.78125 
Q 49.265625 0.734375 44.1875 -0.34375 
Q 39.109375 -1.421875 33.890625 -1.421875 
Q 20.796875 -1.421875 13.15625 6.1875 
Q 5.515625 13.8125 5.515625 26.8125 
Q 5.515625 40.234375 12.765625 48.109375 
Q 20.015625 56 32.328125 56 
Q 43.359375 56 49.78125 48.890625 
Q 56.203125 41.796875 56.203125 29.59375 
z
M 47.21875 32.234375 
Q 47.125 39.59375 43.09375 43.984375 
Q 39.0625 48.390625 32.421875 48.390625 
Q 24.90625 48.390625 20.390625 44.140625 
Q 15.875 39.890625 15.1875 32.171875 
z
" id="DejaVuSans-101"/>
      <path d="M 18.109375 8.203125 
L 18.109375 -20.796875 
L 9.078125 -20.796875 
L 9.078125 54.6875 
L 18.109375 54.6875 
L 18.109375 46.390625 
Q 20.953125 51.265625 25.265625 53.625 
Q 29.59375 56 35.59375 56 
Q 45.5625 56 51.78125 48.09375 
Q 58.015625 40.1875 58.015625 27.296875 
Q 58.015625 14.40625 51.78125 6.484375 
Q 45.5625 -1.421875 35.59375 -1.421875 
Q 29.59375 -1.421875 25.265625 0.953125 
Q 20.953125 3.328125 18.109375 8.203125 
z
M 48.6875 27.296875 
Q 48.6875 37.203125 44.609375 42.84375 
Q 40.53125 48.484375 33.40625 48.484375 
Q 26.265625 48.484375 22.1875 42.84375 
Q 18.109375 37.203125 18.109375 27.296875 
Q 18.109375 17.390625 22.1875 11.75 
Q 26.265625 6.109375 33.40625 6.109375 
Q 40.53125 6.109375 44.609375 11.75 
Q 48.6875 17.390625 48.6875 27.296875 
z
" id="DejaVuSans-112"/>
      <path d="M 18.3125 70.21875 
L 18.3125 54.6875 
L 36.8125 54.6875 
L 36.8125 47.703125 
L 18.3125 47.703125 
L 18.3125 18.015625 
Q 18.3125 11.328125 20.140625 9.421875 
Q 21.96875 7.515625 27.59375 7.515625 
L 36.8125 7.515625 
L 36.8125 0 
L 27.59375 0 
Q 17.1875 0 13.234375 3.875 
Q 9.28125 7.765625 9.28125 18.015625 
L 9.28125 47.703125 
L 2.6875 47.703125 
L 2.6875 54.6875 
L 9.28125 54.6875 
L 9.28125 70.21875 
z
" id="DejaVuSans-116"/>
      <path d="M 54.890625 33.015625 
L 54.890625 0 
L 45.90625 0 
L 45.90625 32.71875 
Q 45.90625 40.484375 42.875 44.328125 
Q 39.84375 48.1875 33.796875 48.1875 
Q 26.515625 48.1875 22.3125 43.546875 
Q 18.109375 38.921875 18.109375 30.90625 
L 18.109375 0 
L 9.078125 0 
L 9.078125 75.984375 
L 18.109375 75.984375 
L 18.109375 46.1875 
Q 21.34375 51.125 25.703125 53.5625 
Q 30.078125 56 35.796875 56 
Q 45.21875 56 50.046875 50.171875 
Q 54.890625 44.34375 54.890625 33.015625 
z
" id="DejaVuSans-104"/>
      <path id="DejaVuSans-32"/>
      <path d="M 31 75.875 
Q 24.46875 64.65625 21.28125 53.65625 
Q 18.109375 42.671875 18.109375 31.390625 
Q 18.109375 20.125 21.3125 9.0625 
Q 24.515625 -2 31 -13.1875 
L 23.1875 -13.1875 
Q 15.875 -1.703125 12.234375 9.375 
Q 8.59375 20.453125 8.59375 31.390625 
Q 8.59375 42.28125 12.203125 53.3125 
Q 15.828125 64.359375 23.1875 75.875 
z
" id="DejaVuSans-40"/>
      <path d="M 52 44.1875 
Q 55.375 50.25 60.0625 53.125 
Q 64.75 56 71.09375 56 
Q 79.640625 56 84.28125 50.015625 
Q 88.921875 44.046875 88.921875 33.015625 
L 88.921875 0 
L 79.890625 0 
L 79.890625 32.71875 
Q 79.890625 40.578125 77.09375 44.375 
Q 74.3125 48.1875 68.609375 48.1875 
Q 61.625 48.1875 57.5625 43.546875 
Q 53.515625 38.921875 53.515625 30.90625 
L 53.515625 0 
L 44.484375 0 
L 44.484375 32.71875 
Q 44.484375 40.625 41.703125 44.40625 
Q 38.921875 48.1875 33.109375 48.1875 
Q 26.21875 48.1875 22.15625 43.53125 
Q 18.109375 38.875 18.109375 30.90625 
L 18.109375 0 
L 9.078125 0 
L 9.078125 54.6875 
L 18.109375 54.6875 
L 18.109375 46.1875 
Q 21.1875 51.21875 25.484375 53.609375 
Q 29.78125 56 35.6875 56 
Q 41.65625 56 45.828125 52.96875 
Q 50 49.953125 52 44.1875 
z
" id="DejaVuSans-109"/>
      <path d="M 8.015625 75.875 
L 15.828125 75.875 
Q 23.140625 64.359375 26.78125 53.3125 
Q 30.421875 42.28125 30.421875 31.390625 
Q 30.421875 20.453125 26.78125 9.375 
Q 23.140625 -1.703125 15.828125 -13.1875 
L 8.015625 -13.1875 
Q 14.5 -2 17.703125 9.0625 
Q 20.90625 20.125 20.90625 31.390625 
Q 20.90625 42.671875 17.703125 53.65625 
Q 14.5 64.65625 8.015625 75.875 
z
" id="DejaVuSans-41"/>
     </defs>
     <g transform="translate(19.209844 218.032062)rotate(-90)scale(0.17 -0.17)">
      <use xlink:href="#DejaVuSans-68"/>
      <use x="77.001953" xlink:href="#DejaVuSans-101"/>
      <use x="138.525391" xlink:href="#DejaVuSans-112"/>
      <use x="202.001953" xlink:href="#DejaVuSans-116"/>
      <use x="241.210938" xlink:href="#DejaVuSans-104"/>
      <use x="304.589844" xlink:href="#DejaVuSans-32"/>
      <use x="336.376953" xlink:href="#DejaVuSans-40"/>
      <use x="375.390625" xlink:href="#DejaVuSans-109"/>
      <use x="472.802734" xlink:href="#DejaVuSans-41"/>
     </g>
    </g>
   </g>
   <g id="line2d_11">
    <path clip-path="url(#pc14d17b9e0)" d="M 197.842082 53.568 
L 198.306503 56.036571 
L 198.770925 58.505143 
L 200.62861 60.973714 
L 198.383907 63.442286 
L 197.222853 65.910857 
L 197.842082 68.379429 
L 197.609871 70.848 
L 200.62861 73.316571 
L 198.616118 75.785143 
L 200.551207 78.253714 
L 200.009382 80.722286 
L 200.551207 83.190857 
L 196.526221 85.659429 
L 198.46131 88.128 
L 194.591132 90.596571 
L 195.287764 93.065143 
L 194.668535 95.533714 
L 191.7272 98.002286 
L 191.572393 100.470857 
L 192.191621 102.939429 
L 188.166636 105.408 
L 188.47625 107.876571 
L 190.488743 110.345143 
L 192.501236 112.813714 
L 193.430078 115.282286 
L 193.352675 117.750857 
L 191.959411 120.219429 
L 192.81085 122.688 
L 193.275271 125.156571 
L 191.417586 127.625143 
L 188.553653 130.093714 
L 174.001782 132.562286 
L 160.997982 135.030857 
L 161.926825 137.499429 
L 167.577286 139.968 
L 175.008029 142.436571 
L 169.589779 144.905143 
L 174.311396 147.373714 
L 171.524868 149.842286 
L 170.286411 152.310857 
L 161.926825 154.779429 
L 164.171529 157.248 
L 167.112864 159.716571 
L 161.075386 162.185143 
L 168.119111 164.653714 
L 170.209007 167.122286 
L 167.964304 169.590857 
L 167.112864 172.059429 
L 174.233993 174.528 
L 179.110418 176.996571 
L 180.8907 179.465143 
L 180.116664 181.933714 
L 183.599825 184.402286 
L 183.754632 186.870857 
L 184.838282 189.339429 
L 188.398846 191.808 
L 193.739693 194.276571 
L 192.965657 196.745143 
L 195.519975 199.213714 
L 198.925732 201.682286 
L 199.931978 204.150857 
L 198.074293 206.619429 
L 200.783418 209.088 
L 201.093032 211.556571 
L 203.569946 214.025143 
L 204.96321 216.493714 
L 206.356475 218.962286 
L 206.8983 221.430857 
L 206.820896 223.899429 
L 208.368968 226.368 
L 209.143003 228.836571 
L 211.46511 231.305143 
L 211.619917 233.773714 
L 211.774725 236.242286 
L 211.852128 238.710857 
L 211.929532 241.179429 
L 212.006935 243.648 
L 211.929532 246.116571 
L 211.929532 248.585143 
L 211.852128 251.053714 
L 211.774725 253.522286 
L 212.31655 255.990857 
L 211.774725 258.459429 
L 212.084339 260.928 
L 211.774725 263.396571 
L 212.161742 265.865143 
L 212.084339 268.333714 
L 211.852128 270.802286 
L 212.006935 273.270857 
L 211.929532 275.739429 
L 211.774725 278.208 
L 211.852128 280.676571 
L 212.006935 283.145143 
L 211.852128 285.613714 
L 212.393953 288.082286 
L 212.161742 290.550857 
L 212.54876 293.019429 
L 212.471357 295.488 
" style="fill:none;stroke:#000000;stroke-linecap:square;stroke-width:3;"/>
   </g>
   <g id="line2d_12">
    <path clip-path="url(#pc14d17b9e0)" d="M 199.039408 53.568 
L 203.406212 55.222078 
L 201.55032 56.876155 
L 200.676959 58.530233 
L 198.166047 60.18431 
L 200.240279 61.838388 
L 201.44115 63.492465 
L 200.676959 65.146543 
L 201.11364 66.80062 
L 199.257748 68.454698 
L 200.349449 70.108775 
L 199.366918 71.762853 
L 199.257748 73.41693 
L 199.039408 75.071008 
L 197.838536 76.725085 
L 195.545964 78.379163 
L 196.310155 80.03324 
L 194.563433 81.687318 
L 191.3975 83.341396 
L 194.672603 84.995473 
L 192.380031 86.649551 
L 195.327624 88.303628 
L 191.94335 89.957706 
L 191.72501 91.611783 
L 195.000114 93.265861 
L 191.28833 94.919938 
L 195.000114 96.574016 
L 192.052521 98.228093 
L 192.270861 99.882171 
L 190.633309 101.536248 
L 194.563433 103.190326 
L 192.598371 104.844403 
L 193.144222 106.498481 
L 194.781773 108.152559 
L 188.995758 109.806636 
L 194.890943 111.460714 
L 190.851649 113.114791 
L 191.94335 114.768869 
L 191.94335 116.422946 
L 191.94335 118.077024 
L 192.489201 119.731101 
L 191.3975 121.385179 
L 194.017583 123.039256 
L 189.869118 124.693334 
L 193.580902 126.347411 
L 191.06999 128.001489 
L 193.908412 129.655566 
L 190.196629 131.309644 
L 190.96082 132.963721 
L 191.28833 134.617799 
L 190.742479 136.271877 
L 191.83418 137.925954 
L 190.524139 139.580032 
L 192.816711 141.234109 
L 190.414969 142.888187 
L 191.72501 144.542264 
L 189.650778 146.196342 
L 189.978289 147.850419 
L 192.380031 149.504497 
L 188.013227 151.158574 
L 191.50667 152.812652 
L 188.340737 154.466729 
L 189.541608 156.120807 
L 190.524139 157.774884 
L 188.449907 159.428962 
L 189.978289 161.08304 
L 187.358206 162.737117 
L 189.978289 164.391195 
L 188.122397 166.045272 
L 188.668247 167.69935 
L 186.703185 169.353427 
L 187.358206 171.007505 
L 187.794886 172.661582 
L 185.174804 174.31566 
L 188.777417 175.969737 
L 185.938994 177.623815 
L 186.266505 179.277892 
L 184.083103 180.93197 
L 185.174804 182.586047 
L 183.209742 184.240125 
L 185.611484 185.894202 
L 181.13551 187.54828 
L 183.646422 189.202358 
L 180.152979 190.856435 
L 181.79053 192.510513 
L 180.698829 194.16459 
L 178.842937 195.818668 
L 177.096216 197.472745 
L 175.677004 199.126823 
L 175.786174 200.7809 
L 171.091859 202.434978 
L 172.292731 204.089055 
L 167.052565 205.743133 
L 163.995802 207.39721 
L 159.519828 209.051288 
L 151.222899 210.705365 
L 143.690162 212.359443 
L 136.812445 214.013521 
L 101.222989 215.667598 
L 64.978512 217.321676 
" style="fill:none;stroke:#a2eb7f;stroke-dasharray:1.5,2.475;stroke-dashoffset:0;stroke-width:1.5;"/>
   </g>
   <g id="line2d_13">
    <path clip-path="url(#pc14d17b9e0)" d="M 201.311442 53.568 
L 199.246429 55.226779 
L 198.443368 56.885558 
L 197.755031 58.544336 
L 198.787537 60.203115 
L 199.475875 61.861894 
L 200.278935 63.520673 
L 200.737827 65.179452 
L 200.508381 66.83823 
L 200.393658 68.497009 
L 196.607801 70.155788 
L 197.296139 71.814567 
L 199.361152 73.473346 
L 195.345849 75.132124 
L 198.328646 76.790903 
L 194.657511 78.449682 
L 195.116403 80.108461 
L 193.625005 81.76724 
L 190.527486 83.426019 
L 193.05139 85.084797 
L 191.559992 86.743576 
L 193.510282 88.402355 
L 192.133607 90.061134 
L 190.29804 91.719913 
L 193.510282 93.378691 
L 189.15081 95.03747 
L 194.772234 96.696249 
L 189.839148 98.355028 
L 193.280836 100.013807 
L 188.921364 101.672585 
L 192.936667 103.331364 
L 192.363053 104.990143 
L 190.642209 106.648922 
L 193.854451 108.307701 
L 189.494979 109.966479 
L 192.821944 111.625258 
L 189.036087 113.284037 
L 191.904161 114.942816 
L 189.265533 116.601595 
L 191.789438 118.260373 
L 191.330546 119.919152 
L 192.133607 121.577931 
L 191.789438 123.23671 
L 188.806642 124.895489 
L 193.510282 126.554267 
L 188.233027 128.213046 
L 192.707221 129.871825 
L 189.953871 131.530604 
L 189.609702 133.189383 
L 189.494979 134.848162 
L 188.691919 136.50694 
L 191.215823 138.165719 
L 190.29804 139.824498 
L 191.904161 141.483277 
L 188.233027 143.142056 
L 191.215823 144.800834 
L 189.494979 146.459613 
L 188.577196 148.118392 
L 189.265533 149.777171 
L 187.315243 151.43595 
L 190.756932 153.094728 
L 186.971075 154.753507 
L 188.003581 156.412286 
L 187.429966 158.071065 
L 187.429966 159.729844 
L 189.380256 161.388622 
L 187.659412 163.047401 
L 186.971075 164.70618 
L 187.429966 166.364959 
L 186.856352 168.023738 
L 183.988278 169.682516 
L 186.856352 171.341295 
L 185.823845 173.000074 
L 185.594399 174.658853 
L 185.479676 176.317632 
L 184.561893 177.97641 
L 184.561893 179.635189 
L 182.726326 181.293968 
L 184.791339 182.952747 
L 181.923265 184.611526 
L 181.005482 186.270305 
L 181.234928 187.929083 
L 182.267434 189.587862 
L 180.431867 191.246641 
L 178.825746 192.90542 
L 178.137408 194.564199 
L 175.498781 196.222977 
L 176.072395 197.881756 
L 173.663214 199.540535 
L 175.269335 201.199314 
L 167.582898 202.858093 
L 170.680417 204.516871 
L 163.108703 206.17565 
L 163.223426 207.834429 
L 157.716725 209.493208 
L 151.521686 211.151987 
L 143.720526 212.810765 
L 129.150713 214.469544 
L 93.816048 216.128323 
" style="fill:none;stroke:#77cd86;stroke-dasharray:5.55,2.4;stroke-dashoffset:0;stroke-width:1.5;"/>
   </g>
   <g id="line2d_14">
    <path clip-path="url(#pc14d17b9e0)" d="M 201.917401 53.568 
L 199.328386 55.15413 
L 198.46538 56.740259 
L 196.369511 58.326389 
L 200.314677 59.912519 
L 198.83524 61.498648 
L 198.83524 63.084778 
L 198.46538 64.670907 
L 194.027068 66.257037 
L 198.46538 67.843167 
L 197.725662 69.429296 
L 194.6435 71.015426 
L 194.027068 72.601556 
L 194.273641 74.187685 
L 193.28735 75.773815 
L 188.355891 77.359945 
L 195.01336 78.946074 
L 187.739459 80.532204 
L 194.150355 82.118333 
L 189.958615 83.704463 
L 190.451761 85.290593 
L 192.301058 86.876722 
L 190.82162 88.462852 
L 191.19148 90.048982 
L 190.82162 91.635111 
L 191.561339 93.221241 
L 191.807912 94.807371 
L 190.82162 96.3935 
L 190.328475 97.97963 
L 191.561339 99.565759 
L 191.684626 101.151889 
L 189.09561 102.738019 
L 190.328475 104.324148 
L 187.616173 105.910278 
L 192.424344 107.496408 
L 192.670917 109.082537 
L 189.218897 110.668667 
L 192.91749 112.254797 
L 192.054485 113.840926 
L 187.3696 115.427056 
L 191.314766 117.013185 
L 190.205188 118.599315 
L 190.82162 120.185445 
L 189.09561 121.771574 
L 191.561339 123.357704 
L 192.424344 124.943834 
L 187.739459 126.529963 
L 192.054485 128.116093 
L 187.492886 129.702223 
L 190.328475 131.288352 
L 189.342183 132.874482 
L 189.712042 134.460611 
L 190.575048 136.046741 
L 187.123027 137.632871 
L 191.561339 139.219 
L 189.09561 140.80513 
L 186.753168 142.39126 
L 188.602464 143.977389 
L 187.616173 145.563519 
L 189.712042 147.149649 
L 186.753168 148.735778 
L 186.753168 150.321908 
L 188.849037 151.908037 
L 186.260022 153.494167 
L 188.109319 155.080297 
L 185.27373 156.666426 
L 187.492886 158.252556 
L 185.890162 159.838686 
L 187.246313 161.424815 
L 185.150444 163.010945 
L 184.780584 164.597075 
L 186.876454 166.183204 
L 182.684715 167.769334 
L 186.013449 169.355463 
L 182.808001 170.941593 
L 184.164152 172.527723 
L 181.698423 174.113852 
L 184.780584 175.699982 
L 182.191569 177.286112 
L 180.588845 178.872241 
L 180.342272 180.458371 
L 177.99983 182.044501 
L 181.944996 183.63063 
L 176.520392 185.21676 
L 177.013538 186.802889 
L 175.657387 188.389019 
L 176.890251 189.975149 
L 173.80809 191.561278 
L 173.068371 193.147408 
L 171.958793 194.733538 
L 169.123205 196.319667 
L 166.657476 197.905797 
L 164.068461 199.491927 
L 159.753435 201.078056 
L 152.109675 202.664186 
L 146.191925 204.250315 
L 137.931733 205.836445 
L 127.452384 207.422575 
L 95.028048 209.008704 
" style="fill:none;stroke:#258d41;stroke-dasharray:9.6,2.4,1.5,2.4;stroke-dashoffset:0;stroke-width:1.5;"/>
   </g>
   <g id="line2d_15">
    <path clip-path="url(#pc14d17b9e0)" d="M 204.70339 53.568 
L 201.224873 55.549793 
L 196.7801 57.531587 
L 198.036232 59.51338 
L 194.944216 61.495173 
L 193.204957 63.476966 
L 191.465699 65.45876 
L 191.272448 67.440553 
L 189.919691 69.422346 
L 189.629814 71.404139 
L 190.306193 73.385933 
L 188.66356 75.367726 
L 190.78932 77.349519 
L 189.919691 79.331312 
L 186.441173 81.313106 
L 191.755575 83.294899 
L 187.987181 85.276692 
L 189.533189 87.258485 
L 190.885946 89.240279 
L 186.73105 91.222072 
L 190.306193 93.203865 
L 190.209567 95.185659 
L 186.441173 97.167452 
L 191.369073 99.149245 
L 188.083807 101.131038 
L 187.890556 103.112832 
L 189.72644 105.094625 
L 188.373683 107.076418 
L 189.050062 109.058211 
L 187.407428 111.040005 
L 188.180432 113.021798 
L 188.856811 115.003591 
L 187.890556 116.985384 
L 186.73105 118.967178 
L 187.697305 120.948971 
L 186.924301 122.930764 
L 187.504054 124.912557 
L 184.412038 126.894351 
L 187.117552 128.876144 
L 187.504054 130.857937 
L 183.349158 132.839731 
L 187.890556 134.821524 
L 183.639034 136.803317 
L 184.218787 138.78511 
L 185.861421 140.766904 
L 182.962656 142.748697 
L 181.996401 144.73049 
L 182.479529 146.712283 
L 181.416648 148.694077 
L 181.513274 150.67587 
L 177.841505 152.657663 
L 179.87064 154.639456 
L 176.392123 156.62125 
L 176.005621 158.603043 
L 173.976486 160.584836 
L 166.632949 162.566629 
L 166.8262 164.548423 
L 166.439698 166.530216 
L 162.961181 168.512009 
L 167.695829 170.493802 
L 168.662084 172.475596 
L 175.425868 174.457389 
L 176.778625 176.439182 
L 177.165127 178.420976 
L 180.74027 180.402769 
L 184.991791 182.384562 
L 185.281668 184.366355 
L 189.050062 186.348149 
L 192.625204 188.329942 
L 196.200347 190.311735 
L 194.074587 192.293528 
L 195.813845 194.275322 
L 196.393598 196.257115 
L 196.393598 198.238908 
L 197.166602 200.220701 
L 195.523969 202.202495 
L 198.132857 204.184288 
L 196.490224 206.166081 
L 196.876726 208.147874 
L 199.388988 210.129668 
L 200.548494 212.111461 
L 199.388988 214.093254 
L 200.355243 216.075048 
L 199.678865 218.056841 
L 204.220263 220.038634 
L 204.606765 222.020427 
L 205.089892 224.002221 
L 206.925776 225.984014 
L 206.056147 227.965807 
L 206.442649 229.9476 
L 206.442649 231.929394 
L 207.312278 233.911187 
L 209.921166 235.89298 
L 210.307668 237.874773 
L 209.727915 239.856567 
L 210.114417 241.83836 
L 210.017792 243.820153 
L 210.114417 245.801946 
L 210.211043 247.78374 
" style="fill:none;stroke:#115029;stroke-linecap:square;stroke-width:1.5;"/>
   </g>
   <g id="patch_3">
    <path d="M 57.6 307.584 
L 57.6 41.472 
" style="fill:none;stroke:#000000;stroke-linecap:square;stroke-linejoin:miter;stroke-width:0.8;"/>
   </g>
   <g id="patch_4">
    <path d="M 219.927273 307.584 
L 219.927273 41.472 
" style="fill:none;stroke:#000000;stroke-linecap:square;stroke-linejoin:miter;stroke-width:0.8;"/>
   </g>
   <g id="patch_5">
    <path d="M 57.6 307.584 
L 219.927273 307.584 
" style="fill:none;stroke:#000000;stroke-linecap:square;stroke-linejoin:miter;stroke-width:0.8;"/>
   </g>
   <g id="patch_6">
    <path d="M 57.6 41.472 
L 219.927273 41.472 
" style="fill:none;stroke:#000000;stroke-linecap:square;stroke-linejoin:miter;stroke-width:0.8;"/>
   </g>
  </g>
  <g id="axes_2">
   <g id="patch_7">
    <path d="M 252.392727 307.584 
L 414.72 307.584 
L 414.72 41.472 
L 252.392727 41.472 
z
" style="fill:#ffffff;"/>
   </g>
   <g id="matplotlib.axis_3">
    <g id="xtick_4">
     <g id="line2d_16">
      <g>
       <use style="stroke:#000000;stroke-width:0.8;" x="259.217239" xlink:href="#ma02660127d" y="307.584"/>
      </g>
     </g>
     <g id="text_13">
      <!-- 0.0 -->
      <g transform="translate(247.289896 325.981656)scale(0.15 -0.15)">
       <use xlink:href="#DejaVuSans-48"/>
       <use x="63.623047" xlink:href="#DejaVuSans-46"/>
       <use x="95.410156" xlink:href="#DejaVuSans-48"/>
      </g>
     </g>
    </g>
    <g id="xtick_5">
     <g id="line2d_17">
      <g>
       <use style="stroke:#000000;stroke-width:0.8;" x="333.279363" xlink:href="#ma02660127d" y="307.584"/>
      </g>
     </g>
     <g id="text_14">
      <!-- 0.5 -->
      <g transform="translate(321.35202 325.981656)scale(0.15 -0.15)">
       <use xlink:href="#DejaVuSans-48"/>
       <use x="63.623047" xlink:href="#DejaVuSans-46"/>
       <use x="95.410156" xlink:href="#DejaVuSans-53"/>
      </g>
     </g>
    </g>
    <g id="xtick_6">
     <g id="line2d_18">
      <g>
       <use style="stroke:#000000;stroke-width:0.8;" x="407.341488" xlink:href="#ma02660127d" y="307.584"/>
      </g>
     </g>
     <g id="text_15">
      <!-- 1.0 -->
      <g transform="translate(395.414144 325.981656)scale(0.15 -0.15)">
       <use xlink:href="#DejaVuSans-49"/>
       <use x="63.623047" xlink:href="#DejaVuSans-46"/>
       <use x="95.410156" xlink:href="#DejaVuSans-48"/>
      </g>
     </g>
    </g>
    <g id="text_16">
     <!-- CDF -->
     <defs>
      <path d="M 64.40625 67.28125 
L 64.40625 56.890625 
Q 59.421875 61.53125 53.78125 63.8125 
Q 48.140625 66.109375 41.796875 66.109375 
Q 29.296875 66.109375 22.65625 58.46875 
Q 16.015625 50.828125 16.015625 36.375 
Q 16.015625 21.96875 22.65625 14.328125 
Q 29.296875 6.6875 41.796875 6.6875 
Q 48.140625 6.6875 53.78125 8.984375 
Q 59.421875 11.28125 64.40625 15.921875 
L 64.40625 5.609375 
Q 59.234375 2.09375 53.4375 0.328125 
Q 47.65625 -1.421875 41.21875 -1.421875 
Q 24.65625 -1.421875 15.125 8.703125 
Q 5.609375 18.84375 5.609375 36.375 
Q 5.609375 53.953125 15.125 64.078125 
Q 24.65625 74.21875 41.21875 74.21875 
Q 47.75 74.21875 53.53125 72.484375 
Q 59.328125 70.75 64.40625 67.28125 
z
" id="DejaVuSans-67"/>
     </defs>
     <g transform="translate(316.187145 346.018531)scale(0.17 -0.17)">
      <use xlink:href="#DejaVuSans-67"/>
      <use x="69.824219" xlink:href="#DejaVuSans-68"/>
      <use x="146.826172" xlink:href="#DejaVuSans-70"/>
     </g>
    </g>
   </g>
   <g id="matplotlib.axis_4"/>
   <g id="line2d_19">
    <path clip-path="url(#pd097db6559)" d="M 260.477105 53.568 
L 261.698404 56.036571 
L 262.881135 58.505143 
L 263.909597 60.973714 
L 265.124468 63.442286 
L 266.435757 65.910857 
L 267.695623 68.379429 
L 268.974773 70.848 
L 270.003235 73.316571 
L 271.198822 75.785143 
L 272.233712 78.253714 
L 273.313597 80.722286 
L 274.348487 83.190857 
L 275.717627 85.659429 
L 276.92607 88.128 
L 278.455908 90.596571 
L 279.927894 93.065143 
L 281.451303 95.533714 
L 283.218973 98.002286 
L 284.999498 100.470857 
L 286.728599 102.939429 
L 288.791951 105.408 
L 290.829592 107.876571 
L 292.700107 110.345143 
L 294.403498 112.813714 
L 296.029753 115.282286 
L 297.662437 117.750857 
L 299.410822 120.219429 
L 301.088501 122.688 
L 302.727612 125.156571 
L 304.520993 127.625143 
L 306.552206 130.093714 
L 309.791861 132.562286 
L 314.111402 135.030857 
L 318.353808 137.499429 
L 322.126978 139.968 
L 325.283071 142.436571 
L 328.889116 144.905143 
L 332.10306 147.373714 
L 335.548408 149.842286 
L 339.096602 152.310857 
L 343.339008 154.779429 
L 347.395005 157.248 
L 351.206743 159.716571 
L 355.519856 162.185143 
L 359.24803 164.653714 
L 362.802652 167.122286 
L 366.543683 169.590857 
L 370.355421 172.059429 
L 373.575793 174.528 
L 376.391207 176.996571 
L 379.058781 179.465143 
L 381.790633 181.933714 
L 384.233231 184.402286 
L 386.662972 186.870857 
L 389.002723 189.339429 
L 391.046792 191.808 
L 392.647336 194.276571 
L 394.312159 196.745143 
L 395.764862 199.213714 
L 396.934737 201.682286 
L 398.02105 204.150857 
L 399.261633 206.619429 
L 400.277239 209.088 
L 401.267134 211.556571 
L 402.051336 214.025143 
L 402.719836 216.493714 
L 403.272635 218.962286 
L 403.780438 221.430857 
L 404.294669 223.899429 
L 404.680342 226.368 
L 405.001736 228.836571 
L 405.130294 231.305143 
L 405.245996 233.773714 
L 405.348842 236.242286 
L 405.445261 238.710857 
L 405.535251 241.179429 
L 405.618814 243.648 
L 405.708804 246.116571 
L 405.798795 248.585143 
L 405.895213 251.053714 
L 405.998059 253.522286 
L 406.05591 255.990857 
L 406.158756 258.459429 
L 406.235891 260.928 
L 406.338737 263.396571 
L 406.409444 265.865143 
L 406.486579 268.333714 
L 406.582997 270.802286 
L 406.666559 273.270857 
L 406.75655 275.739429 
L 406.859396 278.208 
L 406.955814 280.676571 
L 407.039377 283.145143 
L 407.135795 285.613714 
L 407.187218 288.082286 
L 407.257925 290.550857 
L 407.296492 293.019429 
L 407.341488 295.488 
" style="fill:none;stroke:#000000;stroke-linecap:square;stroke-width:3;"/>
   </g>
   <g id="line2d_20">
    <path clip-path="url(#pd097db6559)" d="M 259.994794 53.568 
L 260.529364 55.222078 
L 261.167202 56.876155 
L 261.853637 58.530233 
L 262.679789 60.18431 
L 263.390523 61.838388 
L 264.034436 63.492465 
L 264.720872 65.146543 
L 265.383008 66.80062 
L 266.148414 68.454698 
L 266.853073 70.108775 
L 267.612405 71.762853 
L 268.37781 73.41693 
L 269.155366 75.071008 
L 269.999742 76.725085 
L 270.971686 78.379163 
L 271.901107 80.03324 
L 272.927723 81.687318 
L 274.130503 83.341396 
L 275.151044 84.995473 
L 276.299153 86.649551 
L 277.283246 88.303628 
L 278.455654 89.957706 
L 279.64021 91.611783 
L 280.642527 93.265861 
L 281.851383 94.919938 
L 282.8537 96.574016 
L 284.020032 98.228093 
L 285.174216 99.882171 
L 286.419519 101.536248 
L 287.446135 103.190326 
L 288.582094 104.844403 
L 289.68768 106.498481 
L 290.702147 108.152559 
L 292.038569 109.806636 
L 293.046961 111.460714 
L 294.280115 113.114791 
L 295.452522 114.768869 
L 296.62493 116.422946 
L 297.797337 118.077024 
L 298.939371 119.731101 
L 300.142152 121.385179 
L 301.199141 123.039256 
L 302.486966 124.693334 
L 303.568254 126.347411 
L 304.789258 128.001489 
L 305.852322 129.655566 
L 307.121924 131.309644 
L 308.349003 132.963721 
L 309.557858 134.617799 
L 310.797086 136.271877 
L 311.975568 137.925954 
L 313.226946 139.580032 
L 314.350756 141.234109 
L 315.608209 142.888187 
L 316.792765 144.542264 
L 318.09274 146.196342 
L 319.374491 147.850419 
L 320.5226 149.504497 
L 321.913695 151.158574 
L 323.110401 152.812652 
L 324.483271 154.466729 
L 325.789321 156.120807 
L 327.040699 157.774884 
L 328.407495 159.428962 
L 329.689246 161.08304 
L 331.116788 162.737117 
L 332.398539 164.391195 
L 333.783559 166.045272 
L 335.138206 167.69935 
L 336.602197 169.353427 
L 338.029739 171.007505 
L 339.432983 172.661582 
L 340.982019 174.31566 
L 342.330591 175.969737 
L 343.837104 177.623815 
L 345.325393 179.277892 
L 346.935175 180.93197 
L 348.484211 182.586047 
L 350.14259 184.240125 
L 351.667327 185.894202 
L 353.441124 187.54828 
L 355.075205 189.202358 
L 356.903675 190.856435 
L 358.641024 192.510513 
L 360.43912 194.16459 
L 362.340486 195.818668 
L 364.339045 197.472745 
L 366.416575 199.126823 
L 368.488031 200.7809 
L 370.820696 202.434978 
L 373.08654 204.089055 
L 375.643968 205.743133 
L 378.371485 207.39721 
L 381.348063 209.051288 
L 384.786315 210.705365 
L 388.643717 212.359443 
L 392.883822 214.013521 
L 399.104263 215.667598 
L 407.341488 217.321676 
" style="fill:none;stroke:#a2eb7f;stroke-dasharray:1.5,2.475;stroke-dashoffset:0;stroke-width:1.5;"/>
   </g>
   <g id="line2d_21">
    <path clip-path="url(#pd097db6559)" d="M 259.87022 53.568 
L 260.638433 55.226779 
L 261.451458 56.885558 
L 262.302894 58.544336 
L 263.096714 60.203115 
L 263.852124 61.861894 
L 264.562721 63.520673 
L 265.24771 65.179452 
L 265.945504 66.83823 
L 266.649699 68.497009 
L 267.565153 70.155788 
L 268.442196 71.814567 
L 269.204007 73.473346 
L 270.18988 75.132124 
L 271.009307 76.790903 
L 272.033591 78.449682 
L 273.032268 80.108461 
L 274.114168 81.76724 
L 275.368915 83.426019 
L 276.482824 85.084797 
L 277.679956 86.743576 
L 278.768257 88.402355 
L 279.93338 90.061134 
L 281.200931 91.719913 
L 282.289233 93.378691 
L 283.620802 95.03747 
L 284.638684 96.696249 
L 285.931842 98.355028 
L 287.032948 100.013807 
L 288.37732 101.672585 
L 289.497631 103.331364 
L 290.64995 104.990143 
L 291.898296 106.648922 
L 292.967392 108.307701 
L 294.279756 109.966479 
L 295.406468 111.625258 
L 296.744439 113.284037 
L 297.922365 114.942816 
L 299.247532 116.601595 
L 300.431861 118.260373 
L 301.641796 119.919152 
L 302.806919 121.577931 
L 303.991247 123.23671 
L 305.342021 124.895489 
L 306.430323 126.554267 
L 307.813106 128.213046 
L 308.94622 129.871825 
L 310.232977 131.530604 
L 311.538939 133.189383 
L 312.851302 134.848162 
L 314.208478 136.50694 
L 315.424816 138.165719 
L 316.692367 139.824498 
L 317.870293 141.483277 
L 319.253076 143.142056 
L 320.469414 144.800834 
L 321.781777 146.459613 
L 323.145355 148.118392 
L 324.470522 149.777171 
L 325.90452 151.43595 
L 327.146464 153.094728 
L 328.599667 154.753507 
L 329.995253 156.412286 
L 331.422849 158.071065 
L 332.850445 159.729844 
L 334.16921 161.388622 
L 335.584002 163.047401 
L 337.037205 164.70618 
L 338.4648 166.364959 
L 339.924405 168.023738 
L 341.544054 169.682516 
L 343.003658 171.341295 
L 344.520879 173.000074 
L 346.050903 174.658853 
L 347.587328 176.317632 
L 349.174968 177.97641 
L 350.762608 179.635189 
L 352.452677 181.293968 
L 354.027513 182.952747 
L 355.762394 184.611526 
L 357.548489 186.270305 
L 359.32178 187.929083 
L 361.037456 189.587862 
L 362.85556 191.246641 
L 364.763288 192.90542 
L 366.709428 194.564199 
L 368.802808 196.222977 
L 370.864179 197.881756 
L 373.059987 199.540535 
L 375.166171 201.199314 
L 377.701274 202.858093 
L 380.063528 204.516871 
L 382.8483 206.17565 
L 385.62667 207.834429 
L 388.712325 209.493208 
L 392.143676 211.151987 
L 396.010348 212.810765 
L 400.690044 214.469544 
L 407.341488 216.128323 
" style="fill:none;stroke:#77cd86;stroke-dasharray:5.55,2.4;stroke-dashoffset:0;stroke-width:1.5;"/>
   </g>
   <g id="line2d_22">
    <path clip-path="url(#pd097db6559)" d="M 259.809289 53.568 
L 260.539484 55.15413 
L 261.315726 56.740259 
L 262.203801 58.326389 
L 262.881369 59.912519 
L 263.637877 61.498648 
L 264.394385 63.084778 
L 265.170628 64.670907 
L 266.18369 66.257037 
L 266.959933 67.843167 
L 267.775646 69.429296 
L 268.755817 71.015426 
L 269.76888 72.601556 
L 270.768786 74.187685 
L 271.821319 75.773815 
L 273.136985 77.359945 
L 274.097421 78.946074 
L 275.445978 80.532204 
L 276.452463 82.118333 
L 277.682611 83.704463 
L 278.886445 85.290593 
L 279.991604 86.876722 
L 281.175704 88.462852 
L 282.340068 90.048982 
L 283.524167 91.635111 
L 284.668797 93.221241 
L 285.800269 94.807371 
L 286.984369 96.3935 
L 288.194781 97.97963 
L 289.339411 99.565759 
L 290.477462 101.151889 
L 291.753658 102.738019 
L 292.96407 104.324148 
L 294.319206 105.910278 
L 295.417787 107.496408 
L 296.503212 109.082537 
L 297.772829 110.668667 
L 298.845097 112.254797 
L 299.963413 113.840926 
L 301.331706 115.427056 
L 302.489492 117.013185 
L 303.706483 118.599315 
L 304.890582 120.185445 
L 306.166778 121.771574 
L 307.311407 123.357704 
L 308.409988 124.943834 
L 309.758546 126.529963 
L 310.876862 128.116093 
L 312.238576 129.702223 
L 313.448989 131.288352 
L 314.712028 132.874482 
L 315.955332 134.460611 
L 317.152588 136.046741 
L 318.534038 137.632871 
L 319.678667 139.219 
L 320.954863 140.80513 
L 322.356047 142.39126 
L 323.658556 143.977389 
L 325.013692 145.563519 
L 326.256997 147.149649 
L 327.658181 148.735778 
L 329.059365 150.321908 
L 330.348718 151.908037 
L 331.776215 153.494167 
L 333.105038 155.080297 
L 334.585162 156.666426 
L 335.946876 158.252556 
L 337.394109 159.838686 
L 338.76898 161.424815 
L 340.255682 163.010945 
L 341.762119 164.597075 
L 343.156725 166.183204 
L 344.774994 167.769334 
L 346.215649 169.355463 
L 347.827339 170.941593 
L 349.366669 172.527723 
L 351.037564 174.113852 
L 352.544002 175.699982 
L 354.188584 177.286112 
L 355.918685 178.872241 
L 357.661942 180.458371 
L 359.530188 182.044501 
L 361.187927 183.63063 
L 363.135112 185.21676 
L 365.055985 186.802889 
L 367.049219 188.389019 
L 368.976669 189.975149 
L 371.068578 191.561278 
L 373.199957 193.147408 
L 375.390541 194.733538 
L 377.732426 196.319667 
L 380.205878 197.905797 
L 382.817475 199.491927 
L 385.659313 201.078056 
L 388.909008 202.664186 
L 392.474463 204.250315 
L 396.480665 205.836445 
L 401.046026 207.422575 
L 407.341488 209.008704 
" style="fill:none;stroke:#258d41;stroke-dasharray:9.6,2.4,1.5,2.4;stroke-dashoffset:0;stroke-width:1.5;"/>
   </g>
   <g id="line2d_23">
    <path clip-path="url(#pd097db6559)" d="M 259.77124 53.568 
L 260.557147 55.549793 
L 261.639381 57.531587 
L 262.63787 59.51338 
L 263.842498 61.495173 
L 265.163081 63.476966 
L 266.599617 65.45876 
L 268.049036 67.440553 
L 269.588642 69.422346 
L 271.147574 71.404139 
L 272.661412 73.385933 
L 274.284762 75.367726 
L 275.766391 77.349519 
L 277.305997 79.331312 
L 279.07751 81.313106 
L 280.49472 83.294899 
L 282.163163 85.276692 
L 283.728536 87.258485 
L 285.203723 89.240279 
L 286.955911 91.222072 
L 288.469749 93.203865 
L 289.990029 95.185659 
L 291.761542 97.167452 
L 293.20452 99.149245 
L 294.866521 101.131038 
L 296.541406 103.112832 
L 298.093896 105.094625 
L 299.736571 107.076418 
L 301.334154 109.058211 
L 303.041248 111.040005 
L 304.696808 113.021798 
L 306.307274 115.003591 
L 307.982159 116.985384 
L 309.734346 118.967178 
L 311.422115 120.948971 
L 313.161418 122.930764 
L 314.862071 124.912557 
L 316.768863 126.894351 
L 318.495283 128.876144 
L 320.195935 130.857937 
L 322.173588 132.839731 
L 323.848473 134.821524 
L 325.8068 136.803317 
L 327.726476 138.78511 
L 329.53664 140.766904 
L 331.54006 142.748697 
L 333.607899 144.73049 
L 335.643528 146.712283 
L 337.750018 148.694077 
L 339.850066 150.67587 
L 342.194905 152.657663 
L 344.404465 154.639456 
L 346.845932 156.62125 
L 349.313166 158.603043 
L 351.915679 160.584836 
L 355.007775 162.566629 
L 358.086986 164.548423 
L 361.191965 166.530216 
L 364.528852 168.512009 
L 367.550086 170.493802 
L 370.506902 172.475596 
L 373.012788 174.457389 
L 375.428487 176.439182 
L 377.818419 178.420976 
L 379.970002 180.402769 
L 381.838143 182.384562 
L 383.686959 184.366355 
L 385.284541 186.348149 
L 386.643775 188.329942 
L 387.764659 190.311735 
L 389.027265 192.293528 
L 390.173917 194.275322 
L 391.281918 196.257115 
L 392.389918 198.238908 
L 393.446384 200.220701 
L 394.612362 202.202495 
L 395.604409 204.184288 
L 396.705968 206.166081 
L 397.78176 208.147874 
L 398.690063 210.129668 
L 399.521063 212.111461 
L 400.429366 214.093254 
L 401.273251 216.075048 
L 402.162228 218.056841 
L 402.748438 220.038634 
L 403.30888 222.020427 
L 403.837113 224.002221 
L 404.24295 225.984014 
L 404.706765 227.965807 
L 405.144812 229.9476 
L 405.582858 231.929394 
L 405.962928 233.911187 
L 406.169068 235.89298 
L 406.34944 237.874773 
L 406.568464 239.856567 
L 406.76172 241.83836 
L 406.961418 243.820153 
L 407.154674 245.801946 
L 407.341488 247.78374 
" style="fill:none;stroke:#115029;stroke-linecap:square;stroke-width:1.5;"/>
   </g>
   <g id="patch_8">
    <path d="M 252.392727 307.584 
L 252.392727 41.472 
" style="fill:none;stroke:#000000;stroke-linecap:square;stroke-linejoin:miter;stroke-width:0.8;"/>
   </g>
   <g id="patch_9">
    <path d="M 414.72 307.584 
L 414.72 41.472 
" style="fill:none;stroke:#000000;stroke-linecap:square;stroke-linejoin:miter;stroke-width:0.8;"/>
   </g>
   <g id="patch_10">
    <path d="M 252.392727 307.584 
L 414.72 307.584 
" style="fill:none;stroke:#000000;stroke-linecap:square;stroke-linejoin:miter;stroke-width:0.8;"/>
   </g>
   <g id="patch_11">
    <path d="M 252.392727 41.472 
L 414.72 41.472 
" style="fill:none;stroke:#000000;stroke-linecap:square;stroke-linejoin:miter;stroke-width:0.8;"/>
   </g>
   <g id="legend_1">
    <g id="patch_12">
     <path d="M 321.294688 126.479813 
L 405.62 126.479813 
Q 408.22 126.479813 408.22 123.879813 
L 408.22 50.572 
Q 408.22 47.972 405.62 47.972 
L 321.294688 47.972 
Q 318.694687 47.972 318.694687 50.572 
L 318.694687 123.879813 
Q 318.694687 126.479813 321.294688 126.479813 
z
" style="fill:#ffffff;opacity:0.8;stroke:#cccccc;stroke-linejoin:miter;"/>
    </g>
    <g id="line2d_24">
     <path d="M 323.894687 58.499969 
L 349.894687 58.499969 
" style="fill:none;stroke:#000000;stroke-linecap:square;stroke-width:3;"/>
    </g>
    <g id="line2d_25"/>
    <g id="text_17">
     <!-- TS -->
     <defs>
      <path d="M -0.296875 72.90625 
L 61.375 72.90625 
L 61.375 64.59375 
L 35.5 64.59375 
L 35.5 0 
L 25.59375 0 
L 25.59375 64.59375 
L -0.296875 64.59375 
z
" id="DejaVuSans-84"/>
      <path d="M 53.515625 70.515625 
L 53.515625 60.890625 
Q 47.90625 63.578125 42.921875 64.890625 
Q 37.9375 66.21875 33.296875 66.21875 
Q 25.25 66.21875 20.875 63.09375 
Q 16.5 59.96875 16.5 54.203125 
Q 16.5 49.359375 19.40625 46.890625 
Q 22.3125 44.4375 30.421875 42.921875 
L 36.375 41.703125 
Q 47.40625 39.59375 52.65625 34.296875 
Q 57.90625 29 57.90625 20.125 
Q 57.90625 9.515625 50.796875 4.046875 
Q 43.703125 -1.421875 29.984375 -1.421875 
Q 24.8125 -1.421875 18.96875 -0.25 
Q 13.140625 0.921875 6.890625 3.21875 
L 6.890625 13.375 
Q 12.890625 10.015625 18.65625 8.296875 
Q 24.421875 6.59375 29.984375 6.59375 
Q 38.421875 6.59375 43.015625 9.90625 
Q 47.609375 13.234375 47.609375 19.390625 
Q 47.609375 24.75 44.3125 27.78125 
Q 41.015625 30.8125 33.5 32.328125 
L 27.484375 33.5 
Q 16.453125 35.6875 11.515625 40.375 
Q 6.59375 45.0625 6.59375 53.421875 
Q 6.59375 63.09375 13.40625 68.65625 
Q 20.21875 74.21875 32.171875 74.21875 
Q 37.3125 74.21875 42.625 73.28125 
Q 47.953125 72.359375 53.515625 70.515625 
z
" id="DejaVuSans-83"/>
     </defs>
     <g transform="translate(360.294687 63.049969)scale(0.13 -0.13)">
      <use xlink:href="#DejaVuSans-84"/>
      <use x="61.083984" xlink:href="#DejaVuSans-83"/>
     </g>
    </g>
    <g id="line2d_26">
     <path d="M 323.894687 72.381531 
L 349.894687 72.381531 
" style="fill:none;stroke:#a2eb7f;stroke-dasharray:1.5,2.475;stroke-dashoffset:0;stroke-width:1.5;"/>
    </g>
    <g id="line2d_27"/>
    <g id="text_18">
     <!-- RB, n0 -->
     <defs>
      <path d="M 44.390625 34.1875 
Q 47.5625 33.109375 50.5625 29.59375 
Q 53.5625 26.078125 56.59375 19.921875 
L 66.609375 0 
L 56 0 
L 46.6875 18.703125 
Q 43.0625 26.03125 39.671875 28.421875 
Q 36.28125 30.8125 30.421875 30.8125 
L 19.671875 30.8125 
L 19.671875 0 
L 9.8125 0 
L 9.8125 72.90625 
L 32.078125 72.90625 
Q 44.578125 72.90625 50.734375 67.671875 
Q 56.890625 62.453125 56.890625 51.90625 
Q 56.890625 45.015625 53.6875 40.46875 
Q 50.484375 35.9375 44.390625 34.1875 
z
M 19.671875 64.796875 
L 19.671875 38.921875 
L 32.078125 38.921875 
Q 39.203125 38.921875 42.84375 42.21875 
Q 46.484375 45.515625 46.484375 51.90625 
Q 46.484375 58.296875 42.84375 61.546875 
Q 39.203125 64.796875 32.078125 64.796875 
z
" id="DejaVuSans-82"/>
      <path d="M 19.671875 34.8125 
L 19.671875 8.109375 
L 35.5 8.109375 
Q 43.453125 8.109375 47.28125 11.40625 
Q 51.125 14.703125 51.125 21.484375 
Q 51.125 28.328125 47.28125 31.5625 
Q 43.453125 34.8125 35.5 34.8125 
z
M 19.671875 64.796875 
L 19.671875 42.828125 
L 34.28125 42.828125 
Q 41.5 42.828125 45.03125 45.53125 
Q 48.578125 48.25 48.578125 53.8125 
Q 48.578125 59.328125 45.03125 62.0625 
Q 41.5 64.796875 34.28125 64.796875 
z
M 9.8125 72.90625 
L 35.015625 72.90625 
Q 46.296875 72.90625 52.390625 68.21875 
Q 58.5 63.53125 58.5 54.890625 
Q 58.5 48.1875 55.375 44.234375 
Q 52.25 40.28125 46.1875 39.3125 
Q 53.46875 37.75 57.5 32.78125 
Q 61.53125 27.828125 61.53125 20.40625 
Q 61.53125 10.640625 54.890625 5.3125 
Q 48.25 0 35.984375 0 
L 9.8125 0 
z
" id="DejaVuSans-66"/>
      <path d="M 11.71875 12.40625 
L 22.015625 12.40625 
L 22.015625 4 
L 14.015625 -11.625 
L 7.71875 -11.625 
L 11.71875 4 
z
" id="DejaVuSans-44"/>
      <path d="M 54.890625 33.015625 
L 54.890625 0 
L 45.90625 0 
L 45.90625 32.71875 
Q 45.90625 40.484375 42.875 44.328125 
Q 39.84375 48.1875 33.796875 48.1875 
Q 26.515625 48.1875 22.3125 43.546875 
Q 18.109375 38.921875 18.109375 30.90625 
L 18.109375 0 
L 9.078125 0 
L 9.078125 54.6875 
L 18.109375 54.6875 
L 18.109375 46.1875 
Q 21.34375 51.125 25.703125 53.5625 
Q 30.078125 56 35.796875 56 
Q 45.21875 56 50.046875 50.171875 
Q 54.890625 44.34375 54.890625 33.015625 
z
" id="DejaVuSans-110"/>
     </defs>
     <g transform="translate(360.294687 76.931531)scale(0.13 -0.13)">
      <use xlink:href="#DejaVuSans-82"/>
      <use x="69.482422" xlink:href="#DejaVuSans-66"/>
      <use x="138.085938" xlink:href="#DejaVuSans-44"/>
      <use x="169.873047" xlink:href="#DejaVuSans-32"/>
      <use x="201.660156" xlink:href="#DejaVuSans-110"/>
      <use x="265.039062" xlink:href="#DejaVuSans-48"/>
     </g>
    </g>
    <g id="line2d_28">
     <path d="M 323.894687 86.263094 
L 349.894687 86.263094 
" style="fill:none;stroke:#77cd86;stroke-dasharray:5.55,2.4;stroke-dashoffset:0;stroke-width:1.5;"/>
    </g>
    <g id="line2d_29"/>
    <g id="text_19">
     <!-- RB, s0 -->
     <defs>
      <path d="M 44.28125 53.078125 
L 44.28125 44.578125 
Q 40.484375 46.53125 36.375 47.5 
Q 32.28125 48.484375 27.875 48.484375 
Q 21.1875 48.484375 17.84375 46.4375 
Q 14.5 44.390625 14.5 40.28125 
Q 14.5 37.15625 16.890625 35.375 
Q 19.28125 33.59375 26.515625 31.984375 
L 29.59375 31.296875 
Q 39.15625 29.25 43.1875 25.515625 
Q 47.21875 21.78125 47.21875 15.09375 
Q 47.21875 7.46875 41.1875 3.015625 
Q 35.15625 -1.421875 24.609375 -1.421875 
Q 20.21875 -1.421875 15.453125 -0.5625 
Q 10.6875 0.296875 5.421875 2 
L 5.421875 11.28125 
Q 10.40625 8.6875 15.234375 7.390625 
Q 20.0625 6.109375 24.8125 6.109375 
Q 31.15625 6.109375 34.5625 8.28125 
Q 37.984375 10.453125 37.984375 14.40625 
Q 37.984375 18.0625 35.515625 20.015625 
Q 33.0625 21.96875 24.703125 23.78125 
L 21.578125 24.515625 
Q 13.234375 26.265625 9.515625 29.90625 
Q 5.8125 33.546875 5.8125 39.890625 
Q 5.8125 47.609375 11.28125 51.796875 
Q 16.75 56 26.8125 56 
Q 31.78125 56 36.171875 55.265625 
Q 40.578125 54.546875 44.28125 53.078125 
z
" id="DejaVuSans-115"/>
     </defs>
     <g transform="translate(360.294687 90.813094)scale(0.13 -0.13)">
      <use xlink:href="#DejaVuSans-82"/>
      <use x="69.482422" xlink:href="#DejaVuSans-66"/>
      <use x="138.085938" xlink:href="#DejaVuSans-44"/>
      <use x="169.873047" xlink:href="#DejaVuSans-32"/>
      <use x="201.660156" xlink:href="#DejaVuSans-115"/>
      <use x="253.759766" xlink:href="#DejaVuSans-48"/>
     </g>
    </g>
    <g id="line2d_30">
     <path d="M 323.894687 100.144656 
L 349.894687 100.144656 
" style="fill:none;stroke:#258d41;stroke-dasharray:9.6,2.4,1.5,2.4;stroke-dashoffset:0;stroke-width:1.5;"/>
    </g>
    <g id="line2d_31"/>
    <g id="text_20">
     <!-- RB, s1 -->
     <g transform="translate(360.294687 104.694656)scale(0.13 -0.13)">
      <use xlink:href="#DejaVuSans-82"/>
      <use x="69.482422" xlink:href="#DejaVuSans-66"/>
      <use x="138.085938" xlink:href="#DejaVuSans-44"/>
      <use x="169.873047" xlink:href="#DejaVuSans-32"/>
      <use x="201.660156" xlink:href="#DejaVuSans-115"/>
      <use x="253.759766" xlink:href="#DejaVuSans-49"/>
     </g>
    </g>
    <g id="line2d_32">
     <path d="M 323.894687 114.026219 
L 349.894687 114.026219 
" style="fill:none;stroke:#115029;stroke-linecap:square;stroke-width:1.5;"/>
    </g>
    <g id="line2d_33"/>
    <g id="text_21">
     <!-- RB, s2 -->
     <g transform="translate(360.294687 118.576219)scale(0.13 -0.13)">
      <use xlink:href="#DejaVuSans-82"/>
      <use x="69.482422" xlink:href="#DejaVuSans-66"/>
      <use x="138.085938" xlink:href="#DejaVuSans-44"/>
      <use x="169.873047" xlink:href="#DejaVuSans-32"/>
      <use x="201.660156" xlink:href="#DejaVuSans-115"/>
      <use x="253.759766" xlink:href="#DejaVuSans-50"/>
     </g>
    </g>
   </g>
  </g>
 </g>
 <defs>
  <clipPath id="pc14d17b9e0">
   <rect height="266.112" width="162.327273" x="57.6" y="41.472"/>
  </clipPath>
  <clipPath id="pd097db6559">
   <rect height="266.112" width="162.327273" x="252.392727" y="41.472"/>
  </clipPath>
 </defs>
</svg>
