<?xml version="1.0" encoding="utf-8" standalone="no"?>
<!DOCTYPE svg PUBLIC "-//W3C//DTD SVG 1.1//EN"
  "http://www.w3.org/Graphics/SVG/1.1/DTD/svg11.dtd">
<!-- Created with matplotlib (https://matplotlib.org/) -->
<svg height="345.6pt" version="1.1" viewBox="0 0 460.8 345.6" width="460.8pt" xmlns="http://www.w3.org/2000/svg" xmlns:xlink="http://www.w3.org/1999/xlink">
 <defs>
  <style type="text/css">
*{stroke-linecap:butt;stroke-linejoin:round;}
  </style>
 </defs>
 <g id="figure_1">
  <g id="patch_1">
   <path d="M 0 345.6 
L 460.8 345.6 
L 460.8 0 
L 0 0 
z
" style="fill:#ffffff;"/>
  </g>
  <g id="axes_1">
   <g id="patch_2">
    <path d="M 57.6 307.584 
L 219.927273 307.584 
L 219.927273 41.472 
L 57.6 41.472 
z
" style="fill:#ffffff;"/>
   </g>
   <g id="matplotlib.axis_1">
    <g id="xtick_1">
     <g id="line2d_1">
      <defs>
       <path d="M 0 0 
L 0 3.5 
" id="m9bfe2af169" style="stroke:#000000;stroke-width:0.8;"/>
      </defs>
      <g>
       <use style="stroke:#000000;stroke-width:0.8;" x="212.676143" xlink:href="#m9bfe2af169" y="307.584"/>
      </g>
     </g>
     <g id="text_1">
      <!-- 0.0 -->
      <defs>
       <path d="M 31.78125 66.40625 
Q 24.171875 66.40625 20.328125 58.90625 
Q 16.5 51.421875 16.5 36.375 
Q 16.5 21.390625 20.328125 13.890625 
Q 24.171875 6.390625 31.78125 6.390625 
Q 39.453125 6.390625 43.28125 13.890625 
Q 47.125 21.390625 47.125 36.375 
Q 47.125 51.421875 43.28125 58.90625 
Q 39.453125 66.40625 31.78125 66.40625 
z
M 31.78125 74.21875 
Q 44.046875 74.21875 50.515625 64.515625 
Q 56.984375 54.828125 56.984375 36.375 
Q 56.984375 17.96875 50.515625 8.265625 
Q 44.046875 -1.421875 31.78125 -1.421875 
Q 19.53125 -1.421875 13.0625 8.265625 
Q 6.59375 17.96875 6.59375 36.375 
Q 6.59375 54.828125 13.0625 64.515625 
Q 19.53125 74.21875 31.78125 74.21875 
z
" id="DejaVuSans-48"/>
       <path d="M 10.6875 12.40625 
L 21 12.40625 
L 21 0 
L 10.6875 0 
z
" id="DejaVuSans-46"/>
      </defs>
      <g transform="translate(200.748799 325.981656)scale(0.15 -0.15)">
       <use xlink:href="#DejaVuSans-48"/>
       <use x="63.623047" xlink:href="#DejaVuSans-46"/>
       <use x="95.410156" xlink:href="#DejaVuSans-48"/>
      </g>
     </g>
    </g>
    <g id="xtick_2">
     <g id="line2d_2">
      <g>
       <use style="stroke:#000000;stroke-width:0.8;" x="172.75197" xlink:href="#m9bfe2af169" y="307.584"/>
      </g>
     </g>
     <g id="text_2">
      <!-- 0.2 -->
      <defs>
       <path d="M 19.1875 8.296875 
L 53.609375 8.296875 
L 53.609375 0 
L 7.328125 0 
L 7.328125 8.296875 
Q 12.9375 14.109375 22.625 23.890625 
Q 32.328125 33.6875 34.8125 36.53125 
Q 39.546875 41.84375 41.421875 45.53125 
Q 43.3125 49.21875 43.3125 52.78125 
Q 43.3125 58.59375 39.234375 62.25 
Q 35.15625 65.921875 28.609375 65.921875 
Q 23.96875 65.921875 18.8125 64.3125 
Q 13.671875 62.703125 7.8125 59.421875 
L 7.8125 69.390625 
Q 13.765625 71.78125 18.9375 73 
Q 24.125 74.21875 28.421875 74.21875 
Q 39.75 74.21875 46.484375 68.546875 
Q 53.21875 62.890625 53.21875 53.421875 
Q 53.21875 48.921875 51.53125 44.890625 
Q 49.859375 40.875 45.40625 35.40625 
Q 44.1875 33.984375 37.640625 27.21875 
Q 31.109375 20.453125 19.1875 8.296875 
z
" id="DejaVuSans-50"/>
      </defs>
      <g transform="translate(160.824626 325.981656)scale(0.15 -0.15)">
       <use xlink:href="#DejaVuSans-48"/>
       <use x="63.623047" xlink:href="#DejaVuSans-46"/>
       <use x="95.410156" xlink:href="#DejaVuSans-50"/>
      </g>
     </g>
    </g>
    <g id="xtick_3">
     <g id="line2d_3">
      <g>
       <use style="stroke:#000000;stroke-width:0.8;" x="132.827796" xlink:href="#m9bfe2af169" y="307.584"/>
      </g>
     </g>
     <g id="text_3">
      <!-- 0.4 -->
      <defs>
       <path d="M 37.796875 64.3125 
L 12.890625 25.390625 
L 37.796875 25.390625 
z
M 35.203125 72.90625 
L 47.609375 72.90625 
L 47.609375 25.390625 
L 58.015625 25.390625 
L 58.015625 17.1875 
L 47.609375 17.1875 
L 47.609375 0 
L 37.796875 0 
L 37.796875 17.1875 
L 4.890625 17.1875 
L 4.890625 26.703125 
z
" id="DejaVuSans-52"/>
      </defs>
      <g transform="translate(120.900453 325.981656)scale(0.15 -0.15)">
       <use xlink:href="#DejaVuSans-48"/>
       <use x="63.623047" xlink:href="#DejaVuSans-46"/>
       <use x="95.410156" xlink:href="#DejaVuSans-52"/>
      </g>
     </g>
    </g>
    <g id="xtick_4">
     <g id="line2d_4">
      <g>
       <use style="stroke:#000000;stroke-width:0.8;" x="92.903623" xlink:href="#m9bfe2af169" y="307.584"/>
      </g>
     </g>
     <g id="text_4">
      <!-- 0.6 -->
      <defs>
       <path d="M 33.015625 40.375 
Q 26.375 40.375 22.484375 35.828125 
Q 18.609375 31.296875 18.609375 23.390625 
Q 18.609375 15.53125 22.484375 10.953125 
Q 26.375 6.390625 33.015625 6.390625 
Q 39.65625 6.390625 43.53125 10.953125 
Q 47.40625 15.53125 47.40625 23.390625 
Q 47.40625 31.296875 43.53125 35.828125 
Q 39.65625 40.375 33.015625 40.375 
z
M 52.59375 71.296875 
L 52.59375 62.3125 
Q 48.875 64.0625 45.09375 64.984375 
Q 41.3125 65.921875 37.59375 65.921875 
Q 27.828125 65.921875 22.671875 59.328125 
Q 17.53125 52.734375 16.796875 39.40625 
Q 19.671875 43.65625 24.015625 45.921875 
Q 28.375 48.1875 33.59375 48.1875 
Q 44.578125 48.1875 50.953125 41.515625 
Q 57.328125 34.859375 57.328125 23.390625 
Q 57.328125 12.15625 50.6875 5.359375 
Q 44.046875 -1.421875 33.015625 -1.421875 
Q 20.359375 -1.421875 13.671875 8.265625 
Q 6.984375 17.96875 6.984375 36.375 
Q 6.984375 53.65625 15.1875 63.9375 
Q 23.390625 74.21875 37.203125 74.21875 
Q 40.921875 74.21875 44.703125 73.484375 
Q 48.484375 72.75 52.59375 71.296875 
z
" id="DejaVuSans-54"/>
      </defs>
      <g transform="translate(80.97628 325.981656)scale(0.15 -0.15)">
       <use xlink:href="#DejaVuSans-48"/>
       <use x="63.623047" xlink:href="#DejaVuSans-46"/>
       <use x="95.410156" xlink:href="#DejaVuSans-54"/>
      </g>
     </g>
    </g>
    <g id="text_5">
     <!-- PDF -->
     <defs>
      <path d="M 19.671875 64.796875 
L 19.671875 37.40625 
L 32.078125 37.40625 
Q 38.96875 37.40625 42.71875 40.96875 
Q 46.484375 44.53125 46.484375 51.125 
Q 46.484375 57.671875 42.71875 61.234375 
Q 38.96875 64.796875 32.078125 64.796875 
z
M 9.8125 72.90625 
L 32.078125 72.90625 
Q 44.34375 72.90625 50.609375 67.359375 
Q 56.890625 61.8125 56.890625 51.125 
Q 56.890625 40.328125 50.609375 34.8125 
Q 44.34375 29.296875 32.078125 29.296875 
L 19.671875 29.296875 
L 19.671875 0 
L 9.8125 0 
z
" id="DejaVuSans-80"/>
      <path d="M 19.671875 64.796875 
L 19.671875 8.109375 
L 31.59375 8.109375 
Q 46.6875 8.109375 53.6875 14.9375 
Q 60.6875 21.78125 60.6875 36.53125 
Q 60.6875 51.171875 53.6875 57.984375 
Q 46.6875 64.796875 31.59375 64.796875 
z
M 9.8125 72.90625 
L 30.078125 72.90625 
Q 51.265625 72.90625 61.171875 64.09375 
Q 71.09375 55.28125 71.09375 36.53125 
Q 71.09375 17.671875 61.125 8.828125 
Q 51.171875 0 30.078125 0 
L 9.8125 0 
z
" id="DejaVuSans-68"/>
      <path d="M 9.8125 72.90625 
L 51.703125 72.90625 
L 51.703125 64.59375 
L 19.671875 64.59375 
L 19.671875 43.109375 
L 48.578125 43.109375 
L 48.578125 34.8125 
L 19.671875 34.8125 
L 19.671875 0 
L 9.8125 0 
z
" id="DejaVuSans-70"/>
     </defs>
     <g transform="translate(122.204574 346.018531)scale(0.17 -0.17)">
      <use xlink:href="#DejaVuSans-80"/>
      <use x="60.302734" xlink:href="#DejaVuSans-68"/>
      <use x="137.304688" xlink:href="#DejaVuSans-70"/>
     </g>
    </g>
   </g>
   <g id="matplotlib.axis_2">
    <g id="ytick_1">
     <g id="line2d_5">
      <defs>
       <path d="M 0 0 
L -3.5 0 
" id="m69bcea3d1a" style="stroke:#000000;stroke-width:0.8;"/>
      </defs>
      <g>
       <use style="stroke:#000000;stroke-width:0.8;" x="57.6" xlink:href="#m69bcea3d1a" y="295.488"/>
      </g>
     </g>
     <g id="text_6">
      <!-- 0 -->
      <g transform="translate(41.05625 301.186828)scale(0.15 -0.15)">
       <use xlink:href="#DejaVuSans-48"/>
      </g>
     </g>
    </g>
    <g id="ytick_2">
     <g id="line2d_6">
      <g>
       <use style="stroke:#000000;stroke-width:0.8;" x="57.6" xlink:href="#m69bcea3d1a" y="236.565892"/>
      </g>
     </g>
     <g id="text_7">
      <!-- 2 -->
      <g transform="translate(41.05625 242.26472)scale(0.15 -0.15)">
       <use xlink:href="#DejaVuSans-50"/>
      </g>
     </g>
    </g>
    <g id="ytick_3">
     <g id="line2d_7">
      <g>
       <use style="stroke:#000000;stroke-width:0.8;" x="57.6" xlink:href="#m69bcea3d1a" y="177.643783"/>
      </g>
     </g>
     <g id="text_8">
      <!-- 4 -->
      <g transform="translate(41.05625 183.342611)scale(0.15 -0.15)">
       <use xlink:href="#DejaVuSans-52"/>
      </g>
     </g>
    </g>
    <g id="ytick_4">
     <g id="line2d_8">
      <g>
       <use style="stroke:#000000;stroke-width:0.8;" x="57.6" xlink:href="#m69bcea3d1a" y="118.721675"/>
      </g>
     </g>
     <g id="text_9">
      <!-- 6 -->
      <g transform="translate(41.05625 124.420503)scale(0.15 -0.15)">
       <use xlink:href="#DejaVuSans-54"/>
      </g>
     </g>
    </g>
    <g id="ytick_5">
     <g id="line2d_9">
      <g>
       <use style="stroke:#000000;stroke-width:0.8;" x="57.6" xlink:href="#m69bcea3d1a" y="59.799566"/>
      </g>
     </g>
     <g id="text_10">
      <!-- 8 -->
      <defs>
       <path d="M 31.78125 34.625 
Q 24.75 34.625 20.71875 30.859375 
Q 16.703125 27.09375 16.703125 20.515625 
Q 16.703125 13.921875 20.71875 10.15625 
Q 24.75 6.390625 31.78125 6.390625 
Q 38.8125 6.390625 42.859375 10.171875 
Q 46.921875 13.96875 46.921875 20.515625 
Q 46.921875 27.09375 42.890625 30.859375 
Q 38.875 34.625 31.78125 34.625 
z
M 21.921875 38.8125 
Q 15.578125 40.375 12.03125 44.71875 
Q 8.5 49.078125 8.5 55.328125 
Q 8.5 64.0625 14.71875 69.140625 
Q 20.953125 74.21875 31.78125 74.21875 
Q 42.671875 74.21875 48.875 69.140625 
Q 55.078125 64.0625 55.078125 55.328125 
Q 55.078125 49.078125 51.53125 44.71875 
Q 48 40.375 41.703125 38.8125 
Q 48.828125 37.15625 52.796875 32.3125 
Q 56.78125 27.484375 56.78125 20.515625 
Q 56.78125 9.90625 50.3125 4.234375 
Q 43.84375 -1.421875 31.78125 -1.421875 
Q 19.734375 -1.421875 13.25 4.234375 
Q 6.78125 9.90625 6.78125 20.515625 
Q 6.78125 27.484375 10.78125 32.3125 
Q 14.796875 37.15625 21.921875 38.8125 
z
M 18.3125 54.390625 
Q 18.3125 48.734375 21.84375 45.5625 
Q 25.390625 42.390625 31.78125 42.390625 
Q 38.140625 42.390625 41.71875 45.5625 
Q 45.3125 48.734375 45.3125 54.390625 
Q 45.3125 60.0625 41.71875 63.234375 
Q 38.140625 66.40625 31.78125 66.40625 
Q 25.390625 66.40625 21.84375 63.234375 
Q 18.3125 60.0625 18.3125 54.390625 
z
" id="DejaVuSans-56"/>
      </defs>
      <g transform="translate(41.05625 65.498394)scale(0.15 -0.15)">
       <use xlink:href="#DejaVuSans-56"/>
      </g>
     </g>
    </g>
    <g id="text_11">
     <!-- Velocity (m/s) -->
     <defs>
      <path d="M 28.609375 0 
L 0.78125 72.90625 
L 11.078125 72.90625 
L 34.1875 11.53125 
L 57.328125 72.90625 
L 67.578125 72.90625 
L 39.796875 0 
z
" id="DejaVuSans-86"/>
      <path d="M 56.203125 29.59375 
L 56.203125 25.203125 
L 14.890625 25.203125 
Q 15.484375 15.921875 20.484375 11.0625 
Q 25.484375 6.203125 34.421875 6.203125 
Q 39.59375 6.203125 44.453125 7.46875 
Q 49.3125 8.734375 54.109375 11.28125 
L 54.109375 2.78125 
Q 49.265625 0.734375 44.1875 -0.34375 
Q 39.109375 -1.421875 33.890625 -1.421875 
Q 20.796875 -1.421875 13.15625 6.1875 
Q 5.515625 13.8125 5.515625 26.8125 
Q 5.515625 40.234375 12.765625 48.109375 
Q 20.015625 56 32.328125 56 
Q 43.359375 56 49.78125 48.890625 
Q 56.203125 41.796875 56.203125 29.59375 
z
M 47.21875 32.234375 
Q 47.125 39.59375 43.09375 43.984375 
Q 39.0625 48.390625 32.421875 48.390625 
Q 24.90625 48.390625 20.390625 44.140625 
Q 15.875 39.890625 15.1875 32.171875 
z
" id="DejaVuSans-101"/>
      <path d="M 9.421875 75.984375 
L 18.40625 75.984375 
L 18.40625 0 
L 9.421875 0 
z
" id="DejaVuSans-108"/>
      <path d="M 30.609375 48.390625 
Q 23.390625 48.390625 19.1875 42.75 
Q 14.984375 37.109375 14.984375 27.296875 
Q 14.984375 17.484375 19.15625 11.84375 
Q 23.34375 6.203125 30.609375 6.203125 
Q 37.796875 6.203125 41.984375 11.859375 
Q 46.1875 17.53125 46.1875 27.296875 
Q 46.1875 37.015625 41.984375 42.703125 
Q 37.796875 48.390625 30.609375 48.390625 
z
M 30.609375 56 
Q 42.328125 56 49.015625 48.375 
Q 55.71875 40.765625 55.71875 27.296875 
Q 55.71875 13.875 49.015625 6.21875 
Q 42.328125 -1.421875 30.609375 -1.421875 
Q 18.84375 -1.421875 12.171875 6.21875 
Q 5.515625 13.875 5.515625 27.296875 
Q 5.515625 40.765625 12.171875 48.375 
Q 18.84375 56 30.609375 56 
z
" id="DejaVuSans-111"/>
      <path d="M 48.78125 52.59375 
L 48.78125 44.1875 
Q 44.96875 46.296875 41.140625 47.34375 
Q 37.3125 48.390625 33.40625 48.390625 
Q 24.65625 48.390625 19.8125 42.84375 
Q 14.984375 37.3125 14.984375 27.296875 
Q 14.984375 17.28125 19.8125 11.734375 
Q 24.65625 6.203125 33.40625 6.203125 
Q 37.3125 6.203125 41.140625 7.25 
Q 44.96875 8.296875 48.78125 10.40625 
L 48.78125 2.09375 
Q 45.015625 0.34375 40.984375 -0.53125 
Q 36.96875 -1.421875 32.421875 -1.421875 
Q 20.0625 -1.421875 12.78125 6.34375 
Q 5.515625 14.109375 5.515625 27.296875 
Q 5.515625 40.671875 12.859375 48.328125 
Q 20.21875 56 33.015625 56 
Q 37.15625 56 41.109375 55.140625 
Q 45.0625 54.296875 48.78125 52.59375 
z
" id="DejaVuSans-99"/>
      <path d="M 9.421875 54.6875 
L 18.40625 54.6875 
L 18.40625 0 
L 9.421875 0 
z
M 9.421875 75.984375 
L 18.40625 75.984375 
L 18.40625 64.59375 
L 9.421875 64.59375 
z
" id="DejaVuSans-105"/>
      <path d="M 18.3125 70.21875 
L 18.3125 54.6875 
L 36.8125 54.6875 
L 36.8125 47.703125 
L 18.3125 47.703125 
L 18.3125 18.015625 
Q 18.3125 11.328125 20.140625 9.421875 
Q 21.96875 7.515625 27.59375 7.515625 
L 36.8125 7.515625 
L 36.8125 0 
L 27.59375 0 
Q 17.1875 0 13.234375 3.875 
Q 9.28125 7.765625 9.28125 18.015625 
L 9.28125 47.703125 
L 2.6875 47.703125 
L 2.6875 54.6875 
L 9.28125 54.6875 
L 9.28125 70.21875 
z
" id="DejaVuSans-116"/>
      <path d="M 32.171875 -5.078125 
Q 28.375 -14.84375 24.75 -17.8125 
Q 21.140625 -20.796875 15.09375 -20.796875 
L 7.90625 -20.796875 
L 7.90625 -13.28125 
L 13.1875 -13.28125 
Q 16.890625 -13.28125 18.9375 -11.515625 
Q 21 -9.765625 23.484375 -3.21875 
L 25.09375 0.875 
L 2.984375 54.6875 
L 12.5 54.6875 
L 29.59375 11.921875 
L 46.6875 54.6875 
L 56.203125 54.6875 
z
" id="DejaVuSans-121"/>
      <path id="DejaVuSans-32"/>
      <path d="M 31 75.875 
Q 24.46875 64.65625 21.28125 53.65625 
Q 18.109375 42.671875 18.109375 31.390625 
Q 18.109375 20.125 21.3125 9.0625 
Q 24.515625 -2 31 -13.1875 
L 23.1875 -13.1875 
Q 15.875 -1.703125 12.234375 9.375 
Q 8.59375 20.453125 8.59375 31.390625 
Q 8.59375 42.28125 12.203125 53.3125 
Q 15.828125 64.359375 23.1875 75.875 
z
" id="DejaVuSans-40"/>
      <path d="M 52 44.1875 
Q 55.375 50.25 60.0625 53.125 
Q 64.75 56 71.09375 56 
Q 79.640625 56 84.28125 50.015625 
Q 88.921875 44.046875 88.921875 33.015625 
L 88.921875 0 
L 79.890625 0 
L 79.890625 32.71875 
Q 79.890625 40.578125 77.09375 44.375 
Q 74.3125 48.1875 68.609375 48.1875 
Q 61.625 48.1875 57.5625 43.546875 
Q 53.515625 38.921875 53.515625 30.90625 
L 53.515625 0 
L 44.484375 0 
L 44.484375 32.71875 
Q 44.484375 40.625 41.703125 44.40625 
Q 38.921875 48.1875 33.109375 48.1875 
Q 26.21875 48.1875 22.15625 43.53125 
Q 18.109375 38.875 18.109375 30.90625 
L 18.109375 0 
L 9.078125 0 
L 9.078125 54.6875 
L 18.109375 54.6875 
L 18.109375 46.1875 
Q 21.1875 51.21875 25.484375 53.609375 
Q 29.78125 56 35.6875 56 
Q 41.65625 56 45.828125 52.96875 
Q 50 49.953125 52 44.1875 
z
" id="DejaVuSans-109"/>
      <path d="M 25.390625 72.90625 
L 33.6875 72.90625 
L 8.296875 -9.28125 
L 0 -9.28125 
z
" id="DejaVuSans-47"/>
      <path d="M 44.28125 53.078125 
L 44.28125 44.578125 
Q 40.484375 46.53125 36.375 47.5 
Q 32.28125 48.484375 27.875 48.484375 
Q 21.1875 48.484375 17.84375 46.4375 
Q 14.5 44.390625 14.5 40.28125 
Q 14.5 37.15625 16.890625 35.375 
Q 19.28125 33.59375 26.515625 31.984375 
L 29.59375 31.296875 
Q 39.15625 29.25 43.1875 25.515625 
Q 47.21875 21.78125 47.21875 15.09375 
Q 47.21875 7.46875 41.1875 3.015625 
Q 35.15625 -1.421875 24.609375 -1.421875 
Q 20.21875 -1.421875 15.453125 -0.5625 
Q 10.6875 0.296875 5.421875 2 
L 5.421875 11.28125 
Q 10.40625 8.6875 15.234375 7.390625 
Q 20.0625 6.109375 24.8125 6.109375 
Q 31.15625 6.109375 34.5625 8.28125 
Q 37.984375 10.453125 37.984375 14.40625 
Q 37.984375 18.0625 35.515625 20.015625 
Q 33.0625 21.96875 24.703125 23.78125 
L 21.578125 24.515625 
Q 13.234375 26.265625 9.515625 29.90625 
Q 5.8125 33.546875 5.8125 39.890625 
Q 5.8125 47.609375 11.28125 51.796875 
Q 16.75 56 26.8125 56 
Q 31.78125 56 36.171875 55.265625 
Q 40.578125 54.546875 44.28125 53.078125 
z
" id="DejaVuSans-115"/>
      <path d="M 8.015625 75.875 
L 15.828125 75.875 
Q 23.140625 64.359375 26.78125 53.3125 
Q 30.421875 42.28125 30.421875 31.390625 
Q 30.421875 20.453125 26.78125 9.375 
Q 23.140625 -1.703125 15.828125 -13.1875 
L 8.015625 -13.1875 
Q 14.5 -2 17.703125 9.0625 
Q 20.90625 20.125 20.90625 31.390625 
Q 20.90625 42.671875 17.703125 53.65625 
Q 14.5 64.65625 8.015625 75.875 
z
" id="DejaVuSans-41"/>
     </defs>
     <g transform="translate(33.520781 232.779562)rotate(-90)scale(0.17 -0.17)">
      <use xlink:href="#DejaVuSans-86"/>
      <use x="60.658203" xlink:href="#DejaVuSans-101"/>
      <use x="122.181641" xlink:href="#DejaVuSans-108"/>
      <use x="149.964844" xlink:href="#DejaVuSans-111"/>
      <use x="211.146484" xlink:href="#DejaVuSans-99"/>
      <use x="266.126953" xlink:href="#DejaVuSans-105"/>
      <use x="293.910156" xlink:href="#DejaVuSans-116"/>
      <use x="333.119141" xlink:href="#DejaVuSans-121"/>
      <use x="392.298828" xlink:href="#DejaVuSans-32"/>
      <use x="424.085938" xlink:href="#DejaVuSans-40"/>
      <use x="463.099609" xlink:href="#DejaVuSans-109"/>
      <use x="560.511719" xlink:href="#DejaVuSans-47"/>
      <use x="594.203125" xlink:href="#DejaVuSans-115"/>
      <use x="646.302734" xlink:href="#DejaVuSans-41"/>
     </g>
    </g>
   </g>
   <g id="line2d_10">
    <path clip-path="url(#p339268712c)" d="M 148.791192 295.488 
L 195.517036 293.531647 
L 194.47709 291.575294 
L 194.261929 289.618941 
L 193.544725 287.662588 
L 196.054939 285.706236 
L 196.019079 283.749883 
L 196.772143 281.79353 
L 195.821848 279.837177 
L 195.283945 277.880824 
L 195.122574 275.924471 
L 195.570826 273.968118 
L 194.40537 272.011765 
L 195.140504 270.055412 
L 193.795746 268.099059 
L 195.266015 266.142707 
L 195.463246 264.186354 
L 194.620531 262.230001 
L 194.548811 260.273648 
L 194.49502 258.317295 
L 194.530881 256.360942 
L 193.078542 254.404589 
L 193.903327 252.448236 
L 193.437144 250.491883 
L 192.71994 248.53553 
L 192.522709 246.579178 
L 192.199967 244.622825 
L 191.070371 242.666472 
L 190.478678 240.710119 
L 190.299377 238.753766 
L 189.420802 236.797413 
L 189.994565 234.84106 
L 189.295291 232.884707 
L 187.789163 230.928354 
L 187.645722 228.972002 
L 185.63755 227.015649 
L 180.437821 225.059296 
L 175.148441 223.102943 
L 163.924198 221.14659 
L 161.378123 219.190237 
L 154.905357 217.233884 
L 151.175896 215.277531 
L 148.970493 213.321178 
L 150.225601 211.364825 
L 148.773262 209.408473 
L 148.235359 207.45212 
L 135.271896 205.495767 
L 115.046742 203.539414 
L 139.736491 201.583061 
L 139.270309 199.626708 
L 136.670444 197.670355 
L 113.594404 195.714002 
L 112.91306 193.757649 
L 114.903301 191.801297 
L 121.125046 189.844944 
L 115.172253 187.888591 
L 83.489764 185.932238 
L 83.023581 183.975885 
L 130.484559 182.019532 
L 150.458692 180.063179 
L 160.033366 178.106826 
L 179.218574 176.150473 
L 187.143679 174.19412 
L 187.28712 172.237768 
L 188.183625 170.281415 
L 186.193384 168.325062 
L 188.273275 166.368709 
L 179.774407 164.412356 
L 195.427386 162.456003 
L 197.776229 160.49965 
L 196.861794 158.543297 
L 198.06311 156.586944 
L 197.148675 154.630591 
L 190.747629 152.674239 
L 188.918759 150.717886 
L 200.913997 148.761533 
L 204.195205 146.80518 
L 205.414452 144.848827 
L 205.629613 142.892474 
L 205.611683 140.936121 
L 208.354989 138.979768 
L 210.45281 137.023415 
L 211.026574 135.067063 
L 211.349315 133.11071 
L 211.582407 131.154357 
L 211.618267 129.198004 
L 211.833428 127.241651 
L 211.923079 125.285298 
L 212.06652 123.328945 
L 212.12031 121.372592 
L 212.15617 119.416239 
L 212.12031 117.459886 
L 212.22789 115.503534 
L 212.20996 113.547181 
L 212.281681 111.590828 
L 212.13824 109.634475 
L 212.353401 107.678122 
L 212.425122 105.721769 
L 212.425122 103.765416 
" style="fill:none;stroke:#5a0003;stroke-linecap:square;stroke-width:3;"/>
   </g>
   <g id="line2d_11">
    <path clip-path="url(#p339268712c)" d="M 212.264421 295.488 
L 211.044504 293.23914 
L 210.724276 290.99028 
L 210.06857 288.74142 
L 209.443363 286.49256 
L 208.253943 284.2437 
L 207.445748 281.99484 
L 205.829358 279.74598 
L 206.6833 277.49712 
L 207.293259 275.24826 
L 207.247512 272.9994 
L 206.942533 270.75054 
L 207.064524 268.50168 
L 206.713798 266.25282 
L 205.95135 264.00396 
L 206.668051 261.7551 
L 206.652802 259.50624 
L 206.698549 257.25738 
L 207.034026 255.00852 
L 207.491495 252.75966 
L 206.6833 250.5108 
L 207.689732 248.26194 
L 207.72023 246.01308 
L 208.269192 243.76422 
L 207.704981 241.51536 
L 207.56774 239.2665 
L 208.00996 237.01764 
L 207.613487 234.76878 
L 207.811723 232.51992 
L 206.363072 230.27106 
L 205.570126 228.0222 
L 205.722615 225.77334 
L 204.91442 223.52448 
L 194.392635 221.27562 
L 192.669502 219.02676 
L 193.050727 216.7779 
L 186.569917 214.52904 
L 186.768153 212.28018 
L 188.094813 210.03132 
L 190.290664 207.78246 
L 192.395021 205.5336 
L 191.159855 203.28474 
L 185.167012 201.035879 
L 180.165352 198.787019 
L 177.862759 196.538159 
L 175.148443 194.289299 
L 171.3667 192.040439 
L 168.210164 189.791579 
L 164.367426 187.542719 
L 161.195641 185.293859 
L 157.3834 183.044999 
L 152.869707 180.796139 
L 144.604768 178.547279 
L 132.161614 176.298419 
L 124.201655 174.049559 
L 114.061094 171.800699 
L 107.107566 169.551839 
L 125.833294 167.302979 
L 131.33817 165.054119 
L 134.174477 162.805259 
L 132.710577 160.556399 
L 123.301966 158.307539 
L 124.232153 156.058679 
L 109.105181 153.809819 
L 122.188792 151.560959 
L 128.730597 149.312099 
L 144.055806 147.063239 
L 151.588794 144.814379 
L 157.429147 142.565519 
L 164.245434 140.316659 
L 176.490352 138.067799 
L 189.192739 135.818939 
L 192.471266 133.570079 
L 194.667117 131.321219 
L 197.381432 129.072359 
L 199.562034 126.823499 
L 199.607781 124.574639 
L 201.651142 122.325779 
L 203.572512 120.076919 
L 203.679254 117.828059 
L 204.045229 115.579199 
L 202.200105 113.330339 
L 203.328528 111.081479 
L 203.023549 108.832619 
L 202.047615 106.583759 
L 202.032366 104.334899 
L 200.812449 102.086039 
L 199.02832 99.837179 
L 199.47054 97.588319 
L 200.141495 95.339459 
L 199.485789 93.090599 
L 198.00664 90.841739 
L 201.056433 88.592879 
L 203.038798 86.344019 
L 204.487449 84.095159 
L 204.91442 81.846299 
L 205.524379 79.597439 
L 208.055707 77.348579 
L 211.486724 75.099719 
" style="fill:none;stroke:#ffcc7b;stroke-dasharray:1.5,2.475;stroke-dashoffset:0;stroke-width:1.5;"/>
   </g>
   <g id="line2d_12">
    <path clip-path="url(#p339268712c)" d="M 212.041564 295.488 
L 211.641504 293.076685 
L 211.76566 290.665369 
L 211.351805 288.254054 
L 210.882768 285.842738 
L 210.386141 283.431423 
L 209.848129 281.020107 
L 209.737767 278.608792 
L 208.785899 276.197476 
L 208.15132 273.786161 
L 208.013368 271.374845 
L 208.234091 268.96353 
L 208.261682 266.552214 
L 207.751259 264.140899 
L 207.834031 261.729583 
L 207.282223 259.318268 
L 207.0615 256.906952 
L 207.502946 254.495637 
L 207.613307 252.084321 
L 207.420175 249.673006 
L 208.040958 247.26169 
L 208.620356 244.850375 
L 208.468609 242.439059 
L 208.551381 240.027744 
L 208.647947 237.616428 
L 208.165115 235.205113 
L 207.558127 232.793797 
L 207.627103 230.382482 
L 206.937343 227.971166 
L 206.882162 225.559851 
L 205.571619 223.148535 
L 204.454209 220.73722 
L 204.316257 218.325905 
L 204.702522 215.914589 
L 198.536071 213.503274 
L 195.459743 211.091958 
L 194.328538 208.680643 
L 191.707451 206.269327 
L 188.341424 203.858012 
L 179.140031 201.446696 
L 184.023529 199.035381 
L 187.568894 196.624065 
L 188.879437 194.21275 
L 188.437991 191.801434 
L 181.664551 189.390119 
L 174.38069 186.978803 
L 168.683276 184.567488 
L 163.234175 182.156172 
L 158.364472 179.744857 
L 151.218563 177.333541 
L 144.017472 174.922226 
L 131.988065 172.51091 
L 116.109799 170.099595 
L 126.649326 167.688279 
L 122.234864 165.276964 
L 121.545105 162.865648 
L 116.634016 160.454333 
L 109.088046 158.043017 
L 109.308769 155.631702 
L 106.080694 153.220386 
L 124.649023 150.809071 
L 134.774694 148.397755 
L 137.326804 145.98644 
L 148.735428 143.575125 
L 165.758695 141.163809 
L 170.021409 138.752494 
L 173.621954 136.341178 
L 180.629912 133.929863 
L 183.347565 131.518547 
L 183.33377 129.107232 
L 188.286244 126.695916 
L 195.225225 124.284601 
L 195.045888 121.873285 
L 198.467095 119.46197 
L 200.508784 117.050654 
L 200.288061 114.639339 
L 201.557218 112.228023 
L 204.067943 109.816708 
L 203.902401 107.405392 
L 203.640292 104.994077 
L 203.764449 102.582761 
L 203.419569 100.171446 
L 203.185051 97.76013 
L 202.315954 95.348815 
L 201.377881 92.937499 
L 201.212338 90.526184 
L 200.205289 88.114868 
L 197.446251 85.703553 
L 195.708057 83.292237 
L 197.556613 80.880922 
L 200.23288 78.469606 
L 200.881254 76.058291 
L 201.046796 73.646975 
L 200.398422 71.23566 
L 203.84722 68.824345 
L 205.488848 66.413029 
L 206.620054 64.001714 
L 209.158369 61.590398 
L 211.213853 59.179083 
" style="fill:none;stroke:#e6a346;stroke-dasharray:5.55,2.4;stroke-dashoffset:0;stroke-width:1.5;"/>
   </g>
   <g id="line2d_13">
    <path clip-path="url(#p339268712c)" d="M 212.465648 295.488 
L 212.044657 293.074621 
L 211.427203 290.661242 
L 211.090411 288.247863 
L 211.230741 285.834485 
L 210.893948 283.421106 
L 210.430858 281.007727 
L 209.771306 278.594348 
L 209.56081 276.180969 
L 209.490645 273.76759 
L 209.308216 271.354211 
L 208.339937 268.940832 
L 208.115409 266.527454 
L 207.722484 264.114075 
L 207.56812 261.700696 
L 207.736517 259.287317 
L 207.301493 256.873938 
L 207.10503 254.460559 
L 207.610219 252.04718 
L 208.03121 249.633801 
L 208.143475 247.220423 
L 208.606565 244.807044 
L 208.382036 242.393665 
L 208.143475 239.980286 
L 207.708451 237.566907 
L 207.876847 235.153528 
L 207.455856 232.740149 
L 205.799959 230.32677 
L 206.249016 227.913392 
L 205.912223 225.500013 
L 204.97201 223.086634 
L 205.280737 220.673255 
L 205.828025 218.259876 
L 205.687694 215.846497 
L 204.172127 213.433118 
L 203.72307 211.019739 
L 205.126373 208.606361 
L 205.322836 206.192982 
L 203.091584 203.779603 
L 199.499129 201.366224 
L 192.37035 198.952845 
L 184.553953 196.539466 
L 185.171406 194.126087 
L 181.270224 191.712708 
L 179.024939 189.29933 
L 176.134135 186.885951 
L 168.991324 184.472572 
L 163.546508 182.059193 
L 158.031528 179.645814 
L 154.130346 177.232435 
L 144.124796 174.819056 
L 131.298608 172.405677 
L 124.113697 169.992299 
L 117.012984 167.57892 
L 105.660264 165.165541 
L 82.575931 162.752162 
L 64.978512 160.338783 
L 83.193384 157.925404 
L 94.223345 155.512025 
L 115.707912 153.098647 
L 107.765218 150.685268 
L 143.128451 148.271889 
L 158.326222 145.85851 
L 173.229298 143.445131 
L 179.600294 141.031752 
L 181.284257 138.618373 
L 182.673527 136.204994 
L 182.631428 133.791616 
L 183.066452 131.378237 
L 186.322114 128.964858 
L 187.27636 126.551479 
L 193.661389 124.1381 
L 193.128134 121.724721 
L 194.110446 119.311342 
L 198.895708 116.897963 
L 198.979907 114.484585 
L 201.618116 112.071206 
L 203.386278 109.657827 
L 202.937221 107.244448 
L 203.596773 104.831069 
L 202.65656 102.41769 
L 202.502197 100.004311 
L 201.716347 97.590932 
L 202.137338 95.177554 
L 200.481441 92.764175 
L 200.593705 90.350796 
L 199.176369 87.937417 
L 195.962805 85.524038 
L 196.285565 83.110659 
L 197.88533 80.69728 
L 198.909741 78.283901 
L 203.077551 75.870523 
L 202.670593 73.457144 
L 203.680971 71.043765 
L 203.231914 68.630386 
L 206.866469 66.217007 
L 211.104444 63.803628 
L 211.637699 61.390249 
L 211.553501 58.97687 
" style="fill:none;stroke:#b45a28;stroke-dasharray:9.6,2.4,1.5,2.4;stroke-dashoffset:0;stroke-width:1.5;"/>
   </g>
   <g id="line2d_14">
    <path clip-path="url(#p339268712c)" d="M 212.54876 295.488 
L 212.223227 293.019429 
L 211.402317 290.550857 
L 211.076783 288.082286 
L 210.425717 285.613714 
L 209.647268 283.145143 
L 208.967894 280.676571 
L 208.684821 278.208 
L 207.920525 275.739429 
L 207.566685 273.270857 
L 207.594992 270.802286 
L 207.142076 268.333714 
L 206.038094 265.865143 
L 206.307012 263.396571 
L 205.514409 260.928 
L 205.061494 258.459429 
L 205.939018 255.990857 
L 206.094708 253.522286 
L 207.354381 251.053714 
L 207.014694 248.585143 
L 207.241152 246.116571 
L 206.958079 243.648 
L 206.759928 241.179429 
L 206.901465 238.710857 
L 206.434395 236.242286 
L 206.717467 233.773714 
L 207.354381 231.305143 
L 206.646699 228.836571 
L 206.038094 226.368 
L 205.599331 223.899429 
L 205.854096 221.430857 
L 206.703314 218.962286 
L 207.014694 216.493714 
L 198.550827 214.025143 
L 192.493076 211.556571 
L 180.462496 209.088 
L 191.445708 206.619429 
L 190.568183 204.150857 
L 189.209435 201.682286 
L 187.298696 199.213714 
L 184.567047 196.745143 
L 183.264913 194.276571 
L 182.967687 191.808 
L 177.844076 189.339429 
L 174.220748 186.870857 
L 173.895215 184.402286 
L 170.75311 181.933714 
L 163.945217 179.465143 
L 156.542872 176.996571 
L 142.403402 174.528 
L 129.679295 172.059429 
L 128.094089 169.590857 
L 126.225811 167.122286 
L 127.542098 164.653714 
L 134.732138 162.185143 
L 134.944443 159.716571 
L 134.477373 157.248 
L 142.969547 154.779429 
L 143.578153 152.310857 
L 144.809518 149.842286 
L 158.156385 147.373714 
L 170.470038 144.905143 
L 176.881629 142.436571 
L 179.358513 139.968 
L 181.099409 137.499429 
L 181.071102 135.030857 
L 182.245852 132.562286 
L 183.208299 130.093714 
L 183.40645 127.625143 
L 183.420603 125.156571 
L 181.948626 122.688 
L 182.245852 120.219429 
L 182.967687 117.750857 
L 185.416264 115.282286 
L 185.671029 112.813714 
L 187.440232 110.345143 
L 187.992224 107.876571 
L 189.350971 105.408 
L 189.61989 102.939429 
L 189.039592 100.470857 
L 189.42174 98.002286 
L 188.388525 95.533714 
L 186.831626 93.065143 
L 187.114699 90.596571 
L 191.091867 88.128 
L 195.762563 85.659429 
L 196.640088 83.190857 
L 196.470244 80.722286 
L 198.918821 78.253714 
L 199.03205 75.785143 
L 199.683117 73.316571 
L 201.508934 70.848 
L 204.89165 68.379429 
L 205.599331 65.910857 
L 208.330981 63.442286 
L 210.156798 60.973714 
L 210.836172 58.505143 
L 210.652175 56.036571 
L 211.996769 53.568 
" style="fill:none;stroke:#7d1e0b;stroke-linecap:square;stroke-width:1.5;"/>
   </g>
   <g id="patch_3">
    <path d="M 57.6 307.584 
L 57.6 41.472 
" style="fill:none;stroke:#000000;stroke-linecap:square;stroke-linejoin:miter;stroke-width:0.8;"/>
   </g>
   <g id="patch_4">
    <path d="M 219.927273 307.584 
L 219.927273 41.472 
" style="fill:none;stroke:#000000;stroke-linecap:square;stroke-linejoin:miter;stroke-width:0.8;"/>
   </g>
   <g id="patch_5">
    <path d="M 57.6 307.584 
L 219.927273 307.584 
" style="fill:none;stroke:#000000;stroke-linecap:square;stroke-linejoin:miter;stroke-width:0.8;"/>
   </g>
   <g id="patch_6">
    <path d="M 57.6 41.472 
L 219.927273 41.472 
" style="fill:none;stroke:#000000;stroke-linecap:square;stroke-linejoin:miter;stroke-width:0.8;"/>
   </g>
  </g>
  <g id="axes_2">
   <g id="patch_7">
    <path d="M 252.392727 307.584 
L 414.72 307.584 
L 414.72 41.472 
L 252.392727 41.472 
z
" style="fill:#ffffff;"/>
   </g>
   <g id="matplotlib.axis_3">
    <g id="xtick_5">
     <g id="line2d_15">
      <g>
       <use style="stroke:#000000;stroke-width:0.8;" x="259.763349" xlink:href="#m9bfe2af169" y="307.584"/>
      </g>
     </g>
     <g id="text_12">
      <!-- 0.0 -->
      <g transform="translate(247.836005 325.981656)scale(0.15 -0.15)">
       <use xlink:href="#DejaVuSans-48"/>
       <use x="63.623047" xlink:href="#DejaVuSans-46"/>
       <use x="95.410156" xlink:href="#DejaVuSans-48"/>
      </g>
     </g>
    </g>
    <g id="xtick_6">
     <g id="line2d_16">
      <g>
       <use style="stroke:#000000;stroke-width:0.8;" x="333.552418" xlink:href="#m9bfe2af169" y="307.584"/>
      </g>
     </g>
     <g id="text_13">
      <!-- 0.5 -->
      <defs>
       <path d="M 10.796875 72.90625 
L 49.515625 72.90625 
L 49.515625 64.59375 
L 19.828125 64.59375 
L 19.828125 46.734375 
Q 21.96875 47.46875 24.109375 47.828125 
Q 26.265625 48.1875 28.421875 48.1875 
Q 40.625 48.1875 47.75 41.5 
Q 54.890625 34.8125 54.890625 23.390625 
Q 54.890625 11.625 47.5625 5.09375 
Q 40.234375 -1.421875 26.90625 -1.421875 
Q 22.3125 -1.421875 17.546875 -0.640625 
Q 12.796875 0.140625 7.71875 1.703125 
L 7.71875 11.625 
Q 12.109375 9.234375 16.796875 8.0625 
Q 21.484375 6.890625 26.703125 6.890625 
Q 35.15625 6.890625 40.078125 11.328125 
Q 45.015625 15.765625 45.015625 23.390625 
Q 45.015625 31 40.078125 35.4375 
Q 35.15625 39.890625 26.703125 39.890625 
Q 22.75 39.890625 18.8125 39.015625 
Q 14.890625 38.140625 10.796875 36.28125 
z
" id="DejaVuSans-53"/>
      </defs>
      <g transform="translate(321.625074 325.981656)scale(0.15 -0.15)">
       <use xlink:href="#DejaVuSans-48"/>
       <use x="63.623047" xlink:href="#DejaVuSans-46"/>
       <use x="95.410156" xlink:href="#DejaVuSans-53"/>
      </g>
     </g>
    </g>
    <g id="xtick_7">
     <g id="line2d_17">
      <g>
       <use style="stroke:#000000;stroke-width:0.8;" x="407.341488" xlink:href="#m9bfe2af169" y="307.584"/>
      </g>
     </g>
     <g id="text_14">
      <!-- 1.0 -->
      <defs>
       <path d="M 12.40625 8.296875 
L 28.515625 8.296875 
L 28.515625 63.921875 
L 10.984375 60.40625 
L 10.984375 69.390625 
L 28.421875 72.90625 
L 38.28125 72.90625 
L 38.28125 8.296875 
L 54.390625 8.296875 
L 54.390625 0 
L 12.40625 0 
z
" id="DejaVuSans-49"/>
      </defs>
      <g transform="translate(395.414144 325.981656)scale(0.15 -0.15)">
       <use xlink:href="#DejaVuSans-49"/>
       <use x="63.623047" xlink:href="#DejaVuSans-46"/>
       <use x="95.410156" xlink:href="#DejaVuSans-48"/>
      </g>
     </g>
    </g>
    <g id="text_15">
     <!-- CDF -->
     <defs>
      <path d="M 64.40625 67.28125 
L 64.40625 56.890625 
Q 59.421875 61.53125 53.78125 63.8125 
Q 48.140625 66.109375 41.796875 66.109375 
Q 29.296875 66.109375 22.65625 58.46875 
Q 16.015625 50.828125 16.015625 36.375 
Q 16.015625 21.96875 22.65625 14.328125 
Q 29.296875 6.6875 41.796875 6.6875 
Q 48.140625 6.6875 53.78125 8.984375 
Q 59.421875 11.28125 64.40625 15.921875 
L 64.40625 5.609375 
Q 59.234375 2.09375 53.4375 0.328125 
Q 47.65625 -1.421875 41.21875 -1.421875 
Q 24.65625 -1.421875 15.125 8.703125 
Q 5.609375 18.84375 5.609375 36.375 
Q 5.609375 53.953125 15.125 64.078125 
Q 24.65625 74.21875 41.21875 74.21875 
Q 47.75 74.21875 53.53125 72.484375 
Q 59.328125 70.75 64.40625 67.28125 
z
" id="DejaVuSans-67"/>
     </defs>
     <g transform="translate(316.187145 346.018531)scale(0.17 -0.17)">
      <use xlink:href="#DejaVuSans-67"/>
      <use x="69.824219" xlink:href="#DejaVuSans-68"/>
      <use x="146.826172" xlink:href="#DejaVuSans-70"/>
     </g>
    </g>
   </g>
   <g id="matplotlib.axis_4"/>
   <g id="line2d_18">
    <path clip-path="url(#p996b34dc6c)" d="M 262.89962 295.488 
L 263.742003 293.531647 
L 264.63544 291.575294 
L 265.539439 289.618941 
L 266.478648 287.662588 
L 267.294624 285.706236 
L 268.112361 283.749883 
L 268.893128 281.79353 
L 269.720547 279.837177 
L 270.574373 277.880824 
L 271.436121 275.924471 
L 272.275864 273.968118 
L 273.172821 272.011765 
L 274.03369 270.055412 
L 274.960575 268.099059 
L 275.815282 266.142707 
L 276.660305 264.186354 
L 277.5467 262.230001 
L 278.436616 260.273648 
L 279.329173 258.317295 
L 280.219969 256.360942 
L 281.182063 254.404589 
L 282.103668 252.448236 
L 283.048158 250.491883 
L 284.027857 248.53553 
L 285.017239 246.579178 
L 286.022466 244.622825 
L 287.083147 242.666472 
L 288.172876 240.710119 
L 289.271407 238.753766 
L 290.413069 236.797413 
L 291.526564 234.84106 
L 292.674388 232.884707 
L 293.896152 230.928354 
L 295.124957 228.972002 
L 296.452349 227.015649 
L 298.035008 225.059296 
L 299.877336 223.102943 
L 302.270691 221.14659 
L 304.789038 219.190237 
L 307.625149 217.233884 
L 310.644349 215.277531 
L 313.771818 213.321178 
L 316.83767 211.364825 
L 319.974821 209.408473 
L 323.138379 207.45212 
L 326.938346 205.495767 
L 331.731216 203.539414 
L 335.312004 201.583061 
L 338.915679 199.626708 
L 342.646988 197.670355 
L 347.511156 195.714002 
L 352.408774 193.757649 
L 357.208686 191.801297 
L 361.703156 189.844944 
L 366.489865 187.888591 
L 372.831945 185.932238 
L 379.196911 183.975885 
L 383.2319 182.019532 
L 386.286309 180.063179 
L 388.870674 178.106826 
L 390.513189 176.150473 
L 391.766641 174.19412 
L 393.013051 172.237768 
L 394.21545 170.281415 
L 395.515554 168.325062 
L 396.713552 166.368709 
L 398.32878 164.412356 
L 399.175564 162.456003 
L 399.907038 160.49965 
L 400.683404 158.543297 
L 401.400794 156.586944 
L 402.163076 154.630591 
L 403.239601 152.674239 
L 404.40591 150.717886 
L 404.983343 148.761533 
L 405.399693 146.80518 
L 405.756188 144.848827 
L 406.102119 142.892474 
L 406.448931 140.936121 
L 406.661067 138.979768 
L 406.770216 137.023415 
L 406.851198 135.067063 
L 406.916335 133.11071 
L 406.970029 131.154357 
L 407.021963 129.198004 
L 407.063334 127.241651 
L 407.100304 125.285298 
L 407.130232 123.328945 
L 407.157519 121.372592 
L 407.183046 119.416239 
L 407.210333 117.459886 
L 407.232339 115.503534 
L 407.255225 113.547181 
L 407.27459 111.590828 
L 407.300997 109.634475 
L 407.316841 107.678122 
L 407.329164 105.721769 
L 407.341488 103.765416 
" style="fill:none;stroke:#5a0003;stroke-linecap:square;stroke-width:3;"/>
   </g>
   <g id="line2d_19">
    <path clip-path="url(#p996b34dc6c)" d="M 259.786583 295.488 
L 259.878661 293.23914 
L 259.98881 290.99028 
L 260.135962 288.74142 
L 260.318396 286.49256 
L 260.567953 284.2437 
L 260.863118 281.99484 
L 261.2495 279.74598 
L 261.587692 277.49712 
L 261.891462 275.24826 
L 262.197814 272.9994 
L 262.521376 270.75054 
L 262.838055 268.50168 
L 263.174525 266.25282 
L 263.554023 264.00396 
L 263.893076 261.7551 
L 264.232988 259.50624 
L 264.57032 257.25738 
L 264.888719 255.00852 
L 265.181302 252.75966 
L 265.519494 250.5108 
L 265.800891 248.26194 
L 266.080566 246.01308 
L 266.329262 243.76422 
L 266.609797 241.51536 
L 266.898078 239.2665 
L 267.161403 237.01764 
L 267.447102 234.76878 
L 267.721614 232.51992 
L 268.077877 230.27106 
L 268.478888 228.0222 
L 268.871294 225.77334 
L 269.309308 223.52448 
L 270.341094 221.27562 
L 271.470122 219.02676 
L 272.577635 216.7779 
L 274.050878 214.52904 
L 275.512934 212.28018 
L 276.900123 210.03132 
L 278.163394 207.78246 
L 279.307911 205.5336 
L 280.522132 203.28474 
L 282.074544 201.035879 
L 283.909213 198.787019 
L 285.873824 196.538159 
L 287.99161 194.289299 
L 290.32281 192.040439 
L 292.832142 189.791579 
L 295.55833 187.542719 
L 298.46351 185.293859 
L 301.583824 183.044999 
L 304.958858 180.796139 
L 308.800304 178.547279 
L 313.34395 176.298419 
L 318.336798 174.049559 
L 323.901903 171.800699 
L 329.859415 169.551839 
L 334.760185 167.302979 
L 339.3503 165.054119 
L 343.780355 162.805259 
L 348.293021 160.556399 
L 353.33664 158.307539 
L 358.327767 156.058679 
L 364.172548 153.809819 
L 369.278986 151.560959 
L 374.016254 149.312099 
L 377.888679 147.063239 
L 381.335998 144.814379 
L 384.453731 142.565519 
L 387.186803 140.316659 
L 389.228862 138.067799 
L 390.554092 135.818939 
L 391.694307 133.570079 
L 392.710603 131.321219 
L 393.573724 129.072359 
L 394.313787 126.823499 
L 395.051269 124.574639 
L 395.673439 122.325779 
L 396.187181 120.076919 
L 396.694899 117.828059 
L 397.181964 115.579199 
L 397.773154 113.330339 
L 398.300665 111.081479 
L 398.845386 108.832619 
L 399.445182 106.583759 
L 400.045838 104.334899 
L 400.715337 102.086039 
L 401.48552 99.837179 
L 402.230746 97.588319 
L 402.938109 95.339459 
L 403.682476 93.090599 
L 404.510314 90.841739 
L 405.166045 88.592879 
L 405.709906 86.344019 
L 406.172015 84.095159 
L 406.610029 81.846299 
L 407.013622 79.597439 
L 407.274366 77.348579 
L 407.341488 75.099719 
" style="fill:none;stroke:#ffcc7b;stroke-dasharray:1.5,2.475;stroke-dashoffset:0;stroke-width:1.5;"/>
   </g>
   <g id="line2d_20">
    <path clip-path="url(#p996b34dc6c)" d="M 259.801747 295.488 
L 259.864352 293.076685 
L 259.919445 290.665369 
L 259.999579 288.254054 
L 260.108095 285.842738 
L 260.246661 283.431423 
L 260.417783 281.020107 
L 260.595581 278.608792 
L 260.830977 276.197476 
L 261.104771 273.786161 
L 261.386912 271.374845 
L 261.655697 268.96353 
L 261.922813 266.552214 
L 262.220814 264.140899 
L 262.513807 261.729583 
L 262.840189 259.318268 
L 263.179927 256.906952 
L 263.492953 254.495637 
L 263.799302 252.084321 
L 264.117336 249.673006 
L 264.397808 247.26169 
L 264.643221 244.850375 
L 264.897815 242.439059 
L 265.147402 240.027744 
L 265.391145 237.616428 
L 265.664104 235.205113 
L 265.973791 232.793797 
L 266.279305 230.382482 
L 266.626555 227.971166 
L 266.977145 225.559851 
L 267.407034 223.148535 
L 267.904537 220.73722 
L 268.410388 218.325905 
L 268.892866 215.914589 
L 269.748471 213.503274 
L 270.790223 211.091958 
L 271.900423 208.680643 
L 273.169223 206.269327 
L 274.641699 203.858012 
L 276.670944 201.446696 
L 278.404692 199.035381 
L 279.923914 196.624065 
L 281.363835 194.21275 
L 282.830467 191.801434 
L 284.706956 189.390119 
L 287.024185 186.978803 
L 289.686161 184.567488 
L 292.677858 182.156172 
L 295.964217 179.744857 
L 299.68297 177.333541 
L 303.837455 174.922226 
L 308.719831 172.51091 
L 314.562989 170.099595 
L 319.768408 167.688279 
L 325.240943 165.276964 
L 330.755215 162.865648 
L 336.566653 160.454333 
L 342.834692 158.043017 
L 349.089375 155.631702 
L 355.539387 153.220386 
L 360.865843 150.809071 
L 365.579602 148.397755 
L 370.138935 145.98644 
L 374.00794 143.575125 
L 376.84688 141.163809 
L 379.427887 138.752494 
L 381.791027 136.341178 
L 383.730121 133.929863 
L 385.504771 131.518547 
L 387.280257 129.107232 
L 388.756071 126.695916 
L 389.812013 124.284601 
L 390.878807 121.873285 
L 391.738586 119.46197 
L 392.474824 117.050654 
L 393.224418 114.639339 
L 393.897216 112.228023 
L 394.418091 109.816708 
L 394.948984 107.405392 
L 395.495737 104.994077 
L 396.034977 102.582761 
L 396.595085 100.171446 
L 397.169384 97.76013 
L 397.796272 95.348815 
L 398.479921 92.937499 
L 399.173587 90.526184 
L 399.92819 88.114868 
L 400.849739 85.703553 
L 401.876465 83.292237 
L 402.791337 80.880922 
L 403.54427 78.469606 
L 404.25797 76.058291 
L 404.961653 73.646975 
L 405.704569 71.23566 
L 406.2388 68.824345 
L 406.673698 66.413029 
L 407.040148 64.001714 
L 407.253005 61.590398 
L 407.341488 59.179083 
" style="fill:none;stroke:#e6a346;stroke-dasharray:5.55,2.4;stroke-dashoffset:0;stroke-width:1.5;"/>
   </g>
   <g id="line2d_21">
    <path clip-path="url(#p996b34dc6c)" d="M 259.776097 295.488 
L 259.81434 293.074621 
L 259.889977 290.661242 
L 259.986011 288.247863 
L 260.073546 285.834485 
L 260.181477 283.421106 
L 260.317454 281.007727 
L 260.493374 278.594348 
L 260.682042 276.180969 
L 260.874959 273.76759 
L 261.078924 271.354211 
L 261.341529 268.940832 
L 261.617732 266.527454 
L 261.917731 264.114075 
L 262.227078 261.700696 
L 262.526227 259.287317 
L 262.851721 256.873938 
L 263.189114 254.460559 
L 263.495911 252.04718 
L 263.777213 249.633801 
L 264.051716 247.220423 
L 264.298174 244.807044 
L 264.55823 242.393665 
L 264.832733 239.980286 
L 265.133581 237.566907 
L 265.424232 235.153528 
L 265.740378 232.740149 
L 266.156807 230.32677 
L 266.54604 227.913392 
L 266.95567 225.500013 
L 267.42224 223.086634 
L 267.870114 220.673255 
L 268.284843 218.259876 
L 268.708071 215.846497 
L 269.223083 213.433118 
L 269.76529 211.019739 
L 270.222512 208.606361 
L 270.667836 206.192982 
L 271.248287 203.779603 
L 272.0463 201.366224 
L 273.27604 198.952845 
L 274.979149 196.539466 
L 276.644865 194.126087 
L 278.54684 191.712708 
L 280.584792 189.29933 
L 282.797814 186.885951 
L 285.443412 184.472572 
L 288.418754 182.059193 
L 291.728088 179.645814 
L 295.273682 177.232435 
L 299.425223 174.819056 
L 304.353531 172.405677 
L 309.716965 169.992299 
L 315.510425 167.57892 
L 321.991418 165.165541 
L 329.870422 162.752162 
L 338.815144 160.338783 
L 346.656755 157.925404 
L 353.830379 155.512025 
L 359.702876 153.098647 
L 366.05639 150.685268 
L 370.268271 148.271889 
L 373.559759 145.85851 
L 375.948701 143.445131 
L 377.951808 141.031752 
L 379.852934 138.618373 
L 381.669923 136.204994 
L 383.489462 133.791616 
L 385.282656 131.378237 
L 386.878683 128.964858 
L 388.416921 126.551479 
L 389.568474 124.1381 
L 390.752322 121.724721 
L 391.87668 119.311342 
L 392.711237 116.897963 
L 393.540695 114.484585 
L 394.210381 112.071206 
L 394.772985 109.657827 
L 395.362784 107.244448 
L 395.91264 104.831069 
L 396.519436 102.41769 
L 397.135581 100.004311 
L 397.799318 97.590932 
L 398.437559 95.177554 
L 399.176083 92.764175 
L 399.907808 90.350796 
L 400.725368 87.937417 
L 401.737545 85.524038 
L 402.730175 83.110659 
L 403.625922 80.69728 
L 404.45963 78.283901 
L 405.040931 75.870523 
L 405.646877 73.457144 
L 406.191634 71.043765 
L 406.763586 68.630386 
L 407.115426 66.217007 
L 407.21061 63.803628 
L 407.273499 61.390249 
L 407.341488 58.97687 
" style="fill:none;stroke:#b45a28;stroke-dasharray:9.6,2.4,1.5,2.4;stroke-dashoffset:0;stroke-width:1.5;"/>
   </g>
   <g id="line2d_22">
    <path clip-path="url(#p996b34dc6c)" d="M 259.77124 295.488 
L 259.799296 293.019429 
L 259.878204 290.550857 
L 259.977278 288.082286 
L 260.116683 285.613714 
L 260.30431 283.145143 
L 260.534022 280.676571 
L 260.781268 278.208 
L 261.07586 275.739429 
L 261.39237 273.270857 
L 261.707128 270.802286 
L 262.049941 268.333714 
L 262.461142 265.865143 
L 262.855684 263.396571 
L 263.299325 260.928 
L 263.771023 258.459429 
L 264.188361 255.990857 
L 264.596055 253.522286 
L 264.925717 251.053714 
L 265.276421 248.585143 
L 265.613097 246.116571 
L 265.967309 243.648 
L 266.333795 241.179429 
L 266.691513 238.710857 
L 267.078165 236.242286 
L 267.447281 233.773714 
L 267.776943 231.305143 
L 268.150443 228.836571 
L 268.561644 226.368 
L 269.000024 223.899429 
L 269.422623 221.430857 
L 269.792616 218.962286 
L 270.14332 216.493714 
L 271.018328 214.025143 
L 272.268589 211.556571 
L 274.264096 209.088 
L 275.579238 206.619429 
L 276.948738 204.150857 
L 278.402408 201.682286 
L 279.97444 199.213714 
L 281.715687 196.745143 
L 283.537596 194.276571 
L 285.377917 191.808 
L 287.535625 189.339429 
L 289.917785 186.870857 
L 292.320109 184.402286 
L 294.917075 181.933714 
L 297.935762 179.465143 
L 301.412996 176.996571 
L 305.766114 174.528 
L 310.907439 172.059429 
L 316.146962 169.590857 
L 321.502217 167.122286 
L 326.775934 164.653714 
L 331.604256 162.185143 
L 336.419426 159.716571 
L 341.26353 157.248 
L 345.581577 154.779429 
L 349.861923 152.310857 
L 354.065992 149.842286 
L 357.443274 147.373714 
L 360.057775 144.905143 
L 362.275103 142.436571 
L 364.338998 139.968 
L 366.295052 137.499429 
L 368.252859 135.030857 
L 370.137895 132.562286 
L 371.963311 130.093714 
L 373.776452 127.625143 
L 375.588717 125.156571 
L 377.492165 122.688 
L 379.3772 120.219429 
L 381.217521 117.750857 
L 382.906163 115.282286 
L 384.579023 112.813714 
L 386.142287 110.345143 
L 387.671358 107.876571 
L 389.11626 105.408 
L 390.544503 102.939429 
L 392.008694 100.470857 
L 393.449212 98.002286 
L 394.953734 95.533714 
L 396.554699 93.065143 
L 398.138129 90.596571 
L 399.475189 88.128 
L 400.522919 85.659429 
L 401.516289 83.190857 
L 402.52018 80.722286 
L 403.372391 78.253714 
L 404.217589 75.785143 
L 405.022455 73.316571 
L 405.714219 70.848 
L 406.196438 68.379429 
L 406.634818 65.910857 
L 406.903984 63.442286 
L 407.060047 60.973714 
L 407.174026 58.505143 
L 407.299403 56.036571 
L 407.341488 53.568 
" style="fill:none;stroke:#7d1e0b;stroke-linecap:square;stroke-width:1.5;"/>
   </g>
   <g id="patch_8">
    <path d="M 252.392727 307.584 
L 252.392727 41.472 
" style="fill:none;stroke:#000000;stroke-linecap:square;stroke-linejoin:miter;stroke-width:0.8;"/>
   </g>
   <g id="patch_9">
    <path d="M 414.72 307.584 
L 414.72 41.472 
" style="fill:none;stroke:#000000;stroke-linecap:square;stroke-linejoin:miter;stroke-width:0.8;"/>
   </g>
   <g id="patch_10">
    <path d="M 252.392727 307.584 
L 414.72 307.584 
" style="fill:none;stroke:#000000;stroke-linecap:square;stroke-linejoin:miter;stroke-width:0.8;"/>
   </g>
   <g id="patch_11">
    <path d="M 252.392727 41.472 
L 414.72 41.472 
" style="fill:none;stroke:#000000;stroke-linecap:square;stroke-linejoin:miter;stroke-width:0.8;"/>
   </g>
   <g id="legend_1">
    <g id="patch_12">
     <path d="M 261.492727 126.479813 
L 345.81804 126.479813 
Q 348.41804 126.479813 348.41804 123.879813 
L 348.41804 50.572 
Q 348.41804 47.972 345.81804 47.972 
L 261.492727 47.972 
Q 258.892727 47.972 258.892727 50.572 
L 258.892727 123.879813 
Q 258.892727 126.479813 261.492727 126.479813 
z
" style="fill:#ffffff;opacity:0.8;stroke:#cccccc;stroke-linejoin:miter;"/>
    </g>
    <g id="line2d_23">
     <path d="M 264.092727 58.499969 
L 290.092727 58.499969 
" style="fill:none;stroke:#5a0003;stroke-linecap:square;stroke-width:3;"/>
    </g>
    <g id="line2d_24"/>
    <g id="text_16">
     <!-- TS -->
     <defs>
      <path d="M -0.296875 72.90625 
L 61.375 72.90625 
L 61.375 64.59375 
L 35.5 64.59375 
L 35.5 0 
L 25.59375 0 
L 25.59375 64.59375 
L -0.296875 64.59375 
z
" id="DejaVuSans-84"/>
      <path d="M 53.515625 70.515625 
L 53.515625 60.890625 
Q 47.90625 63.578125 42.921875 64.890625 
Q 37.9375 66.21875 33.296875 66.21875 
Q 25.25 66.21875 20.875 63.09375 
Q 16.5 59.96875 16.5 54.203125 
Q 16.5 49.359375 19.40625 46.890625 
Q 22.3125 44.4375 30.421875 42.921875 
L 36.375 41.703125 
Q 47.40625 39.59375 52.65625 34.296875 
Q 57.90625 29 57.90625 20.125 
Q 57.90625 9.515625 50.796875 4.046875 
Q 43.703125 -1.421875 29.984375 -1.421875 
Q 24.8125 -1.421875 18.96875 -0.25 
Q 13.140625 0.921875 6.890625 3.21875 
L 6.890625 13.375 
Q 12.890625 10.015625 18.65625 8.296875 
Q 24.421875 6.59375 29.984375 6.59375 
Q 38.421875 6.59375 43.015625 9.90625 
Q 47.609375 13.234375 47.609375 19.390625 
Q 47.609375 24.75 44.3125 27.78125 
Q 41.015625 30.8125 33.5 32.328125 
L 27.484375 33.5 
Q 16.453125 35.6875 11.515625 40.375 
Q 6.59375 45.0625 6.59375 53.421875 
Q 6.59375 63.09375 13.40625 68.65625 
Q 20.21875 74.21875 32.171875 74.21875 
Q 37.3125 74.21875 42.625 73.28125 
Q 47.953125 72.359375 53.515625 70.515625 
z
" id="DejaVuSans-83"/>
     </defs>
     <g transform="translate(300.492727 63.049969)scale(0.13 -0.13)">
      <use xlink:href="#DejaVuSans-84"/>
      <use x="61.083984" xlink:href="#DejaVuSans-83"/>
     </g>
    </g>
    <g id="line2d_25">
     <path d="M 264.092727 72.381531 
L 290.092727 72.381531 
" style="fill:none;stroke:#ffcc7b;stroke-dasharray:1.5,2.475;stroke-dashoffset:0;stroke-width:1.5;"/>
    </g>
    <g id="line2d_26"/>
    <g id="text_17">
     <!-- RB, n0 -->
     <defs>
      <path d="M 44.390625 34.1875 
Q 47.5625 33.109375 50.5625 29.59375 
Q 53.5625 26.078125 56.59375 19.921875 
L 66.609375 0 
L 56 0 
L 46.6875 18.703125 
Q 43.0625 26.03125 39.671875 28.421875 
Q 36.28125 30.8125 30.421875 30.8125 
L 19.671875 30.8125 
L 19.671875 0 
L 9.8125 0 
L 9.8125 72.90625 
L 32.078125 72.90625 
Q 44.578125 72.90625 50.734375 67.671875 
Q 56.890625 62.453125 56.890625 51.90625 
Q 56.890625 45.015625 53.6875 40.46875 
Q 50.484375 35.9375 44.390625 34.1875 
z
M 19.671875 64.796875 
L 19.671875 38.921875 
L 32.078125 38.921875 
Q 39.203125 38.921875 42.84375 42.21875 
Q 46.484375 45.515625 46.484375 51.90625 
Q 46.484375 58.296875 42.84375 61.546875 
Q 39.203125 64.796875 32.078125 64.796875 
z
" id="DejaVuSans-82"/>
      <path d="M 19.671875 34.8125 
L 19.671875 8.109375 
L 35.5 8.109375 
Q 43.453125 8.109375 47.28125 11.40625 
Q 51.125 14.703125 51.125 21.484375 
Q 51.125 28.328125 47.28125 31.5625 
Q 43.453125 34.8125 35.5 34.8125 
z
M 19.671875 64.796875 
L 19.671875 42.828125 
L 34.28125 42.828125 
Q 41.5 42.828125 45.03125 45.53125 
Q 48.578125 48.25 48.578125 53.8125 
Q 48.578125 59.328125 45.03125 62.0625 
Q 41.5 64.796875 34.28125 64.796875 
z
M 9.8125 72.90625 
L 35.015625 72.90625 
Q 46.296875 72.90625 52.390625 68.21875 
Q 58.5 63.53125 58.5 54.890625 
Q 58.5 48.1875 55.375 44.234375 
Q 52.25 40.28125 46.1875 39.3125 
Q 53.46875 37.75 57.5 32.78125 
Q 61.53125 27.828125 61.53125 20.40625 
Q 61.53125 10.640625 54.890625 5.3125 
Q 48.25 0 35.984375 0 
L 9.8125 0 
z
" id="DejaVuSans-66"/>
      <path d="M 11.71875 12.40625 
L 22.015625 12.40625 
L 22.015625 4 
L 14.015625 -11.625 
L 7.71875 -11.625 
L 11.71875 4 
z
" id="DejaVuSans-44"/>
      <path d="M 54.890625 33.015625 
L 54.890625 0 
L 45.90625 0 
L 45.90625 32.71875 
Q 45.90625 40.484375 42.875 44.328125 
Q 39.84375 48.1875 33.796875 48.1875 
Q 26.515625 48.1875 22.3125 43.546875 
Q 18.109375 38.921875 18.109375 30.90625 
L 18.109375 0 
L 9.078125 0 
L 9.078125 54.6875 
L 18.109375 54.6875 
L 18.109375 46.1875 
Q 21.34375 51.125 25.703125 53.5625 
Q 30.078125 56 35.796875 56 
Q 45.21875 56 50.046875 50.171875 
Q 54.890625 44.34375 54.890625 33.015625 
z
" id="DejaVuSans-110"/>
     </defs>
     <g transform="translate(300.492727 76.931531)scale(0.13 -0.13)">
      <use xlink:href="#DejaVuSans-82"/>
      <use x="69.482422" xlink:href="#DejaVuSans-66"/>
      <use x="138.085938" xlink:href="#DejaVuSans-44"/>
      <use x="169.873047" xlink:href="#DejaVuSans-32"/>
      <use x="201.660156" xlink:href="#DejaVuSans-110"/>
      <use x="265.039062" xlink:href="#DejaVuSans-48"/>
     </g>
    </g>
    <g id="line2d_27">
     <path d="M 264.092727 86.263094 
L 290.092727 86.263094 
" style="fill:none;stroke:#e6a346;stroke-dasharray:5.55,2.4;stroke-dashoffset:0;stroke-width:1.5;"/>
    </g>
    <g id="line2d_28"/>
    <g id="text_18">
     <!-- RB, s0 -->
     <g transform="translate(300.492727 90.813094)scale(0.13 -0.13)">
      <use xlink:href="#DejaVuSans-82"/>
      <use x="69.482422" xlink:href="#DejaVuSans-66"/>
      <use x="138.085938" xlink:href="#DejaVuSans-44"/>
      <use x="169.873047" xlink:href="#DejaVuSans-32"/>
      <use x="201.660156" xlink:href="#DejaVuSans-115"/>
      <use x="253.759766" xlink:href="#DejaVuSans-48"/>
     </g>
    </g>
    <g id="line2d_29">
     <path d="M 264.092727 100.144656 
L 290.092727 100.144656 
" style="fill:none;stroke:#b45a28;stroke-dasharray:9.6,2.4,1.5,2.4;stroke-dashoffset:0;stroke-width:1.5;"/>
    </g>
    <g id="line2d_30"/>
    <g id="text_19">
     <!-- RB, s1 -->
     <g transform="translate(300.492727 104.694656)scale(0.13 -0.13)">
      <use xlink:href="#DejaVuSans-82"/>
      <use x="69.482422" xlink:href="#DejaVuSans-66"/>
      <use x="138.085938" xlink:href="#DejaVuSans-44"/>
      <use x="169.873047" xlink:href="#DejaVuSans-32"/>
      <use x="201.660156" xlink:href="#DejaVuSans-115"/>
      <use x="253.759766" xlink:href="#DejaVuSans-49"/>
     </g>
    </g>
    <g id="line2d_31">
     <path d="M 264.092727 114.026219 
L 290.092727 114.026219 
" style="fill:none;stroke:#7d1e0b;stroke-linecap:square;stroke-width:1.5;"/>
    </g>
    <g id="line2d_32"/>
    <g id="text_20">
     <!-- RB, s2 -->
     <g transform="translate(300.492727 118.576219)scale(0.13 -0.13)">
      <use xlink:href="#DejaVuSans-82"/>
      <use x="69.482422" xlink:href="#DejaVuSans-66"/>
      <use x="138.085938" xlink:href="#DejaVuSans-44"/>
      <use x="169.873047" xlink:href="#DejaVuSans-32"/>
      <use x="201.660156" xlink:href="#DejaVuSans-115"/>
      <use x="253.759766" xlink:href="#DejaVuSans-50"/>
     </g>
    </g>
   </g>
  </g>
 </g>
 <defs>
  <clipPath id="p339268712c">
   <rect height="266.112" width="162.327273" x="57.6" y="41.472"/>
  </clipPath>
  <clipPath id="p996b34dc6c">
   <rect height="266.112" width="162.327273" x="252.392727" y="41.472"/>
  </clipPath>
 </defs>
</svg>
