<?xml version="1.0" encoding="utf-8" standalone="no"?>
<!DOCTYPE svg PUBLIC "-//W3C//DTD SVG 1.1//EN"
  "http://www.w3.org/Graphics/SVG/1.1/DTD/svg11.dtd">
<!-- Created with matplotlib (https://matplotlib.org/) -->
<svg height="345.6pt" version="1.1" viewBox="0 0 460.8 345.6" width="460.8pt" xmlns="http://www.w3.org/2000/svg" xmlns:xlink="http://www.w3.org/1999/xlink">
 <defs>
  <style type="text/css">
*{stroke-linecap:butt;stroke-linejoin:round;}
  </style>
 </defs>
 <g id="figure_1">
  <g id="patch_1">
   <path d="M 0 345.6 
L 460.8 345.6 
L 460.8 0 
L 0 0 
z
" style="fill:#ffffff;"/>
  </g>
  <g id="axes_1">
   <g id="patch_2">
    <path d="M 57.6 307.584 
L 219.927273 307.584 
L 219.927273 41.472 
L 57.6 41.472 
z
" style="fill:#ffffff;"/>
   </g>
   <g id="matplotlib.axis_1">
    <g id="xtick_1">
     <g id="line2d_1">
      <defs>
       <path d="M 0 0 
L 0 3.5 
" id="me0f45386a3" style="stroke:#000000;stroke-width:0.8;"/>
      </defs>
      <g>
       <use style="stroke:#000000;stroke-width:0.8;" x="212.54876" xlink:href="#me0f45386a3" y="307.584"/>
      </g>
     </g>
     <g id="text_1">
      <!-- 0 -->
      <defs>
       <path d="M 31.78125 66.40625 
Q 24.171875 66.40625 20.328125 58.90625 
Q 16.5 51.421875 16.5 36.375 
Q 16.5 21.390625 20.328125 13.890625 
Q 24.171875 6.390625 31.78125 6.390625 
Q 39.453125 6.390625 43.28125 13.890625 
Q 47.125 21.390625 47.125 36.375 
Q 47.125 51.421875 43.28125 58.90625 
Q 39.453125 66.40625 31.78125 66.40625 
z
M 31.78125 74.21875 
Q 44.046875 74.21875 50.515625 64.515625 
Q 56.984375 54.828125 56.984375 36.375 
Q 56.984375 17.96875 50.515625 8.265625 
Q 44.046875 -1.421875 31.78125 -1.421875 
Q 19.53125 -1.421875 13.0625 8.265625 
Q 6.59375 17.96875 6.59375 36.375 
Q 6.59375 54.828125 13.0625 64.515625 
Q 19.53125 74.21875 31.78125 74.21875 
z
" id="DejaVuSans-48"/>
      </defs>
      <g transform="translate(207.776885 325.981656)scale(0.15 -0.15)">
       <use xlink:href="#DejaVuSans-48"/>
      </g>
     </g>
    </g>
    <g id="xtick_2">
     <g id="line2d_2">
      <g>
       <use style="stroke:#000000;stroke-width:0.8;" x="154.812452" xlink:href="#me0f45386a3" y="307.584"/>
      </g>
     </g>
     <g id="text_2">
      <!-- 2 -->
      <defs>
       <path d="M 19.1875 8.296875 
L 53.609375 8.296875 
L 53.609375 0 
L 7.328125 0 
L 7.328125 8.296875 
Q 12.9375 14.109375 22.625 23.890625 
Q 32.328125 33.6875 34.8125 36.53125 
Q 39.546875 41.84375 41.421875 45.53125 
Q 43.3125 49.21875 43.3125 52.78125 
Q 43.3125 58.59375 39.234375 62.25 
Q 35.15625 65.921875 28.609375 65.921875 
Q 23.96875 65.921875 18.8125 64.3125 
Q 13.671875 62.703125 7.8125 59.421875 
L 7.8125 69.390625 
Q 13.765625 71.78125 18.9375 73 
Q 24.125 74.21875 28.421875 74.21875 
Q 39.75 74.21875 46.484375 68.546875 
Q 53.21875 62.890625 53.21875 53.421875 
Q 53.21875 48.921875 51.53125 44.890625 
Q 49.859375 40.875 45.40625 35.40625 
Q 44.1875 33.984375 37.640625 27.21875 
Q 31.109375 20.453125 19.1875 8.296875 
z
" id="DejaVuSans-50"/>
      </defs>
      <g transform="translate(150.040577 325.981656)scale(0.15 -0.15)">
       <use xlink:href="#DejaVuSans-50"/>
      </g>
     </g>
    </g>
    <g id="xtick_3">
     <g id="line2d_3">
      <g>
       <use style="stroke:#000000;stroke-width:0.8;" x="97.076144" xlink:href="#me0f45386a3" y="307.584"/>
      </g>
     </g>
     <g id="text_3">
      <!-- 4 -->
      <defs>
       <path d="M 37.796875 64.3125 
L 12.890625 25.390625 
L 37.796875 25.390625 
z
M 35.203125 72.90625 
L 47.609375 72.90625 
L 47.609375 25.390625 
L 58.015625 25.390625 
L 58.015625 17.1875 
L 47.609375 17.1875 
L 47.609375 0 
L 37.796875 0 
L 37.796875 17.1875 
L 4.890625 17.1875 
L 4.890625 26.703125 
z
" id="DejaVuSans-52"/>
      </defs>
      <g transform="translate(92.304269 325.981656)scale(0.15 -0.15)">
       <use xlink:href="#DejaVuSans-52"/>
      </g>
     </g>
    </g>
    <g id="text_4">
     <!-- PDF -->
     <defs>
      <path d="M 19.671875 64.796875 
L 19.671875 37.40625 
L 32.078125 37.40625 
Q 38.96875 37.40625 42.71875 40.96875 
Q 46.484375 44.53125 46.484375 51.125 
Q 46.484375 57.671875 42.71875 61.234375 
Q 38.96875 64.796875 32.078125 64.796875 
z
M 9.8125 72.90625 
L 32.078125 72.90625 
Q 44.34375 72.90625 50.609375 67.359375 
Q 56.890625 61.8125 56.890625 51.125 
Q 56.890625 40.328125 50.609375 34.8125 
Q 44.34375 29.296875 32.078125 29.296875 
L 19.671875 29.296875 
L 19.671875 0 
L 9.8125 0 
z
" id="DejaVuSans-80"/>
      <path d="M 19.671875 64.796875 
L 19.671875 8.109375 
L 31.59375 8.109375 
Q 46.6875 8.109375 53.6875 14.9375 
Q 60.6875 21.78125 60.6875 36.53125 
Q 60.6875 51.171875 53.6875 57.984375 
Q 46.6875 64.796875 31.59375 64.796875 
z
M 9.8125 72.90625 
L 30.078125 72.90625 
Q 51.265625 72.90625 61.171875 64.09375 
Q 71.09375 55.28125 71.09375 36.53125 
Q 71.09375 17.671875 61.125 8.828125 
Q 51.171875 0 30.078125 0 
L 9.8125 0 
z
" id="DejaVuSans-68"/>
      <path d="M 9.8125 72.90625 
L 51.703125 72.90625 
L 51.703125 64.59375 
L 19.671875 64.59375 
L 19.671875 43.109375 
L 48.578125 43.109375 
L 48.578125 34.8125 
L 19.671875 34.8125 
L 19.671875 0 
L 9.8125 0 
z
" id="DejaVuSans-70"/>
     </defs>
     <g transform="translate(122.204574 346.018531)scale(0.17 -0.17)">
      <use xlink:href="#DejaVuSans-80"/>
      <use x="60.302734" xlink:href="#DejaVuSans-68"/>
      <use x="137.304688" xlink:href="#DejaVuSans-70"/>
     </g>
    </g>
   </g>
   <g id="matplotlib.axis_2">
    <g id="ytick_1">
     <g id="line2d_4">
      <defs>
       <path d="M 0 0 
L -3.5 0 
" id="m85072b967c" style="stroke:#000000;stroke-width:0.8;"/>
      </defs>
      <g>
       <use style="stroke:#000000;stroke-width:0.8;" x="57.6" xlink:href="#m85072b967c" y="53.568"/>
      </g>
     </g>
     <g id="text_5">
      <!-- 0.0 -->
      <defs>
       <path d="M 10.6875 12.40625 
L 21 12.40625 
L 21 0 
L 10.6875 0 
z
" id="DejaVuSans-46"/>
      </defs>
      <g transform="translate(26.745313 59.266828)scale(0.15 -0.15)">
       <use xlink:href="#DejaVuSans-48"/>
       <use x="63.623047" xlink:href="#DejaVuSans-46"/>
       <use x="95.410156" xlink:href="#DejaVuSans-48"/>
      </g>
     </g>
    </g>
    <g id="ytick_2">
     <g id="line2d_5">
      <g>
       <use style="stroke:#000000;stroke-width:0.8;" x="57.6" xlink:href="#m85072b967c" y="110.103737"/>
      </g>
     </g>
     <g id="text_6">
      <!-- 0.5 -->
      <defs>
       <path d="M 10.796875 72.90625 
L 49.515625 72.90625 
L 49.515625 64.59375 
L 19.828125 64.59375 
L 19.828125 46.734375 
Q 21.96875 47.46875 24.109375 47.828125 
Q 26.265625 48.1875 28.421875 48.1875 
Q 40.625 48.1875 47.75 41.5 
Q 54.890625 34.8125 54.890625 23.390625 
Q 54.890625 11.625 47.5625 5.09375 
Q 40.234375 -1.421875 26.90625 -1.421875 
Q 22.3125 -1.421875 17.546875 -0.640625 
Q 12.796875 0.140625 7.71875 1.703125 
L 7.71875 11.625 
Q 12.109375 9.234375 16.796875 8.0625 
Q 21.484375 6.890625 26.703125 6.890625 
Q 35.15625 6.890625 40.078125 11.328125 
Q 45.015625 15.765625 45.015625 23.390625 
Q 45.015625 31 40.078125 35.4375 
Q 35.15625 39.890625 26.703125 39.890625 
Q 22.75 39.890625 18.8125 39.015625 
Q 14.890625 38.140625 10.796875 36.28125 
z
" id="DejaVuSans-53"/>
      </defs>
      <g transform="translate(26.745313 115.802565)scale(0.15 -0.15)">
       <use xlink:href="#DejaVuSans-48"/>
       <use x="63.623047" xlink:href="#DejaVuSans-46"/>
       <use x="95.410156" xlink:href="#DejaVuSans-53"/>
      </g>
     </g>
    </g>
    <g id="ytick_3">
     <g id="line2d_6">
      <g>
       <use style="stroke:#000000;stroke-width:0.8;" x="57.6" xlink:href="#m85072b967c" y="166.639474"/>
      </g>
     </g>
     <g id="text_7">
      <!-- 1.0 -->
      <defs>
       <path d="M 12.40625 8.296875 
L 28.515625 8.296875 
L 28.515625 63.921875 
L 10.984375 60.40625 
L 10.984375 69.390625 
L 28.421875 72.90625 
L 38.28125 72.90625 
L 38.28125 8.296875 
L 54.390625 8.296875 
L 54.390625 0 
L 12.40625 0 
z
" id="DejaVuSans-49"/>
      </defs>
      <g transform="translate(26.745313 172.338302)scale(0.15 -0.15)">
       <use xlink:href="#DejaVuSans-49"/>
       <use x="63.623047" xlink:href="#DejaVuSans-46"/>
       <use x="95.410156" xlink:href="#DejaVuSans-48"/>
      </g>
     </g>
    </g>
    <g id="ytick_4">
     <g id="line2d_7">
      <g>
       <use style="stroke:#000000;stroke-width:0.8;" x="57.6" xlink:href="#m85072b967c" y="223.175211"/>
      </g>
     </g>
     <g id="text_8">
      <!-- 1.5 -->
      <g transform="translate(26.745313 228.874039)scale(0.15 -0.15)">
       <use xlink:href="#DejaVuSans-49"/>
       <use x="63.623047" xlink:href="#DejaVuSans-46"/>
       <use x="95.410156" xlink:href="#DejaVuSans-53"/>
      </g>
     </g>
    </g>
    <g id="ytick_5">
     <g id="line2d_8">
      <g>
       <use style="stroke:#000000;stroke-width:0.8;" x="57.6" xlink:href="#m85072b967c" y="279.710947"/>
      </g>
     </g>
     <g id="text_9">
      <!-- 2.0 -->
      <g transform="translate(26.745313 285.409776)scale(0.15 -0.15)">
       <use xlink:href="#DejaVuSans-50"/>
       <use x="63.623047" xlink:href="#DejaVuSans-46"/>
       <use x="95.410156" xlink:href="#DejaVuSans-48"/>
      </g>
     </g>
    </g>
    <g id="text_10">
     <!-- Depth (m) -->
     <defs>
      <path d="M 56.203125 29.59375 
L 56.203125 25.203125 
L 14.890625 25.203125 
Q 15.484375 15.921875 20.484375 11.0625 
Q 25.484375 6.203125 34.421875 6.203125 
Q 39.59375 6.203125 44.453125 7.46875 
Q 49.3125 8.734375 54.109375 11.28125 
L 54.109375 2.78125 
Q 49.265625 0.734375 44.1875 -0.34375 
Q 39.109375 -1.421875 33.890625 -1.421875 
Q 20.796875 -1.421875 13.15625 6.1875 
Q 5.515625 13.8125 5.515625 26.8125 
Q 5.515625 40.234375 12.765625 48.109375 
Q 20.015625 56 32.328125 56 
Q 43.359375 56 49.78125 48.890625 
Q 56.203125 41.796875 56.203125 29.59375 
z
M 47.21875 32.234375 
Q 47.125 39.59375 43.09375 43.984375 
Q 39.0625 48.390625 32.421875 48.390625 
Q 24.90625 48.390625 20.390625 44.140625 
Q 15.875 39.890625 15.1875 32.171875 
z
" id="DejaVuSans-101"/>
      <path d="M 18.109375 8.203125 
L 18.109375 -20.796875 
L 9.078125 -20.796875 
L 9.078125 54.6875 
L 18.109375 54.6875 
L 18.109375 46.390625 
Q 20.953125 51.265625 25.265625 53.625 
Q 29.59375 56 35.59375 56 
Q 45.5625 56 51.78125 48.09375 
Q 58.015625 40.1875 58.015625 27.296875 
Q 58.015625 14.40625 51.78125 6.484375 
Q 45.5625 -1.421875 35.59375 -1.421875 
Q 29.59375 -1.421875 25.265625 0.953125 
Q 20.953125 3.328125 18.109375 8.203125 
z
M 48.6875 27.296875 
Q 48.6875 37.203125 44.609375 42.84375 
Q 40.53125 48.484375 33.40625 48.484375 
Q 26.265625 48.484375 22.1875 42.84375 
Q 18.109375 37.203125 18.109375 27.296875 
Q 18.109375 17.390625 22.1875 11.75 
Q 26.265625 6.109375 33.40625 6.109375 
Q 40.53125 6.109375 44.609375 11.75 
Q 48.6875 17.390625 48.6875 27.296875 
z
" id="DejaVuSans-112"/>
      <path d="M 18.3125 70.21875 
L 18.3125 54.6875 
L 36.8125 54.6875 
L 36.8125 47.703125 
L 18.3125 47.703125 
L 18.3125 18.015625 
Q 18.3125 11.328125 20.140625 9.421875 
Q 21.96875 7.515625 27.59375 7.515625 
L 36.8125 7.515625 
L 36.8125 0 
L 27.59375 0 
Q 17.1875 0 13.234375 3.875 
Q 9.28125 7.765625 9.28125 18.015625 
L 9.28125 47.703125 
L 2.6875 47.703125 
L 2.6875 54.6875 
L 9.28125 54.6875 
L 9.28125 70.21875 
z
" id="DejaVuSans-116"/>
      <path d="M 54.890625 33.015625 
L 54.890625 0 
L 45.90625 0 
L 45.90625 32.71875 
Q 45.90625 40.484375 42.875 44.328125 
Q 39.84375 48.1875 33.796875 48.1875 
Q 26.515625 48.1875 22.3125 43.546875 
Q 18.109375 38.921875 18.109375 30.90625 
L 18.109375 0 
L 9.078125 0 
L 9.078125 75.984375 
L 18.109375 75.984375 
L 18.109375 46.1875 
Q 21.34375 51.125 25.703125 53.5625 
Q 30.078125 56 35.796875 56 
Q 45.21875 56 50.046875 50.171875 
Q 54.890625 44.34375 54.890625 33.015625 
z
" id="DejaVuSans-104"/>
      <path id="DejaVuSans-32"/>
      <path d="M 31 75.875 
Q 24.46875 64.65625 21.28125 53.65625 
Q 18.109375 42.671875 18.109375 31.390625 
Q 18.109375 20.125 21.3125 9.0625 
Q 24.515625 -2 31 -13.1875 
L 23.1875 -13.1875 
Q 15.875 -1.703125 12.234375 9.375 
Q 8.59375 20.453125 8.59375 31.390625 
Q 8.59375 42.28125 12.203125 53.3125 
Q 15.828125 64.359375 23.1875 75.875 
z
" id="DejaVuSans-40"/>
      <path d="M 52 44.1875 
Q 55.375 50.25 60.0625 53.125 
Q 64.75 56 71.09375 56 
Q 79.640625 56 84.28125 50.015625 
Q 88.921875 44.046875 88.921875 33.015625 
L 88.921875 0 
L 79.890625 0 
L 79.890625 32.71875 
Q 79.890625 40.578125 77.09375 44.375 
Q 74.3125 48.1875 68.609375 48.1875 
Q 61.625 48.1875 57.5625 43.546875 
Q 53.515625 38.921875 53.515625 30.90625 
L 53.515625 0 
L 44.484375 0 
L 44.484375 32.71875 
Q 44.484375 40.625 41.703125 44.40625 
Q 38.921875 48.1875 33.109375 48.1875 
Q 26.21875 48.1875 22.15625 43.53125 
Q 18.109375 38.875 18.109375 30.90625 
L 18.109375 0 
L 9.078125 0 
L 9.078125 54.6875 
L 18.109375 54.6875 
L 18.109375 46.1875 
Q 21.1875 51.21875 25.484375 53.609375 
Q 29.78125 56 35.6875 56 
Q 41.65625 56 45.828125 52.96875 
Q 50 49.953125 52 44.1875 
z
" id="DejaVuSans-109"/>
      <path d="M 8.015625 75.875 
L 15.828125 75.875 
Q 23.140625 64.359375 26.78125 53.3125 
Q 30.421875 42.28125 30.421875 31.390625 
Q 30.421875 20.453125 26.78125 9.375 
Q 23.140625 -1.703125 15.828125 -13.1875 
L 8.015625 -13.1875 
Q 14.5 -2 17.703125 9.0625 
Q 20.90625 20.125 20.90625 31.390625 
Q 20.90625 42.671875 17.703125 53.65625 
Q 14.5 64.65625 8.015625 75.875 
z
" id="DejaVuSans-41"/>
     </defs>
     <g transform="translate(19.209844 218.032062)rotate(-90)scale(0.17 -0.17)">
      <use xlink:href="#DejaVuSans-68"/>
      <use x="77.001953" xlink:href="#DejaVuSans-101"/>
      <use x="138.525391" xlink:href="#DejaVuSans-112"/>
      <use x="202.001953" xlink:href="#DejaVuSans-116"/>
      <use x="241.210938" xlink:href="#DejaVuSans-104"/>
      <use x="304.589844" xlink:href="#DejaVuSans-32"/>
      <use x="336.376953" xlink:href="#DejaVuSans-40"/>
      <use x="375.390625" xlink:href="#DejaVuSans-109"/>
      <use x="472.802734" xlink:href="#DejaVuSans-41"/>
     </g>
    </g>
   </g>
   <g id="line2d_9">
    <path clip-path="url(#peb9d1d6d5f)" d="M 176.497128 53.568 
L 189.845587 56.036571 
L 192.292205 58.505143 
L 193.083757 60.973714 
L 192.544062 63.442286 
L 193.335615 65.910857 
L 192.472103 68.379429 
L 192.508083 70.848 
L 191.392713 73.316571 
L 189.233932 75.785143 
L 192.580042 78.253714 
L 193.587473 80.722286 
L 193.011798 83.190857 
L 192.8319 85.659429 
L 193.443554 88.128 
L 191.536632 90.596571 
L 189.629709 93.065143 
L 191.824469 95.533714 
L 189.52177 98.002286 
L 190.63714 100.470857 
L 189.701668 102.939429 
L 189.629709 105.408 
L 188.694237 107.876571 
L 189.953526 110.345143 
L 191.284774 112.813714 
L 189.809607 115.282286 
L 194.019229 117.750857 
L 192.975818 120.219429 
L 191.536632 122.688 
L 192.364164 125.156571 
L 191.932408 127.625143 
L 192.687981 130.093714 
L 193.479534 132.562286 
L 192.472103 135.030857 
L 194.091188 137.499429 
L 195.602335 139.968 
L 195.530375 142.436571 
L 195.890172 144.905143 
L 196.393887 147.373714 
L 197.365338 149.842286 
L 197.437298 152.310857 
L 197.976993 154.779429 
L 198.948444 157.248 
L 199.056383 159.716571 
L 200.027834 162.185143 
L 198.984424 164.653714 
L 197.941013 167.122286 
L 199.452159 169.590857 
L 198.804525 172.059429 
L 198.984424 174.528 
L 198.30081 176.996571 
L 196.645745 179.465143 
L 198.228851 181.933714 
L 199.200302 184.402286 
L 200.135773 186.870857 
L 199.488139 189.339429 
L 198.30081 191.808 
L 199.668038 194.276571 
L 199.668038 196.745143 
L 200.027834 199.213714 
L 199.955875 201.682286 
L 198.30081 204.150857 
L 198.192871 206.619429 
L 196.429867 209.088 
L 191.932408 211.556571 
L 195.890172 214.025143 
L 196.465847 216.493714 
L 196.285948 218.962286 
L 197.401318 221.430857 
L 199.200302 223.899429 
L 198.912464 226.368 
L 201.179184 228.836571 
L 204.453334 231.305143 
L 206.827992 233.773714 
L 207.511606 236.242286 
L 209.490488 238.710857 
L 209.850285 241.179429 
L 209.706366 243.648 
L 210.210082 246.116571 
L 210.282041 248.585143 
L 210.929675 251.053714 
L 211.181533 253.522286 
L 211.325451 255.990857 
L 211.577309 258.459429 
L 211.901126 260.928 
L 211.757208 263.396571 
L 211.865147 265.865143 
L 211.973086 268.333714 
L 212.081025 270.802286 
L 212.045045 273.270857 
L 212.045045 275.739429 
L 212.296903 278.208 
L 212.188964 280.676571 
L 212.296903 283.145143 
L 212.296903 285.613714 
L 212.296903 288.082286 
L 212.332882 290.550857 
L 212.332882 293.019429 
L 212.332882 295.488 
" style="fill:none;stroke:#000000;stroke-linecap:square;stroke-width:3;"/>
   </g>
   <g id="line2d_10">
    <path clip-path="url(#peb9d1d6d5f)" d="M 196.623913 53.568 
L 194.576433 54.954961 
L 196.472248 56.341923 
L 198.368063 57.728884 
L 197.761402 59.115845 
L 198.519729 60.502807 
L 195.107261 61.889768 
L 197.68557 63.276729 
L 197.837235 64.66369 
L 198.443896 66.050652 
L 196.548081 67.437613 
L 197.306407 68.824574 
L 196.775579 70.211536 
L 199.202222 71.598497 
L 196.775579 72.985458 
L 196.093085 74.37242 
L 196.093085 75.759381 
L 197.382239 77.146342 
L 196.548081 78.533304 
L 196.927244 79.920265 
L 194.879764 81.307226 
L 196.548081 82.694187 
L 195.334759 84.081149 
L 197.609737 85.46811 
L 194.273103 86.855071 
L 194.728098 88.242033 
L 195.94142 89.628994 
L 196.775579 91.015955 
L 193.89394 92.402917 
L 195.865587 93.789878 
L 193.969772 95.176839 
L 195.713922 96.563801 
L 193.363111 97.950762 
L 196.396416 99.337723 
L 193.742274 100.724684 
L 194.121437 102.111646 
L 194.803931 103.498607 
L 192.832283 104.885568 
L 193.590609 106.27253 
L 194.652266 107.659491 
L 191.618962 109.046452 
L 194.728098 110.433414 
L 192.604785 111.820375 
L 192.301455 113.207336 
L 193.742274 114.594298 
L 191.163966 115.981259 
L 192.301455 117.36822 
L 193.135614 118.755181 
L 192.14979 120.142143 
L 188.888988 121.529104 
L 192.377288 122.916065 
L 191.391464 124.303027 
L 188.282327 125.689988 
L 190.557305 127.076949 
L 190.026477 128.463911 
L 189.040653 129.850872 
L 189.343983 131.237833 
L 188.888988 132.624795 
L 187.903164 134.011756 
L 187.069005 135.398717 
L 189.192318 136.785678 
L 183.808203 138.17264 
L 186.91734 139.559601 
L 185.097358 140.946562 
L 183.884036 142.333524 
L 184.111534 143.720485 
L 181.533225 145.107446 
L 183.808203 146.494408 
L 180.244071 147.881369 
L 181.07823 149.26833 
L 177.817428 150.655292 
L 177.969093 152.042253 
L 174.025797 153.429214 
L 176.452441 154.816175 
L 170.234167 156.203137 
L 171.144158 157.590098 
L 166.290872 158.977059 
L 164.167559 160.364021 
L 158.025118 161.750982 
L 153.171831 163.137943 
L 142.024438 164.524905 
L 122.232129 165.911866 
L 64.978512 167.298827 
L 152.26184 168.685789 
L 184.718195 170.07275 
L 201.704698 171.459711 
L 201.704698 172.846672 
L 201.325535 174.233634 
L 202.614689 175.620595 
L 201.932196 177.007556 
L 202.387191 178.394518 
L 202.008028 179.781479 
L 201.553033 181.16844 
L 202.311359 182.555402 
L 201.932196 183.942363 
L 203.22135 185.329324 
L 203.373015 186.716286 
L 204.434672 188.103247 
L 205.572161 189.490208 
" style="fill:none;stroke:#a2eb7f;stroke-dasharray:1.5,2.475;stroke-dashoffset:0;stroke-width:1.5;"/>
   </g>
   <g id="line2d_11">
    <path clip-path="url(#peb9d1d6d5f)" d="M 196.407928 53.568 
L 195.877478 54.954789 
L 197.089935 56.341578 
L 198.908621 57.728366 
L 197.696164 59.115155 
L 198.832842 60.501944 
L 194.816579 61.888733 
L 197.696164 63.275521 
L 197.771942 64.66231 
L 199.060178 66.049099 
L 196.407928 67.435888 
L 197.696164 68.822677 
L 196.256371 70.209465 
L 199.666406 71.596254 
L 196.104814 72.983043 
L 196.407928 74.369832 
L 196.256371 75.75662 
L 197.620385 77.143409 
L 196.559485 78.530198 
L 198.150835 79.916987 
L 193.983015 81.303775 
L 196.938378 82.690564 
L 195.422807 84.077353 
L 197.771942 85.464142 
L 193.983015 86.850931 
L 195.877478 88.237719 
L 196.33215 89.624508 
L 196.029036 91.011297 
L 194.21035 92.398086 
L 195.8017 93.784874 
L 194.134572 95.171663 
L 196.559485 96.558452 
L 193.073672 97.945241 
L 196.029036 99.33203 
L 194.437686 100.718818 
L 194.286129 102.105607 
L 194.134572 103.492396 
L 193.983015 104.879185 
L 192.922115 106.265973 
L 194.816579 107.652762 
L 191.861215 109.039551 
L 194.589243 110.42634 
L 192.315886 111.813129 
L 192.770558 113.199917 
L 193.604122 114.586706 
L 192.164329 115.973495 
L 191.633879 117.360284 
L 192.240108 118.747072 
L 192.391665 120.133861 
L 188.678516 121.52065 
L 192.164329 122.907439 
L 190.876094 124.294228 
L 189.057409 125.681016 
L 189.739416 127.067805 
L 190.345644 128.454594 
L 188.98163 129.841383 
L 188.072287 131.228171 
L 189.663637 132.61496 
L 187.39028 134.001749 
L 187.466059 135.388538 
L 189.057409 136.775326 
L 183.828688 138.162115 
L 187.011388 139.548904 
L 185.041145 140.935693 
L 183.449795 142.322482 
L 185.420038 143.70927 
L 181.555332 145.096059 
L 183.22246 146.482848 
L 179.963982 147.869637 
L 180.873325 149.256425 
L 178.372632 150.643214 
L 178.448411 152.030003 
L 173.825919 153.416792 
L 177.387511 154.803581 
L 170.491663 156.190369 
L 171.097891 157.577158 
L 166.778514 158.963947 
L 164.126264 160.350736 
L 159.958444 161.737524 
L 153.593045 163.124313 
L 143.741833 164.511102 
L 127.070551 165.897891 
L 69.706186 167.28468 
L 146.01519 168.671468 
L 174.28059 170.058257 
L 201.939763 171.445046 
L 201.03042 172.831835 
L 201.485091 174.218623 
L 201.56087 175.605412 
L 201.712427 176.992201 
L 202.470213 178.37899 
L 201.863984 179.765778 
L 201.181977 181.152567 
L 202.167098 182.539356 
L 201.257756 183.926145 
L 202.924884 185.312934 
L 203.227998 186.699722 
L 204.061562 188.086511 
L 205.349798 189.4733 
" style="fill:none;stroke:#77cd86;stroke-dasharray:5.55,2.4;stroke-dashoffset:0;stroke-width:1.5;"/>
   </g>
   <g id="line2d_12">
    <path clip-path="url(#peb9d1d6d5f)" d="M 184.800876 53.568 
L 188.759422 56.001997 
L 193.212786 58.435995 
L 196.181696 60.869992 
L 197.475836 63.303989 
L 198.427409 65.737987 
L 200.178305 68.171984 
L 200.368619 70.605982 
L 199.60736 73.039979 
L 198.96029 75.473976 
L 200.596997 77.907974 
L 198.808039 80.341971 
L 199.417046 82.775968 
L 199.531235 85.209966 
L 198.541598 87.643963 
L 199.150605 90.07796 
L 198.541598 92.511958 
L 197.780339 94.945955 
L 198.998353 97.379952 
L 196.410073 99.81395 
L 198.846102 102.247947 
L 197.209395 104.681945 
L 197.133269 107.115942 
L 196.257822 109.549939 
L 196.448136 111.983937 
L 195.763003 114.417934 
L 196.524262 116.851931 
L 194.81143 119.285929 
L 194.81143 121.719926 
L 193.821793 124.153923 
L 193.745668 126.587921 
L 191.880583 129.021918 
L 191.880583 131.455915 
L 189.558744 133.889913 
L 187.731723 136.32391 
L 188.949737 138.757908 
L 187.655597 141.191905 
L 187.236905 143.625902 
L 186.932401 146.0599 
L 186.551772 148.493897 
L 185.371821 150.927894 
L 186.171142 153.361892 
L 186.665961 155.795889 
L 186.39952 158.229886 
L 184.724751 160.663884 
L 184.267995 163.097881 
L 186.133079 165.531878 
L 187.541408 167.965876 
L 185.980828 170.399873 
L 188.607171 172.833871 
L 186.665961 175.267868 
L 188.9878 177.701865 
L 189.482618 180.135863 
L 199.759612 182.56986 
L 201.358256 185.003857 
L 200.63506 187.437855 
L 200.749249 189.871852 
L 201.244067 192.305849 
L 201.129878 194.739847 
L 200.25443 197.173844 
L 201.167941 199.607841 
L 201.472445 202.041839 
L 202.005326 204.475836 
L 201.9292 206.909834 
L 201.510507 209.343831 
L 202.309829 211.777828 
L 201.738885 214.211826 
L 201.967263 216.645823 
L 201.662759 219.07982 
L 201.624696 221.513818 
L 201.853074 223.947815 
L 201.54857 226.381812 
L 202.309829 228.81581 
L 202.614333 231.249807 
L 203.603969 233.683804 
L 203.680095 236.117802 
L 203.756221 238.551799 
L 203.261403 240.985797 
L 206.649004 243.419794 
L 207.562515 245.853791 
L 208.171522 248.287789 
L 208.361837 250.721786 
L 208.3999 253.155783 
L 208.894718 255.589781 
L 211.482998 258.023778 
L 211.787502 260.457775 
L 211.863627 262.891773 
L 211.825564 265.32577 
L 212.053942 267.759767 
L 212.130068 270.193765 
L 212.320383 272.627762 
L 212.168131 275.06176 
L 212.130068 277.495757 
L 212.092005 279.929754 
L 212.28232 282.363752 
L 212.092005 284.797749 
L 212.510697 287.231746 
L 212.434572 289.665744 
L 212.396509 292.099741 
" style="fill:none;stroke:#258d41;stroke-dasharray:9.6,2.4,1.5,2.4;stroke-dashoffset:0;stroke-width:1.5;"/>
   </g>
   <g id="line2d_13">
    <path clip-path="url(#peb9d1d6d5f)" d="M 197.984267 53.568 
L 198.879818 55.734916 
L 199.256893 57.901831 
L 198.691281 60.068747 
L 199.586833 62.235662 
L 200.058176 64.402578 
L 199.586833 66.569493 
L 198.738416 68.736409 
L 198.644147 70.903324 
L 199.351161 73.07024 
L 198.031401 75.237156 
L 197.182984 77.404071 
L 198.361341 79.570987 
L 197.560059 81.737902 
L 197.324387 83.904818 
L 196.334567 86.071733 
L 197.088716 88.238649 
L 196.240299 90.405564 
L 196.240299 92.57248 
L 195.81609 94.739396 
L 195.297613 96.906311 
L 195.81609 99.073227 
L 195.439016 101.240142 
L 194.307793 103.407058 
L 195.014807 105.573973 
L 193.930719 107.740889 
L 193.459376 109.907804 
L 193.553645 112.07472 
L 192.752362 114.241636 
L 191.479736 116.408551 
L 191.432602 118.575467 
L 191.008393 120.742382 
L 189.311559 122.909298 
L 188.887351 125.076213 
L 187.897531 127.243129 
L 184.173922 129.410044 
L 184.739534 131.57696 
L 182.524223 133.743876 
L 182.288551 135.910791 
L 185.02234 138.077707 
L 185.587951 140.244622 
L 183.891117 142.411538 
L 185.258011 144.578453 
L 187.567591 146.745369 
L 187.237651 148.912284 
L 188.368874 151.0792 
L 187.756128 153.246116 
L 187.049114 155.413031 
L 186.059294 157.579947 
L 185.210877 159.746862 
L 185.917891 161.913778 
L 188.086068 164.080693 
L 186.342099 166.247609 
L 187.001979 168.414524 
L 183.749714 170.58144 
L 183.514043 172.748356 
L 183.514043 174.915271 
L 183.419774 177.082187 
L 186.342099 179.249102 
L 187.803262 181.416018 
L 190.065708 183.582933 
L 191.809676 185.749849 
L 191.432602 187.916764 
L 193.223705 190.08368 
L 194.732002 192.250596 
L 195.81609 194.417511 
L 195.344747 196.584427 
L 195.297613 198.751342 
L 194.449196 200.918258 
L 198.926953 203.085173 
L 203.640381 205.252089 
L 206.044229 207.419004 
L 208.825152 209.58592 
L 208.966555 211.752836 
L 208.966555 213.919751 
L 209.202226 216.086667 
L 209.343629 218.253582 
L 209.390763 220.420498 
L 209.673569 222.587413 
L 209.909241 224.754329 
L 209.862106 226.921244 
L 210.333449 229.08816 
L 210.097778 231.255076 
L 210.286315 233.421991 
L 210.333449 235.588907 
L 210.239181 237.755822 
L 211.936015 239.922738 
L 212.21882 242.089653 
L 212.030283 244.256569 
L 212.313089 246.423484 
L 212.171686 248.5904 
L 212.454492 250.757316 
L 212.501626 252.924231 
L 212.501626 255.091147 
L 212.501626 257.258062 
L 212.54876 259.424978 
L 212.54876 261.591893 
L 212.54876 263.758809 
L 212.501626 265.925724 
" style="fill:none;stroke:#115029;stroke-linecap:square;stroke-width:1.5;"/>
   </g>
   <g id="patch_3">
    <path d="M 57.6 307.584 
L 57.6 41.472 
" style="fill:none;stroke:#000000;stroke-linecap:square;stroke-linejoin:miter;stroke-width:0.8;"/>
   </g>
   <g id="patch_4">
    <path d="M 219.927273 307.584 
L 219.927273 41.472 
" style="fill:none;stroke:#000000;stroke-linecap:square;stroke-linejoin:miter;stroke-width:0.8;"/>
   </g>
   <g id="patch_5">
    <path d="M 57.6 307.584 
L 219.927273 307.584 
" style="fill:none;stroke:#000000;stroke-linecap:square;stroke-linejoin:miter;stroke-width:0.8;"/>
   </g>
   <g id="patch_6">
    <path d="M 57.6 41.472 
L 219.927273 41.472 
" style="fill:none;stroke:#000000;stroke-linecap:square;stroke-linejoin:miter;stroke-width:0.8;"/>
   </g>
  </g>
  <g id="axes_2">
   <g id="patch_7">
    <path d="M 252.392727 307.584 
L 414.72 307.584 
L 414.72 41.472 
L 252.392727 41.472 
z
" style="fill:#ffffff;"/>
   </g>
   <g id="matplotlib.axis_3">
    <g id="xtick_4">
     <g id="line2d_14">
      <g>
       <use style="stroke:#000000;stroke-width:0.8;" x="258.765895" xlink:href="#me0f45386a3" y="307.584"/>
      </g>
     </g>
     <g id="text_11">
      <!-- 0.0 -->
      <g transform="translate(246.838551 325.981656)scale(0.15 -0.15)">
       <use xlink:href="#DejaVuSans-48"/>
       <use x="63.623047" xlink:href="#DejaVuSans-46"/>
       <use x="95.410156" xlink:href="#DejaVuSans-48"/>
      </g>
     </g>
    </g>
    <g id="xtick_5">
     <g id="line2d_15">
      <g>
       <use style="stroke:#000000;stroke-width:0.8;" x="333.053691" xlink:href="#me0f45386a3" y="307.584"/>
      </g>
     </g>
     <g id="text_12">
      <!-- 0.5 -->
      <g transform="translate(321.126348 325.981656)scale(0.15 -0.15)">
       <use xlink:href="#DejaVuSans-48"/>
       <use x="63.623047" xlink:href="#DejaVuSans-46"/>
       <use x="95.410156" xlink:href="#DejaVuSans-53"/>
      </g>
     </g>
    </g>
    <g id="xtick_6">
     <g id="line2d_16">
      <g>
       <use style="stroke:#000000;stroke-width:0.8;" x="407.341488" xlink:href="#me0f45386a3" y="307.584"/>
      </g>
     </g>
     <g id="text_13">
      <!-- 1.0 -->
      <g transform="translate(395.414144 325.981656)scale(0.15 -0.15)">
       <use xlink:href="#DejaVuSans-49"/>
       <use x="63.623047" xlink:href="#DejaVuSans-46"/>
       <use x="95.410156" xlink:href="#DejaVuSans-48"/>
      </g>
     </g>
    </g>
    <g id="text_14">
     <!-- CDF -->
     <defs>
      <path d="M 64.40625 67.28125 
L 64.40625 56.890625 
Q 59.421875 61.53125 53.78125 63.8125 
Q 48.140625 66.109375 41.796875 66.109375 
Q 29.296875 66.109375 22.65625 58.46875 
Q 16.015625 50.828125 16.015625 36.375 
Q 16.015625 21.96875 22.65625 14.328125 
Q 29.296875 6.6875 41.796875 6.6875 
Q 48.140625 6.6875 53.78125 8.984375 
Q 59.421875 11.28125 64.40625 15.921875 
L 64.40625 5.609375 
Q 59.234375 2.09375 53.4375 0.328125 
Q 47.65625 -1.421875 41.21875 -1.421875 
Q 24.65625 -1.421875 15.125 8.703125 
Q 5.609375 18.84375 5.609375 36.375 
Q 5.609375 53.953125 15.125 64.078125 
Q 24.65625 74.21875 41.21875 74.21875 
Q 47.75 74.21875 53.53125 72.484375 
Q 59.328125 70.75 64.40625 67.28125 
z
" id="DejaVuSans-67"/>
     </defs>
     <g transform="translate(316.187145 346.018531)scale(0.17 -0.17)">
      <use xlink:href="#DejaVuSans-67"/>
      <use x="69.824219" xlink:href="#DejaVuSans-68"/>
      <use x="146.826172" xlink:href="#DejaVuSans-70"/>
     </g>
    </g>
   </g>
   <g id="matplotlib.axis_4"/>
   <g id="line2d_17">
    <path clip-path="url(#p664422ec9b)" d="M 262.816744 53.568 
L 265.367727 56.036571 
L 267.643803 58.505143 
L 269.830938 60.973714 
L 272.078714 63.442286 
L 274.23755 65.910857 
L 276.493412 68.379429 
L 278.745231 70.848 
L 281.122376 73.316571 
L 283.742086 75.785143 
L 285.98582 78.253714 
L 288.116356 80.722286 
L 290.311577 83.190857 
L 292.527011 85.659429 
L 294.673718 88.128 
L 297.034692 90.596571 
L 299.609932 93.065143 
L 301.938564 95.533714 
L 304.525932 98.002286 
L 306.987975 100.470857 
L 309.55513 102.939429 
L 312.13037 105.408 
L 314.810722 107.876571 
L 317.349577 110.345143 
L 319.73885 112.813714 
L 322.293877 115.282286 
L 324.3759 117.750857 
L 326.575163 120.219429 
L 328.936137 122.688 
L 331.204127 125.156571 
L 333.52063 127.625143 
L 335.752236 130.093714 
L 337.8949 132.562286 
L 340.150762 135.030857 
L 342.2247 137.499429 
L 344.128841 139.968 
L 346.041068 142.436571 
L 347.912868 144.905143 
L 349.728068 147.373714 
L 351.434114 149.842286 
L 353.132075 152.310857 
L 354.769394 154.779429 
L 356.297559 157.248 
L 357.813595 159.716571 
L 359.220476 162.185143 
L 360.744598 164.653714 
L 362.38596 167.122286 
L 363.857526 169.590857 
L 365.401862 172.059429 
L 366.925983 174.528 
L 368.526918 176.996571 
L 370.313819 179.465143 
L 371.922839 181.933714 
L 373.422704 184.402286 
L 374.817457 186.870857 
L 376.28498 189.339429 
L 377.885914 191.808 
L 379.333224 194.276571 
L 380.780533 196.745143 
L 382.187415 199.213714 
L 383.602382 201.682286 
L 385.203316 204.150857 
L 386.816379 206.619429 
L 388.627536 209.088 
L 390.94404 211.556571 
L 392.815839 214.025143 
L 394.622954 216.493714 
L 396.450283 218.962286 
L 398.152287 221.430857 
L 399.652152 223.899429 
L 401.184359 226.368 
L 402.461872 228.836571 
L 403.371494 231.305143 
L 404.014293 233.773714 
L 404.58028 236.242286 
L 404.923915 238.710857 
L 405.227122 241.179429 
L 405.546501 243.648 
L 405.80928 246.116571 
L 406.063974 248.585143 
L 406.245899 251.053714 
L 406.399524 253.522286 
L 406.536978 255.990857 
L 406.646132 258.459429 
L 406.718902 260.928 
L 406.807843 263.396571 
L 406.884655 265.865143 
L 406.94934 268.333714 
L 407.001895 270.802286 
L 407.058494 273.270857 
L 407.115093 275.739429 
L 407.143392 278.208 
L 407.18382 280.676571 
L 407.212119 283.145143 
L 407.240419 285.613714 
L 407.268718 288.082286 
L 407.292974 290.550857 
L 407.317231 293.019429 
L 407.341488 295.488 
" style="fill:none;stroke:#000000;stroke-linecap:square;stroke-width:3;"/>
   </g>
   <g id="line2d_18">
    <path clip-path="url(#p664422ec9b)" d="M 259.77124 53.568 
L 260.905843 54.954961 
L 261.920763 56.341923 
L 262.815998 57.728884 
L 263.749532 59.115845 
L 264.635193 60.502807 
L 265.736285 61.889768 
L 266.674607 63.276729 
L 267.603354 64.66369 
L 268.493802 66.050652 
L 269.503934 67.437613 
L 270.466193 68.824574 
L 271.461963 70.211536 
L 272.304538 71.598497 
L 273.300308 72.985458 
L 274.339164 74.37242 
L 275.37802 75.759381 
L 276.335491 77.146342 
L 277.345623 78.533304 
L 278.331819 79.920265 
L 279.447273 81.307226 
L 280.457405 82.694187 
L 281.544135 84.081149 
L 282.487244 85.46811 
L 283.640997 86.855071 
L 284.766025 88.242033 
L 285.814456 89.628994 
L 286.810226 91.015955 
L 287.987916 92.402917 
L 289.041134 93.789878 
L 290.214036 95.176839 
L 291.276829 96.563801 
L 292.48803 97.950762 
L 293.507737 99.337723 
L 294.695002 100.724684 
L 295.858329 102.111646 
L 296.97857 103.498607 
L 298.223283 104.885568 
L 299.420122 106.27253 
L 300.549938 107.659491 
L 301.871248 109.046452 
L 302.996277 110.433414 
L 304.255351 111.820375 
L 305.533575 113.207336 
L 306.72084 114.594298 
L 308.070874 115.981259 
L 309.349098 117.36822 
L 310.574661 118.755181 
L 311.86246 120.142143 
L 313.356115 121.529104 
L 314.629552 122.916065 
L 315.965224 124.303027 
L 317.497178 125.689988 
L 318.885511 127.076949 
L 320.307356 128.463911 
L 321.791436 129.850872 
L 323.256367 131.237833 
L 324.750022 132.624795 
L 326.305913 134.011756 
L 327.914465 135.398717 
L 329.38897 136.785678 
L 331.203378 138.17264 
L 332.821504 139.559601 
L 334.554527 140.946562 
L 336.364148 142.333524 
L 338.159406 143.720485 
L 340.117435 145.107446 
L 341.931843 146.494408 
L 343.971257 147.881369 
L 345.958009 149.26833 
L 348.150618 150.655292 
L 350.333653 152.042253 
L 352.765629 153.429214 
L 355.044411 154.816175 
L 357.715756 156.203137 
L 360.329652 157.590098 
L 363.249939 158.977059 
L 366.304272 160.364021 
L 369.746381 161.750982 
L 373.494881 163.137943 
L 377.947122 164.524905 
L 383.648863 165.911866 
L 392.965058 167.298827 
L 396.771006 168.685789 
L 398.527965 170.07275 
L 399.212557 171.459711 
L 399.897149 172.846672 
L 400.605678 174.233634 
L 401.232821 175.620595 
L 401.903051 177.007556 
L 402.544557 178.394518 
L 403.209999 179.781479 
L 403.904166 181.16844 
L 404.550459 182.555402 
L 405.220689 183.942363 
L 405.809534 185.329324 
L 406.388804 186.716286 
L 406.901051 188.103247 
L 407.341488 189.490208 
" style="fill:none;stroke:#a2eb7f;stroke-dasharray:1.5,2.475;stroke-dashoffset:0;stroke-width:1.5;"/>
   </g>
   <g id="line2d_19">
    <path clip-path="url(#p664422ec9b)" d="M 259.784748 53.568 
L 260.837085 54.954789 
L 261.812888 56.341578 
L 262.673891 57.728366 
L 263.611427 59.115155 
L 264.477213 60.501944 
L 265.596517 61.888733 
L 266.534053 63.275521 
L 267.466806 64.66231 
L 268.318242 66.049099 
L 269.337095 67.435888 
L 270.274632 68.822677 
L 271.303052 70.209465 
L 272.116221 71.596254 
L 273.154208 72.983043 
L 274.173061 74.369832 
L 275.201481 75.75662 
L 276.143801 77.143409 
L 277.153087 78.530198 
L 278.061923 79.916987 
L 279.233844 81.303775 
L 280.219214 82.690564 
L 281.30025 84.077353 
L 282.233003 85.464142 
L 283.404924 86.850931 
L 284.457261 88.237719 
L 285.480897 89.624508 
L 286.523667 91.011297 
L 287.681238 92.398086 
L 288.738358 93.784874 
L 289.900711 95.171663 
L 290.909998 96.558452 
L 292.139319 97.945241 
L 293.182089 99.33203 
L 294.325309 100.718818 
L 295.478096 102.105607 
L 296.64045 103.492396 
L 297.81237 104.879185 
L 299.051257 106.265973 
L 300.170561 107.652762 
L 301.476415 109.039551 
L 302.610069 110.42634 
L 303.887223 111.813129 
L 305.135677 113.199917 
L 306.331514 114.586706 
L 307.618235 115.973495 
L 308.938439 117.360284 
L 310.220376 118.747072 
L 311.492747 120.133861 
L 312.999502 121.52065 
L 314.286223 122.907439 
L 315.654261 124.294228 
L 317.137099 125.681016 
L 318.576887 127.067805 
L 319.978408 128.454594 
L 321.466029 129.841383 
L 323.011051 131.228171 
L 324.455622 132.61496 
L 326.043694 134.001749 
L 327.626982 135.388538 
L 329.10982 136.775326 
L 330.922709 138.162115 
L 332.534698 139.548904 
L 334.271053 140.935693 
L 336.107859 142.322482 
L 337.820298 143.70927 
L 339.776688 145.096059 
L 341.627844 146.482848 
L 343.684684 147.869637 
L 345.684123 149.256425 
L 347.841414 150.643214 
L 349.993921 152.030003 
L 352.438212 153.416792 
L 354.657685 154.803581 
L 357.312444 156.190369 
L 359.928936 157.577158 
L 362.818078 158.963947 
L 365.874638 160.350736 
L 369.194282 161.737524 
L 372.915727 163.124313 
L 377.259008 164.511102 
L 382.654625 165.897891 
L 391.671237 167.28468 
L 395.871018 168.671468 
L 398.286609 170.058257 
L 398.956277 171.445046 
L 399.683346 172.831835 
L 400.381715 174.218623 
L 401.075301 175.605412 
L 401.75932 176.992201 
L 402.395505 178.37899 
L 403.069957 179.765778 
L 403.78746 181.152567 
L 404.442778 182.539356 
L 405.155497 183.926145 
L 405.762983 185.312934 
L 406.351334 186.699722 
L 406.887069 188.086511 
L 407.341488 189.4733 
" style="fill:none;stroke:#77cd86;stroke-dasharray:5.55,2.4;stroke-dashoffset:0;stroke-width:1.5;"/>
   </g>
   <g id="line2d_20">
    <path clip-path="url(#p664422ec9b)" d="M 261.840047 53.568 
L 264.475637 56.001997 
L 266.617845 58.435995 
L 268.431131 60.869992 
L 270.101041 63.303989 
L 271.665527 65.737987 
L 273.036034 68.171984 
L 274.385456 70.605982 
L 275.819217 73.039979 
L 277.324666 75.473976 
L 278.648787 77.907974 
L 280.171103 80.341971 
L 281.625949 82.775968 
L 283.068144 85.209966 
L 284.619979 87.643963 
L 286.104344 90.07796 
L 287.656179 92.511958 
L 289.292354 94.945955 
L 290.793586 97.379952 
L 292.58157 99.81395 
L 294.09967 102.247947 
L 295.799098 104.681945 
L 297.506961 107.115942 
L 299.311813 109.549939 
L 301.09558 111.983937 
L 302.955252 114.417934 
L 304.730586 116.851931 
L 306.695682 119.285929 
L 308.660778 121.719926 
L 310.735514 124.153923 
L 312.818685 126.587921 
L 315.108485 129.021918 
L 317.398286 131.455915 
L 319.94532 133.889913 
L 322.694768 136.32391 
L 325.309273 138.757908 
L 328.067155 141.191905 
L 330.871423 143.625902 
L 333.709426 146.0599 
L 336.589599 148.493897 
L 339.600497 150.927894 
L 342.522839 153.361892 
L 345.390361 155.795889 
L 348.287402 158.229886 
L 351.369988 160.663884 
L 354.503178 163.097881 
L 357.429737 165.531878 
L 360.200269 167.965876 
L 363.143696 170.399873 
L 365.796154 172.833871 
L 368.663676 175.267868 
L 371.273964 177.701865 
L 373.829433 180.135863 
L 375.246326 182.56986 
L 376.486107 185.003857 
L 377.806011 187.437855 
L 379.113264 189.871852 
L 380.365696 192.305849 
L 381.630779 194.739847 
L 382.992852 197.173844 
L 384.253718 199.607841 
L 385.480849 202.041839 
L 386.648943 204.475836 
L 387.82547 206.909834 
L 389.048384 209.343831 
L 390.182742 211.777828 
L 391.380354 214.211826 
L 392.552665 216.645823 
L 393.758711 219.07982 
L 394.968974 221.513818 
L 396.153935 223.947815 
L 397.372632 226.381812 
L 398.50699 228.81581 
L 399.607612 231.249807 
L 400.598594 233.683804 
L 401.581142 236.117802 
L 402.555256 238.551799 
L 403.58419 240.985797 
L 404.237817 243.419794 
L 404.790236 245.853791 
L 405.275185 248.287789 
L 405.739049 250.721786 
L 406.198696 253.155783 
L 406.603522 255.589781 
L 406.721597 258.023778 
L 406.805936 260.457775 
L 406.881841 262.891773 
L 406.961963 265.32577 
L 407.016783 267.759767 
L 407.063169 270.193765 
L 407.088471 272.627762 
L 407.13064 275.06176 
L 407.177027 277.495757 
L 407.22763 279.929754 
L 407.257149 282.363752 
L 407.307752 284.797749 
L 407.311969 287.231746 
L 407.32462 289.665744 
L 407.341488 292.099741 
" style="fill:none;stroke:#258d41;stroke-dasharray:9.6,2.4,1.5,2.4;stroke-dashoffset:0;stroke-width:1.5;"/>
   </g>
   <g id="line2d_21">
    <path clip-path="url(#p664422ec9b)" d="M 260.202419 53.568 
L 261.550612 55.734916 
L 262.861614 57.901831 
L 264.228404 60.068747 
L 265.506863 62.235662 
L 266.738833 64.402578 
L 268.017293 66.569493 
L 269.379433 68.736409 
L 270.750872 70.903324 
L 272.052576 73.07024 
L 273.484451 75.237156 
L 275.000006 77.404071 
L 276.399338 79.570987 
L 277.877703 81.737902 
L 279.379311 83.904818 
L 280.978548 86.071733 
L 282.503402 88.238649 
L 284.111936 90.405564 
L 285.720471 92.57248 
L 287.370846 94.739396 
L 289.072359 96.906311 
L 290.722734 99.073227 
L 292.410301 101.240142 
L 294.209442 103.407058 
L 295.938849 105.573973 
L 297.775182 107.740889 
L 299.658004 109.907804 
L 301.531528 112.07472 
L 303.484085 114.241636 
L 305.562163 116.408551 
L 307.644889 118.575467 
L 309.769457 120.742382 
L 312.061386 122.909298 
L 314.395156 125.076213 
L 316.826553 127.243129 
L 319.625217 129.410044 
L 322.368094 131.57696 
L 325.329471 133.743876 
L 328.314093 135.910791 
L 331.029076 138.077707 
L 333.688272 140.244622 
L 336.51483 142.411538 
L 339.206568 144.578453 
L 341.670508 146.745369 
L 344.166991 148.912284 
L 346.551899 151.0792 
L 348.997244 153.246116 
L 351.512322 155.413031 
L 354.125029 157.579947 
L 356.821416 159.746862 
L 359.448069 161.913778 
L 361.860871 164.080693 
L 364.445684 166.247609 
L 366.965411 168.414524 
L 369.805916 170.58144 
L 372.669665 172.748356 
L 375.533415 174.915271 
L 378.406462 177.082187 
L 380.991275 179.249102 
L 383.43197 181.416018 
L 385.649516 183.582933 
L 387.695051 185.749849 
L 389.777778 187.916764 
L 391.683845 190.08368 
L 393.441146 192.250596 
L 395.091521 194.417511 
L 396.788385 196.584427 
L 398.489899 198.751342 
L 400.275093 200.918258 
L 401.618638 203.085173 
L 402.497288 205.252089 
L 403.138842 207.419004 
L 403.506109 209.58592 
L 403.859429 211.752836 
L 404.212748 213.919751 
L 404.542823 216.086667 
L 404.858952 218.253582 
L 405.170431 220.420498 
L 405.454016 222.587413 
L 405.714357 224.754329 
L 405.979347 226.921244 
L 406.197847 229.08816 
L 406.439593 231.255076 
L 406.662742 233.421991 
L 406.881242 235.588907 
L 407.10904 237.755822 
L 407.169477 239.922738 
L 407.202019 242.089653 
L 407.253158 244.256569 
L 407.276402 246.423484 
L 407.313594 248.5904 
L 407.322892 250.757316 
L 407.327541 252.924231 
L 407.33219 255.091147 
L 407.336839 257.258062 
L 407.336839 259.424978 
L 407.336839 261.591893 
L 407.336839 263.758809 
L 407.341488 265.925724 
" style="fill:none;stroke:#115029;stroke-linecap:square;stroke-width:1.5;"/>
   </g>
   <g id="patch_8">
    <path d="M 252.392727 307.584 
L 252.392727 41.472 
" style="fill:none;stroke:#000000;stroke-linecap:square;stroke-linejoin:miter;stroke-width:0.8;"/>
   </g>
   <g id="patch_9">
    <path d="M 414.72 307.584 
L 414.72 41.472 
" style="fill:none;stroke:#000000;stroke-linecap:square;stroke-linejoin:miter;stroke-width:0.8;"/>
   </g>
   <g id="patch_10">
    <path d="M 252.392727 307.584 
L 414.72 307.584 
" style="fill:none;stroke:#000000;stroke-linecap:square;stroke-linejoin:miter;stroke-width:0.8;"/>
   </g>
   <g id="patch_11">
    <path d="M 252.392727 41.472 
L 414.72 41.472 
" style="fill:none;stroke:#000000;stroke-linecap:square;stroke-linejoin:miter;stroke-width:0.8;"/>
   </g>
   <g id="legend_1">
    <g id="patch_12">
     <path d="M 261.492727 301.084 
L 345.81804 301.084 
Q 348.41804 301.084 348.41804 298.484 
L 348.41804 225.176187 
Q 348.41804 222.576187 345.81804 222.576187 
L 261.492727 222.576187 
Q 258.892727 222.576187 258.892727 225.176187 
L 258.892727 298.484 
Q 258.892727 301.084 261.492727 301.084 
z
" style="fill:#ffffff;opacity:0.8;stroke:#cccccc;stroke-linejoin:miter;"/>
    </g>
    <g id="line2d_22">
     <path d="M 264.092727 233.104156 
L 290.092727 233.104156 
" style="fill:none;stroke:#000000;stroke-linecap:square;stroke-width:3;"/>
    </g>
    <g id="line2d_23"/>
    <g id="text_15">
     <!-- TS -->
     <defs>
      <path d="M -0.296875 72.90625 
L 61.375 72.90625 
L 61.375 64.59375 
L 35.5 64.59375 
L 35.5 0 
L 25.59375 0 
L 25.59375 64.59375 
L -0.296875 64.59375 
z
" id="DejaVuSans-84"/>
      <path d="M 53.515625 70.515625 
L 53.515625 60.890625 
Q 47.90625 63.578125 42.921875 64.890625 
Q 37.9375 66.21875 33.296875 66.21875 
Q 25.25 66.21875 20.875 63.09375 
Q 16.5 59.96875 16.5 54.203125 
Q 16.5 49.359375 19.40625 46.890625 
Q 22.3125 44.4375 30.421875 42.921875 
L 36.375 41.703125 
Q 47.40625 39.59375 52.65625 34.296875 
Q 57.90625 29 57.90625 20.125 
Q 57.90625 9.515625 50.796875 4.046875 
Q 43.703125 -1.421875 29.984375 -1.421875 
Q 24.8125 -1.421875 18.96875 -0.25 
Q 13.140625 0.921875 6.890625 3.21875 
L 6.890625 13.375 
Q 12.890625 10.015625 18.65625 8.296875 
Q 24.421875 6.59375 29.984375 6.59375 
Q 38.421875 6.59375 43.015625 9.90625 
Q 47.609375 13.234375 47.609375 19.390625 
Q 47.609375 24.75 44.3125 27.78125 
Q 41.015625 30.8125 33.5 32.328125 
L 27.484375 33.5 
Q 16.453125 35.6875 11.515625 40.375 
Q 6.59375 45.0625 6.59375 53.421875 
Q 6.59375 63.09375 13.40625 68.65625 
Q 20.21875 74.21875 32.171875 74.21875 
Q 37.3125 74.21875 42.625 73.28125 
Q 47.953125 72.359375 53.515625 70.515625 
z
" id="DejaVuSans-83"/>
     </defs>
     <g transform="translate(300.492727 237.654156)scale(0.13 -0.13)">
      <use xlink:href="#DejaVuSans-84"/>
      <use x="61.083984" xlink:href="#DejaVuSans-83"/>
     </g>
    </g>
    <g id="line2d_24">
     <path d="M 264.092727 246.985719 
L 290.092727 246.985719 
" style="fill:none;stroke:#a2eb7f;stroke-dasharray:1.5,2.475;stroke-dashoffset:0;stroke-width:1.5;"/>
    </g>
    <g id="line2d_25"/>
    <g id="text_16">
     <!-- RB, n0 -->
     <defs>
      <path d="M 44.390625 34.1875 
Q 47.5625 33.109375 50.5625 29.59375 
Q 53.5625 26.078125 56.59375 19.921875 
L 66.609375 0 
L 56 0 
L 46.6875 18.703125 
Q 43.0625 26.03125 39.671875 28.421875 
Q 36.28125 30.8125 30.421875 30.8125 
L 19.671875 30.8125 
L 19.671875 0 
L 9.8125 0 
L 9.8125 72.90625 
L 32.078125 72.90625 
Q 44.578125 72.90625 50.734375 67.671875 
Q 56.890625 62.453125 56.890625 51.90625 
Q 56.890625 45.015625 53.6875 40.46875 
Q 50.484375 35.9375 44.390625 34.1875 
z
M 19.671875 64.796875 
L 19.671875 38.921875 
L 32.078125 38.921875 
Q 39.203125 38.921875 42.84375 42.21875 
Q 46.484375 45.515625 46.484375 51.90625 
Q 46.484375 58.296875 42.84375 61.546875 
Q 39.203125 64.796875 32.078125 64.796875 
z
" id="DejaVuSans-82"/>
      <path d="M 19.671875 34.8125 
L 19.671875 8.109375 
L 35.5 8.109375 
Q 43.453125 8.109375 47.28125 11.40625 
Q 51.125 14.703125 51.125 21.484375 
Q 51.125 28.328125 47.28125 31.5625 
Q 43.453125 34.8125 35.5 34.8125 
z
M 19.671875 64.796875 
L 19.671875 42.828125 
L 34.28125 42.828125 
Q 41.5 42.828125 45.03125 45.53125 
Q 48.578125 48.25 48.578125 53.8125 
Q 48.578125 59.328125 45.03125 62.0625 
Q 41.5 64.796875 34.28125 64.796875 
z
M 9.8125 72.90625 
L 35.015625 72.90625 
Q 46.296875 72.90625 52.390625 68.21875 
Q 58.5 63.53125 58.5 54.890625 
Q 58.5 48.1875 55.375 44.234375 
Q 52.25 40.28125 46.1875 39.3125 
Q 53.46875 37.75 57.5 32.78125 
Q 61.53125 27.828125 61.53125 20.40625 
Q 61.53125 10.640625 54.890625 5.3125 
Q 48.25 0 35.984375 0 
L 9.8125 0 
z
" id="DejaVuSans-66"/>
      <path d="M 11.71875 12.40625 
L 22.015625 12.40625 
L 22.015625 4 
L 14.015625 -11.625 
L 7.71875 -11.625 
L 11.71875 4 
z
" id="DejaVuSans-44"/>
      <path d="M 54.890625 33.015625 
L 54.890625 0 
L 45.90625 0 
L 45.90625 32.71875 
Q 45.90625 40.484375 42.875 44.328125 
Q 39.84375 48.1875 33.796875 48.1875 
Q 26.515625 48.1875 22.3125 43.546875 
Q 18.109375 38.921875 18.109375 30.90625 
L 18.109375 0 
L 9.078125 0 
L 9.078125 54.6875 
L 18.109375 54.6875 
L 18.109375 46.1875 
Q 21.34375 51.125 25.703125 53.5625 
Q 30.078125 56 35.796875 56 
Q 45.21875 56 50.046875 50.171875 
Q 54.890625 44.34375 54.890625 33.015625 
z
" id="DejaVuSans-110"/>
     </defs>
     <g transform="translate(300.492727 251.535719)scale(0.13 -0.13)">
      <use xlink:href="#DejaVuSans-82"/>
      <use x="69.482422" xlink:href="#DejaVuSans-66"/>
      <use x="138.085938" xlink:href="#DejaVuSans-44"/>
      <use x="169.873047" xlink:href="#DejaVuSans-32"/>
      <use x="201.660156" xlink:href="#DejaVuSans-110"/>
      <use x="265.039062" xlink:href="#DejaVuSans-48"/>
     </g>
    </g>
    <g id="line2d_26">
     <path d="M 264.092727 260.867281 
L 290.092727 260.867281 
" style="fill:none;stroke:#77cd86;stroke-dasharray:5.55,2.4;stroke-dashoffset:0;stroke-width:1.5;"/>
    </g>
    <g id="line2d_27"/>
    <g id="text_17">
     <!-- RB, s0 -->
     <defs>
      <path d="M 44.28125 53.078125 
L 44.28125 44.578125 
Q 40.484375 46.53125 36.375 47.5 
Q 32.28125 48.484375 27.875 48.484375 
Q 21.1875 48.484375 17.84375 46.4375 
Q 14.5 44.390625 14.5 40.28125 
Q 14.5 37.15625 16.890625 35.375 
Q 19.28125 33.59375 26.515625 31.984375 
L 29.59375 31.296875 
Q 39.15625 29.25 43.1875 25.515625 
Q 47.21875 21.78125 47.21875 15.09375 
Q 47.21875 7.46875 41.1875 3.015625 
Q 35.15625 -1.421875 24.609375 -1.421875 
Q 20.21875 -1.421875 15.453125 -0.5625 
Q 10.6875 0.296875 5.421875 2 
L 5.421875 11.28125 
Q 10.40625 8.6875 15.234375 7.390625 
Q 20.0625 6.109375 24.8125 6.109375 
Q 31.15625 6.109375 34.5625 8.28125 
Q 37.984375 10.453125 37.984375 14.40625 
Q 37.984375 18.0625 35.515625 20.015625 
Q 33.0625 21.96875 24.703125 23.78125 
L 21.578125 24.515625 
Q 13.234375 26.265625 9.515625 29.90625 
Q 5.8125 33.546875 5.8125 39.890625 
Q 5.8125 47.609375 11.28125 51.796875 
Q 16.75 56 26.8125 56 
Q 31.78125 56 36.171875 55.265625 
Q 40.578125 54.546875 44.28125 53.078125 
z
" id="DejaVuSans-115"/>
     </defs>
     <g transform="translate(300.492727 265.417281)scale(0.13 -0.13)">
      <use xlink:href="#DejaVuSans-82"/>
      <use x="69.482422" xlink:href="#DejaVuSans-66"/>
      <use x="138.085938" xlink:href="#DejaVuSans-44"/>
      <use x="169.873047" xlink:href="#DejaVuSans-32"/>
      <use x="201.660156" xlink:href="#DejaVuSans-115"/>
      <use x="253.759766" xlink:href="#DejaVuSans-48"/>
     </g>
    </g>
    <g id="line2d_28">
     <path d="M 264.092727 274.748844 
L 290.092727 274.748844 
" style="fill:none;stroke:#258d41;stroke-dasharray:9.6,2.4,1.5,2.4;stroke-dashoffset:0;stroke-width:1.5;"/>
    </g>
    <g id="line2d_29"/>
    <g id="text_18">
     <!-- RB, s1 -->
     <g transform="translate(300.492727 279.298844)scale(0.13 -0.13)">
      <use xlink:href="#DejaVuSans-82"/>
      <use x="69.482422" xlink:href="#DejaVuSans-66"/>
      <use x="138.085938" xlink:href="#DejaVuSans-44"/>
      <use x="169.873047" xlink:href="#DejaVuSans-32"/>
      <use x="201.660156" xlink:href="#DejaVuSans-115"/>
      <use x="253.759766" xlink:href="#DejaVuSans-49"/>
     </g>
    </g>
    <g id="line2d_30">
     <path d="M 264.092727 288.630406 
L 290.092727 288.630406 
" style="fill:none;stroke:#115029;stroke-linecap:square;stroke-width:1.5;"/>
    </g>
    <g id="line2d_31"/>
    <g id="text_19">
     <!-- RB, s2 -->
     <g transform="translate(300.492727 293.180406)scale(0.13 -0.13)">
      <use xlink:href="#DejaVuSans-82"/>
      <use x="69.482422" xlink:href="#DejaVuSans-66"/>
      <use x="138.085938" xlink:href="#DejaVuSans-44"/>
      <use x="169.873047" xlink:href="#DejaVuSans-32"/>
      <use x="201.660156" xlink:href="#DejaVuSans-115"/>
      <use x="253.759766" xlink:href="#DejaVuSans-50"/>
     </g>
    </g>
   </g>
  </g>
 </g>
 <defs>
  <clipPath id="peb9d1d6d5f">
   <rect height="266.112" width="162.327273" x="57.6" y="41.472"/>
  </clipPath>
  <clipPath id="p664422ec9b">
   <rect height="266.112" width="162.327273" x="252.392727" y="41.472"/>
  </clipPath>
 </defs>
</svg>
