<?xml version="1.0" encoding="utf-8" standalone="no"?>
<!DOCTYPE svg PUBLIC "-//W3C//DTD SVG 1.1//EN"
  "http://www.w3.org/Graphics/SVG/1.1/DTD/svg11.dtd">
<!-- Created with matplotlib (https://matplotlib.org/) -->
<svg height="345.6pt" version="1.1" viewBox="0 0 460.8 345.6" width="460.8pt" xmlns="http://www.w3.org/2000/svg" xmlns:xlink="http://www.w3.org/1999/xlink">
 <defs>
  <style type="text/css">
*{stroke-linecap:butt;stroke-linejoin:round;}
  </style>
 </defs>
 <g id="figure_1">
  <g id="patch_1">
   <path d="M 0 345.6 
L 460.8 345.6 
L 460.8 0 
L 0 0 
z
" style="fill:#ffffff;"/>
  </g>
  <g id="axes_1">
   <g id="patch_2">
    <path d="M 57.6 307.584 
L 219.927273 307.584 
L 219.927273 41.472 
L 57.6 41.472 
z
" style="fill:#ffffff;"/>
   </g>
   <g id="matplotlib.axis_1">
    <g id="xtick_1">
     <g id="line2d_1">
      <defs>
       <path d="M 0 0 
L 0 3.5 
" id="m755def69d9" style="stroke:#000000;stroke-width:0.8;"/>
      </defs>
      <g>
       <use style="stroke:#000000;stroke-width:0.8;" x="212.54876" xlink:href="#m755def69d9" y="307.584"/>
      </g>
     </g>
     <g id="text_1">
      <!-- 0.0 -->
      <defs>
       <path d="M 31.78125 66.40625 
Q 24.171875 66.40625 20.328125 58.90625 
Q 16.5 51.421875 16.5 36.375 
Q 16.5 21.390625 20.328125 13.890625 
Q 24.171875 6.390625 31.78125 6.390625 
Q 39.453125 6.390625 43.28125 13.890625 
Q 47.125 21.390625 47.125 36.375 
Q 47.125 51.421875 43.28125 58.90625 
Q 39.453125 66.40625 31.78125 66.40625 
z
M 31.78125 74.21875 
Q 44.046875 74.21875 50.515625 64.515625 
Q 56.984375 54.828125 56.984375 36.375 
Q 56.984375 17.96875 50.515625 8.265625 
Q 44.046875 -1.421875 31.78125 -1.421875 
Q 19.53125 -1.421875 13.0625 8.265625 
Q 6.59375 17.96875 6.59375 36.375 
Q 6.59375 54.828125 13.0625 64.515625 
Q 19.53125 74.21875 31.78125 74.21875 
z
" id="DejaVuSans-48"/>
       <path d="M 10.6875 12.40625 
L 21 12.40625 
L 21 0 
L 10.6875 0 
z
" id="DejaVuSans-46"/>
      </defs>
      <g transform="translate(200.621417 325.981656)scale(0.15 -0.15)">
       <use xlink:href="#DejaVuSans-48"/>
       <use x="63.623047" xlink:href="#DejaVuSans-46"/>
       <use x="95.410156" xlink:href="#DejaVuSans-48"/>
      </g>
     </g>
    </g>
    <g id="xtick_2">
     <g id="line2d_2">
      <g>
       <use style="stroke:#000000;stroke-width:0.8;" x="161.348309" xlink:href="#m755def69d9" y="307.584"/>
      </g>
     </g>
     <g id="text_2">
      <!-- 0.5 -->
      <defs>
       <path d="M 10.796875 72.90625 
L 49.515625 72.90625 
L 49.515625 64.59375 
L 19.828125 64.59375 
L 19.828125 46.734375 
Q 21.96875 47.46875 24.109375 47.828125 
Q 26.265625 48.1875 28.421875 48.1875 
Q 40.625 48.1875 47.75 41.5 
Q 54.890625 34.8125 54.890625 23.390625 
Q 54.890625 11.625 47.5625 5.09375 
Q 40.234375 -1.421875 26.90625 -1.421875 
Q 22.3125 -1.421875 17.546875 -0.640625 
Q 12.796875 0.140625 7.71875 1.703125 
L 7.71875 11.625 
Q 12.109375 9.234375 16.796875 8.0625 
Q 21.484375 6.890625 26.703125 6.890625 
Q 35.15625 6.890625 40.078125 11.328125 
Q 45.015625 15.765625 45.015625 23.390625 
Q 45.015625 31 40.078125 35.4375 
Q 35.15625 39.890625 26.703125 39.890625 
Q 22.75 39.890625 18.8125 39.015625 
Q 14.890625 38.140625 10.796875 36.28125 
z
" id="DejaVuSans-53"/>
      </defs>
      <g transform="translate(149.420965 325.981656)scale(0.15 -0.15)">
       <use xlink:href="#DejaVuSans-48"/>
       <use x="63.623047" xlink:href="#DejaVuSans-46"/>
       <use x="95.410156" xlink:href="#DejaVuSans-53"/>
      </g>
     </g>
    </g>
    <g id="xtick_3">
     <g id="line2d_3">
      <g>
       <use style="stroke:#000000;stroke-width:0.8;" x="110.147857" xlink:href="#m755def69d9" y="307.584"/>
      </g>
     </g>
     <g id="text_3">
      <!-- 1.0 -->
      <defs>
       <path d="M 12.40625 8.296875 
L 28.515625 8.296875 
L 28.515625 63.921875 
L 10.984375 60.40625 
L 10.984375 69.390625 
L 28.421875 72.90625 
L 38.28125 72.90625 
L 38.28125 8.296875 
L 54.390625 8.296875 
L 54.390625 0 
L 12.40625 0 
z
" id="DejaVuSans-49"/>
      </defs>
      <g transform="translate(98.220513 325.981656)scale(0.15 -0.15)">
       <use xlink:href="#DejaVuSans-49"/>
       <use x="63.623047" xlink:href="#DejaVuSans-46"/>
       <use x="95.410156" xlink:href="#DejaVuSans-48"/>
      </g>
     </g>
    </g>
    <g id="xtick_4">
     <g id="line2d_4">
      <g>
       <use style="stroke:#000000;stroke-width:0.8;" x="58.947406" xlink:href="#m755def69d9" y="307.584"/>
      </g>
     </g>
     <g id="text_4">
      <!-- 1.5 -->
      <g transform="translate(47.020062 325.981656)scale(0.15 -0.15)">
       <use xlink:href="#DejaVuSans-49"/>
       <use x="63.623047" xlink:href="#DejaVuSans-46"/>
       <use x="95.410156" xlink:href="#DejaVuSans-53"/>
      </g>
     </g>
    </g>
    <g id="text_5">
     <!-- PDF -->
     <defs>
      <path d="M 19.671875 64.796875 
L 19.671875 37.40625 
L 32.078125 37.40625 
Q 38.96875 37.40625 42.71875 40.96875 
Q 46.484375 44.53125 46.484375 51.125 
Q 46.484375 57.671875 42.71875 61.234375 
Q 38.96875 64.796875 32.078125 64.796875 
z
M 9.8125 72.90625 
L 32.078125 72.90625 
Q 44.34375 72.90625 50.609375 67.359375 
Q 56.890625 61.8125 56.890625 51.125 
Q 56.890625 40.328125 50.609375 34.8125 
Q 44.34375 29.296875 32.078125 29.296875 
L 19.671875 29.296875 
L 19.671875 0 
L 9.8125 0 
z
" id="DejaVuSans-80"/>
      <path d="M 19.671875 64.796875 
L 19.671875 8.109375 
L 31.59375 8.109375 
Q 46.6875 8.109375 53.6875 14.9375 
Q 60.6875 21.78125 60.6875 36.53125 
Q 60.6875 51.171875 53.6875 57.984375 
Q 46.6875 64.796875 31.59375 64.796875 
z
M 9.8125 72.90625 
L 30.078125 72.90625 
Q 51.265625 72.90625 61.171875 64.09375 
Q 71.09375 55.28125 71.09375 36.53125 
Q 71.09375 17.671875 61.125 8.828125 
Q 51.171875 0 30.078125 0 
L 9.8125 0 
z
" id="DejaVuSans-68"/>
      <path d="M 9.8125 72.90625 
L 51.703125 72.90625 
L 51.703125 64.59375 
L 19.671875 64.59375 
L 19.671875 43.109375 
L 48.578125 43.109375 
L 48.578125 34.8125 
L 19.671875 34.8125 
L 19.671875 0 
L 9.8125 0 
z
" id="DejaVuSans-70"/>
     </defs>
     <g transform="translate(122.204574 346.018531)scale(0.17 -0.17)">
      <use xlink:href="#DejaVuSans-80"/>
      <use x="60.302734" xlink:href="#DejaVuSans-68"/>
      <use x="137.304688" xlink:href="#DejaVuSans-70"/>
     </g>
    </g>
   </g>
   <g id="matplotlib.axis_2">
    <g id="ytick_1">
     <g id="line2d_5">
      <defs>
       <path d="M 0 0 
L -3.5 0 
" id="me2044ffcb0" style="stroke:#000000;stroke-width:0.8;"/>
      </defs>
      <g>
       <use style="stroke:#000000;stroke-width:0.8;" x="57.6" xlink:href="#me2044ffcb0" y="295.488"/>
      </g>
     </g>
     <g id="text_6">
      <!-- 0 -->
      <g transform="translate(41.05625 301.186828)scale(0.15 -0.15)">
       <use xlink:href="#DejaVuSans-48"/>
      </g>
     </g>
    </g>
    <g id="ytick_2">
     <g id="line2d_6">
      <g>
       <use style="stroke:#000000;stroke-width:0.8;" x="57.6" xlink:href="#me2044ffcb0" y="236.381653"/>
      </g>
     </g>
     <g id="text_7">
      <!-- 1 -->
      <g transform="translate(41.05625 242.080481)scale(0.15 -0.15)">
       <use xlink:href="#DejaVuSans-49"/>
      </g>
     </g>
    </g>
    <g id="ytick_3">
     <g id="line2d_7">
      <g>
       <use style="stroke:#000000;stroke-width:0.8;" x="57.6" xlink:href="#me2044ffcb0" y="177.275305"/>
      </g>
     </g>
     <g id="text_8">
      <!-- 2 -->
      <defs>
       <path d="M 19.1875 8.296875 
L 53.609375 8.296875 
L 53.609375 0 
L 7.328125 0 
L 7.328125 8.296875 
Q 12.9375 14.109375 22.625 23.890625 
Q 32.328125 33.6875 34.8125 36.53125 
Q 39.546875 41.84375 41.421875 45.53125 
Q 43.3125 49.21875 43.3125 52.78125 
Q 43.3125 58.59375 39.234375 62.25 
Q 35.15625 65.921875 28.609375 65.921875 
Q 23.96875 65.921875 18.8125 64.3125 
Q 13.671875 62.703125 7.8125 59.421875 
L 7.8125 69.390625 
Q 13.765625 71.78125 18.9375 73 
Q 24.125 74.21875 28.421875 74.21875 
Q 39.75 74.21875 46.484375 68.546875 
Q 53.21875 62.890625 53.21875 53.421875 
Q 53.21875 48.921875 51.53125 44.890625 
Q 49.859375 40.875 45.40625 35.40625 
Q 44.1875 33.984375 37.640625 27.21875 
Q 31.109375 20.453125 19.1875 8.296875 
z
" id="DejaVuSans-50"/>
      </defs>
      <g transform="translate(41.05625 182.974134)scale(0.15 -0.15)">
       <use xlink:href="#DejaVuSans-50"/>
      </g>
     </g>
    </g>
    <g id="ytick_4">
     <g id="line2d_8">
      <g>
       <use style="stroke:#000000;stroke-width:0.8;" x="57.6" xlink:href="#me2044ffcb0" y="118.168958"/>
      </g>
     </g>
     <g id="text_9">
      <!-- 3 -->
      <defs>
       <path d="M 40.578125 39.3125 
Q 47.65625 37.796875 51.625 33 
Q 55.609375 28.21875 55.609375 21.1875 
Q 55.609375 10.40625 48.1875 4.484375 
Q 40.765625 -1.421875 27.09375 -1.421875 
Q 22.515625 -1.421875 17.65625 -0.515625 
Q 12.796875 0.390625 7.625 2.203125 
L 7.625 11.71875 
Q 11.71875 9.328125 16.59375 8.109375 
Q 21.484375 6.890625 26.8125 6.890625 
Q 36.078125 6.890625 40.9375 10.546875 
Q 45.796875 14.203125 45.796875 21.1875 
Q 45.796875 27.640625 41.28125 31.265625 
Q 36.765625 34.90625 28.71875 34.90625 
L 20.21875 34.90625 
L 20.21875 43.015625 
L 29.109375 43.015625 
Q 36.375 43.015625 40.234375 45.921875 
Q 44.09375 48.828125 44.09375 54.296875 
Q 44.09375 59.90625 40.109375 62.90625 
Q 36.140625 65.921875 28.71875 65.921875 
Q 24.65625 65.921875 20.015625 65.03125 
Q 15.375 64.15625 9.8125 62.3125 
L 9.8125 71.09375 
Q 15.4375 72.65625 20.34375 73.4375 
Q 25.25 74.21875 29.59375 74.21875 
Q 40.828125 74.21875 47.359375 69.109375 
Q 53.90625 64.015625 53.90625 55.328125 
Q 53.90625 49.265625 50.4375 45.09375 
Q 46.96875 40.921875 40.578125 39.3125 
z
" id="DejaVuSans-51"/>
      </defs>
      <g transform="translate(41.05625 123.867786)scale(0.15 -0.15)">
       <use xlink:href="#DejaVuSans-51"/>
      </g>
     </g>
    </g>
    <g id="ytick_5">
     <g id="line2d_9">
      <g>
       <use style="stroke:#000000;stroke-width:0.8;" x="57.6" xlink:href="#me2044ffcb0" y="59.062611"/>
      </g>
     </g>
     <g id="text_10">
      <!-- 4 -->
      <defs>
       <path d="M 37.796875 64.3125 
L 12.890625 25.390625 
L 37.796875 25.390625 
z
M 35.203125 72.90625 
L 47.609375 72.90625 
L 47.609375 25.390625 
L 58.015625 25.390625 
L 58.015625 17.1875 
L 47.609375 17.1875 
L 47.609375 0 
L 37.796875 0 
L 37.796875 17.1875 
L 4.890625 17.1875 
L 4.890625 26.703125 
z
" id="DejaVuSans-52"/>
      </defs>
      <g transform="translate(41.05625 64.761439)scale(0.15 -0.15)">
       <use xlink:href="#DejaVuSans-52"/>
      </g>
     </g>
    </g>
    <g id="text_11">
     <!-- Velocity (m/s) -->
     <defs>
      <path d="M 28.609375 0 
L 0.78125 72.90625 
L 11.078125 72.90625 
L 34.1875 11.53125 
L 57.328125 72.90625 
L 67.578125 72.90625 
L 39.796875 0 
z
" id="DejaVuSans-86"/>
      <path d="M 56.203125 29.59375 
L 56.203125 25.203125 
L 14.890625 25.203125 
Q 15.484375 15.921875 20.484375 11.0625 
Q 25.484375 6.203125 34.421875 6.203125 
Q 39.59375 6.203125 44.453125 7.46875 
Q 49.3125 8.734375 54.109375 11.28125 
L 54.109375 2.78125 
Q 49.265625 0.734375 44.1875 -0.34375 
Q 39.109375 -1.421875 33.890625 -1.421875 
Q 20.796875 -1.421875 13.15625 6.1875 
Q 5.515625 13.8125 5.515625 26.8125 
Q 5.515625 40.234375 12.765625 48.109375 
Q 20.015625 56 32.328125 56 
Q 43.359375 56 49.78125 48.890625 
Q 56.203125 41.796875 56.203125 29.59375 
z
M 47.21875 32.234375 
Q 47.125 39.59375 43.09375 43.984375 
Q 39.0625 48.390625 32.421875 48.390625 
Q 24.90625 48.390625 20.390625 44.140625 
Q 15.875 39.890625 15.1875 32.171875 
z
" id="DejaVuSans-101"/>
      <path d="M 9.421875 75.984375 
L 18.40625 75.984375 
L 18.40625 0 
L 9.421875 0 
z
" id="DejaVuSans-108"/>
      <path d="M 30.609375 48.390625 
Q 23.390625 48.390625 19.1875 42.75 
Q 14.984375 37.109375 14.984375 27.296875 
Q 14.984375 17.484375 19.15625 11.84375 
Q 23.34375 6.203125 30.609375 6.203125 
Q 37.796875 6.203125 41.984375 11.859375 
Q 46.1875 17.53125 46.1875 27.296875 
Q 46.1875 37.015625 41.984375 42.703125 
Q 37.796875 48.390625 30.609375 48.390625 
z
M 30.609375 56 
Q 42.328125 56 49.015625 48.375 
Q 55.71875 40.765625 55.71875 27.296875 
Q 55.71875 13.875 49.015625 6.21875 
Q 42.328125 -1.421875 30.609375 -1.421875 
Q 18.84375 -1.421875 12.171875 6.21875 
Q 5.515625 13.875 5.515625 27.296875 
Q 5.515625 40.765625 12.171875 48.375 
Q 18.84375 56 30.609375 56 
z
" id="DejaVuSans-111"/>
      <path d="M 48.78125 52.59375 
L 48.78125 44.1875 
Q 44.96875 46.296875 41.140625 47.34375 
Q 37.3125 48.390625 33.40625 48.390625 
Q 24.65625 48.390625 19.8125 42.84375 
Q 14.984375 37.3125 14.984375 27.296875 
Q 14.984375 17.28125 19.8125 11.734375 
Q 24.65625 6.203125 33.40625 6.203125 
Q 37.3125 6.203125 41.140625 7.25 
Q 44.96875 8.296875 48.78125 10.40625 
L 48.78125 2.09375 
Q 45.015625 0.34375 40.984375 -0.53125 
Q 36.96875 -1.421875 32.421875 -1.421875 
Q 20.0625 -1.421875 12.78125 6.34375 
Q 5.515625 14.109375 5.515625 27.296875 
Q 5.515625 40.671875 12.859375 48.328125 
Q 20.21875 56 33.015625 56 
Q 37.15625 56 41.109375 55.140625 
Q 45.0625 54.296875 48.78125 52.59375 
z
" id="DejaVuSans-99"/>
      <path d="M 9.421875 54.6875 
L 18.40625 54.6875 
L 18.40625 0 
L 9.421875 0 
z
M 9.421875 75.984375 
L 18.40625 75.984375 
L 18.40625 64.59375 
L 9.421875 64.59375 
z
" id="DejaVuSans-105"/>
      <path d="M 18.3125 70.21875 
L 18.3125 54.6875 
L 36.8125 54.6875 
L 36.8125 47.703125 
L 18.3125 47.703125 
L 18.3125 18.015625 
Q 18.3125 11.328125 20.140625 9.421875 
Q 21.96875 7.515625 27.59375 7.515625 
L 36.8125 7.515625 
L 36.8125 0 
L 27.59375 0 
Q 17.1875 0 13.234375 3.875 
Q 9.28125 7.765625 9.28125 18.015625 
L 9.28125 47.703125 
L 2.6875 47.703125 
L 2.6875 54.6875 
L 9.28125 54.6875 
L 9.28125 70.21875 
z
" id="DejaVuSans-116"/>
      <path d="M 32.171875 -5.078125 
Q 28.375 -14.84375 24.75 -17.8125 
Q 21.140625 -20.796875 15.09375 -20.796875 
L 7.90625 -20.796875 
L 7.90625 -13.28125 
L 13.1875 -13.28125 
Q 16.890625 -13.28125 18.9375 -11.515625 
Q 21 -9.765625 23.484375 -3.21875 
L 25.09375 0.875 
L 2.984375 54.6875 
L 12.5 54.6875 
L 29.59375 11.921875 
L 46.6875 54.6875 
L 56.203125 54.6875 
z
" id="DejaVuSans-121"/>
      <path id="DejaVuSans-32"/>
      <path d="M 31 75.875 
Q 24.46875 64.65625 21.28125 53.65625 
Q 18.109375 42.671875 18.109375 31.390625 
Q 18.109375 20.125 21.3125 9.0625 
Q 24.515625 -2 31 -13.1875 
L 23.1875 -13.1875 
Q 15.875 -1.703125 12.234375 9.375 
Q 8.59375 20.453125 8.59375 31.390625 
Q 8.59375 42.28125 12.203125 53.3125 
Q 15.828125 64.359375 23.1875 75.875 
z
" id="DejaVuSans-40"/>
      <path d="M 52 44.1875 
Q 55.375 50.25 60.0625 53.125 
Q 64.75 56 71.09375 56 
Q 79.640625 56 84.28125 50.015625 
Q 88.921875 44.046875 88.921875 33.015625 
L 88.921875 0 
L 79.890625 0 
L 79.890625 32.71875 
Q 79.890625 40.578125 77.09375 44.375 
Q 74.3125 48.1875 68.609375 48.1875 
Q 61.625 48.1875 57.5625 43.546875 
Q 53.515625 38.921875 53.515625 30.90625 
L 53.515625 0 
L 44.484375 0 
L 44.484375 32.71875 
Q 44.484375 40.625 41.703125 44.40625 
Q 38.921875 48.1875 33.109375 48.1875 
Q 26.21875 48.1875 22.15625 43.53125 
Q 18.109375 38.875 18.109375 30.90625 
L 18.109375 0 
L 9.078125 0 
L 9.078125 54.6875 
L 18.109375 54.6875 
L 18.109375 46.1875 
Q 21.1875 51.21875 25.484375 53.609375 
Q 29.78125 56 35.6875 56 
Q 41.65625 56 45.828125 52.96875 
Q 50 49.953125 52 44.1875 
z
" id="DejaVuSans-109"/>
      <path d="M 25.390625 72.90625 
L 33.6875 72.90625 
L 8.296875 -9.28125 
L 0 -9.28125 
z
" id="DejaVuSans-47"/>
      <path d="M 44.28125 53.078125 
L 44.28125 44.578125 
Q 40.484375 46.53125 36.375 47.5 
Q 32.28125 48.484375 27.875 48.484375 
Q 21.1875 48.484375 17.84375 46.4375 
Q 14.5 44.390625 14.5 40.28125 
Q 14.5 37.15625 16.890625 35.375 
Q 19.28125 33.59375 26.515625 31.984375 
L 29.59375 31.296875 
Q 39.15625 29.25 43.1875 25.515625 
Q 47.21875 21.78125 47.21875 15.09375 
Q 47.21875 7.46875 41.1875 3.015625 
Q 35.15625 -1.421875 24.609375 -1.421875 
Q 20.21875 -1.421875 15.453125 -0.5625 
Q 10.6875 0.296875 5.421875 2 
L 5.421875 11.28125 
Q 10.40625 8.6875 15.234375 7.390625 
Q 20.0625 6.109375 24.8125 6.109375 
Q 31.15625 6.109375 34.5625 8.28125 
Q 37.984375 10.453125 37.984375 14.40625 
Q 37.984375 18.0625 35.515625 20.015625 
Q 33.0625 21.96875 24.703125 23.78125 
L 21.578125 24.515625 
Q 13.234375 26.265625 9.515625 29.90625 
Q 5.8125 33.546875 5.8125 39.890625 
Q 5.8125 47.609375 11.28125 51.796875 
Q 16.75 56 26.8125 56 
Q 31.78125 56 36.171875 55.265625 
Q 40.578125 54.546875 44.28125 53.078125 
z
" id="DejaVuSans-115"/>
      <path d="M 8.015625 75.875 
L 15.828125 75.875 
Q 23.140625 64.359375 26.78125 53.3125 
Q 30.421875 42.28125 30.421875 31.390625 
Q 30.421875 20.453125 26.78125 9.375 
Q 23.140625 -1.703125 15.828125 -13.1875 
L 8.015625 -13.1875 
Q 14.5 -2 17.703125 9.0625 
Q 20.90625 20.125 20.90625 31.390625 
Q 20.90625 42.671875 17.703125 53.65625 
Q 14.5 64.65625 8.015625 75.875 
z
" id="DejaVuSans-41"/>
     </defs>
     <g transform="translate(33.520781 232.779562)rotate(-90)scale(0.17 -0.17)">
      <use xlink:href="#DejaVuSans-86"/>
      <use x="60.658203" xlink:href="#DejaVuSans-101"/>
      <use x="122.181641" xlink:href="#DejaVuSans-108"/>
      <use x="149.964844" xlink:href="#DejaVuSans-111"/>
      <use x="211.146484" xlink:href="#DejaVuSans-99"/>
      <use x="266.126953" xlink:href="#DejaVuSans-105"/>
      <use x="293.910156" xlink:href="#DejaVuSans-116"/>
      <use x="333.119141" xlink:href="#DejaVuSans-121"/>
      <use x="392.298828" xlink:href="#DejaVuSans-32"/>
      <use x="424.085938" xlink:href="#DejaVuSans-40"/>
      <use x="463.099609" xlink:href="#DejaVuSans-109"/>
      <use x="560.511719" xlink:href="#DejaVuSans-47"/>
      <use x="594.203125" xlink:href="#DejaVuSans-115"/>
      <use x="646.302734" xlink:href="#DejaVuSans-41"/>
     </g>
    </g>
   </g>
   <g id="line2d_10">
    <path clip-path="url(#pc3487e5a51)" d="M 199.738714 295.488 
L 196.383702 293.832512 
L 192.113686 292.177024 
L 195.468699 290.521537 
L 192.113686 288.866049 
L 196.383702 287.210561 
L 197.298705 285.555073 
L 198.51871 283.899585 
L 198.213708 282.244097 
L 199.128712 280.58861 
L 197.603706 278.933122 
L 193.943693 277.277634 
L 197.298705 275.622146 
L 196.688703 273.966658 
L 196.993704 272.31117 
L 195.468699 270.655683 
L 194.553695 269.000195 
L 193.638692 267.344707 
L 196.383702 265.689219 
L 195.7737 264.033731 
L 195.163697 262.378243 
L 194.553695 260.722756 
L 192.113686 259.067268 
L 195.163697 257.41178 
L 193.638692 255.756292 
L 191.503684 254.100804 
L 192.723689 252.445316 
L 196.993704 250.789829 
L 191.198683 249.134341 
L 192.113686 247.478853 
L 193.02869 245.823365 
L 191.503684 244.167877 
L 189.368676 242.51239 
L 191.808685 240.856902 
L 190.588681 239.201414 
L 192.113686 237.545926 
L 188.453673 235.890438 
L 189.978679 234.23495 
L 188.453673 232.579463 
L 186.318665 230.923975 
L 186.928668 229.268487 
L 184.183658 227.612999 
L 190.28368 225.957511 
L 186.623667 224.302023 
L 190.588681 222.646536 
L 183.878657 220.991048 
L 175.948628 219.33556 
L 187.843671 217.680072 
L 181.743649 216.024584 
L 181.438648 214.369096 
L 179.30364 212.713609 
L 177.168632 211.058121 
L 179.608641 209.402633 
L 177.778635 207.747145 
L 175.338626 206.091657 
L 175.643627 204.436169 
L 176.253629 202.780682 
L 169.543605 201.125194 
L 173.203618 199.469706 
L 171.983614 197.814218 
L 164.663587 196.15873 
L 168.628601 194.503242 
L 166.493594 192.847755 
L 161.003574 191.192267 
L 164.663587 189.536779 
L 160.698573 187.881291 
L 155.208553 186.225803 
L 161.918577 184.570316 
L 146.668522 182.914828 
L 155.208553 181.25934 
L 152.768544 179.603852 
L 141.483503 177.948364 
L 137.82349 176.292876 
L 142.703508 174.637389 
L 131.723468 172.981901 
L 133.248473 171.326413 
L 128.978458 169.670925 
L 116.168412 168.015437 
L 111.593395 166.359949 
L 120.743428 164.704462 
L 117.998418 163.048974 
L 110.983393 161.393486 
L 98.173347 159.737998 
L 103.053364 158.08251 
L 119.828425 156.427022 
L 144.533514 154.771535 
L 153.378546 153.116047 
L 175.948628 151.460559 
L 182.353651 149.805071 
L 175.643627 148.149583 
L 171.373611 146.494095 
L 180.218643 144.838608 
L 181.743649 143.18312 
L 184.488659 141.527632 
L 190.893682 139.872144 
L 201.26372 138.216656 
L 200.348716 136.561169 
L 200.958718 134.905681 
L 204.923733 133.250193 
" style="fill:none;stroke:#5a0003;stroke-linecap:square;stroke-width:3;"/>
   </g>
   <g id="line2d_11">
    <path clip-path="url(#pc3487e5a51)" d="M 204.28249 295.488 
L 204.046311 293.241207 
L 201.920698 290.994415 
L 203.810132 288.747622 
L 200.975982 286.50083 
L 201.44834 284.254037 
L 201.212161 282.007245 
L 206.171923 279.760452 
L 207.11664 277.51366 
L 206.880461 275.266867 
L 208.533715 273.020074 
L 207.352819 270.773282 
L 198.61419 268.526489 
L 200.267444 266.279697 
L 203.573952 264.032904 
L 200.503623 261.786112 
L 204.518669 259.539319 
L 205.227207 257.292527 
L 207.352819 255.045734 
L 206.880461 252.798941 
L 207.825177 250.552149 
L 207.11664 248.305356 
L 207.825177 246.058564 
L 209.006073 243.811771 
L 209.242252 241.564979 
L 210.895506 239.318186 
L 210.423148 237.071394 
L 211.131685 234.824601 
L 211.367865 232.577808 
L 210.186969 230.331016 
L 211.840223 228.084223 
L 211.131685 225.837431 
L 211.840223 223.590638 
L 211.131685 221.343846 
L 209.71461 219.097053 
L 203.101594 216.850261 
L 196.488578 214.603468 
L 192.237353 212.356675 
L 200.975982 210.109883 
L 201.44834 207.86309 
L 201.920698 205.616298 
L 202.629236 203.369505 
L 205.935744 201.122713 
L 200.739803 198.87592 
L 199.558907 196.629128 
L 199.558907 194.382335 
L 190.820278 192.135542 
L 176.885708 189.88875 
L 203.337773 187.641957 
L 175.704812 185.395165 
L 145.001522 183.148372 
L 178.066604 180.90158 
L 190.584099 178.654787 
L 192.473532 176.407994 
L 189.875561 174.161202 
L 140.986476 171.914409 
L 149.961284 169.667617 
L 173.343021 167.420824 
L 179.247499 165.174032 
L 191.764995 162.927239 
L 129.177519 160.680447 
L 155.629584 158.433654 
L 189.875561 156.186861 
L 198.850369 153.940069 
L 198.141832 151.693276 
L 92.33357 149.446484 
L 187.041412 147.199691 
L 191.292636 144.952899 
L 200.739803 142.706106 
L 104.378707 140.459314 
L 168.383258 138.212521 
L 190.111741 135.965728 
L 204.28249 133.718936 
L 82.177867 131.472143 
L 178.775141 129.225351 
L 200.739803 126.978558 
L 163.423496 124.731766 
L 92.097391 122.484973 
L 191.056457 120.238181 
L 161.770242 117.991388 
L 85.012017 115.744595 
L 171.453587 113.497803 
L 80.288434 111.25101 
L 167.9109 109.004218 
L 100.599841 106.757425 
L 151.378359 104.510633 
L 103.197812 102.26384 
L 136.971431 100.017048 
L 120.43889 97.770255 
L 191.528816 95.523462 
L 196.252399 93.27667 
L 200.031265 91.029877 
L 204.991027 88.783085 
L 204.754848 86.536292 
L 206.408102 84.2895 
L 204.046311 82.042707 
L 208.061356 79.795915 
L 209.242252 77.549122 
L 211.604044 75.302329 
" style="fill:none;stroke:#ffcc7b;stroke-dasharray:1.5,2.475;stroke-dashoffset:0;stroke-width:1.5;"/>
   </g>
   <g id="line2d_12">
    <path clip-path="url(#pc3487e5a51)" d="M 201.109206 295.488 
L 201.337997 293.230409 
L 197.448549 290.972817 
L 198.821295 288.715226 
L 197.219758 286.457635 
L 199.050086 284.200044 
L 199.278878 281.942452 
L 203.625908 279.684861 
L 207.744148 277.42727 
L 205.685028 275.169678 
L 205.685028 272.912087 
L 204.08349 270.654496 
L 198.821295 268.396904 
L 195.389429 266.139313 
L 198.134922 263.881722 
L 196.533385 261.624131 
L 202.481953 259.366539 
L 205.456237 257.108948 
L 206.828983 254.851357 
L 207.286565 252.593765 
L 207.744148 250.336174 
L 208.888103 248.078583 
L 208.888103 245.820991 
L 209.345685 243.5634 
L 208.888103 241.305809 
L 210.032058 239.048218 
L 207.286565 236.790626 
L 210.947223 234.533035 
L 211.404805 232.275444 
L 211.633596 230.017852 
L 211.176014 227.760261 
L 212.091178 225.50267 
L 211.862387 223.245079 
L 211.176014 220.987487 
L 211.633596 218.729896 
L 186.008995 216.472305 
L 191.957563 214.214713 
L 190.813608 211.957122 
L 201.566788 209.699531 
L 205.685028 207.441939 
L 208.659312 205.184348 
L 208.888103 202.926757 
L 209.116894 200.669166 
L 208.20173 198.411574 
L 207.286565 196.153983 
L 204.998655 193.896392 
L 187.610532 191.6388 
L 190.127234 189.381209 
L 192.415145 187.123618 
L 141.165943 184.866027 
L 145.741764 182.608435 
L 183.263502 180.350844 
L 184.178666 178.093253 
L 183.263502 175.835661 
L 194.016683 173.57807 
L 107.533654 171.320479 
L 175.713396 169.062887 
L 179.602845 166.805296 
L 189.21207 164.547705 
L 199.73646 162.290114 
L 97.466846 160.032522 
L 190.356025 157.774931 
L 194.931847 155.51734 
L 197.219758 153.259748 
L 107.076071 151.002157 
L 175.942187 148.744566 
L 192.415145 146.486974 
L 198.134922 144.229383 
L 115.083759 141.971792 
L 167.019335 139.714201 
L 187.381741 137.456609 
L 205.456237 135.199018 
L 106.618489 132.941427 
L 157.638901 130.683835 
L 200.194042 128.426244 
L 196.533385 126.168653 
L 64.978512 123.911062 
L 191.957563 121.65347 
L 184.865039 119.395879 
L 69.096752 117.138288 
L 180.975591 114.880696 
L 148.716048 112.623105 
L 94.263771 110.365514 
L 157.181318 108.107922 
L 99.525966 105.850331 
L 128.124851 103.59274 
L 152.376706 101.335149 
L 82.595426 99.077557 
L 158.782856 96.819966 
L 201.109206 94.562375 
L 206.600192 92.304783 
L 209.116894 90.047192 
L 210.947223 87.789601 
L 211.404805 85.53201 
L 210.947223 83.274418 
L 211.176014 81.016827 
L 211.862387 78.759236 
L 211.633596 76.501644 
L 211.862387 74.244053 
" style="fill:none;stroke:#e6a346;stroke-dasharray:5.55,2.4;stroke-dashoffset:0;stroke-width:1.5;"/>
   </g>
   <g id="line2d_13">
    <path clip-path="url(#pc3487e5a51)" d="M 192.168062 295.488 
L 212.54876 293.019429 
L 212.124162 290.550857 
L 212.336461 288.082286 
L 210.63807 285.613714 
L 211.274967 283.145143 
L 207.241287 280.676571 
L 208.939678 278.208 
L 207.028988 275.739429 
L 206.60439 273.270857 
L 206.179792 270.802286 
L 207.241287 268.333714 
L 208.51508 265.865143 
L 207.453586 263.396571 
L 206.392091 260.928 
L 205.118297 258.459429 
L 206.179792 255.990857 
L 205.542895 253.522286 
L 204.6937 251.053714 
L 207.028988 248.585143 
L 202.995308 246.116571 
L 202.783009 243.648 
L 204.481401 241.179429 
L 200.447721 238.710857 
L 197.263237 236.242286 
L 199.173927 233.773714 
L 199.598525 231.305143 
L 197.475535 228.836571 
L 192.59266 226.368 
L 194.291051 223.899429 
L 198.324731 221.430857 
L 192.804959 218.962286 
L 190.681969 216.493714 
L 188.346681 214.025143 
L 190.894268 211.556571 
L 193.441856 209.088 
L 194.078752 206.619429 
L 183.039207 204.150857 
L 187.709784 201.682286 
L 187.709784 199.213714 
L 188.346681 196.745143 
L 181.765414 194.276571 
L 182.190012 191.808 
L 178.793229 189.339429 
L 169.452075 186.870857 
L 173.910353 184.402286 
L 172.42426 181.933714 
L 184.100702 179.465143 
L 170.088972 176.996571 
L 179.642424 174.528 
L 180.703919 172.059429 
L 184.100702 169.590857 
L 183.676104 167.122286 
L 183.463805 164.653714 
L 176.245641 162.185143 
L 178.58093 159.716571 
L 179.854723 157.248 
L 174.971848 154.779429 
L 177.944033 152.310857 
L 176.670239 149.842286 
L 170.725869 147.373714 
L 164.993797 144.905143 
L 172.42426 142.436571 
L 167.541385 139.968 
L 159.261726 137.499429 
L 156.714139 135.030857 
L 160.747819 132.562286 
L 164.781499 130.093714 
L 147.585284 127.625143 
L 153.529655 125.156571 
L 147.372985 122.688 
L 149.920573 120.219429 
L 147.585284 117.750857 
L 163.295406 115.282286 
L 169.239776 112.813714 
L 175.821043 110.345143 
L 174.334951 107.876571 
L 175.184147 105.408 
L 176.882538 102.939429 
L 173.910353 100.470857 
L 180.49162 98.002286 
L 183.676104 95.533714 
L 179.005528 93.065143 
L 184.737599 90.596571 
L 185.586795 88.128 
L 181.340816 85.659429 
L 191.955763 83.190857 
L 194.715649 80.722286 
L 193.866453 78.253714 
L 192.804959 75.785143 
L 200.235422 73.316571 
L 195.352546 70.848 
L 202.57071 68.379429 
L 200.872319 65.910857 
L 197.900133 63.442286 
L 202.995308 60.973714 
L 208.090483 58.505143 
L 210.213472 56.036571 
L 211.911864 53.568 
" style="fill:none;stroke:#b45a28;stroke-dasharray:9.6,2.4,1.5,2.4;stroke-dashoffset:0;stroke-width:1.5;"/>
   </g>
   <g id="line2d_14">
    <path clip-path="url(#pc3487e5a51)" d="M 208.272502 295.488 
L 208.947701 293.191674 
L 207.372237 290.895347 
L 206.697039 288.599021 
L 205.346641 286.302694 
L 201.745582 284.006368 
L 191.842669 281.710042 
L 206.246906 279.413715 
L 208.497568 277.117389 
L 206.697039 274.821062 
L 206.922105 272.524736 
L 206.922105 270.22841 
L 201.745582 267.932083 
L 201.520516 265.635757 
L 200.845317 263.33943 
L 206.922105 261.043104 
L 206.922105 258.746778 
L 203.095979 256.450451 
L 194.993596 254.154125 
L 204.446377 251.857798 
L 205.121575 249.561472 
L 203.546112 247.265146 
L 203.095979 244.968819 
L 205.796774 242.672493 
L 206.246906 240.376166 
L 204.446377 238.07984 
L 205.571708 235.783514 
L 206.697039 233.487187 
L 205.121575 231.190861 
L 206.697039 228.894534 
L 205.121575 226.598208 
L 205.796774 224.301882 
L 206.471973 222.005555 
L 205.796774 219.709229 
L 203.095979 217.412902 
L 198.594655 215.116576 
L 203.095979 212.82025 
L 195.218662 210.523923 
L 200.395185 208.227597 
L 197.919456 205.93127 
L 198.819721 203.634944 
L 179.914159 201.338618 
L 191.392536 199.042291 
L 196.343993 196.745965 
L 194.768529 194.449638 
L 192.067735 192.153312 
L 183.965351 189.856986 
L 194.318397 187.560659 
L 190.942404 185.264333 
L 184.415483 182.968006 
L 179.23896 180.67168 
L 160.783531 178.375354 
L 151.555816 176.079027 
L 162.358994 173.782701 
L 164.609656 171.486374 
L 168.885915 169.190048 
L 177.663497 166.893722 
L 166.860319 164.597395 
L 171.136577 162.301069 
L 177.663497 160.004742 
L 167.760583 157.708416 
L 154.481677 155.41209 
L 173.162173 153.115763 
L 176.538166 150.819437 
L 174.737636 148.52311 
L 158.307802 146.226784 
L 171.361643 143.930458 
L 166.635252 141.634131 
L 162.133928 139.337805 
L 168.210716 137.041478 
L 153.356346 134.745152 
L 161.008597 132.448826 
L 161.233663 130.152499 
L 153.131279 127.856173 
L 150.655551 125.559846 
L 137.601711 123.26352 
L 143.0033 120.967194 
L 134.225717 118.670867 
L 132.650254 116.374541 
L 146.829425 114.078214 
L 160.558465 111.781888 
L 161.683796 109.485562 
L 167.760583 107.189235 
L 171.811775 104.892909 
L 169.336047 102.596582 
L 182.614954 100.300256 
L 170.236312 98.00393 
L 180.139225 95.707603 
L 176.538166 93.411277 
L 168.660848 91.11495 
L 179.23896 88.818624 
L 195.443728 86.522298 
L 199.044787 84.225971 
L 198.819721 81.929645 
L 205.796774 79.633319 
L 204.896509 77.336992 
L 205.796774 75.040666 
L 207.597304 72.744339 
L 206.02184 70.448013 
" style="fill:none;stroke:#7d1e0b;stroke-linecap:square;stroke-width:1.5;"/>
   </g>
   <g id="patch_3">
    <path d="M 57.6 307.584 
L 57.6 41.472 
" style="fill:none;stroke:#000000;stroke-linecap:square;stroke-linejoin:miter;stroke-width:0.8;"/>
   </g>
   <g id="patch_4">
    <path d="M 219.927273 307.584 
L 219.927273 41.472 
" style="fill:none;stroke:#000000;stroke-linecap:square;stroke-linejoin:miter;stroke-width:0.8;"/>
   </g>
   <g id="patch_5">
    <path d="M 57.6 307.584 
L 219.927273 307.584 
" style="fill:none;stroke:#000000;stroke-linecap:square;stroke-linejoin:miter;stroke-width:0.8;"/>
   </g>
   <g id="patch_6">
    <path d="M 57.6 41.472 
L 219.927273 41.472 
" style="fill:none;stroke:#000000;stroke-linecap:square;stroke-linejoin:miter;stroke-width:0.8;"/>
   </g>
  </g>
  <g id="axes_2">
   <g id="patch_7">
    <path d="M 252.392727 307.584 
L 414.72 307.584 
L 414.72 41.472 
L 252.392727 41.472 
z
" style="fill:#ffffff;"/>
   </g>
   <g id="matplotlib.axis_3">
    <g id="xtick_5">
     <g id="line2d_15">
      <g>
       <use style="stroke:#000000;stroke-width:0.8;" x="259.531432" xlink:href="#m755def69d9" y="307.584"/>
      </g>
     </g>
     <g id="text_12">
      <!-- 0.0 -->
      <g transform="translate(247.604088 325.981656)scale(0.15 -0.15)">
       <use xlink:href="#DejaVuSans-48"/>
       <use x="63.623047" xlink:href="#DejaVuSans-46"/>
       <use x="95.410156" xlink:href="#DejaVuSans-48"/>
      </g>
     </g>
    </g>
    <g id="xtick_6">
     <g id="line2d_16">
      <g>
       <use style="stroke:#000000;stroke-width:0.8;" x="333.43646" xlink:href="#m755def69d9" y="307.584"/>
      </g>
     </g>
     <g id="text_13">
      <!-- 0.5 -->
      <g transform="translate(321.509116 325.981656)scale(0.15 -0.15)">
       <use xlink:href="#DejaVuSans-48"/>
       <use x="63.623047" xlink:href="#DejaVuSans-46"/>
       <use x="95.410156" xlink:href="#DejaVuSans-53"/>
      </g>
     </g>
    </g>
    <g id="xtick_7">
     <g id="line2d_17">
      <g>
       <use style="stroke:#000000;stroke-width:0.8;" x="407.341488" xlink:href="#m755def69d9" y="307.584"/>
      </g>
     </g>
     <g id="text_14">
      <!-- 1.0 -->
      <g transform="translate(395.414144 325.981656)scale(0.15 -0.15)">
       <use xlink:href="#DejaVuSans-49"/>
       <use x="63.623047" xlink:href="#DejaVuSans-46"/>
       <use x="95.410156" xlink:href="#DejaVuSans-48"/>
      </g>
     </g>
    </g>
    <g id="text_15">
     <!-- CDF -->
     <defs>
      <path d="M 64.40625 67.28125 
L 64.40625 56.890625 
Q 59.421875 61.53125 53.78125 63.8125 
Q 48.140625 66.109375 41.796875 66.109375 
Q 29.296875 66.109375 22.65625 58.46875 
Q 16.015625 50.828125 16.015625 36.375 
Q 16.015625 21.96875 22.65625 14.328125 
Q 29.296875 6.6875 41.796875 6.6875 
Q 48.140625 6.6875 53.78125 8.984375 
Q 59.421875 11.28125 64.40625 15.921875 
L 64.40625 5.609375 
Q 59.234375 2.09375 53.4375 0.328125 
Q 47.65625 -1.421875 41.21875 -1.421875 
Q 24.65625 -1.421875 15.125 8.703125 
Q 5.609375 18.84375 5.609375 36.375 
Q 5.609375 53.953125 15.125 64.078125 
Q 24.65625 74.21875 41.21875 74.21875 
Q 47.75 74.21875 53.53125 72.484375 
Q 59.328125 70.75 64.40625 67.28125 
z
" id="DejaVuSans-67"/>
     </defs>
     <g transform="translate(316.187145 346.018531)scale(0.17 -0.17)">
      <use xlink:href="#DejaVuSans-67"/>
      <use x="69.824219" xlink:href="#DejaVuSans-68"/>
      <use x="146.826172" xlink:href="#DejaVuSans-70"/>
     </g>
    </g>
   </g>
   <g id="matplotlib.axis_4"/>
   <g id="line2d_18">
    <path clip-path="url(#pcf13d2f117)" d="M 260.049328 295.488 
L 260.702864 293.832512 
L 261.529032 292.177024 
L 262.21956 290.521537 
L 263.045728 288.866049 
L 263.699263 287.210561 
L 264.315807 285.555073 
L 264.883026 283.899585 
L 265.462577 282.244097 
L 266.005135 280.58861 
L 266.609347 278.933122 
L 267.36153 277.277634 
L 267.978073 275.622146 
L 268.619278 273.966658 
L 269.248152 272.31117 
L 269.93868 270.655683 
L 270.666201 269.000195 
L 271.430715 267.344707 
L 272.08425 265.689219 
L 272.762448 264.033731 
L 273.465307 262.378243 
L 274.192828 260.722756 
L 275.018996 259.067268 
L 275.721855 257.41178 
L 276.486368 255.756292 
L 277.337198 254.100804 
L 278.138704 252.445316 
L 278.767578 250.789829 
L 279.630739 249.134341 
L 280.456906 247.478853 
L 281.246082 245.823365 
L 282.096911 244.167877 
L 283.034057 242.51239 
L 283.872555 240.856902 
L 284.760378 239.201414 
L 285.586545 237.545926 
L 286.560684 235.890438 
L 287.473167 234.23495 
L 288.447306 232.579463 
L 289.50776 230.923975 
L 290.543552 229.268487 
L 291.690323 227.612999 
L 292.590476 225.957511 
L 293.638599 224.302023 
L 294.526421 222.646536 
L 295.685522 220.991048 
L 297.165226 219.33556 
L 298.164026 217.680072 
L 299.409443 216.024584 
L 300.667191 214.369096 
L 302.011255 212.713609 
L 303.441635 211.058121 
L 304.773368 209.402633 
L 306.179087 207.747145 
L 307.683452 206.091657 
L 309.175487 204.436169 
L 310.642859 202.780682 
L 312.381511 201.125194 
L 313.972192 199.469706 
L 315.612197 197.814218 
L 317.548143 196.15873 
L 319.323787 194.503242 
L 321.185747 192.847755 
L 323.269663 191.192267 
L 325.205609 189.536779 
L 327.301855 187.881291 
L 329.620058 186.225803 
L 331.666981 184.570316 
L 334.330447 182.914828 
L 336.648649 181.25934 
L 339.065499 179.603852 
L 341.93859 177.948364 
L 344.959651 176.292876 
L 347.783419 174.637389 
L 351.051098 172.981901 
L 354.257122 171.326413 
L 357.635778 169.670925 
L 361.532331 168.015437 
L 365.613847 166.359949 
L 369.325437 164.704462 
L 373.148004 163.048974 
L 377.254182 161.393486 
L 381.878255 159.737998 
L 386.305035 158.08251 
L 390.053618 156.427022 
L 392.8034 154.771535 
L 395.195587 153.116047 
L 396.675291 151.460559 
L 397.896046 149.805071 
L 399.388081 148.149583 
L 401.052747 146.494095 
L 402.359819 144.838608 
L 403.605236 143.18312 
L 404.739675 141.527632 
L 405.615167 139.872144 
L 406.071409 138.216656 
L 406.564643 136.561169 
L 407.033216 134.905681 
L 407.341488 133.250193 
" style="fill:none;stroke:#5a0003;stroke-linecap:square;stroke-width:3;"/>
   </g>
   <g id="line2d_19">
    <path clip-path="url(#pcf13d2f117)" d="M 259.984996 295.488 
L 260.451519 293.241207 
L 261.034673 290.994415 
L 261.514155 288.747622 
L 262.149144 286.50083 
L 262.758216 284.254037 
L 263.380247 282.007245 
L 263.730139 279.760452 
L 264.028196 277.51366 
L 264.339211 275.266867 
L 264.559514 273.020074 
L 264.844611 270.773282 
L 265.60919 268.526489 
L 266.283057 266.279697 
L 266.775498 264.032904 
L 267.436406 261.786112 
L 267.877011 259.539319 
L 268.278739 257.292527 
L 268.563836 255.045734 
L 268.874852 252.798941 
L 269.134031 250.552149 
L 269.432088 248.305356 
L 269.691267 246.058564 
L 269.885652 243.811771 
L 270.067077 241.564979 
L 270.15779 239.318186 
L 270.274421 237.071394 
L 270.352175 234.824601 
L 270.41697 232.577808 
L 270.546559 230.331016 
L 270.585436 228.084223 
L 270.66319 225.837431 
L 270.702067 223.590638 
L 270.779821 221.343846 
L 270.935329 219.097053 
L 271.453688 216.850261 
L 272.334898 214.603468 
L 273.44937 212.356675 
L 274.084359 210.109883 
L 274.693431 207.86309 
L 275.276585 205.616298 
L 275.820862 203.369505 
L 276.183713 201.122713 
L 276.831662 198.87592 
L 277.544405 196.629128 
L 278.257149 194.382335 
L 279.449375 192.135542 
L 281.40618 189.88875 
L 281.91158 187.641957 
L 283.933179 185.395165 
L 287.639446 183.148372 
L 289.531456 180.90158 
L 290.736641 178.654787 
L 291.838154 176.407994 
L 293.082215 174.161202 
L 297.008784 171.914409 
L 300.442912 169.667617 
L 302.594102 167.420824 
L 304.421317 165.174032 
L 305.561707 162.927239 
L 310.136225 160.680447 
L 313.259337 158.433654 
L 314.503399 156.186861 
L 315.255019 153.940069 
L 316.045517 151.693276 
L 322.641634 149.446484 
L 324.041204 147.199691 
L 325.207511 144.952899 
L 325.85546 142.706106 
L 331.79067 140.459314 
L 334.213998 138.212521 
L 335.445101 135.965728 
L 335.898665 133.718936 
L 343.052018 131.472143 
L 344.905152 129.225351 
L 345.5531 126.978558 
L 348.248567 124.731766 
L 354.857643 122.484973 
L 356.03691 120.238181 
L 358.823089 117.991388 
L 365.820935 115.744595 
L 368.075797 113.497803 
L 375.332822 111.25101 
L 377.782068 109.004218 
L 383.924622 106.757425 
L 387.280996 104.510633 
L 393.281001 102.26384 
L 397.427873 100.017048 
L 402.481872 97.770255 
L 403.635221 95.523462 
L 404.52939 93.27667 
L 405.216216 91.029877 
L 405.630903 88.783085 
L 406.058549 86.536292 
L 406.395483 84.2895 
L 406.862006 82.042707 
L 407.108226 79.795915 
L 407.289652 77.549122 
L 407.341488 75.302329 
" style="fill:none;stroke:#ffcc7b;stroke-dasharray:1.5,2.475;stroke-dashoffset:0;stroke-width:1.5;"/>
   </g>
   <g id="line2d_20">
    <path clip-path="url(#pcf13d2f117)" d="M 260.162128 295.488 
L 260.780211 293.230409 
L 261.61273 290.972817 
L 262.369566 288.715226 
L 263.2147 286.457635 
L 263.958922 284.200044 
L 264.69053 281.942452 
L 265.182473 279.684861 
L 265.447366 277.42727 
L 265.825784 275.169678 
L 266.204202 272.912087 
L 266.670917 270.654496 
L 267.427753 268.396904 
L 268.373798 266.139313 
L 269.168476 263.881722 
L 270.051451 261.624131 
L 270.606464 259.366539 
L 270.997496 257.108948 
L 271.312844 254.851357 
L 271.602965 252.593765 
L 271.867857 250.336174 
L 272.06968 248.078583 
L 272.271503 245.820991 
L 272.448098 243.5634 
L 272.649921 241.305809 
L 272.788674 239.048218 
L 273.078795 236.790626 
L 273.167092 234.533035 
L 273.230162 232.275444 
L 273.280618 230.017852 
L 273.356301 227.760261 
L 273.381529 225.50267 
L 273.419371 223.245079 
L 273.495054 220.987487 
L 273.54551 218.729896 
L 275.008726 216.472305 
L 276.14398 214.214713 
L 277.342304 211.957122 
L 277.947773 209.699531 
L 278.32619 207.441939 
L 278.540627 205.184348 
L 278.74245 202.926757 
L 278.931659 200.669166 
L 279.171324 198.411574 
L 279.461444 196.153983 
L 279.877704 193.896392 
L 281.252623 191.6388 
L 282.488788 189.381209 
L 283.598814 187.123618 
L 287.534361 184.866027 
L 291.217629 182.608435 
L 292.832212 180.350844 
L 294.39634 178.093253 
L 296.010923 175.835661 
L 297.032652 173.57807 
L 302.822447 171.320479 
L 304.85329 169.062887 
L 306.669696 166.805296 
L 307.956317 164.547705 
L 308.662697 162.290114 
L 315.007505 160.032522 
L 316.231056 157.774931 
L 317.202329 155.51734 
L 318.047463 153.259748 
L 323.862485 151.002157 
L 325.880714 148.744566 
L 326.99074 146.486974 
L 327.785418 144.229383 
L 333.158953 141.971792 
L 335.669126 139.714201 
L 337.056658 137.456609 
L 337.44769 135.199018 
L 343.287941 132.941427 
L 346.315284 130.683835 
L 346.996437 128.426244 
L 347.879412 126.168653 
L 356.015398 123.911062 
L 357.150652 121.65347 
L 358.676938 119.395879 
L 366.585873 117.138288 
L 368.326596 114.880696 
L 371.845883 112.623105 
L 378.367286 110.365514 
L 381.419857 108.107922 
L 387.65114 105.850331 
L 392.305681 103.59274 
L 395.623145 101.335149 
L 402.787858 99.077557 
L 405.752132 96.819966 
L 406.382829 94.562375 
L 406.710791 92.304783 
L 406.9 90.047192 
L 406.988298 87.789601 
L 407.051367 85.53201 
L 407.139665 83.274418 
L 407.215348 81.016827 
L 407.25319 78.759236 
L 407.303646 76.501644 
L 407.341488 74.244053 
" style="fill:none;stroke:#e6a346;stroke-dasharray:5.55,2.4;stroke-dashoffset:0;stroke-width:1.5;"/>
   </g>
   <g id="line2d_21">
    <path clip-path="url(#pcf13d2f117)" d="M 260.760089 295.488 
L 260.760089 293.019429 
L 260.785686 290.550857 
L 260.798485 288.082286 
L 260.913671 285.613714 
L 260.990462 283.145143 
L 261.310425 280.676571 
L 261.528 278.208 
L 261.860762 275.739429 
L 262.21912 273.270857 
L 262.603075 270.802286 
L 262.923038 268.333714 
L 263.16621 265.865143 
L 263.473374 263.396571 
L 263.844531 260.928 
L 264.292479 258.459429 
L 264.676435 255.990857 
L 265.098786 253.522286 
L 265.572331 251.053714 
L 265.905092 248.585143 
L 266.481026 246.116571 
L 267.069757 243.648 
L 267.556101 241.179429 
L 268.285616 238.710857 
L 269.207109 236.242286 
L 270.013416 233.773714 
L 270.794125 231.305143 
L 271.70282 228.836571 
L 272.90588 226.368 
L 274.006553 223.899429 
L 274.864053 221.430857 
L 276.054315 218.962286 
L 277.372562 216.493714 
L 278.831593 214.025143 
L 280.137042 211.556571 
L 281.288908 209.088 
L 282.402379 206.619429 
L 284.181373 204.150857 
L 285.678799 201.682286 
L 287.176225 199.213714 
L 288.635256 196.745143 
L 290.491041 194.276571 
L 292.321229 191.808 
L 294.356192 189.339429 
L 296.954291 186.870857 
L 299.283621 184.402286 
L 301.70254 181.933714 
L 303.417541 179.465143 
L 305.977245 176.996571 
L 307.961014 174.528 
L 309.880792 172.059429 
L 311.595793 169.590857 
L 313.336391 167.122286 
L 315.089788 164.653714 
L 317.278334 162.185143 
L 319.326096 159.716571 
L 321.297068 157.248 
L 323.562405 154.779429 
L 325.648563 152.310857 
L 327.811512 149.842286 
L 330.33282 147.373714 
L 333.199687 144.905143 
L 335.618607 142.436571 
L 338.331892 139.968 
L 341.544319 137.499429 
L 344.910329 135.030857 
L 348.033167 132.562286 
L 350.912833 130.093714 
L 354.829178 127.625143 
L 358.387166 125.156571 
L 362.31631 122.688 
L 366.091872 120.219429 
L 370.008218 117.750857 
L 372.977473 115.282286 
L 375.588371 112.813714 
L 377.802514 110.345143 
L 380.106247 107.876571 
L 382.358785 105.408 
L 384.508936 102.939429 
L 386.838266 100.470857 
L 388.770842 98.002286 
L 390.51144 95.533714 
L 392.533605 93.065143 
L 394.210211 90.596571 
L 395.835622 88.128 
L 397.717004 85.659429 
L 398.95846 83.190857 
L 400.033535 80.722286 
L 401.159805 78.253714 
L 402.350067 75.785143 
L 403.09238 73.316571 
L 404.12906 70.848 
L 404.73059 68.379429 
L 405.434509 65.910857 
L 406.317606 63.442286 
L 406.89354 60.973714 
L 407.162308 58.505143 
L 407.303092 56.036571 
L 407.341488 53.568 
" style="fill:none;stroke:#b45a28;stroke-dasharray:9.6,2.4,1.5,2.4;stroke-dashoffset:0;stroke-width:1.5;"/>
   </g>
   <g id="line2d_22">
    <path clip-path="url(#pcf13d2f117)" d="M 259.77124 295.488 
L 259.973183 293.191674 
L 260.263477 290.895347 
L 260.591635 288.599021 
L 260.995522 286.302694 
L 261.601353 284.006368 
L 262.762528 281.710042 
L 263.11593 279.413715 
L 263.343116 277.117389 
L 263.671274 274.821062 
L 263.986811 272.524736 
L 264.302348 270.22841 
L 264.908179 267.932083 
L 265.526631 265.635757 
L 266.182947 263.33943 
L 266.498484 261.043104 
L 266.814021 258.746778 
L 267.344123 256.450451 
L 268.328598 254.154125 
L 268.782971 251.857798 
L 269.199479 249.561472 
L 269.704338 247.265146 
L 270.23444 244.968819 
L 270.613084 242.672493 
L 270.966485 240.376166 
L 271.420858 238.07984 
L 271.812124 235.783514 
L 272.140282 233.487187 
L 272.556791 231.190861 
L 272.884949 228.894534 
L 273.301457 226.598208 
L 273.680102 224.301882 
L 274.020881 222.005555 
L 274.399525 219.709229 
L 274.929627 217.412902 
L 275.712159 215.116576 
L 276.24226 212.82025 
L 277.214114 210.523923 
L 277.895673 208.227597 
L 278.716069 205.93127 
L 279.485979 203.634944 
L 281.316092 201.338618 
L 282.50251 199.042291 
L 283.411256 196.745965 
L 284.408353 194.449638 
L 285.556906 192.153312 
L 287.159833 189.856986 
L 288.182173 187.560659 
L 289.393834 185.264333 
L 290.971518 182.968006 
L 292.839496 180.67168 
L 295.742434 178.375354 
L 299.162853 176.079027 
L 301.977441 173.782701 
L 304.665815 171.486374 
L 307.11438 169.190048 
L 309.070708 166.893722 
L 311.632867 164.597395 
L 313.955218 162.301069 
L 315.911546 160.004742 
L 318.423219 157.708416 
L 321.679559 155.41209 
L 323.888316 153.115763 
L 325.907752 150.819437 
L 328.028159 148.52311 
L 331.069934 146.226784 
L 333.379663 143.930458 
L 335.954443 141.634131 
L 338.781653 139.337805 
L 341.268083 137.041478 
L 344.58753 134.745152 
L 347.477847 132.448826 
L 350.355543 130.152499 
L 353.687611 127.856173 
L 357.158516 125.559846 
L 361.361466 123.26352 
L 365.261501 120.967194 
L 369.653773 118.670867 
L 374.134395 116.374541 
L 377.819865 114.078214 
L 380.735425 111.781888 
L 383.587878 109.485562 
L 386.099551 107.189235 
L 388.384037 104.892909 
L 390.80736 102.596582 
L 392.486015 100.300256 
L 394.858852 98.00393 
L 396.676344 95.707603 
L 398.695779 93.411277 
L 401.156966 91.11495 
L 403.024944 88.818624 
L 403.984176 86.522298 
L 404.741464 84.225971 
L 405.511374 81.929645 
L 405.890018 79.633319 
L 406.319148 77.336992 
L 406.697793 75.040666 
L 406.975465 72.744339 
L 407.341488 70.448013 
" style="fill:none;stroke:#7d1e0b;stroke-linecap:square;stroke-width:1.5;"/>
   </g>
   <g id="patch_8">
    <path d="M 252.392727 307.584 
L 252.392727 41.472 
" style="fill:none;stroke:#000000;stroke-linecap:square;stroke-linejoin:miter;stroke-width:0.8;"/>
   </g>
   <g id="patch_9">
    <path d="M 414.72 307.584 
L 414.72 41.472 
" style="fill:none;stroke:#000000;stroke-linecap:square;stroke-linejoin:miter;stroke-width:0.8;"/>
   </g>
   <g id="patch_10">
    <path d="M 252.392727 307.584 
L 414.72 307.584 
" style="fill:none;stroke:#000000;stroke-linecap:square;stroke-linejoin:miter;stroke-width:0.8;"/>
   </g>
   <g id="patch_11">
    <path d="M 252.392727 41.472 
L 414.72 41.472 
" style="fill:none;stroke:#000000;stroke-linecap:square;stroke-linejoin:miter;stroke-width:0.8;"/>
   </g>
   <g id="legend_1">
    <g id="patch_12">
     <path d="M 321.294688 301.084 
L 405.62 301.084 
Q 408.22 301.084 408.22 298.484 
L 408.22 225.176187 
Q 408.22 222.576187 405.62 222.576187 
L 321.294688 222.576187 
Q 318.694687 222.576187 318.694687 225.176187 
L 318.694687 298.484 
Q 318.694687 301.084 321.294688 301.084 
z
" style="fill:#ffffff;opacity:0.8;stroke:#cccccc;stroke-linejoin:miter;"/>
    </g>
    <g id="line2d_23">
     <path d="M 323.894687 233.104156 
L 349.894687 233.104156 
" style="fill:none;stroke:#5a0003;stroke-linecap:square;stroke-width:3;"/>
    </g>
    <g id="line2d_24"/>
    <g id="text_16">
     <!-- TS -->
     <defs>
      <path d="M -0.296875 72.90625 
L 61.375 72.90625 
L 61.375 64.59375 
L 35.5 64.59375 
L 35.5 0 
L 25.59375 0 
L 25.59375 64.59375 
L -0.296875 64.59375 
z
" id="DejaVuSans-84"/>
      <path d="M 53.515625 70.515625 
L 53.515625 60.890625 
Q 47.90625 63.578125 42.921875 64.890625 
Q 37.9375 66.21875 33.296875 66.21875 
Q 25.25 66.21875 20.875 63.09375 
Q 16.5 59.96875 16.5 54.203125 
Q 16.5 49.359375 19.40625 46.890625 
Q 22.3125 44.4375 30.421875 42.921875 
L 36.375 41.703125 
Q 47.40625 39.59375 52.65625 34.296875 
Q 57.90625 29 57.90625 20.125 
Q 57.90625 9.515625 50.796875 4.046875 
Q 43.703125 -1.421875 29.984375 -1.421875 
Q 24.8125 -1.421875 18.96875 -0.25 
Q 13.140625 0.921875 6.890625 3.21875 
L 6.890625 13.375 
Q 12.890625 10.015625 18.65625 8.296875 
Q 24.421875 6.59375 29.984375 6.59375 
Q 38.421875 6.59375 43.015625 9.90625 
Q 47.609375 13.234375 47.609375 19.390625 
Q 47.609375 24.75 44.3125 27.78125 
Q 41.015625 30.8125 33.5 32.328125 
L 27.484375 33.5 
Q 16.453125 35.6875 11.515625 40.375 
Q 6.59375 45.0625 6.59375 53.421875 
Q 6.59375 63.09375 13.40625 68.65625 
Q 20.21875 74.21875 32.171875 74.21875 
Q 37.3125 74.21875 42.625 73.28125 
Q 47.953125 72.359375 53.515625 70.515625 
z
" id="DejaVuSans-83"/>
     </defs>
     <g transform="translate(360.294687 237.654156)scale(0.13 -0.13)">
      <use xlink:href="#DejaVuSans-84"/>
      <use x="61.083984" xlink:href="#DejaVuSans-83"/>
     </g>
    </g>
    <g id="line2d_25">
     <path d="M 323.894687 246.985719 
L 349.894687 246.985719 
" style="fill:none;stroke:#ffcc7b;stroke-dasharray:1.5,2.475;stroke-dashoffset:0;stroke-width:1.5;"/>
    </g>
    <g id="line2d_26"/>
    <g id="text_17">
     <!-- RB, n0 -->
     <defs>
      <path d="M 44.390625 34.1875 
Q 47.5625 33.109375 50.5625 29.59375 
Q 53.5625 26.078125 56.59375 19.921875 
L 66.609375 0 
L 56 0 
L 46.6875 18.703125 
Q 43.0625 26.03125 39.671875 28.421875 
Q 36.28125 30.8125 30.421875 30.8125 
L 19.671875 30.8125 
L 19.671875 0 
L 9.8125 0 
L 9.8125 72.90625 
L 32.078125 72.90625 
Q 44.578125 72.90625 50.734375 67.671875 
Q 56.890625 62.453125 56.890625 51.90625 
Q 56.890625 45.015625 53.6875 40.46875 
Q 50.484375 35.9375 44.390625 34.1875 
z
M 19.671875 64.796875 
L 19.671875 38.921875 
L 32.078125 38.921875 
Q 39.203125 38.921875 42.84375 42.21875 
Q 46.484375 45.515625 46.484375 51.90625 
Q 46.484375 58.296875 42.84375 61.546875 
Q 39.203125 64.796875 32.078125 64.796875 
z
" id="DejaVuSans-82"/>
      <path d="M 19.671875 34.8125 
L 19.671875 8.109375 
L 35.5 8.109375 
Q 43.453125 8.109375 47.28125 11.40625 
Q 51.125 14.703125 51.125 21.484375 
Q 51.125 28.328125 47.28125 31.5625 
Q 43.453125 34.8125 35.5 34.8125 
z
M 19.671875 64.796875 
L 19.671875 42.828125 
L 34.28125 42.828125 
Q 41.5 42.828125 45.03125 45.53125 
Q 48.578125 48.25 48.578125 53.8125 
Q 48.578125 59.328125 45.03125 62.0625 
Q 41.5 64.796875 34.28125 64.796875 
z
M 9.8125 72.90625 
L 35.015625 72.90625 
Q 46.296875 72.90625 52.390625 68.21875 
Q 58.5 63.53125 58.5 54.890625 
Q 58.5 48.1875 55.375 44.234375 
Q 52.25 40.28125 46.1875 39.3125 
Q 53.46875 37.75 57.5 32.78125 
Q 61.53125 27.828125 61.53125 20.40625 
Q 61.53125 10.640625 54.890625 5.3125 
Q 48.25 0 35.984375 0 
L 9.8125 0 
z
" id="DejaVuSans-66"/>
      <path d="M 11.71875 12.40625 
L 22.015625 12.40625 
L 22.015625 4 
L 14.015625 -11.625 
L 7.71875 -11.625 
L 11.71875 4 
z
" id="DejaVuSans-44"/>
      <path d="M 54.890625 33.015625 
L 54.890625 0 
L 45.90625 0 
L 45.90625 32.71875 
Q 45.90625 40.484375 42.875 44.328125 
Q 39.84375 48.1875 33.796875 48.1875 
Q 26.515625 48.1875 22.3125 43.546875 
Q 18.109375 38.921875 18.109375 30.90625 
L 18.109375 0 
L 9.078125 0 
L 9.078125 54.6875 
L 18.109375 54.6875 
L 18.109375 46.1875 
Q 21.34375 51.125 25.703125 53.5625 
Q 30.078125 56 35.796875 56 
Q 45.21875 56 50.046875 50.171875 
Q 54.890625 44.34375 54.890625 33.015625 
z
" id="DejaVuSans-110"/>
     </defs>
     <g transform="translate(360.294687 251.535719)scale(0.13 -0.13)">
      <use xlink:href="#DejaVuSans-82"/>
      <use x="69.482422" xlink:href="#DejaVuSans-66"/>
      <use x="138.085938" xlink:href="#DejaVuSans-44"/>
      <use x="169.873047" xlink:href="#DejaVuSans-32"/>
      <use x="201.660156" xlink:href="#DejaVuSans-110"/>
      <use x="265.039062" xlink:href="#DejaVuSans-48"/>
     </g>
    </g>
    <g id="line2d_27">
     <path d="M 323.894687 260.867281 
L 349.894687 260.867281 
" style="fill:none;stroke:#e6a346;stroke-dasharray:5.55,2.4;stroke-dashoffset:0;stroke-width:1.5;"/>
    </g>
    <g id="line2d_28"/>
    <g id="text_18">
     <!-- RB, s0 -->
     <g transform="translate(360.294687 265.417281)scale(0.13 -0.13)">
      <use xlink:href="#DejaVuSans-82"/>
      <use x="69.482422" xlink:href="#DejaVuSans-66"/>
      <use x="138.085938" xlink:href="#DejaVuSans-44"/>
      <use x="169.873047" xlink:href="#DejaVuSans-32"/>
      <use x="201.660156" xlink:href="#DejaVuSans-115"/>
      <use x="253.759766" xlink:href="#DejaVuSans-48"/>
     </g>
    </g>
    <g id="line2d_29">
     <path d="M 323.894687 274.748844 
L 349.894687 274.748844 
" style="fill:none;stroke:#b45a28;stroke-dasharray:9.6,2.4,1.5,2.4;stroke-dashoffset:0;stroke-width:1.5;"/>
    </g>
    <g id="line2d_30"/>
    <g id="text_19">
     <!-- RB, s1 -->
     <g transform="translate(360.294687 279.298844)scale(0.13 -0.13)">
      <use xlink:href="#DejaVuSans-82"/>
      <use x="69.482422" xlink:href="#DejaVuSans-66"/>
      <use x="138.085938" xlink:href="#DejaVuSans-44"/>
      <use x="169.873047" xlink:href="#DejaVuSans-32"/>
      <use x="201.660156" xlink:href="#DejaVuSans-115"/>
      <use x="253.759766" xlink:href="#DejaVuSans-49"/>
     </g>
    </g>
    <g id="line2d_31">
     <path d="M 323.894687 288.630406 
L 349.894687 288.630406 
" style="fill:none;stroke:#7d1e0b;stroke-linecap:square;stroke-width:1.5;"/>
    </g>
    <g id="line2d_32"/>
    <g id="text_20">
     <!-- RB, s2 -->
     <g transform="translate(360.294687 293.180406)scale(0.13 -0.13)">
      <use xlink:href="#DejaVuSans-82"/>
      <use x="69.482422" xlink:href="#DejaVuSans-66"/>
      <use x="138.085938" xlink:href="#DejaVuSans-44"/>
      <use x="169.873047" xlink:href="#DejaVuSans-32"/>
      <use x="201.660156" xlink:href="#DejaVuSans-115"/>
      <use x="253.759766" xlink:href="#DejaVuSans-50"/>
     </g>
    </g>
   </g>
  </g>
 </g>
 <defs>
  <clipPath id="pc3487e5a51">
   <rect height="266.112" width="162.327273" x="57.6" y="41.472"/>
  </clipPath>
  <clipPath id="pcf13d2f117">
   <rect height="266.112" width="162.327273" x="252.392727" y="41.472"/>
  </clipPath>
 </defs>
</svg>
