<?xml version="1.0" encoding="utf-8" standalone="no"?>
<!DOCTYPE svg PUBLIC "-//W3C//DTD SVG 1.1//EN"
  "http://www.w3.org/Graphics/SVG/1.1/DTD/svg11.dtd">
<!-- Created with matplotlib (https://matplotlib.org/) -->
<svg height="345.6pt" version="1.1" viewBox="0 0 460.8 345.6" width="460.8pt" xmlns="http://www.w3.org/2000/svg" xmlns:xlink="http://www.w3.org/1999/xlink">
 <defs>
  <style type="text/css">
*{stroke-linecap:butt;stroke-linejoin:round;}
  </style>
 </defs>
 <g id="figure_1">
  <g id="patch_1">
   <path d="M 0 345.6 
L 460.8 345.6 
L 460.8 0 
L 0 0 
z
" style="fill:#ffffff;"/>
  </g>
  <g id="axes_1">
   <g id="patch_2">
    <path d="M 57.6 307.584 
L 219.927273 307.584 
L 219.927273 41.472 
L 57.6 41.472 
z
" style="fill:#ffffff;"/>
   </g>
   <g id="matplotlib.axis_1">
    <g id="xtick_1">
     <g id="line2d_1">
      <defs>
       <path d="M 0 0 
L 0 3.5 
" id="m69701a6178" style="stroke:#000000;stroke-width:0.8;"/>
      </defs>
      <g>
       <use style="stroke:#000000;stroke-width:0.8;" x="212.661409" xlink:href="#m69701a6178" y="307.584"/>
      </g>
     </g>
     <g id="text_1">
      <!-- 0.0 -->
      <defs>
       <path d="M 31.78125 66.40625 
Q 24.171875 66.40625 20.328125 58.90625 
Q 16.5 51.421875 16.5 36.375 
Q 16.5 21.390625 20.328125 13.890625 
Q 24.171875 6.390625 31.78125 6.390625 
Q 39.453125 6.390625 43.28125 13.890625 
Q 47.125 21.390625 47.125 36.375 
Q 47.125 51.421875 43.28125 58.90625 
Q 39.453125 66.40625 31.78125 66.40625 
z
M 31.78125 74.21875 
Q 44.046875 74.21875 50.515625 64.515625 
Q 56.984375 54.828125 56.984375 36.375 
Q 56.984375 17.96875 50.515625 8.265625 
Q 44.046875 -1.421875 31.78125 -1.421875 
Q 19.53125 -1.421875 13.0625 8.265625 
Q 6.59375 17.96875 6.59375 36.375 
Q 6.59375 54.828125 13.0625 64.515625 
Q 19.53125 74.21875 31.78125 74.21875 
z
" id="DejaVuSans-48"/>
       <path d="M 10.6875 12.40625 
L 21 12.40625 
L 21 0 
L 10.6875 0 
z
" id="DejaVuSans-46"/>
      </defs>
      <g transform="translate(200.734066 325.981656)scale(0.15 -0.15)">
       <use xlink:href="#DejaVuSans-48"/>
       <use x="63.623047" xlink:href="#DejaVuSans-46"/>
       <use x="95.410156" xlink:href="#DejaVuSans-48"/>
      </g>
     </g>
    </g>
    <g id="xtick_2">
     <g id="line2d_2">
      <g>
       <use style="stroke:#000000;stroke-width:0.8;" x="175.001202" xlink:href="#m69701a6178" y="307.584"/>
      </g>
     </g>
     <g id="text_2">
      <!-- 0.1 -->
      <defs>
       <path d="M 12.40625 8.296875 
L 28.515625 8.296875 
L 28.515625 63.921875 
L 10.984375 60.40625 
L 10.984375 69.390625 
L 28.421875 72.90625 
L 38.28125 72.90625 
L 38.28125 8.296875 
L 54.390625 8.296875 
L 54.390625 0 
L 12.40625 0 
z
" id="DejaVuSans-49"/>
      </defs>
      <g transform="translate(163.073858 325.981656)scale(0.15 -0.15)">
       <use xlink:href="#DejaVuSans-48"/>
       <use x="63.623047" xlink:href="#DejaVuSans-46"/>
       <use x="95.410156" xlink:href="#DejaVuSans-49"/>
      </g>
     </g>
    </g>
    <g id="xtick_3">
     <g id="line2d_3">
      <g>
       <use style="stroke:#000000;stroke-width:0.8;" x="137.340994" xlink:href="#m69701a6178" y="307.584"/>
      </g>
     </g>
     <g id="text_3">
      <!-- 0.2 -->
      <defs>
       <path d="M 19.1875 8.296875 
L 53.609375 8.296875 
L 53.609375 0 
L 7.328125 0 
L 7.328125 8.296875 
Q 12.9375 14.109375 22.625 23.890625 
Q 32.328125 33.6875 34.8125 36.53125 
Q 39.546875 41.84375 41.421875 45.53125 
Q 43.3125 49.21875 43.3125 52.78125 
Q 43.3125 58.59375 39.234375 62.25 
Q 35.15625 65.921875 28.609375 65.921875 
Q 23.96875 65.921875 18.8125 64.3125 
Q 13.671875 62.703125 7.8125 59.421875 
L 7.8125 69.390625 
Q 13.765625 71.78125 18.9375 73 
Q 24.125 74.21875 28.421875 74.21875 
Q 39.75 74.21875 46.484375 68.546875 
Q 53.21875 62.890625 53.21875 53.421875 
Q 53.21875 48.921875 51.53125 44.890625 
Q 49.859375 40.875 45.40625 35.40625 
Q 44.1875 33.984375 37.640625 27.21875 
Q 31.109375 20.453125 19.1875 8.296875 
z
" id="DejaVuSans-50"/>
      </defs>
      <g transform="translate(125.413651 325.981656)scale(0.15 -0.15)">
       <use xlink:href="#DejaVuSans-48"/>
       <use x="63.623047" xlink:href="#DejaVuSans-46"/>
       <use x="95.410156" xlink:href="#DejaVuSans-50"/>
      </g>
     </g>
    </g>
    <g id="xtick_4">
     <g id="line2d_4">
      <g>
       <use style="stroke:#000000;stroke-width:0.8;" x="99.680787" xlink:href="#m69701a6178" y="307.584"/>
      </g>
     </g>
     <g id="text_4">
      <!-- 0.3 -->
      <defs>
       <path d="M 40.578125 39.3125 
Q 47.65625 37.796875 51.625 33 
Q 55.609375 28.21875 55.609375 21.1875 
Q 55.609375 10.40625 48.1875 4.484375 
Q 40.765625 -1.421875 27.09375 -1.421875 
Q 22.515625 -1.421875 17.65625 -0.515625 
Q 12.796875 0.390625 7.625 2.203125 
L 7.625 11.71875 
Q 11.71875 9.328125 16.59375 8.109375 
Q 21.484375 6.890625 26.8125 6.890625 
Q 36.078125 6.890625 40.9375 10.546875 
Q 45.796875 14.203125 45.796875 21.1875 
Q 45.796875 27.640625 41.28125 31.265625 
Q 36.765625 34.90625 28.71875 34.90625 
L 20.21875 34.90625 
L 20.21875 43.015625 
L 29.109375 43.015625 
Q 36.375 43.015625 40.234375 45.921875 
Q 44.09375 48.828125 44.09375 54.296875 
Q 44.09375 59.90625 40.109375 62.90625 
Q 36.140625 65.921875 28.71875 65.921875 
Q 24.65625 65.921875 20.015625 65.03125 
Q 15.375 64.15625 9.8125 62.3125 
L 9.8125 71.09375 
Q 15.4375 72.65625 20.34375 73.4375 
Q 25.25 74.21875 29.59375 74.21875 
Q 40.828125 74.21875 47.359375 69.109375 
Q 53.90625 64.015625 53.90625 55.328125 
Q 53.90625 49.265625 50.4375 45.09375 
Q 46.96875 40.921875 40.578125 39.3125 
z
" id="DejaVuSans-51"/>
      </defs>
      <g transform="translate(87.753443 325.981656)scale(0.15 -0.15)">
       <use xlink:href="#DejaVuSans-48"/>
       <use x="63.623047" xlink:href="#DejaVuSans-46"/>
       <use x="95.410156" xlink:href="#DejaVuSans-51"/>
      </g>
     </g>
    </g>
    <g id="xtick_5">
     <g id="line2d_5">
      <g>
       <use style="stroke:#000000;stroke-width:0.8;" x="62.020579" xlink:href="#m69701a6178" y="307.584"/>
      </g>
     </g>
     <g id="text_5">
      <!-- 0.4 -->
      <defs>
       <path d="M 37.796875 64.3125 
L 12.890625 25.390625 
L 37.796875 25.390625 
z
M 35.203125 72.90625 
L 47.609375 72.90625 
L 47.609375 25.390625 
L 58.015625 25.390625 
L 58.015625 17.1875 
L 47.609375 17.1875 
L 47.609375 0 
L 37.796875 0 
L 37.796875 17.1875 
L 4.890625 17.1875 
L 4.890625 26.703125 
z
" id="DejaVuSans-52"/>
      </defs>
      <g transform="translate(50.093236 325.981656)scale(0.15 -0.15)">
       <use xlink:href="#DejaVuSans-48"/>
       <use x="63.623047" xlink:href="#DejaVuSans-46"/>
       <use x="95.410156" xlink:href="#DejaVuSans-52"/>
      </g>
     </g>
    </g>
    <g id="text_6">
     <!-- PDF -->
     <defs>
      <path d="M 19.671875 64.796875 
L 19.671875 37.40625 
L 32.078125 37.40625 
Q 38.96875 37.40625 42.71875 40.96875 
Q 46.484375 44.53125 46.484375 51.125 
Q 46.484375 57.671875 42.71875 61.234375 
Q 38.96875 64.796875 32.078125 64.796875 
z
M 9.8125 72.90625 
L 32.078125 72.90625 
Q 44.34375 72.90625 50.609375 67.359375 
Q 56.890625 61.8125 56.890625 51.125 
Q 56.890625 40.328125 50.609375 34.8125 
Q 44.34375 29.296875 32.078125 29.296875 
L 19.671875 29.296875 
L 19.671875 0 
L 9.8125 0 
z
" id="DejaVuSans-80"/>
      <path d="M 19.671875 64.796875 
L 19.671875 8.109375 
L 31.59375 8.109375 
Q 46.6875 8.109375 53.6875 14.9375 
Q 60.6875 21.78125 60.6875 36.53125 
Q 60.6875 51.171875 53.6875 57.984375 
Q 46.6875 64.796875 31.59375 64.796875 
z
M 9.8125 72.90625 
L 30.078125 72.90625 
Q 51.265625 72.90625 61.171875 64.09375 
Q 71.09375 55.28125 71.09375 36.53125 
Q 71.09375 17.671875 61.125 8.828125 
Q 51.171875 0 30.078125 0 
L 9.8125 0 
z
" id="DejaVuSans-68"/>
      <path d="M 9.8125 72.90625 
L 51.703125 72.90625 
L 51.703125 64.59375 
L 19.671875 64.59375 
L 19.671875 43.109375 
L 48.578125 43.109375 
L 48.578125 34.8125 
L 19.671875 34.8125 
L 19.671875 0 
L 9.8125 0 
z
" id="DejaVuSans-70"/>
     </defs>
     <g transform="translate(122.204574 346.018531)scale(0.17 -0.17)">
      <use xlink:href="#DejaVuSans-80"/>
      <use x="60.302734" xlink:href="#DejaVuSans-68"/>
      <use x="137.304688" xlink:href="#DejaVuSans-70"/>
     </g>
    </g>
   </g>
   <g id="matplotlib.axis_2">
    <g id="ytick_1">
     <g id="line2d_6">
      <defs>
       <path d="M 0 0 
L -3.5 0 
" id="ma150a3ebd2" style="stroke:#000000;stroke-width:0.8;"/>
      </defs>
      <g>
       <use style="stroke:#000000;stroke-width:0.8;" x="57.6" xlink:href="#ma150a3ebd2" y="295.488"/>
      </g>
     </g>
     <g id="text_7">
      <!-- 0 -->
      <g transform="translate(41.05625 301.186828)scale(0.15 -0.15)">
       <use xlink:href="#DejaVuSans-48"/>
      </g>
     </g>
    </g>
    <g id="ytick_2">
     <g id="line2d_7">
      <g>
       <use style="stroke:#000000;stroke-width:0.8;" x="57.6" xlink:href="#ma150a3ebd2" y="241.804176"/>
      </g>
     </g>
     <g id="text_8">
      <!-- 2 -->
      <g transform="translate(41.05625 247.503004)scale(0.15 -0.15)">
       <use xlink:href="#DejaVuSans-50"/>
      </g>
     </g>
    </g>
    <g id="ytick_3">
     <g id="line2d_8">
      <g>
       <use style="stroke:#000000;stroke-width:0.8;" x="57.6" xlink:href="#ma150a3ebd2" y="188.120352"/>
      </g>
     </g>
     <g id="text_9">
      <!-- 4 -->
      <g transform="translate(41.05625 193.81918)scale(0.15 -0.15)">
       <use xlink:href="#DejaVuSans-52"/>
      </g>
     </g>
    </g>
    <g id="ytick_4">
     <g id="line2d_9">
      <g>
       <use style="stroke:#000000;stroke-width:0.8;" x="57.6" xlink:href="#ma150a3ebd2" y="134.436528"/>
      </g>
     </g>
     <g id="text_10">
      <!-- 6 -->
      <defs>
       <path d="M 33.015625 40.375 
Q 26.375 40.375 22.484375 35.828125 
Q 18.609375 31.296875 18.609375 23.390625 
Q 18.609375 15.53125 22.484375 10.953125 
Q 26.375 6.390625 33.015625 6.390625 
Q 39.65625 6.390625 43.53125 10.953125 
Q 47.40625 15.53125 47.40625 23.390625 
Q 47.40625 31.296875 43.53125 35.828125 
Q 39.65625 40.375 33.015625 40.375 
z
M 52.59375 71.296875 
L 52.59375 62.3125 
Q 48.875 64.0625 45.09375 64.984375 
Q 41.3125 65.921875 37.59375 65.921875 
Q 27.828125 65.921875 22.671875 59.328125 
Q 17.53125 52.734375 16.796875 39.40625 
Q 19.671875 43.65625 24.015625 45.921875 
Q 28.375 48.1875 33.59375 48.1875 
Q 44.578125 48.1875 50.953125 41.515625 
Q 57.328125 34.859375 57.328125 23.390625 
Q 57.328125 12.15625 50.6875 5.359375 
Q 44.046875 -1.421875 33.015625 -1.421875 
Q 20.359375 -1.421875 13.671875 8.265625 
Q 6.984375 17.96875 6.984375 36.375 
Q 6.984375 53.65625 15.1875 63.9375 
Q 23.390625 74.21875 37.203125 74.21875 
Q 40.921875 74.21875 44.703125 73.484375 
Q 48.484375 72.75 52.59375 71.296875 
z
" id="DejaVuSans-54"/>
      </defs>
      <g transform="translate(41.05625 140.135356)scale(0.15 -0.15)">
       <use xlink:href="#DejaVuSans-54"/>
      </g>
     </g>
    </g>
    <g id="ytick_5">
     <g id="line2d_10">
      <g>
       <use style="stroke:#000000;stroke-width:0.8;" x="57.6" xlink:href="#ma150a3ebd2" y="80.752704"/>
      </g>
     </g>
     <g id="text_11">
      <!-- 8 -->
      <defs>
       <path d="M 31.78125 34.625 
Q 24.75 34.625 20.71875 30.859375 
Q 16.703125 27.09375 16.703125 20.515625 
Q 16.703125 13.921875 20.71875 10.15625 
Q 24.75 6.390625 31.78125 6.390625 
Q 38.8125 6.390625 42.859375 10.171875 
Q 46.921875 13.96875 46.921875 20.515625 
Q 46.921875 27.09375 42.890625 30.859375 
Q 38.875 34.625 31.78125 34.625 
z
M 21.921875 38.8125 
Q 15.578125 40.375 12.03125 44.71875 
Q 8.5 49.078125 8.5 55.328125 
Q 8.5 64.0625 14.71875 69.140625 
Q 20.953125 74.21875 31.78125 74.21875 
Q 42.671875 74.21875 48.875 69.140625 
Q 55.078125 64.0625 55.078125 55.328125 
Q 55.078125 49.078125 51.53125 44.71875 
Q 48 40.375 41.703125 38.8125 
Q 48.828125 37.15625 52.796875 32.3125 
Q 56.78125 27.484375 56.78125 20.515625 
Q 56.78125 9.90625 50.3125 4.234375 
Q 43.84375 -1.421875 31.78125 -1.421875 
Q 19.734375 -1.421875 13.25 4.234375 
Q 6.78125 9.90625 6.78125 20.515625 
Q 6.78125 27.484375 10.78125 32.3125 
Q 14.796875 37.15625 21.921875 38.8125 
z
M 18.3125 54.390625 
Q 18.3125 48.734375 21.84375 45.5625 
Q 25.390625 42.390625 31.78125 42.390625 
Q 38.140625 42.390625 41.71875 45.5625 
Q 45.3125 48.734375 45.3125 54.390625 
Q 45.3125 60.0625 41.71875 63.234375 
Q 38.140625 66.40625 31.78125 66.40625 
Q 25.390625 66.40625 21.84375 63.234375 
Q 18.3125 60.0625 18.3125 54.390625 
z
" id="DejaVuSans-56"/>
      </defs>
      <g transform="translate(41.05625 86.451532)scale(0.15 -0.15)">
       <use xlink:href="#DejaVuSans-56"/>
      </g>
     </g>
    </g>
    <g id="text_12">
     <!-- Velocity (m/s) -->
     <defs>
      <path d="M 28.609375 0 
L 0.78125 72.90625 
L 11.078125 72.90625 
L 34.1875 11.53125 
L 57.328125 72.90625 
L 67.578125 72.90625 
L 39.796875 0 
z
" id="DejaVuSans-86"/>
      <path d="M 56.203125 29.59375 
L 56.203125 25.203125 
L 14.890625 25.203125 
Q 15.484375 15.921875 20.484375 11.0625 
Q 25.484375 6.203125 34.421875 6.203125 
Q 39.59375 6.203125 44.453125 7.46875 
Q 49.3125 8.734375 54.109375 11.28125 
L 54.109375 2.78125 
Q 49.265625 0.734375 44.1875 -0.34375 
Q 39.109375 -1.421875 33.890625 -1.421875 
Q 20.796875 -1.421875 13.15625 6.1875 
Q 5.515625 13.8125 5.515625 26.8125 
Q 5.515625 40.234375 12.765625 48.109375 
Q 20.015625 56 32.328125 56 
Q 43.359375 56 49.78125 48.890625 
Q 56.203125 41.796875 56.203125 29.59375 
z
M 47.21875 32.234375 
Q 47.125 39.59375 43.09375 43.984375 
Q 39.0625 48.390625 32.421875 48.390625 
Q 24.90625 48.390625 20.390625 44.140625 
Q 15.875 39.890625 15.1875 32.171875 
z
" id="DejaVuSans-101"/>
      <path d="M 9.421875 75.984375 
L 18.40625 75.984375 
L 18.40625 0 
L 9.421875 0 
z
" id="DejaVuSans-108"/>
      <path d="M 30.609375 48.390625 
Q 23.390625 48.390625 19.1875 42.75 
Q 14.984375 37.109375 14.984375 27.296875 
Q 14.984375 17.484375 19.15625 11.84375 
Q 23.34375 6.203125 30.609375 6.203125 
Q 37.796875 6.203125 41.984375 11.859375 
Q 46.1875 17.53125 46.1875 27.296875 
Q 46.1875 37.015625 41.984375 42.703125 
Q 37.796875 48.390625 30.609375 48.390625 
z
M 30.609375 56 
Q 42.328125 56 49.015625 48.375 
Q 55.71875 40.765625 55.71875 27.296875 
Q 55.71875 13.875 49.015625 6.21875 
Q 42.328125 -1.421875 30.609375 -1.421875 
Q 18.84375 -1.421875 12.171875 6.21875 
Q 5.515625 13.875 5.515625 27.296875 
Q 5.515625 40.765625 12.171875 48.375 
Q 18.84375 56 30.609375 56 
z
" id="DejaVuSans-111"/>
      <path d="M 48.78125 52.59375 
L 48.78125 44.1875 
Q 44.96875 46.296875 41.140625 47.34375 
Q 37.3125 48.390625 33.40625 48.390625 
Q 24.65625 48.390625 19.8125 42.84375 
Q 14.984375 37.3125 14.984375 27.296875 
Q 14.984375 17.28125 19.8125 11.734375 
Q 24.65625 6.203125 33.40625 6.203125 
Q 37.3125 6.203125 41.140625 7.25 
Q 44.96875 8.296875 48.78125 10.40625 
L 48.78125 2.09375 
Q 45.015625 0.34375 40.984375 -0.53125 
Q 36.96875 -1.421875 32.421875 -1.421875 
Q 20.0625 -1.421875 12.78125 6.34375 
Q 5.515625 14.109375 5.515625 27.296875 
Q 5.515625 40.671875 12.859375 48.328125 
Q 20.21875 56 33.015625 56 
Q 37.15625 56 41.109375 55.140625 
Q 45.0625 54.296875 48.78125 52.59375 
z
" id="DejaVuSans-99"/>
      <path d="M 9.421875 54.6875 
L 18.40625 54.6875 
L 18.40625 0 
L 9.421875 0 
z
M 9.421875 75.984375 
L 18.40625 75.984375 
L 18.40625 64.59375 
L 9.421875 64.59375 
z
" id="DejaVuSans-105"/>
      <path d="M 18.3125 70.21875 
L 18.3125 54.6875 
L 36.8125 54.6875 
L 36.8125 47.703125 
L 18.3125 47.703125 
L 18.3125 18.015625 
Q 18.3125 11.328125 20.140625 9.421875 
Q 21.96875 7.515625 27.59375 7.515625 
L 36.8125 7.515625 
L 36.8125 0 
L 27.59375 0 
Q 17.1875 0 13.234375 3.875 
Q 9.28125 7.765625 9.28125 18.015625 
L 9.28125 47.703125 
L 2.6875 47.703125 
L 2.6875 54.6875 
L 9.28125 54.6875 
L 9.28125 70.21875 
z
" id="DejaVuSans-116"/>
      <path d="M 32.171875 -5.078125 
Q 28.375 -14.84375 24.75 -17.8125 
Q 21.140625 -20.796875 15.09375 -20.796875 
L 7.90625 -20.796875 
L 7.90625 -13.28125 
L 13.1875 -13.28125 
Q 16.890625 -13.28125 18.9375 -11.515625 
Q 21 -9.765625 23.484375 -3.21875 
L 25.09375 0.875 
L 2.984375 54.6875 
L 12.5 54.6875 
L 29.59375 11.921875 
L 46.6875 54.6875 
L 56.203125 54.6875 
z
" id="DejaVuSans-121"/>
      <path id="DejaVuSans-32"/>
      <path d="M 31 75.875 
Q 24.46875 64.65625 21.28125 53.65625 
Q 18.109375 42.671875 18.109375 31.390625 
Q 18.109375 20.125 21.3125 9.0625 
Q 24.515625 -2 31 -13.1875 
L 23.1875 -13.1875 
Q 15.875 -1.703125 12.234375 9.375 
Q 8.59375 20.453125 8.59375 31.390625 
Q 8.59375 42.28125 12.203125 53.3125 
Q 15.828125 64.359375 23.1875 75.875 
z
" id="DejaVuSans-40"/>
      <path d="M 52 44.1875 
Q 55.375 50.25 60.0625 53.125 
Q 64.75 56 71.09375 56 
Q 79.640625 56 84.28125 50.015625 
Q 88.921875 44.046875 88.921875 33.015625 
L 88.921875 0 
L 79.890625 0 
L 79.890625 32.71875 
Q 79.890625 40.578125 77.09375 44.375 
Q 74.3125 48.1875 68.609375 48.1875 
Q 61.625 48.1875 57.5625 43.546875 
Q 53.515625 38.921875 53.515625 30.90625 
L 53.515625 0 
L 44.484375 0 
L 44.484375 32.71875 
Q 44.484375 40.625 41.703125 44.40625 
Q 38.921875 48.1875 33.109375 48.1875 
Q 26.21875 48.1875 22.15625 43.53125 
Q 18.109375 38.875 18.109375 30.90625 
L 18.109375 0 
L 9.078125 0 
L 9.078125 54.6875 
L 18.109375 54.6875 
L 18.109375 46.1875 
Q 21.1875 51.21875 25.484375 53.609375 
Q 29.78125 56 35.6875 56 
Q 41.65625 56 45.828125 52.96875 
Q 50 49.953125 52 44.1875 
z
" id="DejaVuSans-109"/>
      <path d="M 25.390625 72.90625 
L 33.6875 72.90625 
L 8.296875 -9.28125 
L 0 -9.28125 
z
" id="DejaVuSans-47"/>
      <path d="M 44.28125 53.078125 
L 44.28125 44.578125 
Q 40.484375 46.53125 36.375 47.5 
Q 32.28125 48.484375 27.875 48.484375 
Q 21.1875 48.484375 17.84375 46.4375 
Q 14.5 44.390625 14.5 40.28125 
Q 14.5 37.15625 16.890625 35.375 
Q 19.28125 33.59375 26.515625 31.984375 
L 29.59375 31.296875 
Q 39.15625 29.25 43.1875 25.515625 
Q 47.21875 21.78125 47.21875 15.09375 
Q 47.21875 7.46875 41.1875 3.015625 
Q 35.15625 -1.421875 24.609375 -1.421875 
Q 20.21875 -1.421875 15.453125 -0.5625 
Q 10.6875 0.296875 5.421875 2 
L 5.421875 11.28125 
Q 10.40625 8.6875 15.234375 7.390625 
Q 20.0625 6.109375 24.8125 6.109375 
Q 31.15625 6.109375 34.5625 8.28125 
Q 37.984375 10.453125 37.984375 14.40625 
Q 37.984375 18.0625 35.515625 20.015625 
Q 33.0625 21.96875 24.703125 23.78125 
L 21.578125 24.515625 
Q 13.234375 26.265625 9.515625 29.90625 
Q 5.8125 33.546875 5.8125 39.890625 
Q 5.8125 47.609375 11.28125 51.796875 
Q 16.75 56 26.8125 56 
Q 31.78125 56 36.171875 55.265625 
Q 40.578125 54.546875 44.28125 53.078125 
z
" id="DejaVuSans-115"/>
      <path d="M 8.015625 75.875 
L 15.828125 75.875 
Q 23.140625 64.359375 26.78125 53.3125 
Q 30.421875 42.28125 30.421875 31.390625 
Q 30.421875 20.453125 26.78125 9.375 
Q 23.140625 -1.703125 15.828125 -13.1875 
L 8.015625 -13.1875 
Q 14.5 -2 17.703125 9.0625 
Q 20.90625 20.125 20.90625 31.390625 
Q 20.90625 42.671875 17.703125 53.65625 
Q 14.5 64.65625 8.015625 75.875 
z
" id="DejaVuSans-41"/>
     </defs>
     <g transform="translate(33.520781 232.779562)rotate(-90)scale(0.17 -0.17)">
      <use xlink:href="#DejaVuSans-86"/>
      <use x="60.658203" xlink:href="#DejaVuSans-101"/>
      <use x="122.181641" xlink:href="#DejaVuSans-108"/>
      <use x="149.964844" xlink:href="#DejaVuSans-111"/>
      <use x="211.146484" xlink:href="#DejaVuSans-99"/>
      <use x="266.126953" xlink:href="#DejaVuSans-105"/>
      <use x="293.910156" xlink:href="#DejaVuSans-116"/>
      <use x="333.119141" xlink:href="#DejaVuSans-121"/>
      <use x="392.298828" xlink:href="#DejaVuSans-32"/>
      <use x="424.085938" xlink:href="#DejaVuSans-40"/>
      <use x="463.099609" xlink:href="#DejaVuSans-109"/>
      <use x="560.511719" xlink:href="#DejaVuSans-47"/>
      <use x="594.203125" xlink:href="#DejaVuSans-115"/>
      <use x="646.302734" xlink:href="#DejaVuSans-41"/>
     </g>
    </g>
   </g>
   <g id="line2d_11">
    <path clip-path="url(#pd7600acf01)" d="M 170.530667 295.488 
L 122.99277 293.821957 
L 112.516409 292.155914 
L 110.601375 290.489871 
L 94.267264 288.823829 
L 92.239581 287.157786 
L 84.579446 285.491743 
L 89.310706 283.8257 
L 98.20998 282.159657 
L 99.899716 280.493614 
L 96.970841 278.827571 
L 96.970841 277.161529 
L 103.391836 275.495486 
L 114.544092 273.829443 
L 129.751713 272.1634 
L 124.23191 270.497357 
L 133.919727 268.831314 
L 140.340723 267.165271 
L 145.40993 265.499228 
L 152.281522 263.833186 
L 152.50682 262.167143 
L 149.239997 260.5011 
L 151.26768 258.835057 
L 156.449536 257.169014 
L 159.378411 255.502971 
L 164.560267 253.836928 
L 167.151196 252.170886 
L 168.277686 250.504843 
L 170.755965 248.8388 
L 171.206561 247.172757 
L 174.92398 245.506714 
L 169.178878 243.840671 
L 171.206561 242.174628 
L 172.220402 240.508586 
L 172.783648 238.842543 
L 169.291527 237.1765 
L 170.530667 235.510457 
L 169.516825 233.844414 
L 168.277686 232.178371 
L 170.305369 230.512328 
L 166.250003 228.846286 
L 168.728282 227.180243 
L 165.123513 225.5142 
L 167.601792 223.848157 
L 166.024705 222.182114 
L 165.799407 220.516071 
L 162.194638 218.850028 
L 164.109671 217.183985 
L 162.757883 215.517943 
L 161.969339 213.8519 
L 160.392253 212.185857 
L 148.338805 210.519814 
L 142.931651 208.853771 
L 126.034294 207.187728 
L 105.757466 205.521685 
L 64.978512 203.855643 
L 65.541758 202.1896 
L 76.018119 200.523557 
L 85.367989 198.857514 
L 92.577528 197.191471 
L 85.593287 195.525428 
L 89.536004 193.859385 
L 94.830509 192.193343 
L 96.858192 190.5273 
L 110.714024 188.861257 
L 110.939322 187.195214 
L 120.401842 185.529171 
L 121.190385 183.863128 
L 123.781313 182.197085 
L 115.670582 180.531043 
L 111.615217 178.865 
L 110.939322 177.198957 
L 128.174626 175.532914 
L 148.451454 173.866871 
L 165.799407 172.200828 
L 180.669081 170.534785 
L 187.090076 168.868742 
L 186.63948 167.2027 
L 199.256173 165.536657 
L 198.805577 163.870614 
L 199.706769 162.204571 
L 203.086241 160.538528 
L 204.212731 158.872485 
L 204.888625 157.206442 
L 207.366904 155.5404 
L 207.479553 153.874357 
L 206.803659 152.208314 
L 206.916308 150.542271 
L 206.353063 148.876228 
L 206.803659 147.210185 
L 205.902467 145.544142 
L 208.718693 143.8781 
L 209.957832 142.212057 
L 210.971674 140.546014 
L 210.746376 138.879971 
L 212.210813 137.213928 
L 211.985515 135.547885 
L 211.872866 133.881842 
L 212.54876 132.2158 
" style="fill:none;stroke:#5a0003;stroke-linecap:square;stroke-width:3;"/>
   </g>
   <g id="line2d_12">
    <path clip-path="url(#pd7600acf01)" d="M 211.705021 295.488 
L 211.035549 293.019429 
L 208.931495 290.550857 
L 208.357662 288.082286 
L 205.584136 285.613714 
L 198.506864 283.145143 
L 193.724922 280.676571 
L 182.630819 278.208 
L 181.196237 275.739429 
L 184.639234 273.270857 
L 181.196237 270.802286 
L 170.675966 268.333714 
L 179.761654 265.865143 
L 182.343902 263.396571 
L 178.231433 260.928 
L 180.813681 258.459429 
L 178.040155 255.990857 
L 179.761654 253.522286 
L 183.491568 251.053714 
L 184.256679 248.585143 
L 180.718042 246.116571 
L 181.961347 243.648 
L 182.822097 241.179429 
L 180.813681 238.710857 
L 185.499984 236.242286 
L 180.90932 233.773714 
L 174.310241 231.305143 
L 167.90244 228.836571 
L 165.989664 226.368 
L 165.033275 223.899429 
L 149.444147 221.430857 
L 143.51454 218.962286 
L 160.060057 216.493714 
L 158.625474 214.025143 
L 159.581862 211.556571 
L 159.486224 209.088 
L 157.764725 206.619429 
L 152.217673 204.150857 
L 151.165646 201.682286 
L 149.539786 199.213714 
L 144.470928 196.745143 
L 141.697403 194.276571 
L 135.289601 191.808 
L 132.516075 189.339429 
L 137.776211 186.870857 
L 132.037881 184.402286 
L 135.38524 181.933714 
L 134.428852 179.465143 
L 132.13352 176.996571 
L 123.143471 174.528 
L 106.884871 172.059429 
L 114.24906 169.590857 
L 110.23223 167.122286 
L 86.131246 164.653714 
L 92.443409 162.185143 
L 108.223814 159.716571 
L 98.85121 157.248 
L 111.953728 154.779429 
L 112.145006 152.310857 
L 112.910117 149.842286 
L 102.772401 147.373714 
L 99.425043 144.905143 
L 143.610179 142.436571 
L 144.853484 139.968 
L 146.76626 137.499429 
L 158.625474 135.030857 
L 156.425781 132.562286 
L 156.617059 130.093714 
L 171.058521 127.625143 
L 161.399 125.156571 
L 176.988128 122.688 
L 187.317121 120.219429 
L 188.177871 117.750857 
L 188.942981 115.282286 
L 205.584136 112.813714 
L 207.114358 110.345143 
L 208.453301 107.876571 
L 209.314051 105.408 
L 210.557355 102.939429 
L 210.1748 100.470857 
L 211.513743 98.002286 
L 212.087576 95.533714 
L 211.322466 93.065143 
L 211.705021 90.596571 
L 212.183215 88.128 
L 211.705021 85.659429 
L 212.278854 83.190857 
L 211.705021 80.722286 
L 212.087576 78.253714 
L 212.087576 75.785143 
L 212.087576 73.316571 
L 211.896299 70.848 
L 212.278854 68.379429 
L 212.374493 65.910857 
L 212.278854 63.442286 
L 212.374493 60.973714 
L 212.374493 58.505143 
L 212.374493 56.036571 
L 212.470132 53.568 
" style="fill:none;stroke:#ffcc7b;stroke-dasharray:1.5,2.475;stroke-dashoffset:0;stroke-width:1.5;"/>
   </g>
   <g id="line2d_13">
    <path clip-path="url(#pd7600acf01)" d="M 209.178419 295.488 
L 209.290774 293.435774 
L 206.032493 291.383548 
L 203.673048 289.331323 
L 199.291221 287.279097 
L 194.909395 285.226871 
L 190.415214 283.174645 
L 181.988625 281.122419 
L 182.100979 279.070193 
L 177.943862 277.017968 
L 169.854336 274.965742 
L 177.943862 272.913516 
L 178.056217 270.86129 
L 182.438043 268.809064 
L 180.640371 266.756838 
L 179.741534 264.704613 
L 179.292116 262.652387 
L 180.640371 260.600161 
L 179.404471 258.547935 
L 178.842698 256.495709 
L 177.943862 254.443484 
L 176.595608 252.391258 
L 176.258544 250.339032 
L 177.719153 248.286806 
L 177.719153 246.23458 
L 177.269735 244.182354 
L 179.292116 242.130129 
L 176.258544 240.077903 
L 176.483253 238.025677 
L 172.326136 235.973451 
L 165.584865 233.921225 
L 154.012349 231.868999 
L 148.619332 229.816774 
L 150.754068 227.764548 
L 153.562931 225.712322 
L 150.529359 223.660096 
L 153.899994 221.60787 
L 148.619332 219.555645 
L 144.686923 217.503419 
L 148.506977 215.451193 
L 145.473405 213.398967 
L 136.485043 211.346741 
L 139.069197 209.294515 
L 131.653799 207.24229 
L 128.170809 205.190064 
L 128.620227 203.137838 
L 132.777344 201.085612 
L 134.91208 199.033386 
L 136.035625 196.98116 
L 131.990862 194.928935 
L 127.384327 192.876709 
L 125.361946 190.824483 
L 127.609036 188.772257 
L 124.013691 186.720031 
L 117.497129 184.667806 
L 119.856574 182.61558 
L 126.822554 180.563354 
L 117.047711 178.511128 
L 116.485938 176.458902 
L 116.148875 174.406676 
L 107.497577 172.354451 
L 107.385222 170.302225 
L 113.677075 168.249999 
L 108.508767 166.197773 
L 104.688714 164.145547 
L 105.699904 162.093322 
L 107.272868 160.041096 
L 109.182894 157.98887 
L 117.497129 155.936644 
L 124.575464 153.884418 
L 124.463109 151.832192 
L 129.181999 149.779967 
L 129.294354 147.727741 
L 138.282716 145.675515 
L 147.83285 143.623289 
L 156.259439 141.571063 
L 166.933119 139.518837 
L 173.67439 137.466612 
L 178.280926 135.414386 
L 181.539207 133.36216 
L 182.662752 131.309934 
L 188.617542 129.257708 
L 193.561141 127.205483 
L 200.302412 125.153257 
L 201.313603 123.101031 
L 202.437148 121.048805 
L 204.571884 118.996579 
L 208.391938 116.944353 
L 208.841356 114.892128 
L 209.852546 112.839902 
L 210.301964 110.787676 
L 210.976092 108.73545 
L 211.200801 106.683224 
L 211.762573 104.630998 
L 211.42551 102.578773 
L 211.537864 100.526547 
L 212.211991 98.474321 
L 211.874928 96.422095 
L 212.4367 94.369869 
" style="fill:none;stroke:#e6a346;stroke-dasharray:5.55,2.4;stroke-dashoffset:0;stroke-width:1.5;"/>
   </g>
   <g id="line2d_14">
    <path clip-path="url(#pd7600acf01)" d="M 210.265023 295.488 
L 198.283092 293.351343 
L 191.614886 291.214686 
L 186.717923 289.078029 
L 181.195815 286.941372 
L 182.133532 284.804715 
L 185.571825 282.668059 
L 185.676016 280.531402 
L 184.217346 278.394745 
L 185.884397 276.258088 
L 182.341913 274.121431 
L 181.091625 271.984774 
L 184.738299 269.848117 
L 172.027033 267.71146 
L 172.131224 265.574803 
L 174.944373 263.438146 
L 174.735991 261.301489 
L 175.882089 259.164833 
L 171.297698 257.028176 
L 171.714461 254.891519 
L 167.338451 252.754862 
L 168.901312 250.618205 
L 174.840182 248.481548 
L 167.338451 246.344891 
L 174.735991 244.208234 
L 176.507233 242.071577 
L 166.296544 239.93492 
L 157.231952 237.798263 
L 162.337297 235.661607 
L 164.21273 233.52495 
L 165.77559 231.388293 
L 167.963595 229.251636 
L 160.878627 227.114979 
L 165.6714 224.978322 
L 160.774436 222.841665 
L 159.211576 220.705008 
L 158.065478 218.568351 
L 162.441488 216.431694 
L 162.75406 214.295037 
L 160.878627 212.158381 
L 163.483395 210.021724 
L 162.128916 207.885067 
L 159.315767 205.74841 
L 157.961287 203.611753 
L 151.918226 201.475096 
L 143.374588 199.338439 
L 140.76982 197.201782 
L 136.498001 195.065125 
L 137.956671 192.928468 
L 138.894388 190.791811 
L 139.623723 188.655155 
L 145.666784 186.518498 
L 147.854789 184.381841 
L 136.28962 182.245184 
L 144.208114 180.108527 
L 138.269243 177.97187 
L 135.456094 175.835213 
L 121.181967 173.698556 
L 124.411879 171.561899 
L 144.624877 169.425242 
L 141.082393 167.288585 
L 142.332681 165.151929 
L 141.811727 163.015272 
L 129.413033 160.878615 
L 124.724451 158.741958 
L 128.579507 156.605301 
L 125.141214 154.468644 
L 98.676774 152.331987 
L 114.617953 150.19533 
L 107.532984 148.058673 
L 97.634867 145.922016 
L 78.776349 143.785359 
L 155.46071 141.648703 
L 157.648715 139.512046 
L 173.694084 137.375389 
L 174.735991 135.238732 
L 172.131224 133.102075 
L 171.61027 130.965418 
L 169.839028 128.828761 
L 168.69293 126.692104 
L 184.217346 124.555447 
L 184.529918 122.41879 
L 184.008964 120.282133 
L 180.987434 118.145477 
L 179.528764 116.00882 
L 181.612578 113.872163 
L 189.843644 111.735506 
L 189.114309 109.598849 
L 198.283092 107.462192 
L 198.07471 105.325535 
L 198.283092 103.188878 
L 199.637571 101.052221 
L 198.387282 98.915564 
L 197.866329 96.778907 
L 208.597972 94.642251 
L 211.932074 92.505594 
L 212.140456 90.368937 
L 212.348837 88.23228 
L 212.348837 86.095623 
" style="fill:none;stroke:#b45a28;stroke-dasharray:9.6,2.4,1.5,2.4;stroke-dashoffset:0;stroke-width:1.5;"/>
   </g>
   <g id="line2d_15">
    <path clip-path="url(#pd7600acf01)" d="M 208.966751 295.488 
L 202.160802 293.474299 
L 196.910499 291.460598 
L 191.174056 289.446897 
L 186.604348 287.433196 
L 181.354044 285.419495 
L 180.090082 283.405794 
L 173.381361 281.392093 
L 171.436804 279.378393 
L 169.881159 277.364692 
L 174.548095 275.350991 
L 172.50631 273.33729 
L 175.131462 271.323589 
L 176.006513 269.309888 
L 173.381361 267.296187 
L 182.326323 265.282486 
L 182.90969 263.268785 
L 181.742955 261.255084 
L 169.297792 259.241383 
L 148.004894 257.227682 
L 150.046679 255.213981 
L 148.296578 253.20028 
L 149.463312 251.186579 
L 155.199754 249.172878 
L 159.866691 247.159178 
L 154.51916 245.145477 
L 156.269261 243.131776 
L 154.51916 241.118075 
L 144.11578 239.104374 
L 141.490629 237.090673 
L 145.088059 235.076972 
L 142.462907 233.063271 
L 134.198541 231.04957 
L 124.961895 229.035869 
L 136.04587 227.022168 
L 145.185287 225.008467 
L 147.518755 222.994766 
L 156.852628 220.981065 
L 159.088868 218.967364 
L 160.838969 216.953664 
L 158.797185 214.939963 
L 158.311045 212.926262 
L 156.463716 210.912561 
L 158.019362 208.89886 
L 155.199754 206.885159 
L 152.185691 204.871458 
L 151.018957 202.857757 
L 145.088059 200.844056 
L 145.379742 198.830355 
L 138.865477 196.816654 
L 126.906452 194.802953 
L 105.905238 192.789252 
L 114.266833 190.775551 
L 127.975959 188.76185 
L 130.503883 186.748149 
L 134.004085 184.734449 
L 130.017743 182.720748 
L 132.156756 180.707047 
L 134.976363 178.693346 
L 130.795566 176.679645 
L 134.295768 174.665944 
L 135.948642 172.652243 
L 132.156756 170.638542 
L 134.490224 168.624841 
L 126.809224 166.61114 
L 113.975149 164.597439 
L 128.948237 162.583738 
L 129.045465 160.570037 
L 119.906048 158.556336 
L 122.628427 156.542635 
L 137.990426 154.528935 
L 145.865882 152.515234 
L 149.949451 150.501533 
L 144.699148 148.487832 
L 147.713211 146.474131 
L 143.921325 144.46043 
L 127.392592 142.446729 
L 159.769463 140.433028 
L 176.103741 138.419327 
L 191.174056 136.405626 
L 195.743765 134.391925 
L 195.840993 132.378224 
L 195.160398 130.364523 
L 198.174461 128.350822 
L 202.841397 126.337121 
L 204.785954 124.32342 
L 205.563777 122.30972 
L 205.369321 120.296019 
L 205.952688 118.282318 
L 206.244372 116.268617 
L 205.661005 114.254916 
L 206.924967 112.241215 
L 205.661005 110.227514 
L 205.758233 108.213813 
L 206.536055 106.200112 
L 207.605562 104.186411 
L 208.57784 102.17271 
L 208.675068 100.159009 
L 208.966751 98.145308 
" style="fill:none;stroke:#7d1e0b;stroke-linecap:square;stroke-width:1.5;"/>
   </g>
   <g id="patch_3">
    <path d="M 57.6 307.584 
L 57.6 41.472 
" style="fill:none;stroke:#000000;stroke-linecap:square;stroke-linejoin:miter;stroke-width:0.8;"/>
   </g>
   <g id="patch_4">
    <path d="M 219.927273 307.584 
L 219.927273 41.472 
" style="fill:none;stroke:#000000;stroke-linecap:square;stroke-linejoin:miter;stroke-width:0.8;"/>
   </g>
   <g id="patch_5">
    <path d="M 57.6 307.584 
L 219.927273 307.584 
" style="fill:none;stroke:#000000;stroke-linecap:square;stroke-linejoin:miter;stroke-width:0.8;"/>
   </g>
   <g id="patch_6">
    <path d="M 57.6 41.472 
L 219.927273 41.472 
" style="fill:none;stroke:#000000;stroke-linecap:square;stroke-linejoin:miter;stroke-width:0.8;"/>
   </g>
  </g>
  <g id="axes_2">
   <g id="patch_7">
    <path d="M 252.392727 307.584 
L 414.72 307.584 
L 414.72 41.472 
L 252.392727 41.472 
z
" style="fill:#ffffff;"/>
   </g>
   <g id="matplotlib.axis_3">
    <g id="xtick_6">
     <g id="line2d_16">
      <g>
       <use style="stroke:#000000;stroke-width:0.8;" x="259.736766" xlink:href="#m69701a6178" y="307.584"/>
      </g>
     </g>
     <g id="text_13">
      <!-- 0.0 -->
      <g transform="translate(247.809423 325.981656)scale(0.15 -0.15)">
       <use xlink:href="#DejaVuSans-48"/>
       <use x="63.623047" xlink:href="#DejaVuSans-46"/>
       <use x="95.410156" xlink:href="#DejaVuSans-48"/>
      </g>
     </g>
    </g>
    <g id="xtick_7">
     <g id="line2d_17">
      <g>
       <use style="stroke:#000000;stroke-width:0.8;" x="333.539127" xlink:href="#m69701a6178" y="307.584"/>
      </g>
     </g>
     <g id="text_14">
      <!-- 0.5 -->
      <defs>
       <path d="M 10.796875 72.90625 
L 49.515625 72.90625 
L 49.515625 64.59375 
L 19.828125 64.59375 
L 19.828125 46.734375 
Q 21.96875 47.46875 24.109375 47.828125 
Q 26.265625 48.1875 28.421875 48.1875 
Q 40.625 48.1875 47.75 41.5 
Q 54.890625 34.8125 54.890625 23.390625 
Q 54.890625 11.625 47.5625 5.09375 
Q 40.234375 -1.421875 26.90625 -1.421875 
Q 22.3125 -1.421875 17.546875 -0.640625 
Q 12.796875 0.140625 7.71875 1.703125 
L 7.71875 11.625 
Q 12.109375 9.234375 16.796875 8.0625 
Q 21.484375 6.890625 26.703125 6.890625 
Q 35.15625 6.890625 40.078125 11.328125 
Q 45.015625 15.765625 45.015625 23.390625 
Q 45.015625 31 40.078125 35.4375 
Q 35.15625 39.890625 26.703125 39.890625 
Q 22.75 39.890625 18.8125 39.015625 
Q 14.890625 38.140625 10.796875 36.28125 
z
" id="DejaVuSans-53"/>
      </defs>
      <g transform="translate(321.611783 325.981656)scale(0.15 -0.15)">
       <use xlink:href="#DejaVuSans-48"/>
       <use x="63.623047" xlink:href="#DejaVuSans-46"/>
       <use x="95.410156" xlink:href="#DejaVuSans-53"/>
      </g>
     </g>
    </g>
    <g id="xtick_8">
     <g id="line2d_18">
      <g>
       <use style="stroke:#000000;stroke-width:0.8;" x="407.341488" xlink:href="#m69701a6178" y="307.584"/>
      </g>
     </g>
     <g id="text_15">
      <!-- 1.0 -->
      <g transform="translate(395.414144 325.981656)scale(0.15 -0.15)">
       <use xlink:href="#DejaVuSans-49"/>
       <use x="63.623047" xlink:href="#DejaVuSans-46"/>
       <use x="95.410156" xlink:href="#DejaVuSans-48"/>
      </g>
     </g>
    </g>
    <g id="text_16">
     <!-- CDF -->
     <defs>
      <path d="M 64.40625 67.28125 
L 64.40625 56.890625 
Q 59.421875 61.53125 53.78125 63.8125 
Q 48.140625 66.109375 41.796875 66.109375 
Q 29.296875 66.109375 22.65625 58.46875 
Q 16.015625 50.828125 16.015625 36.375 
Q 16.015625 21.96875 22.65625 14.328125 
Q 29.296875 6.6875 41.796875 6.6875 
Q 48.140625 6.6875 53.78125 8.984375 
Q 59.421875 11.28125 64.40625 15.921875 
L 64.40625 5.609375 
Q 59.234375 2.09375 53.4375 0.328125 
Q 47.65625 -1.421875 41.21875 -1.421875 
Q 24.65625 -1.421875 15.125 8.703125 
Q 5.609375 18.84375 5.609375 36.375 
Q 5.609375 53.953125 15.125 64.078125 
Q 24.65625 74.21875 41.21875 74.21875 
Q 47.75 74.21875 53.53125 72.484375 
Q 59.328125 70.75 64.40625 67.28125 
z
" id="DejaVuSans-67"/>
     </defs>
     <g transform="translate(316.187145 346.018531)scale(0.17 -0.17)">
      <use xlink:href="#DejaVuSans-67"/>
      <use x="69.824219" xlink:href="#DejaVuSans-68"/>
      <use x="146.826172" xlink:href="#DejaVuSans-70"/>
     </g>
    </g>
   </g>
   <g id="matplotlib.axis_4"/>
   <g id="line2d_19">
    <path clip-path="url(#peecfc36f9a)" d="M 260.761685 295.488 
L 262.943062 293.821957 
L 265.379299 292.155914 
L 267.862124 290.489871 
L 270.742309 288.823829 
L 273.671823 287.157786 
L 276.787685 285.491743 
L 279.788449 283.8257 
L 282.57272 282.159657 
L 285.315885 280.493614 
L 288.1303 278.827571 
L 290.944716 277.161529 
L 293.602927 275.495486 
L 295.989836 273.829443 
L 298.006788 272.1634 
L 300.158021 270.497357 
L 302.073578 268.831314 
L 303.83293 267.165271 
L 305.468963 265.499228 
L 306.93783 263.833186 
L 308.401217 262.167143 
L 309.944076 260.5011 
L 311.437607 258.835057 
L 312.805078 257.169014 
L 314.101299 255.502971 
L 315.27146 253.836928 
L 316.378591 252.170886 
L 317.458318 250.504843 
L 318.477756 248.8388 
L 319.486232 247.172757 
L 320.404274 245.506714 
L 321.462078 243.840671 
L 322.470554 242.174628 
L 323.454366 240.508586 
L 324.424476 238.842543 
L 325.47954 237.1765 
L 326.504458 235.510457 
L 327.554041 233.844414 
L 328.633768 232.178371 
L 329.664167 230.512328 
L 330.793222 228.846286 
L 331.861987 227.180243 
L 333.018446 225.5142 
L 334.114616 223.848157 
L 335.249152 222.182114 
L 336.389168 220.516071 
L 337.616878 218.850028 
L 338.798001 217.183985 
L 340.012009 215.517943 
L 341.245199 213.8519 
L 342.516756 212.185857 
L 344.081538 210.519814 
L 345.777861 208.853771 
L 347.885247 207.187728 
L 350.485909 205.521685 
L 354.078605 203.855643 
L 357.657599 202.1896 
L 360.981734 200.523557 
L 364.078413 198.857514 
L 366.999705 197.191471 
L 370.090903 195.525428 
L 373.086187 193.859385 
L 375.95267 192.193343 
L 378.769826 190.5273 
L 381.24991 188.861257 
L 383.724513 187.195214 
L 385.96892 185.529171 
L 388.194145 183.863128 
L 390.356339 182.197085 
L 392.715844 180.531043 
L 395.174005 178.865 
L 397.648608 177.198957 
L 399.703926 175.532914 
L 401.265967 173.866871 
L 402.405984 172.200828 
L 403.184264 170.534785 
L 403.806341 168.868742 
L 404.439379 167.2027 
L 404.765489 165.536657 
L 405.102561 163.870614 
L 405.41771 162.204571 
L 405.650646 160.538528 
L 405.856178 158.872485 
L 406.045267 157.206442 
L 406.174067 155.5404 
L 406.300126 153.874357 
L 406.442629 152.208314 
L 406.58239 150.542271 
L 406.735854 148.876228 
L 406.878356 147.210185 
L 407.042781 145.544142 
L 407.138696 143.8781 
L 407.204466 142.212057 
L 407.245573 140.546014 
L 407.29216 138.879971 
L 407.303122 137.213928 
L 407.319564 135.547885 
L 407.338747 133.881842 
L 407.341488 132.2158 
" style="fill:none;stroke:#5a0003;stroke-linecap:square;stroke-width:3;"/>
   </g>
   <g id="line2d_20">
    <path clip-path="url(#peecfc36f9a)" d="M 259.77124 295.488 
L 259.829844 293.019429 
L 259.964291 290.550857 
L 260.119421 288.082286 
L 260.374524 285.613714 
L 260.88473 283.145143 
L 261.567303 280.676571 
L 262.649768 278.208 
L 263.783942 275.739429 
L 264.794013 273.270857 
L 265.928187 270.802286 
L 267.441569 268.333714 
L 268.627454 265.865143 
L 269.720261 263.396571 
L 270.961303 260.928 
L 272.109267 258.459429 
L 273.357203 255.990857 
L 274.543088 253.522286 
L 275.594526 251.053714 
L 276.618386 248.585143 
L 277.769797 246.116571 
L 278.876393 243.648 
L 279.951963 241.179429 
L 281.099927 238.710857 
L 282.078971 236.242286 
L 283.223488 233.773714 
L 284.605871 231.305143 
L 286.219226 228.836571 
L 287.901527 226.368 
L 289.618302 223.899429 
L 291.896993 221.430857 
L 294.38942 218.962286 
L 296.285456 216.493714 
L 298.233203 214.025143 
L 300.146476 211.556571 
L 302.063197 209.088 
L 304.041969 206.619429 
L 306.220688 204.150857 
L 308.437327 201.682286 
L 310.712571 199.213714 
L 313.170523 196.745143 
L 315.728449 194.276571 
L 318.517346 191.808 
L 321.406217 189.339429 
L 324.105483 186.870857 
L 327.01159 184.402286 
L 329.79704 181.933714 
L 332.616964 179.465143 
L 335.519623 176.996571 
L 338.746333 174.528 
L 342.55909 172.059429 
L 346.106402 169.590857 
L 349.798502 167.122286 
L 354.359332 164.653714 
L 358.692637 162.185143 
L 362.457132 159.716571 
L 366.559465 157.248 
L 370.189513 154.779429 
L 373.812667 152.310857 
L 377.408242 149.842286 
L 381.369234 147.373714 
L 385.450884 144.905143 
L 387.939863 142.436571 
L 390.384026 139.968 
L 392.759243 137.499429 
L 394.70699 135.030857 
L 396.734025 132.562286 
L 398.754166 130.093714 
L 400.253758 127.625143 
L 402.101532 125.156571 
L 403.38739 122.688 
L 404.300934 120.219429 
L 405.183453 117.750857 
L 406.038393 115.282286 
L 406.293496 112.813714 
L 406.493442 110.345143 
L 406.645125 107.876571 
L 406.765782 105.408 
L 406.841623 102.939429 
L 406.931254 100.470857 
L 406.972622 98.002286 
L 406.993306 95.533714 
L 407.041569 93.065143 
L 407.076042 90.596571 
L 407.093279 88.128 
L 407.127753 85.659429 
L 407.141542 83.190857 
L 407.176015 80.722286 
L 407.196699 78.253714 
L 407.217383 75.785143 
L 407.238067 73.316571 
L 407.265646 70.848 
L 407.279435 68.379429 
L 407.289778 65.910857 
L 407.303567 63.442286 
L 407.313909 60.973714 
L 407.324251 58.505143 
L 407.334593 56.036571 
L 407.341488 53.568 
" style="fill:none;stroke:#ffcc7b;stroke-dasharray:1.5,2.475;stroke-dashoffset:0;stroke-width:1.5;"/>
   </g>
   <g id="line2d_21">
    <path clip-path="url(#peecfc36f9a)" d="M 259.841138 295.488 
L 259.942142 293.435774 
L 260.140785 291.383548 
L 260.41013 289.331323 
L 260.810782 287.279097 
L 261.342739 285.226871 
L 262.009369 283.174645 
L 262.928511 281.122419 
L 263.844286 279.070193 
L 264.884633 277.017968 
L 266.167391 274.965742 
L 267.207738 272.913516 
L 268.244718 270.86129 
L 269.150393 268.809064 
L 270.109936 266.756838 
L 271.096414 264.704613 
L 272.09636 262.652387 
L 273.055903 260.600161 
L 274.052482 258.547935 
L 275.065894 256.495709 
L 276.106241 254.443484 
L 277.18699 252.391258 
L 278.27784 250.339032 
L 279.32492 248.286806 
L 280.372001 246.23458 
L 281.432549 244.182354 
L 282.432495 242.130129 
L 283.523344 240.077903 
L 284.60746 238.025677 
L 285.816148 235.973451 
L 287.226845 233.921225 
L 288.984325 231.868999 
L 290.903412 229.816774 
L 292.758529 227.764548 
L 294.529476 225.712322 
L 296.391327 223.660096 
L 298.152174 221.60787 
L 300.071261 219.555645 
L 302.108186 217.503419 
L 304.03064 215.451193 
L 306.043998 213.398967 
L 308.326701 211.346741 
L 310.531968 209.294515 
L 312.959444 207.24229 
L 315.491293 205.190064 
L 318.009673 203.137838 
L 320.403482 201.085612 
L 322.733321 199.033386 
L 325.029491 196.98116 
L 327.446868 194.928935 
L 330.002283 192.876709 
L 332.618302 190.824483 
L 335.166984 188.772257 
L 337.823404 186.720031 
L 340.6751 184.667806 
L 343.456093 182.61558 
L 346.028343 180.563354 
L 348.893506 178.511128 
L 351.775503 176.458902 
L 354.667601 174.406676 
L 357.818944 172.354451 
L 360.973653 170.302225 
L 363.939821 168.249999 
L 367.060862 166.197773 
L 370.296376 164.145547 
L 373.501588 162.093322 
L 376.659664 160.041096 
L 379.760505 157.98887 
L 382.6122 155.936644 
L 385.251787 153.884418 
L 387.89474 151.832192 
L 390.396286 149.779967 
L 392.894466 147.727741 
L 395.123301 145.675515 
L 397.065955 143.623289 
L 398.756099 141.571063 
L 400.126394 139.518837 
L 401.29468 137.466612 
L 402.324927 135.414386 
L 403.257536 133.36216 
L 404.156477 131.309934 
L 404.876976 129.257708 
L 405.449335 127.205483 
L 405.819685 125.153257 
L 406.159734 123.101031 
L 406.466115 121.048805 
L 406.708526 118.996579 
L 406.836465 116.944353 
L 406.950937 114.892128 
L 407.035107 112.839902 
L 407.10581 110.787676 
L 407.156313 108.73545 
L 407.200081 106.683224 
L 407.227016 104.630998 
L 407.264051 102.578773 
L 407.297719 100.526547 
L 407.311186 98.474321 
L 407.334754 96.422095 
L 407.341488 94.369869 
" style="fill:none;stroke:#e6a346;stroke-dasharray:5.55,2.4;stroke-dashoffset:0;stroke-width:1.5;"/>
   </g>
   <g id="line2d_22">
    <path clip-path="url(#peecfc36f9a)" d="M 259.811531 295.488 
L 260.260118 293.351343 
L 260.916746 291.214686 
L 261.726153 289.078029 
L 262.707844 286.941372 
L 263.66028 284.804715 
L 264.505444 282.668059 
L 265.347358 280.531402 
L 266.234781 278.394745 
L 267.070193 276.258088 
L 268.016127 274.121431 
L 269.001069 271.984774 
L 269.872238 269.848117 
L 271.139985 267.71146 
L 272.404481 265.574803 
L 273.58121 263.438146 
L 274.76444 261.301489 
L 275.911914 259.164833 
L 277.202415 257.028176 
L 278.479913 254.891519 
L 279.893939 252.754862 
L 281.259204 250.618205 
L 282.439184 248.481548 
L 283.853209 246.344891 
L 285.036439 244.208234 
L 286.164409 242.071577 
L 287.61094 239.93492 
L 289.340277 237.798263 
L 290.910332 235.661607 
L 292.421876 233.52495 
L 293.884661 231.388293 
L 295.279182 229.251636 
L 296.894747 227.114979 
L 298.360782 224.978322 
L 299.979597 222.841665 
L 301.647171 220.705008 
L 303.350503 218.568351 
L 304.917308 216.431694 
L 306.474361 214.295037 
L 308.089925 212.158381 
L 309.624224 210.021724 
L 311.20078 207.885067 
L 312.865104 205.74841 
L 314.571686 203.611753 
L 316.466805 201.475096 
L 318.628476 199.338439 
L 320.871412 197.201782 
L 323.247624 195.065125 
L 325.578328 192.928468 
L 327.879776 190.791811 
L 330.158469 188.655155 
L 332.248626 186.518498 
L 334.270519 184.381841 
L 336.653233 182.245184 
L 338.788898 180.108527 
L 341.10985 177.97187 
L 343.518569 175.835213 
L 346.372624 173.698556 
L 349.12591 171.561899 
L 351.248573 169.425242 
L 353.481757 167.288585 
L 355.675934 165.151929 
L 357.886364 163.015272 
L 360.48362 160.878615 
L 363.227154 158.741958 
L 365.850414 156.605301 
L 368.580945 154.468644 
L 372.137137 152.331987 
L 375.195983 150.19533 
L 378.475871 148.058673 
L 382.064569 145.922016 
L 386.241632 143.785359 
L 388.026229 141.648703 
L 389.742563 139.512046 
L 390.9583 137.375389 
L 392.14153 135.238732 
L 393.406026 133.102075 
L 394.686775 130.965418 
L 396.022785 128.828761 
L 397.394552 126.692104 
L 398.281975 124.555447 
L 399.159646 122.41879 
L 400.05357 120.282133 
L 401.041762 118.145477 
L 402.075463 116.00882 
L 403.044151 113.872163 
L 403.75604 111.735506 
L 404.490683 109.598849 
L 404.93927 107.462192 
L 405.394359 105.325535 
L 405.842946 103.188878 
L 406.249275 101.052221 
L 406.694612 98.915564 
L 407.156202 96.778907 
L 407.282976 94.642251 
L 407.305731 92.505594 
L 407.321984 90.368937 
L 407.331736 88.23228 
L 407.341488 86.095623 
" style="fill:none;stroke:#b45a28;stroke-dasharray:9.6,2.4,1.5,2.4;stroke-dashoffset:0;stroke-width:1.5;"/>
   </g>
   <g id="line2d_23">
    <path clip-path="url(#peecfc36f9a)" d="M 259.845402 295.488 
L 260.154157 293.474299 
L 260.617289 291.460598 
L 261.249092 289.446897 
L 262.015261 287.433196 
L 262.935807 285.419495 
L 263.893518 283.405794 
L 265.048489 281.392093 
L 266.260637 279.378393 
L 267.518526 277.364692 
L 268.639191 275.350991 
L 269.819892 273.33729 
L 270.923404 271.323589 
L 272.001186 269.309888 
L 273.156157 267.296187 
L 274.048115 265.282486 
L 274.92292 263.268785 
L 275.83203 261.255084 
L 277.107073 259.241383 
L 279.008201 257.227682 
L 280.849293 255.213981 
L 282.741844 253.20028 
L 284.60009 251.186579 
L 286.289664 249.172878 
L 287.842013 247.159178 
L 289.551599 245.145477 
L 291.209726 243.131776 
L 292.919312 241.118075 
L 294.934793 239.104374 
L 297.027463 237.090673 
L 299.014357 235.076972 
L 301.078438 233.063271 
L 303.385522 231.04957 
L 305.964194 229.035869 
L 308.21696 227.022168 
L 310.200994 225.008467 
L 312.116416 222.994766 
L 313.75739 220.981065 
L 315.33261 218.967364 
L 316.856371 216.953664 
L 318.440168 214.939963 
L 320.038259 212.926262 
L 321.690668 210.912561 
L 323.297336 208.89886 
L 324.98691 206.885159 
L 326.765108 204.871458 
L 328.577612 202.857757 
L 330.564505 200.844056 
L 332.542822 198.830355 
L 334.71268 196.816654 
L 337.234176 194.802953 
L 340.373182 192.789252 
L 343.266327 190.775551 
L 345.756376 188.76185 
L 348.172095 186.748149 
L 350.484896 184.734449 
L 352.914909 182.720748 
L 355.282028 180.707047 
L 357.56624 178.693346 
L 359.973383 176.679645 
L 362.277607 174.665944 
L 364.533231 172.652243 
L 366.90035 170.638542 
L 369.198856 168.624841 
L 371.723211 166.61114 
L 374.624933 164.597439 
L 377.086393 162.583738 
L 379.544995 160.570037 
L 382.272328 158.556336 
L 384.919613 156.542635 
L 387.115201 154.528935 
L 389.079223 152.515234 
L 390.923175 150.501533 
L 392.921503 148.487832 
L 394.831208 146.474131 
L 396.852407 144.46043 
L 399.359609 142.446729 
L 400.914817 140.433028 
L 401.989741 138.419327 
L 402.621544 136.405626 
L 403.118982 134.391925 
L 403.613561 132.378224 
L 404.128152 130.364523 
L 404.554119 128.350822 
L 404.842862 126.337121 
L 405.074428 124.32342 
L 405.283123 122.30972 
L 405.497536 120.296019 
L 405.694796 118.282318 
L 405.88348 116.268617 
L 406.089316 114.254916 
L 406.257988 112.241215 
L 406.463824 110.227514 
L 406.666802 108.213813 
L 406.846908 106.200112 
L 406.995568 104.186411 
L 407.115639 102.17271 
L 407.232852 100.159009 
L 407.341488 98.145308 
" style="fill:none;stroke:#7d1e0b;stroke-linecap:square;stroke-width:1.5;"/>
   </g>
   <g id="patch_8">
    <path d="M 252.392727 307.584 
L 252.392727 41.472 
" style="fill:none;stroke:#000000;stroke-linecap:square;stroke-linejoin:miter;stroke-width:0.8;"/>
   </g>
   <g id="patch_9">
    <path d="M 414.72 307.584 
L 414.72 41.472 
" style="fill:none;stroke:#000000;stroke-linecap:square;stroke-linejoin:miter;stroke-width:0.8;"/>
   </g>
   <g id="patch_10">
    <path d="M 252.392727 307.584 
L 414.72 307.584 
" style="fill:none;stroke:#000000;stroke-linecap:square;stroke-linejoin:miter;stroke-width:0.8;"/>
   </g>
   <g id="patch_11">
    <path d="M 252.392727 41.472 
L 414.72 41.472 
" style="fill:none;stroke:#000000;stroke-linecap:square;stroke-linejoin:miter;stroke-width:0.8;"/>
   </g>
   <g id="legend_1">
    <g id="patch_12">
     <path d="M 261.492727 126.479813 
L 345.81804 126.479813 
Q 348.41804 126.479813 348.41804 123.879813 
L 348.41804 50.572 
Q 348.41804 47.972 345.81804 47.972 
L 261.492727 47.972 
Q 258.892727 47.972 258.892727 50.572 
L 258.892727 123.879813 
Q 258.892727 126.479813 261.492727 126.479813 
z
" style="fill:#ffffff;opacity:0.8;stroke:#cccccc;stroke-linejoin:miter;"/>
    </g>
    <g id="line2d_24">
     <path d="M 264.092727 58.499969 
L 290.092727 58.499969 
" style="fill:none;stroke:#5a0003;stroke-linecap:square;stroke-width:3;"/>
    </g>
    <g id="line2d_25"/>
    <g id="text_17">
     <!-- TS -->
     <defs>
      <path d="M -0.296875 72.90625 
L 61.375 72.90625 
L 61.375 64.59375 
L 35.5 64.59375 
L 35.5 0 
L 25.59375 0 
L 25.59375 64.59375 
L -0.296875 64.59375 
z
" id="DejaVuSans-84"/>
      <path d="M 53.515625 70.515625 
L 53.515625 60.890625 
Q 47.90625 63.578125 42.921875 64.890625 
Q 37.9375 66.21875 33.296875 66.21875 
Q 25.25 66.21875 20.875 63.09375 
Q 16.5 59.96875 16.5 54.203125 
Q 16.5 49.359375 19.40625 46.890625 
Q 22.3125 44.4375 30.421875 42.921875 
L 36.375 41.703125 
Q 47.40625 39.59375 52.65625 34.296875 
Q 57.90625 29 57.90625 20.125 
Q 57.90625 9.515625 50.796875 4.046875 
Q 43.703125 -1.421875 29.984375 -1.421875 
Q 24.8125 -1.421875 18.96875 -0.25 
Q 13.140625 0.921875 6.890625 3.21875 
L 6.890625 13.375 
Q 12.890625 10.015625 18.65625 8.296875 
Q 24.421875 6.59375 29.984375 6.59375 
Q 38.421875 6.59375 43.015625 9.90625 
Q 47.609375 13.234375 47.609375 19.390625 
Q 47.609375 24.75 44.3125 27.78125 
Q 41.015625 30.8125 33.5 32.328125 
L 27.484375 33.5 
Q 16.453125 35.6875 11.515625 40.375 
Q 6.59375 45.0625 6.59375 53.421875 
Q 6.59375 63.09375 13.40625 68.65625 
Q 20.21875 74.21875 32.171875 74.21875 
Q 37.3125 74.21875 42.625 73.28125 
Q 47.953125 72.359375 53.515625 70.515625 
z
" id="DejaVuSans-83"/>
     </defs>
     <g transform="translate(300.492727 63.049969)scale(0.13 -0.13)">
      <use xlink:href="#DejaVuSans-84"/>
      <use x="61.083984" xlink:href="#DejaVuSans-83"/>
     </g>
    </g>
    <g id="line2d_26">
     <path d="M 264.092727 72.381531 
L 290.092727 72.381531 
" style="fill:none;stroke:#ffcc7b;stroke-dasharray:1.5,2.475;stroke-dashoffset:0;stroke-width:1.5;"/>
    </g>
    <g id="line2d_27"/>
    <g id="text_18">
     <!-- RB, n0 -->
     <defs>
      <path d="M 44.390625 34.1875 
Q 47.5625 33.109375 50.5625 29.59375 
Q 53.5625 26.078125 56.59375 19.921875 
L 66.609375 0 
L 56 0 
L 46.6875 18.703125 
Q 43.0625 26.03125 39.671875 28.421875 
Q 36.28125 30.8125 30.421875 30.8125 
L 19.671875 30.8125 
L 19.671875 0 
L 9.8125 0 
L 9.8125 72.90625 
L 32.078125 72.90625 
Q 44.578125 72.90625 50.734375 67.671875 
Q 56.890625 62.453125 56.890625 51.90625 
Q 56.890625 45.015625 53.6875 40.46875 
Q 50.484375 35.9375 44.390625 34.1875 
z
M 19.671875 64.796875 
L 19.671875 38.921875 
L 32.078125 38.921875 
Q 39.203125 38.921875 42.84375 42.21875 
Q 46.484375 45.515625 46.484375 51.90625 
Q 46.484375 58.296875 42.84375 61.546875 
Q 39.203125 64.796875 32.078125 64.796875 
z
" id="DejaVuSans-82"/>
      <path d="M 19.671875 34.8125 
L 19.671875 8.109375 
L 35.5 8.109375 
Q 43.453125 8.109375 47.28125 11.40625 
Q 51.125 14.703125 51.125 21.484375 
Q 51.125 28.328125 47.28125 31.5625 
Q 43.453125 34.8125 35.5 34.8125 
z
M 19.671875 64.796875 
L 19.671875 42.828125 
L 34.28125 42.828125 
Q 41.5 42.828125 45.03125 45.53125 
Q 48.578125 48.25 48.578125 53.8125 
Q 48.578125 59.328125 45.03125 62.0625 
Q 41.5 64.796875 34.28125 64.796875 
z
M 9.8125 72.90625 
L 35.015625 72.90625 
Q 46.296875 72.90625 52.390625 68.21875 
Q 58.5 63.53125 58.5 54.890625 
Q 58.5 48.1875 55.375 44.234375 
Q 52.25 40.28125 46.1875 39.3125 
Q 53.46875 37.75 57.5 32.78125 
Q 61.53125 27.828125 61.53125 20.40625 
Q 61.53125 10.640625 54.890625 5.3125 
Q 48.25 0 35.984375 0 
L 9.8125 0 
z
" id="DejaVuSans-66"/>
      <path d="M 11.71875 12.40625 
L 22.015625 12.40625 
L 22.015625 4 
L 14.015625 -11.625 
L 7.71875 -11.625 
L 11.71875 4 
z
" id="DejaVuSans-44"/>
      <path d="M 54.890625 33.015625 
L 54.890625 0 
L 45.90625 0 
L 45.90625 32.71875 
Q 45.90625 40.484375 42.875 44.328125 
Q 39.84375 48.1875 33.796875 48.1875 
Q 26.515625 48.1875 22.3125 43.546875 
Q 18.109375 38.921875 18.109375 30.90625 
L 18.109375 0 
L 9.078125 0 
L 9.078125 54.6875 
L 18.109375 54.6875 
L 18.109375 46.1875 
Q 21.34375 51.125 25.703125 53.5625 
Q 30.078125 56 35.796875 56 
Q 45.21875 56 50.046875 50.171875 
Q 54.890625 44.34375 54.890625 33.015625 
z
" id="DejaVuSans-110"/>
     </defs>
     <g transform="translate(300.492727 76.931531)scale(0.13 -0.13)">
      <use xlink:href="#DejaVuSans-82"/>
      <use x="69.482422" xlink:href="#DejaVuSans-66"/>
      <use x="138.085938" xlink:href="#DejaVuSans-44"/>
      <use x="169.873047" xlink:href="#DejaVuSans-32"/>
      <use x="201.660156" xlink:href="#DejaVuSans-110"/>
      <use x="265.039062" xlink:href="#DejaVuSans-48"/>
     </g>
    </g>
    <g id="line2d_28">
     <path d="M 264.092727 86.263094 
L 290.092727 86.263094 
" style="fill:none;stroke:#e6a346;stroke-dasharray:5.55,2.4;stroke-dashoffset:0;stroke-width:1.5;"/>
    </g>
    <g id="line2d_29"/>
    <g id="text_19">
     <!-- RB, s0 -->
     <g transform="translate(300.492727 90.813094)scale(0.13 -0.13)">
      <use xlink:href="#DejaVuSans-82"/>
      <use x="69.482422" xlink:href="#DejaVuSans-66"/>
      <use x="138.085938" xlink:href="#DejaVuSans-44"/>
      <use x="169.873047" xlink:href="#DejaVuSans-32"/>
      <use x="201.660156" xlink:href="#DejaVuSans-115"/>
      <use x="253.759766" xlink:href="#DejaVuSans-48"/>
     </g>
    </g>
    <g id="line2d_30">
     <path d="M 264.092727 100.144656 
L 290.092727 100.144656 
" style="fill:none;stroke:#b45a28;stroke-dasharray:9.6,2.4,1.5,2.4;stroke-dashoffset:0;stroke-width:1.5;"/>
    </g>
    <g id="line2d_31"/>
    <g id="text_20">
     <!-- RB, s1 -->
     <g transform="translate(300.492727 104.694656)scale(0.13 -0.13)">
      <use xlink:href="#DejaVuSans-82"/>
      <use x="69.482422" xlink:href="#DejaVuSans-66"/>
      <use x="138.085938" xlink:href="#DejaVuSans-44"/>
      <use x="169.873047" xlink:href="#DejaVuSans-32"/>
      <use x="201.660156" xlink:href="#DejaVuSans-115"/>
      <use x="253.759766" xlink:href="#DejaVuSans-49"/>
     </g>
    </g>
    <g id="line2d_32">
     <path d="M 264.092727 114.026219 
L 290.092727 114.026219 
" style="fill:none;stroke:#7d1e0b;stroke-linecap:square;stroke-width:1.5;"/>
    </g>
    <g id="line2d_33"/>
    <g id="text_21">
     <!-- RB, s2 -->
     <g transform="translate(300.492727 118.576219)scale(0.13 -0.13)">
      <use xlink:href="#DejaVuSans-82"/>
      <use x="69.482422" xlink:href="#DejaVuSans-66"/>
      <use x="138.085938" xlink:href="#DejaVuSans-44"/>
      <use x="169.873047" xlink:href="#DejaVuSans-32"/>
      <use x="201.660156" xlink:href="#DejaVuSans-115"/>
      <use x="253.759766" xlink:href="#DejaVuSans-50"/>
     </g>
    </g>
   </g>
  </g>
 </g>
 <defs>
  <clipPath id="pd7600acf01">
   <rect height="266.112" width="162.327273" x="57.6" y="41.472"/>
  </clipPath>
  <clipPath id="peecfc36f9a">
   <rect height="266.112" width="162.327273" x="252.392727" y="41.472"/>
  </clipPath>
 </defs>
</svg>
