<?xml version="1.0" encoding="utf-8" standalone="no"?>
<!DOCTYPE svg PUBLIC "-//W3C//DTD SVG 1.1//EN"
  "http://www.w3.org/Graphics/SVG/1.1/DTD/svg11.dtd">
<!-- Created with matplotlib (https://matplotlib.org/) -->
<svg height="345.6pt" version="1.1" viewBox="0 0 460.8 345.6" width="460.8pt" xmlns="http://www.w3.org/2000/svg" xmlns:xlink="http://www.w3.org/1999/xlink">
 <defs>
  <style type="text/css">
*{stroke-linecap:butt;stroke-linejoin:round;}
  </style>
 </defs>
 <g id="figure_1">
  <g id="patch_1">
   <path d="M 0 345.6 
L 460.8 345.6 
L 460.8 0 
L 0 0 
z
" style="fill:#ffffff;"/>
  </g>
  <g id="axes_1">
   <g id="patch_2">
    <path d="M 57.6 307.584 
L 219.927273 307.584 
L 219.927273 41.472 
L 57.6 41.472 
z
" style="fill:#ffffff;"/>
   </g>
   <g id="matplotlib.axis_1">
    <g id="xtick_1">
     <g id="line2d_1">
      <defs>
       <path d="M 0 0 
L 0 3.5 
" id="m9338a0479a" style="stroke:#000000;stroke-width:0.8;"/>
      </defs>
      <g>
       <use style="stroke:#000000;stroke-width:0.8;" x="212.54876" xlink:href="#m9338a0479a" y="307.584"/>
      </g>
     </g>
     <g id="text_1">
      <!-- 0 -->
      <defs>
       <path d="M 31.78125 66.40625 
Q 24.171875 66.40625 20.328125 58.90625 
Q 16.5 51.421875 16.5 36.375 
Q 16.5 21.390625 20.328125 13.890625 
Q 24.171875 6.390625 31.78125 6.390625 
Q 39.453125 6.390625 43.28125 13.890625 
Q 47.125 21.390625 47.125 36.375 
Q 47.125 51.421875 43.28125 58.90625 
Q 39.453125 66.40625 31.78125 66.40625 
z
M 31.78125 74.21875 
Q 44.046875 74.21875 50.515625 64.515625 
Q 56.984375 54.828125 56.984375 36.375 
Q 56.984375 17.96875 50.515625 8.265625 
Q 44.046875 -1.421875 31.78125 -1.421875 
Q 19.53125 -1.421875 13.0625 8.265625 
Q 6.59375 17.96875 6.59375 36.375 
Q 6.59375 54.828125 13.0625 64.515625 
Q 19.53125 74.21875 31.78125 74.21875 
z
" id="DejaVuSans-48"/>
      </defs>
      <g transform="translate(207.776885 325.981656)scale(0.15 -0.15)">
       <use xlink:href="#DejaVuSans-48"/>
      </g>
     </g>
    </g>
    <g id="xtick_2">
     <g id="line2d_2">
      <g>
       <use style="stroke:#000000;stroke-width:0.8;" x="167.836072" xlink:href="#m9338a0479a" y="307.584"/>
      </g>
     </g>
     <g id="text_2">
      <!-- 2 -->
      <defs>
       <path d="M 19.1875 8.296875 
L 53.609375 8.296875 
L 53.609375 0 
L 7.328125 0 
L 7.328125 8.296875 
Q 12.9375 14.109375 22.625 23.890625 
Q 32.328125 33.6875 34.8125 36.53125 
Q 39.546875 41.84375 41.421875 45.53125 
Q 43.3125 49.21875 43.3125 52.78125 
Q 43.3125 58.59375 39.234375 62.25 
Q 35.15625 65.921875 28.609375 65.921875 
Q 23.96875 65.921875 18.8125 64.3125 
Q 13.671875 62.703125 7.8125 59.421875 
L 7.8125 69.390625 
Q 13.765625 71.78125 18.9375 73 
Q 24.125 74.21875 28.421875 74.21875 
Q 39.75 74.21875 46.484375 68.546875 
Q 53.21875 62.890625 53.21875 53.421875 
Q 53.21875 48.921875 51.53125 44.890625 
Q 49.859375 40.875 45.40625 35.40625 
Q 44.1875 33.984375 37.640625 27.21875 
Q 31.109375 20.453125 19.1875 8.296875 
z
" id="DejaVuSans-50"/>
      </defs>
      <g transform="translate(163.064197 325.981656)scale(0.15 -0.15)">
       <use xlink:href="#DejaVuSans-50"/>
      </g>
     </g>
    </g>
    <g id="xtick_3">
     <g id="line2d_3">
      <g>
       <use style="stroke:#000000;stroke-width:0.8;" x="123.123384" xlink:href="#m9338a0479a" y="307.584"/>
      </g>
     </g>
     <g id="text_3">
      <!-- 4 -->
      <defs>
       <path d="M 37.796875 64.3125 
L 12.890625 25.390625 
L 37.796875 25.390625 
z
M 35.203125 72.90625 
L 47.609375 72.90625 
L 47.609375 25.390625 
L 58.015625 25.390625 
L 58.015625 17.1875 
L 47.609375 17.1875 
L 47.609375 0 
L 37.796875 0 
L 37.796875 17.1875 
L 4.890625 17.1875 
L 4.890625 26.703125 
z
" id="DejaVuSans-52"/>
      </defs>
      <g transform="translate(118.351509 325.981656)scale(0.15 -0.15)">
       <use xlink:href="#DejaVuSans-52"/>
      </g>
     </g>
    </g>
    <g id="xtick_4">
     <g id="line2d_4">
      <g>
       <use style="stroke:#000000;stroke-width:0.8;" x="78.410696" xlink:href="#m9338a0479a" y="307.584"/>
      </g>
     </g>
     <g id="text_4">
      <!-- 6 -->
      <defs>
       <path d="M 33.015625 40.375 
Q 26.375 40.375 22.484375 35.828125 
Q 18.609375 31.296875 18.609375 23.390625 
Q 18.609375 15.53125 22.484375 10.953125 
Q 26.375 6.390625 33.015625 6.390625 
Q 39.65625 6.390625 43.53125 10.953125 
Q 47.40625 15.53125 47.40625 23.390625 
Q 47.40625 31.296875 43.53125 35.828125 
Q 39.65625 40.375 33.015625 40.375 
z
M 52.59375 71.296875 
L 52.59375 62.3125 
Q 48.875 64.0625 45.09375 64.984375 
Q 41.3125 65.921875 37.59375 65.921875 
Q 27.828125 65.921875 22.671875 59.328125 
Q 17.53125 52.734375 16.796875 39.40625 
Q 19.671875 43.65625 24.015625 45.921875 
Q 28.375 48.1875 33.59375 48.1875 
Q 44.578125 48.1875 50.953125 41.515625 
Q 57.328125 34.859375 57.328125 23.390625 
Q 57.328125 12.15625 50.6875 5.359375 
Q 44.046875 -1.421875 33.015625 -1.421875 
Q 20.359375 -1.421875 13.671875 8.265625 
Q 6.984375 17.96875 6.984375 36.375 
Q 6.984375 53.65625 15.1875 63.9375 
Q 23.390625 74.21875 37.203125 74.21875 
Q 40.921875 74.21875 44.703125 73.484375 
Q 48.484375 72.75 52.59375 71.296875 
z
" id="DejaVuSans-54"/>
      </defs>
      <g transform="translate(73.638821 325.981656)scale(0.15 -0.15)">
       <use xlink:href="#DejaVuSans-54"/>
      </g>
     </g>
    </g>
    <g id="text_5">
     <!-- PDF -->
     <defs>
      <path d="M 19.671875 64.796875 
L 19.671875 37.40625 
L 32.078125 37.40625 
Q 38.96875 37.40625 42.71875 40.96875 
Q 46.484375 44.53125 46.484375 51.125 
Q 46.484375 57.671875 42.71875 61.234375 
Q 38.96875 64.796875 32.078125 64.796875 
z
M 9.8125 72.90625 
L 32.078125 72.90625 
Q 44.34375 72.90625 50.609375 67.359375 
Q 56.890625 61.8125 56.890625 51.125 
Q 56.890625 40.328125 50.609375 34.8125 
Q 44.34375 29.296875 32.078125 29.296875 
L 19.671875 29.296875 
L 19.671875 0 
L 9.8125 0 
z
" id="DejaVuSans-80"/>
      <path d="M 19.671875 64.796875 
L 19.671875 8.109375 
L 31.59375 8.109375 
Q 46.6875 8.109375 53.6875 14.9375 
Q 60.6875 21.78125 60.6875 36.53125 
Q 60.6875 51.171875 53.6875 57.984375 
Q 46.6875 64.796875 31.59375 64.796875 
z
M 9.8125 72.90625 
L 30.078125 72.90625 
Q 51.265625 72.90625 61.171875 64.09375 
Q 71.09375 55.28125 71.09375 36.53125 
Q 71.09375 17.671875 61.125 8.828125 
Q 51.171875 0 30.078125 0 
L 9.8125 0 
z
" id="DejaVuSans-68"/>
      <path d="M 9.8125 72.90625 
L 51.703125 72.90625 
L 51.703125 64.59375 
L 19.671875 64.59375 
L 19.671875 43.109375 
L 48.578125 43.109375 
L 48.578125 34.8125 
L 19.671875 34.8125 
L 19.671875 0 
L 9.8125 0 
z
" id="DejaVuSans-70"/>
     </defs>
     <g transform="translate(122.204574 346.018531)scale(0.17 -0.17)">
      <use xlink:href="#DejaVuSans-80"/>
      <use x="60.302734" xlink:href="#DejaVuSans-68"/>
      <use x="137.304688" xlink:href="#DejaVuSans-70"/>
     </g>
    </g>
   </g>
   <g id="matplotlib.axis_2">
    <g id="ytick_1">
     <g id="line2d_5">
      <defs>
       <path d="M 0 0 
L -3.5 0 
" id="mefc10e3726" style="stroke:#000000;stroke-width:0.8;"/>
      </defs>
      <g>
       <use style="stroke:#000000;stroke-width:0.8;" x="57.6" xlink:href="#mefc10e3726" y="295.488"/>
      </g>
     </g>
     <g id="text_6">
      <!-- 0.0 -->
      <defs>
       <path d="M 10.6875 12.40625 
L 21 12.40625 
L 21 0 
L 10.6875 0 
z
" id="DejaVuSans-46"/>
      </defs>
      <g transform="translate(26.745313 301.186828)scale(0.15 -0.15)">
       <use xlink:href="#DejaVuSans-48"/>
       <use x="63.623047" xlink:href="#DejaVuSans-46"/>
       <use x="95.410156" xlink:href="#DejaVuSans-48"/>
      </g>
     </g>
    </g>
    <g id="ytick_2">
     <g id="line2d_6">
      <g>
       <use style="stroke:#000000;stroke-width:0.8;" x="57.6" xlink:href="#mefc10e3726" y="256.421733"/>
      </g>
     </g>
     <g id="text_7">
      <!-- 0.5 -->
      <defs>
       <path d="M 10.796875 72.90625 
L 49.515625 72.90625 
L 49.515625 64.59375 
L 19.828125 64.59375 
L 19.828125 46.734375 
Q 21.96875 47.46875 24.109375 47.828125 
Q 26.265625 48.1875 28.421875 48.1875 
Q 40.625 48.1875 47.75 41.5 
Q 54.890625 34.8125 54.890625 23.390625 
Q 54.890625 11.625 47.5625 5.09375 
Q 40.234375 -1.421875 26.90625 -1.421875 
Q 22.3125 -1.421875 17.546875 -0.640625 
Q 12.796875 0.140625 7.71875 1.703125 
L 7.71875 11.625 
Q 12.109375 9.234375 16.796875 8.0625 
Q 21.484375 6.890625 26.703125 6.890625 
Q 35.15625 6.890625 40.078125 11.328125 
Q 45.015625 15.765625 45.015625 23.390625 
Q 45.015625 31 40.078125 35.4375 
Q 35.15625 39.890625 26.703125 39.890625 
Q 22.75 39.890625 18.8125 39.015625 
Q 14.890625 38.140625 10.796875 36.28125 
z
" id="DejaVuSans-53"/>
      </defs>
      <g transform="translate(26.745313 262.120561)scale(0.15 -0.15)">
       <use xlink:href="#DejaVuSans-48"/>
       <use x="63.623047" xlink:href="#DejaVuSans-46"/>
       <use x="95.410156" xlink:href="#DejaVuSans-53"/>
      </g>
     </g>
    </g>
    <g id="ytick_3">
     <g id="line2d_7">
      <g>
       <use style="stroke:#000000;stroke-width:0.8;" x="57.6" xlink:href="#mefc10e3726" y="217.355466"/>
      </g>
     </g>
     <g id="text_8">
      <!-- 1.0 -->
      <defs>
       <path d="M 12.40625 8.296875 
L 28.515625 8.296875 
L 28.515625 63.921875 
L 10.984375 60.40625 
L 10.984375 69.390625 
L 28.421875 72.90625 
L 38.28125 72.90625 
L 38.28125 8.296875 
L 54.390625 8.296875 
L 54.390625 0 
L 12.40625 0 
z
" id="DejaVuSans-49"/>
      </defs>
      <g transform="translate(26.745313 223.054294)scale(0.15 -0.15)">
       <use xlink:href="#DejaVuSans-49"/>
       <use x="63.623047" xlink:href="#DejaVuSans-46"/>
       <use x="95.410156" xlink:href="#DejaVuSans-48"/>
      </g>
     </g>
    </g>
    <g id="ytick_4">
     <g id="line2d_8">
      <g>
       <use style="stroke:#000000;stroke-width:0.8;" x="57.6" xlink:href="#mefc10e3726" y="178.289199"/>
      </g>
     </g>
     <g id="text_9">
      <!-- 1.5 -->
      <g transform="translate(26.745313 183.988027)scale(0.15 -0.15)">
       <use xlink:href="#DejaVuSans-49"/>
       <use x="63.623047" xlink:href="#DejaVuSans-46"/>
       <use x="95.410156" xlink:href="#DejaVuSans-53"/>
      </g>
     </g>
    </g>
    <g id="ytick_5">
     <g id="line2d_9">
      <g>
       <use style="stroke:#000000;stroke-width:0.8;" x="57.6" xlink:href="#mefc10e3726" y="139.222932"/>
      </g>
     </g>
     <g id="text_10">
      <!-- 2.0 -->
      <g transform="translate(26.745313 144.92176)scale(0.15 -0.15)">
       <use xlink:href="#DejaVuSans-50"/>
       <use x="63.623047" xlink:href="#DejaVuSans-46"/>
       <use x="95.410156" xlink:href="#DejaVuSans-48"/>
      </g>
     </g>
    </g>
    <g id="ytick_6">
     <g id="line2d_10">
      <g>
       <use style="stroke:#000000;stroke-width:0.8;" x="57.6" xlink:href="#mefc10e3726" y="100.156665"/>
      </g>
     </g>
     <g id="text_11">
      <!-- 2.5 -->
      <g transform="translate(26.745313 105.855493)scale(0.15 -0.15)">
       <use xlink:href="#DejaVuSans-50"/>
       <use x="63.623047" xlink:href="#DejaVuSans-46"/>
       <use x="95.410156" xlink:href="#DejaVuSans-53"/>
      </g>
     </g>
    </g>
    <g id="ytick_7">
     <g id="line2d_11">
      <g>
       <use style="stroke:#000000;stroke-width:0.8;" x="57.6" xlink:href="#mefc10e3726" y="61.090398"/>
      </g>
     </g>
     <g id="text_12">
      <!-- 3.0 -->
      <defs>
       <path d="M 40.578125 39.3125 
Q 47.65625 37.796875 51.625 33 
Q 55.609375 28.21875 55.609375 21.1875 
Q 55.609375 10.40625 48.1875 4.484375 
Q 40.765625 -1.421875 27.09375 -1.421875 
Q 22.515625 -1.421875 17.65625 -0.515625 
Q 12.796875 0.390625 7.625 2.203125 
L 7.625 11.71875 
Q 11.71875 9.328125 16.59375 8.109375 
Q 21.484375 6.890625 26.8125 6.890625 
Q 36.078125 6.890625 40.9375 10.546875 
Q 45.796875 14.203125 45.796875 21.1875 
Q 45.796875 27.640625 41.28125 31.265625 
Q 36.765625 34.90625 28.71875 34.90625 
L 20.21875 34.90625 
L 20.21875 43.015625 
L 29.109375 43.015625 
Q 36.375 43.015625 40.234375 45.921875 
Q 44.09375 48.828125 44.09375 54.296875 
Q 44.09375 59.90625 40.109375 62.90625 
Q 36.140625 65.921875 28.71875 65.921875 
Q 24.65625 65.921875 20.015625 65.03125 
Q 15.375 64.15625 9.8125 62.3125 
L 9.8125 71.09375 
Q 15.4375 72.65625 20.34375 73.4375 
Q 25.25 74.21875 29.59375 74.21875 
Q 40.828125 74.21875 47.359375 69.109375 
Q 53.90625 64.015625 53.90625 55.328125 
Q 53.90625 49.265625 50.4375 45.09375 
Q 46.96875 40.921875 40.578125 39.3125 
z
" id="DejaVuSans-51"/>
      </defs>
      <g transform="translate(26.745313 66.789226)scale(0.15 -0.15)">
       <use xlink:href="#DejaVuSans-51"/>
       <use x="63.623047" xlink:href="#DejaVuSans-46"/>
       <use x="95.410156" xlink:href="#DejaVuSans-48"/>
      </g>
     </g>
    </g>
    <g id="text_13">
     <!-- Velocity (m/s) -->
     <defs>
      <path d="M 28.609375 0 
L 0.78125 72.90625 
L 11.078125 72.90625 
L 34.1875 11.53125 
L 57.328125 72.90625 
L 67.578125 72.90625 
L 39.796875 0 
z
" id="DejaVuSans-86"/>
      <path d="M 56.203125 29.59375 
L 56.203125 25.203125 
L 14.890625 25.203125 
Q 15.484375 15.921875 20.484375 11.0625 
Q 25.484375 6.203125 34.421875 6.203125 
Q 39.59375 6.203125 44.453125 7.46875 
Q 49.3125 8.734375 54.109375 11.28125 
L 54.109375 2.78125 
Q 49.265625 0.734375 44.1875 -0.34375 
Q 39.109375 -1.421875 33.890625 -1.421875 
Q 20.796875 -1.421875 13.15625 6.1875 
Q 5.515625 13.8125 5.515625 26.8125 
Q 5.515625 40.234375 12.765625 48.109375 
Q 20.015625 56 32.328125 56 
Q 43.359375 56 49.78125 48.890625 
Q 56.203125 41.796875 56.203125 29.59375 
z
M 47.21875 32.234375 
Q 47.125 39.59375 43.09375 43.984375 
Q 39.0625 48.390625 32.421875 48.390625 
Q 24.90625 48.390625 20.390625 44.140625 
Q 15.875 39.890625 15.1875 32.171875 
z
" id="DejaVuSans-101"/>
      <path d="M 9.421875 75.984375 
L 18.40625 75.984375 
L 18.40625 0 
L 9.421875 0 
z
" id="DejaVuSans-108"/>
      <path d="M 30.609375 48.390625 
Q 23.390625 48.390625 19.1875 42.75 
Q 14.984375 37.109375 14.984375 27.296875 
Q 14.984375 17.484375 19.15625 11.84375 
Q 23.34375 6.203125 30.609375 6.203125 
Q 37.796875 6.203125 41.984375 11.859375 
Q 46.1875 17.53125 46.1875 27.296875 
Q 46.1875 37.015625 41.984375 42.703125 
Q 37.796875 48.390625 30.609375 48.390625 
z
M 30.609375 56 
Q 42.328125 56 49.015625 48.375 
Q 55.71875 40.765625 55.71875 27.296875 
Q 55.71875 13.875 49.015625 6.21875 
Q 42.328125 -1.421875 30.609375 -1.421875 
Q 18.84375 -1.421875 12.171875 6.21875 
Q 5.515625 13.875 5.515625 27.296875 
Q 5.515625 40.765625 12.171875 48.375 
Q 18.84375 56 30.609375 56 
z
" id="DejaVuSans-111"/>
      <path d="M 48.78125 52.59375 
L 48.78125 44.1875 
Q 44.96875 46.296875 41.140625 47.34375 
Q 37.3125 48.390625 33.40625 48.390625 
Q 24.65625 48.390625 19.8125 42.84375 
Q 14.984375 37.3125 14.984375 27.296875 
Q 14.984375 17.28125 19.8125 11.734375 
Q 24.65625 6.203125 33.40625 6.203125 
Q 37.3125 6.203125 41.140625 7.25 
Q 44.96875 8.296875 48.78125 10.40625 
L 48.78125 2.09375 
Q 45.015625 0.34375 40.984375 -0.53125 
Q 36.96875 -1.421875 32.421875 -1.421875 
Q 20.0625 -1.421875 12.78125 6.34375 
Q 5.515625 14.109375 5.515625 27.296875 
Q 5.515625 40.671875 12.859375 48.328125 
Q 20.21875 56 33.015625 56 
Q 37.15625 56 41.109375 55.140625 
Q 45.0625 54.296875 48.78125 52.59375 
z
" id="DejaVuSans-99"/>
      <path d="M 9.421875 54.6875 
L 18.40625 54.6875 
L 18.40625 0 
L 9.421875 0 
z
M 9.421875 75.984375 
L 18.40625 75.984375 
L 18.40625 64.59375 
L 9.421875 64.59375 
z
" id="DejaVuSans-105"/>
      <path d="M 18.3125 70.21875 
L 18.3125 54.6875 
L 36.8125 54.6875 
L 36.8125 47.703125 
L 18.3125 47.703125 
L 18.3125 18.015625 
Q 18.3125 11.328125 20.140625 9.421875 
Q 21.96875 7.515625 27.59375 7.515625 
L 36.8125 7.515625 
L 36.8125 0 
L 27.59375 0 
Q 17.1875 0 13.234375 3.875 
Q 9.28125 7.765625 9.28125 18.015625 
L 9.28125 47.703125 
L 2.6875 47.703125 
L 2.6875 54.6875 
L 9.28125 54.6875 
L 9.28125 70.21875 
z
" id="DejaVuSans-116"/>
      <path d="M 32.171875 -5.078125 
Q 28.375 -14.84375 24.75 -17.8125 
Q 21.140625 -20.796875 15.09375 -20.796875 
L 7.90625 -20.796875 
L 7.90625 -13.28125 
L 13.1875 -13.28125 
Q 16.890625 -13.28125 18.9375 -11.515625 
Q 21 -9.765625 23.484375 -3.21875 
L 25.09375 0.875 
L 2.984375 54.6875 
L 12.5 54.6875 
L 29.59375 11.921875 
L 46.6875 54.6875 
L 56.203125 54.6875 
z
" id="DejaVuSans-121"/>
      <path id="DejaVuSans-32"/>
      <path d="M 31 75.875 
Q 24.46875 64.65625 21.28125 53.65625 
Q 18.109375 42.671875 18.109375 31.390625 
Q 18.109375 20.125 21.3125 9.0625 
Q 24.515625 -2 31 -13.1875 
L 23.1875 -13.1875 
Q 15.875 -1.703125 12.234375 9.375 
Q 8.59375 20.453125 8.59375 31.390625 
Q 8.59375 42.28125 12.203125 53.3125 
Q 15.828125 64.359375 23.1875 75.875 
z
" id="DejaVuSans-40"/>
      <path d="M 52 44.1875 
Q 55.375 50.25 60.0625 53.125 
Q 64.75 56 71.09375 56 
Q 79.640625 56 84.28125 50.015625 
Q 88.921875 44.046875 88.921875 33.015625 
L 88.921875 0 
L 79.890625 0 
L 79.890625 32.71875 
Q 79.890625 40.578125 77.09375 44.375 
Q 74.3125 48.1875 68.609375 48.1875 
Q 61.625 48.1875 57.5625 43.546875 
Q 53.515625 38.921875 53.515625 30.90625 
L 53.515625 0 
L 44.484375 0 
L 44.484375 32.71875 
Q 44.484375 40.625 41.703125 44.40625 
Q 38.921875 48.1875 33.109375 48.1875 
Q 26.21875 48.1875 22.15625 43.53125 
Q 18.109375 38.875 18.109375 30.90625 
L 18.109375 0 
L 9.078125 0 
L 9.078125 54.6875 
L 18.109375 54.6875 
L 18.109375 46.1875 
Q 21.1875 51.21875 25.484375 53.609375 
Q 29.78125 56 35.6875 56 
Q 41.65625 56 45.828125 52.96875 
Q 50 49.953125 52 44.1875 
z
" id="DejaVuSans-109"/>
      <path d="M 25.390625 72.90625 
L 33.6875 72.90625 
L 8.296875 -9.28125 
L 0 -9.28125 
z
" id="DejaVuSans-47"/>
      <path d="M 44.28125 53.078125 
L 44.28125 44.578125 
Q 40.484375 46.53125 36.375 47.5 
Q 32.28125 48.484375 27.875 48.484375 
Q 21.1875 48.484375 17.84375 46.4375 
Q 14.5 44.390625 14.5 40.28125 
Q 14.5 37.15625 16.890625 35.375 
Q 19.28125 33.59375 26.515625 31.984375 
L 29.59375 31.296875 
Q 39.15625 29.25 43.1875 25.515625 
Q 47.21875 21.78125 47.21875 15.09375 
Q 47.21875 7.46875 41.1875 3.015625 
Q 35.15625 -1.421875 24.609375 -1.421875 
Q 20.21875 -1.421875 15.453125 -0.5625 
Q 10.6875 0.296875 5.421875 2 
L 5.421875 11.28125 
Q 10.40625 8.6875 15.234375 7.390625 
Q 20.0625 6.109375 24.8125 6.109375 
Q 31.15625 6.109375 34.5625 8.28125 
Q 37.984375 10.453125 37.984375 14.40625 
Q 37.984375 18.0625 35.515625 20.015625 
Q 33.0625 21.96875 24.703125 23.78125 
L 21.578125 24.515625 
Q 13.234375 26.265625 9.515625 29.90625 
Q 5.8125 33.546875 5.8125 39.890625 
Q 5.8125 47.609375 11.28125 51.796875 
Q 16.75 56 26.8125 56 
Q 31.78125 56 36.171875 55.265625 
Q 40.578125 54.546875 44.28125 53.078125 
z
" id="DejaVuSans-115"/>
      <path d="M 8.015625 75.875 
L 15.828125 75.875 
Q 23.140625 64.359375 26.78125 53.3125 
Q 30.421875 42.28125 30.421875 31.390625 
Q 30.421875 20.453125 26.78125 9.375 
Q 23.140625 -1.703125 15.828125 -13.1875 
L 8.015625 -13.1875 
Q 14.5 -2 17.703125 9.0625 
Q 20.90625 20.125 20.90625 31.390625 
Q 20.90625 42.671875 17.703125 53.65625 
Q 14.5 64.65625 8.015625 75.875 
z
" id="DejaVuSans-41"/>
     </defs>
     <g transform="translate(19.209844 232.779562)rotate(-90)scale(0.17 -0.17)">
      <use xlink:href="#DejaVuSans-86"/>
      <use x="60.658203" xlink:href="#DejaVuSans-101"/>
      <use x="122.181641" xlink:href="#DejaVuSans-108"/>
      <use x="149.964844" xlink:href="#DejaVuSans-111"/>
      <use x="211.146484" xlink:href="#DejaVuSans-99"/>
      <use x="266.126953" xlink:href="#DejaVuSans-105"/>
      <use x="293.910156" xlink:href="#DejaVuSans-116"/>
      <use x="333.119141" xlink:href="#DejaVuSans-121"/>
      <use x="392.298828" xlink:href="#DejaVuSans-32"/>
      <use x="424.085938" xlink:href="#DejaVuSans-40"/>
      <use x="463.099609" xlink:href="#DejaVuSans-109"/>
      <use x="560.511719" xlink:href="#DejaVuSans-47"/>
      <use x="594.203125" xlink:href="#DejaVuSans-115"/>
      <use x="646.302734" xlink:href="#DejaVuSans-41"/>
     </g>
    </g>
   </g>
   <g id="line2d_12">
    <path clip-path="url(#p0d6786d1e6)" d="M 210.012456 295.488 
L 206.751494 293.019429 
L 203.943443 290.550857 
L 203.792472 288.082286 
L 204.184996 285.613714 
L 202.645097 283.145143 
L 202.252573 280.676571 
L 201.225974 278.208 
L 202.765873 275.739429 
L 204.245384 273.270857 
L 204.275578 270.802286 
L 203.822666 268.333714 
L 203.007426 265.865143 
L 203.03762 263.396571 
L 201.829856 260.928 
L 201.165586 258.459429 
L 201.316556 255.990857 
L 199.384134 253.522286 
L 199.686075 251.053714 
L 198.387729 248.585143 
L 197.602683 246.116571 
L 195.67026 243.648 
L 194.220944 241.179429 
L 192.318716 238.710857 
L 185.464656 236.242286 
L 181.29787 233.773714 
L 182.686799 231.305143 
L 185.343879 228.836571 
L 180.905347 226.368 
L 180.301465 223.899429 
L 184.075727 221.430857 
L 179.576807 218.962286 
L 189.903188 216.493714 
L 190.959981 214.025143 
L 191.956386 211.556571 
L 189.933382 209.088 
L 196.455307 206.619429 
L 200.954227 204.150857 
L 203.792472 201.682286 
L 205.724895 199.213714 
L 204.939848 196.745143 
L 204.396354 194.276571 
L 206.026835 191.808 
L 207.506346 189.339429 
L 207.627123 186.870857 
L 208.56314 184.402286 
L 210.223815 181.933714 
L 210.888085 179.465143 
L 210.55595 176.996571 
L 211.008861 174.528 
L 211.340996 172.059429 
L 211.039056 169.590857 
L 211.431579 167.122286 
L 211.582549 164.653714 
L 211.73352 162.185143 
L 211.824102 159.716571 
L 211.703326 157.248 
L 211.703326 154.779429 
L 211.340996 152.310857 
L 211.88449 149.842286 
L 212.005267 147.373714 
L 212.156237 144.905143 
L 211.88449 142.436571 
L 211.73352 139.968 
L 212.065655 137.499429 
L 211.642937 135.030857 
L 211.371191 132.562286 
L 211.159832 130.093714 
L 211.310802 127.625143 
L 211.250414 125.156571 
L 211.461773 122.688 
L 211.250414 120.219429 
L 211.582549 117.750857 
L 211.914684 115.282286 
L 212.246819 112.813714 
L 212.035461 110.345143 
L 212.095849 107.876571 
L 212.246819 105.408 
L 212.216625 102.939429 
L 212.156237 100.470857 
L 212.156237 98.002286 
L 212.156237 95.533714 
L 212.246819 93.065143 
L 212.307208 90.596571 
L 212.216625 88.128 
L 212.277013 85.659429 
L 212.307208 83.190857 
L 212.39779 80.722286 
L 212.337402 78.253714 
L 212.367596 75.785143 
L 212.39779 73.316571 
L 212.427984 70.848 
L 212.216625 68.379429 
L 212.427984 65.910857 
L 212.54876 63.442286 
L 212.458178 60.973714 
L 212.458178 58.505143 
L 212.54876 56.036571 
L 212.488372 53.568 
" style="fill:none;stroke:#5a0003;stroke-linecap:square;stroke-width:3;"/>
   </g>
   <g id="line2d_13">
    <path clip-path="url(#p0d6786d1e6)" d="M 199.561741 295.488 
L 212.54876 294.156792 
L 212.54876 292.825585 
L 212.54876 291.494377 
L 212.496393 290.163169 
L 211.606154 288.831962 
L 211.920356 287.500754 
L 211.920356 286.169546 
L 212.182191 284.838339 
L 212.339292 283.507131 
L 212.391659 282.175924 
L 212.339292 280.844716 
L 212.339292 279.513508 
L 211.606154 278.182301 
L 211.50142 276.851093 
L 211.763255 275.519885 
L 211.710888 274.188678 
L 211.606154 272.85747 
L 211.920356 271.526262 
L 212.02509 270.195055 
L 212.182191 268.863847 
L 212.129824 267.532639 
L 211.972723 266.201432 
L 211.972723 264.870224 
L 211.815622 263.539016 
L 211.867989 262.207809 
L 211.867989 260.876601 
L 212.129824 259.545393 
L 211.710888 258.214186 
L 211.815622 256.882978 
L 212.286925 255.551771 
L 210.768282 254.220563 
L 211.344319 252.889355 
L 211.50142 251.558148 
L 211.291952 250.22694 
L 211.449053 248.895732 
L 211.606154 247.564525 
L 211.606154 246.233317 
L 210.820649 244.902109 
L 211.763255 243.570902 
L 211.134851 242.239694 
L 211.239585 240.908486 
L 211.763255 239.577279 
L 211.291952 238.246071 
L 210.873016 236.914863 
L 210.558814 235.583656 
L 210.349346 234.252448 
L 209.668575 232.92124 
L 208.568867 231.590033 
L 207.626261 230.258825 
L 205.112644 228.927618 
L 193.906103 227.59641 
L 185.317913 226.265202 
L 171.493021 224.933995 
L 152.850363 223.602787 
L 160.391214 222.271579 
L 165.627915 220.940372 
L 168.403367 219.609164 
L 171.545388 218.277956 
L 172.959297 216.946749 
L 169.031771 215.615541 
L 166.308686 214.284333 
L 165.470814 212.953126 
L 161.281453 211.621918 
L 156.777889 210.29071 
L 154.473741 208.959503 
L 154.369007 207.628295 
L 156.254219 206.297088 
L 154.84031 204.96588 
L 150.965151 203.634672 
L 139.863344 202.303465 
L 64.978512 200.972257 
L 181.023817 199.641049 
L 198.566767 198.309842 
L 201.656421 196.978634 
L 204.536607 195.647426 
L 204.746075 194.316219 
L 205.741048 192.985011 
L 207.312059 191.653803 
L 208.307032 190.322596 
L 208.778335 188.991388 
L 209.092537 187.66018 
L 209.302005 186.328973 
L 209.302005 184.997765 
L 209.982777 183.666557 
L 210.087511 182.33535 
L 209.56384 181.004142 
L 210.087511 179.672935 
L 211.606154 178.341727 
L 211.449053 177.010519 
L 212.234558 175.679312 
L 212.286925 174.348104 
L 212.339292 173.016896 
L 211.972723 171.685689 
L 212.444026 170.354481 
L 212.391659 169.023273 
L 212.339292 167.692066 
L 212.496393 166.360858 
L 212.444026 165.02965 
L 212.54876 163.698443 
" style="fill:none;stroke:#ffcc7b;stroke-dasharray:1.5,2.475;stroke-dashoffset:0;stroke-width:1.5;"/>
   </g>
   <g id="line2d_14">
    <path clip-path="url(#p0d6786d1e6)" d="M 212.380295 295.488 
L 211.088728 294.230736 
L 202.665466 292.973472 
L 210.414867 291.716209 
L 211.818744 290.458945 
L 211.706434 289.201681 
L 211.201038 287.944417 
L 211.818744 286.687154 
L 212.09952 285.42989 
L 211.874899 284.172626 
L 211.313349 282.915362 
L 211.931054 281.658099 
L 212.043365 280.400835 
L 211.874899 279.143571 
L 212.09952 277.886307 
L 211.762589 276.629044 
L 211.874899 275.37178 
L 211.874899 274.114516 
L 211.931054 272.857252 
L 211.762589 271.599989 
L 212.09952 270.342725 
L 211.257193 269.085461 
L 211.425659 267.828197 
L 211.257193 266.570934 
L 211.481814 265.31367 
L 211.537969 264.056406 
L 211.369504 262.799142 
L 211.313349 261.541879 
L 211.650279 260.284615 
L 211.369504 259.027351 
L 211.594124 257.770087 
L 211.537969 256.512824 
L 211.369504 255.25556 
L 211.088728 253.998296 
L 211.369504 252.741032 
L 211.369504 251.483769 
L 211.032573 250.226505 
L 210.920263 248.969241 
L 210.583333 247.711977 
L 210.414867 246.454714 
L 210.134092 245.19745 
L 210.190247 243.940186 
L 209.628696 242.682922 
L 208.056354 241.425659 
L 208.168664 240.168395 
L 207.607113 238.911131 
L 207.045562 237.653867 
L 204.181653 236.396604 
L 198.903076 235.13934 
L 196.769183 233.882076 
L 191.602915 232.624812 
L 189.412867 231.367549 
L 184.13429 230.110285 
L 180.315744 228.853021 
L 175.767183 227.595757 
L 175.149477 226.338494 
L 173.071739 225.08123 
L 170.151675 223.823966 
L 169.590124 222.566702 
L 169.927054 221.309439 
L 166.67006 220.052175 
L 168.242402 218.794911 
L 169.702434 217.537647 
L 168.691643 216.280384 
L 169.253193 215.02312 
L 167.961627 213.765856 
L 164.816942 212.508592 
L 166.838525 211.251329 
L 163.693841 209.994065 
L 162.402274 208.736801 
L 160.268381 207.479537 
L 152.238204 206.222274 
L 144.376493 204.96501 
L 135.784766 203.707746 
L 144.488803 202.450482 
L 155.719819 201.193219 
L 176.272579 199.935955 
L 190.423659 198.678691 
L 200.756193 197.421427 
L 208.280974 196.164164 
L 210.583333 194.9069 
L 211.032573 193.649636 
L 211.537969 192.392372 
L 210.807953 191.135109 
L 211.369504 189.877845 
L 211.425659 188.620581 
L 211.650279 187.363317 
L 211.537969 186.106054 
L 211.650279 184.84879 
L 211.931054 183.591526 
L 211.98721 182.334262 
L 212.380295 181.076999 
L 212.267985 179.819735 
L 212.43645 178.562471 
L 212.21183 177.305207 
L 212.380295 176.047944 
L 212.492605 174.79068 
L 212.492605 173.533416 
L 212.54876 172.276152 
" style="fill:none;stroke:#e6a346;stroke-dasharray:5.55,2.4;stroke-dashoffset:0;stroke-width:1.5;"/>
   </g>
   <g id="line2d_15">
    <path clip-path="url(#p0d6786d1e6)" d="M 203.879643 295.488 
L 211.540723 294.121899 
L 212.347153 292.755797 
L 212.498358 291.389696 
L 212.498358 290.023595 
L 212.54876 288.657493 
L 212.044742 287.291392 
L 212.195947 285.925291 
L 212.246349 284.559189 
L 212.296751 283.193088 
L 211.943938 281.826987 
L 211.943938 280.460885 
L 212.246349 279.094784 
L 212.347153 277.728683 
L 212.296751 276.362581 
L 212.347153 274.99648 
L 212.246349 273.630379 
L 212.246349 272.264277 
L 212.397555 270.898176 
L 212.447957 269.532075 
L 212.347153 268.165973 
L 212.347153 266.799872 
L 212.397555 265.433771 
L 212.095144 264.067669 
L 212.195947 262.701568 
L 211.43992 261.335467 
L 211.843135 259.969365 
L 211.792733 258.603264 
L 211.792733 257.237163 
L 211.691929 255.871061 
L 211.691929 254.50496 
L 211.591125 253.138859 
L 211.540723 251.772757 
L 211.389518 250.406656 
L 211.843135 249.040555 
L 211.036705 247.674453 
L 211.238312 246.308352 
L 211.943938 244.942251 
L 211.43992 243.576149 
L 210.935901 242.210048 
L 211.036705 240.843946 
L 211.187911 239.477845 
L 211.238312 238.111744 
L 210.784696 236.745642 
L 209.171837 235.379541 
L 207.105361 234.01344 
L 196.621777 232.647338 
L 194.051283 231.281237 
L 189.968734 229.915136 
L 181.854037 228.549034 
L 172.580098 227.182933 
L 173.436929 225.816832 
L 173.991349 224.45073 
L 170.765631 223.084629 
L 172.328088 221.718528 
L 168.295941 220.352426 
L 166.027858 218.986325 
L 164.062186 217.620224 
L 162.600532 216.254122 
L 155.645078 214.888021 
L 156.602713 213.52192 
L 153.225789 212.155818 
L 154.133023 210.789717 
L 147.177568 209.423616 
L 138.508451 208.057514 
L 152.41936 206.691413 
L 172.176883 205.325312 
L 180.593991 203.95921 
L 182.458859 202.593109 
L 186.84382 201.227008 
L 187.146231 199.860906 
L 188.406277 198.494805 
L 191.884004 197.128704 
L 193.849676 195.762602 
L 201.359551 194.396501 
L 204.837278 193.0304 
L 205.4421 191.664298 
L 206.349333 190.298197 
L 204.686073 188.932096 
L 206.80295 187.565994 
L 206.147726 186.199893 
L 207.206165 184.833792 
L 207.105361 183.46769 
L 207.861389 182.101589 
L 207.407772 180.735488 
L 208.869426 179.369386 
L 207.861389 178.003285 
L 207.458174 176.637184 
L 208.415809 175.271082 
L 208.970229 173.904981 
L 208.819024 172.53888 
L 209.52465 171.172778 
L 210.179874 169.806677 
L 210.63349 168.440576 
L 211.490322 167.074474 
L 211.43992 165.708373 
L 211.792733 164.342272 
L 211.742331 162.97617 
L 211.943938 161.610069 
" style="fill:none;stroke:#b45a28;stroke-dasharray:9.6,2.4,1.5,2.4;stroke-dashoffset:0;stroke-width:1.5;"/>
   </g>
   <g id="line2d_16">
    <path clip-path="url(#p0d6786d1e6)" d="M 202.155171 295.488 
L 212.449774 294.135525 
L 212.54876 292.783051 
L 211.657881 291.430576 
L 212.004334 290.078101 
L 212.152814 288.725627 
L 212.103321 287.373152 
L 212.251801 286.020677 
L 212.301294 284.668203 
L 212.301294 283.315728 
L 211.459908 281.963253 
L 211.509401 280.610779 
L 211.806361 279.258304 
L 211.855854 277.905829 
L 211.558895 276.553354 
L 212.301294 275.20088 
L 211.954841 273.848405 
L 212.053828 272.49593 
L 212.202307 271.143456 
L 212.251801 269.790981 
L 212.251801 268.438506 
L 212.103321 267.086032 
L 212.053828 265.733557 
L 212.152814 264.381082 
L 212.053828 263.028608 
L 212.152814 261.676133 
L 212.053828 260.323658 
L 210.816495 258.971184 
L 211.608388 257.618709 
L 211.806361 256.266234 
L 211.113455 254.91376 
L 211.162948 253.561285 
L 211.261935 252.20881 
L 211.459908 250.856336 
L 211.360922 249.503861 
L 210.717509 248.151386 
L 207.797405 246.798911 
L 204.233889 245.446437 
L 198.195709 244.093962 
L 192.058542 242.741487 
L 191.662595 241.389013 
L 185.525429 240.036538 
L 185.970868 238.684063 
L 182.555832 237.331589 
L 183.496204 235.979114 
L 177.903463 234.626639 
L 176.319678 233.274165 
L 174.785386 231.92169 
L 174.53792 230.569215 
L 174.141974 229.216741 
L 164.292811 227.864266 
L 163.500918 226.511791 
L 162.065613 225.159317 
L 166.124062 223.806842 
L 169.885552 222.454367 
L 170.083525 221.101893 
L 174.042987 219.749418 
L 168.450246 218.396943 
L 168.895686 217.044468 
L 171.617816 215.691994 
L 174.09248 214.339519 
L 174.09248 212.987044 
L 175.478292 211.63457 
L 179.982181 210.282095 
L 180.72458 208.92962 
L 185.772895 207.577146 
L 186.168841 206.224671 
L 188.544519 204.872196 
L 189.682864 203.519722 
L 189.286918 202.167247 
L 191.019183 200.814772 
L 195.572565 199.462298 
L 197.700776 198.109823 
L 197.205843 196.757348 
L 198.443175 195.404874 
L 198.294695 194.052399 
L 200.02696 192.699924 
L 201.264292 191.34745 
L 202.501624 189.994975 
L 205.273248 188.6425 
L 212.053828 187.290026 
L 212.251801 185.937551 
L 212.202307 184.585076 
L 212.251801 183.232601 
L 212.152814 181.880127 
L 212.004334 180.527652 
L 212.301294 179.175177 
L 212.152814 177.822703 
L 212.499267 176.470228 
L 212.499267 175.117753 
L 212.202307 173.765279 
L 212.54876 172.412804 
L 212.449774 171.060329 
L 212.54876 169.707855 
L 212.499267 168.35538 
L 212.449774 167.002905 
L 212.499267 165.650431 
L 212.449774 164.297956 
L 212.54876 162.945481 
L 212.499267 161.593007 
" style="fill:none;stroke:#7d1e0b;stroke-linecap:square;stroke-width:1.5;"/>
   </g>
   <g id="patch_3">
    <path d="M 57.6 307.584 
L 57.6 41.472 
" style="fill:none;stroke:#000000;stroke-linecap:square;stroke-linejoin:miter;stroke-width:0.8;"/>
   </g>
   <g id="patch_4">
    <path d="M 219.927273 307.584 
L 219.927273 41.472 
" style="fill:none;stroke:#000000;stroke-linecap:square;stroke-linejoin:miter;stroke-width:0.8;"/>
   </g>
   <g id="patch_5">
    <path d="M 57.6 307.584 
L 219.927273 307.584 
" style="fill:none;stroke:#000000;stroke-linecap:square;stroke-linejoin:miter;stroke-width:0.8;"/>
   </g>
   <g id="patch_6">
    <path d="M 57.6 41.472 
L 219.927273 41.472 
" style="fill:none;stroke:#000000;stroke-linecap:square;stroke-linejoin:miter;stroke-width:0.8;"/>
   </g>
  </g>
  <g id="axes_2">
   <g id="patch_7">
    <path d="M 252.392727 307.584 
L 414.72 307.584 
L 414.72 41.472 
L 252.392727 41.472 
z
" style="fill:#ffffff;"/>
   </g>
   <g id="matplotlib.axis_3">
    <g id="xtick_5">
     <g id="line2d_17">
      <g>
       <use style="stroke:#000000;stroke-width:0.8;" x="259.753344" xlink:href="#m9338a0479a" y="307.584"/>
      </g>
     </g>
     <g id="text_14">
      <!-- 0.0 -->
      <g transform="translate(247.826 325.981656)scale(0.15 -0.15)">
       <use xlink:href="#DejaVuSans-48"/>
       <use x="63.623047" xlink:href="#DejaVuSans-46"/>
       <use x="95.410156" xlink:href="#DejaVuSans-48"/>
      </g>
     </g>
    </g>
    <g id="xtick_6">
     <g id="line2d_18">
      <g>
       <use style="stroke:#000000;stroke-width:0.8;" x="333.547416" xlink:href="#m9338a0479a" y="307.584"/>
      </g>
     </g>
     <g id="text_15">
      <!-- 0.5 -->
      <g transform="translate(321.620072 325.981656)scale(0.15 -0.15)">
       <use xlink:href="#DejaVuSans-48"/>
       <use x="63.623047" xlink:href="#DejaVuSans-46"/>
       <use x="95.410156" xlink:href="#DejaVuSans-53"/>
      </g>
     </g>
    </g>
    <g id="xtick_7">
     <g id="line2d_19">
      <g>
       <use style="stroke:#000000;stroke-width:0.8;" x="407.341488" xlink:href="#m9338a0479a" y="307.584"/>
      </g>
     </g>
     <g id="text_16">
      <!-- 1.0 -->
      <g transform="translate(395.414144 325.981656)scale(0.15 -0.15)">
       <use xlink:href="#DejaVuSans-49"/>
       <use x="63.623047" xlink:href="#DejaVuSans-46"/>
       <use x="95.410156" xlink:href="#DejaVuSans-48"/>
      </g>
     </g>
    </g>
    <g id="text_17">
     <!-- CDF -->
     <defs>
      <path d="M 64.40625 67.28125 
L 64.40625 56.890625 
Q 59.421875 61.53125 53.78125 63.8125 
Q 48.140625 66.109375 41.796875 66.109375 
Q 29.296875 66.109375 22.65625 58.46875 
Q 16.015625 50.828125 16.015625 36.375 
Q 16.015625 21.96875 22.65625 14.328125 
Q 29.296875 6.6875 41.796875 6.6875 
Q 48.140625 6.6875 53.78125 8.984375 
Q 59.421875 11.28125 64.40625 15.921875 
L 64.40625 5.609375 
Q 59.234375 2.09375 53.4375 0.328125 
Q 47.65625 -1.421875 41.21875 -1.421875 
Q 24.65625 -1.421875 15.125 8.703125 
Q 5.609375 18.84375 5.609375 36.375 
Q 5.609375 53.953125 15.125 64.078125 
Q 24.65625 74.21875 41.21875 74.21875 
Q 47.75 74.21875 53.53125 72.484375 
Q 59.328125 70.75 64.40625 67.28125 
z
" id="DejaVuSans-67"/>
     </defs>
     <g transform="translate(316.187145 346.018531)scale(0.17 -0.17)">
      <use xlink:href="#DejaVuSans-67"/>
      <use x="69.824219" xlink:href="#DejaVuSans-68"/>
      <use x="146.826172" xlink:href="#DejaVuSans-70"/>
     </g>
    </g>
   </g>
   <g id="matplotlib.axis_4"/>
   <g id="line2d_20">
    <path clip-path="url(#p1c55cb6332)" d="M 260.282356 295.488 
L 261.491527 293.019429 
L 263.28639 290.550857 
L 265.112742 288.082286 
L 266.857224 285.613714 
L 268.922891 283.145143 
L 271.070429 280.676571 
L 273.432091 278.208 
L 275.472567 275.739429 
L 277.204453 273.270857 
L 278.930041 270.802286 
L 280.750095 268.333714 
L 282.740189 265.865143 
L 284.723985 263.396571 
L 286.959692 260.928 
L 289.33395 258.459429 
L 291.676719 255.990857 
L 294.422545 253.522286 
L 297.105393 251.053714 
L 300.059045 248.585143 
L 303.17644 246.116571 
L 306.696891 243.648 
L 310.519635 241.179429 
L 314.739138 238.710857 
L 320.388234 236.242286 
L 326.906422 233.773714 
L 333.134912 231.305143 
L 338.809199 228.836571 
L 345.409258 226.368 
L 352.135272 223.899429 
L 358.074065 221.430857 
L 364.951225 218.962286 
L 369.67455 216.493714 
L 374.177452 214.025143 
L 378.472529 211.556571 
L 383.189555 209.088 
L 386.546265 206.619429 
L 388.964607 204.150857 
L 390.790959 201.682286 
L 392.214254 199.213714 
L 393.801291 196.745143 
L 395.501688 194.276571 
L 396.862005 191.808 
L 397.913732 189.339429 
L 398.940268 186.870857 
L 399.771573 184.402286 
L 400.256501 181.933714 
L 400.602878 179.465143 
L 401.018531 176.996571 
L 401.339717 174.528 
L 401.591627 172.059429 
L 401.906516 169.590857 
L 402.139533 167.122286 
L 402.341061 164.653714 
L 402.511101 162.185143 
L 402.662248 159.716571 
L 402.838585 157.248 
L 403.014922 154.779429 
L 403.266833 152.310857 
L 403.405384 149.842286 
L 403.518744 147.373714 
L 403.600615 144.905143 
L 403.739166 142.436571 
L 403.909205 139.968 
L 404.009969 137.499429 
L 404.198902 135.030857 
L 404.444515 132.562286 
L 404.734213 130.093714 
L 404.992421 127.625143 
L 405.263225 125.156571 
L 405.489944 122.688 
L 405.760748 120.219429 
L 405.962277 117.750857 
L 406.09453 115.282286 
L 406.157508 112.813714 
L 406.26457 110.345143 
L 406.359036 107.876571 
L 406.422014 105.408 
L 406.491289 102.939429 
L 406.57316 100.470857 
L 406.655031 98.002286 
L 406.736902 95.533714 
L 406.79988 93.065143 
L 406.850262 90.596571 
L 406.919537 88.128 
L 406.976217 85.659429 
L 407.026599 83.190857 
L 407.058088 80.722286 
L 407.102172 78.253714 
L 407.139959 75.785143 
L 407.171448 73.316571 
L 407.196639 70.848 
L 407.265914 68.379429 
L 407.291105 65.910857 
L 407.291105 63.442286 
L 407.309999 60.973714 
L 407.328892 58.505143 
L 407.328892 56.036571 
L 407.341488 53.568 
" style="fill:none;stroke:#5a0003;stroke-linecap:square;stroke-width:3;"/>
   </g>
   <g id="line2d_21">
    <path clip-path="url(#p1c55cb6332)" d="M 261.214088 295.488 
L 261.214088 294.156792 
L 261.214088 292.825585 
L 261.214088 291.494377 
L 261.219978 290.163169 
L 261.325999 288.831962 
L 261.396681 287.500754 
L 261.467362 286.169546 
L 261.508592 284.838339 
L 261.532153 283.507131 
L 261.549823 282.175924 
L 261.573383 280.844716 
L 261.596944 279.513508 
L 261.702966 278.182301 
L 261.820768 276.851093 
L 261.909119 275.519885 
L 262.00336 274.188678 
L 262.109382 272.85747 
L 262.180063 271.526262 
L 262.238964 270.195055 
L 262.280195 268.863847 
L 262.327316 267.532639 
L 262.392107 266.201432 
L 262.456898 264.870224 
L 262.539359 263.539016 
L 262.615931 262.207809 
L 262.692502 260.876601 
L 262.739623 259.545393 
L 262.833864 258.214186 
L 262.916325 256.882978 
L 262.945776 255.551771 
L 263.146039 254.220563 
L 263.281511 252.889355 
L 263.399313 251.558148 
L 263.540676 250.22694 
L 263.664368 248.895732 
L 263.770389 247.564525 
L 263.876411 246.233317 
L 264.070784 244.902109 
L 264.159136 243.570902 
L 264.318168 242.239694 
L 264.465421 240.908486 
L 264.553772 239.577279 
L 264.695135 238.246071 
L 264.883618 236.914863 
L 265.107441 235.583656 
L 265.354825 234.252448 
L 265.678781 232.92124 
L 266.126428 231.590033 
L 266.680097 230.258825 
L 267.516491 228.927618 
L 269.613365 227.59641 
L 272.676215 226.265202 
L 277.294051 224.933995 
L 284.00876 223.602787 
L 289.875296 222.271579 
L 295.152823 220.940372 
L 300.118174 219.609164 
L 304.730119 218.277956 
L 309.183032 216.946749 
L 314.077702 215.615541 
L 319.278657 214.284333 
L 324.573854 212.953126 
L 330.340258 211.621918 
L 336.613211 210.29071 
L 343.145328 208.959503 
L 349.689225 207.628295 
L 356.021078 206.297088 
L 362.511964 204.96588 
L 369.438718 203.634672 
L 377.614171 202.303465 
L 394.212463 200.972257 
L 397.758301 199.641049 
L 399.330957 198.309842 
L 400.556097 196.978634 
L 401.457281 195.647426 
L 402.334906 194.316219 
L 403.100618 192.985011 
L 403.689628 191.653803 
L 404.166726 190.322596 
L 404.590813 188.991388 
L 404.979559 187.66018 
L 405.344745 186.328973 
L 405.709931 184.997765 
L 405.998546 183.666557 
L 406.27538 182.33535 
L 406.611116 181.004142 
L 406.88795 179.672935 
L 406.993972 178.341727 
L 407.117664 177.010519 
L 407.153005 175.679312 
L 407.182455 174.348104 
L 407.206015 173.016896 
L 407.270806 171.685689 
L 407.282587 170.354481 
L 407.300257 169.023273 
L 407.323817 167.692066 
L 407.329707 166.360858 
L 407.341488 165.02965 
L 407.341488 163.698443 
" style="fill:none;stroke:#ffcc7b;stroke-dasharray:1.5,2.475;stroke-dashoffset:0;stroke-width:1.5;"/>
   </g>
   <g id="line2d_22">
    <path clip-path="url(#p1c55cb6332)" d="M 259.77124 295.488 
L 259.926338 294.230736 
L 260.976236 292.973472 
L 261.202918 291.716209 
L 261.280467 290.458945 
L 261.369947 289.201681 
L 261.513115 287.944417 
L 261.590664 286.687154 
L 261.638387 285.42989 
L 261.709971 284.172626 
L 261.841208 282.915362 
L 261.906827 281.658099 
L 261.960515 280.400835 
L 262.032098 279.143571 
L 262.079821 277.886307 
L 262.163336 276.629044 
L 262.23492 275.37178 
L 262.306503 274.114516 
L 262.372122 272.857252 
L 262.455637 271.599989 
L 262.503359 270.342725 
L 262.640562 269.085461 
L 262.759868 267.828197 
L 262.897071 266.570934 
L 263.010412 265.31367 
L 263.117788 264.056406 
L 263.24306 262.799142 
L 263.374297 261.541879 
L 263.469742 260.284615 
L 263.595014 259.027351 
L 263.696425 257.770087 
L 263.8038 256.512824 
L 263.929072 255.25556 
L 264.084171 253.998296 
L 264.209443 252.741032 
L 264.334714 251.483769 
L 264.495778 250.226505 
L 264.668773 248.969241 
L 264.877559 247.711977 
L 265.104242 246.454714 
L 265.360751 245.19745 
L 265.611294 243.940186 
L 265.921491 242.682922 
L 266.398717 241.425659 
L 266.864013 240.168395 
L 267.388962 238.911131 
L 267.973564 237.653867 
L 268.862397 236.396604 
L 270.311972 235.13934 
L 271.988228 233.882076 
L 274.213295 232.624812 
L 276.67101 231.367549 
L 279.689465 230.110285 
L 283.113562 228.853021 
L 287.020851 227.595757 
L 290.993759 226.338494 
L 295.187383 225.08123 
L 299.691205 223.823966 
L 304.25468 222.566702 
L 308.782363 221.309439 
L 313.656034 220.052175 
L 318.362677 218.794911 
L 322.914221 217.537647 
L 327.573141 216.280384 
L 332.172408 215.02312 
L 336.908877 213.765856 
L 341.979405 212.508592 
L 346.835181 211.251329 
L 352.025015 209.994065 
L 357.352051 208.736801 
L 362.90577 207.479537 
L 369.312531 206.222274 
L 376.554437 204.96501 
L 384.709039 203.707746 
L 391.939014 202.450482 
L 397.975925 201.193219 
L 401.829526 199.935955 
L 404.179865 198.678691 
L 405.432583 197.421427 
L 405.885948 196.164164 
L 406.094734 194.9069 
L 406.255798 193.649636 
L 406.363174 192.392372 
L 406.548099 191.135109 
L 406.673371 189.877845 
L 406.792678 188.620581 
L 406.888123 187.363317 
L 406.995499 186.106054 
L 407.090944 184.84879 
L 407.156562 183.591526 
L 407.216216 182.334262 
L 407.234112 181.076999 
L 407.263938 179.819735 
L 407.275869 178.562471 
L 407.311661 177.305207 
L 407.329557 176.047944 
L 407.335522 174.79068 
L 407.341488 173.533416 
L 407.341488 172.276152 
" style="fill:none;stroke:#e6a346;stroke-dasharray:5.55,2.4;stroke-dashoffset:0;stroke-width:1.5;"/>
   </g>
   <g id="line2d_23">
    <path clip-path="url(#p1c55cb6332)" d="M 260.753981 295.488 
L 260.870334 294.121899 
L 260.893604 292.755797 
L 260.899422 291.389696 
L 260.90524 290.023595 
L 260.90524 288.657493 
L 260.963416 287.291392 
L 261.00414 285.925291 
L 261.039046 284.559189 
L 261.068134 283.193088 
L 261.137946 281.826987 
L 261.207758 280.460885 
L 261.242664 279.094784 
L 261.265935 277.728683 
L 261.295023 276.362581 
L 261.318293 274.99648 
L 261.353199 273.630379 
L 261.388105 272.264277 
L 261.405558 270.898176 
L 261.417194 269.532075 
L 261.440464 268.165973 
L 261.463735 266.799872 
L 261.481188 265.433771 
L 261.533547 264.067669 
L 261.57427 262.701568 
L 261.702259 261.335467 
L 261.783706 259.969365 
L 261.870971 258.603264 
L 261.958236 257.237163 
L 262.057136 255.871061 
L 262.156036 254.50496 
L 262.266572 253.138859 
L 262.382925 251.772757 
L 262.516731 250.406656 
L 262.598178 249.040555 
L 262.772708 247.674453 
L 262.923967 246.308352 
L 262.993779 244.942251 
L 263.121767 243.576149 
L 263.307932 242.210048 
L 263.482462 240.843946 
L 263.639539 239.477845 
L 263.790798 238.111744 
L 263.994416 236.745642 
L 264.384199 235.379541 
L 265.012506 234.01344 
L 266.850885 232.647338 
L 268.985966 231.281237 
L 271.592276 229.915136 
L 275.135229 228.549034 
L 279.748631 227.182933 
L 284.263133 225.816832 
L 288.713641 224.45073 
L 293.536479 223.084629 
L 298.178969 221.718528 
L 303.286872 220.352426 
L 308.65657 218.986325 
L 314.253156 217.620224 
L 320.018454 216.254122 
L 326.586589 214.888021 
L 333.044188 213.52192 
L 339.891571 212.155818 
L 346.634235 210.789717 
L 354.179737 209.423616 
L 362.725875 208.057514 
L 369.66634 206.691413 
L 374.326283 205.325312 
L 378.014678 203.95921 
L 381.487819 202.593109 
L 384.454824 201.227008 
L 387.386924 199.860906 
L 390.173581 198.494805 
L 392.558821 197.128704 
L 394.717172 195.762602 
L 396.008692 194.396501 
L 396.898793 193.0304 
L 397.719083 191.664298 
L 398.434655 190.298197 
L 399.342209 188.932096 
L 400.005422 187.565994 
L 400.744264 186.199893 
L 401.360936 184.833792 
L 401.989243 183.46769 
L 402.530285 182.101589 
L 403.123686 180.735488 
L 403.548375 179.369386 
L 404.089417 178.003285 
L 404.677001 176.637184 
L 405.154049 175.271082 
L 405.567102 173.904981 
L 405.997609 172.53888 
L 406.346668 171.172778 
L 406.620098 169.806677 
L 406.841169 168.440576 
L 406.96334 167.074474 
L 407.091328 165.708373 
L 407.178593 164.342272 
L 407.271676 162.97617 
L 407.341488 161.610069 
" style="fill:none;stroke:#b45a28;stroke-dasharray:9.6,2.4,1.5,2.4;stroke-dashoffset:0;stroke-width:1.5;"/>
   </g>
   <g id="line2d_24">
    <path clip-path="url(#p1c55cb6332)" d="M 260.941062 295.488 
L 260.952374 294.135525 
L 260.952374 292.783051 
L 261.054178 291.430576 
L 261.116392 290.078101 
L 261.161638 288.725627 
L 261.212541 287.373152 
L 261.246475 286.020677 
L 261.274754 284.668203 
L 261.303033 283.315728 
L 261.427461 281.963253 
L 261.546233 280.610779 
L 261.63107 279.258304 
L 261.710251 277.905829 
L 261.823367 276.553354 
L 261.851646 275.20088 
L 261.919516 273.848405 
L 261.976074 272.49593 
L 262.015664 271.143456 
L 262.049599 269.790981 
L 262.083534 268.438506 
L 262.134436 267.086032 
L 262.190994 265.733557 
L 262.236241 264.381082 
L 262.292799 263.028608 
L 262.338045 261.676133 
L 262.394603 260.323658 
L 262.592556 258.971184 
L 262.700016 257.618709 
L 262.784853 256.266234 
L 262.948872 254.91376 
L 263.107234 253.561285 
L 263.254285 252.20881 
L 263.378713 250.856336 
L 263.514452 249.503861 
L 263.723716 248.151386 
L 264.266673 246.798911 
L 265.216848 245.446437 
L 266.857031 244.093962 
L 269.198532 242.741487 
L 271.585281 241.389013 
L 274.673348 240.036538 
L 277.710514 238.684063 
L 281.13793 237.331589 
L 284.457885 235.979114 
L 288.416946 234.626639 
L 292.556993 233.274165 
L 296.87237 231.92169 
L 301.216026 230.569215 
L 305.604928 229.216741 
L 311.119334 227.864266 
L 316.724234 226.511791 
L 322.493151 225.159317 
L 327.798293 223.806842 
L 332.673594 222.454367 
L 337.526272 221.101893 
L 341.926486 219.749418 
L 346.965805 218.396943 
L 351.954222 217.044468 
L 356.63157 215.691994 
L 361.026128 214.339519 
L 365.420686 212.987044 
L 369.656881 211.63457 
L 373.378399 210.282095 
L 377.015079 208.92962 
L 380.074868 207.577146 
L 383.08941 206.224671 
L 385.832474 204.872196 
L 388.445454 203.519722 
L 391.103681 202.167247 
L 393.563955 200.814772 
L 395.503895 199.462298 
L 397.200635 198.109823 
L 398.953934 196.757348 
L 400.565837 195.404874 
L 402.194708 194.052399 
L 403.625626 192.699924 
L 404.915149 191.34745 
L 406.063276 189.994975 
L 406.894679 188.6425 
L 406.951237 187.290026 
L 406.985172 185.937551 
L 407.024763 184.585076 
L 407.058698 183.232601 
L 407.103944 181.880127 
L 407.166158 180.527652 
L 407.194437 179.175177 
L 407.239683 177.822703 
L 407.245339 176.470228 
L 407.250995 175.117753 
L 407.290585 173.765279 
L 407.290585 172.412804 
L 407.301897 171.060329 
L 407.301897 169.707855 
L 407.307553 168.35538 
L 407.318864 167.002905 
L 407.32452 165.650431 
L 407.335832 164.297956 
L 407.335832 162.945481 
L 407.341488 161.593007 
" style="fill:none;stroke:#7d1e0b;stroke-linecap:square;stroke-width:1.5;"/>
   </g>
   <g id="patch_8">
    <path d="M 252.392727 307.584 
L 252.392727 41.472 
" style="fill:none;stroke:#000000;stroke-linecap:square;stroke-linejoin:miter;stroke-width:0.8;"/>
   </g>
   <g id="patch_9">
    <path d="M 414.72 307.584 
L 414.72 41.472 
" style="fill:none;stroke:#000000;stroke-linecap:square;stroke-linejoin:miter;stroke-width:0.8;"/>
   </g>
   <g id="patch_10">
    <path d="M 252.392727 307.584 
L 414.72 307.584 
" style="fill:none;stroke:#000000;stroke-linecap:square;stroke-linejoin:miter;stroke-width:0.8;"/>
   </g>
   <g id="patch_11">
    <path d="M 252.392727 41.472 
L 414.72 41.472 
" style="fill:none;stroke:#000000;stroke-linecap:square;stroke-linejoin:miter;stroke-width:0.8;"/>
   </g>
   <g id="legend_1">
    <g id="patch_12">
     <path d="M 261.492727 126.479813 
L 345.81804 126.479813 
Q 348.41804 126.479813 348.41804 123.879813 
L 348.41804 50.572 
Q 348.41804 47.972 345.81804 47.972 
L 261.492727 47.972 
Q 258.892727 47.972 258.892727 50.572 
L 258.892727 123.879813 
Q 258.892727 126.479813 261.492727 126.479813 
z
" style="fill:#ffffff;opacity:0.8;stroke:#cccccc;stroke-linejoin:miter;"/>
    </g>
    <g id="line2d_25">
     <path d="M 264.092727 58.499969 
L 290.092727 58.499969 
" style="fill:none;stroke:#5a0003;stroke-linecap:square;stroke-width:3;"/>
    </g>
    <g id="line2d_26"/>
    <g id="text_18">
     <!-- TS -->
     <defs>
      <path d="M -0.296875 72.90625 
L 61.375 72.90625 
L 61.375 64.59375 
L 35.5 64.59375 
L 35.5 0 
L 25.59375 0 
L 25.59375 64.59375 
L -0.296875 64.59375 
z
" id="DejaVuSans-84"/>
      <path d="M 53.515625 70.515625 
L 53.515625 60.890625 
Q 47.90625 63.578125 42.921875 64.890625 
Q 37.9375 66.21875 33.296875 66.21875 
Q 25.25 66.21875 20.875 63.09375 
Q 16.5 59.96875 16.5 54.203125 
Q 16.5 49.359375 19.40625 46.890625 
Q 22.3125 44.4375 30.421875 42.921875 
L 36.375 41.703125 
Q 47.40625 39.59375 52.65625 34.296875 
Q 57.90625 29 57.90625 20.125 
Q 57.90625 9.515625 50.796875 4.046875 
Q 43.703125 -1.421875 29.984375 -1.421875 
Q 24.8125 -1.421875 18.96875 -0.25 
Q 13.140625 0.921875 6.890625 3.21875 
L 6.890625 13.375 
Q 12.890625 10.015625 18.65625 8.296875 
Q 24.421875 6.59375 29.984375 6.59375 
Q 38.421875 6.59375 43.015625 9.90625 
Q 47.609375 13.234375 47.609375 19.390625 
Q 47.609375 24.75 44.3125 27.78125 
Q 41.015625 30.8125 33.5 32.328125 
L 27.484375 33.5 
Q 16.453125 35.6875 11.515625 40.375 
Q 6.59375 45.0625 6.59375 53.421875 
Q 6.59375 63.09375 13.40625 68.65625 
Q 20.21875 74.21875 32.171875 74.21875 
Q 37.3125 74.21875 42.625 73.28125 
Q 47.953125 72.359375 53.515625 70.515625 
z
" id="DejaVuSans-83"/>
     </defs>
     <g transform="translate(300.492727 63.049969)scale(0.13 -0.13)">
      <use xlink:href="#DejaVuSans-84"/>
      <use x="61.083984" xlink:href="#DejaVuSans-83"/>
     </g>
    </g>
    <g id="line2d_27">
     <path d="M 264.092727 72.381531 
L 290.092727 72.381531 
" style="fill:none;stroke:#ffcc7b;stroke-dasharray:1.5,2.475;stroke-dashoffset:0;stroke-width:1.5;"/>
    </g>
    <g id="line2d_28"/>
    <g id="text_19">
     <!-- RB, n0 -->
     <defs>
      <path d="M 44.390625 34.1875 
Q 47.5625 33.109375 50.5625 29.59375 
Q 53.5625 26.078125 56.59375 19.921875 
L 66.609375 0 
L 56 0 
L 46.6875 18.703125 
Q 43.0625 26.03125 39.671875 28.421875 
Q 36.28125 30.8125 30.421875 30.8125 
L 19.671875 30.8125 
L 19.671875 0 
L 9.8125 0 
L 9.8125 72.90625 
L 32.078125 72.90625 
Q 44.578125 72.90625 50.734375 67.671875 
Q 56.890625 62.453125 56.890625 51.90625 
Q 56.890625 45.015625 53.6875 40.46875 
Q 50.484375 35.9375 44.390625 34.1875 
z
M 19.671875 64.796875 
L 19.671875 38.921875 
L 32.078125 38.921875 
Q 39.203125 38.921875 42.84375 42.21875 
Q 46.484375 45.515625 46.484375 51.90625 
Q 46.484375 58.296875 42.84375 61.546875 
Q 39.203125 64.796875 32.078125 64.796875 
z
" id="DejaVuSans-82"/>
      <path d="M 19.671875 34.8125 
L 19.671875 8.109375 
L 35.5 8.109375 
Q 43.453125 8.109375 47.28125 11.40625 
Q 51.125 14.703125 51.125 21.484375 
Q 51.125 28.328125 47.28125 31.5625 
Q 43.453125 34.8125 35.5 34.8125 
z
M 19.671875 64.796875 
L 19.671875 42.828125 
L 34.28125 42.828125 
Q 41.5 42.828125 45.03125 45.53125 
Q 48.578125 48.25 48.578125 53.8125 
Q 48.578125 59.328125 45.03125 62.0625 
Q 41.5 64.796875 34.28125 64.796875 
z
M 9.8125 72.90625 
L 35.015625 72.90625 
Q 46.296875 72.90625 52.390625 68.21875 
Q 58.5 63.53125 58.5 54.890625 
Q 58.5 48.1875 55.375 44.234375 
Q 52.25 40.28125 46.1875 39.3125 
Q 53.46875 37.75 57.5 32.78125 
Q 61.53125 27.828125 61.53125 20.40625 
Q 61.53125 10.640625 54.890625 5.3125 
Q 48.25 0 35.984375 0 
L 9.8125 0 
z
" id="DejaVuSans-66"/>
      <path d="M 11.71875 12.40625 
L 22.015625 12.40625 
L 22.015625 4 
L 14.015625 -11.625 
L 7.71875 -11.625 
L 11.71875 4 
z
" id="DejaVuSans-44"/>
      <path d="M 54.890625 33.015625 
L 54.890625 0 
L 45.90625 0 
L 45.90625 32.71875 
Q 45.90625 40.484375 42.875 44.328125 
Q 39.84375 48.1875 33.796875 48.1875 
Q 26.515625 48.1875 22.3125 43.546875 
Q 18.109375 38.921875 18.109375 30.90625 
L 18.109375 0 
L 9.078125 0 
L 9.078125 54.6875 
L 18.109375 54.6875 
L 18.109375 46.1875 
Q 21.34375 51.125 25.703125 53.5625 
Q 30.078125 56 35.796875 56 
Q 45.21875 56 50.046875 50.171875 
Q 54.890625 44.34375 54.890625 33.015625 
z
" id="DejaVuSans-110"/>
     </defs>
     <g transform="translate(300.492727 76.931531)scale(0.13 -0.13)">
      <use xlink:href="#DejaVuSans-82"/>
      <use x="69.482422" xlink:href="#DejaVuSans-66"/>
      <use x="138.085938" xlink:href="#DejaVuSans-44"/>
      <use x="169.873047" xlink:href="#DejaVuSans-32"/>
      <use x="201.660156" xlink:href="#DejaVuSans-110"/>
      <use x="265.039062" xlink:href="#DejaVuSans-48"/>
     </g>
    </g>
    <g id="line2d_29">
     <path d="M 264.092727 86.263094 
L 290.092727 86.263094 
" style="fill:none;stroke:#e6a346;stroke-dasharray:5.55,2.4;stroke-dashoffset:0;stroke-width:1.5;"/>
    </g>
    <g id="line2d_30"/>
    <g id="text_20">
     <!-- RB, s0 -->
     <g transform="translate(300.492727 90.813094)scale(0.13 -0.13)">
      <use xlink:href="#DejaVuSans-82"/>
      <use x="69.482422" xlink:href="#DejaVuSans-66"/>
      <use x="138.085938" xlink:href="#DejaVuSans-44"/>
      <use x="169.873047" xlink:href="#DejaVuSans-32"/>
      <use x="201.660156" xlink:href="#DejaVuSans-115"/>
      <use x="253.759766" xlink:href="#DejaVuSans-48"/>
     </g>
    </g>
    <g id="line2d_31">
     <path d="M 264.092727 100.144656 
L 290.092727 100.144656 
" style="fill:none;stroke:#b45a28;stroke-dasharray:9.6,2.4,1.5,2.4;stroke-dashoffset:0;stroke-width:1.5;"/>
    </g>
    <g id="line2d_32"/>
    <g id="text_21">
     <!-- RB, s1 -->
     <g transform="translate(300.492727 104.694656)scale(0.13 -0.13)">
      <use xlink:href="#DejaVuSans-82"/>
      <use x="69.482422" xlink:href="#DejaVuSans-66"/>
      <use x="138.085938" xlink:href="#DejaVuSans-44"/>
      <use x="169.873047" xlink:href="#DejaVuSans-32"/>
      <use x="201.660156" xlink:href="#DejaVuSans-115"/>
      <use x="253.759766" xlink:href="#DejaVuSans-49"/>
     </g>
    </g>
    <g id="line2d_33">
     <path d="M 264.092727 114.026219 
L 290.092727 114.026219 
" style="fill:none;stroke:#7d1e0b;stroke-linecap:square;stroke-width:1.5;"/>
    </g>
    <g id="line2d_34"/>
    <g id="text_22">
     <!-- RB, s2 -->
     <g transform="translate(300.492727 118.576219)scale(0.13 -0.13)">
      <use xlink:href="#DejaVuSans-82"/>
      <use x="69.482422" xlink:href="#DejaVuSans-66"/>
      <use x="138.085938" xlink:href="#DejaVuSans-44"/>
      <use x="169.873047" xlink:href="#DejaVuSans-32"/>
      <use x="201.660156" xlink:href="#DejaVuSans-115"/>
      <use x="253.759766" xlink:href="#DejaVuSans-50"/>
     </g>
    </g>
   </g>
  </g>
 </g>
 <defs>
  <clipPath id="p0d6786d1e6">
   <rect height="266.112" width="162.327273" x="57.6" y="41.472"/>
  </clipPath>
  <clipPath id="p1c55cb6332">
   <rect height="266.112" width="162.327273" x="252.392727" y="41.472"/>
  </clipPath>
 </defs>
</svg>
