<?xml version="1.0" encoding="utf-8" standalone="no"?>
<!DOCTYPE svg PUBLIC "-//W3C//DTD SVG 1.1//EN"
  "http://www.w3.org/Graphics/SVG/1.1/DTD/svg11.dtd">
<!-- Created with matplotlib (https://matplotlib.org/) -->
<svg height="345.6pt" version="1.1" viewBox="0 0 460.8 345.6" width="460.8pt" xmlns="http://www.w3.org/2000/svg" xmlns:xlink="http://www.w3.org/1999/xlink">
 <defs>
  <style type="text/css">
*{stroke-linecap:butt;stroke-linejoin:round;}
  </style>
 </defs>
 <g id="figure_1">
  <g id="patch_1">
   <path d="M 0 345.6 
L 460.8 345.6 
L 460.8 0 
L 0 0 
z
" style="fill:#ffffff;"/>
  </g>
  <g id="axes_1">
   <g id="patch_2">
    <path d="M 57.6 307.584 
L 219.927273 307.584 
L 219.927273 41.472 
L 57.6 41.472 
z
" style="fill:#ffffff;"/>
   </g>
   <g id="matplotlib.axis_1">
    <g id="xtick_1">
     <g id="line2d_1">
      <defs>
       <path d="M 0 0 
L 0 3.5 
" id="md2ba591f8a" style="stroke:#000000;stroke-width:0.8;"/>
      </defs>
      <g>
       <use style="stroke:#000000;stroke-width:0.8;" x="213.461861" xlink:href="#md2ba591f8a" y="307.584"/>
      </g>
     </g>
     <g id="text_1">
      <!-- 0 -->
      <defs>
       <path d="M 31.78125 66.40625 
Q 24.171875 66.40625 20.328125 58.90625 
Q 16.5 51.421875 16.5 36.375 
Q 16.5 21.390625 20.328125 13.890625 
Q 24.171875 6.390625 31.78125 6.390625 
Q 39.453125 6.390625 43.28125 13.890625 
Q 47.125 21.390625 47.125 36.375 
Q 47.125 51.421875 43.28125 58.90625 
Q 39.453125 66.40625 31.78125 66.40625 
z
M 31.78125 74.21875 
Q 44.046875 74.21875 50.515625 64.515625 
Q 56.984375 54.828125 56.984375 36.375 
Q 56.984375 17.96875 50.515625 8.265625 
Q 44.046875 -1.421875 31.78125 -1.421875 
Q 19.53125 -1.421875 13.0625 8.265625 
Q 6.59375 17.96875 6.59375 36.375 
Q 6.59375 54.828125 13.0625 64.515625 
Q 19.53125 74.21875 31.78125 74.21875 
z
" id="DejaVuSans-48"/>
      </defs>
      <g transform="translate(208.689986 325.981656)scale(0.15 -0.15)">
       <use xlink:href="#DejaVuSans-48"/>
      </g>
     </g>
    </g>
    <g id="xtick_2">
     <g id="line2d_2">
      <g>
       <use style="stroke:#000000;stroke-width:0.8;" x="153.25754" xlink:href="#md2ba591f8a" y="307.584"/>
      </g>
     </g>
     <g id="text_2">
      <!-- 5 -->
      <defs>
       <path d="M 10.796875 72.90625 
L 49.515625 72.90625 
L 49.515625 64.59375 
L 19.828125 64.59375 
L 19.828125 46.734375 
Q 21.96875 47.46875 24.109375 47.828125 
Q 26.265625 48.1875 28.421875 48.1875 
Q 40.625 48.1875 47.75 41.5 
Q 54.890625 34.8125 54.890625 23.390625 
Q 54.890625 11.625 47.5625 5.09375 
Q 40.234375 -1.421875 26.90625 -1.421875 
Q 22.3125 -1.421875 17.546875 -0.640625 
Q 12.796875 0.140625 7.71875 1.703125 
L 7.71875 11.625 
Q 12.109375 9.234375 16.796875 8.0625 
Q 21.484375 6.890625 26.703125 6.890625 
Q 35.15625 6.890625 40.078125 11.328125 
Q 45.015625 15.765625 45.015625 23.390625 
Q 45.015625 31 40.078125 35.4375 
Q 35.15625 39.890625 26.703125 39.890625 
Q 22.75 39.890625 18.8125 39.015625 
Q 14.890625 38.140625 10.796875 36.28125 
z
" id="DejaVuSans-53"/>
      </defs>
      <g transform="translate(148.485665 325.981656)scale(0.15 -0.15)">
       <use xlink:href="#DejaVuSans-53"/>
      </g>
     </g>
    </g>
    <g id="xtick_3">
     <g id="line2d_3">
      <g>
       <use style="stroke:#000000;stroke-width:0.8;" x="93.05322" xlink:href="#md2ba591f8a" y="307.584"/>
      </g>
     </g>
     <g id="text_3">
      <!-- 10 -->
      <defs>
       <path d="M 12.40625 8.296875 
L 28.515625 8.296875 
L 28.515625 63.921875 
L 10.984375 60.40625 
L 10.984375 69.390625 
L 28.421875 72.90625 
L 38.28125 72.90625 
L 38.28125 8.296875 
L 54.390625 8.296875 
L 54.390625 0 
L 12.40625 0 
z
" id="DejaVuSans-49"/>
      </defs>
      <g transform="translate(83.50947 325.981656)scale(0.15 -0.15)">
       <use xlink:href="#DejaVuSans-49"/>
       <use x="63.623047" xlink:href="#DejaVuSans-48"/>
      </g>
     </g>
    </g>
    <g id="text_4">
     <!-- PDF -->
     <defs>
      <path d="M 19.671875 64.796875 
L 19.671875 37.40625 
L 32.078125 37.40625 
Q 38.96875 37.40625 42.71875 40.96875 
Q 46.484375 44.53125 46.484375 51.125 
Q 46.484375 57.671875 42.71875 61.234375 
Q 38.96875 64.796875 32.078125 64.796875 
z
M 9.8125 72.90625 
L 32.078125 72.90625 
Q 44.34375 72.90625 50.609375 67.359375 
Q 56.890625 61.8125 56.890625 51.125 
Q 56.890625 40.328125 50.609375 34.8125 
Q 44.34375 29.296875 32.078125 29.296875 
L 19.671875 29.296875 
L 19.671875 0 
L 9.8125 0 
z
" id="DejaVuSans-80"/>
      <path d="M 19.671875 64.796875 
L 19.671875 8.109375 
L 31.59375 8.109375 
Q 46.6875 8.109375 53.6875 14.9375 
Q 60.6875 21.78125 60.6875 36.53125 
Q 60.6875 51.171875 53.6875 57.984375 
Q 46.6875 64.796875 31.59375 64.796875 
z
M 9.8125 72.90625 
L 30.078125 72.90625 
Q 51.265625 72.90625 61.171875 64.09375 
Q 71.09375 55.28125 71.09375 36.53125 
Q 71.09375 17.671875 61.125 8.828125 
Q 51.171875 0 30.078125 0 
L 9.8125 0 
z
" id="DejaVuSans-68"/>
      <path d="M 9.8125 72.90625 
L 51.703125 72.90625 
L 51.703125 64.59375 
L 19.671875 64.59375 
L 19.671875 43.109375 
L 48.578125 43.109375 
L 48.578125 34.8125 
L 19.671875 34.8125 
L 19.671875 0 
L 9.8125 0 
z
" id="DejaVuSans-70"/>
     </defs>
     <g transform="translate(122.204574 346.018531)scale(0.17 -0.17)">
      <use xlink:href="#DejaVuSans-80"/>
      <use x="60.302734" xlink:href="#DejaVuSans-68"/>
      <use x="137.304688" xlink:href="#DejaVuSans-70"/>
     </g>
    </g>
   </g>
   <g id="matplotlib.axis_2">
    <g id="ytick_1">
     <g id="line2d_4">
      <defs>
       <path d="M 0 0 
L -3.5 0 
" id="ma8afaf17c9" style="stroke:#000000;stroke-width:0.8;"/>
      </defs>
      <g>
       <use style="stroke:#000000;stroke-width:0.8;" x="57.6" xlink:href="#ma8afaf17c9" y="53.568"/>
      </g>
     </g>
     <g id="text_5">
      <!-- 0.0 -->
      <defs>
       <path d="M 10.6875 12.40625 
L 21 12.40625 
L 21 0 
L 10.6875 0 
z
" id="DejaVuSans-46"/>
      </defs>
      <g transform="translate(26.745313 59.266828)scale(0.15 -0.15)">
       <use xlink:href="#DejaVuSans-48"/>
       <use x="63.623047" xlink:href="#DejaVuSans-46"/>
       <use x="95.410156" xlink:href="#DejaVuSans-48"/>
      </g>
     </g>
    </g>
    <g id="ytick_2">
     <g id="line2d_5">
      <g>
       <use style="stroke:#000000;stroke-width:0.8;" x="57.6" xlink:href="#ma8afaf17c9" y="98.102953"/>
      </g>
     </g>
     <g id="text_6">
      <!-- 0.2 -->
      <defs>
       <path d="M 19.1875 8.296875 
L 53.609375 8.296875 
L 53.609375 0 
L 7.328125 0 
L 7.328125 8.296875 
Q 12.9375 14.109375 22.625 23.890625 
Q 32.328125 33.6875 34.8125 36.53125 
Q 39.546875 41.84375 41.421875 45.53125 
Q 43.3125 49.21875 43.3125 52.78125 
Q 43.3125 58.59375 39.234375 62.25 
Q 35.15625 65.921875 28.609375 65.921875 
Q 23.96875 65.921875 18.8125 64.3125 
Q 13.671875 62.703125 7.8125 59.421875 
L 7.8125 69.390625 
Q 13.765625 71.78125 18.9375 73 
Q 24.125 74.21875 28.421875 74.21875 
Q 39.75 74.21875 46.484375 68.546875 
Q 53.21875 62.890625 53.21875 53.421875 
Q 53.21875 48.921875 51.53125 44.890625 
Q 49.859375 40.875 45.40625 35.40625 
Q 44.1875 33.984375 37.640625 27.21875 
Q 31.109375 20.453125 19.1875 8.296875 
z
" id="DejaVuSans-50"/>
      </defs>
      <g transform="translate(26.745313 103.801781)scale(0.15 -0.15)">
       <use xlink:href="#DejaVuSans-48"/>
       <use x="63.623047" xlink:href="#DejaVuSans-46"/>
       <use x="95.410156" xlink:href="#DejaVuSans-50"/>
      </g>
     </g>
    </g>
    <g id="ytick_3">
     <g id="line2d_6">
      <g>
       <use style="stroke:#000000;stroke-width:0.8;" x="57.6" xlink:href="#ma8afaf17c9" y="142.637906"/>
      </g>
     </g>
     <g id="text_7">
      <!-- 0.4 -->
      <defs>
       <path d="M 37.796875 64.3125 
L 12.890625 25.390625 
L 37.796875 25.390625 
z
M 35.203125 72.90625 
L 47.609375 72.90625 
L 47.609375 25.390625 
L 58.015625 25.390625 
L 58.015625 17.1875 
L 47.609375 17.1875 
L 47.609375 0 
L 37.796875 0 
L 37.796875 17.1875 
L 4.890625 17.1875 
L 4.890625 26.703125 
z
" id="DejaVuSans-52"/>
      </defs>
      <g transform="translate(26.745313 148.336734)scale(0.15 -0.15)">
       <use xlink:href="#DejaVuSans-48"/>
       <use x="63.623047" xlink:href="#DejaVuSans-46"/>
       <use x="95.410156" xlink:href="#DejaVuSans-52"/>
      </g>
     </g>
    </g>
    <g id="ytick_4">
     <g id="line2d_7">
      <g>
       <use style="stroke:#000000;stroke-width:0.8;" x="57.6" xlink:href="#ma8afaf17c9" y="187.172859"/>
      </g>
     </g>
     <g id="text_8">
      <!-- 0.6 -->
      <defs>
       <path d="M 33.015625 40.375 
Q 26.375 40.375 22.484375 35.828125 
Q 18.609375 31.296875 18.609375 23.390625 
Q 18.609375 15.53125 22.484375 10.953125 
Q 26.375 6.390625 33.015625 6.390625 
Q 39.65625 6.390625 43.53125 10.953125 
Q 47.40625 15.53125 47.40625 23.390625 
Q 47.40625 31.296875 43.53125 35.828125 
Q 39.65625 40.375 33.015625 40.375 
z
M 52.59375 71.296875 
L 52.59375 62.3125 
Q 48.875 64.0625 45.09375 64.984375 
Q 41.3125 65.921875 37.59375 65.921875 
Q 27.828125 65.921875 22.671875 59.328125 
Q 17.53125 52.734375 16.796875 39.40625 
Q 19.671875 43.65625 24.015625 45.921875 
Q 28.375 48.1875 33.59375 48.1875 
Q 44.578125 48.1875 50.953125 41.515625 
Q 57.328125 34.859375 57.328125 23.390625 
Q 57.328125 12.15625 50.6875 5.359375 
Q 44.046875 -1.421875 33.015625 -1.421875 
Q 20.359375 -1.421875 13.671875 8.265625 
Q 6.984375 17.96875 6.984375 36.375 
Q 6.984375 53.65625 15.1875 63.9375 
Q 23.390625 74.21875 37.203125 74.21875 
Q 40.921875 74.21875 44.703125 73.484375 
Q 48.484375 72.75 52.59375 71.296875 
z
" id="DejaVuSans-54"/>
      </defs>
      <g transform="translate(26.745313 192.871687)scale(0.15 -0.15)">
       <use xlink:href="#DejaVuSans-48"/>
       <use x="63.623047" xlink:href="#DejaVuSans-46"/>
       <use x="95.410156" xlink:href="#DejaVuSans-54"/>
      </g>
     </g>
    </g>
    <g id="ytick_5">
     <g id="line2d_8">
      <g>
       <use style="stroke:#000000;stroke-width:0.8;" x="57.6" xlink:href="#ma8afaf17c9" y="231.707812"/>
      </g>
     </g>
     <g id="text_9">
      <!-- 0.8 -->
      <defs>
       <path d="M 31.78125 34.625 
Q 24.75 34.625 20.71875 30.859375 
Q 16.703125 27.09375 16.703125 20.515625 
Q 16.703125 13.921875 20.71875 10.15625 
Q 24.75 6.390625 31.78125 6.390625 
Q 38.8125 6.390625 42.859375 10.171875 
Q 46.921875 13.96875 46.921875 20.515625 
Q 46.921875 27.09375 42.890625 30.859375 
Q 38.875 34.625 31.78125 34.625 
z
M 21.921875 38.8125 
Q 15.578125 40.375 12.03125 44.71875 
Q 8.5 49.078125 8.5 55.328125 
Q 8.5 64.0625 14.71875 69.140625 
Q 20.953125 74.21875 31.78125 74.21875 
Q 42.671875 74.21875 48.875 69.140625 
Q 55.078125 64.0625 55.078125 55.328125 
Q 55.078125 49.078125 51.53125 44.71875 
Q 48 40.375 41.703125 38.8125 
Q 48.828125 37.15625 52.796875 32.3125 
Q 56.78125 27.484375 56.78125 20.515625 
Q 56.78125 9.90625 50.3125 4.234375 
Q 43.84375 -1.421875 31.78125 -1.421875 
Q 19.734375 -1.421875 13.25 4.234375 
Q 6.78125 9.90625 6.78125 20.515625 
Q 6.78125 27.484375 10.78125 32.3125 
Q 14.796875 37.15625 21.921875 38.8125 
z
M 18.3125 54.390625 
Q 18.3125 48.734375 21.84375 45.5625 
Q 25.390625 42.390625 31.78125 42.390625 
Q 38.140625 42.390625 41.71875 45.5625 
Q 45.3125 48.734375 45.3125 54.390625 
Q 45.3125 60.0625 41.71875 63.234375 
Q 38.140625 66.40625 31.78125 66.40625 
Q 25.390625 66.40625 21.84375 63.234375 
Q 18.3125 60.0625 18.3125 54.390625 
z
" id="DejaVuSans-56"/>
      </defs>
      <g transform="translate(26.745313 237.40664)scale(0.15 -0.15)">
       <use xlink:href="#DejaVuSans-48"/>
       <use x="63.623047" xlink:href="#DejaVuSans-46"/>
       <use x="95.410156" xlink:href="#DejaVuSans-56"/>
      </g>
     </g>
    </g>
    <g id="ytick_6">
     <g id="line2d_9">
      <g>
       <use style="stroke:#000000;stroke-width:0.8;" x="57.6" xlink:href="#ma8afaf17c9" y="276.242765"/>
      </g>
     </g>
     <g id="text_10">
      <!-- 1.0 -->
      <g transform="translate(26.745313 281.941593)scale(0.15 -0.15)">
       <use xlink:href="#DejaVuSans-49"/>
       <use x="63.623047" xlink:href="#DejaVuSans-46"/>
       <use x="95.410156" xlink:href="#DejaVuSans-48"/>
      </g>
     </g>
    </g>
    <g id="text_11">
     <!-- Depth (m) -->
     <defs>
      <path d="M 56.203125 29.59375 
L 56.203125 25.203125 
L 14.890625 25.203125 
Q 15.484375 15.921875 20.484375 11.0625 
Q 25.484375 6.203125 34.421875 6.203125 
Q 39.59375 6.203125 44.453125 7.46875 
Q 49.3125 8.734375 54.109375 11.28125 
L 54.109375 2.78125 
Q 49.265625 0.734375 44.1875 -0.34375 
Q 39.109375 -1.421875 33.890625 -1.421875 
Q 20.796875 -1.421875 13.15625 6.1875 
Q 5.515625 13.8125 5.515625 26.8125 
Q 5.515625 40.234375 12.765625 48.109375 
Q 20.015625 56 32.328125 56 
Q 43.359375 56 49.78125 48.890625 
Q 56.203125 41.796875 56.203125 29.59375 
z
M 47.21875 32.234375 
Q 47.125 39.59375 43.09375 43.984375 
Q 39.0625 48.390625 32.421875 48.390625 
Q 24.90625 48.390625 20.390625 44.140625 
Q 15.875 39.890625 15.1875 32.171875 
z
" id="DejaVuSans-101"/>
      <path d="M 18.109375 8.203125 
L 18.109375 -20.796875 
L 9.078125 -20.796875 
L 9.078125 54.6875 
L 18.109375 54.6875 
L 18.109375 46.390625 
Q 20.953125 51.265625 25.265625 53.625 
Q 29.59375 56 35.59375 56 
Q 45.5625 56 51.78125 48.09375 
Q 58.015625 40.1875 58.015625 27.296875 
Q 58.015625 14.40625 51.78125 6.484375 
Q 45.5625 -1.421875 35.59375 -1.421875 
Q 29.59375 -1.421875 25.265625 0.953125 
Q 20.953125 3.328125 18.109375 8.203125 
z
M 48.6875 27.296875 
Q 48.6875 37.203125 44.609375 42.84375 
Q 40.53125 48.484375 33.40625 48.484375 
Q 26.265625 48.484375 22.1875 42.84375 
Q 18.109375 37.203125 18.109375 27.296875 
Q 18.109375 17.390625 22.1875 11.75 
Q 26.265625 6.109375 33.40625 6.109375 
Q 40.53125 6.109375 44.609375 11.75 
Q 48.6875 17.390625 48.6875 27.296875 
z
" id="DejaVuSans-112"/>
      <path d="M 18.3125 70.21875 
L 18.3125 54.6875 
L 36.8125 54.6875 
L 36.8125 47.703125 
L 18.3125 47.703125 
L 18.3125 18.015625 
Q 18.3125 11.328125 20.140625 9.421875 
Q 21.96875 7.515625 27.59375 7.515625 
L 36.8125 7.515625 
L 36.8125 0 
L 27.59375 0 
Q 17.1875 0 13.234375 3.875 
Q 9.28125 7.765625 9.28125 18.015625 
L 9.28125 47.703125 
L 2.6875 47.703125 
L 2.6875 54.6875 
L 9.28125 54.6875 
L 9.28125 70.21875 
z
" id="DejaVuSans-116"/>
      <path d="M 54.890625 33.015625 
L 54.890625 0 
L 45.90625 0 
L 45.90625 32.71875 
Q 45.90625 40.484375 42.875 44.328125 
Q 39.84375 48.1875 33.796875 48.1875 
Q 26.515625 48.1875 22.3125 43.546875 
Q 18.109375 38.921875 18.109375 30.90625 
L 18.109375 0 
L 9.078125 0 
L 9.078125 75.984375 
L 18.109375 75.984375 
L 18.109375 46.1875 
Q 21.34375 51.125 25.703125 53.5625 
Q 30.078125 56 35.796875 56 
Q 45.21875 56 50.046875 50.171875 
Q 54.890625 44.34375 54.890625 33.015625 
z
" id="DejaVuSans-104"/>
      <path id="DejaVuSans-32"/>
      <path d="M 31 75.875 
Q 24.46875 64.65625 21.28125 53.65625 
Q 18.109375 42.671875 18.109375 31.390625 
Q 18.109375 20.125 21.3125 9.0625 
Q 24.515625 -2 31 -13.1875 
L 23.1875 -13.1875 
Q 15.875 -1.703125 12.234375 9.375 
Q 8.59375 20.453125 8.59375 31.390625 
Q 8.59375 42.28125 12.203125 53.3125 
Q 15.828125 64.359375 23.1875 75.875 
z
" id="DejaVuSans-40"/>
      <path d="M 52 44.1875 
Q 55.375 50.25 60.0625 53.125 
Q 64.75 56 71.09375 56 
Q 79.640625 56 84.28125 50.015625 
Q 88.921875 44.046875 88.921875 33.015625 
L 88.921875 0 
L 79.890625 0 
L 79.890625 32.71875 
Q 79.890625 40.578125 77.09375 44.375 
Q 74.3125 48.1875 68.609375 48.1875 
Q 61.625 48.1875 57.5625 43.546875 
Q 53.515625 38.921875 53.515625 30.90625 
L 53.515625 0 
L 44.484375 0 
L 44.484375 32.71875 
Q 44.484375 40.625 41.703125 44.40625 
Q 38.921875 48.1875 33.109375 48.1875 
Q 26.21875 48.1875 22.15625 43.53125 
Q 18.109375 38.875 18.109375 30.90625 
L 18.109375 0 
L 9.078125 0 
L 9.078125 54.6875 
L 18.109375 54.6875 
L 18.109375 46.1875 
Q 21.1875 51.21875 25.484375 53.609375 
Q 29.78125 56 35.6875 56 
Q 41.65625 56 45.828125 52.96875 
Q 50 49.953125 52 44.1875 
z
" id="DejaVuSans-109"/>
      <path d="M 8.015625 75.875 
L 15.828125 75.875 
Q 23.140625 64.359375 26.78125 53.3125 
Q 30.421875 42.28125 30.421875 31.390625 
Q 30.421875 20.453125 26.78125 9.375 
Q 23.140625 -1.703125 15.828125 -13.1875 
L 8.015625 -13.1875 
Q 14.5 -2 17.703125 9.0625 
Q 20.90625 20.125 20.90625 31.390625 
Q 20.90625 42.671875 17.703125 53.65625 
Q 14.5 64.65625 8.015625 75.875 
z
" id="DejaVuSans-41"/>
     </defs>
     <g transform="translate(19.209844 218.032062)rotate(-90)scale(0.17 -0.17)">
      <use xlink:href="#DejaVuSans-68"/>
      <use x="77.001953" xlink:href="#DejaVuSans-101"/>
      <use x="138.525391" xlink:href="#DejaVuSans-112"/>
      <use x="202.001953" xlink:href="#DejaVuSans-116"/>
      <use x="241.210938" xlink:href="#DejaVuSans-104"/>
      <use x="304.589844" xlink:href="#DejaVuSans-32"/>
      <use x="336.376953" xlink:href="#DejaVuSans-40"/>
      <use x="375.390625" xlink:href="#DejaVuSans-109"/>
      <use x="472.802734" xlink:href="#DejaVuSans-41"/>
     </g>
    </g>
   </g>
   <g id="line2d_10">
    <path clip-path="url(#p6d27c44228)" d="M 145.664159 53.568 
L 158.94977 56.036571 
L 175.979091 58.505143 
L 182.872999 60.973714 
L 181.959898 63.442286 
L 186.16016 65.910857 
L 187.940706 68.379429 
L 187.164571 70.848 
L 189.036426 73.316571 
L 190.406077 75.785143 
L 192.004002 78.253714 
L 187.347191 80.722286 
L 185.475335 83.190857 
L 184.288304 85.659429 
L 182.507759 88.128 
L 185.201405 90.596571 
L 183.146929 93.065143 
L 184.060029 95.533714 
L 181.685968 98.002286 
L 185.931885 100.470857 
L 186.205815 102.939429 
L 185.06444 105.408 
L 182.918654 107.876571 
L 183.968719 110.345143 
L 185.384025 112.813714 
L 182.736034 115.282286 
L 182.781689 117.750857 
L 190.086492 120.219429 
L 191.319177 122.688 
L 189.082081 125.156571 
L 190.314767 127.625143 
L 193.784548 130.093714 
L 202.093761 132.562286 
L 205.837473 135.030857 
L 207.115813 137.499429 
L 206.522298 139.968 
L 209.124634 142.436571 
L 210.676905 144.905143 
L 210.768215 147.373714 
L 211.316075 149.842286 
L 211.45304 152.310857 
L 211.63566 154.779429 
L 211.498695 157.248 
L 211.955245 159.716571 
L 211.681315 162.185143 
L 211.681315 164.653714 
L 211.63566 167.122286 
L 211.772625 169.590857 
L 211.407385 172.059429 
L 212.09221 174.528 
L 212.137865 176.996571 
L 212.229175 179.465143 
L 212.0009 181.933714 
L 211.681315 184.402286 
L 211.90959 186.870857 
L 212.137865 189.339429 
L 212.229175 191.808 
L 211.90959 194.276571 
L 212.320485 196.745143 
L 212.229175 199.213714 
L 212.046555 201.682286 
L 212.137865 204.150857 
L 212.0009 206.619429 
L 212.046555 209.088 
L 212.137865 211.556571 
L 212.27483 214.025143 
L 212.229175 216.493714 
L 212.229175 218.962286 
L 211.90959 221.430857 
L 212.229175 223.899429 
L 212.18352 226.368 
L 212.09221 228.836571 
L 211.81828 231.305143 
L 211.81828 233.773714 
L 212.09221 236.242286 
L 212.320485 238.710857 
L 211.955245 241.179429 
L 212.503105 243.648 
L 212.27483 246.116571 
L 211.863935 248.585143 
L 212.229175 251.053714 
L 212.229175 253.522286 
L 211.90959 255.990857 
L 211.90959 258.459429 
L 211.863935 260.928 
L 211.681315 263.396571 
L 211.72697 265.865143 
L 211.224765 268.333714 
L 211.498695 270.802286 
L 211.133455 273.270857 
L 211.27042 275.739429 
L 210.63125 278.208 
L 210.63125 280.676571 
L 211.498695 283.145143 
L 211.72697 285.613714 
L 211.772625 288.082286 
L 212.27483 290.550857 
L 212.18352 293.019429 
L 212.54876 295.488 
" style="fill:none;stroke:#000000;stroke-linecap:square;stroke-width:3;"/>
   </g>
   <g id="line2d_11">
    <path clip-path="url(#p6d27c44228)" d="M 208.183473 53.568 
L 195.10225 54.259917 
L 181.562038 54.951834 
L 197.397202 55.643752 
L 194.18427 56.335669 
L 193.266289 57.027586 
L 191.430328 57.719503 
L 195.10225 58.41142 
L 196.020231 59.103337 
L 200.380638 59.795255 
L 192.348309 60.487172 
L 188.446892 61.179089 
L 191.200833 61.871006 
L 189.135377 62.562923 
L 191.430328 63.254841 
L 193.72528 63.946758 
L 190.512348 64.638675 
L 192.118814 65.330592 
L 194.18427 66.022509 
L 185.922445 66.714427 
L 186.381435 67.406344 
L 189.594367 68.098261 
L 189.594367 68.790178 
L 189.135377 69.482095 
L 189.823862 70.174012 
L 190.282853 70.86593 
L 189.135377 71.557847 
L 186.840426 72.249764 
L 182.939009 72.941681 
L 185.69295 73.633598 
L 188.446892 74.325516 
L 185.69295 75.017433 
L 183.627494 75.70935 
L 189.823862 76.401267 
L 188.217397 77.093184 
L 177.431125 77.785102 
L 184.545474 78.477019 
L 185.004465 79.168936 
L 179.955572 79.860853 
L 187.528911 80.55277 
L 186.381435 81.244687 
L 182.939009 81.936605 
L 177.20163 82.628522 
L 177.890116 83.320439 
L 183.856989 84.012356 
L 183.397999 84.704273 
L 186.15194 85.396191 
L 178.349106 86.088108 
L 174.906679 86.780025 
L 177.431125 87.471942 
L 181.562038 88.163859 
L 176.972135 88.855777 
L 178.349106 89.547694 
L 178.808096 90.239611 
L 174.218194 90.931528 
L 173.759203 91.623445 
L 176.74264 92.315362 
L 176.28365 93.00728 
L 173.529708 93.699197 
L 174.218194 94.391114 
L 171.005262 95.083031 
L 172.152738 95.774948 
L 171.693747 96.466866 
L 168.480815 97.158783 
L 168.021825 97.8507 
L 168.25132 98.542617 
L 168.25132 99.234534 
L 163.890913 99.926452 
L 168.25132 100.618369 
L 161.825457 101.310286 
L 162.743437 102.002203 
L 155.858583 102.69412 
L 163.661418 103.386037 
L 150.3507 104.077955 
L 158.38303 104.769872 
L 148.055749 105.461789 
L 150.3507 106.153706 
L 143.924837 106.845623 
L 135.433517 107.537541 
L 130.155129 108.229458 
L 131.761595 108.921375 
L 108.812082 109.613292 
L 93.435908 110.305209 
L 64.978512 110.997127 
L 77.371249 111.689044 
L 67.502959 112.380961 
L 108.582587 113.072878 
L 138.875944 113.764795 
L 135.433517 114.456712 
L 172.841223 115.14863 
L 190.282853 115.840547 
L 201.757609 116.532464 
L 200.380638 117.224381 
L 202.67559 117.916298 
L 202.216599 118.608216 
L 202.446095 119.300133 
L 203.13458 119.99205 
L 204.282056 120.683967 
L 205.888521 121.375884 
" style="fill:none;stroke:#a2eb7f;stroke-dasharray:1.5,2.475;stroke-dashoffset:0;stroke-width:1.5;"/>
   </g>
   <g id="line2d_12">
    <path clip-path="url(#p6d27c44228)" d="M 208.889302 53.568 
L 192.656721 54.265558 
L 190.141814 54.963115 
L 198.829674 55.660673 
L 193.79986 56.35823 
L 192.199465 57.055788 
L 193.113976 57.753345 
L 197.686535 58.450903 
L 197.915163 59.14846 
L 196.314767 59.846018 
L 195.171628 60.543575 
L 186.941023 61.241133 
L 188.084162 61.93869 
L 190.370441 62.636248 
L 188.998674 63.333805 
L 194.714372 64.031363 
L 194.028488 64.72892 
L 192.885348 65.426478 
L 191.513581 66.124035 
L 184.197488 66.821593 
L 191.056325 67.51915 
L 187.169651 68.216708 
L 188.084162 68.914265 
L 187.169651 69.611823 
L 190.827697 70.30938 
L 191.284953 71.006938 
L 188.084162 71.704495 
L 183.054348 72.402053 
L 187.398279 73.09961 
L 186.026511 73.797168 
L 183.740232 74.494725 
L 188.541418 75.192283 
L 183.740232 75.88984 
L 188.998674 76.587398 
L 183.96886 77.284955 
L 181.453953 77.982513 
L 184.883372 78.680071 
L 182.368464 79.377628 
L 183.740232 80.075186 
L 185.111999 80.772743 
L 186.941023 81.470301 
L 180.996697 82.167858 
L 177.110022 82.865416 
L 180.310813 83.562973 
L 181.682581 84.260531 
L 183.054348 84.958088 
L 184.883372 85.655646 
L 179.62493 86.353203 
L 171.85158 87.050761 
L 179.62493 87.748318 
L 180.996697 88.445876 
L 178.710418 89.143433 
L 179.167674 89.840991 
L 175.738255 90.538548 
L 172.537464 91.236106 
L 176.195511 91.933663 
L 174.823743 92.631221 
L 174.823743 93.328778 
L 172.766092 94.026336 
L 173.223348 94.723893 
L 172.99472 95.421451 
L 174.595115 96.119008 
L 167.050394 96.816566 
L 168.65079 97.514123 
L 170.708441 98.211681 
L 167.50765 98.909238 
L 165.907255 99.606796 
L 163.620976 100.304353 
L 163.392348 101.001911 
L 161.791952 101.699468 
L 160.648813 102.397026 
L 158.819789 103.094584 
L 156.304882 103.792141 
L 154.933115 104.489699 
L 150.131929 105.187256 
L 146.016626 105.884814 
L 144.873487 106.582371 
L 141.672696 107.279929 
L 133.670719 107.977486 
L 131.613068 108.675044 
L 115.837742 109.372601 
L 102.120067 110.070159 
L 68.511764 110.767716 
L 77.65688 111.465274 
L 67.82588 112.162831 
L 89.77416 112.860389 
L 136.87151 113.557946 
L 127.497765 114.255504 
L 164.992743 114.953061 
L 199.744186 115.650619 
L 201.344581 116.348176 
L 202.259093 117.045734 
L 200.43007 117.743291 
L 202.716349 118.440849 
L 201.573209 119.138406 
L 198.829674 119.835964 
L 204.545372 120.533521 
L 204.774 121.231079 
L 206.603023 121.928636 
" style="fill:none;stroke:#77cd86;stroke-dasharray:5.55,2.4;stroke-dashoffset:0;stroke-width:1.5;"/>
   </g>
   <g id="line2d_13">
    <path clip-path="url(#p6d27c44228)" d="M 194.236035 53.568 
L 190.39087 54.339968 
L 195.045543 55.111936 
L 195.247921 55.883904 
L 193.426527 56.655872 
L 194.438412 57.427841 
L 193.831281 58.199809 
L 195.652675 58.971777 
L 194.236035 59.743745 
L 198.0812 60.515713 
L 194.236035 61.287681 
L 192.414641 62.059649 
L 192.617018 62.831617 
L 190.188493 63.603585 
L 191.80751 64.375554 
L 192.617018 65.147522 
L 193.628904 65.91949 
L 191.200378 66.691458 
L 195.247921 67.463426 
L 189.378984 68.235394 
L 190.998001 69.007362 
L 189.378984 69.77933 
L 193.224149 70.551298 
L 187.355213 71.323267 
L 192.414641 72.095235 
L 188.771853 72.867203 
L 187.759967 73.639171 
L 189.581361 74.411139 
L 186.950459 75.183107 
L 187.962344 75.955075 
L 188.164722 76.727043 
L 181.891031 77.499012 
L 189.783738 78.27098 
L 185.938573 79.042948 
L 185.736196 79.814916 
L 185.331442 80.586884 
L 180.676768 81.358852 
L 185.129065 82.13082 
L 188.164722 82.902788 
L 181.486277 83.674756 
L 181.2839 84.446725 
L 180.879146 85.218693 
L 182.70054 85.990661 
L 180.069637 86.762629 
L 179.260129 87.534597 
L 183.510048 88.306565 
L 180.069637 89.078533 
L 179.462506 89.850501 
L 178.855374 90.622469 
L 178.45062 91.394438 
L 179.462506 92.166406 
L 173.391192 92.938374 
L 178.045866 93.710342 
L 174.605455 94.48231 
L 174.605455 95.254278 
L 176.022095 96.026246 
L 176.224472 96.798214 
L 170.153159 97.570182 
L 167.319879 98.342151 
L 171.165044 99.114119 
L 173.188815 99.886087 
L 165.498485 100.658055 
L 167.117502 101.430023 
L 160.034303 102.201991 
L 163.272337 102.973959 
L 158.010532 103.745927 
L 153.760612 104.517895 
L 153.355858 105.289864 
L 152.54635 106.061832 
L 153.355858 106.8338 
L 152.343973 107.605768 
L 144.451265 108.377736 
L 153.153481 109.149704 
L 139.594214 109.921672 
L 141.617986 110.69364 
L 131.094376 111.465608 
L 129.880113 112.237577 
L 143.237003 113.009545 
L 138.379952 113.781513 
L 131.701507 114.553481 
L 139.391837 115.325449 
L 151.939218 116.097417 
L 153.760612 116.869385 
L 151.534464 117.641353 
L 169.546027 118.413322 
L 169.748404 119.18529 
L 175.819718 119.957258 
L 171.569798 120.729226 
L 180.069637 121.501194 
L 198.688331 122.273162 
L 199.093086 123.04513 
L 203.343005 123.817098 
L 202.938251 124.589066 
L 201.521611 125.361035 
L 203.140628 126.133003 
L 203.747759 126.904971 
L 203.343005 127.676939 
L 202.533497 128.448907 
L 212.045221 129.220875 
" style="fill:none;stroke:#258d41;stroke-dasharray:9.6,2.4,1.5,2.4;stroke-dashoffset:0;stroke-width:1.5;"/>
   </g>
   <g id="line2d_14">
    <path clip-path="url(#p6d27c44228)" d="M 193.568343 53.568 
L 194.050192 55.901913 
L 196.459442 58.235825 
L 196.734785 60.569738 
L 196.665949 62.90365 
L 197.078963 65.237563 
L 195.220399 67.571476 
L 197.629649 69.905388 
L 195.702249 72.239301 
L 193.981357 74.573213 
L 195.358071 76.907126 
L 193.361835 79.241039 
L 193.430671 81.574951 
L 191.640943 83.908864 
L 190.057722 86.242776 
L 187.854979 88.576689 
L 186.065251 90.910602 
L 184.069015 93.244514 
L 184.344358 95.578427 
L 178.562159 97.912339 
L 171.678589 100.246252 
L 176.221745 102.580165 
L 173.950167 104.914077 
L 175.258046 107.24799 
L 178.699831 109.581902 
L 184.757373 111.915815 
L 185.789908 114.249728 
L 189.025186 116.58364 
L 194.945057 118.917553 
L 196.528278 121.251465 
L 196.321771 123.585378 
L 195.771085 125.919291 
L 197.629649 128.253203 
L 197.629649 130.587116 
L 197.491978 132.921028 
L 198.455677 135.254941 
L 199.21287 137.588854 
L 199.557049 139.922766 
L 198.455677 142.256679 
L 199.006363 144.590591 
L 199.625884 146.924504 
L 197.76732 149.258417 
L 198.662185 151.592329 
L 197.423142 153.926242 
L 193.086493 156.260154 
L 197.354306 158.594067 
L 202.379312 160.92798 
L 204.650891 163.261892 
L 207.886169 165.595805 
L 208.849869 167.929717 
L 209.331719 170.26363 
L 208.50569 172.597543 
L 209.607061 174.931455 
L 209.882404 177.265368 
L 209.125211 179.59928 
L 210.020076 181.933193 
L 209.813568 184.267106 
L 210.43309 186.601018 
L 209.744733 188.934931 
L 210.43309 191.268843 
L 210.226583 193.602756 
L 210.708433 195.936669 
L 209.675897 198.270581 
L 210.501925 200.604494 
L 211.052611 202.938406 
L 210.43309 205.272319 
L 210.43309 207.606232 
L 210.846104 209.940144 
L 210.708433 212.274057 
L 210.708433 214.607969 
L 210.639597 216.941882 
L 210.91494 219.275795 
L 210.777268 221.609707 
L 211.121447 223.94362 
L 210.364254 226.277532 
L 211.603297 228.611445 
L 211.052611 230.945358 
L 210.639597 233.27927 
L 211.672132 235.613183 
L 211.39679 237.947095 
L 210.639597 240.281008 
L 211.259118 242.614921 
L 211.327954 244.948833 
L 211.534461 247.282746 
L 210.91494 249.616658 
L 211.465625 251.950571 
L 211.534461 254.284484 
L 210.846104 256.618396 
L 211.534461 258.952309 
L 211.327954 261.286221 
L 211.39679 263.620134 
L 211.327954 265.954047 
L 211.39679 268.287959 
L 211.39679 270.621872 
L 211.740968 272.955784 
L 211.190282 275.289697 
L 211.465625 277.62361 
L 211.603297 279.957522 
L 211.740968 282.291435 
" style="fill:none;stroke:#115029;stroke-linecap:square;stroke-width:1.5;"/>
   </g>
   <g id="patch_3">
    <path d="M 57.6 307.584 
L 57.6 41.472 
" style="fill:none;stroke:#000000;stroke-linecap:square;stroke-linejoin:miter;stroke-width:0.8;"/>
   </g>
   <g id="patch_4">
    <path d="M 219.927273 307.584 
L 219.927273 41.472 
" style="fill:none;stroke:#000000;stroke-linecap:square;stroke-linejoin:miter;stroke-width:0.8;"/>
   </g>
   <g id="patch_5">
    <path d="M 57.6 307.584 
L 219.927273 307.584 
" style="fill:none;stroke:#000000;stroke-linecap:square;stroke-linejoin:miter;stroke-width:0.8;"/>
   </g>
   <g id="patch_6">
    <path d="M 57.6 41.472 
L 219.927273 41.472 
" style="fill:none;stroke:#000000;stroke-linecap:square;stroke-linejoin:miter;stroke-width:0.8;"/>
   </g>
  </g>
  <g id="axes_2">
   <g id="patch_7">
    <path d="M 252.392727 307.584 
L 414.72 307.584 
L 414.72 41.472 
L 252.392727 41.472 
z
" style="fill:#ffffff;"/>
   </g>
   <g id="matplotlib.axis_3">
    <g id="xtick_4">
     <g id="line2d_15">
      <g>
       <use style="stroke:#000000;stroke-width:0.8;" x="259.595477" xlink:href="#md2ba591f8a" y="307.584"/>
      </g>
     </g>
     <g id="text_12">
      <!-- 0.0 -->
      <g transform="translate(247.668133 325.981656)scale(0.15 -0.15)">
       <use xlink:href="#DejaVuSans-48"/>
       <use x="63.623047" xlink:href="#DejaVuSans-46"/>
       <use x="95.410156" xlink:href="#DejaVuSans-48"/>
      </g>
     </g>
    </g>
    <g id="xtick_5">
     <g id="line2d_16">
      <g>
       <use style="stroke:#000000;stroke-width:0.8;" x="333.468482" xlink:href="#md2ba591f8a" y="307.584"/>
      </g>
     </g>
     <g id="text_13">
      <!-- 0.5 -->
      <g transform="translate(321.541139 325.981656)scale(0.15 -0.15)">
       <use xlink:href="#DejaVuSans-48"/>
       <use x="63.623047" xlink:href="#DejaVuSans-46"/>
       <use x="95.410156" xlink:href="#DejaVuSans-53"/>
      </g>
     </g>
    </g>
    <g id="xtick_6">
     <g id="line2d_17">
      <g>
       <use style="stroke:#000000;stroke-width:0.8;" x="407.341488" xlink:href="#md2ba591f8a" y="307.584"/>
      </g>
     </g>
     <g id="text_14">
      <!-- 1.0 -->
      <g transform="translate(395.414144 325.981656)scale(0.15 -0.15)">
       <use xlink:href="#DejaVuSans-49"/>
       <use x="63.623047" xlink:href="#DejaVuSans-46"/>
       <use x="95.410156" xlink:href="#DejaVuSans-48"/>
      </g>
     </g>
    </g>
    <g id="text_15">
     <!-- CDF -->
     <defs>
      <path d="M 64.40625 67.28125 
L 64.40625 56.890625 
Q 59.421875 61.53125 53.78125 63.8125 
Q 48.140625 66.109375 41.796875 66.109375 
Q 29.296875 66.109375 22.65625 58.46875 
Q 16.015625 50.828125 16.015625 36.375 
Q 16.015625 21.96875 22.65625 14.328125 
Q 29.296875 6.6875 41.796875 6.6875 
Q 48.140625 6.6875 53.78125 8.984375 
Q 59.421875 11.28125 64.40625 15.921875 
L 64.40625 5.609375 
Q 59.234375 2.09375 53.4375 0.328125 
Q 47.65625 -1.421875 41.21875 -1.421875 
Q 24.65625 -1.421875 15.125 8.703125 
Q 5.609375 18.84375 5.609375 36.375 
Q 5.609375 53.953125 15.125 64.078125 
Q 24.65625 74.21875 41.21875 74.21875 
Q 47.75 74.21875 53.53125 72.484375 
Q 59.328125 70.75 64.40625 67.28125 
z
" id="DejaVuSans-67"/>
     </defs>
     <g transform="translate(316.187145 346.018531)scale(0.17 -0.17)">
      <use xlink:href="#DejaVuSans-67"/>
      <use x="69.824219" xlink:href="#DejaVuSans-68"/>
      <use x="146.826172" xlink:href="#DejaVuSans-70"/>
     </g>
    </g>
   </g>
   <g id="matplotlib.axis_4"/>
   <g id="line2d_18">
    <path clip-path="url(#pe842269fee)" d="M 268.817958 53.568 
L 276.233206 56.036571 
L 281.331965 58.505143 
L 285.492949 60.973714 
L 289.778143 63.442286 
L 293.491977 65.910857 
L 296.963604 68.379429 
L 300.540809 70.848 
L 303.863386 73.316571 
L 306.999651 75.785143 
L 309.918551 78.253714 
L 313.470914 80.722286 
L 317.277904 83.190857 
L 321.246366 85.659429 
L 325.457034 88.128 
L 329.301287 90.596571 
L 333.425009 93.065143 
L 337.424523 95.533714 
L 341.746979 98.002286 
L 345.491865 100.470857 
L 349.199489 102.939429 
L 353.062373 105.408 
L 357.217148 107.876571 
L 361.229082 110.345143 
L 365.048493 112.813714 
L 369.228109 115.282286 
L 373.401515 117.750857 
L 376.581253 120.219429 
L 379.593309 122.688 
L 382.909676 125.156571 
L 386.058361 127.625143 
L 388.735054 130.093714 
L 390.28145 132.562286 
L 391.318591 135.030857 
L 392.18184 137.499429 
L 393.125825 139.968 
L 393.715815 142.436571 
L 394.094651 144.905143 
L 394.461066 147.373714 
L 394.752956 149.842286 
L 395.026215 152.310857 
L 395.274632 154.779429 
L 395.54168 157.248 
L 395.746624 159.716571 
L 395.988831 162.185143 
L 396.231037 164.653714 
L 396.479454 167.122286 
L 396.70924 169.590857 
L 396.988709 172.059429 
L 397.175022 174.528 
L 397.355124 176.996571 
L 397.522806 179.465143 
L 397.721539 181.933714 
L 397.963746 184.402286 
L 398.1749 186.870857 
L 398.355003 189.339429 
L 398.522684 191.808 
L 398.733839 194.276571 
L 398.889099 196.745143 
L 399.056781 199.213714 
L 399.249304 201.682286 
L 399.429406 204.150857 
L 399.62814 206.619429 
L 399.820663 209.088 
L 400.000765 211.556571 
L 400.162236 214.025143 
L 400.329918 216.493714 
L 400.497599 218.962286 
L 400.708754 221.430857 
L 400.876435 223.899429 
L 401.050327 226.368 
L 401.23664 228.836571 
L 401.460215 231.305143 
L 401.68379 233.773714 
L 401.870103 236.242286 
L 402.025364 238.710857 
L 402.230308 241.179429 
L 402.360727 243.648 
L 402.522198 246.116571 
L 402.739563 248.585143 
L 402.907244 251.053714 
L 403.074926 253.522286 
L 403.28608 255.990857 
L 403.497235 258.459429 
L 403.714599 260.928 
L 403.956806 263.396571 
L 404.192802 265.865143 
L 404.497113 268.333714 
L 404.764161 270.802286 
L 405.080893 273.270857 
L 405.378993 275.739429 
L 405.76404 278.208 
L 406.149086 280.676571 
L 406.416134 283.145143 
L 406.65213 285.613714 
L 406.881916 288.082286 
L 407.043387 290.550857 
L 407.217279 293.019429 
L 407.341488 295.488 
" style="fill:none;stroke:#000000;stroke-linecap:square;stroke-width:3;"/>
   </g>
   <g id="line2d_19">
    <path clip-path="url(#pe842269fee)" d="M 259.79673 53.568 
L 260.496741 54.259917 
L 261.71301 54.951834 
L 262.325519 55.643752 
L 263.06053 56.335669 
L 263.830542 57.027586 
L 264.670555 57.719503 
L 265.370565 58.41142 
L 266.035576 59.103337 
L 266.534333 59.795255 
L 267.339346 60.487172 
L 268.29311 61.179089 
L 269.141873 61.871006 
L 270.069387 62.562923 
L 270.9094 63.254841 
L 271.661912 63.946758 
L 272.536925 64.638675 
L 273.350688 65.330592 
L 274.085699 66.022509 
L 275.135715 66.714427 
L 276.168231 67.406344 
L 277.078245 68.098261 
L 277.988259 68.790178 
L 278.915773 69.482095 
L 279.817036 70.174012 
L 280.7008 70.86593 
L 281.628314 71.557847 
L 282.64333 72.249764 
L 283.807098 72.941681 
L 284.865864 73.633598 
L 285.819628 74.325516 
L 286.878395 75.017433 
L 288.015912 75.70935 
L 288.917176 76.401267 
L 289.87969 77.093184 
L 291.253461 77.785102 
L 292.355978 78.477019 
L 293.440995 79.168936 
L 294.718514 79.860853 
L 295.70728 80.55277 
L 296.739795 81.244687 
L 297.903563 81.936605 
L 299.286084 82.628522 
L 300.642355 83.320439 
L 301.771122 84.012356 
L 302.91739 84.704273 
L 303.958656 85.396191 
L 305.297426 86.088108 
L 306.767449 86.780025 
L 308.14122 87.471942 
L 309.357488 88.163859 
L 310.74876 88.855777 
L 312.08753 89.547694 
L 313.4088 90.239611 
L 314.905073 90.931528 
L 316.418846 91.623445 
L 317.818868 92.315362 
L 319.23639 93.00728 
L 320.758913 93.699197 
L 322.255186 94.391114 
L 323.873961 95.083031 
L 325.448985 95.774948 
L 327.041509 96.466866 
L 328.756535 97.158783 
L 330.489062 97.8507 
L 332.212838 98.542617 
L 333.936615 99.234534 
L 335.826643 99.926452 
L 337.55042 100.618369 
L 339.5192 101.310286 
L 341.45298 102.002203 
L 343.649263 102.69412 
L 345.548042 103.386037 
L 347.954329 104.077955 
L 350.054361 104.769872 
L 352.548149 105.461789 
L 354.954436 106.153706 
L 357.605727 106.845623 
L 360.580772 107.537541 
L 363.757071 108.229458 
L 366.872118 108.921375 
L 370.862179 109.613292 
L 375.438499 110.305209 
L 381.099836 110.997127 
L 386.288665 111.689044 
L 391.853751 112.380961 
L 395.852562 113.072878 
L 398.696355 113.764795 
L 401.671401 114.456712 
L 403.220175 115.14863 
L 404.103938 115.840547 
L 404.550195 116.532464 
L 405.048953 117.224381 
L 405.460209 117.916298 
L 405.888965 118.608216 
L 406.308972 119.300133 
L 406.702728 119.99205 
L 407.052733 120.683967 
L 407.341488 121.375884 
" style="fill:none;stroke:#a2eb7f;stroke-dasharray:1.5,2.475;stroke-dashoffset:0;stroke-width:1.5;"/>
   </g>
   <g id="line2d_20">
    <path clip-path="url(#pe842269fee)" d="M 259.77124 53.568 
L 260.570959 54.265558 
L 261.467348 54.963115 
L 262.029789 55.660673 
L 262.785568 56.35823 
L 263.602864 57.055788 
L 264.385007 57.753345 
L 264.991388 58.450903 
L 265.588981 59.14846 
L 266.24809 59.846018 
L 266.95114 60.543575 
L 267.970563 61.241133 
L 268.946045 61.93869 
L 269.833646 62.636248 
L 270.773976 63.333805 
L 271.494603 64.031363 
L 272.241594 64.72892 
L 273.032525 65.426478 
L 273.876185 66.124035 
L 275.001066 66.821593 
L 275.862302 67.51915 
L 276.872937 68.216708 
L 277.848419 68.914265 
L 278.859054 69.611823 
L 279.729079 70.30938 
L 280.581527 71.006938 
L 281.557009 71.704495 
L 282.72583 72.402053 
L 283.727677 73.09961 
L 284.782252 73.797168 
L 285.924709 74.494725 
L 286.882615 75.192283 
L 288.025072 75.88984 
L 288.965401 76.587398 
L 290.09907 77.284955 
L 291.329408 77.982513 
L 292.427924 78.680071 
L 293.623109 79.377628 
L 294.765566 80.075186 
L 295.855294 80.772743 
L 296.874717 81.470301 
L 298.122631 82.167858 
L 299.519943 82.865416 
L 300.794222 83.562973 
L 302.015772 84.260531 
L 303.184593 84.958088 
L 304.283109 85.655646 
L 305.583752 86.353203 
L 307.183191 87.050761 
L 308.483834 87.748318 
L 309.731748 88.445876 
L 311.067544 89.143433 
L 312.385763 89.840991 
L 313.835804 90.538548 
L 315.408879 91.236106 
L 316.841344 91.933663 
L 318.326538 92.631221 
L 319.811731 93.328778 
L 321.376018 94.026336 
L 322.922729 94.723893 
L 324.478227 95.421451 
L 325.972209 96.119008 
L 327.756199 96.816566 
L 329.478672 97.514123 
L 331.122052 98.211681 
L 332.888466 98.909238 
L 334.716397 99.606796 
L 336.632208 100.304353 
L 338.556809 101.001911 
L 340.542926 101.699468 
L 342.572983 102.397026 
L 344.673346 103.094584 
L 346.870378 103.792141 
L 349.120139 104.489699 
L 351.55445 105.187256 
L 354.146948 105.884814 
L 356.783386 106.582371 
L 359.542859 107.279929 
L 362.609915 107.977486 
L 365.756065 108.675044 
L 369.508596 109.372601 
L 373.788414 110.070159 
L 379.360088 110.767716 
L 384.580236 111.465274 
L 390.178273 112.162831 
L 394.932651 112.860389 
L 397.876674 113.557946 
L 401.18101 114.255504 
L 403.044093 114.953061 
L 403.571381 115.650619 
L 404.037151 116.348176 
L 404.46777 117.045734 
L 404.968693 117.743291 
L 405.381735 118.440849 
L 405.838718 119.138406 
L 406.401158 119.835964 
L 406.743895 120.533521 
L 407.077844 121.231079 
L 407.341488 121.928636 
" style="fill:none;stroke:#77cd86;stroke-dasharray:5.55,2.4;stroke-dashoffset:0;stroke-width:1.5;"/>
   </g>
   <g id="line2d_21">
    <path clip-path="url(#pe842269fee)" d="M 260.413323 53.568 
L 261.394738 54.339968 
L 262.178148 55.111936 
L 262.95295 55.883904 
L 263.805231 56.655872 
L 264.614468 57.427841 
L 265.449532 58.199809 
L 266.207115 58.971777 
L 267.024961 59.743745 
L 267.679238 60.515713 
L 268.497084 61.287681 
L 269.39241 62.059649 
L 270.279127 62.831617 
L 271.269151 63.603585 
L 272.190304 64.375554 
L 273.077021 65.147522 
L 273.920693 65.91949 
L 274.867673 66.691458 
L 275.642474 67.463426 
L 276.666934 68.235394 
L 277.622522 69.007362 
L 278.646982 69.77933 
L 279.507872 70.551298 
L 280.618421 71.323267 
L 281.513747 72.095235 
L 282.564033 72.867203 
L 283.657364 73.639171 
L 284.673214 74.411139 
L 285.800981 75.183107 
L 286.885703 75.955075 
L 287.961816 76.727043 
L 289.304805 77.499012 
L 290.312047 78.27098 
L 291.482858 79.042948 
L 292.662277 79.814916 
L 293.858915 80.586884 
L 295.253557 81.358852 
L 296.458804 82.13082 
L 297.534917 82.902788 
L 298.895124 83.674756 
L 300.26394 84.446725 
L 301.649973 85.218693 
L 302.958527 85.990661 
L 304.378996 86.762629 
L 305.833901 87.534597 
L 307.108018 88.306565 
L 308.528487 89.078533 
L 309.974783 89.850501 
L 311.446906 90.622469 
L 312.936246 91.394438 
L 314.382542 92.166406 
L 316.087105 92.938374 
L 317.593663 93.710342 
L 319.246573 94.48231 
L 320.899483 95.254278 
L 322.49213 96.026246 
L 324.076168 96.798214 
L 325.918474 97.570182 
L 327.881304 98.342151 
L 329.680565 99.114119 
L 331.393736 99.886087 
L 333.434047 100.658055 
L 335.405486 101.430023 
L 337.678236 102.201991 
L 339.813245 102.973959 
L 342.172084 103.745927 
L 344.711711 104.517895 
L 347.268555 105.289864 
L 349.859836 106.061832 
L 352.41668 106.8338 
L 355.016569 107.605768 
L 357.952205 108.377736 
L 360.517659 109.149704 
L 363.659909 109.921672 
L 366.71607 110.69364 
L 370.219894 111.465608 
L 373.775371 112.237577 
L 376.762661 113.009545 
L 379.956564 113.781513 
L 383.434561 114.553481 
L 386.58542 115.325449 
L 389.202527 116.097417 
L 391.742154 116.869385 
L 394.376478 117.641353 
L 396.24461 118.413322 
L 398.104134 119.18529 
L 399.70539 119.957258 
L 401.487433 120.729226 
L 402.907902 121.501194 
L 403.536352 122.273162 
L 404.147584 123.04513 
L 404.578029 123.817098 
L 405.025692 124.589066 
L 405.533618 125.361035 
L 405.972672 126.133003 
L 406.385899 126.904971 
L 406.816344 127.676939 
L 407.281225 128.448907 
L 407.341488 129.220875 
" style="fill:none;stroke:#258d41;stroke-dasharray:9.6,2.4,1.5,2.4;stroke-dashoffset:0;stroke-width:1.5;"/>
   </g>
   <g id="line2d_22">
    <path clip-path="url(#pe842269fee)" d="M 262.153965 53.568 
L 264.650482 55.901913 
L 266.837147 58.235825 
L 268.988402 60.569738 
L 271.148509 62.90365 
L 273.255498 65.237563 
L 275.601516 67.571476 
L 277.637683 69.905388 
L 279.92173 72.239301 
L 282.4271 74.573213 
L 284.755413 76.907126 
L 287.340459 79.241039 
L 289.916652 81.574951 
L 292.72302 83.908864 
L 295.733006 86.242776 
L 299.026284 88.576689 
L 302.549737 90.910602 
L 306.329924 93.244514 
L 310.0747 95.578427 
L 314.563119 97.912339 
L 319.936828 100.246252 
L 324.726246 102.580165 
L 329.807809 104.914077 
L 334.721167 107.24799 
L 339.191881 109.581902 
L 342.883539 111.915815 
L 346.442404 114.249728 
L 349.585183 116.58364 
L 351.966612 118.917553 
L 354.144425 121.251465 
L 356.348797 123.585378 
L 358.623991 125.919291 
L 360.660158 128.253203 
L 362.696324 130.587116 
L 364.750197 132.921028 
L 366.680128 135.254941 
L 368.512678 137.588854 
L 370.300963 139.922766 
L 372.230895 142.256679 
L 374.090004 144.590591 
L 375.869436 146.924504 
L 377.887897 149.258417 
L 379.79127 151.592329 
L 381.853995 153.926242 
L 384.474453 156.260154 
L 386.546031 158.594067 
L 387.971347 160.92798 
L 389.104518 163.261892 
L 389.821603 165.595805 
L 390.414747 167.929717 
L 390.945921 170.26363 
L 391.58333 172.597543 
L 392.079092 174.931455 
L 392.539443 177.265368 
L 393.097175 179.59928 
L 393.53982 181.933193 
L 394.009024 184.267106 
L 394.398551 186.601018 
L 394.876608 188.934931 
L 395.266135 191.268843 
L 395.682221 193.602756 
L 396.036337 195.936669 
L 396.523247 198.270581 
L 396.903921 200.604494 
L 397.213773 202.938406 
L 397.6033 205.272319 
L 397.992828 207.606232 
L 398.329238 209.940144 
L 398.683354 212.274057 
L 399.03747 214.607969 
L 399.400438 216.941882 
L 399.727996 219.275795 
L 400.073259 221.609707 
L 400.374257 223.94362 
L 400.772637 226.277532 
L 401.011666 228.611445 
L 401.321517 230.945358 
L 401.684486 233.27927 
L 401.914661 235.613183 
L 402.180248 237.947095 
L 402.543217 240.281008 
L 402.82651 242.614921 
L 403.10095 244.948833 
L 403.348831 247.282746 
L 403.676388 249.616658 
L 403.933122 251.950571 
L 404.181003 254.284484 
L 404.517413 256.618396 
L 404.765294 258.952309 
L 405.039734 261.286221 
L 405.305321 263.620134 
L 405.579761 265.954047 
L 405.845348 268.287959 
L 406.110935 270.621872 
L 406.332257 272.955784 
L 406.624403 275.289697 
L 406.881137 277.62361 
L 407.120165 279.957522 
L 407.341488 282.291435 
" style="fill:none;stroke:#115029;stroke-linecap:square;stroke-width:1.5;"/>
   </g>
   <g id="patch_8">
    <path d="M 252.392727 307.584 
L 252.392727 41.472 
" style="fill:none;stroke:#000000;stroke-linecap:square;stroke-linejoin:miter;stroke-width:0.8;"/>
   </g>
   <g id="patch_9">
    <path d="M 414.72 307.584 
L 414.72 41.472 
" style="fill:none;stroke:#000000;stroke-linecap:square;stroke-linejoin:miter;stroke-width:0.8;"/>
   </g>
   <g id="patch_10">
    <path d="M 252.392727 307.584 
L 414.72 307.584 
" style="fill:none;stroke:#000000;stroke-linecap:square;stroke-linejoin:miter;stroke-width:0.8;"/>
   </g>
   <g id="patch_11">
    <path d="M 252.392727 41.472 
L 414.72 41.472 
" style="fill:none;stroke:#000000;stroke-linecap:square;stroke-linejoin:miter;stroke-width:0.8;"/>
   </g>
   <g id="legend_1">
    <g id="patch_12">
     <path d="M 261.492727 301.084 
L 345.81804 301.084 
Q 348.41804 301.084 348.41804 298.484 
L 348.41804 225.176187 
Q 348.41804 222.576187 345.81804 222.576187 
L 261.492727 222.576187 
Q 258.892727 222.576187 258.892727 225.176187 
L 258.892727 298.484 
Q 258.892727 301.084 261.492727 301.084 
z
" style="fill:#ffffff;opacity:0.8;stroke:#cccccc;stroke-linejoin:miter;"/>
    </g>
    <g id="line2d_23">
     <path d="M 264.092727 233.104156 
L 290.092727 233.104156 
" style="fill:none;stroke:#000000;stroke-linecap:square;stroke-width:3;"/>
    </g>
    <g id="line2d_24"/>
    <g id="text_16">
     <!-- TS -->
     <defs>
      <path d="M -0.296875 72.90625 
L 61.375 72.90625 
L 61.375 64.59375 
L 35.5 64.59375 
L 35.5 0 
L 25.59375 0 
L 25.59375 64.59375 
L -0.296875 64.59375 
z
" id="DejaVuSans-84"/>
      <path d="M 53.515625 70.515625 
L 53.515625 60.890625 
Q 47.90625 63.578125 42.921875 64.890625 
Q 37.9375 66.21875 33.296875 66.21875 
Q 25.25 66.21875 20.875 63.09375 
Q 16.5 59.96875 16.5 54.203125 
Q 16.5 49.359375 19.40625 46.890625 
Q 22.3125 44.4375 30.421875 42.921875 
L 36.375 41.703125 
Q 47.40625 39.59375 52.65625 34.296875 
Q 57.90625 29 57.90625 20.125 
Q 57.90625 9.515625 50.796875 4.046875 
Q 43.703125 -1.421875 29.984375 -1.421875 
Q 24.8125 -1.421875 18.96875 -0.25 
Q 13.140625 0.921875 6.890625 3.21875 
L 6.890625 13.375 
Q 12.890625 10.015625 18.65625 8.296875 
Q 24.421875 6.59375 29.984375 6.59375 
Q 38.421875 6.59375 43.015625 9.90625 
Q 47.609375 13.234375 47.609375 19.390625 
Q 47.609375 24.75 44.3125 27.78125 
Q 41.015625 30.8125 33.5 32.328125 
L 27.484375 33.5 
Q 16.453125 35.6875 11.515625 40.375 
Q 6.59375 45.0625 6.59375 53.421875 
Q 6.59375 63.09375 13.40625 68.65625 
Q 20.21875 74.21875 32.171875 74.21875 
Q 37.3125 74.21875 42.625 73.28125 
Q 47.953125 72.359375 53.515625 70.515625 
z
" id="DejaVuSans-83"/>
     </defs>
     <g transform="translate(300.492727 237.654156)scale(0.13 -0.13)">
      <use xlink:href="#DejaVuSans-84"/>
      <use x="61.083984" xlink:href="#DejaVuSans-83"/>
     </g>
    </g>
    <g id="line2d_25">
     <path d="M 264.092727 246.985719 
L 290.092727 246.985719 
" style="fill:none;stroke:#a2eb7f;stroke-dasharray:1.5,2.475;stroke-dashoffset:0;stroke-width:1.5;"/>
    </g>
    <g id="line2d_26"/>
    <g id="text_17">
     <!-- RB, n0 -->
     <defs>
      <path d="M 44.390625 34.1875 
Q 47.5625 33.109375 50.5625 29.59375 
Q 53.5625 26.078125 56.59375 19.921875 
L 66.609375 0 
L 56 0 
L 46.6875 18.703125 
Q 43.0625 26.03125 39.671875 28.421875 
Q 36.28125 30.8125 30.421875 30.8125 
L 19.671875 30.8125 
L 19.671875 0 
L 9.8125 0 
L 9.8125 72.90625 
L 32.078125 72.90625 
Q 44.578125 72.90625 50.734375 67.671875 
Q 56.890625 62.453125 56.890625 51.90625 
Q 56.890625 45.015625 53.6875 40.46875 
Q 50.484375 35.9375 44.390625 34.1875 
z
M 19.671875 64.796875 
L 19.671875 38.921875 
L 32.078125 38.921875 
Q 39.203125 38.921875 42.84375 42.21875 
Q 46.484375 45.515625 46.484375 51.90625 
Q 46.484375 58.296875 42.84375 61.546875 
Q 39.203125 64.796875 32.078125 64.796875 
z
" id="DejaVuSans-82"/>
      <path d="M 19.671875 34.8125 
L 19.671875 8.109375 
L 35.5 8.109375 
Q 43.453125 8.109375 47.28125 11.40625 
Q 51.125 14.703125 51.125 21.484375 
Q 51.125 28.328125 47.28125 31.5625 
Q 43.453125 34.8125 35.5 34.8125 
z
M 19.671875 64.796875 
L 19.671875 42.828125 
L 34.28125 42.828125 
Q 41.5 42.828125 45.03125 45.53125 
Q 48.578125 48.25 48.578125 53.8125 
Q 48.578125 59.328125 45.03125 62.0625 
Q 41.5 64.796875 34.28125 64.796875 
z
M 9.8125 72.90625 
L 35.015625 72.90625 
Q 46.296875 72.90625 52.390625 68.21875 
Q 58.5 63.53125 58.5 54.890625 
Q 58.5 48.1875 55.375 44.234375 
Q 52.25 40.28125 46.1875 39.3125 
Q 53.46875 37.75 57.5 32.78125 
Q 61.53125 27.828125 61.53125 20.40625 
Q 61.53125 10.640625 54.890625 5.3125 
Q 48.25 0 35.984375 0 
L 9.8125 0 
z
" id="DejaVuSans-66"/>
      <path d="M 11.71875 12.40625 
L 22.015625 12.40625 
L 22.015625 4 
L 14.015625 -11.625 
L 7.71875 -11.625 
L 11.71875 4 
z
" id="DejaVuSans-44"/>
      <path d="M 54.890625 33.015625 
L 54.890625 0 
L 45.90625 0 
L 45.90625 32.71875 
Q 45.90625 40.484375 42.875 44.328125 
Q 39.84375 48.1875 33.796875 48.1875 
Q 26.515625 48.1875 22.3125 43.546875 
Q 18.109375 38.921875 18.109375 30.90625 
L 18.109375 0 
L 9.078125 0 
L 9.078125 54.6875 
L 18.109375 54.6875 
L 18.109375 46.1875 
Q 21.34375 51.125 25.703125 53.5625 
Q 30.078125 56 35.796875 56 
Q 45.21875 56 50.046875 50.171875 
Q 54.890625 44.34375 54.890625 33.015625 
z
" id="DejaVuSans-110"/>
     </defs>
     <g transform="translate(300.492727 251.535719)scale(0.13 -0.13)">
      <use xlink:href="#DejaVuSans-82"/>
      <use x="69.482422" xlink:href="#DejaVuSans-66"/>
      <use x="138.085938" xlink:href="#DejaVuSans-44"/>
      <use x="169.873047" xlink:href="#DejaVuSans-32"/>
      <use x="201.660156" xlink:href="#DejaVuSans-110"/>
      <use x="265.039062" xlink:href="#DejaVuSans-48"/>
     </g>
    </g>
    <g id="line2d_27">
     <path d="M 264.092727 260.867281 
L 290.092727 260.867281 
" style="fill:none;stroke:#77cd86;stroke-dasharray:5.55,2.4;stroke-dashoffset:0;stroke-width:1.5;"/>
    </g>
    <g id="line2d_28"/>
    <g id="text_18">
     <!-- RB, s0 -->
     <defs>
      <path d="M 44.28125 53.078125 
L 44.28125 44.578125 
Q 40.484375 46.53125 36.375 47.5 
Q 32.28125 48.484375 27.875 48.484375 
Q 21.1875 48.484375 17.84375 46.4375 
Q 14.5 44.390625 14.5 40.28125 
Q 14.5 37.15625 16.890625 35.375 
Q 19.28125 33.59375 26.515625 31.984375 
L 29.59375 31.296875 
Q 39.15625 29.25 43.1875 25.515625 
Q 47.21875 21.78125 47.21875 15.09375 
Q 47.21875 7.46875 41.1875 3.015625 
Q 35.15625 -1.421875 24.609375 -1.421875 
Q 20.21875 -1.421875 15.453125 -0.5625 
Q 10.6875 0.296875 5.421875 2 
L 5.421875 11.28125 
Q 10.40625 8.6875 15.234375 7.390625 
Q 20.0625 6.109375 24.8125 6.109375 
Q 31.15625 6.109375 34.5625 8.28125 
Q 37.984375 10.453125 37.984375 14.40625 
Q 37.984375 18.0625 35.515625 20.015625 
Q 33.0625 21.96875 24.703125 23.78125 
L 21.578125 24.515625 
Q 13.234375 26.265625 9.515625 29.90625 
Q 5.8125 33.546875 5.8125 39.890625 
Q 5.8125 47.609375 11.28125 51.796875 
Q 16.75 56 26.8125 56 
Q 31.78125 56 36.171875 55.265625 
Q 40.578125 54.546875 44.28125 53.078125 
z
" id="DejaVuSans-115"/>
     </defs>
     <g transform="translate(300.492727 265.417281)scale(0.13 -0.13)">
      <use xlink:href="#DejaVuSans-82"/>
      <use x="69.482422" xlink:href="#DejaVuSans-66"/>
      <use x="138.085938" xlink:href="#DejaVuSans-44"/>
      <use x="169.873047" xlink:href="#DejaVuSans-32"/>
      <use x="201.660156" xlink:href="#DejaVuSans-115"/>
      <use x="253.759766" xlink:href="#DejaVuSans-48"/>
     </g>
    </g>
    <g id="line2d_29">
     <path d="M 264.092727 274.748844 
L 290.092727 274.748844 
" style="fill:none;stroke:#258d41;stroke-dasharray:9.6,2.4,1.5,2.4;stroke-dashoffset:0;stroke-width:1.5;"/>
    </g>
    <g id="line2d_30"/>
    <g id="text_19">
     <!-- RB, s1 -->
     <g transform="translate(300.492727 279.298844)scale(0.13 -0.13)">
      <use xlink:href="#DejaVuSans-82"/>
      <use x="69.482422" xlink:href="#DejaVuSans-66"/>
      <use x="138.085938" xlink:href="#DejaVuSans-44"/>
      <use x="169.873047" xlink:href="#DejaVuSans-32"/>
      <use x="201.660156" xlink:href="#DejaVuSans-115"/>
      <use x="253.759766" xlink:href="#DejaVuSans-49"/>
     </g>
    </g>
    <g id="line2d_31">
     <path d="M 264.092727 288.630406 
L 290.092727 288.630406 
" style="fill:none;stroke:#115029;stroke-linecap:square;stroke-width:1.5;"/>
    </g>
    <g id="line2d_32"/>
    <g id="text_20">
     <!-- RB, s2 -->
     <g transform="translate(300.492727 293.180406)scale(0.13 -0.13)">
      <use xlink:href="#DejaVuSans-82"/>
      <use x="69.482422" xlink:href="#DejaVuSans-66"/>
      <use x="138.085938" xlink:href="#DejaVuSans-44"/>
      <use x="169.873047" xlink:href="#DejaVuSans-32"/>
      <use x="201.660156" xlink:href="#DejaVuSans-115"/>
      <use x="253.759766" xlink:href="#DejaVuSans-50"/>
     </g>
    </g>
   </g>
  </g>
 </g>
 <defs>
  <clipPath id="p6d27c44228">
   <rect height="266.112" width="162.327273" x="57.6" y="41.472"/>
  </clipPath>
  <clipPath id="pe842269fee">
   <rect height="266.112" width="162.327273" x="252.392727" y="41.472"/>
  </clipPath>
 </defs>
</svg>
