<?xml version="1.0" encoding="utf-8" standalone="no"?>
<!DOCTYPE svg PUBLIC "-//W3C//DTD SVG 1.1//EN"
  "http://www.w3.org/Graphics/SVG/1.1/DTD/svg11.dtd">
<!-- Created with matplotlib (https://matplotlib.org/) -->
<svg height="345.6pt" version="1.1" viewBox="0 0 460.8 345.6" width="460.8pt" xmlns="http://www.w3.org/2000/svg" xmlns:xlink="http://www.w3.org/1999/xlink">
 <defs>
  <style type="text/css">
*{stroke-linecap:butt;stroke-linejoin:round;}
  </style>
 </defs>
 <g id="figure_1">
  <g id="patch_1">
   <path d="M 0 345.6 
L 460.8 345.6 
L 460.8 0 
L 0 0 
z
" style="fill:#ffffff;"/>
  </g>
  <g id="axes_1">
   <g id="patch_2">
    <path d="M 57.6 307.584 
L 219.927273 307.584 
L 219.927273 41.472 
L 57.6 41.472 
z
" style="fill:#ffffff;"/>
   </g>
   <g id="matplotlib.axis_1">
    <g id="xtick_1">
     <g id="line2d_1">
      <defs>
       <path d="M 0 0 
L 0 3.5 
" id="mb7de104b01" style="stroke:#000000;stroke-width:0.8;"/>
      </defs>
      <g>
       <use style="stroke:#000000;stroke-width:0.8;" x="212.54876" xlink:href="#mb7de104b01" y="307.584"/>
      </g>
     </g>
     <g id="text_1">
      <!-- 0.0 -->
      <defs>
       <path d="M 31.78125 66.40625 
Q 24.171875 66.40625 20.328125 58.90625 
Q 16.5 51.421875 16.5 36.375 
Q 16.5 21.390625 20.328125 13.890625 
Q 24.171875 6.390625 31.78125 6.390625 
Q 39.453125 6.390625 43.28125 13.890625 
Q 47.125 21.390625 47.125 36.375 
Q 47.125 51.421875 43.28125 58.90625 
Q 39.453125 66.40625 31.78125 66.40625 
z
M 31.78125 74.21875 
Q 44.046875 74.21875 50.515625 64.515625 
Q 56.984375 54.828125 56.984375 36.375 
Q 56.984375 17.96875 50.515625 8.265625 
Q 44.046875 -1.421875 31.78125 -1.421875 
Q 19.53125 -1.421875 13.0625 8.265625 
Q 6.59375 17.96875 6.59375 36.375 
Q 6.59375 54.828125 13.0625 64.515625 
Q 19.53125 74.21875 31.78125 74.21875 
z
" id="DejaVuSans-48"/>
       <path d="M 10.6875 12.40625 
L 21 12.40625 
L 21 0 
L 10.6875 0 
z
" id="DejaVuSans-46"/>
      </defs>
      <g transform="translate(200.621417 325.981656)scale(0.15 -0.15)">
       <use xlink:href="#DejaVuSans-48"/>
       <use x="63.623047" xlink:href="#DejaVuSans-46"/>
       <use x="95.410156" xlink:href="#DejaVuSans-48"/>
      </g>
     </g>
    </g>
    <g id="xtick_2">
     <g id="line2d_2">
      <g>
       <use style="stroke:#000000;stroke-width:0.8;" x="171.59518" xlink:href="#mb7de104b01" y="307.584"/>
      </g>
     </g>
     <g id="text_2">
      <!-- 0.2 -->
      <defs>
       <path d="M 19.1875 8.296875 
L 53.609375 8.296875 
L 53.609375 0 
L 7.328125 0 
L 7.328125 8.296875 
Q 12.9375 14.109375 22.625 23.890625 
Q 32.328125 33.6875 34.8125 36.53125 
Q 39.546875 41.84375 41.421875 45.53125 
Q 43.3125 49.21875 43.3125 52.78125 
Q 43.3125 58.59375 39.234375 62.25 
Q 35.15625 65.921875 28.609375 65.921875 
Q 23.96875 65.921875 18.8125 64.3125 
Q 13.671875 62.703125 7.8125 59.421875 
L 7.8125 69.390625 
Q 13.765625 71.78125 18.9375 73 
Q 24.125 74.21875 28.421875 74.21875 
Q 39.75 74.21875 46.484375 68.546875 
Q 53.21875 62.890625 53.21875 53.421875 
Q 53.21875 48.921875 51.53125 44.890625 
Q 49.859375 40.875 45.40625 35.40625 
Q 44.1875 33.984375 37.640625 27.21875 
Q 31.109375 20.453125 19.1875 8.296875 
z
" id="DejaVuSans-50"/>
      </defs>
      <g transform="translate(159.667836 325.981656)scale(0.15 -0.15)">
       <use xlink:href="#DejaVuSans-48"/>
       <use x="63.623047" xlink:href="#DejaVuSans-46"/>
       <use x="95.410156" xlink:href="#DejaVuSans-50"/>
      </g>
     </g>
    </g>
    <g id="xtick_3">
     <g id="line2d_3">
      <g>
       <use style="stroke:#000000;stroke-width:0.8;" x="130.641599" xlink:href="#mb7de104b01" y="307.584"/>
      </g>
     </g>
     <g id="text_3">
      <!-- 0.4 -->
      <defs>
       <path d="M 37.796875 64.3125 
L 12.890625 25.390625 
L 37.796875 25.390625 
z
M 35.203125 72.90625 
L 47.609375 72.90625 
L 47.609375 25.390625 
L 58.015625 25.390625 
L 58.015625 17.1875 
L 47.609375 17.1875 
L 47.609375 0 
L 37.796875 0 
L 37.796875 17.1875 
L 4.890625 17.1875 
L 4.890625 26.703125 
z
" id="DejaVuSans-52"/>
      </defs>
      <g transform="translate(118.714256 325.981656)scale(0.15 -0.15)">
       <use xlink:href="#DejaVuSans-48"/>
       <use x="63.623047" xlink:href="#DejaVuSans-46"/>
       <use x="95.410156" xlink:href="#DejaVuSans-52"/>
      </g>
     </g>
    </g>
    <g id="xtick_4">
     <g id="line2d_4">
      <g>
       <use style="stroke:#000000;stroke-width:0.8;" x="89.688019" xlink:href="#mb7de104b01" y="307.584"/>
      </g>
     </g>
     <g id="text_4">
      <!-- 0.6 -->
      <defs>
       <path d="M 33.015625 40.375 
Q 26.375 40.375 22.484375 35.828125 
Q 18.609375 31.296875 18.609375 23.390625 
Q 18.609375 15.53125 22.484375 10.953125 
Q 26.375 6.390625 33.015625 6.390625 
Q 39.65625 6.390625 43.53125 10.953125 
Q 47.40625 15.53125 47.40625 23.390625 
Q 47.40625 31.296875 43.53125 35.828125 
Q 39.65625 40.375 33.015625 40.375 
z
M 52.59375 71.296875 
L 52.59375 62.3125 
Q 48.875 64.0625 45.09375 64.984375 
Q 41.3125 65.921875 37.59375 65.921875 
Q 27.828125 65.921875 22.671875 59.328125 
Q 17.53125 52.734375 16.796875 39.40625 
Q 19.671875 43.65625 24.015625 45.921875 
Q 28.375 48.1875 33.59375 48.1875 
Q 44.578125 48.1875 50.953125 41.515625 
Q 57.328125 34.859375 57.328125 23.390625 
Q 57.328125 12.15625 50.6875 5.359375 
Q 44.046875 -1.421875 33.015625 -1.421875 
Q 20.359375 -1.421875 13.671875 8.265625 
Q 6.984375 17.96875 6.984375 36.375 
Q 6.984375 53.65625 15.1875 63.9375 
Q 23.390625 74.21875 37.203125 74.21875 
Q 40.921875 74.21875 44.703125 73.484375 
Q 48.484375 72.75 52.59375 71.296875 
z
" id="DejaVuSans-54"/>
      </defs>
      <g transform="translate(77.760675 325.981656)scale(0.15 -0.15)">
       <use xlink:href="#DejaVuSans-48"/>
       <use x="63.623047" xlink:href="#DejaVuSans-46"/>
       <use x="95.410156" xlink:href="#DejaVuSans-54"/>
      </g>
     </g>
    </g>
    <g id="text_5">
     <!-- PDF -->
     <defs>
      <path d="M 19.671875 64.796875 
L 19.671875 37.40625 
L 32.078125 37.40625 
Q 38.96875 37.40625 42.71875 40.96875 
Q 46.484375 44.53125 46.484375 51.125 
Q 46.484375 57.671875 42.71875 61.234375 
Q 38.96875 64.796875 32.078125 64.796875 
z
M 9.8125 72.90625 
L 32.078125 72.90625 
Q 44.34375 72.90625 50.609375 67.359375 
Q 56.890625 61.8125 56.890625 51.125 
Q 56.890625 40.328125 50.609375 34.8125 
Q 44.34375 29.296875 32.078125 29.296875 
L 19.671875 29.296875 
L 19.671875 0 
L 9.8125 0 
z
" id="DejaVuSans-80"/>
      <path d="M 19.671875 64.796875 
L 19.671875 8.109375 
L 31.59375 8.109375 
Q 46.6875 8.109375 53.6875 14.9375 
Q 60.6875 21.78125 60.6875 36.53125 
Q 60.6875 51.171875 53.6875 57.984375 
Q 46.6875 64.796875 31.59375 64.796875 
z
M 9.8125 72.90625 
L 30.078125 72.90625 
Q 51.265625 72.90625 61.171875 64.09375 
Q 71.09375 55.28125 71.09375 36.53125 
Q 71.09375 17.671875 61.125 8.828125 
Q 51.171875 0 30.078125 0 
L 9.8125 0 
z
" id="DejaVuSans-68"/>
      <path d="M 9.8125 72.90625 
L 51.703125 72.90625 
L 51.703125 64.59375 
L 19.671875 64.59375 
L 19.671875 43.109375 
L 48.578125 43.109375 
L 48.578125 34.8125 
L 19.671875 34.8125 
L 19.671875 0 
L 9.8125 0 
z
" id="DejaVuSans-70"/>
     </defs>
     <g transform="translate(122.204574 346.018531)scale(0.17 -0.17)">
      <use xlink:href="#DejaVuSans-80"/>
      <use x="60.302734" xlink:href="#DejaVuSans-68"/>
      <use x="137.304688" xlink:href="#DejaVuSans-70"/>
     </g>
    </g>
   </g>
   <g id="matplotlib.axis_2">
    <g id="ytick_1">
     <g id="line2d_5">
      <defs>
       <path d="M 0 0 
L -3.5 0 
" id="mbafb221974" style="stroke:#000000;stroke-width:0.8;"/>
      </defs>
      <g>
       <use style="stroke:#000000;stroke-width:0.8;" x="57.6" xlink:href="#mbafb221974" y="295.488"/>
      </g>
     </g>
     <g id="text_6">
      <!-- 0 -->
      <g transform="translate(41.05625 301.186828)scale(0.15 -0.15)">
       <use xlink:href="#DejaVuSans-48"/>
      </g>
     </g>
    </g>
    <g id="ytick_2">
     <g id="line2d_6">
      <g>
       <use style="stroke:#000000;stroke-width:0.8;" x="57.6" xlink:href="#mbafb221974" y="243.315297"/>
      </g>
     </g>
     <g id="text_7">
      <!-- 1 -->
      <defs>
       <path d="M 12.40625 8.296875 
L 28.515625 8.296875 
L 28.515625 63.921875 
L 10.984375 60.40625 
L 10.984375 69.390625 
L 28.421875 72.90625 
L 38.28125 72.90625 
L 38.28125 8.296875 
L 54.390625 8.296875 
L 54.390625 0 
L 12.40625 0 
z
" id="DejaVuSans-49"/>
      </defs>
      <g transform="translate(41.05625 249.014125)scale(0.15 -0.15)">
       <use xlink:href="#DejaVuSans-49"/>
      </g>
     </g>
    </g>
    <g id="ytick_3">
     <g id="line2d_7">
      <g>
       <use style="stroke:#000000;stroke-width:0.8;" x="57.6" xlink:href="#mbafb221974" y="191.142594"/>
      </g>
     </g>
     <g id="text_8">
      <!-- 2 -->
      <g transform="translate(41.05625 196.841422)scale(0.15 -0.15)">
       <use xlink:href="#DejaVuSans-50"/>
      </g>
     </g>
    </g>
    <g id="ytick_4">
     <g id="line2d_8">
      <g>
       <use style="stroke:#000000;stroke-width:0.8;" x="57.6" xlink:href="#mbafb221974" y="138.969891"/>
      </g>
     </g>
     <g id="text_9">
      <!-- 3 -->
      <defs>
       <path d="M 40.578125 39.3125 
Q 47.65625 37.796875 51.625 33 
Q 55.609375 28.21875 55.609375 21.1875 
Q 55.609375 10.40625 48.1875 4.484375 
Q 40.765625 -1.421875 27.09375 -1.421875 
Q 22.515625 -1.421875 17.65625 -0.515625 
Q 12.796875 0.390625 7.625 2.203125 
L 7.625 11.71875 
Q 11.71875 9.328125 16.59375 8.109375 
Q 21.484375 6.890625 26.8125 6.890625 
Q 36.078125 6.890625 40.9375 10.546875 
Q 45.796875 14.203125 45.796875 21.1875 
Q 45.796875 27.640625 41.28125 31.265625 
Q 36.765625 34.90625 28.71875 34.90625 
L 20.21875 34.90625 
L 20.21875 43.015625 
L 29.109375 43.015625 
Q 36.375 43.015625 40.234375 45.921875 
Q 44.09375 48.828125 44.09375 54.296875 
Q 44.09375 59.90625 40.109375 62.90625 
Q 36.140625 65.921875 28.71875 65.921875 
Q 24.65625 65.921875 20.015625 65.03125 
Q 15.375 64.15625 9.8125 62.3125 
L 9.8125 71.09375 
Q 15.4375 72.65625 20.34375 73.4375 
Q 25.25 74.21875 29.59375 74.21875 
Q 40.828125 74.21875 47.359375 69.109375 
Q 53.90625 64.015625 53.90625 55.328125 
Q 53.90625 49.265625 50.4375 45.09375 
Q 46.96875 40.921875 40.578125 39.3125 
z
" id="DejaVuSans-51"/>
      </defs>
      <g transform="translate(41.05625 144.668719)scale(0.15 -0.15)">
       <use xlink:href="#DejaVuSans-51"/>
      </g>
     </g>
    </g>
    <g id="ytick_5">
     <g id="line2d_9">
      <g>
       <use style="stroke:#000000;stroke-width:0.8;" x="57.6" xlink:href="#mbafb221974" y="86.797187"/>
      </g>
     </g>
     <g id="text_10">
      <!-- 4 -->
      <g transform="translate(41.05625 92.496016)scale(0.15 -0.15)">
       <use xlink:href="#DejaVuSans-52"/>
      </g>
     </g>
    </g>
    <g id="text_11">
     <!-- Velocity (m/s) -->
     <defs>
      <path d="M 28.609375 0 
L 0.78125 72.90625 
L 11.078125 72.90625 
L 34.1875 11.53125 
L 57.328125 72.90625 
L 67.578125 72.90625 
L 39.796875 0 
z
" id="DejaVuSans-86"/>
      <path d="M 56.203125 29.59375 
L 56.203125 25.203125 
L 14.890625 25.203125 
Q 15.484375 15.921875 20.484375 11.0625 
Q 25.484375 6.203125 34.421875 6.203125 
Q 39.59375 6.203125 44.453125 7.46875 
Q 49.3125 8.734375 54.109375 11.28125 
L 54.109375 2.78125 
Q 49.265625 0.734375 44.1875 -0.34375 
Q 39.109375 -1.421875 33.890625 -1.421875 
Q 20.796875 -1.421875 13.15625 6.1875 
Q 5.515625 13.8125 5.515625 26.8125 
Q 5.515625 40.234375 12.765625 48.109375 
Q 20.015625 56 32.328125 56 
Q 43.359375 56 49.78125 48.890625 
Q 56.203125 41.796875 56.203125 29.59375 
z
M 47.21875 32.234375 
Q 47.125 39.59375 43.09375 43.984375 
Q 39.0625 48.390625 32.421875 48.390625 
Q 24.90625 48.390625 20.390625 44.140625 
Q 15.875 39.890625 15.1875 32.171875 
z
" id="DejaVuSans-101"/>
      <path d="M 9.421875 75.984375 
L 18.40625 75.984375 
L 18.40625 0 
L 9.421875 0 
z
" id="DejaVuSans-108"/>
      <path d="M 30.609375 48.390625 
Q 23.390625 48.390625 19.1875 42.75 
Q 14.984375 37.109375 14.984375 27.296875 
Q 14.984375 17.484375 19.15625 11.84375 
Q 23.34375 6.203125 30.609375 6.203125 
Q 37.796875 6.203125 41.984375 11.859375 
Q 46.1875 17.53125 46.1875 27.296875 
Q 46.1875 37.015625 41.984375 42.703125 
Q 37.796875 48.390625 30.609375 48.390625 
z
M 30.609375 56 
Q 42.328125 56 49.015625 48.375 
Q 55.71875 40.765625 55.71875 27.296875 
Q 55.71875 13.875 49.015625 6.21875 
Q 42.328125 -1.421875 30.609375 -1.421875 
Q 18.84375 -1.421875 12.171875 6.21875 
Q 5.515625 13.875 5.515625 27.296875 
Q 5.515625 40.765625 12.171875 48.375 
Q 18.84375 56 30.609375 56 
z
" id="DejaVuSans-111"/>
      <path d="M 48.78125 52.59375 
L 48.78125 44.1875 
Q 44.96875 46.296875 41.140625 47.34375 
Q 37.3125 48.390625 33.40625 48.390625 
Q 24.65625 48.390625 19.8125 42.84375 
Q 14.984375 37.3125 14.984375 27.296875 
Q 14.984375 17.28125 19.8125 11.734375 
Q 24.65625 6.203125 33.40625 6.203125 
Q 37.3125 6.203125 41.140625 7.25 
Q 44.96875 8.296875 48.78125 10.40625 
L 48.78125 2.09375 
Q 45.015625 0.34375 40.984375 -0.53125 
Q 36.96875 -1.421875 32.421875 -1.421875 
Q 20.0625 -1.421875 12.78125 6.34375 
Q 5.515625 14.109375 5.515625 27.296875 
Q 5.515625 40.671875 12.859375 48.328125 
Q 20.21875 56 33.015625 56 
Q 37.15625 56 41.109375 55.140625 
Q 45.0625 54.296875 48.78125 52.59375 
z
" id="DejaVuSans-99"/>
      <path d="M 9.421875 54.6875 
L 18.40625 54.6875 
L 18.40625 0 
L 9.421875 0 
z
M 9.421875 75.984375 
L 18.40625 75.984375 
L 18.40625 64.59375 
L 9.421875 64.59375 
z
" id="DejaVuSans-105"/>
      <path d="M 18.3125 70.21875 
L 18.3125 54.6875 
L 36.8125 54.6875 
L 36.8125 47.703125 
L 18.3125 47.703125 
L 18.3125 18.015625 
Q 18.3125 11.328125 20.140625 9.421875 
Q 21.96875 7.515625 27.59375 7.515625 
L 36.8125 7.515625 
L 36.8125 0 
L 27.59375 0 
Q 17.1875 0 13.234375 3.875 
Q 9.28125 7.765625 9.28125 18.015625 
L 9.28125 47.703125 
L 2.6875 47.703125 
L 2.6875 54.6875 
L 9.28125 54.6875 
L 9.28125 70.21875 
z
" id="DejaVuSans-116"/>
      <path d="M 32.171875 -5.078125 
Q 28.375 -14.84375 24.75 -17.8125 
Q 21.140625 -20.796875 15.09375 -20.796875 
L 7.90625 -20.796875 
L 7.90625 -13.28125 
L 13.1875 -13.28125 
Q 16.890625 -13.28125 18.9375 -11.515625 
Q 21 -9.765625 23.484375 -3.21875 
L 25.09375 0.875 
L 2.984375 54.6875 
L 12.5 54.6875 
L 29.59375 11.921875 
L 46.6875 54.6875 
L 56.203125 54.6875 
z
" id="DejaVuSans-121"/>
      <path id="DejaVuSans-32"/>
      <path d="M 31 75.875 
Q 24.46875 64.65625 21.28125 53.65625 
Q 18.109375 42.671875 18.109375 31.390625 
Q 18.109375 20.125 21.3125 9.0625 
Q 24.515625 -2 31 -13.1875 
L 23.1875 -13.1875 
Q 15.875 -1.703125 12.234375 9.375 
Q 8.59375 20.453125 8.59375 31.390625 
Q 8.59375 42.28125 12.203125 53.3125 
Q 15.828125 64.359375 23.1875 75.875 
z
" id="DejaVuSans-40"/>
      <path d="M 52 44.1875 
Q 55.375 50.25 60.0625 53.125 
Q 64.75 56 71.09375 56 
Q 79.640625 56 84.28125 50.015625 
Q 88.921875 44.046875 88.921875 33.015625 
L 88.921875 0 
L 79.890625 0 
L 79.890625 32.71875 
Q 79.890625 40.578125 77.09375 44.375 
Q 74.3125 48.1875 68.609375 48.1875 
Q 61.625 48.1875 57.5625 43.546875 
Q 53.515625 38.921875 53.515625 30.90625 
L 53.515625 0 
L 44.484375 0 
L 44.484375 32.71875 
Q 44.484375 40.625 41.703125 44.40625 
Q 38.921875 48.1875 33.109375 48.1875 
Q 26.21875 48.1875 22.15625 43.53125 
Q 18.109375 38.875 18.109375 30.90625 
L 18.109375 0 
L 9.078125 0 
L 9.078125 54.6875 
L 18.109375 54.6875 
L 18.109375 46.1875 
Q 21.1875 51.21875 25.484375 53.609375 
Q 29.78125 56 35.6875 56 
Q 41.65625 56 45.828125 52.96875 
Q 50 49.953125 52 44.1875 
z
" id="DejaVuSans-109"/>
      <path d="M 25.390625 72.90625 
L 33.6875 72.90625 
L 8.296875 -9.28125 
L 0 -9.28125 
z
" id="DejaVuSans-47"/>
      <path d="M 44.28125 53.078125 
L 44.28125 44.578125 
Q 40.484375 46.53125 36.375 47.5 
Q 32.28125 48.484375 27.875 48.484375 
Q 21.1875 48.484375 17.84375 46.4375 
Q 14.5 44.390625 14.5 40.28125 
Q 14.5 37.15625 16.890625 35.375 
Q 19.28125 33.59375 26.515625 31.984375 
L 29.59375 31.296875 
Q 39.15625 29.25 43.1875 25.515625 
Q 47.21875 21.78125 47.21875 15.09375 
Q 47.21875 7.46875 41.1875 3.015625 
Q 35.15625 -1.421875 24.609375 -1.421875 
Q 20.21875 -1.421875 15.453125 -0.5625 
Q 10.6875 0.296875 5.421875 2 
L 5.421875 11.28125 
Q 10.40625 8.6875 15.234375 7.390625 
Q 20.0625 6.109375 24.8125 6.109375 
Q 31.15625 6.109375 34.5625 8.28125 
Q 37.984375 10.453125 37.984375 14.40625 
Q 37.984375 18.0625 35.515625 20.015625 
Q 33.0625 21.96875 24.703125 23.78125 
L 21.578125 24.515625 
Q 13.234375 26.265625 9.515625 29.90625 
Q 5.8125 33.546875 5.8125 39.890625 
Q 5.8125 47.609375 11.28125 51.796875 
Q 16.75 56 26.8125 56 
Q 31.78125 56 36.171875 55.265625 
Q 40.578125 54.546875 44.28125 53.078125 
z
" id="DejaVuSans-115"/>
      <path d="M 8.015625 75.875 
L 15.828125 75.875 
Q 23.140625 64.359375 26.78125 53.3125 
Q 30.421875 42.28125 30.421875 31.390625 
Q 30.421875 20.453125 26.78125 9.375 
Q 23.140625 -1.703125 15.828125 -13.1875 
L 8.015625 -13.1875 
Q 14.5 -2 17.703125 9.0625 
Q 20.90625 20.125 20.90625 31.390625 
Q 20.90625 42.671875 17.703125 53.65625 
Q 14.5 64.65625 8.015625 75.875 
z
" id="DejaVuSans-41"/>
     </defs>
     <g transform="translate(33.520781 232.779562)rotate(-90)scale(0.17 -0.17)">
      <use xlink:href="#DejaVuSans-86"/>
      <use x="60.658203" xlink:href="#DejaVuSans-101"/>
      <use x="122.181641" xlink:href="#DejaVuSans-108"/>
      <use x="149.964844" xlink:href="#DejaVuSans-111"/>
      <use x="211.146484" xlink:href="#DejaVuSans-99"/>
      <use x="266.126953" xlink:href="#DejaVuSans-105"/>
      <use x="293.910156" xlink:href="#DejaVuSans-116"/>
      <use x="333.119141" xlink:href="#DejaVuSans-121"/>
      <use x="392.298828" xlink:href="#DejaVuSans-32"/>
      <use x="424.085938" xlink:href="#DejaVuSans-40"/>
      <use x="463.099609" xlink:href="#DejaVuSans-109"/>
      <use x="560.511719" xlink:href="#DejaVuSans-47"/>
      <use x="594.203125" xlink:href="#DejaVuSans-115"/>
      <use x="646.302734" xlink:href="#DejaVuSans-41"/>
     </g>
    </g>
   </g>
   <g id="line2d_10">
    <path clip-path="url(#pa353c75b19)" d="M 117.054669 295.488 
L 153.404033 293.35877 
L 158.948851 291.229539 
L 161.413215 289.100309 
L 161.413215 286.971078 
L 158.640806 284.841848 
L 155.868397 282.712618 
L 154.94426 280.583387 
L 144.470715 278.454157 
L 149.707488 276.324927 
L 155.560351 274.195696 
L 166.649988 272.066466 
L 165.10976 269.937235 
L 168.806306 267.808005 
L 174.659169 265.678775 
L 169.114351 263.549544 
L 167.882169 261.420314 
L 174.043079 259.291084 
L 170.038488 257.161853 
L 174.659169 255.032623 
L 173.426988 252.903392 
L 171.578715 250.774162 
L 163.261488 248.644932 
L 170.654579 246.515701 
L 171.270669 244.386471 
L 170.346533 242.25724 
L 168.49826 240.12801 
L 177.123533 237.99878 
L 158.024715 235.869549 
L 166.033897 233.740319 
L 163.877579 231.611089 
L 168.806306 229.481858 
L 157.716669 227.352628 
L 159.872988 225.223397 
L 153.404033 223.094167 
L 158.948851 220.964937 
L 158.640806 218.835706 
L 157.716669 216.706476 
L 156.792533 214.577246 
L 149.399442 212.448015 
L 151.863806 210.318785 
L 142.006351 208.189554 
L 148.16726 206.060324 
L 148.783351 203.931094 
L 139.850033 201.801863 
L 134.305215 199.672633 
L 124.44776 197.543402 
L 138.617851 195.414172 
L 135.229351 193.284942 
L 128.760397 191.155711 
L 130.916715 189.026481 
L 116.438579 186.897251 
L 113.050079 184.76802 
L 128.452351 182.63879 
L 125.063851 180.509559 
L 122.599488 178.380329 
L 119.519033 176.251099 
L 120.751215 174.121868 
L 114.28226 171.992638 
L 103.192624 169.863408 
L 93.95126 167.734177 
L 97.33976 165.604947 
L 80.089215 163.475716 
L 79.165079 161.346486 
L 100.420215 159.217256 
L 128.144306 157.088025 
L 133.997169 154.958795 
L 137.385669 152.829564 
L 157.716669 150.700334 
L 164.801715 148.571104 
L 163.569533 146.441873 
L 170.038488 144.312643 
L 169.730442 142.183413 
L 175.891351 140.054182 
L 179.895942 137.924952 
L 184.208579 135.795721 
L 191.601669 133.666491 
L 195.914306 131.537261 
L 197.454533 129.40803 
L 201.767169 127.2788 
L 197.454533 125.14957 
L 202.38326 123.020339 
L 200.534988 120.891109 
L 206.387851 118.761878 
L 204.847624 116.632648 
L 208.544169 114.503418 
L 207.311988 112.374187 
L 209.16026 110.244957 
L 209.16026 108.115727 
L 208.852215 105.986496 
L 211.932669 103.857266 
L 211.624624 101.728035 
L 211.624624 99.598805 
L 210.700488 97.469575 
L 210.700488 95.340344 
L 211.624624 93.211114 
L 211.932669 91.081883 
L 211.932669 88.952653 
L 211.008533 86.823423 
" style="fill:none;stroke:#5a0003;stroke-linecap:square;stroke-width:3;"/>
   </g>
   <g id="line2d_11">
    <path clip-path="url(#pa353c75b19)" d="M 208.704245 295.488 
L 200.128018 293.390397 
L 200.42375 291.292793 
L 197.46643 289.19519 
L 201.90241 287.097586 
L 196.579235 284.999983 
L 201.310946 282.90238 
L 200.128018 280.804776 
L 198.94509 278.707173 
L 195.396307 276.60957 
L 194.509111 274.511966 
L 194.213379 272.414363 
L 192.734719 270.316759 
L 191.256059 268.219156 
L 192.438987 266.121553 
L 189.777399 264.023949 
L 180.313977 261.926346 
L 179.426781 259.828743 
L 178.835317 257.731139 
L 168.78043 255.633536 
L 173.21641 253.535932 
L 164.344451 251.438329 
L 159.317008 249.340726 
L 160.499935 247.243122 
L 158.725544 245.145519 
L 153.402368 243.047916 
L 151.923709 240.950312 
L 151.923709 238.852709 
L 153.402368 236.755105 
L 150.149317 234.657502 
L 146.896265 232.559899 
L 159.317008 230.462295 
L 149.262121 228.364692 
L 161.387131 226.267089 
L 152.810904 224.169485 
L 143.938946 222.071882 
L 155.472492 219.974278 
L 152.810904 217.876675 
L 150.149317 215.779072 
L 141.57309 213.681468 
L 142.460286 211.583865 
L 150.445049 209.486262 
L 146.896265 207.388658 
L 137.728575 205.291055 
L 136.841379 203.193451 
L 144.234678 201.095848 
L 132.701131 198.998245 
L 141.57309 196.900641 
L 128.856616 194.803038 
L 138.61577 192.705435 
L 129.44808 190.607831 
L 129.44808 188.510228 
L 129.44808 186.412624 
L 114.070018 184.315021 
L 123.53344 182.217418 
L 109.92977 180.119814 
L 82.426698 178.022211 
L 86.862677 175.924608 
L 101.353543 173.827004 
L 104.015131 171.729401 
L 95.438904 169.631797 
L 75.920595 167.534194 
L 67.935832 165.436591 
L 64.978512 163.338987 
L 89.524265 161.241384 
L 99.28342 159.143781 
L 98.987688 157.046177 
L 101.057811 154.948574 
L 118.505997 152.85097 
L 118.801729 150.753367 
L 123.53344 148.655764 
L 158.13408 146.55816 
L 162.570059 144.460557 
L 169.076162 142.362954 
L 177.356657 140.26535 
L 177.948121 138.167747 
L 176.469461 136.070143 
L 179.426781 133.97254 
L 176.173729 131.874937 
L 179.426781 129.777333 
L 179.131049 127.67973 
L 183.86276 125.582127 
L 180.609709 123.484523 
L 191.847523 121.38692 
L 197.762162 119.289316 
L 203.38107 117.191713 
L 204.859729 115.09411 
L 206.634121 112.996506 
L 209.887173 110.898903 
L 211.070101 108.8013 
L 211.365832 106.703696 
L 211.957296 104.606093 
L 210.182905 102.508489 
L 212.253028 100.410886 
L 212.253028 98.313283 
L 211.661564 96.215679 
L 211.957296 94.118076 
L 211.957296 92.020473 
L 211.365832 89.922869 
" style="fill:none;stroke:#ffcc7b;stroke-dasharray:1.5,2.475;stroke-dashoffset:0;stroke-width:1.5;"/>
   </g>
   <g id="line2d_12">
    <path clip-path="url(#pa353c75b19)" d="M 212.252126 295.488 
L 207.802607 293.390812 
L 204.242993 291.293625 
L 202.75982 289.196437 
L 204.242993 287.099249 
L 204.242993 285.002062 
L 200.980012 282.904874 
L 201.276647 280.807686 
L 197.123763 278.710499 
L 198.606936 276.613311 
L 198.013667 274.516123 
L 192.970879 272.418936 
L 184.665111 270.321748 
L 188.817995 268.22456 
L 182.885304 266.127373 
L 178.73242 264.030185 
L 182.588669 261.932997 
L 171.019921 259.83581 
L 175.766074 257.738622 
L 167.756941 255.641434 
L 158.857904 253.544247 
L 163.010788 251.447059 
L 148.17906 249.349871 
L 145.805983 247.252684 
L 152.628578 245.155496 
L 151.44204 243.058308 
L 146.102618 240.961121 
L 144.619445 238.863933 
L 144.026176 236.766745 
L 147.585791 234.669558 
L 144.32281 232.57237 
L 149.068964 230.475182 
L 141.05983 228.377995 
L 144.026176 226.280807 
L 144.619445 224.183619 
L 144.91608 222.086432 
L 142.246369 219.989244 
L 141.356465 217.892056 
L 140.466561 215.794869 
L 141.949734 213.697681 
L 138.686754 211.600493 
L 133.643966 209.503306 
L 133.643966 207.406118 
L 129.194448 205.30893 
L 134.237235 203.211743 
L 115.252623 201.114555 
L 130.677621 199.017367 
L 119.108873 196.92018 
L 116.439161 194.822992 
L 113.472816 192.725804 
L 95.971376 190.628617 
L 86.182436 188.531429 
L 66.30792 186.434241 
L 78.173303 184.337054 
L 81.732917 182.239866 
L 95.674742 180.142678 
L 97.157915 178.045491 
L 81.732917 175.948303 
L 105.760317 173.851115 
L 84.105994 171.753928 
L 91.225223 169.65674 
L 88.258878 167.559552 
L 99.827626 165.462365 
L 108.726663 163.365177 
L 118.515603 161.267989 
L 124.15166 159.170802 
L 141.653099 157.073614 
L 142.543003 154.976426 
L 151.44204 152.879239 
L 157.671366 150.782051 
L 171.019921 148.684863 
L 173.096363 146.587676 
L 178.435785 144.490488 
L 181.9954 142.3933 
L 183.775208 140.296113 
L 182.588669 138.198925 
L 177.545882 136.101737 
L 190.894437 134.00455 
L 192.970879 131.907362 
L 197.717032 129.810174 
L 199.200205 127.712987 
L 200.980012 125.615799 
L 201.276647 123.518611 
L 201.276647 121.421424 
L 205.132896 119.324236 
L 206.319434 117.227048 
L 206.912704 115.129861 
L 209.582415 113.032673 
L 211.065588 110.935485 
L 211.955491 108.838298 
L 212.252126 106.74111 
L 212.54876 104.643922 
L 212.54876 102.546735 
L 211.955491 100.449547 
L 211.658857 98.352359 
L 212.252126 96.255172 
L 212.252126 94.157984 
L 212.54876 92.060796 
L 212.252126 89.963609 
" style="fill:none;stroke:#e6a346;stroke-dasharray:5.55,2.4;stroke-dashoffset:0;stroke-width:1.5;"/>
   </g>
   <g id="line2d_13">
    <path clip-path="url(#pa353c75b19)" d="M 206.642742 295.488 
L 197.193112 293.516358 
L 187.152881 291.544716 
L 180.951562 289.573075 
L 178.589154 287.601433 
L 179.475057 285.629791 
L 167.072418 283.658149 
L 168.844224 281.686507 
L 168.548923 279.714866 
L 168.844224 277.743224 
L 168.253622 275.771582 
L 181.246863 273.79994 
L 180.951562 271.828298 
L 178.293853 269.856657 
L 174.159641 267.885015 
L 171.797233 265.913373 
L 174.159641 263.941731 
L 167.367719 261.970089 
L 172.387835 259.998448 
L 167.958321 258.026806 
L 167.66302 256.055164 
L 163.233506 254.083522 
L 158.213391 252.11188 
L 161.757002 250.140239 
L 158.803993 248.168597 
L 164.710011 246.196955 
L 154.965081 244.225313 
L 155.850983 242.253671 
L 155.850983 240.28203 
L 155.850983 238.310388 
L 150.240266 236.338746 
L 156.146284 234.367104 
L 145.515451 232.395462 
L 141.381238 230.423821 
L 145.515451 228.452179 
L 152.897974 226.480537 
L 150.240266 224.508895 
L 145.22015 222.537253 
L 153.783877 220.565612 
L 147.287257 218.59397 
L 144.924849 216.622328 
L 141.085937 214.650686 
L 142.267141 212.679044 
L 142.267141 210.707403 
L 143.448345 208.735761 
L 141.085937 206.764119 
L 133.408113 204.792477 
L 133.703414 202.820835 
L 138.72353 200.849194 
L 131.636308 198.877552 
L 125.434989 196.90591 
L 126.320891 194.934268 
L 117.757165 192.962626 
L 126.320891 190.990985 
L 120.710174 189.019343 
L 114.508854 187.047701 
L 120.710174 185.076059 
L 105.059225 183.104417 
L 89.408276 181.132776 
L 100.629711 179.161134 
L 80.253948 177.189492 
L 95.314295 175.21785 
L 120.710174 173.246208 
L 122.481979 171.274567 
L 126.911493 169.302925 
L 119.824271 167.331283 
L 120.414873 165.359641 
L 128.092697 163.387999 
L 125.139688 161.416358 
L 135.770521 159.444716 
L 141.381238 157.473074 
L 141.381238 155.501432 
L 140.790636 153.52979 
L 152.897974 151.558149 
L 148.46846 149.586507 
L 146.696655 147.614865 
L 163.824108 145.643223 
L 167.958321 143.671581 
L 174.750242 141.69994 
L 178.589154 139.728298 
L 180.656261 137.756656 
L 181.837465 135.785014 
L 187.152881 133.813372 
L 188.924687 131.841731 
L 190.991793 129.870089 
L 198.374316 127.898447 
L 197.783714 125.926805 
L 198.669617 123.955163 
L 200.736723 121.983522 
L 196.011909 120.01188 
L 195.716608 118.040238 
L 191.877696 116.068596 
L 201.917927 114.096954 
L 200.441423 112.125313 
L 199.55552 110.153671 
L 200.146122 108.182029 
L 200.441423 106.210387 
L 208.119247 104.238745 
L 208.414547 102.267104 
" style="fill:none;stroke:#b45a28;stroke-dasharray:9.6,2.4,1.5,2.4;stroke-dashoffset:0;stroke-width:1.5;"/>
   </g>
   <g id="line2d_14">
    <path clip-path="url(#pa353c75b19)" d="M 200.305907 295.488 
L 193.559845 293.019429 
L 197.307657 290.550857 
L 194.809116 288.082286 
L 196.308241 285.613714 
L 192.810283 283.145143 
L 182.566263 280.676571 
L 187.563346 278.208 
L 183.315825 275.739429 
L 183.565679 273.270857 
L 177.819034 270.802286 
L 171.322826 268.333714 
L 168.324577 265.865143 
L 159.079973 263.396571 
L 152.333911 260.928 
L 145.587849 258.459429 
L 157.08114 255.990857 
L 150.584932 253.522286 
L 153.333328 251.053714 
L 158.080557 248.585143 
L 155.582015 246.116571 
L 153.833036 243.648 
L 154.08289 241.179429 
L 155.082307 238.710857 
L 147.586682 236.242286 
L 153.583182 233.773714 
L 155.582015 231.305143 
L 150.834786 228.836571 
L 149.085807 226.368 
L 148.835953 223.899429 
L 147.836537 221.430857 
L 153.333328 218.962286 
L 142.089891 216.493714 
L 140.840621 214.025143 
L 147.836537 211.556571 
L 134.844121 209.088 
L 138.342079 206.619429 
L 132.595434 204.150857 
L 123.850539 201.682286 
L 120.102726 199.213714 
L 123.100976 196.745143 
L 107.110311 194.276571 
L 129.34733 191.808 
L 116.604768 189.339429 
L 117.354331 186.870857 
L 112.357248 184.402286 
L 96.366583 181.933714 
L 110.608269 179.465143 
L 116.354914 176.996571 
L 119.603018 174.528 
L 121.102143 172.059429 
L 113.10681 169.590857 
L 121.851705 167.122286 
L 120.602435 164.653714 
L 136.5931 162.185143 
L 149.83537 159.716571 
L 156.331578 157.248 
L 161.32866 154.779429 
L 170.823118 152.310857 
L 167.075306 149.842286 
L 172.072389 147.373714 
L 171.822535 144.905143 
L 175.820201 142.436571 
L 183.065971 139.968 
L 179.817867 137.499429 
L 179.568013 135.030857 
L 184.065388 132.562286 
L 182.816117 130.093714 
L 183.065971 127.625143 
L 187.8132 125.156571 
L 188.812616 122.688 
L 194.309408 120.219429 
L 199.806199 117.750857 
L 200.056053 115.282286 
L 200.805615 112.813714 
L 200.805615 110.345143 
L 203.054303 107.876571 
L 202.054886 105.408 
L 203.054303 102.939429 
L 202.554595 100.470857 
L 200.805615 98.002286 
L 203.054303 95.533714 
L 198.556928 93.065143 
L 201.805032 90.596571 
L 199.556345 88.128 
L 201.05547 85.659429 
L 199.056636 83.190857 
L 206.802115 80.722286 
L 208.800948 78.253714 
L 210.799781 75.785143 
L 211.049635 73.316571 
L 212.54876 70.848 
L 212.049052 68.379429 
L 212.54876 65.910857 
L 212.298906 63.442286 
L 212.298906 60.973714 
L 212.54876 58.505143 
L 212.298906 56.036571 
L 212.54876 53.568 
" style="fill:none;stroke:#7d1e0b;stroke-linecap:square;stroke-width:1.5;"/>
   </g>
   <g id="patch_3">
    <path d="M 57.6 307.584 
L 57.6 41.472 
" style="fill:none;stroke:#000000;stroke-linecap:square;stroke-linejoin:miter;stroke-width:0.8;"/>
   </g>
   <g id="patch_4">
    <path d="M 219.927273 307.584 
L 219.927273 41.472 
" style="fill:none;stroke:#000000;stroke-linecap:square;stroke-linejoin:miter;stroke-width:0.8;"/>
   </g>
   <g id="patch_5">
    <path d="M 57.6 307.584 
L 219.927273 307.584 
" style="fill:none;stroke:#000000;stroke-linecap:square;stroke-linejoin:miter;stroke-width:0.8;"/>
   </g>
   <g id="patch_6">
    <path d="M 57.6 41.472 
L 219.927273 41.472 
" style="fill:none;stroke:#000000;stroke-linecap:square;stroke-linejoin:miter;stroke-width:0.8;"/>
   </g>
  </g>
  <g id="axes_2">
   <g id="patch_7">
    <path d="M 252.392727 307.584 
L 414.72 307.584 
L 414.72 41.472 
L 252.392727 41.472 
z
" style="fill:#ffffff;"/>
   </g>
   <g id="matplotlib.axis_3">
    <g id="xtick_5">
     <g id="line2d_15">
      <g>
       <use style="stroke:#000000;stroke-width:0.8;" x="259.762646" xlink:href="#mb7de104b01" y="307.584"/>
      </g>
     </g>
     <g id="text_12">
      <!-- 0.0 -->
      <g transform="translate(247.835302 325.981656)scale(0.15 -0.15)">
       <use xlink:href="#DejaVuSans-48"/>
       <use x="63.623047" xlink:href="#DejaVuSans-46"/>
       <use x="95.410156" xlink:href="#DejaVuSans-48"/>
      </g>
     </g>
    </g>
    <g id="xtick_6">
     <g id="line2d_16">
      <g>
       <use style="stroke:#000000;stroke-width:0.8;" x="333.552067" xlink:href="#mb7de104b01" y="307.584"/>
      </g>
     </g>
     <g id="text_13">
      <!-- 0.5 -->
      <defs>
       <path d="M 10.796875 72.90625 
L 49.515625 72.90625 
L 49.515625 64.59375 
L 19.828125 64.59375 
L 19.828125 46.734375 
Q 21.96875 47.46875 24.109375 47.828125 
Q 26.265625 48.1875 28.421875 48.1875 
Q 40.625 48.1875 47.75 41.5 
Q 54.890625 34.8125 54.890625 23.390625 
Q 54.890625 11.625 47.5625 5.09375 
Q 40.234375 -1.421875 26.90625 -1.421875 
Q 22.3125 -1.421875 17.546875 -0.640625 
Q 12.796875 0.140625 7.71875 1.703125 
L 7.71875 11.625 
Q 12.109375 9.234375 16.796875 8.0625 
Q 21.484375 6.890625 26.703125 6.890625 
Q 35.15625 6.890625 40.078125 11.328125 
Q 45.015625 15.765625 45.015625 23.390625 
Q 45.015625 31 40.078125 35.4375 
Q 35.15625 39.890625 26.703125 39.890625 
Q 22.75 39.890625 18.8125 39.015625 
Q 14.890625 38.140625 10.796875 36.28125 
z
" id="DejaVuSans-53"/>
      </defs>
      <g transform="translate(321.624723 325.981656)scale(0.15 -0.15)">
       <use xlink:href="#DejaVuSans-48"/>
       <use x="63.623047" xlink:href="#DejaVuSans-46"/>
       <use x="95.410156" xlink:href="#DejaVuSans-53"/>
      </g>
     </g>
    </g>
    <g id="xtick_7">
     <g id="line2d_17">
      <g>
       <use style="stroke:#000000;stroke-width:0.8;" x="407.341488" xlink:href="#mb7de104b01" y="307.584"/>
      </g>
     </g>
     <g id="text_14">
      <!-- 1.0 -->
      <g transform="translate(395.414144 325.981656)scale(0.15 -0.15)">
       <use xlink:href="#DejaVuSans-49"/>
       <use x="63.623047" xlink:href="#DejaVuSans-46"/>
       <use x="95.410156" xlink:href="#DejaVuSans-48"/>
      </g>
     </g>
    </g>
    <g id="text_15">
     <!-- CDF -->
     <defs>
      <path d="M 64.40625 67.28125 
L 64.40625 56.890625 
Q 59.421875 61.53125 53.78125 63.8125 
Q 48.140625 66.109375 41.796875 66.109375 
Q 29.296875 66.109375 22.65625 58.46875 
Q 16.015625 50.828125 16.015625 36.375 
Q 16.015625 21.96875 22.65625 14.328125 
Q 29.296875 6.6875 41.796875 6.6875 
Q 48.140625 6.6875 53.78125 8.984375 
Q 59.421875 11.28125 64.40625 15.921875 
L 64.40625 5.609375 
Q 59.234375 2.09375 53.4375 0.328125 
Q 47.65625 -1.421875 41.21875 -1.421875 
Q 24.65625 -1.421875 15.125 8.703125 
Q 5.609375 18.84375 5.609375 36.375 
Q 5.609375 53.953125 15.125 64.078125 
Q 24.65625 74.21875 41.21875 74.21875 
Q 47.75 74.21875 53.53125 72.484375 
Q 59.328125 70.75 64.40625 67.28125 
z
" id="DejaVuSans-67"/>
     </defs>
     <g transform="translate(316.187145 346.018531)scale(0.17 -0.17)">
      <use xlink:href="#DejaVuSans-67"/>
      <use x="69.824219" xlink:href="#DejaVuSans-68"/>
      <use x="146.826172" xlink:href="#DejaVuSans-70"/>
     </g>
    </g>
   </g>
   <g id="matplotlib.axis_4"/>
   <g id="line2d_18">
    <path clip-path="url(#p28c8f137fb)" d="M 262.571428 295.488 
L 264.311061 293.35877 
L 265.887603 291.229539 
L 267.39166 289.100309 
L 268.895718 286.971078 
L 270.48132 284.841848 
L 272.148468 282.712618 
L 273.842798 280.583387 
L 275.845188 278.454157 
L 277.693548 276.324927 
L 279.369756 274.195696 
L 280.719784 272.066466 
L 282.115114 269.937235 
L 283.401718 267.808005 
L 284.51617 265.678775 
L 285.793713 263.549544 
L 287.107498 261.420314 
L 288.240071 259.291084 
L 289.490432 257.161853 
L 290.604884 255.032623 
L 291.755579 252.903392 
L 292.960637 250.774162 
L 294.410331 248.644932 
L 295.642571 246.515701 
L 296.856689 244.386471 
L 298.09799 242.25724 
L 299.393654 240.12801 
L 300.435621 237.99878 
L 302.039345 235.869549 
L 303.407494 233.740319 
L 304.839067 231.611089 
L 306.12567 229.481858 
L 307.738454 227.352628 
L 309.287815 225.223397 
L 311.027447 223.094167 
L 312.60399 220.964937 
L 314.189592 218.835706 
L 315.802377 216.706476 
L 317.442343 214.577246 
L 319.299763 212.448015 
L 321.084699 210.318785 
L 323.159573 208.189554 
L 325.053236 206.060324 
L 326.928778 203.931094 
L 329.067076 201.801863 
L 331.368465 199.672633 
L 333.959793 197.543402 
L 336.134334 195.414172 
L 338.408541 193.284942 
L 340.873021 191.155711 
L 343.274077 189.026481 
L 346.10098 186.897251 
L 349.027549 184.76802 
L 351.50109 182.63879 
L 354.074296 180.509559 
L 356.719988 178.380329 
L 359.456285 176.251099 
L 362.15634 174.121868 
L 365.046667 171.992638 
L 368.263176 169.863408 
L 371.751502 167.734177 
L 375.140161 165.604947 
L 379.036214 163.475716 
L 382.959448 161.346486 
L 386.257502 159.217256 
L 388.740102 157.088025 
L 391.050552 154.958795 
L 393.261335 152.829564 
L 394.87412 150.700334 
L 396.278511 148.571104 
L 397.719144 146.441873 
L 398.969505 144.312643 
L 400.228927 142.183413 
L 401.307137 140.054182 
L 402.267559 137.924952 
L 403.101133 135.795721 
L 403.717253 133.666491 
L 404.206524 131.537261 
L 404.650493 129.40803 
L 404.967614 127.2788 
L 405.411583 125.14957 
L 405.710582 123.020339 
L 406.063945 120.891109 
L 406.245157 118.761878 
L 406.471671 116.632648 
L 406.589459 114.503418 
L 406.743489 112.374187 
L 406.843155 110.244957 
L 406.942822 108.115727 
L 407.051549 105.986496 
L 407.06967 103.857266 
L 407.096852 101.728035 
L 407.124034 99.598805 
L 407.178397 97.469575 
L 407.232761 95.340344 
L 407.259942 93.211114 
L 407.278063 91.081883 
L 407.296185 88.952653 
L 407.341488 86.823423 
" style="fill:none;stroke:#5a0003;stroke-linecap:square;stroke-width:3;"/>
   </g>
   <g id="line2d_19">
    <path clip-path="url(#p28c8f137fb)" d="M 259.874046 295.488 
L 260.233952 293.390397 
L 260.58529 291.292793 
L 261.022319 289.19519 
L 261.33081 287.097586 
L 261.793548 284.999983 
L 262.119177 282.90238 
L 262.479084 280.804776 
L 262.873267 278.707173 
L 263.370281 276.60957 
L 263.893003 274.511966 
L 264.424293 272.414363 
L 264.99843 270.316759 
L 265.615413 268.219156 
L 266.198119 266.121553 
L 266.857947 264.023949 
L 267.791991 261.926346 
L 268.751742 259.828743 
L 269.728631 257.731139 
L 270.996873 255.633536 
L 272.136577 253.535932 
L 273.533358 251.438329 
L 275.075815 249.340726 
L 276.583995 247.243122 
L 278.14359 245.145519 
L 279.857431 243.047916 
L 281.614118 240.950312 
L 283.370805 238.852709 
L 285.084646 236.755105 
L 286.892748 234.657502 
L 288.795111 232.559899 
L 290.337568 230.462295 
L 292.171378 228.364692 
L 293.65385 226.267089 
L 295.38483 224.169485 
L 297.372885 222.071882 
L 299.026741 219.974278 
L 300.757721 217.876675 
L 302.565823 215.779072 
L 304.622432 213.681468 
L 306.653334 211.583865 
L 308.452867 209.486262 
L 310.35523 207.388658 
L 312.523239 205.291055 
L 314.716955 203.193451 
L 316.696441 201.095848 
L 319.010127 198.998245 
L 321.066736 196.900641 
L 323.491821 194.803038 
L 325.634122 192.705435 
L 328.042068 190.607831 
L 330.450015 188.510228 
L 332.857961 186.412624 
L 335.711506 184.315021 
L 338.290837 182.217418 
L 341.264351 180.119814 
L 345.034801 178.022211 
L 348.676713 175.924608 
L 351.898734 173.827004 
L 355.043632 171.729401 
L 358.437037 169.631797 
L 362.396009 167.534194 
L 366.586351 165.436591 
L 370.862384 163.338987 
L 374.427173 161.241384 
L 377.709178 159.143781 
L 380.999753 157.046177 
L 384.230343 154.948574 
L 386.95535 152.85097 
L 389.671788 150.753367 
L 392.251118 148.655764 
L 393.827852 146.55816 
L 395.276048 144.460557 
L 396.535721 142.362954 
L 397.555456 140.26535 
L 398.558053 138.167747 
L 399.603496 136.070143 
L 400.563247 133.97254 
L 401.617259 131.874937 
L 402.57701 129.777333 
L 403.54533 127.67973 
L 404.376543 125.582127 
L 405.302017 123.484523 
L 405.901861 121.38692 
L 406.330321 119.289316 
L 406.595967 117.191713 
L 406.818766 115.09411 
L 406.99015 112.996506 
L 407.067273 110.898903 
L 407.110119 108.8013 
L 407.144396 106.703696 
L 407.161534 104.606093 
L 407.230088 102.508489 
L 407.238657 100.410886 
L 407.247226 98.313283 
L 407.272934 96.215679 
L 407.290072 94.118076 
L 407.307211 92.020473 
L 407.341488 89.922869 
" style="fill:none;stroke:#ffcc7b;stroke-dasharray:1.5,2.475;stroke-dashoffset:0;stroke-width:1.5;"/>
   </g>
   <g id="line2d_20">
    <path clip-path="url(#p28c8f137fb)" d="M 259.77124 295.488 
L 259.908738 293.390812 
L 260.149361 291.293625 
L 260.432951 289.196437 
L 260.673573 287.099249 
L 260.914196 285.002062 
L 261.249348 282.904874 
L 261.575907 280.807686 
L 262.022777 278.710499 
L 262.426679 276.613311 
L 262.847768 274.516123 
L 263.414949 272.418936 
L 264.222753 270.321748 
L 264.910246 268.22456 
L 265.769611 266.127373 
L 266.749288 264.030185 
L 267.617247 261.932997 
L 268.820359 259.83581 
L 269.885972 257.738622 
L 271.183614 255.641434 
L 272.739065 253.544247 
L 274.174206 251.447059 
L 276.039029 249.349871 
L 277.972601 247.252684 
L 279.70852 245.155496 
L 281.478813 243.058308 
L 283.403792 240.961121 
L 285.371739 238.863933 
L 287.356873 236.766745 
L 289.238884 234.669558 
L 291.215424 232.57237 
L 293.054466 230.475182 
L 295.125537 228.377995 
L 297.110672 226.280807 
L 299.078619 224.183619 
L 301.037972 222.086432 
L 303.074668 219.989244 
L 305.137146 217.892056 
L 307.225404 215.794869 
L 309.270694 213.697681 
L 311.410514 211.600493 
L 313.696426 209.503306 
L 315.982339 207.406118 
L 318.397156 205.30893 
L 320.665881 203.211743 
L 323.4846 201.114555 
L 325.856449 199.017367 
L 328.56345 196.92018 
L 331.347794 194.822992 
L 334.218075 192.725804 
L 337.595382 190.628617 
L 341.256279 188.531429 
L 345.492951 186.434241 
L 349.385877 184.337054 
L 353.175679 182.239866 
L 356.561579 180.142678 
L 359.904511 178.045491 
L 363.694313 175.948303 
L 366.788028 173.851115 
L 370.509081 171.753928 
L 374.023886 169.65674 
L 377.624628 167.559552 
L 380.890217 165.462365 
L 383.897996 163.365177 
L 386.622185 161.267989 
L 389.183094 159.170802 
L 391.236978 157.073614 
L 393.26508 154.976426 
L 395.035373 152.879239 
L 396.6252 150.782051 
L 397.828311 148.684863 
L 398.971267 146.587676 
L 399.959538 144.490488 
L 400.844684 142.3933 
L 401.678269 140.296113 
L 402.546228 138.198925 
L 403.560279 136.101737 
L 404.187616 134.00455 
L 404.754797 131.907362 
L 405.18448 129.810174 
L 405.571195 127.712987 
L 405.906347 125.615799 
L 406.232906 123.518611 
L 406.559465 121.421424 
L 406.774306 119.324236 
L 406.954773 117.227048 
L 407.118053 115.129861 
L 407.203989 113.032673 
L 407.246957 110.935485 
L 407.264145 108.838298 
L 407.272738 106.74111 
L 407.272738 104.643922 
L 407.272738 102.546735 
L 407.289926 100.449547 
L 407.315707 98.352359 
L 407.3243 96.255172 
L 407.332894 94.157984 
L 407.332894 92.060796 
L 407.341488 89.963609 
" style="fill:none;stroke:#e6a346;stroke-dasharray:5.55,2.4;stroke-dashoffset:0;stroke-width:1.5;"/>
   </g>
   <g id="line2d_21">
    <path clip-path="url(#p28c8f137fb)" d="M 259.923504 295.488 
L 260.341734 293.516358 
L 261.033421 291.544716 
L 261.89401 289.573075 
L 262.818941 287.601433 
L 263.719744 285.629791 
L 264.958348 283.658149 
L 266.148694 281.686507 
L 267.347084 279.714866 
L 268.53743 277.743224 
L 269.743863 275.771582 
L 270.596408 273.79994 
L 271.456996 271.828298 
L 272.389971 269.856657 
L 273.435545 267.885015 
L 274.545463 265.913373 
L 275.591038 263.941731 
L 276.821599 261.970089 
L 277.915431 259.998448 
L 279.129906 258.026806 
L 280.352424 256.055164 
L 281.695585 254.083522 
L 283.175475 252.11188 
L 284.558851 250.140239 
L 286.022656 248.168597 
L 287.325603 246.196955 
L 288.893965 244.225313 
L 290.438198 242.253671 
L 291.982431 240.28203 
L 293.526665 238.310388 
L 295.223713 236.338746 
L 296.759903 234.367104 
L 298.585637 232.395462 
L 300.523972 230.423821 
L 302.349706 228.452179 
L 303.974368 226.480537 
L 305.671416 224.508895 
L 307.505193 222.537253 
L 309.105727 220.565612 
L 310.883204 218.59397 
L 312.725024 216.622328 
L 314.671401 214.650686 
L 316.585607 212.679044 
L 318.499813 210.707403 
L 320.381848 208.735761 
L 322.328225 206.764119 
L 324.483717 204.792477 
L 326.631167 202.820835 
L 328.641887 200.849194 
L 330.845637 198.877552 
L 333.218287 196.90591 
L 335.566809 194.934268 
L 338.148574 192.962626 
L 340.497095 190.990985 
L 342.998432 189.019343 
L 345.668669 187.047701 
L 348.170005 185.076059 
L 351.097614 183.104417 
L 354.451496 181.132776 
L 357.499748 179.161134 
L 361.102959 177.189492 
L 364.295983 175.21785 
L 366.79732 173.246208 
L 369.250399 171.274567 
L 371.582834 169.302925 
L 374.108299 167.331283 
L 376.617678 165.359641 
L 378.917943 163.387999 
L 381.298636 161.416358 
L 383.389785 159.444716 
L 385.32812 157.473074 
L 387.266454 155.501432 
L 389.220874 153.52979 
L 390.845537 151.558149 
L 392.590842 149.586507 
L 394.384405 147.614865 
L 395.71148 145.643223 
L 396.925955 143.671581 
L 397.955444 141.69994 
L 398.880376 139.728298 
L 399.749007 137.756656 
L 400.585467 135.785014 
L 401.277155 133.813372 
L 401.920585 131.841731 
L 402.507716 129.870089 
L 402.893774 127.898447 
L 403.295918 125.926805 
L 403.673933 123.955163 
L 403.995649 121.983522 
L 404.44605 120.01188 
L 404.904494 118.040238 
L 405.467496 116.068596 
L 405.75704 114.096954 
L 406.086798 112.125313 
L 406.440685 110.153671 
L 406.778486 108.182029 
L 407.108244 106.210387 
L 407.228887 104.238745 
L 407.341488 102.267104 
" style="fill:none;stroke:#b45a28;stroke-dasharray:9.6,2.4,1.5,2.4;stroke-dashoffset:0;stroke-width:1.5;"/>
   </g>
   <g id="line2d_22">
    <path clip-path="url(#p28c8f137fb)" d="M 260.180137 295.488 
L 260.827674 293.019429 
L 261.347408 290.550857 
L 261.952344 288.082286 
L 262.506159 285.613714 
L 263.179257 283.145143 
L 264.201684 280.676571 
L 265.053707 278.208 
L 266.050573 275.739429 
L 267.038919 273.270857 
L 268.223231 270.802286 
L 269.629068 268.333714 
L 271.137148 265.865143 
L 272.960477 263.396571 
L 275.013851 260.928 
L 277.297272 258.459429 
L 279.188762 255.990857 
L 281.301778 253.522286 
L 283.321072 251.053714 
L 285.178481 248.585143 
L 287.121093 246.116571 
L 289.123346 243.648 
L 291.117079 241.179429 
L 293.076731 238.710857 
L 295.29199 236.242286 
L 297.302764 233.773714 
L 299.245375 231.305143 
L 301.349871 228.836571 
L 303.514009 226.368 
L 305.686666 223.899429 
L 307.893405 221.430857 
L 309.912699 218.962286 
L 312.315402 216.493714 
L 314.760707 214.025143 
L 316.967446 211.556571 
L 319.617237 209.088 
L 322.147744 206.619429 
L 324.874216 204.150857 
L 327.898897 201.682286 
L 331.05138 199.213714 
L 334.101621 196.745143 
L 337.697157 194.276571 
L 340.534392 191.808 
L 343.806159 189.339429 
L 347.052366 186.870857 
L 350.468976 184.402286 
L 354.430882 181.933714 
L 357.907134 179.465143 
L 361.187421 176.996571 
L 364.356945 174.528 
L 367.475348 172.059429 
L 370.866398 169.590857 
L 373.959241 167.122286 
L 377.094684 164.653714 
L 379.684833 162.185143 
L 381.82341 159.716571 
L 383.74046 157.248 
L 385.487107 154.779429 
L 386.909985 152.310857 
L 388.460666 149.842286 
L 389.840943 147.373714 
L 391.229739 144.905143 
L 392.482213 142.436571 
L 393.487599 139.968 
L 394.603749 137.499429 
L 395.728419 135.030857 
L 396.699725 132.562286 
L 397.713632 130.093714 
L 398.719018 127.625143 
L 399.562521 125.156571 
L 400.371942 122.688 
L 400.993919 120.219429 
L 401.42845 117.750857 
L 401.854462 115.282286 
L 402.254912 112.813714 
L 402.655363 110.345143 
L 402.979132 107.876571 
L 403.336981 105.408 
L 403.66075 102.939429 
L 404.001559 100.470857 
L 404.402009 98.002286 
L 404.725778 95.533714 
L 405.202911 93.065143 
L 405.569281 90.596571 
L 406.012332 88.128 
L 406.404263 85.659429 
L 406.864355 83.190857 
L 407.06032 80.722286 
L 407.188124 78.253714 
L 407.247765 75.785143 
L 407.298886 73.316571 
L 407.298886 70.848 
L 407.315927 68.379429 
L 407.315927 65.910857 
L 407.324447 63.442286 
L 407.332967 60.973714 
L 407.332967 58.505143 
L 407.341488 56.036571 
L 407.341488 53.568 
" style="fill:none;stroke:#7d1e0b;stroke-linecap:square;stroke-width:1.5;"/>
   </g>
   <g id="patch_8">
    <path d="M 252.392727 307.584 
L 252.392727 41.472 
" style="fill:none;stroke:#000000;stroke-linecap:square;stroke-linejoin:miter;stroke-width:0.8;"/>
   </g>
   <g id="patch_9">
    <path d="M 414.72 307.584 
L 414.72 41.472 
" style="fill:none;stroke:#000000;stroke-linecap:square;stroke-linejoin:miter;stroke-width:0.8;"/>
   </g>
   <g id="patch_10">
    <path d="M 252.392727 307.584 
L 414.72 307.584 
" style="fill:none;stroke:#000000;stroke-linecap:square;stroke-linejoin:miter;stroke-width:0.8;"/>
   </g>
   <g id="patch_11">
    <path d="M 252.392727 41.472 
L 414.72 41.472 
" style="fill:none;stroke:#000000;stroke-linecap:square;stroke-linejoin:miter;stroke-width:0.8;"/>
   </g>
   <g id="legend_1">
    <g id="patch_12">
     <path d="M 261.492727 126.479813 
L 345.81804 126.479813 
Q 348.41804 126.479813 348.41804 123.879813 
L 348.41804 50.572 
Q 348.41804 47.972 345.81804 47.972 
L 261.492727 47.972 
Q 258.892727 47.972 258.892727 50.572 
L 258.892727 123.879813 
Q 258.892727 126.479813 261.492727 126.479813 
z
" style="fill:#ffffff;opacity:0.8;stroke:#cccccc;stroke-linejoin:miter;"/>
    </g>
    <g id="line2d_23">
     <path d="M 264.092727 58.499969 
L 290.092727 58.499969 
" style="fill:none;stroke:#5a0003;stroke-linecap:square;stroke-width:3;"/>
    </g>
    <g id="line2d_24"/>
    <g id="text_16">
     <!-- TS -->
     <defs>
      <path d="M -0.296875 72.90625 
L 61.375 72.90625 
L 61.375 64.59375 
L 35.5 64.59375 
L 35.5 0 
L 25.59375 0 
L 25.59375 64.59375 
L -0.296875 64.59375 
z
" id="DejaVuSans-84"/>
      <path d="M 53.515625 70.515625 
L 53.515625 60.890625 
Q 47.90625 63.578125 42.921875 64.890625 
Q 37.9375 66.21875 33.296875 66.21875 
Q 25.25 66.21875 20.875 63.09375 
Q 16.5 59.96875 16.5 54.203125 
Q 16.5 49.359375 19.40625 46.890625 
Q 22.3125 44.4375 30.421875 42.921875 
L 36.375 41.703125 
Q 47.40625 39.59375 52.65625 34.296875 
Q 57.90625 29 57.90625 20.125 
Q 57.90625 9.515625 50.796875 4.046875 
Q 43.703125 -1.421875 29.984375 -1.421875 
Q 24.8125 -1.421875 18.96875 -0.25 
Q 13.140625 0.921875 6.890625 3.21875 
L 6.890625 13.375 
Q 12.890625 10.015625 18.65625 8.296875 
Q 24.421875 6.59375 29.984375 6.59375 
Q 38.421875 6.59375 43.015625 9.90625 
Q 47.609375 13.234375 47.609375 19.390625 
Q 47.609375 24.75 44.3125 27.78125 
Q 41.015625 30.8125 33.5 32.328125 
L 27.484375 33.5 
Q 16.453125 35.6875 11.515625 40.375 
Q 6.59375 45.0625 6.59375 53.421875 
Q 6.59375 63.09375 13.40625 68.65625 
Q 20.21875 74.21875 32.171875 74.21875 
Q 37.3125 74.21875 42.625 73.28125 
Q 47.953125 72.359375 53.515625 70.515625 
z
" id="DejaVuSans-83"/>
     </defs>
     <g transform="translate(300.492727 63.049969)scale(0.13 -0.13)">
      <use xlink:href="#DejaVuSans-84"/>
      <use x="61.083984" xlink:href="#DejaVuSans-83"/>
     </g>
    </g>
    <g id="line2d_25">
     <path d="M 264.092727 72.381531 
L 290.092727 72.381531 
" style="fill:none;stroke:#ffcc7b;stroke-dasharray:1.5,2.475;stroke-dashoffset:0;stroke-width:1.5;"/>
    </g>
    <g id="line2d_26"/>
    <g id="text_17">
     <!-- RB, n0 -->
     <defs>
      <path d="M 44.390625 34.1875 
Q 47.5625 33.109375 50.5625 29.59375 
Q 53.5625 26.078125 56.59375 19.921875 
L 66.609375 0 
L 56 0 
L 46.6875 18.703125 
Q 43.0625 26.03125 39.671875 28.421875 
Q 36.28125 30.8125 30.421875 30.8125 
L 19.671875 30.8125 
L 19.671875 0 
L 9.8125 0 
L 9.8125 72.90625 
L 32.078125 72.90625 
Q 44.578125 72.90625 50.734375 67.671875 
Q 56.890625 62.453125 56.890625 51.90625 
Q 56.890625 45.015625 53.6875 40.46875 
Q 50.484375 35.9375 44.390625 34.1875 
z
M 19.671875 64.796875 
L 19.671875 38.921875 
L 32.078125 38.921875 
Q 39.203125 38.921875 42.84375 42.21875 
Q 46.484375 45.515625 46.484375 51.90625 
Q 46.484375 58.296875 42.84375 61.546875 
Q 39.203125 64.796875 32.078125 64.796875 
z
" id="DejaVuSans-82"/>
      <path d="M 19.671875 34.8125 
L 19.671875 8.109375 
L 35.5 8.109375 
Q 43.453125 8.109375 47.28125 11.40625 
Q 51.125 14.703125 51.125 21.484375 
Q 51.125 28.328125 47.28125 31.5625 
Q 43.453125 34.8125 35.5 34.8125 
z
M 19.671875 64.796875 
L 19.671875 42.828125 
L 34.28125 42.828125 
Q 41.5 42.828125 45.03125 45.53125 
Q 48.578125 48.25 48.578125 53.8125 
Q 48.578125 59.328125 45.03125 62.0625 
Q 41.5 64.796875 34.28125 64.796875 
z
M 9.8125 72.90625 
L 35.015625 72.90625 
Q 46.296875 72.90625 52.390625 68.21875 
Q 58.5 63.53125 58.5 54.890625 
Q 58.5 48.1875 55.375 44.234375 
Q 52.25 40.28125 46.1875 39.3125 
Q 53.46875 37.75 57.5 32.78125 
Q 61.53125 27.828125 61.53125 20.40625 
Q 61.53125 10.640625 54.890625 5.3125 
Q 48.25 0 35.984375 0 
L 9.8125 0 
z
" id="DejaVuSans-66"/>
      <path d="M 11.71875 12.40625 
L 22.015625 12.40625 
L 22.015625 4 
L 14.015625 -11.625 
L 7.71875 -11.625 
L 11.71875 4 
z
" id="DejaVuSans-44"/>
      <path d="M 54.890625 33.015625 
L 54.890625 0 
L 45.90625 0 
L 45.90625 32.71875 
Q 45.90625 40.484375 42.875 44.328125 
Q 39.84375 48.1875 33.796875 48.1875 
Q 26.515625 48.1875 22.3125 43.546875 
Q 18.109375 38.921875 18.109375 30.90625 
L 18.109375 0 
L 9.078125 0 
L 9.078125 54.6875 
L 18.109375 54.6875 
L 18.109375 46.1875 
Q 21.34375 51.125 25.703125 53.5625 
Q 30.078125 56 35.796875 56 
Q 45.21875 56 50.046875 50.171875 
Q 54.890625 44.34375 54.890625 33.015625 
z
" id="DejaVuSans-110"/>
     </defs>
     <g transform="translate(300.492727 76.931531)scale(0.13 -0.13)">
      <use xlink:href="#DejaVuSans-82"/>
      <use x="69.482422" xlink:href="#DejaVuSans-66"/>
      <use x="138.085938" xlink:href="#DejaVuSans-44"/>
      <use x="169.873047" xlink:href="#DejaVuSans-32"/>
      <use x="201.660156" xlink:href="#DejaVuSans-110"/>
      <use x="265.039062" xlink:href="#DejaVuSans-48"/>
     </g>
    </g>
    <g id="line2d_27">
     <path d="M 264.092727 86.263094 
L 290.092727 86.263094 
" style="fill:none;stroke:#e6a346;stroke-dasharray:5.55,2.4;stroke-dashoffset:0;stroke-width:1.5;"/>
    </g>
    <g id="line2d_28"/>
    <g id="text_18">
     <!-- RB, s0 -->
     <g transform="translate(300.492727 90.813094)scale(0.13 -0.13)">
      <use xlink:href="#DejaVuSans-82"/>
      <use x="69.482422" xlink:href="#DejaVuSans-66"/>
      <use x="138.085938" xlink:href="#DejaVuSans-44"/>
      <use x="169.873047" xlink:href="#DejaVuSans-32"/>
      <use x="201.660156" xlink:href="#DejaVuSans-115"/>
      <use x="253.759766" xlink:href="#DejaVuSans-48"/>
     </g>
    </g>
    <g id="line2d_29">
     <path d="M 264.092727 100.144656 
L 290.092727 100.144656 
" style="fill:none;stroke:#b45a28;stroke-dasharray:9.6,2.4,1.5,2.4;stroke-dashoffset:0;stroke-width:1.5;"/>
    </g>
    <g id="line2d_30"/>
    <g id="text_19">
     <!-- RB, s1 -->
     <g transform="translate(300.492727 104.694656)scale(0.13 -0.13)">
      <use xlink:href="#DejaVuSans-82"/>
      <use x="69.482422" xlink:href="#DejaVuSans-66"/>
      <use x="138.085938" xlink:href="#DejaVuSans-44"/>
      <use x="169.873047" xlink:href="#DejaVuSans-32"/>
      <use x="201.660156" xlink:href="#DejaVuSans-115"/>
      <use x="253.759766" xlink:href="#DejaVuSans-49"/>
     </g>
    </g>
    <g id="line2d_31">
     <path d="M 264.092727 114.026219 
L 290.092727 114.026219 
" style="fill:none;stroke:#7d1e0b;stroke-linecap:square;stroke-width:1.5;"/>
    </g>
    <g id="line2d_32"/>
    <g id="text_20">
     <!-- RB, s2 -->
     <g transform="translate(300.492727 118.576219)scale(0.13 -0.13)">
      <use xlink:href="#DejaVuSans-82"/>
      <use x="69.482422" xlink:href="#DejaVuSans-66"/>
      <use x="138.085938" xlink:href="#DejaVuSans-44"/>
      <use x="169.873047" xlink:href="#DejaVuSans-32"/>
      <use x="201.660156" xlink:href="#DejaVuSans-115"/>
      <use x="253.759766" xlink:href="#DejaVuSans-50"/>
     </g>
    </g>
   </g>
  </g>
 </g>
 <defs>
  <clipPath id="pa353c75b19">
   <rect height="266.112" width="162.327273" x="57.6" y="41.472"/>
  </clipPath>
  <clipPath id="p28c8f137fb">
   <rect height="266.112" width="162.327273" x="252.392727" y="41.472"/>
  </clipPath>
 </defs>
</svg>
