<?xml version="1.0" encoding="utf-8" standalone="no"?>
<!DOCTYPE svg PUBLIC "-//W3C//DTD SVG 1.1//EN"
  "http://www.w3.org/Graphics/SVG/1.1/DTD/svg11.dtd">
<!-- Created with matplotlib (https://matplotlib.org/) -->
<svg height="345.6pt" version="1.1" viewBox="0 0 460.8 345.6" width="460.8pt" xmlns="http://www.w3.org/2000/svg" xmlns:xlink="http://www.w3.org/1999/xlink">
 <defs>
  <style type="text/css">
*{stroke-linecap:butt;stroke-linejoin:round;}
  </style>
 </defs>
 <g id="figure_1">
  <g id="patch_1">
   <path d="M 0 345.6 
L 460.8 345.6 
L 460.8 0 
L 0 0 
z
" style="fill:#ffffff;"/>
  </g>
  <g id="axes_1">
   <g id="patch_2">
    <path d="M 57.6 307.584 
L 219.927273 307.584 
L 219.927273 41.472 
L 57.6 41.472 
z
" style="fill:#ffffff;"/>
   </g>
   <g id="matplotlib.axis_1">
    <g id="xtick_1">
     <g id="line2d_1">
      <defs>
       <path d="M 0 0 
L 0 3.5 
" id="m0f70dac29c" style="stroke:#000000;stroke-width:0.8;"/>
      </defs>
      <g>
       <use style="stroke:#000000;stroke-width:0.8;" x="213.536911" xlink:href="#m0f70dac29c" y="307.584"/>
      </g>
     </g>
     <g id="text_1">
      <!-- 0.0 -->
      <defs>
       <path d="M 31.78125 66.40625 
Q 24.171875 66.40625 20.328125 58.90625 
Q 16.5 51.421875 16.5 36.375 
Q 16.5 21.390625 20.328125 13.890625 
Q 24.171875 6.390625 31.78125 6.390625 
Q 39.453125 6.390625 43.28125 13.890625 
Q 47.125 21.390625 47.125 36.375 
Q 47.125 51.421875 43.28125 58.90625 
Q 39.453125 66.40625 31.78125 66.40625 
z
M 31.78125 74.21875 
Q 44.046875 74.21875 50.515625 64.515625 
Q 56.984375 54.828125 56.984375 36.375 
Q 56.984375 17.96875 50.515625 8.265625 
Q 44.046875 -1.421875 31.78125 -1.421875 
Q 19.53125 -1.421875 13.0625 8.265625 
Q 6.59375 17.96875 6.59375 36.375 
Q 6.59375 54.828125 13.0625 64.515625 
Q 19.53125 74.21875 31.78125 74.21875 
z
" id="DejaVuSans-48"/>
       <path d="M 10.6875 12.40625 
L 21 12.40625 
L 21 0 
L 10.6875 0 
z
" id="DejaVuSans-46"/>
      </defs>
      <g transform="translate(201.609567 325.981656)scale(0.15 -0.15)">
       <use xlink:href="#DejaVuSans-48"/>
       <use x="63.623047" xlink:href="#DejaVuSans-46"/>
       <use x="95.410156" xlink:href="#DejaVuSans-48"/>
      </g>
     </g>
    </g>
    <g id="xtick_2">
     <g id="line2d_2">
      <g>
       <use style="stroke:#000000;stroke-width:0.8;" x="173.469416" xlink:href="#m0f70dac29c" y="307.584"/>
      </g>
     </g>
     <g id="text_2">
      <!-- 0.5 -->
      <defs>
       <path d="M 10.796875 72.90625 
L 49.515625 72.90625 
L 49.515625 64.59375 
L 19.828125 64.59375 
L 19.828125 46.734375 
Q 21.96875 47.46875 24.109375 47.828125 
Q 26.265625 48.1875 28.421875 48.1875 
Q 40.625 48.1875 47.75 41.5 
Q 54.890625 34.8125 54.890625 23.390625 
Q 54.890625 11.625 47.5625 5.09375 
Q 40.234375 -1.421875 26.90625 -1.421875 
Q 22.3125 -1.421875 17.546875 -0.640625 
Q 12.796875 0.140625 7.71875 1.703125 
L 7.71875 11.625 
Q 12.109375 9.234375 16.796875 8.0625 
Q 21.484375 6.890625 26.703125 6.890625 
Q 35.15625 6.890625 40.078125 11.328125 
Q 45.015625 15.765625 45.015625 23.390625 
Q 45.015625 31 40.078125 35.4375 
Q 35.15625 39.890625 26.703125 39.890625 
Q 22.75 39.890625 18.8125 39.015625 
Q 14.890625 38.140625 10.796875 36.28125 
z
" id="DejaVuSans-53"/>
      </defs>
      <g transform="translate(161.542072 325.981656)scale(0.15 -0.15)">
       <use xlink:href="#DejaVuSans-48"/>
       <use x="63.623047" xlink:href="#DejaVuSans-46"/>
       <use x="95.410156" xlink:href="#DejaVuSans-53"/>
      </g>
     </g>
    </g>
    <g id="xtick_3">
     <g id="line2d_3">
      <g>
       <use style="stroke:#000000;stroke-width:0.8;" x="133.401921" xlink:href="#m0f70dac29c" y="307.584"/>
      </g>
     </g>
     <g id="text_3">
      <!-- 1.0 -->
      <defs>
       <path d="M 12.40625 8.296875 
L 28.515625 8.296875 
L 28.515625 63.921875 
L 10.984375 60.40625 
L 10.984375 69.390625 
L 28.421875 72.90625 
L 38.28125 72.90625 
L 38.28125 8.296875 
L 54.390625 8.296875 
L 54.390625 0 
L 12.40625 0 
z
" id="DejaVuSans-49"/>
      </defs>
      <g transform="translate(121.474577 325.981656)scale(0.15 -0.15)">
       <use xlink:href="#DejaVuSans-49"/>
       <use x="63.623047" xlink:href="#DejaVuSans-46"/>
       <use x="95.410156" xlink:href="#DejaVuSans-48"/>
      </g>
     </g>
    </g>
    <g id="xtick_4">
     <g id="line2d_4">
      <g>
       <use style="stroke:#000000;stroke-width:0.8;" x="93.334426" xlink:href="#m0f70dac29c" y="307.584"/>
      </g>
     </g>
     <g id="text_4">
      <!-- 1.5 -->
      <g transform="translate(81.407082 325.981656)scale(0.15 -0.15)">
       <use xlink:href="#DejaVuSans-49"/>
       <use x="63.623047" xlink:href="#DejaVuSans-46"/>
       <use x="95.410156" xlink:href="#DejaVuSans-53"/>
      </g>
     </g>
    </g>
    <g id="text_5">
     <!-- PDF -->
     <defs>
      <path d="M 19.671875 64.796875 
L 19.671875 37.40625 
L 32.078125 37.40625 
Q 38.96875 37.40625 42.71875 40.96875 
Q 46.484375 44.53125 46.484375 51.125 
Q 46.484375 57.671875 42.71875 61.234375 
Q 38.96875 64.796875 32.078125 64.796875 
z
M 9.8125 72.90625 
L 32.078125 72.90625 
Q 44.34375 72.90625 50.609375 67.359375 
Q 56.890625 61.8125 56.890625 51.125 
Q 56.890625 40.328125 50.609375 34.8125 
Q 44.34375 29.296875 32.078125 29.296875 
L 19.671875 29.296875 
L 19.671875 0 
L 9.8125 0 
z
" id="DejaVuSans-80"/>
      <path d="M 19.671875 64.796875 
L 19.671875 8.109375 
L 31.59375 8.109375 
Q 46.6875 8.109375 53.6875 14.9375 
Q 60.6875 21.78125 60.6875 36.53125 
Q 60.6875 51.171875 53.6875 57.984375 
Q 46.6875 64.796875 31.59375 64.796875 
z
M 9.8125 72.90625 
L 30.078125 72.90625 
Q 51.265625 72.90625 61.171875 64.09375 
Q 71.09375 55.28125 71.09375 36.53125 
Q 71.09375 17.671875 61.125 8.828125 
Q 51.171875 0 30.078125 0 
L 9.8125 0 
z
" id="DejaVuSans-68"/>
      <path d="M 9.8125 72.90625 
L 51.703125 72.90625 
L 51.703125 64.59375 
L 19.671875 64.59375 
L 19.671875 43.109375 
L 48.578125 43.109375 
L 48.578125 34.8125 
L 19.671875 34.8125 
L 19.671875 0 
L 9.8125 0 
z
" id="DejaVuSans-70"/>
     </defs>
     <g transform="translate(122.204574 346.018531)scale(0.17 -0.17)">
      <use xlink:href="#DejaVuSans-80"/>
      <use x="60.302734" xlink:href="#DejaVuSans-68"/>
      <use x="137.304688" xlink:href="#DejaVuSans-70"/>
     </g>
    </g>
   </g>
   <g id="matplotlib.axis_2">
    <g id="ytick_1">
     <g id="line2d_5">
      <defs>
       <path d="M 0 0 
L -3.5 0 
" id="m191ed07740" style="stroke:#000000;stroke-width:0.8;"/>
      </defs>
      <g>
       <use style="stroke:#000000;stroke-width:0.8;" x="57.6" xlink:href="#m191ed07740" y="53.568"/>
      </g>
     </g>
     <g id="text_6">
      <!-- 0.00 -->
      <g transform="translate(17.201563 59.266828)scale(0.15 -0.15)">
       <use xlink:href="#DejaVuSans-48"/>
       <use x="63.623047" xlink:href="#DejaVuSans-46"/>
       <use x="95.410156" xlink:href="#DejaVuSans-48"/>
       <use x="159.033203" xlink:href="#DejaVuSans-48"/>
      </g>
     </g>
    </g>
    <g id="ytick_2">
     <g id="line2d_6">
      <g>
       <use style="stroke:#000000;stroke-width:0.8;" x="57.6" xlink:href="#m191ed07740" y="83.689749"/>
      </g>
     </g>
     <g id="text_7">
      <!-- 0.25 -->
      <defs>
       <path d="M 19.1875 8.296875 
L 53.609375 8.296875 
L 53.609375 0 
L 7.328125 0 
L 7.328125 8.296875 
Q 12.9375 14.109375 22.625 23.890625 
Q 32.328125 33.6875 34.8125 36.53125 
Q 39.546875 41.84375 41.421875 45.53125 
Q 43.3125 49.21875 43.3125 52.78125 
Q 43.3125 58.59375 39.234375 62.25 
Q 35.15625 65.921875 28.609375 65.921875 
Q 23.96875 65.921875 18.8125 64.3125 
Q 13.671875 62.703125 7.8125 59.421875 
L 7.8125 69.390625 
Q 13.765625 71.78125 18.9375 73 
Q 24.125 74.21875 28.421875 74.21875 
Q 39.75 74.21875 46.484375 68.546875 
Q 53.21875 62.890625 53.21875 53.421875 
Q 53.21875 48.921875 51.53125 44.890625 
Q 49.859375 40.875 45.40625 35.40625 
Q 44.1875 33.984375 37.640625 27.21875 
Q 31.109375 20.453125 19.1875 8.296875 
z
" id="DejaVuSans-50"/>
      </defs>
      <g transform="translate(17.201563 89.388577)scale(0.15 -0.15)">
       <use xlink:href="#DejaVuSans-48"/>
       <use x="63.623047" xlink:href="#DejaVuSans-46"/>
       <use x="95.410156" xlink:href="#DejaVuSans-50"/>
       <use x="159.033203" xlink:href="#DejaVuSans-53"/>
      </g>
     </g>
    </g>
    <g id="ytick_3">
     <g id="line2d_7">
      <g>
       <use style="stroke:#000000;stroke-width:0.8;" x="57.6" xlink:href="#m191ed07740" y="113.811497"/>
      </g>
     </g>
     <g id="text_8">
      <!-- 0.50 -->
      <g transform="translate(17.201563 119.510325)scale(0.15 -0.15)">
       <use xlink:href="#DejaVuSans-48"/>
       <use x="63.623047" xlink:href="#DejaVuSans-46"/>
       <use x="95.410156" xlink:href="#DejaVuSans-53"/>
       <use x="159.033203" xlink:href="#DejaVuSans-48"/>
      </g>
     </g>
    </g>
    <g id="ytick_4">
     <g id="line2d_8">
      <g>
       <use style="stroke:#000000;stroke-width:0.8;" x="57.6" xlink:href="#m191ed07740" y="143.933246"/>
      </g>
     </g>
     <g id="text_9">
      <!-- 0.75 -->
      <defs>
       <path d="M 8.203125 72.90625 
L 55.078125 72.90625 
L 55.078125 68.703125 
L 28.609375 0 
L 18.3125 0 
L 43.21875 64.59375 
L 8.203125 64.59375 
z
" id="DejaVuSans-55"/>
      </defs>
      <g transform="translate(17.201563 149.632074)scale(0.15 -0.15)">
       <use xlink:href="#DejaVuSans-48"/>
       <use x="63.623047" xlink:href="#DejaVuSans-46"/>
       <use x="95.410156" xlink:href="#DejaVuSans-55"/>
       <use x="159.033203" xlink:href="#DejaVuSans-53"/>
      </g>
     </g>
    </g>
    <g id="ytick_5">
     <g id="line2d_9">
      <g>
       <use style="stroke:#000000;stroke-width:0.8;" x="57.6" xlink:href="#m191ed07740" y="174.054994"/>
      </g>
     </g>
     <g id="text_10">
      <!-- 1.00 -->
      <g transform="translate(17.201563 179.753823)scale(0.15 -0.15)">
       <use xlink:href="#DejaVuSans-49"/>
       <use x="63.623047" xlink:href="#DejaVuSans-46"/>
       <use x="95.410156" xlink:href="#DejaVuSans-48"/>
       <use x="159.033203" xlink:href="#DejaVuSans-48"/>
      </g>
     </g>
    </g>
    <g id="ytick_6">
     <g id="line2d_10">
      <g>
       <use style="stroke:#000000;stroke-width:0.8;" x="57.6" xlink:href="#m191ed07740" y="204.176743"/>
      </g>
     </g>
     <g id="text_11">
      <!-- 1.25 -->
      <g transform="translate(17.201563 209.875571)scale(0.15 -0.15)">
       <use xlink:href="#DejaVuSans-49"/>
       <use x="63.623047" xlink:href="#DejaVuSans-46"/>
       <use x="95.410156" xlink:href="#DejaVuSans-50"/>
       <use x="159.033203" xlink:href="#DejaVuSans-53"/>
      </g>
     </g>
    </g>
    <g id="ytick_7">
     <g id="line2d_11">
      <g>
       <use style="stroke:#000000;stroke-width:0.8;" x="57.6" xlink:href="#m191ed07740" y="234.298492"/>
      </g>
     </g>
     <g id="text_12">
      <!-- 1.50 -->
      <g transform="translate(17.201563 239.99732)scale(0.15 -0.15)">
       <use xlink:href="#DejaVuSans-49"/>
       <use x="63.623047" xlink:href="#DejaVuSans-46"/>
       <use x="95.410156" xlink:href="#DejaVuSans-53"/>
       <use x="159.033203" xlink:href="#DejaVuSans-48"/>
      </g>
     </g>
    </g>
    <g id="ytick_8">
     <g id="line2d_12">
      <g>
       <use style="stroke:#000000;stroke-width:0.8;" x="57.6" xlink:href="#m191ed07740" y="264.42024"/>
      </g>
     </g>
     <g id="text_13">
      <!-- 1.75 -->
      <g transform="translate(17.201563 270.119068)scale(0.15 -0.15)">
       <use xlink:href="#DejaVuSans-49"/>
       <use x="63.623047" xlink:href="#DejaVuSans-46"/>
       <use x="95.410156" xlink:href="#DejaVuSans-55"/>
       <use x="159.033203" xlink:href="#DejaVuSans-53"/>
      </g>
     </g>
    </g>
    <g id="ytick_9">
     <g id="line2d_13">
      <g>
       <use style="stroke:#000000;stroke-width:0.8;" x="57.6" xlink:href="#m191ed07740" y="294.541989"/>
      </g>
     </g>
     <g id="text_14">
      <!-- 2.00 -->
      <g transform="translate(17.201563 300.240817)scale(0.15 -0.15)">
       <use xlink:href="#DejaVuSans-50"/>
       <use x="63.623047" xlink:href="#DejaVuSans-46"/>
       <use x="95.410156" xlink:href="#DejaVuSans-48"/>
       <use x="159.033203" xlink:href="#DejaVuSans-48"/>
      </g>
     </g>
    </g>
    <g id="text_15">
     <!-- Depth (m) -->
     <defs>
      <path d="M 56.203125 29.59375 
L 56.203125 25.203125 
L 14.890625 25.203125 
Q 15.484375 15.921875 20.484375 11.0625 
Q 25.484375 6.203125 34.421875 6.203125 
Q 39.59375 6.203125 44.453125 7.46875 
Q 49.3125 8.734375 54.109375 11.28125 
L 54.109375 2.78125 
Q 49.265625 0.734375 44.1875 -0.34375 
Q 39.109375 -1.421875 33.890625 -1.421875 
Q 20.796875 -1.421875 13.15625 6.1875 
Q 5.515625 13.8125 5.515625 26.8125 
Q 5.515625 40.234375 12.765625 48.109375 
Q 20.015625 56 32.328125 56 
Q 43.359375 56 49.78125 48.890625 
Q 56.203125 41.796875 56.203125 29.59375 
z
M 47.21875 32.234375 
Q 47.125 39.59375 43.09375 43.984375 
Q 39.0625 48.390625 32.421875 48.390625 
Q 24.90625 48.390625 20.390625 44.140625 
Q 15.875 39.890625 15.1875 32.171875 
z
" id="DejaVuSans-101"/>
      <path d="M 18.109375 8.203125 
L 18.109375 -20.796875 
L 9.078125 -20.796875 
L 9.078125 54.6875 
L 18.109375 54.6875 
L 18.109375 46.390625 
Q 20.953125 51.265625 25.265625 53.625 
Q 29.59375 56 35.59375 56 
Q 45.5625 56 51.78125 48.09375 
Q 58.015625 40.1875 58.015625 27.296875 
Q 58.015625 14.40625 51.78125 6.484375 
Q 45.5625 -1.421875 35.59375 -1.421875 
Q 29.59375 -1.421875 25.265625 0.953125 
Q 20.953125 3.328125 18.109375 8.203125 
z
M 48.6875 27.296875 
Q 48.6875 37.203125 44.609375 42.84375 
Q 40.53125 48.484375 33.40625 48.484375 
Q 26.265625 48.484375 22.1875 42.84375 
Q 18.109375 37.203125 18.109375 27.296875 
Q 18.109375 17.390625 22.1875 11.75 
Q 26.265625 6.109375 33.40625 6.109375 
Q 40.53125 6.109375 44.609375 11.75 
Q 48.6875 17.390625 48.6875 27.296875 
z
" id="DejaVuSans-112"/>
      <path d="M 18.3125 70.21875 
L 18.3125 54.6875 
L 36.8125 54.6875 
L 36.8125 47.703125 
L 18.3125 47.703125 
L 18.3125 18.015625 
Q 18.3125 11.328125 20.140625 9.421875 
Q 21.96875 7.515625 27.59375 7.515625 
L 36.8125 7.515625 
L 36.8125 0 
L 27.59375 0 
Q 17.1875 0 13.234375 3.875 
Q 9.28125 7.765625 9.28125 18.015625 
L 9.28125 47.703125 
L 2.6875 47.703125 
L 2.6875 54.6875 
L 9.28125 54.6875 
L 9.28125 70.21875 
z
" id="DejaVuSans-116"/>
      <path d="M 54.890625 33.015625 
L 54.890625 0 
L 45.90625 0 
L 45.90625 32.71875 
Q 45.90625 40.484375 42.875 44.328125 
Q 39.84375 48.1875 33.796875 48.1875 
Q 26.515625 48.1875 22.3125 43.546875 
Q 18.109375 38.921875 18.109375 30.90625 
L 18.109375 0 
L 9.078125 0 
L 9.078125 75.984375 
L 18.109375 75.984375 
L 18.109375 46.1875 
Q 21.34375 51.125 25.703125 53.5625 
Q 30.078125 56 35.796875 56 
Q 45.21875 56 50.046875 50.171875 
Q 54.890625 44.34375 54.890625 33.015625 
z
" id="DejaVuSans-104"/>
      <path id="DejaVuSans-32"/>
      <path d="M 31 75.875 
Q 24.46875 64.65625 21.28125 53.65625 
Q 18.109375 42.671875 18.109375 31.390625 
Q 18.109375 20.125 21.3125 9.0625 
Q 24.515625 -2 31 -13.1875 
L 23.1875 -13.1875 
Q 15.875 -1.703125 12.234375 9.375 
Q 8.59375 20.453125 8.59375 31.390625 
Q 8.59375 42.28125 12.203125 53.3125 
Q 15.828125 64.359375 23.1875 75.875 
z
" id="DejaVuSans-40"/>
      <path d="M 52 44.1875 
Q 55.375 50.25 60.0625 53.125 
Q 64.75 56 71.09375 56 
Q 79.640625 56 84.28125 50.015625 
Q 88.921875 44.046875 88.921875 33.015625 
L 88.921875 0 
L 79.890625 0 
L 79.890625 32.71875 
Q 79.890625 40.578125 77.09375 44.375 
Q 74.3125 48.1875 68.609375 48.1875 
Q 61.625 48.1875 57.5625 43.546875 
Q 53.515625 38.921875 53.515625 30.90625 
L 53.515625 0 
L 44.484375 0 
L 44.484375 32.71875 
Q 44.484375 40.625 41.703125 44.40625 
Q 38.921875 48.1875 33.109375 48.1875 
Q 26.21875 48.1875 22.15625 43.53125 
Q 18.109375 38.875 18.109375 30.90625 
L 18.109375 0 
L 9.078125 0 
L 9.078125 54.6875 
L 18.109375 54.6875 
L 18.109375 46.1875 
Q 21.1875 51.21875 25.484375 53.609375 
Q 29.78125 56 35.6875 56 
Q 41.65625 56 45.828125 52.96875 
Q 50 49.953125 52 44.1875 
z
" id="DejaVuSans-109"/>
      <path d="M 8.015625 75.875 
L 15.828125 75.875 
Q 23.140625 64.359375 26.78125 53.3125 
Q 30.421875 42.28125 30.421875 31.390625 
Q 30.421875 20.453125 26.78125 9.375 
Q 23.140625 -1.703125 15.828125 -13.1875 
L 8.015625 -13.1875 
Q 14.5 -2 17.703125 9.0625 
Q 20.90625 20.125 20.90625 31.390625 
Q 20.90625 42.671875 17.703125 53.65625 
Q 14.5 64.65625 8.015625 75.875 
z
" id="DejaVuSans-41"/>
     </defs>
     <g transform="translate(9.666094 218.032062)rotate(-90)scale(0.17 -0.17)">
      <use xlink:href="#DejaVuSans-68"/>
      <use x="77.001953" xlink:href="#DejaVuSans-101"/>
      <use x="138.525391" xlink:href="#DejaVuSans-112"/>
      <use x="202.001953" xlink:href="#DejaVuSans-116"/>
      <use x="241.210938" xlink:href="#DejaVuSans-104"/>
      <use x="304.589844" xlink:href="#DejaVuSans-32"/>
      <use x="336.376953" xlink:href="#DejaVuSans-40"/>
      <use x="375.390625" xlink:href="#DejaVuSans-109"/>
      <use x="472.802734" xlink:href="#DejaVuSans-41"/>
     </g>
    </g>
   </g>
   <g id="line2d_14">
    <path clip-path="url(#pa173bbf231)" d="M 189.327227 53.568 
L 193.773903 55.976629 
L 192.950445 58.385259 
L 192.45637 60.793888 
L 191.962294 63.202518 
L 192.126986 65.611147 
L 189.985994 68.019777 
L 193.44452 70.428406 
L 193.44452 72.837036 
L 189.985994 75.245665 
L 192.785753 77.654295 
L 192.126986 80.062924 
L 192.621061 82.471554 
L 194.267979 84.880183 
L 192.950445 87.288813 
L 193.279828 89.697442 
L 193.115136 92.106072 
L 191.303527 94.514701 
L 193.609212 96.92333 
L 194.43267 99.33196 
L 194.267979 101.740589 
L 193.609212 104.149219 
L 191.797603 106.557848 
L 193.938595 108.966478 
L 195.750204 111.375107 
L 192.950445 113.783737 
L 192.45637 116.192366 
L 192.621061 118.600996 
L 190.150685 121.009625 
L 191.632911 123.418255 
L 191.632911 125.826884 
L 191.468219 128.235514 
L 191.797603 130.644143 
L 184.551167 133.052773 
L 182.739558 135.461402 
L 181.09264 137.870032 
L 180.433873 140.278661 
L 185.539317 142.68729 
L 176.481272 145.09592 
L 176.810655 147.504549 
L 173.022746 149.913179 
L 160.670866 152.321808 
L 145.189844 154.730438 
L 145.683919 157.139067 
L 132.014505 159.547697 
L 139.425633 161.956326 
L 145.683919 164.364956 
L 151.283437 166.773585 
L 143.378235 169.182215 
L 145.683919 171.590844 
L 142.060701 173.999474 
L 143.378235 176.408103 
L 148.977753 178.816733 
L 151.448129 181.225362 
L 142.554776 183.633991 
L 135.802415 186.042621 
L 131.52043 188.45125 
L 100.393693 190.85988 
L 104.510987 193.268509 
L 111.263348 195.677139 
L 110.439889 198.085768 
L 111.922114 200.494398 
L 105.993212 202.903027 
L 116.204099 205.311657 
L 133.661423 207.720286 
L 143.213543 210.128916 
L 154.083197 212.537545 
L 150.624671 214.946175 
L 161.659016 217.354804 
L 160.341483 219.763434 
L 173.022746 222.172063 
L 174.999046 224.580692 
L 175.493122 226.989322 
L 174.010896 229.397951 
L 169.564219 231.806581 
L 171.375828 234.21521 
L 171.54052 236.62384 
L 168.081994 239.032469 
L 171.869903 241.441099 
L 170.55237 243.849728 
L 173.022746 246.258358 
L 170.881753 248.666987 
L 169.070144 251.075617 
L 174.010896 253.484246 
L 181.916099 255.892876 
L 181.586715 258.301505 
L 182.574866 260.710135 
L 186.856851 263.118764 
L 185.8687 265.527394 
L 189.491918 267.936023 
L 187.680309 270.344652 
L 192.785753 272.753282 
L 205.796399 275.161911 
L 208.431467 277.570541 
L 208.760851 279.97917 
L 211.395918 282.3878 
L 212.219377 284.796429 
L 212.54876 287.205059 
L 212.384069 289.613688 
" style="fill:none;stroke:#000000;stroke-linecap:square;stroke-width:3;"/>
   </g>
   <g id="line2d_15">
    <path clip-path="url(#pa173bbf231)" d="M 183.786844 53.568 
L 190.312665 55.587203 
L 201.061076 57.606407 
L 195.494935 59.62561 
L 195.111063 61.644814 
L 193.38364 63.664017 
L 191.656216 65.683221 
L 194.151383 67.702424 
L 190.312665 69.721628 
L 191.080409 71.740831 
L 194.343319 73.760035 
L 192.232024 75.779238 
L 192.040088 77.798441 
L 188.777178 79.817645 
L 190.504601 81.836848 
L 189.544921 83.856052 
L 188.393306 85.875255 
L 185.706203 87.894459 
L 187.433626 89.913662 
L 188.393306 91.932866 
L 189.352985 93.952069 
L 186.473947 95.971273 
L 186.857818 97.990476 
L 186.282011 100.009679 
L 174.190048 102.028883 
L 180.523933 104.048086 
L 188.009434 106.06729 
L 182.251357 108.086493 
L 187.817498 110.105697 
L 186.473947 112.1249 
L 177.83683 114.144104 
L 174.381984 116.163307 
L 181.483613 118.182511 
L 178.028766 120.201714 
L 183.97878 122.220918 
L 186.473947 124.240121 
L 178.988446 126.259324 
L 169.775522 128.278528 
L 182.251357 130.297731 
L 178.604574 132.316935 
L 178.412638 134.336138 
L 179.948126 136.355342 
L 179.75619 138.374545 
L 169.775522 140.393749 
L 179.180382 142.412952 
L 178.604574 144.432156 
L 175.341664 146.451359 
L 177.644895 148.470562 
L 171.886817 150.489766 
L 170.35133 152.508969 
L 178.412638 154.528173 
L 173.806176 156.547376 
L 177.069087 158.56658 
L 170.927138 160.585783 
L 166.320676 162.604987 
L 177.644895 164.62419 
L 169.967458 166.643394 
L 175.149728 168.662597 
L 166.320676 170.6818 
L 165.360996 172.701004 
L 175.341664 174.720207 
L 168.623907 176.739411 
L 167.280355 178.758614 
L 165.16906 180.777818 
L 164.401316 182.797021 
L 167.280355 184.816225 
L 167.664227 186.835428 
L 164.593252 188.854632 
L 159.602919 190.873835 
L 164.017445 192.893038 
L 162.098085 194.912242 
L 159.98679 196.931445 
L 155.956136 198.950649 
L 157.299688 200.969852 
L 158.643239 202.989056 
L 154.612585 205.008259 
L 151.54161 207.027463 
L 151.733546 209.046666 
L 150.965802 211.06587 
L 141.177071 213.085073 
L 147.127084 215.104276 
L 143.09643 217.12348 
L 132.539955 219.142683 
L 135.802865 221.161887 
L 130.236724 223.18109 
L 119.680248 225.200294 
L 117.185081 227.219497 
L 98.951169 229.238701 
L 82.828553 231.257904 
L 64.978512 233.277108 
L 69.393038 235.296311 
L 87.62695 237.315514 
L 82.828553 239.334718 
L 97.223746 241.353921 
L 108.931837 243.373125 
L 122.367351 245.392328 
L 138.489968 247.411532 
L 155.188393 249.430735 
L 170.35133 251.449939 
" style="fill:none;stroke:#a2eb7f;stroke-dasharray:1.5,2.475;stroke-dashoffset:0;stroke-width:1.5;"/>
   </g>
   <g id="line2d_16">
    <path clip-path="url(#pa173bbf231)" d="M 185.673756 53.568 
L 183.459466 55.683251 
L 193.239248 57.798503 
L 196.929733 59.913754 
L 191.763055 62.029006 
L 194.346394 64.144257 
L 193.423773 66.259508 
L 189.179716 68.37476 
L 188.072571 70.490011 
L 190.102337 72.605263 
L 189.733289 74.720514 
L 190.102337 76.835765 
L 192.132103 78.951017 
L 191.024958 81.066268 
L 183.64399 83.18152 
L 183.090417 85.296771 
L 184.013038 87.412022 
L 185.85828 89.527274 
L 185.85828 91.642525 
L 188.810668 93.757777 
L 187.14995 95.873028 
L 185.120184 97.988279 
L 181.245175 100.103531 
L 178.846361 102.218782 
L 181.983272 104.334034 
L 183.459466 106.449285 
L 185.304708 108.564536 
L 184.566611 110.679788 
L 180.507079 112.795039 
L 179.953506 114.910291 
L 179.768982 117.025542 
L 179.399933 119.140794 
L 181.614224 121.256045 
L 178.477312 123.371296 
L 179.030885 125.486548 
L 179.215409 127.601799 
L 177.739216 129.717051 
L 177.185643 131.832302 
L 171.834441 133.947553 
L 172.018965 136.062805 
L 177.92374 138.178056 
L 178.108264 140.293308 
L 172.941586 142.408559 
L 177.739216 144.52381 
L 171.834441 146.639062 
L 175.709449 148.754313 
L 175.340401 150.869565 
L 175.524925 152.984816 
L 171.465393 155.100067 
L 179.030885 157.215319 
L 169.989199 159.33057 
L 175.155877 161.445822 
L 173.864207 163.561073 
L 173.864207 165.676324 
L 167.036812 167.791576 
L 170.727296 169.906827 
L 165.929667 172.022079 
L 169.804675 174.13733 
L 166.298715 176.252581 
L 162.423707 178.367833 
L 167.590384 180.483084 
L 158.17965 182.598336 
L 166.852288 184.713587 
L 156.149884 186.828838 
L 159.840368 188.94409 
L 161.316562 191.059341 
L 156.334408 193.174593 
L 149.322488 195.289844 
L 153.382021 197.405095 
L 146.73915 199.520347 
L 147.108198 201.635598 
L 152.643924 203.75085 
L 142.864141 205.866101 
L 137.328415 207.981352 
L 149.322488 210.096604 
L 135.667697 212.211855 
L 137.328415 214.327107 
L 132.899834 216.442358 
L 132.899834 218.557609 
L 117.76885 220.672861 
L 110.75693 222.788112 
L 94.887849 224.903364 
L 94.149752 227.018615 
L 98.578333 229.133866 
L 93.780704 231.249118 
L 100.608099 233.364369 
L 117.215277 235.479621 
L 114.816463 237.594872 
L 126.99506 239.710123 
L 135.114125 241.825375 
L 152.4594 243.940626 
L 160.393941 246.055878 
L 172.572538 248.171129 
L 180.691603 250.286381 
L 196.560684 252.401632 
L 202.465459 254.516883 
L 205.786894 256.632135 
L 209.661902 258.747386 
L 210.953572 260.862638 
" style="fill:none;stroke:#77cd86;stroke-dasharray:5.55,2.4;stroke-dashoffset:0;stroke-width:1.5;"/>
   </g>
   <g id="line2d_17">
    <path clip-path="url(#pa173bbf231)" d="M 185.679056 53.568 
L 192.20273 55.743475 
L 193.613255 57.918949 
L 195.37641 60.094424 
L 198.726405 62.269899 
L 194.671148 64.445374 
L 195.37641 66.620848 
L 189.557997 68.796323 
L 195.023779 70.971798 
L 193.965886 73.147273 
L 190.792206 75.322747 
L 196.786934 77.498222 
L 192.20273 79.673697 
L 194.318517 81.849172 
L 192.20273 84.024646 
L 191.673784 86.200121 
L 191.144837 88.375596 
L 185.855371 90.55107 
L 192.026415 92.726545 
L 191.144837 94.90202 
L 189.381682 97.077495 
L 192.731677 99.252969 
L 188.323789 101.428444 
L 186.736949 103.603919 
L 189.029051 105.779394 
L 179.508012 107.954868 
L 185.150109 110.130343 
L 190.792206 112.305818 
L 187.794842 114.481293 
L 186.560633 116.656767 
L 187.971158 118.832242 
L 181.271167 121.007717 
L 175.452754 123.183192 
L 184.973793 125.358666 
L 184.268531 127.534141 
L 183.739585 129.709616 
L 186.031687 131.88509 
L 180.565905 134.060565 
L 180.74222 136.23604 
L 176.334332 138.411515 
L 180.565905 140.586989 
L 178.626434 142.762464 
L 180.74222 144.937939 
L 183.386953 147.113414 
L 175.805385 149.288888 
L 181.800114 151.464363 
L 166.284346 153.639838 
L 181.447483 155.815313 
L 179.508012 157.990787 
L 181.094851 160.166262 
L 178.097487 162.341737 
L 165.402768 164.517211 
L 179.684327 166.692686 
L 173.689599 168.868161 
L 180.74222 171.043636 
L 167.694871 173.21911 
L 175.62907 175.394585 
L 172.808021 177.57006 
L 176.510647 179.745535 
L 169.458026 181.921009 
L 172.45539 184.096484 
L 167.694871 186.271959 
L 175.452754 188.447434 
L 167.871186 190.622908 
L 169.28171 192.798383 
L 163.110666 194.973858 
L 175.62907 197.149332 
L 166.989608 199.324807 
L 163.992244 201.500282 
L 159.231725 203.675757 
L 165.7554 205.851231 
L 171.573812 208.026706 
L 162.58172 210.202181 
L 148.123846 212.377656 
L 164.521191 214.55313 
L 165.931715 216.728605 
L 152.70805 218.90408 
L 143.187011 221.079555 
L 160.465933 223.255029 
L 152.179103 225.430504 
L 137.192282 227.605979 
L 153.060681 229.781454 
L 137.368598 231.956928 
L 132.960709 234.132403 
L 135.781758 236.307878 
L 118.502835 238.483352 
L 110.39232 240.658827 
L 95.229184 242.834302 
L 103.163383 245.009777 
L 107.571272 247.185251 
L 98.050233 249.360726 
L 87.823931 251.536201 
L 104.750223 253.711676 
L 104.573907 255.88715 
L 126.437034 258.062625 
L 140.365962 260.2381 
L 138.250175 262.413575 
L 147.065952 264.589049 
L 175.981701 266.764524 
" style="fill:none;stroke:#258d41;stroke-dasharray:9.6,2.4,1.5,2.4;stroke-dashoffset:0;stroke-width:1.5;"/>
   </g>
   <g id="line2d_18">
    <path clip-path="url(#pa173bbf231)" d="M 185.18352 53.568 
L 198.304504 56.036571 
L 196.494713 58.505143 
L 201.01919 60.973714 
L 198.907768 63.442286 
L 197.70124 65.910857 
L 199.209399 68.379429 
L 199.963479 70.848 
L 199.511031 73.316571 
L 195.89145 75.785143 
L 194.534106 78.253714 
L 196.343897 80.722286 
L 196.947161 83.190857 
L 196.947161 85.659429 
L 194.534106 88.128 
L 192.422684 90.596571 
L 196.343897 93.065143 
L 196.796345 95.533714 
L 191.366972 98.002286 
L 193.327579 100.470857 
L 195.13737 102.939429 
L 191.517788 105.408 
L 189.858813 107.876571 
L 188.199838 110.345143 
L 188.350654 112.813714 
L 188.199838 115.282286 
L 189.858813 117.750857 
L 189.707997 120.219429 
L 186.842495 122.688 
L 177.944357 125.156571 
L 181.111491 127.625143 
L 180.357411 130.093714 
L 180.960675 132.562286 
L 181.563938 135.030857 
L 178.849252 137.499429 
L 172.967432 139.968 
L 177.944357 142.436571 
L 175.078854 144.905143 
L 174.173959 147.373714 
L 173.721511 149.842286 
L 170.252745 152.310857 
L 173.118247 154.779429 
L 173.419879 157.248 
L 166.934795 159.716571 
L 170.252745 162.185143 
L 166.180716 164.653714 
L 171.760904 167.122286 
L 161.95787 169.590857 
L 168.292138 172.059429 
L 168.141323 174.528 
L 155.171154 176.996571 
L 162.259502 179.465143 
L 169.046218 181.933714 
L 151.702389 184.402286 
L 160.298895 186.870857 
L 156.528498 189.339429 
L 150.948309 191.808 
L 146.725464 194.276571 
L 151.702389 196.745143 
L 138.430589 199.213714 
L 132.247137 201.682286 
L 96.503766 204.150857 
L 145.971384 206.619429 
L 142.351802 209.088 
L 143.55833 211.556571 
L 147.328727 214.025143 
L 155.171154 216.493714 
L 153.059732 218.962286 
L 154.115443 221.430857 
L 155.171154 223.899429 
L 159.394 226.368 
L 153.662995 228.836571 
L 153.210548 231.305143 
L 157.433393 233.773714 
L 159.092368 236.242286 
L 153.813811 238.710857 
L 162.561134 241.179429 
L 165.27582 243.648 
L 157.885841 246.116571 
L 166.331532 248.585143 
L 171.157641 251.053714 
L 167.990507 253.522286 
L 175.682118 255.990857 
L 175.380486 258.459429 
L 173.419879 260.928 
L 180.809859 263.396571 
L 174.928038 265.865143 
L 181.262306 268.333714 
L 182.016386 270.802286 
L 176.587013 273.270857 
L 183.072097 275.739429 
L 179.452516 278.208 
L 182.921281 280.676571 
L 179.603331 283.145143 
L 182.167202 285.613714 
L 182.468834 288.082286 
L 182.167202 290.550857 
L 183.373729 293.019429 
L 183.072097 295.488 
" style="fill:none;stroke:#115029;stroke-linecap:square;stroke-width:1.5;"/>
   </g>
   <g id="patch_3">
    <path d="M 57.6 307.584 
L 57.6 41.472 
" style="fill:none;stroke:#000000;stroke-linecap:square;stroke-linejoin:miter;stroke-width:0.8;"/>
   </g>
   <g id="patch_4">
    <path d="M 219.927273 307.584 
L 219.927273 41.472 
" style="fill:none;stroke:#000000;stroke-linecap:square;stroke-linejoin:miter;stroke-width:0.8;"/>
   </g>
   <g id="patch_5">
    <path d="M 57.6 307.584 
L 219.927273 307.584 
" style="fill:none;stroke:#000000;stroke-linecap:square;stroke-linejoin:miter;stroke-width:0.8;"/>
   </g>
   <g id="patch_6">
    <path d="M 57.6 41.472 
L 219.927273 41.472 
" style="fill:none;stroke:#000000;stroke-linecap:square;stroke-linejoin:miter;stroke-width:0.8;"/>
   </g>
  </g>
  <g id="axes_2">
   <g id="patch_7">
    <path d="M 252.392727 307.584 
L 414.72 307.584 
L 414.72 41.472 
L 252.392727 41.472 
z
" style="fill:#ffffff;"/>
   </g>
   <g id="matplotlib.axis_3">
    <g id="xtick_5">
     <g id="line2d_19">
      <g>
       <use style="stroke:#000000;stroke-width:0.8;" x="258.874583" xlink:href="#m0f70dac29c" y="307.584"/>
      </g>
     </g>
     <g id="text_16">
      <!-- 0.0 -->
      <g transform="translate(246.947239 325.981656)scale(0.15 -0.15)">
       <use xlink:href="#DejaVuSans-48"/>
       <use x="63.623047" xlink:href="#DejaVuSans-46"/>
       <use x="95.410156" xlink:href="#DejaVuSans-48"/>
      </g>
     </g>
    </g>
    <g id="xtick_6">
     <g id="line2d_20">
      <g>
       <use style="stroke:#000000;stroke-width:0.8;" x="333.108035" xlink:href="#m0f70dac29c" y="307.584"/>
      </g>
     </g>
     <g id="text_17">
      <!-- 0.5 -->
      <g transform="translate(321.180691 325.981656)scale(0.15 -0.15)">
       <use xlink:href="#DejaVuSans-48"/>
       <use x="63.623047" xlink:href="#DejaVuSans-46"/>
       <use x="95.410156" xlink:href="#DejaVuSans-53"/>
      </g>
     </g>
    </g>
    <g id="xtick_7">
     <g id="line2d_21">
      <g>
       <use style="stroke:#000000;stroke-width:0.8;" x="407.341488" xlink:href="#m0f70dac29c" y="307.584"/>
      </g>
     </g>
     <g id="text_18">
      <!-- 1.0 -->
      <g transform="translate(395.414144 325.981656)scale(0.15 -0.15)">
       <use xlink:href="#DejaVuSans-49"/>
       <use x="63.623047" xlink:href="#DejaVuSans-46"/>
       <use x="95.410156" xlink:href="#DejaVuSans-48"/>
      </g>
     </g>
    </g>
    <g id="text_19">
     <!-- CDF -->
     <defs>
      <path d="M 64.40625 67.28125 
L 64.40625 56.890625 
Q 59.421875 61.53125 53.78125 63.8125 
Q 48.140625 66.109375 41.796875 66.109375 
Q 29.296875 66.109375 22.65625 58.46875 
Q 16.015625 50.828125 16.015625 36.375 
Q 16.015625 21.96875 22.65625 14.328125 
Q 29.296875 6.6875 41.796875 6.6875 
Q 48.140625 6.6875 53.78125 8.984375 
Q 59.421875 11.28125 64.40625 15.921875 
L 64.40625 5.609375 
Q 59.234375 2.09375 53.4375 0.328125 
Q 47.65625 -1.421875 41.21875 -1.421875 
Q 24.65625 -1.421875 15.125 8.703125 
Q 5.609375 18.84375 5.609375 36.375 
Q 5.609375 53.953125 15.125 64.078125 
Q 24.65625 74.21875 41.21875 74.21875 
Q 47.75 74.21875 53.53125 72.484375 
Q 59.328125 70.75 64.40625 67.28125 
z
" id="DejaVuSans-67"/>
     </defs>
     <g transform="translate(316.187145 346.018531)scale(0.17 -0.17)">
      <use xlink:href="#DejaVuSans-67"/>
      <use x="69.824219" xlink:href="#DejaVuSans-68"/>
      <use x="146.826172" xlink:href="#DejaVuSans-70"/>
     </g>
    </g>
   </g>
   <g id="matplotlib.axis_4"/>
   <g id="line2d_22">
    <path clip-path="url(#pcfbfe5c21c)" d="M 259.77124 53.568 
L 260.503205 55.976629 
L 261.265668 58.385259 
L 262.046431 60.793888 
L 262.845493 63.202518 
L 263.638455 65.611147 
L 264.510713 68.019777 
L 265.254878 70.428406 
L 265.999042 72.837036 
L 266.8713 75.245665 
L 267.639864 77.654295 
L 268.432826 80.062924 
L 269.207489 82.471554 
L 269.921155 84.880183 
L 270.683618 87.288813 
L 271.433882 89.697442 
L 272.190246 92.106072 
L 273.013707 94.514701 
L 273.751772 96.92333 
L 274.459338 99.33196 
L 275.173004 101.740589 
L 275.911068 104.149219 
L 276.71623 106.557848 
L 277.442095 108.966478 
L 278.100864 111.375107 
L 278.863327 113.783737 
L 279.64409 116.192366 
L 280.418753 118.600996 
L 281.284912 121.009625 
L 282.096173 123.418255 
L 282.907434 125.826884 
L 283.724795 128.235514 
L 284.529957 130.644143 
L 285.603505 133.052773 
L 286.744151 135.461402 
L 287.945793 137.870032 
L 289.171835 140.278661 
L 290.208785 142.68729 
L 291.58122 145.09592 
L 292.941455 147.504549 
L 294.441983 149.913179 
L 296.399989 152.321808 
L 298.931368 154.730438 
L 301.444448 157.139067 
L 304.463804 159.547697 
L 307.208673 161.956326 
L 309.721753 164.364956 
L 312.027442 166.773585 
L 314.625918 169.182215 
L 317.138998 171.590844 
L 319.786272 173.999474 
L 322.384748 176.408103 
L 324.775833 178.816733 
L 327.075423 181.225362 
L 329.704398 183.633991 
L 332.58346 186.042621 
L 335.621115 188.45125 
L 339.811615 190.85988 
L 343.849622 193.268509 
L 347.637541 195.677139 
L 351.455958 198.085768 
L 355.219478 200.494398 
L 359.202588 202.903027 
L 362.807516 205.311657 
L 365.765874 207.720286 
L 368.37045 210.128916 
L 370.572445 212.537545 
L 372.902533 214.946175 
L 374.823942 217.354804 
L 376.794147 219.763434 
L 378.294676 222.172063 
L 379.722007 224.580692 
L 381.13104 226.989322 
L 382.59497 229.397951 
L 384.223592 231.806581 
L 385.785118 234.21521 
L 387.340543 236.62384 
L 389.024063 239.032469 
L 390.567289 241.441099 
L 392.159313 243.849728 
L 393.659841 246.258358 
L 395.239666 248.666987 
L 396.886587 251.075617 
L 398.350517 253.484246 
L 399.521661 255.892876 
L 400.705005 258.301505 
L 401.85175 260.710135 
L 402.839903 263.118764 
L 403.864654 265.527394 
L 404.755211 267.936023 
L 405.712865 270.344652 
L 406.481429 272.753282 
L 406.768115 275.161911 
L 406.957206 277.570541 
L 407.134098 279.97917 
L 407.213394 282.3878 
L 407.262191 284.796429 
L 407.29879 287.205059 
L 407.341488 289.613688 
" style="fill:none;stroke:#000000;stroke-linecap:square;stroke-width:3;"/>
   </g>
   <g id="line2d_23">
    <path clip-path="url(#pcfbfe5c21c)" d="M 259.798292 53.568 
L 260.519381 55.587203 
L 260.906743 57.606407 
L 261.466928 59.62561 
L 262.039032 61.644814 
L 262.66477 63.664017 
L 263.344144 65.683221 
L 263.946045 67.702424 
L 264.667134 69.721628 
L 265.364385 71.740831 
L 265.960327 73.760035 
L 266.621822 75.779238 
L 267.289276 77.798441 
L 268.058041 79.817645 
L 268.773171 81.836848 
L 269.518098 83.856052 
L 270.298781 85.875255 
L 271.162896 87.894459 
L 271.973377 89.913662 
L 272.75406 91.932866 
L 273.504946 93.952069 
L 274.345224 95.971273 
L 275.173582 97.990476 
L 276.019819 100.009679 
L 277.241499 102.028883 
L 278.266519 104.048086 
L 279.059121 106.06729 
L 280.030506 108.086493 
L 280.829067 110.105697 
L 281.669345 112.1249 
L 282.777796 114.144104 
L 283.993517 116.163307 
L 284.988739 118.182511 
L 286.091231 120.201714 
L 287.008981 122.220918 
L 287.849258 124.240121 
L 288.921953 126.259324 
L 290.280699 128.278528 
L 291.252084 130.297731 
L 292.336698 132.316935 
L 293.427271 134.336138 
L 294.470168 136.355342 
L 295.519025 138.374545 
L 296.877772 140.393749 
L 297.944507 142.412952 
L 299.029121 144.432156 
L 300.215044 146.451359 
L 301.329455 148.470562 
L 302.622648 150.489766 
L 303.963516 152.508969 
L 305.054089 154.528173 
L 306.287688 156.547376 
L 307.419977 158.56658 
L 308.742967 160.585783 
L 310.208983 162.604987 
L 311.323394 164.62419 
L 312.676181 166.643394 
L 313.868064 168.662597 
L 315.33408 170.6818 
L 316.829893 172.701004 
L 318.015817 174.720207 
L 319.41032 176.739411 
L 320.846539 178.758614 
L 322.348311 180.777818 
L 323.873922 182.797021 
L 325.310141 184.816225 
L 326.734441 186.835428 
L 328.254092 188.854632 
L 329.928687 190.873835 
L 331.466216 192.893038 
L 333.063339 194.912242 
L 334.726016 196.931445 
L 336.513841 198.950649 
L 338.259949 200.969852 
L 339.964342 202.989056 
L 341.793882 205.008259 
L 343.718773 207.027463 
L 345.637705 209.046666 
L 347.580474 211.06587 
L 349.827174 213.085073 
L 351.889131 215.104276 
L 354.076237 217.12348 
L 356.59111 219.142683 
L 359.004673 221.161887 
L 361.591059 223.18109 
L 364.505213 225.200294 
L 367.496839 227.219497 
L 371.05461 229.238701 
L 375.112971 231.257904 
L 379.725559 233.277108 
L 384.201079 235.296311 
L 388.110456 237.315514 
L 392.168817 239.334718 
L 395.780223 241.353921 
L 399.028104 243.373125 
L 401.858826 245.392328 
L 404.188957 247.411532 
L 406.000619 249.430735 
L 407.341488 251.449939 
" style="fill:none;stroke:#a2eb7f;stroke-dasharray:1.5,2.475;stroke-dashoffset:0;stroke-width:1.5;"/>
   </g>
   <g id="line2d_24">
    <path clip-path="url(#pcfbfe5c21c)" d="M 259.780857 53.568 
L 260.759153 55.683251 
L 261.419352 57.798503 
L 261.959516 59.913754 
L 262.66773 62.029006 
L 263.291919 64.144257 
L 263.946116 66.259508 
L 264.738356 68.37476 
L 265.566607 70.490011 
L 266.328837 72.605263 
L 267.103071 74.720514 
L 267.865302 76.835765 
L 268.561512 78.951017 
L 269.293734 81.066268 
L 270.266028 83.18152 
L 271.256327 85.296771 
L 272.216618 87.412022 
L 273.11689 89.527274 
L 274.017163 91.642525 
L 274.821406 93.757777 
L 275.679665 95.873028 
L 276.603945 97.988279 
L 277.654263 100.103531 
L 278.782604 102.218782 
L 279.808914 104.334034 
L 280.78721 106.449285 
L 281.705488 108.564536 
L 282.647773 110.679788 
L 283.722098 112.795039 
L 284.814428 114.910291 
L 285.91276 117.025542 
L 287.023096 119.140794 
L 288.06141 121.256045 
L 289.201755 123.371296 
L 290.324095 125.486548 
L 291.440432 127.601799 
L 292.604785 129.717051 
L 293.787142 131.832302 
L 295.143552 133.947553 
L 296.493961 136.062805 
L 297.652311 138.178056 
L 298.80466 140.293308 
L 300.125059 142.408559 
L 301.289411 144.52381 
L 302.645822 146.639062 
L 303.876194 148.754313 
L 305.118569 150.869565 
L 306.354943 152.984816 
L 307.723357 155.100067 
L 308.845697 157.215319 
L 310.262125 159.33057 
L 311.510503 161.445822 
L 312.800893 163.561073 
L 314.091283 165.676324 
L 315.603741 167.791576 
L 316.996162 169.906827 
L 318.54463 172.022079 
L 319.96706 174.13733 
L 321.503525 176.252581 
L 323.166028 178.367833 
L 324.66048 180.483084 
L 326.461025 182.598336 
L 327.979484 184.713587 
L 329.846048 186.828838 
L 331.592577 188.94409 
L 333.29109 191.059341 
L 335.151653 193.174593 
L 337.240285 195.289844 
L 339.196877 197.405095 
L 341.369534 199.520347 
L 343.530187 201.635598 
L 345.510786 203.75085 
L 347.809482 205.866101 
L 350.288231 207.981352 
L 352.376863 210.096604 
L 354.909629 212.211855 
L 357.388379 214.327107 
L 360.011172 216.442358 
L 362.633965 218.557609 
L 365.748908 220.672861 
L 369.091919 222.788112 
L 372.951086 224.903364 
L 376.83426 227.018615 
L 380.573391 229.133866 
L 384.468569 231.249118 
L 388.14168 233.364369 
L 391.274628 235.479621 
L 394.485599 237.594872 
L 397.300451 239.710123 
L 399.851222 241.825375 
L 401.837823 243.940626 
L 403.566346 246.055878 
L 404.898749 248.171129 
L 405.967072 250.286381 
L 406.519239 252.401632 
L 406.879348 254.516883 
L 407.131424 256.632135 
L 407.257462 258.747386 
L 407.341488 260.862638 
" style="fill:none;stroke:#77cd86;stroke-dasharray:5.55,2.4;stroke-dashoffset:0;stroke-width:1.5;"/>
   </g>
   <g id="line2d_25">
    <path clip-path="url(#pcfbfe5c21c)" d="M 259.806482 53.568 
L 260.520152 55.743475 
L 261.186637 57.918949 
L 261.794141 60.094424 
L 262.289581 62.269899 
L 262.920677 64.445374 
L 263.528181 66.620848 
L 264.330323 68.796323 
L 264.949623 70.971798 
L 265.604312 73.147273 
L 266.365166 75.322747 
L 266.925485 77.498222 
L 267.639155 79.673697 
L 268.282048 81.849172 
L 268.995717 84.024646 
L 269.727082 86.200121 
L 270.47614 88.375596 
L 271.402141 90.55107 
L 272.121709 92.726545 
L 272.870767 94.90202 
L 273.678807 97.077495 
L 274.374782 99.252969 
L 275.21821 101.428444 
L 276.114721 103.603919 
L 276.934556 105.779394 
L 278.072889 107.954868 
L 279.022483 110.130343 
L 279.783337 112.305818 
L 280.64446 114.481293 
L 281.546869 116.656767 
L 282.402093 118.832242 
L 283.481444 121.007717 
L 284.755433 123.183192 
L 285.710925 125.358666 
L 286.690009 127.534141 
L 287.686788 129.709616 
L 288.606891 131.88509 
L 289.709835 134.060565 
L 290.806881 136.23604 
L 292.05138 138.411515 
L 293.154324 140.586989 
L 294.322147 142.762464 
L 295.419193 144.937939 
L 296.427768 147.113414 
L 297.689961 149.288888 
L 298.751618 151.464363 
L 300.332308 153.639838 
L 301.405762 155.815313 
L 302.544095 157.990787 
L 303.629345 160.166262 
L 304.814862 162.341737 
L 306.425043 164.517211 
L 307.557478 166.692686 
L 308.890448 168.868161 
L 309.987494 171.043636 
L 311.520999 173.21911 
L 312.78909 175.394585 
L 314.15155 177.57006 
L 315.390151 179.745535 
L 316.864675 181.921009 
L 318.238932 184.096484 
L 319.772437 186.271959 
L 321.046426 188.447434 
L 322.574033 190.622908 
L 324.054456 192.798383 
L 325.741312 194.973858 
L 327.009402 197.149332 
L 328.5665 199.324807 
L 330.223865 201.500282 
L 332.040479 203.675757 
L 333.638864 205.851231 
L 335.042611 208.026706 
L 336.747161 210.202181 
L 338.935355 212.377656 
L 340.575026 214.55313 
L 342.167513 216.728605 
L 344.202356 218.90408 
L 346.555697 221.079555 
L 348.331024 223.255029 
L 350.383562 225.430504 
L 352.937438 227.605979 
L 354.960486 229.781454 
L 357.508464 231.956928 
L 360.203894 234.132403 
L 362.804955 236.307878 
L 365.984029 238.483352 
L 369.434416 240.658827 
L 373.39204 242.834302 
L 377.084248 245.009777 
L 380.629005 247.185251 
L 384.492259 249.360726 
L 388.697602 251.536201 
L 392.336728 253.711676 
L 395.981752 255.88715 
L 398.895412 258.062625 
L 401.343123 260.2381 
L 403.86161 262.413575 
L 406.085193 264.589049 
L 407.341488 266.764524 
" style="fill:none;stroke:#258d41;stroke-dasharray:9.6,2.4,1.5,2.4;stroke-dashoffset:0;stroke-width:1.5;"/>
   </g>
   <g id="line2d_26">
    <path clip-path="url(#pcfbfe5c21c)" d="M 259.950844 53.568 
L 260.529049 56.036571 
L 261.175951 58.505143 
L 261.651109 60.973714 
L 262.206415 63.442286 
L 262.807519 65.910857 
L 263.351374 68.379429 
L 263.866606 70.848 
L 264.399012 73.316571 
L 265.068814 75.785143 
L 265.790138 78.253714 
L 266.442765 80.722286 
L 267.072493 83.190857 
L 267.702221 85.659429 
L 268.423545 88.128 
L 269.225017 90.596571 
L 269.877644 93.065143 
L 270.513096 95.533714 
L 271.354642 98.002286 
L 272.121765 100.470857 
L 272.82019 102.939429 
L 273.65601 105.408 
L 274.554804 107.876571 
L 275.51657 110.345143 
L 276.472611 112.813714 
L 277.434377 115.282286 
L 278.33317 117.750857 
L 279.237688 120.219429 
L 280.250977 122.688 
L 281.60203 125.156571 
L 282.832861 127.625143 
L 284.092317 130.093714 
L 285.328873 132.562286 
L 286.54253 135.030857 
L 287.859234 137.499429 
L 289.399204 139.968 
L 290.750256 142.436571 
L 292.21008 144.905143 
L 293.704252 147.373714 
L 295.215599 149.842286 
L 296.858616 152.310857 
L 298.392861 154.779429 
L 299.915658 157.248 
L 301.68462 159.716571 
L 303.327637 162.185143 
L 305.125224 164.653714 
L 306.710993 167.122286 
L 308.668873 169.590857 
L 310.386313 172.059429 
L 312.109477 174.528 
L 314.324974 176.996571 
L 316.271405 179.465143 
L 317.96022 181.933714 
L 320.307387 184.402286 
L 322.328241 186.870857 
L 324.492214 189.339429 
L 326.868006 191.808 
L 329.404091 194.276571 
L 331.751258 196.745143 
L 334.602207 199.213714 
L 337.687873 201.682286 
L 342.130316 204.150857 
L 344.695026 206.619429 
L 347.39713 209.088 
L 350.053436 211.556571 
L 352.566623 214.025143 
L 354.782119 216.493714 
L 357.077763 218.962286 
L 359.333334 221.430857 
L 361.54883 223.899429 
L 363.604033 226.368 
L 365.876777 228.836571 
L 368.166697 231.305143 
L 370.296321 233.773714 
L 372.362973 236.242286 
L 374.629993 238.710857 
L 376.564975 241.179429 
L 378.39691 243.648 
L 380.509361 246.116571 
L 382.301222 248.585143 
L 383.90989 251.053714 
L 385.638779 253.522286 
L 387.075704 255.990857 
L 388.524077 258.459429 
L 390.046874 260.928 
L 391.289155 263.396571 
L 392.754703 265.865143 
L 393.97981 268.333714 
L 395.176292 270.802286 
L 396.578868 273.270857 
L 397.735277 275.739429 
L 399.029081 278.208 
L 400.191215 280.676571 
L 401.479295 283.145143 
L 402.670053 285.613714 
L 403.849361 288.082286 
L 405.040119 290.550857 
L 406.185078 293.019429 
L 407.341488 295.488 
" style="fill:none;stroke:#115029;stroke-linecap:square;stroke-width:1.5;"/>
   </g>
   <g id="patch_8">
    <path d="M 252.392727 307.584 
L 252.392727 41.472 
" style="fill:none;stroke:#000000;stroke-linecap:square;stroke-linejoin:miter;stroke-width:0.8;"/>
   </g>
   <g id="patch_9">
    <path d="M 414.72 307.584 
L 414.72 41.472 
" style="fill:none;stroke:#000000;stroke-linecap:square;stroke-linejoin:miter;stroke-width:0.8;"/>
   </g>
   <g id="patch_10">
    <path d="M 252.392727 307.584 
L 414.72 307.584 
" style="fill:none;stroke:#000000;stroke-linecap:square;stroke-linejoin:miter;stroke-width:0.8;"/>
   </g>
   <g id="patch_11">
    <path d="M 252.392727 41.472 
L 414.72 41.472 
" style="fill:none;stroke:#000000;stroke-linecap:square;stroke-linejoin:miter;stroke-width:0.8;"/>
   </g>
   <g id="legend_1">
    <g id="patch_12">
     <path d="M 321.294688 126.479813 
L 405.62 126.479813 
Q 408.22 126.479813 408.22 123.879813 
L 408.22 50.572 
Q 408.22 47.972 405.62 47.972 
L 321.294688 47.972 
Q 318.694687 47.972 318.694687 50.572 
L 318.694687 123.879813 
Q 318.694687 126.479813 321.294688 126.479813 
z
" style="fill:#ffffff;opacity:0.8;stroke:#cccccc;stroke-linejoin:miter;"/>
    </g>
    <g id="line2d_27">
     <path d="M 323.894687 58.499969 
L 349.894687 58.499969 
" style="fill:none;stroke:#000000;stroke-linecap:square;stroke-width:3;"/>
    </g>
    <g id="line2d_28"/>
    <g id="text_20">
     <!-- TS -->
     <defs>
      <path d="M -0.296875 72.90625 
L 61.375 72.90625 
L 61.375 64.59375 
L 35.5 64.59375 
L 35.5 0 
L 25.59375 0 
L 25.59375 64.59375 
L -0.296875 64.59375 
z
" id="DejaVuSans-84"/>
      <path d="M 53.515625 70.515625 
L 53.515625 60.890625 
Q 47.90625 63.578125 42.921875 64.890625 
Q 37.9375 66.21875 33.296875 66.21875 
Q 25.25 66.21875 20.875 63.09375 
Q 16.5 59.96875 16.5 54.203125 
Q 16.5 49.359375 19.40625 46.890625 
Q 22.3125 44.4375 30.421875 42.921875 
L 36.375 41.703125 
Q 47.40625 39.59375 52.65625 34.296875 
Q 57.90625 29 57.90625 20.125 
Q 57.90625 9.515625 50.796875 4.046875 
Q 43.703125 -1.421875 29.984375 -1.421875 
Q 24.8125 -1.421875 18.96875 -0.25 
Q 13.140625 0.921875 6.890625 3.21875 
L 6.890625 13.375 
Q 12.890625 10.015625 18.65625 8.296875 
Q 24.421875 6.59375 29.984375 6.59375 
Q 38.421875 6.59375 43.015625 9.90625 
Q 47.609375 13.234375 47.609375 19.390625 
Q 47.609375 24.75 44.3125 27.78125 
Q 41.015625 30.8125 33.5 32.328125 
L 27.484375 33.5 
Q 16.453125 35.6875 11.515625 40.375 
Q 6.59375 45.0625 6.59375 53.421875 
Q 6.59375 63.09375 13.40625 68.65625 
Q 20.21875 74.21875 32.171875 74.21875 
Q 37.3125 74.21875 42.625 73.28125 
Q 47.953125 72.359375 53.515625 70.515625 
z
" id="DejaVuSans-83"/>
     </defs>
     <g transform="translate(360.294687 63.049969)scale(0.13 -0.13)">
      <use xlink:href="#DejaVuSans-84"/>
      <use x="61.083984" xlink:href="#DejaVuSans-83"/>
     </g>
    </g>
    <g id="line2d_29">
     <path d="M 323.894687 72.381531 
L 349.894687 72.381531 
" style="fill:none;stroke:#a2eb7f;stroke-dasharray:1.5,2.475;stroke-dashoffset:0;stroke-width:1.5;"/>
    </g>
    <g id="line2d_30"/>
    <g id="text_21">
     <!-- RB, n0 -->
     <defs>
      <path d="M 44.390625 34.1875 
Q 47.5625 33.109375 50.5625 29.59375 
Q 53.5625 26.078125 56.59375 19.921875 
L 66.609375 0 
L 56 0 
L 46.6875 18.703125 
Q 43.0625 26.03125 39.671875 28.421875 
Q 36.28125 30.8125 30.421875 30.8125 
L 19.671875 30.8125 
L 19.671875 0 
L 9.8125 0 
L 9.8125 72.90625 
L 32.078125 72.90625 
Q 44.578125 72.90625 50.734375 67.671875 
Q 56.890625 62.453125 56.890625 51.90625 
Q 56.890625 45.015625 53.6875 40.46875 
Q 50.484375 35.9375 44.390625 34.1875 
z
M 19.671875 64.796875 
L 19.671875 38.921875 
L 32.078125 38.921875 
Q 39.203125 38.921875 42.84375 42.21875 
Q 46.484375 45.515625 46.484375 51.90625 
Q 46.484375 58.296875 42.84375 61.546875 
Q 39.203125 64.796875 32.078125 64.796875 
z
" id="DejaVuSans-82"/>
      <path d="M 19.671875 34.8125 
L 19.671875 8.109375 
L 35.5 8.109375 
Q 43.453125 8.109375 47.28125 11.40625 
Q 51.125 14.703125 51.125 21.484375 
Q 51.125 28.328125 47.28125 31.5625 
Q 43.453125 34.8125 35.5 34.8125 
z
M 19.671875 64.796875 
L 19.671875 42.828125 
L 34.28125 42.828125 
Q 41.5 42.828125 45.03125 45.53125 
Q 48.578125 48.25 48.578125 53.8125 
Q 48.578125 59.328125 45.03125 62.0625 
Q 41.5 64.796875 34.28125 64.796875 
z
M 9.8125 72.90625 
L 35.015625 72.90625 
Q 46.296875 72.90625 52.390625 68.21875 
Q 58.5 63.53125 58.5 54.890625 
Q 58.5 48.1875 55.375 44.234375 
Q 52.25 40.28125 46.1875 39.3125 
Q 53.46875 37.75 57.5 32.78125 
Q 61.53125 27.828125 61.53125 20.40625 
Q 61.53125 10.640625 54.890625 5.3125 
Q 48.25 0 35.984375 0 
L 9.8125 0 
z
" id="DejaVuSans-66"/>
      <path d="M 11.71875 12.40625 
L 22.015625 12.40625 
L 22.015625 4 
L 14.015625 -11.625 
L 7.71875 -11.625 
L 11.71875 4 
z
" id="DejaVuSans-44"/>
      <path d="M 54.890625 33.015625 
L 54.890625 0 
L 45.90625 0 
L 45.90625 32.71875 
Q 45.90625 40.484375 42.875 44.328125 
Q 39.84375 48.1875 33.796875 48.1875 
Q 26.515625 48.1875 22.3125 43.546875 
Q 18.109375 38.921875 18.109375 30.90625 
L 18.109375 0 
L 9.078125 0 
L 9.078125 54.6875 
L 18.109375 54.6875 
L 18.109375 46.1875 
Q 21.34375 51.125 25.703125 53.5625 
Q 30.078125 56 35.796875 56 
Q 45.21875 56 50.046875 50.171875 
Q 54.890625 44.34375 54.890625 33.015625 
z
" id="DejaVuSans-110"/>
     </defs>
     <g transform="translate(360.294687 76.931531)scale(0.13 -0.13)">
      <use xlink:href="#DejaVuSans-82"/>
      <use x="69.482422" xlink:href="#DejaVuSans-66"/>
      <use x="138.085938" xlink:href="#DejaVuSans-44"/>
      <use x="169.873047" xlink:href="#DejaVuSans-32"/>
      <use x="201.660156" xlink:href="#DejaVuSans-110"/>
      <use x="265.039062" xlink:href="#DejaVuSans-48"/>
     </g>
    </g>
    <g id="line2d_31">
     <path d="M 323.894687 86.263094 
L 349.894687 86.263094 
" style="fill:none;stroke:#77cd86;stroke-dasharray:5.55,2.4;stroke-dashoffset:0;stroke-width:1.5;"/>
    </g>
    <g id="line2d_32"/>
    <g id="text_22">
     <!-- RB, s0 -->
     <defs>
      <path d="M 44.28125 53.078125 
L 44.28125 44.578125 
Q 40.484375 46.53125 36.375 47.5 
Q 32.28125 48.484375 27.875 48.484375 
Q 21.1875 48.484375 17.84375 46.4375 
Q 14.5 44.390625 14.5 40.28125 
Q 14.5 37.15625 16.890625 35.375 
Q 19.28125 33.59375 26.515625 31.984375 
L 29.59375 31.296875 
Q 39.15625 29.25 43.1875 25.515625 
Q 47.21875 21.78125 47.21875 15.09375 
Q 47.21875 7.46875 41.1875 3.015625 
Q 35.15625 -1.421875 24.609375 -1.421875 
Q 20.21875 -1.421875 15.453125 -0.5625 
Q 10.6875 0.296875 5.421875 2 
L 5.421875 11.28125 
Q 10.40625 8.6875 15.234375 7.390625 
Q 20.0625 6.109375 24.8125 6.109375 
Q 31.15625 6.109375 34.5625 8.28125 
Q 37.984375 10.453125 37.984375 14.40625 
Q 37.984375 18.0625 35.515625 20.015625 
Q 33.0625 21.96875 24.703125 23.78125 
L 21.578125 24.515625 
Q 13.234375 26.265625 9.515625 29.90625 
Q 5.8125 33.546875 5.8125 39.890625 
Q 5.8125 47.609375 11.28125 51.796875 
Q 16.75 56 26.8125 56 
Q 31.78125 56 36.171875 55.265625 
Q 40.578125 54.546875 44.28125 53.078125 
z
" id="DejaVuSans-115"/>
     </defs>
     <g transform="translate(360.294687 90.813094)scale(0.13 -0.13)">
      <use xlink:href="#DejaVuSans-82"/>
      <use x="69.482422" xlink:href="#DejaVuSans-66"/>
      <use x="138.085938" xlink:href="#DejaVuSans-44"/>
      <use x="169.873047" xlink:href="#DejaVuSans-32"/>
      <use x="201.660156" xlink:href="#DejaVuSans-115"/>
      <use x="253.759766" xlink:href="#DejaVuSans-48"/>
     </g>
    </g>
    <g id="line2d_33">
     <path d="M 323.894687 100.144656 
L 349.894687 100.144656 
" style="fill:none;stroke:#258d41;stroke-dasharray:9.6,2.4,1.5,2.4;stroke-dashoffset:0;stroke-width:1.5;"/>
    </g>
    <g id="line2d_34"/>
    <g id="text_23">
     <!-- RB, s1 -->
     <g transform="translate(360.294687 104.694656)scale(0.13 -0.13)">
      <use xlink:href="#DejaVuSans-82"/>
      <use x="69.482422" xlink:href="#DejaVuSans-66"/>
      <use x="138.085938" xlink:href="#DejaVuSans-44"/>
      <use x="169.873047" xlink:href="#DejaVuSans-32"/>
      <use x="201.660156" xlink:href="#DejaVuSans-115"/>
      <use x="253.759766" xlink:href="#DejaVuSans-49"/>
     </g>
    </g>
    <g id="line2d_35">
     <path d="M 323.894687 114.026219 
L 349.894687 114.026219 
" style="fill:none;stroke:#115029;stroke-linecap:square;stroke-width:1.5;"/>
    </g>
    <g id="line2d_36"/>
    <g id="text_24">
     <!-- RB, s2 -->
     <g transform="translate(360.294687 118.576219)scale(0.13 -0.13)">
      <use xlink:href="#DejaVuSans-82"/>
      <use x="69.482422" xlink:href="#DejaVuSans-66"/>
      <use x="138.085938" xlink:href="#DejaVuSans-44"/>
      <use x="169.873047" xlink:href="#DejaVuSans-32"/>
      <use x="201.660156" xlink:href="#DejaVuSans-115"/>
      <use x="253.759766" xlink:href="#DejaVuSans-50"/>
     </g>
    </g>
   </g>
  </g>
 </g>
 <defs>
  <clipPath id="pa173bbf231">
   <rect height="266.112" width="162.327273" x="57.6" y="41.472"/>
  </clipPath>
  <clipPath id="pcfbfe5c21c">
   <rect height="266.112" width="162.327273" x="252.392727" y="41.472"/>
  </clipPath>
 </defs>
</svg>
