<?xml version="1.0" encoding="utf-8" standalone="no"?>
<!DOCTYPE svg PUBLIC "-//W3C//DTD SVG 1.1//EN"
  "http://www.w3.org/Graphics/SVG/1.1/DTD/svg11.dtd">
<!-- Created with matplotlib (https://matplotlib.org/) -->
<svg height="345.6pt" version="1.1" viewBox="0 0 460.8 345.6" width="460.8pt" xmlns="http://www.w3.org/2000/svg" xmlns:xlink="http://www.w3.org/1999/xlink">
 <defs>
  <style type="text/css">
*{stroke-linecap:butt;stroke-linejoin:round;}
  </style>
 </defs>
 <g id="figure_1">
  <g id="patch_1">
   <path d="M 0 345.6 
L 460.8 345.6 
L 460.8 0 
L 0 0 
z
" style="fill:#ffffff;"/>
  </g>
  <g id="axes_1">
   <g id="patch_2">
    <path d="M 57.6 307.584 
L 219.927273 307.584 
L 219.927273 41.472 
L 57.6 41.472 
z
" style="fill:#ffffff;"/>
   </g>
   <g id="matplotlib.axis_1">
    <g id="xtick_1">
     <g id="line2d_1">
      <defs>
       <path d="M 0 0 
L 0 3.5 
" id="m4d9ee6686c" style="stroke:#000000;stroke-width:0.8;"/>
      </defs>
      <g>
       <use style="stroke:#000000;stroke-width:0.8;" x="212.54876" xlink:href="#m4d9ee6686c" y="307.584"/>
      </g>
     </g>
     <g id="text_1">
      <!-- 0.0 -->
      <defs>
       <path d="M 31.78125 66.40625 
Q 24.171875 66.40625 20.328125 58.90625 
Q 16.5 51.421875 16.5 36.375 
Q 16.5 21.390625 20.328125 13.890625 
Q 24.171875 6.390625 31.78125 6.390625 
Q 39.453125 6.390625 43.28125 13.890625 
Q 47.125 21.390625 47.125 36.375 
Q 47.125 51.421875 43.28125 58.90625 
Q 39.453125 66.40625 31.78125 66.40625 
z
M 31.78125 74.21875 
Q 44.046875 74.21875 50.515625 64.515625 
Q 56.984375 54.828125 56.984375 36.375 
Q 56.984375 17.96875 50.515625 8.265625 
Q 44.046875 -1.421875 31.78125 -1.421875 
Q 19.53125 -1.421875 13.0625 8.265625 
Q 6.59375 17.96875 6.59375 36.375 
Q 6.59375 54.828125 13.0625 64.515625 
Q 19.53125 74.21875 31.78125 74.21875 
z
" id="DejaVuSans-48"/>
       <path d="M 10.6875 12.40625 
L 21 12.40625 
L 21 0 
L 10.6875 0 
z
" id="DejaVuSans-46"/>
      </defs>
      <g transform="translate(200.621417 325.981656)scale(0.15 -0.15)">
       <use xlink:href="#DejaVuSans-48"/>
       <use x="63.623047" xlink:href="#DejaVuSans-46"/>
       <use x="95.410156" xlink:href="#DejaVuSans-48"/>
      </g>
     </g>
    </g>
    <g id="xtick_2">
     <g id="line2d_2">
      <g>
       <use style="stroke:#000000;stroke-width:0.8;" x="155.70408" xlink:href="#m4d9ee6686c" y="307.584"/>
      </g>
     </g>
     <g id="text_2">
      <!-- 0.5 -->
      <defs>
       <path d="M 10.796875 72.90625 
L 49.515625 72.90625 
L 49.515625 64.59375 
L 19.828125 64.59375 
L 19.828125 46.734375 
Q 21.96875 47.46875 24.109375 47.828125 
Q 26.265625 48.1875 28.421875 48.1875 
Q 40.625 48.1875 47.75 41.5 
Q 54.890625 34.8125 54.890625 23.390625 
Q 54.890625 11.625 47.5625 5.09375 
Q 40.234375 -1.421875 26.90625 -1.421875 
Q 22.3125 -1.421875 17.546875 -0.640625 
Q 12.796875 0.140625 7.71875 1.703125 
L 7.71875 11.625 
Q 12.109375 9.234375 16.796875 8.0625 
Q 21.484375 6.890625 26.703125 6.890625 
Q 35.15625 6.890625 40.078125 11.328125 
Q 45.015625 15.765625 45.015625 23.390625 
Q 45.015625 31 40.078125 35.4375 
Q 35.15625 39.890625 26.703125 39.890625 
Q 22.75 39.890625 18.8125 39.015625 
Q 14.890625 38.140625 10.796875 36.28125 
z
" id="DejaVuSans-53"/>
      </defs>
      <g transform="translate(143.776737 325.981656)scale(0.15 -0.15)">
       <use xlink:href="#DejaVuSans-48"/>
       <use x="63.623047" xlink:href="#DejaVuSans-46"/>
       <use x="95.410156" xlink:href="#DejaVuSans-53"/>
      </g>
     </g>
    </g>
    <g id="xtick_3">
     <g id="line2d_3">
      <g>
       <use style="stroke:#000000;stroke-width:0.8;" x="98.8594" xlink:href="#m4d9ee6686c" y="307.584"/>
      </g>
     </g>
     <g id="text_3">
      <!-- 1.0 -->
      <defs>
       <path d="M 12.40625 8.296875 
L 28.515625 8.296875 
L 28.515625 63.921875 
L 10.984375 60.40625 
L 10.984375 69.390625 
L 28.421875 72.90625 
L 38.28125 72.90625 
L 38.28125 8.296875 
L 54.390625 8.296875 
L 54.390625 0 
L 12.40625 0 
z
" id="DejaVuSans-49"/>
      </defs>
      <g transform="translate(86.932057 325.981656)scale(0.15 -0.15)">
       <use xlink:href="#DejaVuSans-49"/>
       <use x="63.623047" xlink:href="#DejaVuSans-46"/>
       <use x="95.410156" xlink:href="#DejaVuSans-48"/>
      </g>
     </g>
    </g>
    <g id="text_4">
     <!-- PDF -->
     <defs>
      <path d="M 19.671875 64.796875 
L 19.671875 37.40625 
L 32.078125 37.40625 
Q 38.96875 37.40625 42.71875 40.96875 
Q 46.484375 44.53125 46.484375 51.125 
Q 46.484375 57.671875 42.71875 61.234375 
Q 38.96875 64.796875 32.078125 64.796875 
z
M 9.8125 72.90625 
L 32.078125 72.90625 
Q 44.34375 72.90625 50.609375 67.359375 
Q 56.890625 61.8125 56.890625 51.125 
Q 56.890625 40.328125 50.609375 34.8125 
Q 44.34375 29.296875 32.078125 29.296875 
L 19.671875 29.296875 
L 19.671875 0 
L 9.8125 0 
z
" id="DejaVuSans-80"/>
      <path d="M 19.671875 64.796875 
L 19.671875 8.109375 
L 31.59375 8.109375 
Q 46.6875 8.109375 53.6875 14.9375 
Q 60.6875 21.78125 60.6875 36.53125 
Q 60.6875 51.171875 53.6875 57.984375 
Q 46.6875 64.796875 31.59375 64.796875 
z
M 9.8125 72.90625 
L 30.078125 72.90625 
Q 51.265625 72.90625 61.171875 64.09375 
Q 71.09375 55.28125 71.09375 36.53125 
Q 71.09375 17.671875 61.125 8.828125 
Q 51.171875 0 30.078125 0 
L 9.8125 0 
z
" id="DejaVuSans-68"/>
      <path d="M 9.8125 72.90625 
L 51.703125 72.90625 
L 51.703125 64.59375 
L 19.671875 64.59375 
L 19.671875 43.109375 
L 48.578125 43.109375 
L 48.578125 34.8125 
L 19.671875 34.8125 
L 19.671875 0 
L 9.8125 0 
z
" id="DejaVuSans-70"/>
     </defs>
     <g transform="translate(122.204574 346.018531)scale(0.17 -0.17)">
      <use xlink:href="#DejaVuSans-80"/>
      <use x="60.302734" xlink:href="#DejaVuSans-68"/>
      <use x="137.304688" xlink:href="#DejaVuSans-70"/>
     </g>
    </g>
   </g>
   <g id="matplotlib.axis_2">
    <g id="ytick_1">
     <g id="line2d_4">
      <defs>
       <path d="M 0 0 
L -3.5 0 
" id="me2f992b1e4" style="stroke:#000000;stroke-width:0.8;"/>
      </defs>
      <g>
       <use style="stroke:#000000;stroke-width:0.8;" x="57.6" xlink:href="#me2f992b1e4" y="53.568"/>
      </g>
     </g>
     <g id="text_5">
      <!-- 0.0 -->
      <g transform="translate(26.745313 59.266828)scale(0.15 -0.15)">
       <use xlink:href="#DejaVuSans-48"/>
       <use x="63.623047" xlink:href="#DejaVuSans-46"/>
       <use x="95.410156" xlink:href="#DejaVuSans-48"/>
      </g>
     </g>
    </g>
    <g id="ytick_2">
     <g id="line2d_5">
      <g>
       <use style="stroke:#000000;stroke-width:0.8;" x="57.6" xlink:href="#me2f992b1e4" y="94.058743"/>
      </g>
     </g>
     <g id="text_6">
      <!-- 0.5 -->
      <g transform="translate(26.745313 99.757572)scale(0.15 -0.15)">
       <use xlink:href="#DejaVuSans-48"/>
       <use x="63.623047" xlink:href="#DejaVuSans-46"/>
       <use x="95.410156" xlink:href="#DejaVuSans-53"/>
      </g>
     </g>
    </g>
    <g id="ytick_3">
     <g id="line2d_6">
      <g>
       <use style="stroke:#000000;stroke-width:0.8;" x="57.6" xlink:href="#me2f992b1e4" y="134.549487"/>
      </g>
     </g>
     <g id="text_7">
      <!-- 1.0 -->
      <g transform="translate(26.745313 140.248315)scale(0.15 -0.15)">
       <use xlink:href="#DejaVuSans-49"/>
       <use x="63.623047" xlink:href="#DejaVuSans-46"/>
       <use x="95.410156" xlink:href="#DejaVuSans-48"/>
      </g>
     </g>
    </g>
    <g id="ytick_4">
     <g id="line2d_7">
      <g>
       <use style="stroke:#000000;stroke-width:0.8;" x="57.6" xlink:href="#me2f992b1e4" y="175.04023"/>
      </g>
     </g>
     <g id="text_8">
      <!-- 1.5 -->
      <g transform="translate(26.745313 180.739058)scale(0.15 -0.15)">
       <use xlink:href="#DejaVuSans-49"/>
       <use x="63.623047" xlink:href="#DejaVuSans-46"/>
       <use x="95.410156" xlink:href="#DejaVuSans-53"/>
      </g>
     </g>
    </g>
    <g id="ytick_5">
     <g id="line2d_8">
      <g>
       <use style="stroke:#000000;stroke-width:0.8;" x="57.6" xlink:href="#me2f992b1e4" y="215.530974"/>
      </g>
     </g>
     <g id="text_9">
      <!-- 2.0 -->
      <defs>
       <path d="M 19.1875 8.296875 
L 53.609375 8.296875 
L 53.609375 0 
L 7.328125 0 
L 7.328125 8.296875 
Q 12.9375 14.109375 22.625 23.890625 
Q 32.328125 33.6875 34.8125 36.53125 
Q 39.546875 41.84375 41.421875 45.53125 
Q 43.3125 49.21875 43.3125 52.78125 
Q 43.3125 58.59375 39.234375 62.25 
Q 35.15625 65.921875 28.609375 65.921875 
Q 23.96875 65.921875 18.8125 64.3125 
Q 13.671875 62.703125 7.8125 59.421875 
L 7.8125 69.390625 
Q 13.765625 71.78125 18.9375 73 
Q 24.125 74.21875 28.421875 74.21875 
Q 39.75 74.21875 46.484375 68.546875 
Q 53.21875 62.890625 53.21875 53.421875 
Q 53.21875 48.921875 51.53125 44.890625 
Q 49.859375 40.875 45.40625 35.40625 
Q 44.1875 33.984375 37.640625 27.21875 
Q 31.109375 20.453125 19.1875 8.296875 
z
" id="DejaVuSans-50"/>
      </defs>
      <g transform="translate(26.745313 221.229802)scale(0.15 -0.15)">
       <use xlink:href="#DejaVuSans-50"/>
       <use x="63.623047" xlink:href="#DejaVuSans-46"/>
       <use x="95.410156" xlink:href="#DejaVuSans-48"/>
      </g>
     </g>
    </g>
    <g id="ytick_6">
     <g id="line2d_9">
      <g>
       <use style="stroke:#000000;stroke-width:0.8;" x="57.6" xlink:href="#me2f992b1e4" y="256.021717"/>
      </g>
     </g>
     <g id="text_10">
      <!-- 2.5 -->
      <g transform="translate(26.745313 261.720545)scale(0.15 -0.15)">
       <use xlink:href="#DejaVuSans-50"/>
       <use x="63.623047" xlink:href="#DejaVuSans-46"/>
       <use x="95.410156" xlink:href="#DejaVuSans-53"/>
      </g>
     </g>
    </g>
    <g id="ytick_7">
     <g id="line2d_10">
      <g>
       <use style="stroke:#000000;stroke-width:0.8;" x="57.6" xlink:href="#me2f992b1e4" y="296.51246"/>
      </g>
     </g>
     <g id="text_11">
      <!-- 3.0 -->
      <defs>
       <path d="M 40.578125 39.3125 
Q 47.65625 37.796875 51.625 33 
Q 55.609375 28.21875 55.609375 21.1875 
Q 55.609375 10.40625 48.1875 4.484375 
Q 40.765625 -1.421875 27.09375 -1.421875 
Q 22.515625 -1.421875 17.65625 -0.515625 
Q 12.796875 0.390625 7.625 2.203125 
L 7.625 11.71875 
Q 11.71875 9.328125 16.59375 8.109375 
Q 21.484375 6.890625 26.8125 6.890625 
Q 36.078125 6.890625 40.9375 10.546875 
Q 45.796875 14.203125 45.796875 21.1875 
Q 45.796875 27.640625 41.28125 31.265625 
Q 36.765625 34.90625 28.71875 34.90625 
L 20.21875 34.90625 
L 20.21875 43.015625 
L 29.109375 43.015625 
Q 36.375 43.015625 40.234375 45.921875 
Q 44.09375 48.828125 44.09375 54.296875 
Q 44.09375 59.90625 40.109375 62.90625 
Q 36.140625 65.921875 28.71875 65.921875 
Q 24.65625 65.921875 20.015625 65.03125 
Q 15.375 64.15625 9.8125 62.3125 
L 9.8125 71.09375 
Q 15.4375 72.65625 20.34375 73.4375 
Q 25.25 74.21875 29.59375 74.21875 
Q 40.828125 74.21875 47.359375 69.109375 
Q 53.90625 64.015625 53.90625 55.328125 
Q 53.90625 49.265625 50.4375 45.09375 
Q 46.96875 40.921875 40.578125 39.3125 
z
" id="DejaVuSans-51"/>
      </defs>
      <g transform="translate(26.745313 302.211289)scale(0.15 -0.15)">
       <use xlink:href="#DejaVuSans-51"/>
       <use x="63.623047" xlink:href="#DejaVuSans-46"/>
       <use x="95.410156" xlink:href="#DejaVuSans-48"/>
      </g>
     </g>
    </g>
    <g id="text_12">
     <!-- Depth (m) -->
     <defs>
      <path d="M 56.203125 29.59375 
L 56.203125 25.203125 
L 14.890625 25.203125 
Q 15.484375 15.921875 20.484375 11.0625 
Q 25.484375 6.203125 34.421875 6.203125 
Q 39.59375 6.203125 44.453125 7.46875 
Q 49.3125 8.734375 54.109375 11.28125 
L 54.109375 2.78125 
Q 49.265625 0.734375 44.1875 -0.34375 
Q 39.109375 -1.421875 33.890625 -1.421875 
Q 20.796875 -1.421875 13.15625 6.1875 
Q 5.515625 13.8125 5.515625 26.8125 
Q 5.515625 40.234375 12.765625 48.109375 
Q 20.015625 56 32.328125 56 
Q 43.359375 56 49.78125 48.890625 
Q 56.203125 41.796875 56.203125 29.59375 
z
M 47.21875 32.234375 
Q 47.125 39.59375 43.09375 43.984375 
Q 39.0625 48.390625 32.421875 48.390625 
Q 24.90625 48.390625 20.390625 44.140625 
Q 15.875 39.890625 15.1875 32.171875 
z
" id="DejaVuSans-101"/>
      <path d="M 18.109375 8.203125 
L 18.109375 -20.796875 
L 9.078125 -20.796875 
L 9.078125 54.6875 
L 18.109375 54.6875 
L 18.109375 46.390625 
Q 20.953125 51.265625 25.265625 53.625 
Q 29.59375 56 35.59375 56 
Q 45.5625 56 51.78125 48.09375 
Q 58.015625 40.1875 58.015625 27.296875 
Q 58.015625 14.40625 51.78125 6.484375 
Q 45.5625 -1.421875 35.59375 -1.421875 
Q 29.59375 -1.421875 25.265625 0.953125 
Q 20.953125 3.328125 18.109375 8.203125 
z
M 48.6875 27.296875 
Q 48.6875 37.203125 44.609375 42.84375 
Q 40.53125 48.484375 33.40625 48.484375 
Q 26.265625 48.484375 22.1875 42.84375 
Q 18.109375 37.203125 18.109375 27.296875 
Q 18.109375 17.390625 22.1875 11.75 
Q 26.265625 6.109375 33.40625 6.109375 
Q 40.53125 6.109375 44.609375 11.75 
Q 48.6875 17.390625 48.6875 27.296875 
z
" id="DejaVuSans-112"/>
      <path d="M 18.3125 70.21875 
L 18.3125 54.6875 
L 36.8125 54.6875 
L 36.8125 47.703125 
L 18.3125 47.703125 
L 18.3125 18.015625 
Q 18.3125 11.328125 20.140625 9.421875 
Q 21.96875 7.515625 27.59375 7.515625 
L 36.8125 7.515625 
L 36.8125 0 
L 27.59375 0 
Q 17.1875 0 13.234375 3.875 
Q 9.28125 7.765625 9.28125 18.015625 
L 9.28125 47.703125 
L 2.6875 47.703125 
L 2.6875 54.6875 
L 9.28125 54.6875 
L 9.28125 70.21875 
z
" id="DejaVuSans-116"/>
      <path d="M 54.890625 33.015625 
L 54.890625 0 
L 45.90625 0 
L 45.90625 32.71875 
Q 45.90625 40.484375 42.875 44.328125 
Q 39.84375 48.1875 33.796875 48.1875 
Q 26.515625 48.1875 22.3125 43.546875 
Q 18.109375 38.921875 18.109375 30.90625 
L 18.109375 0 
L 9.078125 0 
L 9.078125 75.984375 
L 18.109375 75.984375 
L 18.109375 46.1875 
Q 21.34375 51.125 25.703125 53.5625 
Q 30.078125 56 35.796875 56 
Q 45.21875 56 50.046875 50.171875 
Q 54.890625 44.34375 54.890625 33.015625 
z
" id="DejaVuSans-104"/>
      <path id="DejaVuSans-32"/>
      <path d="M 31 75.875 
Q 24.46875 64.65625 21.28125 53.65625 
Q 18.109375 42.671875 18.109375 31.390625 
Q 18.109375 20.125 21.3125 9.0625 
Q 24.515625 -2 31 -13.1875 
L 23.1875 -13.1875 
Q 15.875 -1.703125 12.234375 9.375 
Q 8.59375 20.453125 8.59375 31.390625 
Q 8.59375 42.28125 12.203125 53.3125 
Q 15.828125 64.359375 23.1875 75.875 
z
" id="DejaVuSans-40"/>
      <path d="M 52 44.1875 
Q 55.375 50.25 60.0625 53.125 
Q 64.75 56 71.09375 56 
Q 79.640625 56 84.28125 50.015625 
Q 88.921875 44.046875 88.921875 33.015625 
L 88.921875 0 
L 79.890625 0 
L 79.890625 32.71875 
Q 79.890625 40.578125 77.09375 44.375 
Q 74.3125 48.1875 68.609375 48.1875 
Q 61.625 48.1875 57.5625 43.546875 
Q 53.515625 38.921875 53.515625 30.90625 
L 53.515625 0 
L 44.484375 0 
L 44.484375 32.71875 
Q 44.484375 40.625 41.703125 44.40625 
Q 38.921875 48.1875 33.109375 48.1875 
Q 26.21875 48.1875 22.15625 43.53125 
Q 18.109375 38.875 18.109375 30.90625 
L 18.109375 0 
L 9.078125 0 
L 9.078125 54.6875 
L 18.109375 54.6875 
L 18.109375 46.1875 
Q 21.1875 51.21875 25.484375 53.609375 
Q 29.78125 56 35.6875 56 
Q 41.65625 56 45.828125 52.96875 
Q 50 49.953125 52 44.1875 
z
" id="DejaVuSans-109"/>
      <path d="M 8.015625 75.875 
L 15.828125 75.875 
Q 23.140625 64.359375 26.78125 53.3125 
Q 30.421875 42.28125 30.421875 31.390625 
Q 30.421875 20.453125 26.78125 9.375 
Q 23.140625 -1.703125 15.828125 -13.1875 
L 8.015625 -13.1875 
Q 14.5 -2 17.703125 9.0625 
Q 20.90625 20.125 20.90625 31.390625 
Q 20.90625 42.671875 17.703125 53.65625 
Q 14.5 64.65625 8.015625 75.875 
z
" id="DejaVuSans-41"/>
     </defs>
     <g transform="translate(19.209844 218.032062)rotate(-90)scale(0.17 -0.17)">
      <use xlink:href="#DejaVuSans-68"/>
      <use x="77.001953" xlink:href="#DejaVuSans-101"/>
      <use x="138.525391" xlink:href="#DejaVuSans-112"/>
      <use x="202.001953" xlink:href="#DejaVuSans-116"/>
      <use x="241.210938" xlink:href="#DejaVuSans-104"/>
      <use x="304.589844" xlink:href="#DejaVuSans-32"/>
      <use x="336.376953" xlink:href="#DejaVuSans-40"/>
      <use x="375.390625" xlink:href="#DejaVuSans-109"/>
      <use x="472.802734" xlink:href="#DejaVuSans-41"/>
     </g>
    </g>
   </g>
   <g id="line2d_11">
    <path clip-path="url(#p9beeceedcd)" d="M 144.779851 53.568 
L 153.022016 56.036571 
L 150.732526 58.505143 
L 155.998353 60.973714 
L 156.227302 63.442286 
L 153.250965 65.910857 
L 156.227302 68.379429 
L 160.348384 70.848 
L 147.527239 73.316571 
L 142.71931 75.785143 
L 144.550902 78.253714 
L 133.561349 80.722286 
L 135.392941 83.190857 
L 145.466698 85.659429 
L 153.250965 88.128 
L 152.793067 90.596571 
L 155.998353 93.065143 
L 160.806282 95.533714 
L 152.793067 98.002286 
L 143.635106 100.470857 
L 157.372047 102.939429 
L 153.022016 105.408 
L 155.082557 107.876571 
L 151.419373 110.345143 
L 153.708863 112.813714 
L 147.756188 115.282286 
L 144.779851 117.750857 
L 142.490361 120.219429 
L 144.321953 122.688 
L 121.884949 125.156571 
L 124.174439 127.625143 
L 120.053357 130.093714 
L 98.532149 132.562286 
L 98.074251 135.030857 
L 105.629569 137.499429 
L 111.353294 139.968 
L 107.919059 142.436571 
L 114.558581 144.905143 
L 114.100683 147.373714 
L 119.137561 149.842286 
L 120.969153 152.310857 
L 116.619122 154.779429 
L 129.669216 157.248 
L 136.079788 159.716571 
L 139.742973 162.185143 
L 160.119435 164.653714 
L 169.735294 167.122286 
L 179.580102 169.590857 
L 185.303827 172.059429 
L 194.461788 174.528 
L 197.209176 176.996571 
L 199.269717 179.465143 
L 200.185513 181.933714 
L 202.246055 184.402286 
L 199.956564 186.870857 
L 204.306596 189.339429 
L 204.077647 191.808 
L 205.909239 194.276571 
L 204.535545 196.745143 
L 204.077647 199.213714 
L 206.825035 201.682286 
L 205.451341 204.150857 
L 204.306596 206.619429 
L 207.511882 209.088 
L 207.511882 211.556571 
L 207.96978 214.025143 
L 207.053984 216.493714 
L 206.596086 218.962286 
L 207.053984 221.430857 
L 208.198729 223.899429 
L 210.25927 226.368 
L 208.885576 228.836571 
L 207.511882 231.305143 
L 209.572423 233.773714 
L 208.885576 236.242286 
L 209.572423 238.710857 
L 209.343474 241.179429 
L 208.885576 243.648 
L 209.801372 246.116571 
L 210.25927 248.585143 
L 209.801372 251.053714 
L 211.404015 253.522286 
L 209.114525 255.990857 
L 211.175066 258.459429 
L 210.030321 260.928 
L 210.25927 263.396571 
L 210.946117 265.865143 
L 211.632964 268.333714 
L 210.488219 270.802286 
L 210.717168 273.270857 
L 211.632964 275.739429 
L 212.090862 278.208 
L 211.632964 280.676571 
L 211.861913 283.145143 
L 211.404015 285.613714 
L 212.319811 288.082286 
L 212.319811 290.550857 
L 211.632964 293.019429 
L 212.319811 295.488 
" style="fill:none;stroke:#000000;stroke-linecap:square;stroke-width:3;"/>
   </g>
   <g id="line2d_12">
    <path clip-path="url(#p9beeceedcd)" d="M 156.041145 53.568 
L 157.667263 54.882936 
L 149.943201 56.197872 
L 157.667263 57.512808 
L 155.634615 58.827744 
L 154.821556 60.14268 
L 167.017444 61.457615 
L 158.886852 62.772551 
L 157.667263 64.087487 
L 165.391326 65.402423 
L 156.041145 66.717359 
L 160.9195 68.032295 
L 162.139089 69.347231 
L 158.886852 70.662167 
L 170.269681 71.977103 
L 156.041145 73.292039 
L 152.788908 74.606974 
L 157.260734 75.92191 
L 159.293382 77.236846 
L 157.260734 78.551782 
L 154.821556 79.866718 
L 157.667263 81.181654 
L 154.008497 82.49659 
L 151.162789 83.811526 
L 147.504023 85.126462 
L 149.130141 86.441398 
L 160.106441 87.756334 
L 152.382378 89.071269 
L 154.415026 90.386205 
L 158.886852 91.701141 
L 156.447674 93.016077 
L 152.382378 94.331013 
L 151.162789 95.645949 
L 152.788908 96.960885 
L 152.382378 98.275821 
L 152.382378 99.590757 
L 156.854204 100.905693 
L 157.667263 102.220628 
L 142.625668 103.535564 
L 151.162789 104.8505 
L 154.008497 106.165436 
L 147.910553 107.480372 
L 147.097493 108.795308 
L 153.601967 110.110244 
L 147.504023 111.42518 
L 152.382378 112.740116 
L 145.877905 114.055052 
L 151.162789 115.369987 
L 137.340783 116.684923 
L 147.097493 117.999859 
L 144.251786 119.314795 
L 138.153842 120.629731 
L 147.097493 121.944667 
L 138.966901 123.259603 
L 131.242839 124.574539 
L 151.162789 125.889475 
L 134.088546 127.204411 
L 112.135947 128.519347 
L 122.705717 129.834282 
L 120.673069 131.149218 
L 101.566177 132.464154 
L 128.803661 133.77909 
L 114.168595 135.094026 
L 94.248644 136.408962 
L 106.444532 137.723898 
L 127.584072 139.038834 
L 106.444532 140.35377 
L 115.794713 141.668706 
L 124.331835 142.983641 
L 97.094351 144.298577 
L 111.729417 145.613513 
L 110.103299 146.928449 
L 107.664121 148.243385 
L 100.346588 149.558321 
L 112.542477 150.873257 
L 88.1507 152.188193 
L 100.753118 153.503129 
L 99.940059 154.818065 
L 67.41769 156.133001 
L 64.978512 157.447936 
L 65.791572 158.762872 
L 93.029055 160.077808 
L 105.224944 161.392744 
L 96.281292 162.70768 
L 119.86001 164.022616 
L 125.957954 165.337552 
L 127.990602 166.652488 
L 132.868957 167.967424 
L 143.845256 169.28236 
L 145.877905 170.597295 
L 146.284434 171.912231 
L 167.423974 173.227167 
L 180.839451 174.542103 
L 195.474517 175.857039 
L 206.450816 177.171975 
L 210.922642 178.486911 
L 211.329172 179.801847 
L 211.329172 181.116783 
L 211.735701 182.431719 
" style="fill:none;stroke:#a2eb7f;stroke-dasharray:1.5,2.475;stroke-dashoffset:0;stroke-width:1.5;"/>
   </g>
   <g id="line2d_13">
    <path clip-path="url(#p9beeceedcd)" d="M 183.217191 53.568 
L 164.616683 55.06678 
L 162.112769 56.56556 
L 162.828173 58.064341 
L 162.112769 59.563121 
L 167.120598 61.061901 
L 158.89345 62.560681 
L 168.193704 64.059461 
L 173.916937 65.558242 
L 163.901279 67.057022 
L 161.755066 68.555802 
L 167.836002 70.054582 
L 158.178046 71.553362 
L 160.68196 73.052142 
L 166.762895 74.550923 
L 165.689789 76.049703 
L 159.608854 77.548483 
L 156.747238 79.047263 
L 158.535748 80.546043 
L 157.820344 82.044824 
L 162.112769 83.543604 
L 158.178046 85.042384 
L 154.243323 86.541164 
L 154.243323 88.039944 
L 152.812515 89.538725 
L 160.68196 91.037505 
L 157.462642 92.536285 
L 157.462642 94.035065 
L 154.243323 95.533845 
L 160.324258 97.032626 
L 158.178046 98.531406 
L 151.739409 100.030186 
L 152.454813 101.528966 
L 149.593196 103.027746 
L 161.397364 104.526527 
L 153.885621 106.025307 
L 141.366049 107.524087 
L 155.674131 109.022867 
L 150.666302 110.521647 
L 151.739409 112.020427 
L 139.93524 113.519208 
L 150.666302 115.017988 
L 149.593196 116.516768 
L 145.658473 118.015548 
L 141.008346 119.514328 
L 142.439155 121.013109 
L 139.577538 122.511889 
L 134.569709 124.010669 
L 139.219836 125.509449 
L 139.577538 127.008229 
L 141.008346 128.50701 
L 129.204178 130.00579 
L 130.634986 131.50457 
L 129.204178 133.00335 
L 109.530564 134.50213 
L 118.473116 136.000911 
L 113.107585 137.499691 
L 115.253797 138.998471 
L 109.888266 140.497251 
L 101.661119 141.996031 
L 114.180691 143.494812 
L 100.588013 144.993592 
L 94.507077 146.492372 
L 86.27993 147.991152 
L 80.556697 149.489932 
L 83.776015 150.988712 
L 91.287759 152.487493 
L 82.345207 153.986273 
L 78.410484 155.485053 
L 80.198995 156.983833 
L 91.645461 158.482613 
L 83.060611 159.981394 
L 83.776015 161.480174 
L 105.595842 162.978954 
L 101.303417 164.477734 
L 100.588013 165.976514 
L 121.692435 167.475295 
L 131.708093 168.974075 
L 155.674131 170.472855 
L 169.26681 171.971635 
L 163.185875 173.470415 
L 180.713276 174.969196 
L 184.290297 176.467976 
L 195.379061 177.966756 
L 199.671486 179.465536 
L 198.59838 180.964316 
L 205.037017 182.463097 
L 208.614038 183.961877 
L 209.687144 185.460657 
L 209.329442 186.959437 
L 212.191058 188.458217 
L 211.475654 189.956997 
L 211.833356 191.455778 
L 212.54876 192.954558 
L 212.191058 194.453338 
L 212.191058 195.952118 
L 212.191058 197.450898 
L 212.54876 198.949679 
L 212.191058 200.448459 
" style="fill:none;stroke:#77cd86;stroke-dasharray:5.55,2.4;stroke-dashoffset:0;stroke-width:1.5;"/>
   </g>
   <g id="line2d_14">
    <path clip-path="url(#p9beeceedcd)" d="M 164.033057 53.568 
L 157.589565 54.892228 
L 153.799275 56.216456 
L 164.412086 57.540685 
L 161.758883 58.864913 
L 160.242767 60.189141 
L 164.033057 61.513369 
L 165.170144 62.837597 
L 168.960433 64.161826 
L 165.928201 65.486054 
L 161.379854 66.810282 
L 165.170144 68.13451 
L 161.000825 69.458739 
L 161.379854 70.782967 
L 164.033057 72.107195 
L 167.065288 73.431423 
L 159.863738 74.755651 
L 164.412086 76.07988 
L 159.863738 77.404108 
L 162.516941 78.728336 
L 156.831507 80.052564 
L 156.073449 81.376792 
L 163.274999 82.701021 
L 151.904131 84.025249 
L 160.621796 85.349477 
L 156.831507 86.673705 
L 157.210536 87.997934 
L 155.315391 89.322162 
L 154.557333 90.64639 
L 155.315391 91.970618 
L 157.589565 93.294846 
L 153.799275 94.619075 
L 154.936362 95.943303 
L 153.041218 97.267531 
L 153.420247 98.591759 
L 148.871899 99.915987 
L 154.557333 101.240216 
L 155.315391 102.564444 
L 143.565494 103.888672 
L 151.904131 105.2129 
L 154.936362 106.537129 
L 143.944523 107.861357 
L 147.355784 109.185585 
L 158.726652 110.509813 
L 145.08161 111.834041 
L 140.154234 113.15827 
L 145.460639 114.482498 
L 145.460639 115.806726 
L 141.291321 117.130954 
L 151.146073 118.455182 
L 139.396176 119.779411 
L 134.089771 121.103639 
L 143.186465 122.427867 
L 143.186465 123.752095 
L 127.26725 125.076324 
L 134.847829 126.400552 
L 135.605887 127.72478 
L 122.718903 129.049008 
L 129.162395 130.373236 
L 131.057539 131.697465 
L 107.178716 133.021693 
L 128.404337 134.345921 
L 116.65444 135.670149 
L 122.718903 136.994377 
L 107.557745 138.318606 
L 109.831919 139.642834 
L 112.864151 140.967062 
L 107.936774 142.29129 
L 101.493282 143.615518 
L 100.356196 144.939747 
L 96.944935 146.263975 
L 92.775617 147.588203 
L 102.630369 148.912431 
L 92.017559 150.23666 
L 90.880472 151.560888 
L 86.711154 152.885116 
L 109.073861 154.209344 
L 96.186877 155.533572 
L 96.565906 156.857801 
L 115.896382 158.182029 
L 101.493282 159.506257 
L 96.565906 160.830485 
L 88.606299 162.154713 
L 88.22727 163.478942 
L 95.049791 164.80317 
L 115.517353 166.127398 
L 121.581816 167.451626 
L 134.089771 168.775855 
L 135.226858 170.100083 
L 153.420247 171.424311 
L 166.686259 172.748539 
L 170.855578 174.072767 
L 174.266838 175.396996 
L 184.879648 176.721224 
L 195.871487 178.045452 
L 199.661777 179.36968 
L 201.556921 180.693908 
L 204.589153 182.018137 
L 205.347211 183.342365 
" style="fill:none;stroke:#258d41;stroke-dasharray:9.6,2.4,1.5,2.4;stroke-dashoffset:0;stroke-width:1.5;"/>
   </g>
   <g id="line2d_15">
    <path clip-path="url(#p9beeceedcd)" d="M 150.834581 53.568 
L 152.218307 55.49 
L 162.734625 57.412001 
L 166.055567 59.334001 
L 170.48349 61.256002 
L 166.609057 63.178002 
L 167.716038 65.100003 
L 168.823019 67.022003 
L 169.376509 68.944004 
L 167.439293 70.866004 
L 164.948586 72.788005 
L 166.332312 74.710005 
L 165.225331 76.632006 
L 165.225331 78.554006 
L 162.734625 80.476007 
L 165.502077 82.398007 
L 164.948586 84.320008 
L 160.520663 86.242008 
L 163.01137 88.164009 
L 163.841605 90.086009 
L 157.199721 92.00801 
L 162.181134 93.93001 
L 162.734625 95.852011 
L 158.306701 97.774011 
L 156.64623 99.696012 
L 159.967173 101.618012 
L 157.753211 103.540013 
L 157.753211 105.462013 
L 155.815995 107.384014 
L 148.897365 109.306014 
L 154.432269 111.228015 
L 147.790384 113.150015 
L 151.111326 115.072016 
L 148.343874 116.994016 
L 145.853167 118.916017 
L 147.790384 120.838017 
L 148.620619 122.760018 
L 136.720576 124.682018 
L 134.229869 126.604019 
L 136.997321 128.526019 
L 138.657792 130.44802 
L 142.25548 132.37002 
L 140.595009 134.292021 
L 126.757749 136.214021 
L 129.525201 138.136022 
L 126.757749 140.058022 
L 123.160061 141.980023 
L 122.329826 143.902023 
L 130.355436 145.824024 
L 126.204258 147.746024 
L 132.292653 149.668025 
L 137.550812 151.590025 
L 130.908927 153.512026 
L 132.292653 155.434026 
L 132.569398 157.356027 
L 136.443831 159.278027 
L 140.595009 161.200028 
L 140.595009 163.122028 
L 138.381047 165.044029 
L 144.746187 166.966029 
L 145.853167 168.88803 
L 140.595009 170.81003 
L 139.488028 172.732031 
L 151.388071 174.654031 
L 145.576422 176.576031 
L 150.281091 178.498032 
L 147.790384 180.420032 
L 147.236893 182.342033 
L 152.218307 184.264033 
L 160.243918 186.186034 
L 163.841605 188.108034 
L 172.697452 190.030035 
L 177.125375 191.952035 
L 181.830043 193.874036 
L 182.660279 195.796036 
L 185.704476 197.718037 
L 188.471928 199.640037 
L 189.302164 201.562038 
L 196.497539 203.484038 
L 201.755698 205.406039 
L 206.737111 207.328039 
L 206.460366 209.25004 
L 208.951073 211.17204 
L 207.567347 213.094041 
L 208.397582 215.016041 
L 207.844092 216.938042 
L 207.013856 218.860042 
L 207.844092 220.782043 
L 208.397582 222.704043 
L 206.737111 224.626044 
L 208.674328 226.548044 
L 206.737111 228.470045 
L 208.951073 230.392045 
L 206.737111 232.314046 
L 208.397582 234.236046 
L 207.567347 236.158047 
L 207.290602 238.080047 
L 207.013856 240.002048 
L 207.567347 241.924048 
" style="fill:none;stroke:#115029;stroke-linecap:square;stroke-width:1.5;"/>
   </g>
   <g id="patch_3">
    <path d="M 57.6 307.584 
L 57.6 41.472 
" style="fill:none;stroke:#000000;stroke-linecap:square;stroke-linejoin:miter;stroke-width:0.8;"/>
   </g>
   <g id="patch_4">
    <path d="M 219.927273 307.584 
L 219.927273 41.472 
" style="fill:none;stroke:#000000;stroke-linecap:square;stroke-linejoin:miter;stroke-width:0.8;"/>
   </g>
   <g id="patch_5">
    <path d="M 57.6 307.584 
L 219.927273 307.584 
" style="fill:none;stroke:#000000;stroke-linecap:square;stroke-linejoin:miter;stroke-width:0.8;"/>
   </g>
   <g id="patch_6">
    <path d="M 57.6 41.472 
L 219.927273 41.472 
" style="fill:none;stroke:#000000;stroke-linecap:square;stroke-linejoin:miter;stroke-width:0.8;"/>
   </g>
  </g>
  <g id="axes_2">
   <g id="patch_7">
    <path d="M 252.392727 307.584 
L 414.72 307.584 
L 414.72 41.472 
L 252.392727 41.472 
z
" style="fill:#ffffff;"/>
   </g>
   <g id="matplotlib.axis_3">
    <g id="xtick_4">
     <g id="line2d_16">
      <g>
       <use style="stroke:#000000;stroke-width:0.8;" x="259.06322" xlink:href="#m4d9ee6686c" y="307.584"/>
      </g>
     </g>
     <g id="text_13">
      <!-- 0.0 -->
      <g transform="translate(247.135876 325.981656)scale(0.15 -0.15)">
       <use xlink:href="#DejaVuSans-48"/>
       <use x="63.623047" xlink:href="#DejaVuSans-46"/>
       <use x="95.410156" xlink:href="#DejaVuSans-48"/>
      </g>
     </g>
    </g>
    <g id="xtick_5">
     <g id="line2d_17">
      <g>
       <use style="stroke:#000000;stroke-width:0.8;" x="333.202354" xlink:href="#m4d9ee6686c" y="307.584"/>
      </g>
     </g>
     <g id="text_14">
      <!-- 0.5 -->
      <g transform="translate(321.27501 325.981656)scale(0.15 -0.15)">
       <use xlink:href="#DejaVuSans-48"/>
       <use x="63.623047" xlink:href="#DejaVuSans-46"/>
       <use x="95.410156" xlink:href="#DejaVuSans-53"/>
      </g>
     </g>
    </g>
    <g id="xtick_6">
     <g id="line2d_18">
      <g>
       <use style="stroke:#000000;stroke-width:0.8;" x="407.341488" xlink:href="#m4d9ee6686c" y="307.584"/>
      </g>
     </g>
     <g id="text_15">
      <!-- 1.0 -->
      <g transform="translate(395.414144 325.981656)scale(0.15 -0.15)">
       <use xlink:href="#DejaVuSans-49"/>
       <use x="63.623047" xlink:href="#DejaVuSans-46"/>
       <use x="95.410156" xlink:href="#DejaVuSans-48"/>
      </g>
     </g>
    </g>
    <g id="text_16">
     <!-- CDF -->
     <defs>
      <path d="M 64.40625 67.28125 
L 64.40625 56.890625 
Q 59.421875 61.53125 53.78125 63.8125 
Q 48.140625 66.109375 41.796875 66.109375 
Q 29.296875 66.109375 22.65625 58.46875 
Q 16.015625 50.828125 16.015625 36.375 
Q 16.015625 21.96875 22.65625 14.328125 
Q 29.296875 6.6875 41.796875 6.6875 
Q 48.140625 6.6875 53.78125 8.984375 
Q 59.421875 11.28125 64.40625 15.921875 
L 64.40625 5.609375 
Q 59.234375 2.09375 53.4375 0.328125 
Q 47.65625 -1.421875 41.21875 -1.421875 
Q 24.65625 -1.421875 15.125 8.703125 
Q 5.609375 18.84375 5.609375 36.375 
Q 5.609375 53.953125 15.125 64.078125 
Q 24.65625 74.21875 41.21875 74.21875 
Q 47.75 74.21875 53.53125 72.484375 
Q 59.328125 70.75 64.40625 67.28125 
z
" id="DejaVuSans-67"/>
     </defs>
     <g transform="translate(316.187145 346.018531)scale(0.17 -0.17)">
      <use xlink:href="#DejaVuSans-67"/>
      <use x="69.824219" xlink:href="#DejaVuSans-68"/>
      <use x="146.826172" xlink:href="#DejaVuSans-70"/>
     </g>
    </g>
   </g>
   <g id="matplotlib.axis_4"/>
   <g id="line2d_19">
    <path clip-path="url(#pd4c83f5958)" d="M 261.757534 53.568 
L 264.12416 56.036571 
L 266.581811 58.505143 
L 268.830107 60.973714 
L 271.0693 63.442286 
L 273.426824 65.910857 
L 275.666017 68.379429 
L 277.741367 70.848 
L 280.326451 73.316571 
L 283.102686 75.785143 
L 285.806102 78.253714 
L 288.946434 80.722286 
L 292.013946 83.190857 
L 294.680953 85.659429 
L 297.038477 88.128 
L 299.414206 90.596571 
L 301.662501 93.065143 
L 303.719646 95.533714 
L 306.095375 98.002286 
L 308.835201 100.470857 
L 311.028882 102.939429 
L 313.395509 105.408 
L 315.680214 107.876571 
L 318.110557 110.345143 
L 320.449877 112.813714 
L 323.025859 115.282286 
L 325.720172 117.750857 
L 328.50551 120.219429 
L 331.218028 122.688 
L 334.822583 125.156571 
L 338.336113 127.625143 
L 342.013487 130.093714 
L 346.546488 132.562286 
L 351.097693 135.030857 
L 355.348519 137.499429 
L 359.371784 139.968 
L 363.531586 142.436571 
L 367.427417 144.905143 
L 371.341454 147.373714 
L 375.055237 149.842286 
L 378.696202 152.310857 
L 382.510112 154.779429 
L 385.805184 157.248 
L 388.845389 159.716571 
L 391.739956 162.185143 
L 393.824408 164.653714 
L 395.526559 167.122286 
L 396.837306 169.590857 
L 397.920493 172.059429 
L 398.639583 174.528 
L 399.249445 176.996571 
L 399.777384 179.465143 
L 400.268915 181.933714 
L 400.678523 184.402286 
L 401.179156 186.870857 
L 401.506842 189.339429 
L 401.843632 191.808 
L 402.107602 194.276571 
L 402.426186 196.745143 
L 402.762975 199.213714 
L 402.990535 201.682286 
L 403.27271 204.150857 
L 403.600397 206.619429 
L 403.80065 209.088 
L 404.000903 211.556571 
L 404.182951 214.025143 
L 404.401409 216.493714 
L 404.638072 218.962286 
L 404.85653 221.430857 
L 405.029475 223.899429 
L 405.120499 226.368 
L 405.266138 228.836571 
L 405.466391 231.305143 
L 405.584722 233.773714 
L 405.730361 236.242286 
L 405.848692 238.710857 
L 405.976126 241.179429 
L 406.121765 243.648 
L 406.230994 246.116571 
L 406.322018 248.585143 
L 406.431247 251.053714 
L 406.476759 253.522286 
L 406.613295 255.990857 
L 406.667909 258.459429 
L 406.768036 260.928 
L 406.85906 263.396571 
L 406.922777 265.865143 
L 406.959186 268.333714 
L 407.041108 270.802286 
L 407.113927 273.270857 
L 407.150337 275.739429 
L 407.168542 278.208 
L 407.204951 280.676571 
L 407.232259 283.145143 
L 407.277771 285.613714 
L 407.286873 288.082286 
L 407.295976 290.550857 
L 407.332385 293.019429 
L 407.341488 295.488 
" style="fill:none;stroke:#000000;stroke-linecap:square;stroke-width:3;"/>
   </g>
   <g id="line2d_20">
    <path clip-path="url(#pd4c83f5958)" d="M 260.259915 53.568 
L 261.422173 54.882936 
L 262.748008 56.197872 
L 263.910266 57.512808 
L 265.11557 58.827744 
L 266.338093 60.14268 
L 267.302337 61.457615 
L 268.438766 62.772551 
L 269.601024 64.087487 
L 270.599705 65.402423 
L 271.7964 66.717359 
L 272.889783 68.032295 
L 273.957339 69.347231 
L 275.093769 70.662167 
L 275.989138 71.977103 
L 277.185833 73.292039 
L 278.451402 74.606974 
L 279.622269 75.92191 
L 280.75009 77.236846 
L 281.920957 78.551782 
L 283.14348 79.866718 
L 284.305738 81.181654 
L 285.545479 82.49659 
L 286.845486 83.811526 
L 288.222977 85.126462 
L 289.56603 86.441398 
L 290.676632 87.756334 
L 291.950811 89.071269 
L 293.181944 90.386205 
L 294.318374 91.701141 
L 295.506459 93.016077 
L 296.780638 94.331013 
L 298.080645 95.645949 
L 299.346215 96.960885 
L 300.620394 98.275821 
L 301.894572 99.590757 
L 303.074049 100.905693 
L 304.236307 102.220628 
L 305.717109 103.535564 
L 307.017116 104.8505 
L 308.256858 106.165436 
L 309.625739 107.480372 
L 311.011839 108.795308 
L 312.26019 110.110244 
L 313.637681 111.42518 
L 314.91186 112.740116 
L 316.323788 114.055052 
L 317.623795 115.369987 
L 319.216518 116.684923 
L 320.602618 117.999859 
L 322.048984 119.314795 
L 323.624489 120.629731 
L 325.010589 121.944667 
L 326.568875 123.259603 
L 328.290739 124.574539 
L 329.590745 125.889475 
L 331.252344 127.204411 
L 333.378845 128.519347 
L 335.281504 129.834282 
L 337.22721 131.149218 
L 339.577553 132.464154 
L 341.351072 133.77909 
L 343.434527 135.094026 
L 345.939838 136.408962 
L 348.18687 137.723898 
L 349.986217 139.038834 
L 352.233249 140.35377 
L 354.282267 141.668706 
L 356.150488 142.983641 
L 358.595535 144.298577 
L 360.730645 145.613513 
L 362.900193 146.928449 
L 365.121397 148.243385 
L 367.497568 149.558321 
L 369.61546 150.873257 
L 372.249911 152.188193 
L 374.617474 153.503129 
L 377.002254 154.818065 
L 380.075781 156.133001 
L 383.200963 157.447936 
L 386.308926 158.762872 
L 388.840065 160.077808 
L 391.112925 161.392744 
L 393.57519 162.70768 
L 395.538114 164.022616 
L 397.371898 165.337552 
L 399.162636 166.652488 
L 400.850063 167.967424 
L 402.305037 169.28236 
L 403.716965 170.597295 
L 405.120284 171.912231 
L 406.075918 173.227167 
L 406.747445 174.542103 
L 407.109036 175.857039 
L 407.238176 177.171975 
L 407.272613 178.486911 
L 407.298441 179.801847 
L 407.324269 181.116783 
L 407.341488 182.431719 
" style="fill:none;stroke:#a2eb7f;stroke-dasharray:1.5,2.475;stroke-dashoffset:0;stroke-width:1.5;"/>
   </g>
   <g id="line2d_21">
    <path clip-path="url(#pd4c83f5958)" d="M 259.77124 53.568 
L 260.928247 55.06678 
L 262.145695 56.56556 
L 263.345874 58.064341 
L 264.563322 59.563121 
L 265.659889 61.061901 
L 266.955047 62.560681 
L 268.02571 64.059461 
L 268.958224 65.558242 
L 270.1325 67.057022 
L 271.358582 68.555802 
L 272.43788 70.054582 
L 273.750307 71.553362 
L 275.002292 73.052142 
L 276.107493 74.550923 
L 277.238597 76.049703 
L 278.516486 77.548483 
L 279.86345 79.047263 
L 281.167242 80.546043 
L 282.488303 82.044824 
L 283.705751 83.543604 
L 285.018177 85.042384 
L 286.425581 86.541164 
L 287.832986 88.039944 
L 289.274928 89.538725 
L 290.526914 91.037505 
L 291.856609 92.536285 
L 293.186304 94.035065 
L 294.593708 95.533845 
L 295.854328 97.032626 
L 297.166754 98.531406 
L 298.6346 100.030186 
L 300.085176 101.528966 
L 301.604828 103.027746 
L 302.839544 104.526527 
L 304.255583 106.025307 
L 305.973826 107.524087 
L 307.346693 109.022867 
L 308.840441 110.521647 
L 310.308286 112.020427 
L 312.061066 113.519208 
L 313.554814 115.017988 
L 315.074466 116.516768 
L 316.689096 118.015548 
L 318.415972 119.514328 
L 320.108311 121.013109 
L 321.869726 122.511889 
L 323.752021 124.010669 
L 325.52207 125.509449 
L 327.283484 127.008229 
L 329.010361 128.50701 
L 331.022172 130.00579 
L 332.999446 131.50457 
L 335.011257 133.00335 
L 337.49796 134.50213 
L 339.768803 136.000911 
L 342.169161 137.499691 
L 344.517713 138.998471 
L 346.995782 140.497251 
L 349.67244 141.996031 
L 352.046896 143.494812 
L 354.749458 144.993592 
L 357.598804 146.492372 
L 360.646742 147.991152 
L 363.832829 149.489932 
L 366.941207 150.988712 
L 369.868263 152.487493 
L 373.011179 153.986273 
L 376.249073 155.485053 
L 379.443795 156.983833 
L 382.362216 158.482613 
L 385.487863 159.981394 
L 388.596241 161.480174 
L 391.177922 162.978954 
L 393.863215 164.477734 
L 396.565777 165.976514 
L 398.75891 167.475295 
L 400.710281 168.974075 
L 402.083148 170.472855 
L 403.127908 171.971635 
L 404.319453 173.470415 
L 405.087914 174.969196 
L 405.77003 176.467976 
L 406.18448 177.966756 
L 406.495318 179.465536 
L 406.832059 180.964316 
L 407.013381 182.463097 
L 407.108359 183.961877 
L 407.177434 185.460657 
L 407.255144 186.959437 
L 407.263778 188.458217 
L 407.289681 189.956997 
L 407.30695 191.455778 
L 407.30695 192.954558 
L 407.315584 194.453338 
L 407.324219 195.952118 
L 407.332853 197.450898 
L 407.332853 198.949679 
L 407.341488 200.448459 
" style="fill:none;stroke:#77cd86;stroke-dasharray:5.55,2.4;stroke-dashoffset:0;stroke-width:1.5;"/>
   </g>
   <g id="line2d_22">
    <path clip-path="url(#pd4c83f5958)" d="M 260.097927 53.568 
L 261.270055 54.892228 
L 262.52302 56.216456 
L 263.549642 57.540685 
L 264.63285 58.864913 
L 265.748393 60.189141 
L 266.783099 61.513369 
L 267.793555 62.837597 
L 268.723174 64.161826 
L 269.717462 65.486054 
L 270.808754 66.810282 
L 271.819209 68.13451 
L 272.918585 69.458739 
L 274.009877 70.782967 
L 275.044583 72.107195 
L 276.01462 73.431423 
L 277.138246 74.755651 
L 278.164869 76.07988 
L 279.288496 77.404108 
L 280.355536 78.728336 
L 281.543832 80.052564 
L 282.748295 81.376792 
L 283.799168 82.701021 
L 285.092551 84.025249 
L 286.20001 85.349477 
L 287.388306 86.673705 
L 288.568518 87.997934 
L 289.789148 89.322162 
L 291.025945 90.64639 
L 292.246576 91.970618 
L 293.418704 93.294846 
L 294.671669 94.619075 
L 295.900382 95.943303 
L 297.169514 97.267531 
L 298.430563 98.591759 
L 299.788615 99.915987 
L 301.025412 101.240216 
L 302.246042 102.564444 
L 303.717265 103.888672 
L 305.010648 105.2129 
L 306.239362 106.537129 
L 307.702501 107.861357 
L 309.092888 109.185585 
L 310.240765 110.509813 
L 311.679654 111.834041 
L 313.22363 113.15827 
L 314.654435 114.482498 
L 316.085239 115.806726 
L 317.604964 117.130954 
L 318.914515 118.455182 
L 320.474658 119.779411 
L 322.147972 121.103639 
L 323.627279 122.427867 
L 325.106585 123.752095 
L 326.925405 125.076324 
L 328.582552 126.400552 
L 330.223531 127.72478 
L 332.139355 129.049008 
L 333.917756 130.373236 
L 335.65574 131.697465 
L 337.902992 133.021693 
L 339.697561 134.345921 
L 341.742723 135.670149 
L 343.658546 136.994377 
L 345.897716 138.318606 
L 348.088383 139.642834 
L 350.214381 140.967062 
L 352.445467 142.29129 
L 354.813974 143.615518 
L 357.206732 144.939747 
L 359.672244 146.263975 
L 362.226675 147.588203 
L 364.570931 148.912431 
L 367.14153 150.23666 
L 369.736379 151.560888 
L 372.420149 152.885116 
L 374.626984 154.209344 
L 377.108662 155.533572 
L 379.582257 156.857801 
L 381.643586 158.182029 
L 384.012093 159.506257 
L 386.485688 160.830485 
L 389.129039 162.154713 
L 391.780474 163.478942 
L 394.286404 164.80317 
L 396.355816 166.127398 
L 398.295891 167.451626 
L 399.969205 168.775855 
L 401.618268 170.100083 
L 402.879317 171.424311 
L 403.857437 172.748539 
L 404.746638 174.072767 
L 405.563086 175.396996 
L 406.153192 176.721224 
L 406.508872 178.045452 
L 406.783716 179.36968 
L 407.018142 180.693908 
L 407.187898 182.018137 
L 407.341488 183.342365 
" style="fill:none;stroke:#258d41;stroke-dasharray:9.6,2.4,1.5,2.4;stroke-dashoffset:0;stroke-width:1.5;"/>
   </g>
   <g id="line2d_23">
    <path clip-path="url(#pd4c83f5958)" d="M 260.973559 53.568 
L 262.841065 55.49 
L 264.383043 57.412001 
L 265.822221 59.334001 
L 267.124336 61.256002 
L 268.546382 63.178002 
L 269.934161 65.100003 
L 271.287675 67.022003 
L 272.624055 68.944004 
L 274.020402 70.866004 
L 275.493847 72.788005 
L 276.924459 74.710005 
L 278.389338 76.632006 
L 279.854217 78.554006 
L 281.396194 80.476007 
L 282.852506 82.398007 
L 284.325951 84.320008 
L 285.936461 86.242008 
L 287.469872 88.164009 
L 288.977583 90.086009 
L 290.690892 92.00801 
L 292.250002 93.93001 
L 293.79198 95.852011 
L 295.471022 97.774011 
L 297.201463 99.696012 
L 298.829106 101.618012 
L 300.525281 103.540013 
L 302.221456 105.462013 
L 303.977597 107.384014 
L 305.947902 109.306014 
L 307.746876 111.228015 
L 309.751446 113.150015 
L 311.653219 115.072016 
L 313.640656 116.994016 
L 315.705193 118.916017 
L 317.709764 120.838017 
L 319.688635 122.760018 
L 322.035867 124.682018 
L 324.460198 126.604019 
L 326.798864 128.526019 
L 329.086131 130.44802 
L 331.262032 132.37002 
L 333.489333 134.292021 
L 336.144961 136.214021 
L 338.714923 138.136022 
L 341.370551 140.058022 
L 344.137544 141.980023 
L 346.930237 143.902023 
L 349.4745 145.824024 
L 352.147261 147.746024 
L 354.631558 149.668025 
L 356.95309 151.590025 
L 359.48022 153.512026 
L 361.964517 155.434026 
L 364.440248 157.356027 
L 366.796047 159.278027 
L 369.023347 161.200028 
L 371.250648 163.122028 
L 373.546481 165.044029 
L 375.645284 166.966029 
L 377.70982 168.88803 
L 379.937121 170.81003 
L 382.198688 172.732031 
L 384.091894 174.654031 
L 386.164997 176.576031 
L 388.092469 178.498032 
L 390.097039 180.420032 
L 392.118743 182.342033 
L 393.986249 184.264033 
L 395.605326 186.186034 
L 397.113037 188.108034 
L 398.346619 190.030035 
L 399.443136 191.952035 
L 400.394022 193.874036 
L 401.319209 195.796036 
L 402.150163 197.718037 
L 402.895453 199.640037 
L 403.615042 201.562038 
L 404.111901 203.484038 
L 404.445997 205.406039 
L 404.625894 207.328039 
L 404.814358 209.25004 
L 404.925723 211.17204 
L 405.079921 213.094041 
L 405.208419 215.016041 
L 405.35405 216.938042 
L 405.525381 218.860042 
L 405.671012 220.782043 
L 405.79951 222.704043 
L 405.979407 224.626044 
L 406.099339 226.548044 
L 406.279236 228.470045 
L 406.390601 230.392045 
L 406.570499 232.314046 
L 406.698997 234.236046 
L 406.853195 236.158047 
L 407.015959 238.080047 
L 407.18729 240.002048 
L 407.341488 241.924048 
" style="fill:none;stroke:#115029;stroke-linecap:square;stroke-width:1.5;"/>
   </g>
   <g id="patch_8">
    <path d="M 252.392727 307.584 
L 252.392727 41.472 
" style="fill:none;stroke:#000000;stroke-linecap:square;stroke-linejoin:miter;stroke-width:0.8;"/>
   </g>
   <g id="patch_9">
    <path d="M 414.72 307.584 
L 414.72 41.472 
" style="fill:none;stroke:#000000;stroke-linecap:square;stroke-linejoin:miter;stroke-width:0.8;"/>
   </g>
   <g id="patch_10">
    <path d="M 252.392727 307.584 
L 414.72 307.584 
" style="fill:none;stroke:#000000;stroke-linecap:square;stroke-linejoin:miter;stroke-width:0.8;"/>
   </g>
   <g id="patch_11">
    <path d="M 252.392727 41.472 
L 414.72 41.472 
" style="fill:none;stroke:#000000;stroke-linecap:square;stroke-linejoin:miter;stroke-width:0.8;"/>
   </g>
   <g id="legend_1">
    <g id="patch_12">
     <path d="M 261.492727 301.084 
L 345.81804 301.084 
Q 348.41804 301.084 348.41804 298.484 
L 348.41804 225.176187 
Q 348.41804 222.576187 345.81804 222.576187 
L 261.492727 222.576187 
Q 258.892727 222.576187 258.892727 225.176187 
L 258.892727 298.484 
Q 258.892727 301.084 261.492727 301.084 
z
" style="fill:#ffffff;opacity:0.8;stroke:#cccccc;stroke-linejoin:miter;"/>
    </g>
    <g id="line2d_24">
     <path d="M 264.092727 233.104156 
L 290.092727 233.104156 
" style="fill:none;stroke:#000000;stroke-linecap:square;stroke-width:3;"/>
    </g>
    <g id="line2d_25"/>
    <g id="text_17">
     <!-- TS -->
     <defs>
      <path d="M -0.296875 72.90625 
L 61.375 72.90625 
L 61.375 64.59375 
L 35.5 64.59375 
L 35.5 0 
L 25.59375 0 
L 25.59375 64.59375 
L -0.296875 64.59375 
z
" id="DejaVuSans-84"/>
      <path d="M 53.515625 70.515625 
L 53.515625 60.890625 
Q 47.90625 63.578125 42.921875 64.890625 
Q 37.9375 66.21875 33.296875 66.21875 
Q 25.25 66.21875 20.875 63.09375 
Q 16.5 59.96875 16.5 54.203125 
Q 16.5 49.359375 19.40625 46.890625 
Q 22.3125 44.4375 30.421875 42.921875 
L 36.375 41.703125 
Q 47.40625 39.59375 52.65625 34.296875 
Q 57.90625 29 57.90625 20.125 
Q 57.90625 9.515625 50.796875 4.046875 
Q 43.703125 -1.421875 29.984375 -1.421875 
Q 24.8125 -1.421875 18.96875 -0.25 
Q 13.140625 0.921875 6.890625 3.21875 
L 6.890625 13.375 
Q 12.890625 10.015625 18.65625 8.296875 
Q 24.421875 6.59375 29.984375 6.59375 
Q 38.421875 6.59375 43.015625 9.90625 
Q 47.609375 13.234375 47.609375 19.390625 
Q 47.609375 24.75 44.3125 27.78125 
Q 41.015625 30.8125 33.5 32.328125 
L 27.484375 33.5 
Q 16.453125 35.6875 11.515625 40.375 
Q 6.59375 45.0625 6.59375 53.421875 
Q 6.59375 63.09375 13.40625 68.65625 
Q 20.21875 74.21875 32.171875 74.21875 
Q 37.3125 74.21875 42.625 73.28125 
Q 47.953125 72.359375 53.515625 70.515625 
z
" id="DejaVuSans-83"/>
     </defs>
     <g transform="translate(300.492727 237.654156)scale(0.13 -0.13)">
      <use xlink:href="#DejaVuSans-84"/>
      <use x="61.083984" xlink:href="#DejaVuSans-83"/>
     </g>
    </g>
    <g id="line2d_26">
     <path d="M 264.092727 246.985719 
L 290.092727 246.985719 
" style="fill:none;stroke:#a2eb7f;stroke-dasharray:1.5,2.475;stroke-dashoffset:0;stroke-width:1.5;"/>
    </g>
    <g id="line2d_27"/>
    <g id="text_18">
     <!-- RB, n0 -->
     <defs>
      <path d="M 44.390625 34.1875 
Q 47.5625 33.109375 50.5625 29.59375 
Q 53.5625 26.078125 56.59375 19.921875 
L 66.609375 0 
L 56 0 
L 46.6875 18.703125 
Q 43.0625 26.03125 39.671875 28.421875 
Q 36.28125 30.8125 30.421875 30.8125 
L 19.671875 30.8125 
L 19.671875 0 
L 9.8125 0 
L 9.8125 72.90625 
L 32.078125 72.90625 
Q 44.578125 72.90625 50.734375 67.671875 
Q 56.890625 62.453125 56.890625 51.90625 
Q 56.890625 45.015625 53.6875 40.46875 
Q 50.484375 35.9375 44.390625 34.1875 
z
M 19.671875 64.796875 
L 19.671875 38.921875 
L 32.078125 38.921875 
Q 39.203125 38.921875 42.84375 42.21875 
Q 46.484375 45.515625 46.484375 51.90625 
Q 46.484375 58.296875 42.84375 61.546875 
Q 39.203125 64.796875 32.078125 64.796875 
z
" id="DejaVuSans-82"/>
      <path d="M 19.671875 34.8125 
L 19.671875 8.109375 
L 35.5 8.109375 
Q 43.453125 8.109375 47.28125 11.40625 
Q 51.125 14.703125 51.125 21.484375 
Q 51.125 28.328125 47.28125 31.5625 
Q 43.453125 34.8125 35.5 34.8125 
z
M 19.671875 64.796875 
L 19.671875 42.828125 
L 34.28125 42.828125 
Q 41.5 42.828125 45.03125 45.53125 
Q 48.578125 48.25 48.578125 53.8125 
Q 48.578125 59.328125 45.03125 62.0625 
Q 41.5 64.796875 34.28125 64.796875 
z
M 9.8125 72.90625 
L 35.015625 72.90625 
Q 46.296875 72.90625 52.390625 68.21875 
Q 58.5 63.53125 58.5 54.890625 
Q 58.5 48.1875 55.375 44.234375 
Q 52.25 40.28125 46.1875 39.3125 
Q 53.46875 37.75 57.5 32.78125 
Q 61.53125 27.828125 61.53125 20.40625 
Q 61.53125 10.640625 54.890625 5.3125 
Q 48.25 0 35.984375 0 
L 9.8125 0 
z
" id="DejaVuSans-66"/>
      <path d="M 11.71875 12.40625 
L 22.015625 12.40625 
L 22.015625 4 
L 14.015625 -11.625 
L 7.71875 -11.625 
L 11.71875 4 
z
" id="DejaVuSans-44"/>
      <path d="M 54.890625 33.015625 
L 54.890625 0 
L 45.90625 0 
L 45.90625 32.71875 
Q 45.90625 40.484375 42.875 44.328125 
Q 39.84375 48.1875 33.796875 48.1875 
Q 26.515625 48.1875 22.3125 43.546875 
Q 18.109375 38.921875 18.109375 30.90625 
L 18.109375 0 
L 9.078125 0 
L 9.078125 54.6875 
L 18.109375 54.6875 
L 18.109375 46.1875 
Q 21.34375 51.125 25.703125 53.5625 
Q 30.078125 56 35.796875 56 
Q 45.21875 56 50.046875 50.171875 
Q 54.890625 44.34375 54.890625 33.015625 
z
" id="DejaVuSans-110"/>
     </defs>
     <g transform="translate(300.492727 251.535719)scale(0.13 -0.13)">
      <use xlink:href="#DejaVuSans-82"/>
      <use x="69.482422" xlink:href="#DejaVuSans-66"/>
      <use x="138.085938" xlink:href="#DejaVuSans-44"/>
      <use x="169.873047" xlink:href="#DejaVuSans-32"/>
      <use x="201.660156" xlink:href="#DejaVuSans-110"/>
      <use x="265.039062" xlink:href="#DejaVuSans-48"/>
     </g>
    </g>
    <g id="line2d_28">
     <path d="M 264.092727 260.867281 
L 290.092727 260.867281 
" style="fill:none;stroke:#77cd86;stroke-dasharray:5.55,2.4;stroke-dashoffset:0;stroke-width:1.5;"/>
    </g>
    <g id="line2d_29"/>
    <g id="text_19">
     <!-- RB, s0 -->
     <defs>
      <path d="M 44.28125 53.078125 
L 44.28125 44.578125 
Q 40.484375 46.53125 36.375 47.5 
Q 32.28125 48.484375 27.875 48.484375 
Q 21.1875 48.484375 17.84375 46.4375 
Q 14.5 44.390625 14.5 40.28125 
Q 14.5 37.15625 16.890625 35.375 
Q 19.28125 33.59375 26.515625 31.984375 
L 29.59375 31.296875 
Q 39.15625 29.25 43.1875 25.515625 
Q 47.21875 21.78125 47.21875 15.09375 
Q 47.21875 7.46875 41.1875 3.015625 
Q 35.15625 -1.421875 24.609375 -1.421875 
Q 20.21875 -1.421875 15.453125 -0.5625 
Q 10.6875 0.296875 5.421875 2 
L 5.421875 11.28125 
Q 10.40625 8.6875 15.234375 7.390625 
Q 20.0625 6.109375 24.8125 6.109375 
Q 31.15625 6.109375 34.5625 8.28125 
Q 37.984375 10.453125 37.984375 14.40625 
Q 37.984375 18.0625 35.515625 20.015625 
Q 33.0625 21.96875 24.703125 23.78125 
L 21.578125 24.515625 
Q 13.234375 26.265625 9.515625 29.90625 
Q 5.8125 33.546875 5.8125 39.890625 
Q 5.8125 47.609375 11.28125 51.796875 
Q 16.75 56 26.8125 56 
Q 31.78125 56 36.171875 55.265625 
Q 40.578125 54.546875 44.28125 53.078125 
z
" id="DejaVuSans-115"/>
     </defs>
     <g transform="translate(300.492727 265.417281)scale(0.13 -0.13)">
      <use xlink:href="#DejaVuSans-82"/>
      <use x="69.482422" xlink:href="#DejaVuSans-66"/>
      <use x="138.085938" xlink:href="#DejaVuSans-44"/>
      <use x="169.873047" xlink:href="#DejaVuSans-32"/>
      <use x="201.660156" xlink:href="#DejaVuSans-115"/>
      <use x="253.759766" xlink:href="#DejaVuSans-48"/>
     </g>
    </g>
    <g id="line2d_30">
     <path d="M 264.092727 274.748844 
L 290.092727 274.748844 
" style="fill:none;stroke:#258d41;stroke-dasharray:9.6,2.4,1.5,2.4;stroke-dashoffset:0;stroke-width:1.5;"/>
    </g>
    <g id="line2d_31"/>
    <g id="text_20">
     <!-- RB, s1 -->
     <g transform="translate(300.492727 279.298844)scale(0.13 -0.13)">
      <use xlink:href="#DejaVuSans-82"/>
      <use x="69.482422" xlink:href="#DejaVuSans-66"/>
      <use x="138.085938" xlink:href="#DejaVuSans-44"/>
      <use x="169.873047" xlink:href="#DejaVuSans-32"/>
      <use x="201.660156" xlink:href="#DejaVuSans-115"/>
      <use x="253.759766" xlink:href="#DejaVuSans-49"/>
     </g>
    </g>
    <g id="line2d_32">
     <path d="M 264.092727 288.630406 
L 290.092727 288.630406 
" style="fill:none;stroke:#115029;stroke-linecap:square;stroke-width:1.5;"/>
    </g>
    <g id="line2d_33"/>
    <g id="text_21">
     <!-- RB, s2 -->
     <g transform="translate(300.492727 293.180406)scale(0.13 -0.13)">
      <use xlink:href="#DejaVuSans-82"/>
      <use x="69.482422" xlink:href="#DejaVuSans-66"/>
      <use x="138.085938" xlink:href="#DejaVuSans-44"/>
      <use x="169.873047" xlink:href="#DejaVuSans-32"/>
      <use x="201.660156" xlink:href="#DejaVuSans-115"/>
      <use x="253.759766" xlink:href="#DejaVuSans-50"/>
     </g>
    </g>
   </g>
  </g>
 </g>
 <defs>
  <clipPath id="p9beeceedcd">
   <rect height="266.112" width="162.327273" x="57.6" y="41.472"/>
  </clipPath>
  <clipPath id="pd4c83f5958">
   <rect height="266.112" width="162.327273" x="252.392727" y="41.472"/>
  </clipPath>
 </defs>
</svg>
