<?xml version="1.0" encoding="utf-8" standalone="no"?>
<!DOCTYPE svg PUBLIC "-//W3C//DTD SVG 1.1//EN"
  "http://www.w3.org/Graphics/SVG/1.1/DTD/svg11.dtd">
<!-- Created with matplotlib (https://matplotlib.org/) -->
<svg height="345.6pt" version="1.1" viewBox="0 0 460.8 345.6" width="460.8pt" xmlns="http://www.w3.org/2000/svg" xmlns:xlink="http://www.w3.org/1999/xlink">
 <defs>
  <style type="text/css">
*{stroke-linecap:butt;stroke-linejoin:round;}
  </style>
 </defs>
 <g id="figure_1">
  <g id="patch_1">
   <path d="M 0 345.6 
L 460.8 345.6 
L 460.8 0 
L 0 0 
z
" style="fill:#ffffff;"/>
  </g>
  <g id="axes_1">
   <g id="patch_2">
    <path d="M 57.6 307.584 
L 219.927273 307.584 
L 219.927273 41.472 
L 57.6 41.472 
z
" style="fill:#ffffff;"/>
   </g>
   <g id="matplotlib.axis_1">
    <g id="xtick_1">
     <g id="line2d_1">
      <defs>
       <path d="M 0 0 
L 0 3.5 
" id="m166e0fa95e" style="stroke:#000000;stroke-width:0.8;"/>
      </defs>
      <g>
       <use style="stroke:#000000;stroke-width:0.8;" x="212.54876" xlink:href="#m166e0fa95e" y="307.584"/>
      </g>
     </g>
     <g id="text_1">
      <!-- 0.0 -->
      <defs>
       <path d="M 31.78125 66.40625 
Q 24.171875 66.40625 20.328125 58.90625 
Q 16.5 51.421875 16.5 36.375 
Q 16.5 21.390625 20.328125 13.890625 
Q 24.171875 6.390625 31.78125 6.390625 
Q 39.453125 6.390625 43.28125 13.890625 
Q 47.125 21.390625 47.125 36.375 
Q 47.125 51.421875 43.28125 58.90625 
Q 39.453125 66.40625 31.78125 66.40625 
z
M 31.78125 74.21875 
Q 44.046875 74.21875 50.515625 64.515625 
Q 56.984375 54.828125 56.984375 36.375 
Q 56.984375 17.96875 50.515625 8.265625 
Q 44.046875 -1.421875 31.78125 -1.421875 
Q 19.53125 -1.421875 13.0625 8.265625 
Q 6.59375 17.96875 6.59375 36.375 
Q 6.59375 54.828125 13.0625 64.515625 
Q 19.53125 74.21875 31.78125 74.21875 
z
" id="DejaVuSans-48"/>
       <path d="M 10.6875 12.40625 
L 21 12.40625 
L 21 0 
L 10.6875 0 
z
" id="DejaVuSans-46"/>
      </defs>
      <g transform="translate(200.621417 325.981656)scale(0.15 -0.15)">
       <use xlink:href="#DejaVuSans-48"/>
       <use x="63.623047" xlink:href="#DejaVuSans-46"/>
       <use x="95.410156" xlink:href="#DejaVuSans-48"/>
      </g>
     </g>
    </g>
    <g id="xtick_2">
     <g id="line2d_2">
      <g>
       <use style="stroke:#000000;stroke-width:0.8;" x="177.37685" xlink:href="#m166e0fa95e" y="307.584"/>
      </g>
     </g>
     <g id="text_2">
      <!-- 0.5 -->
      <defs>
       <path d="M 10.796875 72.90625 
L 49.515625 72.90625 
L 49.515625 64.59375 
L 19.828125 64.59375 
L 19.828125 46.734375 
Q 21.96875 47.46875 24.109375 47.828125 
Q 26.265625 48.1875 28.421875 48.1875 
Q 40.625 48.1875 47.75 41.5 
Q 54.890625 34.8125 54.890625 23.390625 
Q 54.890625 11.625 47.5625 5.09375 
Q 40.234375 -1.421875 26.90625 -1.421875 
Q 22.3125 -1.421875 17.546875 -0.640625 
Q 12.796875 0.140625 7.71875 1.703125 
L 7.71875 11.625 
Q 12.109375 9.234375 16.796875 8.0625 
Q 21.484375 6.890625 26.703125 6.890625 
Q 35.15625 6.890625 40.078125 11.328125 
Q 45.015625 15.765625 45.015625 23.390625 
Q 45.015625 31 40.078125 35.4375 
Q 35.15625 39.890625 26.703125 39.890625 
Q 22.75 39.890625 18.8125 39.015625 
Q 14.890625 38.140625 10.796875 36.28125 
z
" id="DejaVuSans-53"/>
      </defs>
      <g transform="translate(165.449506 325.981656)scale(0.15 -0.15)">
       <use xlink:href="#DejaVuSans-48"/>
       <use x="63.623047" xlink:href="#DejaVuSans-46"/>
       <use x="95.410156" xlink:href="#DejaVuSans-53"/>
      </g>
     </g>
    </g>
    <g id="xtick_3">
     <g id="line2d_3">
      <g>
       <use style="stroke:#000000;stroke-width:0.8;" x="142.204939" xlink:href="#m166e0fa95e" y="307.584"/>
      </g>
     </g>
     <g id="text_3">
      <!-- 1.0 -->
      <defs>
       <path d="M 12.40625 8.296875 
L 28.515625 8.296875 
L 28.515625 63.921875 
L 10.984375 60.40625 
L 10.984375 69.390625 
L 28.421875 72.90625 
L 38.28125 72.90625 
L 38.28125 8.296875 
L 54.390625 8.296875 
L 54.390625 0 
L 12.40625 0 
z
" id="DejaVuSans-49"/>
      </defs>
      <g transform="translate(130.277595 325.981656)scale(0.15 -0.15)">
       <use xlink:href="#DejaVuSans-49"/>
       <use x="63.623047" xlink:href="#DejaVuSans-46"/>
       <use x="95.410156" xlink:href="#DejaVuSans-48"/>
      </g>
     </g>
    </g>
    <g id="xtick_4">
     <g id="line2d_4">
      <g>
       <use style="stroke:#000000;stroke-width:0.8;" x="107.033028" xlink:href="#m166e0fa95e" y="307.584"/>
      </g>
     </g>
     <g id="text_4">
      <!-- 1.5 -->
      <g transform="translate(95.105685 325.981656)scale(0.15 -0.15)">
       <use xlink:href="#DejaVuSans-49"/>
       <use x="63.623047" xlink:href="#DejaVuSans-46"/>
       <use x="95.410156" xlink:href="#DejaVuSans-53"/>
      </g>
     </g>
    </g>
    <g id="xtick_5">
     <g id="line2d_5">
      <g>
       <use style="stroke:#000000;stroke-width:0.8;" x="71.861118" xlink:href="#m166e0fa95e" y="307.584"/>
      </g>
     </g>
     <g id="text_5">
      <!-- 2.0 -->
      <defs>
       <path d="M 19.1875 8.296875 
L 53.609375 8.296875 
L 53.609375 0 
L 7.328125 0 
L 7.328125 8.296875 
Q 12.9375 14.109375 22.625 23.890625 
Q 32.328125 33.6875 34.8125 36.53125 
Q 39.546875 41.84375 41.421875 45.53125 
Q 43.3125 49.21875 43.3125 52.78125 
Q 43.3125 58.59375 39.234375 62.25 
Q 35.15625 65.921875 28.609375 65.921875 
Q 23.96875 65.921875 18.8125 64.3125 
Q 13.671875 62.703125 7.8125 59.421875 
L 7.8125 69.390625 
Q 13.765625 71.78125 18.9375 73 
Q 24.125 74.21875 28.421875 74.21875 
Q 39.75 74.21875 46.484375 68.546875 
Q 53.21875 62.890625 53.21875 53.421875 
Q 53.21875 48.921875 51.53125 44.890625 
Q 49.859375 40.875 45.40625 35.40625 
Q 44.1875 33.984375 37.640625 27.21875 
Q 31.109375 20.453125 19.1875 8.296875 
z
" id="DejaVuSans-50"/>
      </defs>
      <g transform="translate(59.933774 325.981656)scale(0.15 -0.15)">
       <use xlink:href="#DejaVuSans-50"/>
       <use x="63.623047" xlink:href="#DejaVuSans-46"/>
       <use x="95.410156" xlink:href="#DejaVuSans-48"/>
      </g>
     </g>
    </g>
    <g id="text_6">
     <!-- PDF -->
     <defs>
      <path d="M 19.671875 64.796875 
L 19.671875 37.40625 
L 32.078125 37.40625 
Q 38.96875 37.40625 42.71875 40.96875 
Q 46.484375 44.53125 46.484375 51.125 
Q 46.484375 57.671875 42.71875 61.234375 
Q 38.96875 64.796875 32.078125 64.796875 
z
M 9.8125 72.90625 
L 32.078125 72.90625 
Q 44.34375 72.90625 50.609375 67.359375 
Q 56.890625 61.8125 56.890625 51.125 
Q 56.890625 40.328125 50.609375 34.8125 
Q 44.34375 29.296875 32.078125 29.296875 
L 19.671875 29.296875 
L 19.671875 0 
L 9.8125 0 
z
" id="DejaVuSans-80"/>
      <path d="M 19.671875 64.796875 
L 19.671875 8.109375 
L 31.59375 8.109375 
Q 46.6875 8.109375 53.6875 14.9375 
Q 60.6875 21.78125 60.6875 36.53125 
Q 60.6875 51.171875 53.6875 57.984375 
Q 46.6875 64.796875 31.59375 64.796875 
z
M 9.8125 72.90625 
L 30.078125 72.90625 
Q 51.265625 72.90625 61.171875 64.09375 
Q 71.09375 55.28125 71.09375 36.53125 
Q 71.09375 17.671875 61.125 8.828125 
Q 51.171875 0 30.078125 0 
L 9.8125 0 
z
" id="DejaVuSans-68"/>
      <path d="M 9.8125 72.90625 
L 51.703125 72.90625 
L 51.703125 64.59375 
L 19.671875 64.59375 
L 19.671875 43.109375 
L 48.578125 43.109375 
L 48.578125 34.8125 
L 19.671875 34.8125 
L 19.671875 0 
L 9.8125 0 
z
" id="DejaVuSans-70"/>
     </defs>
     <g transform="translate(122.204574 346.018531)scale(0.17 -0.17)">
      <use xlink:href="#DejaVuSans-80"/>
      <use x="60.302734" xlink:href="#DejaVuSans-68"/>
      <use x="137.304688" xlink:href="#DejaVuSans-70"/>
     </g>
    </g>
   </g>
   <g id="matplotlib.axis_2">
    <g id="ytick_1">
     <g id="line2d_6">
      <defs>
       <path d="M 0 0 
L -3.5 0 
" id="mb2adba5484" style="stroke:#000000;stroke-width:0.8;"/>
      </defs>
      <g>
       <use style="stroke:#000000;stroke-width:0.8;" x="57.6" xlink:href="#mb2adba5484" y="295.488"/>
      </g>
     </g>
     <g id="text_7">
      <!-- 0 -->
      <g transform="translate(41.05625 301.186828)scale(0.15 -0.15)">
       <use xlink:href="#DejaVuSans-48"/>
      </g>
     </g>
    </g>
    <g id="ytick_2">
     <g id="line2d_7">
      <g>
       <use style="stroke:#000000;stroke-width:0.8;" x="57.6" xlink:href="#mb2adba5484" y="239.439847"/>
      </g>
     </g>
     <g id="text_8">
      <!-- 1 -->
      <g transform="translate(41.05625 245.138675)scale(0.15 -0.15)">
       <use xlink:href="#DejaVuSans-49"/>
      </g>
     </g>
    </g>
    <g id="ytick_3">
     <g id="line2d_8">
      <g>
       <use style="stroke:#000000;stroke-width:0.8;" x="57.6" xlink:href="#mb2adba5484" y="183.391693"/>
      </g>
     </g>
     <g id="text_9">
      <!-- 2 -->
      <g transform="translate(41.05625 189.090522)scale(0.15 -0.15)">
       <use xlink:href="#DejaVuSans-50"/>
      </g>
     </g>
    </g>
    <g id="ytick_4">
     <g id="line2d_9">
      <g>
       <use style="stroke:#000000;stroke-width:0.8;" x="57.6" xlink:href="#mb2adba5484" y="127.34354"/>
      </g>
     </g>
     <g id="text_10">
      <!-- 3 -->
      <defs>
       <path d="M 40.578125 39.3125 
Q 47.65625 37.796875 51.625 33 
Q 55.609375 28.21875 55.609375 21.1875 
Q 55.609375 10.40625 48.1875 4.484375 
Q 40.765625 -1.421875 27.09375 -1.421875 
Q 22.515625 -1.421875 17.65625 -0.515625 
Q 12.796875 0.390625 7.625 2.203125 
L 7.625 11.71875 
Q 11.71875 9.328125 16.59375 8.109375 
Q 21.484375 6.890625 26.8125 6.890625 
Q 36.078125 6.890625 40.9375 10.546875 
Q 45.796875 14.203125 45.796875 21.1875 
Q 45.796875 27.640625 41.28125 31.265625 
Q 36.765625 34.90625 28.71875 34.90625 
L 20.21875 34.90625 
L 20.21875 43.015625 
L 29.109375 43.015625 
Q 36.375 43.015625 40.234375 45.921875 
Q 44.09375 48.828125 44.09375 54.296875 
Q 44.09375 59.90625 40.109375 62.90625 
Q 36.140625 65.921875 28.71875 65.921875 
Q 24.65625 65.921875 20.015625 65.03125 
Q 15.375 64.15625 9.8125 62.3125 
L 9.8125 71.09375 
Q 15.4375 72.65625 20.34375 73.4375 
Q 25.25 74.21875 29.59375 74.21875 
Q 40.828125 74.21875 47.359375 69.109375 
Q 53.90625 64.015625 53.90625 55.328125 
Q 53.90625 49.265625 50.4375 45.09375 
Q 46.96875 40.921875 40.578125 39.3125 
z
" id="DejaVuSans-51"/>
      </defs>
      <g transform="translate(41.05625 133.042368)scale(0.15 -0.15)">
       <use xlink:href="#DejaVuSans-51"/>
      </g>
     </g>
    </g>
    <g id="ytick_5">
     <g id="line2d_10">
      <g>
       <use style="stroke:#000000;stroke-width:0.8;" x="57.6" xlink:href="#mb2adba5484" y="71.295387"/>
      </g>
     </g>
     <g id="text_11">
      <!-- 4 -->
      <defs>
       <path d="M 37.796875 64.3125 
L 12.890625 25.390625 
L 37.796875 25.390625 
z
M 35.203125 72.90625 
L 47.609375 72.90625 
L 47.609375 25.390625 
L 58.015625 25.390625 
L 58.015625 17.1875 
L 47.609375 17.1875 
L 47.609375 0 
L 37.796875 0 
L 37.796875 17.1875 
L 4.890625 17.1875 
L 4.890625 26.703125 
z
" id="DejaVuSans-52"/>
      </defs>
      <g transform="translate(41.05625 76.994215)scale(0.15 -0.15)">
       <use xlink:href="#DejaVuSans-52"/>
      </g>
     </g>
    </g>
    <g id="text_12">
     <!-- Velocity (m/s) -->
     <defs>
      <path d="M 28.609375 0 
L 0.78125 72.90625 
L 11.078125 72.90625 
L 34.1875 11.53125 
L 57.328125 72.90625 
L 67.578125 72.90625 
L 39.796875 0 
z
" id="DejaVuSans-86"/>
      <path d="M 56.203125 29.59375 
L 56.203125 25.203125 
L 14.890625 25.203125 
Q 15.484375 15.921875 20.484375 11.0625 
Q 25.484375 6.203125 34.421875 6.203125 
Q 39.59375 6.203125 44.453125 7.46875 
Q 49.3125 8.734375 54.109375 11.28125 
L 54.109375 2.78125 
Q 49.265625 0.734375 44.1875 -0.34375 
Q 39.109375 -1.421875 33.890625 -1.421875 
Q 20.796875 -1.421875 13.15625 6.1875 
Q 5.515625 13.8125 5.515625 26.8125 
Q 5.515625 40.234375 12.765625 48.109375 
Q 20.015625 56 32.328125 56 
Q 43.359375 56 49.78125 48.890625 
Q 56.203125 41.796875 56.203125 29.59375 
z
M 47.21875 32.234375 
Q 47.125 39.59375 43.09375 43.984375 
Q 39.0625 48.390625 32.421875 48.390625 
Q 24.90625 48.390625 20.390625 44.140625 
Q 15.875 39.890625 15.1875 32.171875 
z
" id="DejaVuSans-101"/>
      <path d="M 9.421875 75.984375 
L 18.40625 75.984375 
L 18.40625 0 
L 9.421875 0 
z
" id="DejaVuSans-108"/>
      <path d="M 30.609375 48.390625 
Q 23.390625 48.390625 19.1875 42.75 
Q 14.984375 37.109375 14.984375 27.296875 
Q 14.984375 17.484375 19.15625 11.84375 
Q 23.34375 6.203125 30.609375 6.203125 
Q 37.796875 6.203125 41.984375 11.859375 
Q 46.1875 17.53125 46.1875 27.296875 
Q 46.1875 37.015625 41.984375 42.703125 
Q 37.796875 48.390625 30.609375 48.390625 
z
M 30.609375 56 
Q 42.328125 56 49.015625 48.375 
Q 55.71875 40.765625 55.71875 27.296875 
Q 55.71875 13.875 49.015625 6.21875 
Q 42.328125 -1.421875 30.609375 -1.421875 
Q 18.84375 -1.421875 12.171875 6.21875 
Q 5.515625 13.875 5.515625 27.296875 
Q 5.515625 40.765625 12.171875 48.375 
Q 18.84375 56 30.609375 56 
z
" id="DejaVuSans-111"/>
      <path d="M 48.78125 52.59375 
L 48.78125 44.1875 
Q 44.96875 46.296875 41.140625 47.34375 
Q 37.3125 48.390625 33.40625 48.390625 
Q 24.65625 48.390625 19.8125 42.84375 
Q 14.984375 37.3125 14.984375 27.296875 
Q 14.984375 17.28125 19.8125 11.734375 
Q 24.65625 6.203125 33.40625 6.203125 
Q 37.3125 6.203125 41.140625 7.25 
Q 44.96875 8.296875 48.78125 10.40625 
L 48.78125 2.09375 
Q 45.015625 0.34375 40.984375 -0.53125 
Q 36.96875 -1.421875 32.421875 -1.421875 
Q 20.0625 -1.421875 12.78125 6.34375 
Q 5.515625 14.109375 5.515625 27.296875 
Q 5.515625 40.671875 12.859375 48.328125 
Q 20.21875 56 33.015625 56 
Q 37.15625 56 41.109375 55.140625 
Q 45.0625 54.296875 48.78125 52.59375 
z
" id="DejaVuSans-99"/>
      <path d="M 9.421875 54.6875 
L 18.40625 54.6875 
L 18.40625 0 
L 9.421875 0 
z
M 9.421875 75.984375 
L 18.40625 75.984375 
L 18.40625 64.59375 
L 9.421875 64.59375 
z
" id="DejaVuSans-105"/>
      <path d="M 18.3125 70.21875 
L 18.3125 54.6875 
L 36.8125 54.6875 
L 36.8125 47.703125 
L 18.3125 47.703125 
L 18.3125 18.015625 
Q 18.3125 11.328125 20.140625 9.421875 
Q 21.96875 7.515625 27.59375 7.515625 
L 36.8125 7.515625 
L 36.8125 0 
L 27.59375 0 
Q 17.1875 0 13.234375 3.875 
Q 9.28125 7.765625 9.28125 18.015625 
L 9.28125 47.703125 
L 2.6875 47.703125 
L 2.6875 54.6875 
L 9.28125 54.6875 
L 9.28125 70.21875 
z
" id="DejaVuSans-116"/>
      <path d="M 32.171875 -5.078125 
Q 28.375 -14.84375 24.75 -17.8125 
Q 21.140625 -20.796875 15.09375 -20.796875 
L 7.90625 -20.796875 
L 7.90625 -13.28125 
L 13.1875 -13.28125 
Q 16.890625 -13.28125 18.9375 -11.515625 
Q 21 -9.765625 23.484375 -3.21875 
L 25.09375 0.875 
L 2.984375 54.6875 
L 12.5 54.6875 
L 29.59375 11.921875 
L 46.6875 54.6875 
L 56.203125 54.6875 
z
" id="DejaVuSans-121"/>
      <path id="DejaVuSans-32"/>
      <path d="M 31 75.875 
Q 24.46875 64.65625 21.28125 53.65625 
Q 18.109375 42.671875 18.109375 31.390625 
Q 18.109375 20.125 21.3125 9.0625 
Q 24.515625 -2 31 -13.1875 
L 23.1875 -13.1875 
Q 15.875 -1.703125 12.234375 9.375 
Q 8.59375 20.453125 8.59375 31.390625 
Q 8.59375 42.28125 12.203125 53.3125 
Q 15.828125 64.359375 23.1875 75.875 
z
" id="DejaVuSans-40"/>
      <path d="M 52 44.1875 
Q 55.375 50.25 60.0625 53.125 
Q 64.75 56 71.09375 56 
Q 79.640625 56 84.28125 50.015625 
Q 88.921875 44.046875 88.921875 33.015625 
L 88.921875 0 
L 79.890625 0 
L 79.890625 32.71875 
Q 79.890625 40.578125 77.09375 44.375 
Q 74.3125 48.1875 68.609375 48.1875 
Q 61.625 48.1875 57.5625 43.546875 
Q 53.515625 38.921875 53.515625 30.90625 
L 53.515625 0 
L 44.484375 0 
L 44.484375 32.71875 
Q 44.484375 40.625 41.703125 44.40625 
Q 38.921875 48.1875 33.109375 48.1875 
Q 26.21875 48.1875 22.15625 43.53125 
Q 18.109375 38.875 18.109375 30.90625 
L 18.109375 0 
L 9.078125 0 
L 9.078125 54.6875 
L 18.109375 54.6875 
L 18.109375 46.1875 
Q 21.1875 51.21875 25.484375 53.609375 
Q 29.78125 56 35.6875 56 
Q 41.65625 56 45.828125 52.96875 
Q 50 49.953125 52 44.1875 
z
" id="DejaVuSans-109"/>
      <path d="M 25.390625 72.90625 
L 33.6875 72.90625 
L 8.296875 -9.28125 
L 0 -9.28125 
z
" id="DejaVuSans-47"/>
      <path d="M 44.28125 53.078125 
L 44.28125 44.578125 
Q 40.484375 46.53125 36.375 47.5 
Q 32.28125 48.484375 27.875 48.484375 
Q 21.1875 48.484375 17.84375 46.4375 
Q 14.5 44.390625 14.5 40.28125 
Q 14.5 37.15625 16.890625 35.375 
Q 19.28125 33.59375 26.515625 31.984375 
L 29.59375 31.296875 
Q 39.15625 29.25 43.1875 25.515625 
Q 47.21875 21.78125 47.21875 15.09375 
Q 47.21875 7.46875 41.1875 3.015625 
Q 35.15625 -1.421875 24.609375 -1.421875 
Q 20.21875 -1.421875 15.453125 -0.5625 
Q 10.6875 0.296875 5.421875 2 
L 5.421875 11.28125 
Q 10.40625 8.6875 15.234375 7.390625 
Q 20.0625 6.109375 24.8125 6.109375 
Q 31.15625 6.109375 34.5625 8.28125 
Q 37.984375 10.453125 37.984375 14.40625 
Q 37.984375 18.0625 35.515625 20.015625 
Q 33.0625 21.96875 24.703125 23.78125 
L 21.578125 24.515625 
Q 13.234375 26.265625 9.515625 29.90625 
Q 5.8125 33.546875 5.8125 39.890625 
Q 5.8125 47.609375 11.28125 51.796875 
Q 16.75 56 26.8125 56 
Q 31.78125 56 36.171875 55.265625 
Q 40.578125 54.546875 44.28125 53.078125 
z
" id="DejaVuSans-115"/>
      <path d="M 8.015625 75.875 
L 15.828125 75.875 
Q 23.140625 64.359375 26.78125 53.3125 
Q 30.421875 42.28125 30.421875 31.390625 
Q 30.421875 20.453125 26.78125 9.375 
Q 23.140625 -1.703125 15.828125 -13.1875 
L 8.015625 -13.1875 
Q 14.5 -2 17.703125 9.0625 
Q 20.90625 20.125 20.90625 31.390625 
Q 20.90625 42.671875 17.703125 53.65625 
Q 14.5 64.65625 8.015625 75.875 
z
" id="DejaVuSans-41"/>
     </defs>
     <g transform="translate(33.520781 232.779562)rotate(-90)scale(0.17 -0.17)">
      <use xlink:href="#DejaVuSans-86"/>
      <use x="60.658203" xlink:href="#DejaVuSans-101"/>
      <use x="122.181641" xlink:href="#DejaVuSans-108"/>
      <use x="149.964844" xlink:href="#DejaVuSans-111"/>
      <use x="211.146484" xlink:href="#DejaVuSans-99"/>
      <use x="266.126953" xlink:href="#DejaVuSans-105"/>
      <use x="293.910156" xlink:href="#DejaVuSans-116"/>
      <use x="333.119141" xlink:href="#DejaVuSans-121"/>
      <use x="392.298828" xlink:href="#DejaVuSans-32"/>
      <use x="424.085938" xlink:href="#DejaVuSans-40"/>
      <use x="463.099609" xlink:href="#DejaVuSans-109"/>
      <use x="560.511719" xlink:href="#DejaVuSans-47"/>
      <use x="594.203125" xlink:href="#DejaVuSans-115"/>
      <use x="646.302734" xlink:href="#DejaVuSans-41"/>
     </g>
    </g>
   </g>
   <g id="line2d_11">
    <path clip-path="url(#pdcb4f8bd33)" d="M 207.267312 295.488 
L 207.120606 293.246796 
L 203.452933 291.005592 
L 205.066709 288.764388 
L 203.59964 286.523185 
L 202.425985 284.281981 
L 201.399037 282.040777 
L 202.279278 279.799573 
L 202.866106 277.558369 
L 199.785261 275.317165 
L 198.90502 273.075961 
L 198.611606 270.834757 
L 199.491847 268.593554 
L 197.144537 266.35235 
L 196.851124 264.111146 
L 195.530762 261.869942 
L 197.731365 259.628738 
L 195.384055 257.387534 
L 196.264296 255.14633 
L 196.55771 252.905127 
L 194.943934 250.663923 
L 194.65052 248.422719 
L 193.770279 246.181515 
L 192.30321 243.940311 
L 192.890038 241.699107 
L 193.036744 239.457903 
L 189.662486 237.216699 
L 188.04871 234.975496 
L 183.060676 232.734292 
L 182.913969 230.493088 
L 186.728348 228.251884 
L 188.195417 226.01068 
L 191.276262 223.769476 
L 190.102607 221.528272 
L 190.396021 219.287069 
L 192.890038 217.045865 
L 193.036744 214.804661 
L 188.928952 212.563457 
L 192.30321 210.322253 
L 189.369072 208.081049 
L 188.782245 205.839845 
L 188.342124 203.598642 
L 190.396021 201.357438 
L 188.488831 199.116234 
L 187.021762 196.87503 
L 187.755297 194.633826 
L 187.461883 192.392622 
L 188.04871 190.151418 
L 184.821159 187.910214 
L 181.00678 185.669011 
L 184.674452 183.427807 
L 180.713366 181.186603 
L 184.381038 178.945399 
L 179.393004 176.704195 
L 183.647504 174.462991 
L 182.180435 172.221787 
L 183.940918 169.980584 
L 182.473849 167.73938 
L 180.419952 165.498176 
L 176.898987 163.256972 
L 177.192401 161.015768 
L 179.833125 158.774564 
L 179.393004 156.53336 
L 177.339108 154.292156 
L 176.165453 152.050953 
L 177.192401 149.809749 
L 179.833125 147.568545 
L 183.500797 145.327341 
L 184.087624 143.086137 
L 186.141521 140.844933 
L 190.689434 138.603729 
L 194.943934 136.362526 
L 196.851124 134.121322 
L 195.237348 131.880118 
L 197.291244 129.638914 
L 199.638554 127.39771 
L 200.078675 125.156506 
L 203.15952 122.915302 
L 204.479882 120.674098 
L 205.653537 118.432895 
L 205.800244 116.191691 
L 206.093657 113.950487 
L 204.773295 111.709283 
L 206.387071 109.468079 
L 207.120606 107.226875 
L 208.000847 104.985671 
L 208.587674 102.744468 
L 209.467916 100.503264 
L 211.375105 98.26206 
L 211.815226 96.020856 
L 211.815226 93.779652 
L 211.375105 91.538448 
L 212.10864 89.297244 
L 211.815226 87.056041 
L 212.255347 84.814837 
L 212.255347 82.573633 
L 212.255347 80.332429 
L 212.10864 78.091225 
L 212.255347 75.850021 
L 212.255347 73.608817 
" style="fill:none;stroke:#5a0003;stroke-linecap:square;stroke-width:3;"/>
   </g>
   <g id="line2d_12">
    <path clip-path="url(#pdcb4f8bd33)" d="M 209.071405 295.488 
L 211.462087 293.727775 
L 212.114091 291.967551 
L 211.896756 290.207326 
L 210.375414 288.447101 
L 211.462087 286.686877 
L 211.462087 284.926652 
L 210.592748 283.166428 
L 211.244752 281.406203 
L 210.592748 279.645978 
L 209.071405 277.885754 
L 209.723409 276.125529 
L 209.506075 274.365304 
L 209.940744 272.60508 
L 208.854071 270.844855 
L 209.506075 269.084631 
L 207.767397 267.324406 
L 207.984732 265.564181 
L 206.898059 263.803957 
L 207.550063 262.043732 
L 206.680724 260.283507 
L 205.811385 258.523283 
L 203.203369 256.763058 
L 203.420704 255.002833 
L 204.507377 253.242609 
L 203.203369 251.482384 
L 202.986034 249.72216 
L 203.203369 247.961935 
L 201.899361 246.20171 
L 202.116696 244.441486 
L 204.072708 242.681261 
L 200.378018 240.921036 
L 204.072708 239.160812 
L 202.33403 237.400587 
L 199.50868 235.640363 
L 203.203369 233.880138 
L 200.160684 232.119913 
L 202.986034 230.359689 
L 201.899361 228.599464 
L 197.335333 226.839239 
L 199.943349 225.079015 
L 195.379321 223.31879 
L 192.55397 221.558566 
L 193.205974 219.798341 
L 195.81399 218.038116 
L 195.596655 216.277892 
L 197.117998 214.517667 
L 198.204671 212.757442 
L 197.552667 210.997218 
L 195.161986 209.236993 
L 195.81399 207.476768 
L 197.117998 205.716544 
L 194.727317 203.956319 
L 198.204671 202.196095 
L 188.207276 200.43587 
L 189.511284 198.675645 
L 194.075313 196.915421 
L 191.467296 195.155196 
L 192.1193 193.394971 
L 195.81399 191.634747 
L 192.988639 189.874522 
L 187.120603 188.114298 
L 188.207276 186.354073 
L 190.163288 184.593848 
L 191.901966 182.833624 
L 191.467296 181.073399 
L 191.032627 179.313174 
L 190.380623 177.55295 
L 182.556574 175.792725 
L 187.772607 174.0325 
L 188.85928 172.272276 
L 184.947256 170.512051 
L 191.684631 168.751827 
L 187.337937 166.991602 
L 177.992546 165.231377 
L 183.425913 163.471153 
L 184.512587 161.710928 
L 185.381925 159.950703 
L 182.556574 158.190479 
L 175.38453 156.430254 
L 180.165893 154.67003 
L 179.731224 152.909805 
L 180.600562 151.14958 
L 176.905873 149.389356 
L 170.168498 147.629131 
L 175.167195 145.868906 
L 174.080522 144.108682 
L 171.472506 142.348457 
L 165.604469 140.588232 
L 166.039139 138.828008 
L 163.865792 137.067783 
L 153.651062 135.307559 
L 153.433727 133.547334 
L 152.347054 131.787109 
L 145.827013 130.026885 
L 132.352263 128.26666 
L 119.964187 126.506435 
L 92.797351 124.746211 
L 64.978512 122.985986 
" style="fill:none;stroke:#ffcc7b;stroke-dasharray:1.5,2.475;stroke-dashoffset:0;stroke-width:1.5;"/>
   </g>
   <g id="line2d_13">
    <path clip-path="url(#pdcb4f8bd33)" d="M 208.918813 295.488 
L 212.203051 293.336005 
L 210.993068 291.18401 
L 211.165923 289.032015 
L 209.610231 286.880019 
L 208.054539 284.728024 
L 208.918813 282.576029 
L 208.400249 280.424034 
L 207.535975 278.272039 
L 207.190266 276.120044 
L 205.980283 273.968049 
L 207.017411 271.816053 
L 207.017411 269.664058 
L 204.770301 267.512063 
L 203.733173 265.360068 
L 204.078882 263.208073 
L 201.313208 261.056078 
L 201.140353 258.904083 
L 203.387463 256.752087 
L 201.313208 254.600092 
L 199.238952 252.448097 
L 200.448934 250.296102 
L 199.411806 248.144107 
L 198.028969 245.992112 
L 197.33755 243.840117 
L 199.066097 241.688121 
L 197.510405 239.536126 
L 195.781859 237.384131 
L 198.720388 235.232136 
L 197.33755 233.080141 
L 195.954713 230.928146 
L 195.781859 228.776151 
L 197.164696 226.624155 
L 196.646132 224.47216 
L 195.781859 222.320165 
L 198.720388 220.16817 
L 196.646132 218.016175 
L 192.324765 215.86418 
L 195.609004 213.712185 
L 193.016184 211.560189 
L 194.053312 209.408194 
L 195.09044 207.256199 
L 195.09044 205.104204 
L 193.534748 202.952209 
L 190.077655 200.800214 
L 192.151911 198.648219 
L 185.929143 196.496223 
L 188.694818 194.344228 
L 189.386236 192.192233 
L 187.31198 190.040238 
L 186.620562 187.888243 
L 184.200597 185.736248 
L 188.176254 183.584253 
L 187.31198 181.432257 
L 184.892015 179.280262 
L 183.682033 177.128267 
L 185.583434 174.976272 
L 184.200597 172.824277 
L 176.940701 170.672282 
L 180.916358 168.520287 
L 179.360666 166.368291 
L 173.656462 164.216296 
L 174.866445 162.064301 
L 175.0393 159.912306 
L 170.372224 157.760311 
L 171.409352 155.608316 
L 164.66802 153.456321 
L 165.359439 151.304325 
L 164.149456 149.15233 
L 166.742276 147.000335 
L 166.742276 144.84834 
L 163.112328 142.696345 
L 162.0752 140.54435 
L 168.297968 138.392355 
L 178.842102 136.240359 
L 170.545079 134.088364 
L 175.557864 131.936369 
L 179.533521 129.784374 
L 184.71916 127.632379 
L 187.31198 125.480384 
L 191.460492 123.328389 
L 193.534748 121.176393 
L 200.103225 119.024398 
L 198.893242 116.872403 
L 203.906027 114.720408 
L 203.906027 112.568413 
L 207.535975 110.416418 
L 209.95594 108.264423 
L 210.993068 106.112427 
L 210.993068 103.960432 
L 212.203051 101.808437 
L 212.030196 99.656442 
L 212.203051 97.504447 
L 212.030196 95.352452 
L 211.857342 93.200457 
L 212.203051 91.048461 
L 212.203051 88.896466 
L 212.54876 86.744471 
L 212.203051 84.592476 
" style="fill:none;stroke:#e6a346;stroke-dasharray:5.55,2.4;stroke-dashoffset:0;stroke-width:1.5;"/>
   </g>
   <g id="line2d_14">
    <path clip-path="url(#pdcb4f8bd33)" d="M 209.034563 295.488 
L 211.439014 293.440114 
L 210.699183 291.392228 
L 210.884141 289.344342 
L 210.514225 287.296456 
L 209.959352 285.24857 
L 209.404479 283.200684 
L 207.739859 281.152798 
L 208.664648 279.104912 
L 207.924817 277.057026 
L 207.924817 275.00914 
L 209.034563 272.961254 
L 208.47969 270.913368 
L 208.664648 268.865483 
L 207.369944 266.817597 
L 206.07524 264.769711 
L 207.739859 262.721825 
L 207.000028 260.673939 
L 205.335409 258.626053 
L 205.705324 256.578167 
L 205.335409 254.530281 
L 203.300874 252.482395 
L 203.485832 250.434509 
L 201.451297 248.386623 
L 200.711466 246.338737 
L 201.636254 244.290851 
L 201.266339 242.242965 
L 199.231804 240.195079 
L 201.266339 238.147193 
L 201.636254 236.099307 
L 201.636254 234.051421 
L 197.197269 232.003535 
L 199.416761 229.955649 
L 199.971635 227.907763 
L 198.491973 225.859877 
L 198.676931 223.811991 
L 199.416761 221.764105 
L 202.00617 219.716219 
L 197.567184 217.668333 
L 194.052987 215.620448 
L 196.27248 213.572562 
L 194.792818 211.524676 
L 197.197269 209.47679 
L 196.642396 207.428904 
L 193.128199 205.381018 
L 189.429044 203.333132 
L 189.614002 201.285246 
L 195.902565 199.23736 
L 196.27248 197.189474 
L 192.388368 195.141588 
L 188.504255 193.093702 
L 193.128199 191.045816 
L 191.278621 188.99793 
L 192.758283 186.950044 
L 189.244086 184.902158 
L 185.729889 182.854272 
L 189.429044 180.806386 
L 191.833495 178.7585 
L 187.394509 176.710614 
L 185.729889 174.662728 
L 189.244086 172.614842 
L 188.504255 170.566956 
L 180.181158 168.51907 
L 185.914847 166.471184 
L 185.729889 164.423299 
L 181.475862 162.375413 
L 184.250228 160.327527 
L 184.805101 158.279641 
L 172.412933 156.231755 
L 180.920988 154.183869 
L 180.736031 152.135983 
L 172.412933 150.088097 
L 177.221834 148.040211 
L 165.199581 145.992325 
L 164.829666 143.944439 
L 156.506568 141.896553 
L 147.073724 139.848667 
L 162.795131 137.800781 
L 160.760596 135.752895 
L 173.892595 133.705009 
L 169.453609 131.657123 
L 176.666961 129.609237 
L 175.742172 127.561351 
L 171.85806 125.513465 
L 168.343863 123.465579 
L 170.008482 121.417693 
L 173.337722 119.369807 
L 182.030735 117.321921 
L 176.666961 115.274035 
L 191.463579 113.226149 
L 198.676931 111.178264 
L 204.965493 109.130378 
L 208.664648 107.082492 
L 208.664648 105.034606 
L 208.664648 102.98672 
L 208.294733 100.938834 
L 208.664648 98.890948 
L 203.115916 96.843062 
L 202.930958 94.795176 
" style="fill:none;stroke:#b45a28;stroke-dasharray:9.6,2.4,1.5,2.4;stroke-dashoffset:0;stroke-width:1.5;"/>
   </g>
   <g id="line2d_15">
    <path clip-path="url(#pdcb4f8bd33)" d="M 208.873666 295.488 
L 210.711213 293.019429 
L 210.711213 290.550857 
L 208.567408 288.082286 
L 208.873666 285.613714 
L 207.648634 283.145143 
L 206.423603 280.676571 
L 206.117345 278.208 
L 203.97354 275.739429 
L 203.207895 273.270857 
L 204.586056 270.802286 
L 203.97354 268.333714 
L 205.045443 265.865143 
L 201.523477 263.396571 
L 202.289122 260.928 
L 201.676606 258.459429 
L 201.676606 255.990857 
L 199.839059 253.522286 
L 202.442251 251.053714 
L 200.298446 248.585143 
L 202.748509 246.116571 
L 201.217219 243.648 
L 199.073414 241.179429 
L 195.857707 238.710857 
L 197.695254 236.242286 
L 197.235867 233.773714 
L 198.154641 231.305143 
L 198.460898 228.836571 
L 196.929609 226.368 
L 198.001512 223.899429 
L 194.785804 221.430857 
L 195.39832 218.962286 
L 198.460898 216.493714 
L 195.857707 214.025143 
L 193.254515 211.556571 
L 197.848383 209.088 
L 192.48887 206.619429 
L 194.938933 204.150857 
L 195.551449 201.682286 
L 195.704578 199.213714 
L 192.948257 196.745143 
L 193.101386 194.276571 
L 191.723225 191.808 
L 190.651323 189.339429 
L 194.785804 186.870857 
L 191.876354 184.402286 
L 188.048131 181.933714 
L 189.426291 179.465143 
L 191.263839 176.996571 
L 188.813776 174.528 
L 187.741873 172.059429 
L 186.516842 169.590857 
L 187.282486 167.122286 
L 184.373037 164.653714 
L 178.860395 162.185143 
L 179.319782 159.716571 
L 177.022848 157.248 
L 180.391684 154.779429 
L 182.076103 152.310857 
L 180.851071 149.842286 
L 181.0042 147.373714 
L 185.138681 144.905143 
L 180.851071 142.436571 
L 179.472911 139.968 
L 176.869719 137.499429 
L 177.788492 135.030857 
L 177.329106 132.562286 
L 175.950945 130.093714 
L 181.310458 127.625143 
L 180.544813 125.156571 
L 188.048131 122.688 
L 187.282486 120.219429 
L 187.741873 117.750857 
L 186.823099 115.282286 
L 189.120033 112.813714 
L 193.407644 110.345143 
L 194.632675 107.876571 
L 195.092062 105.408 
L 194.632675 102.939429 
L 196.010836 100.470857 
L 197.695254 98.002286 
L 201.676606 95.533714 
L 201.829735 93.065143 
L 208.414279 90.596571 
L 210.711213 88.128 
L 209.026795 85.659429 
L 210.404955 83.190857 
L 209.79244 80.722286 
L 210.251826 78.253714 
L 210.864342 75.785143 
L 209.179924 73.316571 
L 210.251826 70.848 
L 210.098697 68.379429 
L 210.558084 65.910857 
L 209.639311 63.442286 
L 210.251826 60.973714 
L 210.251826 58.505143 
L 210.098697 56.036571 
L 209.945568 53.568 
" style="fill:none;stroke:#7d1e0b;stroke-linecap:square;stroke-width:1.5;"/>
   </g>
   <g id="patch_3">
    <path d="M 57.6 307.584 
L 57.6 41.472 
" style="fill:none;stroke:#000000;stroke-linecap:square;stroke-linejoin:miter;stroke-width:0.8;"/>
   </g>
   <g id="patch_4">
    <path d="M 219.927273 307.584 
L 219.927273 41.472 
" style="fill:none;stroke:#000000;stroke-linecap:square;stroke-linejoin:miter;stroke-width:0.8;"/>
   </g>
   <g id="patch_5">
    <path d="M 57.6 307.584 
L 219.927273 307.584 
" style="fill:none;stroke:#000000;stroke-linecap:square;stroke-linejoin:miter;stroke-width:0.8;"/>
   </g>
   <g id="patch_6">
    <path d="M 57.6 41.472 
L 219.927273 41.472 
" style="fill:none;stroke:#000000;stroke-linecap:square;stroke-linejoin:miter;stroke-width:0.8;"/>
   </g>
  </g>
  <g id="axes_2">
   <g id="patch_7">
    <path d="M 252.392727 307.584 
L 414.72 307.584 
L 414.72 41.472 
L 252.392727 41.472 
z
" style="fill:#ffffff;"/>
   </g>
   <g id="matplotlib.axis_3">
    <g id="xtick_6">
     <g id="line2d_16">
      <g>
       <use style="stroke:#000000;stroke-width:0.8;" x="259.541782" xlink:href="#m166e0fa95e" y="307.584"/>
      </g>
     </g>
     <g id="text_13">
      <!-- 0.0 -->
      <g transform="translate(247.614438 325.981656)scale(0.15 -0.15)">
       <use xlink:href="#DejaVuSans-48"/>
       <use x="63.623047" xlink:href="#DejaVuSans-46"/>
       <use x="95.410156" xlink:href="#DejaVuSans-48"/>
      </g>
     </g>
    </g>
    <g id="xtick_7">
     <g id="line2d_17">
      <g>
       <use style="stroke:#000000;stroke-width:0.8;" x="333.441635" xlink:href="#m166e0fa95e" y="307.584"/>
      </g>
     </g>
     <g id="text_14">
      <!-- 0.5 -->
      <g transform="translate(321.514291 325.981656)scale(0.15 -0.15)">
       <use xlink:href="#DejaVuSans-48"/>
       <use x="63.623047" xlink:href="#DejaVuSans-46"/>
       <use x="95.410156" xlink:href="#DejaVuSans-53"/>
      </g>
     </g>
    </g>
    <g id="xtick_8">
     <g id="line2d_18">
      <g>
       <use style="stroke:#000000;stroke-width:0.8;" x="407.341488" xlink:href="#m166e0fa95e" y="307.584"/>
      </g>
     </g>
     <g id="text_15">
      <!-- 1.0 -->
      <g transform="translate(395.414144 325.981656)scale(0.15 -0.15)">
       <use xlink:href="#DejaVuSans-49"/>
       <use x="63.623047" xlink:href="#DejaVuSans-46"/>
       <use x="95.410156" xlink:href="#DejaVuSans-48"/>
      </g>
     </g>
    </g>
    <g id="text_16">
     <!-- CDF -->
     <defs>
      <path d="M 64.40625 67.28125 
L 64.40625 56.890625 
Q 59.421875 61.53125 53.78125 63.8125 
Q 48.140625 66.109375 41.796875 66.109375 
Q 29.296875 66.109375 22.65625 58.46875 
Q 16.015625 50.828125 16.015625 36.375 
Q 16.015625 21.96875 22.65625 14.328125 
Q 29.296875 6.6875 41.796875 6.6875 
Q 48.140625 6.6875 53.78125 8.984375 
Q 59.421875 11.28125 64.40625 15.921875 
L 64.40625 5.609375 
Q 59.234375 2.09375 53.4375 0.328125 
Q 47.65625 -1.421875 41.21875 -1.421875 
Q 24.65625 -1.421875 15.125 8.703125 
Q 5.609375 18.84375 5.609375 36.375 
Q 5.609375 53.953125 15.125 64.078125 
Q 24.65625 74.21875 41.21875 74.21875 
Q 47.75 74.21875 53.53125 72.484375 
Q 59.328125 70.75 64.40625 67.28125 
z
" id="DejaVuSans-67"/>
     </defs>
     <g transform="translate(316.187145 346.018531)scale(0.17 -0.17)">
      <use xlink:href="#DejaVuSans-67"/>
      <use x="69.824219" xlink:href="#DejaVuSans-68"/>
      <use x="146.826172" xlink:href="#DejaVuSans-70"/>
     </g>
    </g>
   </g>
   <g id="matplotlib.axis_4"/>
   <g id="line2d_19">
    <path clip-path="url(#p55405a250f)" d="M 259.985513 295.488 
L 260.441571 293.246796 
L 261.205776 291.005592 
L 261.834396 288.764388 
L 262.586276 286.523185 
L 263.436762 284.281981 
L 264.373529 282.040777 
L 265.236341 279.799573 
L 266.04985 277.558369 
L 267.122202 275.317165 
L 268.268509 273.075961 
L 269.439468 270.834757 
L 270.536472 268.593554 
L 271.83069 266.35235 
L 273.14956 264.111146 
L 274.579363 261.869942 
L 275.824278 259.628738 
L 277.266406 257.387534 
L 278.63458 255.14633 
L 279.978102 252.905127 
L 281.457208 250.663923 
L 282.960966 248.422719 
L 284.53868 246.181515 
L 286.239652 243.940311 
L 287.891321 241.699107 
L 289.530664 239.457903 
L 291.453502 237.216699 
L 293.511925 234.975496 
L 295.989428 232.734292 
L 298.479257 230.493088 
L 300.648613 228.251884 
L 302.69471 226.01068 
L 304.481964 223.769476 
L 306.367825 221.528272 
L 308.229034 219.287069 
L 309.880702 217.045865 
L 311.520045 214.804661 
L 313.504513 212.563457 
L 315.205485 210.322253 
L 317.152975 208.081049 
L 319.149769 205.839845 
L 321.18354 203.598642 
L 323.044749 201.357438 
L 325.066195 199.116234 
L 327.210899 196.87503 
L 329.293974 194.633826 
L 331.4017 192.392622 
L 333.460123 190.151418 
L 335.789716 187.910214 
L 338.439782 185.669011 
L 340.7817 183.427807 
L 343.456417 181.186603 
L 345.822988 178.945399 
L 348.608638 176.704195 
L 351.036838 174.462991 
L 353.588296 172.221787 
L 355.991844 169.980584 
L 358.518651 167.73938 
L 361.21802 165.498176 
L 364.21321 163.256972 
L 367.183749 161.015768 
L 369.932422 158.774564 
L 372.718072 156.53336 
L 375.676285 154.292156 
L 378.733105 152.050953 
L 381.703644 149.809749 
L 384.452316 147.568545 
L 386.892842 145.327341 
L 389.284064 143.086137 
L 391.502723 140.844933 
L 393.33928 138.603729 
L 394.818387 136.362526 
L 396.137257 134.121322 
L 397.591711 131.880118 
L 398.873604 129.638914 
L 399.958282 127.39771 
L 401.005982 125.156506 
L 401.794839 122.915302 
L 402.472762 120.674098 
L 403.052079 118.432895 
L 403.61907 116.191691 
L 404.161409 113.950487 
L 404.814681 111.709283 
L 405.332368 109.468079 
L 405.788426 107.226875 
L 406.170528 104.985671 
L 406.503327 102.744468 
L 406.762171 100.503264 
L 406.860778 98.26206 
L 406.922407 96.020856 
L 406.984037 93.779652 
L 407.082644 91.538448 
L 407.119622 89.297244 
L 407.181251 87.056041 
L 407.205903 84.814837 
L 407.230555 82.573633 
L 407.255206 80.332429 
L 407.292184 78.091225 
L 407.316836 75.850021 
L 407.341488 73.608817 
" style="fill:none;stroke:#5a0003;stroke-linecap:square;stroke-width:3;"/>
   </g>
   <g id="line2d_20">
    <path clip-path="url(#p55405a250f)" d="M 259.77124 295.488 
L 259.842945 293.727775 
L 259.871628 291.967551 
L 259.914651 290.207326 
L 260.058062 288.447101 
L 260.129768 286.686877 
L 260.201474 284.926652 
L 260.330544 283.166428 
L 260.416591 281.406203 
L 260.545661 279.645978 
L 260.775119 277.885754 
L 260.961554 276.125529 
L 261.162329 274.365304 
L 261.334423 272.60508 
L 261.578222 270.844855 
L 261.778998 269.084631 
L 262.094503 267.324406 
L 262.395667 265.564181 
L 262.768536 263.803957 
L 263.098382 262.043732 
L 263.485593 260.283507 
L 263.930168 258.523283 
L 264.546837 256.763058 
L 265.149164 255.002833 
L 265.679786 253.242609 
L 266.296455 251.482384 
L 266.927465 249.72216 
L 267.544133 247.961935 
L 268.246849 246.20171 
L 268.935223 244.441486 
L 269.494527 242.681261 
L 270.297631 240.921036 
L 270.856935 239.160812 
L 271.530968 237.400587 
L 272.391436 235.640363 
L 273.008104 233.880138 
L 273.825549 232.119913 
L 274.456559 230.359689 
L 275.159274 228.599464 
L 276.163154 226.839239 
L 276.994939 225.079015 
L 278.127889 223.31879 
L 279.447273 221.558566 
L 280.723633 219.798341 
L 281.827901 218.038116 
L 282.946509 216.277892 
L 283.964729 214.517667 
L 284.911244 212.757442 
L 285.900782 210.997218 
L 287.048073 209.236993 
L 288.15234 207.476768 
L 289.17056 205.716544 
L 290.346533 203.956319 
L 291.293048 202.196095 
L 292.899255 200.43587 
L 294.419415 198.675645 
L 295.638411 196.915421 
L 297.029501 195.155196 
L 298.377567 193.394971 
L 299.481834 191.634747 
L 300.772536 189.874522 
L 302.450448 188.114298 
L 304.056655 186.354073 
L 305.533792 184.593848 
L 306.896199 182.833624 
L 308.287289 181.073399 
L 309.707061 179.313174 
L 311.169857 177.55295 
L 313.148933 175.792725 
L 314.783822 174.0325 
L 316.347005 172.272276 
L 318.168329 170.512051 
L 319.545078 168.751827 
L 321.208649 166.991602 
L 323.488889 165.231377 
L 325.410601 163.471153 
L 327.260607 161.710928 
L 329.053248 159.950703 
L 331.032324 158.190479 
L 333.484658 156.430254 
L 335.621487 154.67003 
L 337.786998 152.909805 
L 339.895144 151.14958 
L 342.24709 149.389356 
L 345.04361 147.629131 
L 347.510285 145.868906 
L 350.048665 144.108682 
L 352.759139 142.348457 
L 355.856824 140.588232 
L 358.925826 138.828008 
L 362.13824 137.067783 
L 366.024686 135.307559 
L 369.925474 133.547334 
L 373.897968 131.787109 
L 378.300695 130.026885 
L 383.592573 128.26666 
L 389.701895 126.506435 
L 397.603859 124.746211 
L 407.341488 122.985986 
" style="fill:none;stroke:#ffcc7b;stroke-dasharray:1.5,2.475;stroke-dashoffset:0;stroke-width:1.5;"/>
   </g>
   <g id="line2d_21">
    <path clip-path="url(#p55405a250f)" d="M 259.83462 295.488 
L 259.862509 293.336005 
L 259.988011 291.18401 
L 260.099569 289.032015 
L 260.336629 286.880019 
L 260.69919 284.728024 
L 260.992029 282.576029 
L 261.326701 280.424034 
L 261.731097 278.272039 
L 262.163382 276.120044 
L 262.69328 273.968049 
L 263.13951 271.816053 
L 263.58574 269.664058 
L 264.213251 267.512063 
L 264.92443 265.360068 
L 265.607719 263.208073 
L 266.514124 261.056078 
L 267.434473 258.904083 
L 268.173541 256.752087 
L 269.079945 254.600092 
L 270.153686 252.448097 
L 271.129814 250.296102 
L 272.18961 248.144107 
L 273.360963 245.992112 
L 274.588096 243.840117 
L 275.675781 241.688121 
L 276.888968 239.536126 
L 278.241603 237.384131 
L 279.357178 235.232136 
L 280.58431 233.080141 
L 281.922999 230.928146 
L 283.275634 228.776151 
L 284.516711 226.624155 
L 285.799622 224.47216 
L 287.152256 222.320165 
L 288.267831 220.16817 
L 289.550742 218.016175 
L 291.18227 215.86418 
L 292.548849 213.712185 
L 294.124598 211.560189 
L 295.616679 209.408194 
L 297.025092 207.256199 
L 298.433505 205.104204 
L 299.967421 202.952209 
L 301.780229 200.800214 
L 303.425702 198.648219 
L 305.573184 196.496223 
L 307.49755 194.344228 
L 309.366138 192.192233 
L 311.402061 190.040238 
L 313.493764 187.888243 
L 315.780692 185.736248 
L 317.746893 183.584253 
L 319.782817 181.432257 
L 322.013966 179.280262 
L 324.342728 177.128267 
L 326.518099 174.976272 
L 328.805027 172.824277 
L 331.677632 170.672282 
L 334.229509 168.520287 
L 336.906889 166.368291 
L 340.044442 164.216296 
L 343.084384 162.064301 
L 346.11038 159.912306 
L 349.512883 157.760311 
L 352.831718 155.608316 
L 356.694395 153.456321 
L 360.501294 151.304325 
L 364.405805 149.15233 
L 368.101147 147.000335 
L 371.796488 144.84834 
L 375.784668 142.696345 
L 379.856515 140.54435 
L 383.426354 138.392355 
L 386.145568 136.240359 
L 389.534126 134.088364 
L 392.518288 131.936369 
L 395.181723 129.784374 
L 397.426817 127.632379 
L 399.462741 125.480384 
L 401.163993 123.328389 
L 402.697908 121.176393 
L 403.701925 119.024398 
L 404.803555 116.872403 
L 405.500789 114.720408 
L 406.198024 112.568413 
L 406.602419 110.416418 
L 406.81159 108.264423 
L 406.937092 106.112427 
L 407.062594 103.960432 
L 407.090483 101.808437 
L 407.132317 99.656442 
L 407.160207 97.504447 
L 407.202041 95.352452 
L 407.257819 93.200457 
L 407.285709 91.048461 
L 407.313598 88.896466 
L 407.313598 86.744471 
L 407.341488 84.592476 
" style="fill:none;stroke:#e6a346;stroke-dasharray:5.55,2.4;stroke-dashoffset:0;stroke-width:1.5;"/>
   </g>
   <g id="line2d_22">
    <path clip-path="url(#p55405a250f)" d="M 259.811567 295.488 
L 259.896762 293.440114 
L 260.038754 291.392228 
L 260.166547 289.344342 
L 260.322739 287.296456 
L 260.521528 285.24857 
L 260.762915 283.200684 
L 261.132094 281.152798 
L 261.430278 279.104912 
L 261.785259 277.057026 
L 262.140239 275.00914 
L 262.410024 272.961254 
L 262.722407 270.913368 
L 263.020591 268.865483 
L 263.418169 266.817597 
L 263.915142 264.769711 
L 264.284322 262.721825 
L 264.710299 260.673939 
L 265.264068 258.626053 
L 265.789439 256.578167 
L 266.343209 254.530281 
L 267.05317 252.482395 
L 267.748932 250.434509 
L 268.600885 248.386623 
L 269.509636 246.338737 
L 270.34739 244.290851 
L 271.213542 242.242965 
L 272.235886 240.195079 
L 273.102039 238.147193 
L 273.939793 236.099307 
L 274.777547 234.051421 
L 275.956083 232.003535 
L 276.964227 229.955649 
L 277.929775 227.907763 
L 279.008915 225.859877 
L 280.073857 223.811991 
L 281.082002 221.764105 
L 281.891358 219.716219 
L 283.041495 217.668333 
L 284.461417 215.620448 
L 285.710948 213.572562 
L 287.074074 211.524676 
L 288.252609 209.47679 
L 289.473742 207.428904 
L 290.964661 205.381018 
L 292.739564 203.333132 
L 294.500267 201.285246 
L 295.778197 199.23736 
L 297.027729 197.189474 
L 298.575444 195.141588 
L 300.421343 193.093702 
L 301.912261 191.045816 
L 303.545172 188.99793 
L 305.064489 186.950044 
L 306.853591 184.902158 
L 308.912478 182.854272 
L 310.687381 180.806386 
L 312.277694 178.7585 
L 314.208788 176.710614 
L 316.267675 174.662728 
L 318.056777 172.614842 
L 319.902676 170.566956 
L 322.38754 168.51907 
L 324.432228 166.471184 
L 326.491115 164.423299 
L 328.876585 162.375413 
L 331.049066 160.327527 
L 333.178949 158.279641 
L 336.26018 156.231755 
L 338.688247 154.183869 
L 341.130514 152.135983 
L 344.211745 150.088097 
L 346.923796 148.040211 
L 350.558797 145.992325 
L 354.222197 143.944439 
L 358.524561 141.896553 
L 363.551086 139.848667 
L 367.370677 137.800781 
L 371.346459 135.752895 
L 374.314096 133.705009 
L 377.622515 131.657123 
L 380.377164 129.609237 
L 383.20281 127.561351 
L 386.326638 125.513465 
L 389.720253 123.465579 
L 392.986074 121.417693 
L 395.996309 119.369807 
L 398.339181 117.321921 
L 401.09383 115.274035 
L 402.712541 113.226149 
L 403.777483 111.178264 
L 404.359651 109.130378 
L 404.657835 107.082492 
L 404.956018 105.034606 
L 405.254202 102.98672 
L 405.580784 100.938834 
L 405.878968 98.890948 
L 406.603128 96.843062 
L 407.341488 94.795176 
" style="fill:none;stroke:#b45a28;stroke-dasharray:9.6,2.4,1.5,2.4;stroke-dashoffset:0;stroke-width:1.5;"/>
   </g>
   <g id="line2d_23">
    <path clip-path="url(#p55405a250f)" d="M 259.881877 295.488 
L 260.051924 293.019429 
L 260.221972 290.550857 
L 260.590408 288.082286 
L 260.930504 285.613714 
L 261.383964 283.145143 
L 261.950789 280.676571 
L 262.545956 278.208 
L 263.339511 275.739429 
L 264.20392 273.270857 
L 264.940793 270.802286 
L 265.734348 268.333714 
L 266.428709 265.865143 
L 267.448995 263.396571 
L 268.398427 260.928 
L 269.404542 258.459429 
L 270.410657 255.990857 
L 271.58682 253.522286 
L 272.522082 251.053714 
L 273.655732 248.585143 
L 274.562653 246.116571 
L 275.61128 243.648 
L 276.858296 241.179429 
L 278.402895 238.710857 
L 279.777446 236.242286 
L 281.194509 233.773714 
L 282.526549 231.305143 
L 283.830247 228.836571 
L 285.275652 226.368 
L 286.621862 223.899429 
L 288.265655 221.430857 
L 289.852766 218.962286 
L 291.156465 216.493714 
L 292.701064 214.025143 
L 294.486563 211.556571 
L 295.846944 209.088 
L 297.703297 206.619429 
L 299.33292 204.150857 
L 300.90586 201.682286 
L 302.46463 199.213714 
L 304.278471 196.745143 
L 306.078142 194.276571 
L 308.005348 191.808 
L 310.031748 189.339429 
L 311.675542 186.870857 
L 313.588577 184.402286 
L 315.855879 181.933714 
L 317.995644 179.465143 
L 319.965362 176.996571 
L 322.16181 174.528 
L 324.457453 172.059429 
L 326.866461 169.590857 
L 329.204615 167.122286 
L 331.812012 164.653714 
L 334.929551 162.185143 
L 338.004579 159.716571 
L 341.292165 157.248 
L 344.267998 154.779429 
L 347.087955 152.310857 
L 350.021276 149.842286 
L 352.940426 147.373714 
L 355.476969 144.905143 
L 358.410291 142.436571 
L 361.471147 139.968 
L 364.772905 137.499429 
L 367.989639 135.030857 
L 371.248884 132.562286 
L 374.635666 130.093714 
L 377.526475 127.625143 
L 380.488137 125.156571 
L 382.755439 122.688 
L 385.093593 120.219429 
L 387.389236 117.750857 
L 389.769902 115.282286 
L 391.938009 112.813714 
L 393.709338 110.345143 
L 395.367302 107.876571 
L 396.982755 105.408 
L 398.640719 102.939429 
L 400.171147 100.470857 
L 401.545699 98.002286 
L 402.551814 95.533714 
L 403.543758 93.065143 
L 403.926365 90.596571 
L 404.096413 88.128 
L 404.422337 85.659429 
L 404.620726 83.190857 
L 404.875797 80.722286 
L 405.088357 78.253714 
L 405.244234 75.785143 
L 405.555988 73.316571 
L 405.768547 70.848 
L 405.995277 68.379429 
L 406.179496 65.910857 
L 406.448738 63.442286 
L 406.661297 60.973714 
L 406.873857 58.505143 
L 407.100587 56.036571 
L 407.341488 53.568 
" style="fill:none;stroke:#7d1e0b;stroke-linecap:square;stroke-width:1.5;"/>
   </g>
   <g id="patch_8">
    <path d="M 252.392727 307.584 
L 252.392727 41.472 
" style="fill:none;stroke:#000000;stroke-linecap:square;stroke-linejoin:miter;stroke-width:0.8;"/>
   </g>
   <g id="patch_9">
    <path d="M 414.72 307.584 
L 414.72 41.472 
" style="fill:none;stroke:#000000;stroke-linecap:square;stroke-linejoin:miter;stroke-width:0.8;"/>
   </g>
   <g id="patch_10">
    <path d="M 252.392727 307.584 
L 414.72 307.584 
" style="fill:none;stroke:#000000;stroke-linecap:square;stroke-linejoin:miter;stroke-width:0.8;"/>
   </g>
   <g id="patch_11">
    <path d="M 252.392727 41.472 
L 414.72 41.472 
" style="fill:none;stroke:#000000;stroke-linecap:square;stroke-linejoin:miter;stroke-width:0.8;"/>
   </g>
   <g id="legend_1">
    <g id="patch_12">
     <path d="M 261.492727 126.479813 
L 345.81804 126.479813 
Q 348.41804 126.479813 348.41804 123.879813 
L 348.41804 50.572 
Q 348.41804 47.972 345.81804 47.972 
L 261.492727 47.972 
Q 258.892727 47.972 258.892727 50.572 
L 258.892727 123.879813 
Q 258.892727 126.479813 261.492727 126.479813 
z
" style="fill:#ffffff;opacity:0.8;stroke:#cccccc;stroke-linejoin:miter;"/>
    </g>
    <g id="line2d_24">
     <path d="M 264.092727 58.499969 
L 290.092727 58.499969 
" style="fill:none;stroke:#5a0003;stroke-linecap:square;stroke-width:3;"/>
    </g>
    <g id="line2d_25"/>
    <g id="text_17">
     <!-- TS -->
     <defs>
      <path d="M -0.296875 72.90625 
L 61.375 72.90625 
L 61.375 64.59375 
L 35.5 64.59375 
L 35.5 0 
L 25.59375 0 
L 25.59375 64.59375 
L -0.296875 64.59375 
z
" id="DejaVuSans-84"/>
      <path d="M 53.515625 70.515625 
L 53.515625 60.890625 
Q 47.90625 63.578125 42.921875 64.890625 
Q 37.9375 66.21875 33.296875 66.21875 
Q 25.25 66.21875 20.875 63.09375 
Q 16.5 59.96875 16.5 54.203125 
Q 16.5 49.359375 19.40625 46.890625 
Q 22.3125 44.4375 30.421875 42.921875 
L 36.375 41.703125 
Q 47.40625 39.59375 52.65625 34.296875 
Q 57.90625 29 57.90625 20.125 
Q 57.90625 9.515625 50.796875 4.046875 
Q 43.703125 -1.421875 29.984375 -1.421875 
Q 24.8125 -1.421875 18.96875 -0.25 
Q 13.140625 0.921875 6.890625 3.21875 
L 6.890625 13.375 
Q 12.890625 10.015625 18.65625 8.296875 
Q 24.421875 6.59375 29.984375 6.59375 
Q 38.421875 6.59375 43.015625 9.90625 
Q 47.609375 13.234375 47.609375 19.390625 
Q 47.609375 24.75 44.3125 27.78125 
Q 41.015625 30.8125 33.5 32.328125 
L 27.484375 33.5 
Q 16.453125 35.6875 11.515625 40.375 
Q 6.59375 45.0625 6.59375 53.421875 
Q 6.59375 63.09375 13.40625 68.65625 
Q 20.21875 74.21875 32.171875 74.21875 
Q 37.3125 74.21875 42.625 73.28125 
Q 47.953125 72.359375 53.515625 70.515625 
z
" id="DejaVuSans-83"/>
     </defs>
     <g transform="translate(300.492727 63.049969)scale(0.13 -0.13)">
      <use xlink:href="#DejaVuSans-84"/>
      <use x="61.083984" xlink:href="#DejaVuSans-83"/>
     </g>
    </g>
    <g id="line2d_26">
     <path d="M 264.092727 72.381531 
L 290.092727 72.381531 
" style="fill:none;stroke:#ffcc7b;stroke-dasharray:1.5,2.475;stroke-dashoffset:0;stroke-width:1.5;"/>
    </g>
    <g id="line2d_27"/>
    <g id="text_18">
     <!-- RB, n0 -->
     <defs>
      <path d="M 44.390625 34.1875 
Q 47.5625 33.109375 50.5625 29.59375 
Q 53.5625 26.078125 56.59375 19.921875 
L 66.609375 0 
L 56 0 
L 46.6875 18.703125 
Q 43.0625 26.03125 39.671875 28.421875 
Q 36.28125 30.8125 30.421875 30.8125 
L 19.671875 30.8125 
L 19.671875 0 
L 9.8125 0 
L 9.8125 72.90625 
L 32.078125 72.90625 
Q 44.578125 72.90625 50.734375 67.671875 
Q 56.890625 62.453125 56.890625 51.90625 
Q 56.890625 45.015625 53.6875 40.46875 
Q 50.484375 35.9375 44.390625 34.1875 
z
M 19.671875 64.796875 
L 19.671875 38.921875 
L 32.078125 38.921875 
Q 39.203125 38.921875 42.84375 42.21875 
Q 46.484375 45.515625 46.484375 51.90625 
Q 46.484375 58.296875 42.84375 61.546875 
Q 39.203125 64.796875 32.078125 64.796875 
z
" id="DejaVuSans-82"/>
      <path d="M 19.671875 34.8125 
L 19.671875 8.109375 
L 35.5 8.109375 
Q 43.453125 8.109375 47.28125 11.40625 
Q 51.125 14.703125 51.125 21.484375 
Q 51.125 28.328125 47.28125 31.5625 
Q 43.453125 34.8125 35.5 34.8125 
z
M 19.671875 64.796875 
L 19.671875 42.828125 
L 34.28125 42.828125 
Q 41.5 42.828125 45.03125 45.53125 
Q 48.578125 48.25 48.578125 53.8125 
Q 48.578125 59.328125 45.03125 62.0625 
Q 41.5 64.796875 34.28125 64.796875 
z
M 9.8125 72.90625 
L 35.015625 72.90625 
Q 46.296875 72.90625 52.390625 68.21875 
Q 58.5 63.53125 58.5 54.890625 
Q 58.5 48.1875 55.375 44.234375 
Q 52.25 40.28125 46.1875 39.3125 
Q 53.46875 37.75 57.5 32.78125 
Q 61.53125 27.828125 61.53125 20.40625 
Q 61.53125 10.640625 54.890625 5.3125 
Q 48.25 0 35.984375 0 
L 9.8125 0 
z
" id="DejaVuSans-66"/>
      <path d="M 11.71875 12.40625 
L 22.015625 12.40625 
L 22.015625 4 
L 14.015625 -11.625 
L 7.71875 -11.625 
L 11.71875 4 
z
" id="DejaVuSans-44"/>
      <path d="M 54.890625 33.015625 
L 54.890625 0 
L 45.90625 0 
L 45.90625 32.71875 
Q 45.90625 40.484375 42.875 44.328125 
Q 39.84375 48.1875 33.796875 48.1875 
Q 26.515625 48.1875 22.3125 43.546875 
Q 18.109375 38.921875 18.109375 30.90625 
L 18.109375 0 
L 9.078125 0 
L 9.078125 54.6875 
L 18.109375 54.6875 
L 18.109375 46.1875 
Q 21.34375 51.125 25.703125 53.5625 
Q 30.078125 56 35.796875 56 
Q 45.21875 56 50.046875 50.171875 
Q 54.890625 44.34375 54.890625 33.015625 
z
" id="DejaVuSans-110"/>
     </defs>
     <g transform="translate(300.492727 76.931531)scale(0.13 -0.13)">
      <use xlink:href="#DejaVuSans-82"/>
      <use x="69.482422" xlink:href="#DejaVuSans-66"/>
      <use x="138.085938" xlink:href="#DejaVuSans-44"/>
      <use x="169.873047" xlink:href="#DejaVuSans-32"/>
      <use x="201.660156" xlink:href="#DejaVuSans-110"/>
      <use x="265.039062" xlink:href="#DejaVuSans-48"/>
     </g>
    </g>
    <g id="line2d_28">
     <path d="M 264.092727 86.263094 
L 290.092727 86.263094 
" style="fill:none;stroke:#e6a346;stroke-dasharray:5.55,2.4;stroke-dashoffset:0;stroke-width:1.5;"/>
    </g>
    <g id="line2d_29"/>
    <g id="text_19">
     <!-- RB, s0 -->
     <g transform="translate(300.492727 90.813094)scale(0.13 -0.13)">
      <use xlink:href="#DejaVuSans-82"/>
      <use x="69.482422" xlink:href="#DejaVuSans-66"/>
      <use x="138.085938" xlink:href="#DejaVuSans-44"/>
      <use x="169.873047" xlink:href="#DejaVuSans-32"/>
      <use x="201.660156" xlink:href="#DejaVuSans-115"/>
      <use x="253.759766" xlink:href="#DejaVuSans-48"/>
     </g>
    </g>
    <g id="line2d_30">
     <path d="M 264.092727 100.144656 
L 290.092727 100.144656 
" style="fill:none;stroke:#b45a28;stroke-dasharray:9.6,2.4,1.5,2.4;stroke-dashoffset:0;stroke-width:1.5;"/>
    </g>
    <g id="line2d_31"/>
    <g id="text_20">
     <!-- RB, s1 -->
     <g transform="translate(300.492727 104.694656)scale(0.13 -0.13)">
      <use xlink:href="#DejaVuSans-82"/>
      <use x="69.482422" xlink:href="#DejaVuSans-66"/>
      <use x="138.085938" xlink:href="#DejaVuSans-44"/>
      <use x="169.873047" xlink:href="#DejaVuSans-32"/>
      <use x="201.660156" xlink:href="#DejaVuSans-115"/>
      <use x="253.759766" xlink:href="#DejaVuSans-49"/>
     </g>
    </g>
    <g id="line2d_32">
     <path d="M 264.092727 114.026219 
L 290.092727 114.026219 
" style="fill:none;stroke:#7d1e0b;stroke-linecap:square;stroke-width:1.5;"/>
    </g>
    <g id="line2d_33"/>
    <g id="text_21">
     <!-- RB, s2 -->
     <g transform="translate(300.492727 118.576219)scale(0.13 -0.13)">
      <use xlink:href="#DejaVuSans-82"/>
      <use x="69.482422" xlink:href="#DejaVuSans-66"/>
      <use x="138.085938" xlink:href="#DejaVuSans-44"/>
      <use x="169.873047" xlink:href="#DejaVuSans-32"/>
      <use x="201.660156" xlink:href="#DejaVuSans-115"/>
      <use x="253.759766" xlink:href="#DejaVuSans-50"/>
     </g>
    </g>
   </g>
  </g>
 </g>
 <defs>
  <clipPath id="pdcb4f8bd33">
   <rect height="266.112" width="162.327273" x="57.6" y="41.472"/>
  </clipPath>
  <clipPath id="p55405a250f">
   <rect height="266.112" width="162.327273" x="252.392727" y="41.472"/>
  </clipPath>
 </defs>
</svg>
