<?xml version="1.0" encoding="utf-8" standalone="no"?>
<!DOCTYPE svg PUBLIC "-//W3C//DTD SVG 1.1//EN"
  "http://www.w3.org/Graphics/SVG/1.1/DTD/svg11.dtd">
<!-- Created with matplotlib (https://matplotlib.org/) -->
<svg height="345.6pt" version="1.1" viewBox="0 0 460.8 345.6" width="460.8pt" xmlns="http://www.w3.org/2000/svg" xmlns:xlink="http://www.w3.org/1999/xlink">
 <defs>
  <style type="text/css">
*{stroke-linecap:butt;stroke-linejoin:round;}
  </style>
 </defs>
 <g id="figure_1">
  <g id="patch_1">
   <path d="M 0 345.6 
L 460.8 345.6 
L 460.8 0 
L 0 0 
z
" style="fill:#ffffff;"/>
  </g>
  <g id="axes_1">
   <g id="patch_2">
    <path d="M 57.6 307.584 
L 219.927273 307.584 
L 219.927273 41.472 
L 57.6 41.472 
z
" style="fill:#ffffff;"/>
   </g>
   <g id="matplotlib.axis_1">
    <g id="xtick_1">
     <g id="line2d_1">
      <defs>
       <path d="M 0 0 
L 0 3.5 
" id="m4eb2bab407" style="stroke:#000000;stroke-width:0.8;"/>
      </defs>
      <g>
       <use style="stroke:#000000;stroke-width:0.8;" x="212.54876" xlink:href="#m4eb2bab407" y="307.584"/>
      </g>
     </g>
     <g id="text_1">
      <!-- 0 -->
      <defs>
       <path d="M 31.78125 66.40625 
Q 24.171875 66.40625 20.328125 58.90625 
Q 16.5 51.421875 16.5 36.375 
Q 16.5 21.390625 20.328125 13.890625 
Q 24.171875 6.390625 31.78125 6.390625 
Q 39.453125 6.390625 43.28125 13.890625 
Q 47.125 21.390625 47.125 36.375 
Q 47.125 51.421875 43.28125 58.90625 
Q 39.453125 66.40625 31.78125 66.40625 
z
M 31.78125 74.21875 
Q 44.046875 74.21875 50.515625 64.515625 
Q 56.984375 54.828125 56.984375 36.375 
Q 56.984375 17.96875 50.515625 8.265625 
Q 44.046875 -1.421875 31.78125 -1.421875 
Q 19.53125 -1.421875 13.0625 8.265625 
Q 6.59375 17.96875 6.59375 36.375 
Q 6.59375 54.828125 13.0625 64.515625 
Q 19.53125 74.21875 31.78125 74.21875 
z
" id="DejaVuSans-48"/>
      </defs>
      <g transform="translate(207.776885 325.981656)scale(0.15 -0.15)">
       <use xlink:href="#DejaVuSans-48"/>
      </g>
     </g>
    </g>
    <g id="xtick_2">
     <g id="line2d_2">
      <g>
       <use style="stroke:#000000;stroke-width:0.8;" x="155.529757" xlink:href="#m4eb2bab407" y="307.584"/>
      </g>
     </g>
     <g id="text_2">
      <!-- 5 -->
      <defs>
       <path d="M 10.796875 72.90625 
L 49.515625 72.90625 
L 49.515625 64.59375 
L 19.828125 64.59375 
L 19.828125 46.734375 
Q 21.96875 47.46875 24.109375 47.828125 
Q 26.265625 48.1875 28.421875 48.1875 
Q 40.625 48.1875 47.75 41.5 
Q 54.890625 34.8125 54.890625 23.390625 
Q 54.890625 11.625 47.5625 5.09375 
Q 40.234375 -1.421875 26.90625 -1.421875 
Q 22.3125 -1.421875 17.546875 -0.640625 
Q 12.796875 0.140625 7.71875 1.703125 
L 7.71875 11.625 
Q 12.109375 9.234375 16.796875 8.0625 
Q 21.484375 6.890625 26.703125 6.890625 
Q 35.15625 6.890625 40.078125 11.328125 
Q 45.015625 15.765625 45.015625 23.390625 
Q 45.015625 31 40.078125 35.4375 
Q 35.15625 39.890625 26.703125 39.890625 
Q 22.75 39.890625 18.8125 39.015625 
Q 14.890625 38.140625 10.796875 36.28125 
z
" id="DejaVuSans-53"/>
      </defs>
      <g transform="translate(150.757882 325.981656)scale(0.15 -0.15)">
       <use xlink:href="#DejaVuSans-53"/>
      </g>
     </g>
    </g>
    <g id="xtick_3">
     <g id="line2d_3">
      <g>
       <use style="stroke:#000000;stroke-width:0.8;" x="98.510754" xlink:href="#m4eb2bab407" y="307.584"/>
      </g>
     </g>
     <g id="text_3">
      <!-- 10 -->
      <defs>
       <path d="M 12.40625 8.296875 
L 28.515625 8.296875 
L 28.515625 63.921875 
L 10.984375 60.40625 
L 10.984375 69.390625 
L 28.421875 72.90625 
L 38.28125 72.90625 
L 38.28125 8.296875 
L 54.390625 8.296875 
L 54.390625 0 
L 12.40625 0 
z
" id="DejaVuSans-49"/>
      </defs>
      <g transform="translate(88.967004 325.981656)scale(0.15 -0.15)">
       <use xlink:href="#DejaVuSans-49"/>
       <use x="63.623047" xlink:href="#DejaVuSans-48"/>
      </g>
     </g>
    </g>
    <g id="text_4">
     <!-- PDF -->
     <defs>
      <path d="M 19.671875 64.796875 
L 19.671875 37.40625 
L 32.078125 37.40625 
Q 38.96875 37.40625 42.71875 40.96875 
Q 46.484375 44.53125 46.484375 51.125 
Q 46.484375 57.671875 42.71875 61.234375 
Q 38.96875 64.796875 32.078125 64.796875 
z
M 9.8125 72.90625 
L 32.078125 72.90625 
Q 44.34375 72.90625 50.609375 67.359375 
Q 56.890625 61.8125 56.890625 51.125 
Q 56.890625 40.328125 50.609375 34.8125 
Q 44.34375 29.296875 32.078125 29.296875 
L 19.671875 29.296875 
L 19.671875 0 
L 9.8125 0 
z
" id="DejaVuSans-80"/>
      <path d="M 19.671875 64.796875 
L 19.671875 8.109375 
L 31.59375 8.109375 
Q 46.6875 8.109375 53.6875 14.9375 
Q 60.6875 21.78125 60.6875 36.53125 
Q 60.6875 51.171875 53.6875 57.984375 
Q 46.6875 64.796875 31.59375 64.796875 
z
M 9.8125 72.90625 
L 30.078125 72.90625 
Q 51.265625 72.90625 61.171875 64.09375 
Q 71.09375 55.28125 71.09375 36.53125 
Q 71.09375 17.671875 61.125 8.828125 
Q 51.171875 0 30.078125 0 
L 9.8125 0 
z
" id="DejaVuSans-68"/>
      <path d="M 9.8125 72.90625 
L 51.703125 72.90625 
L 51.703125 64.59375 
L 19.671875 64.59375 
L 19.671875 43.109375 
L 48.578125 43.109375 
L 48.578125 34.8125 
L 19.671875 34.8125 
L 19.671875 0 
L 9.8125 0 
z
" id="DejaVuSans-70"/>
     </defs>
     <g transform="translate(122.204574 346.018531)scale(0.17 -0.17)">
      <use xlink:href="#DejaVuSans-80"/>
      <use x="60.302734" xlink:href="#DejaVuSans-68"/>
      <use x="137.304688" xlink:href="#DejaVuSans-70"/>
     </g>
    </g>
   </g>
   <g id="matplotlib.axis_2">
    <g id="ytick_1">
     <g id="line2d_4">
      <defs>
       <path d="M 0 0 
L -3.5 0 
" id="mfd0f3b1de5" style="stroke:#000000;stroke-width:0.8;"/>
      </defs>
      <g>
       <use style="stroke:#000000;stroke-width:0.8;" x="57.6" xlink:href="#mfd0f3b1de5" y="295.488"/>
      </g>
     </g>
     <g id="text_5">
      <!-- 0.0 -->
      <defs>
       <path d="M 10.6875 12.40625 
L 21 12.40625 
L 21 0 
L 10.6875 0 
z
" id="DejaVuSans-46"/>
      </defs>
      <g transform="translate(26.745313 301.186828)scale(0.15 -0.15)">
       <use xlink:href="#DejaVuSans-48"/>
       <use x="63.623047" xlink:href="#DejaVuSans-46"/>
       <use x="95.410156" xlink:href="#DejaVuSans-48"/>
      </g>
     </g>
    </g>
    <g id="ytick_2">
     <g id="line2d_5">
      <g>
       <use style="stroke:#000000;stroke-width:0.8;" x="57.6" xlink:href="#mfd0f3b1de5" y="263.184265"/>
      </g>
     </g>
     <g id="text_6">
      <!-- 0.1 -->
      <g transform="translate(26.745313 268.883093)scale(0.15 -0.15)">
       <use xlink:href="#DejaVuSans-48"/>
       <use x="63.623047" xlink:href="#DejaVuSans-46"/>
       <use x="95.410156" xlink:href="#DejaVuSans-49"/>
      </g>
     </g>
    </g>
    <g id="ytick_3">
     <g id="line2d_6">
      <g>
       <use style="stroke:#000000;stroke-width:0.8;" x="57.6" xlink:href="#mfd0f3b1de5" y="230.88053"/>
      </g>
     </g>
     <g id="text_7">
      <!-- 0.2 -->
      <defs>
       <path d="M 19.1875 8.296875 
L 53.609375 8.296875 
L 53.609375 0 
L 7.328125 0 
L 7.328125 8.296875 
Q 12.9375 14.109375 22.625 23.890625 
Q 32.328125 33.6875 34.8125 36.53125 
Q 39.546875 41.84375 41.421875 45.53125 
Q 43.3125 49.21875 43.3125 52.78125 
Q 43.3125 58.59375 39.234375 62.25 
Q 35.15625 65.921875 28.609375 65.921875 
Q 23.96875 65.921875 18.8125 64.3125 
Q 13.671875 62.703125 7.8125 59.421875 
L 7.8125 69.390625 
Q 13.765625 71.78125 18.9375 73 
Q 24.125 74.21875 28.421875 74.21875 
Q 39.75 74.21875 46.484375 68.546875 
Q 53.21875 62.890625 53.21875 53.421875 
Q 53.21875 48.921875 51.53125 44.890625 
Q 49.859375 40.875 45.40625 35.40625 
Q 44.1875 33.984375 37.640625 27.21875 
Q 31.109375 20.453125 19.1875 8.296875 
z
" id="DejaVuSans-50"/>
      </defs>
      <g transform="translate(26.745313 236.579358)scale(0.15 -0.15)">
       <use xlink:href="#DejaVuSans-48"/>
       <use x="63.623047" xlink:href="#DejaVuSans-46"/>
       <use x="95.410156" xlink:href="#DejaVuSans-50"/>
      </g>
     </g>
    </g>
    <g id="ytick_4">
     <g id="line2d_7">
      <g>
       <use style="stroke:#000000;stroke-width:0.8;" x="57.6" xlink:href="#mfd0f3b1de5" y="198.576795"/>
      </g>
     </g>
     <g id="text_8">
      <!-- 0.3 -->
      <defs>
       <path d="M 40.578125 39.3125 
Q 47.65625 37.796875 51.625 33 
Q 55.609375 28.21875 55.609375 21.1875 
Q 55.609375 10.40625 48.1875 4.484375 
Q 40.765625 -1.421875 27.09375 -1.421875 
Q 22.515625 -1.421875 17.65625 -0.515625 
Q 12.796875 0.390625 7.625 2.203125 
L 7.625 11.71875 
Q 11.71875 9.328125 16.59375 8.109375 
Q 21.484375 6.890625 26.8125 6.890625 
Q 36.078125 6.890625 40.9375 10.546875 
Q 45.796875 14.203125 45.796875 21.1875 
Q 45.796875 27.640625 41.28125 31.265625 
Q 36.765625 34.90625 28.71875 34.90625 
L 20.21875 34.90625 
L 20.21875 43.015625 
L 29.109375 43.015625 
Q 36.375 43.015625 40.234375 45.921875 
Q 44.09375 48.828125 44.09375 54.296875 
Q 44.09375 59.90625 40.109375 62.90625 
Q 36.140625 65.921875 28.71875 65.921875 
Q 24.65625 65.921875 20.015625 65.03125 
Q 15.375 64.15625 9.8125 62.3125 
L 9.8125 71.09375 
Q 15.4375 72.65625 20.34375 73.4375 
Q 25.25 74.21875 29.59375 74.21875 
Q 40.828125 74.21875 47.359375 69.109375 
Q 53.90625 64.015625 53.90625 55.328125 
Q 53.90625 49.265625 50.4375 45.09375 
Q 46.96875 40.921875 40.578125 39.3125 
z
" id="DejaVuSans-51"/>
      </defs>
      <g transform="translate(26.745313 204.275623)scale(0.15 -0.15)">
       <use xlink:href="#DejaVuSans-48"/>
       <use x="63.623047" xlink:href="#DejaVuSans-46"/>
       <use x="95.410156" xlink:href="#DejaVuSans-51"/>
      </g>
     </g>
    </g>
    <g id="ytick_5">
     <g id="line2d_8">
      <g>
       <use style="stroke:#000000;stroke-width:0.8;" x="57.6" xlink:href="#mfd0f3b1de5" y="166.27306"/>
      </g>
     </g>
     <g id="text_9">
      <!-- 0.4 -->
      <defs>
       <path d="M 37.796875 64.3125 
L 12.890625 25.390625 
L 37.796875 25.390625 
z
M 35.203125 72.90625 
L 47.609375 72.90625 
L 47.609375 25.390625 
L 58.015625 25.390625 
L 58.015625 17.1875 
L 47.609375 17.1875 
L 47.609375 0 
L 37.796875 0 
L 37.796875 17.1875 
L 4.890625 17.1875 
L 4.890625 26.703125 
z
" id="DejaVuSans-52"/>
      </defs>
      <g transform="translate(26.745313 171.971888)scale(0.15 -0.15)">
       <use xlink:href="#DejaVuSans-48"/>
       <use x="63.623047" xlink:href="#DejaVuSans-46"/>
       <use x="95.410156" xlink:href="#DejaVuSans-52"/>
      </g>
     </g>
    </g>
    <g id="ytick_6">
     <g id="line2d_9">
      <g>
       <use style="stroke:#000000;stroke-width:0.8;" x="57.6" xlink:href="#mfd0f3b1de5" y="133.969325"/>
      </g>
     </g>
     <g id="text_10">
      <!-- 0.5 -->
      <g transform="translate(26.745313 139.668153)scale(0.15 -0.15)">
       <use xlink:href="#DejaVuSans-48"/>
       <use x="63.623047" xlink:href="#DejaVuSans-46"/>
       <use x="95.410156" xlink:href="#DejaVuSans-53"/>
      </g>
     </g>
    </g>
    <g id="ytick_7">
     <g id="line2d_10">
      <g>
       <use style="stroke:#000000;stroke-width:0.8;" x="57.6" xlink:href="#mfd0f3b1de5" y="101.66559"/>
      </g>
     </g>
     <g id="text_11">
      <!-- 0.6 -->
      <defs>
       <path d="M 33.015625 40.375 
Q 26.375 40.375 22.484375 35.828125 
Q 18.609375 31.296875 18.609375 23.390625 
Q 18.609375 15.53125 22.484375 10.953125 
Q 26.375 6.390625 33.015625 6.390625 
Q 39.65625 6.390625 43.53125 10.953125 
Q 47.40625 15.53125 47.40625 23.390625 
Q 47.40625 31.296875 43.53125 35.828125 
Q 39.65625 40.375 33.015625 40.375 
z
M 52.59375 71.296875 
L 52.59375 62.3125 
Q 48.875 64.0625 45.09375 64.984375 
Q 41.3125 65.921875 37.59375 65.921875 
Q 27.828125 65.921875 22.671875 59.328125 
Q 17.53125 52.734375 16.796875 39.40625 
Q 19.671875 43.65625 24.015625 45.921875 
Q 28.375 48.1875 33.59375 48.1875 
Q 44.578125 48.1875 50.953125 41.515625 
Q 57.328125 34.859375 57.328125 23.390625 
Q 57.328125 12.15625 50.6875 5.359375 
Q 44.046875 -1.421875 33.015625 -1.421875 
Q 20.359375 -1.421875 13.671875 8.265625 
Q 6.984375 17.96875 6.984375 36.375 
Q 6.984375 53.65625 15.1875 63.9375 
Q 23.390625 74.21875 37.203125 74.21875 
Q 40.921875 74.21875 44.703125 73.484375 
Q 48.484375 72.75 52.59375 71.296875 
z
" id="DejaVuSans-54"/>
      </defs>
      <g transform="translate(26.745313 107.364418)scale(0.15 -0.15)">
       <use xlink:href="#DejaVuSans-48"/>
       <use x="63.623047" xlink:href="#DejaVuSans-46"/>
       <use x="95.410156" xlink:href="#DejaVuSans-54"/>
      </g>
     </g>
    </g>
    <g id="ytick_8">
     <g id="line2d_11">
      <g>
       <use style="stroke:#000000;stroke-width:0.8;" x="57.6" xlink:href="#mfd0f3b1de5" y="69.361855"/>
      </g>
     </g>
     <g id="text_12">
      <!-- 0.7 -->
      <defs>
       <path d="M 8.203125 72.90625 
L 55.078125 72.90625 
L 55.078125 68.703125 
L 28.609375 0 
L 18.3125 0 
L 43.21875 64.59375 
L 8.203125 64.59375 
z
" id="DejaVuSans-55"/>
      </defs>
      <g transform="translate(26.745313 75.060683)scale(0.15 -0.15)">
       <use xlink:href="#DejaVuSans-48"/>
       <use x="63.623047" xlink:href="#DejaVuSans-46"/>
       <use x="95.410156" xlink:href="#DejaVuSans-55"/>
      </g>
     </g>
    </g>
    <g id="text_13">
     <!-- Velocity (m/s) -->
     <defs>
      <path d="M 28.609375 0 
L 0.78125 72.90625 
L 11.078125 72.90625 
L 34.1875 11.53125 
L 57.328125 72.90625 
L 67.578125 72.90625 
L 39.796875 0 
z
" id="DejaVuSans-86"/>
      <path d="M 56.203125 29.59375 
L 56.203125 25.203125 
L 14.890625 25.203125 
Q 15.484375 15.921875 20.484375 11.0625 
Q 25.484375 6.203125 34.421875 6.203125 
Q 39.59375 6.203125 44.453125 7.46875 
Q 49.3125 8.734375 54.109375 11.28125 
L 54.109375 2.78125 
Q 49.265625 0.734375 44.1875 -0.34375 
Q 39.109375 -1.421875 33.890625 -1.421875 
Q 20.796875 -1.421875 13.15625 6.1875 
Q 5.515625 13.8125 5.515625 26.8125 
Q 5.515625 40.234375 12.765625 48.109375 
Q 20.015625 56 32.328125 56 
Q 43.359375 56 49.78125 48.890625 
Q 56.203125 41.796875 56.203125 29.59375 
z
M 47.21875 32.234375 
Q 47.125 39.59375 43.09375 43.984375 
Q 39.0625 48.390625 32.421875 48.390625 
Q 24.90625 48.390625 20.390625 44.140625 
Q 15.875 39.890625 15.1875 32.171875 
z
" id="DejaVuSans-101"/>
      <path d="M 9.421875 75.984375 
L 18.40625 75.984375 
L 18.40625 0 
L 9.421875 0 
z
" id="DejaVuSans-108"/>
      <path d="M 30.609375 48.390625 
Q 23.390625 48.390625 19.1875 42.75 
Q 14.984375 37.109375 14.984375 27.296875 
Q 14.984375 17.484375 19.15625 11.84375 
Q 23.34375 6.203125 30.609375 6.203125 
Q 37.796875 6.203125 41.984375 11.859375 
Q 46.1875 17.53125 46.1875 27.296875 
Q 46.1875 37.015625 41.984375 42.703125 
Q 37.796875 48.390625 30.609375 48.390625 
z
M 30.609375 56 
Q 42.328125 56 49.015625 48.375 
Q 55.71875 40.765625 55.71875 27.296875 
Q 55.71875 13.875 49.015625 6.21875 
Q 42.328125 -1.421875 30.609375 -1.421875 
Q 18.84375 -1.421875 12.171875 6.21875 
Q 5.515625 13.875 5.515625 27.296875 
Q 5.515625 40.765625 12.171875 48.375 
Q 18.84375 56 30.609375 56 
z
" id="DejaVuSans-111"/>
      <path d="M 48.78125 52.59375 
L 48.78125 44.1875 
Q 44.96875 46.296875 41.140625 47.34375 
Q 37.3125 48.390625 33.40625 48.390625 
Q 24.65625 48.390625 19.8125 42.84375 
Q 14.984375 37.3125 14.984375 27.296875 
Q 14.984375 17.28125 19.8125 11.734375 
Q 24.65625 6.203125 33.40625 6.203125 
Q 37.3125 6.203125 41.140625 7.25 
Q 44.96875 8.296875 48.78125 10.40625 
L 48.78125 2.09375 
Q 45.015625 0.34375 40.984375 -0.53125 
Q 36.96875 -1.421875 32.421875 -1.421875 
Q 20.0625 -1.421875 12.78125 6.34375 
Q 5.515625 14.109375 5.515625 27.296875 
Q 5.515625 40.671875 12.859375 48.328125 
Q 20.21875 56 33.015625 56 
Q 37.15625 56 41.109375 55.140625 
Q 45.0625 54.296875 48.78125 52.59375 
z
" id="DejaVuSans-99"/>
      <path d="M 9.421875 54.6875 
L 18.40625 54.6875 
L 18.40625 0 
L 9.421875 0 
z
M 9.421875 75.984375 
L 18.40625 75.984375 
L 18.40625 64.59375 
L 9.421875 64.59375 
z
" id="DejaVuSans-105"/>
      <path d="M 18.3125 70.21875 
L 18.3125 54.6875 
L 36.8125 54.6875 
L 36.8125 47.703125 
L 18.3125 47.703125 
L 18.3125 18.015625 
Q 18.3125 11.328125 20.140625 9.421875 
Q 21.96875 7.515625 27.59375 7.515625 
L 36.8125 7.515625 
L 36.8125 0 
L 27.59375 0 
Q 17.1875 0 13.234375 3.875 
Q 9.28125 7.765625 9.28125 18.015625 
L 9.28125 47.703125 
L 2.6875 47.703125 
L 2.6875 54.6875 
L 9.28125 54.6875 
L 9.28125 70.21875 
z
" id="DejaVuSans-116"/>
      <path d="M 32.171875 -5.078125 
Q 28.375 -14.84375 24.75 -17.8125 
Q 21.140625 -20.796875 15.09375 -20.796875 
L 7.90625 -20.796875 
L 7.90625 -13.28125 
L 13.1875 -13.28125 
Q 16.890625 -13.28125 18.9375 -11.515625 
Q 21 -9.765625 23.484375 -3.21875 
L 25.09375 0.875 
L 2.984375 54.6875 
L 12.5 54.6875 
L 29.59375 11.921875 
L 46.6875 54.6875 
L 56.203125 54.6875 
z
" id="DejaVuSans-121"/>
      <path id="DejaVuSans-32"/>
      <path d="M 31 75.875 
Q 24.46875 64.65625 21.28125 53.65625 
Q 18.109375 42.671875 18.109375 31.390625 
Q 18.109375 20.125 21.3125 9.0625 
Q 24.515625 -2 31 -13.1875 
L 23.1875 -13.1875 
Q 15.875 -1.703125 12.234375 9.375 
Q 8.59375 20.453125 8.59375 31.390625 
Q 8.59375 42.28125 12.203125 53.3125 
Q 15.828125 64.359375 23.1875 75.875 
z
" id="DejaVuSans-40"/>
      <path d="M 52 44.1875 
Q 55.375 50.25 60.0625 53.125 
Q 64.75 56 71.09375 56 
Q 79.640625 56 84.28125 50.015625 
Q 88.921875 44.046875 88.921875 33.015625 
L 88.921875 0 
L 79.890625 0 
L 79.890625 32.71875 
Q 79.890625 40.578125 77.09375 44.375 
Q 74.3125 48.1875 68.609375 48.1875 
Q 61.625 48.1875 57.5625 43.546875 
Q 53.515625 38.921875 53.515625 30.90625 
L 53.515625 0 
L 44.484375 0 
L 44.484375 32.71875 
Q 44.484375 40.625 41.703125 44.40625 
Q 38.921875 48.1875 33.109375 48.1875 
Q 26.21875 48.1875 22.15625 43.53125 
Q 18.109375 38.875 18.109375 30.90625 
L 18.109375 0 
L 9.078125 0 
L 9.078125 54.6875 
L 18.109375 54.6875 
L 18.109375 46.1875 
Q 21.1875 51.21875 25.484375 53.609375 
Q 29.78125 56 35.6875 56 
Q 41.65625 56 45.828125 52.96875 
Q 50 49.953125 52 44.1875 
z
" id="DejaVuSans-109"/>
      <path d="M 25.390625 72.90625 
L 33.6875 72.90625 
L 8.296875 -9.28125 
L 0 -9.28125 
z
" id="DejaVuSans-47"/>
      <path d="M 44.28125 53.078125 
L 44.28125 44.578125 
Q 40.484375 46.53125 36.375 47.5 
Q 32.28125 48.484375 27.875 48.484375 
Q 21.1875 48.484375 17.84375 46.4375 
Q 14.5 44.390625 14.5 40.28125 
Q 14.5 37.15625 16.890625 35.375 
Q 19.28125 33.59375 26.515625 31.984375 
L 29.59375 31.296875 
Q 39.15625 29.25 43.1875 25.515625 
Q 47.21875 21.78125 47.21875 15.09375 
Q 47.21875 7.46875 41.1875 3.015625 
Q 35.15625 -1.421875 24.609375 -1.421875 
Q 20.21875 -1.421875 15.453125 -0.5625 
Q 10.6875 0.296875 5.421875 2 
L 5.421875 11.28125 
Q 10.40625 8.6875 15.234375 7.390625 
Q 20.0625 6.109375 24.8125 6.109375 
Q 31.15625 6.109375 34.5625 8.28125 
Q 37.984375 10.453125 37.984375 14.40625 
Q 37.984375 18.0625 35.515625 20.015625 
Q 33.0625 21.96875 24.703125 23.78125 
L 21.578125 24.515625 
Q 13.234375 26.265625 9.515625 29.90625 
Q 5.8125 33.546875 5.8125 39.890625 
Q 5.8125 47.609375 11.28125 51.796875 
Q 16.75 56 26.8125 56 
Q 31.78125 56 36.171875 55.265625 
Q 40.578125 54.546875 44.28125 53.078125 
z
" id="DejaVuSans-115"/>
      <path d="M 8.015625 75.875 
L 15.828125 75.875 
Q 23.140625 64.359375 26.78125 53.3125 
Q 30.421875 42.28125 30.421875 31.390625 
Q 30.421875 20.453125 26.78125 9.375 
Q 23.140625 -1.703125 15.828125 -13.1875 
L 8.015625 -13.1875 
Q 14.5 -2 17.703125 9.0625 
Q 20.90625 20.125 20.90625 31.390625 
Q 20.90625 42.671875 17.703125 53.65625 
Q 14.5 64.65625 8.015625 75.875 
z
" id="DejaVuSans-41"/>
     </defs>
     <g transform="translate(19.209844 232.779562)rotate(-90)scale(0.17 -0.17)">
      <use xlink:href="#DejaVuSans-86"/>
      <use x="60.658203" xlink:href="#DejaVuSans-101"/>
      <use x="122.181641" xlink:href="#DejaVuSans-108"/>
      <use x="149.964844" xlink:href="#DejaVuSans-111"/>
      <use x="211.146484" xlink:href="#DejaVuSans-99"/>
      <use x="266.126953" xlink:href="#DejaVuSans-105"/>
      <use x="293.910156" xlink:href="#DejaVuSans-116"/>
      <use x="333.119141" xlink:href="#DejaVuSans-121"/>
      <use x="392.298828" xlink:href="#DejaVuSans-32"/>
      <use x="424.085938" xlink:href="#DejaVuSans-40"/>
      <use x="463.099609" xlink:href="#DejaVuSans-109"/>
      <use x="560.511719" xlink:href="#DejaVuSans-47"/>
      <use x="594.203125" xlink:href="#DejaVuSans-115"/>
      <use x="646.302734" xlink:href="#DejaVuSans-41"/>
     </g>
    </g>
   </g>
   <g id="line2d_12">
    <path clip-path="url(#p4d0663f1b7)" d="M 207.427344 295.488 
L 204.051865 294.111881 
L 201.141969 292.735762 
L 202.073136 291.359643 
L 200.792782 289.983524 
L 199.279636 288.607405 
L 200.327198 287.231286 
L 196.36974 285.855167 
L 197.650094 284.479048 
L 196.020553 283.102929 
L 199.861615 281.72681 
L 199.628823 280.350691 
L 198.464865 278.974572 
L 197.184511 277.598453 
L 199.512428 276.222334 
L 199.396032 274.846215 
L 199.978011 273.470096 
L 198.581261 272.093977 
L 200.327198 270.717858 
L 200.443594 269.341739 
L 199.512428 267.96562 
L 198.697657 266.589501 
L 197.882886 265.213382 
L 201.607552 263.837263 
L 199.512428 262.461144 
L 199.279636 261.085025 
L 197.76649 259.708906 
L 201.025573 258.332787 
L 195.438574 256.956668 
L 196.36974 255.580549 
L 197.533698 254.20443 
L 196.835323 252.828311 
L 194.623803 251.452192 
L 197.068115 250.076074 
L 197.417303 248.699955 
L 194.041824 247.323836 
L 195.787761 245.947717 
L 193.692636 244.571598 
L 194.97299 243.195479 
L 193.227053 241.81936 
L 195.438574 240.443241 
L 192.761469 239.067122 
L 189.735178 237.691003 
L 192.877865 236.314884 
L 191.946699 234.938765 
L 190.78274 233.562646 
L 189.38599 232.186527 
L 187.290866 230.810408 
L 188.105636 229.434289 
L 188.687615 228.05817 
L 185.77772 226.682051 
L 183.915386 225.305932 
L 185.079345 223.929813 
L 183.915386 222.553694 
L 183.915386 221.177575 
L 180.656303 219.801456 
L 180.889095 218.425337 
L 176.00047 217.049218 
L 175.418491 215.673099 
L 176.698845 214.29698 
L 174.138137 212.920861 
L 170.529866 211.544742 
L 165.524846 210.168623 
L 164.244491 208.792504 
L 159.472262 207.416385 
L 136.542284 206.040266 
L 132.352034 204.664147 
L 117.336972 203.288028 
L 124.902701 201.911909 
L 156.213179 200.53579 
L 165.40845 199.159671 
L 176.116866 197.783552 
L 173.323366 196.407433 
L 174.60372 195.031314 
L 172.159408 193.655195 
L 172.974179 192.279076 
L 172.043012 190.902957 
L 169.947887 189.526838 
L 165.757637 188.150719 
L 167.270783 186.7746 
L 161.2182 185.398481 
L 157.959117 184.022362 
L 165.292054 182.646243 
L 166.456012 181.270124 
L 176.349658 179.894005 
L 179.259553 178.517886 
L 179.375949 177.141767 
L 181.471074 175.765648 
L 176.349658 174.389529 
L 175.767678 173.01341 
L 182.053053 171.637291 
L 196.136948 170.261172 
L 200.909177 168.885053 
L 201.141969 167.508934 
L 201.840344 166.132815 
L 199.16324 164.756696 
L 196.36974 163.380577 
L 192.528678 162.004458 
L 204.75024 160.628339 
" style="fill:none;stroke:#5a0003;stroke-linecap:square;stroke-width:3;"/>
   </g>
   <g id="line2d_13">
    <path clip-path="url(#p4d0663f1b7)" d="M 212.54876 295.488 
L 212.54876 293.569945 
L 212.54876 291.65189 
L 212.469972 289.733835 
L 212.469972 287.81578 
L 212.391184 285.897725 
L 212.54876 283.97967 
L 212.469972 282.061615 
L 212.391184 280.14356 
L 212.233608 278.225504 
L 212.154819 276.307449 
L 211.997243 274.389394 
L 211.839667 272.471339 
L 211.524514 270.553284 
L 211.603302 268.635229 
L 211.524514 266.717174 
L 210.894209 264.799119 
L 209.948751 262.881064 
L 209.791174 260.963009 
L 210.342691 259.044954 
L 210.972997 257.126899 
L 209.869962 255.208844 
L 209.633598 253.290789 
L 210.106327 251.372734 
L 209.55481 249.454679 
L 210.185115 247.536624 
L 210.500268 245.618569 
L 209.791174 243.700513 
L 209.476022 241.782458 
L 209.003293 239.864403 
L 208.766928 237.946348 
L 207.585105 236.028293 
L 205.851766 234.110238 
L 206.403283 232.192183 
L 205.457825 230.274128 
L 205.379037 228.356073 
L 205.930554 226.438018 
L 204.827519 224.519963 
L 205.615401 222.601908 
L 205.300248 220.683853 
L 205.379037 218.765798 
L 203.960849 216.847743 
L 204.827519 214.929688 
L 204.591155 213.011633 
L 205.615401 211.093577 
L 203.645697 209.175522 
L 203.645697 207.257467 
L 204.669943 205.339412 
L 205.063884 203.421357 
L 202.306298 201.503302 
L 204.433579 199.585247 
L 201.439628 197.667192 
L 202.385086 195.749137 
L 201.833569 193.831082 
L 200.49417 191.913027 
L 198.288101 189.994972 
L 198.366889 188.076917 
L 197.02749 186.158862 
L 196.082032 184.240807 
L 194.348692 182.322752 
L 192.615353 180.404697 
L 190.094131 178.486641 
L 186.391087 176.568586 
L 183.791077 174.650531 
L 176.700142 172.732476 
L 166.694044 170.814421 
L 149.912163 168.896366 
L 108.312008 166.978311 
L 72.85733 165.060256 
L 80.342206 163.142201 
L 123.990854 161.224146 
L 134.233316 159.306091 
L 154.245512 157.388036 
L 152.039444 155.469981 
L 164.881916 153.551926 
L 166.221315 151.633871 
L 167.954654 149.715816 
L 163.463729 147.797761 
L 153.457631 145.879706 
L 101.378648 143.96165 
L 64.978512 142.043595 
L 169.057689 140.12554 
L 187.178969 138.207485 
L 190.882013 136.28943 
L 193.797175 134.371375 
L 196.239609 132.45332 
L 194.506269 130.535265 
L 200.415382 128.61721 
L 199.469924 126.699155 
L 204.512367 124.7811 
L 207.506317 122.863045 
L 208.845716 120.94499 
L 209.712386 119.026935 
L 210.815421 117.10888 
L 211.839667 115.190825 
L 211.839667 113.27277 
L 211.760879 111.354714 
L 211.918455 109.436659 
L 211.997243 107.518604 
" style="fill:none;stroke:#ffcc7b;stroke-dasharray:1.5,2.475;stroke-dashoffset:0;stroke-width:1.5;"/>
   </g>
   <g id="line2d_14">
    <path clip-path="url(#p4d0663f1b7)" d="M 212.54876 295.488 
L 212.54876 293.570839 
L 212.54876 291.653678 
L 212.54876 289.736517 
L 212.54876 287.819356 
L 212.470386 285.902196 
L 212.392011 283.985035 
L 212.392011 282.067874 
L 212.313636 280.150713 
L 212.235261 278.233552 
L 212.156886 276.316391 
L 211.921762 274.39923 
L 211.451513 272.482069 
L 210.981264 270.564909 
L 211.451513 268.647748 
L 210.74614 266.730587 
L 210.511015 264.813426 
L 209.335393 262.896265 
L 209.962392 260.979104 
L 209.884017 259.061943 
L 211.059639 257.144782 
L 210.824515 255.227622 
L 210.58939 253.310461 
L 209.805642 251.3933 
L 209.962392 249.476139 
L 209.570518 247.558978 
L 209.727267 245.641817 
L 209.805642 243.724656 
L 209.413768 241.807495 
L 206.8274 239.890335 
L 207.532773 237.973174 
L 207.689522 236.056013 
L 206.278776 234.138852 
L 207.376023 232.221691 
L 206.435526 230.30453 
L 206.67065 228.387369 
L 206.200401 226.470208 
L 205.886902 224.553048 
L 205.181529 222.635887 
L 204.946404 220.718726 
L 205.573403 218.801565 
L 204.397781 216.884404 
L 204.632905 214.967243 
L 205.495028 213.050082 
L 205.651778 211.132921 
L 204.319406 209.215761 
L 203.457283 207.2986 
L 201.497913 205.381439 
L 203.222159 203.464278 
L 203.378908 201.547117 
L 201.497913 199.629956 
L 200.557415 197.712795 
L 200.714165 195.795634 
L 199.068294 193.878474 
L 197.971047 191.961313 
L 196.5603 190.044152 
L 193.817182 188.126991 
L 191.701062 186.20983 
L 190.52544 184.292669 
L 195.541428 182.375508 
L 194.522555 180.458347 
L 193.973932 178.541186 
L 192.014562 176.624026 
L 191.309188 174.706865 
L 188.644445 172.789704 
L 185.352703 170.872543 
L 181.904212 168.955382 
L 175.320728 167.038221 
L 166.621125 165.12106 
L 144.441055 163.203899 
L 88.638194 161.286739 
L 74.765854 159.369578 
L 115.207253 157.452417 
L 142.56006 155.535256 
L 153.610907 153.618095 
L 158.078271 151.700934 
L 159.410643 149.783773 
L 160.899764 147.866612 
L 158.54852 145.949452 
L 147.340923 144.032291 
L 104.705029 142.11513 
L 108.702144 140.197969 
L 177.280098 138.280808 
L 181.198838 136.363647 
L 166.386 134.446486 
L 173.753232 132.529325 
L 188.174196 130.612165 
L 190.447065 128.695004 
L 192.955059 126.777843 
L 195.384678 124.860682 
L 194.679305 122.943521 
L 198.049421 121.02636 
L 203.143784 119.109199 
L 211.059639 117.192038 
L 211.529888 115.274878 
L 211.373138 113.357717 
L 211.216389 111.440556 
L 211.529888 109.523395 
L 211.765012 107.606234 
" style="fill:none;stroke:#e6a346;stroke-dasharray:5.55,2.4;stroke-dashoffset:0;stroke-width:1.5;"/>
   </g>
   <g id="line2d_15">
    <path clip-path="url(#p4d0663f1b7)" d="M 212.478451 295.488 
L 212.337832 293.305337 
L 211.705046 291.122674 
L 211.775356 288.940011 
L 212.126903 286.757348 
L 211.915975 284.574685 
L 211.915975 282.392022 
L 211.845665 280.209358 
L 211.634737 278.026695 
L 211.423809 275.844032 
L 210.931642 273.661369 
L 211.072261 271.478706 
L 211.634737 269.296043 
L 211.21288 267.11338 
L 211.28319 264.930717 
L 210.931642 262.748054 
L 211.21288 260.565391 
L 211.142571 258.382728 
L 210.720714 256.200065 
L 210.931642 254.017401 
L 210.087928 251.834738 
L 210.509785 249.652075 
L 210.228547 247.469412 
L 208.962976 245.286749 
L 208.892667 243.104086 
L 208.962976 240.921423 
L 208.47081 238.73876 
L 206.924001 236.556097 
L 206.431835 234.373434 
L 208.048953 232.190771 
L 207.345858 230.008108 
L 206.361525 227.825444 
L 206.220906 225.642781 
L 206.291216 223.460118 
L 204.814717 221.277455 
L 204.32255 219.094792 
L 203.197598 216.912129 
L 202.775741 214.729466 
L 202.705432 212.546803 
L 202.142956 210.36414 
L 201.932027 208.181477 
L 201.510171 205.998814 
L 198.557172 203.816151 
L 199.260267 201.633487 
L 200.385219 199.450824 
L 197.50253 197.268161 
L 198.697791 195.085498 
L 198.908719 192.902835 
L 197.643149 190.720172 
L 196.02603 188.537509 
L 197.221292 186.354846 
L 195.393245 184.172183 
L 193.002722 181.98952 
L 193.073032 179.806857 
L 191.807461 177.624194 
L 188.221677 175.44153 
L 182.526608 173.258867 
L 181.190728 171.076204 
L 175.144112 168.893541 
L 167.620997 166.710878 
L 174.08947 164.528215 
L 171.488019 162.345552 
L 171.909876 160.162889 
L 172.191114 157.980226 
L 167.831925 155.797563 
L 166.988211 153.6149 
L 161.152524 151.432237 
L 157.215192 149.249573 
L 162.066547 147.06691 
L 166.988211 144.884247 
L 173.526994 142.701584 
L 168.675639 140.518921 
L 158.551073 138.336258 
L 152.926313 136.153595 
L 151.168576 133.970932 
L 161.785309 131.788269 
L 158.832311 129.605606 
L 149.129601 127.422943 
L 155.738693 125.24028 
L 166.636664 123.057616 
L 181.612585 120.874953 
L 193.213651 118.69229 
L 192.932413 116.509627 
L 199.049338 114.326964 
L 202.213265 112.144301 
L 204.32255 109.961638 
L 204.603788 107.778975 
L 204.533479 105.596312 
L 206.080287 103.413649 
L 205.377192 101.230986 
L 205.65843 99.048323 
L 205.799049 96.865659 
L 206.572454 94.682996 
L 206.783382 92.500333 
L 207.627096 90.31767 
L 208.541119 88.135007 
L 209.877 85.952344 
L 210.509785 83.769681 
L 210.791023 81.587018 
" style="fill:none;stroke:#b45a28;stroke-dasharray:9.6,2.4,1.5,2.4;stroke-dashoffset:0;stroke-width:1.5;"/>
   </g>
   <g id="line2d_16">
    <path clip-path="url(#p4d0663f1b7)" d="M 212.54876 295.488 
L 212.54876 293.019429 
L 212.54876 290.550857 
L 212.029744 288.082286 
L 211.705359 285.613714 
L 211.640482 283.145143 
L 211.380974 280.676571 
L 211.316096 278.208 
L 211.89999 275.739429 
L 211.640482 273.270857 
L 212.483883 270.802286 
L 212.354129 268.333714 
L 211.964867 265.865143 
L 210.732203 263.396571 
L 211.316096 260.928 
L 210.861957 258.459429 
L 211.640482 255.990857 
L 211.380974 253.522286 
L 211.316096 251.053714 
L 211.121465 248.585143 
L 210.79708 246.116571 
L 210.278064 243.648 
L 210.342941 241.179429 
L 209.369785 238.710857 
L 209.499539 236.242286 
L 208.915646 233.773714 
L 209.0454 231.305143 
L 207.618105 228.836571 
L 206.320564 226.368 
L 206.320564 223.899429 
L 206.644949 221.430857 
L 204.049867 218.962286 
L 203.595728 216.493714 
L 202.298187 214.025143 
L 201.908925 211.556571 
L 201.454786 209.088 
L 202.363064 206.619429 
L 201.000646 204.150857 
L 201.519663 201.682286 
L 200.48163 199.213714 
L 197.886548 196.745143 
L 196.653884 194.276571 
L 191.982737 191.808 
L 187.31159 189.339429 
L 190.685196 186.870857 
L 192.955893 184.402286 
L 192.501753 181.933714 
L 191.982737 179.465143 
L 191.009581 176.996571 
L 191.982737 174.528 
L 191.788106 172.059429 
L 192.955893 169.590857 
L 192.955893 167.122286 
L 192.112491 164.653714 
L 191.91786 162.185143 
L 191.009581 159.716571 
L 191.26909 157.248 
L 188.090114 154.779429 
L 184.132615 152.310857 
L 177.904418 149.842286 
L 180.564377 147.373714 
L 175.828353 144.905143 
L 175.049828 142.436571 
L 173.817165 139.968 
L 173.363025 137.499429 
L 177.061017 135.030857 
L 177.320525 132.562286 
L 181.018517 130.093714 
L 182.770197 127.625143 
L 185.235524 125.156571 
L 183.937984 122.688 
L 183.808229 120.219429 
L 181.732164 117.750857 
L 181.083394 115.282286 
L 180.434623 112.813714 
L 180.694131 110.345143 
L 184.846262 107.876571 
L 187.052082 105.408 
L 188.025237 102.939429 
L 187.635975 100.470857 
L 187.830606 98.002286 
L 185.495033 95.533714 
L 189.193024 93.065143 
L 190.101303 90.596571 
L 189.647164 88.128 
L 192.307122 85.659429 
L 191.333967 83.190857 
L 191.593475 80.722286 
L 192.242245 78.253714 
L 197.691917 75.785143 
L 198.27581 73.316571 
L 201.065523 70.848 
L 202.427941 68.379429 
L 202.882081 65.910857 
L 205.412285 63.442286 
L 210.667326 60.973714 
L 210.991711 58.505143 
L 210.926834 56.036571 
L 211.316096 53.568 
" style="fill:none;stroke:#7d1e0b;stroke-linecap:square;stroke-width:1.5;"/>
   </g>
   <g id="patch_3">
    <path d="M 57.6 307.584 
L 57.6 41.472 
" style="fill:none;stroke:#000000;stroke-linecap:square;stroke-linejoin:miter;stroke-width:0.8;"/>
   </g>
   <g id="patch_4">
    <path d="M 219.927273 307.584 
L 219.927273 41.472 
" style="fill:none;stroke:#000000;stroke-linecap:square;stroke-linejoin:miter;stroke-width:0.8;"/>
   </g>
   <g id="patch_5">
    <path d="M 57.6 307.584 
L 219.927273 307.584 
" style="fill:none;stroke:#000000;stroke-linecap:square;stroke-linejoin:miter;stroke-width:0.8;"/>
   </g>
   <g id="patch_6">
    <path d="M 57.6 41.472 
L 219.927273 41.472 
" style="fill:none;stroke:#000000;stroke-linecap:square;stroke-linejoin:miter;stroke-width:0.8;"/>
   </g>
  </g>
  <g id="axes_2">
   <g id="patch_7">
    <path d="M 252.392727 307.584 
L 414.72 307.584 
L 414.72 41.472 
L 252.392727 41.472 
z
" style="fill:#ffffff;"/>
   </g>
   <g id="matplotlib.axis_3">
    <g id="xtick_4">
     <g id="line2d_17">
      <g>
       <use style="stroke:#000000;stroke-width:0.8;" x="259.77124" xlink:href="#m4eb2bab407" y="307.584"/>
      </g>
     </g>
     <g id="text_14">
      <!-- 0.0 -->
      <g transform="translate(247.843896 325.981656)scale(0.15 -0.15)">
       <use xlink:href="#DejaVuSans-48"/>
       <use x="63.623047" xlink:href="#DejaVuSans-46"/>
       <use x="95.410156" xlink:href="#DejaVuSans-48"/>
      </g>
     </g>
    </g>
    <g id="xtick_5">
     <g id="line2d_18">
      <g>
       <use style="stroke:#000000;stroke-width:0.8;" x="333.556364" xlink:href="#m4eb2bab407" y="307.584"/>
      </g>
     </g>
     <g id="text_15">
      <!-- 0.5 -->
      <g transform="translate(321.62902 325.981656)scale(0.15 -0.15)">
       <use xlink:href="#DejaVuSans-48"/>
       <use x="63.623047" xlink:href="#DejaVuSans-46"/>
       <use x="95.410156" xlink:href="#DejaVuSans-53"/>
      </g>
     </g>
    </g>
    <g id="xtick_6">
     <g id="line2d_19">
      <g>
       <use style="stroke:#000000;stroke-width:0.8;" x="407.341488" xlink:href="#m4eb2bab407" y="307.584"/>
      </g>
     </g>
     <g id="text_16">
      <!-- 1.0 -->
      <g transform="translate(395.414144 325.981656)scale(0.15 -0.15)">
       <use xlink:href="#DejaVuSans-49"/>
       <use x="63.623047" xlink:href="#DejaVuSans-46"/>
       <use x="95.410156" xlink:href="#DejaVuSans-48"/>
      </g>
     </g>
    </g>
    <g id="text_17">
     <!-- CDF -->
     <defs>
      <path d="M 64.40625 67.28125 
L 64.40625 56.890625 
Q 59.421875 61.53125 53.78125 63.8125 
Q 48.140625 66.109375 41.796875 66.109375 
Q 29.296875 66.109375 22.65625 58.46875 
Q 16.015625 50.828125 16.015625 36.375 
Q 16.015625 21.96875 22.65625 14.328125 
Q 29.296875 6.6875 41.796875 6.6875 
Q 48.140625 6.6875 53.78125 8.984375 
Q 59.421875 11.28125 64.40625 15.921875 
L 64.40625 5.609375 
Q 59.234375 2.09375 53.4375 0.328125 
Q 47.65625 -1.421875 41.21875 -1.421875 
Q 24.65625 -1.421875 15.125 8.703125 
Q 5.609375 18.84375 5.609375 36.375 
Q 5.609375 53.953125 15.125 64.078125 
Q 24.65625 74.21875 41.21875 74.21875 
Q 47.75 74.21875 53.53125 72.484375 
Q 59.328125 70.75 64.40625 67.28125 
z
" id="DejaVuSans-67"/>
     </defs>
     <g transform="translate(316.187145 346.018531)scale(0.17 -0.17)">
      <use xlink:href="#DejaVuSans-67"/>
      <use x="69.824219" xlink:href="#DejaVuSans-68"/>
      <use x="146.826172" xlink:href="#DejaVuSans-70"/>
     </g>
    </g>
   </g>
   <g id="matplotlib.axis_4"/>
   <g id="line2d_20">
    <path clip-path="url(#p63666ef65f)" d="M 260.05356 295.488 
L 260.521956 294.111881 
L 261.150761 292.735762 
L 261.728235 291.359643 
L 262.376289 289.983524 
L 263.107756 288.607405 
L 263.781475 287.231286 
L 264.673351 285.855167 
L 265.494648 284.479048 
L 266.405773 283.102929 
L 267.105158 281.72681 
L 267.817376 280.350691 
L 268.593758 278.974572 
L 269.440719 277.598453 
L 270.159354 276.222334 
L 270.884404 274.846215 
L 271.577373 273.470096 
L 272.347338 272.093977 
L 273.021058 270.717858 
L 273.688361 269.341739 
L 274.406995 267.96562 
L 275.170544 266.589501 
L 275.979007 265.213382 
L 276.582147 263.837263 
L 277.300781 262.461144 
L 278.032248 261.085025 
L 278.847128 259.708906 
L 279.482349 258.332787 
L 280.425556 256.956668 
L 281.317433 255.580549 
L 282.145145 254.20443 
L 283.011356 252.828311 
L 283.999478 251.452192 
L 284.852856 250.076074 
L 285.686985 248.699955 
L 286.707189 247.323836 
L 287.631147 245.947717 
L 288.6706 244.571598 
L 289.639473 243.195479 
L 290.704592 241.81936 
L 291.647799 240.443241 
L 292.738583 239.067122 
L 293.996193 237.691003 
L 295.080561 236.314884 
L 296.216259 234.938765 
L 297.416122 233.562646 
L 298.692981 232.186527 
L 300.085335 230.810408 
L 301.432774 229.434289 
L 302.748131 228.05817 
L 304.223898 226.682051 
L 305.802326 225.305932 
L 307.316591 223.929813 
L 308.89502 222.553694 
L 310.473448 221.177575 
L 312.231536 219.801456 
L 313.97679 218.425337 
L 315.991532 217.049218 
L 318.038357 215.673099 
L 320.014601 214.29698 
L 322.132005 212.920861 
L 324.448317 211.544742 
L 327.040533 210.168623 
L 329.703329 208.792504 
L 332.629197 207.416385 
L 336.819091 206.040266 
L 341.239975 204.664147 
L 346.488571 203.288028 
L 351.320103 201.911909 
L 354.425629 200.53579 
L 357.024261 199.159671 
L 359.032587 197.783552 
L 361.194906 196.407433 
L 363.286645 195.031314 
L 365.513128 193.655195 
L 367.694696 192.279076 
L 369.927595 190.902957 
L 372.275989 189.526838 
L 374.855372 188.150719 
L 377.351343 186.7746 
L 380.180965 185.398481 
L 383.190246 184.022362 
L 385.795295 182.646243 
L 388.33618 181.270124 
L 390.331673 179.894005 
L 392.166757 178.517886 
L 393.995424 177.141767 
L 395.708597 175.765648 
L 397.70409 174.389529 
L 399.731665 173.01341 
L 401.412756 171.637291 
L 402.317465 170.261172 
L 402.959102 168.885053 
L 403.587907 167.508934 
L 404.178214 166.132815 
L 404.916097 164.756696 
L 405.807974 163.380577 
L 406.91159 162.004458 
L 407.341488 160.628339 
" style="fill:none;stroke:#5a0003;stroke-linecap:square;stroke-width:3;"/>
   </g>
   <g id="line2d_21">
    <path clip-path="url(#p63666ef65f)" d="M 259.77124 295.488 
L 259.77124 293.569945 
L 259.77124 291.65189 
L 259.777293 289.733835 
L 259.783347 287.81578 
L 259.795454 285.897725 
L 259.795454 283.97967 
L 259.801508 282.061615 
L 259.813615 280.14356 
L 259.83783 278.225504 
L 259.868098 276.307449 
L 259.910474 274.389394 
L 259.964957 272.471339 
L 260.043655 270.553284 
L 260.116299 268.635229 
L 260.194996 266.717174 
L 260.322123 264.799119 
L 260.521894 262.881064 
L 260.733773 260.963009 
L 260.903275 259.044954 
L 261.024349 257.126899 
L 261.230173 255.208844 
L 261.454159 253.290789 
L 261.641823 251.372734 
L 261.871862 249.454679 
L 262.053472 247.536624 
L 262.210868 245.618569 
L 262.422746 243.700513 
L 262.658839 241.782458 
L 262.931254 239.864403 
L 263.22183 237.946348 
L 263.603211 236.028293 
L 264.117773 234.110238 
L 264.589959 232.192183 
L 265.134789 230.274128 
L 265.685673 228.356073 
L 266.194181 226.438018 
L 266.78744 224.519963 
L 267.320163 222.601908 
L 267.8771 220.683853 
L 268.427984 218.765798 
L 269.087834 216.847743 
L 269.681093 214.929688 
L 270.292513 213.011633 
L 270.825236 211.093577 
L 271.509301 209.175522 
L 272.193365 207.257467 
L 272.798732 205.339412 
L 273.37383 203.421357 
L 274.160807 201.503302 
L 274.784335 199.585247 
L 275.637902 197.667192 
L 276.418825 195.749137 
L 277.242124 193.831082 
L 278.168335 191.913027 
L 279.264048 189.994972 
L 280.353709 188.076917 
L 281.546281 186.158862 
L 282.811497 184.240807 
L 284.209895 182.322752 
L 285.741472 180.404697 
L 287.466768 178.486641 
L 289.476585 176.568586 
L 291.686174 174.650531 
L 294.440592 172.732476 
L 297.963827 170.814421 
L 302.776492 168.896366 
L 310.785494 166.978311 
L 321.518646 165.060256 
L 331.6767 163.142201 
L 338.481022 161.224146 
L 344.498367 159.306091 
L 348.978081 157.388036 
L 353.627298 155.469981 
L 357.289766 153.551926 
L 360.849323 151.633871 
L 364.275698 149.715816 
L 368.047133 147.797761 
L 372.587384 145.879706 
L 381.129108 143.96165 
L 392.467627 142.043595 
L 395.809251 140.12554 
L 397.758532 138.207485 
L 399.423291 136.28943 
L 400.864064 134.371375 
L 402.117173 132.45332 
L 403.503463 130.535265 
L 404.435727 128.61721 
L 405.440636 126.699155 
L 406.05811 124.7811 
L 406.445545 122.863045 
L 406.730067 120.94499 
L 406.947999 119.026935 
L 407.08118 117.10888 
L 407.135663 115.190825 
L 407.190146 113.27277 
L 407.250683 111.354714 
L 407.299112 109.436659 
L 407.341488 107.518604 
" style="fill:none;stroke:#ffcc7b;stroke-dasharray:1.5,2.475;stroke-dashoffset:0;stroke-width:1.5;"/>
   </g>
   <g id="line2d_22">
    <path clip-path="url(#p63666ef65f)" d="M 259.77124 295.488 
L 259.77124 293.570839 
L 259.77124 291.653678 
L 259.77124 289.736517 
L 259.77124 287.819356 
L 259.777259 285.902196 
L 259.789297 283.985035 
L 259.801335 282.067874 
L 259.819392 280.150713 
L 259.843469 278.233552 
L 259.873564 276.316391 
L 259.921717 274.39923 
L 260.005985 272.482069 
L 260.126367 270.564909 
L 260.210634 268.647748 
L 260.349073 266.730587 
L 260.50557 264.813426 
L 260.752353 262.896265 
L 260.950983 260.979104 
L 261.155632 259.061943 
L 261.269995 257.144782 
L 261.402415 255.227622 
L 261.552893 253.310461 
L 261.763561 251.3933 
L 261.962192 249.476139 
L 262.190917 247.558978 
L 262.407605 245.641817 
L 262.618273 243.724656 
L 262.859037 241.807495 
L 263.298432 239.890335 
L 263.683654 237.973174 
L 264.056838 236.056013 
L 264.538366 234.138852 
L 264.935627 232.221691 
L 265.405116 230.30453 
L 265.856549 228.387369 
L 266.344096 226.470208 
L 266.855719 224.553048 
L 267.421514 222.635887 
L 268.005367 220.718726 
L 268.541067 218.801565 
L 269.167053 216.884404 
L 269.774982 214.967243 
L 270.316701 213.050082 
L 270.846382 211.132921 
L 271.478387 209.215761 
L 272.176603 207.2986 
L 273.025295 205.381439 
L 273.741568 203.464278 
L 274.445803 201.547117 
L 275.294496 199.629956 
L 276.215418 197.712795 
L 277.124302 195.795634 
L 278.159587 193.878474 
L 279.279139 191.961313 
L 280.507035 190.044152 
L 281.9456 188.126991 
L 283.54668 186.20983 
L 285.238047 184.292669 
L 286.544192 182.375508 
L 287.928584 180.458347 
L 289.355111 178.541186 
L 290.932115 176.624026 
L 292.563291 174.706865 
L 294.399116 172.789704 
L 296.487743 170.872543 
L 298.841211 168.955382 
L 301.700283 167.038221 
L 305.227475 165.12106 
L 310.458072 163.203899 
L 319.974267 161.286739 
L 330.555843 159.369578 
L 338.031564 157.452417 
L 343.406619 155.535256 
L 347.932981 153.618095 
L 352.116255 151.700934 
L 356.197204 149.783773 
L 360.16379 147.866612 
L 364.31095 145.949452 
L 369.31884 144.032291 
L 377.60112 142.11513 
L 385.576426 140.197969 
L 388.28502 138.280808 
L 390.69266 136.363647 
L 394.237909 134.446486 
L 397.217363 132.529325 
L 399.089303 130.612165 
L 400.786689 128.695004 
L 402.291464 126.777843 
L 403.609646 124.860682 
L 404.982001 122.943521 
L 406.095534 121.02636 
L 406.817826 119.109199 
L 406.932189 117.192038 
L 407.010437 115.274878 
L 407.100724 113.357717 
L 407.203048 111.440556 
L 407.281297 109.523395 
L 407.341488 107.606234 
" style="fill:none;stroke:#e6a346;stroke-dasharray:5.55,2.4;stroke-dashoffset:0;stroke-width:1.5;"/>
   </g>
   <g id="line2d_23">
    <path clip-path="url(#p63666ef65f)" d="M 259.777387 295.488 
L 259.79583 293.305337 
L 259.869599 291.122674 
L 259.937222 288.940011 
L 259.974106 286.757348 
L 260.029434 284.574685 
L 260.084761 282.392022 
L 260.146236 280.209358 
L 260.226153 278.026695 
L 260.324513 275.844032 
L 260.465905 273.661369 
L 260.595002 271.478706 
L 260.674919 269.296043 
L 260.791721 267.11338 
L 260.902376 264.930717 
L 261.043768 262.748054 
L 261.16057 260.565391 
L 261.28352 258.382728 
L 261.443354 256.200065 
L 261.584746 254.017401 
L 261.799908 251.834738 
L 261.978185 249.652075 
L 262.181052 247.469412 
L 262.494573 245.286749 
L 262.814242 243.104086 
L 263.127764 240.921423 
L 263.484317 238.73876 
L 263.976116 236.556097 
L 264.510946 234.373434 
L 264.904385 232.190771 
L 265.359299 230.008108 
L 265.900277 227.825444 
L 266.45355 225.642781 
L 267.000676 223.460118 
L 267.676898 221.277455 
L 268.396154 219.094792 
L 269.213768 216.912129 
L 270.068268 214.729466 
L 270.928915 212.546803 
L 271.838742 210.36414 
L 272.767012 208.181477 
L 273.732166 205.998814 
L 274.955514 203.816151 
L 276.117388 201.633487 
L 277.180902 199.450824 
L 278.496463 197.268161 
L 279.707516 195.085498 
L 280.900127 192.902835 
L 282.203393 190.720172 
L 283.64805 188.537509 
L 284.988201 186.354846 
L 286.488186 184.172183 
L 288.197185 181.98952 
L 289.900037 179.806857 
L 291.713544 177.624194 
L 293.840572 175.44153 
L 296.465545 173.258867 
L 299.207321 171.076204 
L 302.47778 168.893541 
L 306.40602 166.710878 
L 309.768691 164.528215 
L 313.358819 162.345552 
L 316.912063 160.162889 
L 320.440716 157.980226 
L 324.350513 155.797563 
L 328.33408 153.6149 
L 332.827887 151.432237 
L 337.665954 149.249573 
L 342.079844 147.06691 
L 346.063411 144.884247 
L 349.475262 142.701584 
L 353.311289 140.518921 
L 358.032554 138.336258 
L 363.245616 136.153595 
L 368.612366 133.970932 
L 373.050846 131.788269 
L 377.747521 129.605606 
L 383.292547 127.422943 
L 388.259711 125.24028 
L 392.274015 123.057616 
L 394.978906 120.874953 
L 396.669463 118.69229 
L 398.38461 116.509627 
L 399.564926 114.326964 
L 400.468605 112.144301 
L 401.187861 109.961638 
L 401.882526 107.778975 
L 402.583338 105.596312 
L 403.148907 103.413649 
L 403.775949 101.230986 
L 404.378402 99.048323 
L 404.96856 96.865659 
L 405.491096 94.682996 
L 405.99519 92.500333 
L 406.425513 90.31767 
L 406.775919 88.135007 
L 407.009524 85.952344 
L 407.187801 83.769681 
L 407.341488 81.587018 
" style="fill:none;stroke:#b45a28;stroke-dasharray:9.6,2.4,1.5,2.4;stroke-dashoffset:0;stroke-width:1.5;"/>
   </g>
   <g id="line2d_24">
    <path clip-path="url(#p63666ef65f)" d="M 259.77124 295.488 
L 259.77124 293.019429 
L 259.77124 290.550857 
L 259.822564 288.082286 
L 259.905966 285.613714 
L 259.995784 283.145143 
L 260.111263 280.676571 
L 260.233159 278.208 
L 260.297314 275.739429 
L 260.387131 273.270857 
L 260.393547 270.802286 
L 260.412794 268.333714 
L 260.470534 265.865143 
L 260.650169 263.396571 
L 260.772064 260.928 
L 260.938868 258.459429 
L 261.028685 255.990857 
L 261.144165 253.522286 
L 261.26606 251.053714 
L 261.407202 248.585143 
L 261.580422 246.116571 
L 261.804966 243.648 
L 262.023094 241.179429 
L 262.337456 238.710857 
L 262.638986 236.242286 
L 262.998256 233.773714 
L 263.344695 231.305143 
L 263.832276 228.836571 
L 264.448168 226.368 
L 265.06406 223.899429 
L 265.647874 221.430857 
L 266.48831 218.962286 
L 267.373654 216.493714 
L 268.38731 214.025143 
L 269.439458 211.556571 
L 270.536516 209.088 
L 271.543755 206.619429 
L 272.685721 204.150857 
L 273.776363 201.682286 
L 274.969654 199.213714 
L 276.419566 196.745143 
L 277.991373 194.276571 
L 280.025099 191.808 
L 282.520744 189.339429 
L 284.682781 186.870857 
L 286.620274 184.402286 
L 288.602676 181.933714 
L 290.636402 179.465143 
L 292.766361 176.996571 
L 294.800087 174.528 
L 296.85306 172.059429 
L 298.790553 169.590857 
L 300.728046 167.122286 
L 302.748941 164.653714 
L 304.789083 162.185143 
L 306.919042 159.716571 
L 309.023339 157.248 
L 311.441998 154.779429 
L 314.252004 152.310857 
L 317.677902 149.842286 
L 320.840764 147.373714 
L 324.471959 144.905143 
L 328.180141 142.436571 
L 332.010219 139.968 
L 335.885205 137.499429 
L 339.394505 135.030857 
L 342.878143 132.562286 
L 345.996095 130.093714 
L 348.940828 127.625143 
L 351.641771 125.156571 
L 354.471024 122.688 
L 357.313108 120.219429 
L 360.360489 117.750857 
L 363.472026 115.282286 
L 366.647718 112.813714 
L 369.797748 110.345143 
L 372.537184 107.876571 
L 375.058491 105.408 
L 377.483565 102.939429 
L 379.947132 100.470857 
L 382.391453 98.002286 
L 385.066733 95.533714 
L 387.376328 93.065143 
L 389.596104 90.596571 
L 391.86079 88.128 
L 393.862438 85.659429 
L 395.96032 83.190857 
L 398.032539 80.722286 
L 400.040603 78.253714 
L 401.509762 75.785143 
L 402.921181 73.316571 
L 404.056731 70.848 
L 405.057555 68.379429 
L 406.013471 65.910857 
L 406.71918 63.442286 
L 406.905231 60.973714 
L 407.059204 58.505143 
L 407.219592 56.036571 
L 407.341488 53.568 
" style="fill:none;stroke:#7d1e0b;stroke-linecap:square;stroke-width:1.5;"/>
   </g>
   <g id="patch_8">
    <path d="M 252.392727 307.584 
L 252.392727 41.472 
" style="fill:none;stroke:#000000;stroke-linecap:square;stroke-linejoin:miter;stroke-width:0.8;"/>
   </g>
   <g id="patch_9">
    <path d="M 414.72 307.584 
L 414.72 41.472 
" style="fill:none;stroke:#000000;stroke-linecap:square;stroke-linejoin:miter;stroke-width:0.8;"/>
   </g>
   <g id="patch_10">
    <path d="M 252.392727 307.584 
L 414.72 307.584 
" style="fill:none;stroke:#000000;stroke-linecap:square;stroke-linejoin:miter;stroke-width:0.8;"/>
   </g>
   <g id="patch_11">
    <path d="M 252.392727 41.472 
L 414.72 41.472 
" style="fill:none;stroke:#000000;stroke-linecap:square;stroke-linejoin:miter;stroke-width:0.8;"/>
   </g>
   <g id="legend_1">
    <g id="patch_12">
     <path d="M 261.492727 126.479813 
L 345.81804 126.479813 
Q 348.41804 126.479813 348.41804 123.879813 
L 348.41804 50.572 
Q 348.41804 47.972 345.81804 47.972 
L 261.492727 47.972 
Q 258.892727 47.972 258.892727 50.572 
L 258.892727 123.879813 
Q 258.892727 126.479813 261.492727 126.479813 
z
" style="fill:#ffffff;opacity:0.8;stroke:#cccccc;stroke-linejoin:miter;"/>
    </g>
    <g id="line2d_25">
     <path d="M 264.092727 58.499969 
L 290.092727 58.499969 
" style="fill:none;stroke:#5a0003;stroke-linecap:square;stroke-width:3;"/>
    </g>
    <g id="line2d_26"/>
    <g id="text_18">
     <!-- TS -->
     <defs>
      <path d="M -0.296875 72.90625 
L 61.375 72.90625 
L 61.375 64.59375 
L 35.5 64.59375 
L 35.5 0 
L 25.59375 0 
L 25.59375 64.59375 
L -0.296875 64.59375 
z
" id="DejaVuSans-84"/>
      <path d="M 53.515625 70.515625 
L 53.515625 60.890625 
Q 47.90625 63.578125 42.921875 64.890625 
Q 37.9375 66.21875 33.296875 66.21875 
Q 25.25 66.21875 20.875 63.09375 
Q 16.5 59.96875 16.5 54.203125 
Q 16.5 49.359375 19.40625 46.890625 
Q 22.3125 44.4375 30.421875 42.921875 
L 36.375 41.703125 
Q 47.40625 39.59375 52.65625 34.296875 
Q 57.90625 29 57.90625 20.125 
Q 57.90625 9.515625 50.796875 4.046875 
Q 43.703125 -1.421875 29.984375 -1.421875 
Q 24.8125 -1.421875 18.96875 -0.25 
Q 13.140625 0.921875 6.890625 3.21875 
L 6.890625 13.375 
Q 12.890625 10.015625 18.65625 8.296875 
Q 24.421875 6.59375 29.984375 6.59375 
Q 38.421875 6.59375 43.015625 9.90625 
Q 47.609375 13.234375 47.609375 19.390625 
Q 47.609375 24.75 44.3125 27.78125 
Q 41.015625 30.8125 33.5 32.328125 
L 27.484375 33.5 
Q 16.453125 35.6875 11.515625 40.375 
Q 6.59375 45.0625 6.59375 53.421875 
Q 6.59375 63.09375 13.40625 68.65625 
Q 20.21875 74.21875 32.171875 74.21875 
Q 37.3125 74.21875 42.625 73.28125 
Q 47.953125 72.359375 53.515625 70.515625 
z
" id="DejaVuSans-83"/>
     </defs>
     <g transform="translate(300.492727 63.049969)scale(0.13 -0.13)">
      <use xlink:href="#DejaVuSans-84"/>
      <use x="61.083984" xlink:href="#DejaVuSans-83"/>
     </g>
    </g>
    <g id="line2d_27">
     <path d="M 264.092727 72.381531 
L 290.092727 72.381531 
" style="fill:none;stroke:#ffcc7b;stroke-dasharray:1.5,2.475;stroke-dashoffset:0;stroke-width:1.5;"/>
    </g>
    <g id="line2d_28"/>
    <g id="text_19">
     <!-- RB, n0 -->
     <defs>
      <path d="M 44.390625 34.1875 
Q 47.5625 33.109375 50.5625 29.59375 
Q 53.5625 26.078125 56.59375 19.921875 
L 66.609375 0 
L 56 0 
L 46.6875 18.703125 
Q 43.0625 26.03125 39.671875 28.421875 
Q 36.28125 30.8125 30.421875 30.8125 
L 19.671875 30.8125 
L 19.671875 0 
L 9.8125 0 
L 9.8125 72.90625 
L 32.078125 72.90625 
Q 44.578125 72.90625 50.734375 67.671875 
Q 56.890625 62.453125 56.890625 51.90625 
Q 56.890625 45.015625 53.6875 40.46875 
Q 50.484375 35.9375 44.390625 34.1875 
z
M 19.671875 64.796875 
L 19.671875 38.921875 
L 32.078125 38.921875 
Q 39.203125 38.921875 42.84375 42.21875 
Q 46.484375 45.515625 46.484375 51.90625 
Q 46.484375 58.296875 42.84375 61.546875 
Q 39.203125 64.796875 32.078125 64.796875 
z
" id="DejaVuSans-82"/>
      <path d="M 19.671875 34.8125 
L 19.671875 8.109375 
L 35.5 8.109375 
Q 43.453125 8.109375 47.28125 11.40625 
Q 51.125 14.703125 51.125 21.484375 
Q 51.125 28.328125 47.28125 31.5625 
Q 43.453125 34.8125 35.5 34.8125 
z
M 19.671875 64.796875 
L 19.671875 42.828125 
L 34.28125 42.828125 
Q 41.5 42.828125 45.03125 45.53125 
Q 48.578125 48.25 48.578125 53.8125 
Q 48.578125 59.328125 45.03125 62.0625 
Q 41.5 64.796875 34.28125 64.796875 
z
M 9.8125 72.90625 
L 35.015625 72.90625 
Q 46.296875 72.90625 52.390625 68.21875 
Q 58.5 63.53125 58.5 54.890625 
Q 58.5 48.1875 55.375 44.234375 
Q 52.25 40.28125 46.1875 39.3125 
Q 53.46875 37.75 57.5 32.78125 
Q 61.53125 27.828125 61.53125 20.40625 
Q 61.53125 10.640625 54.890625 5.3125 
Q 48.25 0 35.984375 0 
L 9.8125 0 
z
" id="DejaVuSans-66"/>
      <path d="M 11.71875 12.40625 
L 22.015625 12.40625 
L 22.015625 4 
L 14.015625 -11.625 
L 7.71875 -11.625 
L 11.71875 4 
z
" id="DejaVuSans-44"/>
      <path d="M 54.890625 33.015625 
L 54.890625 0 
L 45.90625 0 
L 45.90625 32.71875 
Q 45.90625 40.484375 42.875 44.328125 
Q 39.84375 48.1875 33.796875 48.1875 
Q 26.515625 48.1875 22.3125 43.546875 
Q 18.109375 38.921875 18.109375 30.90625 
L 18.109375 0 
L 9.078125 0 
L 9.078125 54.6875 
L 18.109375 54.6875 
L 18.109375 46.1875 
Q 21.34375 51.125 25.703125 53.5625 
Q 30.078125 56 35.796875 56 
Q 45.21875 56 50.046875 50.171875 
Q 54.890625 44.34375 54.890625 33.015625 
z
" id="DejaVuSans-110"/>
     </defs>
     <g transform="translate(300.492727 76.931531)scale(0.13 -0.13)">
      <use xlink:href="#DejaVuSans-82"/>
      <use x="69.482422" xlink:href="#DejaVuSans-66"/>
      <use x="138.085938" xlink:href="#DejaVuSans-44"/>
      <use x="169.873047" xlink:href="#DejaVuSans-32"/>
      <use x="201.660156" xlink:href="#DejaVuSans-110"/>
      <use x="265.039062" xlink:href="#DejaVuSans-48"/>
     </g>
    </g>
    <g id="line2d_29">
     <path d="M 264.092727 86.263094 
L 290.092727 86.263094 
" style="fill:none;stroke:#e6a346;stroke-dasharray:5.55,2.4;stroke-dashoffset:0;stroke-width:1.5;"/>
    </g>
    <g id="line2d_30"/>
    <g id="text_20">
     <!-- RB, s0 -->
     <g transform="translate(300.492727 90.813094)scale(0.13 -0.13)">
      <use xlink:href="#DejaVuSans-82"/>
      <use x="69.482422" xlink:href="#DejaVuSans-66"/>
      <use x="138.085938" xlink:href="#DejaVuSans-44"/>
      <use x="169.873047" xlink:href="#DejaVuSans-32"/>
      <use x="201.660156" xlink:href="#DejaVuSans-115"/>
      <use x="253.759766" xlink:href="#DejaVuSans-48"/>
     </g>
    </g>
    <g id="line2d_31">
     <path d="M 264.092727 100.144656 
L 290.092727 100.144656 
" style="fill:none;stroke:#b45a28;stroke-dasharray:9.6,2.4,1.5,2.4;stroke-dashoffset:0;stroke-width:1.5;"/>
    </g>
    <g id="line2d_32"/>
    <g id="text_21">
     <!-- RB, s1 -->
     <g transform="translate(300.492727 104.694656)scale(0.13 -0.13)">
      <use xlink:href="#DejaVuSans-82"/>
      <use x="69.482422" xlink:href="#DejaVuSans-66"/>
      <use x="138.085938" xlink:href="#DejaVuSans-44"/>
      <use x="169.873047" xlink:href="#DejaVuSans-32"/>
      <use x="201.660156" xlink:href="#DejaVuSans-115"/>
      <use x="253.759766" xlink:href="#DejaVuSans-49"/>
     </g>
    </g>
    <g id="line2d_33">
     <path d="M 264.092727 114.026219 
L 290.092727 114.026219 
" style="fill:none;stroke:#7d1e0b;stroke-linecap:square;stroke-width:1.5;"/>
    </g>
    <g id="line2d_34"/>
    <g id="text_22">
     <!-- RB, s2 -->
     <g transform="translate(300.492727 118.576219)scale(0.13 -0.13)">
      <use xlink:href="#DejaVuSans-82"/>
      <use x="69.482422" xlink:href="#DejaVuSans-66"/>
      <use x="138.085938" xlink:href="#DejaVuSans-44"/>
      <use x="169.873047" xlink:href="#DejaVuSans-32"/>
      <use x="201.660156" xlink:href="#DejaVuSans-115"/>
      <use x="253.759766" xlink:href="#DejaVuSans-50"/>
     </g>
    </g>
   </g>
  </g>
 </g>
 <defs>
  <clipPath id="p4d0663f1b7">
   <rect height="266.112" width="162.327273" x="57.6" y="41.472"/>
  </clipPath>
  <clipPath id="p63666ef65f">
   <rect height="266.112" width="162.327273" x="252.392727" y="41.472"/>
  </clipPath>
 </defs>
</svg>
