<?xml version="1.0" encoding="utf-8" standalone="no"?>
<!DOCTYPE svg PUBLIC "-//W3C//DTD SVG 1.1//EN"
  "http://www.w3.org/Graphics/SVG/1.1/DTD/svg11.dtd">
<!-- Created with matplotlib (https://matplotlib.org/) -->
<svg height="345.6pt" version="1.1" viewBox="0 0 460.8 345.6" width="460.8pt" xmlns="http://www.w3.org/2000/svg" xmlns:xlink="http://www.w3.org/1999/xlink">
 <defs>
  <style type="text/css">
*{stroke-linecap:butt;stroke-linejoin:round;}
  </style>
 </defs>
 <g id="figure_1">
  <g id="patch_1">
   <path d="M 0 345.6 
L 460.8 345.6 
L 460.8 0 
L 0 0 
z
" style="fill:#ffffff;"/>
  </g>
  <g id="axes_1">
   <g id="patch_2">
    <path d="M 57.6 307.584 
L 219.927273 307.584 
L 219.927273 41.472 
L 57.6 41.472 
z
" style="fill:#ffffff;"/>
   </g>
   <g id="matplotlib.axis_1">
    <g id="xtick_1">
     <g id="line2d_1">
      <defs>
       <path d="M 0 0 
L 0 3.5 
" id="mb05301dec8" style="stroke:#000000;stroke-width:0.8;"/>
      </defs>
      <g>
       <use style="stroke:#000000;stroke-width:0.8;" x="212.54876" xlink:href="#mb05301dec8" y="307.584"/>
      </g>
     </g>
     <g id="text_1">
      <!-- 0.0 -->
      <defs>
       <path d="M 31.78125 66.40625 
Q 24.171875 66.40625 20.328125 58.90625 
Q 16.5 51.421875 16.5 36.375 
Q 16.5 21.390625 20.328125 13.890625 
Q 24.171875 6.390625 31.78125 6.390625 
Q 39.453125 6.390625 43.28125 13.890625 
Q 47.125 21.390625 47.125 36.375 
Q 47.125 51.421875 43.28125 58.90625 
Q 39.453125 66.40625 31.78125 66.40625 
z
M 31.78125 74.21875 
Q 44.046875 74.21875 50.515625 64.515625 
Q 56.984375 54.828125 56.984375 36.375 
Q 56.984375 17.96875 50.515625 8.265625 
Q 44.046875 -1.421875 31.78125 -1.421875 
Q 19.53125 -1.421875 13.0625 8.265625 
Q 6.59375 17.96875 6.59375 36.375 
Q 6.59375 54.828125 13.0625 64.515625 
Q 19.53125 74.21875 31.78125 74.21875 
z
" id="DejaVuSans-48"/>
       <path d="M 10.6875 12.40625 
L 21 12.40625 
L 21 0 
L 10.6875 0 
z
" id="DejaVuSans-46"/>
      </defs>
      <g transform="translate(200.621417 325.981656)scale(0.15 -0.15)">
       <use xlink:href="#DejaVuSans-48"/>
       <use x="63.623047" xlink:href="#DejaVuSans-46"/>
       <use x="95.410156" xlink:href="#DejaVuSans-48"/>
      </g>
     </g>
    </g>
    <g id="xtick_2">
     <g id="line2d_2">
      <g>
       <use style="stroke:#000000;stroke-width:0.8;" x="165.905571" xlink:href="#mb05301dec8" y="307.584"/>
      </g>
     </g>
     <g id="text_2">
      <!-- 0.5 -->
      <defs>
       <path d="M 10.796875 72.90625 
L 49.515625 72.90625 
L 49.515625 64.59375 
L 19.828125 64.59375 
L 19.828125 46.734375 
Q 21.96875 47.46875 24.109375 47.828125 
Q 26.265625 48.1875 28.421875 48.1875 
Q 40.625 48.1875 47.75 41.5 
Q 54.890625 34.8125 54.890625 23.390625 
Q 54.890625 11.625 47.5625 5.09375 
Q 40.234375 -1.421875 26.90625 -1.421875 
Q 22.3125 -1.421875 17.546875 -0.640625 
Q 12.796875 0.140625 7.71875 1.703125 
L 7.71875 11.625 
Q 12.109375 9.234375 16.796875 8.0625 
Q 21.484375 6.890625 26.703125 6.890625 
Q 35.15625 6.890625 40.078125 11.328125 
Q 45.015625 15.765625 45.015625 23.390625 
Q 45.015625 31 40.078125 35.4375 
Q 35.15625 39.890625 26.703125 39.890625 
Q 22.75 39.890625 18.8125 39.015625 
Q 14.890625 38.140625 10.796875 36.28125 
z
" id="DejaVuSans-53"/>
      </defs>
      <g transform="translate(153.978228 325.981656)scale(0.15 -0.15)">
       <use xlink:href="#DejaVuSans-48"/>
       <use x="63.623047" xlink:href="#DejaVuSans-46"/>
       <use x="95.410156" xlink:href="#DejaVuSans-53"/>
      </g>
     </g>
    </g>
    <g id="xtick_3">
     <g id="line2d_3">
      <g>
       <use style="stroke:#000000;stroke-width:0.8;" x="119.262383" xlink:href="#mb05301dec8" y="307.584"/>
      </g>
     </g>
     <g id="text_3">
      <!-- 1.0 -->
      <defs>
       <path d="M 12.40625 8.296875 
L 28.515625 8.296875 
L 28.515625 63.921875 
L 10.984375 60.40625 
L 10.984375 69.390625 
L 28.421875 72.90625 
L 38.28125 72.90625 
L 38.28125 8.296875 
L 54.390625 8.296875 
L 54.390625 0 
L 12.40625 0 
z
" id="DejaVuSans-49"/>
      </defs>
      <g transform="translate(107.335039 325.981656)scale(0.15 -0.15)">
       <use xlink:href="#DejaVuSans-49"/>
       <use x="63.623047" xlink:href="#DejaVuSans-46"/>
       <use x="95.410156" xlink:href="#DejaVuSans-48"/>
      </g>
     </g>
    </g>
    <g id="xtick_4">
     <g id="line2d_4">
      <g>
       <use style="stroke:#000000;stroke-width:0.8;" x="72.619194" xlink:href="#mb05301dec8" y="307.584"/>
      </g>
     </g>
     <g id="text_4">
      <!-- 1.5 -->
      <g transform="translate(60.69185 325.981656)scale(0.15 -0.15)">
       <use xlink:href="#DejaVuSans-49"/>
       <use x="63.623047" xlink:href="#DejaVuSans-46"/>
       <use x="95.410156" xlink:href="#DejaVuSans-53"/>
      </g>
     </g>
    </g>
    <g id="text_5">
     <!-- PDF -->
     <defs>
      <path d="M 19.671875 64.796875 
L 19.671875 37.40625 
L 32.078125 37.40625 
Q 38.96875 37.40625 42.71875 40.96875 
Q 46.484375 44.53125 46.484375 51.125 
Q 46.484375 57.671875 42.71875 61.234375 
Q 38.96875 64.796875 32.078125 64.796875 
z
M 9.8125 72.90625 
L 32.078125 72.90625 
Q 44.34375 72.90625 50.609375 67.359375 
Q 56.890625 61.8125 56.890625 51.125 
Q 56.890625 40.328125 50.609375 34.8125 
Q 44.34375 29.296875 32.078125 29.296875 
L 19.671875 29.296875 
L 19.671875 0 
L 9.8125 0 
z
" id="DejaVuSans-80"/>
      <path d="M 19.671875 64.796875 
L 19.671875 8.109375 
L 31.59375 8.109375 
Q 46.6875 8.109375 53.6875 14.9375 
Q 60.6875 21.78125 60.6875 36.53125 
Q 60.6875 51.171875 53.6875 57.984375 
Q 46.6875 64.796875 31.59375 64.796875 
z
M 9.8125 72.90625 
L 30.078125 72.90625 
Q 51.265625 72.90625 61.171875 64.09375 
Q 71.09375 55.28125 71.09375 36.53125 
Q 71.09375 17.671875 61.125 8.828125 
Q 51.171875 0 30.078125 0 
L 9.8125 0 
z
" id="DejaVuSans-68"/>
      <path d="M 9.8125 72.90625 
L 51.703125 72.90625 
L 51.703125 64.59375 
L 19.671875 64.59375 
L 19.671875 43.109375 
L 48.578125 43.109375 
L 48.578125 34.8125 
L 19.671875 34.8125 
L 19.671875 0 
L 9.8125 0 
z
" id="DejaVuSans-70"/>
     </defs>
     <g transform="translate(122.204574 346.018531)scale(0.17 -0.17)">
      <use xlink:href="#DejaVuSans-80"/>
      <use x="60.302734" xlink:href="#DejaVuSans-68"/>
      <use x="137.304688" xlink:href="#DejaVuSans-70"/>
     </g>
    </g>
   </g>
   <g id="matplotlib.axis_2">
    <g id="ytick_1">
     <g id="line2d_5">
      <defs>
       <path d="M 0 0 
L -3.5 0 
" id="m8ddeb9d834" style="stroke:#000000;stroke-width:0.8;"/>
      </defs>
      <g>
       <use style="stroke:#000000;stroke-width:0.8;" x="57.6" xlink:href="#m8ddeb9d834" y="295.488"/>
      </g>
     </g>
     <g id="text_6">
      <!-- 0 -->
      <g transform="translate(41.05625 301.186828)scale(0.15 -0.15)">
       <use xlink:href="#DejaVuSans-48"/>
      </g>
     </g>
    </g>
    <g id="ytick_2">
     <g id="line2d_6">
      <g>
       <use style="stroke:#000000;stroke-width:0.8;" x="57.6" xlink:href="#m8ddeb9d834" y="242.86513"/>
      </g>
     </g>
     <g id="text_7">
      <!-- 1 -->
      <g transform="translate(41.05625 248.563958)scale(0.15 -0.15)">
       <use xlink:href="#DejaVuSans-49"/>
      </g>
     </g>
    </g>
    <g id="ytick_3">
     <g id="line2d_7">
      <g>
       <use style="stroke:#000000;stroke-width:0.8;" x="57.6" xlink:href="#m8ddeb9d834" y="190.242261"/>
      </g>
     </g>
     <g id="text_8">
      <!-- 2 -->
      <defs>
       <path d="M 19.1875 8.296875 
L 53.609375 8.296875 
L 53.609375 0 
L 7.328125 0 
L 7.328125 8.296875 
Q 12.9375 14.109375 22.625 23.890625 
Q 32.328125 33.6875 34.8125 36.53125 
Q 39.546875 41.84375 41.421875 45.53125 
Q 43.3125 49.21875 43.3125 52.78125 
Q 43.3125 58.59375 39.234375 62.25 
Q 35.15625 65.921875 28.609375 65.921875 
Q 23.96875 65.921875 18.8125 64.3125 
Q 13.671875 62.703125 7.8125 59.421875 
L 7.8125 69.390625 
Q 13.765625 71.78125 18.9375 73 
Q 24.125 74.21875 28.421875 74.21875 
Q 39.75 74.21875 46.484375 68.546875 
Q 53.21875 62.890625 53.21875 53.421875 
Q 53.21875 48.921875 51.53125 44.890625 
Q 49.859375 40.875 45.40625 35.40625 
Q 44.1875 33.984375 37.640625 27.21875 
Q 31.109375 20.453125 19.1875 8.296875 
z
" id="DejaVuSans-50"/>
      </defs>
      <g transform="translate(41.05625 195.941089)scale(0.15 -0.15)">
       <use xlink:href="#DejaVuSans-50"/>
      </g>
     </g>
    </g>
    <g id="ytick_4">
     <g id="line2d_8">
      <g>
       <use style="stroke:#000000;stroke-width:0.8;" x="57.6" xlink:href="#m8ddeb9d834" y="137.619391"/>
      </g>
     </g>
     <g id="text_9">
      <!-- 3 -->
      <defs>
       <path d="M 40.578125 39.3125 
Q 47.65625 37.796875 51.625 33 
Q 55.609375 28.21875 55.609375 21.1875 
Q 55.609375 10.40625 48.1875 4.484375 
Q 40.765625 -1.421875 27.09375 -1.421875 
Q 22.515625 -1.421875 17.65625 -0.515625 
Q 12.796875 0.390625 7.625 2.203125 
L 7.625 11.71875 
Q 11.71875 9.328125 16.59375 8.109375 
Q 21.484375 6.890625 26.8125 6.890625 
Q 36.078125 6.890625 40.9375 10.546875 
Q 45.796875 14.203125 45.796875 21.1875 
Q 45.796875 27.640625 41.28125 31.265625 
Q 36.765625 34.90625 28.71875 34.90625 
L 20.21875 34.90625 
L 20.21875 43.015625 
L 29.109375 43.015625 
Q 36.375 43.015625 40.234375 45.921875 
Q 44.09375 48.828125 44.09375 54.296875 
Q 44.09375 59.90625 40.109375 62.90625 
Q 36.140625 65.921875 28.71875 65.921875 
Q 24.65625 65.921875 20.015625 65.03125 
Q 15.375 64.15625 9.8125 62.3125 
L 9.8125 71.09375 
Q 15.4375 72.65625 20.34375 73.4375 
Q 25.25 74.21875 29.59375 74.21875 
Q 40.828125 74.21875 47.359375 69.109375 
Q 53.90625 64.015625 53.90625 55.328125 
Q 53.90625 49.265625 50.4375 45.09375 
Q 46.96875 40.921875 40.578125 39.3125 
z
" id="DejaVuSans-51"/>
      </defs>
      <g transform="translate(41.05625 143.318219)scale(0.15 -0.15)">
       <use xlink:href="#DejaVuSans-51"/>
      </g>
     </g>
    </g>
    <g id="ytick_5">
     <g id="line2d_9">
      <g>
       <use style="stroke:#000000;stroke-width:0.8;" x="57.6" xlink:href="#m8ddeb9d834" y="84.996521"/>
      </g>
     </g>
     <g id="text_10">
      <!-- 4 -->
      <defs>
       <path d="M 37.796875 64.3125 
L 12.890625 25.390625 
L 37.796875 25.390625 
z
M 35.203125 72.90625 
L 47.609375 72.90625 
L 47.609375 25.390625 
L 58.015625 25.390625 
L 58.015625 17.1875 
L 47.609375 17.1875 
L 47.609375 0 
L 37.796875 0 
L 37.796875 17.1875 
L 4.890625 17.1875 
L 4.890625 26.703125 
z
" id="DejaVuSans-52"/>
      </defs>
      <g transform="translate(41.05625 90.695349)scale(0.15 -0.15)">
       <use xlink:href="#DejaVuSans-52"/>
      </g>
     </g>
    </g>
    <g id="text_11">
     <!-- Velocity (m/s) -->
     <defs>
      <path d="M 28.609375 0 
L 0.78125 72.90625 
L 11.078125 72.90625 
L 34.1875 11.53125 
L 57.328125 72.90625 
L 67.578125 72.90625 
L 39.796875 0 
z
" id="DejaVuSans-86"/>
      <path d="M 56.203125 29.59375 
L 56.203125 25.203125 
L 14.890625 25.203125 
Q 15.484375 15.921875 20.484375 11.0625 
Q 25.484375 6.203125 34.421875 6.203125 
Q 39.59375 6.203125 44.453125 7.46875 
Q 49.3125 8.734375 54.109375 11.28125 
L 54.109375 2.78125 
Q 49.265625 0.734375 44.1875 -0.34375 
Q 39.109375 -1.421875 33.890625 -1.421875 
Q 20.796875 -1.421875 13.15625 6.1875 
Q 5.515625 13.8125 5.515625 26.8125 
Q 5.515625 40.234375 12.765625 48.109375 
Q 20.015625 56 32.328125 56 
Q 43.359375 56 49.78125 48.890625 
Q 56.203125 41.796875 56.203125 29.59375 
z
M 47.21875 32.234375 
Q 47.125 39.59375 43.09375 43.984375 
Q 39.0625 48.390625 32.421875 48.390625 
Q 24.90625 48.390625 20.390625 44.140625 
Q 15.875 39.890625 15.1875 32.171875 
z
" id="DejaVuSans-101"/>
      <path d="M 9.421875 75.984375 
L 18.40625 75.984375 
L 18.40625 0 
L 9.421875 0 
z
" id="DejaVuSans-108"/>
      <path d="M 30.609375 48.390625 
Q 23.390625 48.390625 19.1875 42.75 
Q 14.984375 37.109375 14.984375 27.296875 
Q 14.984375 17.484375 19.15625 11.84375 
Q 23.34375 6.203125 30.609375 6.203125 
Q 37.796875 6.203125 41.984375 11.859375 
Q 46.1875 17.53125 46.1875 27.296875 
Q 46.1875 37.015625 41.984375 42.703125 
Q 37.796875 48.390625 30.609375 48.390625 
z
M 30.609375 56 
Q 42.328125 56 49.015625 48.375 
Q 55.71875 40.765625 55.71875 27.296875 
Q 55.71875 13.875 49.015625 6.21875 
Q 42.328125 -1.421875 30.609375 -1.421875 
Q 18.84375 -1.421875 12.171875 6.21875 
Q 5.515625 13.875 5.515625 27.296875 
Q 5.515625 40.765625 12.171875 48.375 
Q 18.84375 56 30.609375 56 
z
" id="DejaVuSans-111"/>
      <path d="M 48.78125 52.59375 
L 48.78125 44.1875 
Q 44.96875 46.296875 41.140625 47.34375 
Q 37.3125 48.390625 33.40625 48.390625 
Q 24.65625 48.390625 19.8125 42.84375 
Q 14.984375 37.3125 14.984375 27.296875 
Q 14.984375 17.28125 19.8125 11.734375 
Q 24.65625 6.203125 33.40625 6.203125 
Q 37.3125 6.203125 41.140625 7.25 
Q 44.96875 8.296875 48.78125 10.40625 
L 48.78125 2.09375 
Q 45.015625 0.34375 40.984375 -0.53125 
Q 36.96875 -1.421875 32.421875 -1.421875 
Q 20.0625 -1.421875 12.78125 6.34375 
Q 5.515625 14.109375 5.515625 27.296875 
Q 5.515625 40.671875 12.859375 48.328125 
Q 20.21875 56 33.015625 56 
Q 37.15625 56 41.109375 55.140625 
Q 45.0625 54.296875 48.78125 52.59375 
z
" id="DejaVuSans-99"/>
      <path d="M 9.421875 54.6875 
L 18.40625 54.6875 
L 18.40625 0 
L 9.421875 0 
z
M 9.421875 75.984375 
L 18.40625 75.984375 
L 18.40625 64.59375 
L 9.421875 64.59375 
z
" id="DejaVuSans-105"/>
      <path d="M 18.3125 70.21875 
L 18.3125 54.6875 
L 36.8125 54.6875 
L 36.8125 47.703125 
L 18.3125 47.703125 
L 18.3125 18.015625 
Q 18.3125 11.328125 20.140625 9.421875 
Q 21.96875 7.515625 27.59375 7.515625 
L 36.8125 7.515625 
L 36.8125 0 
L 27.59375 0 
Q 17.1875 0 13.234375 3.875 
Q 9.28125 7.765625 9.28125 18.015625 
L 9.28125 47.703125 
L 2.6875 47.703125 
L 2.6875 54.6875 
L 9.28125 54.6875 
L 9.28125 70.21875 
z
" id="DejaVuSans-116"/>
      <path d="M 32.171875 -5.078125 
Q 28.375 -14.84375 24.75 -17.8125 
Q 21.140625 -20.796875 15.09375 -20.796875 
L 7.90625 -20.796875 
L 7.90625 -13.28125 
L 13.1875 -13.28125 
Q 16.890625 -13.28125 18.9375 -11.515625 
Q 21 -9.765625 23.484375 -3.21875 
L 25.09375 0.875 
L 2.984375 54.6875 
L 12.5 54.6875 
L 29.59375 11.921875 
L 46.6875 54.6875 
L 56.203125 54.6875 
z
" id="DejaVuSans-121"/>
      <path id="DejaVuSans-32"/>
      <path d="M 31 75.875 
Q 24.46875 64.65625 21.28125 53.65625 
Q 18.109375 42.671875 18.109375 31.390625 
Q 18.109375 20.125 21.3125 9.0625 
Q 24.515625 -2 31 -13.1875 
L 23.1875 -13.1875 
Q 15.875 -1.703125 12.234375 9.375 
Q 8.59375 20.453125 8.59375 31.390625 
Q 8.59375 42.28125 12.203125 53.3125 
Q 15.828125 64.359375 23.1875 75.875 
z
" id="DejaVuSans-40"/>
      <path d="M 52 44.1875 
Q 55.375 50.25 60.0625 53.125 
Q 64.75 56 71.09375 56 
Q 79.640625 56 84.28125 50.015625 
Q 88.921875 44.046875 88.921875 33.015625 
L 88.921875 0 
L 79.890625 0 
L 79.890625 32.71875 
Q 79.890625 40.578125 77.09375 44.375 
Q 74.3125 48.1875 68.609375 48.1875 
Q 61.625 48.1875 57.5625 43.546875 
Q 53.515625 38.921875 53.515625 30.90625 
L 53.515625 0 
L 44.484375 0 
L 44.484375 32.71875 
Q 44.484375 40.625 41.703125 44.40625 
Q 38.921875 48.1875 33.109375 48.1875 
Q 26.21875 48.1875 22.15625 43.53125 
Q 18.109375 38.875 18.109375 30.90625 
L 18.109375 0 
L 9.078125 0 
L 9.078125 54.6875 
L 18.109375 54.6875 
L 18.109375 46.1875 
Q 21.1875 51.21875 25.484375 53.609375 
Q 29.78125 56 35.6875 56 
Q 41.65625 56 45.828125 52.96875 
Q 50 49.953125 52 44.1875 
z
" id="DejaVuSans-109"/>
      <path d="M 25.390625 72.90625 
L 33.6875 72.90625 
L 8.296875 -9.28125 
L 0 -9.28125 
z
" id="DejaVuSans-47"/>
      <path d="M 44.28125 53.078125 
L 44.28125 44.578125 
Q 40.484375 46.53125 36.375 47.5 
Q 32.28125 48.484375 27.875 48.484375 
Q 21.1875 48.484375 17.84375 46.4375 
Q 14.5 44.390625 14.5 40.28125 
Q 14.5 37.15625 16.890625 35.375 
Q 19.28125 33.59375 26.515625 31.984375 
L 29.59375 31.296875 
Q 39.15625 29.25 43.1875 25.515625 
Q 47.21875 21.78125 47.21875 15.09375 
Q 47.21875 7.46875 41.1875 3.015625 
Q 35.15625 -1.421875 24.609375 -1.421875 
Q 20.21875 -1.421875 15.453125 -0.5625 
Q 10.6875 0.296875 5.421875 2 
L 5.421875 11.28125 
Q 10.40625 8.6875 15.234375 7.390625 
Q 20.0625 6.109375 24.8125 6.109375 
Q 31.15625 6.109375 34.5625 8.28125 
Q 37.984375 10.453125 37.984375 14.40625 
Q 37.984375 18.0625 35.515625 20.015625 
Q 33.0625 21.96875 24.703125 23.78125 
L 21.578125 24.515625 
Q 13.234375 26.265625 9.515625 29.90625 
Q 5.8125 33.546875 5.8125 39.890625 
Q 5.8125 47.609375 11.28125 51.796875 
Q 16.75 56 26.8125 56 
Q 31.78125 56 36.171875 55.265625 
Q 40.578125 54.546875 44.28125 53.078125 
z
" id="DejaVuSans-115"/>
      <path d="M 8.015625 75.875 
L 15.828125 75.875 
Q 23.140625 64.359375 26.78125 53.3125 
Q 30.421875 42.28125 30.421875 31.390625 
Q 30.421875 20.453125 26.78125 9.375 
Q 23.140625 -1.703125 15.828125 -13.1875 
L 8.015625 -13.1875 
Q 14.5 -2 17.703125 9.0625 
Q 20.90625 20.125 20.90625 31.390625 
Q 20.90625 42.671875 17.703125 53.65625 
Q 14.5 64.65625 8.015625 75.875 
z
" id="DejaVuSans-41"/>
     </defs>
     <g transform="translate(33.520781 232.779562)rotate(-90)scale(0.17 -0.17)">
      <use xlink:href="#DejaVuSans-86"/>
      <use x="60.658203" xlink:href="#DejaVuSans-101"/>
      <use x="122.181641" xlink:href="#DejaVuSans-108"/>
      <use x="149.964844" xlink:href="#DejaVuSans-111"/>
      <use x="211.146484" xlink:href="#DejaVuSans-99"/>
      <use x="266.126953" xlink:href="#DejaVuSans-105"/>
      <use x="293.910156" xlink:href="#DejaVuSans-116"/>
      <use x="333.119141" xlink:href="#DejaVuSans-121"/>
      <use x="392.298828" xlink:href="#DejaVuSans-32"/>
      <use x="424.085938" xlink:href="#DejaVuSans-40"/>
      <use x="463.099609" xlink:href="#DejaVuSans-109"/>
      <use x="560.511719" xlink:href="#DejaVuSans-47"/>
      <use x="594.203125" xlink:href="#DejaVuSans-115"/>
      <use x="646.302734" xlink:href="#DejaVuSans-41"/>
     </g>
    </g>
   </g>
   <g id="line2d_10">
    <path clip-path="url(#pc1f69ae814)" d="M 64.978512 295.488 
L 124.706404 293.279853 
L 131.15186 291.071707 
L 143.797231 288.86356 
L 159.389095 286.655413 
L 171.113687 284.447266 
L 182.838278 282.23912 
L 185.109534 280.030973 
L 184.311525 277.822826 
L 188.608495 275.614679 
L 187.38079 273.406533 
L 189.283734 271.198386 
L 189.345119 268.990239 
L 191.125293 266.782092 
L 189.099578 264.573946 
L 189.958972 262.365799 
L 190.204513 260.157652 
L 190.572825 257.949505 
L 189.713431 255.741359 
L 189.897587 253.533212 
L 188.915422 251.325065 
L 188.792651 249.116918 
L 189.345119 246.908772 
L 188.056028 244.700625 
L 185.355075 242.492478 
L 187.749101 240.284331 
L 187.749101 238.076185 
L 187.073863 235.868038 
L 187.196634 233.659891 
L 186.644166 231.451744 
L 185.477845 229.243598 
L 182.101654 227.035451 
L 183.32936 224.827304 
L 185.539231 222.619157 
L 184.557066 220.411011 
L 184.127369 218.202864 
L 184.37291 215.994717 
L 185.109534 213.78657 
L 184.986763 211.578424 
L 183.636287 209.370277 
L 184.311525 207.16213 
L 186.46001 204.953983 
L 186.828322 202.745837 
L 190.51144 200.53769 
L 187.687716 198.329543 
L 186.705551 196.121396 
L 188.669881 193.91325 
L 189.59066 191.705103 
L 187.994643 189.496956 
L 190.081743 187.288809 
L 189.958972 185.080663 
L 191.616375 182.872516 
L 188.485725 180.664369 
L 191.002522 178.456222 
L 189.897587 176.248076 
L 188.301569 174.039929 
L 187.319404 171.831782 
L 186.889707 169.623635 
L 192.475769 167.415489 
L 192.291613 165.207342 
L 195.053951 162.999195 
L 196.097501 160.791048 
L 194.378713 158.582902 
L 194.010401 156.374755 
L 194.68564 154.166608 
L 196.097501 151.958461 
L 197.693519 149.750315 
L 198.491528 147.542168 
L 197.754904 145.334021 
L 196.649969 143.125874 
L 198.737069 140.917728 
L 197.877675 138.709581 
L 199.350922 136.501434 
L 197.079666 134.293287 
L 196.649969 132.085141 
L 196.77274 129.876994 
L 199.90339 127.668847 
L 200.701398 125.4607 
L 199.166766 123.252554 
L 202.604343 121.044407 
L 202.972654 118.83626 
L 202.11326 116.628113 
L 203.893434 114.419967 
L 203.218196 112.21182 
L 203.402351 110.003673 
L 204.016204 107.795526 
L 206.717157 105.58738 
L 206.901313 103.379233 
L 207.637937 101.171086 
L 209.049799 98.962939 
L 209.111184 96.754793 
L 209.233954 94.546646 
L 208.620101 92.338499 
L 209.847807 90.130352 
L 210.216119 87.922206 
L 210.031963 85.714059 
L 210.584431 83.505912 
L 211.014128 81.297765 
L 211.075513 79.089619 
" style="fill:none;stroke:#5a0003;stroke-linecap:square;stroke-width:3;"/>
   </g>
   <g id="line2d_11">
    <path clip-path="url(#pc1f69ae814)" d="M 212.54876 295.488 
L 212.442485 293.956514 
L 211.698555 292.425028 
L 211.698555 290.893543 
L 209.57304 289.362057 
L 210.423246 287.830571 
L 209.785592 286.299085 
L 210.104419 284.7676 
L 209.360489 283.236114 
L 208.08518 281.704628 
L 204.152978 280.173142 
L 205.428287 278.641657 
L 202.665118 277.110171 
L 201.070983 275.578685 
L 199.689398 274.047199 
L 198.307814 272.515713 
L 194.588164 270.984228 
L 196.182299 269.452742 
L 191.718719 267.921256 
L 196.501127 266.38977 
L 196.819954 264.858285 
L 195.438369 263.326799 
L 197.563884 261.795313 
L 194.481888 260.263827 
L 197.351332 258.732342 
L 198.520365 257.200856 
L 195.757197 255.66937 
L 199.689398 254.137884 
L 199.476847 252.606398 
L 197.245057 251.074913 
L 198.839192 249.543427 
L 197.457608 248.011941 
L 196.288575 246.480455 
L 198.520365 244.94897 
L 194.800715 243.417484 
L 196.394851 241.885998 
L 195.438369 240.354512 
L 192.143822 238.823027 
L 191.612444 237.291541 
L 190.762238 235.760055 
L 187.786518 234.228569 
L 189.805756 232.697083 
L 183.854316 231.165598 
L 186.830036 229.634112 
L 182.897834 228.102626 
L 186.298658 226.57114 
L 188.636723 225.039655 
L 184.49197 223.508169 
L 186.72376 221.976683 
L 185.448452 220.445197 
L 185.873555 218.913712 
L 187.573966 217.382226 
L 186.617485 215.85074 
L 185.661003 214.319254 
L 184.066867 212.787769 
L 187.361415 211.256283 
L 184.917073 209.724797 
L 184.598246 208.193311 
L 185.129625 206.661825 
L 185.661003 205.13034 
L 184.385695 203.598854 
L 184.598246 202.067368 
L 183.429213 200.535882 
L 182.153904 199.004397 
L 184.917073 197.472911 
L 181.622526 195.941425 
L 178.327979 194.409939 
L 181.941353 192.878454 
L 179.922114 191.346968 
L 176.202464 189.815482 
L 175.139707 188.283996 
L 178.965633 186.75251 
L 172.482814 185.221025 
L 175.352258 183.689539 
L 173.864398 182.158053 
L 171.738884 180.626567 
L 169.081991 179.095082 
L 169.081991 177.563596 
L 163.343102 176.03211 
L 168.656888 174.500624 
L 166.425098 172.969139 
L 163.024275 171.437653 
L 165.256065 169.906167 
L 160.367382 168.374681 
L 158.241867 166.843195 
L 155.903802 165.31171 
L 153.353184 163.780224 
L 147.720571 162.248738 
L 145.27623 160.717252 
L 141.450304 159.185767 
L 130.822732 157.654281 
L 125.508946 156.122795 
L 126.1466 154.591309 
L 114.562547 153.059824 
L 106.804419 151.528338 
L 108.292279 149.996852 
L 105.954213 148.465366 
L 97.983534 146.93388 
L 87.781065 145.402395 
L 212.54876 143.870909 
L 212.54876 142.339423 
L 212.54876 140.807937 
" style="fill:none;stroke:#ffcc7b;stroke-dasharray:1.5,2.475;stroke-dashoffset:0;stroke-width:1.5;"/>
   </g>
   <g id="line2d_12">
    <path clip-path="url(#pc1f69ae814)" d="M 212.54876 295.488 
L 212.442584 293.956853 
L 212.01788 292.425705 
L 211.699352 290.894558 
L 209.682008 289.363411 
L 210.637592 287.832264 
L 210.106712 286.301116 
L 209.682008 284.769969 
L 208.8326 283.238822 
L 208.8326 281.707675 
L 204.479384 280.176527 
L 205.222616 278.64538 
L 202.674392 277.114233 
L 200.8694 275.583085 
L 200.126168 274.051938 
L 197.790296 272.520791 
L 195.985304 270.989644 
L 196.197656 269.458496 
L 193.43708 267.927349 
L 196.197656 266.396202 
L 196.197656 264.865055 
L 194.286488 263.333907 
L 196.303832 261.80276 
L 195.242072 260.271613 
L 197.790296 258.740466 
L 200.550872 257.209318 
L 195.985304 255.678171 
L 198.321176 254.147024 
L 199.27676 252.615876 
L 197.577944 251.084729 
L 199.064408 249.553582 
L 196.62236 248.022435 
L 195.879128 246.491287 
L 199.382936 244.96014 
L 194.817368 243.428993 
L 196.197656 241.897846 
L 195.666776 240.366698 
L 192.481496 238.835551 
L 190.78268 237.304404 
L 191.31356 235.773256 
L 188.871511 234.242109 
L 189.508567 232.710962 
L 185.473879 231.179815 
L 185.792407 229.648667 
L 183.031831 228.11752 
L 186.854167 226.586373 
L 188.977687 225.055226 
L 183.031831 223.524078 
L 188.022103 221.992931 
L 185.049175 220.461784 
L 185.473879 218.930636 
L 187.491223 217.399489 
L 186.217111 215.868342 
L 183.987415 214.337195 
L 185.049175 212.806047 
L 185.898583 211.2749 
L 184.730647 209.743753 
L 183.668887 208.212606 
L 184.942999 206.681458 
L 184.836823 205.150311 
L 184.093591 203.619164 
L 183.668887 202.088017 
L 182.500951 200.556869 
L 182.607127 199.025722 
L 182.394775 197.494575 
L 180.271255 195.963427 
L 178.466263 194.43228 
L 179.740375 192.901133 
L 178.253911 191.369986 
L 174.537751 189.838838 
L 174.962455 188.307691 
L 176.130391 186.776544 
L 172.308055 185.245397 
L 173.582167 183.714249 
L 173.475991 182.183102 
L 169.547479 180.651955 
L 167.105431 179.120807 
L 164.875735 177.58966 
L 164.132502 176.058513 
L 167.954839 174.527366 
L 164.663383 172.996218 
L 163.38927 171.465071 
L 162.539862 169.933924 
L 157.974294 168.402777 
L 157.337238 166.871629 
L 154.682838 165.340482 
L 151.497558 163.809335 
L 145.551702 162.278187 
L 141.198486 160.74704 
L 144.171414 159.215893 
L 139.287318 157.684746 
L 135.146453 156.153598 
L 131.430293 154.622451 
L 120.281813 153.091304 
L 112.106261 151.560157 
L 110.51362 150.029009 
L 107.222164 148.497862 
L 99.471316 146.966715 
L 87.048724 145.435568 
" style="fill:none;stroke:#e6a346;stroke-dasharray:5.55,2.4;stroke-dashoffset:0;stroke-width:1.5;"/>
   </g>
   <g id="line2d_13">
    <path clip-path="url(#pc1f69ae814)" d="M 199.509697 295.488 
L 169.593231 293.019429 
L 153.506075 290.550857 
L 157.795983 288.082286 
L 174.108924 285.613714 
L 176.197432 283.145143 
L 171.851078 280.676571 
L 178.681063 278.208 
L 190.986327 275.739429 
L 190.816988 273.270857 
L 189.46228 270.802286 
L 191.945911 268.333714 
L 191.212111 265.865143 
L 192.341034 263.396571 
L 191.042773 260.928 
L 192.679711 258.459429 
L 193.413511 255.990857 
L 190.986327 253.522286 
L 193.187727 251.053714 
L 189.913849 248.585143 
L 187.656003 246.116571 
L 188.220465 243.648 
L 185.34171 241.179429 
L 188.672034 238.710857 
L 188.897819 236.242286 
L 191.720127 233.773714 
L 188.615588 231.305143 
L 189.010711 228.836571 
L 186.865757 226.368 
L 185.680387 223.899429 
L 187.317326 221.430857 
L 186.583526 218.962286 
L 184.890141 216.493714 
L 185.962618 214.025143 
L 185.398157 211.556571 
L 185.228818 209.088 
L 180.600233 206.619429 
L 179.979325 204.150857 
L 175.181401 201.682286 
L 174.729832 199.213714 
L 173.88314 196.745143 
L 171.907524 194.276571 
L 170.383477 191.808 
L 169.819016 189.339429 
L 169.367447 186.870857 
L 164.738861 184.402286 
L 172.302647 181.933714 
L 171.455955 179.465143 
L 176.81834 176.996571 
L 175.068509 174.528 
L 172.359093 172.059429 
L 184.664356 169.590857 
L 189.744511 167.122286 
L 190.92988 164.653714 
L 191.437896 162.185143 
L 192.002357 159.716571 
L 190.026742 157.248 
L 187.147988 154.779429 
L 183.422541 152.310857 
L 183.422541 149.842286 
L 186.244849 147.373714 
L 188.276911 144.905143 
L 189.46228 142.436571 
L 190.139634 139.968 
L 193.695742 137.499429 
L 195.953589 135.030857 
L 202.840021 132.562286 
L 203.404482 130.093714 
L 206.22679 127.625143 
L 208.766867 125.156571 
L 208.202406 122.688 
L 208.541083 120.219429 
L 210.516699 117.750857 
L 210.065129 115.282286 
L 210.629591 112.813714 
L 210.516699 110.345143 
L 210.911822 107.876571 
L 211.419837 105.408 
L 210.742483 102.939429 
L 210.686037 100.470857 
L 210.742483 98.002286 
L 211.137606 95.533714 
L 210.460252 93.065143 
L 210.798929 90.596571 
L 210.968268 88.128 
L 210.573145 85.659429 
L 210.629591 83.190857 
L 211.137606 80.722286 
L 211.306945 78.253714 
L 210.968268 75.785143 
L 211.758514 73.316571 
L 212.379422 70.848 
L 212.492314 68.379429 
L 212.322976 65.910857 
L 212.322976 63.442286 
L 212.54876 60.973714 
L 212.322976 58.505143 
L 212.435868 56.036571 
L 212.492314 53.568 
" style="fill:none;stroke:#b45a28;stroke-dasharray:9.6,2.4,1.5,2.4;stroke-dashoffset:0;stroke-width:1.5;"/>
   </g>
   <g id="line2d_14">
    <path clip-path="url(#pc1f69ae814)" d="M 211.821672 295.488 
L 206.80476 293.374102 
L 202.442228 291.260204 
L 201.64243 289.146305 
L 199.679291 287.032407 
L 196.480101 284.918509 
L 195.753012 282.804611 
L 193.28091 280.690713 
L 193.644455 278.576815 
L 191.39048 276.462916 
L 191.463189 274.349018 
L 192.844657 272.23512 
L 190.808809 270.121222 
L 192.626531 268.007324 
L 192.771948 265.893426 
L 194.226126 263.779527 
L 193.28091 261.665629 
L 190.299847 259.551731 
L 190.009011 257.437833 
L 188.19129 255.323935 
L 186.518986 253.210037 
L 184.919391 251.096138 
L 182.519998 248.98224 
L 183.756049 246.868342 
L 188.482125 244.754444 
L 191.172353 242.640546 
L 192.408404 240.526648 
L 193.644455 238.412749 
L 189.136505 236.298851 
L 193.353619 234.184953 
L 190.08172 232.071055 
L 192.408404 229.957157 
L 190.009011 227.843259 
L 192.04486 225.72936 
L 190.517973 223.615462 
L 190.590682 221.501564 
L 190.08172 219.387666 
L 190.954227 217.273768 
L 189.136505 215.15987 
L 188.336707 213.045971 
L 189.572758 210.932073 
L 185.937315 208.818175 
L 186.518986 206.704277 
L 185.57377 204.590379 
L 184.919391 202.476481 
L 182.810833 200.362582 
L 181.574783 198.248684 
L 179.902479 196.134786 
L 177.721213 194.020888 
L 175.903491 191.90699 
L 170.595744 189.793092 
L 171.031997 187.679193 
L 161.143591 185.565295 
L 160.707338 183.451397 
L 161.2163 181.337499 
L 166.742174 179.223601 
L 167.832807 177.109703 
L 167.978224 174.995804 
L 164.779034 172.881906 
L 169.723237 170.768008 
L 169.795946 168.65411 
L 174.594731 166.540212 
L 173.213263 164.426314 
L 172.995136 162.312415 
L 180.411441 160.198517 
L 182.447289 158.084619 
L 183.68334 155.970721 
L 183.610631 153.856823 
L 183.537922 151.742925 
L 180.411441 149.629026 
L 180.48415 147.515128 
L 180.993112 145.40123 
L 179.248099 143.287332 
L 182.083745 141.173434 
L 180.411441 139.059536 
L 184.33772 136.945637 
L 189.718176 134.831739 
L 193.28091 132.717841 
L 192.408404 130.603943 
L 199.533873 128.490045 
L 199.170329 126.376147 
L 199.243038 124.262248 
L 200.915342 122.14835 
L 203.460152 120.034452 
L 203.023899 117.920554 
L 203.678278 115.806656 
L 203.096608 113.692758 
L 203.242025 111.578859 
L 203.532861 109.464961 
L 203.169316 107.351063 
L 203.60557 105.237165 
L 204.187241 103.123267 
L 204.478076 101.009369 
L 205.423291 98.89547 
L 207.022886 96.781572 
L 206.586633 94.667674 
L 207.531848 92.553776 
L 209.640406 90.439878 
L 210.149368 88.32598 
" style="fill:none;stroke:#7d1e0b;stroke-linecap:square;stroke-width:1.5;"/>
   </g>
   <g id="patch_3">
    <path d="M 57.6 307.584 
L 57.6 41.472 
" style="fill:none;stroke:#000000;stroke-linecap:square;stroke-linejoin:miter;stroke-width:0.8;"/>
   </g>
   <g id="patch_4">
    <path d="M 219.927273 307.584 
L 219.927273 41.472 
" style="fill:none;stroke:#000000;stroke-linecap:square;stroke-linejoin:miter;stroke-width:0.8;"/>
   </g>
   <g id="patch_5">
    <path d="M 57.6 307.584 
L 219.927273 307.584 
" style="fill:none;stroke:#000000;stroke-linecap:square;stroke-linejoin:miter;stroke-width:0.8;"/>
   </g>
   <g id="patch_6">
    <path d="M 57.6 41.472 
L 219.927273 41.472 
" style="fill:none;stroke:#000000;stroke-linecap:square;stroke-linejoin:miter;stroke-width:0.8;"/>
   </g>
  </g>
  <g id="axes_2">
   <g id="patch_7">
    <path d="M 252.392727 307.584 
L 414.72 307.584 
L 414.72 41.472 
L 252.392727 41.472 
z
" style="fill:#ffffff;"/>
   </g>
   <g id="matplotlib.axis_3">
    <g id="xtick_5">
     <g id="line2d_15">
      <g>
       <use style="stroke:#000000;stroke-width:0.8;" x="259.77124" xlink:href="#mb05301dec8" y="307.584"/>
      </g>
     </g>
     <g id="text_12">
      <!-- 0.0 -->
      <g transform="translate(247.843896 325.981656)scale(0.15 -0.15)">
       <use xlink:href="#DejaVuSans-48"/>
       <use x="63.623047" xlink:href="#DejaVuSans-46"/>
       <use x="95.410156" xlink:href="#DejaVuSans-48"/>
      </g>
     </g>
    </g>
    <g id="xtick_6">
     <g id="line2d_16">
      <g>
       <use style="stroke:#000000;stroke-width:0.8;" x="333.556364" xlink:href="#mb05301dec8" y="307.584"/>
      </g>
     </g>
     <g id="text_13">
      <!-- 0.5 -->
      <g transform="translate(321.62902 325.981656)scale(0.15 -0.15)">
       <use xlink:href="#DejaVuSans-48"/>
       <use x="63.623047" xlink:href="#DejaVuSans-46"/>
       <use x="95.410156" xlink:href="#DejaVuSans-53"/>
      </g>
     </g>
    </g>
    <g id="xtick_7">
     <g id="line2d_17">
      <g>
       <use style="stroke:#000000;stroke-width:0.8;" x="407.341488" xlink:href="#mb05301dec8" y="307.584"/>
      </g>
     </g>
     <g id="text_14">
      <!-- 1.0 -->
      <g transform="translate(395.414144 325.981656)scale(0.15 -0.15)">
       <use xlink:href="#DejaVuSans-49"/>
       <use x="63.623047" xlink:href="#DejaVuSans-46"/>
       <use x="95.410156" xlink:href="#DejaVuSans-48"/>
      </g>
     </g>
    </g>
    <g id="text_15">
     <!-- CDF -->
     <defs>
      <path d="M 64.40625 67.28125 
L 64.40625 56.890625 
Q 59.421875 61.53125 53.78125 63.8125 
Q 48.140625 66.109375 41.796875 66.109375 
Q 29.296875 66.109375 22.65625 58.46875 
Q 16.015625 50.828125 16.015625 36.375 
Q 16.015625 21.96875 22.65625 14.328125 
Q 29.296875 6.6875 41.796875 6.6875 
Q 48.140625 6.6875 53.78125 8.984375 
Q 59.421875 11.28125 64.40625 15.921875 
L 64.40625 5.609375 
Q 59.234375 2.09375 53.4375 0.328125 
Q 47.65625 -1.421875 41.21875 -1.421875 
Q 24.65625 -1.421875 15.125 8.703125 
Q 5.609375 18.84375 5.609375 36.375 
Q 5.609375 53.953125 15.125 64.078125 
Q 24.65625 74.21875 41.21875 74.21875 
Q 47.75 74.21875 53.53125 72.484375 
Q 59.328125 70.75 64.40625 67.28125 
z
" id="DejaVuSans-67"/>
     </defs>
     <g transform="translate(316.187145 346.018531)scale(0.17 -0.17)">
      <use xlink:href="#DejaVuSans-67"/>
      <use x="69.824219" xlink:href="#DejaVuSans-68"/>
      <use x="146.826172" xlink:href="#DejaVuSans-70"/>
     </g>
    </g>
   </g>
   <g id="matplotlib.axis_4"/>
   <g id="line2d_18">
    <path clip-path="url(#p94fe32dd69)" d="M 269.566879 295.488 
L 275.397811 293.279853 
L 280.800896 291.071707 
L 285.364589 288.86356 
L 288.893301 286.655413 
L 291.64374 284.447266 
L 293.615907 282.23912 
L 295.437309 280.030973 
L 297.311683 277.822826 
L 298.900826 275.614679 
L 300.571463 273.406533 
L 302.115784 271.198386 
L 303.65603 268.990239 
L 305.078109 266.782092 
L 306.634654 264.573946 
L 308.134153 262.365799 
L 309.617353 260.157652 
L 311.076105 257.949505 
L 312.591902 255.741359 
L 314.095476 253.533212 
L 315.664245 251.325065 
L 317.241164 249.116918 
L 318.78141 246.908772 
L 320.407225 244.700625 
L 322.212329 242.492478 
L 323.858518 240.284331 
L 325.504707 238.076185 
L 327.195718 235.868038 
L 328.878579 233.659891 
L 330.598113 231.451744 
L 332.395067 229.243598 
L 334.416131 227.035451 
L 336.3557 224.827304 
L 338.148579 222.619157 
L 340.006654 220.411011 
L 341.893251 218.202864 
L 343.76355 215.994717 
L 345.584952 213.78657 
L 347.414504 211.578424 
L 349.3337 209.370277 
L 351.208073 207.16213 
L 352.939831 204.953983 
L 354.647141 202.745837 
L 356.109968 200.53769 
L 357.760231 198.329543 
L 359.475691 196.121396 
L 361.060759 193.91325 
L 362.584706 191.705103 
L 364.214596 189.496956 
L 365.705945 187.288809 
L 367.205444 185.080663 
L 368.594926 182.872516 
L 370.192218 180.664369 
L 371.622446 178.456222 
L 373.12602 176.248076 
L 374.735537 174.039929 
L 376.410249 171.831782 
L 378.113484 169.623635 
L 379.445919 167.415489 
L 380.790578 165.207342 
L 381.951875 162.999195 
L 383.043901 160.791048 
L 384.25002 158.582902 
L 385.480587 156.374755 
L 386.666332 154.166608 
L 387.758358 151.958461 
L 388.744442 149.750315 
L 389.677554 147.542168 
L 390.659563 145.334021 
L 391.714916 143.125874 
L 392.63173 140.917728 
L 393.605589 138.709581 
L 394.481655 136.501434 
L 395.508486 134.293287 
L 396.563839 132.085141 
L 397.611044 129.876994 
L 398.450437 127.668847 
L 399.236859 125.4607 
L 400.125149 123.252554 
L 400.785255 121.044407 
L 401.420912 118.83626 
L 402.113615 116.628113 
L 402.688151 114.419967 
L 403.30751 112.21182 
L 403.914644 110.003673 
L 404.481031 107.795526 
L 404.868129 105.58738 
L 405.243004 103.379233 
L 405.568982 101.171086 
L 405.801241 98.962939 
L 406.029426 96.754793 
L 406.249461 94.546646 
L 406.510244 92.338499 
L 406.689532 90.130352 
L 406.844371 87.922206 
L 407.011435 85.714059 
L 407.141826 83.505912 
L 407.243694 81.297765 
L 407.341488 79.089619 
" style="fill:none;stroke:#5a0003;stroke-linecap:square;stroke-width:3;"/>
   </g>
   <g id="line2d_19">
    <path clip-path="url(#p94fe32dd69)" d="M 259.77124 295.488 
L 259.776132 293.956514 
L 259.815274 292.425028 
L 259.854416 290.893543 
L 259.991413 289.362057 
L 260.089268 287.830571 
L 260.21648 286.299085 
L 260.329013 284.7676 
L 260.475796 283.236114 
L 260.681291 281.704628 
L 261.067819 280.173142 
L 261.395633 278.641657 
L 261.850659 277.110171 
L 262.379076 275.578685 
L 262.971098 274.047199 
L 263.626727 272.515713 
L 264.453602 270.984228 
L 265.207085 269.452742 
L 266.166065 267.921256 
L 266.90487 266.38977 
L 267.628997 264.858285 
L 268.41673 263.326799 
L 269.106608 261.795313 
L 269.938375 260.263827 
L 270.638039 258.732342 
L 271.283882 257.200856 
L 272.056936 255.66937 
L 272.648959 254.137884 
L 273.250767 252.606398 
L 273.955323 251.074913 
L 274.586488 249.543427 
L 275.281259 248.011941 
L 276.02985 246.480455 
L 276.675693 244.94897 
L 277.492782 243.417484 
L 278.23648 241.885998 
L 279.024213 240.354512 
L 279.963621 238.823027 
L 280.927493 237.291541 
L 281.930507 235.760055 
L 283.070518 234.228569 
L 284.117566 232.697083 
L 285.438609 231.165598 
L 286.622654 229.634112 
L 287.987732 228.102626 
L 289.196241 226.57114 
L 290.29711 225.039655 
L 291.588796 223.508169 
L 292.777735 221.976683 
L 294.025386 220.445197 
L 295.253466 218.913712 
L 296.403263 217.382226 
L 297.597094 215.85074 
L 298.83496 214.319254 
L 300.146217 212.787769 
L 301.305799 211.256283 
L 302.577914 209.724797 
L 303.864707 208.193311 
L 305.127037 206.661825 
L 306.364903 205.13034 
L 307.661482 203.598854 
L 308.948275 202.067368 
L 310.288889 200.535882 
L 311.688215 199.004397 
L 312.96033 197.472911 
L 314.384121 195.941425 
L 315.959586 194.409939 
L 317.368699 192.878454 
L 318.870773 191.346968 
L 320.544094 189.815482 
L 322.266342 188.283996 
L 323.812451 186.75251 
L 325.657018 185.221025 
L 327.369481 183.689539 
L 329.150442 182.158053 
L 331.029258 180.626567 
L 333.030393 179.095082 
L 335.031528 177.563596 
L 337.296871 176.03211 
L 339.317577 174.500624 
L 341.441031 172.969139 
L 343.721053 171.437653 
L 345.898327 169.906167 
L 348.300667 168.374681 
L 350.800863 166.843195 
L 353.408699 165.31171 
L 356.133961 163.780224 
L 359.118539 162.248738 
L 362.21565 160.717252 
L 365.4889 159.185767 
L 369.251425 157.654281 
L 373.258588 156.122795 
L 377.236394 154.591309 
L 381.74751 153.059824 
L 386.615796 151.528338 
L 391.415585 149.996852 
L 396.323013 148.465366 
L 401.597399 146.93388 
L 407.341488 145.402395 
L 407.341488 143.870909 
L 407.341488 142.339423 
L 407.341488 140.807937 
" style="fill:none;stroke:#ffcc7b;stroke-dasharray:1.5,2.475;stroke-dashoffset:0;stroke-width:1.5;"/>
   </g>
   <g id="line2d_20">
    <path clip-path="url(#p94fe32dd69)" d="M 259.77124 295.488 
L 259.776127 293.956853 
L 259.800562 292.425705 
L 259.839659 290.894558 
L 259.97161 289.363411 
L 260.059577 287.832264 
L 260.17198 286.301116 
L 260.303931 284.769969 
L 260.474979 283.238822 
L 260.646027 281.707675 
L 261.017445 280.176527 
L 261.354653 278.64538 
L 261.809152 277.114233 
L 262.34673 275.583085 
L 262.918519 274.051938 
L 263.597823 272.520791 
L 264.360207 270.989644 
L 265.112817 269.458496 
L 265.992492 267.927349 
L 266.745102 266.396202 
L 267.497712 264.865055 
L 268.33829 263.333907 
L 269.086013 261.80276 
L 269.882607 260.271613 
L 270.561911 258.740466 
L 271.114151 257.209318 
L 271.876535 255.678171 
L 272.531404 254.147024 
L 273.142289 252.615876 
L 273.831367 251.084729 
L 274.452026 249.553582 
L 275.185088 248.022435 
L 275.952359 246.491287 
L 276.558357 244.96014 
L 277.374499 243.428993 
L 278.12711 241.897846 
L 278.904155 240.366698 
L 279.827813 238.835551 
L 280.829665 237.304404 
L 281.80708 235.773256 
L 282.896899 234.242109 
L 283.957395 232.710962 
L 285.203601 231.179815 
L 286.435145 229.648667 
L 287.793753 228.11752 
L 288.976426 226.586373 
L 290.061357 225.055226 
L 291.419966 223.524078 
L 292.548881 221.992931 
L 293.814634 220.461784 
L 295.06084 218.930636 
L 296.21419 217.399489 
L 297.426186 215.868342 
L 298.74081 214.337195 
L 300.006564 212.806047 
L 301.233221 211.2749 
L 302.513636 209.743753 
L 303.842921 208.212606 
L 305.113562 206.681458 
L 306.38909 205.150311 
L 307.698827 203.619164 
L 309.028112 202.088017 
L 310.411156 200.556869 
L 311.789312 199.025722 
L 313.177243 197.494575 
L 314.662915 195.963427 
L 316.231667 194.43228 
L 317.741775 192.901133 
L 319.320302 191.369986 
L 321.069876 189.838838 
L 322.799902 188.307691 
L 324.47617 186.776544 
L 326.328373 185.245397 
L 328.121931 183.714249 
L 329.920377 182.183102 
L 331.899644 180.651955 
L 333.991314 179.120807 
L 336.185612 177.58966 
L 338.414121 176.058513 
L 340.466694 174.527366 
L 342.670767 172.996218 
L 344.933484 171.465071 
L 347.235299 169.933924 
L 349.747258 168.402777 
L 352.288539 166.871629 
L 354.951997 165.340482 
L 357.762068 163.809335 
L 360.845815 162.278187 
L 364.129932 160.74704 
L 367.277211 159.215893 
L 370.649296 157.684746 
L 374.211977 156.153598 
L 377.945705 154.622451 
L 382.192577 153.091304 
L 386.815754 151.560157 
L 391.512238 150.029009 
L 396.36022 148.497862 
L 401.56496 146.966715 
L 407.341488 145.435568 
" style="fill:none;stroke:#e6a346;stroke-dasharray:5.55,2.4;stroke-dashoffset:0;stroke-width:1.5;"/>
   </g>
   <g id="line2d_21">
    <path clip-path="url(#p94fe32dd69)" d="M 260.738845 295.488 
L 263.926496 293.019429 
L 268.307946 290.550857 
L 272.37105 288.082286 
L 275.2236 285.613714 
L 277.921165 283.145143 
L 280.941266 280.676571 
L 283.454526 278.208 
L 285.054635 275.739429 
L 286.66731 273.270857 
L 288.380516 270.802286 
L 289.909415 268.333714 
L 291.492769 265.865143 
L 292.992348 263.396571 
L 294.588268 260.928 
L 296.062714 258.459429 
L 297.482706 255.990857 
L 299.082814 253.522286 
L 300.519561 251.053714 
L 302.199257 248.585143 
L 304.046503 246.116571 
L 305.851861 243.648 
L 307.870847 241.179429 
L 309.642695 238.710857 
L 311.397788 236.242286 
L 312.943443 233.773714 
L 314.71948 231.305143 
L 316.466196 228.836571 
L 318.372085 226.368 
L 320.365938 223.899429 
L 322.238316 221.430857 
L 324.165149 218.962286 
L 326.217645 216.493714 
L 328.190554 214.025143 
L 330.20535 211.556571 
L 332.232713 209.088 
L 334.603555 206.619429 
L 337.020474 204.150857 
L 339.793437 201.682286 
L 342.599911 199.213714 
L 345.469216 196.745143 
L 348.485128 194.276571 
L 351.614137 191.808 
L 354.785033 189.339429 
L 357.989439 186.870857 
L 361.537325 184.402286 
L 364.523915 181.933714 
L 367.573337 179.465143 
L 370.224827 176.996571 
L 373.006168 174.528 
L 375.988569 172.059429 
L 378.05782 169.590857 
L 379.750082 167.122286 
L 381.35438 164.653714 
L 382.920978 162.185143 
L 384.445689 159.716571 
L 386.117007 157.248 
L 388.001952 154.779429 
L 390.163356 152.310857 
L 392.324759 149.842286 
L 394.276725 147.373714 
L 396.077894 144.905143 
L 397.7911 142.436571 
L 399.45404 139.968 
L 400.853088 137.499429 
L 402.084585 135.030857 
L 402.805053 132.562286 
L 403.483634 130.093714 
L 403.952775 127.625143 
L 404.233423 125.156571 
L 404.555958 122.688 
L 404.85336 120.219429 
L 405.004156 117.750857 
L 405.188462 115.282286 
L 405.33088 112.813714 
L 405.481675 110.345143 
L 405.603149 107.876571 
L 405.686925 105.408 
L 405.820965 102.939429 
L 405.959195 100.470857 
L 406.093235 98.002286 
L 406.197954 95.533714 
L 406.352939 93.065143 
L 406.48279 90.596571 
L 406.600076 88.128 
L 406.746683 85.659429 
L 406.889101 83.190857 
L 406.99382 80.722286 
L 407.085973 78.253714 
L 407.203258 75.785143 
L 407.261901 73.316571 
L 407.274467 70.848 
L 407.278656 68.379429 
L 407.295411 65.910857 
L 407.312166 63.442286 
L 407.312166 60.973714 
L 407.328921 58.505143 
L 407.337299 56.036571 
L 407.341488 53.568 
" style="fill:none;stroke:#b45a28;stroke-dasharray:9.6,2.4,1.5,2.4;stroke-dashoffset:0;stroke-width:1.5;"/>
   </g>
   <g id="line2d_22">
    <path clip-path="url(#p94fe32dd69)" d="M 259.817443 295.488 
L 260.182453 293.374102 
L 260.824686 291.260204 
L 261.517742 289.146305 
L 262.335549 287.032407 
L 263.356653 284.918509 
L 264.42396 282.804611 
L 265.64836 280.690713 
L 266.849659 278.576815 
L 268.194188 276.462916 
L 269.534098 274.349018 
L 270.78622 272.23512 
L 272.167713 270.121222 
L 273.433697 268.007324 
L 274.69044 265.893426 
L 275.854775 263.779527 
L 277.079175 261.665629 
L 278.493011 259.551731 
L 279.925328 257.437833 
L 281.473154 255.323935 
L 283.12725 253.210037 
L 284.882993 251.096138 
L 286.791209 248.98224 
L 288.620879 246.868342 
L 290.150224 244.754444 
L 291.508615 242.640546 
L 292.78846 240.526648 
L 293.989758 238.412749 
L 295.47752 236.298851 
L 296.697299 234.184953 
L 298.124996 232.071055 
L 299.404841 229.957157 
L 300.837158 227.843259 
L 302.140104 225.72936 
L 303.540079 223.615462 
L 304.935433 221.501564 
L 306.36313 219.387666 
L 307.735382 217.273768 
L 309.223144 215.15987 
L 310.76173 213.045971 
L 312.221769 210.932073 
L 313.912827 208.818175 
L 315.566923 206.704277 
L 317.281083 204.590379 
L 319.036826 202.476481 
L 320.926561 200.362582 
L 322.894842 198.248684 
L 324.969391 196.134786 
L 327.182552 194.020888 
L 329.511223 191.90699 
L 332.177181 189.793092 
L 334.815417 187.679193 
L 338.082024 185.565295 
L 341.376353 183.451397 
L 344.63834 181.337499 
L 347.549178 179.223601 
L 350.39071 177.109703 
L 353.223002 174.995804 
L 356.25859 172.881906 
L 358.979993 170.768008 
L 361.696775 168.65411 
L 364.108612 166.540212 
L 366.608237 164.426314 
L 369.121722 162.312415 
L 371.163929 160.198517 
L 373.076766 158.084619 
L 374.911056 155.970721 
L 376.749966 153.856823 
L 378.593497 151.742925 
L 380.635704 149.629026 
L 382.67329 147.515128 
L 384.678534 145.40123 
L 386.794667 143.287332 
L 388.730606 141.173434 
L 390.772813 139.059536 
L 392.565519 136.945637 
L 394.016318 134.831739 
L 395.240718 132.717841 
L 396.520563 130.603943 
L 397.34761 128.490045 
L 398.19776 126.376147 
L 399.043289 124.262248 
L 399.782549 122.14835 
L 400.360097 120.034452 
L 400.965366 117.920554 
L 401.529052 115.806656 
L 402.129701 113.692758 
L 402.72111 111.578859 
L 403.294037 109.464961 
L 403.890065 107.351063 
L 404.458372 105.237165 
L 404.989715 103.123267 
L 405.502577 101.009369 
L 405.955374 98.89547 
L 406.306523 96.781572 
L 406.685394 94.667674 
L 407.0042 92.553776 
L 407.189015 90.439878 
L 407.341488 88.32598 
" style="fill:none;stroke:#7d1e0b;stroke-linecap:square;stroke-width:1.5;"/>
   </g>
   <g id="patch_8">
    <path d="M 252.392727 307.584 
L 252.392727 41.472 
" style="fill:none;stroke:#000000;stroke-linecap:square;stroke-linejoin:miter;stroke-width:0.8;"/>
   </g>
   <g id="patch_9">
    <path d="M 414.72 307.584 
L 414.72 41.472 
" style="fill:none;stroke:#000000;stroke-linecap:square;stroke-linejoin:miter;stroke-width:0.8;"/>
   </g>
   <g id="patch_10">
    <path d="M 252.392727 307.584 
L 414.72 307.584 
" style="fill:none;stroke:#000000;stroke-linecap:square;stroke-linejoin:miter;stroke-width:0.8;"/>
   </g>
   <g id="patch_11">
    <path d="M 252.392727 41.472 
L 414.72 41.472 
" style="fill:none;stroke:#000000;stroke-linecap:square;stroke-linejoin:miter;stroke-width:0.8;"/>
   </g>
   <g id="legend_1">
    <g id="patch_12">
     <path d="M 261.492727 126.479813 
L 345.81804 126.479813 
Q 348.41804 126.479813 348.41804 123.879813 
L 348.41804 50.572 
Q 348.41804 47.972 345.81804 47.972 
L 261.492727 47.972 
Q 258.892727 47.972 258.892727 50.572 
L 258.892727 123.879813 
Q 258.892727 126.479813 261.492727 126.479813 
z
" style="fill:#ffffff;opacity:0.8;stroke:#cccccc;stroke-linejoin:miter;"/>
    </g>
    <g id="line2d_23">
     <path d="M 264.092727 58.499969 
L 290.092727 58.499969 
" style="fill:none;stroke:#5a0003;stroke-linecap:square;stroke-width:3;"/>
    </g>
    <g id="line2d_24"/>
    <g id="text_16">
     <!-- TS -->
     <defs>
      <path d="M -0.296875 72.90625 
L 61.375 72.90625 
L 61.375 64.59375 
L 35.5 64.59375 
L 35.5 0 
L 25.59375 0 
L 25.59375 64.59375 
L -0.296875 64.59375 
z
" id="DejaVuSans-84"/>
      <path d="M 53.515625 70.515625 
L 53.515625 60.890625 
Q 47.90625 63.578125 42.921875 64.890625 
Q 37.9375 66.21875 33.296875 66.21875 
Q 25.25 66.21875 20.875 63.09375 
Q 16.5 59.96875 16.5 54.203125 
Q 16.5 49.359375 19.40625 46.890625 
Q 22.3125 44.4375 30.421875 42.921875 
L 36.375 41.703125 
Q 47.40625 39.59375 52.65625 34.296875 
Q 57.90625 29 57.90625 20.125 
Q 57.90625 9.515625 50.796875 4.046875 
Q 43.703125 -1.421875 29.984375 -1.421875 
Q 24.8125 -1.421875 18.96875 -0.25 
Q 13.140625 0.921875 6.890625 3.21875 
L 6.890625 13.375 
Q 12.890625 10.015625 18.65625 8.296875 
Q 24.421875 6.59375 29.984375 6.59375 
Q 38.421875 6.59375 43.015625 9.90625 
Q 47.609375 13.234375 47.609375 19.390625 
Q 47.609375 24.75 44.3125 27.78125 
Q 41.015625 30.8125 33.5 32.328125 
L 27.484375 33.5 
Q 16.453125 35.6875 11.515625 40.375 
Q 6.59375 45.0625 6.59375 53.421875 
Q 6.59375 63.09375 13.40625 68.65625 
Q 20.21875 74.21875 32.171875 74.21875 
Q 37.3125 74.21875 42.625 73.28125 
Q 47.953125 72.359375 53.515625 70.515625 
z
" id="DejaVuSans-83"/>
     </defs>
     <g transform="translate(300.492727 63.049969)scale(0.13 -0.13)">
      <use xlink:href="#DejaVuSans-84"/>
      <use x="61.083984" xlink:href="#DejaVuSans-83"/>
     </g>
    </g>
    <g id="line2d_25">
     <path d="M 264.092727 72.381531 
L 290.092727 72.381531 
" style="fill:none;stroke:#ffcc7b;stroke-dasharray:1.5,2.475;stroke-dashoffset:0;stroke-width:1.5;"/>
    </g>
    <g id="line2d_26"/>
    <g id="text_17">
     <!-- RB, n0 -->
     <defs>
      <path d="M 44.390625 34.1875 
Q 47.5625 33.109375 50.5625 29.59375 
Q 53.5625 26.078125 56.59375 19.921875 
L 66.609375 0 
L 56 0 
L 46.6875 18.703125 
Q 43.0625 26.03125 39.671875 28.421875 
Q 36.28125 30.8125 30.421875 30.8125 
L 19.671875 30.8125 
L 19.671875 0 
L 9.8125 0 
L 9.8125 72.90625 
L 32.078125 72.90625 
Q 44.578125 72.90625 50.734375 67.671875 
Q 56.890625 62.453125 56.890625 51.90625 
Q 56.890625 45.015625 53.6875 40.46875 
Q 50.484375 35.9375 44.390625 34.1875 
z
M 19.671875 64.796875 
L 19.671875 38.921875 
L 32.078125 38.921875 
Q 39.203125 38.921875 42.84375 42.21875 
Q 46.484375 45.515625 46.484375 51.90625 
Q 46.484375 58.296875 42.84375 61.546875 
Q 39.203125 64.796875 32.078125 64.796875 
z
" id="DejaVuSans-82"/>
      <path d="M 19.671875 34.8125 
L 19.671875 8.109375 
L 35.5 8.109375 
Q 43.453125 8.109375 47.28125 11.40625 
Q 51.125 14.703125 51.125 21.484375 
Q 51.125 28.328125 47.28125 31.5625 
Q 43.453125 34.8125 35.5 34.8125 
z
M 19.671875 64.796875 
L 19.671875 42.828125 
L 34.28125 42.828125 
Q 41.5 42.828125 45.03125 45.53125 
Q 48.578125 48.25 48.578125 53.8125 
Q 48.578125 59.328125 45.03125 62.0625 
Q 41.5 64.796875 34.28125 64.796875 
z
M 9.8125 72.90625 
L 35.015625 72.90625 
Q 46.296875 72.90625 52.390625 68.21875 
Q 58.5 63.53125 58.5 54.890625 
Q 58.5 48.1875 55.375 44.234375 
Q 52.25 40.28125 46.1875 39.3125 
Q 53.46875 37.75 57.5 32.78125 
Q 61.53125 27.828125 61.53125 20.40625 
Q 61.53125 10.640625 54.890625 5.3125 
Q 48.25 0 35.984375 0 
L 9.8125 0 
z
" id="DejaVuSans-66"/>
      <path d="M 11.71875 12.40625 
L 22.015625 12.40625 
L 22.015625 4 
L 14.015625 -11.625 
L 7.71875 -11.625 
L 11.71875 4 
z
" id="DejaVuSans-44"/>
      <path d="M 54.890625 33.015625 
L 54.890625 0 
L 45.90625 0 
L 45.90625 32.71875 
Q 45.90625 40.484375 42.875 44.328125 
Q 39.84375 48.1875 33.796875 48.1875 
Q 26.515625 48.1875 22.3125 43.546875 
Q 18.109375 38.921875 18.109375 30.90625 
L 18.109375 0 
L 9.078125 0 
L 9.078125 54.6875 
L 18.109375 54.6875 
L 18.109375 46.1875 
Q 21.34375 51.125 25.703125 53.5625 
Q 30.078125 56 35.796875 56 
Q 45.21875 56 50.046875 50.171875 
Q 54.890625 44.34375 54.890625 33.015625 
z
" id="DejaVuSans-110"/>
     </defs>
     <g transform="translate(300.492727 76.931531)scale(0.13 -0.13)">
      <use xlink:href="#DejaVuSans-82"/>
      <use x="69.482422" xlink:href="#DejaVuSans-66"/>
      <use x="138.085938" xlink:href="#DejaVuSans-44"/>
      <use x="169.873047" xlink:href="#DejaVuSans-32"/>
      <use x="201.660156" xlink:href="#DejaVuSans-110"/>
      <use x="265.039062" xlink:href="#DejaVuSans-48"/>
     </g>
    </g>
    <g id="line2d_27">
     <path d="M 264.092727 86.263094 
L 290.092727 86.263094 
" style="fill:none;stroke:#e6a346;stroke-dasharray:5.55,2.4;stroke-dashoffset:0;stroke-width:1.5;"/>
    </g>
    <g id="line2d_28"/>
    <g id="text_18">
     <!-- RB, s0 -->
     <g transform="translate(300.492727 90.813094)scale(0.13 -0.13)">
      <use xlink:href="#DejaVuSans-82"/>
      <use x="69.482422" xlink:href="#DejaVuSans-66"/>
      <use x="138.085938" xlink:href="#DejaVuSans-44"/>
      <use x="169.873047" xlink:href="#DejaVuSans-32"/>
      <use x="201.660156" xlink:href="#DejaVuSans-115"/>
      <use x="253.759766" xlink:href="#DejaVuSans-48"/>
     </g>
    </g>
    <g id="line2d_29">
     <path d="M 264.092727 100.144656 
L 290.092727 100.144656 
" style="fill:none;stroke:#b45a28;stroke-dasharray:9.6,2.4,1.5,2.4;stroke-dashoffset:0;stroke-width:1.5;"/>
    </g>
    <g id="line2d_30"/>
    <g id="text_19">
     <!-- RB, s1 -->
     <g transform="translate(300.492727 104.694656)scale(0.13 -0.13)">
      <use xlink:href="#DejaVuSans-82"/>
      <use x="69.482422" xlink:href="#DejaVuSans-66"/>
      <use x="138.085938" xlink:href="#DejaVuSans-44"/>
      <use x="169.873047" xlink:href="#DejaVuSans-32"/>
      <use x="201.660156" xlink:href="#DejaVuSans-115"/>
      <use x="253.759766" xlink:href="#DejaVuSans-49"/>
     </g>
    </g>
    <g id="line2d_31">
     <path d="M 264.092727 114.026219 
L 290.092727 114.026219 
" style="fill:none;stroke:#7d1e0b;stroke-linecap:square;stroke-width:1.5;"/>
    </g>
    <g id="line2d_32"/>
    <g id="text_20">
     <!-- RB, s2 -->
     <g transform="translate(300.492727 118.576219)scale(0.13 -0.13)">
      <use xlink:href="#DejaVuSans-82"/>
      <use x="69.482422" xlink:href="#DejaVuSans-66"/>
      <use x="138.085938" xlink:href="#DejaVuSans-44"/>
      <use x="169.873047" xlink:href="#DejaVuSans-32"/>
      <use x="201.660156" xlink:href="#DejaVuSans-115"/>
      <use x="253.759766" xlink:href="#DejaVuSans-50"/>
     </g>
    </g>
   </g>
  </g>
 </g>
 <defs>
  <clipPath id="pc1f69ae814">
   <rect height="266.112" width="162.327273" x="57.6" y="41.472"/>
  </clipPath>
  <clipPath id="p94fe32dd69">
   <rect height="266.112" width="162.327273" x="252.392727" y="41.472"/>
  </clipPath>
 </defs>
</svg>
