<?xml version="1.0" encoding="utf-8" standalone="no"?>
<!DOCTYPE svg PUBLIC "-//W3C//DTD SVG 1.1//EN"
  "http://www.w3.org/Graphics/SVG/1.1/DTD/svg11.dtd">
<!-- Created with matplotlib (https://matplotlib.org/) -->
<svg height="345.6pt" version="1.1" viewBox="0 0 460.8 345.6" width="460.8pt" xmlns="http://www.w3.org/2000/svg" xmlns:xlink="http://www.w3.org/1999/xlink">
 <defs>
  <style type="text/css">
*{stroke-linecap:butt;stroke-linejoin:round;}
  </style>
 </defs>
 <g id="figure_1">
  <g id="patch_1">
   <path d="M 0 345.6 
L 460.8 345.6 
L 460.8 0 
L 0 0 
z
" style="fill:#ffffff;"/>
  </g>
  <g id="axes_1">
   <g id="patch_2">
    <path d="M 57.6 307.584 
L 219.927273 307.584 
L 219.927273 41.472 
L 57.6 41.472 
z
" style="fill:#ffffff;"/>
   </g>
   <g id="matplotlib.axis_1">
    <g id="xtick_1">
     <g id="line2d_1">
      <defs>
       <path d="M 0 0 
L 0 3.5 
" id="md164f50ea0" style="stroke:#000000;stroke-width:0.8;"/>
      </defs>
      <g>
       <use style="stroke:#000000;stroke-width:0.8;" x="212.772515" xlink:href="#md164f50ea0" y="307.584"/>
      </g>
     </g>
     <g id="text_1">
      <!-- 0 -->
      <defs>
       <path d="M 31.78125 66.40625 
Q 24.171875 66.40625 20.328125 58.90625 
Q 16.5 51.421875 16.5 36.375 
Q 16.5 21.390625 20.328125 13.890625 
Q 24.171875 6.390625 31.78125 6.390625 
Q 39.453125 6.390625 43.28125 13.890625 
Q 47.125 21.390625 47.125 36.375 
Q 47.125 51.421875 43.28125 58.90625 
Q 39.453125 66.40625 31.78125 66.40625 
z
M 31.78125 74.21875 
Q 44.046875 74.21875 50.515625 64.515625 
Q 56.984375 54.828125 56.984375 36.375 
Q 56.984375 17.96875 50.515625 8.265625 
Q 44.046875 -1.421875 31.78125 -1.421875 
Q 19.53125 -1.421875 13.0625 8.265625 
Q 6.59375 17.96875 6.59375 36.375 
Q 6.59375 54.828125 13.0625 64.515625 
Q 19.53125 74.21875 31.78125 74.21875 
z
" id="DejaVuSans-48"/>
      </defs>
      <g transform="translate(208.00064 325.981656)scale(0.15 -0.15)">
       <use xlink:href="#DejaVuSans-48"/>
      </g>
     </g>
    </g>
    <g id="xtick_2">
     <g id="line2d_2">
      <g>
       <use style="stroke:#000000;stroke-width:0.8;" x="168.76899" xlink:href="#md164f50ea0" y="307.584"/>
      </g>
     </g>
     <g id="text_2">
      <!-- 1 -->
      <defs>
       <path d="M 12.40625 8.296875 
L 28.515625 8.296875 
L 28.515625 63.921875 
L 10.984375 60.40625 
L 10.984375 69.390625 
L 28.421875 72.90625 
L 38.28125 72.90625 
L 38.28125 8.296875 
L 54.390625 8.296875 
L 54.390625 0 
L 12.40625 0 
z
" id="DejaVuSans-49"/>
      </defs>
      <g transform="translate(163.997115 325.981656)scale(0.15 -0.15)">
       <use xlink:href="#DejaVuSans-49"/>
      </g>
     </g>
    </g>
    <g id="xtick_3">
     <g id="line2d_3">
      <g>
       <use style="stroke:#000000;stroke-width:0.8;" x="124.765466" xlink:href="#md164f50ea0" y="307.584"/>
      </g>
     </g>
     <g id="text_3">
      <!-- 2 -->
      <defs>
       <path d="M 19.1875 8.296875 
L 53.609375 8.296875 
L 53.609375 0 
L 7.328125 0 
L 7.328125 8.296875 
Q 12.9375 14.109375 22.625 23.890625 
Q 32.328125 33.6875 34.8125 36.53125 
Q 39.546875 41.84375 41.421875 45.53125 
Q 43.3125 49.21875 43.3125 52.78125 
Q 43.3125 58.59375 39.234375 62.25 
Q 35.15625 65.921875 28.609375 65.921875 
Q 23.96875 65.921875 18.8125 64.3125 
Q 13.671875 62.703125 7.8125 59.421875 
L 7.8125 69.390625 
Q 13.765625 71.78125 18.9375 73 
Q 24.125 74.21875 28.421875 74.21875 
Q 39.75 74.21875 46.484375 68.546875 
Q 53.21875 62.890625 53.21875 53.421875 
Q 53.21875 48.921875 51.53125 44.890625 
Q 49.859375 40.875 45.40625 35.40625 
Q 44.1875 33.984375 37.640625 27.21875 
Q 31.109375 20.453125 19.1875 8.296875 
z
" id="DejaVuSans-50"/>
      </defs>
      <g transform="translate(119.993591 325.981656)scale(0.15 -0.15)">
       <use xlink:href="#DejaVuSans-50"/>
      </g>
     </g>
    </g>
    <g id="xtick_4">
     <g id="line2d_4">
      <g>
       <use style="stroke:#000000;stroke-width:0.8;" x="80.761941" xlink:href="#md164f50ea0" y="307.584"/>
      </g>
     </g>
     <g id="text_4">
      <!-- 3 -->
      <defs>
       <path d="M 40.578125 39.3125 
Q 47.65625 37.796875 51.625 33 
Q 55.609375 28.21875 55.609375 21.1875 
Q 55.609375 10.40625 48.1875 4.484375 
Q 40.765625 -1.421875 27.09375 -1.421875 
Q 22.515625 -1.421875 17.65625 -0.515625 
Q 12.796875 0.390625 7.625 2.203125 
L 7.625 11.71875 
Q 11.71875 9.328125 16.59375 8.109375 
Q 21.484375 6.890625 26.8125 6.890625 
Q 36.078125 6.890625 40.9375 10.546875 
Q 45.796875 14.203125 45.796875 21.1875 
Q 45.796875 27.640625 41.28125 31.265625 
Q 36.765625 34.90625 28.71875 34.90625 
L 20.21875 34.90625 
L 20.21875 43.015625 
L 29.109375 43.015625 
Q 36.375 43.015625 40.234375 45.921875 
Q 44.09375 48.828125 44.09375 54.296875 
Q 44.09375 59.90625 40.109375 62.90625 
Q 36.140625 65.921875 28.71875 65.921875 
Q 24.65625 65.921875 20.015625 65.03125 
Q 15.375 64.15625 9.8125 62.3125 
L 9.8125 71.09375 
Q 15.4375 72.65625 20.34375 73.4375 
Q 25.25 74.21875 29.59375 74.21875 
Q 40.828125 74.21875 47.359375 69.109375 
Q 53.90625 64.015625 53.90625 55.328125 
Q 53.90625 49.265625 50.4375 45.09375 
Q 46.96875 40.921875 40.578125 39.3125 
z
" id="DejaVuSans-51"/>
      </defs>
      <g transform="translate(75.990066 325.981656)scale(0.15 -0.15)">
       <use xlink:href="#DejaVuSans-51"/>
      </g>
     </g>
    </g>
    <g id="text_5">
     <!-- PDF -->
     <defs>
      <path d="M 19.671875 64.796875 
L 19.671875 37.40625 
L 32.078125 37.40625 
Q 38.96875 37.40625 42.71875 40.96875 
Q 46.484375 44.53125 46.484375 51.125 
Q 46.484375 57.671875 42.71875 61.234375 
Q 38.96875 64.796875 32.078125 64.796875 
z
M 9.8125 72.90625 
L 32.078125 72.90625 
Q 44.34375 72.90625 50.609375 67.359375 
Q 56.890625 61.8125 56.890625 51.125 
Q 56.890625 40.328125 50.609375 34.8125 
Q 44.34375 29.296875 32.078125 29.296875 
L 19.671875 29.296875 
L 19.671875 0 
L 9.8125 0 
z
" id="DejaVuSans-80"/>
      <path d="M 19.671875 64.796875 
L 19.671875 8.109375 
L 31.59375 8.109375 
Q 46.6875 8.109375 53.6875 14.9375 
Q 60.6875 21.78125 60.6875 36.53125 
Q 60.6875 51.171875 53.6875 57.984375 
Q 46.6875 64.796875 31.59375 64.796875 
z
M 9.8125 72.90625 
L 30.078125 72.90625 
Q 51.265625 72.90625 61.171875 64.09375 
Q 71.09375 55.28125 71.09375 36.53125 
Q 71.09375 17.671875 61.125 8.828125 
Q 51.171875 0 30.078125 0 
L 9.8125 0 
z
" id="DejaVuSans-68"/>
      <path d="M 9.8125 72.90625 
L 51.703125 72.90625 
L 51.703125 64.59375 
L 19.671875 64.59375 
L 19.671875 43.109375 
L 48.578125 43.109375 
L 48.578125 34.8125 
L 19.671875 34.8125 
L 19.671875 0 
L 9.8125 0 
z
" id="DejaVuSans-70"/>
     </defs>
     <g transform="translate(122.204574 346.018531)scale(0.17 -0.17)">
      <use xlink:href="#DejaVuSans-80"/>
      <use x="60.302734" xlink:href="#DejaVuSans-68"/>
      <use x="137.304688" xlink:href="#DejaVuSans-70"/>
     </g>
    </g>
   </g>
   <g id="matplotlib.axis_2">
    <g id="ytick_1">
     <g id="line2d_5">
      <defs>
       <path d="M 0 0 
L -3.5 0 
" id="m7323be2478" style="stroke:#000000;stroke-width:0.8;"/>
      </defs>
      <g>
       <use style="stroke:#000000;stroke-width:0.8;" x="57.6" xlink:href="#m7323be2478" y="53.568"/>
      </g>
     </g>
     <g id="text_6">
      <!-- 0.0 -->
      <defs>
       <path d="M 10.6875 12.40625 
L 21 12.40625 
L 21 0 
L 10.6875 0 
z
" id="DejaVuSans-46"/>
      </defs>
      <g transform="translate(26.745313 59.266828)scale(0.15 -0.15)">
       <use xlink:href="#DejaVuSans-48"/>
       <use x="63.623047" xlink:href="#DejaVuSans-46"/>
       <use x="95.410156" xlink:href="#DejaVuSans-48"/>
      </g>
     </g>
    </g>
    <g id="ytick_2">
     <g id="line2d_6">
      <g>
       <use style="stroke:#000000;stroke-width:0.8;" x="57.6" xlink:href="#m7323be2478" y="83.514936"/>
      </g>
     </g>
     <g id="text_7">
      <!-- 0.2 -->
      <g transform="translate(26.745313 89.213764)scale(0.15 -0.15)">
       <use xlink:href="#DejaVuSans-48"/>
       <use x="63.623047" xlink:href="#DejaVuSans-46"/>
       <use x="95.410156" xlink:href="#DejaVuSans-50"/>
      </g>
     </g>
    </g>
    <g id="ytick_3">
     <g id="line2d_7">
      <g>
       <use style="stroke:#000000;stroke-width:0.8;" x="57.6" xlink:href="#m7323be2478" y="113.461872"/>
      </g>
     </g>
     <g id="text_8">
      <!-- 0.4 -->
      <defs>
       <path d="M 37.796875 64.3125 
L 12.890625 25.390625 
L 37.796875 25.390625 
z
M 35.203125 72.90625 
L 47.609375 72.90625 
L 47.609375 25.390625 
L 58.015625 25.390625 
L 58.015625 17.1875 
L 47.609375 17.1875 
L 47.609375 0 
L 37.796875 0 
L 37.796875 17.1875 
L 4.890625 17.1875 
L 4.890625 26.703125 
z
" id="DejaVuSans-52"/>
      </defs>
      <g transform="translate(26.745313 119.1607)scale(0.15 -0.15)">
       <use xlink:href="#DejaVuSans-48"/>
       <use x="63.623047" xlink:href="#DejaVuSans-46"/>
       <use x="95.410156" xlink:href="#DejaVuSans-52"/>
      </g>
     </g>
    </g>
    <g id="ytick_4">
     <g id="line2d_8">
      <g>
       <use style="stroke:#000000;stroke-width:0.8;" x="57.6" xlink:href="#m7323be2478" y="143.408808"/>
      </g>
     </g>
     <g id="text_9">
      <!-- 0.6 -->
      <defs>
       <path d="M 33.015625 40.375 
Q 26.375 40.375 22.484375 35.828125 
Q 18.609375 31.296875 18.609375 23.390625 
Q 18.609375 15.53125 22.484375 10.953125 
Q 26.375 6.390625 33.015625 6.390625 
Q 39.65625 6.390625 43.53125 10.953125 
Q 47.40625 15.53125 47.40625 23.390625 
Q 47.40625 31.296875 43.53125 35.828125 
Q 39.65625 40.375 33.015625 40.375 
z
M 52.59375 71.296875 
L 52.59375 62.3125 
Q 48.875 64.0625 45.09375 64.984375 
Q 41.3125 65.921875 37.59375 65.921875 
Q 27.828125 65.921875 22.671875 59.328125 
Q 17.53125 52.734375 16.796875 39.40625 
Q 19.671875 43.65625 24.015625 45.921875 
Q 28.375 48.1875 33.59375 48.1875 
Q 44.578125 48.1875 50.953125 41.515625 
Q 57.328125 34.859375 57.328125 23.390625 
Q 57.328125 12.15625 50.6875 5.359375 
Q 44.046875 -1.421875 33.015625 -1.421875 
Q 20.359375 -1.421875 13.671875 8.265625 
Q 6.984375 17.96875 6.984375 36.375 
Q 6.984375 53.65625 15.1875 63.9375 
Q 23.390625 74.21875 37.203125 74.21875 
Q 40.921875 74.21875 44.703125 73.484375 
Q 48.484375 72.75 52.59375 71.296875 
z
" id="DejaVuSans-54"/>
      </defs>
      <g transform="translate(26.745313 149.107636)scale(0.15 -0.15)">
       <use xlink:href="#DejaVuSans-48"/>
       <use x="63.623047" xlink:href="#DejaVuSans-46"/>
       <use x="95.410156" xlink:href="#DejaVuSans-54"/>
      </g>
     </g>
    </g>
    <g id="ytick_5">
     <g id="line2d_9">
      <g>
       <use style="stroke:#000000;stroke-width:0.8;" x="57.6" xlink:href="#m7323be2478" y="173.355744"/>
      </g>
     </g>
     <g id="text_10">
      <!-- 0.8 -->
      <defs>
       <path d="M 31.78125 34.625 
Q 24.75 34.625 20.71875 30.859375 
Q 16.703125 27.09375 16.703125 20.515625 
Q 16.703125 13.921875 20.71875 10.15625 
Q 24.75 6.390625 31.78125 6.390625 
Q 38.8125 6.390625 42.859375 10.171875 
Q 46.921875 13.96875 46.921875 20.515625 
Q 46.921875 27.09375 42.890625 30.859375 
Q 38.875 34.625 31.78125 34.625 
z
M 21.921875 38.8125 
Q 15.578125 40.375 12.03125 44.71875 
Q 8.5 49.078125 8.5 55.328125 
Q 8.5 64.0625 14.71875 69.140625 
Q 20.953125 74.21875 31.78125 74.21875 
Q 42.671875 74.21875 48.875 69.140625 
Q 55.078125 64.0625 55.078125 55.328125 
Q 55.078125 49.078125 51.53125 44.71875 
Q 48 40.375 41.703125 38.8125 
Q 48.828125 37.15625 52.796875 32.3125 
Q 56.78125 27.484375 56.78125 20.515625 
Q 56.78125 9.90625 50.3125 4.234375 
Q 43.84375 -1.421875 31.78125 -1.421875 
Q 19.734375 -1.421875 13.25 4.234375 
Q 6.78125 9.90625 6.78125 20.515625 
Q 6.78125 27.484375 10.78125 32.3125 
Q 14.796875 37.15625 21.921875 38.8125 
z
M 18.3125 54.390625 
Q 18.3125 48.734375 21.84375 45.5625 
Q 25.390625 42.390625 31.78125 42.390625 
Q 38.140625 42.390625 41.71875 45.5625 
Q 45.3125 48.734375 45.3125 54.390625 
Q 45.3125 60.0625 41.71875 63.234375 
Q 38.140625 66.40625 31.78125 66.40625 
Q 25.390625 66.40625 21.84375 63.234375 
Q 18.3125 60.0625 18.3125 54.390625 
z
" id="DejaVuSans-56"/>
      </defs>
      <g transform="translate(26.745313 179.054572)scale(0.15 -0.15)">
       <use xlink:href="#DejaVuSans-48"/>
       <use x="63.623047" xlink:href="#DejaVuSans-46"/>
       <use x="95.410156" xlink:href="#DejaVuSans-56"/>
      </g>
     </g>
    </g>
    <g id="ytick_6">
     <g id="line2d_10">
      <g>
       <use style="stroke:#000000;stroke-width:0.8;" x="57.6" xlink:href="#m7323be2478" y="203.30268"/>
      </g>
     </g>
     <g id="text_11">
      <!-- 1.0 -->
      <g transform="translate(26.745313 209.001508)scale(0.15 -0.15)">
       <use xlink:href="#DejaVuSans-49"/>
       <use x="63.623047" xlink:href="#DejaVuSans-46"/>
       <use x="95.410156" xlink:href="#DejaVuSans-48"/>
      </g>
     </g>
    </g>
    <g id="ytick_7">
     <g id="line2d_11">
      <g>
       <use style="stroke:#000000;stroke-width:0.8;" x="57.6" xlink:href="#m7323be2478" y="233.249616"/>
      </g>
     </g>
     <g id="text_12">
      <!-- 1.2 -->
      <g transform="translate(26.745313 238.948444)scale(0.15 -0.15)">
       <use xlink:href="#DejaVuSans-49"/>
       <use x="63.623047" xlink:href="#DejaVuSans-46"/>
       <use x="95.410156" xlink:href="#DejaVuSans-50"/>
      </g>
     </g>
    </g>
    <g id="ytick_8">
     <g id="line2d_12">
      <g>
       <use style="stroke:#000000;stroke-width:0.8;" x="57.6" xlink:href="#m7323be2478" y="263.196552"/>
      </g>
     </g>
     <g id="text_13">
      <!-- 1.4 -->
      <g transform="translate(26.745313 268.89538)scale(0.15 -0.15)">
       <use xlink:href="#DejaVuSans-49"/>
       <use x="63.623047" xlink:href="#DejaVuSans-46"/>
       <use x="95.410156" xlink:href="#DejaVuSans-52"/>
      </g>
     </g>
    </g>
    <g id="ytick_9">
     <g id="line2d_13">
      <g>
       <use style="stroke:#000000;stroke-width:0.8;" x="57.6" xlink:href="#m7323be2478" y="293.143488"/>
      </g>
     </g>
     <g id="text_14">
      <!-- 1.6 -->
      <g transform="translate(26.745313 298.842316)scale(0.15 -0.15)">
       <use xlink:href="#DejaVuSans-49"/>
       <use x="63.623047" xlink:href="#DejaVuSans-46"/>
       <use x="95.410156" xlink:href="#DejaVuSans-54"/>
      </g>
     </g>
    </g>
    <g id="text_15">
     <!-- Depth (m) -->
     <defs>
      <path d="M 56.203125 29.59375 
L 56.203125 25.203125 
L 14.890625 25.203125 
Q 15.484375 15.921875 20.484375 11.0625 
Q 25.484375 6.203125 34.421875 6.203125 
Q 39.59375 6.203125 44.453125 7.46875 
Q 49.3125 8.734375 54.109375 11.28125 
L 54.109375 2.78125 
Q 49.265625 0.734375 44.1875 -0.34375 
Q 39.109375 -1.421875 33.890625 -1.421875 
Q 20.796875 -1.421875 13.15625 6.1875 
Q 5.515625 13.8125 5.515625 26.8125 
Q 5.515625 40.234375 12.765625 48.109375 
Q 20.015625 56 32.328125 56 
Q 43.359375 56 49.78125 48.890625 
Q 56.203125 41.796875 56.203125 29.59375 
z
M 47.21875 32.234375 
Q 47.125 39.59375 43.09375 43.984375 
Q 39.0625 48.390625 32.421875 48.390625 
Q 24.90625 48.390625 20.390625 44.140625 
Q 15.875 39.890625 15.1875 32.171875 
z
" id="DejaVuSans-101"/>
      <path d="M 18.109375 8.203125 
L 18.109375 -20.796875 
L 9.078125 -20.796875 
L 9.078125 54.6875 
L 18.109375 54.6875 
L 18.109375 46.390625 
Q 20.953125 51.265625 25.265625 53.625 
Q 29.59375 56 35.59375 56 
Q 45.5625 56 51.78125 48.09375 
Q 58.015625 40.1875 58.015625 27.296875 
Q 58.015625 14.40625 51.78125 6.484375 
Q 45.5625 -1.421875 35.59375 -1.421875 
Q 29.59375 -1.421875 25.265625 0.953125 
Q 20.953125 3.328125 18.109375 8.203125 
z
M 48.6875 27.296875 
Q 48.6875 37.203125 44.609375 42.84375 
Q 40.53125 48.484375 33.40625 48.484375 
Q 26.265625 48.484375 22.1875 42.84375 
Q 18.109375 37.203125 18.109375 27.296875 
Q 18.109375 17.390625 22.1875 11.75 
Q 26.265625 6.109375 33.40625 6.109375 
Q 40.53125 6.109375 44.609375 11.75 
Q 48.6875 17.390625 48.6875 27.296875 
z
" id="DejaVuSans-112"/>
      <path d="M 18.3125 70.21875 
L 18.3125 54.6875 
L 36.8125 54.6875 
L 36.8125 47.703125 
L 18.3125 47.703125 
L 18.3125 18.015625 
Q 18.3125 11.328125 20.140625 9.421875 
Q 21.96875 7.515625 27.59375 7.515625 
L 36.8125 7.515625 
L 36.8125 0 
L 27.59375 0 
Q 17.1875 0 13.234375 3.875 
Q 9.28125 7.765625 9.28125 18.015625 
L 9.28125 47.703125 
L 2.6875 47.703125 
L 2.6875 54.6875 
L 9.28125 54.6875 
L 9.28125 70.21875 
z
" id="DejaVuSans-116"/>
      <path d="M 54.890625 33.015625 
L 54.890625 0 
L 45.90625 0 
L 45.90625 32.71875 
Q 45.90625 40.484375 42.875 44.328125 
Q 39.84375 48.1875 33.796875 48.1875 
Q 26.515625 48.1875 22.3125 43.546875 
Q 18.109375 38.921875 18.109375 30.90625 
L 18.109375 0 
L 9.078125 0 
L 9.078125 75.984375 
L 18.109375 75.984375 
L 18.109375 46.1875 
Q 21.34375 51.125 25.703125 53.5625 
Q 30.078125 56 35.796875 56 
Q 45.21875 56 50.046875 50.171875 
Q 54.890625 44.34375 54.890625 33.015625 
z
" id="DejaVuSans-104"/>
      <path id="DejaVuSans-32"/>
      <path d="M 31 75.875 
Q 24.46875 64.65625 21.28125 53.65625 
Q 18.109375 42.671875 18.109375 31.390625 
Q 18.109375 20.125 21.3125 9.0625 
Q 24.515625 -2 31 -13.1875 
L 23.1875 -13.1875 
Q 15.875 -1.703125 12.234375 9.375 
Q 8.59375 20.453125 8.59375 31.390625 
Q 8.59375 42.28125 12.203125 53.3125 
Q 15.828125 64.359375 23.1875 75.875 
z
" id="DejaVuSans-40"/>
      <path d="M 52 44.1875 
Q 55.375 50.25 60.0625 53.125 
Q 64.75 56 71.09375 56 
Q 79.640625 56 84.28125 50.015625 
Q 88.921875 44.046875 88.921875 33.015625 
L 88.921875 0 
L 79.890625 0 
L 79.890625 32.71875 
Q 79.890625 40.578125 77.09375 44.375 
Q 74.3125 48.1875 68.609375 48.1875 
Q 61.625 48.1875 57.5625 43.546875 
Q 53.515625 38.921875 53.515625 30.90625 
L 53.515625 0 
L 44.484375 0 
L 44.484375 32.71875 
Q 44.484375 40.625 41.703125 44.40625 
Q 38.921875 48.1875 33.109375 48.1875 
Q 26.21875 48.1875 22.15625 43.53125 
Q 18.109375 38.875 18.109375 30.90625 
L 18.109375 0 
L 9.078125 0 
L 9.078125 54.6875 
L 18.109375 54.6875 
L 18.109375 46.1875 
Q 21.1875 51.21875 25.484375 53.609375 
Q 29.78125 56 35.6875 56 
Q 41.65625 56 45.828125 52.96875 
Q 50 49.953125 52 44.1875 
z
" id="DejaVuSans-109"/>
      <path d="M 8.015625 75.875 
L 15.828125 75.875 
Q 23.140625 64.359375 26.78125 53.3125 
Q 30.421875 42.28125 30.421875 31.390625 
Q 30.421875 20.453125 26.78125 9.375 
Q 23.140625 -1.703125 15.828125 -13.1875 
L 8.015625 -13.1875 
Q 14.5 -2 17.703125 9.0625 
Q 20.90625 20.125 20.90625 31.390625 
Q 20.90625 42.671875 17.703125 53.65625 
Q 14.5 64.65625 8.015625 75.875 
z
" id="DejaVuSans-41"/>
     </defs>
     <g transform="translate(19.209844 218.032062)rotate(-90)scale(0.17 -0.17)">
      <use xlink:href="#DejaVuSans-68"/>
      <use x="77.001953" xlink:href="#DejaVuSans-101"/>
      <use x="138.525391" xlink:href="#DejaVuSans-112"/>
      <use x="202.001953" xlink:href="#DejaVuSans-116"/>
      <use x="241.210938" xlink:href="#DejaVuSans-104"/>
      <use x="304.589844" xlink:href="#DejaVuSans-32"/>
      <use x="336.376953" xlink:href="#DejaVuSans-40"/>
      <use x="375.390625" xlink:href="#DejaVuSans-109"/>
      <use x="472.802734" xlink:href="#DejaVuSans-41"/>
     </g>
    </g>
   </g>
   <g id="line2d_14">
    <path clip-path="url(#pfef7545b76)" d="M 173.317094 53.568 
L 178.165114 56.036571 
L 175.330887 58.505143 
L 174.734208 60.973714 
L 173.317094 63.442286 
L 170.632037 65.910857 
L 169.662433 68.379429 
L 161.607262 70.848 
L 166.380697 73.316571 
L 165.784017 75.785143 
L 169.214924 78.253714 
L 167.499471 80.722286 
L 170.184528 83.190857 
L 166.380697 85.659429 
L 164.665244 88.128 
L 161.159753 90.596571 
L 161.159753 93.065143 
L 161.010583 95.533714 
L 159.891809 98.002286 
L 156.833827 100.470857 
L 156.610073 102.939429 
L 156.759243 105.408 
L 154.969205 107.876571 
L 159.817224 110.345143 
L 163.54647 112.813714 
L 166.007772 115.282286 
L 172.64583 117.750857 
L 170.333697 120.219429 
L 168.170735 122.688 
L 167.201131 125.156571 
L 169.960773 127.625143 
L 170.333697 130.093714 
L 163.24813 132.562286 
L 159.14596 135.030857 
L 161.383507 137.499429 
L 163.09896 139.968 
L 166.529867 142.436571 
L 168.543659 144.905143 
L 168.841999 147.373714 
L 171.154132 149.842286 
L 171.601641 152.310857 
L 173.540849 154.779429 
L 169.364093 157.248 
L 176.002151 159.716571 
L 177.568434 162.185143 
L 180.328076 164.653714 
L 184.430247 167.122286 
L 181.670605 169.590857 
L 187.264474 172.059429 
L 188.308662 174.528 
L 188.607002 176.996571 
L 188.905342 179.465143 
L 191.068304 181.933714 
L 192.783757 184.402286 
L 193.305852 186.870857 
L 193.156682 189.339429 
L 194.126286 191.808 
L 196.662173 194.276571 
L 196.140079 196.745143 
L 196.662173 199.213714 
L 195.468814 201.682286 
L 196.662173 204.150857 
L 197.631777 206.619429 
L 197.631777 209.088 
L 198.153871 211.556571 
L 201.137268 214.025143 
L 201.062683 216.493714 
L 203.076476 218.962286 
L 201.286438 221.430857 
L 204.269835 223.899429 
L 203.225646 226.368 
L 202.032287 228.836571 
L 202.330627 231.305143 
L 203.4494 233.773714 
L 205.239438 236.242286 
L 203.89691 238.710857 
L 204.19525 241.179429 
L 205.612363 243.648 
L 206.507382 246.116571 
L 206.954892 248.585143 
L 208.521175 251.053714 
L 208.073665 253.522286 
L 207.924495 255.990857 
L 208.59576 258.459429 
L 207.849911 260.928 
L 208.59576 263.396571 
L 209.117854 265.865143 
L 208.968684 268.333714 
L 209.267024 270.802286 
L 209.714533 273.270857 
L 208.968684 275.739429 
L 209.938288 278.208 
L 210.311213 280.676571 
L 211.728326 283.145143 
L 211.579156 285.613714 
L 212.325006 288.082286 
L 212.325006 290.550857 
L 212.474175 293.019429 
L 212.54876 295.488 
" style="fill:none;stroke:#000000;stroke-linecap:square;stroke-width:3;"/>
   </g>
   <g id="line2d_15">
    <path clip-path="url(#pfef7545b76)" d="M 173.257474 53.568 
L 158.923586 54.63019 
L 163.959817 55.692379 
L 166.671634 56.754569 
L 170.158255 57.816758 
L 171.901565 58.878948 
L 167.059036 59.941137 
L 166.671634 61.003327 
L 170.351956 62.065516 
L 173.257474 63.127706 
L 167.833841 64.189895 
L 170.158255 65.252085 
L 172.482669 66.314274 
L 168.996048 67.376464 
L 166.671634 68.438653 
L 172.870071 69.500843 
L 165.509426 70.563032 
L 166.671634 71.625222 
L 170.351956 72.687411 
L 170.158255 73.749601 
L 168.414944 74.811791 
L 162.991311 75.87398 
L 171.126761 76.93617 
L 165.703128 77.998359 
L 164.153518 79.060549 
L 165.703128 80.122738 
L 166.477932 81.184928 
L 162.991311 82.247117 
L 163.766116 83.309307 
L 167.446438 84.371496 
L 160.279494 85.433686 
L 169.189749 86.495875 
L 165.509426 87.558065 
L 160.666897 88.620254 
L 162.216506 89.682444 
L 166.477932 90.744633 
L 159.117287 91.806823 
L 161.054299 92.869012 
L 163.766116 93.931202 
L 162.410207 94.993392 
L 159.50469 96.055581 
L 155.243264 97.117771 
L 162.603909 98.17996 
L 154.468459 99.24215 
L 159.892092 100.304339 
L 158.923586 101.366529 
L 155.630666 102.428718 
L 153.693654 103.490908 
L 155.243264 104.553097 
L 152.531447 105.615287 
L 157.95508 106.677476 
L 151.950344 107.739666 
L 150.013332 108.801855 
L 151.950344 109.864045 
L 150.788136 110.926234 
L 145.945607 111.988424 
L 141.877882 113.050614 
L 154.855861 114.112803 
L 140.909376 115.174993 
L 144.7834 116.237182 
L 136.841651 117.299372 
L 147.107814 118.361561 
L 139.359767 119.423751 
L 134.129835 120.48594 
L 138.391261 121.54813 
L 131.611719 122.610319 
L 130.255811 123.672509 
L 122.120361 124.734698 
L 124.057373 125.796888 
L 118.440039 126.859077 
L 103.718749 127.921267 
L 107.786474 128.983456 
L 95.777001 130.045646 
L 93.839989 131.107835 
L 70.208444 132.170025 
L 75.438376 133.232215 
L 64.978512 134.294404 
L 75.050974 135.356594 
L 67.88403 136.418783 
L 67.690329 137.480973 
L 75.438376 138.543162 
L 89.965965 139.605352 
L 137.035352 140.667541 
L 143.427492 141.729731 
L 142.652687 142.79192 
L 152.144045 143.85411 
L 150.400734 144.916299 
L 157.373977 145.978489 
L 163.572415 147.040678 
L 165.896829 148.102868 
L 163.959817 149.165057 
L 165.315725 150.227247 
L 168.027542 151.289436 
L 170.158255 152.351626 
L 177.712601 153.413816 
L 180.424418 154.476005 
L 188.559867 155.538195 
L 199.407133 156.600384 
L 203.087456 157.662574 
" style="fill:none;stroke:#a2eb7f;stroke-dasharray:1.5,2.475;stroke-dashoffset:0;stroke-width:1.5;"/>
   </g>
   <g id="line2d_16">
    <path clip-path="url(#pfef7545b76)" d="M 184.870432 53.568 
L 174.261827 54.936485 
L 172.663271 56.304969 
L 173.099241 57.673454 
L 177.313618 59.041938 
L 174.697797 60.410423 
L 174.407151 61.778908 
L 171.936654 63.147392 
L 168.884863 64.515877 
L 170.04745 65.884362 
L 168.012923 67.252846 
L 170.192774 68.621331 
L 172.372624 69.989815 
L 174.261827 71.3583 
L 176.877648 72.726785 
L 172.372624 74.095269 
L 173.099241 75.463754 
L 174.697797 76.832239 
L 173.099241 78.200723 
L 173.971181 79.569208 
L 175.279091 80.937692 
L 172.953917 82.306177 
L 172.808594 83.674662 
L 173.099241 85.043146 
L 174.261827 86.411631 
L 171.35536 87.780115 
L 164.81581 89.1486 
L 164.37984 90.517085 
L 166.269043 91.885569 
L 163.071929 93.254054 
L 159.584169 94.622539 
L 158.712229 95.991023 
L 156.677702 97.359508 
L 159.002876 98.727992 
L 151.010091 100.096477 
L 153.771235 101.464962 
L 159.293522 102.833446 
L 155.951085 104.201931 
L 154.352528 105.570416 
L 150.574121 106.9389 
L 156.096409 108.307385 
L 157.404319 109.675869 
L 152.608648 111.044354 
L 153.189942 112.412839 
L 154.497852 113.781323 
L 151.882032 115.149808 
L 147.377008 116.518293 
L 146.505068 117.886777 
L 142.72666 119.255262 
L 141.564074 120.623746 
L 140.98278 121.992231 
L 140.692134 123.360716 
L 137.05905 124.7292 
L 134.8792 126.097685 
L 126.159799 127.466169 
L 131.827409 128.834654 
L 130.519499 130.203139 
L 123.398655 131.571623 
L 130.083529 132.940108 
L 126.305122 134.308593 
L 119.765571 135.677077 
L 114.679254 137.045562 
L 125.578505 138.414046 
L 129.066266 139.782531 
L 131.391439 141.151016 
L 130.083529 142.5195 
L 133.716613 143.887985 
L 138.076313 145.25647 
L 135.169846 146.624954 
L 142.436014 147.993439 
L 143.017307 149.361923 
L 150.283475 150.730408 
L 153.625912 152.098893 
L 153.480588 153.467377 
L 160.892079 154.835862 
L 164.81581 156.204346 
L 168.594217 157.572831 
L 166.705013 158.941316 
L 169.030187 160.3098 
L 173.971181 161.678285 
L 176.732324 163.04677 
L 179.057498 164.415254 
L 182.981228 165.783739 
L 188.067546 167.152223 
L 191.409983 168.520708 
L 193.153863 169.889193 
L 199.402767 171.257677 
L 199.98406 172.626162 
L 199.98406 173.994647 
L 203.617144 175.363131 
L 204.925054 176.731616 
L 204.343761 178.1001 
L 207.540874 179.468585 
L 208.267491 180.83707 
L 208.703461 182.205554 
L 210.011371 183.574039 
L 210.737988 184.942523 
L 210.447341 186.311008 
L 211.900575 187.679493 
" style="fill:none;stroke:#77cd86;stroke-dasharray:5.55,2.4;stroke-dashoffset:0;stroke-width:1.5;"/>
   </g>
   <g id="line2d_17">
    <path clip-path="url(#pfef7545b76)" d="M 175.722477 53.568 
L 167.656233 55.004389 
L 176.132625 56.440778 
L 170.663985 57.877167 
L 175.312329 59.313556 
L 176.816205 60.749945 
L 171.757713 62.186334 
L 177.773217 63.622723 
L 171.210849 65.059112 
L 178.456797 66.495501 
L 168.749961 67.931891 
L 170.527269 69.36828 
L 171.347565 70.804669 
L 171.347565 72.241058 
L 170.390553 73.677447 
L 171.484281 75.113836 
L 174.081885 76.550225 
L 170.663985 77.986614 
L 168.749961 79.423003 
L 172.031145 80.859392 
L 166.152357 82.295781 
L 168.749961 83.73217 
L 169.023393 85.168559 
L 168.339813 86.604948 
L 168.203097 88.041337 
L 169.843689 89.477726 
L 165.195345 90.914115 
L 168.476529 92.350504 
L 166.152357 93.786893 
L 165.058629 95.223283 
L 168.203097 96.659672 
L 160.136852 98.096061 
L 167.792949 99.53245 
L 164.101617 100.968839 
L 159.86342 102.405228 
L 163.418037 103.841617 
L 160.136852 105.278006 
L 158.632976 106.714395 
L 159.726704 108.150784 
L 160.273568 109.587173 
L 156.582236 111.023562 
L 158.49626 112.459951 
L 155.07836 113.89634 
L 154.804928 115.332729 
L 150.97688 116.769118 
L 148.652708 118.205507 
L 150.430016 119.641896 
L 146.8754 121.078285 
L 143.867648 122.514674 
L 147.012116 123.951064 
L 139.766167 125.387453 
L 137.715427 126.823842 
L 129.649183 128.260231 
L 130.059331 129.69662 
L 129.375751 131.133009 
L 120.079062 132.569398 
L 119.942346 134.005787 
L 126.504715 135.442176 
L 133.887379 136.878565 
L 133.613947 138.314954 
L 135.391255 139.751343 
L 135.938119 141.187732 
L 130.059331 142.624121 
L 125.957851 144.06051 
L 126.367999 145.496899 
L 127.188295 146.933288 
L 129.649183 148.369677 
L 130.742911 149.806066 
L 147.969128 151.242456 
L 154.39478 152.678845 
L 158.086112 154.115234 
L 159.589988 155.551623 
L 162.734456 156.988012 
L 160.683716 158.424401 
L 160.820432 159.86079 
L 163.828185 161.297179 
L 163.007889 162.733568 
L 174.492033 164.169957 
L 179.003661 165.606346 
L 180.780969 167.042735 
L 189.66751 168.479124 
L 201.425086 169.915513 
L 202.518815 171.351902 
L 205.799999 172.788291 
L 206.210147 174.22468 
L 206.620295 175.661069 
L 206.073431 177.097458 
L 206.620295 178.533848 
L 206.346863 179.970237 
L 206.893727 181.406626 
L 206.757011 182.843015 
L 205.799999 184.279404 
L 207.440591 185.715793 
L 207.030443 187.152182 
L 208.397603 188.588571 
L 208.124171 190.02496 
L 208.671035 191.461349 
L 209.354615 192.897738 
L 209.217899 194.334127 
" style="fill:none;stroke:#258d41;stroke-dasharray:9.6,2.4,1.5,2.4;stroke-dashoffset:0;stroke-width:1.5;"/>
   </g>
   <g id="line2d_18">
    <path clip-path="url(#pfef7545b76)" d="M 183.397574 53.568 
L 176.006459 55.548393 
L 176.954038 57.528786 
L 177.143554 59.509179 
L 175.248396 61.489571 
L 176.101217 63.469964 
L 173.163723 65.450357 
L 175.627428 67.43075 
L 172.500418 69.411143 
L 173.258481 71.391536 
L 170.415745 73.371929 
L 172.121386 75.352321 
L 174.774607 77.332714 
L 170.794776 79.313107 
L 166.341156 81.2935 
L 168.899619 83.273893 
L 165.583093 85.254286 
L 166.435914 87.234679 
L 159.802863 89.215071 
L 161.508504 91.195464 
L 159.139557 93.175857 
L 149.474254 95.15625 
L 151.46417 97.136643 
L 154.591179 99.117036 
L 153.927874 101.097429 
L 152.127475 103.077821 
L 150.327075 105.058214 
L 147.010549 107.038607 
L 137.345246 109.019 
L 135.82912 110.999393 
L 145.494423 112.979786 
L 144.452087 114.960178 
L 153.264569 116.940571 
L 151.085138 118.920964 
L 149.948044 120.901357 
L 144.925876 122.88175 
L 149.474254 124.862143 
L 150.99038 126.842536 
L 148.621433 128.822928 
L 152.222233 130.803321 
L 158.476252 132.783714 
L 159.708105 134.764107 
L 157.2444 136.7445 
L 161.413746 138.724893 
L 156.581095 140.705286 
L 163.403662 142.685678 
L 164.066967 144.666071 
L 165.014546 146.646464 
L 168.046798 148.626857 
L 167.004461 150.60725 
L 167.857282 152.587643 
L 174.964123 154.568036 
L 183.1133 156.548428 
L 183.018542 158.528821 
L 186.998373 160.509214 
L 185.482247 162.489607 
L 185.577005 164.47 
L 185.197973 166.450393 
L 182.639511 168.430786 
L 182.734268 170.411178 
L 185.292731 172.391571 
L 187.756436 174.371964 
L 186.24031 176.352357 
L 188.324983 178.33275 
L 192.873361 180.313143 
L 192.304814 182.293536 
L 193.536666 184.273928 
L 192.968119 186.254321 
L 193.82094 188.234714 
L 195.242308 190.215107 
L 198.179802 192.1955 
L 200.833023 194.175893 
L 201.780602 196.156286 
L 201.591086 198.136678 
L 202.254391 200.117071 
L 201.970117 202.097464 
L 203.107212 204.077857 
L 203.391485 206.05825 
L 203.486243 208.038643 
L 204.339064 210.019036 
L 203.581001 211.999428 
L 204.623338 213.979821 
L 203.675759 215.960214 
L 203.581001 217.940607 
L 204.718096 219.921 
L 205.286643 221.901393 
L 205.85519 223.881786 
L 210.30881 225.862178 
L 210.024537 227.842571 
L 209.929779 229.822964 
L 209.645505 231.803357 
L 209.929779 233.78375 
L 210.214052 235.764143 
L 209.740263 237.744535 
L 209.835021 239.724928 
L 210.687842 241.705321 
L 210.119295 243.685714 
L 210.119295 245.666107 
L 209.929779 247.6465 
" style="fill:none;stroke:#115029;stroke-linecap:square;stroke-width:1.5;"/>
   </g>
   <g id="patch_3">
    <path d="M 57.6 307.584 
L 57.6 41.472 
" style="fill:none;stroke:#000000;stroke-linecap:square;stroke-linejoin:miter;stroke-width:0.8;"/>
   </g>
   <g id="patch_4">
    <path d="M 219.927273 307.584 
L 219.927273 41.472 
" style="fill:none;stroke:#000000;stroke-linecap:square;stroke-linejoin:miter;stroke-width:0.8;"/>
   </g>
   <g id="patch_5">
    <path d="M 57.6 307.584 
L 219.927273 307.584 
" style="fill:none;stroke:#000000;stroke-linecap:square;stroke-linejoin:miter;stroke-width:0.8;"/>
   </g>
   <g id="patch_6">
    <path d="M 57.6 41.472 
L 219.927273 41.472 
" style="fill:none;stroke:#000000;stroke-linecap:square;stroke-linejoin:miter;stroke-width:0.8;"/>
   </g>
  </g>
  <g id="axes_2">
   <g id="patch_7">
    <path d="M 252.392727 307.584 
L 414.72 307.584 
L 414.72 41.472 
L 252.392727 41.472 
z
" style="fill:#ffffff;"/>
   </g>
   <g id="matplotlib.axis_3">
    <g id="xtick_5">
     <g id="line2d_19">
      <g>
       <use style="stroke:#000000;stroke-width:0.8;" x="258.911059" xlink:href="#md164f50ea0" y="307.584"/>
      </g>
     </g>
     <g id="text_16">
      <!-- 0.0 -->
      <g transform="translate(246.983715 325.981656)scale(0.15 -0.15)">
       <use xlink:href="#DejaVuSans-48"/>
       <use x="63.623047" xlink:href="#DejaVuSans-46"/>
       <use x="95.410156" xlink:href="#DejaVuSans-48"/>
      </g>
     </g>
    </g>
    <g id="xtick_6">
     <g id="line2d_20">
      <g>
       <use style="stroke:#000000;stroke-width:0.8;" x="333.126273" xlink:href="#md164f50ea0" y="307.584"/>
      </g>
     </g>
     <g id="text_17">
      <!-- 0.5 -->
      <defs>
       <path d="M 10.796875 72.90625 
L 49.515625 72.90625 
L 49.515625 64.59375 
L 19.828125 64.59375 
L 19.828125 46.734375 
Q 21.96875 47.46875 24.109375 47.828125 
Q 26.265625 48.1875 28.421875 48.1875 
Q 40.625 48.1875 47.75 41.5 
Q 54.890625 34.8125 54.890625 23.390625 
Q 54.890625 11.625 47.5625 5.09375 
Q 40.234375 -1.421875 26.90625 -1.421875 
Q 22.3125 -1.421875 17.546875 -0.640625 
Q 12.796875 0.140625 7.71875 1.703125 
L 7.71875 11.625 
Q 12.109375 9.234375 16.796875 8.0625 
Q 21.484375 6.890625 26.703125 6.890625 
Q 35.15625 6.890625 40.078125 11.328125 
Q 45.015625 15.765625 45.015625 23.390625 
Q 45.015625 31 40.078125 35.4375 
Q 35.15625 39.890625 26.703125 39.890625 
Q 22.75 39.890625 18.8125 39.015625 
Q 14.890625 38.140625 10.796875 36.28125 
z
" id="DejaVuSans-53"/>
      </defs>
      <g transform="translate(321.19893 325.981656)scale(0.15 -0.15)">
       <use xlink:href="#DejaVuSans-48"/>
       <use x="63.623047" xlink:href="#DejaVuSans-46"/>
       <use x="95.410156" xlink:href="#DejaVuSans-53"/>
      </g>
     </g>
    </g>
    <g id="xtick_7">
     <g id="line2d_21">
      <g>
       <use style="stroke:#000000;stroke-width:0.8;" x="407.341488" xlink:href="#md164f50ea0" y="307.584"/>
      </g>
     </g>
     <g id="text_18">
      <!-- 1.0 -->
      <g transform="translate(395.414144 325.981656)scale(0.15 -0.15)">
       <use xlink:href="#DejaVuSans-49"/>
       <use x="63.623047" xlink:href="#DejaVuSans-46"/>
       <use x="95.410156" xlink:href="#DejaVuSans-48"/>
      </g>
     </g>
    </g>
    <g id="text_19">
     <!-- CDF -->
     <defs>
      <path d="M 64.40625 67.28125 
L 64.40625 56.890625 
Q 59.421875 61.53125 53.78125 63.8125 
Q 48.140625 66.109375 41.796875 66.109375 
Q 29.296875 66.109375 22.65625 58.46875 
Q 16.015625 50.828125 16.015625 36.375 
Q 16.015625 21.96875 22.65625 14.328125 
Q 29.296875 6.6875 41.796875 6.6875 
Q 48.140625 6.6875 53.78125 8.984375 
Q 59.421875 11.28125 64.40625 15.921875 
L 64.40625 5.609375 
Q 59.234375 2.09375 53.4375 0.328125 
Q 47.65625 -1.421875 41.21875 -1.421875 
Q 24.65625 -1.421875 15.125 8.703125 
Q 5.609375 18.84375 5.609375 36.375 
Q 5.609375 53.953125 15.125 64.078125 
Q 24.65625 74.21875 41.21875 74.21875 
Q 47.75 74.21875 53.53125 72.484375 
Q 59.328125 70.75 64.40625 67.28125 
z
" id="DejaVuSans-67"/>
     </defs>
     <g transform="translate(316.187145 346.018531)scale(0.17 -0.17)">
      <use xlink:href="#DejaVuSans-67"/>
      <use x="69.824219" xlink:href="#DejaVuSans-68"/>
      <use x="146.826172" xlink:href="#DejaVuSans-70"/>
     </g>
    </g>
   </g>
   <g id="matplotlib.axis_4"/>
   <g id="line2d_22">
    <path clip-path="url(#pd584cc0c8d)" d="M 261.105205 53.568 
L 263.029748 56.036571 
L 265.111906 58.505143 
L 267.227244 60.973714 
L 269.42139 63.442286 
L 271.764854 65.910857 
L 274.162238 68.379429 
L 277.007576 70.848 
L 279.58746 73.316571 
L 282.200526 75.785143 
L 284.622796 78.253714 
L 287.140464 80.722286 
L 289.508814 83.190857 
L 292.088698 85.659429 
L 294.76398 88.128 
L 297.634204 90.596571 
L 300.504429 93.065143 
L 303.382949 95.533714 
L 306.323685 98.002286 
L 309.434477 100.470857 
L 312.557713 102.939429 
L 315.672653 105.408 
L 318.887139 107.876571 
L 321.832023 110.345143 
L 324.56952 112.813714 
L 327.170143 115.282286 
L 329.401618 117.750857 
L 331.761672 120.219429 
L 334.242011 122.688 
L 336.77627 125.156571 
L 339.157063 127.625143 
L 341.517118 130.093714 
L 344.271206 132.562286 
L 347.253419 135.030857 
L 350.111201 137.499429 
L 352.873584 139.968 
L 355.445173 142.436571 
L 357.904773 144.905143 
L 360.347782 147.373714 
L 362.662211 149.842286 
L 364.951755 152.310857 
L 367.133457 154.779429 
L 369.547432 157.248 
L 371.59226 159.716571 
L 373.549985 162.185143 
L 375.354245 164.653714 
L 376.93038 167.122286 
L 378.659981 169.590857 
L 380.078502 172.059429 
L 381.438955 174.528 
L 382.782818 176.996571 
L 384.110089 179.465143 
L 385.317077 181.933714 
L 386.428666 184.402286 
L 387.511222 186.870857 
L 388.602073 189.339429 
L 389.639004 191.808 
L 390.534913 194.276571 
L 391.459855 196.745143 
L 392.355763 199.213714 
L 393.318035 201.682286 
L 394.213943 204.150857 
L 395.055931 206.619429 
L 395.897919 209.088 
L 396.710873 211.556571 
L 397.357917 214.025143 
L 398.00911 216.493714 
L 398.548314 218.962286 
L 399.187063 221.430857 
L 399.659904 223.899429 
L 400.190813 226.368 
L 400.788085 228.836571 
L 401.368766 231.305143 
L 401.887231 233.773714 
L 402.306151 236.242286 
L 402.799731 238.710857 
L 403.276719 241.179429 
L 403.6749 243.648 
L 404.023309 246.116571 
L 404.346831 248.585143 
L 404.583252 251.053714 
L 404.844558 253.522286 
L 405.11416 255.990857 
L 405.346433 258.459429 
L 405.620182 260.928 
L 405.852455 263.396571 
L 406.055693 265.865143 
L 406.267227 268.333714 
L 406.46217 270.802286 
L 406.632227 273.270857 
L 406.843761 275.739429 
L 407.001374 278.208 
L 407.138249 280.676571 
L 407.196317 283.145143 
L 407.262681 285.613714 
L 407.287567 288.082286 
L 407.312454 290.550857 
L 407.329044 293.019429 
L 407.341488 295.488 
" style="fill:none;stroke:#000000;stroke-linecap:square;stroke-width:3;"/>
   </g>
   <g id="line2d_23">
    <path clip-path="url(#pd584cc0c8d)" d="M 259.856594 53.568 
L 261.145117 54.63019 
L 262.313131 55.692379 
L 263.416254 56.754569 
L 264.435949 57.816758 
L 265.413929 58.878948 
L 266.507783 59.941137 
L 267.610907 61.003327 
L 268.625966 62.065516 
L 269.571501 63.127706 
L 270.646815 64.189895 
L 271.666509 65.252085 
L 272.630584 66.314274 
L 273.678088 67.376464 
L 274.781212 68.438653 
L 275.736017 69.500843 
L 276.866951 70.563032 
L 277.970075 71.625222 
L 278.985134 72.687411 
L 280.004829 73.749601 
L 281.066238 74.811791 
L 282.257426 75.87398 
L 283.253946 76.93617 
L 284.380245 77.998359 
L 285.543623 79.060549 
L 286.669922 80.122738 
L 287.777681 81.184928 
L 288.96887 82.247117 
L 290.141518 83.309307 
L 291.226102 84.371496 
L 292.482181 85.433686 
L 293.52505 86.495875 
L 294.655984 87.558065 
L 295.902792 88.620254 
L 297.11252 89.682444 
L 298.220279 90.744633 
L 299.504167 91.806823 
L 300.741705 92.869012 
L 301.914354 93.931202 
L 303.119447 94.993392 
L 304.394065 96.055581 
L 305.770653 97.117771 
L 306.971111 98.17996 
L 308.366239 99.24215 
L 309.631587 100.304339 
L 310.92011 101.366529 
L 312.287427 102.428718 
L 313.701095 103.490908 
L 315.077682 104.553097 
L 316.519159 105.615287 
L 317.830857 106.677476 
L 319.286239 107.739666 
L 320.787971 108.801855 
L 322.243353 109.864045 
L 323.726545 110.926234 
L 325.325611 111.988424 
L 327.022012 113.050614 
L 328.407869 114.112803 
L 330.127445 115.174993 
L 331.754321 116.237182 
L 333.571231 117.299372 
L 335.142487 118.361561 
L 336.899143 119.423751 
L 338.780942 120.48594 
L 340.560773 121.54813 
L 342.502827 122.610319 
L 344.477326 123.672509 
L 346.646494 124.734698 
L 348.769313 125.796888 
L 351.026545 126.859077 
L 353.636036 127.921267 
L 356.148192 128.983456 
L 358.947717 130.045646 
L 361.793592 131.107835 
L 365.204933 132.170025 
L 368.49113 133.232215 
L 372.027616 134.294404 
L 375.323083 135.356594 
L 378.790044 136.418783 
L 382.26164 137.480973 
L 385.547837 138.543162 
L 388.486411 139.605352 
L 390.298686 140.667541 
L 391.958007 141.729731 
L 393.635868 142.79192 
L 395.086615 143.85411 
L 396.579076 144.916299 
L 397.904679 145.978489 
L 399.081963 147.040678 
L 400.203627 148.102868 
L 401.37164 149.165057 
L 402.507209 150.227247 
L 403.577888 151.289436 
L 404.597583 152.351626 
L 405.436513 153.413816 
L 406.210554 154.476005 
L 406.789926 155.538195 
L 407.109739 156.600384 
L 407.341488 157.662574 
" style="fill:none;stroke:#a2eb7f;stroke-dasharray:1.5,2.475;stroke-dashoffset:0;stroke-width:1.5;"/>
   </g>
   <g id="line2d_24">
    <path clip-path="url(#pd584cc0c8d)" d="M 259.77124 53.568 
L 260.958468 54.936485 
L 262.194978 56.304969 
L 263.418047 57.673454 
L 264.511193 59.041938 
L 265.684981 60.410423 
L 266.867729 61.778908 
L 268.126639 63.147392 
L 269.479632 64.515877 
L 270.796783 65.884362 
L 272.176656 67.252846 
L 273.489328 68.621331 
L 274.734797 69.989815 
L 275.922026 71.3583 
L 277.028612 72.726785 
L 278.274082 74.095269 
L 279.497151 75.463754 
L 280.670939 76.832239 
L 281.894009 78.200723 
L 283.090197 79.569208 
L 284.246065 80.937692 
L 285.473614 82.306177 
L 286.705644 83.674662 
L 287.928713 85.043146 
L 289.115941 86.411631 
L 290.392772 87.780115 
L 291.871207 89.1486 
L 293.363083 90.517085 
L 294.796717 91.885569 
L 296.328914 93.254054 
L 297.968633 94.622539 
L 299.635233 95.991023 
L 301.364554 97.359508 
L 303.022194 98.727992 
L 304.926239 100.096477 
L 306.745163 101.464962 
L 308.393842 102.833446 
L 310.145564 104.201931 
L 311.946567 105.570416 
L 313.864053 106.9389 
L 315.611295 108.307385 
L 317.318215 109.675869 
L 319.17298 111.044354 
L 321.009824 112.412839 
L 322.806347 113.781323 
L 324.683512 115.149808 
L 326.69956 116.518293 
L 328.742489 117.886777 
L 330.9019 119.255262 
L 333.097153 120.623746 
L 335.310326 121.992231 
L 337.532459 123.360716 
L 339.866594 124.7292 
L 342.267932 126.097685 
L 344.938076 127.466169 
L 347.433495 128.834654 
L 349.969236 130.203139 
L 352.724502 131.571623 
L 355.273683 132.940108 
L 357.939347 134.308593 
L 360.806615 135.677077 
L 363.830687 137.045562 
L 366.518752 138.414046 
L 369.099293 139.782531 
L 371.608153 141.151016 
L 374.157334 142.5195 
L 376.594513 143.887985 
L 378.897288 145.25647 
L 381.289665 146.624954 
L 383.458037 147.993439 
L 385.608488 149.361923 
L 387.534934 150.730408 
L 389.358338 152.098893 
L 391.186221 153.467377 
L 392.78562 154.835862 
L 394.264055 156.204346 
L 395.626008 157.572831 
L 397.046201 158.941316 
L 398.394714 160.3098 
L 399.590902 161.678285 
L 400.701969 163.04677 
L 401.741354 164.415254 
L 402.659776 165.783739 
L 403.421394 167.152223 
L 404.07997 168.520708 
L 404.684784 169.889193 
L 405.096954 171.257677 
L 405.491203 172.626162 
L 405.885453 173.994647 
L 406.1677 175.363131 
L 406.409625 176.731616 
L 406.669472 178.1001 
L 406.830755 179.468585 
L 406.969639 180.83707 
L 407.095082 182.205554 
L 407.180204 183.574039 
L 407.242925 184.942523 
L 407.314607 186.311008 
L 407.341488 187.679493 
" style="fill:none;stroke:#77cd86;stroke-dasharray:5.55,2.4;stroke-dashoffset:0;stroke-width:1.5;"/>
   </g>
   <g id="line2d_25">
    <path clip-path="url(#pd584cc0c8d)" d="M 260.109934 53.568 
L 261.569818 55.004389 
L 262.755421 56.440778 
L 264.11798 57.877167 
L 265.330127 59.313556 
L 266.49361 60.749945 
L 267.820778 62.186334 
L 268.953294 63.622723 
L 270.298157 65.059112 
L 271.408554 66.495501 
L 272.833048 67.931891 
L 274.20003 69.36828 
L 275.54047 70.804669 
L 276.880909 72.241058 
L 278.252315 73.677447 
L 279.588331 75.113836 
L 280.840292 76.550225 
L 282.202851 77.986614 
L 283.627344 79.423003 
L 284.945664 80.859392 
L 286.454211 82.295781 
L 287.878705 83.73217 
L 289.29435 85.168559 
L 290.732115 86.604948 
L 292.174304 88.041337 
L 293.563406 89.477726 
L 295.102921 90.914115 
L 296.536262 92.350504 
L 298.044809 93.786893 
L 299.588747 95.223283 
L 301.030936 96.659672 
L 302.734134 98.096061 
L 304.189595 99.53245 
L 305.764501 100.968839 
L 307.476547 102.405228 
L 309.073572 103.841617 
L 310.77677 105.278006 
L 312.528632 106.714395 
L 314.245102 108.150784 
L 315.943876 109.587173 
L 317.762096 111.023562 
L 319.518381 112.459951 
L 321.385264 113.89634 
L 323.260994 115.332729 
L 325.260593 116.769118 
L 327.335399 118.205507 
L 329.352693 119.641896 
L 331.485009 121.078285 
L 333.714651 122.514674 
L 335.842543 123.951064 
L 338.204902 125.387453 
L 340.633618 126.823842 
L 343.323345 128.260231 
L 345.999799 129.69662 
L 348.698374 131.133009 
L 351.697772 132.569398 
L 354.701595 134.005787 
L 357.493071 135.442176 
L 360.045657 136.878565 
L 362.60709 138.314954 
L 365.111013 139.751343 
L 367.597241 141.187732 
L 370.273696 142.624121 
L 373.082867 144.06051 
L 375.878767 145.496899 
L 378.648123 146.933288 
L 381.33785 148.369677 
L 383.992185 149.806066 
L 386.08911 151.242456 
L 387.978112 152.678845 
L 389.747669 154.115234 
L 391.468563 155.551623 
L 393.087707 156.988012 
L 394.77321 158.424401 
L 396.454289 159.86079 
L 398.038042 161.297179 
L 399.648339 162.733568 
L 400.887029 164.169957 
L 401.97973 165.606346 
L 403.014921 167.042735 
L 403.762559 168.479124 
L 404.129742 169.915513 
L 404.461534 171.351902 
L 404.687152 172.788291 
L 404.899499 174.22468 
L 405.098574 175.661069 
L 405.315345 177.097458 
L 405.51442 178.533848 
L 405.722343 179.970237 
L 405.91257 181.406626 
L 406.107222 182.843015 
L 406.33284 184.279404 
L 406.505372 185.715793 
L 406.691175 187.152182 
L 406.83274 188.588571 
L 406.983152 190.02496 
L 407.115869 191.461349 
L 407.226466 192.897738 
L 407.341488 194.334127 
" style="fill:none;stroke:#258d41;stroke-dasharray:9.6,2.4,1.5,2.4;stroke-dashoffset:0;stroke-width:1.5;"/>
   </g>
   <g id="line2d_26">
    <path clip-path="url(#pd584cc0c8d)" d="M 260.221572 53.568 
L 261.861828 55.548393 
L 263.459809 57.528786 
L 265.049334 59.509179 
L 266.723409 61.489571 
L 268.359437 63.469964 
L 270.126517 65.450357 
L 271.783682 67.43075 
L 273.580353 69.411143 
L 275.343205 71.391536 
L 277.232881 73.371929 
L 279.046462 75.352321 
L 280.741674 77.332714 
L 282.61444 79.313107 
L 284.685897 81.2935 
L 286.643212 83.273893 
L 288.748488 85.254286 
L 290.815717 87.234679 
L 293.178868 89.215071 
L 295.465926 91.195464 
L 297.858669 93.175857 
L 300.682614 95.15625 
L 303.417782 97.136643 
L 306.013444 99.117036 
L 308.638698 101.097429 
L 311.344274 103.077821 
L 314.130172 105.058214 
L 317.06403 107.038607 
L 320.42909 109.019 
L 323.86179 110.999393 
L 326.863288 112.979786 
L 329.911288 114.960178 
L 332.566135 116.940571 
L 335.318213 118.920964 
L 338.12102 120.901357 
L 341.147883 122.88175 
L 343.971828 124.862143 
L 346.728133 126.842536 
L 349.590125 128.822928 
L 352.291474 130.803321 
L 354.71381 132.783714 
L 357.081188 134.764107 
L 359.558481 136.7445 
L 361.849766 138.724893 
L 364.356651 140.705286 
L 366.559159 142.685678 
L 368.732074 144.666071 
L 370.862715 146.646464 
L 372.858078 148.626857 
L 374.899942 150.60725 
L 376.903759 152.587643 
L 378.590517 154.568036 
L 379.913712 156.548428 
L 381.241135 158.528821 
L 382.391005 160.509214 
L 383.608514 162.489607 
L 384.821796 164.47 
L 386.051988 166.450393 
L 387.396321 168.430786 
L 388.736426 170.411178 
L 389.96239 172.391571 
L 391.07844 174.371964 
L 392.26213 176.352357 
L 393.352815 178.33275 
L 394.240582 180.313143 
L 395.153714 182.293536 
L 396.011889 184.273928 
L 396.895428 186.254321 
L 397.740921 188.234714 
L 398.523001 190.215107 
L 399.17403 192.1955 
L 399.706691 194.175893 
L 400.197076 196.156286 
L 400.695917 198.136678 
L 401.165165 200.117071 
L 401.647096 202.097464 
L 402.078297 204.077857 
L 402.496816 206.05825 
L 402.911107 208.038643 
L 403.287351 210.019036 
L 403.697415 211.999428 
L 404.060977 213.979821 
L 404.466813 215.960214 
L 404.876877 217.940607 
L 405.236211 219.921 
L 405.570181 221.901393 
L 405.878786 223.881786 
L 405.9887 225.862178 
L 406.111296 227.842571 
L 406.23812 229.822964 
L 406.377626 231.803357 
L 406.50445 233.78375 
L 406.618592 235.764143 
L 406.75387 237.744535 
L 406.884922 239.724928 
L 406.977926 241.705321 
L 407.096295 243.685714 
L 407.214664 245.666107 
L 407.341488 247.6465 
" style="fill:none;stroke:#115029;stroke-linecap:square;stroke-width:1.5;"/>
   </g>
   <g id="patch_8">
    <path d="M 252.392727 307.584 
L 252.392727 41.472 
" style="fill:none;stroke:#000000;stroke-linecap:square;stroke-linejoin:miter;stroke-width:0.8;"/>
   </g>
   <g id="patch_9">
    <path d="M 414.72 307.584 
L 414.72 41.472 
" style="fill:none;stroke:#000000;stroke-linecap:square;stroke-linejoin:miter;stroke-width:0.8;"/>
   </g>
   <g id="patch_10">
    <path d="M 252.392727 307.584 
L 414.72 307.584 
" style="fill:none;stroke:#000000;stroke-linecap:square;stroke-linejoin:miter;stroke-width:0.8;"/>
   </g>
   <g id="patch_11">
    <path d="M 252.392727 41.472 
L 414.72 41.472 
" style="fill:none;stroke:#000000;stroke-linecap:square;stroke-linejoin:miter;stroke-width:0.8;"/>
   </g>
   <g id="legend_1">
    <g id="patch_12">
     <path d="M 261.492727 301.084 
L 345.81804 301.084 
Q 348.41804 301.084 348.41804 298.484 
L 348.41804 225.176187 
Q 348.41804 222.576187 345.81804 222.576187 
L 261.492727 222.576187 
Q 258.892727 222.576187 258.892727 225.176187 
L 258.892727 298.484 
Q 258.892727 301.084 261.492727 301.084 
z
" style="fill:#ffffff;opacity:0.8;stroke:#cccccc;stroke-linejoin:miter;"/>
    </g>
    <g id="line2d_27">
     <path d="M 264.092727 233.104156 
L 290.092727 233.104156 
" style="fill:none;stroke:#000000;stroke-linecap:square;stroke-width:3;"/>
    </g>
    <g id="line2d_28"/>
    <g id="text_20">
     <!-- TS -->
     <defs>
      <path d="M -0.296875 72.90625 
L 61.375 72.90625 
L 61.375 64.59375 
L 35.5 64.59375 
L 35.5 0 
L 25.59375 0 
L 25.59375 64.59375 
L -0.296875 64.59375 
z
" id="DejaVuSans-84"/>
      <path d="M 53.515625 70.515625 
L 53.515625 60.890625 
Q 47.90625 63.578125 42.921875 64.890625 
Q 37.9375 66.21875 33.296875 66.21875 
Q 25.25 66.21875 20.875 63.09375 
Q 16.5 59.96875 16.5 54.203125 
Q 16.5 49.359375 19.40625 46.890625 
Q 22.3125 44.4375 30.421875 42.921875 
L 36.375 41.703125 
Q 47.40625 39.59375 52.65625 34.296875 
Q 57.90625 29 57.90625 20.125 
Q 57.90625 9.515625 50.796875 4.046875 
Q 43.703125 -1.421875 29.984375 -1.421875 
Q 24.8125 -1.421875 18.96875 -0.25 
Q 13.140625 0.921875 6.890625 3.21875 
L 6.890625 13.375 
Q 12.890625 10.015625 18.65625 8.296875 
Q 24.421875 6.59375 29.984375 6.59375 
Q 38.421875 6.59375 43.015625 9.90625 
Q 47.609375 13.234375 47.609375 19.390625 
Q 47.609375 24.75 44.3125 27.78125 
Q 41.015625 30.8125 33.5 32.328125 
L 27.484375 33.5 
Q 16.453125 35.6875 11.515625 40.375 
Q 6.59375 45.0625 6.59375 53.421875 
Q 6.59375 63.09375 13.40625 68.65625 
Q 20.21875 74.21875 32.171875 74.21875 
Q 37.3125 74.21875 42.625 73.28125 
Q 47.953125 72.359375 53.515625 70.515625 
z
" id="DejaVuSans-83"/>
     </defs>
     <g transform="translate(300.492727 237.654156)scale(0.13 -0.13)">
      <use xlink:href="#DejaVuSans-84"/>
      <use x="61.083984" xlink:href="#DejaVuSans-83"/>
     </g>
    </g>
    <g id="line2d_29">
     <path d="M 264.092727 246.985719 
L 290.092727 246.985719 
" style="fill:none;stroke:#a2eb7f;stroke-dasharray:1.5,2.475;stroke-dashoffset:0;stroke-width:1.5;"/>
    </g>
    <g id="line2d_30"/>
    <g id="text_21">
     <!-- RB, n0 -->
     <defs>
      <path d="M 44.390625 34.1875 
Q 47.5625 33.109375 50.5625 29.59375 
Q 53.5625 26.078125 56.59375 19.921875 
L 66.609375 0 
L 56 0 
L 46.6875 18.703125 
Q 43.0625 26.03125 39.671875 28.421875 
Q 36.28125 30.8125 30.421875 30.8125 
L 19.671875 30.8125 
L 19.671875 0 
L 9.8125 0 
L 9.8125 72.90625 
L 32.078125 72.90625 
Q 44.578125 72.90625 50.734375 67.671875 
Q 56.890625 62.453125 56.890625 51.90625 
Q 56.890625 45.015625 53.6875 40.46875 
Q 50.484375 35.9375 44.390625 34.1875 
z
M 19.671875 64.796875 
L 19.671875 38.921875 
L 32.078125 38.921875 
Q 39.203125 38.921875 42.84375 42.21875 
Q 46.484375 45.515625 46.484375 51.90625 
Q 46.484375 58.296875 42.84375 61.546875 
Q 39.203125 64.796875 32.078125 64.796875 
z
" id="DejaVuSans-82"/>
      <path d="M 19.671875 34.8125 
L 19.671875 8.109375 
L 35.5 8.109375 
Q 43.453125 8.109375 47.28125 11.40625 
Q 51.125 14.703125 51.125 21.484375 
Q 51.125 28.328125 47.28125 31.5625 
Q 43.453125 34.8125 35.5 34.8125 
z
M 19.671875 64.796875 
L 19.671875 42.828125 
L 34.28125 42.828125 
Q 41.5 42.828125 45.03125 45.53125 
Q 48.578125 48.25 48.578125 53.8125 
Q 48.578125 59.328125 45.03125 62.0625 
Q 41.5 64.796875 34.28125 64.796875 
z
M 9.8125 72.90625 
L 35.015625 72.90625 
Q 46.296875 72.90625 52.390625 68.21875 
Q 58.5 63.53125 58.5 54.890625 
Q 58.5 48.1875 55.375 44.234375 
Q 52.25 40.28125 46.1875 39.3125 
Q 53.46875 37.75 57.5 32.78125 
Q 61.53125 27.828125 61.53125 20.40625 
Q 61.53125 10.640625 54.890625 5.3125 
Q 48.25 0 35.984375 0 
L 9.8125 0 
z
" id="DejaVuSans-66"/>
      <path d="M 11.71875 12.40625 
L 22.015625 12.40625 
L 22.015625 4 
L 14.015625 -11.625 
L 7.71875 -11.625 
L 11.71875 4 
z
" id="DejaVuSans-44"/>
      <path d="M 54.890625 33.015625 
L 54.890625 0 
L 45.90625 0 
L 45.90625 32.71875 
Q 45.90625 40.484375 42.875 44.328125 
Q 39.84375 48.1875 33.796875 48.1875 
Q 26.515625 48.1875 22.3125 43.546875 
Q 18.109375 38.921875 18.109375 30.90625 
L 18.109375 0 
L 9.078125 0 
L 9.078125 54.6875 
L 18.109375 54.6875 
L 18.109375 46.1875 
Q 21.34375 51.125 25.703125 53.5625 
Q 30.078125 56 35.796875 56 
Q 45.21875 56 50.046875 50.171875 
Q 54.890625 44.34375 54.890625 33.015625 
z
" id="DejaVuSans-110"/>
     </defs>
     <g transform="translate(300.492727 251.535719)scale(0.13 -0.13)">
      <use xlink:href="#DejaVuSans-82"/>
      <use x="69.482422" xlink:href="#DejaVuSans-66"/>
      <use x="138.085938" xlink:href="#DejaVuSans-44"/>
      <use x="169.873047" xlink:href="#DejaVuSans-32"/>
      <use x="201.660156" xlink:href="#DejaVuSans-110"/>
      <use x="265.039062" xlink:href="#DejaVuSans-48"/>
     </g>
    </g>
    <g id="line2d_31">
     <path d="M 264.092727 260.867281 
L 290.092727 260.867281 
" style="fill:none;stroke:#77cd86;stroke-dasharray:5.55,2.4;stroke-dashoffset:0;stroke-width:1.5;"/>
    </g>
    <g id="line2d_32"/>
    <g id="text_22">
     <!-- RB, s0 -->
     <defs>
      <path d="M 44.28125 53.078125 
L 44.28125 44.578125 
Q 40.484375 46.53125 36.375 47.5 
Q 32.28125 48.484375 27.875 48.484375 
Q 21.1875 48.484375 17.84375 46.4375 
Q 14.5 44.390625 14.5 40.28125 
Q 14.5 37.15625 16.890625 35.375 
Q 19.28125 33.59375 26.515625 31.984375 
L 29.59375 31.296875 
Q 39.15625 29.25 43.1875 25.515625 
Q 47.21875 21.78125 47.21875 15.09375 
Q 47.21875 7.46875 41.1875 3.015625 
Q 35.15625 -1.421875 24.609375 -1.421875 
Q 20.21875 -1.421875 15.453125 -0.5625 
Q 10.6875 0.296875 5.421875 2 
L 5.421875 11.28125 
Q 10.40625 8.6875 15.234375 7.390625 
Q 20.0625 6.109375 24.8125 6.109375 
Q 31.15625 6.109375 34.5625 8.28125 
Q 37.984375 10.453125 37.984375 14.40625 
Q 37.984375 18.0625 35.515625 20.015625 
Q 33.0625 21.96875 24.703125 23.78125 
L 21.578125 24.515625 
Q 13.234375 26.265625 9.515625 29.90625 
Q 5.8125 33.546875 5.8125 39.890625 
Q 5.8125 47.609375 11.28125 51.796875 
Q 16.75 56 26.8125 56 
Q 31.78125 56 36.171875 55.265625 
Q 40.578125 54.546875 44.28125 53.078125 
z
" id="DejaVuSans-115"/>
     </defs>
     <g transform="translate(300.492727 265.417281)scale(0.13 -0.13)">
      <use xlink:href="#DejaVuSans-82"/>
      <use x="69.482422" xlink:href="#DejaVuSans-66"/>
      <use x="138.085938" xlink:href="#DejaVuSans-44"/>
      <use x="169.873047" xlink:href="#DejaVuSans-32"/>
      <use x="201.660156" xlink:href="#DejaVuSans-115"/>
      <use x="253.759766" xlink:href="#DejaVuSans-48"/>
     </g>
    </g>
    <g id="line2d_33">
     <path d="M 264.092727 274.748844 
L 290.092727 274.748844 
" style="fill:none;stroke:#258d41;stroke-dasharray:9.6,2.4,1.5,2.4;stroke-dashoffset:0;stroke-width:1.5;"/>
    </g>
    <g id="line2d_34"/>
    <g id="text_23">
     <!-- RB, s1 -->
     <g transform="translate(300.492727 279.298844)scale(0.13 -0.13)">
      <use xlink:href="#DejaVuSans-82"/>
      <use x="69.482422" xlink:href="#DejaVuSans-66"/>
      <use x="138.085938" xlink:href="#DejaVuSans-44"/>
      <use x="169.873047" xlink:href="#DejaVuSans-32"/>
      <use x="201.660156" xlink:href="#DejaVuSans-115"/>
      <use x="253.759766" xlink:href="#DejaVuSans-49"/>
     </g>
    </g>
    <g id="line2d_35">
     <path d="M 264.092727 288.630406 
L 290.092727 288.630406 
" style="fill:none;stroke:#115029;stroke-linecap:square;stroke-width:1.5;"/>
    </g>
    <g id="line2d_36"/>
    <g id="text_24">
     <!-- RB, s2 -->
     <g transform="translate(300.492727 293.180406)scale(0.13 -0.13)">
      <use xlink:href="#DejaVuSans-82"/>
      <use x="69.482422" xlink:href="#DejaVuSans-66"/>
      <use x="138.085938" xlink:href="#DejaVuSans-44"/>
      <use x="169.873047" xlink:href="#DejaVuSans-32"/>
      <use x="201.660156" xlink:href="#DejaVuSans-115"/>
      <use x="253.759766" xlink:href="#DejaVuSans-50"/>
     </g>
    </g>
   </g>
  </g>
 </g>
 <defs>
  <clipPath id="pfef7545b76">
   <rect height="266.112" width="162.327273" x="57.6" y="41.472"/>
  </clipPath>
  <clipPath id="pd584cc0c8d">
   <rect height="266.112" width="162.327273" x="252.392727" y="41.472"/>
  </clipPath>
 </defs>
</svg>
