<?xml version="1.0" encoding="utf-8" standalone="no"?>
<!DOCTYPE svg PUBLIC "-//W3C//DTD SVG 1.1//EN"
  "http://www.w3.org/Graphics/SVG/1.1/DTD/svg11.dtd">
<!-- Created with matplotlib (https://matplotlib.org/) -->
<svg height="345.6pt" version="1.1" viewBox="0 0 460.8 345.6" width="460.8pt" xmlns="http://www.w3.org/2000/svg" xmlns:xlink="http://www.w3.org/1999/xlink">
 <defs>
  <style type="text/css">
*{stroke-linecap:butt;stroke-linejoin:round;}
  </style>
 </defs>
 <g id="figure_1">
  <g id="patch_1">
   <path d="M 0 345.6 
L 460.8 345.6 
L 460.8 0 
L 0 0 
z
" style="fill:#ffffff;"/>
  </g>
  <g id="axes_1">
   <g id="patch_2">
    <path d="M 57.6 307.584 
L 219.927273 307.584 
L 219.927273 41.472 
L 57.6 41.472 
z
" style="fill:#ffffff;"/>
   </g>
   <g id="matplotlib.axis_1">
    <g id="xtick_1">
     <g id="line2d_1">
      <defs>
       <path d="M 0 0 
L 0 3.5 
" id="m5aa0446f25" style="stroke:#000000;stroke-width:0.8;"/>
      </defs>
      <g>
       <use style="stroke:#000000;stroke-width:0.8;" x="215.446082" xlink:href="#m5aa0446f25" y="307.584"/>
      </g>
     </g>
     <g id="text_1">
      <!-- 0 -->
      <defs>
       <path d="M 31.78125 66.40625 
Q 24.171875 66.40625 20.328125 58.90625 
Q 16.5 51.421875 16.5 36.375 
Q 16.5 21.390625 20.328125 13.890625 
Q 24.171875 6.390625 31.78125 6.390625 
Q 39.453125 6.390625 43.28125 13.890625 
Q 47.125 21.390625 47.125 36.375 
Q 47.125 51.421875 43.28125 58.90625 
Q 39.453125 66.40625 31.78125 66.40625 
z
M 31.78125 74.21875 
Q 44.046875 74.21875 50.515625 64.515625 
Q 56.984375 54.828125 56.984375 36.375 
Q 56.984375 17.96875 50.515625 8.265625 
Q 44.046875 -1.421875 31.78125 -1.421875 
Q 19.53125 -1.421875 13.0625 8.265625 
Q 6.59375 17.96875 6.59375 36.375 
Q 6.59375 54.828125 13.0625 64.515625 
Q 19.53125 74.21875 31.78125 74.21875 
z
" id="DejaVuSans-48"/>
      </defs>
      <g transform="translate(210.674207 325.981656)scale(0.15 -0.15)">
       <use xlink:href="#DejaVuSans-48"/>
      </g>
     </g>
    </g>
    <g id="xtick_2">
     <g id="line2d_2">
      <g>
       <use style="stroke:#000000;stroke-width:0.8;" x="182.515948" xlink:href="#m5aa0446f25" y="307.584"/>
      </g>
     </g>
     <g id="text_2">
      <!-- 1 -->
      <defs>
       <path d="M 12.40625 8.296875 
L 28.515625 8.296875 
L 28.515625 63.921875 
L 10.984375 60.40625 
L 10.984375 69.390625 
L 28.421875 72.90625 
L 38.28125 72.90625 
L 38.28125 8.296875 
L 54.390625 8.296875 
L 54.390625 0 
L 12.40625 0 
z
" id="DejaVuSans-49"/>
      </defs>
      <g transform="translate(177.744073 325.981656)scale(0.15 -0.15)">
       <use xlink:href="#DejaVuSans-49"/>
      </g>
     </g>
    </g>
    <g id="xtick_3">
     <g id="line2d_3">
      <g>
       <use style="stroke:#000000;stroke-width:0.8;" x="149.585814" xlink:href="#m5aa0446f25" y="307.584"/>
      </g>
     </g>
     <g id="text_3">
      <!-- 2 -->
      <defs>
       <path d="M 19.1875 8.296875 
L 53.609375 8.296875 
L 53.609375 0 
L 7.328125 0 
L 7.328125 8.296875 
Q 12.9375 14.109375 22.625 23.890625 
Q 32.328125 33.6875 34.8125 36.53125 
Q 39.546875 41.84375 41.421875 45.53125 
Q 43.3125 49.21875 43.3125 52.78125 
Q 43.3125 58.59375 39.234375 62.25 
Q 35.15625 65.921875 28.609375 65.921875 
Q 23.96875 65.921875 18.8125 64.3125 
Q 13.671875 62.703125 7.8125 59.421875 
L 7.8125 69.390625 
Q 13.765625 71.78125 18.9375 73 
Q 24.125 74.21875 28.421875 74.21875 
Q 39.75 74.21875 46.484375 68.546875 
Q 53.21875 62.890625 53.21875 53.421875 
Q 53.21875 48.921875 51.53125 44.890625 
Q 49.859375 40.875 45.40625 35.40625 
Q 44.1875 33.984375 37.640625 27.21875 
Q 31.109375 20.453125 19.1875 8.296875 
z
" id="DejaVuSans-50"/>
      </defs>
      <g transform="translate(144.813939 325.981656)scale(0.15 -0.15)">
       <use xlink:href="#DejaVuSans-50"/>
      </g>
     </g>
    </g>
    <g id="xtick_4">
     <g id="line2d_4">
      <g>
       <use style="stroke:#000000;stroke-width:0.8;" x="116.65568" xlink:href="#m5aa0446f25" y="307.584"/>
      </g>
     </g>
     <g id="text_4">
      <!-- 3 -->
      <defs>
       <path d="M 40.578125 39.3125 
Q 47.65625 37.796875 51.625 33 
Q 55.609375 28.21875 55.609375 21.1875 
Q 55.609375 10.40625 48.1875 4.484375 
Q 40.765625 -1.421875 27.09375 -1.421875 
Q 22.515625 -1.421875 17.65625 -0.515625 
Q 12.796875 0.390625 7.625 2.203125 
L 7.625 11.71875 
Q 11.71875 9.328125 16.59375 8.109375 
Q 21.484375 6.890625 26.8125 6.890625 
Q 36.078125 6.890625 40.9375 10.546875 
Q 45.796875 14.203125 45.796875 21.1875 
Q 45.796875 27.640625 41.28125 31.265625 
Q 36.765625 34.90625 28.71875 34.90625 
L 20.21875 34.90625 
L 20.21875 43.015625 
L 29.109375 43.015625 
Q 36.375 43.015625 40.234375 45.921875 
Q 44.09375 48.828125 44.09375 54.296875 
Q 44.09375 59.90625 40.109375 62.90625 
Q 36.140625 65.921875 28.71875 65.921875 
Q 24.65625 65.921875 20.015625 65.03125 
Q 15.375 64.15625 9.8125 62.3125 
L 9.8125 71.09375 
Q 15.4375 72.65625 20.34375 73.4375 
Q 25.25 74.21875 29.59375 74.21875 
Q 40.828125 74.21875 47.359375 69.109375 
Q 53.90625 64.015625 53.90625 55.328125 
Q 53.90625 49.265625 50.4375 45.09375 
Q 46.96875 40.921875 40.578125 39.3125 
z
" id="DejaVuSans-51"/>
      </defs>
      <g transform="translate(111.883805 325.981656)scale(0.15 -0.15)">
       <use xlink:href="#DejaVuSans-51"/>
      </g>
     </g>
    </g>
    <g id="xtick_5">
     <g id="line2d_5">
      <g>
       <use style="stroke:#000000;stroke-width:0.8;" x="83.725546" xlink:href="#m5aa0446f25" y="307.584"/>
      </g>
     </g>
     <g id="text_5">
      <!-- 4 -->
      <defs>
       <path d="M 37.796875 64.3125 
L 12.890625 25.390625 
L 37.796875 25.390625 
z
M 35.203125 72.90625 
L 47.609375 72.90625 
L 47.609375 25.390625 
L 58.015625 25.390625 
L 58.015625 17.1875 
L 47.609375 17.1875 
L 47.609375 0 
L 37.796875 0 
L 37.796875 17.1875 
L 4.890625 17.1875 
L 4.890625 26.703125 
z
" id="DejaVuSans-52"/>
      </defs>
      <g transform="translate(78.953671 325.981656)scale(0.15 -0.15)">
       <use xlink:href="#DejaVuSans-52"/>
      </g>
     </g>
    </g>
    <g id="text_6">
     <!-- PDF -->
     <defs>
      <path d="M 19.671875 64.796875 
L 19.671875 37.40625 
L 32.078125 37.40625 
Q 38.96875 37.40625 42.71875 40.96875 
Q 46.484375 44.53125 46.484375 51.125 
Q 46.484375 57.671875 42.71875 61.234375 
Q 38.96875 64.796875 32.078125 64.796875 
z
M 9.8125 72.90625 
L 32.078125 72.90625 
Q 44.34375 72.90625 50.609375 67.359375 
Q 56.890625 61.8125 56.890625 51.125 
Q 56.890625 40.328125 50.609375 34.8125 
Q 44.34375 29.296875 32.078125 29.296875 
L 19.671875 29.296875 
L 19.671875 0 
L 9.8125 0 
z
" id="DejaVuSans-80"/>
      <path d="M 19.671875 64.796875 
L 19.671875 8.109375 
L 31.59375 8.109375 
Q 46.6875 8.109375 53.6875 14.9375 
Q 60.6875 21.78125 60.6875 36.53125 
Q 60.6875 51.171875 53.6875 57.984375 
Q 46.6875 64.796875 31.59375 64.796875 
z
M 9.8125 72.90625 
L 30.078125 72.90625 
Q 51.265625 72.90625 61.171875 64.09375 
Q 71.09375 55.28125 71.09375 36.53125 
Q 71.09375 17.671875 61.125 8.828125 
Q 51.171875 0 30.078125 0 
L 9.8125 0 
z
" id="DejaVuSans-68"/>
      <path d="M 9.8125 72.90625 
L 51.703125 72.90625 
L 51.703125 64.59375 
L 19.671875 64.59375 
L 19.671875 43.109375 
L 48.578125 43.109375 
L 48.578125 34.8125 
L 19.671875 34.8125 
L 19.671875 0 
L 9.8125 0 
z
" id="DejaVuSans-70"/>
     </defs>
     <g transform="translate(122.204574 346.018531)scale(0.17 -0.17)">
      <use xlink:href="#DejaVuSans-80"/>
      <use x="60.302734" xlink:href="#DejaVuSans-68"/>
      <use x="137.304688" xlink:href="#DejaVuSans-70"/>
     </g>
    </g>
   </g>
   <g id="matplotlib.axis_2">
    <g id="ytick_1">
     <g id="line2d_6">
      <defs>
       <path d="M 0 0 
L -3.5 0 
" id="m6547957619" style="stroke:#000000;stroke-width:0.8;"/>
      </defs>
      <g>
       <use style="stroke:#000000;stroke-width:0.8;" x="57.6" xlink:href="#m6547957619" y="53.568"/>
      </g>
     </g>
     <g id="text_7">
      <!-- 0.0 -->
      <defs>
       <path d="M 10.6875 12.40625 
L 21 12.40625 
L 21 0 
L 10.6875 0 
z
" id="DejaVuSans-46"/>
      </defs>
      <g transform="translate(26.745313 59.266828)scale(0.15 -0.15)">
       <use xlink:href="#DejaVuSans-48"/>
       <use x="63.623047" xlink:href="#DejaVuSans-46"/>
       <use x="95.410156" xlink:href="#DejaVuSans-48"/>
      </g>
     </g>
    </g>
    <g id="ytick_2">
     <g id="line2d_7">
      <g>
       <use style="stroke:#000000;stroke-width:0.8;" x="57.6" xlink:href="#m6547957619" y="86.593154"/>
      </g>
     </g>
     <g id="text_8">
      <!-- 0.2 -->
      <g transform="translate(26.745313 92.291982)scale(0.15 -0.15)">
       <use xlink:href="#DejaVuSans-48"/>
       <use x="63.623047" xlink:href="#DejaVuSans-46"/>
       <use x="95.410156" xlink:href="#DejaVuSans-50"/>
      </g>
     </g>
    </g>
    <g id="ytick_3">
     <g id="line2d_8">
      <g>
       <use style="stroke:#000000;stroke-width:0.8;" x="57.6" xlink:href="#m6547957619" y="119.618308"/>
      </g>
     </g>
     <g id="text_9">
      <!-- 0.4 -->
      <g transform="translate(26.745313 125.317137)scale(0.15 -0.15)">
       <use xlink:href="#DejaVuSans-48"/>
       <use x="63.623047" xlink:href="#DejaVuSans-46"/>
       <use x="95.410156" xlink:href="#DejaVuSans-52"/>
      </g>
     </g>
    </g>
    <g id="ytick_4">
     <g id="line2d_9">
      <g>
       <use style="stroke:#000000;stroke-width:0.8;" x="57.6" xlink:href="#m6547957619" y="152.643463"/>
      </g>
     </g>
     <g id="text_10">
      <!-- 0.6 -->
      <defs>
       <path d="M 33.015625 40.375 
Q 26.375 40.375 22.484375 35.828125 
Q 18.609375 31.296875 18.609375 23.390625 
Q 18.609375 15.53125 22.484375 10.953125 
Q 26.375 6.390625 33.015625 6.390625 
Q 39.65625 6.390625 43.53125 10.953125 
Q 47.40625 15.53125 47.40625 23.390625 
Q 47.40625 31.296875 43.53125 35.828125 
Q 39.65625 40.375 33.015625 40.375 
z
M 52.59375 71.296875 
L 52.59375 62.3125 
Q 48.875 64.0625 45.09375 64.984375 
Q 41.3125 65.921875 37.59375 65.921875 
Q 27.828125 65.921875 22.671875 59.328125 
Q 17.53125 52.734375 16.796875 39.40625 
Q 19.671875 43.65625 24.015625 45.921875 
Q 28.375 48.1875 33.59375 48.1875 
Q 44.578125 48.1875 50.953125 41.515625 
Q 57.328125 34.859375 57.328125 23.390625 
Q 57.328125 12.15625 50.6875 5.359375 
Q 44.046875 -1.421875 33.015625 -1.421875 
Q 20.359375 -1.421875 13.671875 8.265625 
Q 6.984375 17.96875 6.984375 36.375 
Q 6.984375 53.65625 15.1875 63.9375 
Q 23.390625 74.21875 37.203125 74.21875 
Q 40.921875 74.21875 44.703125 73.484375 
Q 48.484375 72.75 52.59375 71.296875 
z
" id="DejaVuSans-54"/>
      </defs>
      <g transform="translate(26.745313 158.342291)scale(0.15 -0.15)">
       <use xlink:href="#DejaVuSans-48"/>
       <use x="63.623047" xlink:href="#DejaVuSans-46"/>
       <use x="95.410156" xlink:href="#DejaVuSans-54"/>
      </g>
     </g>
    </g>
    <g id="ytick_5">
     <g id="line2d_10">
      <g>
       <use style="stroke:#000000;stroke-width:0.8;" x="57.6" xlink:href="#m6547957619" y="185.668617"/>
      </g>
     </g>
     <g id="text_11">
      <!-- 0.8 -->
      <defs>
       <path d="M 31.78125 34.625 
Q 24.75 34.625 20.71875 30.859375 
Q 16.703125 27.09375 16.703125 20.515625 
Q 16.703125 13.921875 20.71875 10.15625 
Q 24.75 6.390625 31.78125 6.390625 
Q 38.8125 6.390625 42.859375 10.171875 
Q 46.921875 13.96875 46.921875 20.515625 
Q 46.921875 27.09375 42.890625 30.859375 
Q 38.875 34.625 31.78125 34.625 
z
M 21.921875 38.8125 
Q 15.578125 40.375 12.03125 44.71875 
Q 8.5 49.078125 8.5 55.328125 
Q 8.5 64.0625 14.71875 69.140625 
Q 20.953125 74.21875 31.78125 74.21875 
Q 42.671875 74.21875 48.875 69.140625 
Q 55.078125 64.0625 55.078125 55.328125 
Q 55.078125 49.078125 51.53125 44.71875 
Q 48 40.375 41.703125 38.8125 
Q 48.828125 37.15625 52.796875 32.3125 
Q 56.78125 27.484375 56.78125 20.515625 
Q 56.78125 9.90625 50.3125 4.234375 
Q 43.84375 -1.421875 31.78125 -1.421875 
Q 19.734375 -1.421875 13.25 4.234375 
Q 6.78125 9.90625 6.78125 20.515625 
Q 6.78125 27.484375 10.78125 32.3125 
Q 14.796875 37.15625 21.921875 38.8125 
z
M 18.3125 54.390625 
Q 18.3125 48.734375 21.84375 45.5625 
Q 25.390625 42.390625 31.78125 42.390625 
Q 38.140625 42.390625 41.71875 45.5625 
Q 45.3125 48.734375 45.3125 54.390625 
Q 45.3125 60.0625 41.71875 63.234375 
Q 38.140625 66.40625 31.78125 66.40625 
Q 25.390625 66.40625 21.84375 63.234375 
Q 18.3125 60.0625 18.3125 54.390625 
z
" id="DejaVuSans-56"/>
      </defs>
      <g transform="translate(26.745313 191.367445)scale(0.15 -0.15)">
       <use xlink:href="#DejaVuSans-48"/>
       <use x="63.623047" xlink:href="#DejaVuSans-46"/>
       <use x="95.410156" xlink:href="#DejaVuSans-56"/>
      </g>
     </g>
    </g>
    <g id="ytick_6">
     <g id="line2d_11">
      <g>
       <use style="stroke:#000000;stroke-width:0.8;" x="57.6" xlink:href="#m6547957619" y="218.693771"/>
      </g>
     </g>
     <g id="text_12">
      <!-- 1.0 -->
      <g transform="translate(26.745313 224.392599)scale(0.15 -0.15)">
       <use xlink:href="#DejaVuSans-49"/>
       <use x="63.623047" xlink:href="#DejaVuSans-46"/>
       <use x="95.410156" xlink:href="#DejaVuSans-48"/>
      </g>
     </g>
    </g>
    <g id="ytick_7">
     <g id="line2d_12">
      <g>
       <use style="stroke:#000000;stroke-width:0.8;" x="57.6" xlink:href="#m6547957619" y="251.718925"/>
      </g>
     </g>
     <g id="text_13">
      <!-- 1.2 -->
      <g transform="translate(26.745313 257.417753)scale(0.15 -0.15)">
       <use xlink:href="#DejaVuSans-49"/>
       <use x="63.623047" xlink:href="#DejaVuSans-46"/>
       <use x="95.410156" xlink:href="#DejaVuSans-50"/>
      </g>
     </g>
    </g>
    <g id="ytick_8">
     <g id="line2d_13">
      <g>
       <use style="stroke:#000000;stroke-width:0.8;" x="57.6" xlink:href="#m6547957619" y="284.744079"/>
      </g>
     </g>
     <g id="text_14">
      <!-- 1.4 -->
      <g transform="translate(26.745313 290.442908)scale(0.15 -0.15)">
       <use xlink:href="#DejaVuSans-49"/>
       <use x="63.623047" xlink:href="#DejaVuSans-46"/>
       <use x="95.410156" xlink:href="#DejaVuSans-52"/>
      </g>
     </g>
    </g>
    <g id="text_15">
     <!-- Depth (m) -->
     <defs>
      <path d="M 56.203125 29.59375 
L 56.203125 25.203125 
L 14.890625 25.203125 
Q 15.484375 15.921875 20.484375 11.0625 
Q 25.484375 6.203125 34.421875 6.203125 
Q 39.59375 6.203125 44.453125 7.46875 
Q 49.3125 8.734375 54.109375 11.28125 
L 54.109375 2.78125 
Q 49.265625 0.734375 44.1875 -0.34375 
Q 39.109375 -1.421875 33.890625 -1.421875 
Q 20.796875 -1.421875 13.15625 6.1875 
Q 5.515625 13.8125 5.515625 26.8125 
Q 5.515625 40.234375 12.765625 48.109375 
Q 20.015625 56 32.328125 56 
Q 43.359375 56 49.78125 48.890625 
Q 56.203125 41.796875 56.203125 29.59375 
z
M 47.21875 32.234375 
Q 47.125 39.59375 43.09375 43.984375 
Q 39.0625 48.390625 32.421875 48.390625 
Q 24.90625 48.390625 20.390625 44.140625 
Q 15.875 39.890625 15.1875 32.171875 
z
" id="DejaVuSans-101"/>
      <path d="M 18.109375 8.203125 
L 18.109375 -20.796875 
L 9.078125 -20.796875 
L 9.078125 54.6875 
L 18.109375 54.6875 
L 18.109375 46.390625 
Q 20.953125 51.265625 25.265625 53.625 
Q 29.59375 56 35.59375 56 
Q 45.5625 56 51.78125 48.09375 
Q 58.015625 40.1875 58.015625 27.296875 
Q 58.015625 14.40625 51.78125 6.484375 
Q 45.5625 -1.421875 35.59375 -1.421875 
Q 29.59375 -1.421875 25.265625 0.953125 
Q 20.953125 3.328125 18.109375 8.203125 
z
M 48.6875 27.296875 
Q 48.6875 37.203125 44.609375 42.84375 
Q 40.53125 48.484375 33.40625 48.484375 
Q 26.265625 48.484375 22.1875 42.84375 
Q 18.109375 37.203125 18.109375 27.296875 
Q 18.109375 17.390625 22.1875 11.75 
Q 26.265625 6.109375 33.40625 6.109375 
Q 40.53125 6.109375 44.609375 11.75 
Q 48.6875 17.390625 48.6875 27.296875 
z
" id="DejaVuSans-112"/>
      <path d="M 18.3125 70.21875 
L 18.3125 54.6875 
L 36.8125 54.6875 
L 36.8125 47.703125 
L 18.3125 47.703125 
L 18.3125 18.015625 
Q 18.3125 11.328125 20.140625 9.421875 
Q 21.96875 7.515625 27.59375 7.515625 
L 36.8125 7.515625 
L 36.8125 0 
L 27.59375 0 
Q 17.1875 0 13.234375 3.875 
Q 9.28125 7.765625 9.28125 18.015625 
L 9.28125 47.703125 
L 2.6875 47.703125 
L 2.6875 54.6875 
L 9.28125 54.6875 
L 9.28125 70.21875 
z
" id="DejaVuSans-116"/>
      <path d="M 54.890625 33.015625 
L 54.890625 0 
L 45.90625 0 
L 45.90625 32.71875 
Q 45.90625 40.484375 42.875 44.328125 
Q 39.84375 48.1875 33.796875 48.1875 
Q 26.515625 48.1875 22.3125 43.546875 
Q 18.109375 38.921875 18.109375 30.90625 
L 18.109375 0 
L 9.078125 0 
L 9.078125 75.984375 
L 18.109375 75.984375 
L 18.109375 46.1875 
Q 21.34375 51.125 25.703125 53.5625 
Q 30.078125 56 35.796875 56 
Q 45.21875 56 50.046875 50.171875 
Q 54.890625 44.34375 54.890625 33.015625 
z
" id="DejaVuSans-104"/>
      <path id="DejaVuSans-32"/>
      <path d="M 31 75.875 
Q 24.46875 64.65625 21.28125 53.65625 
Q 18.109375 42.671875 18.109375 31.390625 
Q 18.109375 20.125 21.3125 9.0625 
Q 24.515625 -2 31 -13.1875 
L 23.1875 -13.1875 
Q 15.875 -1.703125 12.234375 9.375 
Q 8.59375 20.453125 8.59375 31.390625 
Q 8.59375 42.28125 12.203125 53.3125 
Q 15.828125 64.359375 23.1875 75.875 
z
" id="DejaVuSans-40"/>
      <path d="M 52 44.1875 
Q 55.375 50.25 60.0625 53.125 
Q 64.75 56 71.09375 56 
Q 79.640625 56 84.28125 50.015625 
Q 88.921875 44.046875 88.921875 33.015625 
L 88.921875 0 
L 79.890625 0 
L 79.890625 32.71875 
Q 79.890625 40.578125 77.09375 44.375 
Q 74.3125 48.1875 68.609375 48.1875 
Q 61.625 48.1875 57.5625 43.546875 
Q 53.515625 38.921875 53.515625 30.90625 
L 53.515625 0 
L 44.484375 0 
L 44.484375 32.71875 
Q 44.484375 40.625 41.703125 44.40625 
Q 38.921875 48.1875 33.109375 48.1875 
Q 26.21875 48.1875 22.15625 43.53125 
Q 18.109375 38.875 18.109375 30.90625 
L 18.109375 0 
L 9.078125 0 
L 9.078125 54.6875 
L 18.109375 54.6875 
L 18.109375 46.1875 
Q 21.1875 51.21875 25.484375 53.609375 
Q 29.78125 56 35.6875 56 
Q 41.65625 56 45.828125 52.96875 
Q 50 49.953125 52 44.1875 
z
" id="DejaVuSans-109"/>
      <path d="M 8.015625 75.875 
L 15.828125 75.875 
Q 23.140625 64.359375 26.78125 53.3125 
Q 30.421875 42.28125 30.421875 31.390625 
Q 30.421875 20.453125 26.78125 9.375 
Q 23.140625 -1.703125 15.828125 -13.1875 
L 8.015625 -13.1875 
Q 14.5 -2 17.703125 9.0625 
Q 20.90625 20.125 20.90625 31.390625 
Q 20.90625 42.671875 17.703125 53.65625 
Q 14.5 64.65625 8.015625 75.875 
z
" id="DejaVuSans-41"/>
     </defs>
     <g transform="translate(19.209844 218.032062)rotate(-90)scale(0.17 -0.17)">
      <use xlink:href="#DejaVuSans-68"/>
      <use x="77.001953" xlink:href="#DejaVuSans-101"/>
      <use x="138.525391" xlink:href="#DejaVuSans-112"/>
      <use x="202.001953" xlink:href="#DejaVuSans-116"/>
      <use x="241.210938" xlink:href="#DejaVuSans-104"/>
      <use x="304.589844" xlink:href="#DejaVuSans-32"/>
      <use x="336.376953" xlink:href="#DejaVuSans-40"/>
      <use x="375.390625" xlink:href="#DejaVuSans-109"/>
      <use x="472.802734" xlink:href="#DejaVuSans-41"/>
     </g>
    </g>
   </g>
   <g id="line2d_14">
    <path clip-path="url(#p160ae160d9)" d="M 183.694976 53.568 
L 193.478747 55.963014 
L 193.663347 58.358029 
L 194.955543 60.753043 
L 196.432338 63.148058 
L 196.616938 65.543072 
L 199.570529 67.938087 
L 198.278333 70.333101 
L 197.909134 72.728116 
L 198.462932 75.12313 
L 199.570529 77.518145 
L 200.678126 79.913159 
L 200.678126 82.308174 
L 200.493526 84.703188 
L 199.570529 87.098203 
L 199.38593 89.493217 
L 198.647532 91.888232 
L 201.601123 94.283246 
L 203.816316 96.678261 
L 199.38593 99.073275 
L 202.339521 101.46829 
L 202.154921 103.863304 
L 202.52412 106.258319 
L 203.631717 108.653333 
L 203.262518 111.048348 
L 201.970322 113.443362 
L 205.293112 115.838377 
L 204.370115 118.233391 
L 205.108513 120.628406 
L 203.816316 123.02342 
L 206.400709 125.418435 
L 206.03151 127.813449 
L 203.447118 130.208464 
L 203.816316 132.603478 
L 208.062104 134.998493 
L 204.923913 137.393507 
L 206.216109 139.788522 
L 204.185515 142.183536 
L 205.293112 144.578551 
L 205.293112 146.973565 
L 203.077919 149.36858 
L 205.108513 151.763594 
L 206.400709 154.158609 
L 204.739314 156.553623 
L 202.154921 158.948638 
L 205.662311 161.343652 
L 203.077919 163.738667 
L 201.970322 166.133681 
L 202.339521 168.528695 
L 200.308927 170.92371 
L 203.262518 173.318724 
L 199.38593 175.713739 
L 201.416524 178.108753 
L 197.539935 180.503768 
L 195.324742 182.898782 
L 192.55575 185.293797 
L 193.478747 187.688811 
L 191.078954 190.083826 
L 191.263554 192.47884 
L 184.987172 194.873855 
L 184.987172 197.268869 
L 186.833167 199.663884 
L 187.940764 202.058898 
L 187.386965 204.453913 
L 183.879576 206.848927 
L 188.863761 209.243942 
L 184.064175 211.638956 
L 185.171772 214.033971 
L 181.664382 216.428985 
L 177.233995 218.824 
L 177.787794 221.219014 
L 168.92702 223.614029 
L 172.803608 226.009043 
L 160.620045 228.404058 
L 158.77405 230.799072 
L 152.866868 233.194087 
L 156.005058 235.589101 
L 152.12847 237.984116 
L 145.482889 240.37913 
L 155.820459 242.774145 
L 148.62108 245.169159 
L 151.574671 247.564174 
L 162.650639 249.959188 
L 175.7572 252.354203 
L 191.263554 254.749217 
L 189.23296 257.144232 
L 191.448153 259.539246 
L 187.017766 261.934261 
L 187.756164 264.329275 
L 190.525156 266.72429 
L 190.340556 269.119304 
L 188.494562 271.514319 
L 195.509341 273.909333 
L 194.770943 276.304347 
L 194.955543 278.699362 
L 207.692905 281.094376 
L 209.538899 283.489391 
L 209.908098 285.884405 
L 212.307891 288.27942 
" style="fill:none;stroke:#000000;stroke-linecap:square;stroke-width:3;"/>
   </g>
   <g id="line2d_15">
    <path clip-path="url(#p160ae160d9)" d="M 151.898161 53.568 
L 207.719891 56.036571 
L 211.003522 58.505143 
L 212.355606 60.973714 
L 205.788343 63.442286 
L 165.418995 65.910857 
L 211.969296 68.379429 
L 211.969296 70.848 
L 212.54876 73.316571 
L 211.582986 75.785143 
L 211.003522 78.253714 
L 193.619592 80.722286 
L 197.868997 83.190857 
L 162.907983 85.659429 
L 202.504712 88.128 
L 210.424058 90.596571 
L 211.389832 93.065143 
L 211.003522 95.533714 
L 211.776141 98.002286 
L 211.389832 100.470857 
L 165.418995 102.939429 
L 184.348163 105.408 
L 202.311557 107.876571 
L 208.87882 110.345143 
L 210.617213 112.813714 
L 211.003522 115.282286 
L 211.196677 117.750857 
L 185.893401 120.219429 
L 164.260067 122.688 
L 198.062152 125.156571 
L 205.981498 127.625143 
L 209.265129 130.093714 
L 209.844593 132.562286 
L 201.152629 135.030857 
L 147.262446 137.499429 
L 197.482688 139.968 
L 204.04995 142.436571 
L 206.367808 144.905143 
L 208.106201 147.373714 
L 152.863935 149.842286 
L 182.60977 152.310857 
L 202.697867 154.779429 
L 206.560962 157.248 
L 206.754117 159.716571 
L 140.308875 162.185143 
L 192.846973 164.653714 
L 201.732093 167.122286 
L 205.402034 169.590857 
L 179.326139 172.059429 
L 159.817507 174.528 
L 194.971676 176.996571 
L 202.891022 179.465143 
L 204.04995 181.933714 
L 139.149946 184.402286 
L 189.370187 186.870857 
L 200.959474 189.339429 
L 179.326139 191.808 
L 155.374947 194.276571 
L 193.812747 196.745143 
L 150.739232 199.213714 
L 173.724651 201.682286 
L 148.61453 204.150857 
L 168.702626 206.619429 
L 121.572861 209.088 
L 64.978512 211.556571 
L 155.954411 214.025143 
L 185.893401 216.493714 
L 193.040128 218.962286 
L 196.516914 221.430857 
L 196.903224 223.899429 
L 198.255307 226.368 
L 198.834771 228.836571 
L 200.573164 231.305143 
L 201.345783 233.773714 
L 202.697867 236.242286 
L 200.573164 238.710857 
L 202.697867 241.179429 
L 202.891022 243.648 
L 203.470486 246.116571 
L 202.891022 248.585143 
L 202.697867 251.053714 
L 202.697867 253.522286 
L 203.084176 255.990857 
L 202.891022 258.459429 
L 203.856795 260.928 
L 204.629415 263.396571 
L 205.402034 265.865143 
L 205.595188 268.333714 
L 204.243105 270.802286 
L 205.788343 273.270857 
L 205.595188 275.739429 
L 205.208879 278.208 
L 206.174653 280.676571 
L 207.913046 283.145143 
L 206.174653 285.613714 
L 207.719891 288.082286 
L 207.913046 290.550857 
L 209.071974 293.019429 
L 210.424058 295.488 
" style="fill:none;stroke:#a2eb7f;stroke-dasharray:1.5,2.475;stroke-dashoffset:0;stroke-width:1.5;"/>
   </g>
   <g id="line2d_16">
    <path clip-path="url(#p160ae160d9)" d="M 130.145293 53.568 
L 207.431243 56.00427 
L 210.866174 58.440541 
L 212.39281 60.876811 
L 145.984142 63.313081 
L 204.75963 65.749352 
L 208.767049 68.185622 
L 212.011151 70.621892 
L 212.011151 73.058162 
L 211.629492 75.494433 
L 208.194561 77.930703 
L 201.897187 80.366973 
L 147.319949 82.803244 
L 200.94304 85.239514 
L 210.293685 87.675784 
L 211.247833 90.112055 
L 210.866174 92.548325 
L 210.866174 94.984595 
L 210.866174 97.420865 
L 208.38539 99.857136 
L 137.778473 102.293406 
L 199.988892 104.729676 
L 209.530367 107.165947 
L 210.102856 109.602217 
L 210.484515 112.038487 
L 211.057003 114.474758 
L 211.820321 116.911028 
L 185.867509 119.347298 
L 158.769719 121.783568 
L 200.561381 124.219839 
L 208.194561 126.656109 
L 210.484515 129.092379 
L 210.866174 131.52865 
L 210.484515 133.96492 
L 136.633496 136.40119 
L 198.843915 138.837461 
L 205.332118 141.273731 
L 208.38539 143.710001 
L 166.593729 146.146272 
L 169.83783 148.582542 
L 201.133869 151.018812 
L 206.667925 153.455082 
L 207.240413 155.891353 
L 155.143958 158.327623 
L 179.379305 160.763893 
L 198.843915 163.200164 
L 204.75963 165.636434 
L 207.240413 168.072704 
L 173.081932 170.508975 
L 162.013821 172.945245 
L 199.607233 175.381515 
L 205.141289 177.817785 
L 203.996312 180.254056 
L 139.11428 182.690326 
L 187.966633 185.126596 
L 202.851335 187.562867 
L 205.332118 189.999137 
L 135.870178 192.435407 
L 189.874928 194.871678 
L 200.94304 197.307948 
L 131.099441 199.744218 
L 168.311194 202.180488 
L 145.602483 204.616759 
L 129.381975 207.053029 
L 127.092021 209.489299 
L 101.902526 211.92557 
L 177.852669 214.36184 
L 191.019905 216.79811 
L 197.317279 219.234381 
L 197.126449 221.670651 
L 197.508108 224.106921 
L 199.225574 226.543191 
L 198.843915 228.979462 
L 201.706358 231.415732 
L 202.278846 233.852002 
L 200.75221 236.288273 
L 202.660505 238.724543 
L 204.377971 241.160813 
L 203.232994 243.597084 
L 203.042164 246.033354 
L 202.851335 248.469624 
L 204.187141 250.905895 
L 203.614653 253.342165 
L 202.278846 255.778435 
L 204.187141 258.214705 
L 205.522948 260.650976 
L 205.904607 263.087246 
L 206.286266 265.523516 
L 204.950459 267.959787 
L 205.522948 270.396057 
L 206.095436 272.832327 
L 206.286266 275.268598 
L 205.332118 277.704868 
L 207.431243 280.141138 
L 207.049584 282.577408 
L 207.431243 285.013679 
L 207.240413 287.449949 
L 209.148708 289.886219 
L 210.866174 292.32249 
" style="fill:none;stroke:#77cd86;stroke-dasharray:5.55,2.4;stroke-dashoffset:0;stroke-width:1.5;"/>
   </g>
   <g id="line2d_17">
    <path clip-path="url(#p160ae160d9)" d="M 189.690094 53.568 
L 197.18624 56.020547 
L 203.336924 58.473094 
L 202.760297 60.925641 
L 203.144715 63.378188 
L 209.487607 65.830735 
L 207.37331 68.283282 
L 201.607044 70.735829 
L 196.225196 73.188376 
L 206.796683 75.640923 
L 205.835639 78.09347 
L 201.799253 80.546017 
L 201.414835 82.998565 
L 201.799253 85.451112 
L 204.490177 87.903659 
L 199.877164 90.356206 
L 203.144715 92.808753 
L 201.799253 95.2613 
L 200.069373 97.713847 
L 202.952506 100.166394 
L 204.874594 102.618941 
L 202.760297 105.071488 
L 200.261582 107.524035 
L 196.225196 109.976582 
L 196.609613 112.429129 
L 195.648569 114.881676 
L 199.684955 117.334223 
L 204.105759 119.78677 
L 203.336924 122.239317 
L 195.45636 124.691864 
L 198.147284 127.144411 
L 196.417405 129.596958 
L 190.266721 132.049505 
L 194.495316 134.502052 
L 201.799253 136.954599 
L 195.071942 139.407147 
L 193.72648 141.859694 
L 195.071942 144.312241 
L 192.765436 146.764788 
L 191.612183 149.217335 
L 197.378449 151.669882 
L 200.645999 154.122429 
L 188.536841 156.574976 
L 183.539411 159.027523 
L 188.72905 161.48007 
L 195.264151 163.932617 
L 192.573227 166.385164 
L 191.227765 168.837711 
L 185.26929 171.290258 
L 187.191379 173.742805 
L 191.419974 176.195352 
L 182.770575 178.647899 
L 187.191379 181.100446 
L 183.154993 183.552993 
L 190.651139 186.00554 
L 182.386158 188.458087 
L 179.503025 190.910634 
L 178.157563 193.363181 
L 179.887442 195.815729 
L 177.965354 198.268276 
L 173.54455 200.720823 
L 171.430252 203.17337 
L 166.240613 205.625917 
L 174.121176 208.078464 
L 174.505594 210.531011 
L 162.973062 212.983558 
L 169.700373 215.436105 
L 162.973062 217.888652 
L 176.235474 220.341199 
L 168.547119 222.793746 
L 173.736759 225.246293 
L 179.695233 227.69884 
L 173.352341 230.151387 
L 174.697803 232.603934 
L 171.81467 235.056481 
L 167.778284 237.509028 
L 178.157563 239.961575 
L 179.887442 242.414122 
L 185.26929 244.866669 
L 192.765436 247.319216 
L 198.147284 249.771763 
L 201.222626 252.224311 
L 203.336924 254.676858 
L 201.414835 257.129405 
L 204.297968 259.581952 
L 204.874594 262.034499 
L 203.144715 264.487046 
L 202.760297 266.939593 
L 205.066803 269.39214 
L 202.760297 271.844687 
L 206.988892 274.297234 
L 204.682386 276.749781 
L 207.757727 279.202328 
L 206.604474 281.654875 
L 206.220057 284.107422 
L 209.872025 286.559969 
L 209.872025 289.012516 
L 211.409696 291.465063 
L 211.601905 293.91761 
" style="fill:none;stroke:#258d41;stroke-dasharray:9.6,2.4,1.5,2.4;stroke-dashoffset:0;stroke-width:1.5;"/>
   </g>
   <g id="line2d_18">
    <path clip-path="url(#p160ae160d9)" d="M 150.026805 53.568 
L 198.844211 55.916688 
L 207.145147 58.265377 
L 206.354581 60.614065 
L 203.587603 62.962753 
L 188.369221 65.311442 
L 200.425342 67.66013 
L 203.587603 70.008818 
L 205.959299 72.357507 
L 192.914972 74.706195 
L 200.425342 77.054883 
L 203.785244 79.403572 
L 193.310254 81.75226 
L 201.61119 84.100948 
L 207.540429 86.449637 
L 202.599396 88.798325 
L 203.982885 91.147013 
L 202.006472 93.495702 
L 201.808831 95.84439 
L 200.425342 98.193078 
L 203.785244 100.541767 
L 201.808831 102.890455 
L 201.413548 105.239143 
L 196.670157 107.587832 
L 199.634776 109.93652 
L 194.298461 112.285208 
L 195.879591 114.633897 
L 200.820624 116.982585 
L 207.540429 119.331273 
L 201.61119 121.679962 
L 200.425342 124.02865 
L 198.448928 126.377338 
L 181.254134 128.726027 
L 185.20696 131.074715 
L 201.413548 133.423403 
L 206.354581 135.772092 
L 202.994679 138.12078 
L 190.543276 140.469468 
L 183.62583 142.818157 
L 191.926765 145.166845 
L 193.310254 147.515533 
L 193.507895 149.864222 
L 194.100819 152.21291 
L 180.463568 154.561598 
L 192.124406 156.910287 
L 195.484309 159.258975 
L 193.507895 161.607663 
L 182.044699 163.956352 
L 179.870644 166.30504 
L 191.1362 168.653728 
L 195.484309 171.002417 
L 187.973939 173.351105 
L 180.068286 175.699793 
L 180.463568 178.048482 
L 191.926765 180.39717 
L 183.62583 182.745858 
L 166.826317 185.094547 
L 186.985732 187.443235 
L 177.69659 189.791923 
L 177.301307 192.140612 
L 164.25698 194.4893 
L 164.652263 196.837988 
L 152.398501 199.186677 
L 153.584349 201.535365 
L 161.29236 203.884053 
L 165.245187 206.232742 
L 170.779144 208.58143 
L 173.348481 210.930118 
L 185.602243 213.278807 
L 184.021112 215.627495 
L 183.230547 217.976183 
L 177.498949 220.324872 
L 182.439982 222.67356 
L 187.381015 225.022248 
L 184.218753 227.370937 
L 183.428188 229.719625 
L 177.301307 232.068313 
L 192.914972 234.417002 
L 199.041852 236.76569 
L 202.797038 239.114379 
L 195.68195 241.463067 
L 195.286667 243.811755 
L 206.15694 246.160444 
L 193.705537 248.509132 
L 191.926765 250.85782 
L 197.658363 253.206509 
L 197.658363 255.555197 
L 198.053646 257.903885 
L 200.622983 260.252574 
L 194.693743 262.601262 
L 191.729124 264.94995 
L 196.077233 267.298639 
L 201.413548 269.647327 
L 209.12156 271.996015 
L 210.109766 274.344704 
L 209.912125 276.693392 
L 211.493256 279.04208 
L 211.097973 281.390769 
L 211.888538 283.739457 
" style="fill:none;stroke:#115029;stroke-linecap:square;stroke-width:1.5;"/>
   </g>
   <g id="patch_3">
    <path d="M 57.6 307.584 
L 57.6 41.472 
" style="fill:none;stroke:#000000;stroke-linecap:square;stroke-linejoin:miter;stroke-width:0.8;"/>
   </g>
   <g id="patch_4">
    <path d="M 219.927273 307.584 
L 219.927273 41.472 
" style="fill:none;stroke:#000000;stroke-linecap:square;stroke-linejoin:miter;stroke-width:0.8;"/>
   </g>
   <g id="patch_5">
    <path d="M 57.6 307.584 
L 219.927273 307.584 
" style="fill:none;stroke:#000000;stroke-linecap:square;stroke-linejoin:miter;stroke-width:0.8;"/>
   </g>
   <g id="patch_6">
    <path d="M 57.6 41.472 
L 219.927273 41.472 
" style="fill:none;stroke:#000000;stroke-linecap:square;stroke-linejoin:miter;stroke-width:0.8;"/>
   </g>
  </g>
  <g id="axes_2">
   <g id="patch_7">
    <path d="M 252.392727 307.584 
L 414.72 307.584 
L 414.72 41.472 
L 252.392727 41.472 
z
" style="fill:#ffffff;"/>
   </g>
   <g id="matplotlib.axis_3">
    <g id="xtick_6">
     <g id="line2d_19">
      <g>
       <use style="stroke:#000000;stroke-width:0.8;" x="258.036794" xlink:href="#m5aa0446f25" y="307.584"/>
      </g>
     </g>
     <g id="text_16">
      <!-- 0.0 -->
      <g transform="translate(246.10945 325.981656)scale(0.15 -0.15)">
       <use xlink:href="#DejaVuSans-48"/>
       <use x="63.623047" xlink:href="#DejaVuSans-46"/>
       <use x="95.410156" xlink:href="#DejaVuSans-48"/>
      </g>
     </g>
    </g>
    <g id="xtick_7">
     <g id="line2d_20">
      <g>
       <use style="stroke:#000000;stroke-width:0.8;" x="332.689141" xlink:href="#m5aa0446f25" y="307.584"/>
      </g>
     </g>
     <g id="text_17">
      <!-- 0.5 -->
      <defs>
       <path d="M 10.796875 72.90625 
L 49.515625 72.90625 
L 49.515625 64.59375 
L 19.828125 64.59375 
L 19.828125 46.734375 
Q 21.96875 47.46875 24.109375 47.828125 
Q 26.265625 48.1875 28.421875 48.1875 
Q 40.625 48.1875 47.75 41.5 
Q 54.890625 34.8125 54.890625 23.390625 
Q 54.890625 11.625 47.5625 5.09375 
Q 40.234375 -1.421875 26.90625 -1.421875 
Q 22.3125 -1.421875 17.546875 -0.640625 
Q 12.796875 0.140625 7.71875 1.703125 
L 7.71875 11.625 
Q 12.109375 9.234375 16.796875 8.0625 
Q 21.484375 6.890625 26.703125 6.890625 
Q 35.15625 6.890625 40.078125 11.328125 
Q 45.015625 15.765625 45.015625 23.390625 
Q 45.015625 31 40.078125 35.4375 
Q 35.15625 39.890625 26.703125 39.890625 
Q 22.75 39.890625 18.8125 39.015625 
Q 14.890625 38.140625 10.796875 36.28125 
z
" id="DejaVuSans-53"/>
      </defs>
      <g transform="translate(320.761797 325.981656)scale(0.15 -0.15)">
       <use xlink:href="#DejaVuSans-48"/>
       <use x="63.623047" xlink:href="#DejaVuSans-46"/>
       <use x="95.410156" xlink:href="#DejaVuSans-53"/>
      </g>
     </g>
    </g>
    <g id="xtick_8">
     <g id="line2d_21">
      <g>
       <use style="stroke:#000000;stroke-width:0.8;" x="407.341488" xlink:href="#m5aa0446f25" y="307.584"/>
      </g>
     </g>
     <g id="text_18">
      <!-- 1.0 -->
      <g transform="translate(395.414144 325.981656)scale(0.15 -0.15)">
       <use xlink:href="#DejaVuSans-49"/>
       <use x="63.623047" xlink:href="#DejaVuSans-46"/>
       <use x="95.410156" xlink:href="#DejaVuSans-48"/>
      </g>
     </g>
    </g>
    <g id="text_19">
     <!-- CDF -->
     <defs>
      <path d="M 64.40625 67.28125 
L 64.40625 56.890625 
Q 59.421875 61.53125 53.78125 63.8125 
Q 48.140625 66.109375 41.796875 66.109375 
Q 29.296875 66.109375 22.65625 58.46875 
Q 16.015625 50.828125 16.015625 36.375 
Q 16.015625 21.96875 22.65625 14.328125 
Q 29.296875 6.6875 41.796875 6.6875 
Q 48.140625 6.6875 53.78125 8.984375 
Q 59.421875 11.28125 64.40625 15.921875 
L 64.40625 5.609375 
Q 59.234375 2.09375 53.4375 0.328125 
Q 47.65625 -1.421875 41.21875 -1.421875 
Q 24.65625 -1.421875 15.125 8.703125 
Q 5.609375 18.84375 5.609375 36.375 
Q 5.609375 53.953125 15.125 64.078125 
Q 24.65625 74.21875 41.21875 74.21875 
Q 47.75 74.21875 53.53125 72.484375 
Q 59.328125 70.75 64.40625 67.28125 
z
" id="DejaVuSans-67"/>
     </defs>
     <g transform="translate(316.187145 346.018531)scale(0.17 -0.17)">
      <use xlink:href="#DejaVuSans-67"/>
      <use x="69.824219" xlink:href="#DejaVuSans-68"/>
      <use x="146.826172" xlink:href="#DejaVuSans-70"/>
     </g>
    </g>
   </g>
   <g id="matplotlib.axis_4"/>
   <g id="line2d_22">
    <path clip-path="url(#p23a3d7301e)" d="M 260.124802 53.568 
L 261.569412 55.963014 
L 263.001882 58.358029 
L 264.349376 60.753043 
L 265.599752 63.148058 
L 266.83799 65.543072 
L 267.881993 67.938087 
L 269.010974 70.333101 
L 270.164235 72.728116 
L 271.281076 75.12313 
L 272.32508 77.518145 
L 273.296246 79.913159 
L 274.267413 82.308174 
L 275.250718 84.703188 
L 276.294722 87.098203 
L 277.350866 89.493217 
L 278.455568 91.888232 
L 279.366036 94.283246 
L 280.13083 96.678261 
L 281.186973 99.073275 
L 282.048883 101.46829 
L 282.922933 103.863304 
L 283.772704 106.258319 
L 284.549637 108.653333 
L 285.350849 111.048348 
L 286.237038 113.443362 
L 286.904715 115.838377 
L 287.63309 118.233391 
L 288.312906 120.628406 
L 289.0777 123.02342 
L 289.672539 125.418435 
L 290.291658 127.813449 
L 291.080731 130.208464 
L 291.845524 132.603478 
L 292.331107 134.998493 
L 293.023063 137.393507 
L 293.630042 139.788522 
L 294.370557 142.183536 
L 295.038234 144.578551 
L 295.705911 146.973565 
L 296.519263 149.36858 
L 297.199079 151.763594 
L 297.793918 154.158609 
L 298.498014 156.553623 
L 299.372064 158.948638 
L 300.015462 161.343652 
L 300.828813 163.738667 
L 301.715003 166.133681 
L 302.576913 168.528695 
L 303.572358 170.92371 
L 304.373571 173.318724 
L 305.429714 175.713739 
L 306.352322 178.108753 
L 307.529861 180.503768 
L 308.853076 182.898782 
L 310.358384 185.293797 
L 311.802994 187.688811 
L 313.405418 190.083826 
L 314.995703 192.47884 
L 316.998734 194.873855 
L 319.001765 197.268869 
L 320.883399 199.663884 
L 322.692197 202.058898 
L 324.537413 204.453913 
L 326.613281 206.848927 
L 328.361381 209.243942 
L 330.425109 211.638956 
L 332.416 214.033971 
L 334.637543 216.428985 
L 337.150437 218.824 
L 339.626911 221.219014 
L 342.686085 223.614029 
L 345.490328 226.009043 
L 349.095783 228.404058 
L 352.822634 230.799072 
L 356.937952 233.194087 
L 360.846897 235.589101 
L 365.010772 237.984116 
L 369.611673 240.37913 
L 373.532758 242.774145 
L 377.927285 245.169159 
L 382.12758 247.564174 
L 385.5995 249.959188 
L 388.20951 252.354203 
L 389.799795 254.749217 
L 391.523615 257.144232 
L 393.10176 259.539246 
L 394.971256 261.934261 
L 396.792193 264.329275 
L 398.431036 266.72429 
L 400.082019 269.119304 
L 401.854397 271.514319 
L 403.165472 273.909333 
L 404.525105 276.304347 
L 405.872598 278.699362 
L 406.382461 281.094376 
L 406.770927 283.489391 
L 407.135115 285.884405 
L 407.341488 288.27942 
" style="fill:none;stroke:#000000;stroke-linecap:square;stroke-width:3;"/>
   </g>
   <g id="line2d_23">
    <path clip-path="url(#p23a3d7301e)" d="M 262.344164 53.568 
L 262.867856 56.036571 
L 263.168979 58.505143 
L 263.378456 60.973714 
L 264.033072 63.442286 
L 267.42398 65.910857 
L 267.659641 68.379429 
L 267.895303 70.848 
L 268.091688 73.316571 
L 268.353534 75.785143 
L 268.654657 78.253714 
L 270.134088 80.722286 
L 271.325488 83.190857 
L 274.886596 85.659429 
L 275.763781 88.128 
L 276.104181 90.596571 
L 276.379119 93.065143 
L 276.680242 95.533714 
L 276.928996 98.002286 
L 277.203935 100.470857 
L 280.594843 102.939429 
L 282.702705 105.408 
L 283.592982 107.876571 
L 284.03812 110.345143 
L 284.365428 112.813714 
L 284.666551 115.282286 
L 284.954582 117.750857 
L 286.957705 120.219429 
L 290.427167 122.688 
L 291.605475 125.156571 
L 292.246998 127.625143 
L 292.665952 130.093714 
L 293.045629 132.562286 
L 294.01446 135.030857 
L 298.636045 137.499429 
L 299.85363 139.968 
L 300.626076 142.436571 
L 301.241414 144.905143 
L 301.738922 147.373714 
L 305.98083 149.842286 
L 308.206523 152.310857 
L 309.070615 154.779429 
L 309.672861 157.248 
L 310.262015 159.716571 
L 315.354924 162.185143 
L 316.886724 164.653714 
L 317.816278 167.122286 
L 318.497078 169.590857 
L 320.94534 172.059429 
L 324.715925 174.528 
L 326.103709 176.996571 
L 326.954709 179.465143 
L 327.727156 181.933714 
L 332.898618 184.402286 
L 334.66608 186.870857 
L 335.648003 189.339429 
L 338.096265 191.808 
L 342.167973 194.276571 
L 343.634311 196.745143 
L 348.020235 199.213714 
L 350.848174 201.682286 
L 355.378113 204.150857 
L 358.546451 206.619429 
L 364.909314 209.088 
L 375.108222 211.556571 
L 379.140654 214.025143 
L 381.143777 216.493714 
L 382.662485 218.962286 
L 383.945531 221.430857 
L 385.202393 223.899429 
L 386.367608 226.368 
L 387.493547 228.836571 
L 388.501655 231.305143 
L 389.457393 233.773714 
L 390.321486 236.242286 
L 391.329594 238.710857 
L 392.193686 241.179429 
L 393.044686 243.648 
L 393.856409 246.116571 
L 394.707409 248.585143 
L 395.571502 251.053714 
L 396.435594 253.522286 
L 397.273502 255.990857 
L 398.124502 258.459429 
L 398.910041 260.928 
L 399.64321 263.396571 
L 400.32401 265.865143 
L 400.991718 268.333714 
L 401.751072 270.802286 
L 402.405687 273.270857 
L 403.073395 275.739429 
L 403.767287 278.208 
L 404.395718 280.676571 
L 404.906318 283.145143 
L 405.534749 285.613714 
L 406.058441 288.082286 
L 406.569041 290.550857 
L 407.001088 293.019429 
L 407.341488 295.488 
" style="fill:none;stroke:#a2eb7f;stroke-dasharray:1.5,2.475;stroke-dashoffset:0;stroke-width:1.5;"/>
   </g>
   <g id="line2d_24">
    <path clip-path="url(#p23a3d7301e)" d="M 263.74295 53.568 
L 264.279099 56.00427 
L 264.58547 58.440541 
L 264.789717 60.876811 
L 269.43634 63.313081 
L 270.151205 65.749352 
L 270.597996 68.185622 
L 270.827774 70.621892 
L 271.057552 73.058162 
L 271.312861 75.494433 
L 271.797948 77.930703 
L 272.704295 80.366973 
L 277.261561 82.803244 
L 278.231735 85.239514 
L 278.576402 87.675784 
L 278.857242 90.112055 
L 279.163613 92.548325 
L 279.469983 94.984595 
L 279.776354 97.420865 
L 280.248676 99.857136 
L 285.444214 102.293406 
L 286.478215 104.729676 
L 286.873944 107.165947 
L 287.231376 109.602217 
L 287.563278 112.038487 
L 287.856883 114.474758 
L 288.099427 116.911028 
L 290.078072 119.347298 
L 293.86941 121.783568 
L 294.865115 124.219839 
L 295.350202 126.656109 
L 295.682104 129.092379 
L 295.988475 131.52865 
L 296.320376 133.96492 
L 301.592507 136.40119 
L 302.703101 138.837461 
L 303.37967 141.273731 
L 303.851991 143.710001 
L 307.119946 146.146272 
L 310.170889 148.582542 
L 311.128297 151.018812 
L 311.715508 153.455082 
L 312.264422 155.891353 
L 316.298304 158.327623 
L 318.710974 160.763893 
L 319.821568 163.200164 
L 320.536433 165.636434 
L 321.085348 168.072704 
L 323.919277 170.508975 
L 327.493603 172.945245 
L 328.553135 175.381515 
L 329.24247 177.817785 
L 330.008397 180.254056 
L 335.114576 182.690326 
L 336.952801 185.126596 
L 337.795321 187.562867 
L 338.471889 189.999137 
L 343.795082 192.435407 
L 345.505652 194.871678 
L 346.475826 197.307948 
L 352.118155 199.744218 
L 355.27122 202.180488 
L 359.943375 204.616759 
L 365.700592 207.053029 
L 371.610995 209.489299 
L 379.206438 211.92557 
L 381.721231 214.36184 
L 383.355209 216.79811 
L 384.567926 219.234381 
L 385.793409 221.670651 
L 386.993362 224.106921 
L 388.078425 226.543191 
L 389.189019 228.979462 
L 390.108131 231.415732 
L 390.988947 233.852002 
L 391.971887 236.288273 
L 392.827172 238.724543 
L 393.567568 241.160813 
L 394.384557 243.597084 
L 395.214311 246.033354 
L 396.056831 248.469624 
L 396.809992 250.905895 
L 397.60145 253.342165 
L 398.482266 255.778435 
L 399.235427 258.214705 
L 399.899231 260.650976 
L 400.537503 263.087246 
L 401.150245 265.523516 
L 401.852344 267.959787 
L 402.516148 270.396057 
L 403.141655 272.832327 
L 403.754396 275.268598 
L 404.430965 277.704868 
L 404.967114 280.141138 
L 405.528794 282.577408 
L 406.064943 285.013679 
L 406.613857 287.449949 
L 407.035117 289.886219 
L 407.341488 292.32249 
" style="fill:none;stroke:#77cd86;stroke-dasharray:5.55,2.4;stroke-dashoffset:0;stroke-width:1.5;"/>
   </g>
   <g id="line2d_25">
    <path clip-path="url(#p23a3d7301e)" d="M 259.77124 53.568 
L 261.000884 56.020547 
L 261.816332 58.473094 
L 262.670611 60.925641 
L 263.499003 63.378188 
L 263.900255 65.830735 
L 264.443888 68.283282 
L 265.375829 70.735829 
L 266.670191 73.188376 
L 267.252654 75.640923 
L 267.899835 78.09347 
L 268.818832 80.546017 
L 269.763717 82.998565 
L 270.682714 85.451112 
L 271.420501 87.903659 
L 272.468934 90.356206 
L 273.297326 92.808753 
L 274.216323 95.2613 
L 275.251813 97.713847 
L 276.093149 100.166394 
L 276.805048 102.618941 
L 277.659327 105.071488 
L 278.681873 107.524035 
L 279.976235 109.976582 
L 281.244711 112.429129 
L 282.577904 114.881676 
L 283.639281 117.334223 
L 284.402955 119.78677 
L 285.218403 122.239317 
L 286.56454 124.691864 
L 287.729466 127.144411 
L 289.010884 129.596958 
L 290.706499 132.049505 
L 292.117354 134.502052 
L 293.036351 136.954599 
L 294.408375 139.407147 
L 295.871005 141.859694 
L 297.243029 144.312241 
L 298.770376 146.764788 
L 300.375386 149.217335 
L 301.592086 151.669882 
L 302.588745 154.122429 
L 304.400852 156.574976 
L 306.549494 159.027523 
L 308.348657 161.48007 
L 309.707738 163.932617 
L 311.248029 166.385164 
L 312.878926 168.837711 
L 314.911074 171.290258 
L 316.813787 173.742805 
L 318.43174 176.195352 
L 320.632156 178.647899 
L 322.534868 181.100446 
L 324.709397 183.552993 
L 326.379125 186.00554 
L 328.605428 188.458087 
L 331.025885 190.910634 
L 333.536948 193.363181 
L 335.931518 195.815729 
L 338.455525 198.268276 
L 341.277235 200.720823 
L 344.241325 203.17337 
L 347.554892 205.625917 
L 350.337771 208.078464 
L 353.094763 210.531011 
L 356.628372 212.983558 
L 359.708954 215.436105 
L 363.242563 217.888652 
L 365.883063 220.341199 
L 369.041307 222.793746 
L 371.850073 225.246293 
L 374.257587 227.69884 
L 377.09224 230.151387 
L 379.836288 232.603934 
L 382.774491 235.056481 
L 385.984509 237.509028 
L 388.495572 239.961575 
L 390.890143 242.414122 
L 392.922291 244.866669 
L 394.449639 247.319216 
L 395.614565 249.771763 
L 396.572393 252.224311 
L 397.387841 254.676858 
L 398.332726 257.129405 
L 399.083456 259.581952 
L 399.795355 262.034499 
L 400.623747 264.487046 
L 401.478026 266.939593 
L 402.176982 269.39214 
L 403.031261 271.844687 
L 403.600781 274.297234 
L 404.325623 276.749781 
L 404.843368 279.202328 
L 405.438775 281.654875 
L 406.060069 284.107422 
L 406.435434 286.559969 
L 406.810799 289.012516 
L 407.082615 291.465063 
L 407.341488 293.91761 
" style="fill:none;stroke:#258d41;stroke-dasharray:9.6,2.4,1.5,2.4;stroke-dashoffset:0;stroke-width:1.5;"/>
   </g>
   <g id="line2d_26">
    <path clip-path="url(#p23a3d7301e)" d="M 262.255665 53.568 
L 263.326315 55.916688 
L 263.86164 58.265377 
L 264.447948 60.614065 
L 265.212698 62.962753 
L 266.958878 65.311442 
L 267.927561 67.66013 
L 268.692311 70.008818 
L 269.304111 72.357507 
L 270.757136 74.706195 
L 271.725819 77.054883 
L 272.477824 79.403572 
L 273.905357 81.75226 
L 274.797565 84.100948 
L 275.307399 86.449637 
L 276.135878 88.798325 
L 276.875136 91.147013 
L 277.741853 93.495702 
L 278.621315 95.84439 
L 279.589999 98.193078 
L 280.342003 100.541767 
L 281.221465 102.890455 
L 282.126419 105.239143 
L 283.337274 107.587832 
L 284.35694 109.93652 
L 285.720744 112.285208 
L 286.982582 114.633897 
L 287.925774 116.982585 
L 288.435607 119.331273 
L 289.327815 121.679962 
L 290.296499 124.02865 
L 291.39264 126.377338 
L 293.59767 128.726027 
L 295.547782 131.074715 
L 296.452736 133.423403 
L 297.039045 135.772092 
L 297.842032 138.12078 
L 299.448007 140.469468 
L 301.500086 142.818157 
L 303.016841 145.166845 
L 304.444374 147.515533 
L 305.859161 149.864222 
L 307.235711 152.21291 
L 309.491724 154.561598 
L 310.995732 156.910287 
L 312.283061 159.258975 
L 313.697849 161.607663 
L 315.851895 163.956352 
L 318.146145 166.30504 
L 319.713882 168.653728 
L 321.001212 171.002417 
L 322.772882 173.351105 
L 325.054387 175.699793 
L 327.310399 178.048482 
L 328.827153 180.39717 
L 330.879233 182.745858 
L 334.014708 185.094547 
L 335.850108 187.443235 
L 338.284562 189.791923 
L 340.744508 192.140612 
L 344.045679 194.4893 
L 347.321358 196.837988 
L 351.387279 199.186677 
L 355.376724 201.535365 
L 358.869083 203.884053 
L 362.106525 206.232742 
L 364.987083 208.58143 
L 367.701945 210.930118 
L 369.626566 213.278807 
L 371.653154 215.627495 
L 373.730725 217.976183 
L 376.177925 220.324872 
L 378.306479 222.67356 
L 380.116387 225.022248 
L 382.130229 227.370937 
L 384.195054 229.719625 
L 386.655 232.068313 
L 388.108025 234.417002 
L 389.165929 236.76569 
L 389.981662 239.114379 
L 391.256246 241.463067 
L 392.556321 243.811755 
L 393.155375 246.160444 
L 394.557417 248.509132 
L 396.074171 250.85782 
L 397.221296 253.206509 
L 398.368421 255.555197 
L 399.490054 257.903885 
L 400.445992 260.252574 
L 401.784304 262.601262 
L 403.313804 264.94995 
L 404.562896 267.298639 
L 405.46785 269.647327 
L 405.875717 271.996015 
L 406.219854 274.344704 
L 406.576738 276.693392 
L 406.831654 279.04208 
L 407.112063 281.390769 
L 407.341488 283.739457 
" style="fill:none;stroke:#115029;stroke-linecap:square;stroke-width:1.5;"/>
   </g>
   <g id="patch_8">
    <path d="M 252.392727 307.584 
L 252.392727 41.472 
" style="fill:none;stroke:#000000;stroke-linecap:square;stroke-linejoin:miter;stroke-width:0.8;"/>
   </g>
   <g id="patch_9">
    <path d="M 414.72 307.584 
L 414.72 41.472 
" style="fill:none;stroke:#000000;stroke-linecap:square;stroke-linejoin:miter;stroke-width:0.8;"/>
   </g>
   <g id="patch_10">
    <path d="M 252.392727 307.584 
L 414.72 307.584 
" style="fill:none;stroke:#000000;stroke-linecap:square;stroke-linejoin:miter;stroke-width:0.8;"/>
   </g>
   <g id="patch_11">
    <path d="M 252.392727 41.472 
L 414.72 41.472 
" style="fill:none;stroke:#000000;stroke-linecap:square;stroke-linejoin:miter;stroke-width:0.8;"/>
   </g>
   <g id="legend_1">
    <g id="patch_12">
     <path d="M 321.294688 126.479813 
L 405.62 126.479813 
Q 408.22 126.479813 408.22 123.879813 
L 408.22 50.572 
Q 408.22 47.972 405.62 47.972 
L 321.294688 47.972 
Q 318.694687 47.972 318.694687 50.572 
L 318.694687 123.879813 
Q 318.694687 126.479813 321.294688 126.479813 
z
" style="fill:#ffffff;opacity:0.8;stroke:#cccccc;stroke-linejoin:miter;"/>
    </g>
    <g id="line2d_27">
     <path d="M 323.894687 58.499969 
L 349.894687 58.499969 
" style="fill:none;stroke:#000000;stroke-linecap:square;stroke-width:3;"/>
    </g>
    <g id="line2d_28"/>
    <g id="text_20">
     <!-- TS -->
     <defs>
      <path d="M -0.296875 72.90625 
L 61.375 72.90625 
L 61.375 64.59375 
L 35.5 64.59375 
L 35.5 0 
L 25.59375 0 
L 25.59375 64.59375 
L -0.296875 64.59375 
z
" id="DejaVuSans-84"/>
      <path d="M 53.515625 70.515625 
L 53.515625 60.890625 
Q 47.90625 63.578125 42.921875 64.890625 
Q 37.9375 66.21875 33.296875 66.21875 
Q 25.25 66.21875 20.875 63.09375 
Q 16.5 59.96875 16.5 54.203125 
Q 16.5 49.359375 19.40625 46.890625 
Q 22.3125 44.4375 30.421875 42.921875 
L 36.375 41.703125 
Q 47.40625 39.59375 52.65625 34.296875 
Q 57.90625 29 57.90625 20.125 
Q 57.90625 9.515625 50.796875 4.046875 
Q 43.703125 -1.421875 29.984375 -1.421875 
Q 24.8125 -1.421875 18.96875 -0.25 
Q 13.140625 0.921875 6.890625 3.21875 
L 6.890625 13.375 
Q 12.890625 10.015625 18.65625 8.296875 
Q 24.421875 6.59375 29.984375 6.59375 
Q 38.421875 6.59375 43.015625 9.90625 
Q 47.609375 13.234375 47.609375 19.390625 
Q 47.609375 24.75 44.3125 27.78125 
Q 41.015625 30.8125 33.5 32.328125 
L 27.484375 33.5 
Q 16.453125 35.6875 11.515625 40.375 
Q 6.59375 45.0625 6.59375 53.421875 
Q 6.59375 63.09375 13.40625 68.65625 
Q 20.21875 74.21875 32.171875 74.21875 
Q 37.3125 74.21875 42.625 73.28125 
Q 47.953125 72.359375 53.515625 70.515625 
z
" id="DejaVuSans-83"/>
     </defs>
     <g transform="translate(360.294687 63.049969)scale(0.13 -0.13)">
      <use xlink:href="#DejaVuSans-84"/>
      <use x="61.083984" xlink:href="#DejaVuSans-83"/>
     </g>
    </g>
    <g id="line2d_29">
     <path d="M 323.894687 72.381531 
L 349.894687 72.381531 
" style="fill:none;stroke:#a2eb7f;stroke-dasharray:1.5,2.475;stroke-dashoffset:0;stroke-width:1.5;"/>
    </g>
    <g id="line2d_30"/>
    <g id="text_21">
     <!-- RB, n0 -->
     <defs>
      <path d="M 44.390625 34.1875 
Q 47.5625 33.109375 50.5625 29.59375 
Q 53.5625 26.078125 56.59375 19.921875 
L 66.609375 0 
L 56 0 
L 46.6875 18.703125 
Q 43.0625 26.03125 39.671875 28.421875 
Q 36.28125 30.8125 30.421875 30.8125 
L 19.671875 30.8125 
L 19.671875 0 
L 9.8125 0 
L 9.8125 72.90625 
L 32.078125 72.90625 
Q 44.578125 72.90625 50.734375 67.671875 
Q 56.890625 62.453125 56.890625 51.90625 
Q 56.890625 45.015625 53.6875 40.46875 
Q 50.484375 35.9375 44.390625 34.1875 
z
M 19.671875 64.796875 
L 19.671875 38.921875 
L 32.078125 38.921875 
Q 39.203125 38.921875 42.84375 42.21875 
Q 46.484375 45.515625 46.484375 51.90625 
Q 46.484375 58.296875 42.84375 61.546875 
Q 39.203125 64.796875 32.078125 64.796875 
z
" id="DejaVuSans-82"/>
      <path d="M 19.671875 34.8125 
L 19.671875 8.109375 
L 35.5 8.109375 
Q 43.453125 8.109375 47.28125 11.40625 
Q 51.125 14.703125 51.125 21.484375 
Q 51.125 28.328125 47.28125 31.5625 
Q 43.453125 34.8125 35.5 34.8125 
z
M 19.671875 64.796875 
L 19.671875 42.828125 
L 34.28125 42.828125 
Q 41.5 42.828125 45.03125 45.53125 
Q 48.578125 48.25 48.578125 53.8125 
Q 48.578125 59.328125 45.03125 62.0625 
Q 41.5 64.796875 34.28125 64.796875 
z
M 9.8125 72.90625 
L 35.015625 72.90625 
Q 46.296875 72.90625 52.390625 68.21875 
Q 58.5 63.53125 58.5 54.890625 
Q 58.5 48.1875 55.375 44.234375 
Q 52.25 40.28125 46.1875 39.3125 
Q 53.46875 37.75 57.5 32.78125 
Q 61.53125 27.828125 61.53125 20.40625 
Q 61.53125 10.640625 54.890625 5.3125 
Q 48.25 0 35.984375 0 
L 9.8125 0 
z
" id="DejaVuSans-66"/>
      <path d="M 11.71875 12.40625 
L 22.015625 12.40625 
L 22.015625 4 
L 14.015625 -11.625 
L 7.71875 -11.625 
L 11.71875 4 
z
" id="DejaVuSans-44"/>
      <path d="M 54.890625 33.015625 
L 54.890625 0 
L 45.90625 0 
L 45.90625 32.71875 
Q 45.90625 40.484375 42.875 44.328125 
Q 39.84375 48.1875 33.796875 48.1875 
Q 26.515625 48.1875 22.3125 43.546875 
Q 18.109375 38.921875 18.109375 30.90625 
L 18.109375 0 
L 9.078125 0 
L 9.078125 54.6875 
L 18.109375 54.6875 
L 18.109375 46.1875 
Q 21.34375 51.125 25.703125 53.5625 
Q 30.078125 56 35.796875 56 
Q 45.21875 56 50.046875 50.171875 
Q 54.890625 44.34375 54.890625 33.015625 
z
" id="DejaVuSans-110"/>
     </defs>
     <g transform="translate(360.294687 76.931531)scale(0.13 -0.13)">
      <use xlink:href="#DejaVuSans-82"/>
      <use x="69.482422" xlink:href="#DejaVuSans-66"/>
      <use x="138.085938" xlink:href="#DejaVuSans-44"/>
      <use x="169.873047" xlink:href="#DejaVuSans-32"/>
      <use x="201.660156" xlink:href="#DejaVuSans-110"/>
      <use x="265.039062" xlink:href="#DejaVuSans-48"/>
     </g>
    </g>
    <g id="line2d_31">
     <path d="M 323.894687 86.263094 
L 349.894687 86.263094 
" style="fill:none;stroke:#77cd86;stroke-dasharray:5.55,2.4;stroke-dashoffset:0;stroke-width:1.5;"/>
    </g>
    <g id="line2d_32"/>
    <g id="text_22">
     <!-- RB, s0 -->
     <defs>
      <path d="M 44.28125 53.078125 
L 44.28125 44.578125 
Q 40.484375 46.53125 36.375 47.5 
Q 32.28125 48.484375 27.875 48.484375 
Q 21.1875 48.484375 17.84375 46.4375 
Q 14.5 44.390625 14.5 40.28125 
Q 14.5 37.15625 16.890625 35.375 
Q 19.28125 33.59375 26.515625 31.984375 
L 29.59375 31.296875 
Q 39.15625 29.25 43.1875 25.515625 
Q 47.21875 21.78125 47.21875 15.09375 
Q 47.21875 7.46875 41.1875 3.015625 
Q 35.15625 -1.421875 24.609375 -1.421875 
Q 20.21875 -1.421875 15.453125 -0.5625 
Q 10.6875 0.296875 5.421875 2 
L 5.421875 11.28125 
Q 10.40625 8.6875 15.234375 7.390625 
Q 20.0625 6.109375 24.8125 6.109375 
Q 31.15625 6.109375 34.5625 8.28125 
Q 37.984375 10.453125 37.984375 14.40625 
Q 37.984375 18.0625 35.515625 20.015625 
Q 33.0625 21.96875 24.703125 23.78125 
L 21.578125 24.515625 
Q 13.234375 26.265625 9.515625 29.90625 
Q 5.8125 33.546875 5.8125 39.890625 
Q 5.8125 47.609375 11.28125 51.796875 
Q 16.75 56 26.8125 56 
Q 31.78125 56 36.171875 55.265625 
Q 40.578125 54.546875 44.28125 53.078125 
z
" id="DejaVuSans-115"/>
     </defs>
     <g transform="translate(360.294687 90.813094)scale(0.13 -0.13)">
      <use xlink:href="#DejaVuSans-82"/>
      <use x="69.482422" xlink:href="#DejaVuSans-66"/>
      <use x="138.085938" xlink:href="#DejaVuSans-44"/>
      <use x="169.873047" xlink:href="#DejaVuSans-32"/>
      <use x="201.660156" xlink:href="#DejaVuSans-115"/>
      <use x="253.759766" xlink:href="#DejaVuSans-48"/>
     </g>
    </g>
    <g id="line2d_33">
     <path d="M 323.894687 100.144656 
L 349.894687 100.144656 
" style="fill:none;stroke:#258d41;stroke-dasharray:9.6,2.4,1.5,2.4;stroke-dashoffset:0;stroke-width:1.5;"/>
    </g>
    <g id="line2d_34"/>
    <g id="text_23">
     <!-- RB, s1 -->
     <g transform="translate(360.294687 104.694656)scale(0.13 -0.13)">
      <use xlink:href="#DejaVuSans-82"/>
      <use x="69.482422" xlink:href="#DejaVuSans-66"/>
      <use x="138.085938" xlink:href="#DejaVuSans-44"/>
      <use x="169.873047" xlink:href="#DejaVuSans-32"/>
      <use x="201.660156" xlink:href="#DejaVuSans-115"/>
      <use x="253.759766" xlink:href="#DejaVuSans-49"/>
     </g>
    </g>
    <g id="line2d_35">
     <path d="M 323.894687 114.026219 
L 349.894687 114.026219 
" style="fill:none;stroke:#115029;stroke-linecap:square;stroke-width:1.5;"/>
    </g>
    <g id="line2d_36"/>
    <g id="text_24">
     <!-- RB, s2 -->
     <g transform="translate(360.294687 118.576219)scale(0.13 -0.13)">
      <use xlink:href="#DejaVuSans-82"/>
      <use x="69.482422" xlink:href="#DejaVuSans-66"/>
      <use x="138.085938" xlink:href="#DejaVuSans-44"/>
      <use x="169.873047" xlink:href="#DejaVuSans-32"/>
      <use x="201.660156" xlink:href="#DejaVuSans-115"/>
      <use x="253.759766" xlink:href="#DejaVuSans-50"/>
     </g>
    </g>
   </g>
  </g>
 </g>
 <defs>
  <clipPath id="p160ae160d9">
   <rect height="266.112" width="162.327273" x="57.6" y="41.472"/>
  </clipPath>
  <clipPath id="p23a3d7301e">
   <rect height="266.112" width="162.327273" x="252.392727" y="41.472"/>
  </clipPath>
 </defs>
</svg>
