<?xml version="1.0" encoding="utf-8" standalone="no"?>
<!DOCTYPE svg PUBLIC "-//W3C//DTD SVG 1.1//EN"
  "http://www.w3.org/Graphics/SVG/1.1/DTD/svg11.dtd">
<!-- Created with matplotlib (https://matplotlib.org/) -->
<svg height="345.6pt" version="1.1" viewBox="0 0 460.8 345.6" width="460.8pt" xmlns="http://www.w3.org/2000/svg" xmlns:xlink="http://www.w3.org/1999/xlink">
 <defs>
  <style type="text/css">
*{stroke-linecap:butt;stroke-linejoin:round;}
  </style>
 </defs>
 <g id="figure_1">
  <g id="patch_1">
   <path d="M 0 345.6 
L 460.8 345.6 
L 460.8 0 
L 0 0 
z
" style="fill:#ffffff;"/>
  </g>
  <g id="axes_1">
   <g id="patch_2">
    <path d="M 57.6 307.584 
L 219.927273 307.584 
L 219.927273 41.472 
L 57.6 41.472 
z
" style="fill:#ffffff;"/>
   </g>
   <g id="matplotlib.axis_1">
    <g id="xtick_1">
     <g id="line2d_1">
      <defs>
       <path d="M 0 0 
L 0 3.5 
" id="m2c174b5380" style="stroke:#000000;stroke-width:0.8;"/>
      </defs>
      <g>
       <use style="stroke:#000000;stroke-width:0.8;" x="212.54876" xlink:href="#m2c174b5380" y="307.584"/>
      </g>
     </g>
     <g id="text_1">
      <!-- 0 -->
      <defs>
       <path d="M 31.78125 66.40625 
Q 24.171875 66.40625 20.328125 58.90625 
Q 16.5 51.421875 16.5 36.375 
Q 16.5 21.390625 20.328125 13.890625 
Q 24.171875 6.390625 31.78125 6.390625 
Q 39.453125 6.390625 43.28125 13.890625 
Q 47.125 21.390625 47.125 36.375 
Q 47.125 51.421875 43.28125 58.90625 
Q 39.453125 66.40625 31.78125 66.40625 
z
M 31.78125 74.21875 
Q 44.046875 74.21875 50.515625 64.515625 
Q 56.984375 54.828125 56.984375 36.375 
Q 56.984375 17.96875 50.515625 8.265625 
Q 44.046875 -1.421875 31.78125 -1.421875 
Q 19.53125 -1.421875 13.0625 8.265625 
Q 6.59375 17.96875 6.59375 36.375 
Q 6.59375 54.828125 13.0625 64.515625 
Q 19.53125 74.21875 31.78125 74.21875 
z
" id="DejaVuSans-48"/>
      </defs>
      <g transform="translate(207.776885 325.981656)scale(0.15 -0.15)">
       <use xlink:href="#DejaVuSans-48"/>
      </g>
     </g>
    </g>
    <g id="xtick_2">
     <g id="line2d_2">
      <g>
       <use style="stroke:#000000;stroke-width:0.8;" x="160.956275" xlink:href="#m2c174b5380" y="307.584"/>
      </g>
     </g>
     <g id="text_2">
      <!-- 1 -->
      <defs>
       <path d="M 12.40625 8.296875 
L 28.515625 8.296875 
L 28.515625 63.921875 
L 10.984375 60.40625 
L 10.984375 69.390625 
L 28.421875 72.90625 
L 38.28125 72.90625 
L 38.28125 8.296875 
L 54.390625 8.296875 
L 54.390625 0 
L 12.40625 0 
z
" id="DejaVuSans-49"/>
      </defs>
      <g transform="translate(156.1844 325.981656)scale(0.15 -0.15)">
       <use xlink:href="#DejaVuSans-49"/>
      </g>
     </g>
    </g>
    <g id="xtick_3">
     <g id="line2d_3">
      <g>
       <use style="stroke:#000000;stroke-width:0.8;" x="109.36379" xlink:href="#m2c174b5380" y="307.584"/>
      </g>
     </g>
     <g id="text_3">
      <!-- 2 -->
      <defs>
       <path d="M 19.1875 8.296875 
L 53.609375 8.296875 
L 53.609375 0 
L 7.328125 0 
L 7.328125 8.296875 
Q 12.9375 14.109375 22.625 23.890625 
Q 32.328125 33.6875 34.8125 36.53125 
Q 39.546875 41.84375 41.421875 45.53125 
Q 43.3125 49.21875 43.3125 52.78125 
Q 43.3125 58.59375 39.234375 62.25 
Q 35.15625 65.921875 28.609375 65.921875 
Q 23.96875 65.921875 18.8125 64.3125 
Q 13.671875 62.703125 7.8125 59.421875 
L 7.8125 69.390625 
Q 13.765625 71.78125 18.9375 73 
Q 24.125 74.21875 28.421875 74.21875 
Q 39.75 74.21875 46.484375 68.546875 
Q 53.21875 62.890625 53.21875 53.421875 
Q 53.21875 48.921875 51.53125 44.890625 
Q 49.859375 40.875 45.40625 35.40625 
Q 44.1875 33.984375 37.640625 27.21875 
Q 31.109375 20.453125 19.1875 8.296875 
z
" id="DejaVuSans-50"/>
      </defs>
      <g transform="translate(104.591915 325.981656)scale(0.15 -0.15)">
       <use xlink:href="#DejaVuSans-50"/>
      </g>
     </g>
    </g>
    <g id="xtick_4">
     <g id="line2d_4">
      <g>
       <use style="stroke:#000000;stroke-width:0.8;" x="57.771305" xlink:href="#m2c174b5380" y="307.584"/>
      </g>
     </g>
     <g id="text_4">
      <!-- 3 -->
      <defs>
       <path d="M 40.578125 39.3125 
Q 47.65625 37.796875 51.625 33 
Q 55.609375 28.21875 55.609375 21.1875 
Q 55.609375 10.40625 48.1875 4.484375 
Q 40.765625 -1.421875 27.09375 -1.421875 
Q 22.515625 -1.421875 17.65625 -0.515625 
Q 12.796875 0.390625 7.625 2.203125 
L 7.625 11.71875 
Q 11.71875 9.328125 16.59375 8.109375 
Q 21.484375 6.890625 26.8125 6.890625 
Q 36.078125 6.890625 40.9375 10.546875 
Q 45.796875 14.203125 45.796875 21.1875 
Q 45.796875 27.640625 41.28125 31.265625 
Q 36.765625 34.90625 28.71875 34.90625 
L 20.21875 34.90625 
L 20.21875 43.015625 
L 29.109375 43.015625 
Q 36.375 43.015625 40.234375 45.921875 
Q 44.09375 48.828125 44.09375 54.296875 
Q 44.09375 59.90625 40.109375 62.90625 
Q 36.140625 65.921875 28.71875 65.921875 
Q 24.65625 65.921875 20.015625 65.03125 
Q 15.375 64.15625 9.8125 62.3125 
L 9.8125 71.09375 
Q 15.4375 72.65625 20.34375 73.4375 
Q 25.25 74.21875 29.59375 74.21875 
Q 40.828125 74.21875 47.359375 69.109375 
Q 53.90625 64.015625 53.90625 55.328125 
Q 53.90625 49.265625 50.4375 45.09375 
Q 46.96875 40.921875 40.578125 39.3125 
z
" id="DejaVuSans-51"/>
      </defs>
      <g transform="translate(52.99943 325.981656)scale(0.15 -0.15)">
       <use xlink:href="#DejaVuSans-51"/>
      </g>
     </g>
    </g>
    <g id="text_5">
     <!-- PDF -->
     <defs>
      <path d="M 19.671875 64.796875 
L 19.671875 37.40625 
L 32.078125 37.40625 
Q 38.96875 37.40625 42.71875 40.96875 
Q 46.484375 44.53125 46.484375 51.125 
Q 46.484375 57.671875 42.71875 61.234375 
Q 38.96875 64.796875 32.078125 64.796875 
z
M 9.8125 72.90625 
L 32.078125 72.90625 
Q 44.34375 72.90625 50.609375 67.359375 
Q 56.890625 61.8125 56.890625 51.125 
Q 56.890625 40.328125 50.609375 34.8125 
Q 44.34375 29.296875 32.078125 29.296875 
L 19.671875 29.296875 
L 19.671875 0 
L 9.8125 0 
z
" id="DejaVuSans-80"/>
      <path d="M 19.671875 64.796875 
L 19.671875 8.109375 
L 31.59375 8.109375 
Q 46.6875 8.109375 53.6875 14.9375 
Q 60.6875 21.78125 60.6875 36.53125 
Q 60.6875 51.171875 53.6875 57.984375 
Q 46.6875 64.796875 31.59375 64.796875 
z
M 9.8125 72.90625 
L 30.078125 72.90625 
Q 51.265625 72.90625 61.171875 64.09375 
Q 71.09375 55.28125 71.09375 36.53125 
Q 71.09375 17.671875 61.125 8.828125 
Q 51.171875 0 30.078125 0 
L 9.8125 0 
z
" id="DejaVuSans-68"/>
      <path d="M 9.8125 72.90625 
L 51.703125 72.90625 
L 51.703125 64.59375 
L 19.671875 64.59375 
L 19.671875 43.109375 
L 48.578125 43.109375 
L 48.578125 34.8125 
L 19.671875 34.8125 
L 19.671875 0 
L 9.8125 0 
z
" id="DejaVuSans-70"/>
     </defs>
     <g transform="translate(122.204574 346.018531)scale(0.17 -0.17)">
      <use xlink:href="#DejaVuSans-80"/>
      <use x="60.302734" xlink:href="#DejaVuSans-68"/>
      <use x="137.304688" xlink:href="#DejaVuSans-70"/>
     </g>
    </g>
   </g>
   <g id="matplotlib.axis_2">
    <g id="ytick_1">
     <g id="line2d_5">
      <defs>
       <path d="M 0 0 
L -3.5 0 
" id="maff2e735c0" style="stroke:#000000;stroke-width:0.8;"/>
      </defs>
      <g>
       <use style="stroke:#000000;stroke-width:0.8;" x="57.6" xlink:href="#maff2e735c0" y="295.488"/>
      </g>
     </g>
     <g id="text_6">
      <!-- 0.0 -->
      <defs>
       <path d="M 10.6875 12.40625 
L 21 12.40625 
L 21 0 
L 10.6875 0 
z
" id="DejaVuSans-46"/>
      </defs>
      <g transform="translate(26.745313 301.186828)scale(0.15 -0.15)">
       <use xlink:href="#DejaVuSans-48"/>
       <use x="63.623047" xlink:href="#DejaVuSans-46"/>
       <use x="95.410156" xlink:href="#DejaVuSans-48"/>
      </g>
     </g>
    </g>
    <g id="ytick_2">
     <g id="line2d_6">
      <g>
       <use style="stroke:#000000;stroke-width:0.8;" x="57.6" xlink:href="#maff2e735c0" y="244.65154"/>
      </g>
     </g>
     <g id="text_7">
      <!-- 0.5 -->
      <defs>
       <path d="M 10.796875 72.90625 
L 49.515625 72.90625 
L 49.515625 64.59375 
L 19.828125 64.59375 
L 19.828125 46.734375 
Q 21.96875 47.46875 24.109375 47.828125 
Q 26.265625 48.1875 28.421875 48.1875 
Q 40.625 48.1875 47.75 41.5 
Q 54.890625 34.8125 54.890625 23.390625 
Q 54.890625 11.625 47.5625 5.09375 
Q 40.234375 -1.421875 26.90625 -1.421875 
Q 22.3125 -1.421875 17.546875 -0.640625 
Q 12.796875 0.140625 7.71875 1.703125 
L 7.71875 11.625 
Q 12.109375 9.234375 16.796875 8.0625 
Q 21.484375 6.890625 26.703125 6.890625 
Q 35.15625 6.890625 40.078125 11.328125 
Q 45.015625 15.765625 45.015625 23.390625 
Q 45.015625 31 40.078125 35.4375 
Q 35.15625 39.890625 26.703125 39.890625 
Q 22.75 39.890625 18.8125 39.015625 
Q 14.890625 38.140625 10.796875 36.28125 
z
" id="DejaVuSans-53"/>
      </defs>
      <g transform="translate(26.745313 250.350368)scale(0.15 -0.15)">
       <use xlink:href="#DejaVuSans-48"/>
       <use x="63.623047" xlink:href="#DejaVuSans-46"/>
       <use x="95.410156" xlink:href="#DejaVuSans-53"/>
      </g>
     </g>
    </g>
    <g id="ytick_3">
     <g id="line2d_7">
      <g>
       <use style="stroke:#000000;stroke-width:0.8;" x="57.6" xlink:href="#maff2e735c0" y="193.815081"/>
      </g>
     </g>
     <g id="text_8">
      <!-- 1.0 -->
      <g transform="translate(26.745313 199.513909)scale(0.15 -0.15)">
       <use xlink:href="#DejaVuSans-49"/>
       <use x="63.623047" xlink:href="#DejaVuSans-46"/>
       <use x="95.410156" xlink:href="#DejaVuSans-48"/>
      </g>
     </g>
    </g>
    <g id="ytick_4">
     <g id="line2d_8">
      <g>
       <use style="stroke:#000000;stroke-width:0.8;" x="57.6" xlink:href="#maff2e735c0" y="142.978621"/>
      </g>
     </g>
     <g id="text_9">
      <!-- 1.5 -->
      <g transform="translate(26.745313 148.677449)scale(0.15 -0.15)">
       <use xlink:href="#DejaVuSans-49"/>
       <use x="63.623047" xlink:href="#DejaVuSans-46"/>
       <use x="95.410156" xlink:href="#DejaVuSans-53"/>
      </g>
     </g>
    </g>
    <g id="ytick_5">
     <g id="line2d_9">
      <g>
       <use style="stroke:#000000;stroke-width:0.8;" x="57.6" xlink:href="#maff2e735c0" y="92.142161"/>
      </g>
     </g>
     <g id="text_10">
      <!-- 2.0 -->
      <g transform="translate(26.745313 97.840989)scale(0.15 -0.15)">
       <use xlink:href="#DejaVuSans-50"/>
       <use x="63.623047" xlink:href="#DejaVuSans-46"/>
       <use x="95.410156" xlink:href="#DejaVuSans-48"/>
      </g>
     </g>
    </g>
    <g id="text_11">
     <!-- Velocity (m/s) -->
     <defs>
      <path d="M 28.609375 0 
L 0.78125 72.90625 
L 11.078125 72.90625 
L 34.1875 11.53125 
L 57.328125 72.90625 
L 67.578125 72.90625 
L 39.796875 0 
z
" id="DejaVuSans-86"/>
      <path d="M 56.203125 29.59375 
L 56.203125 25.203125 
L 14.890625 25.203125 
Q 15.484375 15.921875 20.484375 11.0625 
Q 25.484375 6.203125 34.421875 6.203125 
Q 39.59375 6.203125 44.453125 7.46875 
Q 49.3125 8.734375 54.109375 11.28125 
L 54.109375 2.78125 
Q 49.265625 0.734375 44.1875 -0.34375 
Q 39.109375 -1.421875 33.890625 -1.421875 
Q 20.796875 -1.421875 13.15625 6.1875 
Q 5.515625 13.8125 5.515625 26.8125 
Q 5.515625 40.234375 12.765625 48.109375 
Q 20.015625 56 32.328125 56 
Q 43.359375 56 49.78125 48.890625 
Q 56.203125 41.796875 56.203125 29.59375 
z
M 47.21875 32.234375 
Q 47.125 39.59375 43.09375 43.984375 
Q 39.0625 48.390625 32.421875 48.390625 
Q 24.90625 48.390625 20.390625 44.140625 
Q 15.875 39.890625 15.1875 32.171875 
z
" id="DejaVuSans-101"/>
      <path d="M 9.421875 75.984375 
L 18.40625 75.984375 
L 18.40625 0 
L 9.421875 0 
z
" id="DejaVuSans-108"/>
      <path d="M 30.609375 48.390625 
Q 23.390625 48.390625 19.1875 42.75 
Q 14.984375 37.109375 14.984375 27.296875 
Q 14.984375 17.484375 19.15625 11.84375 
Q 23.34375 6.203125 30.609375 6.203125 
Q 37.796875 6.203125 41.984375 11.859375 
Q 46.1875 17.53125 46.1875 27.296875 
Q 46.1875 37.015625 41.984375 42.703125 
Q 37.796875 48.390625 30.609375 48.390625 
z
M 30.609375 56 
Q 42.328125 56 49.015625 48.375 
Q 55.71875 40.765625 55.71875 27.296875 
Q 55.71875 13.875 49.015625 6.21875 
Q 42.328125 -1.421875 30.609375 -1.421875 
Q 18.84375 -1.421875 12.171875 6.21875 
Q 5.515625 13.875 5.515625 27.296875 
Q 5.515625 40.765625 12.171875 48.375 
Q 18.84375 56 30.609375 56 
z
" id="DejaVuSans-111"/>
      <path d="M 48.78125 52.59375 
L 48.78125 44.1875 
Q 44.96875 46.296875 41.140625 47.34375 
Q 37.3125 48.390625 33.40625 48.390625 
Q 24.65625 48.390625 19.8125 42.84375 
Q 14.984375 37.3125 14.984375 27.296875 
Q 14.984375 17.28125 19.8125 11.734375 
Q 24.65625 6.203125 33.40625 6.203125 
Q 37.3125 6.203125 41.140625 7.25 
Q 44.96875 8.296875 48.78125 10.40625 
L 48.78125 2.09375 
Q 45.015625 0.34375 40.984375 -0.53125 
Q 36.96875 -1.421875 32.421875 -1.421875 
Q 20.0625 -1.421875 12.78125 6.34375 
Q 5.515625 14.109375 5.515625 27.296875 
Q 5.515625 40.671875 12.859375 48.328125 
Q 20.21875 56 33.015625 56 
Q 37.15625 56 41.109375 55.140625 
Q 45.0625 54.296875 48.78125 52.59375 
z
" id="DejaVuSans-99"/>
      <path d="M 9.421875 54.6875 
L 18.40625 54.6875 
L 18.40625 0 
L 9.421875 0 
z
M 9.421875 75.984375 
L 18.40625 75.984375 
L 18.40625 64.59375 
L 9.421875 64.59375 
z
" id="DejaVuSans-105"/>
      <path d="M 18.3125 70.21875 
L 18.3125 54.6875 
L 36.8125 54.6875 
L 36.8125 47.703125 
L 18.3125 47.703125 
L 18.3125 18.015625 
Q 18.3125 11.328125 20.140625 9.421875 
Q 21.96875 7.515625 27.59375 7.515625 
L 36.8125 7.515625 
L 36.8125 0 
L 27.59375 0 
Q 17.1875 0 13.234375 3.875 
Q 9.28125 7.765625 9.28125 18.015625 
L 9.28125 47.703125 
L 2.6875 47.703125 
L 2.6875 54.6875 
L 9.28125 54.6875 
L 9.28125 70.21875 
z
" id="DejaVuSans-116"/>
      <path d="M 32.171875 -5.078125 
Q 28.375 -14.84375 24.75 -17.8125 
Q 21.140625 -20.796875 15.09375 -20.796875 
L 7.90625 -20.796875 
L 7.90625 -13.28125 
L 13.1875 -13.28125 
Q 16.890625 -13.28125 18.9375 -11.515625 
Q 21 -9.765625 23.484375 -3.21875 
L 25.09375 0.875 
L 2.984375 54.6875 
L 12.5 54.6875 
L 29.59375 11.921875 
L 46.6875 54.6875 
L 56.203125 54.6875 
z
" id="DejaVuSans-121"/>
      <path id="DejaVuSans-32"/>
      <path d="M 31 75.875 
Q 24.46875 64.65625 21.28125 53.65625 
Q 18.109375 42.671875 18.109375 31.390625 
Q 18.109375 20.125 21.3125 9.0625 
Q 24.515625 -2 31 -13.1875 
L 23.1875 -13.1875 
Q 15.875 -1.703125 12.234375 9.375 
Q 8.59375 20.453125 8.59375 31.390625 
Q 8.59375 42.28125 12.203125 53.3125 
Q 15.828125 64.359375 23.1875 75.875 
z
" id="DejaVuSans-40"/>
      <path d="M 52 44.1875 
Q 55.375 50.25 60.0625 53.125 
Q 64.75 56 71.09375 56 
Q 79.640625 56 84.28125 50.015625 
Q 88.921875 44.046875 88.921875 33.015625 
L 88.921875 0 
L 79.890625 0 
L 79.890625 32.71875 
Q 79.890625 40.578125 77.09375 44.375 
Q 74.3125 48.1875 68.609375 48.1875 
Q 61.625 48.1875 57.5625 43.546875 
Q 53.515625 38.921875 53.515625 30.90625 
L 53.515625 0 
L 44.484375 0 
L 44.484375 32.71875 
Q 44.484375 40.625 41.703125 44.40625 
Q 38.921875 48.1875 33.109375 48.1875 
Q 26.21875 48.1875 22.15625 43.53125 
Q 18.109375 38.875 18.109375 30.90625 
L 18.109375 0 
L 9.078125 0 
L 9.078125 54.6875 
L 18.109375 54.6875 
L 18.109375 46.1875 
Q 21.1875 51.21875 25.484375 53.609375 
Q 29.78125 56 35.6875 56 
Q 41.65625 56 45.828125 52.96875 
Q 50 49.953125 52 44.1875 
z
" id="DejaVuSans-109"/>
      <path d="M 25.390625 72.90625 
L 33.6875 72.90625 
L 8.296875 -9.28125 
L 0 -9.28125 
z
" id="DejaVuSans-47"/>
      <path d="M 44.28125 53.078125 
L 44.28125 44.578125 
Q 40.484375 46.53125 36.375 47.5 
Q 32.28125 48.484375 27.875 48.484375 
Q 21.1875 48.484375 17.84375 46.4375 
Q 14.5 44.390625 14.5 40.28125 
Q 14.5 37.15625 16.890625 35.375 
Q 19.28125 33.59375 26.515625 31.984375 
L 29.59375 31.296875 
Q 39.15625 29.25 43.1875 25.515625 
Q 47.21875 21.78125 47.21875 15.09375 
Q 47.21875 7.46875 41.1875 3.015625 
Q 35.15625 -1.421875 24.609375 -1.421875 
Q 20.21875 -1.421875 15.453125 -0.5625 
Q 10.6875 0.296875 5.421875 2 
L 5.421875 11.28125 
Q 10.40625 8.6875 15.234375 7.390625 
Q 20.0625 6.109375 24.8125 6.109375 
Q 31.15625 6.109375 34.5625 8.28125 
Q 37.984375 10.453125 37.984375 14.40625 
Q 37.984375 18.0625 35.515625 20.015625 
Q 33.0625 21.96875 24.703125 23.78125 
L 21.578125 24.515625 
Q 13.234375 26.265625 9.515625 29.90625 
Q 5.8125 33.546875 5.8125 39.890625 
Q 5.8125 47.609375 11.28125 51.796875 
Q 16.75 56 26.8125 56 
Q 31.78125 56 36.171875 55.265625 
Q 40.578125 54.546875 44.28125 53.078125 
z
" id="DejaVuSans-115"/>
      <path d="M 8.015625 75.875 
L 15.828125 75.875 
Q 23.140625 64.359375 26.78125 53.3125 
Q 30.421875 42.28125 30.421875 31.390625 
Q 30.421875 20.453125 26.78125 9.375 
Q 23.140625 -1.703125 15.828125 -13.1875 
L 8.015625 -13.1875 
Q 14.5 -2 17.703125 9.0625 
Q 20.90625 20.125 20.90625 31.390625 
Q 20.90625 42.671875 17.703125 53.65625 
Q 14.5 64.65625 8.015625 75.875 
z
" id="DejaVuSans-41"/>
     </defs>
     <g transform="translate(19.209844 232.779562)rotate(-90)scale(0.17 -0.17)">
      <use xlink:href="#DejaVuSans-86"/>
      <use x="60.658203" xlink:href="#DejaVuSans-101"/>
      <use x="122.181641" xlink:href="#DejaVuSans-108"/>
      <use x="149.964844" xlink:href="#DejaVuSans-111"/>
      <use x="211.146484" xlink:href="#DejaVuSans-99"/>
      <use x="266.126953" xlink:href="#DejaVuSans-105"/>
      <use x="293.910156" xlink:href="#DejaVuSans-116"/>
      <use x="333.119141" xlink:href="#DejaVuSans-121"/>
      <use x="392.298828" xlink:href="#DejaVuSans-32"/>
      <use x="424.085938" xlink:href="#DejaVuSans-40"/>
      <use x="463.099609" xlink:href="#DejaVuSans-109"/>
      <use x="560.511719" xlink:href="#DejaVuSans-47"/>
      <use x="594.203125" xlink:href="#DejaVuSans-115"/>
      <use x="646.302734" xlink:href="#DejaVuSans-41"/>
     </g>
    </g>
   </g>
   <g id="line2d_10">
    <path clip-path="url(#p0e2f21e724)" d="M 159.904721 295.488 
L 161.265032 293.852168 
L 154.735539 292.216336 
L 150.518574 290.580505 
L 146.709703 288.944673 
L 153.64729 287.308841 
L 161.945187 285.673009 
L 160.99297 284.037177 
L 167.658494 282.401346 
L 172.419583 280.765514 
L 173.643863 279.129682 
L 172.147521 277.49385 
L 172.01149 275.858019 
L 173.507832 274.222187 
L 173.643863 272.586355 
L 175.68433 270.950523 
L 180.717481 269.314691 
L 185.206507 267.67886 
L 181.533667 266.043028 
L 184.798414 264.407196 
L 183.846196 262.771364 
L 184.118258 261.135532 
L 186.566818 259.499701 
L 181.533667 257.863869 
L 185.342538 256.228037 
L 182.485885 254.592205 
L 180.853512 252.956373 
L 179.085107 251.320542 
L 172.691645 249.68471 
L 171.739427 248.048878 
L 167.522463 246.413046 
L 166.434214 244.777214 
L 161.673125 243.141383 
L 155.279663 241.505551 
L 156.776005 239.869719 
L 158.136316 238.233887 
L 167.930556 236.598056 
L 169.971023 234.962224 
L 166.842307 233.326392 
L 169.698961 231.69056 
L 160.584876 230.054728 
L 163.033436 228.418897 
L 168.746743 226.783065 
L 168.610712 225.147233 
L 169.834992 223.511401 
L 169.290867 221.875569 
L 167.250401 220.239738 
L 166.026121 218.603906 
L 169.971023 216.968074 
L 175.140205 215.332242 
L 172.147521 213.69641 
L 172.283552 212.060579 
L 172.691645 210.424747 
L 170.379116 208.788915 
L 168.882774 207.153083 
L 172.147521 205.517251 
L 170.923241 203.88142 
L 165.89009 202.245588 
L 168.33865 200.609756 
L 164.937872 198.973924 
L 171.195303 197.338093 
L 178.132889 195.702261 
L 177.316703 194.066429 
L 178.268921 192.430597 
L 177.316703 190.794765 
L 180.173356 189.158934 
L 180.445418 187.523102 
L 180.853512 185.88727 
L 181.397636 184.251438 
L 182.349854 182.615606 
L 183.030009 180.979775 
L 183.302072 179.343943 
L 188.471254 177.708111 
L 189.287441 176.072279 
L 192.552187 174.436447 
L 192.416156 172.800616 
L 195.136778 171.164784 
L 200.986116 169.528952 
L 196.497089 167.89312 
L 198.265494 166.257288 
L 203.026583 164.621457 
L 203.434676 162.985625 
L 203.162614 161.349793 
L 203.9788 159.713961 
L 203.706738 158.07813 
L 203.026583 156.442298 
L 204.931018 154.806466 
L 206.699423 153.170634 
L 209.964169 151.534802 
L 208.195765 149.898971 
L 209.147983 148.263139 
L 209.964169 146.627307 
L 209.147983 144.991475 
L 209.964169 143.355643 
L 209.828138 141.719812 
L 209.964169 140.08398 
L 210.236231 138.448148 
L 210.508294 136.812316 
L 211.052418 135.176484 
" style="fill:none;stroke:#5a0003;stroke-linecap:square;stroke-width:3;"/>
   </g>
   <g id="line2d_11">
    <path clip-path="url(#p0e2f21e724)" d="M 212.54876 295.488 
L 211.639202 294.119593 
L 212.54876 292.751186 
L 212.54876 291.382779 
L 212.093981 290.014372 
L 211.411813 288.645965 
L 211.639202 287.277558 
L 211.866592 285.909151 
L 211.184423 284.540744 
L 209.592697 283.172337 
L 209.820086 281.80393 
L 209.592697 280.435523 
L 206.864023 279.067116 
L 207.318802 277.698709 
L 203.90796 276.330302 
L 205.499686 274.961894 
L 200.724507 273.593487 
L 203.68057 272.22508 
L 202.316233 270.856673 
L 198.450612 269.488266 
L 195.949327 268.119859 
L 197.768443 266.751452 
L 192.083706 265.383045 
L 193.675432 264.014638 
L 187.535916 262.646231 
L 182.533347 261.277824 
L 184.125074 259.909417 
L 181.623789 258.54101 
L 182.988126 257.172603 
L 183.897684 255.804196 
L 181.623789 254.435789 
L 184.125074 253.067382 
L 183.215516 251.698975 
L 183.897684 250.330568 
L 181.851179 248.962161 
L 187.308527 247.593754 
L 177.758168 246.225347 
L 188.218084 244.85694 
L 181.3964 243.488533 
L 188.672863 242.120126 
L 187.535916 240.751719 
L 180.941621 239.383312 
L 184.125074 238.014905 
L 186.398969 236.646498 
L 183.215516 235.278091 
L 183.670295 233.909683 
L 182.533347 232.541276 
L 183.897684 231.172869 
L 183.670295 229.804462 
L 184.579853 228.436055 
L 178.895115 227.067648 
L 179.122505 225.699241 
L 181.16901 224.330834 
L 182.533347 222.962427 
L 178.212947 221.59402 
L 177.758168 220.225613 
L 177.758168 218.857206 
L 175.256883 217.488799 
L 180.032063 216.120392 
L 175.484273 214.751985 
L 169.117367 213.383578 
L 171.163872 212.015171 
L 176.84861 210.646764 
L 167.75303 209.278357 
L 170.709093 207.90995 
L 175.256883 206.541543 
L 165.706525 205.173136 
L 165.706525 203.804729 
L 167.98042 202.436322 
L 161.840903 201.067915 
L 167.75303 199.699508 
L 160.249177 198.331101 
L 163.20524 196.962694 
L 151.153597 195.594287 
L 159.112229 194.225879 
L 152.745323 192.857472 
L 153.427492 191.489065 
L 150.698818 190.120658 
L 143.649744 188.752251 
L 141.603238 187.383844 
L 138.192396 186.015437 
L 127.732479 184.64703 
L 116.817783 183.278623 
L 125.231195 181.910216 
L 118.40951 180.541809 
L 114.08911 179.173402 
L 103.174414 177.804995 
L 83.846307 176.436588 
L 76.115064 175.068181 
L 73.841169 173.699774 
L 110.223488 172.331367 
L 118.40951 170.96296 
L 111.587825 169.594553 
L 128.414648 168.226146 
L 147.287976 166.857739 
L 187.763306 165.489332 
L 189.582421 164.120925 
L 189.355032 162.752518 
L 200.951896 161.384111 
" style="fill:none;stroke:#ffcc7b;stroke-dasharray:1.5,2.475;stroke-dashoffset:0;stroke-width:1.5;"/>
   </g>
   <g id="line2d_12">
    <path clip-path="url(#p0e2f21e724)" d="M 212.137128 295.488 
L 211.313863 293.973914 
L 211.931312 292.459828 
L 211.313863 290.945742 
L 210.696414 289.431656 
L 209.873149 287.91757 
L 210.90223 286.403484 
L 211.725495 284.889397 
L 210.284782 283.375311 
L 208.638252 281.861225 
L 208.638252 280.347139 
L 208.226619 278.833053 
L 206.374273 277.318967 
L 205.139375 275.804881 
L 203.698662 274.290795 
L 202.257948 272.776709 
L 202.257948 271.262623 
L 201.640499 269.748537 
L 198.347439 268.234451 
L 192.996217 266.720364 
L 193.613666 265.206278 
L 189.908973 263.692192 
L 188.056627 262.178106 
L 185.586832 260.66402 
L 181.470507 259.149934 
L 181.470507 257.635848 
L 180.441426 256.121762 
L 183.940302 254.607676 
L 183.940302 253.09359 
L 186.410097 251.579504 
L 182.293772 250.065418 
L 184.763567 248.551331 
L 183.734486 247.037245 
L 182.499589 245.523159 
L 186.410097 244.009073 
L 184.351935 242.494987 
L 186.410097 240.980901 
L 183.734486 239.466815 
L 181.058875 237.952729 
L 187.027546 236.438643 
L 184.969383 234.924557 
L 183.734486 233.410471 
L 181.88214 231.896385 
L 185.586832 230.382298 
L 181.676324 228.868212 
L 181.88214 227.354126 
L 176.736734 225.84004 
L 184.557751 224.325954 
L 176.530917 222.811868 
L 180.029794 221.297782 
L 179.206529 219.783696 
L 181.058875 218.26961 
L 174.678571 216.755524 
L 177.765815 215.241438 
L 174.266939 213.727352 
L 172.414592 212.213265 
L 174.472755 210.699179 
L 168.915716 209.185093 
L 174.061122 207.671007 
L 169.121533 206.156921 
L 169.944798 204.642835 
L 167.269186 203.128749 
L 166.857554 201.614663 
L 168.298268 200.100577 
L 159.859802 198.586491 
L 166.445921 197.072405 
L 154.302763 195.558319 
L 159.653985 194.044232 
L 156.360925 192.530146 
L 154.920212 191.01606 
L 147.099194 189.501974 
L 149.568989 187.987888 
L 144.629399 186.473802 
L 139.072361 184.959716 
L 128.1641 183.44563 
L 130.428078 181.931544 
L 123.018694 180.417458 
L 116.844206 178.903372 
L 103.46615 177.389286 
L 88.647381 175.875199 
L 79.179833 174.361113 
L 64.978512 172.847027 
L 82.267077 171.332941 
L 112.933698 169.818855 
L 118.696552 168.304769 
L 155.126028 166.790683 
L 186.82173 165.276597 
L 187.027546 163.762511 
L 192.172952 162.248425 
L 203.081213 160.734339 
L 206.991722 159.220253 
L 212.342944 157.706166 
L 211.519679 156.19208 
L 211.313863 154.677994 
L 212.137128 153.163908 
L 211.931312 151.649822 
L 212.137128 150.135736 
L 211.519679 148.62165 
L 211.725495 147.107564 
" style="fill:none;stroke:#e6a346;stroke-dasharray:5.55,2.4;stroke-dashoffset:0;stroke-width:1.5;"/>
   </g>
   <g id="line2d_13">
    <path clip-path="url(#p0e2f21e724)" d="M 211.043201 295.488 
L 211.043201 293.660661 
L 208.032081 291.833323 
L 203.180834 290.005984 
L 199.500577 288.178646 
L 191.136357 286.351307 
L 199.500577 284.523969 
L 198.329586 282.69663 
L 196.824026 280.869292 
L 195.82032 279.041953 
L 194.649329 277.214615 
L 194.649329 275.387276 
L 190.634504 273.559938 
L 190.801788 271.732599 
L 190.467219 269.905261 
L 190.467219 268.077922 
L 189.965366 266.250584 
L 193.14377 264.423245 
L 185.95054 262.595907 
L 190.13265 260.768568 
L 184.946834 258.94123 
L 182.772137 257.113891 
L 185.448687 255.286553 
L 180.932008 253.459214 
L 181.935715 251.631876 
L 183.441274 249.804537 
L 181.099293 247.977199 
L 180.262871 246.14986 
L 177.753604 244.322522 
L 181.433861 242.495183 
L 180.095586 240.667845 
L 180.764724 238.840506 
L 177.753604 237.013168 
L 183.775843 235.185829 
L 178.255458 233.358491 
L 179.761017 231.531152 
L 180.095586 229.703813 
L 177.753604 227.876475 
L 180.095586 226.049136 
L 177.084467 224.221798 
L 178.088173 222.394459 
L 179.593733 220.567121 
L 172.400504 218.739782 
L 177.419036 216.912444 
L 172.233219 215.085105 
L 175.411623 213.257767 
L 174.073348 211.430428 
L 170.72766 209.60309 
L 173.571494 207.775751 
L 166.545549 205.948413 
L 170.058522 204.121074 
L 164.538137 202.293736 
L 161.192449 200.466397 
L 157.177623 198.639059 
L 156.843054 196.81172 
L 161.192449 194.984382 
L 155.17021 193.157043 
L 157.010339 191.329705 
L 145.634999 189.502366 
L 143.460302 187.675028 
L 137.103495 185.847689 
L 132.7541 184.020351 
L 131.750394 182.193012 
L 138.609054 180.365674 
L 140.951036 178.538335 
L 142.122027 176.710997 
L 146.304137 174.883658 
L 156.508485 173.05632 
L 171.731366 171.228981 
L 172.902357 169.401643 
L 176.749898 167.574304 
L 176.415329 165.746965 
L 181.601146 163.919627 
L 186.954247 162.092288 
L 189.128944 160.26495 
L 201.50799 158.437611 
L 200.336999 156.610273 
L 201.50799 154.782934 
L 200.00243 152.955596 
L 202.344412 151.128257 
L 200.336999 149.300919 
L 202.344412 147.47358 
L 199.667861 145.646242 
L 201.842559 143.818903 
L 202.511696 141.991565 
L 203.682687 140.164226 
L 201.842559 138.336888 
L 203.013549 136.509549 
L 201.675274 134.682211 
L 207.864797 132.854872 
L 211.712338 131.027534 
L 212.046907 129.200195 
L 212.046907 127.372857 
L 211.37777 125.545518 
L 211.37777 123.71818 
L 211.879623 121.890841 
L 212.046907 120.063503 
L 211.879623 118.236164 
L 212.214192 116.408826 
" style="fill:none;stroke:#b45a28;stroke-dasharray:9.6,2.4,1.5,2.4;stroke-dashoffset:0;stroke-width:1.5;"/>
   </g>
   <g id="line2d_14">
    <path clip-path="url(#p0e2f21e724)" d="M 211.023047 295.488 
L 209.115906 293.019429 
L 205.301623 290.550857 
L 197.8002 288.082286 
L 193.095918 285.613714 
L 186.993066 283.145143 
L 187.120209 280.676571 
L 182.924498 278.208 
L 179.237358 275.739429 
L 170.083079 273.270857 
L 161.310229 270.802286 
L 160.038801 268.333714 
L 163.853084 265.865143 
L 168.30308 263.396571 
L 166.523082 260.928 
L 170.59165 258.459429 
L 169.19308 255.990857 
L 170.337364 253.522286 
L 170.083079 251.053714 
L 164.361655 248.585143 
L 161.437371 246.116571 
L 155.84309 243.648 
L 148.214524 241.179429 
L 112.233124 238.710857 
L 131.813108 236.242286 
L 175.168789 233.773714 
L 177.203073 231.305143 
L 182.415926 228.836571 
L 178.983072 226.368 
L 182.415926 223.899429 
L 183.560211 221.430857 
L 184.831639 218.962286 
L 183.433069 216.493714 
L 187.374494 214.025143 
L 185.975924 211.556571 
L 188.645922 209.088 
L 185.467353 206.619429 
L 186.484495 204.150857 
L 190.934491 201.682286 
L 187.374494 199.213714 
L 188.391636 196.745143 
L 192.078776 194.276571 
L 195.638773 191.808 
L 192.841633 189.339429 
L 194.367346 186.870857 
L 191.31592 184.402286 
L 193.095918 181.933714 
L 191.697348 179.465143 
L 193.350204 176.996571 
L 191.061634 174.528 
L 193.223061 172.059429 
L 188.773064 169.590857 
L 189.02735 167.122286 
L 186.230209 164.653714 
L 188.391636 162.185143 
L 185.213067 159.716571 
L 190.934491 157.248 
L 191.188777 154.779429 
L 191.697348 152.310857 
L 193.731632 149.842286 
L 192.205919 147.373714 
L 193.858775 144.905143 
L 198.6902 142.436571 
L 197.418772 139.968 
L 194.875917 137.499429 
L 198.817342 135.030857 
L 201.995911 132.562286 
L 202.504482 130.093714 
L 201.48734 127.625143 
L 202.37734 125.156571 
L 204.284481 122.688 
L 201.868769 120.219429 
L 202.631625 117.750857 
L 199.453056 115.282286 
L 202.758768 112.813714 
L 200.978769 110.345143 
L 205.17448 107.876571 
L 207.335907 105.408 
L 207.335907 102.939429 
L 206.827336 100.470857 
L 205.301623 98.002286 
L 207.208764 95.533714 
L 211.277333 93.065143 
L 211.913047 90.596571 
L 211.531618 88.128 
L 212.040189 85.659429 
L 211.785904 83.190857 
L 211.913047 80.722286 
L 211.913047 78.253714 
L 212.167332 75.785143 
L 211.785904 73.316571 
L 212.294475 70.848 
L 211.785904 68.379429 
L 212.294475 65.910857 
L 212.040189 63.442286 
L 211.785904 60.973714 
L 212.294475 58.505143 
L 211.785904 56.036571 
L 212.040189 53.568 
" style="fill:none;stroke:#7d1e0b;stroke-linecap:square;stroke-width:1.5;"/>
   </g>
   <g id="patch_3">
    <path d="M 57.6 307.584 
L 57.6 41.472 
" style="fill:none;stroke:#000000;stroke-linecap:square;stroke-linejoin:miter;stroke-width:0.8;"/>
   </g>
   <g id="patch_4">
    <path d="M 219.927273 307.584 
L 219.927273 41.472 
" style="fill:none;stroke:#000000;stroke-linecap:square;stroke-linejoin:miter;stroke-width:0.8;"/>
   </g>
   <g id="patch_5">
    <path d="M 57.6 307.584 
L 219.927273 307.584 
" style="fill:none;stroke:#000000;stroke-linecap:square;stroke-linejoin:miter;stroke-width:0.8;"/>
   </g>
   <g id="patch_6">
    <path d="M 57.6 41.472 
L 219.927273 41.472 
" style="fill:none;stroke:#000000;stroke-linecap:square;stroke-linejoin:miter;stroke-width:0.8;"/>
   </g>
  </g>
  <g id="axes_2">
   <g id="patch_7">
    <path d="M 252.392727 307.584 
L 414.72 307.584 
L 414.72 41.472 
L 252.392727 41.472 
z
" style="fill:#ffffff;"/>
   </g>
   <g id="matplotlib.axis_3">
    <g id="xtick_5">
     <g id="line2d_15">
      <g>
       <use style="stroke:#000000;stroke-width:0.8;" x="259.77124" xlink:href="#m2c174b5380" y="307.584"/>
      </g>
     </g>
     <g id="text_12">
      <!-- 0.0 -->
      <g transform="translate(247.843896 325.981656)scale(0.15 -0.15)">
       <use xlink:href="#DejaVuSans-48"/>
       <use x="63.623047" xlink:href="#DejaVuSans-46"/>
       <use x="95.410156" xlink:href="#DejaVuSans-48"/>
      </g>
     </g>
    </g>
    <g id="xtick_6">
     <g id="line2d_16">
      <g>
       <use style="stroke:#000000;stroke-width:0.8;" x="333.556364" xlink:href="#m2c174b5380" y="307.584"/>
      </g>
     </g>
     <g id="text_13">
      <!-- 0.5 -->
      <g transform="translate(321.62902 325.981656)scale(0.15 -0.15)">
       <use xlink:href="#DejaVuSans-48"/>
       <use x="63.623047" xlink:href="#DejaVuSans-46"/>
       <use x="95.410156" xlink:href="#DejaVuSans-53"/>
      </g>
     </g>
    </g>
    <g id="xtick_7">
     <g id="line2d_17">
      <g>
       <use style="stroke:#000000;stroke-width:0.8;" x="407.341488" xlink:href="#m2c174b5380" y="307.584"/>
      </g>
     </g>
     <g id="text_14">
      <!-- 1.0 -->
      <g transform="translate(395.414144 325.981656)scale(0.15 -0.15)">
       <use xlink:href="#DejaVuSans-49"/>
       <use x="63.623047" xlink:href="#DejaVuSans-46"/>
       <use x="95.410156" xlink:href="#DejaVuSans-48"/>
      </g>
     </g>
    </g>
    <g id="text_15">
     <!-- CDF -->
     <defs>
      <path d="M 64.40625 67.28125 
L 64.40625 56.890625 
Q 59.421875 61.53125 53.78125 63.8125 
Q 48.140625 66.109375 41.796875 66.109375 
Q 29.296875 66.109375 22.65625 58.46875 
Q 16.015625 50.828125 16.015625 36.375 
Q 16.015625 21.96875 22.65625 14.328125 
Q 29.296875 6.6875 41.796875 6.6875 
Q 48.140625 6.6875 53.78125 8.984375 
Q 59.421875 11.28125 64.40625 15.921875 
L 64.40625 5.609375 
Q 59.234375 2.09375 53.4375 0.328125 
Q 47.65625 -1.421875 41.21875 -1.421875 
Q 24.65625 -1.421875 15.125 8.703125 
Q 5.609375 18.84375 5.609375 36.375 
Q 5.609375 53.953125 15.125 64.078125 
Q 24.65625 74.21875 41.21875 74.21875 
Q 47.75 74.21875 53.53125 72.484375 
Q 59.328125 70.75 64.40625 67.28125 
z
" id="DejaVuSans-67"/>
     </defs>
     <g transform="translate(316.187145 346.018531)scale(0.17 -0.17)">
      <use xlink:href="#DejaVuSans-67"/>
      <use x="69.824219" xlink:href="#DejaVuSans-68"/>
      <use x="146.826172" xlink:href="#DejaVuSans-70"/>
     </g>
    </g>
   </g>
   <g id="matplotlib.axis_4"/>
   <g id="line2d_18">
    <path clip-path="url(#pa784d00a9c)" d="M 262.193913 295.488 
L 264.553986 293.852168 
L 267.214545 292.216336 
L 270.069168 290.580505 
L 273.099075 288.944673 
L 275.809715 287.308841 
L 278.138486 285.673009 
L 280.511079 284.037177 
L 282.576925 282.401346 
L 284.423666 280.765514 
L 286.214065 279.129682 
L 288.073326 277.49385 
L 289.938848 275.858019 
L 291.735508 274.222187 
L 293.525907 272.586355 
L 295.222405 270.950523 
L 296.687277 269.314691 
L 297.945565 267.67886 
L 299.372877 266.043028 
L 300.649945 264.407196 
L 301.970834 262.771364 
L 303.279203 261.135532 
L 304.47489 259.499701 
L 305.902201 257.863869 
L 307.154229 256.228037 
L 308.53772 254.592205 
L 309.996332 252.956373 
L 311.536326 251.320542 
L 313.370547 249.68471 
L 315.248588 248.048878 
L 317.320694 246.413046 
L 319.442881 244.777214 
L 321.784173 243.141383 
L 324.419691 241.505551 
L 326.986348 239.869719 
L 329.490404 238.233887 
L 331.543729 236.598056 
L 333.503152 234.962224 
L 335.606559 233.326392 
L 337.578503 231.69056 
L 339.969876 230.054728 
L 342.248566 228.418897 
L 344.264331 226.783065 
L 346.286356 225.147233 
L 348.252039 223.511401 
L 350.242763 221.875569 
L 352.327389 220.239738 
L 354.468357 218.603906 
L 356.42778 216.968074 
L 358.149318 215.332242 
L 360.008579 213.69641 
L 361.86158 212.060579 
L 363.695801 210.424747 
L 365.636444 208.788915 
L 367.645949 207.153083 
L 369.50521 205.517251 
L 371.420812 203.88142 
L 373.56804 202.245588 
L 375.602585 200.609756 
L 377.793633 198.973924 
L 379.696715 197.338093 
L 381.28053 195.702261 
L 382.901906 194.066429 
L 384.479461 192.430597 
L 386.100837 190.794765 
L 387.59075 189.158934 
L 389.068143 187.523102 
L 390.526755 185.88727 
L 391.960327 184.251438 
L 393.350078 182.615606 
L 394.708528 180.979775 
L 396.054458 179.343943 
L 397.162502 177.708111 
L 398.232986 176.072279 
L 399.153226 174.436447 
L 400.079727 172.800616 
L 400.881025 171.164784 
L 401.413136 169.528952 
L 402.151833 167.89312 
L 402.809147 166.257288 
L 403.247357 164.621457 
L 403.666786 162.985625 
L 404.098736 161.349793 
L 404.493125 159.713961 
L 404.900034 158.07813 
L 405.338243 156.442298 
L 405.688811 154.806466 
L 405.957997 153.170634 
L 406.07694 151.534802 
L 406.277264 149.898971 
L 406.433768 148.263139 
L 406.55271 146.627307 
L 406.709214 144.991475 
L 406.828156 143.355643 
L 406.953359 141.719812 
L 407.072302 140.08398 
L 407.178724 138.448148 
L 407.272626 136.812316 
L 407.341488 135.176484 
" style="fill:none;stroke:#5a0003;stroke-linecap:square;stroke-width:3;"/>
   </g>
   <g id="line2d_19">
    <path clip-path="url(#pa784d00a9c)" d="M 259.77124 295.488 
L 259.806255 294.119593 
L 259.806255 292.751186 
L 259.806255 291.382779 
L 259.823762 290.014372 
L 259.867531 288.645965 
L 259.902546 287.277558 
L 259.928807 285.909151 
L 259.981329 284.540744 
L 260.095127 283.172337 
L 260.200172 281.80393 
L 260.31397 280.435523 
L 260.532813 279.067116 
L 260.734149 277.698709 
L 261.066791 276.330302 
L 261.338156 274.961894 
L 261.793349 273.593487 
L 262.134745 272.22508 
L 262.528662 270.856673 
L 263.071393 269.488266 
L 263.710415 268.119859 
L 264.279407 266.751452 
L 265.067242 265.383045 
L 265.793801 264.014638 
L 266.75671 262.646231 
L 267.912201 261.277824 
L 269.006417 259.909417 
L 270.196923 258.54101 
L 271.334907 257.172603 
L 272.437876 255.804196 
L 273.628382 254.435789 
L 274.722597 253.067382 
L 275.851827 251.698975 
L 276.954796 250.330568 
L 278.136549 248.962161 
L 279.108212 247.593754 
L 280.447531 246.225347 
L 281.38418 244.85694 
L 282.58344 243.488533 
L 283.50258 242.120126 
L 284.46549 240.751719 
L 285.682257 239.383312 
L 286.776472 238.014905 
L 287.783151 236.646498 
L 288.912381 235.278091 
L 290.024103 233.909683 
L 291.179595 232.541276 
L 292.282564 231.172869 
L 293.394286 229.804462 
L 294.470994 228.436055 
L 295.766545 227.067648 
L 297.053342 225.699241 
L 298.261356 224.330834 
L 299.416847 222.962427 
L 300.738659 221.59402 
L 302.077979 220.225613 
L 303.417298 218.857206 
L 304.852909 217.488799 
L 306.104691 216.120392 
L 307.531548 214.751985 
L 309.203509 213.383578 
L 310.796686 212.015171 
L 312.17102 210.646764 
L 313.895504 209.278357 
L 315.506189 207.90995 
L 316.941799 206.541543 
L 318.745066 205.173136 
L 320.548333 203.804729 
L 322.264062 202.436322 
L 324.216142 201.067915 
L 325.940625 199.699508 
L 327.953981 198.331101 
L 329.853539 196.962694 
L 332.217044 195.594287 
L 334.274169 194.225879 
L 336.576398 192.857472 
L 338.852366 191.489065 
L 341.233378 190.120658 
L 343.885756 188.752251 
L 346.616917 187.383844 
L 349.479384 186.015437 
L 352.744523 184.64703 
L 356.42984 183.278623 
L 359.791269 181.910216 
L 363.41531 180.541809 
L 367.205672 179.173402 
L 371.416212 177.804995 
L 376.370819 176.436588 
L 381.623052 175.068181 
L 386.962822 173.699774 
L 390.901997 172.331367 
L 394.526038 170.96296 
L 398.412691 169.594553 
L 401.651568 168.226146 
L 404.163886 166.857739 
L 405.118042 165.489332 
L 406.002168 164.120925 
L 406.895048 162.752518 
L 407.341488 161.384111 
" style="fill:none;stroke:#ffcc7b;stroke-dasharray:1.5,2.475;stroke-dashoffset:0;stroke-width:1.5;"/>
   </g>
   <g id="line2d_20">
    <path clip-path="url(#pa784d00a9c)" d="M 259.788773 295.488 
L 259.841373 293.973914 
L 259.867674 292.459828 
L 259.920274 290.945742 
L 259.999174 289.431656 
L 260.113142 287.91757 
L 260.183276 286.403484 
L 260.218343 284.889397 
L 260.314776 283.375311 
L 260.481344 281.861225 
L 260.647912 280.347139 
L 260.832013 278.833053 
L 261.095015 277.318967 
L 261.410617 275.804881 
L 261.787586 274.290795 
L 262.225922 272.776709 
L 262.664258 271.262623 
L 263.128895 269.748537 
L 263.733798 268.234451 
L 264.566637 266.720364 
L 265.373176 265.206278 
L 266.337515 263.692192 
L 267.380755 262.178106 
L 268.529196 260.66402 
L 269.852971 259.149934 
L 271.176746 257.635848 
L 272.544355 256.121762 
L 273.76293 254.607676 
L 274.981504 253.09359 
L 276.094878 251.579504 
L 277.383586 250.065418 
L 278.567094 248.551331 
L 279.794435 247.037245 
L 281.074377 245.523159 
L 282.18775 244.009073 
L 283.388791 242.494987 
L 284.502165 240.980901 
L 285.729506 239.466815 
L 287.070815 237.952729 
L 288.157889 236.438643 
L 289.33263 234.924557 
L 290.559971 233.410471 
L 291.866213 231.896385 
L 293.014653 230.382298 
L 294.329662 228.868212 
L 295.635903 227.354126 
L 297.161313 225.84004 
L 298.353588 224.325954 
L 299.887764 222.811868 
L 301.272906 221.297782 
L 302.693115 219.783696 
L 304.034424 218.26961 
L 305.647501 216.755524 
L 307.129077 215.241438 
L 308.759688 213.727352 
L 310.469199 212.213265 
L 312.091042 210.699179 
L 313.949588 209.185093 
L 315.588965 207.671007 
L 317.438743 206.156921 
L 319.253455 204.642835 
L 321.182134 203.128749 
L 323.128347 201.614663 
L 325.013192 200.100577 
L 327.257473 198.586491 
L 329.221219 197.072405 
L 331.702202 195.558319 
L 333.95525 194.044232 
L 336.348565 192.530146 
L 338.803247 191.01606 
L 341.591065 189.501974 
L 344.273682 187.987888 
L 347.166701 186.473802 
L 350.296421 184.959716 
L 353.890778 183.44563 
L 357.3887 181.931544 
L 361.202225 180.417458 
L 365.278751 178.903372 
L 369.925114 177.389286 
L 375.202681 175.875199 
L 380.883518 174.361113 
L 387.169258 172.847027 
L 392.718594 171.332941 
L 396.961688 169.818855 
L 400.959313 168.304769 
L 403.405229 166.790683 
L 404.501069 165.276597 
L 405.588143 163.762511 
L 406.456049 162.248425 
L 406.859318 160.734339 
L 407.096019 159.220253 
L 407.104786 157.706166 
L 407.14862 156.19208 
L 407.20122 154.677994 
L 407.218753 153.163908 
L 407.245054 151.649822 
L 407.262587 150.135736 
L 407.306421 148.62165 
L 407.341488 147.107564 
" style="fill:none;stroke:#e6a346;stroke-dasharray:5.55,2.4;stroke-dashoffset:0;stroke-width:1.5;"/>
   </g>
   <g id="line2d_21">
    <path clip-path="url(#pa784d00a9c)" d="M 259.848637 295.488 
L 259.926034 293.660661 
L 260.158225 291.833323 
L 260.639806 290.005984 
L 261.31058 288.178646 
L 262.411337 286.351307 
L 263.082111 284.523969 
L 263.813082 282.69663 
L 264.621451 280.869292 
L 265.481417 279.041953 
L 266.401581 277.214615 
L 267.321745 275.387276 
L 268.448301 273.559938 
L 269.566258 271.732599 
L 270.701414 269.905261 
L 271.836569 268.077922 
L 272.997524 266.250584 
L 273.995085 264.423245 
L 275.362432 262.595907 
L 276.514787 260.768568 
L 277.933732 258.94123 
L 279.464472 257.113891 
L 280.857618 255.286553 
L 282.482954 253.459214 
L 284.056693 251.631876 
L 285.553035 249.804537 
L 287.169772 247.977199 
L 288.829507 246.14986 
L 290.618237 244.322522 
L 292.217775 242.495183 
L 293.88611 240.667845 
L 295.520046 238.840506 
L 297.308777 237.013168 
L 298.787919 235.185829 
L 300.55085 233.358491 
L 302.236384 231.531152 
L 303.904719 229.703813 
L 305.69345 227.876475 
L 307.361785 226.049136 
L 309.184914 224.221798 
L 310.956445 222.394459 
L 312.650579 220.567121 
L 314.714498 218.739782 
L 316.520428 216.912444 
L 318.592947 215.085105 
L 320.502072 213.257767 
L 322.479995 211.430428 
L 324.629912 209.60309 
L 326.633633 207.775751 
L 328.998541 205.948413 
L 331.182856 204.121074 
L 333.65096 202.293736 
L 336.291057 200.466397 
L 339.137546 198.639059 
L 342.001234 196.81172 
L 344.641332 194.984382 
L 347.591017 193.157043 
L 350.446105 191.329705 
L 353.885971 189.502366 
L 357.437633 187.675028 
L 361.316082 185.847689 
L 365.418122 184.020351 
L 369.57176 182.193012 
L 373.372812 180.365674 
L 377.053468 178.538335 
L 380.673927 176.710997 
L 384.079394 174.883658 
L 386.960282 173.05632 
L 389.0586 171.228981 
L 391.096721 169.401643 
L 392.937049 167.574304 
L 394.794577 165.746965 
L 396.385515 163.919627 
L 397.701263 162.092288 
L 398.905216 160.26495 
L 399.472794 158.437611 
L 400.10057 156.610273 
L 400.668148 154.782934 
L 401.313123 152.955596 
L 401.837702 151.128257 
L 402.465478 149.300919 
L 402.990057 147.47358 
L 403.652231 145.646242 
L 404.20261 143.818903 
L 404.71859 141.991565 
L 405.174372 140.164226 
L 405.724751 138.336888 
L 406.214932 136.509549 
L 406.77391 134.682211 
L 407.0147 132.854872 
L 407.057699 131.027534 
L 407.083498 129.200195 
L 407.109297 127.372857 
L 407.169494 125.545518 
L 407.229692 123.71818 
L 407.264091 121.890841 
L 407.28989 120.063503 
L 407.324288 118.236164 
L 407.341488 116.408826 
" style="fill:none;stroke:#b45a28;stroke-dasharray:9.6,2.4,1.5,2.4;stroke-dashoffset:0;stroke-width:1.5;"/>
   </g>
   <g id="line2d_22">
    <path clip-path="url(#pa784d00a9c)" d="M 259.877196 295.488 
L 260.115597 293.019429 
L 260.618888 290.550857 
L 261.643129 288.082286 
L 262.994069 285.613714 
L 264.768832 283.145143 
L 266.534766 280.676571 
L 268.592078 278.208 
L 270.905452 275.739429 
L 273.854561 273.270857 
L 277.412917 270.802286 
L 281.05957 268.333714 
L 284.441333 265.865143 
L 287.514058 263.396571 
L 290.710398 260.928 
L 293.624188 258.459429 
L 296.635105 255.990857 
L 299.566555 253.522286 
L 302.515664 251.053714 
L 305.862109 248.585143 
L 309.411635 246.116571 
L 313.349668 243.648 
L 317.81748 241.179429 
L 324.784088 238.710857 
L 330.390928 236.242286 
L 332.98685 233.773714 
L 335.441498 231.305143 
L 337.534129 228.836571 
L 339.865162 226.368 
L 341.957793 223.899429 
L 343.970958 221.430857 
L 345.895825 218.962286 
L 347.917819 216.493714 
L 349.666094 214.025143 
L 351.511494 211.556571 
L 353.171472 209.088 
L 355.052191 206.619429 
L 356.862273 204.150857 
L 358.363317 201.682286 
L 360.111591 199.213714 
L 361.789228 196.745143 
L 363.210805 194.276571 
L 364.385151 191.808 
L 365.753749 189.339429 
L 367.016392 186.870857 
L 368.490947 184.402286 
L 369.841886 181.933714 
L 371.289952 179.465143 
L 372.623231 176.996571 
L 374.115445 174.528 
L 375.457555 172.059429 
L 377.108703 169.590857 
L 378.742192 167.122286 
L 380.569933 164.653714 
L 382.24757 162.185143 
L 384.145949 159.716571 
L 385.646992 157.248 
L 387.130377 154.779429 
L 388.578442 152.310857 
L 389.885233 149.842286 
L 391.29798 147.373714 
L 392.595941 144.905143 
L 393.558375 142.436571 
L 394.609106 139.968 
L 395.83643 137.499429 
L 396.790034 135.030857 
L 397.522896 132.562286 
L 398.22044 130.093714 
L 398.988621 127.625143 
L 399.694995 125.156571 
L 400.268923 122.688 
L 401.010615 120.219429 
L 401.699329 117.750857 
L 402.608785 115.282286 
L 403.28867 112.813714 
L 404.09217 110.345143 
L 404.60429 107.876571 
L 404.966307 105.408 
L 405.328323 102.939429 
L 405.725658 100.470857 
L 406.228949 98.002286 
L 406.599795 95.533714 
L 406.688092 93.065143 
L 406.73224 90.596571 
L 406.802878 88.128 
L 406.838197 85.659429 
L 406.891175 83.190857 
L 406.935323 80.722286 
L 406.979471 78.253714 
L 407.00596 75.785143 
L 407.058938 73.316571 
L 407.076598 70.848 
L 407.129576 68.379429 
L 407.147235 65.910857 
L 407.182554 63.442286 
L 407.235532 60.973714 
L 407.253191 58.505143 
L 407.306169 56.036571 
L 407.341488 53.568 
" style="fill:none;stroke:#7d1e0b;stroke-linecap:square;stroke-width:1.5;"/>
   </g>
   <g id="patch_8">
    <path d="M 252.392727 307.584 
L 252.392727 41.472 
" style="fill:none;stroke:#000000;stroke-linecap:square;stroke-linejoin:miter;stroke-width:0.8;"/>
   </g>
   <g id="patch_9">
    <path d="M 414.72 307.584 
L 414.72 41.472 
" style="fill:none;stroke:#000000;stroke-linecap:square;stroke-linejoin:miter;stroke-width:0.8;"/>
   </g>
   <g id="patch_10">
    <path d="M 252.392727 307.584 
L 414.72 307.584 
" style="fill:none;stroke:#000000;stroke-linecap:square;stroke-linejoin:miter;stroke-width:0.8;"/>
   </g>
   <g id="patch_11">
    <path d="M 252.392727 41.472 
L 414.72 41.472 
" style="fill:none;stroke:#000000;stroke-linecap:square;stroke-linejoin:miter;stroke-width:0.8;"/>
   </g>
   <g id="legend_1">
    <g id="patch_12">
     <path d="M 261.492727 126.479813 
L 345.81804 126.479813 
Q 348.41804 126.479813 348.41804 123.879813 
L 348.41804 50.572 
Q 348.41804 47.972 345.81804 47.972 
L 261.492727 47.972 
Q 258.892727 47.972 258.892727 50.572 
L 258.892727 123.879813 
Q 258.892727 126.479813 261.492727 126.479813 
z
" style="fill:#ffffff;opacity:0.8;stroke:#cccccc;stroke-linejoin:miter;"/>
    </g>
    <g id="line2d_23">
     <path d="M 264.092727 58.499969 
L 290.092727 58.499969 
" style="fill:none;stroke:#5a0003;stroke-linecap:square;stroke-width:3;"/>
    </g>
    <g id="line2d_24"/>
    <g id="text_16">
     <!-- TS -->
     <defs>
      <path d="M -0.296875 72.90625 
L 61.375 72.90625 
L 61.375 64.59375 
L 35.5 64.59375 
L 35.5 0 
L 25.59375 0 
L 25.59375 64.59375 
L -0.296875 64.59375 
z
" id="DejaVuSans-84"/>
      <path d="M 53.515625 70.515625 
L 53.515625 60.890625 
Q 47.90625 63.578125 42.921875 64.890625 
Q 37.9375 66.21875 33.296875 66.21875 
Q 25.25 66.21875 20.875 63.09375 
Q 16.5 59.96875 16.5 54.203125 
Q 16.5 49.359375 19.40625 46.890625 
Q 22.3125 44.4375 30.421875 42.921875 
L 36.375 41.703125 
Q 47.40625 39.59375 52.65625 34.296875 
Q 57.90625 29 57.90625 20.125 
Q 57.90625 9.515625 50.796875 4.046875 
Q 43.703125 -1.421875 29.984375 -1.421875 
Q 24.8125 -1.421875 18.96875 -0.25 
Q 13.140625 0.921875 6.890625 3.21875 
L 6.890625 13.375 
Q 12.890625 10.015625 18.65625 8.296875 
Q 24.421875 6.59375 29.984375 6.59375 
Q 38.421875 6.59375 43.015625 9.90625 
Q 47.609375 13.234375 47.609375 19.390625 
Q 47.609375 24.75 44.3125 27.78125 
Q 41.015625 30.8125 33.5 32.328125 
L 27.484375 33.5 
Q 16.453125 35.6875 11.515625 40.375 
Q 6.59375 45.0625 6.59375 53.421875 
Q 6.59375 63.09375 13.40625 68.65625 
Q 20.21875 74.21875 32.171875 74.21875 
Q 37.3125 74.21875 42.625 73.28125 
Q 47.953125 72.359375 53.515625 70.515625 
z
" id="DejaVuSans-83"/>
     </defs>
     <g transform="translate(300.492727 63.049969)scale(0.13 -0.13)">
      <use xlink:href="#DejaVuSans-84"/>
      <use x="61.083984" xlink:href="#DejaVuSans-83"/>
     </g>
    </g>
    <g id="line2d_25">
     <path d="M 264.092727 72.381531 
L 290.092727 72.381531 
" style="fill:none;stroke:#ffcc7b;stroke-dasharray:1.5,2.475;stroke-dashoffset:0;stroke-width:1.5;"/>
    </g>
    <g id="line2d_26"/>
    <g id="text_17">
     <!-- RB, n0 -->
     <defs>
      <path d="M 44.390625 34.1875 
Q 47.5625 33.109375 50.5625 29.59375 
Q 53.5625 26.078125 56.59375 19.921875 
L 66.609375 0 
L 56 0 
L 46.6875 18.703125 
Q 43.0625 26.03125 39.671875 28.421875 
Q 36.28125 30.8125 30.421875 30.8125 
L 19.671875 30.8125 
L 19.671875 0 
L 9.8125 0 
L 9.8125 72.90625 
L 32.078125 72.90625 
Q 44.578125 72.90625 50.734375 67.671875 
Q 56.890625 62.453125 56.890625 51.90625 
Q 56.890625 45.015625 53.6875 40.46875 
Q 50.484375 35.9375 44.390625 34.1875 
z
M 19.671875 64.796875 
L 19.671875 38.921875 
L 32.078125 38.921875 
Q 39.203125 38.921875 42.84375 42.21875 
Q 46.484375 45.515625 46.484375 51.90625 
Q 46.484375 58.296875 42.84375 61.546875 
Q 39.203125 64.796875 32.078125 64.796875 
z
" id="DejaVuSans-82"/>
      <path d="M 19.671875 34.8125 
L 19.671875 8.109375 
L 35.5 8.109375 
Q 43.453125 8.109375 47.28125 11.40625 
Q 51.125 14.703125 51.125 21.484375 
Q 51.125 28.328125 47.28125 31.5625 
Q 43.453125 34.8125 35.5 34.8125 
z
M 19.671875 64.796875 
L 19.671875 42.828125 
L 34.28125 42.828125 
Q 41.5 42.828125 45.03125 45.53125 
Q 48.578125 48.25 48.578125 53.8125 
Q 48.578125 59.328125 45.03125 62.0625 
Q 41.5 64.796875 34.28125 64.796875 
z
M 9.8125 72.90625 
L 35.015625 72.90625 
Q 46.296875 72.90625 52.390625 68.21875 
Q 58.5 63.53125 58.5 54.890625 
Q 58.5 48.1875 55.375 44.234375 
Q 52.25 40.28125 46.1875 39.3125 
Q 53.46875 37.75 57.5 32.78125 
Q 61.53125 27.828125 61.53125 20.40625 
Q 61.53125 10.640625 54.890625 5.3125 
Q 48.25 0 35.984375 0 
L 9.8125 0 
z
" id="DejaVuSans-66"/>
      <path d="M 11.71875 12.40625 
L 22.015625 12.40625 
L 22.015625 4 
L 14.015625 -11.625 
L 7.71875 -11.625 
L 11.71875 4 
z
" id="DejaVuSans-44"/>
      <path d="M 54.890625 33.015625 
L 54.890625 0 
L 45.90625 0 
L 45.90625 32.71875 
Q 45.90625 40.484375 42.875 44.328125 
Q 39.84375 48.1875 33.796875 48.1875 
Q 26.515625 48.1875 22.3125 43.546875 
Q 18.109375 38.921875 18.109375 30.90625 
L 18.109375 0 
L 9.078125 0 
L 9.078125 54.6875 
L 18.109375 54.6875 
L 18.109375 46.1875 
Q 21.34375 51.125 25.703125 53.5625 
Q 30.078125 56 35.796875 56 
Q 45.21875 56 50.046875 50.171875 
Q 54.890625 44.34375 54.890625 33.015625 
z
" id="DejaVuSans-110"/>
     </defs>
     <g transform="translate(300.492727 76.931531)scale(0.13 -0.13)">
      <use xlink:href="#DejaVuSans-82"/>
      <use x="69.482422" xlink:href="#DejaVuSans-66"/>
      <use x="138.085938" xlink:href="#DejaVuSans-44"/>
      <use x="169.873047" xlink:href="#DejaVuSans-32"/>
      <use x="201.660156" xlink:href="#DejaVuSans-110"/>
      <use x="265.039062" xlink:href="#DejaVuSans-48"/>
     </g>
    </g>
    <g id="line2d_27">
     <path d="M 264.092727 86.263094 
L 290.092727 86.263094 
" style="fill:none;stroke:#e6a346;stroke-dasharray:5.55,2.4;stroke-dashoffset:0;stroke-width:1.5;"/>
    </g>
    <g id="line2d_28"/>
    <g id="text_18">
     <!-- RB, s0 -->
     <g transform="translate(300.492727 90.813094)scale(0.13 -0.13)">
      <use xlink:href="#DejaVuSans-82"/>
      <use x="69.482422" xlink:href="#DejaVuSans-66"/>
      <use x="138.085938" xlink:href="#DejaVuSans-44"/>
      <use x="169.873047" xlink:href="#DejaVuSans-32"/>
      <use x="201.660156" xlink:href="#DejaVuSans-115"/>
      <use x="253.759766" xlink:href="#DejaVuSans-48"/>
     </g>
    </g>
    <g id="line2d_29">
     <path d="M 264.092727 100.144656 
L 290.092727 100.144656 
" style="fill:none;stroke:#b45a28;stroke-dasharray:9.6,2.4,1.5,2.4;stroke-dashoffset:0;stroke-width:1.5;"/>
    </g>
    <g id="line2d_30"/>
    <g id="text_19">
     <!-- RB, s1 -->
     <g transform="translate(300.492727 104.694656)scale(0.13 -0.13)">
      <use xlink:href="#DejaVuSans-82"/>
      <use x="69.482422" xlink:href="#DejaVuSans-66"/>
      <use x="138.085938" xlink:href="#DejaVuSans-44"/>
      <use x="169.873047" xlink:href="#DejaVuSans-32"/>
      <use x="201.660156" xlink:href="#DejaVuSans-115"/>
      <use x="253.759766" xlink:href="#DejaVuSans-49"/>
     </g>
    </g>
    <g id="line2d_31">
     <path d="M 264.092727 114.026219 
L 290.092727 114.026219 
" style="fill:none;stroke:#7d1e0b;stroke-linecap:square;stroke-width:1.5;"/>
    </g>
    <g id="line2d_32"/>
    <g id="text_20">
     <!-- RB, s2 -->
     <g transform="translate(300.492727 118.576219)scale(0.13 -0.13)">
      <use xlink:href="#DejaVuSans-82"/>
      <use x="69.482422" xlink:href="#DejaVuSans-66"/>
      <use x="138.085938" xlink:href="#DejaVuSans-44"/>
      <use x="169.873047" xlink:href="#DejaVuSans-32"/>
      <use x="201.660156" xlink:href="#DejaVuSans-115"/>
      <use x="253.759766" xlink:href="#DejaVuSans-50"/>
     </g>
    </g>
   </g>
  </g>
 </g>
 <defs>
  <clipPath id="p0e2f21e724">
   <rect height="266.112" width="162.327273" x="57.6" y="41.472"/>
  </clipPath>
  <clipPath id="pa784d00a9c">
   <rect height="266.112" width="162.327273" x="252.392727" y="41.472"/>
  </clipPath>
 </defs>
</svg>
