<?xml version="1.0" encoding="utf-8" standalone="no"?>
<!DOCTYPE svg PUBLIC "-//W3C//DTD SVG 1.1//EN"
  "http://www.w3.org/Graphics/SVG/1.1/DTD/svg11.dtd">
<!-- Created with matplotlib (https://matplotlib.org/) -->
<svg height="345.6pt" version="1.1" viewBox="0 0 460.8 345.6" width="460.8pt" xmlns="http://www.w3.org/2000/svg" xmlns:xlink="http://www.w3.org/1999/xlink">
 <defs>
  <style type="text/css">
*{stroke-linecap:butt;stroke-linejoin:round;}
  </style>
 </defs>
 <g id="figure_1">
  <g id="patch_1">
   <path d="M 0 345.6 
L 460.8 345.6 
L 460.8 0 
L 0 0 
z
" style="fill:#ffffff;"/>
  </g>
  <g id="axes_1">
   <g id="patch_2">
    <path d="M 57.6 307.584 
L 219.927273 307.584 
L 219.927273 41.472 
L 57.6 41.472 
z
" style="fill:#ffffff;"/>
   </g>
   <g id="matplotlib.axis_1">
    <g id="xtick_1">
     <g id="line2d_1">
      <defs>
       <path d="M 0 0 
L 0 3.5 
" id="mcb136577c7" style="stroke:#000000;stroke-width:0.8;"/>
      </defs>
      <g>
       <use style="stroke:#000000;stroke-width:0.8;" x="212.54876" xlink:href="#mcb136577c7" y="307.584"/>
      </g>
     </g>
     <g id="text_1">
      <!-- 0.0 -->
      <defs>
       <path d="M 31.78125 66.40625 
Q 24.171875 66.40625 20.328125 58.90625 
Q 16.5 51.421875 16.5 36.375 
Q 16.5 21.390625 20.328125 13.890625 
Q 24.171875 6.390625 31.78125 6.390625 
Q 39.453125 6.390625 43.28125 13.890625 
Q 47.125 21.390625 47.125 36.375 
Q 47.125 51.421875 43.28125 58.90625 
Q 39.453125 66.40625 31.78125 66.40625 
z
M 31.78125 74.21875 
Q 44.046875 74.21875 50.515625 64.515625 
Q 56.984375 54.828125 56.984375 36.375 
Q 56.984375 17.96875 50.515625 8.265625 
Q 44.046875 -1.421875 31.78125 -1.421875 
Q 19.53125 -1.421875 13.0625 8.265625 
Q 6.59375 17.96875 6.59375 36.375 
Q 6.59375 54.828125 13.0625 64.515625 
Q 19.53125 74.21875 31.78125 74.21875 
z
" id="DejaVuSans-48"/>
       <path d="M 10.6875 12.40625 
L 21 12.40625 
L 21 0 
L 10.6875 0 
z
" id="DejaVuSans-46"/>
      </defs>
      <g transform="translate(200.621417 325.981656)scale(0.15 -0.15)">
       <use xlink:href="#DejaVuSans-48"/>
       <use x="63.623047" xlink:href="#DejaVuSans-46"/>
       <use x="95.410156" xlink:href="#DejaVuSans-48"/>
      </g>
     </g>
    </g>
    <g id="xtick_2">
     <g id="line2d_2">
      <g>
       <use style="stroke:#000000;stroke-width:0.8;" x="177.249208" xlink:href="#mcb136577c7" y="307.584"/>
      </g>
     </g>
     <g id="text_2">
      <!-- 0.1 -->
      <defs>
       <path d="M 12.40625 8.296875 
L 28.515625 8.296875 
L 28.515625 63.921875 
L 10.984375 60.40625 
L 10.984375 69.390625 
L 28.421875 72.90625 
L 38.28125 72.90625 
L 38.28125 8.296875 
L 54.390625 8.296875 
L 54.390625 0 
L 12.40625 0 
z
" id="DejaVuSans-49"/>
      </defs>
      <g transform="translate(165.321865 325.981656)scale(0.15 -0.15)">
       <use xlink:href="#DejaVuSans-48"/>
       <use x="63.623047" xlink:href="#DejaVuSans-46"/>
       <use x="95.410156" xlink:href="#DejaVuSans-49"/>
      </g>
     </g>
    </g>
    <g id="xtick_3">
     <g id="line2d_3">
      <g>
       <use style="stroke:#000000;stroke-width:0.8;" x="141.949656" xlink:href="#mcb136577c7" y="307.584"/>
      </g>
     </g>
     <g id="text_3">
      <!-- 0.2 -->
      <defs>
       <path d="M 19.1875 8.296875 
L 53.609375 8.296875 
L 53.609375 0 
L 7.328125 0 
L 7.328125 8.296875 
Q 12.9375 14.109375 22.625 23.890625 
Q 32.328125 33.6875 34.8125 36.53125 
Q 39.546875 41.84375 41.421875 45.53125 
Q 43.3125 49.21875 43.3125 52.78125 
Q 43.3125 58.59375 39.234375 62.25 
Q 35.15625 65.921875 28.609375 65.921875 
Q 23.96875 65.921875 18.8125 64.3125 
Q 13.671875 62.703125 7.8125 59.421875 
L 7.8125 69.390625 
Q 13.765625 71.78125 18.9375 73 
Q 24.125 74.21875 28.421875 74.21875 
Q 39.75 74.21875 46.484375 68.546875 
Q 53.21875 62.890625 53.21875 53.421875 
Q 53.21875 48.921875 51.53125 44.890625 
Q 49.859375 40.875 45.40625 35.40625 
Q 44.1875 33.984375 37.640625 27.21875 
Q 31.109375 20.453125 19.1875 8.296875 
z
" id="DejaVuSans-50"/>
      </defs>
      <g transform="translate(130.022313 325.981656)scale(0.15 -0.15)">
       <use xlink:href="#DejaVuSans-48"/>
       <use x="63.623047" xlink:href="#DejaVuSans-46"/>
       <use x="95.410156" xlink:href="#DejaVuSans-50"/>
      </g>
     </g>
    </g>
    <g id="xtick_4">
     <g id="line2d_4">
      <g>
       <use style="stroke:#000000;stroke-width:0.8;" x="106.650104" xlink:href="#mcb136577c7" y="307.584"/>
      </g>
     </g>
     <g id="text_4">
      <!-- 0.3 -->
      <defs>
       <path d="M 40.578125 39.3125 
Q 47.65625 37.796875 51.625 33 
Q 55.609375 28.21875 55.609375 21.1875 
Q 55.609375 10.40625 48.1875 4.484375 
Q 40.765625 -1.421875 27.09375 -1.421875 
Q 22.515625 -1.421875 17.65625 -0.515625 
Q 12.796875 0.390625 7.625 2.203125 
L 7.625 11.71875 
Q 11.71875 9.328125 16.59375 8.109375 
Q 21.484375 6.890625 26.8125 6.890625 
Q 36.078125 6.890625 40.9375 10.546875 
Q 45.796875 14.203125 45.796875 21.1875 
Q 45.796875 27.640625 41.28125 31.265625 
Q 36.765625 34.90625 28.71875 34.90625 
L 20.21875 34.90625 
L 20.21875 43.015625 
L 29.109375 43.015625 
Q 36.375 43.015625 40.234375 45.921875 
Q 44.09375 48.828125 44.09375 54.296875 
Q 44.09375 59.90625 40.109375 62.90625 
Q 36.140625 65.921875 28.71875 65.921875 
Q 24.65625 65.921875 20.015625 65.03125 
Q 15.375 64.15625 9.8125 62.3125 
L 9.8125 71.09375 
Q 15.4375 72.65625 20.34375 73.4375 
Q 25.25 74.21875 29.59375 74.21875 
Q 40.828125 74.21875 47.359375 69.109375 
Q 53.90625 64.015625 53.90625 55.328125 
Q 53.90625 49.265625 50.4375 45.09375 
Q 46.96875 40.921875 40.578125 39.3125 
z
" id="DejaVuSans-51"/>
      </defs>
      <g transform="translate(94.722761 325.981656)scale(0.15 -0.15)">
       <use xlink:href="#DejaVuSans-48"/>
       <use x="63.623047" xlink:href="#DejaVuSans-46"/>
       <use x="95.410156" xlink:href="#DejaVuSans-51"/>
      </g>
     </g>
    </g>
    <g id="xtick_5">
     <g id="line2d_5">
      <g>
       <use style="stroke:#000000;stroke-width:0.8;" x="71.350552" xlink:href="#mcb136577c7" y="307.584"/>
      </g>
     </g>
     <g id="text_5">
      <!-- 0.4 -->
      <defs>
       <path d="M 37.796875 64.3125 
L 12.890625 25.390625 
L 37.796875 25.390625 
z
M 35.203125 72.90625 
L 47.609375 72.90625 
L 47.609375 25.390625 
L 58.015625 25.390625 
L 58.015625 17.1875 
L 47.609375 17.1875 
L 47.609375 0 
L 37.796875 0 
L 37.796875 17.1875 
L 4.890625 17.1875 
L 4.890625 26.703125 
z
" id="DejaVuSans-52"/>
      </defs>
      <g transform="translate(59.423209 325.981656)scale(0.15 -0.15)">
       <use xlink:href="#DejaVuSans-48"/>
       <use x="63.623047" xlink:href="#DejaVuSans-46"/>
       <use x="95.410156" xlink:href="#DejaVuSans-52"/>
      </g>
     </g>
    </g>
    <g id="text_6">
     <!-- PDF -->
     <defs>
      <path d="M 19.671875 64.796875 
L 19.671875 37.40625 
L 32.078125 37.40625 
Q 38.96875 37.40625 42.71875 40.96875 
Q 46.484375 44.53125 46.484375 51.125 
Q 46.484375 57.671875 42.71875 61.234375 
Q 38.96875 64.796875 32.078125 64.796875 
z
M 9.8125 72.90625 
L 32.078125 72.90625 
Q 44.34375 72.90625 50.609375 67.359375 
Q 56.890625 61.8125 56.890625 51.125 
Q 56.890625 40.328125 50.609375 34.8125 
Q 44.34375 29.296875 32.078125 29.296875 
L 19.671875 29.296875 
L 19.671875 0 
L 9.8125 0 
z
" id="DejaVuSans-80"/>
      <path d="M 19.671875 64.796875 
L 19.671875 8.109375 
L 31.59375 8.109375 
Q 46.6875 8.109375 53.6875 14.9375 
Q 60.6875 21.78125 60.6875 36.53125 
Q 60.6875 51.171875 53.6875 57.984375 
Q 46.6875 64.796875 31.59375 64.796875 
z
M 9.8125 72.90625 
L 30.078125 72.90625 
Q 51.265625 72.90625 61.171875 64.09375 
Q 71.09375 55.28125 71.09375 36.53125 
Q 71.09375 17.671875 61.125 8.828125 
Q 51.171875 0 30.078125 0 
L 9.8125 0 
z
" id="DejaVuSans-68"/>
      <path d="M 9.8125 72.90625 
L 51.703125 72.90625 
L 51.703125 64.59375 
L 19.671875 64.59375 
L 19.671875 43.109375 
L 48.578125 43.109375 
L 48.578125 34.8125 
L 19.671875 34.8125 
L 19.671875 0 
L 9.8125 0 
z
" id="DejaVuSans-70"/>
     </defs>
     <g transform="translate(122.204574 346.018531)scale(0.17 -0.17)">
      <use xlink:href="#DejaVuSans-80"/>
      <use x="60.302734" xlink:href="#DejaVuSans-68"/>
      <use x="137.304688" xlink:href="#DejaVuSans-70"/>
     </g>
    </g>
   </g>
   <g id="matplotlib.axis_2">
    <g id="ytick_1">
     <g id="line2d_6">
      <defs>
       <path d="M 0 0 
L -3.5 0 
" id="m3e345ce938" style="stroke:#000000;stroke-width:0.8;"/>
      </defs>
      <g>
       <use style="stroke:#000000;stroke-width:0.8;" x="57.6" xlink:href="#m3e345ce938" y="53.568"/>
      </g>
     </g>
     <g id="text_7">
      <!-- 0 -->
      <g transform="translate(41.05625 59.266828)scale(0.15 -0.15)">
       <use xlink:href="#DejaVuSans-48"/>
      </g>
     </g>
    </g>
    <g id="ytick_2">
     <g id="line2d_7">
      <g>
       <use style="stroke:#000000;stroke-width:0.8;" x="57.6" xlink:href="#m3e345ce938" y="88.332076"/>
      </g>
     </g>
     <g id="text_8">
      <!-- 1 -->
      <g transform="translate(41.05625 94.030904)scale(0.15 -0.15)">
       <use xlink:href="#DejaVuSans-49"/>
      </g>
     </g>
    </g>
    <g id="ytick_3">
     <g id="line2d_8">
      <g>
       <use style="stroke:#000000;stroke-width:0.8;" x="57.6" xlink:href="#m3e345ce938" y="123.096151"/>
      </g>
     </g>
     <g id="text_9">
      <!-- 2 -->
      <g transform="translate(41.05625 128.79498)scale(0.15 -0.15)">
       <use xlink:href="#DejaVuSans-50"/>
      </g>
     </g>
    </g>
    <g id="ytick_4">
     <g id="line2d_9">
      <g>
       <use style="stroke:#000000;stroke-width:0.8;" x="57.6" xlink:href="#m3e345ce938" y="157.860227"/>
      </g>
     </g>
     <g id="text_10">
      <!-- 3 -->
      <g transform="translate(41.05625 163.559055)scale(0.15 -0.15)">
       <use xlink:href="#DejaVuSans-51"/>
      </g>
     </g>
    </g>
    <g id="ytick_5">
     <g id="line2d_10">
      <g>
       <use style="stroke:#000000;stroke-width:0.8;" x="57.6" xlink:href="#m3e345ce938" y="192.624303"/>
      </g>
     </g>
     <g id="text_11">
      <!-- 4 -->
      <g transform="translate(41.05625 198.323131)scale(0.15 -0.15)">
       <use xlink:href="#DejaVuSans-52"/>
      </g>
     </g>
    </g>
    <g id="ytick_6">
     <g id="line2d_11">
      <g>
       <use style="stroke:#000000;stroke-width:0.8;" x="57.6" xlink:href="#m3e345ce938" y="227.388378"/>
      </g>
     </g>
     <g id="text_12">
      <!-- 5 -->
      <defs>
       <path d="M 10.796875 72.90625 
L 49.515625 72.90625 
L 49.515625 64.59375 
L 19.828125 64.59375 
L 19.828125 46.734375 
Q 21.96875 47.46875 24.109375 47.828125 
Q 26.265625 48.1875 28.421875 48.1875 
Q 40.625 48.1875 47.75 41.5 
Q 54.890625 34.8125 54.890625 23.390625 
Q 54.890625 11.625 47.5625 5.09375 
Q 40.234375 -1.421875 26.90625 -1.421875 
Q 22.3125 -1.421875 17.546875 -0.640625 
Q 12.796875 0.140625 7.71875 1.703125 
L 7.71875 11.625 
Q 12.109375 9.234375 16.796875 8.0625 
Q 21.484375 6.890625 26.703125 6.890625 
Q 35.15625 6.890625 40.078125 11.328125 
Q 45.015625 15.765625 45.015625 23.390625 
Q 45.015625 31 40.078125 35.4375 
Q 35.15625 39.890625 26.703125 39.890625 
Q 22.75 39.890625 18.8125 39.015625 
Q 14.890625 38.140625 10.796875 36.28125 
z
" id="DejaVuSans-53"/>
      </defs>
      <g transform="translate(41.05625 233.087207)scale(0.15 -0.15)">
       <use xlink:href="#DejaVuSans-53"/>
      </g>
     </g>
    </g>
    <g id="ytick_7">
     <g id="line2d_12">
      <g>
       <use style="stroke:#000000;stroke-width:0.8;" x="57.6" xlink:href="#m3e345ce938" y="262.152454"/>
      </g>
     </g>
     <g id="text_13">
      <!-- 6 -->
      <defs>
       <path d="M 33.015625 40.375 
Q 26.375 40.375 22.484375 35.828125 
Q 18.609375 31.296875 18.609375 23.390625 
Q 18.609375 15.53125 22.484375 10.953125 
Q 26.375 6.390625 33.015625 6.390625 
Q 39.65625 6.390625 43.53125 10.953125 
Q 47.40625 15.53125 47.40625 23.390625 
Q 47.40625 31.296875 43.53125 35.828125 
Q 39.65625 40.375 33.015625 40.375 
z
M 52.59375 71.296875 
L 52.59375 62.3125 
Q 48.875 64.0625 45.09375 64.984375 
Q 41.3125 65.921875 37.59375 65.921875 
Q 27.828125 65.921875 22.671875 59.328125 
Q 17.53125 52.734375 16.796875 39.40625 
Q 19.671875 43.65625 24.015625 45.921875 
Q 28.375 48.1875 33.59375 48.1875 
Q 44.578125 48.1875 50.953125 41.515625 
Q 57.328125 34.859375 57.328125 23.390625 
Q 57.328125 12.15625 50.6875 5.359375 
Q 44.046875 -1.421875 33.015625 -1.421875 
Q 20.359375 -1.421875 13.671875 8.265625 
Q 6.984375 17.96875 6.984375 36.375 
Q 6.984375 53.65625 15.1875 63.9375 
Q 23.390625 74.21875 37.203125 74.21875 
Q 40.921875 74.21875 44.703125 73.484375 
Q 48.484375 72.75 52.59375 71.296875 
z
" id="DejaVuSans-54"/>
      </defs>
      <g transform="translate(41.05625 267.851282)scale(0.15 -0.15)">
       <use xlink:href="#DejaVuSans-54"/>
      </g>
     </g>
    </g>
    <g id="ytick_8">
     <g id="line2d_13">
      <g>
       <use style="stroke:#000000;stroke-width:0.8;" x="57.6" xlink:href="#m3e345ce938" y="296.91653"/>
      </g>
     </g>
     <g id="text_14">
      <!-- 7 -->
      <defs>
       <path d="M 8.203125 72.90625 
L 55.078125 72.90625 
L 55.078125 68.703125 
L 28.609375 0 
L 18.3125 0 
L 43.21875 64.59375 
L 8.203125 64.59375 
z
" id="DejaVuSans-55"/>
      </defs>
      <g transform="translate(41.05625 302.615358)scale(0.15 -0.15)">
       <use xlink:href="#DejaVuSans-55"/>
      </g>
     </g>
    </g>
    <g id="text_15">
     <!-- Depth (m) -->
     <defs>
      <path d="M 56.203125 29.59375 
L 56.203125 25.203125 
L 14.890625 25.203125 
Q 15.484375 15.921875 20.484375 11.0625 
Q 25.484375 6.203125 34.421875 6.203125 
Q 39.59375 6.203125 44.453125 7.46875 
Q 49.3125 8.734375 54.109375 11.28125 
L 54.109375 2.78125 
Q 49.265625 0.734375 44.1875 -0.34375 
Q 39.109375 -1.421875 33.890625 -1.421875 
Q 20.796875 -1.421875 13.15625 6.1875 
Q 5.515625 13.8125 5.515625 26.8125 
Q 5.515625 40.234375 12.765625 48.109375 
Q 20.015625 56 32.328125 56 
Q 43.359375 56 49.78125 48.890625 
Q 56.203125 41.796875 56.203125 29.59375 
z
M 47.21875 32.234375 
Q 47.125 39.59375 43.09375 43.984375 
Q 39.0625 48.390625 32.421875 48.390625 
Q 24.90625 48.390625 20.390625 44.140625 
Q 15.875 39.890625 15.1875 32.171875 
z
" id="DejaVuSans-101"/>
      <path d="M 18.109375 8.203125 
L 18.109375 -20.796875 
L 9.078125 -20.796875 
L 9.078125 54.6875 
L 18.109375 54.6875 
L 18.109375 46.390625 
Q 20.953125 51.265625 25.265625 53.625 
Q 29.59375 56 35.59375 56 
Q 45.5625 56 51.78125 48.09375 
Q 58.015625 40.1875 58.015625 27.296875 
Q 58.015625 14.40625 51.78125 6.484375 
Q 45.5625 -1.421875 35.59375 -1.421875 
Q 29.59375 -1.421875 25.265625 0.953125 
Q 20.953125 3.328125 18.109375 8.203125 
z
M 48.6875 27.296875 
Q 48.6875 37.203125 44.609375 42.84375 
Q 40.53125 48.484375 33.40625 48.484375 
Q 26.265625 48.484375 22.1875 42.84375 
Q 18.109375 37.203125 18.109375 27.296875 
Q 18.109375 17.390625 22.1875 11.75 
Q 26.265625 6.109375 33.40625 6.109375 
Q 40.53125 6.109375 44.609375 11.75 
Q 48.6875 17.390625 48.6875 27.296875 
z
" id="DejaVuSans-112"/>
      <path d="M 18.3125 70.21875 
L 18.3125 54.6875 
L 36.8125 54.6875 
L 36.8125 47.703125 
L 18.3125 47.703125 
L 18.3125 18.015625 
Q 18.3125 11.328125 20.140625 9.421875 
Q 21.96875 7.515625 27.59375 7.515625 
L 36.8125 7.515625 
L 36.8125 0 
L 27.59375 0 
Q 17.1875 0 13.234375 3.875 
Q 9.28125 7.765625 9.28125 18.015625 
L 9.28125 47.703125 
L 2.6875 47.703125 
L 2.6875 54.6875 
L 9.28125 54.6875 
L 9.28125 70.21875 
z
" id="DejaVuSans-116"/>
      <path d="M 54.890625 33.015625 
L 54.890625 0 
L 45.90625 0 
L 45.90625 32.71875 
Q 45.90625 40.484375 42.875 44.328125 
Q 39.84375 48.1875 33.796875 48.1875 
Q 26.515625 48.1875 22.3125 43.546875 
Q 18.109375 38.921875 18.109375 30.90625 
L 18.109375 0 
L 9.078125 0 
L 9.078125 75.984375 
L 18.109375 75.984375 
L 18.109375 46.1875 
Q 21.34375 51.125 25.703125 53.5625 
Q 30.078125 56 35.796875 56 
Q 45.21875 56 50.046875 50.171875 
Q 54.890625 44.34375 54.890625 33.015625 
z
" id="DejaVuSans-104"/>
      <path id="DejaVuSans-32"/>
      <path d="M 31 75.875 
Q 24.46875 64.65625 21.28125 53.65625 
Q 18.109375 42.671875 18.109375 31.390625 
Q 18.109375 20.125 21.3125 9.0625 
Q 24.515625 -2 31 -13.1875 
L 23.1875 -13.1875 
Q 15.875 -1.703125 12.234375 9.375 
Q 8.59375 20.453125 8.59375 31.390625 
Q 8.59375 42.28125 12.203125 53.3125 
Q 15.828125 64.359375 23.1875 75.875 
z
" id="DejaVuSans-40"/>
      <path d="M 52 44.1875 
Q 55.375 50.25 60.0625 53.125 
Q 64.75 56 71.09375 56 
Q 79.640625 56 84.28125 50.015625 
Q 88.921875 44.046875 88.921875 33.015625 
L 88.921875 0 
L 79.890625 0 
L 79.890625 32.71875 
Q 79.890625 40.578125 77.09375 44.375 
Q 74.3125 48.1875 68.609375 48.1875 
Q 61.625 48.1875 57.5625 43.546875 
Q 53.515625 38.921875 53.515625 30.90625 
L 53.515625 0 
L 44.484375 0 
L 44.484375 32.71875 
Q 44.484375 40.625 41.703125 44.40625 
Q 38.921875 48.1875 33.109375 48.1875 
Q 26.21875 48.1875 22.15625 43.53125 
Q 18.109375 38.875 18.109375 30.90625 
L 18.109375 0 
L 9.078125 0 
L 9.078125 54.6875 
L 18.109375 54.6875 
L 18.109375 46.1875 
Q 21.1875 51.21875 25.484375 53.609375 
Q 29.78125 56 35.6875 56 
Q 41.65625 56 45.828125 52.96875 
Q 50 49.953125 52 44.1875 
z
" id="DejaVuSans-109"/>
      <path d="M 8.015625 75.875 
L 15.828125 75.875 
Q 23.140625 64.359375 26.78125 53.3125 
Q 30.421875 42.28125 30.421875 31.390625 
Q 30.421875 20.453125 26.78125 9.375 
Q 23.140625 -1.703125 15.828125 -13.1875 
L 8.015625 -13.1875 
Q 14.5 -2 17.703125 9.0625 
Q 20.90625 20.125 20.90625 31.390625 
Q 20.90625 42.671875 17.703125 53.65625 
Q 14.5 64.65625 8.015625 75.875 
z
" id="DejaVuSans-41"/>
     </defs>
     <g transform="translate(33.520781 218.032062)rotate(-90)scale(0.17 -0.17)">
      <use xlink:href="#DejaVuSans-68"/>
      <use x="77.001953" xlink:href="#DejaVuSans-101"/>
      <use x="138.525391" xlink:href="#DejaVuSans-112"/>
      <use x="202.001953" xlink:href="#DejaVuSans-116"/>
      <use x="241.210938" xlink:href="#DejaVuSans-104"/>
      <use x="304.589844" xlink:href="#DejaVuSans-32"/>
      <use x="336.376953" xlink:href="#DejaVuSans-40"/>
      <use x="375.390625" xlink:href="#DejaVuSans-109"/>
      <use x="472.802734" xlink:href="#DejaVuSans-41"/>
     </g>
    </g>
   </g>
   <g id="line2d_14">
    <path clip-path="url(#pa2e0dfd1f1)" d="M 106.195554 53.568 
L 126.98985 56.036571 
L 126.898245 58.505143 
L 130.196019 60.973714 
L 133.493793 63.442286 
L 134.95947 65.910857 
L 140.45576 68.379429 
L 143.753534 70.848 
L 141.921437 73.316571 
L 146.043654 75.785143 
L 156.028581 78.253714 
L 157.311048 80.722286 
L 159.05154 83.190857 
L 160.608822 85.659429 
L 163.082153 88.128 
L 164.822644 90.596571 
L 164.822644 93.065143 
L 168.761652 95.533714 
L 162.807338 98.002286 
L 164.73104 100.470857 
L 159.509564 102.939429 
L 165.738693 105.408 
L 163.082153 107.876571 
L 166.196717 110.345143 
L 167.02116 112.813714 
L 165.738693 115.282286 
L 164.181411 117.750857 
L 160.883637 120.219429 
L 158.227097 122.688 
L 154.837718 125.156571 
L 148.883404 127.625143 
L 143.661929 130.093714 
L 137.982429 132.562286 
L 143.753534 135.030857 
L 144.394767 137.499429 
L 145.860445 139.968 
L 148.058961 142.436571 
L 139.997736 144.905143 
L 130.379229 147.373714 
L 132.852559 149.842286 
L 125.340963 152.310857 
L 118.470601 154.779429 
L 112.149868 157.248 
L 111.233819 159.716571 
L 112.241472 162.185143 
L 107.844441 164.653714 
L 108.02765 167.122286 
L 106.378763 169.590857 
L 109.493328 172.059429 
L 110.959005 174.528 
L 121.218746 176.996571 
L 139.448107 179.465143 
L 145.402421 181.933714 
L 147.326122 184.402286 
L 149.891057 186.870857 
L 152.639202 189.339429 
L 154.104879 191.808 
L 159.05154 194.276571 
L 161.066846 196.745143 
L 159.509564 199.213714 
L 162.349314 201.682286 
L 157.036234 204.150857 
L 162.532524 206.619429 
L 170.685353 209.088 
L 170.685353 211.556571 
L 171.693007 214.025143 
L 172.975474 216.493714 
L 171.326587 218.962286 
L 177.097691 221.430857 
L 178.380159 223.899429 
L 183.601634 226.368 
L 182.319167 228.836571 
L 182.044352 231.305143 
L 183.510029 233.773714 
L 184.242868 236.242286 
L 185.891755 238.710857 
L 193.403351 241.179429 
L 192.670512 243.648 
L 193.220141 246.116571 
L 195.418657 248.585143 
L 198.350012 251.053714 
L 199.540875 253.522286 
L 198.991246 255.990857 
L 202.10581 258.459429 
L 203.479882 260.928 
L 205.586793 263.396571 
L 204.94556 265.865143 
L 205.128769 268.333714 
L 205.678398 270.802286 
L 205.678398 273.270857 
L 205.953213 275.739429 
L 205.403584 278.208 
L 206.228027 280.676571 
L 204.029511 283.145143 
L 205.586793 285.613714 
L 206.777656 288.082286 
L 209.250986 290.550857 
L 210.716664 293.019429 
L 210.716664 295.488 
" style="fill:none;stroke:#000000;stroke-linecap:square;stroke-width:3;"/>
   </g>
   <g id="line2d_15">
    <path clip-path="url(#pa2e0dfd1f1)" d="M 131.814001 53.568 
L 141.323624 55.048794 
L 149.086582 56.529588 
L 142.293994 58.010382 
L 149.280656 59.491176 
L 152.191765 60.971969 
L 155.685096 62.452763 
L 152.385839 63.933557 
L 158.984353 65.414351 
L 154.9088 66.895145 
L 155.685096 68.375939 
L 161.701388 69.856733 
L 150.833247 71.337527 
L 161.31324 72.81832 
L 152.579913 74.299114 
L 159.954723 75.779908 
L 152.191765 77.260702 
L 156.461392 78.741496 
L 151.415469 80.22229 
L 155.102874 81.703084 
L 156.849539 83.183878 
L 158.013983 84.664672 
L 156.073244 86.145465 
L 154.326578 87.626259 
L 155.491022 89.107053 
L 147.145842 90.587847 
L 158.013983 92.068641 
L 152.579913 93.549435 
L 152.579913 95.030229 
L 150.833247 96.511023 
L 154.714726 97.991816 
L 144.040659 99.47261 
L 149.862878 100.953404 
L 150.056952 102.434198 
L 140.547328 103.914992 
L 151.027321 105.395786 
L 147.339916 106.87658 
L 144.622881 108.357374 
L 140.741402 109.838168 
L 151.415469 111.318961 
L 138.412515 112.799755 
L 148.310286 114.280549 
L 138.994737 115.761343 
L 145.981399 117.242137 
L 138.994737 118.722931 
L 143.846585 120.203725 
L 135.113258 121.684519 
L 140.159181 123.165312 
L 140.353255 124.646106 
L 135.69548 126.1269 
L 137.248072 127.607694 
L 135.501406 129.088488 
L 137.830293 130.569282 
L 133.366593 132.050076 
L 131.231779 133.53087 
L 129.29104 135.011664 
L 130.649558 136.492457 
L 128.902892 137.973251 
L 124.633265 139.454045 
L 124.439191 140.934839 
L 126.768079 142.415633 
L 121.139934 143.896427 
L 122.8866 145.377221 
L 118.034751 146.858015 
L 117.258456 148.338808 
L 112.794755 149.819602 
L 109.10735 151.300396 
L 98.627357 152.78119 
L 100.179949 154.261984 
L 103.479206 155.742778 
L 96.880692 157.223572 
L 96.880692 158.704366 
L 92.805139 160.18516 
L 92.416991 161.665953 
L 83.683664 163.146747 
L 89.117734 164.627541 
L 94.551805 166.108335 
L 86.012551 167.589129 
L 80.190333 169.069923 
L 75.920706 170.550717 
L 75.726632 172.031511 
L 85.624403 173.512304 
L 88.729586 174.993098 
L 88.92366 176.473892 
L 91.058474 177.954686 
L 90.476252 179.43548 
L 84.265886 180.916274 
L 85.236256 182.397068 
L 94.163657 183.877862 
L 93.775509 185.358656 
L 99.791801 186.839449 
L 97.851062 188.320243 
L 86.982921 189.801037 
L 95.3281 191.281831 
L 103.479206 192.762625 
L 89.505882 194.243419 
L 142.876216 195.724213 
L 179.168043 197.205007 
L 183.049521 198.6858 
" style="fill:none;stroke:#a2eb7f;stroke-dasharray:1.5,2.475;stroke-dashoffset:0;stroke-width:1.5;"/>
   </g>
   <g id="line2d_16">
    <path clip-path="url(#pa2e0dfd1f1)" d="M 119.209275 53.568 
L 128.769185 55.178417 
L 137.460012 56.788833 
L 144.934124 58.39925 
L 149.105721 60.009666 
L 155.015483 61.620083 
L 160.056163 63.230499 
L 160.751429 64.840916 
L 155.536933 66.451332 
L 160.925246 68.061749 
L 164.74921 69.672165 
L 163.358678 71.282582 
L 156.753649 72.892998 
L 161.446696 74.503415 
L 158.491814 76.113831 
L 156.927465 77.724248 
L 159.360897 79.334664 
L 159.534714 80.945081 
L 159.70853 82.555497 
L 162.837228 84.165914 
L 160.577613 85.776331 
L 158.144181 87.386747 
L 159.187081 88.997164 
L 158.144181 90.60758 
L 149.974804 92.217997 
L 156.579832 93.828413 
L 154.146401 95.43883 
L 148.410455 97.049246 
L 156.579832 98.659663 
L 152.408235 100.270079 
L 147.715189 101.880496 
L 153.624951 103.490912 
L 148.584271 105.101329 
L 140.762527 106.711745 
L 144.586491 108.322162 
L 146.324656 109.932578 
L 144.238858 111.542995 
L 144.065041 113.153411 
L 147.367555 114.763828 
L 148.062822 116.374244 
L 149.453354 117.984661 
L 151.191519 119.595078 
L 144.760307 121.205494 
L 139.545811 122.815911 
L 145.803206 124.426327 
L 141.979242 126.036744 
L 143.369775 127.64716 
L 144.760307 129.257577 
L 145.281757 130.867993 
L 137.460012 132.47841 
L 149.279537 134.088826 
L 142.500692 135.699243 
L 141.283976 137.309659 
L 136.938563 138.920076 
L 142.326876 140.530492 
L 135.895663 142.140909 
L 131.376433 143.751325 
L 132.071699 145.361742 
L 121.99034 146.972158 
L 119.209275 148.582575 
L 118.861642 150.192992 
L 113.299512 151.803408 
L 108.954099 153.413825 
L 116.94966 155.024241 
L 109.475548 156.634658 
L 103.913419 158.245074 
L 106.520667 159.855491 
L 97.482207 161.465907 
L 100.437088 163.076324 
L 83.750699 164.68674 
L 80.969635 166.297157 
L 75.059872 167.907573 
L 78.18857 169.51799 
L 64.978512 171.128406 
L 68.802476 172.738823 
L 67.064311 174.349239 
L 70.366825 175.959656 
L 71.583541 177.570072 
L 70.193009 179.180489 
L 83.576883 180.790906 
L 89.486645 182.401322 
L 88.965196 184.011739 
L 92.441527 185.622155 
L 88.791379 187.232572 
L 84.793599 188.842988 
L 92.962976 190.453405 
L 113.125696 192.063821 
L 121.816523 193.674238 
L 122.859422 195.284654 
L 136.417113 196.895071 
L 151.712969 198.505487 
L 160.577613 200.115904 
L 176.047286 201.72632 
L 188.735893 203.336737 
L 196.557638 204.947153 
L 205.596098 206.55757 
L 208.55098 208.167986 
L 210.462962 209.778403 
L 210.984411 211.388819 
" style="fill:none;stroke:#77cd86;stroke-dasharray:5.55,2.4;stroke-dashoffset:0;stroke-width:1.5;"/>
   </g>
   <g id="line2d_17">
    <path clip-path="url(#pa2e0dfd1f1)" d="M 108.311305 53.568 
L 117.832996 55.187668 
L 125.517167 56.807335 
L 127.688781 58.427003 
L 129.860394 60.046671 
L 128.189922 61.666339 
L 132.700197 63.286006 
L 134.871811 64.905674 
L 139.047991 66.525342 
L 135.038858 68.145009 
L 145.395784 69.764677 
L 149.571964 71.384345 
L 150.073106 73.004012 
L 151.910625 74.62368 
L 156.086805 76.243348 
L 156.086805 77.863016 
L 159.594797 79.482683 
L 155.084522 81.102351 
L 156.754994 82.722019 
L 157.089089 84.341686 
L 158.425466 85.961354 
L 158.258419 87.581022 
L 157.423183 89.20069 
L 154.416333 90.820357 
L 159.761844 92.440025 
L 156.922041 94.059693 
L 156.922041 95.67936 
L 152.912909 97.299028 
L 154.583381 98.918696 
L 154.917475 100.538364 
L 148.903776 102.158031 
L 153.079956 103.777699 
L 153.915192 105.397367 
L 147.734445 107.017034 
L 153.915192 108.636702 
L 151.910625 110.25637 
L 149.571964 111.876037 
L 147.233304 113.495705 
L 155.418617 115.115373 
L 151.242437 116.735041 
L 144.560548 118.354708 
L 149.739012 119.974376 
L 145.228737 121.594044 
L 146.063973 123.213711 
L 148.903776 124.833379 
L 149.571964 126.453047 
L 144.727596 128.072715 
L 143.89236 129.692382 
L 144.727596 131.31205 
L 141.219604 132.931718 
L 146.565115 134.551385 
L 141.052557 136.171053 
L 139.047991 137.790721 
L 141.887793 139.410389 
L 136.876377 141.030056 
L 132.032008 142.649724 
L 137.544566 144.269392 
L 135.038858 145.889059 
L 129.860394 147.508727 
L 129.693347 149.128395 
L 124.180789 150.748062 
L 128.524017 152.36773 
L 121.17394 153.987398 
L 125.684214 155.607066 
L 118.501185 157.226733 
L 118.668232 158.846401 
L 121.340987 160.466069 
L 114.157957 162.085736 
L 107.309022 163.705404 
L 102.130559 165.325072 
L 98.956662 166.94474 
L 99.958945 168.564407 
L 102.965795 170.184075 
L 96.618001 171.803743 
L 95.615718 173.42341 
L 95.44867 175.043078 
L 100.627134 176.662746 
L 94.446387 178.282413 
L 87.597452 179.902081 
L 92.441821 181.521749 
L 81.249658 183.141417 
L 83.254225 184.761084 
L 66.883599 186.380752 
L 73.231392 188.00042 
L 71.727967 189.620087 
L 91.773632 191.239755 
L 107.141975 192.859423 
L 104.302172 194.479091 
L 141.553699 196.098758 
L 151.743578 197.718426 
L 154.082239 199.338094 
L 155.585664 200.957761 
L 154.249286 202.577429 
L 181.310933 204.197097 
L 194.67471 205.816765 
L 194.340615 207.436432 
L 196.011087 209.0561 
L 196.345182 210.675768 
L 197.514512 212.295435 
" style="fill:none;stroke:#258d41;stroke-dasharray:9.6,2.4,1.5,2.4;stroke-dashoffset:0;stroke-width:1.5;"/>
   </g>
   <g id="line2d_18">
    <path clip-path="url(#pa2e0dfd1f1)" d="M 134.27964 53.568 
L 144.853602 55.747449 
L 141.474295 57.926898 
L 145.398652 60.106347 
L 144.090533 62.285796 
L 144.417563 64.465246 
L 144.090533 66.644695 
L 147.68786 68.824144 
L 145.398652 71.003593 
L 149.432019 73.183042 
L 152.484296 75.362491 
L 153.574396 77.54194 
L 155.863604 79.721389 
L 150.958158 81.900838 
L 155.863604 84.080288 
L 154.991525 86.259737 
L 152.593306 88.439186 
L 155.754594 90.618635 
L 151.939247 92.798084 
L 154.555485 94.977533 
L 152.375287 97.156982 
L 152.920336 99.336431 
L 150.740138 101.51588 
L 152.157267 103.695329 
L 143.436473 105.874779 
L 147.142811 108.054228 
L 143.327463 110.233677 
L 145.180632 112.413126 
L 139.839146 114.592575 
L 141.474295 116.772024 
L 135.805779 118.951473 
L 135.47875 121.130922 
L 133.625581 123.310371 
L 129.047164 125.489821 
L 122.28855 127.66927 
L 116.729044 129.848719 
L 118.037163 132.028168 
L 126.648946 134.207617 
L 119.563302 136.387066 
L 121.52548 138.566515 
L 111.714588 140.745964 
L 105.283003 142.925413 
L 94.709041 145.104863 
L 106.046072 147.284312 
L 112.586667 149.463761 
L 112.259637 151.64321 
L 107.899241 153.822659 
L 103.429834 156.002108 
L 113.676766 158.181557 
L 118.364193 160.361006 
L 117.710133 162.540455 
L 129.156174 164.719904 
L 138.640037 166.899354 
L 142.019344 169.078803 
L 143.327463 171.258252 
L 147.46984 173.437701 
L 150.195088 175.61715 
L 152.157267 177.796599 
L 155.645584 179.976048 
L 158.697862 182.155497 
L 159.569941 184.334946 
L 162.295189 186.514396 
L 160.87806 188.693845 
L 162.404199 190.873294 
L 160.66004 193.052743 
L 162.077169 195.232192 
L 163.494298 197.411641 
L 164.366377 199.59109 
L 164.911427 201.770539 
L 166.764595 203.949988 
L 167.963705 206.129438 
L 166.219546 208.308887 
L 169.598853 210.488336 
L 170.906972 212.667785 
L 172.869151 214.847234 
L 174.613309 217.026683 
L 179.191726 219.206132 
L 178.101627 221.385581 
L 180.608855 223.56503 
L 180.281825 225.744479 
L 181.480934 227.923929 
L 192.599946 230.103378 
L 195.652223 232.282827 
L 197.287372 234.462276 
L 196.742322 236.641725 
L 194.889154 238.821174 
L 197.287372 241.000623 
L 195.761233 243.180072 
L 194.998164 245.359521 
L 196.088263 247.538971 
L 196.524303 249.71842 
L 195.870243 251.897869 
L 207.752324 254.077318 
L 211.567671 256.256767 
L 212.003711 258.436216 
L 212.221731 260.615665 
L 212.33074 262.795114 
L 212.54876 264.974563 
L 212.33074 267.154013 
" style="fill:none;stroke:#115029;stroke-linecap:square;stroke-width:1.5;"/>
   </g>
   <g id="patch_3">
    <path d="M 57.6 307.584 
L 57.6 41.472 
" style="fill:none;stroke:#000000;stroke-linecap:square;stroke-linejoin:miter;stroke-width:0.8;"/>
   </g>
   <g id="patch_4">
    <path d="M 219.927273 307.584 
L 219.927273 41.472 
" style="fill:none;stroke:#000000;stroke-linecap:square;stroke-linejoin:miter;stroke-width:0.8;"/>
   </g>
   <g id="patch_5">
    <path d="M 57.6 307.584 
L 219.927273 307.584 
" style="fill:none;stroke:#000000;stroke-linecap:square;stroke-linejoin:miter;stroke-width:0.8;"/>
   </g>
   <g id="patch_6">
    <path d="M 57.6 41.472 
L 219.927273 41.472 
" style="fill:none;stroke:#000000;stroke-linecap:square;stroke-linejoin:miter;stroke-width:0.8;"/>
   </g>
  </g>
  <g id="axes_2">
   <g id="patch_7">
    <path d="M 252.392727 307.584 
L 414.72 307.584 
L 414.72 41.472 
L 252.392727 41.472 
z
" style="fill:#ffffff;"/>
   </g>
   <g id="matplotlib.axis_3">
    <g id="xtick_6">
     <g id="line2d_19">
      <g>
       <use style="stroke:#000000;stroke-width:0.8;" x="258.319443" xlink:href="#mcb136577c7" y="307.584"/>
      </g>
     </g>
     <g id="text_16">
      <!-- 0.0 -->
      <g transform="translate(246.392099 325.981656)scale(0.15 -0.15)">
       <use xlink:href="#DejaVuSans-48"/>
       <use x="63.623047" xlink:href="#DejaVuSans-46"/>
       <use x="95.410156" xlink:href="#DejaVuSans-48"/>
      </g>
     </g>
    </g>
    <g id="xtick_7">
     <g id="line2d_20">
      <g>
       <use style="stroke:#000000;stroke-width:0.8;" x="332.830465" xlink:href="#mcb136577c7" y="307.584"/>
      </g>
     </g>
     <g id="text_17">
      <!-- 0.5 -->
      <g transform="translate(320.903122 325.981656)scale(0.15 -0.15)">
       <use xlink:href="#DejaVuSans-48"/>
       <use x="63.623047" xlink:href="#DejaVuSans-46"/>
       <use x="95.410156" xlink:href="#DejaVuSans-53"/>
      </g>
     </g>
    </g>
    <g id="xtick_8">
     <g id="line2d_21">
      <g>
       <use style="stroke:#000000;stroke-width:0.8;" x="407.341488" xlink:href="#mcb136577c7" y="307.584"/>
      </g>
     </g>
     <g id="text_18">
      <!-- 1.0 -->
      <g transform="translate(395.414144 325.981656)scale(0.15 -0.15)">
       <use xlink:href="#DejaVuSans-49"/>
       <use x="63.623047" xlink:href="#DejaVuSans-46"/>
       <use x="95.410156" xlink:href="#DejaVuSans-48"/>
      </g>
     </g>
    </g>
    <g id="text_19">
     <!-- CDF -->
     <defs>
      <path d="M 64.40625 67.28125 
L 64.40625 56.890625 
Q 59.421875 61.53125 53.78125 63.8125 
Q 48.140625 66.109375 41.796875 66.109375 
Q 29.296875 66.109375 22.65625 58.46875 
Q 16.015625 50.828125 16.015625 36.375 
Q 16.015625 21.96875 22.65625 14.328125 
Q 29.296875 6.6875 41.796875 6.6875 
Q 48.140625 6.6875 53.78125 8.984375 
Q 59.421875 11.28125 64.40625 15.921875 
L 64.40625 5.609375 
Q 59.234375 2.09375 53.4375 0.328125 
Q 47.65625 -1.421875 41.21875 -1.421875 
Q 24.65625 -1.421875 15.125 8.703125 
Q 5.609375 18.84375 5.609375 36.375 
Q 5.609375 53.953125 15.125 64.078125 
Q 24.65625 74.21875 41.21875 74.21875 
Q 47.75 74.21875 53.53125 72.484375 
Q 59.328125 70.75 64.40625 67.28125 
z
" id="DejaVuSans-67"/>
     </defs>
     <g transform="translate(316.187145 346.018531)scale(0.17 -0.17)">
      <use xlink:href="#DejaVuSans-67"/>
      <use x="69.824219" xlink:href="#DejaVuSans-68"/>
      <use x="146.826172" xlink:href="#DejaVuSans-70"/>
     </g>
    </g>
   </g>
   <g id="matplotlib.axis_4"/>
   <g id="line2d_22">
    <path clip-path="url(#pfec91ccf7b)" d="M 261.507653 53.568 
L 264.072501 56.036571 
L 266.640094 58.505143 
L 269.108829 60.973714 
L 271.478704 63.442286 
L 273.804642 65.910857 
L 275.965815 68.379429 
L 278.028128 70.848 
L 280.145363 73.316571 
L 282.139024 75.785143 
L 283.833362 78.253714 
L 285.489254 80.722286 
L 287.09297 83.190857 
L 288.650003 85.659429 
L 290.132891 88.128 
L 291.563604 90.596571 
L 292.994316 93.065143 
L 294.306947 95.533714 
L 295.798074 98.002286 
L 297.231533 100.470857 
L 298.821519 102.939429 
L 300.22477 105.408 
L 301.707659 107.876571 
L 303.09718 110.345143 
L 304.461987 112.813714 
L 305.865238 115.282286 
L 307.315174 117.750857 
L 308.863968 120.219429 
L 310.492399 122.688 
L 312.222436 125.156571 
L 314.130968 127.625143 
L 316.196028 130.093714 
L 318.431344 132.562286 
L 320.493658 135.030857 
L 322.536748 137.499429 
L 324.535902 139.968 
L 326.469149 142.436571 
L 328.644052 144.905143 
L 331.107294 147.373714 
L 333.496392 149.842286 
L 336.110669 152.310857 
L 338.930903 154.779429 
L 341.940618 157.248 
L 344.977793 159.716571 
L 347.984761 162.185143 
L 351.123541 164.653714 
L 354.256829 167.122286 
L 357.439547 169.590857 
L 360.528898 172.059429 
L 363.574311 174.528 
L 366.312163 176.996571 
L 368.503542 179.465143 
L 370.516426 181.933714 
L 372.471642 184.402286 
L 374.349967 186.870857 
L 376.14591 189.339429 
L 377.897915 191.808 
L 379.501631 194.276571 
L 381.044934 196.745143 
L 382.634919 199.213714 
L 384.139777 201.682286 
L 385.803907 204.150857 
L 387.303272 206.619429 
L 388.558235 209.088 
L 389.813198 211.556571 
L 391.037954 214.025143 
L 392.224264 216.493714 
L 393.460005 218.962286 
L 394.522741 221.430857 
L 395.547033 223.899429 
L 396.414797 226.368 
L 397.321007 228.836571 
L 398.235454 231.305143 
L 399.105965 233.773714 
L 399.954507 236.242286 
L 400.753619 238.710857 
L 401.327551 241.179429 
L 401.923453 243.648 
L 402.502878 246.116571 
L 403.016396 248.585143 
L 403.44204 251.053714 
L 403.831985 253.522286 
L 404.238406 255.990857 
L 404.551461 258.459429 
L 404.823323 260.928 
L 405.032026 263.396571 
L 405.259952 265.865143 
L 405.482385 268.333714 
L 405.688342 270.802286 
L 405.894298 273.270857 
L 406.092017 275.739429 
L 406.306212 278.208 
L 406.495692 280.676571 
L 406.751078 283.145143 
L 406.959781 285.613714 
L 407.132785 288.082286 
L 407.231644 290.550857 
L 407.286566 293.019429 
L 407.341488 295.488 
" style="fill:none;stroke:#000000;stroke-linecap:square;stroke-width:3;"/>
   </g>
   <g id="line2d_23">
    <path clip-path="url(#pfec91ccf7b)" d="M 259.77124 53.568 
L 261.052031 55.048794 
L 262.193227 56.529588 
L 263.45657 58.010382 
L 264.594276 59.491176 
L 265.679633 60.971969 
L 266.702173 62.452763 
L 267.784041 63.933557 
L 268.747252 65.414351 
L 269.783751 66.895145 
L 270.80629 68.375939 
L 271.720643 69.856733 
L 272.83043 71.337527 
L 273.751763 72.81832 
L 274.83014 74.299114 
L 275.775902 75.779908 
L 276.86126 77.260702 
L 277.86984 78.741496 
L 278.969157 80.22229 
L 280.002166 81.703084 
L 281.003766 83.183878 
L 281.984427 84.664672 
L 282.999987 86.145465 
L 284.046956 87.626259 
L 285.072985 89.107053 
L 286.24908 90.587847 
L 287.229741 92.068641 
L 288.308118 93.549435 
L 289.386496 95.030229 
L 290.496283 96.511023 
L 291.536272 97.991816 
L 292.768205 99.47261 
L 293.895442 100.953404 
L 295.019188 102.434198 
L 296.31394 103.914992 
L 297.420237 105.395786 
L 298.592842 106.87658 
L 299.814305 108.357374 
L 301.105567 109.838168 
L 302.204884 111.318961 
L 303.538024 112.799755 
L 304.69318 114.280549 
L 306.01585 115.761343 
L 307.212884 117.242137 
L 308.535555 118.722931 
L 309.770978 120.203725 
L 311.163447 121.684519 
L 312.465178 123.165312 
L 313.763419 124.646106 
L 315.145418 126.1269 
L 316.499497 127.607694 
L 317.884986 129.088488 
L 319.228596 130.569282 
L 320.652474 132.050076 
L 322.11474 133.53087 
L 323.611905 135.011664 
L 325.084641 136.492457 
L 326.588786 137.973251 
L 328.169709 139.454045 
L 329.754122 140.934839 
L 331.296656 142.415633 
L 332.940397 143.896427 
L 334.552729 145.377221 
L 336.252308 146.858015 
L 337.965847 148.338808 
L 339.759654 149.819602 
L 341.619768 151.300396 
L 343.668337 152.78119 
L 345.688987 154.261984 
L 347.650308 155.742778 
L 349.730286 157.223572 
L 351.810264 158.704366 
L 353.96353 160.18516 
L 356.123775 161.665953 
L 358.441066 163.146747 
L 360.66064 164.627541 
L 362.782497 166.108335 
L 365.057909 167.589129 
L 367.438018 169.069923 
L 369.894905 170.550717 
L 372.355281 172.031511 
L 374.637673 173.512304 
L 376.864227 174.993098 
L 379.08729 176.473892 
L 381.271965 177.954686 
L 383.46711 179.43548 
L 385.773931 180.916274 
L 388.063303 182.397068 
L 390.192139 183.877862 
L 392.327955 185.358656 
L 394.355585 186.839449 
L 396.418113 188.320243 
L 398.676076 189.801037 
L 400.783973 191.281831 
L 402.745295 192.762625 
L 404.957889 194.243419 
L 406.210761 195.724213 
L 406.811023 197.205007 
L 407.341488 198.6858 
" style="fill:none;stroke:#a2eb7f;stroke-dasharray:1.5,2.475;stroke-dashoffset:0;stroke-width:1.5;"/>
   </g>
   <g id="line2d_24">
    <path clip-path="url(#pfec91ccf7b)" d="M 260.144827 53.568 
L 261.783254 55.178417 
L 263.251719 56.788833 
L 264.574018 58.39925 
L 265.814735 60.009666 
L 266.939879 61.620083 
L 267.966445 63.230499 
L 268.979414 64.840916 
L 270.09436 66.451332 
L 271.10393 68.061749 
L 272.038717 69.672165 
L 273.000698 71.282582 
L 274.091849 72.892998 
L 275.091221 74.503415 
L 276.148381 76.113831 
L 277.236133 77.724248 
L 278.276296 79.334664 
L 279.313059 80.945081 
L 280.346424 82.555497 
L 281.318603 84.165914 
L 282.334971 85.776331 
L 283.398928 87.386747 
L 284.442491 88.997164 
L 285.506448 90.60758 
L 286.730169 92.217997 
L 287.82472 93.828413 
L 288.96686 95.43883 
L 290.221174 97.049246 
L 291.315725 98.659663 
L 292.491857 100.270079 
L 293.759768 101.880496 
L 294.912105 103.490912 
L 296.16302 105.101329 
L 297.5669 106.711745 
L 298.895997 108.322162 
L 300.191102 109.932578 
L 301.526998 111.542995 
L 302.866293 113.153411 
L 304.141002 114.763828 
L 305.402115 116.374244 
L 306.636034 117.984661 
L 307.83596 119.595078 
L 309.161658 121.205494 
L 310.589333 122.815911 
L 311.894636 124.426327 
L 313.274721 126.036744 
L 314.627613 127.64716 
L 315.953311 129.257577 
L 317.268811 130.867993 
L 318.737276 132.47841 
L 319.974595 134.088826 
L 321.344482 135.699243 
L 322.738165 137.309659 
L 324.216828 138.920076 
L 325.590115 140.530492 
L 327.089173 142.140909 
L 328.676612 143.751325 
L 330.250453 145.361742 
L 332.02145 146.972158 
L 333.846834 148.582575 
L 335.679016 150.192992 
L 337.619974 151.803408 
L 339.645912 153.413825 
L 341.515486 155.024241 
L 343.531227 156.634658 
L 345.655743 158.245074 
L 347.729271 159.855491 
L 349.979558 161.465907 
L 352.172058 163.076324 
L 354.690884 164.68674 
L 357.264098 166.297157 
L 359.952885 167.907573 
L 362.580487 169.51799 
L 365.466429 171.128406 
L 368.277588 172.738823 
L 371.12274 174.349239 
L 373.903307 175.959656 
L 376.660079 177.570072 
L 379.444044 179.180489 
L 381.966269 180.790906 
L 384.372921 182.401322 
L 386.78977 184.011739 
L 389.138635 185.622155 
L 391.558884 187.232572 
L 394.057314 188.842988 
L 396.395982 190.453405 
L 398.340339 192.063821 
L 400.114734 193.674238 
L 401.868735 195.284654 
L 403.357595 196.895071 
L 404.547324 198.505487 
L 405.563693 200.115904 
L 406.27753 201.72632 
L 406.743224 203.336737 
L 407.055953 204.947153 
L 407.191922 206.55757 
L 407.270104 208.167986 
L 407.310895 209.778403 
L 407.341488 211.388819 
" style="fill:none;stroke:#77cd86;stroke-dasharray:5.55,2.4;stroke-dashoffset:0;stroke-width:1.5;"/>
   </g>
   <g id="line2d_25">
    <path clip-path="url(#pfec91ccf7b)" d="M 260.369662 53.568 
L 262.232602 55.187668 
L 263.944404 56.807335 
L 265.613493 58.427003 
L 267.239869 60.046671 
L 268.899101 61.666339 
L 270.469622 63.286006 
L 271.99743 64.905674 
L 273.443097 66.525342 
L 274.96762 68.145009 
L 276.288434 69.764677 
L 277.527108 71.384345 
L 278.755926 73.004012 
L 279.948602 74.62368 
L 281.059137 76.243348 
L 282.169673 77.863016 
L 283.211211 79.482683 
L 284.34146 81.102351 
L 285.438853 82.722019 
L 286.529675 84.341686 
L 287.594212 85.961354 
L 288.662035 87.581022 
L 289.746285 89.20069 
L 290.889677 90.820357 
L 291.927929 92.440025 
L 293.022037 94.059693 
L 294.116144 95.67936 
L 295.289106 97.299028 
L 296.429212 98.918696 
L 297.562747 100.538364 
L 298.814564 102.158031 
L 299.98424 103.777699 
L 301.137489 105.397367 
L 302.412305 107.017034 
L 303.565553 108.636702 
L 304.758229 110.25637 
L 305.996903 111.876037 
L 307.281576 113.495705 
L 308.405254 115.115373 
L 309.611072 116.735041 
L 310.948315 118.354708 
L 312.183703 119.974376 
L 313.507804 121.594044 
L 314.815476 123.213711 
L 316.067292 124.833379 
L 317.305967 126.453047 
L 318.639924 128.072715 
L 319.990309 129.692382 
L 321.324265 131.31205 
L 322.72722 132.931718 
L 324.025035 134.551385 
L 325.431276 136.171053 
L 326.876943 137.790721 
L 328.266756 139.410389 
L 329.755136 141.030056 
L 331.338799 142.649724 
L 332.814037 144.269392 
L 334.338559 145.889059 
L 335.964935 147.508727 
L 337.594597 149.128395 
L 339.332684 150.748062 
L 340.985345 152.36773 
L 342.782572 153.987398 
L 344.491089 155.607066 
L 346.340886 157.226733 
L 348.187398 158.846401 
L 349.98134 160.466069 
L 351.916563 162.085736 
L 353.986496 163.705404 
L 356.158283 165.325072 
L 358.392497 166.94474 
L 360.606997 168.564407 
L 362.762356 170.184075 
L 365.042568 171.803743 
L 367.342494 173.42341 
L 369.645705 175.043078 
L 371.847062 176.662746 
L 374.169987 178.282413 
L 376.627622 179.902081 
L 378.989975 181.521749 
L 381.572463 183.141417 
L 384.115523 184.761084 
L 386.980574 186.380752 
L 389.720771 188.00042 
L 392.490539 189.620087 
L 394.866033 191.239755 
L 396.939252 192.859423 
L 399.068326 194.479091 
L 400.46471 196.098758 
L 401.660671 197.718426 
L 402.810634 199.338094 
L 403.931026 200.957761 
L 405.077704 202.577429 
L 405.692112 204.197097 
L 406.043672 205.816765 
L 406.401804 207.436432 
L 406.727079 209.0561 
L 407.045783 210.675768 
L 407.341488 212.295435 
" style="fill:none;stroke:#258d41;stroke-dasharray:9.6,2.4,1.5,2.4;stroke-dashoffset:0;stroke-width:1.5;"/>
   </g>
   <g id="line2d_26">
    <path clip-path="url(#pfec91ccf7b)" d="M 260.390957 53.568 
L 262.182614 55.747449 
L 264.06371 57.926898 
L 265.840942 60.106347 
L 267.652795 62.285796 
L 269.455993 64.465246 
L 271.267846 66.644695 
L 272.984491 68.824144 
L 274.761723 71.003593 
L 276.432205 73.183042 
L 278.021905 75.362491 
L 279.582753 77.54194 
L 281.083013 79.721389 
L 282.713104 81.900838 
L 284.213365 84.080288 
L 285.736706 86.259737 
L 287.323521 88.439186 
L 288.826666 90.618635 
L 290.430791 92.798084 
L 291.965673 94.977533 
L 293.558258 97.156982 
L 295.136416 99.336431 
L 296.772278 101.51588 
L 298.370632 103.695329 
L 300.199796 105.874779 
L 301.930866 108.054228 
L 303.762915 110.233677 
L 305.545917 112.413126 
L 307.47029 114.592575 
L 309.351386 116.772024 
L 311.382508 118.951473 
L 313.422286 121.130922 
L 315.51111 123.310371 
L 317.721109 125.489821 
L 320.109986 127.66927 
L 322.646004 129.848719 
L 325.1474 132.028168 
L 327.420872 134.207617 
L 329.881876 136.387066 
L 332.290948 138.566515 
L 334.959681 140.745964 
L 337.798636 142.925413 
L 340.917447 145.104863 
L 343.736206 147.284312 
L 346.381858 149.463761 
L 349.036165 151.64321 
L 351.805877 153.822659 
L 354.693879 156.002108 
L 357.31068 158.181557 
L 359.803421 160.361006 
L 362.313472 162.540455 
L 364.520586 164.719904 
L 366.476696 166.899354 
L 368.343366 169.078803 
L 370.175415 171.258252 
L 371.89783 173.437701 
L 373.548116 175.61715 
L 375.146471 177.796599 
L 376.652502 179.976048 
L 378.07775 182.155497 
L 379.479916 184.334946 
L 380.809955 186.514396 
L 382.1775 188.693845 
L 383.504654 190.873294 
L 384.877969 193.052743 
L 386.213778 195.232192 
L 387.512081 197.411641 
L 388.787302 199.59109 
L 390.048098 201.770539 
L 391.259847 203.949988 
L 392.43986 206.129438 
L 393.666035 208.308887 
L 394.802771 210.488336 
L 395.904885 212.667785 
L 396.955068 214.847234 
L 397.959088 217.026683 
L 398.841934 219.206132 
L 399.753631 221.385581 
L 400.59897 223.56503 
L 401.452965 225.744479 
L 402.275223 227.923929 
L 402.803199 230.103378 
L 403.250392 232.282827 
L 403.654309 234.462276 
L 404.07265 236.641725 
L 404.540039 238.821174 
L 404.943956 241.000623 
L 405.388264 243.180072 
L 405.852767 245.359521 
L 406.28842 247.538971 
L 406.712532 249.71842 
L 407.153955 251.897869 
L 407.2809 254.077318 
L 407.306866 256.256767 
L 407.321292 258.436216 
L 407.329947 260.615665 
L 407.335717 262.795114 
L 407.335717 264.974563 
L 407.341488 267.154013 
" style="fill:none;stroke:#115029;stroke-linecap:square;stroke-width:1.5;"/>
   </g>
   <g id="patch_8">
    <path d="M 252.392727 307.584 
L 252.392727 41.472 
" style="fill:none;stroke:#000000;stroke-linecap:square;stroke-linejoin:miter;stroke-width:0.8;"/>
   </g>
   <g id="patch_9">
    <path d="M 414.72 307.584 
L 414.72 41.472 
" style="fill:none;stroke:#000000;stroke-linecap:square;stroke-linejoin:miter;stroke-width:0.8;"/>
   </g>
   <g id="patch_10">
    <path d="M 252.392727 307.584 
L 414.72 307.584 
" style="fill:none;stroke:#000000;stroke-linecap:square;stroke-linejoin:miter;stroke-width:0.8;"/>
   </g>
   <g id="patch_11">
    <path d="M 252.392727 41.472 
L 414.72 41.472 
" style="fill:none;stroke:#000000;stroke-linecap:square;stroke-linejoin:miter;stroke-width:0.8;"/>
   </g>
   <g id="legend_1">
    <g id="patch_12">
     <path d="M 261.492727 301.084 
L 345.81804 301.084 
Q 348.41804 301.084 348.41804 298.484 
L 348.41804 225.176187 
Q 348.41804 222.576187 345.81804 222.576187 
L 261.492727 222.576187 
Q 258.892727 222.576187 258.892727 225.176187 
L 258.892727 298.484 
Q 258.892727 301.084 261.492727 301.084 
z
" style="fill:#ffffff;opacity:0.8;stroke:#cccccc;stroke-linejoin:miter;"/>
    </g>
    <g id="line2d_27">
     <path d="M 264.092727 233.104156 
L 290.092727 233.104156 
" style="fill:none;stroke:#000000;stroke-linecap:square;stroke-width:3;"/>
    </g>
    <g id="line2d_28"/>
    <g id="text_20">
     <!-- TS -->
     <defs>
      <path d="M -0.296875 72.90625 
L 61.375 72.90625 
L 61.375 64.59375 
L 35.5 64.59375 
L 35.5 0 
L 25.59375 0 
L 25.59375 64.59375 
L -0.296875 64.59375 
z
" id="DejaVuSans-84"/>
      <path d="M 53.515625 70.515625 
L 53.515625 60.890625 
Q 47.90625 63.578125 42.921875 64.890625 
Q 37.9375 66.21875 33.296875 66.21875 
Q 25.25 66.21875 20.875 63.09375 
Q 16.5 59.96875 16.5 54.203125 
Q 16.5 49.359375 19.40625 46.890625 
Q 22.3125 44.4375 30.421875 42.921875 
L 36.375 41.703125 
Q 47.40625 39.59375 52.65625 34.296875 
Q 57.90625 29 57.90625 20.125 
Q 57.90625 9.515625 50.796875 4.046875 
Q 43.703125 -1.421875 29.984375 -1.421875 
Q 24.8125 -1.421875 18.96875 -0.25 
Q 13.140625 0.921875 6.890625 3.21875 
L 6.890625 13.375 
Q 12.890625 10.015625 18.65625 8.296875 
Q 24.421875 6.59375 29.984375 6.59375 
Q 38.421875 6.59375 43.015625 9.90625 
Q 47.609375 13.234375 47.609375 19.390625 
Q 47.609375 24.75 44.3125 27.78125 
Q 41.015625 30.8125 33.5 32.328125 
L 27.484375 33.5 
Q 16.453125 35.6875 11.515625 40.375 
Q 6.59375 45.0625 6.59375 53.421875 
Q 6.59375 63.09375 13.40625 68.65625 
Q 20.21875 74.21875 32.171875 74.21875 
Q 37.3125 74.21875 42.625 73.28125 
Q 47.953125 72.359375 53.515625 70.515625 
z
" id="DejaVuSans-83"/>
     </defs>
     <g transform="translate(300.492727 237.654156)scale(0.13 -0.13)">
      <use xlink:href="#DejaVuSans-84"/>
      <use x="61.083984" xlink:href="#DejaVuSans-83"/>
     </g>
    </g>
    <g id="line2d_29">
     <path d="M 264.092727 246.985719 
L 290.092727 246.985719 
" style="fill:none;stroke:#a2eb7f;stroke-dasharray:1.5,2.475;stroke-dashoffset:0;stroke-width:1.5;"/>
    </g>
    <g id="line2d_30"/>
    <g id="text_21">
     <!-- RB, n0 -->
     <defs>
      <path d="M 44.390625 34.1875 
Q 47.5625 33.109375 50.5625 29.59375 
Q 53.5625 26.078125 56.59375 19.921875 
L 66.609375 0 
L 56 0 
L 46.6875 18.703125 
Q 43.0625 26.03125 39.671875 28.421875 
Q 36.28125 30.8125 30.421875 30.8125 
L 19.671875 30.8125 
L 19.671875 0 
L 9.8125 0 
L 9.8125 72.90625 
L 32.078125 72.90625 
Q 44.578125 72.90625 50.734375 67.671875 
Q 56.890625 62.453125 56.890625 51.90625 
Q 56.890625 45.015625 53.6875 40.46875 
Q 50.484375 35.9375 44.390625 34.1875 
z
M 19.671875 64.796875 
L 19.671875 38.921875 
L 32.078125 38.921875 
Q 39.203125 38.921875 42.84375 42.21875 
Q 46.484375 45.515625 46.484375 51.90625 
Q 46.484375 58.296875 42.84375 61.546875 
Q 39.203125 64.796875 32.078125 64.796875 
z
" id="DejaVuSans-82"/>
      <path d="M 19.671875 34.8125 
L 19.671875 8.109375 
L 35.5 8.109375 
Q 43.453125 8.109375 47.28125 11.40625 
Q 51.125 14.703125 51.125 21.484375 
Q 51.125 28.328125 47.28125 31.5625 
Q 43.453125 34.8125 35.5 34.8125 
z
M 19.671875 64.796875 
L 19.671875 42.828125 
L 34.28125 42.828125 
Q 41.5 42.828125 45.03125 45.53125 
Q 48.578125 48.25 48.578125 53.8125 
Q 48.578125 59.328125 45.03125 62.0625 
Q 41.5 64.796875 34.28125 64.796875 
z
M 9.8125 72.90625 
L 35.015625 72.90625 
Q 46.296875 72.90625 52.390625 68.21875 
Q 58.5 63.53125 58.5 54.890625 
Q 58.5 48.1875 55.375 44.234375 
Q 52.25 40.28125 46.1875 39.3125 
Q 53.46875 37.75 57.5 32.78125 
Q 61.53125 27.828125 61.53125 20.40625 
Q 61.53125 10.640625 54.890625 5.3125 
Q 48.25 0 35.984375 0 
L 9.8125 0 
z
" id="DejaVuSans-66"/>
      <path d="M 11.71875 12.40625 
L 22.015625 12.40625 
L 22.015625 4 
L 14.015625 -11.625 
L 7.71875 -11.625 
L 11.71875 4 
z
" id="DejaVuSans-44"/>
      <path d="M 54.890625 33.015625 
L 54.890625 0 
L 45.90625 0 
L 45.90625 32.71875 
Q 45.90625 40.484375 42.875 44.328125 
Q 39.84375 48.1875 33.796875 48.1875 
Q 26.515625 48.1875 22.3125 43.546875 
Q 18.109375 38.921875 18.109375 30.90625 
L 18.109375 0 
L 9.078125 0 
L 9.078125 54.6875 
L 18.109375 54.6875 
L 18.109375 46.1875 
Q 21.34375 51.125 25.703125 53.5625 
Q 30.078125 56 35.796875 56 
Q 45.21875 56 50.046875 50.171875 
Q 54.890625 44.34375 54.890625 33.015625 
z
" id="DejaVuSans-110"/>
     </defs>
     <g transform="translate(300.492727 251.535719)scale(0.13 -0.13)">
      <use xlink:href="#DejaVuSans-82"/>
      <use x="69.482422" xlink:href="#DejaVuSans-66"/>
      <use x="138.085938" xlink:href="#DejaVuSans-44"/>
      <use x="169.873047" xlink:href="#DejaVuSans-32"/>
      <use x="201.660156" xlink:href="#DejaVuSans-110"/>
      <use x="265.039062" xlink:href="#DejaVuSans-48"/>
     </g>
    </g>
    <g id="line2d_31">
     <path d="M 264.092727 260.867281 
L 290.092727 260.867281 
" style="fill:none;stroke:#77cd86;stroke-dasharray:5.55,2.4;stroke-dashoffset:0;stroke-width:1.5;"/>
    </g>
    <g id="line2d_32"/>
    <g id="text_22">
     <!-- RB, s0 -->
     <defs>
      <path d="M 44.28125 53.078125 
L 44.28125 44.578125 
Q 40.484375 46.53125 36.375 47.5 
Q 32.28125 48.484375 27.875 48.484375 
Q 21.1875 48.484375 17.84375 46.4375 
Q 14.5 44.390625 14.5 40.28125 
Q 14.5 37.15625 16.890625 35.375 
Q 19.28125 33.59375 26.515625 31.984375 
L 29.59375 31.296875 
Q 39.15625 29.25 43.1875 25.515625 
Q 47.21875 21.78125 47.21875 15.09375 
Q 47.21875 7.46875 41.1875 3.015625 
Q 35.15625 -1.421875 24.609375 -1.421875 
Q 20.21875 -1.421875 15.453125 -0.5625 
Q 10.6875 0.296875 5.421875 2 
L 5.421875 11.28125 
Q 10.40625 8.6875 15.234375 7.390625 
Q 20.0625 6.109375 24.8125 6.109375 
Q 31.15625 6.109375 34.5625 8.28125 
Q 37.984375 10.453125 37.984375 14.40625 
Q 37.984375 18.0625 35.515625 20.015625 
Q 33.0625 21.96875 24.703125 23.78125 
L 21.578125 24.515625 
Q 13.234375 26.265625 9.515625 29.90625 
Q 5.8125 33.546875 5.8125 39.890625 
Q 5.8125 47.609375 11.28125 51.796875 
Q 16.75 56 26.8125 56 
Q 31.78125 56 36.171875 55.265625 
Q 40.578125 54.546875 44.28125 53.078125 
z
" id="DejaVuSans-115"/>
     </defs>
     <g transform="translate(300.492727 265.417281)scale(0.13 -0.13)">
      <use xlink:href="#DejaVuSans-82"/>
      <use x="69.482422" xlink:href="#DejaVuSans-66"/>
      <use x="138.085938" xlink:href="#DejaVuSans-44"/>
      <use x="169.873047" xlink:href="#DejaVuSans-32"/>
      <use x="201.660156" xlink:href="#DejaVuSans-115"/>
      <use x="253.759766" xlink:href="#DejaVuSans-48"/>
     </g>
    </g>
    <g id="line2d_33">
     <path d="M 264.092727 274.748844 
L 290.092727 274.748844 
" style="fill:none;stroke:#258d41;stroke-dasharray:9.6,2.4,1.5,2.4;stroke-dashoffset:0;stroke-width:1.5;"/>
    </g>
    <g id="line2d_34"/>
    <g id="text_23">
     <!-- RB, s1 -->
     <g transform="translate(300.492727 279.298844)scale(0.13 -0.13)">
      <use xlink:href="#DejaVuSans-82"/>
      <use x="69.482422" xlink:href="#DejaVuSans-66"/>
      <use x="138.085938" xlink:href="#DejaVuSans-44"/>
      <use x="169.873047" xlink:href="#DejaVuSans-32"/>
      <use x="201.660156" xlink:href="#DejaVuSans-115"/>
      <use x="253.759766" xlink:href="#DejaVuSans-49"/>
     </g>
    </g>
    <g id="line2d_35">
     <path d="M 264.092727 288.630406 
L 290.092727 288.630406 
" style="fill:none;stroke:#115029;stroke-linecap:square;stroke-width:1.5;"/>
    </g>
    <g id="line2d_36"/>
    <g id="text_24">
     <!-- RB, s2 -->
     <g transform="translate(300.492727 293.180406)scale(0.13 -0.13)">
      <use xlink:href="#DejaVuSans-82"/>
      <use x="69.482422" xlink:href="#DejaVuSans-66"/>
      <use x="138.085938" xlink:href="#DejaVuSans-44"/>
      <use x="169.873047" xlink:href="#DejaVuSans-32"/>
      <use x="201.660156" xlink:href="#DejaVuSans-115"/>
      <use x="253.759766" xlink:href="#DejaVuSans-50"/>
     </g>
    </g>
   </g>
  </g>
 </g>
 <defs>
  <clipPath id="pa2e0dfd1f1">
   <rect height="266.112" width="162.327273" x="57.6" y="41.472"/>
  </clipPath>
  <clipPath id="pfec91ccf7b">
   <rect height="266.112" width="162.327273" x="252.392727" y="41.472"/>
  </clipPath>
 </defs>
</svg>
