<?xml version="1.0" encoding="utf-8" standalone="no"?>
<!DOCTYPE svg PUBLIC "-//W3C//DTD SVG 1.1//EN"
  "http://www.w3.org/Graphics/SVG/1.1/DTD/svg11.dtd">
<!-- Created with matplotlib (https://matplotlib.org/) -->
<svg height="345.6pt" version="1.1" viewBox="0 0 460.8 345.6" width="460.8pt" xmlns="http://www.w3.org/2000/svg" xmlns:xlink="http://www.w3.org/1999/xlink">
 <defs>
  <style type="text/css">
*{stroke-linecap:butt;stroke-linejoin:round;}
  </style>
 </defs>
 <g id="figure_1">
  <g id="patch_1">
   <path d="M 0 345.6 
L 460.8 345.6 
L 460.8 0 
L 0 0 
z
" style="fill:#ffffff;"/>
  </g>
  <g id="axes_1">
   <g id="patch_2">
    <path d="M 57.6 307.584 
L 219.927273 307.584 
L 219.927273 41.472 
L 57.6 41.472 
z
" style="fill:#ffffff;"/>
   </g>
   <g id="matplotlib.axis_1">
    <g id="xtick_1">
     <g id="line2d_1">
      <defs>
       <path d="M 0 0 
L 0 3.5 
" id="mb03f5c846c" style="stroke:#000000;stroke-width:0.8;"/>
      </defs>
      <g>
       <use style="stroke:#000000;stroke-width:0.8;" x="212.965063" xlink:href="#mb03f5c846c" y="307.584"/>
      </g>
     </g>
     <g id="text_1">
      <!-- 0.0 -->
      <defs>
       <path d="M 31.78125 66.40625 
Q 24.171875 66.40625 20.328125 58.90625 
Q 16.5 51.421875 16.5 36.375 
Q 16.5 21.390625 20.328125 13.890625 
Q 24.171875 6.390625 31.78125 6.390625 
Q 39.453125 6.390625 43.28125 13.890625 
Q 47.125 21.390625 47.125 36.375 
Q 47.125 51.421875 43.28125 58.90625 
Q 39.453125 66.40625 31.78125 66.40625 
z
M 31.78125 74.21875 
Q 44.046875 74.21875 50.515625 64.515625 
Q 56.984375 54.828125 56.984375 36.375 
Q 56.984375 17.96875 50.515625 8.265625 
Q 44.046875 -1.421875 31.78125 -1.421875 
Q 19.53125 -1.421875 13.0625 8.265625 
Q 6.59375 17.96875 6.59375 36.375 
Q 6.59375 54.828125 13.0625 64.515625 
Q 19.53125 74.21875 31.78125 74.21875 
z
" id="DejaVuSans-48"/>
       <path d="M 10.6875 12.40625 
L 21 12.40625 
L 21 0 
L 10.6875 0 
z
" id="DejaVuSans-46"/>
      </defs>
      <g transform="translate(201.037719 325.981656)scale(0.15 -0.15)">
       <use xlink:href="#DejaVuSans-48"/>
       <use x="63.623047" xlink:href="#DejaVuSans-46"/>
       <use x="95.410156" xlink:href="#DejaVuSans-48"/>
      </g>
     </g>
    </g>
    <g id="xtick_2">
     <g id="line2d_2">
      <g>
       <use style="stroke:#000000;stroke-width:0.8;" x="150.831881" xlink:href="#mb03f5c846c" y="307.584"/>
      </g>
     </g>
     <g id="text_2">
      <!-- 0.5 -->
      <defs>
       <path d="M 10.796875 72.90625 
L 49.515625 72.90625 
L 49.515625 64.59375 
L 19.828125 64.59375 
L 19.828125 46.734375 
Q 21.96875 47.46875 24.109375 47.828125 
Q 26.265625 48.1875 28.421875 48.1875 
Q 40.625 48.1875 47.75 41.5 
Q 54.890625 34.8125 54.890625 23.390625 
Q 54.890625 11.625 47.5625 5.09375 
Q 40.234375 -1.421875 26.90625 -1.421875 
Q 22.3125 -1.421875 17.546875 -0.640625 
Q 12.796875 0.140625 7.71875 1.703125 
L 7.71875 11.625 
Q 12.109375 9.234375 16.796875 8.0625 
Q 21.484375 6.890625 26.703125 6.890625 
Q 35.15625 6.890625 40.078125 11.328125 
Q 45.015625 15.765625 45.015625 23.390625 
Q 45.015625 31 40.078125 35.4375 
Q 35.15625 39.890625 26.703125 39.890625 
Q 22.75 39.890625 18.8125 39.015625 
Q 14.890625 38.140625 10.796875 36.28125 
z
" id="DejaVuSans-53"/>
      </defs>
      <g transform="translate(138.904537 325.981656)scale(0.15 -0.15)">
       <use xlink:href="#DejaVuSans-48"/>
       <use x="63.623047" xlink:href="#DejaVuSans-46"/>
       <use x="95.410156" xlink:href="#DejaVuSans-53"/>
      </g>
     </g>
    </g>
    <g id="xtick_3">
     <g id="line2d_3">
      <g>
       <use style="stroke:#000000;stroke-width:0.8;" x="88.698699" xlink:href="#mb03f5c846c" y="307.584"/>
      </g>
     </g>
     <g id="text_3">
      <!-- 1.0 -->
      <defs>
       <path d="M 12.40625 8.296875 
L 28.515625 8.296875 
L 28.515625 63.921875 
L 10.984375 60.40625 
L 10.984375 69.390625 
L 28.421875 72.90625 
L 38.28125 72.90625 
L 38.28125 8.296875 
L 54.390625 8.296875 
L 54.390625 0 
L 12.40625 0 
z
" id="DejaVuSans-49"/>
      </defs>
      <g transform="translate(76.771355 325.981656)scale(0.15 -0.15)">
       <use xlink:href="#DejaVuSans-49"/>
       <use x="63.623047" xlink:href="#DejaVuSans-46"/>
       <use x="95.410156" xlink:href="#DejaVuSans-48"/>
      </g>
     </g>
    </g>
    <g id="text_4">
     <!-- PDF -->
     <defs>
      <path d="M 19.671875 64.796875 
L 19.671875 37.40625 
L 32.078125 37.40625 
Q 38.96875 37.40625 42.71875 40.96875 
Q 46.484375 44.53125 46.484375 51.125 
Q 46.484375 57.671875 42.71875 61.234375 
Q 38.96875 64.796875 32.078125 64.796875 
z
M 9.8125 72.90625 
L 32.078125 72.90625 
Q 44.34375 72.90625 50.609375 67.359375 
Q 56.890625 61.8125 56.890625 51.125 
Q 56.890625 40.328125 50.609375 34.8125 
Q 44.34375 29.296875 32.078125 29.296875 
L 19.671875 29.296875 
L 19.671875 0 
L 9.8125 0 
z
" id="DejaVuSans-80"/>
      <path d="M 19.671875 64.796875 
L 19.671875 8.109375 
L 31.59375 8.109375 
Q 46.6875 8.109375 53.6875 14.9375 
Q 60.6875 21.78125 60.6875 36.53125 
Q 60.6875 51.171875 53.6875 57.984375 
Q 46.6875 64.796875 31.59375 64.796875 
z
M 9.8125 72.90625 
L 30.078125 72.90625 
Q 51.265625 72.90625 61.171875 64.09375 
Q 71.09375 55.28125 71.09375 36.53125 
Q 71.09375 17.671875 61.125 8.828125 
Q 51.171875 0 30.078125 0 
L 9.8125 0 
z
" id="DejaVuSans-68"/>
      <path d="M 9.8125 72.90625 
L 51.703125 72.90625 
L 51.703125 64.59375 
L 19.671875 64.59375 
L 19.671875 43.109375 
L 48.578125 43.109375 
L 48.578125 34.8125 
L 19.671875 34.8125 
L 19.671875 0 
L 9.8125 0 
z
" id="DejaVuSans-70"/>
     </defs>
     <g transform="translate(122.204574 346.018531)scale(0.17 -0.17)">
      <use xlink:href="#DejaVuSans-80"/>
      <use x="60.302734" xlink:href="#DejaVuSans-68"/>
      <use x="137.304688" xlink:href="#DejaVuSans-70"/>
     </g>
    </g>
   </g>
   <g id="matplotlib.axis_2">
    <g id="ytick_1">
     <g id="line2d_4">
      <defs>
       <path d="M 0 0 
L -3.5 0 
" id="m15f55385ab" style="stroke:#000000;stroke-width:0.8;"/>
      </defs>
      <g>
       <use style="stroke:#000000;stroke-width:0.8;" x="57.6" xlink:href="#m15f55385ab" y="295.488"/>
      </g>
     </g>
     <g id="text_5">
      <!-- 0.0 -->
      <g transform="translate(26.745313 301.186828)scale(0.15 -0.15)">
       <use xlink:href="#DejaVuSans-48"/>
       <use x="63.623047" xlink:href="#DejaVuSans-46"/>
       <use x="95.410156" xlink:href="#DejaVuSans-48"/>
      </g>
     </g>
    </g>
    <g id="ytick_2">
     <g id="line2d_5">
      <g>
       <use style="stroke:#000000;stroke-width:0.8;" x="57.6" xlink:href="#m15f55385ab" y="255.943309"/>
      </g>
     </g>
     <g id="text_6">
      <!-- 0.5 -->
      <g transform="translate(26.745313 261.642137)scale(0.15 -0.15)">
       <use xlink:href="#DejaVuSans-48"/>
       <use x="63.623047" xlink:href="#DejaVuSans-46"/>
       <use x="95.410156" xlink:href="#DejaVuSans-53"/>
      </g>
     </g>
    </g>
    <g id="ytick_3">
     <g id="line2d_6">
      <g>
       <use style="stroke:#000000;stroke-width:0.8;" x="57.6" xlink:href="#m15f55385ab" y="216.398618"/>
      </g>
     </g>
     <g id="text_7">
      <!-- 1.0 -->
      <g transform="translate(26.745313 222.097446)scale(0.15 -0.15)">
       <use xlink:href="#DejaVuSans-49"/>
       <use x="63.623047" xlink:href="#DejaVuSans-46"/>
       <use x="95.410156" xlink:href="#DejaVuSans-48"/>
      </g>
     </g>
    </g>
    <g id="ytick_4">
     <g id="line2d_7">
      <g>
       <use style="stroke:#000000;stroke-width:0.8;" x="57.6" xlink:href="#m15f55385ab" y="176.853927"/>
      </g>
     </g>
     <g id="text_8">
      <!-- 1.5 -->
      <g transform="translate(26.745313 182.552755)scale(0.15 -0.15)">
       <use xlink:href="#DejaVuSans-49"/>
       <use x="63.623047" xlink:href="#DejaVuSans-46"/>
       <use x="95.410156" xlink:href="#DejaVuSans-53"/>
      </g>
     </g>
    </g>
    <g id="ytick_5">
     <g id="line2d_8">
      <g>
       <use style="stroke:#000000;stroke-width:0.8;" x="57.6" xlink:href="#m15f55385ab" y="137.309236"/>
      </g>
     </g>
     <g id="text_9">
      <!-- 2.0 -->
      <defs>
       <path d="M 19.1875 8.296875 
L 53.609375 8.296875 
L 53.609375 0 
L 7.328125 0 
L 7.328125 8.296875 
Q 12.9375 14.109375 22.625 23.890625 
Q 32.328125 33.6875 34.8125 36.53125 
Q 39.546875 41.84375 41.421875 45.53125 
Q 43.3125 49.21875 43.3125 52.78125 
Q 43.3125 58.59375 39.234375 62.25 
Q 35.15625 65.921875 28.609375 65.921875 
Q 23.96875 65.921875 18.8125 64.3125 
Q 13.671875 62.703125 7.8125 59.421875 
L 7.8125 69.390625 
Q 13.765625 71.78125 18.9375 73 
Q 24.125 74.21875 28.421875 74.21875 
Q 39.75 74.21875 46.484375 68.546875 
Q 53.21875 62.890625 53.21875 53.421875 
Q 53.21875 48.921875 51.53125 44.890625 
Q 49.859375 40.875 45.40625 35.40625 
Q 44.1875 33.984375 37.640625 27.21875 
Q 31.109375 20.453125 19.1875 8.296875 
z
" id="DejaVuSans-50"/>
      </defs>
      <g transform="translate(26.745313 143.008064)scale(0.15 -0.15)">
       <use xlink:href="#DejaVuSans-50"/>
       <use x="63.623047" xlink:href="#DejaVuSans-46"/>
       <use x="95.410156" xlink:href="#DejaVuSans-48"/>
      </g>
     </g>
    </g>
    <g id="ytick_6">
     <g id="line2d_9">
      <g>
       <use style="stroke:#000000;stroke-width:0.8;" x="57.6" xlink:href="#m15f55385ab" y="97.764544"/>
      </g>
     </g>
     <g id="text_10">
      <!-- 2.5 -->
      <g transform="translate(26.745313 103.463373)scale(0.15 -0.15)">
       <use xlink:href="#DejaVuSans-50"/>
       <use x="63.623047" xlink:href="#DejaVuSans-46"/>
       <use x="95.410156" xlink:href="#DejaVuSans-53"/>
      </g>
     </g>
    </g>
    <g id="ytick_7">
     <g id="line2d_10">
      <g>
       <use style="stroke:#000000;stroke-width:0.8;" x="57.6" xlink:href="#m15f55385ab" y="58.219853"/>
      </g>
     </g>
     <g id="text_11">
      <!-- 3.0 -->
      <defs>
       <path d="M 40.578125 39.3125 
Q 47.65625 37.796875 51.625 33 
Q 55.609375 28.21875 55.609375 21.1875 
Q 55.609375 10.40625 48.1875 4.484375 
Q 40.765625 -1.421875 27.09375 -1.421875 
Q 22.515625 -1.421875 17.65625 -0.515625 
Q 12.796875 0.390625 7.625 2.203125 
L 7.625 11.71875 
Q 11.71875 9.328125 16.59375 8.109375 
Q 21.484375 6.890625 26.8125 6.890625 
Q 36.078125 6.890625 40.9375 10.546875 
Q 45.796875 14.203125 45.796875 21.1875 
Q 45.796875 27.640625 41.28125 31.265625 
Q 36.765625 34.90625 28.71875 34.90625 
L 20.21875 34.90625 
L 20.21875 43.015625 
L 29.109375 43.015625 
Q 36.375 43.015625 40.234375 45.921875 
Q 44.09375 48.828125 44.09375 54.296875 
Q 44.09375 59.90625 40.109375 62.90625 
Q 36.140625 65.921875 28.71875 65.921875 
Q 24.65625 65.921875 20.015625 65.03125 
Q 15.375 64.15625 9.8125 62.3125 
L 9.8125 71.09375 
Q 15.4375 72.65625 20.34375 73.4375 
Q 25.25 74.21875 29.59375 74.21875 
Q 40.828125 74.21875 47.359375 69.109375 
Q 53.90625 64.015625 53.90625 55.328125 
Q 53.90625 49.265625 50.4375 45.09375 
Q 46.96875 40.921875 40.578125 39.3125 
z
" id="DejaVuSans-51"/>
      </defs>
      <g transform="translate(26.745313 63.918682)scale(0.15 -0.15)">
       <use xlink:href="#DejaVuSans-51"/>
       <use x="63.623047" xlink:href="#DejaVuSans-46"/>
       <use x="95.410156" xlink:href="#DejaVuSans-48"/>
      </g>
     </g>
    </g>
    <g id="text_12">
     <!-- Velocity (m/s) -->
     <defs>
      <path d="M 28.609375 0 
L 0.78125 72.90625 
L 11.078125 72.90625 
L 34.1875 11.53125 
L 57.328125 72.90625 
L 67.578125 72.90625 
L 39.796875 0 
z
" id="DejaVuSans-86"/>
      <path d="M 56.203125 29.59375 
L 56.203125 25.203125 
L 14.890625 25.203125 
Q 15.484375 15.921875 20.484375 11.0625 
Q 25.484375 6.203125 34.421875 6.203125 
Q 39.59375 6.203125 44.453125 7.46875 
Q 49.3125 8.734375 54.109375 11.28125 
L 54.109375 2.78125 
Q 49.265625 0.734375 44.1875 -0.34375 
Q 39.109375 -1.421875 33.890625 -1.421875 
Q 20.796875 -1.421875 13.15625 6.1875 
Q 5.515625 13.8125 5.515625 26.8125 
Q 5.515625 40.234375 12.765625 48.109375 
Q 20.015625 56 32.328125 56 
Q 43.359375 56 49.78125 48.890625 
Q 56.203125 41.796875 56.203125 29.59375 
z
M 47.21875 32.234375 
Q 47.125 39.59375 43.09375 43.984375 
Q 39.0625 48.390625 32.421875 48.390625 
Q 24.90625 48.390625 20.390625 44.140625 
Q 15.875 39.890625 15.1875 32.171875 
z
" id="DejaVuSans-101"/>
      <path d="M 9.421875 75.984375 
L 18.40625 75.984375 
L 18.40625 0 
L 9.421875 0 
z
" id="DejaVuSans-108"/>
      <path d="M 30.609375 48.390625 
Q 23.390625 48.390625 19.1875 42.75 
Q 14.984375 37.109375 14.984375 27.296875 
Q 14.984375 17.484375 19.15625 11.84375 
Q 23.34375 6.203125 30.609375 6.203125 
Q 37.796875 6.203125 41.984375 11.859375 
Q 46.1875 17.53125 46.1875 27.296875 
Q 46.1875 37.015625 41.984375 42.703125 
Q 37.796875 48.390625 30.609375 48.390625 
z
M 30.609375 56 
Q 42.328125 56 49.015625 48.375 
Q 55.71875 40.765625 55.71875 27.296875 
Q 55.71875 13.875 49.015625 6.21875 
Q 42.328125 -1.421875 30.609375 -1.421875 
Q 18.84375 -1.421875 12.171875 6.21875 
Q 5.515625 13.875 5.515625 27.296875 
Q 5.515625 40.765625 12.171875 48.375 
Q 18.84375 56 30.609375 56 
z
" id="DejaVuSans-111"/>
      <path d="M 48.78125 52.59375 
L 48.78125 44.1875 
Q 44.96875 46.296875 41.140625 47.34375 
Q 37.3125 48.390625 33.40625 48.390625 
Q 24.65625 48.390625 19.8125 42.84375 
Q 14.984375 37.3125 14.984375 27.296875 
Q 14.984375 17.28125 19.8125 11.734375 
Q 24.65625 6.203125 33.40625 6.203125 
Q 37.3125 6.203125 41.140625 7.25 
Q 44.96875 8.296875 48.78125 10.40625 
L 48.78125 2.09375 
Q 45.015625 0.34375 40.984375 -0.53125 
Q 36.96875 -1.421875 32.421875 -1.421875 
Q 20.0625 -1.421875 12.78125 6.34375 
Q 5.515625 14.109375 5.515625 27.296875 
Q 5.515625 40.671875 12.859375 48.328125 
Q 20.21875 56 33.015625 56 
Q 37.15625 56 41.109375 55.140625 
Q 45.0625 54.296875 48.78125 52.59375 
z
" id="DejaVuSans-99"/>
      <path d="M 9.421875 54.6875 
L 18.40625 54.6875 
L 18.40625 0 
L 9.421875 0 
z
M 9.421875 75.984375 
L 18.40625 75.984375 
L 18.40625 64.59375 
L 9.421875 64.59375 
z
" id="DejaVuSans-105"/>
      <path d="M 18.3125 70.21875 
L 18.3125 54.6875 
L 36.8125 54.6875 
L 36.8125 47.703125 
L 18.3125 47.703125 
L 18.3125 18.015625 
Q 18.3125 11.328125 20.140625 9.421875 
Q 21.96875 7.515625 27.59375 7.515625 
L 36.8125 7.515625 
L 36.8125 0 
L 27.59375 0 
Q 17.1875 0 13.234375 3.875 
Q 9.28125 7.765625 9.28125 18.015625 
L 9.28125 47.703125 
L 2.6875 47.703125 
L 2.6875 54.6875 
L 9.28125 54.6875 
L 9.28125 70.21875 
z
" id="DejaVuSans-116"/>
      <path d="M 32.171875 -5.078125 
Q 28.375 -14.84375 24.75 -17.8125 
Q 21.140625 -20.796875 15.09375 -20.796875 
L 7.90625 -20.796875 
L 7.90625 -13.28125 
L 13.1875 -13.28125 
Q 16.890625 -13.28125 18.9375 -11.515625 
Q 21 -9.765625 23.484375 -3.21875 
L 25.09375 0.875 
L 2.984375 54.6875 
L 12.5 54.6875 
L 29.59375 11.921875 
L 46.6875 54.6875 
L 56.203125 54.6875 
z
" id="DejaVuSans-121"/>
      <path id="DejaVuSans-32"/>
      <path d="M 31 75.875 
Q 24.46875 64.65625 21.28125 53.65625 
Q 18.109375 42.671875 18.109375 31.390625 
Q 18.109375 20.125 21.3125 9.0625 
Q 24.515625 -2 31 -13.1875 
L 23.1875 -13.1875 
Q 15.875 -1.703125 12.234375 9.375 
Q 8.59375 20.453125 8.59375 31.390625 
Q 8.59375 42.28125 12.203125 53.3125 
Q 15.828125 64.359375 23.1875 75.875 
z
" id="DejaVuSans-40"/>
      <path d="M 52 44.1875 
Q 55.375 50.25 60.0625 53.125 
Q 64.75 56 71.09375 56 
Q 79.640625 56 84.28125 50.015625 
Q 88.921875 44.046875 88.921875 33.015625 
L 88.921875 0 
L 79.890625 0 
L 79.890625 32.71875 
Q 79.890625 40.578125 77.09375 44.375 
Q 74.3125 48.1875 68.609375 48.1875 
Q 61.625 48.1875 57.5625 43.546875 
Q 53.515625 38.921875 53.515625 30.90625 
L 53.515625 0 
L 44.484375 0 
L 44.484375 32.71875 
Q 44.484375 40.625 41.703125 44.40625 
Q 38.921875 48.1875 33.109375 48.1875 
Q 26.21875 48.1875 22.15625 43.53125 
Q 18.109375 38.875 18.109375 30.90625 
L 18.109375 0 
L 9.078125 0 
L 9.078125 54.6875 
L 18.109375 54.6875 
L 18.109375 46.1875 
Q 21.1875 51.21875 25.484375 53.609375 
Q 29.78125 56 35.6875 56 
Q 41.65625 56 45.828125 52.96875 
Q 50 49.953125 52 44.1875 
z
" id="DejaVuSans-109"/>
      <path d="M 25.390625 72.90625 
L 33.6875 72.90625 
L 8.296875 -9.28125 
L 0 -9.28125 
z
" id="DejaVuSans-47"/>
      <path d="M 44.28125 53.078125 
L 44.28125 44.578125 
Q 40.484375 46.53125 36.375 47.5 
Q 32.28125 48.484375 27.875 48.484375 
Q 21.1875 48.484375 17.84375 46.4375 
Q 14.5 44.390625 14.5 40.28125 
Q 14.5 37.15625 16.890625 35.375 
Q 19.28125 33.59375 26.515625 31.984375 
L 29.59375 31.296875 
Q 39.15625 29.25 43.1875 25.515625 
Q 47.21875 21.78125 47.21875 15.09375 
Q 47.21875 7.46875 41.1875 3.015625 
Q 35.15625 -1.421875 24.609375 -1.421875 
Q 20.21875 -1.421875 15.453125 -0.5625 
Q 10.6875 0.296875 5.421875 2 
L 5.421875 11.28125 
Q 10.40625 8.6875 15.234375 7.390625 
Q 20.0625 6.109375 24.8125 6.109375 
Q 31.15625 6.109375 34.5625 8.28125 
Q 37.984375 10.453125 37.984375 14.40625 
Q 37.984375 18.0625 35.515625 20.015625 
Q 33.0625 21.96875 24.703125 23.78125 
L 21.578125 24.515625 
Q 13.234375 26.265625 9.515625 29.90625 
Q 5.8125 33.546875 5.8125 39.890625 
Q 5.8125 47.609375 11.28125 51.796875 
Q 16.75 56 26.8125 56 
Q 31.78125 56 36.171875 55.265625 
Q 40.578125 54.546875 44.28125 53.078125 
z
" id="DejaVuSans-115"/>
      <path d="M 8.015625 75.875 
L 15.828125 75.875 
Q 23.140625 64.359375 26.78125 53.3125 
Q 30.421875 42.28125 30.421875 31.390625 
Q 30.421875 20.453125 26.78125 9.375 
Q 23.140625 -1.703125 15.828125 -13.1875 
L 8.015625 -13.1875 
Q 14.5 -2 17.703125 9.0625 
Q 20.90625 20.125 20.90625 31.390625 
Q 20.90625 42.671875 17.703125 53.65625 
Q 14.5 64.65625 8.015625 75.875 
z
" id="DejaVuSans-41"/>
     </defs>
     <g transform="translate(19.209844 232.779562)rotate(-90)scale(0.17 -0.17)">
      <use xlink:href="#DejaVuSans-86"/>
      <use x="60.658203" xlink:href="#DejaVuSans-101"/>
      <use x="122.181641" xlink:href="#DejaVuSans-108"/>
      <use x="149.964844" xlink:href="#DejaVuSans-111"/>
      <use x="211.146484" xlink:href="#DejaVuSans-99"/>
      <use x="266.126953" xlink:href="#DejaVuSans-105"/>
      <use x="293.910156" xlink:href="#DejaVuSans-116"/>
      <use x="333.119141" xlink:href="#DejaVuSans-121"/>
      <use x="392.298828" xlink:href="#DejaVuSans-32"/>
      <use x="424.085938" xlink:href="#DejaVuSans-40"/>
      <use x="463.099609" xlink:href="#DejaVuSans-109"/>
      <use x="560.511719" xlink:href="#DejaVuSans-47"/>
      <use x="594.203125" xlink:href="#DejaVuSans-115"/>
      <use x="646.302734" xlink:href="#DejaVuSans-41"/>
     </g>
    </g>
   </g>
   <g id="line2d_11">
    <path clip-path="url(#p77caa3c26a)" d="M 95.002835 295.488 
L 64.978512 293.428915 
L 118.488528 291.36983 
L 131.165464 289.310745 
L 138.638184 287.25166 
L 150.647913 285.192575 
L 147.311877 283.13349 
L 142.374544 281.074405 
L 147.311877 279.01532 
L 147.57876 276.956235 
L 154.784598 274.89715 
L 160.122255 272.838065 
L 162.924525 270.77898 
L 161.189787 268.719895 
L 161.590111 266.66081 
L 159.321606 264.601725 
L 160.789462 262.54264 
L 159.321606 260.483555 
L 160.922904 258.42447 
L 158.387516 256.365385 
L 160.389138 254.3063 
L 160.122255 252.247215 
L 154.117391 250.18813 
L 155.852129 248.129045 
L 153.850508 246.06996 
L 152.516093 244.010875 
L 151.715445 241.95179 
L 152.382652 239.892705 
L 147.712202 237.83362 
L 146.110904 235.774535 
L 140.773247 233.71545 
L 137.837536 231.656365 
L 135.302148 229.59728 
L 129.964491 227.538195 
L 140.10604 225.47911 
L 148.779733 223.420025 
L 153.583625 221.36094 
L 145.71058 219.301855 
L 150.247589 217.24277 
L 149.180057 215.183685 
L 140.639806 213.1246 
L 137.704094 211.065515 
L 136.36968 209.00643 
L 148.112526 206.947345 
L 158.254075 204.88826 
L 159.321606 202.829175 
L 157.186544 200.77009 
L 154.384273 198.711005 
L 152.782976 196.65192 
L 154.784598 194.592835 
L 151.31512 192.53375 
L 155.051481 190.474665 
L 153.1833 188.41558 
L 161.456669 186.356495 
L 159.321606 184.29741 
L 164.659264 182.238325 
L 160.522579 180.17924 
L 153.850508 178.120155 
L 151.715445 176.06107 
L 148.913175 174.001985 
L 147.311877 171.9429 
L 147.178436 169.883815 
L 155.184922 167.82473 
L 151.982328 165.765645 
L 161.723552 163.70656 
L 169.062831 161.647475 
L 177.736524 159.58839 
L 174.400489 157.529305 
L 180.405353 155.47022 
L 180.005029 153.411135 
L 180.005029 151.35205 
L 177.736524 149.292965 
L 184.542038 147.23388 
L 186.543659 145.174795 
L 182.94074 143.11571 
L 185.075803 141.056625 
L 187.744632 138.99754 
L 187.077425 136.938455 
L 193.215731 134.87937 
L 197.218974 132.820285 
L 196.018001 130.7612 
L 199.62092 128.702115 
L 200.421568 126.64303 
L 202.823514 124.583945 
L 203.757604 122.52486 
L 202.289748 120.465775 
L 201.222217 118.40669 
L 205.092018 116.347605 
L 205.092018 114.28852 
L 205.22546 112.229435 
L 205.22546 110.17035 
L 205.492343 108.111265 
L 205.358901 106.05218 
L 207.09364 103.993095 
L 207.760847 101.93401 
L 209.762469 99.874925 
L 210.696559 97.81584 
L 210.963442 95.756755 
L 210.83 93.69767 
" style="fill:none;stroke:#5a0003;stroke-linecap:square;stroke-width:3;"/>
   </g>
   <g id="line2d_12">
    <path clip-path="url(#p77caa3c26a)" d="M 211.976594 295.488 
L 210.49389 293.626285 
L 207.034247 291.764571 
L 203.574605 289.902856 
L 203.245115 288.041141 
L 203.574605 286.179426 
L 199.291238 284.317712 
L 202.915626 282.455997 
L 200.773942 280.594282 
L 197.149555 278.732567 
L 190.065525 276.870853 
L 192.042464 275.009138 
L 189.571291 273.147423 
L 187.429607 271.285709 
L 188.747566 269.423994 
L 180.345577 267.562279 
L 183.80522 265.700564 
L 179.521853 263.83885 
L 181.169302 261.977135 
L 176.062211 260.11542 
L 178.533384 258.253705 
L 176.062211 256.391991 
L 177.215425 254.530276 
L 173.426293 252.668561 
L 171.778844 250.806847 
L 169.96665 248.945132 
L 166.012773 247.083417 
L 165.518538 245.221702 
L 166.836498 243.359988 
L 166.342263 241.498273 
L 166.342263 239.636558 
L 159.752468 237.774844 
L 163.87109 235.913129 
L 167.989712 234.051414 
L 163.376855 232.189699 
L 160.411447 230.327985 
L 163.047365 228.46627 
L 166.507008 226.604555 
L 160.081958 224.74284 
L 156.128081 222.881126 
L 167.001242 221.019411 
L 160.246702 219.157696 
L 159.587723 217.295982 
L 152.668438 215.434267 
L 159.422978 213.572552 
L 162.223641 211.710837 
L 151.350479 209.849123 
L 152.997928 207.987408 
L 154.645377 206.125693 
L 152.174203 204.263978 
L 149.044051 202.402264 
L 146.408133 200.540549 
L 148.220326 198.678834 
L 145.584408 196.81712 
L 144.101704 194.955405 
L 144.595939 193.09369 
L 137.017675 191.231975 
L 138.006144 189.370261 
L 134.711247 187.508546 
L 132.734308 185.646831 
L 130.592625 183.785116 
L 123.67334 181.923402 
L 126.638748 180.061687 
L 110.16426 178.199972 
L 108.516811 176.338258 
L 97.314159 174.476543 
L 92.536558 172.614828 
L 96.490435 170.753113 
L 94.513497 168.891399 
L 83.969824 167.029684 
L 79.851202 165.167969 
L 69.472275 163.306254 
L 92.207068 161.44454 
L 81.169162 159.582825 
L 69.63702 157.72111 
L 99.785333 155.859396 
L 108.352066 153.997681 
L 143.442725 152.135966 
L 151.515224 150.274251 
L 153.327418 148.412537 
L 152.174203 146.550822 
L 157.44604 144.689107 
L 155.963336 142.827392 
L 162.553131 140.965678 
L 167.001242 139.103963 
L 165.683283 137.242248 
L 168.978181 135.380534 
L 179.521853 133.518819 
L 185.782158 131.657104 
L 189.406546 129.795389 
L 193.030933 127.933675 
L 191.548229 126.07196 
L 192.536698 124.210245 
L 193.854657 122.348531 
L 195.996341 120.486816 
L 197.973279 118.625101 
L 204.563074 116.763386 
L 208.022717 114.901672 
L 208.516951 113.039957 
" style="fill:none;stroke:#ffcc7b;stroke-dasharray:1.5,2.475;stroke-dashoffset:0;stroke-width:1.5;"/>
   </g>
   <g id="line2d_13">
    <path clip-path="url(#p77caa3c26a)" d="M 198.116933 295.488 
L 194.092673 293.350546 
L 189.790879 291.213092 
L 180.909754 289.075637 
L 179.383311 286.938183 
L 179.383311 284.800729 
L 180.770987 282.663275 
L 182.158662 280.525821 
L 182.991268 278.388367 
L 178.689473 276.250912 
L 178.967008 274.113458 
L 179.799614 271.976004 
L 175.636586 269.83855 
L 172.306165 267.701096 
L 171.473559 265.563641 
L 170.502186 263.426187 
L 165.506554 261.288733 
L 174.526446 259.151279 
L 170.363419 257.013825 
L 169.392046 254.876371 
L 168.698208 252.738916 
L 170.918489 250.601462 
L 163.980111 248.464008 
L 162.731202 246.326554 
L 167.588067 244.1891 
L 165.922857 242.051645 
L 164.118878 239.914191 
L 163.980111 237.776737 
L 165.506554 235.639283 
L 164.118878 233.501829 
L 166.200392 231.364375 
L 161.898597 229.22692 
L 161.204759 227.089466 
L 163.563808 224.952012 
L 161.621062 222.814558 
L 155.376521 220.677104 
L 158.84571 218.539649 
L 153.15624 216.402195 
L 153.295008 214.264741 
L 153.71131 212.127287 
L 145.107721 209.989833 
L 146.079094 207.852378 
L 146.217861 205.714924 
L 145.940326 203.57747 
L 145.107721 201.440016 
L 144.968953 199.302562 
L 137.614272 197.165108 
L 144.968953 195.027653 
L 142.471137 192.890199 
L 142.332369 190.752745 
L 132.479872 188.615291 
L 130.814661 186.477837 
L 128.03931 184.340382 
L 129.426985 182.202928 
L 124.847656 180.065474 
L 122.90491 177.92802 
L 125.819029 175.790566 
L 122.211072 173.653112 
L 124.431353 171.515657 
L 120.684628 169.378203 
L 121.517234 167.240749 
L 126.096564 165.103295 
L 124.431353 162.965841 
L 131.092196 160.828386 
L 127.067937 158.690932 
L 139.557018 156.553478 
L 138.30811 154.416024 
L 147.328002 152.27857 
L 148.993213 150.141116 
L 152.739937 148.003661 
L 161.065992 145.866207 
L 159.400781 143.728753 
L 163.702575 141.591299 
L 164.535181 139.453845 
L 167.171765 137.31639 
L 173.832608 135.178936 
L 172.722467 133.041482 
L 178.411938 130.904028 
L 180.909754 128.766574 
L 184.101408 126.62912 
L 189.374576 124.491665 
L 192.427463 122.354211 
L 194.370209 120.216757 
L 196.729257 118.079303 
L 199.643376 115.941849 
L 201.447355 113.804394 
L 202.973798 111.66694 
L 206.30422 109.529486 
L 208.385733 107.392032 
L 207.830663 105.254578 
L 209.218339 103.117124 
L 210.328479 100.979669 
L 210.328479 98.842215 
L 210.050944 96.704761 
L 210.189712 94.567307 
L 212.409993 92.429853 
L 211.99369 90.292398 
L 212.271225 88.154944 
L 212.54876 86.01749 
" style="fill:none;stroke:#e6a346;stroke-dasharray:5.55,2.4;stroke-dashoffset:0;stroke-width:1.5;"/>
   </g>
   <g id="line2d_14">
    <path clip-path="url(#p77caa3c26a)" d="M 175.833053 295.488 
L 159.699016 293.019429 
L 174.765359 290.550857 
L 164.207056 288.082286 
L 158.987221 285.613714 
L 172.392707 283.145143 
L 169.189626 280.676571 
L 176.307583 278.208 
L 176.188951 275.739429 
L 177.612542 273.270857 
L 177.612542 270.802286 
L 177.96844 268.333714 
L 179.154766 265.865143 
L 173.697666 263.396571 
L 163.732525 260.928 
L 161.122608 258.459429 
L 163.49526 255.990857 
L 168.47783 253.522286 
L 166.579708 251.053714 
L 169.070993 248.585143 
L 170.850483 246.116571 
L 165.986545 243.648 
L 167.884667 241.179429 
L 168.0033 238.710857 
L 167.410137 236.242286 
L 162.190301 233.773714 
L 163.969791 231.305143 
L 162.427567 228.836571 
L 161.715771 226.368 
L 158.868588 223.899429 
L 159.699016 221.430857 
L 158.275425 218.962286 
L 155.190977 216.493714 
L 154.953711 214.025143 
L 149.377978 211.556571 
L 147.242591 209.088 
L 147.123958 206.619429 
L 143.090449 204.150857 
L 144.276776 201.682286 
L 143.920878 199.213714 
L 146.530795 196.745143 
L 141.548225 194.276571 
L 141.429593 191.808 
L 137.870614 189.339429 
L 129.566331 186.870857 
L 122.448373 184.402286 
L 128.61727 181.933714 
L 128.261372 179.465143 
L 134.548901 176.996571 
L 136.32839 174.528 
L 133.362574 172.059429 
L 140.480532 169.590857 
L 137.514716 167.122286 
L 135.260696 164.653714 
L 139.175573 162.185143 
L 134.548901 159.716571 
L 137.989247 157.248 
L 148.903448 154.779429 
L 151.869263 152.310857 
L 160.173547 149.842286 
L 175.477155 147.373714 
L 180.341092 144.905143 
L 181.883316 142.436571 
L 177.375277 139.968 
L 178.917501 137.499429 
L 178.205705 135.030857 
L 176.307583 132.562286 
L 171.206381 130.093714 
L 185.323662 127.625143 
L 192.560252 125.156571 
L 194.221109 122.688 
L 199.203679 120.219429 
L 198.491883 117.750857 
L 197.305557 115.282286 
L 199.67821 112.813714 
L 200.390005 110.345143 
L 198.491883 107.876571 
L 202.40676 105.408 
L 201.932229 102.939429 
L 204.66078 100.470857 
L 205.728473 98.002286 
L 206.084371 95.533714 
L 206.558902 93.065143 
L 208.575656 90.596571 
L 208.575656 88.128 
L 210.473778 85.659429 
L 209.761982 83.190857 
L 210.473778 80.722286 
L 209.524717 78.253714 
L 210.473778 75.785143 
L 210.11788 73.316571 
L 210.355145 70.848 
L 210.355145 68.379429 
L 209.999248 65.910857 
L 210.473778 63.442286 
L 210.592411 60.973714 
L 210.948308 58.505143 
L 211.541472 56.036571 
L 212.253267 53.568 
" style="fill:none;stroke:#b45a28;stroke-dasharray:9.6,2.4,1.5,2.4;stroke-dashoffset:0;stroke-width:1.5;"/>
   </g>
   <g id="line2d_15">
    <path clip-path="url(#p77caa3c26a)" d="M 209.298187 295.488 
L 196.404979 293.122107 
L 186.350642 290.756214 
L 182.328907 288.39032 
L 175.113442 286.024427 
L 177.242596 283.658534 
L 174.048865 281.292641 
L 172.274571 278.926748 
L 172.866002 276.560855 
L 168.844267 274.194961 
L 164.822533 271.829068 
L 162.929952 269.463175 
L 159.14479 267.097282 
L 160.919084 264.731389 
L 152.165897 262.365496 
L 150.391602 259.999602 
L 157.370495 257.633709 
L 155.123055 255.267816 
L 150.864747 252.901923 
L 151.456179 250.53603 
L 151.574465 248.170137 
L 151.811038 245.804243 
L 159.972794 243.43835 
L 161.273943 241.072457 
L 158.908217 238.706564 
L 159.736221 236.340671 
L 159.026503 233.974778 
L 158.435072 231.608884 
L 162.33852 229.242991 
L 157.607067 226.877098 
L 158.671644 224.511205 
L 152.993901 222.145312 
L 156.89735 219.779419 
L 145.187004 217.413525 
L 143.294423 215.047632 
L 141.520129 212.681739 
L 141.283556 210.315846 
L 147.434444 207.949953 
L 146.015009 205.58406 
L 142.11156 203.218166 
L 141.283556 200.852273 
L 139.036116 198.48638 
L 141.638415 196.120487 
L 140.455552 193.754594 
L 135.250954 191.388701 
L 134.541236 189.022807 
L 138.562971 186.656914 
L 140.337265 184.291021 
L 141.638415 181.925128 
L 141.874988 179.559235 
L 146.488154 177.193342 
L 145.66015 174.827448 
L 145.068718 172.461555 
L 143.530996 170.095662 
L 154.413337 167.729769 
L 157.961926 165.363876 
L 162.33852 162.997982 
L 167.306545 160.632089 
L 170.736848 158.266196 
L 175.468301 155.900303 
L 175.113442 153.53441 
L 176.059733 151.168517 
L 178.0706 148.802623 
L 176.887737 146.43673 
L 180.672899 144.070837 
L 181.382617 141.704944 
L 181.146044 139.339051 
L 183.630057 136.973158 
L 183.156912 134.607264 
L 187.888364 132.241371 
L 186.823787 129.875478 
L 183.866629 127.509585 
L 188.952941 125.143692 
L 188.598082 122.777799 
L 187.178646 120.411905 
L 187.651792 118.046012 
L 188.243223 115.680119 
L 189.071227 113.314226 
L 190.727236 110.948333 
L 190.135804 108.58244 
L 193.684394 106.216546 
L 191.673526 103.850653 
L 193.80268 101.48476 
L 190.490663 99.118867 
L 190.963808 96.752974 
L 194.394112 94.387081 
L 197.351269 92.021187 
L 201.609577 89.655294 
L 205.513025 87.289401 
L 204.566735 84.923508 
L 204.685021 82.557615 
L 205.749598 80.191722 
L 208.706756 77.825828 
L 208.825042 75.459935 
L 210.007905 73.094042 
L 210.244478 70.728149 
L 209.771333 68.362256 
L 211.190768 65.996363 
L 211.309055 63.630469 
" style="fill:none;stroke:#7d1e0b;stroke-linecap:square;stroke-width:1.5;"/>
   </g>
   <g id="patch_3">
    <path d="M 57.6 307.584 
L 57.6 41.472 
" style="fill:none;stroke:#000000;stroke-linecap:square;stroke-linejoin:miter;stroke-width:0.8;"/>
   </g>
   <g id="patch_4">
    <path d="M 219.927273 307.584 
L 219.927273 41.472 
" style="fill:none;stroke:#000000;stroke-linecap:square;stroke-linejoin:miter;stroke-width:0.8;"/>
   </g>
   <g id="patch_5">
    <path d="M 57.6 307.584 
L 219.927273 307.584 
" style="fill:none;stroke:#000000;stroke-linecap:square;stroke-linejoin:miter;stroke-width:0.8;"/>
   </g>
   <g id="patch_6">
    <path d="M 57.6 41.472 
L 219.927273 41.472 
" style="fill:none;stroke:#000000;stroke-linecap:square;stroke-linejoin:miter;stroke-width:0.8;"/>
   </g>
  </g>
  <g id="axes_2">
   <g id="patch_7">
    <path d="M 252.392727 307.584 
L 414.72 307.584 
L 414.72 41.472 
L 252.392727 41.472 
z
" style="fill:#ffffff;"/>
   </g>
   <g id="matplotlib.axis_3">
    <g id="xtick_4">
     <g id="line2d_16">
      <g>
       <use style="stroke:#000000;stroke-width:0.8;" x="259.743603" xlink:href="#mb03f5c846c" y="307.584"/>
      </g>
     </g>
     <g id="text_13">
      <!-- 0.0 -->
      <g transform="translate(247.816259 325.981656)scale(0.15 -0.15)">
       <use xlink:href="#DejaVuSans-48"/>
       <use x="63.623047" xlink:href="#DejaVuSans-46"/>
       <use x="95.410156" xlink:href="#DejaVuSans-48"/>
      </g>
     </g>
    </g>
    <g id="xtick_5">
     <g id="line2d_17">
      <g>
       <use style="stroke:#000000;stroke-width:0.8;" x="333.542545" xlink:href="#mb03f5c846c" y="307.584"/>
      </g>
     </g>
     <g id="text_14">
      <!-- 0.5 -->
      <g transform="translate(321.615202 325.981656)scale(0.15 -0.15)">
       <use xlink:href="#DejaVuSans-48"/>
       <use x="63.623047" xlink:href="#DejaVuSans-46"/>
       <use x="95.410156" xlink:href="#DejaVuSans-53"/>
      </g>
     </g>
    </g>
    <g id="xtick_6">
     <g id="line2d_18">
      <g>
       <use style="stroke:#000000;stroke-width:0.8;" x="407.341488" xlink:href="#mb03f5c846c" y="307.584"/>
      </g>
     </g>
     <g id="text_15">
      <!-- 1.0 -->
      <g transform="translate(395.414144 325.981656)scale(0.15 -0.15)">
       <use xlink:href="#DejaVuSans-49"/>
       <use x="63.623047" xlink:href="#DejaVuSans-46"/>
       <use x="95.410156" xlink:href="#DejaVuSans-48"/>
      </g>
     </g>
    </g>
    <g id="text_16">
     <!-- CDF -->
     <defs>
      <path d="M 64.40625 67.28125 
L 64.40625 56.890625 
Q 59.421875 61.53125 53.78125 63.8125 
Q 48.140625 66.109375 41.796875 66.109375 
Q 29.296875 66.109375 22.65625 58.46875 
Q 16.015625 50.828125 16.015625 36.375 
Q 16.015625 21.96875 22.65625 14.328125 
Q 29.296875 6.6875 41.796875 6.6875 
Q 48.140625 6.6875 53.78125 8.984375 
Q 59.421875 11.28125 64.40625 15.921875 
L 64.40625 5.609375 
Q 59.234375 2.09375 53.4375 0.328125 
Q 47.65625 -1.421875 41.21875 -1.421875 
Q 24.65625 -1.421875 15.125 8.703125 
Q 5.609375 18.84375 5.609375 36.375 
Q 5.609375 53.953125 15.125 64.078125 
Q 24.65625 74.21875 41.21875 74.21875 
Q 47.75 74.21875 53.53125 72.484375 
Q 59.328125 70.75 64.40625 67.28125 
z
" id="DejaVuSans-67"/>
     </defs>
     <g transform="translate(316.187145 346.018531)scale(0.17 -0.17)">
      <use xlink:href="#DejaVuSans-67"/>
      <use x="69.824219" xlink:href="#DejaVuSans-68"/>
      <use x="146.826172" xlink:href="#DejaVuSans-70"/>
     </g>
    </g>
   </g>
   <g id="matplotlib.axis_4"/>
   <g id="line2d_19">
    <path clip-path="url(#p3b9381d2fd)" d="M 263.391358 295.488 
L 267.967556 293.428915 
L 270.889061 291.36983 
L 273.418556 289.310745 
L 275.716971 287.25166 
L 277.644009 285.192575 
L 279.674207 283.13349 
L 281.857083 281.074405 
L 283.887281 279.01532 
L 285.909227 276.956235 
L 287.708345 274.89715 
L 289.342407 272.838065 
L 290.889814 270.77898 
L 292.490865 268.719895 
L 294.079536 266.66081 
L 295.738357 264.601725 
L 297.351787 262.54264 
L 299.010607 260.483555 
L 300.619911 258.42447 
L 302.307616 256.365385 
L 303.933425 254.3063 
L 305.567487 252.247215 
L 307.387238 250.18813 
L 309.153345 248.129045 
L 310.981349 246.06996 
L 312.850617 244.010875 
L 314.744643 241.95179 
L 316.618037 239.892705 
L 318.635856 237.83362 
L 320.703192 235.774535 
L 322.935585 233.71545 
L 325.258759 231.656365 
L 327.660335 229.59728 
L 330.226968 227.538195 
L 332.479992 225.47911 
L 334.4648 223.420025 
L 336.301056 221.36094 
L 338.380772 219.301855 
L 340.320189 217.24277 
L 342.292617 215.183685 
L 344.529136 213.1246 
L 346.856437 211.065515 
L 349.225001 209.00643 
L 351.230441 206.947345 
L 352.922273 204.88826 
L 354.581093 202.829175 
L 356.305936 200.77009 
L 358.117434 198.711005 
L 359.978449 196.65192 
L 361.777568 194.592835 
L 363.683974 192.53375 
L 365.474839 190.474665 
L 367.323475 188.41558 
L 368.916273 186.356495 
L 370.575093 184.29741 
L 372.068857 182.238325 
L 373.69054 180.17924 
L 375.518544 178.120155 
L 377.41257 176.06107 
L 379.393251 174.001985 
L 381.423449 171.9429 
L 383.457774 169.883815 
L 385.244513 167.82473 
L 387.130287 165.765645 
L 388.714832 163.70656 
L 390.072424 161.647475 
L 391.161798 159.58839 
L 392.354333 157.529305 
L 393.36118 155.47022 
L 394.380405 153.411135 
L 395.399631 151.35205 
L 396.489005 149.292965 
L 397.367933 147.23388 
L 398.184964 145.174795 
L 399.113408 143.11571 
L 399.97583 141.056625 
L 400.755723 138.99754 
L 401.556248 136.938455 
L 402.166958 134.87937 
L 402.653876 132.820285 
L 403.177931 130.7612 
L 403.590573 128.702115 
L 403.978456 126.64303 
L 404.292064 124.583945 
L 404.576787 122.52486 
L 404.9069 120.465775 
L 405.270025 118.40669 
L 405.513484 116.347605 
L 405.756943 114.28852 
L 405.996275 112.229435 
L 406.235607 110.17035 
L 406.466687 108.111265 
L 406.701893 106.05218 
L 406.883455 103.993095 
L 407.044385 101.93401 
L 407.143419 99.874925 
L 407.213569 97.81584 
L 407.275465 95.756755 
L 407.341488 93.69767 
" style="fill:none;stroke:#5a0003;stroke-linecap:square;stroke-width:3;"/>
   </g>
   <g id="line2d_20">
    <path clip-path="url(#p3b9381d2fd)" d="M 259.77124 295.488 
L 259.840331 293.626285 
L 260.006151 291.764571 
L 260.268699 289.902856 
L 260.540458 288.041141 
L 260.803006 286.179426 
L 261.185313 284.317712 
L 261.466285 282.455997 
L 261.807136 280.594282 
L 262.249322 278.732567 
L 262.88957 276.870853 
L 263.474544 275.009138 
L 264.128611 273.147423 
L 264.842556 271.285709 
L 265.519653 269.423994 
L 266.431661 267.562279 
L 267.246941 265.700564 
L 268.181979 263.83885 
L 269.070957 261.977135 
L 270.102723 260.11542 
L 271.065398 258.253705 
L 272.097165 256.391991 
L 273.096688 254.530276 
L 274.202153 252.668561 
L 275.353678 250.806847 
L 276.55587 248.945132 
L 277.868609 247.083417 
L 279.195165 245.221702 
L 280.484874 243.359988 
L 281.7884 241.498273 
L 283.091927 239.636558 
L 284.579697 237.774844 
L 285.952315 235.913129 
L 287.20978 234.051414 
L 288.596217 232.189699 
L 290.065563 230.327985 
L 291.461211 228.46627 
L 292.760131 226.604555 
L 294.23869 224.74284 
L 295.827794 222.881126 
L 297.112896 221.019411 
L 298.586849 219.157696 
L 300.079225 217.295982 
L 301.765058 215.434267 
L 303.262041 213.572552 
L 304.68072 211.710837 
L 306.403401 209.849123 
L 308.080022 207.987408 
L 309.710581 206.125693 
L 311.410232 204.263978 
L 313.197399 202.402264 
L 315.058264 200.540549 
L 316.868462 198.678834 
L 318.752357 196.81712 
L 320.677707 194.955405 
L 322.589238 193.09369 
L 324.712651 191.231975 
L 326.808426 189.370261 
L 328.996324 187.508546 
L 331.239495 185.646831 
L 333.542545 183.785116 
L 336.039052 181.923402 
L 338.452648 180.061687 
L 341.326855 178.199972 
L 344.247123 176.338258 
L 347.480605 174.476543 
L 350.847665 172.614828 
L 354.104178 170.753113 
L 357.415964 168.891399 
L 361.022541 167.029684 
L 364.74427 165.167969 
L 368.756184 163.306254 
L 372.132455 161.44454 
L 375.817336 159.582825 
L 379.824643 157.72111 
L 382.989034 155.859396 
L 385.913908 153.997681 
L 387.857682 152.135966 
L 389.575758 150.274251 
L 391.243166 148.412537 
L 392.942817 146.550822 
L 394.495073 144.689107 
L 396.088784 142.827392 
L 397.498251 140.965678 
L 398.783353 139.103963 
L 400.105304 137.242248 
L 401.335133 135.380534 
L 402.270171 133.518819 
L 403.030178 131.657104 
L 403.68885 129.795389 
L 404.246188 127.933675 
L 404.844981 126.07196 
L 405.416138 124.210245 
L 405.950445 122.348531 
L 406.424874 120.486816 
L 406.844029 118.625101 
L 407.07894 116.763386 
L 407.217123 114.901672 
L 407.341488 113.039957 
" style="fill:none;stroke:#ffcc7b;stroke-dasharray:1.5,2.475;stroke-dashoffset:0;stroke-width:1.5;"/>
   </g>
   <g id="line2d_21">
    <path clip-path="url(#p3b9381d2fd)" d="M 260.220228 295.488 
L 260.826032 293.350546 
L 261.569924 291.213092 
L 262.598899 289.075637 
L 263.676874 286.938183 
L 264.754849 284.800729 
L 265.788279 282.663275 
L 266.777165 280.525821 
L 267.739324 278.388367 
L 268.83957 276.250912 
L 269.930908 274.113458 
L 270.99552 271.976004 
L 272.193764 269.83855 
L 273.498915 267.701096 
L 274.830793 265.563641 
L 276.193852 263.426187 
L 277.71727 261.288733 
L 278.95115 259.151279 
L 280.318664 257.013825 
L 281.717358 254.876371 
L 283.138324 252.738916 
L 284.48802 250.601462 
L 286.060437 248.464008 
L 287.672945 246.326554 
L 289.129547 244.1891 
L 290.639602 242.051645 
L 292.207565 239.914191 
L 293.779983 237.776737 
L 295.303401 235.639283 
L 296.871364 233.501829 
L 298.372511 231.364375 
L 300.011745 229.22692 
L 301.673251 227.089466 
L 303.259032 224.952012 
L 304.907175 222.814558 
L 306.755768 220.677104 
L 308.492999 218.539649 
L 310.412863 216.402195 
L 312.328273 214.264741 
L 314.230319 212.127287 
L 316.40854 209.989833 
L 318.55558 207.852378 
L 320.698166 205.714924 
L 322.849661 203.57747 
L 325.027882 201.440016 
L 327.210558 199.302562 
L 329.629319 197.165108 
L 331.811995 195.027653 
L 334.074851 192.890199 
L 336.342161 190.752745 
L 338.925737 188.615291 
L 341.562765 186.477837 
L 344.288883 184.340382 
L 346.970456 182.202928 
L 349.799026 180.065474 
L 352.689958 177.92802 
L 355.487346 175.790566 
L 358.40055 173.653112 
L 361.242483 171.515657 
L 364.204686 169.378203 
L 367.140162 167.240749 
L 369.928642 165.103295 
L 372.770575 162.965841 
L 375.398695 160.828386 
L 378.155994 158.690932 
L 380.512393 156.553478 
L 382.908882 154.416024 
L 385.015832 152.27857 
L 387.069329 150.141116 
L 389.002556 148.003661 
L 390.668517 145.866207 
L 392.387931 143.728753 
L 393.969257 141.591299 
L 395.523857 139.453845 
L 396.993822 137.31639 
L 398.249975 135.178936 
L 399.541762 133.041482 
L 400.650918 130.904028 
L 401.679894 128.766574 
L 402.606417 126.62912 
L 403.363672 124.491665 
L 404.022929 122.354211 
L 404.619824 120.216757 
L 405.140994 118.079303 
L 405.56862 115.941849 
L 405.938339 113.804394 
L 406.259059 111.66694 
L 406.472872 109.529486 
L 406.619868 107.392032 
L 406.784683 105.254578 
L 406.904952 103.117124 
L 406.989587 100.979669 
L 407.074221 98.842215 
L 407.167764 96.704761 
L 407.256853 94.567307 
L 407.274671 92.429853 
L 407.305852 90.292398 
L 407.328124 88.154944 
L 407.341488 86.01749 
" style="fill:none;stroke:#e6a346;stroke-dasharray:5.55,2.4;stroke-dashoffset:0;stroke-width:1.5;"/>
   </g>
   <g id="line2d_22">
    <path clip-path="url(#p3b9381d2fd)" d="M 261.120186 295.488 
L 263.094902 293.019429 
L 264.511068 290.550857 
L 266.318658 288.082286 
L 268.319761 285.613714 
L 269.823888 283.145143 
L 271.446761 280.676571 
L 272.805752 278.208 
L 274.169141 275.739429 
L 275.479754 273.270857 
L 276.790367 270.802286 
L 278.087786 268.333714 
L 279.341224 265.865143 
L 280.796972 263.396571 
L 282.622155 260.928 
L 284.544094 258.459429 
L 286.378072 255.990857 
L 288.027334 253.522286 
L 289.746963 251.053714 
L 291.374234 248.585143 
L 292.935535 246.116571 
L 294.677155 243.648 
L 296.348406 241.179429 
L 298.01526 238.710857 
L 299.704103 236.242286 
L 301.58646 233.773714 
L 303.402846 231.305143 
L 305.276407 228.836571 
L 307.176356 226.368 
L 309.181858 223.899429 
L 311.156573 221.430857 
L 313.184065 218.962286 
L 315.325905 216.493714 
L 317.476542 214.025143 
L 319.833886 211.556571 
L 322.270395 209.088 
L 324.711301 206.619429 
L 327.301741 204.150857 
L 329.8482 201.682286 
L 332.407854 199.213714 
L 334.87075 196.745143 
L 337.518364 194.276571 
L 340.170376 191.808 
L 342.954329 189.339429 
L 346.046144 186.870857 
L 349.401841 184.402286 
L 352.528841 181.933714 
L 355.669034 179.465143 
L 358.576132 176.996571 
L 361.417259 174.528 
L 364.368337 172.059429 
L 367.055533 169.590857 
L 369.85268 167.122286 
L 372.73339 164.653714 
L 375.468965 162.185143 
L 378.376062 159.716571 
L 381.155617 157.248 
L 383.530554 154.779429 
L 385.795539 152.310857 
L 387.752662 149.842286 
L 389.14244 147.373714 
L 390.351898 144.905143 
L 391.504182 142.436571 
L 392.823591 139.968 
L 394.085825 137.499429 
L 395.374448 135.030857 
L 396.733439 132.562286 
L 398.281546 130.093714 
L 399.306287 127.625143 
L 400.062748 125.156571 
L 400.757637 122.688 
L 401.267808 120.219429 
L 401.804368 117.750857 
L 402.384908 115.282286 
L 402.877487 112.813714 
L 403.343678 110.345143 
L 403.880238 107.876571 
L 404.271663 105.408 
L 404.680679 102.939429 
L 404.988542 100.470857 
L 405.256821 98.002286 
L 405.511907 95.533714 
L 405.749401 93.065143 
L 405.912128 90.596571 
L 406.074855 88.128 
L 406.167214 85.659429 
L 406.28596 83.190857 
L 406.378319 80.722286 
L 406.505862 78.253714 
L 406.598221 75.785143 
L 406.703773 73.316571 
L 406.80053 70.848 
L 406.897287 68.379429 
L 407.007237 65.910857 
L 407.099596 63.442286 
L 407.187557 60.973714 
L 407.262323 58.505143 
L 407.315099 56.036571 
L 407.341488 53.568 
" style="fill:none;stroke:#b45a28;stroke-dasharray:9.6,2.4,1.5,2.4;stroke-dashoffset:0;stroke-width:1.5;"/>
   </g>
   <g id="line2d_23">
    <path clip-path="url(#p3b9381d2fd)" d="M 259.87389 295.488 
L 260.462281 293.122107 
L 261.407909 290.756214 
L 262.496432 288.39032 
L 263.841326 286.024427 
L 265.11057 283.658534 
L 266.493288 281.292641 
L 267.939049 278.926748 
L 269.363796 276.560855 
L 270.931438 274.194961 
L 272.641975 271.829068 
L 274.419756 269.463175 
L 276.332027 267.097282 
L 278.181256 264.731389 
L 280.341491 262.365496 
L 282.564769 259.999602 
L 284.540081 257.633709 
L 286.595247 255.267816 
L 288.801713 252.901923 
L 290.987166 250.53603 
L 293.168415 248.170137 
L 295.341259 245.804243 
L 297.22411 243.43835 
L 299.060731 241.072457 
L 300.981407 238.706564 
L 302.872664 236.340671 
L 304.789138 233.974778 
L 306.726625 231.608884 
L 308.52542 229.242991 
L 310.492328 226.877098 
L 312.42141 224.511205 
L 314.552226 222.145312 
L 316.544349 219.779419 
L 318.95255 217.413525 
L 321.427995 215.047632 
L 323.966482 212.681739 
L 326.513374 210.315846 
L 328.841721 207.949953 
L 331.220502 205.58406 
L 333.737975 203.218166 
L 336.284868 200.852273 
L 338.911613 198.48638 
L 341.445897 196.120487 
L 344.022209 193.754594 
L 346.783444 191.388701 
L 349.569896 189.022807 
L 352.213453 186.656914 
L 354.793968 184.291021 
L 357.328252 181.925128 
L 359.85413 179.559235 
L 362.2161 177.193342 
L 364.607489 174.827448 
L 367.019892 172.461555 
L 369.486932 170.095662 
L 371.567314 167.729769 
L 373.521613 165.363876 
L 375.320408 162.997982 
L 376.942686 160.632089 
L 378.443083 158.266196 
L 379.775369 155.900303 
L 381.120263 153.53441 
L 382.431534 151.168517 
L 383.671358 148.802623 
L 384.95321 146.43673 
L 386.100572 144.070837 
L 387.222718 141.704944 
L 388.353269 139.339051 
L 389.395562 136.973158 
L 390.454666 134.607264 
L 391.345658 132.241371 
L 392.274475 129.875478 
L 393.308362 127.509585 
L 394.161529 125.143692 
L 395.027304 122.777799 
L 395.943513 120.411905 
L 396.842911 118.046012 
L 397.721295 115.680119 
L 398.570259 113.314226 
L 399.360384 110.948333 
L 400.171523 108.58244 
L 400.856578 106.216546 
L 401.613081 103.850653 
L 402.293933 101.48476 
L 403.092464 99.118867 
L 403.874183 96.752974 
L 404.534022 94.387081 
L 405.088791 92.021187 
L 405.492259 89.655294 
L 405.757035 87.289401 
L 406.055433 84.923508 
L 406.349628 82.557615 
L 406.605999 80.191722 
L 406.757299 77.825828 
L 406.904397 75.459935 
L 407.009467 73.094042 
L 407.106131 70.728149 
L 407.219607 68.362256 
L 407.282649 65.996363 
L 407.341488 63.630469 
" style="fill:none;stroke:#7d1e0b;stroke-linecap:square;stroke-width:1.5;"/>
   </g>
   <g id="patch_8">
    <path d="M 252.392727 307.584 
L 252.392727 41.472 
" style="fill:none;stroke:#000000;stroke-linecap:square;stroke-linejoin:miter;stroke-width:0.8;"/>
   </g>
   <g id="patch_9">
    <path d="M 414.72 307.584 
L 414.72 41.472 
" style="fill:none;stroke:#000000;stroke-linecap:square;stroke-linejoin:miter;stroke-width:0.8;"/>
   </g>
   <g id="patch_10">
    <path d="M 252.392727 307.584 
L 414.72 307.584 
" style="fill:none;stroke:#000000;stroke-linecap:square;stroke-linejoin:miter;stroke-width:0.8;"/>
   </g>
   <g id="patch_11">
    <path d="M 252.392727 41.472 
L 414.72 41.472 
" style="fill:none;stroke:#000000;stroke-linecap:square;stroke-linejoin:miter;stroke-width:0.8;"/>
   </g>
   <g id="legend_1">
    <g id="patch_12">
     <path d="M 261.492727 126.479813 
L 345.81804 126.479813 
Q 348.41804 126.479813 348.41804 123.879813 
L 348.41804 50.572 
Q 348.41804 47.972 345.81804 47.972 
L 261.492727 47.972 
Q 258.892727 47.972 258.892727 50.572 
L 258.892727 123.879813 
Q 258.892727 126.479813 261.492727 126.479813 
z
" style="fill:#ffffff;opacity:0.8;stroke:#cccccc;stroke-linejoin:miter;"/>
    </g>
    <g id="line2d_24">
     <path d="M 264.092727 58.499969 
L 290.092727 58.499969 
" style="fill:none;stroke:#5a0003;stroke-linecap:square;stroke-width:3;"/>
    </g>
    <g id="line2d_25"/>
    <g id="text_17">
     <!-- TS -->
     <defs>
      <path d="M -0.296875 72.90625 
L 61.375 72.90625 
L 61.375 64.59375 
L 35.5 64.59375 
L 35.5 0 
L 25.59375 0 
L 25.59375 64.59375 
L -0.296875 64.59375 
z
" id="DejaVuSans-84"/>
      <path d="M 53.515625 70.515625 
L 53.515625 60.890625 
Q 47.90625 63.578125 42.921875 64.890625 
Q 37.9375 66.21875 33.296875 66.21875 
Q 25.25 66.21875 20.875 63.09375 
Q 16.5 59.96875 16.5 54.203125 
Q 16.5 49.359375 19.40625 46.890625 
Q 22.3125 44.4375 30.421875 42.921875 
L 36.375 41.703125 
Q 47.40625 39.59375 52.65625 34.296875 
Q 57.90625 29 57.90625 20.125 
Q 57.90625 9.515625 50.796875 4.046875 
Q 43.703125 -1.421875 29.984375 -1.421875 
Q 24.8125 -1.421875 18.96875 -0.25 
Q 13.140625 0.921875 6.890625 3.21875 
L 6.890625 13.375 
Q 12.890625 10.015625 18.65625 8.296875 
Q 24.421875 6.59375 29.984375 6.59375 
Q 38.421875 6.59375 43.015625 9.90625 
Q 47.609375 13.234375 47.609375 19.390625 
Q 47.609375 24.75 44.3125 27.78125 
Q 41.015625 30.8125 33.5 32.328125 
L 27.484375 33.5 
Q 16.453125 35.6875 11.515625 40.375 
Q 6.59375 45.0625 6.59375 53.421875 
Q 6.59375 63.09375 13.40625 68.65625 
Q 20.21875 74.21875 32.171875 74.21875 
Q 37.3125 74.21875 42.625 73.28125 
Q 47.953125 72.359375 53.515625 70.515625 
z
" id="DejaVuSans-83"/>
     </defs>
     <g transform="translate(300.492727 63.049969)scale(0.13 -0.13)">
      <use xlink:href="#DejaVuSans-84"/>
      <use x="61.083984" xlink:href="#DejaVuSans-83"/>
     </g>
    </g>
    <g id="line2d_26">
     <path d="M 264.092727 72.381531 
L 290.092727 72.381531 
" style="fill:none;stroke:#ffcc7b;stroke-dasharray:1.5,2.475;stroke-dashoffset:0;stroke-width:1.5;"/>
    </g>
    <g id="line2d_27"/>
    <g id="text_18">
     <!-- RB, n0 -->
     <defs>
      <path d="M 44.390625 34.1875 
Q 47.5625 33.109375 50.5625 29.59375 
Q 53.5625 26.078125 56.59375 19.921875 
L 66.609375 0 
L 56 0 
L 46.6875 18.703125 
Q 43.0625 26.03125 39.671875 28.421875 
Q 36.28125 30.8125 30.421875 30.8125 
L 19.671875 30.8125 
L 19.671875 0 
L 9.8125 0 
L 9.8125 72.90625 
L 32.078125 72.90625 
Q 44.578125 72.90625 50.734375 67.671875 
Q 56.890625 62.453125 56.890625 51.90625 
Q 56.890625 45.015625 53.6875 40.46875 
Q 50.484375 35.9375 44.390625 34.1875 
z
M 19.671875 64.796875 
L 19.671875 38.921875 
L 32.078125 38.921875 
Q 39.203125 38.921875 42.84375 42.21875 
Q 46.484375 45.515625 46.484375 51.90625 
Q 46.484375 58.296875 42.84375 61.546875 
Q 39.203125 64.796875 32.078125 64.796875 
z
" id="DejaVuSans-82"/>
      <path d="M 19.671875 34.8125 
L 19.671875 8.109375 
L 35.5 8.109375 
Q 43.453125 8.109375 47.28125 11.40625 
Q 51.125 14.703125 51.125 21.484375 
Q 51.125 28.328125 47.28125 31.5625 
Q 43.453125 34.8125 35.5 34.8125 
z
M 19.671875 64.796875 
L 19.671875 42.828125 
L 34.28125 42.828125 
Q 41.5 42.828125 45.03125 45.53125 
Q 48.578125 48.25 48.578125 53.8125 
Q 48.578125 59.328125 45.03125 62.0625 
Q 41.5 64.796875 34.28125 64.796875 
z
M 9.8125 72.90625 
L 35.015625 72.90625 
Q 46.296875 72.90625 52.390625 68.21875 
Q 58.5 63.53125 58.5 54.890625 
Q 58.5 48.1875 55.375 44.234375 
Q 52.25 40.28125 46.1875 39.3125 
Q 53.46875 37.75 57.5 32.78125 
Q 61.53125 27.828125 61.53125 20.40625 
Q 61.53125 10.640625 54.890625 5.3125 
Q 48.25 0 35.984375 0 
L 9.8125 0 
z
" id="DejaVuSans-66"/>
      <path d="M 11.71875 12.40625 
L 22.015625 12.40625 
L 22.015625 4 
L 14.015625 -11.625 
L 7.71875 -11.625 
L 11.71875 4 
z
" id="DejaVuSans-44"/>
      <path d="M 54.890625 33.015625 
L 54.890625 0 
L 45.90625 0 
L 45.90625 32.71875 
Q 45.90625 40.484375 42.875 44.328125 
Q 39.84375 48.1875 33.796875 48.1875 
Q 26.515625 48.1875 22.3125 43.546875 
Q 18.109375 38.921875 18.109375 30.90625 
L 18.109375 0 
L 9.078125 0 
L 9.078125 54.6875 
L 18.109375 54.6875 
L 18.109375 46.1875 
Q 21.34375 51.125 25.703125 53.5625 
Q 30.078125 56 35.796875 56 
Q 45.21875 56 50.046875 50.171875 
Q 54.890625 44.34375 54.890625 33.015625 
z
" id="DejaVuSans-110"/>
     </defs>
     <g transform="translate(300.492727 76.931531)scale(0.13 -0.13)">
      <use xlink:href="#DejaVuSans-82"/>
      <use x="69.482422" xlink:href="#DejaVuSans-66"/>
      <use x="138.085938" xlink:href="#DejaVuSans-44"/>
      <use x="169.873047" xlink:href="#DejaVuSans-32"/>
      <use x="201.660156" xlink:href="#DejaVuSans-110"/>
      <use x="265.039062" xlink:href="#DejaVuSans-48"/>
     </g>
    </g>
    <g id="line2d_28">
     <path d="M 264.092727 86.263094 
L 290.092727 86.263094 
" style="fill:none;stroke:#e6a346;stroke-dasharray:5.55,2.4;stroke-dashoffset:0;stroke-width:1.5;"/>
    </g>
    <g id="line2d_29"/>
    <g id="text_19">
     <!-- RB, s0 -->
     <g transform="translate(300.492727 90.813094)scale(0.13 -0.13)">
      <use xlink:href="#DejaVuSans-82"/>
      <use x="69.482422" xlink:href="#DejaVuSans-66"/>
      <use x="138.085938" xlink:href="#DejaVuSans-44"/>
      <use x="169.873047" xlink:href="#DejaVuSans-32"/>
      <use x="201.660156" xlink:href="#DejaVuSans-115"/>
      <use x="253.759766" xlink:href="#DejaVuSans-48"/>
     </g>
    </g>
    <g id="line2d_30">
     <path d="M 264.092727 100.144656 
L 290.092727 100.144656 
" style="fill:none;stroke:#b45a28;stroke-dasharray:9.6,2.4,1.5,2.4;stroke-dashoffset:0;stroke-width:1.5;"/>
    </g>
    <g id="line2d_31"/>
    <g id="text_20">
     <!-- RB, s1 -->
     <g transform="translate(300.492727 104.694656)scale(0.13 -0.13)">
      <use xlink:href="#DejaVuSans-82"/>
      <use x="69.482422" xlink:href="#DejaVuSans-66"/>
      <use x="138.085938" xlink:href="#DejaVuSans-44"/>
      <use x="169.873047" xlink:href="#DejaVuSans-32"/>
      <use x="201.660156" xlink:href="#DejaVuSans-115"/>
      <use x="253.759766" xlink:href="#DejaVuSans-49"/>
     </g>
    </g>
    <g id="line2d_32">
     <path d="M 264.092727 114.026219 
L 290.092727 114.026219 
" style="fill:none;stroke:#7d1e0b;stroke-linecap:square;stroke-width:1.5;"/>
    </g>
    <g id="line2d_33"/>
    <g id="text_21">
     <!-- RB, s2 -->
     <g transform="translate(300.492727 118.576219)scale(0.13 -0.13)">
      <use xlink:href="#DejaVuSans-82"/>
      <use x="69.482422" xlink:href="#DejaVuSans-66"/>
      <use x="138.085938" xlink:href="#DejaVuSans-44"/>
      <use x="169.873047" xlink:href="#DejaVuSans-32"/>
      <use x="201.660156" xlink:href="#DejaVuSans-115"/>
      <use x="253.759766" xlink:href="#DejaVuSans-50"/>
     </g>
    </g>
   </g>
  </g>
 </g>
 <defs>
  <clipPath id="p77caa3c26a">
   <rect height="266.112" width="162.327273" x="57.6" y="41.472"/>
  </clipPath>
  <clipPath id="p3b9381d2fd">
   <rect height="266.112" width="162.327273" x="252.392727" y="41.472"/>
  </clipPath>
 </defs>
</svg>
