<?xml version="1.0" encoding="utf-8" standalone="no"?>
<!DOCTYPE svg PUBLIC "-//W3C//DTD SVG 1.1//EN"
  "http://www.w3.org/Graphics/SVG/1.1/DTD/svg11.dtd">
<!-- Created with matplotlib (https://matplotlib.org/) -->
<svg height="345.6pt" version="1.1" viewBox="0 0 460.8 345.6" width="460.8pt" xmlns="http://www.w3.org/2000/svg" xmlns:xlink="http://www.w3.org/1999/xlink">
 <defs>
  <style type="text/css">
*{stroke-linecap:butt;stroke-linejoin:round;}
  </style>
 </defs>
 <g id="figure_1">
  <g id="patch_1">
   <path d="M 0 345.6 
L 460.8 345.6 
L 460.8 0 
L 0 0 
z
" style="fill:#ffffff;"/>
  </g>
  <g id="axes_1">
   <g id="patch_2">
    <path d="M 57.6 307.584 
L 219.927273 307.584 
L 219.927273 41.472 
L 57.6 41.472 
z
" style="fill:#ffffff;"/>
   </g>
   <g id="matplotlib.axis_1">
    <g id="xtick_1">
     <g id="line2d_1">
      <defs>
       <path d="M 0 0 
L 0 3.5 
" id="mc2edf7fc91" style="stroke:#000000;stroke-width:0.8;"/>
      </defs>
      <g>
       <use style="stroke:#000000;stroke-width:0.8;" x="212.576166" xlink:href="#mc2edf7fc91" y="307.584"/>
      </g>
     </g>
     <g id="text_1">
      <!-- 0.0 -->
      <defs>
       <path d="M 31.78125 66.40625 
Q 24.171875 66.40625 20.328125 58.90625 
Q 16.5 51.421875 16.5 36.375 
Q 16.5 21.390625 20.328125 13.890625 
Q 24.171875 6.390625 31.78125 6.390625 
Q 39.453125 6.390625 43.28125 13.890625 
Q 47.125 21.390625 47.125 36.375 
Q 47.125 51.421875 43.28125 58.90625 
Q 39.453125 66.40625 31.78125 66.40625 
z
M 31.78125 74.21875 
Q 44.046875 74.21875 50.515625 64.515625 
Q 56.984375 54.828125 56.984375 36.375 
Q 56.984375 17.96875 50.515625 8.265625 
Q 44.046875 -1.421875 31.78125 -1.421875 
Q 19.53125 -1.421875 13.0625 8.265625 
Q 6.59375 17.96875 6.59375 36.375 
Q 6.59375 54.828125 13.0625 64.515625 
Q 19.53125 74.21875 31.78125 74.21875 
z
" id="DejaVuSans-48"/>
       <path d="M 10.6875 12.40625 
L 21 12.40625 
L 21 0 
L 10.6875 0 
z
" id="DejaVuSans-46"/>
      </defs>
      <g transform="translate(200.648823 325.981656)scale(0.15 -0.15)">
       <use xlink:href="#DejaVuSans-48"/>
       <use x="63.623047" xlink:href="#DejaVuSans-46"/>
       <use x="95.410156" xlink:href="#DejaVuSans-48"/>
      </g>
     </g>
    </g>
    <g id="xtick_2">
     <g id="line2d_2">
      <g>
       <use style="stroke:#000000;stroke-width:0.8;" x="176.178114" xlink:href="#mc2edf7fc91" y="307.584"/>
      </g>
     </g>
     <g id="text_2">
      <!-- 0.1 -->
      <defs>
       <path d="M 12.40625 8.296875 
L 28.515625 8.296875 
L 28.515625 63.921875 
L 10.984375 60.40625 
L 10.984375 69.390625 
L 28.421875 72.90625 
L 38.28125 72.90625 
L 38.28125 8.296875 
L 54.390625 8.296875 
L 54.390625 0 
L 12.40625 0 
z
" id="DejaVuSans-49"/>
      </defs>
      <g transform="translate(164.250771 325.981656)scale(0.15 -0.15)">
       <use xlink:href="#DejaVuSans-48"/>
       <use x="63.623047" xlink:href="#DejaVuSans-46"/>
       <use x="95.410156" xlink:href="#DejaVuSans-49"/>
      </g>
     </g>
    </g>
    <g id="xtick_3">
     <g id="line2d_3">
      <g>
       <use style="stroke:#000000;stroke-width:0.8;" x="139.780063" xlink:href="#mc2edf7fc91" y="307.584"/>
      </g>
     </g>
     <g id="text_3">
      <!-- 0.2 -->
      <defs>
       <path d="M 19.1875 8.296875 
L 53.609375 8.296875 
L 53.609375 0 
L 7.328125 0 
L 7.328125 8.296875 
Q 12.9375 14.109375 22.625 23.890625 
Q 32.328125 33.6875 34.8125 36.53125 
Q 39.546875 41.84375 41.421875 45.53125 
Q 43.3125 49.21875 43.3125 52.78125 
Q 43.3125 58.59375 39.234375 62.25 
Q 35.15625 65.921875 28.609375 65.921875 
Q 23.96875 65.921875 18.8125 64.3125 
Q 13.671875 62.703125 7.8125 59.421875 
L 7.8125 69.390625 
Q 13.765625 71.78125 18.9375 73 
Q 24.125 74.21875 28.421875 74.21875 
Q 39.75 74.21875 46.484375 68.546875 
Q 53.21875 62.890625 53.21875 53.421875 
Q 53.21875 48.921875 51.53125 44.890625 
Q 49.859375 40.875 45.40625 35.40625 
Q 44.1875 33.984375 37.640625 27.21875 
Q 31.109375 20.453125 19.1875 8.296875 
z
" id="DejaVuSans-50"/>
      </defs>
      <g transform="translate(127.852719 325.981656)scale(0.15 -0.15)">
       <use xlink:href="#DejaVuSans-48"/>
       <use x="63.623047" xlink:href="#DejaVuSans-46"/>
       <use x="95.410156" xlink:href="#DejaVuSans-50"/>
      </g>
     </g>
    </g>
    <g id="xtick_4">
     <g id="line2d_4">
      <g>
       <use style="stroke:#000000;stroke-width:0.8;" x="103.382011" xlink:href="#mc2edf7fc91" y="307.584"/>
      </g>
     </g>
     <g id="text_4">
      <!-- 0.3 -->
      <defs>
       <path d="M 40.578125 39.3125 
Q 47.65625 37.796875 51.625 33 
Q 55.609375 28.21875 55.609375 21.1875 
Q 55.609375 10.40625 48.1875 4.484375 
Q 40.765625 -1.421875 27.09375 -1.421875 
Q 22.515625 -1.421875 17.65625 -0.515625 
Q 12.796875 0.390625 7.625 2.203125 
L 7.625 11.71875 
Q 11.71875 9.328125 16.59375 8.109375 
Q 21.484375 6.890625 26.8125 6.890625 
Q 36.078125 6.890625 40.9375 10.546875 
Q 45.796875 14.203125 45.796875 21.1875 
Q 45.796875 27.640625 41.28125 31.265625 
Q 36.765625 34.90625 28.71875 34.90625 
L 20.21875 34.90625 
L 20.21875 43.015625 
L 29.109375 43.015625 
Q 36.375 43.015625 40.234375 45.921875 
Q 44.09375 48.828125 44.09375 54.296875 
Q 44.09375 59.90625 40.109375 62.90625 
Q 36.140625 65.921875 28.71875 65.921875 
Q 24.65625 65.921875 20.015625 65.03125 
Q 15.375 64.15625 9.8125 62.3125 
L 9.8125 71.09375 
Q 15.4375 72.65625 20.34375 73.4375 
Q 25.25 74.21875 29.59375 74.21875 
Q 40.828125 74.21875 47.359375 69.109375 
Q 53.90625 64.015625 53.90625 55.328125 
Q 53.90625 49.265625 50.4375 45.09375 
Q 46.96875 40.921875 40.578125 39.3125 
z
" id="DejaVuSans-51"/>
      </defs>
      <g transform="translate(91.454667 325.981656)scale(0.15 -0.15)">
       <use xlink:href="#DejaVuSans-48"/>
       <use x="63.623047" xlink:href="#DejaVuSans-46"/>
       <use x="95.410156" xlink:href="#DejaVuSans-51"/>
      </g>
     </g>
    </g>
    <g id="xtick_5">
     <g id="line2d_5">
      <g>
       <use style="stroke:#000000;stroke-width:0.8;" x="66.983959" xlink:href="#mc2edf7fc91" y="307.584"/>
      </g>
     </g>
     <g id="text_5">
      <!-- 0.4 -->
      <defs>
       <path d="M 37.796875 64.3125 
L 12.890625 25.390625 
L 37.796875 25.390625 
z
M 35.203125 72.90625 
L 47.609375 72.90625 
L 47.609375 25.390625 
L 58.015625 25.390625 
L 58.015625 17.1875 
L 47.609375 17.1875 
L 47.609375 0 
L 37.796875 0 
L 37.796875 17.1875 
L 4.890625 17.1875 
L 4.890625 26.703125 
z
" id="DejaVuSans-52"/>
      </defs>
      <g transform="translate(55.056615 325.981656)scale(0.15 -0.15)">
       <use xlink:href="#DejaVuSans-48"/>
       <use x="63.623047" xlink:href="#DejaVuSans-46"/>
       <use x="95.410156" xlink:href="#DejaVuSans-52"/>
      </g>
     </g>
    </g>
    <g id="text_6">
     <!-- PDF -->
     <defs>
      <path d="M 19.671875 64.796875 
L 19.671875 37.40625 
L 32.078125 37.40625 
Q 38.96875 37.40625 42.71875 40.96875 
Q 46.484375 44.53125 46.484375 51.125 
Q 46.484375 57.671875 42.71875 61.234375 
Q 38.96875 64.796875 32.078125 64.796875 
z
M 9.8125 72.90625 
L 32.078125 72.90625 
Q 44.34375 72.90625 50.609375 67.359375 
Q 56.890625 61.8125 56.890625 51.125 
Q 56.890625 40.328125 50.609375 34.8125 
Q 44.34375 29.296875 32.078125 29.296875 
L 19.671875 29.296875 
L 19.671875 0 
L 9.8125 0 
z
" id="DejaVuSans-80"/>
      <path d="M 19.671875 64.796875 
L 19.671875 8.109375 
L 31.59375 8.109375 
Q 46.6875 8.109375 53.6875 14.9375 
Q 60.6875 21.78125 60.6875 36.53125 
Q 60.6875 51.171875 53.6875 57.984375 
Q 46.6875 64.796875 31.59375 64.796875 
z
M 9.8125 72.90625 
L 30.078125 72.90625 
Q 51.265625 72.90625 61.171875 64.09375 
Q 71.09375 55.28125 71.09375 36.53125 
Q 71.09375 17.671875 61.125 8.828125 
Q 51.171875 0 30.078125 0 
L 9.8125 0 
z
" id="DejaVuSans-68"/>
      <path d="M 9.8125 72.90625 
L 51.703125 72.90625 
L 51.703125 64.59375 
L 19.671875 64.59375 
L 19.671875 43.109375 
L 48.578125 43.109375 
L 48.578125 34.8125 
L 19.671875 34.8125 
L 19.671875 0 
L 9.8125 0 
z
" id="DejaVuSans-70"/>
     </defs>
     <g transform="translate(122.204574 346.018531)scale(0.17 -0.17)">
      <use xlink:href="#DejaVuSans-80"/>
      <use x="60.302734" xlink:href="#DejaVuSans-68"/>
      <use x="137.304688" xlink:href="#DejaVuSans-70"/>
     </g>
    </g>
   </g>
   <g id="matplotlib.axis_2">
    <g id="ytick_1">
     <g id="line2d_6">
      <defs>
       <path d="M 0 0 
L -3.5 0 
" id="m7648c9fc1e" style="stroke:#000000;stroke-width:0.8;"/>
      </defs>
      <g>
       <use style="stroke:#000000;stroke-width:0.8;" x="57.6" xlink:href="#m7648c9fc1e" y="53.568"/>
      </g>
     </g>
     <g id="text_7">
      <!-- 0 -->
      <g transform="translate(41.05625 59.266828)scale(0.15 -0.15)">
       <use xlink:href="#DejaVuSans-48"/>
      </g>
     </g>
    </g>
    <g id="ytick_2">
     <g id="line2d_7">
      <g>
       <use style="stroke:#000000;stroke-width:0.8;" x="57.6" xlink:href="#m7648c9fc1e" y="111.724748"/>
      </g>
     </g>
     <g id="text_8">
      <!-- 2 -->
      <g transform="translate(41.05625 117.423576)scale(0.15 -0.15)">
       <use xlink:href="#DejaVuSans-50"/>
      </g>
     </g>
    </g>
    <g id="ytick_3">
     <g id="line2d_8">
      <g>
       <use style="stroke:#000000;stroke-width:0.8;" x="57.6" xlink:href="#m7648c9fc1e" y="169.881497"/>
      </g>
     </g>
     <g id="text_9">
      <!-- 4 -->
      <g transform="translate(41.05625 175.580325)scale(0.15 -0.15)">
       <use xlink:href="#DejaVuSans-52"/>
      </g>
     </g>
    </g>
    <g id="ytick_4">
     <g id="line2d_9">
      <g>
       <use style="stroke:#000000;stroke-width:0.8;" x="57.6" xlink:href="#m7648c9fc1e" y="228.038245"/>
      </g>
     </g>
     <g id="text_10">
      <!-- 6 -->
      <defs>
       <path d="M 33.015625 40.375 
Q 26.375 40.375 22.484375 35.828125 
Q 18.609375 31.296875 18.609375 23.390625 
Q 18.609375 15.53125 22.484375 10.953125 
Q 26.375 6.390625 33.015625 6.390625 
Q 39.65625 6.390625 43.53125 10.953125 
Q 47.40625 15.53125 47.40625 23.390625 
Q 47.40625 31.296875 43.53125 35.828125 
Q 39.65625 40.375 33.015625 40.375 
z
M 52.59375 71.296875 
L 52.59375 62.3125 
Q 48.875 64.0625 45.09375 64.984375 
Q 41.3125 65.921875 37.59375 65.921875 
Q 27.828125 65.921875 22.671875 59.328125 
Q 17.53125 52.734375 16.796875 39.40625 
Q 19.671875 43.65625 24.015625 45.921875 
Q 28.375 48.1875 33.59375 48.1875 
Q 44.578125 48.1875 50.953125 41.515625 
Q 57.328125 34.859375 57.328125 23.390625 
Q 57.328125 12.15625 50.6875 5.359375 
Q 44.046875 -1.421875 33.015625 -1.421875 
Q 20.359375 -1.421875 13.671875 8.265625 
Q 6.984375 17.96875 6.984375 36.375 
Q 6.984375 53.65625 15.1875 63.9375 
Q 23.390625 74.21875 37.203125 74.21875 
Q 40.921875 74.21875 44.703125 73.484375 
Q 48.484375 72.75 52.59375 71.296875 
z
" id="DejaVuSans-54"/>
      </defs>
      <g transform="translate(41.05625 233.737073)scale(0.15 -0.15)">
       <use xlink:href="#DejaVuSans-54"/>
      </g>
     </g>
    </g>
    <g id="ytick_5">
     <g id="line2d_10">
      <g>
       <use style="stroke:#000000;stroke-width:0.8;" x="57.6" xlink:href="#m7648c9fc1e" y="286.194993"/>
      </g>
     </g>
     <g id="text_11">
      <!-- 8 -->
      <defs>
       <path d="M 31.78125 34.625 
Q 24.75 34.625 20.71875 30.859375 
Q 16.703125 27.09375 16.703125 20.515625 
Q 16.703125 13.921875 20.71875 10.15625 
Q 24.75 6.390625 31.78125 6.390625 
Q 38.8125 6.390625 42.859375 10.171875 
Q 46.921875 13.96875 46.921875 20.515625 
Q 46.921875 27.09375 42.890625 30.859375 
Q 38.875 34.625 31.78125 34.625 
z
M 21.921875 38.8125 
Q 15.578125 40.375 12.03125 44.71875 
Q 8.5 49.078125 8.5 55.328125 
Q 8.5 64.0625 14.71875 69.140625 
Q 20.953125 74.21875 31.78125 74.21875 
Q 42.671875 74.21875 48.875 69.140625 
Q 55.078125 64.0625 55.078125 55.328125 
Q 55.078125 49.078125 51.53125 44.71875 
Q 48 40.375 41.703125 38.8125 
Q 48.828125 37.15625 52.796875 32.3125 
Q 56.78125 27.484375 56.78125 20.515625 
Q 56.78125 9.90625 50.3125 4.234375 
Q 43.84375 -1.421875 31.78125 -1.421875 
Q 19.734375 -1.421875 13.25 4.234375 
Q 6.78125 9.90625 6.78125 20.515625 
Q 6.78125 27.484375 10.78125 32.3125 
Q 14.796875 37.15625 21.921875 38.8125 
z
M 18.3125 54.390625 
Q 18.3125 48.734375 21.84375 45.5625 
Q 25.390625 42.390625 31.78125 42.390625 
Q 38.140625 42.390625 41.71875 45.5625 
Q 45.3125 48.734375 45.3125 54.390625 
Q 45.3125 60.0625 41.71875 63.234375 
Q 38.140625 66.40625 31.78125 66.40625 
Q 25.390625 66.40625 21.84375 63.234375 
Q 18.3125 60.0625 18.3125 54.390625 
z
" id="DejaVuSans-56"/>
      </defs>
      <g transform="translate(41.05625 291.893821)scale(0.15 -0.15)">
       <use xlink:href="#DejaVuSans-56"/>
      </g>
     </g>
    </g>
    <g id="text_12">
     <!-- Depth (m) -->
     <defs>
      <path d="M 56.203125 29.59375 
L 56.203125 25.203125 
L 14.890625 25.203125 
Q 15.484375 15.921875 20.484375 11.0625 
Q 25.484375 6.203125 34.421875 6.203125 
Q 39.59375 6.203125 44.453125 7.46875 
Q 49.3125 8.734375 54.109375 11.28125 
L 54.109375 2.78125 
Q 49.265625 0.734375 44.1875 -0.34375 
Q 39.109375 -1.421875 33.890625 -1.421875 
Q 20.796875 -1.421875 13.15625 6.1875 
Q 5.515625 13.8125 5.515625 26.8125 
Q 5.515625 40.234375 12.765625 48.109375 
Q 20.015625 56 32.328125 56 
Q 43.359375 56 49.78125 48.890625 
Q 56.203125 41.796875 56.203125 29.59375 
z
M 47.21875 32.234375 
Q 47.125 39.59375 43.09375 43.984375 
Q 39.0625 48.390625 32.421875 48.390625 
Q 24.90625 48.390625 20.390625 44.140625 
Q 15.875 39.890625 15.1875 32.171875 
z
" id="DejaVuSans-101"/>
      <path d="M 18.109375 8.203125 
L 18.109375 -20.796875 
L 9.078125 -20.796875 
L 9.078125 54.6875 
L 18.109375 54.6875 
L 18.109375 46.390625 
Q 20.953125 51.265625 25.265625 53.625 
Q 29.59375 56 35.59375 56 
Q 45.5625 56 51.78125 48.09375 
Q 58.015625 40.1875 58.015625 27.296875 
Q 58.015625 14.40625 51.78125 6.484375 
Q 45.5625 -1.421875 35.59375 -1.421875 
Q 29.59375 -1.421875 25.265625 0.953125 
Q 20.953125 3.328125 18.109375 8.203125 
z
M 48.6875 27.296875 
Q 48.6875 37.203125 44.609375 42.84375 
Q 40.53125 48.484375 33.40625 48.484375 
Q 26.265625 48.484375 22.1875 42.84375 
Q 18.109375 37.203125 18.109375 27.296875 
Q 18.109375 17.390625 22.1875 11.75 
Q 26.265625 6.109375 33.40625 6.109375 
Q 40.53125 6.109375 44.609375 11.75 
Q 48.6875 17.390625 48.6875 27.296875 
z
" id="DejaVuSans-112"/>
      <path d="M 18.3125 70.21875 
L 18.3125 54.6875 
L 36.8125 54.6875 
L 36.8125 47.703125 
L 18.3125 47.703125 
L 18.3125 18.015625 
Q 18.3125 11.328125 20.140625 9.421875 
Q 21.96875 7.515625 27.59375 7.515625 
L 36.8125 7.515625 
L 36.8125 0 
L 27.59375 0 
Q 17.1875 0 13.234375 3.875 
Q 9.28125 7.765625 9.28125 18.015625 
L 9.28125 47.703125 
L 2.6875 47.703125 
L 2.6875 54.6875 
L 9.28125 54.6875 
L 9.28125 70.21875 
z
" id="DejaVuSans-116"/>
      <path d="M 54.890625 33.015625 
L 54.890625 0 
L 45.90625 0 
L 45.90625 32.71875 
Q 45.90625 40.484375 42.875 44.328125 
Q 39.84375 48.1875 33.796875 48.1875 
Q 26.515625 48.1875 22.3125 43.546875 
Q 18.109375 38.921875 18.109375 30.90625 
L 18.109375 0 
L 9.078125 0 
L 9.078125 75.984375 
L 18.109375 75.984375 
L 18.109375 46.1875 
Q 21.34375 51.125 25.703125 53.5625 
Q 30.078125 56 35.796875 56 
Q 45.21875 56 50.046875 50.171875 
Q 54.890625 44.34375 54.890625 33.015625 
z
" id="DejaVuSans-104"/>
      <path id="DejaVuSans-32"/>
      <path d="M 31 75.875 
Q 24.46875 64.65625 21.28125 53.65625 
Q 18.109375 42.671875 18.109375 31.390625 
Q 18.109375 20.125 21.3125 9.0625 
Q 24.515625 -2 31 -13.1875 
L 23.1875 -13.1875 
Q 15.875 -1.703125 12.234375 9.375 
Q 8.59375 20.453125 8.59375 31.390625 
Q 8.59375 42.28125 12.203125 53.3125 
Q 15.828125 64.359375 23.1875 75.875 
z
" id="DejaVuSans-40"/>
      <path d="M 52 44.1875 
Q 55.375 50.25 60.0625 53.125 
Q 64.75 56 71.09375 56 
Q 79.640625 56 84.28125 50.015625 
Q 88.921875 44.046875 88.921875 33.015625 
L 88.921875 0 
L 79.890625 0 
L 79.890625 32.71875 
Q 79.890625 40.578125 77.09375 44.375 
Q 74.3125 48.1875 68.609375 48.1875 
Q 61.625 48.1875 57.5625 43.546875 
Q 53.515625 38.921875 53.515625 30.90625 
L 53.515625 0 
L 44.484375 0 
L 44.484375 32.71875 
Q 44.484375 40.625 41.703125 44.40625 
Q 38.921875 48.1875 33.109375 48.1875 
Q 26.21875 48.1875 22.15625 43.53125 
Q 18.109375 38.875 18.109375 30.90625 
L 18.109375 0 
L 9.078125 0 
L 9.078125 54.6875 
L 18.109375 54.6875 
L 18.109375 46.1875 
Q 21.1875 51.21875 25.484375 53.609375 
Q 29.78125 56 35.6875 56 
Q 41.65625 56 45.828125 52.96875 
Q 50 49.953125 52 44.1875 
z
" id="DejaVuSans-109"/>
      <path d="M 8.015625 75.875 
L 15.828125 75.875 
Q 23.140625 64.359375 26.78125 53.3125 
Q 30.421875 42.28125 30.421875 31.390625 
Q 30.421875 20.453125 26.78125 9.375 
Q 23.140625 -1.703125 15.828125 -13.1875 
L 8.015625 -13.1875 
Q 14.5 -2 17.703125 9.0625 
Q 20.90625 20.125 20.90625 31.390625 
Q 20.90625 42.671875 17.703125 53.65625 
Q 14.5 64.65625 8.015625 75.875 
z
" id="DejaVuSans-41"/>
     </defs>
     <g transform="translate(33.520781 218.032062)rotate(-90)scale(0.17 -0.17)">
      <use xlink:href="#DejaVuSans-68"/>
      <use x="77.001953" xlink:href="#DejaVuSans-101"/>
      <use x="138.525391" xlink:href="#DejaVuSans-112"/>
      <use x="202.001953" xlink:href="#DejaVuSans-116"/>
      <use x="241.210938" xlink:href="#DejaVuSans-104"/>
      <use x="304.589844" xlink:href="#DejaVuSans-32"/>
      <use x="336.376953" xlink:href="#DejaVuSans-40"/>
      <use x="375.390625" xlink:href="#DejaVuSans-109"/>
      <use x="472.802734" xlink:href="#DejaVuSans-41"/>
     </g>
    </g>
   </g>
   <g id="line2d_11">
    <path clip-path="url(#pb2c8d3e6f6)" d="M 95.478962 53.568 
L 184.195932 56.036571 
L 184.40029 58.505143 
L 184.042664 60.973714 
L 186.443872 63.442286 
L 186.699319 65.910857 
L 185.805252 68.379429 
L 187.465662 70.848 
L 187.159125 73.316571 
L 186.878133 75.785143 
L 188.078736 78.253714 
L 187.286849 80.722286 
L 188.25755 83.190857 
L 188.870624 85.659429 
L 187.414573 88.128 
L 189.407064 90.596571 
L 188.921714 93.065143 
L 188.972803 95.533714 
L 189.228251 98.002286 
L 188.921714 100.470857 
L 189.177161 102.939429 
L 189.304885 105.408 
L 186.265058 107.876571 
L 186.571595 110.345143 
L 187.13358 112.813714 
L 187.593386 115.282286 
L 186.954767 117.750857 
L 187.082491 120.219429 
L 187.18467 122.688 
L 186.622685 125.156571 
L 186.162879 127.625143 
L 185.754163 130.093714 
L 185.984066 132.562286 
L 182.816515 135.030857 
L 181.896903 137.499429 
L 182.024627 139.968 
L 180.721844 142.436571 
L 179.648964 144.905143 
L 172.394251 147.373714 
L 162.68724 149.842286 
L 162.125255 152.310857 
L 160.720293 154.779429 
L 154.00202 157.248 
L 145.061352 159.716571 
L 134.485819 162.185143 
L 135.584244 164.653714 
L 139.773585 167.122286 
L 143.758569 169.590857 
L 146.849485 172.059429 
L 150.706745 174.528 
L 155.381437 176.996571 
L 156.505407 179.465143 
L 158.34463 181.933714 
L 154.819452 184.402286 
L 148.126724 186.870857 
L 148.893066 189.339429 
L 144.67818 191.808 
L 127.435464 194.276571 
L 104.904981 196.745143 
L 69.116764 199.213714 
L 93.665284 201.682286 
L 92.643493 204.150857 
L 88.786234 206.619429 
L 70.64945 209.088 
L 73.561554 211.556571 
L 64.978512 214.025143 
L 78.082977 216.493714 
L 90.574367 218.962286 
L 98.314431 221.430857 
L 115.88923 223.899429 
L 119.6954 226.368 
L 143.503121 228.836571 
L 161.358912 231.305143 
L 169.71205 233.773714 
L 173.390496 236.242286 
L 178.39727 238.710857 
L 185.166633 241.179429 
L 192.855608 243.648 
L 198.296643 246.116571 
L 202.026178 248.585143 
L 202.869156 251.053714 
L 204.6062 253.522286 
L 207.799295 255.990857 
L 209.255347 258.459429 
L 210.353772 260.928 
L 210.634764 263.396571 
L 210.915757 265.865143 
L 210.966846 268.333714 
L 211.503286 270.802286 
L 211.758734 273.270857 
L 211.809823 275.739429 
L 211.63101 278.208 
L 211.784279 280.676571 
L 211.656555 283.145143 
L 211.605465 285.613714 
L 211.426652 288.082286 
L 211.912003 290.550857 
L 212.192995 293.019429 
L 212.141905 295.488 
" style="fill:none;stroke:#000000;stroke-linecap:square;stroke-width:3;"/>
   </g>
   <g id="line2d_12">
    <path clip-path="url(#pb2c8d3e6f6)" d="M 156.994757 53.568 
L 163.907868 55.58509 
L 165.35194 57.602181 
L 163.10902 59.619271 
L 164.460917 61.636361 
L 162.74032 63.653452 
L 163.631344 65.670542 
L 164.921791 67.687633 
L 166.918912 69.704723 
L 169.561256 71.721813 
L 172.418675 73.738904 
L 172.818099 75.755994 
L 175.552619 77.773084 
L 175.614069 79.790175 
L 176.013493 81.807265 
L 177.027416 83.824355 
L 177.027416 85.841446 
L 175.460444 87.858536 
L 175.306819 89.875626 
L 173.555498 91.892717 
L 172.603025 93.909807 
L 173.309698 95.926898 
L 172.63375 97.943988 
L 169.591981 99.961078 
L 171.527652 101.978169 
L 171.558377 103.995259 
L 171.404752 106.012349 
L 170.02213 108.02944 
L 170.08358 110.04653 
L 171.005328 112.06362 
L 169.622706 114.080711 
L 170.26793 116.097801 
L 170.08358 118.114891 
L 169.684156 120.131982 
L 169.96068 122.149072 
L 168.793133 124.166163 
L 168.854583 126.183253 
L 167.53341 128.200343 
L 168.424434 130.217434 
L 167.441236 132.234524 
L 168.854583 134.251614 
L 167.625585 136.268705 
L 167.59486 138.285795 
L 167.318336 140.302885 
L 167.65631 142.319976 
L 167.77921 144.337066 
L 167.994285 146.354156 
L 166.765287 148.371247 
L 166.980362 150.388337 
L 165.29049 152.405428 
L 166.703837 154.422518 
L 166.488763 156.439608 
L 165.935714 158.456699 
L 165.966439 160.473789 
L 165.013966 162.490879 
L 164.768166 164.50797 
L 164.952516 166.52506 
L 164.307292 168.54215 
L 163.938593 170.559241 
L 162.832495 172.576331 
L 163.907868 174.593421 
L 162.463796 176.610512 
L 160.927549 178.627602 
L 161.326973 180.644693 
L 161.173349 182.661783 
L 161.726398 184.678873 
L 158.37738 186.695964 
L 158.531004 188.713054 
L 158.991878 190.730144 
L 157.916506 192.747235 
L 155.397061 194.764325 
L 154.413863 196.781415 
L 154.966912 198.798506 
L 152.263117 200.815596 
L 149.897297 202.832686 
L 148.514675 204.849777 
L 149.313524 206.866867 
L 144.520434 208.883958 
L 143.844485 210.901048 
L 139.297194 212.918138 
L 136.808475 214.935229 
L 130.048989 216.952319 
L 122.367755 218.969409 
L 103.963518 220.9865 
L 97.388382 223.00359 
L 101.259724 225.02068 
L 84.698983 227.037771 
L 130.940012 229.054861 
L 133.367282 231.071951 
L 130.940012 233.089042 
L 129.004341 235.106132 
L 122.367755 237.123223 
L 135.733102 239.140313 
L 158.500279 241.157403 
L 159.514202 243.174494 
L 166.181513 245.191584 
L 176.290017 247.208674 
L 177.42684 249.225765 
L 181.759056 251.242855 
" style="fill:none;stroke:#a2eb7f;stroke-dasharray:1.5,2.475;stroke-dashoffset:0;stroke-width:1.5;"/>
   </g>
   <g id="line2d_13">
    <path clip-path="url(#pb2c8d3e6f6)" d="M 173.197758 53.568 
L 173.861763 55.653358 
L 178.278843 57.738716 
L 174.063852 59.824074 
L 175.68056 61.909433 
L 172.533752 63.994791 
L 172.042965 66.080149 
L 173.313237 68.165507 
L 174.814466 70.250865 
L 176.026998 72.336223 
L 176.084738 74.421582 
L 177.990145 76.50694 
L 177.557098 78.592298 
L 178.307712 80.677656 
L 178.307712 82.763014 
L 177.614837 84.848372 
L 177.268399 86.933731 
L 178.423192 89.019089 
L 177.961275 91.104447 
L 177.412749 93.189805 
L 174.727857 95.275163 
L 174.092721 97.360521 
L 172.764711 99.44588 
L 171.869747 101.531238 
L 170.541736 103.616596 
L 170.830434 105.701954 
L 170.512866 107.787312 
L 170.368517 109.87267 
L 169.069376 111.958028 
L 168.780678 114.043387 
L 169.213725 116.128745 
L 167.972323 118.214103 
L 168.54972 120.299461 
L 169.011636 122.384819 
L 168.578589 124.470177 
L 169.040506 126.555536 
L 169.762251 128.640894 
L 169.617902 130.726252 
L 169.069376 132.81161 
L 168.722938 134.896968 
L 168.376501 136.982326 
L 168.145542 139.067685 
L 167.279448 141.153043 
L 167.423797 143.238401 
L 167.221709 145.323759 
L 167.712495 147.409117 
L 166.788662 149.494475 
L 167.943454 151.579833 
L 168.203282 153.665192 
L 167.712495 155.75055 
L 166.933011 157.835908 
L 167.943454 159.921266 
L 168.232152 162.006624 
L 167.308318 164.091982 
L 166.96188 166.177341 
L 167.135099 168.262699 
L 167.04849 170.348057 
L 166.442224 172.433415 
L 166.124656 174.518773 
L 165.027604 176.604131 
L 165.54726 178.68949 
L 164.767776 180.774848 
L 164.017161 182.860206 
L 163.266546 184.945564 
L 163.382025 187.030922 
L 162.544801 189.11628 
L 163.064457 191.201639 
L 160.754873 193.286997 
L 161.101311 195.372355 
L 160.350696 197.457713 
L 159.513472 199.543071 
L 157.203888 201.628429 
L 157.752414 203.713787 
L 157.088408 205.799146 
L 155.183002 207.884504 
L 153.479683 209.969862 
L 153.479683 212.05522 
L 150.852531 214.140578 
L 149.870958 216.225936 
L 147.012848 218.311295 
L 144.616654 220.396653 
L 143.490732 222.482011 
L 136.937287 224.567369 
L 136.821808 226.652727 
L 129.893056 228.738085 
L 122.733345 230.823444 
L 112.600045 232.908802 
L 91.120913 234.99416 
L 93.315017 237.079518 
L 99.233327 239.164876 
L 101.773869 241.250234 
L 103.217359 243.335593 
L 106.710605 245.420951 
L 159.167034 247.506309 
L 163.353155 249.591667 
L 160.552785 251.677025 
L 171.523309 253.762383 
L 175.218644 255.847741 
L 177.355009 257.9331 
" style="fill:none;stroke:#77cd86;stroke-dasharray:5.55,2.4;stroke-dashoffset:0;stroke-width:1.5;"/>
   </g>
   <g id="line2d_14">
    <path clip-path="url(#pb2c8d3e6f6)" d="M 173.138779 53.568 
L 176.071232 55.791367 
L 174.700927 58.014733 
L 175.742359 60.2381 
L 173.029154 62.461467 
L 173.138779 64.684834 
L 170.754448 66.9082 
L 174.426866 69.131567 
L 176.126044 71.354934 
L 177.085258 73.5783 
L 180.648052 75.801667 
L 179.880681 78.025034 
L 181.031738 80.248401 
L 177.222289 82.471767 
L 176.427512 84.695134 
L 172.727687 86.918501 
L 170.864072 89.141867 
L 171.494412 91.365234 
L 172.261783 93.588601 
L 171.028509 95.811968 
L 171.384788 98.035334 
L 170.041889 100.258701 
L 171.412194 102.482068 
L 170.178919 104.705434 
L 170.45298 106.928801 
L 169.110081 109.152168 
L 169.713015 111.375534 
L 167.767182 113.598901 
L 168.781208 115.822268 
L 169.219706 118.045635 
L 168.890832 120.269001 
L 169.055269 122.492368 
L 169.904858 124.715735 
L 171.357382 126.939101 
L 169.356736 129.162468 
L 169.493767 131.385835 
L 167.876806 133.609202 
L 168.233086 135.832568 
L 167.35609 138.055935 
L 167.164248 140.279302 
L 166.095409 142.502668 
L 165.73913 144.726035 
L 165.821348 146.949402 
L 165.574693 149.172769 
L 168.287898 151.396135 
L 166.068003 153.619502 
L 167.438309 155.842869 
L 167.21906 158.066235 
L 165.519881 160.289602 
L 167.273872 162.512969 
L 166.314658 164.736336 
L 165.492475 166.959702 
L 165.985785 169.183069 
L 164.396231 171.406436 
L 165.465069 173.629802 
L 164.286606 175.853169 
L 162.998519 178.076536 
L 164.423637 180.299903 
L 162.422991 182.523269 
L 162.834083 184.746636 
L 161.16231 186.970003 
L 161.244528 189.193369 
L 161.02528 191.416736 
L 159.600162 193.640103 
L 159.18907 195.863469 
L 158.010608 198.086836 
L 156.777333 200.310203 
L 155.105561 202.53357 
L 155.763307 204.756936 
L 152.50198 206.980303 
L 153.324164 209.20367 
L 148.884374 211.427036 
L 149.514715 213.650403 
L 144.280148 215.87377 
L 143.512777 218.097137 
L 138.250805 220.320503 
L 136.579032 222.54387 
L 133.262893 224.767237 
L 125.835839 226.990603 
L 115.202269 229.21397 
L 92.619637 231.437337 
L 88.289472 233.660704 
L 96.593523 235.88407 
L 98.676387 238.107437 
L 107.144874 240.330804 
L 127.809078 242.55417 
L 139.566298 244.777537 
L 158.175045 247.000904 
L 173.604683 249.224271 
L 175.577922 251.447637 
L 173.275809 253.671004 
L 202.956623 255.894371 
L 212.439136 258.117737 
L 212.356918 260.341104 
L 212.384324 262.564471 
L 212.54876 264.787838 
L 212.493948 267.011204 
L 212.41173 269.234571 
L 212.54876 271.457938 
" style="fill:none;stroke:#258d41;stroke-dasharray:9.6,2.4,1.5,2.4;stroke-dashoffset:0;stroke-width:1.5;"/>
   </g>
   <g id="line2d_15">
    <path clip-path="url(#pb2c8d3e6f6)" d="M 178.011137 53.568 
L 181.64803 55.731139 
L 182.66636 57.894278 
L 182.520884 60.057417 
L 182.026266 62.220556 
L 181.473459 64.383695 
L 181.64803 66.546833 
L 181.531649 68.709972 
L 179.902321 70.873111 
L 181.502554 73.03625 
L 180.222368 75.199389 
L 177.458329 77.362528 
L 175.159813 79.525667 
L 170.271829 81.688806 
L 168.322454 83.851945 
L 167.333219 86.015084 
L 165.936652 88.178222 
L 163.521756 90.341361 
L 165.267464 92.5045 
L 165.616606 94.667639 
L 166.140318 96.830778 
L 166.984078 98.993917 
L 166.48946 101.157056 
L 167.624171 103.320195 
L 166.896792 105.483334 
L 167.944217 107.646473 
L 168.235169 109.809612 
L 167.362314 111.97275 
L 167.420505 114.135889 
L 167.536885 116.299028 
L 167.769646 118.462167 
L 167.769646 120.625306 
L 169.515355 122.788445 
L 167.740551 124.951584 
L 167.4496 127.114723 
L 167.39141 129.277862 
L 168.118788 131.441001 
L 166.54765 133.60414 
L 165.849367 135.767278 
L 165.645701 137.930417 
L 165.936652 140.093556 
L 165.558416 142.256695 
L 165.209274 144.419834 
L 164.51099 146.582973 
L 165.791177 148.746112 
L 165.762082 150.909251 
L 165.674796 153.07239 
L 164.947418 155.235529 
L 164.307324 157.398667 
L 164.307324 159.561806 
L 165.267464 161.724945 
L 164.103658 163.888084 
L 163.201709 166.051223 
L 163.49266 168.214362 
L 162.765282 170.377501 
L 162.096094 172.54064 
L 161.048668 174.703779 
L 162.532521 176.866918 
L 160.2631 179.030057 
L 158.982913 181.193195 
L 159.099294 183.356334 
L 158.779247 185.519473 
L 157.149919 187.682612 
L 155.084164 189.845751 
L 155.316925 192.00889 
L 153.163885 194.172029 
L 150.370751 196.335168 
L 148.014044 198.498307 
L 144.755388 200.661446 
L 140.07107 202.824584 
L 136.055941 204.987723 
L 138.616313 207.150862 
L 136.201416 209.314001 
L 135.561323 211.47714 
L 136.288702 213.640279 
L 138.645408 215.803418 
L 140.362022 217.966557 
L 140.274736 220.129696 
L 140.682068 222.292835 
L 140.652973 224.455974 
L 138.354457 226.619112 
L 135.328562 228.782251 
L 134.368422 230.94539 
L 128.171157 233.108529 
L 126.454544 235.271668 
L 124.243313 237.434807 
L 130.760625 239.597946 
L 155.869733 241.761085 
L 167.420505 243.924224 
L 173.210438 246.087363 
L 175.421669 248.250502 
L 177.603805 250.41364 
L 186.885155 252.576779 
L 187.379773 254.739918 
L 189.038196 256.903057 
L 189.649194 259.066196 
L 196.661123 261.229335 
L 197.068455 263.392474 
L 198.901449 265.555613 
" style="fill:none;stroke:#115029;stroke-linecap:square;stroke-width:1.5;"/>
   </g>
   <g id="patch_3">
    <path d="M 57.6 307.584 
L 57.6 41.472 
" style="fill:none;stroke:#000000;stroke-linecap:square;stroke-linejoin:miter;stroke-width:0.8;"/>
   </g>
   <g id="patch_4">
    <path d="M 219.927273 307.584 
L 219.927273 41.472 
" style="fill:none;stroke:#000000;stroke-linecap:square;stroke-linejoin:miter;stroke-width:0.8;"/>
   </g>
   <g id="patch_5">
    <path d="M 57.6 307.584 
L 219.927273 307.584 
" style="fill:none;stroke:#000000;stroke-linecap:square;stroke-linejoin:miter;stroke-width:0.8;"/>
   </g>
   <g id="patch_6">
    <path d="M 57.6 41.472 
L 219.927273 41.472 
" style="fill:none;stroke:#000000;stroke-linecap:square;stroke-linejoin:miter;stroke-width:0.8;"/>
   </g>
  </g>
  <g id="axes_2">
   <g id="patch_7">
    <path d="M 252.392727 307.584 
L 414.72 307.584 
L 414.72 41.472 
L 252.392727 41.472 
z
" style="fill:#ffffff;"/>
   </g>
   <g id="matplotlib.axis_3">
    <g id="xtick_6">
     <g id="line2d_16">
      <g>
       <use style="stroke:#000000;stroke-width:0.8;" x="258.721333" xlink:href="#mc2edf7fc91" y="307.584"/>
      </g>
     </g>
     <g id="text_13">
      <!-- 0.0 -->
      <g transform="translate(246.793989 325.981656)scale(0.15 -0.15)">
       <use xlink:href="#DejaVuSans-48"/>
       <use x="63.623047" xlink:href="#DejaVuSans-46"/>
       <use x="95.410156" xlink:href="#DejaVuSans-48"/>
      </g>
     </g>
    </g>
    <g id="xtick_7">
     <g id="line2d_17">
      <g>
       <use style="stroke:#000000;stroke-width:0.8;" x="333.03141" xlink:href="#mc2edf7fc91" y="307.584"/>
      </g>
     </g>
     <g id="text_14">
      <!-- 0.5 -->
      <defs>
       <path d="M 10.796875 72.90625 
L 49.515625 72.90625 
L 49.515625 64.59375 
L 19.828125 64.59375 
L 19.828125 46.734375 
Q 21.96875 47.46875 24.109375 47.828125 
Q 26.265625 48.1875 28.421875 48.1875 
Q 40.625 48.1875 47.75 41.5 
Q 54.890625 34.8125 54.890625 23.390625 
Q 54.890625 11.625 47.5625 5.09375 
Q 40.234375 -1.421875 26.90625 -1.421875 
Q 22.3125 -1.421875 17.546875 -0.640625 
Q 12.796875 0.140625 7.71875 1.703125 
L 7.71875 11.625 
Q 12.109375 9.234375 16.796875 8.0625 
Q 21.484375 6.890625 26.703125 6.890625 
Q 35.15625 6.890625 40.078125 11.328125 
Q 45.015625 15.765625 45.015625 23.390625 
Q 45.015625 31 40.078125 35.4375 
Q 35.15625 39.890625 26.703125 39.890625 
Q 22.75 39.890625 18.8125 39.015625 
Q 14.890625 38.140625 10.796875 36.28125 
z
" id="DejaVuSans-53"/>
      </defs>
      <g transform="translate(321.104066 325.981656)scale(0.15 -0.15)">
       <use xlink:href="#DejaVuSans-48"/>
       <use x="63.623047" xlink:href="#DejaVuSans-46"/>
       <use x="95.410156" xlink:href="#DejaVuSans-53"/>
      </g>
     </g>
    </g>
    <g id="xtick_8">
     <g id="line2d_18">
      <g>
       <use style="stroke:#000000;stroke-width:0.8;" x="407.341488" xlink:href="#mc2edf7fc91" y="307.584"/>
      </g>
     </g>
     <g id="text_15">
      <!-- 1.0 -->
      <g transform="translate(395.414144 325.981656)scale(0.15 -0.15)">
       <use xlink:href="#DejaVuSans-49"/>
       <use x="63.623047" xlink:href="#DejaVuSans-46"/>
       <use x="95.410156" xlink:href="#DejaVuSans-48"/>
      </g>
     </g>
    </g>
    <g id="text_16">
     <!-- CDF -->
     <defs>
      <path d="M 64.40625 67.28125 
L 64.40625 56.890625 
Q 59.421875 61.53125 53.78125 63.8125 
Q 48.140625 66.109375 41.796875 66.109375 
Q 29.296875 66.109375 22.65625 58.46875 
Q 16.015625 50.828125 16.015625 36.375 
Q 16.015625 21.96875 22.65625 14.328125 
Q 29.296875 6.6875 41.796875 6.6875 
Q 48.140625 6.6875 53.78125 8.984375 
Q 59.421875 11.28125 64.40625 15.921875 
L 64.40625 5.609375 
Q 59.234375 2.09375 53.4375 0.328125 
Q 47.65625 -1.421875 41.21875 -1.421875 
Q 24.65625 -1.421875 15.125 8.703125 
Q 5.609375 18.84375 5.609375 36.375 
Q 5.609375 53.953125 15.125 64.078125 
Q 24.65625 74.21875 41.21875 74.21875 
Q 47.75 74.21875 53.53125 72.484375 
Q 59.328125 70.75 64.40625 67.28125 
z
" id="DejaVuSans-67"/>
     </defs>
     <g transform="translate(316.187145 346.018531)scale(0.17 -0.17)">
      <use xlink:href="#DejaVuSans-67"/>
      <use x="69.824219" xlink:href="#DejaVuSans-68"/>
      <use x="146.826172" xlink:href="#DejaVuSans-70"/>
     </g>
    </g>
   </g>
   <g id="matplotlib.axis_4"/>
   <g id="line2d_19">
    <path clip-path="url(#p6be14d9dd0)" d="M 262.780357 53.568 
L 263.764122 56.036571 
L 264.740802 58.505143 
L 265.72988 60.973714 
L 266.635722 63.442286 
L 267.53271 65.910857 
L 268.460689 68.379429 
L 269.331113 70.848 
L 270.212162 73.316571 
L 271.102951 75.785143 
L 271.952123 78.253714 
L 272.828745 80.722286 
L 273.671719 83.190857 
L 274.493441 85.659429 
L 275.365635 88.128 
L 276.168763 90.596571 
L 276.988714 93.065143 
L 277.806894 95.533714 
L 278.61622 98.002286 
L 279.436171 100.470857 
L 280.247268 102.939429 
L 281.053937 105.408 
L 281.965978 107.876571 
L 282.867393 110.345143 
L 283.749327 112.813714 
L 284.615323 115.282286 
L 285.503456 117.750857 
L 286.387162 120.219429 
L 287.267326 122.688 
L 288.16697 125.156571 
L 289.082553 127.625143 
L 290.012303 130.093714 
L 290.934084 132.562286 
L 291.965664 135.030857 
L 293.029122 137.499429 
L 294.088152 139.968 
L 295.192341 142.436571 
L 296.33372 144.905143 
L 297.726575 147.373714 
L 299.45591 149.842286 
L 301.204727 152.310857 
L 303.002244 154.779429 
L 305.032642 157.248 
L 307.372956 159.716571 
L 310.079858 162.185143 
L 312.748684 164.653714 
L 315.272293 167.122286 
L 317.657766 169.590857 
L 319.936098 172.059429 
L 322.080722 174.528 
L 324.063304 176.996571 
L 326.006925 179.465143 
L 327.886791 181.933714 
L 329.888854 184.402286 
L 332.122911 186.870857 
L 334.330404 189.339429 
L 336.684001 191.808 
L 339.635294 194.276571 
L 343.367578 196.745143 
L 348.340414 199.213714 
L 352.462308 201.682286 
L 356.61962 204.150857 
L 360.910639 206.619429 
L 365.830347 209.088 
L 370.64911 211.556571 
L 375.765394 214.025143 
L 380.427428 216.493714 
L 384.656464 218.962286 
L 388.617201 221.430857 
L 391.968729 223.899429 
L 395.188322 226.368 
L 397.582651 228.836571 
L 399.358031 231.305143 
L 400.843861 233.773714 
L 402.202182 236.242286 
L 403.386949 238.710857 
L 404.337066 241.179429 
L 405.020654 243.648 
L 405.515635 246.116571 
L 405.881337 248.585143 
L 406.217818 251.053714 
L 406.494087 253.522286 
L 406.659671 255.990857 
L 406.774783 258.459429 
L 406.851819 260.928 
L 406.919115 263.396571 
L 406.976671 265.865143 
L 407.032456 268.333714 
L 407.069646 270.802286 
L 407.097982 273.270857 
L 407.124546 275.739429 
L 407.157308 278.208 
L 407.184758 280.676571 
L 407.216635 283.145143 
L 407.250284 285.613714 
L 407.29013 288.082286 
L 407.313152 290.550857 
L 407.326435 293.019429 
L 407.341488 295.488 
" style="fill:none;stroke:#000000;stroke-linecap:square;stroke-width:3;"/>
   </g>
   <g id="line2d_20">
    <path clip-path="url(#p6be14d9dd0)" d="M 260.295621 53.568 
L 261.674103 55.58509 
L 263.011683 57.602181 
L 264.412791 59.619271 
L 265.775608 61.636361 
L 267.187159 63.653452 
L 268.573473 65.670542 
L 269.923236 67.687633 
L 271.216433 69.704723 
L 272.434788 71.721813 
L 273.572209 73.738904 
L 274.698317 75.755994 
L 275.746973 77.773084 
L 276.793888 79.790175 
L 277.829489 81.807265 
L 278.836373 83.824355 
L 279.843256 85.841446 
L 280.894522 87.858536 
L 281.95014 89.875626 
L 283.055362 91.892717 
L 284.187561 93.909807 
L 285.299745 95.926898 
L 286.431075 97.943988 
L 287.64856 99.961078 
L 288.811218 101.978169 
L 289.973007 103.995259 
L 291.139146 106.012349 
L 292.344448 108.02944 
L 293.548008 110.04653 
L 294.725461 112.06362 
L 295.942076 114.080711 
L 297.140415 116.097801 
L 298.343975 118.114891 
L 299.558849 120.131982 
L 300.765891 122.149072 
L 302.006002 124.166163 
L 303.244373 126.183253 
L 304.520165 128.200343 
L 305.770719 130.217434 
L 307.049121 132.234524 
L 308.287492 134.251614 
L 309.560673 136.268705 
L 310.834724 138.285795 
L 312.116607 140.302885 
L 313.388918 142.319976 
L 314.657748 144.337066 
L 315.920486 146.354156 
L 317.218034 148.371247 
L 318.50949 150.388337 
L 319.84881 152.405428 
L 321.148098 154.422518 
L 322.453479 156.439608 
L 323.774524 158.456699 
L 325.094698 160.473789 
L 326.441851 162.490879 
L 327.795965 164.50797 
L 329.144858 166.52506 
L 330.512026 168.54215 
L 331.889638 170.559241 
L 333.298578 172.576331 
L 334.67706 174.593421 
L 336.096443 176.610512 
L 337.559339 178.627602 
L 339.010922 180.644693 
L 340.466856 182.661783 
L 341.907126 184.678873 
L 343.442253 186.695964 
L 344.973029 188.713054 
L 346.490751 190.730144 
L 348.038932 192.747235 
L 349.658474 194.764325 
L 351.305864 196.781415 
L 352.937589 198.798506 
L 354.645897 200.815596 
L 356.421214 202.832686 
L 358.235692 204.849777 
L 360.027544 206.866867 
L 361.955156 208.883958 
L 363.901913 210.901048 
L 365.977468 212.918138 
L 368.123513 214.935229 
L 370.461014 216.952319 
L 373.016078 218.969409 
L 376.092424 220.9865 
L 379.355005 223.00359 
L 382.507933 225.02068 
L 386.129928 227.037771 
L 388.442192 229.054861 
L 390.685706 231.071951 
L 392.997969 233.089042 
L 395.365059 235.106132 
L 397.920123 237.123223 
L 400.096627 239.140313 
L 401.628273 241.157403 
L 403.131201 243.174494 
L 404.445284 245.191584 
L 405.473053 247.208674 
L 406.468623 249.225765 
L 407.341488 251.242855 
" style="fill:none;stroke:#a2eb7f;stroke-dasharray:1.5,2.475;stroke-dashoffset:0;stroke-width:1.5;"/>
   </g>
   <g id="line2d_21">
    <path clip-path="url(#p6be14d9dd0)" d="M 259.874436 53.568 
L 261.008096 55.653358 
L 262.012412 57.738716 
L 263.140154 59.824074 
L 264.220554 61.909433 
L 265.393101 63.994791 
L 266.58002 66.080149 
L 267.729742 68.165507 
L 268.835504 70.250865 
L 269.90576 72.336223 
L 270.974325 74.421582 
L 271.987095 76.50694 
L 273.012545 78.592298 
L 274.016016 80.677656 
L 275.019486 82.763014 
L 276.043246 84.848372 
L 277.07715 86.933731 
L 278.077239 89.019089 
L 279.090854 91.104447 
L 280.120532 93.189805 
L 281.22883 95.275163 
L 282.355726 97.360521 
L 283.521511 99.44588 
L 284.713502 101.531238 
L 285.94438 103.616596 
L 287.166805 105.701954 
L 288.398529 107.787312 
L 289.634481 109.87267 
L 290.908474 111.958028 
L 292.190921 114.043387 
L 293.460687 116.128745 
L 294.766805 118.214103 
L 296.056016 120.299461 
L 297.3317 122.384819 
L 298.620064 124.470177 
L 299.894903 126.555536 
L 301.148607 128.640894 
L 302.406538 130.726252 
L 303.680532 132.81161 
L 304.96467 134.896968 
L 306.258952 136.982326 
L 307.559998 139.067685 
L 308.886405 141.153043 
L 310.208585 143.238401 
L 311.536683 145.323759 
L 312.850409 147.409117 
L 314.191188 149.494475 
L 315.498151 151.579833 
L 316.797506 153.665192 
L 318.111232 155.75055 
L 319.447784 157.835908 
L 320.754747 159.921266 
L 322.053257 162.006624 
L 323.378818 164.091982 
L 324.714525 166.177341 
L 326.045159 168.262699 
L 327.378329 170.348057 
L 328.729252 172.433415 
L 330.089475 174.518773 
L 331.481822 176.604131 
L 332.858952 178.68949 
L 334.258907 180.774848 
L 335.680843 182.860206 
L 337.124758 184.945564 
L 338.565292 187.030922 
L 340.030342 189.11628 
L 341.480175 191.201639 
L 342.997639 193.286997 
L 344.504959 195.372355 
L 346.034258 197.457713 
L 347.588073 199.543071 
L 349.209519 201.628429 
L 350.814903 203.713787 
L 352.43973 205.799146 
L 354.120353 207.884504 
L 355.850854 209.969862 
L 357.581354 212.05522 
L 359.388785 214.140578 
L 361.224958 216.225936 
L 363.144825 218.311295 
L 365.134858 220.396653 
L 367.157862 222.482011 
L 369.372767 224.567369 
L 371.591054 226.652727 
L 374.012233 228.738085 
L 376.643067 230.823444 
L 379.570631 232.908802 
L 383.127161 234.99416 
L 386.619441 237.079518 
L 389.938418 239.164876 
L 393.183 241.250234 
L 396.385314 243.335593 
L 399.485336 245.420951 
L 401.049296 247.506309 
L 402.490676 249.591667 
L 404.014057 251.677025 
L 405.216193 253.762383 
L 406.310119 255.847741 
L 407.341488 257.9331 
" style="fill:none;stroke:#77cd86;stroke-dasharray:5.55,2.4;stroke-dashoffset:0;stroke-width:1.5;"/>
   </g>
   <g id="line2d_22">
    <path clip-path="url(#p6be14d9dd0)" d="M 259.95259 53.568 
L 261.092294 55.791367 
L 262.27478 58.014733 
L 263.424751 60.2381 
L 264.659431 62.461467 
L 265.890688 64.684834 
L 267.196385 66.9082 
L 268.387427 69.131567 
L 269.52542 71.354934 
L 270.633465 73.5783 
L 271.630279 75.801667 
L 272.65105 78.025034 
L 273.635884 80.248401 
L 274.739652 82.471767 
L 275.868233 84.695134 
L 277.112324 86.918501 
L 278.414598 89.141867 
L 279.697193 91.365234 
L 280.955831 93.588601 
L 282.252971 95.811968 
L 283.538989 98.035334 
L 284.866932 100.258701 
L 286.152094 102.482068 
L 287.47576 104.705434 
L 288.790869 106.928801 
L 290.147904 109.152168 
L 291.486115 111.375534 
L 292.885076 113.598901 
L 294.252379 115.822268 
L 295.605991 118.045635 
L 296.969871 120.269001 
L 298.328618 122.492368 
L 299.660839 124.715735 
L 300.947713 126.939101 
L 302.297047 129.162468 
L 303.642103 131.385835 
L 305.037642 133.609202 
L 306.422057 135.832568 
L 307.833853 138.055935 
L 309.251638 140.279302 
L 310.702793 142.502668 
L 312.165071 144.726035 
L 313.624782 146.949402 
L 315.092194 149.172769 
L 316.474898 151.396135 
L 317.926908 153.619502 
L 319.336137 155.842869 
L 320.752211 158.066235 
L 322.221334 160.289602 
L 323.635696 162.512969 
L 325.080006 164.736336 
L 326.549985 166.959702 
L 328.004562 169.183069 
L 329.508766 171.406436 
L 330.979601 173.629802 
L 332.487227 175.853169 
L 334.035069 178.076536 
L 335.538417 180.299903 
L 337.104227 182.523269 
L 338.657202 184.746636 
L 340.262371 186.970003 
L 341.864973 189.193369 
L 343.47442 191.416736 
L 345.12836 193.640103 
L 346.795134 195.863469 
L 348.498701 198.086836 
L 350.240771 200.310203 
L 352.035035 202.53357 
L 353.808764 204.756936 
L 355.684313 206.980303 
L 357.534193 209.20367 
L 359.522686 211.427036 
L 361.491499 213.650403 
L 363.623738 215.87377 
L 365.779935 218.097137 
L 368.100414 220.320503 
L 370.473086 222.54387 
L 372.94929 224.767237 
L 375.657371 226.990603 
L 378.697438 229.21397 
L 382.442546 231.437337 
L 386.322845 233.660704 
L 389.943887 235.88407 
L 393.499901 238.107437 
L 396.791524 240.330804 
L 399.437999 242.55417 
L 401.717407 244.777537 
L 403.41584 247.000904 
L 404.632551 249.224271 
L 405.787657 251.447637 
L 407.014636 253.671004 
L 407.314963 255.894371 
L 407.319241 258.117737 
L 407.326086 260.341104 
L 407.332076 262.564471 
L 407.332931 264.787838 
L 407.335498 267.011204 
L 407.340632 269.234571 
L 407.341488 271.457938 
" style="fill:none;stroke:#258d41;stroke-dasharray:9.6,2.4,1.5,2.4;stroke-dashoffset:0;stroke-width:1.5;"/>
   </g>
   <g id="line2d_23">
    <path clip-path="url(#p6be14d9dd0)" d="M 259.77124 53.568 
L 260.710677 55.731139 
L 261.619182 57.894278 
L 262.532106 60.057417 
L 263.460054 62.220556 
L 264.404793 64.383695 
L 265.34423 66.546833 
L 266.287202 68.709972 
L 267.279665 70.873111 
L 268.22352 73.03625 
L 269.206262 75.199389 
L 270.27296 77.362528 
L 271.409475 79.525667 
L 272.694462 81.688806 
L 274.038661 83.851945 
L 275.412908 86.015084 
L 276.829576 88.178222 
L 278.319595 90.341361 
L 279.756589 92.5045 
L 281.182977 94.667639 
L 282.593458 96.830778 
L 283.97831 98.993917 
L 285.378186 101.157056 
L 286.743595 103.320195 
L 288.131099 105.483334 
L 289.486787 107.646473 
L 290.833637 109.809612 
L 292.207 111.97275 
L 293.578595 114.135889 
L 294.946656 116.299028 
L 296.307646 118.462167 
L 297.668637 120.625306 
L 298.976602 122.788445 
L 300.338476 124.951584 
L 301.709188 127.114723 
L 303.081667 129.277862 
L 304.432052 131.441001 
L 305.830161 133.60414 
L 307.249479 135.767278 
L 308.674984 137.930417 
L 310.091651 140.093556 
L 311.519808 142.256695 
L 312.958569 144.419834 
L 314.41854 146.582973 
L 315.839627 148.746112 
L 317.261596 150.909251 
L 318.686218 153.07239 
L 320.132933 155.235529 
L 321.599091 157.398667 
L 323.065248 159.561806 
L 324.502242 161.724945 
L 325.974586 163.888084 
L 327.474327 166.051223 
L 328.96523 168.214362 
L 330.478227 170.377501 
L 332.011551 172.54064 
L 333.57669 174.703779 
L 335.096757 176.866918 
L 336.685758 179.030057 
L 338.313644 181.193195 
L 339.937995 183.356334 
L 341.572067 185.519473 
L 343.25563 187.682612 
L 345.00194 189.845751 
L 346.741179 192.00889 
L 348.545817 194.172029 
L 350.435296 196.335168 
L 352.39636 198.498307 
L 354.456404 200.661446 
L 356.658734 202.824584 
L 358.983023 204.987723 
L 361.229541 207.150862 
L 363.549411 209.314001 
L 365.888724 211.47714 
L 368.205943 213.640279 
L 370.451577 215.803418 
L 372.645069 217.966557 
L 374.841213 220.129696 
L 377.024984 222.292835 
L 379.209639 224.455974 
L 381.46411 226.619112 
L 383.810493 228.782251 
L 386.18604 230.94539 
L 388.749828 233.108529 
L 391.365758 235.271668 
L 394.048853 237.434807 
L 396.533986 239.597946 
L 398.256435 241.761085 
L 399.62803 243.924224 
L 400.823757 246.087363 
L 401.952319 248.250502 
L 403.014599 250.41364 
L 403.794959 252.576779 
L 404.560295 254.739918 
L 405.275257 256.903057 
L 405.97166 259.066196 
L 406.455076 261.229335 
L 406.92612 263.392474 
L 407.341488 265.555613 
" style="fill:none;stroke:#115029;stroke-linecap:square;stroke-width:1.5;"/>
   </g>
   <g id="patch_8">
    <path d="M 252.392727 307.584 
L 252.392727 41.472 
" style="fill:none;stroke:#000000;stroke-linecap:square;stroke-linejoin:miter;stroke-width:0.8;"/>
   </g>
   <g id="patch_9">
    <path d="M 414.72 307.584 
L 414.72 41.472 
" style="fill:none;stroke:#000000;stroke-linecap:square;stroke-linejoin:miter;stroke-width:0.8;"/>
   </g>
   <g id="patch_10">
    <path d="M 252.392727 307.584 
L 414.72 307.584 
" style="fill:none;stroke:#000000;stroke-linecap:square;stroke-linejoin:miter;stroke-width:0.8;"/>
   </g>
   <g id="patch_11">
    <path d="M 252.392727 41.472 
L 414.72 41.472 
" style="fill:none;stroke:#000000;stroke-linecap:square;stroke-linejoin:miter;stroke-width:0.8;"/>
   </g>
   <g id="legend_1">
    <g id="patch_12">
     <path d="M 321.294688 126.479813 
L 405.62 126.479813 
Q 408.22 126.479813 408.22 123.879813 
L 408.22 50.572 
Q 408.22 47.972 405.62 47.972 
L 321.294688 47.972 
Q 318.694687 47.972 318.694687 50.572 
L 318.694687 123.879813 
Q 318.694687 126.479813 321.294688 126.479813 
z
" style="fill:#ffffff;opacity:0.8;stroke:#cccccc;stroke-linejoin:miter;"/>
    </g>
    <g id="line2d_24">
     <path d="M 323.894687 58.499969 
L 349.894687 58.499969 
" style="fill:none;stroke:#000000;stroke-linecap:square;stroke-width:3;"/>
    </g>
    <g id="line2d_25"/>
    <g id="text_17">
     <!-- TS -->
     <defs>
      <path d="M -0.296875 72.90625 
L 61.375 72.90625 
L 61.375 64.59375 
L 35.5 64.59375 
L 35.5 0 
L 25.59375 0 
L 25.59375 64.59375 
L -0.296875 64.59375 
z
" id="DejaVuSans-84"/>
      <path d="M 53.515625 70.515625 
L 53.515625 60.890625 
Q 47.90625 63.578125 42.921875 64.890625 
Q 37.9375 66.21875 33.296875 66.21875 
Q 25.25 66.21875 20.875 63.09375 
Q 16.5 59.96875 16.5 54.203125 
Q 16.5 49.359375 19.40625 46.890625 
Q 22.3125 44.4375 30.421875 42.921875 
L 36.375 41.703125 
Q 47.40625 39.59375 52.65625 34.296875 
Q 57.90625 29 57.90625 20.125 
Q 57.90625 9.515625 50.796875 4.046875 
Q 43.703125 -1.421875 29.984375 -1.421875 
Q 24.8125 -1.421875 18.96875 -0.25 
Q 13.140625 0.921875 6.890625 3.21875 
L 6.890625 13.375 
Q 12.890625 10.015625 18.65625 8.296875 
Q 24.421875 6.59375 29.984375 6.59375 
Q 38.421875 6.59375 43.015625 9.90625 
Q 47.609375 13.234375 47.609375 19.390625 
Q 47.609375 24.75 44.3125 27.78125 
Q 41.015625 30.8125 33.5 32.328125 
L 27.484375 33.5 
Q 16.453125 35.6875 11.515625 40.375 
Q 6.59375 45.0625 6.59375 53.421875 
Q 6.59375 63.09375 13.40625 68.65625 
Q 20.21875 74.21875 32.171875 74.21875 
Q 37.3125 74.21875 42.625 73.28125 
Q 47.953125 72.359375 53.515625 70.515625 
z
" id="DejaVuSans-83"/>
     </defs>
     <g transform="translate(360.294687 63.049969)scale(0.13 -0.13)">
      <use xlink:href="#DejaVuSans-84"/>
      <use x="61.083984" xlink:href="#DejaVuSans-83"/>
     </g>
    </g>
    <g id="line2d_26">
     <path d="M 323.894687 72.381531 
L 349.894687 72.381531 
" style="fill:none;stroke:#a2eb7f;stroke-dasharray:1.5,2.475;stroke-dashoffset:0;stroke-width:1.5;"/>
    </g>
    <g id="line2d_27"/>
    <g id="text_18">
     <!-- RB, n0 -->
     <defs>
      <path d="M 44.390625 34.1875 
Q 47.5625 33.109375 50.5625 29.59375 
Q 53.5625 26.078125 56.59375 19.921875 
L 66.609375 0 
L 56 0 
L 46.6875 18.703125 
Q 43.0625 26.03125 39.671875 28.421875 
Q 36.28125 30.8125 30.421875 30.8125 
L 19.671875 30.8125 
L 19.671875 0 
L 9.8125 0 
L 9.8125 72.90625 
L 32.078125 72.90625 
Q 44.578125 72.90625 50.734375 67.671875 
Q 56.890625 62.453125 56.890625 51.90625 
Q 56.890625 45.015625 53.6875 40.46875 
Q 50.484375 35.9375 44.390625 34.1875 
z
M 19.671875 64.796875 
L 19.671875 38.921875 
L 32.078125 38.921875 
Q 39.203125 38.921875 42.84375 42.21875 
Q 46.484375 45.515625 46.484375 51.90625 
Q 46.484375 58.296875 42.84375 61.546875 
Q 39.203125 64.796875 32.078125 64.796875 
z
" id="DejaVuSans-82"/>
      <path d="M 19.671875 34.8125 
L 19.671875 8.109375 
L 35.5 8.109375 
Q 43.453125 8.109375 47.28125 11.40625 
Q 51.125 14.703125 51.125 21.484375 
Q 51.125 28.328125 47.28125 31.5625 
Q 43.453125 34.8125 35.5 34.8125 
z
M 19.671875 64.796875 
L 19.671875 42.828125 
L 34.28125 42.828125 
Q 41.5 42.828125 45.03125 45.53125 
Q 48.578125 48.25 48.578125 53.8125 
Q 48.578125 59.328125 45.03125 62.0625 
Q 41.5 64.796875 34.28125 64.796875 
z
M 9.8125 72.90625 
L 35.015625 72.90625 
Q 46.296875 72.90625 52.390625 68.21875 
Q 58.5 63.53125 58.5 54.890625 
Q 58.5 48.1875 55.375 44.234375 
Q 52.25 40.28125 46.1875 39.3125 
Q 53.46875 37.75 57.5 32.78125 
Q 61.53125 27.828125 61.53125 20.40625 
Q 61.53125 10.640625 54.890625 5.3125 
Q 48.25 0 35.984375 0 
L 9.8125 0 
z
" id="DejaVuSans-66"/>
      <path d="M 11.71875 12.40625 
L 22.015625 12.40625 
L 22.015625 4 
L 14.015625 -11.625 
L 7.71875 -11.625 
L 11.71875 4 
z
" id="DejaVuSans-44"/>
      <path d="M 54.890625 33.015625 
L 54.890625 0 
L 45.90625 0 
L 45.90625 32.71875 
Q 45.90625 40.484375 42.875 44.328125 
Q 39.84375 48.1875 33.796875 48.1875 
Q 26.515625 48.1875 22.3125 43.546875 
Q 18.109375 38.921875 18.109375 30.90625 
L 18.109375 0 
L 9.078125 0 
L 9.078125 54.6875 
L 18.109375 54.6875 
L 18.109375 46.1875 
Q 21.34375 51.125 25.703125 53.5625 
Q 30.078125 56 35.796875 56 
Q 45.21875 56 50.046875 50.171875 
Q 54.890625 44.34375 54.890625 33.015625 
z
" id="DejaVuSans-110"/>
     </defs>
     <g transform="translate(360.294687 76.931531)scale(0.13 -0.13)">
      <use xlink:href="#DejaVuSans-82"/>
      <use x="69.482422" xlink:href="#DejaVuSans-66"/>
      <use x="138.085938" xlink:href="#DejaVuSans-44"/>
      <use x="169.873047" xlink:href="#DejaVuSans-32"/>
      <use x="201.660156" xlink:href="#DejaVuSans-110"/>
      <use x="265.039062" xlink:href="#DejaVuSans-48"/>
     </g>
    </g>
    <g id="line2d_28">
     <path d="M 323.894687 86.263094 
L 349.894687 86.263094 
" style="fill:none;stroke:#77cd86;stroke-dasharray:5.55,2.4;stroke-dashoffset:0;stroke-width:1.5;"/>
    </g>
    <g id="line2d_29"/>
    <g id="text_19">
     <!-- RB, s0 -->
     <defs>
      <path d="M 44.28125 53.078125 
L 44.28125 44.578125 
Q 40.484375 46.53125 36.375 47.5 
Q 32.28125 48.484375 27.875 48.484375 
Q 21.1875 48.484375 17.84375 46.4375 
Q 14.5 44.390625 14.5 40.28125 
Q 14.5 37.15625 16.890625 35.375 
Q 19.28125 33.59375 26.515625 31.984375 
L 29.59375 31.296875 
Q 39.15625 29.25 43.1875 25.515625 
Q 47.21875 21.78125 47.21875 15.09375 
Q 47.21875 7.46875 41.1875 3.015625 
Q 35.15625 -1.421875 24.609375 -1.421875 
Q 20.21875 -1.421875 15.453125 -0.5625 
Q 10.6875 0.296875 5.421875 2 
L 5.421875 11.28125 
Q 10.40625 8.6875 15.234375 7.390625 
Q 20.0625 6.109375 24.8125 6.109375 
Q 31.15625 6.109375 34.5625 8.28125 
Q 37.984375 10.453125 37.984375 14.40625 
Q 37.984375 18.0625 35.515625 20.015625 
Q 33.0625 21.96875 24.703125 23.78125 
L 21.578125 24.515625 
Q 13.234375 26.265625 9.515625 29.90625 
Q 5.8125 33.546875 5.8125 39.890625 
Q 5.8125 47.609375 11.28125 51.796875 
Q 16.75 56 26.8125 56 
Q 31.78125 56 36.171875 55.265625 
Q 40.578125 54.546875 44.28125 53.078125 
z
" id="DejaVuSans-115"/>
     </defs>
     <g transform="translate(360.294687 90.813094)scale(0.13 -0.13)">
      <use xlink:href="#DejaVuSans-82"/>
      <use x="69.482422" xlink:href="#DejaVuSans-66"/>
      <use x="138.085938" xlink:href="#DejaVuSans-44"/>
      <use x="169.873047" xlink:href="#DejaVuSans-32"/>
      <use x="201.660156" xlink:href="#DejaVuSans-115"/>
      <use x="253.759766" xlink:href="#DejaVuSans-48"/>
     </g>
    </g>
    <g id="line2d_30">
     <path d="M 323.894687 100.144656 
L 349.894687 100.144656 
" style="fill:none;stroke:#258d41;stroke-dasharray:9.6,2.4,1.5,2.4;stroke-dashoffset:0;stroke-width:1.5;"/>
    </g>
    <g id="line2d_31"/>
    <g id="text_20">
     <!-- RB, s1 -->
     <g transform="translate(360.294687 104.694656)scale(0.13 -0.13)">
      <use xlink:href="#DejaVuSans-82"/>
      <use x="69.482422" xlink:href="#DejaVuSans-66"/>
      <use x="138.085938" xlink:href="#DejaVuSans-44"/>
      <use x="169.873047" xlink:href="#DejaVuSans-32"/>
      <use x="201.660156" xlink:href="#DejaVuSans-115"/>
      <use x="253.759766" xlink:href="#DejaVuSans-49"/>
     </g>
    </g>
    <g id="line2d_32">
     <path d="M 323.894687 114.026219 
L 349.894687 114.026219 
" style="fill:none;stroke:#115029;stroke-linecap:square;stroke-width:1.5;"/>
    </g>
    <g id="line2d_33"/>
    <g id="text_21">
     <!-- RB, s2 -->
     <g transform="translate(360.294687 118.576219)scale(0.13 -0.13)">
      <use xlink:href="#DejaVuSans-82"/>
      <use x="69.482422" xlink:href="#DejaVuSans-66"/>
      <use x="138.085938" xlink:href="#DejaVuSans-44"/>
      <use x="169.873047" xlink:href="#DejaVuSans-32"/>
      <use x="201.660156" xlink:href="#DejaVuSans-115"/>
      <use x="253.759766" xlink:href="#DejaVuSans-50"/>
     </g>
    </g>
   </g>
  </g>
 </g>
 <defs>
  <clipPath id="pb2c8d3e6f6">
   <rect height="266.112" width="162.327273" x="57.6" y="41.472"/>
  </clipPath>
  <clipPath id="p6be14d9dd0">
   <rect height="266.112" width="162.327273" x="252.392727" y="41.472"/>
  </clipPath>
 </defs>
</svg>
