<?xml version="1.0" encoding="utf-8" standalone="no"?>
<!DOCTYPE svg PUBLIC "-//W3C//DTD SVG 1.1//EN"
  "http://www.w3.org/Graphics/SVG/1.1/DTD/svg11.dtd">
<!-- Created with matplotlib (https://matplotlib.org/) -->
<svg height="345.6pt" version="1.1" viewBox="0 0 460.8 345.6" width="460.8pt" xmlns="http://www.w3.org/2000/svg" xmlns:xlink="http://www.w3.org/1999/xlink">
 <defs>
  <style type="text/css">
*{stroke-linecap:butt;stroke-linejoin:round;}
  </style>
 </defs>
 <g id="figure_1">
  <g id="patch_1">
   <path d="M 0 345.6 
L 460.8 345.6 
L 460.8 0 
L 0 0 
z
" style="fill:#ffffff;"/>
  </g>
  <g id="axes_1">
   <g id="patch_2">
    <path d="M 57.6 307.584 
L 219.927273 307.584 
L 219.927273 41.472 
L 57.6 41.472 
z
" style="fill:#ffffff;"/>
   </g>
   <g id="matplotlib.axis_1">
    <g id="xtick_1">
     <g id="line2d_1">
      <defs>
       <path d="M 0 0 
L 0 3.5 
" id="m4a4e22345f" style="stroke:#000000;stroke-width:0.8;"/>
      </defs>
      <g>
       <use style="stroke:#000000;stroke-width:0.8;" x="212.640261" xlink:href="#m4a4e22345f" y="307.584"/>
      </g>
     </g>
     <g id="text_1">
      <!-- 0.00 -->
      <defs>
       <path d="M 31.78125 66.40625 
Q 24.171875 66.40625 20.328125 58.90625 
Q 16.5 51.421875 16.5 36.375 
Q 16.5 21.390625 20.328125 13.890625 
Q 24.171875 6.390625 31.78125 6.390625 
Q 39.453125 6.390625 43.28125 13.890625 
Q 47.125 21.390625 47.125 36.375 
Q 47.125 51.421875 43.28125 58.90625 
Q 39.453125 66.40625 31.78125 66.40625 
z
M 31.78125 74.21875 
Q 44.046875 74.21875 50.515625 64.515625 
Q 56.984375 54.828125 56.984375 36.375 
Q 56.984375 17.96875 50.515625 8.265625 
Q 44.046875 -1.421875 31.78125 -1.421875 
Q 19.53125 -1.421875 13.0625 8.265625 
Q 6.59375 17.96875 6.59375 36.375 
Q 6.59375 54.828125 13.0625 64.515625 
Q 19.53125 74.21875 31.78125 74.21875 
z
" id="DejaVuSans-48"/>
       <path d="M 10.6875 12.40625 
L 21 12.40625 
L 21 0 
L 10.6875 0 
z
" id="DejaVuSans-46"/>
      </defs>
      <g transform="translate(195.941043 325.981656)scale(0.15 -0.15)">
       <use xlink:href="#DejaVuSans-48"/>
       <use x="63.623047" xlink:href="#DejaVuSans-46"/>
       <use x="95.410156" xlink:href="#DejaVuSans-48"/>
       <use x="159.033203" xlink:href="#DejaVuSans-48"/>
      </g>
     </g>
    </g>
    <g id="xtick_2">
     <g id="line2d_2">
      <g>
       <use style="stroke:#000000;stroke-width:0.8;" x="175.349466" xlink:href="#m4a4e22345f" y="307.584"/>
      </g>
     </g>
     <g id="text_2">
      <!-- 0.25 -->
      <defs>
       <path d="M 19.1875 8.296875 
L 53.609375 8.296875 
L 53.609375 0 
L 7.328125 0 
L 7.328125 8.296875 
Q 12.9375 14.109375 22.625 23.890625 
Q 32.328125 33.6875 34.8125 36.53125 
Q 39.546875 41.84375 41.421875 45.53125 
Q 43.3125 49.21875 43.3125 52.78125 
Q 43.3125 58.59375 39.234375 62.25 
Q 35.15625 65.921875 28.609375 65.921875 
Q 23.96875 65.921875 18.8125 64.3125 
Q 13.671875 62.703125 7.8125 59.421875 
L 7.8125 69.390625 
Q 13.765625 71.78125 18.9375 73 
Q 24.125 74.21875 28.421875 74.21875 
Q 39.75 74.21875 46.484375 68.546875 
Q 53.21875 62.890625 53.21875 53.421875 
Q 53.21875 48.921875 51.53125 44.890625 
Q 49.859375 40.875 45.40625 35.40625 
Q 44.1875 33.984375 37.640625 27.21875 
Q 31.109375 20.453125 19.1875 8.296875 
z
" id="DejaVuSans-50"/>
       <path d="M 10.796875 72.90625 
L 49.515625 72.90625 
L 49.515625 64.59375 
L 19.828125 64.59375 
L 19.828125 46.734375 
Q 21.96875 47.46875 24.109375 47.828125 
Q 26.265625 48.1875 28.421875 48.1875 
Q 40.625 48.1875 47.75 41.5 
Q 54.890625 34.8125 54.890625 23.390625 
Q 54.890625 11.625 47.5625 5.09375 
Q 40.234375 -1.421875 26.90625 -1.421875 
Q 22.3125 -1.421875 17.546875 -0.640625 
Q 12.796875 0.140625 7.71875 1.703125 
L 7.71875 11.625 
Q 12.109375 9.234375 16.796875 8.0625 
Q 21.484375 6.890625 26.703125 6.890625 
Q 35.15625 6.890625 40.078125 11.328125 
Q 45.015625 15.765625 45.015625 23.390625 
Q 45.015625 31 40.078125 35.4375 
Q 35.15625 39.890625 26.703125 39.890625 
Q 22.75 39.890625 18.8125 39.015625 
Q 14.890625 38.140625 10.796875 36.28125 
z
" id="DejaVuSans-53"/>
      </defs>
      <g transform="translate(158.650247 325.981656)scale(0.15 -0.15)">
       <use xlink:href="#DejaVuSans-48"/>
       <use x="63.623047" xlink:href="#DejaVuSans-46"/>
       <use x="95.410156" xlink:href="#DejaVuSans-50"/>
       <use x="159.033203" xlink:href="#DejaVuSans-53"/>
      </g>
     </g>
    </g>
    <g id="xtick_3">
     <g id="line2d_3">
      <g>
       <use style="stroke:#000000;stroke-width:0.8;" x="138.058671" xlink:href="#m4a4e22345f" y="307.584"/>
      </g>
     </g>
     <g id="text_3">
      <!-- 0.50 -->
      <g transform="translate(121.359452 325.981656)scale(0.15 -0.15)">
       <use xlink:href="#DejaVuSans-48"/>
       <use x="63.623047" xlink:href="#DejaVuSans-46"/>
       <use x="95.410156" xlink:href="#DejaVuSans-53"/>
       <use x="159.033203" xlink:href="#DejaVuSans-48"/>
      </g>
     </g>
    </g>
    <g id="xtick_4">
     <g id="line2d_4">
      <g>
       <use style="stroke:#000000;stroke-width:0.8;" x="100.767876" xlink:href="#m4a4e22345f" y="307.584"/>
      </g>
     </g>
     <g id="text_4">
      <!-- 0.75 -->
      <defs>
       <path d="M 8.203125 72.90625 
L 55.078125 72.90625 
L 55.078125 68.703125 
L 28.609375 0 
L 18.3125 0 
L 43.21875 64.59375 
L 8.203125 64.59375 
z
" id="DejaVuSans-55"/>
      </defs>
      <g transform="translate(84.068657 325.981656)scale(0.15 -0.15)">
       <use xlink:href="#DejaVuSans-48"/>
       <use x="63.623047" xlink:href="#DejaVuSans-46"/>
       <use x="95.410156" xlink:href="#DejaVuSans-55"/>
       <use x="159.033203" xlink:href="#DejaVuSans-53"/>
      </g>
     </g>
    </g>
    <g id="xtick_5">
     <g id="line2d_5">
      <g>
       <use style="stroke:#000000;stroke-width:0.8;" x="63.477081" xlink:href="#m4a4e22345f" y="307.584"/>
      </g>
     </g>
     <g id="text_5">
      <!-- 1.00 -->
      <defs>
       <path d="M 12.40625 8.296875 
L 28.515625 8.296875 
L 28.515625 63.921875 
L 10.984375 60.40625 
L 10.984375 69.390625 
L 28.421875 72.90625 
L 38.28125 72.90625 
L 38.28125 8.296875 
L 54.390625 8.296875 
L 54.390625 0 
L 12.40625 0 
z
" id="DejaVuSans-49"/>
      </defs>
      <g transform="translate(46.777862 325.981656)scale(0.15 -0.15)">
       <use xlink:href="#DejaVuSans-49"/>
       <use x="63.623047" xlink:href="#DejaVuSans-46"/>
       <use x="95.410156" xlink:href="#DejaVuSans-48"/>
       <use x="159.033203" xlink:href="#DejaVuSans-48"/>
      </g>
     </g>
    </g>
    <g id="text_6">
     <!-- PDF -->
     <defs>
      <path d="M 19.671875 64.796875 
L 19.671875 37.40625 
L 32.078125 37.40625 
Q 38.96875 37.40625 42.71875 40.96875 
Q 46.484375 44.53125 46.484375 51.125 
Q 46.484375 57.671875 42.71875 61.234375 
Q 38.96875 64.796875 32.078125 64.796875 
z
M 9.8125 72.90625 
L 32.078125 72.90625 
Q 44.34375 72.90625 50.609375 67.359375 
Q 56.890625 61.8125 56.890625 51.125 
Q 56.890625 40.328125 50.609375 34.8125 
Q 44.34375 29.296875 32.078125 29.296875 
L 19.671875 29.296875 
L 19.671875 0 
L 9.8125 0 
z
" id="DejaVuSans-80"/>
      <path d="M 19.671875 64.796875 
L 19.671875 8.109375 
L 31.59375 8.109375 
Q 46.6875 8.109375 53.6875 14.9375 
Q 60.6875 21.78125 60.6875 36.53125 
Q 60.6875 51.171875 53.6875 57.984375 
Q 46.6875 64.796875 31.59375 64.796875 
z
M 9.8125 72.90625 
L 30.078125 72.90625 
Q 51.265625 72.90625 61.171875 64.09375 
Q 71.09375 55.28125 71.09375 36.53125 
Q 71.09375 17.671875 61.125 8.828125 
Q 51.171875 0 30.078125 0 
L 9.8125 0 
z
" id="DejaVuSans-68"/>
      <path d="M 9.8125 72.90625 
L 51.703125 72.90625 
L 51.703125 64.59375 
L 19.671875 64.59375 
L 19.671875 43.109375 
L 48.578125 43.109375 
L 48.578125 34.8125 
L 19.671875 34.8125 
L 19.671875 0 
L 9.8125 0 
z
" id="DejaVuSans-70"/>
     </defs>
     <g transform="translate(122.204574 346.018531)scale(0.17 -0.17)">
      <use xlink:href="#DejaVuSans-80"/>
      <use x="60.302734" xlink:href="#DejaVuSans-68"/>
      <use x="137.304688" xlink:href="#DejaVuSans-70"/>
     </g>
    </g>
   </g>
   <g id="matplotlib.axis_2">
    <g id="ytick_1">
     <g id="line2d_6">
      <defs>
       <path d="M 0 0 
L -3.5 0 
" id="maca71afac6" style="stroke:#000000;stroke-width:0.8;"/>
      </defs>
      <g>
       <use style="stroke:#000000;stroke-width:0.8;" x="57.6" xlink:href="#maca71afac6" y="295.488"/>
      </g>
     </g>
     <g id="text_7">
      <!-- 0 -->
      <g transform="translate(41.05625 301.186828)scale(0.15 -0.15)">
       <use xlink:href="#DejaVuSans-48"/>
      </g>
     </g>
    </g>
    <g id="ytick_2">
     <g id="line2d_7">
      <g>
       <use style="stroke:#000000;stroke-width:0.8;" x="57.6" xlink:href="#maca71afac6" y="251.902135"/>
      </g>
     </g>
     <g id="text_8">
      <!-- 1 -->
      <g transform="translate(41.05625 257.600963)scale(0.15 -0.15)">
       <use xlink:href="#DejaVuSans-49"/>
      </g>
     </g>
    </g>
    <g id="ytick_3">
     <g id="line2d_8">
      <g>
       <use style="stroke:#000000;stroke-width:0.8;" x="57.6" xlink:href="#maca71afac6" y="208.31627"/>
      </g>
     </g>
     <g id="text_9">
      <!-- 2 -->
      <g transform="translate(41.05625 214.015098)scale(0.15 -0.15)">
       <use xlink:href="#DejaVuSans-50"/>
      </g>
     </g>
    </g>
    <g id="ytick_4">
     <g id="line2d_9">
      <g>
       <use style="stroke:#000000;stroke-width:0.8;" x="57.6" xlink:href="#maca71afac6" y="164.730405"/>
      </g>
     </g>
     <g id="text_10">
      <!-- 3 -->
      <defs>
       <path d="M 40.578125 39.3125 
Q 47.65625 37.796875 51.625 33 
Q 55.609375 28.21875 55.609375 21.1875 
Q 55.609375 10.40625 48.1875 4.484375 
Q 40.765625 -1.421875 27.09375 -1.421875 
Q 22.515625 -1.421875 17.65625 -0.515625 
Q 12.796875 0.390625 7.625 2.203125 
L 7.625 11.71875 
Q 11.71875 9.328125 16.59375 8.109375 
Q 21.484375 6.890625 26.8125 6.890625 
Q 36.078125 6.890625 40.9375 10.546875 
Q 45.796875 14.203125 45.796875 21.1875 
Q 45.796875 27.640625 41.28125 31.265625 
Q 36.765625 34.90625 28.71875 34.90625 
L 20.21875 34.90625 
L 20.21875 43.015625 
L 29.109375 43.015625 
Q 36.375 43.015625 40.234375 45.921875 
Q 44.09375 48.828125 44.09375 54.296875 
Q 44.09375 59.90625 40.109375 62.90625 
Q 36.140625 65.921875 28.71875 65.921875 
Q 24.65625 65.921875 20.015625 65.03125 
Q 15.375 64.15625 9.8125 62.3125 
L 9.8125 71.09375 
Q 15.4375 72.65625 20.34375 73.4375 
Q 25.25 74.21875 29.59375 74.21875 
Q 40.828125 74.21875 47.359375 69.109375 
Q 53.90625 64.015625 53.90625 55.328125 
Q 53.90625 49.265625 50.4375 45.09375 
Q 46.96875 40.921875 40.578125 39.3125 
z
" id="DejaVuSans-51"/>
      </defs>
      <g transform="translate(41.05625 170.429233)scale(0.15 -0.15)">
       <use xlink:href="#DejaVuSans-51"/>
      </g>
     </g>
    </g>
    <g id="ytick_5">
     <g id="line2d_10">
      <g>
       <use style="stroke:#000000;stroke-width:0.8;" x="57.6" xlink:href="#maca71afac6" y="121.14454"/>
      </g>
     </g>
     <g id="text_11">
      <!-- 4 -->
      <defs>
       <path d="M 37.796875 64.3125 
L 12.890625 25.390625 
L 37.796875 25.390625 
z
M 35.203125 72.90625 
L 47.609375 72.90625 
L 47.609375 25.390625 
L 58.015625 25.390625 
L 58.015625 17.1875 
L 47.609375 17.1875 
L 47.609375 0 
L 37.796875 0 
L 37.796875 17.1875 
L 4.890625 17.1875 
L 4.890625 26.703125 
z
" id="DejaVuSans-52"/>
      </defs>
      <g transform="translate(41.05625 126.843369)scale(0.15 -0.15)">
       <use xlink:href="#DejaVuSans-52"/>
      </g>
     </g>
    </g>
    <g id="ytick_6">
     <g id="line2d_11">
      <g>
       <use style="stroke:#000000;stroke-width:0.8;" x="57.6" xlink:href="#maca71afac6" y="77.558675"/>
      </g>
     </g>
     <g id="text_12">
      <!-- 5 -->
      <g transform="translate(41.05625 83.257504)scale(0.15 -0.15)">
       <use xlink:href="#DejaVuSans-53"/>
      </g>
     </g>
    </g>
    <g id="text_13">
     <!-- Velocity (m/s) -->
     <defs>
      <path d="M 28.609375 0 
L 0.78125 72.90625 
L 11.078125 72.90625 
L 34.1875 11.53125 
L 57.328125 72.90625 
L 67.578125 72.90625 
L 39.796875 0 
z
" id="DejaVuSans-86"/>
      <path d="M 56.203125 29.59375 
L 56.203125 25.203125 
L 14.890625 25.203125 
Q 15.484375 15.921875 20.484375 11.0625 
Q 25.484375 6.203125 34.421875 6.203125 
Q 39.59375 6.203125 44.453125 7.46875 
Q 49.3125 8.734375 54.109375 11.28125 
L 54.109375 2.78125 
Q 49.265625 0.734375 44.1875 -0.34375 
Q 39.109375 -1.421875 33.890625 -1.421875 
Q 20.796875 -1.421875 13.15625 6.1875 
Q 5.515625 13.8125 5.515625 26.8125 
Q 5.515625 40.234375 12.765625 48.109375 
Q 20.015625 56 32.328125 56 
Q 43.359375 56 49.78125 48.890625 
Q 56.203125 41.796875 56.203125 29.59375 
z
M 47.21875 32.234375 
Q 47.125 39.59375 43.09375 43.984375 
Q 39.0625 48.390625 32.421875 48.390625 
Q 24.90625 48.390625 20.390625 44.140625 
Q 15.875 39.890625 15.1875 32.171875 
z
" id="DejaVuSans-101"/>
      <path d="M 9.421875 75.984375 
L 18.40625 75.984375 
L 18.40625 0 
L 9.421875 0 
z
" id="DejaVuSans-108"/>
      <path d="M 30.609375 48.390625 
Q 23.390625 48.390625 19.1875 42.75 
Q 14.984375 37.109375 14.984375 27.296875 
Q 14.984375 17.484375 19.15625 11.84375 
Q 23.34375 6.203125 30.609375 6.203125 
Q 37.796875 6.203125 41.984375 11.859375 
Q 46.1875 17.53125 46.1875 27.296875 
Q 46.1875 37.015625 41.984375 42.703125 
Q 37.796875 48.390625 30.609375 48.390625 
z
M 30.609375 56 
Q 42.328125 56 49.015625 48.375 
Q 55.71875 40.765625 55.71875 27.296875 
Q 55.71875 13.875 49.015625 6.21875 
Q 42.328125 -1.421875 30.609375 -1.421875 
Q 18.84375 -1.421875 12.171875 6.21875 
Q 5.515625 13.875 5.515625 27.296875 
Q 5.515625 40.765625 12.171875 48.375 
Q 18.84375 56 30.609375 56 
z
" id="DejaVuSans-111"/>
      <path d="M 48.78125 52.59375 
L 48.78125 44.1875 
Q 44.96875 46.296875 41.140625 47.34375 
Q 37.3125 48.390625 33.40625 48.390625 
Q 24.65625 48.390625 19.8125 42.84375 
Q 14.984375 37.3125 14.984375 27.296875 
Q 14.984375 17.28125 19.8125 11.734375 
Q 24.65625 6.203125 33.40625 6.203125 
Q 37.3125 6.203125 41.140625 7.25 
Q 44.96875 8.296875 48.78125 10.40625 
L 48.78125 2.09375 
Q 45.015625 0.34375 40.984375 -0.53125 
Q 36.96875 -1.421875 32.421875 -1.421875 
Q 20.0625 -1.421875 12.78125 6.34375 
Q 5.515625 14.109375 5.515625 27.296875 
Q 5.515625 40.671875 12.859375 48.328125 
Q 20.21875 56 33.015625 56 
Q 37.15625 56 41.109375 55.140625 
Q 45.0625 54.296875 48.78125 52.59375 
z
" id="DejaVuSans-99"/>
      <path d="M 9.421875 54.6875 
L 18.40625 54.6875 
L 18.40625 0 
L 9.421875 0 
z
M 9.421875 75.984375 
L 18.40625 75.984375 
L 18.40625 64.59375 
L 9.421875 64.59375 
z
" id="DejaVuSans-105"/>
      <path d="M 18.3125 70.21875 
L 18.3125 54.6875 
L 36.8125 54.6875 
L 36.8125 47.703125 
L 18.3125 47.703125 
L 18.3125 18.015625 
Q 18.3125 11.328125 20.140625 9.421875 
Q 21.96875 7.515625 27.59375 7.515625 
L 36.8125 7.515625 
L 36.8125 0 
L 27.59375 0 
Q 17.1875 0 13.234375 3.875 
Q 9.28125 7.765625 9.28125 18.015625 
L 9.28125 47.703125 
L 2.6875 47.703125 
L 2.6875 54.6875 
L 9.28125 54.6875 
L 9.28125 70.21875 
z
" id="DejaVuSans-116"/>
      <path d="M 32.171875 -5.078125 
Q 28.375 -14.84375 24.75 -17.8125 
Q 21.140625 -20.796875 15.09375 -20.796875 
L 7.90625 -20.796875 
L 7.90625 -13.28125 
L 13.1875 -13.28125 
Q 16.890625 -13.28125 18.9375 -11.515625 
Q 21 -9.765625 23.484375 -3.21875 
L 25.09375 0.875 
L 2.984375 54.6875 
L 12.5 54.6875 
L 29.59375 11.921875 
L 46.6875 54.6875 
L 56.203125 54.6875 
z
" id="DejaVuSans-121"/>
      <path id="DejaVuSans-32"/>
      <path d="M 31 75.875 
Q 24.46875 64.65625 21.28125 53.65625 
Q 18.109375 42.671875 18.109375 31.390625 
Q 18.109375 20.125 21.3125 9.0625 
Q 24.515625 -2 31 -13.1875 
L 23.1875 -13.1875 
Q 15.875 -1.703125 12.234375 9.375 
Q 8.59375 20.453125 8.59375 31.390625 
Q 8.59375 42.28125 12.203125 53.3125 
Q 15.828125 64.359375 23.1875 75.875 
z
" id="DejaVuSans-40"/>
      <path d="M 52 44.1875 
Q 55.375 50.25 60.0625 53.125 
Q 64.75 56 71.09375 56 
Q 79.640625 56 84.28125 50.015625 
Q 88.921875 44.046875 88.921875 33.015625 
L 88.921875 0 
L 79.890625 0 
L 79.890625 32.71875 
Q 79.890625 40.578125 77.09375 44.375 
Q 74.3125 48.1875 68.609375 48.1875 
Q 61.625 48.1875 57.5625 43.546875 
Q 53.515625 38.921875 53.515625 30.90625 
L 53.515625 0 
L 44.484375 0 
L 44.484375 32.71875 
Q 44.484375 40.625 41.703125 44.40625 
Q 38.921875 48.1875 33.109375 48.1875 
Q 26.21875 48.1875 22.15625 43.53125 
Q 18.109375 38.875 18.109375 30.90625 
L 18.109375 0 
L 9.078125 0 
L 9.078125 54.6875 
L 18.109375 54.6875 
L 18.109375 46.1875 
Q 21.1875 51.21875 25.484375 53.609375 
Q 29.78125 56 35.6875 56 
Q 41.65625 56 45.828125 52.96875 
Q 50 49.953125 52 44.1875 
z
" id="DejaVuSans-109"/>
      <path d="M 25.390625 72.90625 
L 33.6875 72.90625 
L 8.296875 -9.28125 
L 0 -9.28125 
z
" id="DejaVuSans-47"/>
      <path d="M 44.28125 53.078125 
L 44.28125 44.578125 
Q 40.484375 46.53125 36.375 47.5 
Q 32.28125 48.484375 27.875 48.484375 
Q 21.1875 48.484375 17.84375 46.4375 
Q 14.5 44.390625 14.5 40.28125 
Q 14.5 37.15625 16.890625 35.375 
Q 19.28125 33.59375 26.515625 31.984375 
L 29.59375 31.296875 
Q 39.15625 29.25 43.1875 25.515625 
Q 47.21875 21.78125 47.21875 15.09375 
Q 47.21875 7.46875 41.1875 3.015625 
Q 35.15625 -1.421875 24.609375 -1.421875 
Q 20.21875 -1.421875 15.453125 -0.5625 
Q 10.6875 0.296875 5.421875 2 
L 5.421875 11.28125 
Q 10.40625 8.6875 15.234375 7.390625 
Q 20.0625 6.109375 24.8125 6.109375 
Q 31.15625 6.109375 34.5625 8.28125 
Q 37.984375 10.453125 37.984375 14.40625 
Q 37.984375 18.0625 35.515625 20.015625 
Q 33.0625 21.96875 24.703125 23.78125 
L 21.578125 24.515625 
Q 13.234375 26.265625 9.515625 29.90625 
Q 5.8125 33.546875 5.8125 39.890625 
Q 5.8125 47.609375 11.28125 51.796875 
Q 16.75 56 26.8125 56 
Q 31.78125 56 36.171875 55.265625 
Q 40.578125 54.546875 44.28125 53.078125 
z
" id="DejaVuSans-115"/>
      <path d="M 8.015625 75.875 
L 15.828125 75.875 
Q 23.140625 64.359375 26.78125 53.3125 
Q 30.421875 42.28125 30.421875 31.390625 
Q 30.421875 20.453125 26.78125 9.375 
Q 23.140625 -1.703125 15.828125 -13.1875 
L 8.015625 -13.1875 
Q 14.5 -2 17.703125 9.0625 
Q 20.90625 20.125 20.90625 31.390625 
Q 20.90625 42.671875 17.703125 53.65625 
Q 14.5 64.65625 8.015625 75.875 
z
" id="DejaVuSans-41"/>
     </defs>
     <g transform="translate(33.520781 232.779562)rotate(-90)scale(0.17 -0.17)">
      <use xlink:href="#DejaVuSans-86"/>
      <use x="60.658203" xlink:href="#DejaVuSans-101"/>
      <use x="122.181641" xlink:href="#DejaVuSans-108"/>
      <use x="149.964844" xlink:href="#DejaVuSans-111"/>
      <use x="211.146484" xlink:href="#DejaVuSans-99"/>
      <use x="266.126953" xlink:href="#DejaVuSans-105"/>
      <use x="293.910156" xlink:href="#DejaVuSans-116"/>
      <use x="333.119141" xlink:href="#DejaVuSans-121"/>
      <use x="392.298828" xlink:href="#DejaVuSans-32"/>
      <use x="424.085938" xlink:href="#DejaVuSans-40"/>
      <use x="463.099609" xlink:href="#DejaVuSans-109"/>
      <use x="560.511719" xlink:href="#DejaVuSans-47"/>
      <use x="594.203125" xlink:href="#DejaVuSans-115"/>
      <use x="646.302734" xlink:href="#DejaVuSans-41"/>
     </g>
    </g>
   </g>
   <g id="line2d_12">
    <path clip-path="url(#pafd91190f4)" d="M 190.405533 295.488 
L 175.49088 293.019429 
L 172.745852 290.550857 
L 176.771894 288.082286 
L 178.41891 285.613714 
L 180.157428 283.145143 
L 183.725965 280.676571 
L 181.621443 278.208 
L 180.706434 275.739429 
L 180.797935 273.270857 
L 185.006978 270.802286 
L 185.830486 268.333714 
L 185.098479 265.865143 
L 185.372982 263.396571 
L 189.033019 260.928 
L 186.104989 258.459429 
L 185.281481 255.990857 
L 181.529942 253.522286 
L 182.26195 251.053714 
L 181.895946 248.585143 
L 184.732475 246.116571 
L 176.131387 243.648 
L 177.961406 241.179429 
L 176.680393 238.710857 
L 176.222888 236.242286 
L 174.209867 233.773714 
L 176.222888 231.305143 
L 172.471349 228.836571 
L 174.209867 226.368 
L 175.399379 223.899429 
L 172.196847 221.430857 
L 166.889792 218.962286 
L 167.804802 216.493714 
L 161.399736 214.025143 
L 161.399736 211.556571 
L 157.465196 209.088 
L 163.687259 206.619429 
L 159.203713 204.150857 
L 163.77876 201.682286 
L 159.478216 199.213714 
L 155.452175 196.745143 
L 150.602625 194.276571 
L 143.648554 191.808 
L 147.583094 189.339429 
L 156.275683 186.870857 
L 161.582738 184.402286 
L 165.517278 181.933714 
L 164.419267 179.465143 
L 169.177316 176.996571 
L 171.190336 174.528 
L 168.62831 172.059429 
L 169.177316 169.590857 
L 172.288348 167.122286 
L 175.307878 164.653714 
L 171.464839 162.185143 
L 178.052907 159.716571 
L 178.510411 157.248 
L 179.974426 154.779429 
L 180.431931 152.310857 
L 183.085458 149.842286 
L 186.19649 147.373714 
L 188.758516 144.905143 
L 190.13103 142.436571 
L 189.033019 139.968 
L 193.882569 137.499429 
L 193.150561 135.030857 
L 197.268104 132.562286 
L 198.82362 130.093714 
L 199.647128 127.625143 
L 201.934652 125.156571 
L 204.588179 122.688 
L 205.045683 120.219429 
L 206.967203 117.750857 
L 206.784201 115.282286 
L 207.424708 112.813714 
L 207.516209 110.345143 
L 209.529229 107.876571 
L 208.61422 105.408 
L 209.254727 102.939429 
L 209.437728 100.470857 
L 209.254727 98.002286 
L 209.163226 95.533714 
L 209.254727 93.065143 
L 210.261237 90.596571 
L 209.986734 88.128 
L 210.627241 85.659429 
L 211.176246 83.190857 
L 210.810243 80.722286 
L 211.816753 78.253714 
L 211.999755 75.785143 
L 212.091256 73.316571 
L 212.091256 70.848 
L 212.54876 68.379429 
L 212.365758 65.910857 
L 212.365758 63.442286 
L 212.365758 60.973714 
L 212.457259 58.505143 
L 212.457259 56.036571 
L 212.457259 53.568 
" style="fill:none;stroke:#5a0003;stroke-linecap:square;stroke-width:3;"/>
   </g>
   <g id="line2d_13">
    <path clip-path="url(#pafd91190f4)" d="M 211.095413 295.488 
L 210.065514 293.370544 
L 210.065514 291.253089 
L 210.322989 289.135633 
L 206.203393 287.018177 
L 207.104555 284.900722 
L 205.559707 282.783266 
L 205.688444 280.66581 
L 202.727485 278.548355 
L 198.865364 276.430899 
L 199.766526 274.313443 
L 195.131981 272.195987 
L 191.141123 270.078532 
L 188.180163 267.961076 
L 189.210062 265.84362 
L 193.329658 263.726165 
L 193.973344 261.608709 
L 194.359557 259.491253 
L 195.904405 257.373798 
L 192.299759 255.256342 
L 192.171021 253.138886 
L 193.71587 251.021431 
L 195.389455 248.903975 
L 194.617031 246.786519 
L 195.003243 244.669064 
L 194.874506 242.551608 
L 193.329658 240.434152 
L 187.021527 238.316697 
L 193.973344 236.199241 
L 192.171021 234.081785 
L 192.943446 231.96433 
L 194.488294 229.846874 
L 193.20092 227.729418 
L 185.605416 225.611962 
L 186.506578 223.494507 
L 188.308901 221.377051 
L 187.021527 219.259595 
L 187.021527 217.14214 
L 179.940973 215.024684 
L 182.51572 212.907228 
L 184.832992 210.789773 
L 185.734154 208.672317 
L 182.386982 206.554861 
L 178.396124 204.437406 
L 179.683498 202.31995 
L 187.279002 200.202494 
L 183.288144 198.085039 
L 178.911074 195.967583 
L 177.366225 193.850127 
L 183.674356 191.732672 
L 183.030669 189.615216 
L 176.722539 187.49776 
L 173.117893 185.380304 
L 180.970871 183.262849 
L 181.228346 181.145393 
L 168.35461 179.027937 
L 173.761579 176.910482 
L 177.6237 174.793026 
L 168.612085 172.67557 
L 166.809762 170.558115 
L 171.058095 168.440659 
L 164.621227 166.323203 
L 165.007439 164.205748 
L 162.690167 162.088292 
L 157.283198 159.970836 
L 155.995824 157.853381 
L 156.896986 155.735925 
L 147.112946 153.618469 
L 144.795674 151.501014 
L 150.588855 149.383558 
L 146.984209 147.266102 
L 143.122088 145.148647 
L 142.993351 143.031191 
L 132.565625 140.913735 
L 129.347191 138.796279 
L 121.880424 136.678824 
L 97.935276 134.561368 
L 100.767498 132.443912 
L 68.711896 130.326457 
L 64.978512 128.209001 
L 94.33063 126.091545 
L 193.844607 123.97409 
L 205.173495 121.856634 
L 208.649403 119.739178 
L 209.421827 117.621723 
L 209.808039 115.504267 
L 209.679302 113.386811 
L 208.520666 111.269356 
L 211.352888 109.1519 
L 212.254049 107.034444 
L 212.382787 104.916989 
L 212.254049 102.799533 
L 212.254049 100.682077 
L 211.996574 98.564622 
L 212.125312 96.447166 
L 212.382787 94.32971 
L 212.254049 92.212254 
L 212.254049 90.094799 
L 212.125312 87.977343 
" style="fill:none;stroke:#ffcc7b;stroke-dasharray:1.5,2.475;stroke-dashoffset:0;stroke-width:1.5;"/>
   </g>
   <g id="line2d_14">
    <path clip-path="url(#pafd91190f4)" d="M 211.784299 295.488 
L 207.504489 293.395099 
L 204.447482 291.302198 
L 201.268194 289.209296 
L 196.132422 287.116395 
L 189.407005 285.023494 
L 188.306483 282.930593 
L 184.393513 280.837692 
L 184.271233 278.744791 
L 182.070188 276.651889 
L 186.349998 274.558988 
L 184.882634 272.466087 
L 184.760354 270.373186 
L 185.004915 268.280285 
L 188.917884 266.187383 
L 186.961399 264.094482 
L 191.36349 262.001581 
L 191.36349 259.90868 
L 186.472278 257.815779 
L 190.018407 255.722878 
L 186.105437 253.629976 
L 184.271233 251.537075 
L 190.507528 249.444174 
L 185.616316 247.351273 
L 182.92615 245.258372 
L 183.904392 243.16547 
L 185.860877 241.072569 
L 187.20596 238.979668 
L 178.401779 236.886767 
L 180.480544 234.793866 
L 183.782112 232.700965 
L 184.882634 230.608063 
L 175.833893 228.515162 
L 184.271233 226.422261 
L 177.790377 224.32936 
L 179.01318 222.236459 
L 178.401779 220.143557 
L 176.200734 218.050656 
L 177.178976 215.957755 
L 174.366529 213.864854 
L 175.833893 211.771953 
L 175.956173 209.679052 
L 171.309522 207.58615 
L 173.266006 205.493249 
L 173.143726 203.400348 
L 169.230757 201.307447 
L 171.187241 199.214546 
L 172.776885 197.121644 
L 169.475317 195.028743 
L 168.863916 192.935842 
L 164.461825 190.842941 
L 166.41831 188.75004 
L 167.641113 186.657139 
L 161.160257 184.564237 
L 158.22553 182.471336 
L 159.448333 180.378435 
L 161.404818 178.285534 
L 156.758167 176.192633 
L 160.304295 174.099731 
L 152.722917 172.00683 
L 148.198546 169.913929 
L 154.923962 167.821028 
L 157.002727 165.728127 
L 161.037977 163.635226 
L 163.361303 161.542324 
L 159.815174 159.449423 
L 162.1385 157.356522 
L 165.806909 155.263621 
L 167.274272 153.17072 
L 168.497075 151.077818 
L 172.043204 148.984917 
L 167.763393 146.892016 
L 167.885674 144.799115 
L 176.078453 142.706214 
L 174.61109 140.613313 
L 171.798643 138.520411 
L 177.178976 136.42751 
L 177.301256 134.334609 
L 178.034938 132.241708 
L 179.01318 130.148807 
L 186.594559 128.055905 
L 186.716839 125.963004 
L 188.184202 123.870103 
L 193.686816 121.777202 
L 196.621543 119.684301 
L 194.542778 117.5914 
L 198.822588 115.498498 
L 198.211187 113.405597 
L 199.189429 111.312696 
L 199.80083 109.219795 
L 201.390474 107.126894 
L 201.635035 105.033992 
L 204.569762 102.941091 
L 206.526247 100.84819 
L 207.259928 98.755289 
L 208.727292 96.662388 
L 209.460974 94.569487 
L 210.439216 92.476585 
L 210.561496 90.383684 
" style="fill:none;stroke:#e6a346;stroke-dasharray:5.55,2.4;stroke-dashoffset:0;stroke-width:1.5;"/>
   </g>
   <g id="line2d_15">
    <path clip-path="url(#pafd91190f4)" d="M 207.94257 295.488 
L 207.40569 293.468214 
L 206.868811 291.448427 
L 204.989735 289.428641 
L 202.0369 287.408855 
L 201.500021 285.389068 
L 201.365801 283.369282 
L 196.802329 281.349495 
L 195.191692 279.329709 
L 198.815626 277.309923 
L 200.694702 275.290136 
L 196.53389 273.27035 
L 198.412966 271.250564 
L 197.876087 269.230777 
L 197.204988 267.210991 
L 195.191692 265.191205 
L 196.53389 263.171418 
L 194.117934 261.151632 
L 194.654813 259.131846 
L 192.909956 257.112059 
L 192.104637 255.092273 
L 193.581055 253.072486 
L 193.983714 251.0527 
L 191.970418 249.032914 
L 192.775736 247.013127 
L 195.460132 244.993341 
L 193.446835 242.973555 
L 192.909956 240.953768 
L 190.091341 238.933982 
L 191.701978 236.914196 
L 191.567758 234.894409 
L 192.238857 232.874623 
L 190.359781 230.854836 
L 190.89666 228.83505 
L 190.359781 226.815264 
L 192.507297 224.795477 
L 187.541166 222.775691 
L 185.12521 220.755905 
L 189.554462 218.736118 
L 184.185671 216.716332 
L 183.111913 214.696546 
L 183.783012 212.676759 
L 181.501276 210.656973 
L 183.783012 208.637186 
L 182.440815 206.6174 
L 182.038155 204.597614 
L 182.038155 202.577827 
L 182.440815 200.558041 
L 181.367056 198.538255 
L 180.427518 196.518468 
L 180.561738 194.498682 
L 182.843474 192.478896 
L 178.280002 190.459109 
L 178.816881 188.439323 
L 178.280002 186.419537 
L 177.877343 184.39975 
L 175.595607 182.379964 
L 178.816881 180.360177 
L 174.924508 178.340391 
L 169.018838 176.320605 
L 176.132486 174.300818 
L 174.656068 172.281032 
L 164.723806 170.261246 
L 170.763695 168.241459 
L 167.676641 166.221673 
L 165.797564 164.201887 
L 164.052707 162.1821 
L 158.147037 160.162314 
L 161.502531 158.142527 
L 153.717785 156.122741 
L 153.852005 154.102955 
L 148.214775 152.083168 
L 138.416732 150.063382 
L 133.98748 148.043596 
L 137.879853 146.023809 
L 130.631986 144.004023 
L 131.168865 141.984237 
L 123.652558 139.96445 
L 118.417987 137.944664 
L 120.968163 135.924877 
L 108.485725 133.905091 
L 114.391394 131.885305 
L 135.329678 129.865518 
L 159.220795 127.845732 
L 162.44207 125.825946 
L 165.931784 123.806159 
L 165.260685 121.786373 
L 167.542421 119.766587 
L 174.924508 117.7468 
L 193.312615 115.727014 
L 193.849494 113.707228 
L 206.868811 111.687441 
L 211.432283 109.667655 
L 211.969162 107.647868 
L 211.834943 105.628082 
L 211.969162 103.608296 
L 211.566503 101.588509 
L 211.969162 99.568723 
L 212.506042 97.548937 
" style="fill:none;stroke:#b45a28;stroke-dasharray:9.6,2.4,1.5,2.4;stroke-dashoffset:0;stroke-width:1.5;"/>
   </g>
   <g id="line2d_16">
    <path clip-path="url(#pafd91190f4)" d="M 209.580786 295.488 
L 206.285966 293.332821 
L 204.638556 291.177642 
L 199.578653 289.022463 
L 198.87262 286.867283 
L 194.98944 284.712104 
L 194.048063 282.556925 
L 189.811865 280.401746 
L 188.282128 278.246567 
L 188.98816 276.091388 
L 193.106685 273.936209 
L 194.98944 271.781029 
L 191.69462 269.62585 
L 195.342456 267.470671 
L 193.93039 265.315492 
L 196.754522 263.160313 
L 191.929964 261.005134 
L 194.048063 258.849955 
L 193.224358 256.694775 
L 191.341603 254.539596 
L 196.283833 252.384417 
L 192.989013 250.229238 
L 193.106685 248.074059 
L 187.929111 245.91888 
L 191.69462 243.763701 
L 188.517472 241.608521 
L 191.341603 239.453342 
L 189.929538 237.298163 
L 189.458849 235.142984 
L 187.576095 232.987805 
L 190.282554 230.832626 
L 186.634718 228.677447 
L 187.811439 226.522267 
L 186.987734 224.367088 
L 186.164029 222.211909 
L 184.987308 220.05673 
L 186.987734 217.901551 
L 183.810586 215.746372 
L 185.10498 213.591193 
L 180.515766 211.436013 
L 179.221373 209.280834 
L 182.869209 207.125655 
L 178.51534 204.970476 
L 175.338192 202.815297 
L 174.985175 200.660118 
L 172.631733 198.504939 
L 167.57183 196.349759 
L 167.218814 194.19458 
L 164.747699 192.039401 
L 160.39383 189.884222 
L 157.452026 187.729043 
L 151.215402 185.573864 
L 153.921862 183.418685 
L 149.097304 181.263505 
L 153.451173 179.108326 
L 158.158059 176.953147 
L 153.098157 174.797968 
L 159.687797 172.642789 
L 149.803337 170.48761 
L 154.157206 168.332431 
L 145.684812 166.177251 
L 153.568845 164.022072 
L 155.216255 161.866893 
L 155.569272 159.711714 
L 156.628321 157.556535 
L 157.922715 155.401356 
L 159.570125 153.246177 
L 157.452026 151.090997 
L 148.86196 148.935818 
L 150.627042 146.780639 
L 147.80291 144.62546 
L 156.863665 142.470281 
L 165.218387 140.315102 
L 161.923567 138.159923 
L 168.042519 136.004743 
L 175.80888 133.849564 
L 182.39852 131.694385 
L 182.163176 129.539206 
L 186.517045 127.384027 
L 189.105833 125.228848 
L 190.63557 123.073668 
L 192.635997 120.918489 
L 192.28298 118.76331 
L 195.224784 116.608131 
L 193.93039 114.452952 
L 195.5778 112.297773 
L 194.165735 110.142594 
L 197.460555 107.987414 
L 197.813571 105.832235 
L 203.22649 103.677056 
L 204.403211 101.521877 
L 203.461834 99.366698 
L 207.345015 97.211519 
L 210.639835 95.05634 
L 211.581212 92.90116 
L 210.404491 90.745981 
L 211.581212 88.590802 
L 210.992851 86.435623 
L 211.345868 84.280444 
" style="fill:none;stroke:#7d1e0b;stroke-linecap:square;stroke-width:1.5;"/>
   </g>
   <g id="patch_3">
    <path d="M 57.6 307.584 
L 57.6 41.472 
" style="fill:none;stroke:#000000;stroke-linecap:square;stroke-linejoin:miter;stroke-width:0.8;"/>
   </g>
   <g id="patch_4">
    <path d="M 219.927273 307.584 
L 219.927273 41.472 
" style="fill:none;stroke:#000000;stroke-linecap:square;stroke-linejoin:miter;stroke-width:0.8;"/>
   </g>
   <g id="patch_5">
    <path d="M 57.6 307.584 
L 219.927273 307.584 
" style="fill:none;stroke:#000000;stroke-linecap:square;stroke-linejoin:miter;stroke-width:0.8;"/>
   </g>
   <g id="patch_6">
    <path d="M 57.6 41.472 
L 219.927273 41.472 
" style="fill:none;stroke:#000000;stroke-linecap:square;stroke-linejoin:miter;stroke-width:0.8;"/>
   </g>
  </g>
  <g id="axes_2">
   <g id="patch_7">
    <path d="M 252.392727 307.584 
L 414.72 307.584 
L 414.72 41.472 
L 252.392727 41.472 
z
" style="fill:#ffffff;"/>
   </g>
   <g id="matplotlib.axis_3">
    <g id="xtick_6">
     <g id="line2d_17">
      <g>
       <use style="stroke:#000000;stroke-width:0.8;" x="259.730566" xlink:href="#m4a4e22345f" y="307.584"/>
      </g>
     </g>
     <g id="text_14">
      <!-- 0.0 -->
      <g transform="translate(247.803222 325.981656)scale(0.15 -0.15)">
       <use xlink:href="#DejaVuSans-48"/>
       <use x="63.623047" xlink:href="#DejaVuSans-46"/>
       <use x="95.410156" xlink:href="#DejaVuSans-48"/>
      </g>
     </g>
    </g>
    <g id="xtick_7">
     <g id="line2d_18">
      <g>
       <use style="stroke:#000000;stroke-width:0.8;" x="333.536027" xlink:href="#m4a4e22345f" y="307.584"/>
      </g>
     </g>
     <g id="text_15">
      <!-- 0.5 -->
      <g transform="translate(321.608683 325.981656)scale(0.15 -0.15)">
       <use xlink:href="#DejaVuSans-48"/>
       <use x="63.623047" xlink:href="#DejaVuSans-46"/>
       <use x="95.410156" xlink:href="#DejaVuSans-53"/>
      </g>
     </g>
    </g>
    <g id="xtick_8">
     <g id="line2d_19">
      <g>
       <use style="stroke:#000000;stroke-width:0.8;" x="407.341488" xlink:href="#m4a4e22345f" y="307.584"/>
      </g>
     </g>
     <g id="text_16">
      <!-- 1.0 -->
      <g transform="translate(395.414144 325.981656)scale(0.15 -0.15)">
       <use xlink:href="#DejaVuSans-49"/>
       <use x="63.623047" xlink:href="#DejaVuSans-46"/>
       <use x="95.410156" xlink:href="#DejaVuSans-48"/>
      </g>
     </g>
    </g>
    <g id="text_17">
     <!-- CDF -->
     <defs>
      <path d="M 64.40625 67.28125 
L 64.40625 56.890625 
Q 59.421875 61.53125 53.78125 63.8125 
Q 48.140625 66.109375 41.796875 66.109375 
Q 29.296875 66.109375 22.65625 58.46875 
Q 16.015625 50.828125 16.015625 36.375 
Q 16.015625 21.96875 22.65625 14.328125 
Q 29.296875 6.6875 41.796875 6.6875 
Q 48.140625 6.6875 53.78125 8.984375 
Q 59.421875 11.28125 64.40625 15.921875 
L 64.40625 5.609375 
Q 59.234375 2.09375 53.4375 0.328125 
Q 47.65625 -1.421875 41.21875 -1.421875 
Q 24.65625 -1.421875 15.125 8.703125 
Q 5.609375 18.84375 5.609375 36.375 
Q 5.609375 53.953125 15.125 64.078125 
Q 24.65625 74.21875 41.21875 74.21875 
Q 47.75 74.21875 53.53125 72.484375 
Q 59.328125 70.75 64.40625 67.28125 
z
" id="DejaVuSans-67"/>
     </defs>
     <g transform="translate(316.187145 346.018531)scale(0.17 -0.17)">
      <use xlink:href="#DejaVuSans-67"/>
      <use x="69.824219" xlink:href="#DejaVuSans-68"/>
      <use x="146.826172" xlink:href="#DejaVuSans-70"/>
     </g>
    </g>
   </g>
   <g id="matplotlib.axis_4"/>
   <g id="line2d_20">
    <path clip-path="url(#p4b4c898219)" d="M 260.976769 295.488 
L 263.058902 293.019429 
L 265.294887 290.550857 
L 267.305222 288.082286 
L 269.223246 285.613714 
L 271.04383 283.145143 
L 272.664407 280.676571 
L 274.402937 278.208 
L 276.19275 275.739429 
L 277.977436 273.270857 
L 279.526215 270.802286 
L 281.028838 268.333714 
L 282.572488 265.865143 
L 284.100753 263.396571 
L 285.423882 260.928 
L 286.91112 258.459429 
L 288.444513 255.990857 
L 290.188172 253.522286 
L 291.890802 251.053714 
L 293.613947 248.585143 
L 295.178111 246.116571 
L 297.224345 243.648 
L 299.168011 241.179429 
L 301.183475 238.710857 
L 303.224581 236.242286 
L 305.378511 233.773714 
L 307.419617 231.305143 
L 309.670988 228.836571 
L 311.824918 226.368 
L 313.91218 223.899429 
L 316.178935 221.430857 
L 318.743138 218.962286 
L 321.256058 216.493714 
L 324.127965 214.025143 
L 326.999873 211.556571 
L 330.092302 209.088 
L 332.835999 206.619429 
L 335.830989 204.150857 
L 338.569558 201.682286 
L 341.549162 199.213714 
L 344.754416 196.745143 
L 348.231475 194.276571 
L 352.098294 191.808 
L 355.744591 189.339429 
L 358.903689 186.870857 
L 361.76534 184.402286 
L 364.406469 181.933714 
L 367.109139 179.465143 
L 369.545132 176.996571 
L 371.8683 174.528 
L 374.335064 172.059429 
L 376.771057 169.590857 
L 379.032684 167.122286 
L 381.125074 164.653714 
L 383.432857 162.185143 
L 385.371395 159.716571 
L 387.28429 157.248 
L 389.115131 154.779429 
L 390.92033 152.310857 
L 392.576806 149.842286 
L 394.058915 147.373714 
L 395.397429 144.905143 
L 396.659017 142.436571 
L 397.982146 139.968 
L 399.033469 137.499429 
L 400.12582 135.030857 
L 400.987392 132.562286 
L 401.761781 130.093714 
L 402.490015 127.625143 
L 403.090039 125.156571 
L 403.541338 122.688 
L 403.966996 120.219429 
L 404.284957 117.750857 
L 404.613175 115.282286 
L 404.905495 112.813714 
L 405.192685 110.345143 
L 405.367051 107.876571 
L 405.592701 105.408 
L 405.782452 102.939429 
L 405.961946 100.470857 
L 406.151697 98.002286 
L 406.346577 95.533714 
L 406.536328 93.065143 
L 406.669666 90.596571 
L 406.81839 88.128 
L 406.931215 85.659429 
L 407.01327 83.190857 
L 407.115838 80.722286 
L 407.161993 78.253714 
L 407.197892 75.785143 
L 407.228663 73.316571 
L 407.259433 70.848 
L 407.264562 68.379429 
L 407.279947 65.910857 
L 407.295332 63.442286 
L 407.310717 60.973714 
L 407.320974 58.505143 
L 407.331231 56.036571 
L 407.341488 53.568 
" style="fill:none;stroke:#5a0003;stroke-linecap:square;stroke-width:3;"/>
   </g>
   <g id="line2d_21">
    <path clip-path="url(#p4b4c898219)" d="M 259.804836 295.488 
L 259.928618 293.370544 
L 260.052401 291.253089 
L 260.163806 289.135633 
L 260.473262 287.018177 
L 260.739395 284.900722 
L 261.079798 282.783266 
L 261.414011 280.66581 
L 261.890575 278.548355 
L 262.552812 276.430899 
L 263.171726 274.313443 
L 264.013449 272.195987 
L 265.047035 270.078532 
L 266.222971 267.961076 
L 267.349394 265.84362 
L 268.277764 263.726165 
L 269.175189 261.608709 
L 270.054047 259.491253 
L 270.858635 257.373798 
L 271.836518 255.256342 
L 272.820591 253.138886 
L 273.730394 251.021431 
L 274.559739 248.903975 
L 275.426218 246.786519 
L 276.27413 244.669064 
L 277.128231 242.551608 
L 278.056601 240.434152 
L 279.288239 238.316697 
L 280.185664 236.199241 
L 281.169737 234.081785 
L 282.116675 231.96433 
L 282.989343 229.846874 
L 283.923903 227.729418 
L 285.223622 225.611962 
L 286.480017 223.494507 
L 287.649764 221.377051 
L 288.881402 219.259595 
L 290.11304 217.14214 
L 291.685081 215.024684 
L 293.133339 212.907228 
L 294.470193 210.789773 
L 295.763723 208.672317 
L 297.21817 206.554861 
L 298.86448 204.437406 
L 300.448899 202.31995 
L 301.668159 200.202494 
L 303.079283 198.085039 
L 304.700837 195.967583 
L 306.39666 193.850127 
L 307.789216 191.732672 
L 309.212718 189.615216 
L 310.939487 187.49776 
L 312.839552 185.380304 
L 314.36208 183.262849 
L 315.872229 181.145393 
L 318.001292 179.027937 
L 319.870412 176.910482 
L 321.553857 174.793026 
L 323.670542 172.67557 
L 325.873875 170.558115 
L 327.872966 168.440659 
L 330.181514 166.323203 
L 332.471495 164.205748 
L 334.87288 162.088292 
L 337.534209 159.970836 
L 340.25743 157.853381 
L 342.937326 155.735925 
L 346.087597 153.618469 
L 349.349272 151.501014 
L 352.332436 149.383558 
L 355.488896 147.266102 
L 358.83103 145.148647 
L 362.179354 143.031191 
L 366.028997 140.913735 
L 370.033369 138.796279 
L 374.39671 136.678824 
L 379.911232 134.561368 
L 385.289592 132.443912 
L 392.209047 130.326457 
L 399.307988 128.209001 
L 404.995805 126.091545 
L 405.899419 123.97409 
L 406.258389 121.856634 
L 406.450252 119.739178 
L 406.60498 117.621723 
L 406.741141 115.504267 
L 406.883491 113.386811 
L 407.081544 111.269356 
L 407.143435 109.1519 
L 407.162003 107.034444 
L 407.174381 104.916989 
L 407.192948 102.799533 
L 407.211516 100.682077 
L 407.242461 98.564622 
L 407.267218 96.447166 
L 407.279596 94.32971 
L 407.298164 92.212254 
L 407.316731 90.094799 
L 407.341488 87.977343 
" style="fill:none;stroke:#ffcc7b;stroke-dasharray:1.5,2.475;stroke-dashoffset:0;stroke-width:1.5;"/>
   </g>
   <g id="line2d_22">
    <path clip-path="url(#p4b4c898219)" d="M 259.77124 295.488 
L 260.015282 293.395099 
L 260.404588 291.302198 
L 260.944968 289.209296 
L 261.729391 287.116395 
L 262.833393 285.023494 
L 263.989691 282.930593 
L 265.331925 280.837692 
L 266.67997 278.744791 
L 268.132605 276.651889 
L 269.38187 274.558988 
L 270.700863 272.466087 
L 272.025666 270.373186 
L 273.338847 268.280285 
L 274.466092 266.187383 
L 275.686305 264.094482 
L 276.697339 262.001581 
L 277.708372 259.90868 
L 278.951827 257.815779 
L 280.026777 255.722878 
L 281.287664 253.629976 
L 282.635709 251.537075 
L 283.687416 249.444174 
L 284.971545 247.351273 
L 286.383506 245.258372 
L 287.748983 243.16547 
L 289.021491 241.072569 
L 290.230083 238.979668 
L 291.857034 236.886767 
L 293.385205 234.793866 
L 294.756492 232.700965 
L 296.075485 230.608063 
L 297.824457 228.515162 
L 299.172502 226.422261 
L 300.828505 224.32936 
L 302.426403 222.236459 
L 304.053354 220.143557 
L 305.784895 218.050656 
L 307.469951 215.957755 
L 309.288649 213.864854 
L 311.037621 211.771953 
L 312.780783 209.679052 
L 314.744745 207.58615 
L 316.615738 205.493249 
L 318.492542 203.400348 
L 320.555284 201.307447 
L 322.525056 199.214546 
L 324.419292 197.121644 
L 326.470412 195.028743 
L 328.550585 192.935842 
L 330.839937 190.842941 
L 333.03632 188.75004 
L 335.174599 186.657139 
L 337.620835 184.564237 
L 340.206525 182.471336 
L 342.734109 180.378435 
L 345.168725 178.285534 
L 347.824141 176.192633 
L 350.311052 174.099731 
L 353.158215 172.00683 
L 356.220369 169.913929 
L 358.962944 167.821028 
L 361.606739 165.728127 
L 364.058786 163.635226 
L 366.400433 161.542324 
L 368.910586 159.449423 
L 371.310338 157.356522 
L 373.535774 155.263621 
L 375.691484 153.17072 
L 377.789088 151.077818 
L 379.718187 148.984917 
L 381.850655 146.892016 
L 383.977312 144.799115 
L 385.714663 142.706214 
L 387.521741 140.613313 
L 389.46246 138.520411 
L 391.147517 136.42751 
L 392.826762 134.334609 
L 394.471145 132.241708 
L 396.069043 130.148807 
L 397.306688 128.055905 
L 398.538522 125.963004 
L 399.700629 123.870103 
L 400.601263 121.777202 
L 401.362443 119.684301 
L 402.222403 117.5914 
L 402.878994 115.498498 
L 403.564638 113.405597 
L 404.203797 111.312696 
L 404.813903 109.219795 
L 405.348473 107.126894 
L 405.871421 105.033992 
L 406.254917 102.941091 
L 406.545444 100.84819 
L 406.801108 98.755289 
L 406.987045 96.662388 
L 407.138119 94.569487 
L 407.242708 92.476585 
L 407.341488 90.383684 
" style="fill:none;stroke:#e6a346;stroke-dasharray:5.55,2.4;stroke-dashoffset:0;stroke-width:1.5;"/>
   </g>
   <g id="line2d_23">
    <path clip-path="url(#p4b4c898219)" d="M 259.945993 295.488 
L 260.186041 293.468214 
L 260.450709 291.448427 
L 260.801548 289.428641 
L 261.287799 287.408855 
L 261.79867 285.389068 
L 262.315696 283.369282 
L 263.041994 281.349495 
L 263.842154 279.329709 
L 264.476126 277.309923 
L 265.023927 275.290136 
L 265.762536 273.27035 
L 266.414973 271.250564 
L 267.092031 269.230777 
L 267.799864 267.210991 
L 268.600024 265.191205 
L 269.338632 263.171418 
L 270.188032 261.151632 
L 271.012812 259.131846 
L 271.917607 257.112059 
L 272.859333 255.092273 
L 273.733353 253.072486 
L 274.588908 251.0527 
L 275.536789 249.032914 
L 276.44774 247.013127 
L 277.235589 244.993341 
L 278.115764 242.973555 
L 279.02056 240.953768 
L 280.054612 238.933982 
L 281.014803 236.914196 
L 281.981149 234.894409 
L 282.91672 232.874623 
L 283.938462 230.854836 
L 284.935583 228.83505 
L 285.957325 226.815264 
L 286.880586 224.795477 
L 288.031584 222.775691 
L 289.293374 220.755905 
L 290.352046 218.736118 
L 291.656921 216.716332 
L 293.011037 214.696546 
L 294.334377 212.676759 
L 295.762354 210.656973 
L 297.085694 208.637186 
L 298.470585 206.6174 
L 299.873941 204.597614 
L 301.277298 202.577827 
L 302.662189 200.558041 
L 304.09632 198.538255 
L 305.573537 196.518468 
L 307.0446 194.498682 
L 308.411025 192.478896 
L 309.986724 190.459109 
L 311.537802 188.439323 
L 313.1135 186.419537 
L 314.707663 184.39975 
L 316.406463 182.379964 
L 317.957541 180.360177 
L 319.687116 178.340391 
L 321.687514 176.320605 
L 323.361694 174.300818 
L 325.103579 172.281032 
L 327.300939 170.261246 
L 329.221322 168.241459 
L 331.283271 166.221673 
L 333.431391 164.201887 
L 335.659526 162.1821 
L 338.158485 160.162314 
L 340.503568 158.142527 
L 343.205644 156.122741 
L 345.901565 154.102955 
L 348.855999 152.083168 
L 352.259754 150.063382 
L 355.866626 148.043596 
L 359.295 146.023809 
L 363.055749 144.004023 
L 366.791877 141.984237 
L 370.87269 139.96445 
L 375.19355 137.944664 
L 379.397464 135.924877 
L 384.173799 133.905091 
L 388.679311 131.885305 
L 392.224632 129.865518 
L 394.674351 127.845732 
L 396.976347 125.825946 
L 399.118312 123.806159 
L 401.291052 121.786373 
L 403.359156 119.766587 
L 405.088731 117.7468 
L 405.975062 115.727014 
L 406.836772 113.707228 
L 407.10144 111.687441 
L 407.156835 109.667655 
L 407.187611 107.647868 
L 407.224541 105.628082 
L 407.255317 103.608296 
L 407.304557 101.588509 
L 407.335333 99.568723 
L 407.341488 97.548937 
" style="fill:none;stroke:#b45a28;stroke-dasharray:9.6,2.4,1.5,2.4;stroke-dashoffset:0;stroke-width:1.5;"/>
   </g>
   <g id="line2d_24">
    <path clip-path="url(#p4b4c898219)" d="M 259.880273 295.488 
L 260.191202 293.332821 
L 260.582743 291.177642 
L 261.221876 289.022463 
L 261.895557 286.867283 
L 262.75925 284.712104 
L 263.669007 282.556925 
L 264.78605 280.401746 
L 265.977947 278.246567 
L 267.135295 276.091388 
L 268.091116 273.936209 
L 268.954809 271.781029 
L 269.979725 269.62585 
L 270.826144 267.470671 
L 271.741659 265.315492 
L 272.518983 263.160313 
L 273.532383 261.005134 
L 274.44214 258.849955 
L 275.392202 256.694775 
L 276.434392 254.539596 
L 277.234748 252.384417 
L 278.196326 250.229238 
L 279.152146 248.074059 
L 280.361317 245.91888 
L 281.386233 243.763701 
L 282.566613 241.608521 
L 283.608803 239.453342 
L 284.720088 237.298163 
L 285.854405 235.142984 
L 287.08085 232.987805 
L 288.174861 230.832626 
L 289.447369 228.677447 
L 290.662298 226.522267 
L 291.917532 224.367088 
L 293.213071 222.211909 
L 294.566191 220.05673 
L 295.821425 217.901551 
L 297.232124 215.746372 
L 298.579485 213.591193 
L 300.151407 211.436013 
L 301.786666 209.280834 
L 303.243428 207.125655 
L 304.913235 204.970476 
L 306.738506 202.815297 
L 308.581052 200.660118 
L 310.538756 198.504939 
L 312.744053 196.349759 
L 314.966623 194.19458 
L 317.310111 192.039401 
L 319.866643 189.884222 
L 322.567123 187.729043 
L 325.572776 185.573864 
L 328.445995 183.418685 
L 331.55529 181.263505 
L 334.451542 179.108326 
L 337.117474 176.953147 
L 340.030999 174.797968 
L 342.622079 172.642789 
L 345.696827 170.48761 
L 348.55853 168.332431 
L 351.834806 166.177251 
L 354.725299 164.022072 
L 357.535181 161.866893 
L 360.327789 159.711714 
L 363.068575 157.556535 
L 365.746024 155.401356 
L 368.342862 153.246177 
L 371.043342 151.090997 
L 374.164154 148.935818 
L 377.198596 146.780639 
L 380.371229 144.62546 
L 383.100499 142.470281 
L 385.420955 140.315102 
L 387.902633 138.159923 
L 390.084898 136.004743 
L 391.887138 133.849564 
L 393.366932 131.694385 
L 394.858242 129.539206 
L 396.136508 127.384027 
L 397.288099 125.228848 
L 398.364837 123.073668 
L 399.343689 120.918489 
L 400.339815 118.76331 
L 401.191992 116.608131 
L 402.107507 114.452952 
L 402.94241 112.297773 
L 403.846409 110.142594 
L 404.589185 107.987414 
L 405.314688 105.832235 
L 405.775324 103.677056 
L 406.178381 101.521877 
L 406.627501 99.366698 
L 406.886609 97.211519 
L 406.984494 95.05634 
L 407.036316 92.90116 
L 407.145717 90.745981 
L 407.197539 88.590802 
L 407.27815 86.435623 
L 407.341488 84.280444 
" style="fill:none;stroke:#7d1e0b;stroke-linecap:square;stroke-width:1.5;"/>
   </g>
   <g id="patch_8">
    <path d="M 252.392727 307.584 
L 252.392727 41.472 
" style="fill:none;stroke:#000000;stroke-linecap:square;stroke-linejoin:miter;stroke-width:0.8;"/>
   </g>
   <g id="patch_9">
    <path d="M 414.72 307.584 
L 414.72 41.472 
" style="fill:none;stroke:#000000;stroke-linecap:square;stroke-linejoin:miter;stroke-width:0.8;"/>
   </g>
   <g id="patch_10">
    <path d="M 252.392727 307.584 
L 414.72 307.584 
" style="fill:none;stroke:#000000;stroke-linecap:square;stroke-linejoin:miter;stroke-width:0.8;"/>
   </g>
   <g id="patch_11">
    <path d="M 252.392727 41.472 
L 414.72 41.472 
" style="fill:none;stroke:#000000;stroke-linecap:square;stroke-linejoin:miter;stroke-width:0.8;"/>
   </g>
   <g id="legend_1">
    <g id="patch_12">
     <path d="M 261.492727 126.479813 
L 345.81804 126.479813 
Q 348.41804 126.479813 348.41804 123.879813 
L 348.41804 50.572 
Q 348.41804 47.972 345.81804 47.972 
L 261.492727 47.972 
Q 258.892727 47.972 258.892727 50.572 
L 258.892727 123.879813 
Q 258.892727 126.479813 261.492727 126.479813 
z
" style="fill:#ffffff;opacity:0.8;stroke:#cccccc;stroke-linejoin:miter;"/>
    </g>
    <g id="line2d_25">
     <path d="M 264.092727 58.499969 
L 290.092727 58.499969 
" style="fill:none;stroke:#5a0003;stroke-linecap:square;stroke-width:3;"/>
    </g>
    <g id="line2d_26"/>
    <g id="text_18">
     <!-- TS -->
     <defs>
      <path d="M -0.296875 72.90625 
L 61.375 72.90625 
L 61.375 64.59375 
L 35.5 64.59375 
L 35.5 0 
L 25.59375 0 
L 25.59375 64.59375 
L -0.296875 64.59375 
z
" id="DejaVuSans-84"/>
      <path d="M 53.515625 70.515625 
L 53.515625 60.890625 
Q 47.90625 63.578125 42.921875 64.890625 
Q 37.9375 66.21875 33.296875 66.21875 
Q 25.25 66.21875 20.875 63.09375 
Q 16.5 59.96875 16.5 54.203125 
Q 16.5 49.359375 19.40625 46.890625 
Q 22.3125 44.4375 30.421875 42.921875 
L 36.375 41.703125 
Q 47.40625 39.59375 52.65625 34.296875 
Q 57.90625 29 57.90625 20.125 
Q 57.90625 9.515625 50.796875 4.046875 
Q 43.703125 -1.421875 29.984375 -1.421875 
Q 24.8125 -1.421875 18.96875 -0.25 
Q 13.140625 0.921875 6.890625 3.21875 
L 6.890625 13.375 
Q 12.890625 10.015625 18.65625 8.296875 
Q 24.421875 6.59375 29.984375 6.59375 
Q 38.421875 6.59375 43.015625 9.90625 
Q 47.609375 13.234375 47.609375 19.390625 
Q 47.609375 24.75 44.3125 27.78125 
Q 41.015625 30.8125 33.5 32.328125 
L 27.484375 33.5 
Q 16.453125 35.6875 11.515625 40.375 
Q 6.59375 45.0625 6.59375 53.421875 
Q 6.59375 63.09375 13.40625 68.65625 
Q 20.21875 74.21875 32.171875 74.21875 
Q 37.3125 74.21875 42.625 73.28125 
Q 47.953125 72.359375 53.515625 70.515625 
z
" id="DejaVuSans-83"/>
     </defs>
     <g transform="translate(300.492727 63.049969)scale(0.13 -0.13)">
      <use xlink:href="#DejaVuSans-84"/>
      <use x="61.083984" xlink:href="#DejaVuSans-83"/>
     </g>
    </g>
    <g id="line2d_27">
     <path d="M 264.092727 72.381531 
L 290.092727 72.381531 
" style="fill:none;stroke:#ffcc7b;stroke-dasharray:1.5,2.475;stroke-dashoffset:0;stroke-width:1.5;"/>
    </g>
    <g id="line2d_28"/>
    <g id="text_19">
     <!-- RB, n0 -->
     <defs>
      <path d="M 44.390625 34.1875 
Q 47.5625 33.109375 50.5625 29.59375 
Q 53.5625 26.078125 56.59375 19.921875 
L 66.609375 0 
L 56 0 
L 46.6875 18.703125 
Q 43.0625 26.03125 39.671875 28.421875 
Q 36.28125 30.8125 30.421875 30.8125 
L 19.671875 30.8125 
L 19.671875 0 
L 9.8125 0 
L 9.8125 72.90625 
L 32.078125 72.90625 
Q 44.578125 72.90625 50.734375 67.671875 
Q 56.890625 62.453125 56.890625 51.90625 
Q 56.890625 45.015625 53.6875 40.46875 
Q 50.484375 35.9375 44.390625 34.1875 
z
M 19.671875 64.796875 
L 19.671875 38.921875 
L 32.078125 38.921875 
Q 39.203125 38.921875 42.84375 42.21875 
Q 46.484375 45.515625 46.484375 51.90625 
Q 46.484375 58.296875 42.84375 61.546875 
Q 39.203125 64.796875 32.078125 64.796875 
z
" id="DejaVuSans-82"/>
      <path d="M 19.671875 34.8125 
L 19.671875 8.109375 
L 35.5 8.109375 
Q 43.453125 8.109375 47.28125 11.40625 
Q 51.125 14.703125 51.125 21.484375 
Q 51.125 28.328125 47.28125 31.5625 
Q 43.453125 34.8125 35.5 34.8125 
z
M 19.671875 64.796875 
L 19.671875 42.828125 
L 34.28125 42.828125 
Q 41.5 42.828125 45.03125 45.53125 
Q 48.578125 48.25 48.578125 53.8125 
Q 48.578125 59.328125 45.03125 62.0625 
Q 41.5 64.796875 34.28125 64.796875 
z
M 9.8125 72.90625 
L 35.015625 72.90625 
Q 46.296875 72.90625 52.390625 68.21875 
Q 58.5 63.53125 58.5 54.890625 
Q 58.5 48.1875 55.375 44.234375 
Q 52.25 40.28125 46.1875 39.3125 
Q 53.46875 37.75 57.5 32.78125 
Q 61.53125 27.828125 61.53125 20.40625 
Q 61.53125 10.640625 54.890625 5.3125 
Q 48.25 0 35.984375 0 
L 9.8125 0 
z
" id="DejaVuSans-66"/>
      <path d="M 11.71875 12.40625 
L 22.015625 12.40625 
L 22.015625 4 
L 14.015625 -11.625 
L 7.71875 -11.625 
L 11.71875 4 
z
" id="DejaVuSans-44"/>
      <path d="M 54.890625 33.015625 
L 54.890625 0 
L 45.90625 0 
L 45.90625 32.71875 
Q 45.90625 40.484375 42.875 44.328125 
Q 39.84375 48.1875 33.796875 48.1875 
Q 26.515625 48.1875 22.3125 43.546875 
Q 18.109375 38.921875 18.109375 30.90625 
L 18.109375 0 
L 9.078125 0 
L 9.078125 54.6875 
L 18.109375 54.6875 
L 18.109375 46.1875 
Q 21.34375 51.125 25.703125 53.5625 
Q 30.078125 56 35.796875 56 
Q 45.21875 56 50.046875 50.171875 
Q 54.890625 44.34375 54.890625 33.015625 
z
" id="DejaVuSans-110"/>
     </defs>
     <g transform="translate(300.492727 76.931531)scale(0.13 -0.13)">
      <use xlink:href="#DejaVuSans-82"/>
      <use x="69.482422" xlink:href="#DejaVuSans-66"/>
      <use x="138.085938" xlink:href="#DejaVuSans-44"/>
      <use x="169.873047" xlink:href="#DejaVuSans-32"/>
      <use x="201.660156" xlink:href="#DejaVuSans-110"/>
      <use x="265.039062" xlink:href="#DejaVuSans-48"/>
     </g>
    </g>
    <g id="line2d_29">
     <path d="M 264.092727 86.263094 
L 290.092727 86.263094 
" style="fill:none;stroke:#e6a346;stroke-dasharray:5.55,2.4;stroke-dashoffset:0;stroke-width:1.5;"/>
    </g>
    <g id="line2d_30"/>
    <g id="text_20">
     <!-- RB, s0 -->
     <g transform="translate(300.492727 90.813094)scale(0.13 -0.13)">
      <use xlink:href="#DejaVuSans-82"/>
      <use x="69.482422" xlink:href="#DejaVuSans-66"/>
      <use x="138.085938" xlink:href="#DejaVuSans-44"/>
      <use x="169.873047" xlink:href="#DejaVuSans-32"/>
      <use x="201.660156" xlink:href="#DejaVuSans-115"/>
      <use x="253.759766" xlink:href="#DejaVuSans-48"/>
     </g>
    </g>
    <g id="line2d_31">
     <path d="M 264.092727 100.144656 
L 290.092727 100.144656 
" style="fill:none;stroke:#b45a28;stroke-dasharray:9.6,2.4,1.5,2.4;stroke-dashoffset:0;stroke-width:1.5;"/>
    </g>
    <g id="line2d_32"/>
    <g id="text_21">
     <!-- RB, s1 -->
     <g transform="translate(300.492727 104.694656)scale(0.13 -0.13)">
      <use xlink:href="#DejaVuSans-82"/>
      <use x="69.482422" xlink:href="#DejaVuSans-66"/>
      <use x="138.085938" xlink:href="#DejaVuSans-44"/>
      <use x="169.873047" xlink:href="#DejaVuSans-32"/>
      <use x="201.660156" xlink:href="#DejaVuSans-115"/>
      <use x="253.759766" xlink:href="#DejaVuSans-49"/>
     </g>
    </g>
    <g id="line2d_33">
     <path d="M 264.092727 114.026219 
L 290.092727 114.026219 
" style="fill:none;stroke:#7d1e0b;stroke-linecap:square;stroke-width:1.5;"/>
    </g>
    <g id="line2d_34"/>
    <g id="text_22">
     <!-- RB, s2 -->
     <g transform="translate(300.492727 118.576219)scale(0.13 -0.13)">
      <use xlink:href="#DejaVuSans-82"/>
      <use x="69.482422" xlink:href="#DejaVuSans-66"/>
      <use x="138.085938" xlink:href="#DejaVuSans-44"/>
      <use x="169.873047" xlink:href="#DejaVuSans-32"/>
      <use x="201.660156" xlink:href="#DejaVuSans-115"/>
      <use x="253.759766" xlink:href="#DejaVuSans-50"/>
     </g>
    </g>
   </g>
  </g>
 </g>
 <defs>
  <clipPath id="pafd91190f4">
   <rect height="266.112" width="162.327273" x="57.6" y="41.472"/>
  </clipPath>
  <clipPath id="p4b4c898219">
   <rect height="266.112" width="162.327273" x="252.392727" y="41.472"/>
  </clipPath>
 </defs>
</svg>
