<?xml version="1.0" encoding="utf-8" standalone="no"?>
<!DOCTYPE svg PUBLIC "-//W3C//DTD SVG 1.1//EN"
  "http://www.w3.org/Graphics/SVG/1.1/DTD/svg11.dtd">
<!-- Created with matplotlib (https://matplotlib.org/) -->
<svg height="345.6pt" version="1.1" viewBox="0 0 460.8 345.6" width="460.8pt" xmlns="http://www.w3.org/2000/svg" xmlns:xlink="http://www.w3.org/1999/xlink">
 <defs>
  <style type="text/css">
*{stroke-linecap:butt;stroke-linejoin:round;}
  </style>
 </defs>
 <g id="figure_1">
  <g id="patch_1">
   <path d="M 0 345.6 
L 460.8 345.6 
L 460.8 0 
L 0 0 
z
" style="fill:#ffffff;"/>
  </g>
  <g id="axes_1">
   <g id="patch_2">
    <path d="M 57.6 307.584 
L 219.927273 307.584 
L 219.927273 41.472 
L 57.6 41.472 
z
" style="fill:#ffffff;"/>
   </g>
   <g id="matplotlib.axis_1">
    <g id="xtick_1">
     <g id="line2d_1">
      <defs>
       <path d="M 0 0 
L 0 3.5 
" id="mcad0433a53" style="stroke:#000000;stroke-width:0.8;"/>
      </defs>
      <g>
       <use style="stroke:#000000;stroke-width:0.8;" x="212.54876" xlink:href="#mcad0433a53" y="307.584"/>
      </g>
     </g>
     <g id="text_1">
      <!-- 0 -->
      <defs>
       <path d="M 31.78125 66.40625 
Q 24.171875 66.40625 20.328125 58.90625 
Q 16.5 51.421875 16.5 36.375 
Q 16.5 21.390625 20.328125 13.890625 
Q 24.171875 6.390625 31.78125 6.390625 
Q 39.453125 6.390625 43.28125 13.890625 
Q 47.125 21.390625 47.125 36.375 
Q 47.125 51.421875 43.28125 58.90625 
Q 39.453125 66.40625 31.78125 66.40625 
z
M 31.78125 74.21875 
Q 44.046875 74.21875 50.515625 64.515625 
Q 56.984375 54.828125 56.984375 36.375 
Q 56.984375 17.96875 50.515625 8.265625 
Q 44.046875 -1.421875 31.78125 -1.421875 
Q 19.53125 -1.421875 13.0625 8.265625 
Q 6.59375 17.96875 6.59375 36.375 
Q 6.59375 54.828125 13.0625 64.515625 
Q 19.53125 74.21875 31.78125 74.21875 
z
" id="DejaVuSans-48"/>
      </defs>
      <g transform="translate(207.776885 325.981656)scale(0.15 -0.15)">
       <use xlink:href="#DejaVuSans-48"/>
      </g>
     </g>
    </g>
    <g id="xtick_2">
     <g id="line2d_2">
      <g>
       <use style="stroke:#000000;stroke-width:0.8;" x="155.859406" xlink:href="#mcad0433a53" y="307.584"/>
      </g>
     </g>
     <g id="text_2">
      <!-- 2 -->
      <defs>
       <path d="M 19.1875 8.296875 
L 53.609375 8.296875 
L 53.609375 0 
L 7.328125 0 
L 7.328125 8.296875 
Q 12.9375 14.109375 22.625 23.890625 
Q 32.328125 33.6875 34.8125 36.53125 
Q 39.546875 41.84375 41.421875 45.53125 
Q 43.3125 49.21875 43.3125 52.78125 
Q 43.3125 58.59375 39.234375 62.25 
Q 35.15625 65.921875 28.609375 65.921875 
Q 23.96875 65.921875 18.8125 64.3125 
Q 13.671875 62.703125 7.8125 59.421875 
L 7.8125 69.390625 
Q 13.765625 71.78125 18.9375 73 
Q 24.125 74.21875 28.421875 74.21875 
Q 39.75 74.21875 46.484375 68.546875 
Q 53.21875 62.890625 53.21875 53.421875 
Q 53.21875 48.921875 51.53125 44.890625 
Q 49.859375 40.875 45.40625 35.40625 
Q 44.1875 33.984375 37.640625 27.21875 
Q 31.109375 20.453125 19.1875 8.296875 
z
" id="DejaVuSans-50"/>
      </defs>
      <g transform="translate(151.087531 325.981656)scale(0.15 -0.15)">
       <use xlink:href="#DejaVuSans-50"/>
      </g>
     </g>
    </g>
    <g id="xtick_3">
     <g id="line2d_3">
      <g>
       <use style="stroke:#000000;stroke-width:0.8;" x="99.170051" xlink:href="#mcad0433a53" y="307.584"/>
      </g>
     </g>
     <g id="text_3">
      <!-- 4 -->
      <defs>
       <path d="M 37.796875 64.3125 
L 12.890625 25.390625 
L 37.796875 25.390625 
z
M 35.203125 72.90625 
L 47.609375 72.90625 
L 47.609375 25.390625 
L 58.015625 25.390625 
L 58.015625 17.1875 
L 47.609375 17.1875 
L 47.609375 0 
L 37.796875 0 
L 37.796875 17.1875 
L 4.890625 17.1875 
L 4.890625 26.703125 
z
" id="DejaVuSans-52"/>
      </defs>
      <g transform="translate(94.398176 325.981656)scale(0.15 -0.15)">
       <use xlink:href="#DejaVuSans-52"/>
      </g>
     </g>
    </g>
    <g id="text_4">
     <!-- PDF -->
     <defs>
      <path d="M 19.671875 64.796875 
L 19.671875 37.40625 
L 32.078125 37.40625 
Q 38.96875 37.40625 42.71875 40.96875 
Q 46.484375 44.53125 46.484375 51.125 
Q 46.484375 57.671875 42.71875 61.234375 
Q 38.96875 64.796875 32.078125 64.796875 
z
M 9.8125 72.90625 
L 32.078125 72.90625 
Q 44.34375 72.90625 50.609375 67.359375 
Q 56.890625 61.8125 56.890625 51.125 
Q 56.890625 40.328125 50.609375 34.8125 
Q 44.34375 29.296875 32.078125 29.296875 
L 19.671875 29.296875 
L 19.671875 0 
L 9.8125 0 
z
" id="DejaVuSans-80"/>
      <path d="M 19.671875 64.796875 
L 19.671875 8.109375 
L 31.59375 8.109375 
Q 46.6875 8.109375 53.6875 14.9375 
Q 60.6875 21.78125 60.6875 36.53125 
Q 60.6875 51.171875 53.6875 57.984375 
Q 46.6875 64.796875 31.59375 64.796875 
z
M 9.8125 72.90625 
L 30.078125 72.90625 
Q 51.265625 72.90625 61.171875 64.09375 
Q 71.09375 55.28125 71.09375 36.53125 
Q 71.09375 17.671875 61.125 8.828125 
Q 51.171875 0 30.078125 0 
L 9.8125 0 
z
" id="DejaVuSans-68"/>
      <path d="M 9.8125 72.90625 
L 51.703125 72.90625 
L 51.703125 64.59375 
L 19.671875 64.59375 
L 19.671875 43.109375 
L 48.578125 43.109375 
L 48.578125 34.8125 
L 19.671875 34.8125 
L 19.671875 0 
L 9.8125 0 
z
" id="DejaVuSans-70"/>
     </defs>
     <g transform="translate(122.204574 346.018531)scale(0.17 -0.17)">
      <use xlink:href="#DejaVuSans-80"/>
      <use x="60.302734" xlink:href="#DejaVuSans-68"/>
      <use x="137.304688" xlink:href="#DejaVuSans-70"/>
     </g>
    </g>
   </g>
   <g id="matplotlib.axis_2">
    <g id="ytick_1">
     <g id="line2d_4">
      <defs>
       <path d="M 0 0 
L -3.5 0 
" id="meaf9f3107f" style="stroke:#000000;stroke-width:0.8;"/>
      </defs>
      <g>
       <use style="stroke:#000000;stroke-width:0.8;" x="57.6" xlink:href="#meaf9f3107f" y="53.568"/>
      </g>
     </g>
     <g id="text_5">
      <!-- 0.00 -->
      <defs>
       <path d="M 10.6875 12.40625 
L 21 12.40625 
L 21 0 
L 10.6875 0 
z
" id="DejaVuSans-46"/>
      </defs>
      <g transform="translate(17.201563 59.266828)scale(0.15 -0.15)">
       <use xlink:href="#DejaVuSans-48"/>
       <use x="63.623047" xlink:href="#DejaVuSans-46"/>
       <use x="95.410156" xlink:href="#DejaVuSans-48"/>
       <use x="159.033203" xlink:href="#DejaVuSans-48"/>
      </g>
     </g>
    </g>
    <g id="ytick_2">
     <g id="line2d_5">
      <g>
       <use style="stroke:#000000;stroke-width:0.8;" x="57.6" xlink:href="#meaf9f3107f" y="85.755023"/>
      </g>
     </g>
     <g id="text_6">
      <!-- 0.25 -->
      <defs>
       <path d="M 10.796875 72.90625 
L 49.515625 72.90625 
L 49.515625 64.59375 
L 19.828125 64.59375 
L 19.828125 46.734375 
Q 21.96875 47.46875 24.109375 47.828125 
Q 26.265625 48.1875 28.421875 48.1875 
Q 40.625 48.1875 47.75 41.5 
Q 54.890625 34.8125 54.890625 23.390625 
Q 54.890625 11.625 47.5625 5.09375 
Q 40.234375 -1.421875 26.90625 -1.421875 
Q 22.3125 -1.421875 17.546875 -0.640625 
Q 12.796875 0.140625 7.71875 1.703125 
L 7.71875 11.625 
Q 12.109375 9.234375 16.796875 8.0625 
Q 21.484375 6.890625 26.703125 6.890625 
Q 35.15625 6.890625 40.078125 11.328125 
Q 45.015625 15.765625 45.015625 23.390625 
Q 45.015625 31 40.078125 35.4375 
Q 35.15625 39.890625 26.703125 39.890625 
Q 22.75 39.890625 18.8125 39.015625 
Q 14.890625 38.140625 10.796875 36.28125 
z
" id="DejaVuSans-53"/>
      </defs>
      <g transform="translate(17.201563 91.453851)scale(0.15 -0.15)">
       <use xlink:href="#DejaVuSans-48"/>
       <use x="63.623047" xlink:href="#DejaVuSans-46"/>
       <use x="95.410156" xlink:href="#DejaVuSans-50"/>
       <use x="159.033203" xlink:href="#DejaVuSans-53"/>
      </g>
     </g>
    </g>
    <g id="ytick_3">
     <g id="line2d_6">
      <g>
       <use style="stroke:#000000;stroke-width:0.8;" x="57.6" xlink:href="#meaf9f3107f" y="117.942046"/>
      </g>
     </g>
     <g id="text_7">
      <!-- 0.50 -->
      <g transform="translate(17.201563 123.640875)scale(0.15 -0.15)">
       <use xlink:href="#DejaVuSans-48"/>
       <use x="63.623047" xlink:href="#DejaVuSans-46"/>
       <use x="95.410156" xlink:href="#DejaVuSans-53"/>
       <use x="159.033203" xlink:href="#DejaVuSans-48"/>
      </g>
     </g>
    </g>
    <g id="ytick_4">
     <g id="line2d_7">
      <g>
       <use style="stroke:#000000;stroke-width:0.8;" x="57.6" xlink:href="#meaf9f3107f" y="150.12907"/>
      </g>
     </g>
     <g id="text_8">
      <!-- 0.75 -->
      <defs>
       <path d="M 8.203125 72.90625 
L 55.078125 72.90625 
L 55.078125 68.703125 
L 28.609375 0 
L 18.3125 0 
L 43.21875 64.59375 
L 8.203125 64.59375 
z
" id="DejaVuSans-55"/>
      </defs>
      <g transform="translate(17.201563 155.827898)scale(0.15 -0.15)">
       <use xlink:href="#DejaVuSans-48"/>
       <use x="63.623047" xlink:href="#DejaVuSans-46"/>
       <use x="95.410156" xlink:href="#DejaVuSans-55"/>
       <use x="159.033203" xlink:href="#DejaVuSans-53"/>
      </g>
     </g>
    </g>
    <g id="ytick_5">
     <g id="line2d_8">
      <g>
       <use style="stroke:#000000;stroke-width:0.8;" x="57.6" xlink:href="#meaf9f3107f" y="182.316093"/>
      </g>
     </g>
     <g id="text_9">
      <!-- 1.00 -->
      <defs>
       <path d="M 12.40625 8.296875 
L 28.515625 8.296875 
L 28.515625 63.921875 
L 10.984375 60.40625 
L 10.984375 69.390625 
L 28.421875 72.90625 
L 38.28125 72.90625 
L 38.28125 8.296875 
L 54.390625 8.296875 
L 54.390625 0 
L 12.40625 0 
z
" id="DejaVuSans-49"/>
      </defs>
      <g transform="translate(17.201563 188.014921)scale(0.15 -0.15)">
       <use xlink:href="#DejaVuSans-49"/>
       <use x="63.623047" xlink:href="#DejaVuSans-46"/>
       <use x="95.410156" xlink:href="#DejaVuSans-48"/>
       <use x="159.033203" xlink:href="#DejaVuSans-48"/>
      </g>
     </g>
    </g>
    <g id="ytick_6">
     <g id="line2d_9">
      <g>
       <use style="stroke:#000000;stroke-width:0.8;" x="57.6" xlink:href="#meaf9f3107f" y="214.503116"/>
      </g>
     </g>
     <g id="text_10">
      <!-- 1.25 -->
      <g transform="translate(17.201563 220.201944)scale(0.15 -0.15)">
       <use xlink:href="#DejaVuSans-49"/>
       <use x="63.623047" xlink:href="#DejaVuSans-46"/>
       <use x="95.410156" xlink:href="#DejaVuSans-50"/>
       <use x="159.033203" xlink:href="#DejaVuSans-53"/>
      </g>
     </g>
    </g>
    <g id="ytick_7">
     <g id="line2d_10">
      <g>
       <use style="stroke:#000000;stroke-width:0.8;" x="57.6" xlink:href="#meaf9f3107f" y="246.690139"/>
      </g>
     </g>
     <g id="text_11">
      <!-- 1.50 -->
      <g transform="translate(17.201563 252.388968)scale(0.15 -0.15)">
       <use xlink:href="#DejaVuSans-49"/>
       <use x="63.623047" xlink:href="#DejaVuSans-46"/>
       <use x="95.410156" xlink:href="#DejaVuSans-53"/>
       <use x="159.033203" xlink:href="#DejaVuSans-48"/>
      </g>
     </g>
    </g>
    <g id="ytick_8">
     <g id="line2d_11">
      <g>
       <use style="stroke:#000000;stroke-width:0.8;" x="57.6" xlink:href="#meaf9f3107f" y="278.877163"/>
      </g>
     </g>
     <g id="text_12">
      <!-- 1.75 -->
      <g transform="translate(17.201563 284.575991)scale(0.15 -0.15)">
       <use xlink:href="#DejaVuSans-49"/>
       <use x="63.623047" xlink:href="#DejaVuSans-46"/>
       <use x="95.410156" xlink:href="#DejaVuSans-55"/>
       <use x="159.033203" xlink:href="#DejaVuSans-53"/>
      </g>
     </g>
    </g>
    <g id="text_13">
     <!-- Depth (m) -->
     <defs>
      <path d="M 56.203125 29.59375 
L 56.203125 25.203125 
L 14.890625 25.203125 
Q 15.484375 15.921875 20.484375 11.0625 
Q 25.484375 6.203125 34.421875 6.203125 
Q 39.59375 6.203125 44.453125 7.46875 
Q 49.3125 8.734375 54.109375 11.28125 
L 54.109375 2.78125 
Q 49.265625 0.734375 44.1875 -0.34375 
Q 39.109375 -1.421875 33.890625 -1.421875 
Q 20.796875 -1.421875 13.15625 6.1875 
Q 5.515625 13.8125 5.515625 26.8125 
Q 5.515625 40.234375 12.765625 48.109375 
Q 20.015625 56 32.328125 56 
Q 43.359375 56 49.78125 48.890625 
Q 56.203125 41.796875 56.203125 29.59375 
z
M 47.21875 32.234375 
Q 47.125 39.59375 43.09375 43.984375 
Q 39.0625 48.390625 32.421875 48.390625 
Q 24.90625 48.390625 20.390625 44.140625 
Q 15.875 39.890625 15.1875 32.171875 
z
" id="DejaVuSans-101"/>
      <path d="M 18.109375 8.203125 
L 18.109375 -20.796875 
L 9.078125 -20.796875 
L 9.078125 54.6875 
L 18.109375 54.6875 
L 18.109375 46.390625 
Q 20.953125 51.265625 25.265625 53.625 
Q 29.59375 56 35.59375 56 
Q 45.5625 56 51.78125 48.09375 
Q 58.015625 40.1875 58.015625 27.296875 
Q 58.015625 14.40625 51.78125 6.484375 
Q 45.5625 -1.421875 35.59375 -1.421875 
Q 29.59375 -1.421875 25.265625 0.953125 
Q 20.953125 3.328125 18.109375 8.203125 
z
M 48.6875 27.296875 
Q 48.6875 37.203125 44.609375 42.84375 
Q 40.53125 48.484375 33.40625 48.484375 
Q 26.265625 48.484375 22.1875 42.84375 
Q 18.109375 37.203125 18.109375 27.296875 
Q 18.109375 17.390625 22.1875 11.75 
Q 26.265625 6.109375 33.40625 6.109375 
Q 40.53125 6.109375 44.609375 11.75 
Q 48.6875 17.390625 48.6875 27.296875 
z
" id="DejaVuSans-112"/>
      <path d="M 18.3125 70.21875 
L 18.3125 54.6875 
L 36.8125 54.6875 
L 36.8125 47.703125 
L 18.3125 47.703125 
L 18.3125 18.015625 
Q 18.3125 11.328125 20.140625 9.421875 
Q 21.96875 7.515625 27.59375 7.515625 
L 36.8125 7.515625 
L 36.8125 0 
L 27.59375 0 
Q 17.1875 0 13.234375 3.875 
Q 9.28125 7.765625 9.28125 18.015625 
L 9.28125 47.703125 
L 2.6875 47.703125 
L 2.6875 54.6875 
L 9.28125 54.6875 
L 9.28125 70.21875 
z
" id="DejaVuSans-116"/>
      <path d="M 54.890625 33.015625 
L 54.890625 0 
L 45.90625 0 
L 45.90625 32.71875 
Q 45.90625 40.484375 42.875 44.328125 
Q 39.84375 48.1875 33.796875 48.1875 
Q 26.515625 48.1875 22.3125 43.546875 
Q 18.109375 38.921875 18.109375 30.90625 
L 18.109375 0 
L 9.078125 0 
L 9.078125 75.984375 
L 18.109375 75.984375 
L 18.109375 46.1875 
Q 21.34375 51.125 25.703125 53.5625 
Q 30.078125 56 35.796875 56 
Q 45.21875 56 50.046875 50.171875 
Q 54.890625 44.34375 54.890625 33.015625 
z
" id="DejaVuSans-104"/>
      <path id="DejaVuSans-32"/>
      <path d="M 31 75.875 
Q 24.46875 64.65625 21.28125 53.65625 
Q 18.109375 42.671875 18.109375 31.390625 
Q 18.109375 20.125 21.3125 9.0625 
Q 24.515625 -2 31 -13.1875 
L 23.1875 -13.1875 
Q 15.875 -1.703125 12.234375 9.375 
Q 8.59375 20.453125 8.59375 31.390625 
Q 8.59375 42.28125 12.203125 53.3125 
Q 15.828125 64.359375 23.1875 75.875 
z
" id="DejaVuSans-40"/>
      <path d="M 52 44.1875 
Q 55.375 50.25 60.0625 53.125 
Q 64.75 56 71.09375 56 
Q 79.640625 56 84.28125 50.015625 
Q 88.921875 44.046875 88.921875 33.015625 
L 88.921875 0 
L 79.890625 0 
L 79.890625 32.71875 
Q 79.890625 40.578125 77.09375 44.375 
Q 74.3125 48.1875 68.609375 48.1875 
Q 61.625 48.1875 57.5625 43.546875 
Q 53.515625 38.921875 53.515625 30.90625 
L 53.515625 0 
L 44.484375 0 
L 44.484375 32.71875 
Q 44.484375 40.625 41.703125 44.40625 
Q 38.921875 48.1875 33.109375 48.1875 
Q 26.21875 48.1875 22.15625 43.53125 
Q 18.109375 38.875 18.109375 30.90625 
L 18.109375 0 
L 9.078125 0 
L 9.078125 54.6875 
L 18.109375 54.6875 
L 18.109375 46.1875 
Q 21.1875 51.21875 25.484375 53.609375 
Q 29.78125 56 35.6875 56 
Q 41.65625 56 45.828125 52.96875 
Q 50 49.953125 52 44.1875 
z
" id="DejaVuSans-109"/>
      <path d="M 8.015625 75.875 
L 15.828125 75.875 
Q 23.140625 64.359375 26.78125 53.3125 
Q 30.421875 42.28125 30.421875 31.390625 
Q 30.421875 20.453125 26.78125 9.375 
Q 23.140625 -1.703125 15.828125 -13.1875 
L 8.015625 -13.1875 
Q 14.5 -2 17.703125 9.0625 
Q 20.90625 20.125 20.90625 31.390625 
Q 20.90625 42.671875 17.703125 53.65625 
Q 14.5 64.65625 8.015625 75.875 
z
" id="DejaVuSans-41"/>
     </defs>
     <g transform="translate(9.666094 218.032062)rotate(-90)scale(0.17 -0.17)">
      <use xlink:href="#DejaVuSans-68"/>
      <use x="77.001953" xlink:href="#DejaVuSans-101"/>
      <use x="138.525391" xlink:href="#DejaVuSans-112"/>
      <use x="202.001953" xlink:href="#DejaVuSans-116"/>
      <use x="241.210938" xlink:href="#DejaVuSans-104"/>
      <use x="304.589844" xlink:href="#DejaVuSans-32"/>
      <use x="336.376953" xlink:href="#DejaVuSans-40"/>
      <use x="375.390625" xlink:href="#DejaVuSans-109"/>
      <use x="472.802734" xlink:href="#DejaVuSans-41"/>
     </g>
    </g>
   </g>
   <g id="line2d_12">
    <path clip-path="url(#pac91a54d3c)" d="M 194.297973 53.568 
L 196.024399 56.036571 
L 196.640979 58.505143 
L 196.271031 60.973714 
L 198.737354 63.442286 
L 196.640979 65.910857 
L 193.311444 68.379429 
L 193.558076 70.848 
L 190.721805 73.316571 
L 192.448231 75.785143 
L 195.531134 78.253714 
L 192.941496 80.722286 
L 191.091754 83.190857 
L 190.721805 85.659429 
L 190.105225 88.128 
L 186.529057 90.596571 
L 190.351857 93.065143 
L 189.365328 95.533714 
L 190.968437 98.002286 
L 188.502115 100.470857 
L 189.242012 102.939429 
L 190.968437 105.408 
L 189.488644 107.876571 
L 187.762218 110.345143 
L 188.00885 112.813714 
L 188.502115 115.282286 
L 188.132166 117.750857 
L 187.885534 120.219429 
L 189.735276 122.688 
L 186.899005 125.156571 
L 191.338386 127.625143 
L 192.571547 130.093714 
L 189.858592 132.562286 
L 190.721805 135.030857 
L 191.83165 137.499429 
L 190.228541 139.968 
L 193.064812 142.436571 
L 188.378799 144.905143 
L 189.118696 147.373714 
L 186.652373 149.842286 
L 186.652373 152.310857 
L 186.652373 154.779429 
L 186.159108 157.248 
L 181.349779 159.716571 
L 184.432683 162.185143 
L 185.665844 164.653714 
L 189.242012 167.122286 
L 191.708334 169.590857 
L 189.981908 172.059429 
L 191.091754 174.528 
L 193.311444 176.996571 
L 191.21507 179.465143 
L 191.708334 181.933714 
L 188.995379 184.402286 
L 190.845121 186.870857 
L 189.735276 189.339429 
L 191.461702 191.808 
L 193.43476 194.276571 
L 195.531134 196.745143 
L 196.271031 199.213714 
L 200.217147 201.682286 
L 201.450309 204.150857 
L 199.353934 206.619429 
L 200.46378 209.088 
L 200.957044 211.556571 
L 202.313521 214.025143 
L 203.423367 216.493714 
L 204.039947 218.962286 
L 204.533212 221.430857 
L 206.999534 223.899429 
L 209.589173 226.368 
L 206.999534 228.836571 
L 208.356012 231.305143 
L 208.72596 233.773714 
L 209.835805 236.242286 
L 207.986063 238.710857 
L 209.959122 241.179429 
L 210.575702 243.648 
L 210.082438 246.116571 
L 209.095909 248.585143 
L 209.959122 251.053714 
L 209.589173 253.522286 
L 209.589173 255.990857 
L 210.32907 258.459429 
L 209.835805 260.928 
L 209.835805 263.396571 
L 210.205754 265.865143 
L 211.068967 268.333714 
L 210.205754 270.802286 
L 211.192283 273.270857 
L 211.93218 275.739429 
L 211.808864 278.208 
L 211.808864 280.676571 
L 211.685547 283.145143 
L 211.93218 285.613714 
L 211.685547 288.082286 
L 211.93218 290.550857 
L 212.178812 293.019429 
L 211.685547 295.488 
" style="fill:none;stroke:#000000;stroke-linecap:square;stroke-width:3;"/>
   </g>
   <g id="line2d_13">
    <path clip-path="url(#pac91a54d3c)" d="M 196.59522 53.568 
L 185.333897 55.067691 
L 196.829831 56.567381 
L 200.583605 58.067072 
L 200.818216 59.566762 
L 199.879772 61.066453 
L 201.522049 62.566143 
L 198.472107 64.065834 
L 198.237496 65.565524 
L 192.841446 67.065215 
L 197.064442 68.564905 
L 198.941329 70.064596 
L 198.706718 71.564286 
L 200.114383 73.063977 
L 201.052827 74.563668 
L 198.472107 76.063358 
L 199.17594 77.563049 
L 194.718333 79.062739 
L 197.064442 80.56243 
L 198.706718 82.06212 
L 191.43378 83.561811 
L 189.556893 85.061501 
L 194.952944 86.561192 
L 197.533664 88.060882 
L 197.299053 89.560573 
L 197.533664 91.060263 
L 195.891387 92.559954 
L 195.656776 94.059645 
L 193.545278 95.559335 
L 193.779889 97.059026 
L 191.19917 98.558716 
L 190.260726 100.058407 
L 195.422166 101.558097 
L 196.125998 103.057788 
L 196.125998 104.557478 
L 191.43378 106.057169 
L 193.545278 107.556859 
L 190.260726 109.05655 
L 190.495337 110.556241 
L 188.383839 112.055931 
L 192.841446 113.555622 
L 193.076057 115.055312 
L 192.137613 116.555003 
L 190.964559 118.054693 
L 191.19917 119.554384 
L 187.210785 121.054074 
L 185.568508 122.553765 
L 189.087672 124.053455 
L 190.964559 125.553146 
L 187.914617 127.052836 
L 189.087672 128.552527 
L 190.729948 130.052218 
L 183.926232 131.551908 
L 180.876291 133.051599 
L 188.383839 134.551289 
L 187.914617 136.05098 
L 185.803119 137.55067 
L 185.333897 139.050361 
L 182.987789 140.550051 
L 180.876291 142.049742 
L 182.518567 143.549432 
L 182.753178 145.049123 
L 184.160843 146.548813 
L 176.653295 148.048504 
L 176.653295 149.548195 
L 178.999403 151.047885 
L 178.530182 152.547576 
L 179.234014 154.047266 
L 167.50347 155.546957 
L 172.195688 157.046647 
L 172.66491 158.546338 
L 172.430299 160.046028 
L 160.465143 161.545719 
L 162.576641 163.045409 
L 163.280474 164.5451 
L 149.438432 166.04479 
L 146.857712 167.544481 
L 134.657946 169.044172 
L 121.519736 170.543862 
L 64.978512 172.043553 
L 67.324621 173.543243 
L 199.17594 175.042934 
L 206.683488 176.542624 
L 207.15271 178.042315 
L 207.621932 179.542005 
L 206.683488 181.041696 
L 207.15271 182.541386 
L 206.918099 184.041077 
L 207.15271 185.540767 
L 205.510434 187.040458 
L 208.560375 188.540149 
L 208.325764 190.039839 
L 207.621932 191.53953 
L 209.029597 193.03922 
L 208.325764 194.538911 
L 208.325764 196.038601 
L 209.264208 197.538292 
L 208.560375 199.037982 
L 209.029597 200.537673 
" style="fill:none;stroke:#a2eb7f;stroke-dasharray:1.5,2.475;stroke-dashoffset:0;stroke-width:1.5;"/>
   </g>
   <g id="line2d_14">
    <path clip-path="url(#pac91a54d3c)" d="M 205.882527 53.568 
L 197.38308 55.633399 
L 196.049834 57.698799 
L 202.549411 59.764198 
L 202.716067 61.829597 
L 197.883048 63.894997 
L 200.882853 65.960396 
L 200.716197 68.025795 
L 202.716067 70.091195 
L 201.38282 72.156594 
L 198.383015 74.221993 
L 201.716132 76.287393 
L 198.882983 78.352792 
L 201.216164 80.418191 
L 197.38308 82.483591 
L 200.382885 84.54899 
L 197.883048 86.614389 
L 201.216164 88.679788 
L 198.049704 90.745188 
L 198.882983 92.810587 
L 197.549736 94.875986 
L 198.383015 96.941386 
L 196.716457 99.006785 
L 196.21649 101.072184 
L 197.716392 103.137584 
L 193.549997 105.202983 
L 195.549866 107.268382 
L 194.049964 109.333782 
L 194.383276 111.399181 
L 192.383406 113.46458 
L 193.883308 115.52998 
L 193.716652 117.595379 
L 192.21675 119.660778 
L 191.883438 121.726178 
L 189.883568 123.791577 
L 191.550127 125.856976 
L 192.550062 127.922376 
L 189.050289 129.987775 
L 191.050159 132.053174 
L 188.883634 134.118574 
L 190.050224 136.183973 
L 186.717108 138.249372 
L 184.383926 140.314772 
L 183.05068 142.380171 
L 184.050615 144.44557 
L 183.383991 146.51097 
L 185.550517 148.576369 
L 180.550842 150.641768 
L 183.550647 152.707167 
L 184.883894 154.772567 
L 177.217726 156.837966 
L 180.550842 158.903365 
L 177.217726 160.968765 
L 180.050875 163.034164 
L 176.217791 165.099563 
L 176.551103 167.164963 
L 177.884349 169.230362 
L 178.384317 171.295761 
L 179.05094 173.361161 
L 172.218051 175.42656 
L 176.717758 177.491959 
L 178.051005 179.557359 
L 176.051135 181.622758 
L 178.717628 183.688157 
L 179.05094 185.753557 
L 174.717889 187.818956 
L 181.717433 189.884355 
L 185.883829 191.949755 
L 183.05068 194.015154 
L 185.717173 196.080553 
L 192.21675 198.145953 
L 191.050159 200.211352 
L 195.049899 202.276751 
L 197.549736 204.342151 
L 199.549606 206.40755 
L 197.549736 208.472949 
L 201.716132 210.538349 
L 202.716067 212.603748 
L 202.716067 214.669147 
L 204.215969 216.734546 
L 205.38256 218.799946 
L 204.382625 220.865345 
L 207.38243 222.930744 
L 208.882332 224.996144 
L 209.882267 227.061543 
L 209.3823 229.126942 
L 210.048923 231.192342 
L 210.715546 233.257741 
L 210.882202 235.32314 
L 211.048858 237.38854 
L 211.215514 239.453939 
L 211.548825 241.519338 
L 211.548825 243.584738 
L 212.215449 245.650137 
L 212.215449 247.715536 
L 212.382105 249.780936 
L 212.382105 251.846335 
L 212.54876 253.911734 
L 212.54876 255.977134 
" style="fill:none;stroke:#77cd86;stroke-dasharray:5.55,2.4;stroke-dashoffset:0;stroke-width:1.5;"/>
   </g>
   <g id="line2d_15">
    <path clip-path="url(#pac91a54d3c)" d="M 188.780326 53.568 
L 194.297998 55.217664 
L 197.905707 56.867327 
L 194.934653 58.516991 
L 197.481271 60.166654 
L 196.42018 61.816318 
L 199.179016 63.465981 
L 199.603452 65.115645 
L 199.179016 66.765308 
L 198.966798 68.414972 
L 199.179016 70.064635 
L 195.783526 71.714299 
L 195.571307 73.363962 
L 194.08578 75.013626 
L 198.75458 76.663289 
L 200.027889 78.312953 
L 197.269053 79.962616 
L 196.42018 81.61228 
L 197.056835 83.261943 
L 194.510217 84.911607 
L 193.873562 86.56127 
L 196.632398 88.210934 
L 195.783526 89.860597 
L 195.783526 91.510261 
L 194.510217 93.159925 
L 192.388035 94.809588 
L 192.812471 96.459252 
L 194.08578 98.108915 
L 194.934653 99.758579 
L 195.146871 101.408242 
L 194.722435 103.057906 
L 187.719235 104.707569 
L 192.175817 106.357233 
L 191.114726 108.006896 
L 195.995744 109.65656 
L 193.024689 111.306223 
L 188.568108 112.955887 
L 190.69029 114.60555 
L 189.416981 116.255214 
L 193.873562 117.904877 
L 190.053635 119.554541 
L 186.658145 121.204204 
L 189.841417 122.853868 
L 186.658145 124.503531 
L 188.780326 126.153195 
L 191.114726 127.802859 
L 182.413781 129.452522 
L 186.870363 131.102186 
L 184.535963 132.751849 
L 188.568108 134.401513 
L 181.777127 136.051176 
L 184.535963 137.70084 
L 181.989345 139.350503 
L 183.050436 141.000167 
L 178.381636 142.64983 
L 182.413781 144.299494 
L 177.108327 145.949157 
L 173.500619 147.598821 
L 177.532764 149.248484 
L 170.954001 150.898148 
L 167.770728 152.547811 
L 166.285201 154.197475 
L 155.037639 155.847138 
L 137.635749 157.496802 
L 152.491021 159.146465 
L 164.16302 160.796129 
L 174.561709 162.445792 
L 178.806073 164.095456 
L 177.744982 165.74512 
L 183.474872 167.394783 
L 183.899309 169.044447 
L 181.140472 170.69411 
L 181.989345 172.343774 
L 179.018291 173.993437 
L 178.381636 175.643101 
L 170.105128 177.292764 
L 171.590655 178.942428 
L 173.925055 180.592091 
L 179.867163 182.241755 
L 182.838218 183.891418 
L 177.108327 185.541082 
L 191.539162 187.190745 
L 208.092179 188.840409 
L 208.092179 190.490072 
L 208.728833 192.139736 
L 207.667743 193.789399 
L 207.667743 195.439063 
L 209.577706 197.088726 
L 210.002142 198.73839 
L 208.941052 200.388054 
L 207.879961 202.037717 
L 210.426579 203.687381 
L 209.15327 205.337044 
L 209.789924 206.986708 
L 208.304397 208.636371 
L 210.638797 210.286035 
L 210.002142 211.935698 
L 210.002142 213.585362 
L 210.426579 215.235025 
" style="fill:none;stroke:#258d41;stroke-dasharray:9.6,2.4,1.5,2.4;stroke-dashoffset:0;stroke-width:1.5;"/>
   </g>
   <g id="line2d_16">
    <path clip-path="url(#pac91a54d3c)" d="M 197.892225 53.568 
L 196.742692 56.001122 
L 201.484513 58.434244 
L 199.185448 60.867366 
L 197.173767 63.300488 
L 198.323299 65.73361 
L 201.19713 68.166732 
L 200.334981 70.599853 
L 198.610682 73.032975 
L 199.903906 75.466097 
L 199.472831 77.899219 
L 197.46115 80.332341 
L 199.041757 82.765463 
L 199.32914 85.198585 
L 195.59316 87.631707 
L 195.880543 90.064829 
L 197.173767 92.497951 
L 198.323299 94.931073 
L 197.604842 97.364195 
L 194.731011 99.797316 
L 193.72517 102.230438 
L 193.868862 104.66356 
L 194.443628 107.096682 
L 193.294096 109.529804 
L 192.144564 111.962926 
L 192.144564 114.396048 
L 192.000872 116.82917 
L 192.144564 119.262292 
L 188.839658 121.695414 
L 187.402743 124.128536 
L 191.138723 126.561658 
L 189.558116 128.994779 
L 185.965828 131.427901 
L 184.528913 133.861023 
L 187.833818 136.294145 
L 184.528913 138.727267 
L 182.37354 141.160389 
L 178.63756 143.593511 
L 179.068635 146.026633 
L 173.608357 148.459755 
L 175.332655 150.892877 
L 169.728685 153.325999 
L 170.878218 155.759121 
L 161.250885 158.192242 
L 167.142238 160.625364 
L 172.02775 163.058486 
L 176.76957 165.491608 
L 178.062794 167.92473 
L 177.775411 170.357852 
L 181.367699 172.790974 
L 185.678445 175.224096 
L 187.690126 177.657218 
L 188.552275 180.09034 
L 187.977509 182.523462 
L 192.863021 184.956584 
L 198.610682 187.389706 
L 197.748533 189.822827 
L 195.162086 192.255949 
L 200.909747 194.689071 
L 203.352503 197.122193 
L 201.19713 199.555315 
L 204.358343 201.988437 
L 205.93895 204.421559 
L 205.364184 206.854681 
L 203.639886 209.287803 
L 206.226333 211.720925 
L 205.795259 214.154047 
L 206.370025 216.587169 
L 206.226333 219.02029 
L 205.507876 221.453412 
L 207.950631 223.886534 
L 209.387547 226.319656 
L 209.818621 228.752778 
L 209.387547 231.1859 
L 209.387547 233.619022 
L 208.956472 236.052144 
L 210.106004 238.485266 
L 209.387547 240.918388 
L 209.531238 243.35151 
L 209.67493 245.784632 
L 209.387547 248.217753 
L 209.100164 250.650875 
L 209.387547 253.083997 
L 209.67493 255.517119 
L 209.531238 257.950241 
L 209.100164 260.383363 
L 209.962313 262.816485 
L 210.106004 265.249607 
L 211.686611 267.682729 
L 211.255537 270.115851 
L 211.973994 272.548973 
L 212.54876 274.982095 
L 212.117686 277.415216 
L 210.824462 279.848338 
L 211.255537 282.28146 
L 212.261377 284.714582 
L 211.973994 287.147704 
L 212.405069 289.580826 
L 212.117686 292.013948 
L 212.54876 294.44707 
" style="fill:none;stroke:#115029;stroke-linecap:square;stroke-width:1.5;"/>
   </g>
   <g id="patch_3">
    <path d="M 57.6 307.584 
L 57.6 41.472 
" style="fill:none;stroke:#000000;stroke-linecap:square;stroke-linejoin:miter;stroke-width:0.8;"/>
   </g>
   <g id="patch_4">
    <path d="M 219.927273 307.584 
L 219.927273 41.472 
" style="fill:none;stroke:#000000;stroke-linecap:square;stroke-linejoin:miter;stroke-width:0.8;"/>
   </g>
   <g id="patch_5">
    <path d="M 57.6 307.584 
L 219.927273 307.584 
" style="fill:none;stroke:#000000;stroke-linecap:square;stroke-linejoin:miter;stroke-width:0.8;"/>
   </g>
   <g id="patch_6">
    <path d="M 57.6 41.472 
L 219.927273 41.472 
" style="fill:none;stroke:#000000;stroke-linecap:square;stroke-linejoin:miter;stroke-width:0.8;"/>
   </g>
  </g>
  <g id="axes_2">
   <g id="patch_7">
    <path d="M 252.392727 307.584 
L 414.72 307.584 
L 414.72 41.472 
L 252.392727 41.472 
z
" style="fill:#ffffff;"/>
   </g>
   <g id="matplotlib.axis_3">
    <g id="xtick_4">
     <g id="line2d_17">
      <g>
       <use style="stroke:#000000;stroke-width:0.8;" x="259.212367" xlink:href="#mcad0433a53" y="307.584"/>
      </g>
     </g>
     <g id="text_14">
      <!-- 0.0 -->
      <g transform="translate(247.285024 325.981656)scale(0.15 -0.15)">
       <use xlink:href="#DejaVuSans-48"/>
       <use x="63.623047" xlink:href="#DejaVuSans-46"/>
       <use x="95.410156" xlink:href="#DejaVuSans-48"/>
      </g>
     </g>
    </g>
    <g id="xtick_5">
     <g id="line2d_18">
      <g>
       <use style="stroke:#000000;stroke-width:0.8;" x="333.276927" xlink:href="#mcad0433a53" y="307.584"/>
      </g>
     </g>
     <g id="text_15">
      <!-- 0.5 -->
      <g transform="translate(321.349584 325.981656)scale(0.15 -0.15)">
       <use xlink:href="#DejaVuSans-48"/>
       <use x="63.623047" xlink:href="#DejaVuSans-46"/>
       <use x="95.410156" xlink:href="#DejaVuSans-53"/>
      </g>
     </g>
    </g>
    <g id="xtick_6">
     <g id="line2d_19">
      <g>
       <use style="stroke:#000000;stroke-width:0.8;" x="407.341488" xlink:href="#mcad0433a53" y="307.584"/>
      </g>
     </g>
     <g id="text_16">
      <!-- 1.0 -->
      <g transform="translate(395.414144 325.981656)scale(0.15 -0.15)">
       <use xlink:href="#DejaVuSans-49"/>
       <use x="63.623047" xlink:href="#DejaVuSans-46"/>
       <use x="95.410156" xlink:href="#DejaVuSans-48"/>
      </g>
     </g>
    </g>
    <g id="text_17">
     <!-- CDF -->
     <defs>
      <path d="M 64.40625 67.28125 
L 64.40625 56.890625 
Q 59.421875 61.53125 53.78125 63.8125 
Q 48.140625 66.109375 41.796875 66.109375 
Q 29.296875 66.109375 22.65625 58.46875 
Q 16.015625 50.828125 16.015625 36.375 
Q 16.015625 21.96875 22.65625 14.328125 
Q 29.296875 6.6875 41.796875 6.6875 
Q 48.140625 6.6875 53.78125 8.984375 
Q 59.421875 11.28125 64.40625 15.921875 
L 64.40625 5.609375 
Q 59.234375 2.09375 53.4375 0.328125 
Q 47.65625 -1.421875 41.21875 -1.421875 
Q 24.65625 -1.421875 15.125 8.703125 
Q 5.609375 18.84375 5.609375 36.375 
Q 5.609375 53.953125 15.125 64.078125 
Q 24.65625 74.21875 41.21875 74.21875 
Q 47.75 74.21875 53.53125 72.484375 
Q 59.328125 70.75 64.40625 67.28125 
z
" id="DejaVuSans-67"/>
     </defs>
     <g transform="translate(316.187145 346.018531)scale(0.17 -0.17)">
      <use xlink:href="#DejaVuSans-67"/>
      <use x="69.824219" xlink:href="#DejaVuSans-68"/>
      <use x="146.826172" xlink:href="#DejaVuSans-70"/>
     </g>
    </g>
   </g>
   <g id="matplotlib.axis_4"/>
   <g id="line2d_20">
    <path clip-path="url(#paa10c30ccf)" d="M 261.041122 53.568 
L 262.696886 56.036571 
L 264.290868 58.505143 
L 265.92192 60.973714 
L 267.305842 63.442286 
L 268.899824 65.910857 
L 270.82743 68.379429 
L 272.730323 70.848 
L 274.917415 73.316571 
L 276.931516 75.785143 
L 278.636706 78.253714 
L 280.601382 80.722286 
L 282.751404 83.190857 
L 284.938496 85.659429 
L 287.18737 88.128 
L 289.794581 90.596571 
L 292.018742 93.065143 
L 294.341754 95.533714 
L 296.504133 98.002286 
L 298.913641 100.470857 
L 301.24901 102.939429 
L 303.411388 105.408 
L 305.722044 107.876571 
L 308.205691 110.345143 
L 310.664624 112.813714 
L 313.074132 115.282286 
L 315.520709 117.750857 
L 317.991999 120.219429 
L 320.277942 122.688 
L 322.848084 125.156571 
L 324.973393 127.625143 
L 326.975138 130.093714 
L 329.248725 132.562286 
L 331.435816 135.030857 
L 333.5117 137.499429 
L 335.748217 139.968 
L 337.700536 142.436571 
L 340.122401 144.905143 
L 342.470126 147.373714 
L 345.064981 149.842286 
L 347.659835 152.310857 
L 350.254689 154.779429 
L 352.89897 157.248 
L 356.025152 159.716571 
L 358.842422 162.185143 
L 361.536128 164.653714 
L 363.871497 167.122286 
L 365.959737 169.590857 
L 368.220968 172.059429 
L 370.37099 174.528 
L 372.298596 176.996571 
L 374.436262 179.465143 
L 376.524502 181.933714 
L 378.884584 184.402286 
L 381.059319 186.870857 
L 383.345262 189.339429 
L 385.458215 191.808 
L 387.373465 194.276571 
L 389.078655 196.745143 
L 390.709706 199.213714 
L 391.945351 201.682286 
L 393.057432 204.150857 
L 394.379572 206.619429 
L 395.590504 209.088 
L 396.75201 211.556571 
L 397.777595 214.025143 
L 398.691973 216.493714 
L 399.544568 218.962286 
L 400.347737 221.430857 
L 400.903777 223.899429 
L 401.200332 226.368 
L 401.756372 228.836571 
L 402.176492 231.305143 
L 402.559542 233.773714 
L 402.831383 236.242286 
L 403.288572 238.710857 
L 403.548058 241.179429 
L 403.745761 243.648 
L 403.99289 246.116571 
L 404.33887 248.585143 
L 404.598356 251.053714 
L 404.894911 253.522286 
L 405.191465 255.990857 
L 405.413881 258.459429 
L 405.685723 260.928 
L 405.957565 263.396571 
L 406.192338 265.865143 
L 406.340615 268.333714 
L 406.575388 270.802286 
L 406.711309 273.270857 
L 406.773091 275.739429 
L 406.84723 278.208 
L 406.921368 280.676571 
L 407.007863 283.145143 
L 407.069646 285.613714 
L 407.156141 288.082286 
L 407.217923 290.550857 
L 407.254992 293.019429 
L 407.341488 295.488 
" style="fill:none;stroke:#000000;stroke-linecap:square;stroke-width:3;"/>
   </g>
   <g id="line2d_21">
    <path clip-path="url(#paa10c30ccf)" d="M 260.183518 53.568 
L 261.840188 55.067691 
L 262.797058 56.567381 
L 263.525421 58.067072 
L 264.239503 59.566762 
L 265.010711 61.066453 
L 265.681948 62.566143 
L 266.538846 64.065834 
L 267.410026 65.565524 
L 268.609683 67.065215 
L 269.552271 68.564905 
L 270.380606 70.064596 
L 271.223223 71.564286 
L 271.980149 73.063977 
L 272.679949 74.563668 
L 273.536847 76.063358 
L 274.350901 77.563049 
L 275.436305 79.062739 
L 276.378893 80.56243 
L 277.221509 82.06212 
L 278.506856 83.561811 
L 279.906457 85.061501 
L 280.977579 86.561192 
L 281.891604 88.060882 
L 282.81991 89.560573 
L 283.733935 91.060263 
L 284.747931 92.559954 
L 285.776209 94.059645 
L 286.933021 95.559335 
L 288.075552 97.059026 
L 289.375181 98.558716 
L 290.731936 100.058407 
L 291.774496 101.558097 
L 292.77421 103.057788 
L 293.773924 104.557478 
L 295.059272 106.057169 
L 296.216084 107.556859 
L 297.572839 109.05655 
L 298.915313 110.556241 
L 300.386322 112.055931 
L 301.585979 113.555622 
L 302.771355 115.055312 
L 304.013857 116.555003 
L 305.327767 118.054693 
L 306.627396 119.554384 
L 308.169813 121.054074 
L 309.812201 122.553765 
L 311.240364 124.053455 
L 312.554275 125.553146 
L 314.053846 127.052836 
L 315.48201 128.552527 
L 316.810202 130.052218 
L 318.552562 131.551908 
L 320.480582 133.051599 
L 321.951591 134.551289 
L 323.451162 136.05098 
L 325.079269 137.55067 
L 326.735939 139.050361 
L 328.535425 140.550051 
L 330.463445 142.049742 
L 332.291495 143.549432 
L 334.105262 145.049123 
L 335.83334 146.548813 
L 338.01843 148.048504 
L 340.203521 149.548195 
L 342.245794 151.047885 
L 344.316631 152.547576 
L 346.344624 154.047266 
L 349.086698 155.546957 
L 351.543139 157.046647 
L 353.971017 158.546338 
L 356.413176 160.046028 
L 359.583699 161.545719 
L 362.625688 163.045409 
L 365.624831 164.5451 
L 369.466591 166.04479 
L 373.465449 167.544481 
L 378.206952 169.044172 
L 383.748226 170.543862 
L 392.731375 172.043553 
L 401.571707 173.543243 
L 402.38576 175.042934 
L 402.742801 176.542624 
L 403.071279 178.042315 
L 403.371193 179.542005 
L 403.728234 181.041696 
L 404.056712 182.541386 
L 404.399471 184.041077 
L 404.727948 185.540767 
L 405.156397 187.040458 
L 405.399185 188.540149 
L 405.656255 190.039839 
L 405.956169 191.53953 
L 406.170394 193.03922 
L 406.427463 194.538911 
L 406.684532 196.038601 
L 406.884475 197.538292 
L 407.127263 199.037982 
L 407.341488 200.537673 
" style="fill:none;stroke:#a2eb7f;stroke-dasharray:1.5,2.475;stroke-dashoffset:0;stroke-width:1.5;"/>
   </g>
   <g id="line2d_22">
    <path clip-path="url(#paa10c30ccf)" d="M 259.77124 53.568 
L 261.042674 55.633399 
L 262.425883 57.698799 
L 263.264192 59.764198 
L 264.088529 61.829597 
L 265.318048 63.894997 
L 266.296075 65.960396 
L 267.288073 68.025795 
L 268.11241 70.091195 
L 269.048521 72.156594 
L 270.236125 74.221993 
L 271.144292 76.287393 
L 272.289981 78.352792 
L 273.240064 80.418191 
L 274.511498 82.483591 
L 275.53144 84.54899 
L 276.76096 86.614389 
L 277.711043 88.679788 
L 278.92659 90.745188 
L 280.072278 92.810587 
L 281.329741 94.875986 
L 282.517345 96.941386 
L 283.844667 99.006785 
L 285.213904 101.072184 
L 286.457395 103.137584 
L 288.050181 105.202983 
L 289.475306 107.268382 
L 291.026177 109.333782 
L 292.549104 111.399181 
L 294.239693 113.46458 
L 295.804535 115.52998 
L 297.38335 117.595379 
L 299.087911 119.660778 
L 300.820415 121.726178 
L 302.720581 123.791577 
L 304.481029 125.856976 
L 306.157646 127.922376 
L 308.127671 129.987775 
L 309.930034 132.053174 
L 311.914031 134.118574 
L 313.800226 136.183973 
L 315.965856 138.249372 
L 318.327092 140.314772 
L 320.800102 142.380171 
L 323.189281 144.44557 
L 325.634348 146.51097 
L 327.897781 148.576369 
L 330.580368 150.641768 
L 333.011463 152.707167 
L 335.330783 154.772567 
L 338.292807 156.837966 
L 340.975394 158.903365 
L 343.937418 160.968765 
L 346.661921 163.034164 
L 349.707775 165.099563 
L 352.725686 167.164963 
L 355.631822 169.230362 
L 358.496043 171.295761 
L 361.304377 173.361161 
L 364.685554 175.42656 
L 367.689493 177.491959 
L 370.581658 179.557359 
L 373.641484 181.622758 
L 376.477761 183.688157 
L 379.286095 185.753557 
L 382.457696 187.818956 
L 385.04248 189.884355 
L 387.27797 191.949755 
L 389.75098 194.015154 
L 392.000441 196.080553 
L 393.705002 198.145953 
L 395.507365 200.211352 
L 396.974405 202.276751 
L 398.231868 204.342151 
L 399.321669 206.40755 
L 400.579132 208.472949 
L 401.4873 210.538349 
L 402.311636 212.603748 
L 403.135973 214.669147 
L 403.834564 216.734546 
L 404.435351 218.799946 
L 405.11997 220.865345 
L 405.553096 222.930744 
L 405.860476 224.996144 
L 406.084025 227.061543 
L 406.349489 229.126942 
L 406.559066 231.192342 
L 406.712756 233.257741 
L 406.852474 235.32314 
L 406.978221 237.38854 
L 407.089995 239.453939 
L 407.173826 241.519338 
L 407.257657 243.584738 
L 407.2856 245.650137 
L 407.313544 247.715536 
L 407.327516 249.780936 
L 407.341488 251.846335 
L 407.341488 253.911734 
L 407.341488 255.977134 
" style="fill:none;stroke:#77cd86;stroke-dasharray:5.55,2.4;stroke-dashoffset:0;stroke-width:1.5;"/>
   </g>
   <g id="line2d_23">
    <path clip-path="url(#paa10c30ccf)" d="M 260.803931 53.568 
L 262.026025 55.217664 
L 263.006542 56.867327 
L 264.186004 58.516991 
L 265.194942 60.166654 
L 266.274932 61.816318 
L 267.170187 63.465981 
L 268.03702 65.115645 
L 268.932275 66.765308 
L 269.84174 68.414972 
L 270.736995 70.064635 
L 271.859616 71.714299 
L 272.996447 73.363962 
L 274.232751 75.013626 
L 275.156426 76.663289 
L 275.99484 78.312953 
L 277.017988 79.962616 
L 278.097978 81.61228 
L 279.135336 83.261943 
L 280.343219 84.911607 
L 281.593734 86.56127 
L 282.659513 88.210934 
L 283.782134 89.860597 
L 284.904755 91.510261 
L 286.112638 93.159925 
L 287.462625 94.809588 
L 288.784192 96.459252 
L 290.020496 98.108915 
L 291.199958 99.758579 
L 292.365211 101.408242 
L 293.558883 103.057906 
L 295.221499 104.707569 
L 296.585697 106.357233 
L 298.020946 108.006896 
L 299.129357 109.65656 
L 300.436713 111.306223 
L 302.042487 112.955887 
L 303.506157 114.60555 
L 305.05509 116.255214 
L 306.305605 117.904877 
L 307.811906 119.554541 
L 309.545574 121.204204 
L 311.066086 122.853868 
L 312.799753 124.503531 
L 314.391317 126.153195 
L 315.826567 127.802859 
L 317.844442 129.452522 
L 319.5639 131.102186 
L 321.439671 132.751849 
L 323.045446 134.401513 
L 325.105952 136.051176 
L 326.981724 137.70084 
L 329.02802 139.350503 
L 331.003265 141.000167 
L 333.291138 142.64983 
L 335.309013 144.299494 
L 337.682149 145.949157 
L 340.296861 147.598821 
L 342.641575 149.248484 
L 345.426812 150.898148 
L 348.425205 152.547811 
L 351.52307 154.197475 
L 355.374086 155.847138 
L 360.390354 157.496802 
L 364.411895 159.146465 
L 367.651864 160.796129 
L 370.195524 162.445792 
L 372.454977 164.095456 
L 374.785481 165.74512 
L 376.732304 167.394783 
L 378.650707 169.044447 
L 380.753845 170.69411 
L 382.800142 172.343774 
L 385.045383 173.993437 
L 387.333256 175.643101 
L 390.175335 177.292764 
L 392.91794 178.942428 
L 395.504232 180.592091 
L 397.692632 182.241755 
L 399.682087 183.891418 
L 402.055222 185.541082 
L 403.462051 187.190745 
L 403.760469 188.840409 
L 404.058887 190.490072 
L 404.314674 192.139736 
L 404.641513 193.789399 
L 404.968352 195.439063 
L 405.167298 197.088726 
L 405.337822 198.73839 
L 405.579399 200.388054 
L 405.892028 202.037717 
L 406.034132 203.687381 
L 406.261498 205.337044 
L 406.446233 206.986708 
L 406.730441 208.636371 
L 406.858334 210.286035 
L 407.028859 211.935698 
L 407.199384 213.585362 
L 407.341488 215.235025 
" style="fill:none;stroke:#258d41;stroke-dasharray:9.6,2.4,1.5,2.4;stroke-dashoffset:0;stroke-width:1.5;"/>
   </g>
   <g id="line2d_24">
    <path clip-path="url(#paa10c30ccf)" d="M 260.659883 53.568 
L 262.22093 56.001122 
L 263.313662 58.434244 
L 264.633456 60.867366 
L 266.151929 63.300488 
L 267.55687 65.73361 
L 268.677986 68.166732 
L 269.884249 70.599853 
L 271.260808 73.032975 
L 272.509645 75.466097 
L 273.801056 77.899219 
L 275.291146 80.332341 
L 276.625131 82.765463 
L 277.930734 85.198585 
L 279.605311 87.631707 
L 281.251505 90.064829 
L 282.769978 92.497951 
L 284.17492 94.931073 
L 285.650818 97.364195 
L 287.410543 99.797316 
L 289.269608 102.230438 
L 291.114481 104.66356 
L 292.902589 107.096682 
L 294.804227 109.529804 
L 296.819396 111.962926 
L 298.834565 114.396048 
L 300.863926 116.82917 
L 302.879095 119.262292 
L 305.220665 121.695414 
L 307.704148 124.128536 
L 309.818656 126.561658 
L 312.089269 128.994779 
L 314.714666 131.427901 
L 317.481975 133.861023 
L 319.922884 136.294145 
L 322.690194 138.727267 
L 325.670374 141.160389 
L 329.019528 143.593511 
L 332.326108 146.026633 
L 336.171959 148.459755 
L 339.847514 150.892877 
L 344.076531 153.325999 
L 348.192017 155.759121 
L 353.258322 158.192242 
L 357.742783 160.625364 
L 361.744739 163.058486 
L 365.27838 165.491608 
L 368.6843 167.92473 
L 372.118602 170.357852 
L 375.198121 172.790974 
L 377.8519 175.224096 
L 380.307001 177.657218 
L 382.676953 180.09034 
L 385.103671 182.523462 
L 387.047883 184.956584 
L 388.424442 187.389706 
L 389.88615 189.822827 
L 391.603301 192.255949 
L 392.752799 194.689071 
L 393.661044 197.122193 
L 394.782159 199.555315 
L 395.591065 201.988437 
L 396.243866 204.421559 
L 396.953433 206.854681 
L 397.833295 209.287803 
L 398.457714 211.720925 
L 399.124707 214.154047 
L 399.734934 216.587169 
L 400.359352 219.02029 
L 401.054728 221.453412 
L 401.50885 223.886534 
L 401.82106 226.319656 
L 402.090695 228.752778 
L 402.402904 231.1859 
L 402.715113 233.619022 
L 403.069897 236.052144 
L 403.311149 238.485266 
L 403.623359 240.918388 
L 403.921377 243.35151 
L 404.205203 245.784632 
L 404.517413 248.217753 
L 404.858005 250.650875 
L 405.170214 253.083997 
L 405.45404 255.517119 
L 405.752058 257.950241 
L 406.09265 260.383363 
L 406.348094 262.816485 
L 406.589347 265.249607 
L 406.674495 267.682729 
L 406.802217 270.115851 
L 406.858982 272.548973 
L 406.858982 274.982095 
L 406.901556 277.415216 
L 407.071852 279.848338 
L 407.199574 282.28146 
L 407.227957 284.714582 
L 407.284722 287.147704 
L 407.298914 289.580826 
L 407.341488 292.013948 
L 407.341488 294.44707 
" style="fill:none;stroke:#115029;stroke-linecap:square;stroke-width:1.5;"/>
   </g>
   <g id="patch_8">
    <path d="M 252.392727 307.584 
L 252.392727 41.472 
" style="fill:none;stroke:#000000;stroke-linecap:square;stroke-linejoin:miter;stroke-width:0.8;"/>
   </g>
   <g id="patch_9">
    <path d="M 414.72 307.584 
L 414.72 41.472 
" style="fill:none;stroke:#000000;stroke-linecap:square;stroke-linejoin:miter;stroke-width:0.8;"/>
   </g>
   <g id="patch_10">
    <path d="M 252.392727 307.584 
L 414.72 307.584 
" style="fill:none;stroke:#000000;stroke-linecap:square;stroke-linejoin:miter;stroke-width:0.8;"/>
   </g>
   <g id="patch_11">
    <path d="M 252.392727 41.472 
L 414.72 41.472 
" style="fill:none;stroke:#000000;stroke-linecap:square;stroke-linejoin:miter;stroke-width:0.8;"/>
   </g>
   <g id="legend_1">
    <g id="patch_12">
     <path d="M 261.492727 301.084 
L 345.81804 301.084 
Q 348.41804 301.084 348.41804 298.484 
L 348.41804 225.176187 
Q 348.41804 222.576187 345.81804 222.576187 
L 261.492727 222.576187 
Q 258.892727 222.576187 258.892727 225.176187 
L 258.892727 298.484 
Q 258.892727 301.084 261.492727 301.084 
z
" style="fill:#ffffff;opacity:0.8;stroke:#cccccc;stroke-linejoin:miter;"/>
    </g>
    <g id="line2d_25">
     <path d="M 264.092727 233.104156 
L 290.092727 233.104156 
" style="fill:none;stroke:#000000;stroke-linecap:square;stroke-width:3;"/>
    </g>
    <g id="line2d_26"/>
    <g id="text_18">
     <!-- TS -->
     <defs>
      <path d="M -0.296875 72.90625 
L 61.375 72.90625 
L 61.375 64.59375 
L 35.5 64.59375 
L 35.5 0 
L 25.59375 0 
L 25.59375 64.59375 
L -0.296875 64.59375 
z
" id="DejaVuSans-84"/>
      <path d="M 53.515625 70.515625 
L 53.515625 60.890625 
Q 47.90625 63.578125 42.921875 64.890625 
Q 37.9375 66.21875 33.296875 66.21875 
Q 25.25 66.21875 20.875 63.09375 
Q 16.5 59.96875 16.5 54.203125 
Q 16.5 49.359375 19.40625 46.890625 
Q 22.3125 44.4375 30.421875 42.921875 
L 36.375 41.703125 
Q 47.40625 39.59375 52.65625 34.296875 
Q 57.90625 29 57.90625 20.125 
Q 57.90625 9.515625 50.796875 4.046875 
Q 43.703125 -1.421875 29.984375 -1.421875 
Q 24.8125 -1.421875 18.96875 -0.25 
Q 13.140625 0.921875 6.890625 3.21875 
L 6.890625 13.375 
Q 12.890625 10.015625 18.65625 8.296875 
Q 24.421875 6.59375 29.984375 6.59375 
Q 38.421875 6.59375 43.015625 9.90625 
Q 47.609375 13.234375 47.609375 19.390625 
Q 47.609375 24.75 44.3125 27.78125 
Q 41.015625 30.8125 33.5 32.328125 
L 27.484375 33.5 
Q 16.453125 35.6875 11.515625 40.375 
Q 6.59375 45.0625 6.59375 53.421875 
Q 6.59375 63.09375 13.40625 68.65625 
Q 20.21875 74.21875 32.171875 74.21875 
Q 37.3125 74.21875 42.625 73.28125 
Q 47.953125 72.359375 53.515625 70.515625 
z
" id="DejaVuSans-83"/>
     </defs>
     <g transform="translate(300.492727 237.654156)scale(0.13 -0.13)">
      <use xlink:href="#DejaVuSans-84"/>
      <use x="61.083984" xlink:href="#DejaVuSans-83"/>
     </g>
    </g>
    <g id="line2d_27">
     <path d="M 264.092727 246.985719 
L 290.092727 246.985719 
" style="fill:none;stroke:#a2eb7f;stroke-dasharray:1.5,2.475;stroke-dashoffset:0;stroke-width:1.5;"/>
    </g>
    <g id="line2d_28"/>
    <g id="text_19">
     <!-- RB, n0 -->
     <defs>
      <path d="M 44.390625 34.1875 
Q 47.5625 33.109375 50.5625 29.59375 
Q 53.5625 26.078125 56.59375 19.921875 
L 66.609375 0 
L 56 0 
L 46.6875 18.703125 
Q 43.0625 26.03125 39.671875 28.421875 
Q 36.28125 30.8125 30.421875 30.8125 
L 19.671875 30.8125 
L 19.671875 0 
L 9.8125 0 
L 9.8125 72.90625 
L 32.078125 72.90625 
Q 44.578125 72.90625 50.734375 67.671875 
Q 56.890625 62.453125 56.890625 51.90625 
Q 56.890625 45.015625 53.6875 40.46875 
Q 50.484375 35.9375 44.390625 34.1875 
z
M 19.671875 64.796875 
L 19.671875 38.921875 
L 32.078125 38.921875 
Q 39.203125 38.921875 42.84375 42.21875 
Q 46.484375 45.515625 46.484375 51.90625 
Q 46.484375 58.296875 42.84375 61.546875 
Q 39.203125 64.796875 32.078125 64.796875 
z
" id="DejaVuSans-82"/>
      <path d="M 19.671875 34.8125 
L 19.671875 8.109375 
L 35.5 8.109375 
Q 43.453125 8.109375 47.28125 11.40625 
Q 51.125 14.703125 51.125 21.484375 
Q 51.125 28.328125 47.28125 31.5625 
Q 43.453125 34.8125 35.5 34.8125 
z
M 19.671875 64.796875 
L 19.671875 42.828125 
L 34.28125 42.828125 
Q 41.5 42.828125 45.03125 45.53125 
Q 48.578125 48.25 48.578125 53.8125 
Q 48.578125 59.328125 45.03125 62.0625 
Q 41.5 64.796875 34.28125 64.796875 
z
M 9.8125 72.90625 
L 35.015625 72.90625 
Q 46.296875 72.90625 52.390625 68.21875 
Q 58.5 63.53125 58.5 54.890625 
Q 58.5 48.1875 55.375 44.234375 
Q 52.25 40.28125 46.1875 39.3125 
Q 53.46875 37.75 57.5 32.78125 
Q 61.53125 27.828125 61.53125 20.40625 
Q 61.53125 10.640625 54.890625 5.3125 
Q 48.25 0 35.984375 0 
L 9.8125 0 
z
" id="DejaVuSans-66"/>
      <path d="M 11.71875 12.40625 
L 22.015625 12.40625 
L 22.015625 4 
L 14.015625 -11.625 
L 7.71875 -11.625 
L 11.71875 4 
z
" id="DejaVuSans-44"/>
      <path d="M 54.890625 33.015625 
L 54.890625 0 
L 45.90625 0 
L 45.90625 32.71875 
Q 45.90625 40.484375 42.875 44.328125 
Q 39.84375 48.1875 33.796875 48.1875 
Q 26.515625 48.1875 22.3125 43.546875 
Q 18.109375 38.921875 18.109375 30.90625 
L 18.109375 0 
L 9.078125 0 
L 9.078125 54.6875 
L 18.109375 54.6875 
L 18.109375 46.1875 
Q 21.34375 51.125 25.703125 53.5625 
Q 30.078125 56 35.796875 56 
Q 45.21875 56 50.046875 50.171875 
Q 54.890625 44.34375 54.890625 33.015625 
z
" id="DejaVuSans-110"/>
     </defs>
     <g transform="translate(300.492727 251.535719)scale(0.13 -0.13)">
      <use xlink:href="#DejaVuSans-82"/>
      <use x="69.482422" xlink:href="#DejaVuSans-66"/>
      <use x="138.085938" xlink:href="#DejaVuSans-44"/>
      <use x="169.873047" xlink:href="#DejaVuSans-32"/>
      <use x="201.660156" xlink:href="#DejaVuSans-110"/>
      <use x="265.039062" xlink:href="#DejaVuSans-48"/>
     </g>
    </g>
    <g id="line2d_29">
     <path d="M 264.092727 260.867281 
L 290.092727 260.867281 
" style="fill:none;stroke:#77cd86;stroke-dasharray:5.55,2.4;stroke-dashoffset:0;stroke-width:1.5;"/>
    </g>
    <g id="line2d_30"/>
    <g id="text_20">
     <!-- RB, s0 -->
     <defs>
      <path d="M 44.28125 53.078125 
L 44.28125 44.578125 
Q 40.484375 46.53125 36.375 47.5 
Q 32.28125 48.484375 27.875 48.484375 
Q 21.1875 48.484375 17.84375 46.4375 
Q 14.5 44.390625 14.5 40.28125 
Q 14.5 37.15625 16.890625 35.375 
Q 19.28125 33.59375 26.515625 31.984375 
L 29.59375 31.296875 
Q 39.15625 29.25 43.1875 25.515625 
Q 47.21875 21.78125 47.21875 15.09375 
Q 47.21875 7.46875 41.1875 3.015625 
Q 35.15625 -1.421875 24.609375 -1.421875 
Q 20.21875 -1.421875 15.453125 -0.5625 
Q 10.6875 0.296875 5.421875 2 
L 5.421875 11.28125 
Q 10.40625 8.6875 15.234375 7.390625 
Q 20.0625 6.109375 24.8125 6.109375 
Q 31.15625 6.109375 34.5625 8.28125 
Q 37.984375 10.453125 37.984375 14.40625 
Q 37.984375 18.0625 35.515625 20.015625 
Q 33.0625 21.96875 24.703125 23.78125 
L 21.578125 24.515625 
Q 13.234375 26.265625 9.515625 29.90625 
Q 5.8125 33.546875 5.8125 39.890625 
Q 5.8125 47.609375 11.28125 51.796875 
Q 16.75 56 26.8125 56 
Q 31.78125 56 36.171875 55.265625 
Q 40.578125 54.546875 44.28125 53.078125 
z
" id="DejaVuSans-115"/>
     </defs>
     <g transform="translate(300.492727 265.417281)scale(0.13 -0.13)">
      <use xlink:href="#DejaVuSans-82"/>
      <use x="69.482422" xlink:href="#DejaVuSans-66"/>
      <use x="138.085938" xlink:href="#DejaVuSans-44"/>
      <use x="169.873047" xlink:href="#DejaVuSans-32"/>
      <use x="201.660156" xlink:href="#DejaVuSans-115"/>
      <use x="253.759766" xlink:href="#DejaVuSans-48"/>
     </g>
    </g>
    <g id="line2d_31">
     <path d="M 264.092727 274.748844 
L 290.092727 274.748844 
" style="fill:none;stroke:#258d41;stroke-dasharray:9.6,2.4,1.5,2.4;stroke-dashoffset:0;stroke-width:1.5;"/>
    </g>
    <g id="line2d_32"/>
    <g id="text_21">
     <!-- RB, s1 -->
     <g transform="translate(300.492727 279.298844)scale(0.13 -0.13)">
      <use xlink:href="#DejaVuSans-82"/>
      <use x="69.482422" xlink:href="#DejaVuSans-66"/>
      <use x="138.085938" xlink:href="#DejaVuSans-44"/>
      <use x="169.873047" xlink:href="#DejaVuSans-32"/>
      <use x="201.660156" xlink:href="#DejaVuSans-115"/>
      <use x="253.759766" xlink:href="#DejaVuSans-49"/>
     </g>
    </g>
    <g id="line2d_33">
     <path d="M 264.092727 288.630406 
L 290.092727 288.630406 
" style="fill:none;stroke:#115029;stroke-linecap:square;stroke-width:1.5;"/>
    </g>
    <g id="line2d_34"/>
    <g id="text_22">
     <!-- RB, s2 -->
     <g transform="translate(300.492727 293.180406)scale(0.13 -0.13)">
      <use xlink:href="#DejaVuSans-82"/>
      <use x="69.482422" xlink:href="#DejaVuSans-66"/>
      <use x="138.085938" xlink:href="#DejaVuSans-44"/>
      <use x="169.873047" xlink:href="#DejaVuSans-32"/>
      <use x="201.660156" xlink:href="#DejaVuSans-115"/>
      <use x="253.759766" xlink:href="#DejaVuSans-50"/>
     </g>
    </g>
   </g>
  </g>
 </g>
 <defs>
  <clipPath id="pac91a54d3c">
   <rect height="266.112" width="162.327273" x="57.6" y="41.472"/>
  </clipPath>
  <clipPath id="paa10c30ccf">
   <rect height="266.112" width="162.327273" x="252.392727" y="41.472"/>
  </clipPath>
 </defs>
</svg>
