<?xml version="1.0" encoding="utf-8" standalone="no"?>
<!DOCTYPE svg PUBLIC "-//W3C//DTD SVG 1.1//EN"
  "http://www.w3.org/Graphics/SVG/1.1/DTD/svg11.dtd">
<!-- Created with matplotlib (https://matplotlib.org/) -->
<svg height="345.6pt" version="1.1" viewBox="0 0 460.8 345.6" width="460.8pt" xmlns="http://www.w3.org/2000/svg" xmlns:xlink="http://www.w3.org/1999/xlink">
 <defs>
  <style type="text/css">
*{stroke-linecap:butt;stroke-linejoin:round;}
  </style>
 </defs>
 <g id="figure_1">
  <g id="patch_1">
   <path d="M 0 345.6 
L 460.8 345.6 
L 460.8 0 
L 0 0 
z
" style="fill:#ffffff;"/>
  </g>
  <g id="axes_1">
   <g id="patch_2">
    <path d="M 57.6 307.584 
L 343.296 307.584 
L 343.296 41.472 
L 57.6 41.472 
z
" style="fill:#ffffff;"/>
   </g>
   <g id="PathCollection_1"/>
   <g id="PathCollection_2">
    <path clip-path="url(#p9d0565b21f)" d="M 66.643682 305.679576 
L 71.165523 305.679576 
L 75.687363 305.679576 
L 80.209204 305.679576 
L 84.731045 305.679576 
L 89.252886 305.679576 
L 93.774727 305.679576 
L 98.296568 305.679576 
L 102.818409 305.679576 
L 107.34025 305.679576 
L 111.86209 305.679576 
L 116.383931 305.679576 
L 120.905772 305.679576 
L 125.427613 305.679576 
L 129.949454 305.679576 
L 134.471295 305.679576 
L 138.993136 305.679576 
L 143.514976 305.679576 
L 148.036817 305.679576 
L 152.558658 305.679576 
L 157.080499 305.679576 
L 161.60234 305.679576 
L 166.124181 305.679576 
L 170.646022 305.679576 
L 175.167863 305.679576 
L 179.689703 305.679576 
L 184.211544 305.679576 
L 188.733385 305.679576 
L 193.255226 305.679576 
L 197.777067 305.679576 
L 202.298908 305.679576 
L 206.820749 305.679576 
L 211.342589 305.679576 
L 215.86443 305.679576 
L 220.386271 305.679576 
L 224.908112 305.679576 
L 229.429953 305.679576 
L 233.951794 305.679576 
L 238.473635 305.679576 
L 242.995476 305.679576 
L 247.517316 305.679576 
L 252.039157 305.679576 
L 256.560998 305.679576 
L 261.082839 305.679576 
L 265.60468 305.679576 
L 270.126521 305.679576 
L 274.648362 305.679576 
L 279.170202 305.679576 
L 283.692043 305.679576 
L 288.213884 305.679576 
L 292.735725 305.679576 
L 297.257566 305.679576 
L 301.779407 305.679576 
L 306.301248 305.679576 
L 310.823088 305.679576 
L 315.344929 305.679576 
L 319.86677 305.679576 
L 324.388611 305.679576 
L 328.910452 305.679576 
L 333.432293 305.679576 
L 337.954134 305.679576 
L 342.475975 305.679576 
L 346.997815 305.679576 
L 351.519656 305.679576 
L 356.041497 305.679576 
L 360.563338 305.679576 
L 365.085179 305.679576 
L 369.60702 305.679576 
L 374.128861 305.679576 
L 378.650701 305.679576 
L 383.172542 305.679576 
L 387.694383 305.679576 
L 392.216224 305.679576 
L 396.738065 305.679576 
L 401.259906 305.679576 
L 405.781747 305.679576 
L 410.303588 305.679576 
L 414.825428 305.679576 
L 419.347269 305.679576 
L 423.86911 305.679576 
L 428.390951 305.679576 
L 432.912792 305.679576 
L 437.434633 305.679576 
L 441.956474 305.679576 
L 446.478314 305.679576 
L 451.000155 305.679576 
L 455.521996 305.679576 
L 460.043837 305.679576 
L 464.565678 305.679576 
L 469.087519 305.679576 
L 473.60936 305.679576 
L 478.131201 305.679576 
L 482.653041 305.679576 
L 487.174882 305.679576 
L 491.696723 305.679576 
L 496.218564 305.679576 
L 500.740405 305.679576 
L 505.262246 305.679576 
L 509.784087 305.679576 
L 514.305927 305.679576 
L 518.827768 305.679576 
L 523.349609 305.679576 
L 527.87145 305.679576 
L 532.393291 305.679576 
L 536.915132 305.679576 
L 541.436973 305.679576 
L 545.958814 305.679576 
L 550.480654 305.679576 
L 555.002495 305.679576 
L 559.524336 305.679576 
L 564.046177 305.679576 
L 568.568018 305.679576 
L 573.089859 305.679576 
L 577.6117 305.679576 
L 582.13354 305.679576 
L 586.655381 305.679576 
L 591.177222 305.679576 
L 595.699063 305.679576 
L 600.220904 305.679576 
L 604.742745 305.679576 
L 609.264586 305.679576 
L 613.786427 305.679576 
L 618.308267 305.679576 
L 622.830108 305.679576 
L 627.351949 305.679576 
L 631.87379 305.679576 
L 636.395631 305.679576 
L 640.917472 305.679576 
L 645.439313 305.679576 
L 649.961153 305.679576 
L 654.482994 305.679576 
L 659.004835 305.679576 
L 663.526676 305.679576 
L 668.048517 305.679576 
L 672.570358 305.679576 
L 677.092199 305.679576 
L 681.61404 305.679576 
L 686.13588 305.679576 
L 690.657721 305.679576 
L 695.179562 305.679576 
L 699.701403 305.679576 
L 704.223244 305.679576 
L 708.745085 305.679576 
L 713.266926 305.679576 
L 717.788766 305.679576 
L 722.310607 305.679576 
L 726.832448 305.679576 
L 731.354289 305.679576 
L 735.87613 305.679576 
L 740.397971 305.679576 
L 744.919812 305.679576 
L 749.441653 305.679576 
L 753.963493 305.679576 
L 758.485334 305.679576 
L 763.007175 305.679576 
L 767.529016 305.679576 
L 772.050857 305.679576 
L 776.572698 305.679576 
L 781.094539 305.679576 
L 785.616379 305.679576 
L 790.13822 305.679576 
L 794.660061 305.679576 
L 799.181902 305.679576 
L 803.703743 305.679576 
L 808.225584 305.679576 
L 812.747425 305.679576 
L 817.269265 305.679576 
L 821.791106 305.679576 
L 826.312947 305.679576 
L 830.834788 305.679576 
L 835.356629 305.679576 
L 839.87847 305.679576 
L 844.400311 305.679576 
L 848.922152 305.679576 
L 853.443992 305.679576 
L 857.965833 305.679576 
L 862.487674 305.679576 
L 867.009515 305.679576 
L 871.531356 305.679576 
L 876.053197 305.679576 
L 880.575038 305.679576 
L 885.096878 305.679576 
L 889.618719 305.679576 
L 894.14056 305.679576 
L 898.662401 305.679576 
L 903.184242 305.679576 
L 907.706083 305.679576 
L 912.227924 305.679576 
L 916.749765 305.679576 
L 921.271605 305.679576 
L 925.793446 305.679576 
L 930.315287 305.679576 
L 934.837128 305.679576 
L 939.358969 305.679576 
L 943.88081 305.679576 
L 948.402651 305.679576 
L 952.924491 305.679576 
L 957.446332 305.679576 
L 961.968173 305.679576 
L 966.490014 305.679576 
L 971.011855 305.679576 
L 975.533696 305.679576 
L 980.055537 305.679576 
L 984.577378 305.679576 
L 989.099218 305.679576 
L 993.621059 305.679576 
L 998.1429 305.679576 
L 1002.664741 305.679576 
L 1007.186582 305.679576 
L 1011.708423 305.679576 
L 1016.230264 305.679576 
L 1020.752104 305.679576 
L 1025.273945 305.679576 
L 1029.795786 305.679576 
L 1034.317627 305.679576 
L 1038.839468 305.679576 
L 1043.361309 305.679576 
L 1047.88315 305.679576 
L 1052.404991 305.679576 
L 1056.926831 305.679576 
L 1061.448672 305.679576 
L 1065.970513 305.679576 
L 1070.492354 305.679576 
L 1075.014195 305.679576 
L 1079.536036 305.679576 
L 1084.057877 305.679576 
L 1088.579717 305.679576 
L 1093.101558 305.679576 
L 1097.623399 305.679576 
L 1102.14524 305.679576 
L 1106.667081 305.679576 
L 1111.188922 305.679576 
L 1115.710763 305.679576 
L 1120.232604 305.679576 
L 1124.754444 305.679576 
L 1129.276285 305.679576 
L 1133.798126 305.679576 
L 1138.319967 305.679576 
L 1142.841808 305.679576 
L 1147.363649 305.679576 
L 1151.88549 305.679576 
L 1156.40733 305.679576 
L 1160.929171 305.679576 
L 1165.451012 305.679576 
L 1169.972853 305.679576 
L 1174.494694 305.679576 
L 1179.016535 305.679576 
L 1183.538376 305.679576 
L 1188.060217 305.679576 
L 1192.582057 305.679576 
L 1197.103898 305.679576 
L 1201.625739 305.679576 
L 1206.14758 305.679576 
L 1210.669421 305.679576 
L 1215.191262 305.679576 
L 1219.713103 305.679576 
L 1224.234943 305.679576 
L 1228.756784 305.679576 
L 1233.278625 305.679576 
L 1237.800466 305.679576 
L 1242.322307 305.679576 
L 1246.844148 305.679576 
L 1251.365989 305.679576 
L 1255.88783 305.679576 
L 1260.40967 305.679576 
L 1264.931511 305.679576 
L 1269.453352 305.679576 
L 1273.975193 305.679576 
L 1278.497034 305.679576 
L 1283.018875 305.679576 
L 1287.540716 305.679576 
L 1292.062556 305.679576 
L 1296.584397 305.679576 
L 1301.106238 305.679576 
L 1305.628079 305.679576 
L 1310.14992 305.679576 
L 1314.671761 305.679576 
L 1319.193602 305.679576 
L 1323.715442 305.679576 
L 1328.237283 305.679576 
L 1332.759124 305.679576 
L 1337.280965 305.679576 
L 1341.802806 305.679576 
L 1346.324647 305.679576 
L 1350.846488 305.679576 
L 1355.368329 305.679576 
L 1359.890169 305.679576 
L 1364.41201 305.679576 
L 1368.933851 305.679576 
L 1373.455692 305.679576 
L 1377.977533 305.679576 
L 1382.499374 305.679576 
L 1387.021215 305.679576 
L 1391.543055 305.679576 
L 1396.064896 305.679576 
L 1400.586737 305.679576 
L 1405.108578 305.679576 
L 1409.630419 305.679576 
L 1414.15226 305.679576 
L 1418.674101 305.679576 
L 1423.195942 305.679576 
L 1427.717782 305.679576 
L 1432.239623 305.679576 
L 1436.761464 305.679576 
L 1441.283305 305.679576 
L 1445.805146 305.679576 
L 1450.326987 305.679576 
L 1454.848828 305.679576 
L 1459.370668 305.679576 
L 1463.892509 305.679576 
L 1468.41435 305.679576 
L 1472.936191 305.679576 
L 1477.458032 305.679576 
L 1481.979873 305.679576 
L 1481.979873 303.775151 
L 1481.979873 301.870727 
L 1481.979873 299.966302 
L 1481.979873 298.061878 
L 1481.979873 296.157453 
L 1481.979873 294.253029 
L 1481.979873 292.348605 
L 1481.979873 290.44418 
L 1481.979873 288.539756 
L 1481.979873 286.635331 
L 1481.979873 284.730907 
L 1481.979873 282.826482 
L 1481.979873 280.922058 
L 1481.979873 279.017633 
L 1481.979873 277.113209 
L 1481.979873 275.208785 
L 1481.979873 273.30436 
L 1481.979873 271.399936 
L 1481.979873 269.495511 
L 1481.979873 267.591087 
L 1481.979873 265.686662 
L 1481.979873 263.782238 
L 1481.979873 261.877814 
L 1481.979873 259.973389 
L 1481.979873 258.068965 
L 1481.979873 256.16454 
L 1481.979873 254.260116 
L 1481.979873 252.355691 
L 1481.979873 250.451267 
L 1481.979873 248.546843 
L 1481.979873 246.642418 
L 1481.979873 244.737994 
L 1481.979873 242.833569 
L 1481.979873 240.929145 
L 1481.979873 239.02472 
L 1481.979873 237.120296 
L 1481.979873 235.215871 
L 1481.979873 233.311447 
L 1481.979873 231.407023 
L 1481.979873 229.502598 
L 1481.979873 227.598174 
L 1481.979873 225.693749 
L 1481.979873 223.789325 
L 1481.979873 221.8849 
L 1481.979873 219.980476 
L 1481.979873 218.076052 
L 1481.979873 216.171627 
L 1481.979873 214.267203 
L 1481.979873 212.362778 
L 1481.979873 210.458354 
L 1481.979873 208.553929 
L 1481.979873 206.649505 
L 1481.979873 204.74508 
L 1481.979873 202.840656 
L 1481.979873 200.936232 
L 1481.979873 199.031807 
L 1481.979873 197.127383 
L 1481.979873 195.222958 
L 1481.979873 193.318534 
L 1481.979873 191.414109 
L 1481.979873 189.509685 
L 1481.979873 187.605261 
L 1481.979873 185.700836 
L 1481.979873 183.796412 
L 1481.979873 181.891987 
L 1481.979873 179.987563 
L 1481.979873 178.083138 
L 1481.979873 176.178714 
L 1481.979873 174.27429 
L 1481.979873 172.369865 
L 1481.979873 170.465441 
L 1481.979873 168.561016 
L 1481.979873 166.656592 
L 1481.979873 164.752167 
L 1481.979873 162.847743 
L 1481.979873 160.943318 
L 1481.979873 159.038894 
L 1481.979873 157.13447 
L 1481.979873 155.230045 
L 1481.979873 153.325621 
L 1481.979873 151.421196 
L 1481.979873 149.516772 
L 1481.979873 147.612347 
L 1481.979873 145.707923 
L 1481.979873 143.803499 
L 1481.979873 141.899074 
L 1481.979873 139.99465 
L 1481.979873 138.090225 
L 1481.979873 136.185801 
L 1481.979873 134.281376 
L 1481.979873 132.376952 
L 1481.979873 130.472528 
L 1481.979873 128.568103 
L 1481.979873 126.663679 
L 1481.979873 124.759254 
L 1481.979873 122.85483 
L 1481.979873 120.950405 
L 1481.979873 119.045981 
L 1481.979873 117.141556 
L 1481.979873 115.237132 
L 1481.979873 113.332708 
L 1481.979873 111.428283 
L 1481.979873 109.523859 
L 1481.979873 107.619434 
L 1481.979873 105.71501 
L 1481.979873 103.810585 
L 1481.979873 101.906161 
L 1481.979873 100.001737 
L 1481.979873 98.097312 
L 1481.979873 96.192888 
L 1481.979873 94.288463 
L 1481.979873 92.384039 
L 1481.979873 90.479614 
L 1481.979873 88.57519 
L 1481.979873 86.670766 
L 1481.979873 84.766341 
L 1481.979873 82.861917 
L 1481.979873 80.957492 
L 1481.979873 79.053068 
L 1481.979873 77.148643 
L 1481.979873 75.244219 
L 1481.979873 73.339794 
L 1481.979873 71.43537 
L 1481.979873 69.530946 
L 1481.979873 67.626521 
L 1481.979873 65.722097 
L 1481.979873 63.817672 
L 1481.979873 61.913248 
L 1481.979873 60.008823 
L 1481.979873 58.104399 
L 1481.979873 56.199975 
L 1481.979873 54.29555 
L 1481.979873 52.391126 
L 1481.979873 50.486701 
L 1481.979873 48.582277 
L 1481.979873 46.677852 
L 1481.979873 44.773428 
L 1481.979873 42.869004 
L 1481.979873 40.964579 
L 1481.979873 39.060155 
L 1481.979873 37.15573 
L 1481.979873 35.251306 
L 1481.979873 33.346881 
L 1481.979873 31.442457 
L 1481.979873 29.538032 
L 1481.979873 27.633608 
L 1481.979873 25.729184 
L 1481.979873 23.824759 
L 1481.979873 21.920335 
L 1481.979873 20.01591 
L 1481.979873 18.111486 
L 1481.979873 16.207061 
L 1481.979873 14.302637 
L 1481.979873 12.398213 
L 1481.979873 10.493788 
L 1481.979873 8.589364 
L 1481.979873 6.684939 
L 1481.979873 4.780515 
L 1481.979873 2.87609 
L 1481.979873 0.971666 
L 1481.979873 -0.932759 
L 1481.979873 -2.837183 
L 1481.979873 -4.741607 
L 1481.979873 -6.646032 
L 1481.979873 -8.550456 
L 1481.979873 -10.454881 
L 1481.979873 -12.359305 
L 1481.979873 -14.26373 
L 1481.979873 -16.168154 
L 1481.979873 -18.072578 
L 1481.979873 -19.977003 
L 1481.979873 -21.881427 
L 1481.979873 -23.785852 
L 1481.979873 -25.690276 
L 1481.979873 -27.594701 
L 1481.979873 -29.499125 
L 1481.979873 -31.403549 
L 1481.979873 -33.307974 
L 1481.979873 -35.212398 
L 1481.979873 -37.116823 
L 1481.979873 -39.021247 
L 1481.979873 -40.925672 
L 1481.979873 -42.830096 
L 1481.979873 -44.734521 
L 1481.979873 -46.638945 
L 1481.979873 -48.543369 
L 1481.979873 -50.447794 
L 1481.979873 -52.352218 
L 1481.979873 -54.256643 
L 1481.979873 -56.161067 
L 1481.979873 -58.065492 
L 1481.979873 -59.969916 
L 1481.979873 -61.87434 
L 1481.979873 -63.778765 
L 1481.979873 -65.683189 
L 1481.979873 -67.587614 
L 1481.979873 -69.492038 
L 1481.979873 -71.396463 
L 1481.979873 -73.300887 
L 1481.979873 -75.205311 
L 1481.979873 -77.109736 
L 1481.979873 -79.01416 
L 1481.979873 -80.918585 
L 1481.979873 -82.823009 
L 1481.979873 -84.727434 
L 1481.979873 -86.631858 
L 1481.979873 -88.536283 
L 1481.979873 -90.440707 
L 1481.979873 -92.345131 
L 1481.979873 -94.249556 
L 1481.979873 -96.15398 
L 1481.979873 -98.058405 
L 1481.979873 -99.962829 
L 1481.979873 -101.867254 
L 1481.979873 -103.771678 
L 1481.979873 -105.676102 
L 1481.979873 -107.580527 
L 1481.979873 -109.484951 
L 1481.979873 -111.389376 
L 1481.979873 -113.2938 
L 1481.979873 -115.198225 
L 1481.979873 -117.102649 
L 1481.979873 -119.007073 
L 1481.979873 -120.911498 
L 1481.979873 -122.815922 
L 1481.979873 -124.720347 
L 1481.979873 -126.624771 
L 1481.979873 -128.529196 
L 1481.979873 -130.43362 
L 1481.979873 -132.338045 
L 1481.979873 -134.242469 
L 1481.979873 -136.146893 
L 1481.979873 -138.051318 
L 1481.979873 -139.955742 
L 1481.979873 -141.860167 
L 1481.979873 -143.764591 
L 1481.979873 -145.669016 
L 1481.979873 -147.57344 
L 1481.979873 -149.477864 
L 1481.979873 -151.382289 
L 1481.979873 -153.286713 
L 1481.979873 -155.191138 
L 1481.979873 -157.095562 
L 1481.979873 -158.999987 
L 1481.979873 -160.904411 
L 1481.979873 -162.808835 
L 1481.979873 -164.71326 
L 1481.979873 -166.617684 
L 1481.979873 -168.522109 
L 1481.979873 -170.426533 
L 1481.979873 -172.330958 
L 1481.979873 -174.235382 
L 1481.979873 -176.139807 
L 1481.979873 -178.044231 
L 1481.979873 -179.948655 
L 1481.979873 -181.85308 
L 1481.979873 -183.757504 
L 1481.979873 -185.661929 
L 1481.979873 -187.566353 
L 1481.979873 -189.470778 
L 1481.979873 -191.375202 
L 1481.979873 -193.279626 
L 1481.979873 -195.184051 
L 1481.979873 -197.088475 
L 1481.979873 -198.9929 
L 1481.979873 -200.897324 
L 1481.979873 -202.801749 
L 1481.979873 -204.706173 
L 1481.979873 -206.610598 
L 1481.979873 -208.515022 
L 1481.979873 -210.419446 
L 1481.979873 -212.323871 
L 1481.979873 -214.228295 
L 1481.979873 -216.13272 
L 1481.979873 -218.037144 
L 1481.979873 -219.941569 
L 1481.979873 -221.845993 
L 1481.979873 -223.750417 
L 1481.979873 -225.654842 
L 1481.979873 -227.559266 
L 1481.979873 -229.463691 
L 1481.979873 -231.368115 
L 1481.979873 -233.27254 
L 1481.979873 -235.176964 
L 1481.979873 -237.081388 
L 1481.979873 -238.985813 
L 1481.979873 -240.890237 
L 1481.979873 -242.794662 
L 1481.979873 -244.699086 
L 1481.979873 -246.603511 
L 1481.979873 -248.507935 
L 1481.979873 -250.41236 
L 1481.979873 -252.316784 
L 1481.979873 -254.221208 
L 1481.979873 -256.125633 
L 1481.979873 -258.030057 
L 1481.979873 -259.934482 
L 1481.979873 -261.838906 
L 1481.979873 -263.743331 
L 1481.979873 -265.647755 
L 1481.979873 -267.552179 
L 1481.979873 -269.456604 
L 1481.979873 -271.361028 
L 1481.979873 -273.265453 
L 1481.979873 -275.169877 
L 1481.979873 -277.074302 
L 1481.979873 -278.978726 
L 1481.979873 -280.88315 
L 1481.979873 -282.787575 
L 1481.979873 -284.691999 
L 1481.979873 -286.596424 
L 1481.979873 -288.500848 
L 1481.979873 -290.405273 
L 1481.979873 -292.309697 
L 1477.458032 -292.309697 
L 1472.936191 -292.309697 
L 1468.41435 -292.309697 
L 1463.892509 -292.309697 
L 1459.370668 -292.309697 
L 1454.848828 -292.309697 
L 1450.326987 -292.309697 
L 1445.805146 -292.309697 
L 1441.283305 -292.309697 
L 1436.761464 -292.309697 
L 1432.239623 -292.309697 
L 1427.717782 -292.309697 
L 1423.195942 -292.309697 
L 1418.674101 -292.309697 
L 1414.15226 -292.309697 
L 1409.630419 -292.309697 
L 1405.108578 -292.309697 
L 1400.586737 -292.309697 
L 1396.064896 -292.309697 
L 1391.543055 -292.309697 
L 1387.021215 -292.309697 
L 1382.499374 -292.309697 
L 1377.977533 -292.309697 
L 1373.455692 -292.309697 
L 1368.933851 -292.309697 
L 1364.41201 -292.309697 
L 1359.890169 -292.309697 
L 1355.368329 -292.309697 
L 1350.846488 -292.309697 
L 1346.324647 -292.309697 
L 1341.802806 -292.309697 
L 1337.280965 -292.309697 
L 1332.759124 -292.309697 
L 1328.237283 -292.309697 
L 1323.715442 -292.309697 
L 1319.193602 -292.309697 
L 1314.671761 -292.309697 
L 1310.14992 -292.309697 
L 1305.628079 -292.309697 
L 1301.106238 -292.309697 
L 1296.584397 -292.309697 
L 1292.062556 -292.309697 
L 1287.540716 -292.309697 
L 1283.018875 -292.309697 
L 1278.497034 -292.309697 
L 1273.975193 -292.309697 
L 1269.453352 -292.309697 
L 1264.931511 -292.309697 
L 1260.40967 -292.309697 
L 1255.88783 -292.309697 
L 1251.365989 -292.309697 
L 1246.844148 -292.309697 
L 1242.322307 -292.309697 
L 1237.800466 -292.309697 
L 1233.278625 -292.309697 
L 1228.756784 -292.309697 
L 1224.234943 -292.309697 
L 1219.713103 -292.309697 
L 1215.191262 -292.309697 
L 1210.669421 -292.309697 
L 1206.14758 -292.309697 
L 1201.625739 -292.309697 
L 1197.103898 -292.309697 
L 1192.582057 -292.309697 
L 1188.060217 -292.309697 
L 1183.538376 -292.309697 
L 1179.016535 -292.309697 
L 1174.494694 -292.309697 
L 1169.972853 -292.309697 
L 1165.451012 -292.309697 
L 1160.929171 -292.309697 
L 1156.40733 -292.309697 
L 1151.88549 -292.309697 
L 1147.363649 -292.309697 
L 1142.841808 -292.309697 
L 1138.319967 -292.309697 
L 1133.798126 -292.309697 
L 1129.276285 -292.309697 
L 1124.754444 -292.309697 
L 1120.232604 -292.309697 
L 1115.710763 -292.309697 
L 1111.188922 -292.309697 
L 1106.667081 -292.309697 
L 1102.14524 -292.309697 
L 1097.623399 -292.309697 
L 1093.101558 -292.309697 
L 1088.579717 -292.309697 
L 1084.057877 -292.309697 
L 1079.536036 -292.309697 
L 1075.014195 -292.309697 
L 1070.492354 -292.309697 
L 1065.970513 -292.309697 
L 1061.448672 -292.309697 
L 1056.926831 -292.309697 
L 1052.404991 -292.309697 
L 1047.88315 -292.309697 
L 1043.361309 -292.309697 
L 1038.839468 -292.309697 
L 1034.317627 -292.309697 
L 1029.795786 -292.309697 
L 1025.273945 -292.309697 
L 1020.752104 -292.309697 
L 1016.230264 -292.309697 
L 1011.708423 -292.309697 
L 1007.186582 -292.309697 
L 1002.664741 -292.309697 
L 998.1429 -292.309697 
L 993.621059 -292.309697 
L 989.099218 -292.309697 
L 984.577378 -292.309697 
L 980.055537 -292.309697 
L 975.533696 -292.309697 
L 971.011855 -292.309697 
L 966.490014 -292.309697 
L 961.968173 -292.309697 
L 957.446332 -292.309697 
L 952.924491 -292.309697 
L 948.402651 -292.309697 
L 943.88081 -292.309697 
L 939.358969 -292.309697 
L 934.837128 -292.309697 
L 930.315287 -292.309697 
L 925.793446 -292.309697 
L 921.271605 -292.309697 
L 916.749765 -292.309697 
L 912.227924 -292.309697 
L 907.706083 -292.309697 
L 903.184242 -292.309697 
L 898.662401 -292.309697 
L 894.14056 -292.309697 
L 889.618719 -292.309697 
L 885.096878 -292.309697 
L 880.575038 -292.309697 
L 876.053197 -292.309697 
L 871.531356 -292.309697 
L 867.009515 -292.309697 
L 862.487674 -292.309697 
L 857.965833 -292.309697 
L 853.443992 -292.309697 
L 848.922152 -292.309697 
L 844.400311 -292.309697 
L 839.87847 -292.309697 
L 835.356629 -292.309697 
L 830.834788 -292.309697 
L 826.312947 -292.309697 
L 821.791106 -292.309697 
L 817.269265 -292.309697 
L 812.747425 -292.309697 
L 808.225584 -292.309697 
L 803.703743 -292.309697 
L 799.181902 -292.309697 
L 794.660061 -292.309697 
L 790.13822 -292.309697 
L 785.616379 -292.309697 
L 781.094539 -292.309697 
L 776.572698 -292.309697 
L 772.050857 -292.309697 
L 767.529016 -292.309697 
L 763.007175 -292.309697 
L 758.485334 -292.309697 
L 753.963493 -292.309697 
L 749.441653 -292.309697 
L 744.919812 -292.309697 
L 740.397971 -292.309697 
L 735.87613 -292.309697 
L 731.354289 -292.309697 
L 726.832448 -292.309697 
L 722.310607 -292.309697 
L 717.788766 -292.309697 
L 713.266926 -292.309697 
L 708.745085 -292.309697 
L 704.223244 -292.309697 
L 699.701403 -292.309697 
L 695.179562 -292.309697 
L 690.657721 -292.309697 
L 686.13588 -292.309697 
L 681.61404 -292.309697 
L 677.092199 -292.309697 
L 672.570358 -292.309697 
L 668.048517 -292.309697 
L 663.526676 -292.309697 
L 659.004835 -292.309697 
L 654.482994 -292.309697 
L 649.961153 -292.309697 
L 645.439313 -292.309697 
L 640.917472 -292.309697 
L 636.395631 -292.309697 
L 631.87379 -292.309697 
L 627.351949 -292.309697 
L 622.830108 -292.309697 
L 618.308267 -292.309697 
L 613.786427 -292.309697 
L 609.264586 -292.309697 
L 604.742745 -292.309697 
L 600.220904 -292.309697 
L 595.699063 -292.309697 
L 591.177222 -292.309697 
L 586.655381 -292.309697 
L 582.13354 -292.309697 
L 577.6117 -292.309697 
L 573.089859 -292.309697 
L 568.568018 -292.309697 
L 564.046177 -292.309697 
L 559.524336 -292.309697 
L 555.002495 -292.309697 
L 550.480654 -292.309697 
L 545.958814 -292.309697 
L 541.436973 -292.309697 
L 536.915132 -292.309697 
L 532.393291 -292.309697 
L 527.87145 -292.309697 
L 523.349609 -292.309697 
L 518.827768 -292.309697 
L 514.305927 -292.309697 
L 509.784087 -292.309697 
L 505.262246 -292.309697 
L 500.740405 -292.309697 
L 496.218564 -292.309697 
L 491.696723 -292.309697 
L 487.174882 -292.309697 
L 482.653041 -292.309697 
L 478.131201 -292.309697 
L 473.60936 -292.309697 
L 469.087519 -292.309697 
L 464.565678 -292.309697 
L 460.043837 -292.309697 
L 455.521996 -292.309697 
L 451.000155 -292.309697 
L 446.478314 -292.309697 
L 441.956474 -292.309697 
L 437.434633 -292.309697 
L 432.912792 -292.309697 
L 428.390951 -292.309697 
L 423.86911 -292.309697 
L 419.347269 -292.309697 
L 414.825428 -292.309697 
L 410.303588 -292.309697 
L 405.781747 -292.309697 
L 401.259906 -292.309697 
L 396.738065 -292.309697 
L 392.216224 -292.309697 
L 387.694383 -292.309697 
L 383.172542 -292.309697 
L 378.650701 -292.309697 
L 374.128861 -292.309697 
L 369.60702 -292.309697 
L 365.085179 -292.309697 
L 360.563338 -292.309697 
L 356.041497 -292.309697 
L 351.519656 -292.309697 
L 346.997815 -292.309697 
L 342.475975 -292.309697 
L 337.954134 -292.309697 
L 333.432293 -292.309697 
L 328.910452 -292.309697 
L 324.388611 -292.309697 
L 319.86677 -292.309697 
L 315.344929 -292.309697 
L 310.823088 -292.309697 
L 306.301248 -292.309697 
L 301.779407 -292.309697 
L 297.257566 -292.309697 
L 292.735725 -292.309697 
L 288.213884 -292.309697 
L 283.692043 -292.309697 
L 279.170202 -292.309697 
L 274.648362 -292.309697 
L 270.126521 -292.309697 
L 265.60468 -292.309697 
L 261.082839 -292.309697 
L 256.560998 -292.309697 
L 252.039157 -292.309697 
L 247.517316 -292.309697 
L 242.995476 -292.309697 
L 238.473635 -292.309697 
L 233.951794 -292.309697 
L 229.429953 -292.309697 
L 224.908112 -292.309697 
L 220.386271 -292.309697 
L 215.86443 -292.309697 
L 211.342589 -292.309697 
L 206.820749 -292.309697 
L 202.298908 -292.309697 
L 197.777067 -292.309697 
L 193.255226 -292.309697 
L 188.733385 -292.309697 
L 184.211544 -292.309697 
L 179.689703 -292.309697 
L 175.167863 -292.309697 
L 170.646022 -292.309697 
L 166.124181 -292.309697 
L 161.60234 -292.309697 
L 157.080499 -292.309697 
L 152.558658 -292.309697 
L 148.036817 -292.309697 
L 143.514976 -292.309697 
L 138.993136 -292.309697 
L 134.471295 -292.309697 
L 129.949454 -292.309697 
L 125.427613 -292.309697 
L 120.905772 -292.309697 
L 116.383931 -292.309697 
L 111.86209 -292.309697 
L 107.34025 -292.309697 
L 102.818409 -292.309697 
L 98.296568 -292.309697 
L 93.774727 -292.309697 
L 89.252886 -292.309697 
L 84.731045 -292.309697 
L 80.209204 -292.309697 
L 75.687363 -292.309697 
L 71.165523 -292.309697 
L 66.643682 -292.309697 
L 62.121841 -292.309697 
L 62.121841 -290.405273 
L 62.121841 -288.500848 
L 62.121841 -286.596424 
L 62.121841 -284.691999 
L 62.121841 -282.787575 
L 62.121841 -280.88315 
L 62.121841 -278.978726 
L 62.121841 -277.074302 
L 62.121841 -275.169877 
L 62.121841 -273.265453 
L 62.121841 -271.361028 
L 62.121841 -269.456604 
L 62.121841 -267.552179 
L 62.121841 -265.647755 
L 62.121841 -263.743331 
L 62.121841 -261.838906 
L 62.121841 -259.934482 
L 62.121841 -258.030057 
L 62.121841 -256.125633 
L 62.121841 -254.221208 
L 62.121841 -252.316784 
L 62.121841 -250.41236 
L 62.121841 -248.507935 
L 62.121841 -246.603511 
L 62.121841 -244.699086 
L 62.121841 -242.794662 
L 62.121841 -240.890237 
L 62.121841 -238.985813 
L 62.121841 -237.081388 
L 62.121841 -235.176964 
L 62.121841 -233.27254 
L 62.121841 -231.368115 
L 62.121841 -229.463691 
L 62.121841 -227.559266 
L 62.121841 -225.654842 
L 62.121841 -223.750417 
L 62.121841 -221.845993 
L 62.121841 -219.941569 
L 62.121841 -218.037144 
L 62.121841 -216.13272 
L 62.121841 -214.228295 
L 62.121841 -212.323871 
L 62.121841 -210.419446 
L 62.121841 -208.515022 
L 62.121841 -206.610598 
L 62.121841 -204.706173 
L 62.121841 -202.801749 
L 62.121841 -200.897324 
L 62.121841 -198.9929 
L 62.121841 -197.088475 
L 62.121841 -195.184051 
L 62.121841 -193.279626 
L 62.121841 -191.375202 
L 62.121841 -189.470778 
L 62.121841 -187.566353 
L 62.121841 -185.661929 
L 62.121841 -183.757504 
L 62.121841 -181.85308 
L 62.121841 -179.948655 
L 62.121841 -178.044231 
L 62.121841 -176.139807 
L 62.121841 -174.235382 
L 62.121841 -172.330958 
L 62.121841 -170.426533 
L 62.121841 -168.522109 
L 62.121841 -166.617684 
L 62.121841 -164.71326 
L 62.121841 -162.808835 
L 62.121841 -160.904411 
L 62.121841 -158.999987 
L 62.121841 -157.095562 
L 62.121841 -155.191138 
L 62.121841 -153.286713 
L 62.121841 -151.382289 
L 62.121841 -149.477864 
L 62.121841 -147.57344 
L 62.121841 -145.669016 
L 62.121841 -143.764591 
L 62.121841 -141.860167 
L 62.121841 -139.955742 
L 62.121841 -138.051318 
L 62.121841 -136.146893 
L 62.121841 -134.242469 
L 62.121841 -132.338045 
L 62.121841 -130.43362 
L 62.121841 -128.529196 
L 62.121841 -126.624771 
L 62.121841 -124.720347 
L 62.121841 -122.815922 
L 62.121841 -120.911498 
L 62.121841 -119.007073 
L 62.121841 -117.102649 
L 62.121841 -115.198225 
L 62.121841 -113.2938 
L 62.121841 -111.389376 
L 62.121841 -109.484951 
L 62.121841 -107.580527 
L 62.121841 -105.676102 
L 62.121841 -103.771678 
L 62.121841 -101.867254 
L 62.121841 -99.962829 
L 62.121841 -98.058405 
L 62.121841 -96.15398 
L 62.121841 -94.249556 
L 62.121841 -92.345131 
L 62.121841 -90.440707 
L 62.121841 -88.536283 
L 62.121841 -86.631858 
L 62.121841 -84.727434 
L 62.121841 -82.823009 
L 62.121841 -80.918585 
L 62.121841 -79.01416 
L 62.121841 -77.109736 
L 62.121841 -75.205311 
L 62.121841 -73.300887 
L 62.121841 -71.396463 
L 62.121841 -69.492038 
L 62.121841 -67.587614 
L 62.121841 -65.683189 
L 62.121841 -63.778765 
L 62.121841 -61.87434 
L 62.121841 -59.969916 
L 62.121841 -58.065492 
L 62.121841 -56.161067 
L 62.121841 -54.256643 
L 62.121841 -52.352218 
L 62.121841 -50.447794 
L 62.121841 -48.543369 
L 62.121841 -46.638945 
L 62.121841 -44.734521 
L 62.121841 -42.830096 
L 62.121841 -40.925672 
L 62.121841 -39.021247 
L 62.121841 -37.116823 
L 62.121841 -35.212398 
L 62.121841 -33.307974 
L 62.121841 -31.403549 
L 62.121841 -29.499125 
L 62.121841 -27.594701 
L 62.121841 -25.690276 
L 62.121841 -23.785852 
L 62.121841 -21.881427 
L 62.121841 -19.977003 
L 62.121841 -18.072578 
L 62.121841 -16.168154 
L 62.121841 -14.26373 
L 62.121841 -12.359305 
L 62.121841 -10.454881 
L 62.121841 -8.550456 
L 62.121841 -6.646032 
L 62.121841 -4.741607 
L 62.121841 -2.837183 
L 62.121841 -0.932759 
L 62.121841 0.971666 
L 62.121841 2.87609 
L 62.121841 4.780515 
L 62.121841 6.684939 
L 62.121841 8.589364 
L 62.121841 10.493788 
L 62.121841 12.398213 
L 62.121841 14.302637 
L 62.121841 16.207061 
L 62.121841 18.111486 
L 62.121841 20.01591 
L 62.121841 21.920335 
L 62.121841 23.824759 
L 62.121841 25.729184 
L 62.121841 27.633608 
L 62.121841 29.538032 
L 62.121841 31.442457 
L 62.121841 33.346881 
L 62.121841 35.251306 
L 62.121841 37.15573 
L 62.121841 39.060155 
L 62.121841 40.964579 
L 62.121841 42.869004 
L 62.121841 44.773428 
L 62.121841 46.677852 
L 62.121841 48.582277 
L 62.121841 50.486701 
L 62.121841 52.391126 
L 62.121841 54.29555 
L 62.121841 56.199975 
L 62.121841 58.104399 
L 62.121841 60.008823 
L 62.121841 61.913248 
L 62.121841 63.817672 
L 62.121841 65.722097 
L 62.121841 67.626521 
L 62.121841 69.530946 
L 62.121841 71.43537 
L 62.121841 73.339794 
L 62.121841 75.244219 
L 62.121841 77.148643 
L 62.121841 79.053068 
L 62.121841 80.957492 
L 62.121841 82.861917 
L 62.121841 84.766341 
L 62.121841 86.670766 
L 62.121841 88.57519 
L 62.121841 90.479614 
L 62.121841 92.384039 
L 62.121841 94.288463 
L 62.121841 96.192888 
L 62.121841 98.097312 
L 62.121841 100.001737 
L 62.121841 101.906161 
L 62.121841 103.810585 
L 62.121841 105.71501 
L 62.121841 107.619434 
L 62.121841 109.523859 
L 62.121841 111.428283 
L 62.121841 113.332708 
L 62.121841 115.237132 
L 62.121841 117.141556 
L 62.121841 119.045981 
L 62.121841 120.950405 
L 62.121841 122.85483 
L 62.121841 124.759254 
L 62.121841 126.663679 
L 62.121841 128.568103 
L 62.121841 130.472528 
L 62.121841 132.376952 
L 62.121841 134.281376 
L 62.121841 136.185801 
L 62.121841 138.090225 
L 62.121841 139.99465 
L 62.121841 141.899074 
L 62.121841 143.803499 
L 62.121841 145.707923 
L 62.121841 147.612347 
L 62.121841 149.516772 
L 62.121841 151.421196 
L 62.121841 153.325621 
L 62.121841 155.230045 
L 62.121841 157.13447 
L 62.121841 159.038894 
L 62.121841 160.943318 
L 62.121841 162.847743 
L 62.121841 164.752167 
L 62.121841 166.656592 
L 62.121841 168.561016 
L 62.121841 170.465441 
L 62.121841 172.369865 
L 62.121841 174.27429 
L 62.121841 176.178714 
L 62.121841 178.083138 
L 62.121841 179.987563 
L 62.121841 181.891987 
L 62.121841 183.796412 
L 62.121841 185.700836 
L 62.121841 187.605261 
L 62.121841 189.509685 
L 62.121841 191.414109 
L 62.121841 193.318534 
L 62.121841 195.222958 
L 62.121841 197.127383 
L 62.121841 199.031807 
L 62.121841 200.936232 
L 62.121841 202.840656 
L 62.121841 204.74508 
L 62.121841 206.649505 
L 62.121841 208.553929 
L 62.121841 210.458354 
L 62.121841 212.362778 
L 62.121841 214.267203 
L 62.121841 216.171627 
L 62.121841 218.076052 
L 62.121841 219.980476 
L 62.121841 221.8849 
L 62.121841 223.789325 
L 62.121841 225.693749 
L 62.121841 227.598174 
L 62.121841 229.502598 
L 62.121841 231.407023 
L 62.121841 233.311447 
L 62.121841 235.215871 
L 62.121841 237.120296 
L 62.121841 239.02472 
L 62.121841 240.929145 
L 62.121841 242.833569 
L 62.121841 244.737994 
L 62.121841 246.642418 
L 62.121841 248.546843 
L 62.121841 249.132452 
L 66.643682 249.425257 
L 68.383785 250.451267 
L 69.350509 252.355691 
L 66.643682 253.381701 
L 62.121841 252.503287 
L 62.121841 254.260116 
L 62.121841 256.16454 
L 62.121841 258.068965 
L 62.121841 259.973389 
L 62.121841 261.877814 
L 62.121841 263.782238 
L 62.121841 265.686662 
L 62.121841 267.591087 
L 62.121841 269.495511 
L 62.121841 271.399936 
L 62.121841 273.30436 
L 62.121841 275.208785 
L 62.121841 277.113209 
L 62.121841 279.017633 
L 62.121841 279.839831 
L 65.158671 280.922058 
L 62.121841 282.680676 
L 62.121841 282.826482 
L 62.121841 284.730907 
L 62.121841 286.635331 
L 62.121841 288.416759 
L 62.559902 288.539756 
L 62.121841 288.908744 
L 62.121841 290.44418 
L 62.121841 292.348605 
L 62.121841 294.253029 
L 62.121841 296.157453 
L 62.121841 297.22631 
L 63.444481 298.061878 
L 63.444481 299.966302 
L 62.267861 301.870727 
L 62.121841 301.993723 
L 62.121841 303.775151 
L 62.121841 305.679576 
z
M 260.498757 303.775151 
L 261.082839 303.713653 
L 265.60468 302.993543 
L 270.126521 302.976482 
L 274.340629 303.775151 
L 270.126521 304.57382 
L 265.60468 304.515622 
L 261.082839 303.836649 
z
M 87.378928 269.495511 
L 89.252886 267.785495 
L 91.467563 269.495511 
L 89.252886 270.35052 
z
M 75.437043 259.973389 
L 75.687363 259.881142 
L 76.563486 259.973389 
L 75.687363 260.219382 
z
M 83.854923 259.973389 
L 80.209204 259.461577 
L 78.555904 258.068965 
L 79.009657 256.16454 
L 80.209204 254.648931 
L 81.132403 254.260116 
L 80.209204 254.143471 
L 76.943911 252.355691 
L 75.687363 250.635761 
L 75.49267 250.451267 
L 74.337873 248.546843 
L 75.687363 247.897296 
L 77.773059 246.642418 
L 79.771143 244.737994 
L 80.209204 244.492001 
L 80.459525 244.737994 
L 84.731045 246.312118 
L 86.299567 246.642418 
L 86.945722 248.546843 
L 89.252886 250.328271 
L 90.944806 248.546843 
L 90.1616 246.642418 
L 90.164316 244.737994 
L 91.246262 242.833569 
L 93.774727 241.893959 
L 96.208747 240.929145 
L 98.296568 239.650149 
L 100.866193 240.929145 
L 98.296568 242.33604 
L 97.222633 242.833569 
L 98.296568 243.38638 
L 102.818409 243.263552 
L 106.902188 242.833569 
L 107.34025 242.710573 
L 108.216372 242.833569 
L 111.86209 243.447743 
L 112.903724 242.833569 
L 111.86209 242.321757 
L 109.87813 240.929145 
L 110.985968 239.02472 
L 111.86209 238.778728 
L 112.446172 239.02472 
L 116.383931 239.853936 
L 120.905772 240.400664 
L 125.427613 239.413536 
L 129.949454 239.439328 
L 134.471295 240.551659 
L 138.096838 239.02472 
L 138.993136 238.647234 
L 139.777396 239.02472 
L 139.869258 240.929145 
L 143.514976 241.696863 
L 148.036817 242.328366 
L 150.735799 242.833569 
L 152.558658 243.140656 
L 154.989137 242.833569 
L 152.558658 241.809945 
L 151.774397 240.929145 
L 152.558658 240.048344 
L 157.080499 239.219128 
L 158.003698 239.02472 
L 161.60234 238.570038 
L 162.583788 239.02472 
L 163.354585 240.929145 
L 161.60234 241.07674 
L 158.12618 242.833569 
L 161.25614 244.737994 
L 161.60234 244.835198 
L 161.910073 244.737994 
L 164.581906 242.833569 
L 166.124181 241.31796 
L 168.893777 240.929145 
L 170.646022 240.823719 
L 171.522144 240.929145 
L 175.167863 241.696863 
L 177.866844 242.833569 
L 179.689703 243.447743 
L 183.335422 242.833569 
L 184.211544 242.710573 
L 188.733385 242.075765 
L 190.27566 242.833569 
L 193.255226 243.509273 
L 197.426618 242.833569 
L 197.777067 242.685974 
L 202.298908 241.099749 
L 204.121767 240.929145 
L 206.820749 239.792438 
L 211.342589 239.692756 
L 214.51494 239.02472 
L 215.57239 237.120296 
L 215.86443 237.046498 
L 220.386271 237.028049 
L 224.908112 235.845521 
L 229.429953 235.841301 
L 231.471843 235.215871 
L 233.951794 234.619038 
L 237.573974 233.311447 
L 238.473635 232.856764 
L 242.776445 231.407023 
L 242.995476 231.301597 
L 247.517316 231.029537 
L 251.142859 229.502598 
L 252.039157 229.282398 
L 256.560998 229.435509 
L 261.082839 228.762127 
L 265.60468 228.826791 
L 267.303697 229.502598 
L 270.126521 229.713126 
L 274.648362 229.727281 
L 279.170202 229.994045 
L 283.363897 231.407023 
L 283.692043 231.43933 
L 288.213884 231.722815 
L 292.735725 232.412255 
L 295.207865 233.311447 
L 297.257566 233.675932 
L 301.779407 234.693642 
L 303.196522 235.215871 
L 306.301248 236.741394 
L 307.131704 237.120296 
L 306.301248 237.769843 
L 301.779407 238.75096 
L 300.711527 239.02472 
L 297.257566 240.533272 
L 295.142666 240.929145 
L 292.735725 241.798039 
L 288.213884 241.861881 
L 286.098984 242.833569 
L 283.692043 243.549129 
L 279.170202 244.144184 
L 274.648362 244.610041 
L 273.190074 244.737994 
L 270.126521 245.383119 
L 267.136457 246.642418 
L 265.60468 247.180022 
L 262.35932 248.546843 
L 261.082839 249.043093 
L 259.168118 248.546843 
L 256.560998 248.208991 
L 254.822918 248.546843 
L 252.039157 250.110059 
L 247.517316 250.068552 
L 245.548437 250.451267 
L 242.995476 251.096392 
L 238.723955 252.355691 
L 238.473635 252.503287 
L 233.951794 252.952525 
L 229.429953 254.026826 
L 229.034296 254.260116 
L 224.908112 255.365982 
L 220.386271 255.59123 
L 218.752759 256.16454 
L 215.86443 257.380993 
L 211.342589 257.092949 
L 208.363024 258.068965 
L 206.820749 259.584574 
L 202.298908 259.343739 
L 197.777067 259.641703 
L 193.255226 259.410833 
L 191.669051 259.973389 
L 188.733385 261.495099 
L 184.211544 260.669695 
L 179.689703 261.145802 
L 175.514062 259.973389 
L 175.167863 259.915067 
L 174.772206 259.973389 
L 170.646022 261.325003 
L 166.124181 261.809199 
L 161.60234 261.189842 
L 157.080499 261.292204 
L 152.558658 261.189842 
L 148.036817 261.1134 
L 143.514976 260.657396 
L 138.993136 260.906125 
L 134.471295 260.706253 
L 130.411053 259.973389 
L 129.949454 259.681777 
L 127.179858 259.973389 
L 125.427613 260.040478 
L 124.843531 259.973389 
L 120.905772 259.52109 
L 116.383931 259.34796 
L 112.20829 258.068965 
L 113.22335 256.16454 
L 111.86209 255.59123 
L 110.228579 256.16454 
L 111.631291 258.068965 
L 107.34025 259.876185 
L 102.818409 258.97833 
L 99.865089 259.973389 
L 98.296568 260.303689 
L 96.205206 259.973389 
L 97.712486 258.068965 
L 98.296568 257.822972 
L 99.984179 256.16454 
L 98.296568 255.61173 
L 94.170384 254.260116 
L 94.08246 252.355691 
L 93.774727 251.772468 
L 93.428527 252.355691 
L 92.851528 254.260116 
L 89.252886 255.169481 
L 86.89023 256.16454 
L 84.731045 257.073906 
L 83.043434 258.068965 
L 84.731045 259.727397 
L 84.950076 259.973389 
L 84.731045 260.342378 
z
M 75.512139 240.929145 
L 75.687363 240.74465 
L 75.937684 240.929145 
L 75.687363 241.175137 
z
M 101.563592 239.02472 
L 102.818409 238.36412 
L 104.909771 239.02472 
L 102.818409 239.402206 
z
M 151.512977 237.120296 
L 152.558658 236.880078 
L 153.342919 237.120296 
L 152.558658 238.001097 
z
M 111.278009 235.215871 
L 111.86209 235.031377 
L 116.383931 234.477894 
L 117.260054 235.215871 
L 116.383931 235.400366 
L 111.86209 235.461864 
z
M 123.336251 235.215871 
L 125.427613 234.555271 
L 126.323911 235.215871 
L 125.427613 235.656272 
z
M 114.39997 231.407023 
L 116.383931 230.764278 
L 117.910055 231.407023 
L 116.383931 233.078158 
z
" style="fill:#ffffff;"/>
    <path clip-path="url(#p9d0565b21f)" d="M 107.34025 246.836826 
L 107.571049 246.642418 
L 107.34025 246.545214 
L 106.87865 246.642418 
z
" style="fill:#ffffff;"/>
    <path clip-path="url(#p9d0565b21f)" d="M 134.471295 244.815757 
L 135.025214 244.737994 
L 134.471295 244.504704 
L 134.125095 244.737994 
z
" style="fill:#ffffff;"/>
    <path clip-path="url(#p9d0565b21f)" d="M 148.036817 245.505711 
L 148.765961 244.737994 
L 148.036817 243.970276 
L 147.373959 244.737994 
z
" style="fill:#ffffff;"/>
    <path clip-path="url(#p9d0565b21f)" d="M 138.993136 243.066859 
L 139.916334 242.833569 
L 138.993136 241.667122 
L 138.439216 242.833569 
z
" style="fill:#ffffff;"/>
   </g>
   <g id="PathCollection_3">
    <path clip-path="url(#p9d0565b21f)" d="M 261.082839 303.836649 
L 265.60468 304.515622 
L 270.126521 304.57382 
L 274.340629 303.775151 
L 270.126521 302.976482 
L 265.60468 302.993543 
L 261.082839 303.713653 
L 260.498757 303.775151 
z
" style="fill:#f0f0f0;"/>
    <path clip-path="url(#p9d0565b21f)" d="M 62.267861 301.870727 
L 63.444481 299.966302 
L 63.444481 298.061878 
L 62.121841 297.22631 
L 62.121841 298.061878 
L 62.121841 299.966302 
L 62.121841 301.870727 
L 62.121841 301.993723 
z
" style="fill:#f0f0f0;"/>
    <path clip-path="url(#p9d0565b21f)" d="M 62.559902 288.539756 
L 62.121841 288.416759 
L 62.121841 288.539756 
L 62.121841 288.908744 
z
" style="fill:#f0f0f0;"/>
    <path clip-path="url(#p9d0565b21f)" d="M 65.158671 280.922058 
L 62.121841 279.839831 
L 62.121841 280.922058 
L 62.121841 282.680676 
z
" style="fill:#f0f0f0;"/>
    <path clip-path="url(#p9d0565b21f)" d="M 89.252886 270.35052 
L 91.467563 269.495511 
L 89.252886 267.785495 
L 87.378928 269.495511 
z
" style="fill:#f0f0f0;"/>
    <path clip-path="url(#p9d0565b21f)" d="M 75.687363 260.219382 
L 76.563486 259.973389 
L 75.687363 259.881142 
L 75.437043 259.973389 
z
" style="fill:#f0f0f0;"/>
    <path clip-path="url(#p9d0565b21f)" d="M 84.731045 260.342378 
L 84.950076 259.973389 
L 84.731045 259.727397 
L 83.043434 258.068965 
L 84.731045 257.073906 
L 86.89023 256.16454 
L 89.252886 255.169481 
L 92.851528 254.260116 
L 93.428527 252.355691 
L 93.774727 251.772468 
L 94.08246 252.355691 
L 94.170384 254.260116 
L 98.296568 255.61173 
L 99.984179 256.16454 
L 98.296568 257.822972 
L 97.712486 258.068965 
L 96.205206 259.973389 
L 98.296568 260.303689 
L 99.865089 259.973389 
L 102.818409 258.97833 
L 107.34025 259.876185 
L 111.631291 258.068965 
L 110.228579 256.16454 
L 111.86209 255.59123 
L 113.22335 256.16454 
L 112.20829 258.068965 
L 116.383931 259.34796 
L 120.905772 259.52109 
L 124.843531 259.973389 
L 125.427613 260.040478 
L 127.179858 259.973389 
L 129.949454 259.681777 
L 130.411053 259.973389 
L 134.471295 260.706253 
L 138.993136 260.906125 
L 143.514976 260.657396 
L 148.036817 261.1134 
L 152.558658 261.189842 
L 157.080499 261.292204 
L 161.60234 261.189842 
L 166.124181 261.809199 
L 170.646022 261.325003 
L 174.772206 259.973389 
L 175.167863 259.915067 
L 175.514062 259.973389 
L 179.689703 261.145802 
L 184.211544 260.669695 
L 188.733385 261.495099 
L 191.669051 259.973389 
L 193.255226 259.410833 
L 197.777067 259.641703 
L 202.298908 259.343739 
L 206.820749 259.584574 
L 208.363024 258.068965 
L 211.342589 257.092949 
L 215.86443 257.380993 
L 218.752759 256.16454 
L 220.386271 255.59123 
L 224.908112 255.365982 
L 229.034296 254.260116 
L 229.429953 254.026826 
L 233.951794 252.952525 
L 238.473635 252.503287 
L 238.723955 252.355691 
L 242.995476 251.096392 
L 245.548437 250.451267 
L 247.517316 250.068552 
L 252.039157 250.110059 
L 254.822918 248.546843 
L 256.560998 248.208991 
L 259.168118 248.546843 
L 261.082839 249.043093 
L 262.35932 248.546843 
L 265.60468 247.180022 
L 267.136457 246.642418 
L 270.126521 245.383119 
L 273.190074 244.737994 
L 274.648362 244.610041 
L 279.170202 244.144184 
L 283.692043 243.549129 
L 286.098984 242.833569 
L 288.213884 241.861881 
L 292.735725 241.798039 
L 295.142666 240.929145 
L 297.257566 240.533272 
L 300.711527 239.02472 
L 301.779407 238.75096 
L 306.301248 237.769843 
L 307.131704 237.120296 
L 306.301248 236.741394 
L 303.196522 235.215871 
L 301.779407 234.693642 
L 297.257566 233.675932 
L 295.207865 233.311447 
L 292.735725 232.412255 
L 288.213884 231.722815 
L 283.692043 231.43933 
L 283.363897 231.407023 
L 279.170202 229.994045 
L 274.648362 229.727281 
L 270.126521 229.713126 
L 267.303697 229.502598 
L 265.60468 228.826791 
L 261.082839 228.762127 
L 256.560998 229.435509 
L 252.039157 229.282398 
L 251.142859 229.502598 
L 247.517316 231.029537 
L 242.995476 231.301597 
L 242.776445 231.407023 
L 238.473635 232.856764 
L 237.573974 233.311447 
L 233.951794 234.619038 
L 231.471843 235.215871 
L 229.429953 235.841301 
L 224.908112 235.845521 
L 220.386271 237.028049 
L 215.86443 237.046498 
L 215.57239 237.120296 
L 214.51494 239.02472 
L 211.342589 239.692756 
L 206.820749 239.792438 
L 204.121767 240.929145 
L 202.298908 241.099749 
L 197.777067 242.685974 
L 197.426618 242.833569 
L 193.255226 243.509273 
L 190.27566 242.833569 
L 188.733385 242.075765 
L 184.211544 242.710573 
L 183.335422 242.833569 
L 179.689703 243.447743 
L 177.866844 242.833569 
L 175.167863 241.696863 
L 171.522144 240.929145 
L 170.646022 240.823719 
L 168.893777 240.929145 
L 166.124181 241.31796 
L 164.581906 242.833569 
L 161.910073 244.737994 
L 161.60234 244.835198 
L 161.25614 244.737994 
L 158.12618 242.833569 
L 161.60234 241.07674 
L 163.354585 240.929145 
L 162.583788 239.02472 
L 161.60234 238.570038 
L 158.003698 239.02472 
L 157.080499 239.219128 
L 152.558658 240.048344 
L 151.774397 240.929145 
L 152.558658 241.809945 
L 154.989137 242.833569 
L 152.558658 243.140656 
L 150.735799 242.833569 
L 148.036817 242.328366 
L 143.514976 241.696863 
L 139.869258 240.929145 
L 139.777396 239.02472 
L 138.993136 238.647234 
L 138.096838 239.02472 
L 134.471295 240.551659 
L 129.949454 239.439328 
L 125.427613 239.413536 
L 120.905772 240.400664 
L 116.383931 239.853936 
L 112.446172 239.02472 
L 111.86209 238.778728 
L 110.985968 239.02472 
L 109.87813 240.929145 
L 111.86209 242.321757 
L 112.903724 242.833569 
L 111.86209 243.447743 
L 108.216372 242.833569 
L 107.34025 242.710573 
L 106.902188 242.833569 
L 102.818409 243.263552 
L 98.296568 243.38638 
L 97.222633 242.833569 
L 98.296568 242.33604 
L 100.866193 240.929145 
L 98.296568 239.650149 
L 96.208747 240.929145 
L 93.774727 241.893959 
L 91.246262 242.833569 
L 90.164316 244.737994 
L 90.1616 246.642418 
L 90.944806 248.546843 
L 89.252886 250.328271 
L 86.945722 248.546843 
L 86.299567 246.642418 
L 84.731045 246.312118 
L 80.459525 244.737994 
L 80.209204 244.492001 
L 79.771143 244.737994 
L 77.773059 246.642418 
L 75.687363 247.897296 
L 74.337873 248.546843 
L 75.49267 250.451267 
L 75.687363 250.635761 
L 76.943911 252.355691 
L 80.209204 254.143471 
L 81.132403 254.260116 
L 80.209204 254.648931 
L 79.009657 256.16454 
L 78.555904 258.068965 
L 80.209204 259.461577 
L 83.854923 259.973389 
z
M 137.264535 256.16454 
L 138.993136 255.436521 
L 139.980907 256.16454 
L 138.993136 256.281023 
z
M 149.145337 256.16454 
L 148.036817 255.999764 
L 143.514976 255.006886 
L 140.855296 254.260116 
L 141.23525 252.355691 
L 138.993136 250.70318 
L 134.471295 251.529436 
L 132.195748 250.451267 
L 134.471295 249.667144 
L 138.993136 250.115382 
L 143.514976 249.840274 
L 146.174657 250.451267 
L 148.036817 251.123498 
L 149.898978 250.451267 
L 152.558658 249.89119 
L 155.750659 248.546843 
L 157.080499 248.126785 
L 158.077879 248.546843 
L 161.252281 250.451267 
L 161.60234 250.626342 
L 162.1566 250.451267 
L 165.126801 248.546843 
L 166.124181 248.241346 
L 168.118941 248.546843 
L 170.646022 248.901612 
L 172.892315 248.546843 
L 175.167863 247.76272 
L 179.689703 248.108979 
L 184.211544 248.345312 
L 188.733385 247.544248 
L 190.595379 246.642418 
L 193.255226 245.753964 
L 197.777067 245.599203 
L 202.139404 244.737994 
L 202.298908 244.612037 
L 206.820749 243.546188 
L 211.342589 243.426392 
L 212.593781 242.833569 
L 215.86443 241.505294 
L 219.056431 240.929145 
L 220.386271 240.369067 
L 224.908112 240.115948 
L 227.499108 239.02472 
L 229.429953 238.240566 
L 232.409102 237.120296 
L 233.951794 236.540187 
L 238.473635 235.955249 
L 241.512118 235.215871 
L 242.995476 234.477551 
L 246.041136 233.311447 
L 247.517316 232.882681 
L 251.581708 231.407023 
L 252.039157 231.214362 
L 256.560998 230.362185 
L 261.082839 229.836296 
L 265.60468 229.894033 
L 270.126521 230.186423 
L 274.648362 230.349699 
L 279.170202 231.003745 
L 280.367123 231.407023 
L 283.692043 231.734372 
L 288.213884 232.43276 
L 291.319139 233.311447 
L 292.735725 233.520018 
L 297.257566 234.685633 
L 299.028024 235.215871 
L 301.779407 236.275324 
L 303.677249 237.120296 
L 301.779407 237.763209 
L 297.257566 238.915287 
L 296.241842 239.02472 
L 292.735725 239.649453 
L 288.213884 240.180711 
L 283.692043 240.453995 
L 281.767483 240.929145 
L 279.170202 242.128878 
L 274.648362 242.700179 
L 274.298303 242.833569 
L 270.126521 243.712066 
L 265.60468 244.205178 
L 263.134702 244.737994 
L 261.082839 245.386118 
L 256.560998 246.214634 
L 252.039157 246.301839 
L 250.975123 246.642418 
L 247.517316 247.630618 
L 242.995476 248.357984 
L 238.473635 248.158016 
L 237.967351 248.546843 
L 233.951794 250.088816 
L 229.429953 250.166712 
L 228.406251 250.451267 
L 224.908112 251.765274 
L 220.386271 252.166833 
L 218.424421 252.355691 
L 215.86443 252.863065 
L 212.33997 254.260116 
L 211.342589 254.55233 
L 206.820749 255.313093 
L 202.298908 255.033594 
L 198.270953 256.16454 
L 197.777067 256.388546 
L 193.255226 256.961131 
L 190.636345 256.16454 
L 188.733385 255.763814 
L 186.830425 256.16454 
L 184.211544 257.188728 
L 179.689703 257.721068 
L 175.167863 257.294922 
L 170.646022 256.766603 
L 166.124181 257.785149 
L 161.60234 257.634844 
L 157.080499 256.231717 
L 152.558658 256.739564 
z
M 129.492004 252.355691 
L 129.949454 251.66762 
L 131.855494 252.355691 
L 129.949454 253.318992 
z
M 106.87865 246.642418 
L 107.34025 246.545214 
L 107.571049 246.642418 
L 107.34025 246.836826 
z
M 134.125095 244.737994 
L 134.471295 244.504704 
L 135.025214 244.737994 
L 134.471295 244.815757 
z
M 147.373959 244.737994 
L 148.036817 243.970276 
L 148.765961 244.737994 
L 148.036817 245.505711 
z
M 138.439216 242.833569 
L 138.993136 241.667122 
L 139.916334 242.833569 
L 138.993136 243.066859 
z
" style="fill:#f0f0f0;"/>
    <path clip-path="url(#p9d0565b21f)" d="M 66.643682 253.381701 
L 69.350509 252.355691 
L 68.383785 250.451267 
L 66.643682 249.425257 
L 62.121841 249.132452 
L 62.121841 250.451267 
L 62.121841 252.355691 
L 62.121841 252.503287 
z
" style="fill:#f0f0f0;"/>
    <path clip-path="url(#p9d0565b21f)" d="M 75.687363 241.175137 
L 75.937684 240.929145 
L 75.687363 240.74465 
L 75.512139 240.929145 
z
" style="fill:#f0f0f0;"/>
    <path clip-path="url(#p9d0565b21f)" d="M 102.818409 239.402206 
L 104.909771 239.02472 
L 102.818409 238.36412 
L 101.563592 239.02472 
z
" style="fill:#f0f0f0;"/>
    <path clip-path="url(#p9d0565b21f)" d="M 152.558658 238.001097 
L 153.342919 237.120296 
L 152.558658 236.880078 
L 151.512977 237.120296 
z
" style="fill:#f0f0f0;"/>
    <path clip-path="url(#p9d0565b21f)" d="M 111.86209 235.461864 
L 116.383931 235.400366 
L 117.260054 235.215871 
L 116.383931 234.477894 
L 111.86209 235.031377 
L 111.278009 235.215871 
z
" style="fill:#f0f0f0;"/>
    <path clip-path="url(#p9d0565b21f)" d="M 125.427613 235.656272 
L 126.323911 235.215871 
L 125.427613 234.555271 
L 123.336251 235.215871 
z
" style="fill:#f0f0f0;"/>
    <path clip-path="url(#p9d0565b21f)" d="M 116.383931 233.078158 
L 117.910055 231.407023 
L 116.383931 230.764278 
L 114.39997 231.407023 
z
" style="fill:#f0f0f0;"/>
   </g>
   <g id="PathCollection_4">
    <path clip-path="url(#p9d0565b21f)" d="M 138.993136 256.281023 
L 139.980907 256.16454 
L 138.993136 255.436521 
L 137.264535 256.16454 
z
" style="fill:#d3d3d3;"/>
    <path clip-path="url(#p9d0565b21f)" d="M 152.558658 256.739564 
L 157.080499 256.231717 
L 161.60234 257.634844 
L 166.124181 257.785149 
L 170.646022 256.766603 
L 175.167863 257.294922 
L 179.689703 257.721068 
L 184.211544 257.188728 
L 186.830425 256.16454 
L 188.733385 255.763814 
L 190.636345 256.16454 
L 193.255226 256.961131 
L 197.777067 256.388546 
L 198.270953 256.16454 
L 202.298908 255.033594 
L 206.820749 255.313093 
L 211.342589 254.55233 
L 212.33997 254.260116 
L 215.86443 252.863065 
L 218.424421 252.355691 
L 220.386271 252.166833 
L 224.908112 251.765274 
L 228.406251 250.451267 
L 229.429953 250.166712 
L 233.951794 250.088816 
L 237.967351 248.546843 
L 238.473635 248.158016 
L 242.995476 248.357984 
L 247.517316 247.630618 
L 250.975123 246.642418 
L 252.039157 246.301839 
L 256.560998 246.214634 
L 261.082839 245.386118 
L 263.134702 244.737994 
L 265.60468 244.205178 
L 270.126521 243.712066 
L 274.298303 242.833569 
L 274.648362 242.700179 
L 279.170202 242.128878 
L 281.767483 240.929145 
L 283.692043 240.453995 
L 288.213884 240.180711 
L 292.735725 239.649453 
L 296.241842 239.02472 
L 297.257566 238.915287 
L 301.779407 237.763209 
L 303.677249 237.120296 
L 301.779407 236.275324 
L 299.028024 235.215871 
L 297.257566 234.685633 
L 292.735725 233.520018 
L 291.319139 233.311447 
L 288.213884 232.43276 
L 283.692043 231.734372 
L 280.367123 231.407023 
L 279.170202 231.003745 
L 274.648362 230.349699 
L 270.126521 230.186423 
L 265.60468 229.894033 
L 261.082839 229.836296 
L 256.560998 230.362185 
L 252.039157 231.214362 
L 251.581708 231.407023 
L 247.517316 232.882681 
L 246.041136 233.311447 
L 242.995476 234.477551 
L 241.512118 235.215871 
L 238.473635 235.955249 
L 233.951794 236.540187 
L 232.409102 237.120296 
L 229.429953 238.240566 
L 227.499108 239.02472 
L 224.908112 240.115948 
L 220.386271 240.369067 
L 219.056431 240.929145 
L 215.86443 241.505294 
L 212.593781 242.833569 
L 211.342589 243.426392 
L 206.820749 243.546188 
L 202.298908 244.612037 
L 202.139404 244.737994 
L 197.777067 245.599203 
L 193.255226 245.753964 
L 190.595379 246.642418 
L 188.733385 247.544248 
L 184.211544 248.345312 
L 179.689703 248.108979 
L 175.167863 247.76272 
L 172.892315 248.546843 
L 170.646022 248.901612 
L 168.118941 248.546843 
L 166.124181 248.241346 
L 165.126801 248.546843 
L 162.1566 250.451267 
L 161.60234 250.626342 
L 161.252281 250.451267 
L 158.077879 248.546843 
L 157.080499 248.126785 
L 155.750659 248.546843 
L 152.558658 249.89119 
L 149.898978 250.451267 
L 148.036817 251.123498 
L 146.174657 250.451267 
L 143.514976 249.840274 
L 138.993136 250.115382 
L 134.471295 249.667144 
L 132.195748 250.451267 
L 134.471295 251.529436 
L 138.993136 250.70318 
L 141.23525 252.355691 
L 140.855296 254.260116 
L 143.514976 255.006886 
L 148.036817 255.999764 
L 149.145337 256.16454 
z
M 264.810554 235.215871 
L 264.718827 233.311447 
L 265.60468 233.078598 
L 270.126521 232.852161 
L 274.648362 232.780762 
L 279.111931 233.311447 
L 279.170202 233.330753 
L 283.692043 234.110307 
L 288.213884 234.967685 
L 289.247922 235.215871 
L 288.213884 235.62439 
L 283.692043 236.374808 
L 279.170202 236.337966 
L 274.648362 236.358953 
L 270.126521 236.191959 
L 265.60468 235.713665 
z
" style="fill:#d3d3d3;"/>
    <path clip-path="url(#p9d0565b21f)" d="M 129.949454 253.318992 
L 131.855494 252.355691 
L 129.949454 251.66762 
L 129.492004 252.355691 
z
" style="fill:#d3d3d3;"/>
   </g>
   <g id="PathCollection_5">
    <path clip-path="url(#p9d0565b21f)" d="M 265.60468 235.713665 
L 270.126521 236.191959 
L 274.648362 236.358953 
L 279.170202 236.337966 
L 283.692043 236.374808 
L 288.213884 235.62439 
L 289.247922 235.215871 
L 288.213884 234.967685 
L 283.692043 234.110307 
L 279.170202 233.330753 
L 279.111931 233.311447 
L 274.648362 232.780762 
L 270.126521 232.852161 
L 265.60468 233.078598 
L 264.718827 233.311447 
L 264.810554 235.215871 
z
" style="fill:#b8b8b8;"/>
   </g>
   <g id="PathCollection_6"/>
   <g id="PathCollection_7">
    <path clip-path="url(#p9d0565b21f)" d="M 67.214498 307.584 
L 70.419331 307.584 
L 73.624164 307.584 
L 76.828997 307.584 
L 80.033829 307.584 
L 83.238662 307.584 
L 86.443495 307.584 
L 89.648328 307.584 
L 92.853161 307.584 
L 96.057993 307.584 
L 99.262826 307.584 
L 102.467659 307.584 
L 105.672492 307.584 
L 108.877324 307.584 
L 112.082157 307.584 
L 115.28699 307.584 
L 118.491823 307.584 
L 121.696656 307.584 
L 124.901488 307.584 
L 128.106321 307.584 
L 128.446984 307.584 
L 129.622506 306.660873 
L 130.493917 305.737747 
L 130.902179 304.81462 
L 130.855593 303.891494 
L 130.549353 302.968367 
L 129.860407 302.045241 
L 128.869891 301.122114 
L 128.106321 300.548906 
L 127.554436 300.198988 
L 125.841548 299.275861 
L 124.901488 298.898236 
L 123.742288 298.352735 
L 121.696656 297.468653 
L 121.604798 297.429608 
L 119.395632 296.506482 
L 118.491823 296.170075 
L 116.798554 295.583355 
L 115.28699 295.131167 
L 113.648699 294.660229 
L 112.082157 294.178742 
L 110.62036 293.737102 
L 108.877324 293.147514 
L 107.814657 292.813976 
L 105.672492 292.194591 
L 104.249995 291.890849 
L 102.467659 291.514576 
L 100.239359 290.967723 
L 99.262826 290.701827 
L 96.057993 290.140909 
L 95.443239 290.044596 
L 92.853161 289.670203 
L 89.648328 289.288375 
L 87.449387 289.12147 
L 86.443495 289.048801 
L 83.238662 288.94104 
L 80.033829 288.949163 
L 76.828997 289.076602 
L 76.051607 289.12147 
L 73.624164 289.268224 
L 70.419331 289.598145 
L 70.013155 290.044596 
L 69.275449 290.967723 
L 68.50323 291.890849 
L 67.79069 292.813976 
L 67.214498 293.662161 
L 67.201852 293.737102 
L 67.027668 294.660229 
L 66.851609 295.583355 
L 66.706997 296.506482 
L 66.582429 297.429608 
L 66.465308 298.352735 
L 66.359847 299.275861 
L 66.283271 300.198988 
L 66.219318 301.122114 
L 66.168363 302.045241 
L 66.132922 302.968367 
L 66.117168 303.891494 
L 66.114771 304.81462 
L 66.135773 305.737747 
L 66.180601 306.660873 
L 66.241073 307.584 
z
" style="fill:#4d94ff;fill-opacity:0.2;"/>
   </g>
   <g id="PathCollection_8">
    <path clip-path="url(#p9d0565b21f)" d="M 72.868877 307.584 
L 75.922652 307.584 
L 78.976428 307.584 
L 82.030203 307.584 
L 85.083979 307.584 
L 88.137754 307.584 
L 91.191529 307.584 
L 94.245305 307.584 
L 97.29908 307.584 
L 100.352855 307.584 
L 103.406631 307.584 
L 106.460406 307.584 
L 109.514182 307.584 
L 112.567957 307.584 
L 115.621732 307.584 
L 118.675508 307.584 
L 121.729283 307.584 
L 124.783059 307.584 
L 127.836834 307.584 
L 130.890609 307.584 
L 133.944385 307.584 
L 136.99816 307.584 
L 140.051936 307.584 
L 143.105711 307.584 
L 146.159486 307.584 
L 149.213262 307.584 
L 152.267037 307.584 
L 155.320813 307.584 
L 156.857978 307.584 
L 158.374588 306.759193 
L 160.363327 305.714065 
L 161.428363 305.160538 
L 163.623974 303.84413 
L 164.482139 303.260031 
L 166.263088 301.974196 
L 167.535914 301.001952 
L 168.694557 300.104261 
L 170.589689 298.543015 
L 170.937048 298.234326 
L 172.386028 296.364391 
L 173.643465 295.132907 
L 174.182119 294.494457 
L 175.848373 292.624522 
L 176.69724 291.459233 
L 177.210764 290.754587 
L 178.383835 288.884652 
L 179.420831 287.014717 
L 179.751016 285.843949 
L 179.927601 285.144783 
L 180.22891 283.274848 
L 180.22891 281.404913 
L 179.751016 279.621448 
L 179.725126 279.534978 
L 179.177378 277.665044 
L 178.3112 275.795109 
L 177.40341 273.925174 
L 176.69724 272.514542 
L 176.469281 272.055239 
L 175.46258 270.185304 
L 174.109532 268.31537 
L 173.643465 267.764447 
L 172.292899 266.445435 
L 170.589689 265.089136 
L 169.891298 264.5755 
L 167.535914 262.957614 
L 167.162104 262.705565 
L 164.482139 260.852322 
L 164.456494 260.835631 
L 161.428363 259.5341 
L 159.878037 258.965696 
L 158.374588 258.343084 
L 155.432316 257.095761 
L 155.320813 257.063083 
L 152.267037 256.310238 
L 149.213262 255.624495 
L 147.390878 255.225826 
L 146.159486 254.964164 
L 143.105711 254.327327 
L 140.051936 253.78886 
L 137.703943 253.355892 
L 136.99816 253.239672 
L 133.944385 252.802115 
L 130.890609 252.401202 
L 127.836834 251.988072 
L 124.783059 251.509105 
L 124.571451 251.485957 
L 121.729283 251.160209 
L 118.675508 250.648616 
L 115.621732 250.32533 
L 112.567957 250.133523 
L 109.514182 250.005863 
L 106.460406 250.005863 
L 103.406631 250.215533 
L 100.352855 250.459356 
L 97.29908 250.79342 
L 94.245305 251.231873 
L 92.785078 251.485957 
L 91.191529 251.753114 
L 88.137754 252.481085 
L 85.083979 253.132804 
L 84.220093 253.355892 
L 82.030203 253.998433 
L 78.976428 255.073594 
L 78.547862 255.225826 
L 75.922652 256.204056 
L 73.492434 257.095761 
L 72.868877 257.429731 
L 70.520423 258.965696 
L 69.815102 259.382378 
L 69.341752 260.835631 
L 68.955613 262.705565 
L 68.572367 264.5755 
L 68.225231 266.445435 
L 67.947333 268.31537 
L 67.714507 270.185304 
L 67.541279 272.055239 
L 67.383697 273.925174 
L 67.231548 275.795109 
L 67.086373 277.665044 
L 66.994569 279.534978 
L 66.90172 281.404913 
L 66.90172 283.274848 
L 66.957524 285.144783 
L 67.04557 287.014717 
L 67.219374 288.884652 
L 67.415985 290.754587 
L 67.648122 292.624522 
L 67.934842 294.494457 
L 68.211599 296.364391 
L 68.423705 298.234326 
L 68.739977 300.104261 
L 69.083948 301.974196 
L 69.457771 303.84413 
L 69.815102 305.374461 
L 70.220624 305.714065 
L 72.457761 307.584 
z
" style="fill:#ff8533;fill-opacity:0.2;"/>
   </g>
   <g id="PathCollection_9">
    <path clip-path="url(#p9d0565b21f)" d="M 63.245493 307.584 
L 66.068239 307.584 
L 68.890986 307.584 
L 71.713732 307.584 
L 74.536479 307.584 
L 77.359225 307.584 
L 80.181972 307.584 
L 83.004718 307.584 
L 85.827464 307.584 
L 88.650211 307.584 
L 91.472957 307.584 
L 94.295704 307.584 
L 97.11845 307.584 
L 99.941197 307.584 
L 102.763943 307.584 
L 105.58669 307.584 
L 108.409436 307.584 
L 111.232182 307.584 
L 114.054929 307.584 
L 116.877675 307.584 
L 119.700422 307.584 
L 122.523168 307.584 
L 125.345915 307.584 
L 128.168661 307.584 
L 130.991408 307.584 
L 133.814154 307.584 
L 136.6369 307.584 
L 139.459647 307.584 
L 142.282393 307.584 
L 145.10514 307.584 
L 147.927886 307.584 
L 150.750633 307.584 
L 153.573379 307.584 
L 156.396126 307.584 
L 159.218872 307.584 
L 162.041619 307.584 
L 164.864365 307.584 
L 165.840634 307.584 
L 166.699574 306.552346 
L 166.849691 305.520692 
L 166.353754 304.489038 
L 165.527599 303.457384 
L 164.864365 302.994305 
L 163.920018 302.42573 
L 162.041619 301.751192 
L 161.093244 301.394076 
L 159.218872 300.681354 
L 158.382041 300.362422 
L 156.396126 299.749286 
L 154.839534 299.330768 
L 153.573379 299.032979 
L 150.750633 298.482197 
L 149.455432 298.299115 
L 147.927886 298.099466 
L 145.10514 297.625275 
L 142.475936 297.267461 
L 142.282393 297.239795 
L 139.459647 296.921229 
L 136.6369 296.592525 
L 133.814154 296.31581 
L 132.951712 296.235807 
L 130.991408 296.03739 
L 128.168661 295.760897 
L 125.345915 295.472349 
L 122.962564 295.204153 
L 122.523168 295.164504 
L 119.700422 294.937341 
L 116.877675 294.729891 
L 114.054929 294.50945 
L 111.232182 294.301569 
L 109.498916 294.172499 
L 108.409436 294.079363 
L 105.58669 293.857702 
L 102.763943 293.702379 
L 99.941197 293.488323 
L 97.11845 293.322592 
L 94.295704 293.186744 
L 93.315377 293.140845 
L 91.472957 293.036595 
L 88.650211 292.864952 
L 85.827464 292.772398 
L 83.004718 292.721524 
L 80.181972 292.667841 
L 77.359225 292.667841 
L 74.536479 292.729557 
L 71.713732 292.845772 
L 68.890986 293.019437 
L 67.280836 293.140845 
L 66.068239 293.216794 
L 65.344384 294.172499 
L 64.574824 295.204153 
L 64.038787 296.235807 
L 63.522016 297.267461 
L 63.245493 297.840235 
L 63.157199 298.299115 
L 62.98622 299.330768 
L 62.848006 300.362422 
L 62.741879 301.394076 
L 62.639263 302.42573 
L 62.579751 303.457384 
L 62.546974 304.489038 
L 62.527298 305.520692 
L 62.533254 306.552346 
L 62.567331 307.584 
z
" style="fill:#00b300;fill-opacity:0.2;"/>
   </g>
   <g id="PathCollection_10">
    <path clip-path="url(#p9d0565b21f)" d="M 72.877623 307.584 
L 80.516434 307.584 
L 88.155246 307.584 
L 95.794057 307.584 
L 103.432868 307.584 
L 111.07168 307.584 
L 118.710491 307.584 
L 126.349302 307.584 
L 133.988114 307.584 
L 141.626925 307.584 
L 149.265737 307.584 
L 156.904548 307.584 
L 164.543359 307.584 
L 172.182171 307.584 
L 179.820982 307.584 
L 187.459793 307.584 
L 195.098605 307.584 
L 202.737416 307.584 
L 210.376228 307.584 
L 218.015039 307.584 
L 225.65385 307.584 
L 233.292662 307.584 
L 240.931473 307.584 
L 248.570284 307.584 
L 256.209096 307.584 
L 263.847907 307.584 
L 271.486719 307.584 
L 279.12553 307.584 
L 286.764341 307.584 
L 294.403153 307.584 
L 302.041964 307.584 
L 309.680775 307.584 
L 317.319587 307.584 
L 324.958398 307.584 
L 332.59721 307.584 
L 340.236021 307.584 
L 347.874832 307.584 
L 355.513644 307.584 
L 363.152455 307.584 
L 370.791266 307.584 
L 378.430078 307.584 
L 386.068889 307.584 
L 393.707701 307.584 
L 401.346512 307.584 
L 408.985323 307.584 
L 416.624135 307.584 
L 424.262946 307.584 
L 431.901757 307.584 
L 431.901757 306.395168 
L 431.901757 305.206337 
L 431.901757 304.017505 
L 431.901757 302.828674 
L 431.901757 301.639842 
L 431.901757 300.45101 
L 431.901757 299.262179 
L 431.901757 298.073347 
L 431.901757 297.136817 
L 424.262946 297.136817 
L 416.624135 297.136817 
L 408.985323 297.136817 
L 401.346512 297.136817 
L 393.707701 297.136817 
L 386.068889 297.136817 
L 378.430078 297.136817 
L 370.791266 297.136817 
L 363.152455 297.136817 
L 355.513644 297.136817 
L 347.874832 297.136817 
L 340.236021 297.136817 
L 332.59721 297.136817 
L 324.958398 297.136817 
L 317.319587 297.136817 
L 309.680775 297.136817 
L 302.041964 297.136817 
L 294.403153 297.136817 
L 286.764341 297.136817 
L 279.12553 297.136817 
L 271.486719 297.136817 
L 263.847907 297.136817 
L 256.209096 297.136817 
L 248.570284 297.136817 
L 240.931473 297.136817 
L 233.292662 297.136817 
L 225.65385 297.136817 
L 218.015039 297.136817 
L 210.376228 297.136817 
L 202.737416 297.136817 
L 195.098605 297.136817 
L 193.354799 296.884516 
L 187.459793 296.083591 
L 185.019139 295.695684 
L 179.820982 295.025422 
L 175.022375 294.506852 
L 172.182171 294.169991 
L 164.543359 293.514804 
L 161.302032 293.318021 
L 156.904548 293.020503 
L 149.265737 292.735028 
L 141.626925 292.595635 
L 133.988114 292.566225 
L 126.349302 292.675915 
L 118.710491 292.939439 
L 111.07168 293.233803 
L 109.071462 293.318021 
L 103.432868 293.528013 
L 95.794057 293.908905 
L 88.155246 294.398523 
L 86.379366 294.506852 
L 80.516434 294.82152 
L 72.877623 295.165713 
L 72.450094 295.695684 
L 71.703919 296.884516 
L 71.060863 298.073347 
L 70.389587 299.262179 
L 69.960844 300.45101 
L 69.609916 301.639842 
L 69.297774 302.828674 
L 69.108481 304.017505 
L 69.025115 305.206337 
L 69.023924 306.395168 
L 69.096835 307.584 
z
" style="fill:#ffff33;fill-opacity:0.2;"/>
   </g>
   <g id="matplotlib.axis_1">
    <g id="xtick_1">
     <g id="line2d_1">
      <defs>
       <path d="M 0 0 
L 0 3.5 
" id="m11468d8639" style="stroke:#000000;stroke-width:0.8;"/>
      </defs>
      <g>
       <use style="stroke:#000000;stroke-width:0.8;" x="57.6" xlink:href="#m11468d8639" y="307.584"/>
      </g>
     </g>
     <g id="text_1">
      <!-- 0.00 -->
      <defs>
       <path d="M 31.78125 66.40625 
Q 24.171875 66.40625 20.328125 58.90625 
Q 16.5 51.421875 16.5 36.375 
Q 16.5 21.390625 20.328125 13.890625 
Q 24.171875 6.390625 31.78125 6.390625 
Q 39.453125 6.390625 43.28125 13.890625 
Q 47.125 21.390625 47.125 36.375 
Q 47.125 51.421875 43.28125 58.90625 
Q 39.453125 66.40625 31.78125 66.40625 
z
M 31.78125 74.21875 
Q 44.046875 74.21875 50.515625 64.515625 
Q 56.984375 54.828125 56.984375 36.375 
Q 56.984375 17.96875 50.515625 8.265625 
Q 44.046875 -1.421875 31.78125 -1.421875 
Q 19.53125 -1.421875 13.0625 8.265625 
Q 6.59375 17.96875 6.59375 36.375 
Q 6.59375 54.828125 13.0625 64.515625 
Q 19.53125 74.21875 31.78125 74.21875 
z
" id="DejaVuSans-48"/>
       <path d="M 10.6875 12.40625 
L 21 12.40625 
L 21 0 
L 10.6875 0 
z
" id="DejaVuSans-46"/>
      </defs>
      <g transform="translate(37.560938 328.261187)scale(0.18 -0.18)">
       <use xlink:href="#DejaVuSans-48"/>
       <use x="63.623047" xlink:href="#DejaVuSans-46"/>
       <use x="95.410156" xlink:href="#DejaVuSans-48"/>
       <use x="159.033203" xlink:href="#DejaVuSans-48"/>
      </g>
     </g>
    </g>
    <g id="xtick_2">
     <g id="line2d_2">
      <g>
       <use style="stroke:#000000;stroke-width:0.8;" x="93.312" xlink:href="#m11468d8639" y="307.584"/>
      </g>
     </g>
     <g id="text_2">
      <!-- 0.25 -->
      <defs>
       <path d="M 19.1875 8.296875 
L 53.609375 8.296875 
L 53.609375 0 
L 7.328125 0 
L 7.328125 8.296875 
Q 12.9375 14.109375 22.625 23.890625 
Q 32.328125 33.6875 34.8125 36.53125 
Q 39.546875 41.84375 41.421875 45.53125 
Q 43.3125 49.21875 43.3125 52.78125 
Q 43.3125 58.59375 39.234375 62.25 
Q 35.15625 65.921875 28.609375 65.921875 
Q 23.96875 65.921875 18.8125 64.3125 
Q 13.671875 62.703125 7.8125 59.421875 
L 7.8125 69.390625 
Q 13.765625 71.78125 18.9375 73 
Q 24.125 74.21875 28.421875 74.21875 
Q 39.75 74.21875 46.484375 68.546875 
Q 53.21875 62.890625 53.21875 53.421875 
Q 53.21875 48.921875 51.53125 44.890625 
Q 49.859375 40.875 45.40625 35.40625 
Q 44.1875 33.984375 37.640625 27.21875 
Q 31.109375 20.453125 19.1875 8.296875 
z
" id="DejaVuSans-50"/>
       <path d="M 10.796875 72.90625 
L 49.515625 72.90625 
L 49.515625 64.59375 
L 19.828125 64.59375 
L 19.828125 46.734375 
Q 21.96875 47.46875 24.109375 47.828125 
Q 26.265625 48.1875 28.421875 48.1875 
Q 40.625 48.1875 47.75 41.5 
Q 54.890625 34.8125 54.890625 23.390625 
Q 54.890625 11.625 47.5625 5.09375 
Q 40.234375 -1.421875 26.90625 -1.421875 
Q 22.3125 -1.421875 17.546875 -0.640625 
Q 12.796875 0.140625 7.71875 1.703125 
L 7.71875 11.625 
Q 12.109375 9.234375 16.796875 8.0625 
Q 21.484375 6.890625 26.703125 6.890625 
Q 35.15625 6.890625 40.078125 11.328125 
Q 45.015625 15.765625 45.015625 23.390625 
Q 45.015625 31 40.078125 35.4375 
Q 35.15625 39.890625 26.703125 39.890625 
Q 22.75 39.890625 18.8125 39.015625 
Q 14.890625 38.140625 10.796875 36.28125 
z
" id="DejaVuSans-53"/>
      </defs>
      <g transform="translate(73.272938 328.261187)scale(0.18 -0.18)">
       <use xlink:href="#DejaVuSans-48"/>
       <use x="63.623047" xlink:href="#DejaVuSans-46"/>
       <use x="95.410156" xlink:href="#DejaVuSans-50"/>
       <use x="159.033203" xlink:href="#DejaVuSans-53"/>
      </g>
     </g>
    </g>
    <g id="xtick_3">
     <g id="line2d_3">
      <g>
       <use style="stroke:#000000;stroke-width:0.8;" x="129.024" xlink:href="#m11468d8639" y="307.584"/>
      </g>
     </g>
     <g id="text_3">
      <!-- 0.50 -->
      <g transform="translate(108.984938 328.261187)scale(0.18 -0.18)">
       <use xlink:href="#DejaVuSans-48"/>
       <use x="63.623047" xlink:href="#DejaVuSans-46"/>
       <use x="95.410156" xlink:href="#DejaVuSans-53"/>
       <use x="159.033203" xlink:href="#DejaVuSans-48"/>
      </g>
     </g>
    </g>
    <g id="xtick_4">
     <g id="line2d_4">
      <g>
       <use style="stroke:#000000;stroke-width:0.8;" x="164.736" xlink:href="#m11468d8639" y="307.584"/>
      </g>
     </g>
     <g id="text_4">
      <!-- 0.75 -->
      <defs>
       <path d="M 8.203125 72.90625 
L 55.078125 72.90625 
L 55.078125 68.703125 
L 28.609375 0 
L 18.3125 0 
L 43.21875 64.59375 
L 8.203125 64.59375 
z
" id="DejaVuSans-55"/>
      </defs>
      <g transform="translate(144.696938 328.261187)scale(0.18 -0.18)">
       <use xlink:href="#DejaVuSans-48"/>
       <use x="63.623047" xlink:href="#DejaVuSans-46"/>
       <use x="95.410156" xlink:href="#DejaVuSans-55"/>
       <use x="159.033203" xlink:href="#DejaVuSans-53"/>
      </g>
     </g>
    </g>
    <g id="xtick_5">
     <g id="line2d_5">
      <g>
       <use style="stroke:#000000;stroke-width:0.8;" x="200.448" xlink:href="#m11468d8639" y="307.584"/>
      </g>
     </g>
     <g id="text_5">
      <!-- 1.00 -->
      <defs>
       <path d="M 12.40625 8.296875 
L 28.515625 8.296875 
L 28.515625 63.921875 
L 10.984375 60.40625 
L 10.984375 69.390625 
L 28.421875 72.90625 
L 38.28125 72.90625 
L 38.28125 8.296875 
L 54.390625 8.296875 
L 54.390625 0 
L 12.40625 0 
z
" id="DejaVuSans-49"/>
      </defs>
      <g transform="translate(180.408938 328.261187)scale(0.18 -0.18)">
       <use xlink:href="#DejaVuSans-49"/>
       <use x="63.623047" xlink:href="#DejaVuSans-46"/>
       <use x="95.410156" xlink:href="#DejaVuSans-48"/>
       <use x="159.033203" xlink:href="#DejaVuSans-48"/>
      </g>
     </g>
    </g>
    <g id="xtick_6">
     <g id="line2d_6">
      <g>
       <use style="stroke:#000000;stroke-width:0.8;" x="236.16" xlink:href="#m11468d8639" y="307.584"/>
      </g>
     </g>
     <g id="text_6">
      <!-- 1.25 -->
      <g transform="translate(216.120937 328.261187)scale(0.18 -0.18)">
       <use xlink:href="#DejaVuSans-49"/>
       <use x="63.623047" xlink:href="#DejaVuSans-46"/>
       <use x="95.410156" xlink:href="#DejaVuSans-50"/>
       <use x="159.033203" xlink:href="#DejaVuSans-53"/>
      </g>
     </g>
    </g>
    <g id="xtick_7">
     <g id="line2d_7">
      <g>
       <use style="stroke:#000000;stroke-width:0.8;" x="271.872" xlink:href="#m11468d8639" y="307.584"/>
      </g>
     </g>
     <g id="text_7">
      <!-- 1.50 -->
      <g transform="translate(251.832938 328.261187)scale(0.18 -0.18)">
       <use xlink:href="#DejaVuSans-49"/>
       <use x="63.623047" xlink:href="#DejaVuSans-46"/>
       <use x="95.410156" xlink:href="#DejaVuSans-53"/>
       <use x="159.033203" xlink:href="#DejaVuSans-48"/>
      </g>
     </g>
    </g>
    <g id="xtick_8">
     <g id="line2d_8">
      <g>
       <use style="stroke:#000000;stroke-width:0.8;" x="307.584" xlink:href="#m11468d8639" y="307.584"/>
      </g>
     </g>
     <g id="text_8">
      <!-- 1.75 -->
      <g transform="translate(287.544938 328.261187)scale(0.18 -0.18)">
       <use xlink:href="#DejaVuSans-49"/>
       <use x="63.623047" xlink:href="#DejaVuSans-46"/>
       <use x="95.410156" xlink:href="#DejaVuSans-55"/>
       <use x="159.033203" xlink:href="#DejaVuSans-53"/>
      </g>
     </g>
    </g>
    <g id="xtick_9">
     <g id="line2d_9">
      <g>
       <use style="stroke:#000000;stroke-width:0.8;" x="343.296" xlink:href="#m11468d8639" y="307.584"/>
      </g>
     </g>
     <g id="text_9">
      <!-- 2.00 -->
      <g transform="translate(323.256938 328.261187)scale(0.18 -0.18)">
       <use xlink:href="#DejaVuSans-50"/>
       <use x="63.623047" xlink:href="#DejaVuSans-46"/>
       <use x="95.410156" xlink:href="#DejaVuSans-48"/>
       <use x="159.033203" xlink:href="#DejaVuSans-48"/>
      </g>
     </g>
    </g>
   </g>
   <g id="matplotlib.axis_2">
    <g id="ytick_1">
     <g id="line2d_10">
      <defs>
       <path d="M 0 0 
L -3.5 0 
" id="m9560e36e28" style="stroke:#000000;stroke-width:0.8;"/>
      </defs>
      <g>
       <use style="stroke:#000000;stroke-width:0.8;" x="57.6" xlink:href="#m9560e36e28" y="307.584"/>
      </g>
     </g>
     <g id="text_10">
      <!-- 0.0 -->
      <g transform="translate(21.974375 314.422594)scale(0.18 -0.18)">
       <use xlink:href="#DejaVuSans-48"/>
       <use x="63.623047" xlink:href="#DejaVuSans-46"/>
       <use x="95.410156" xlink:href="#DejaVuSans-48"/>
      </g>
     </g>
    </g>
    <g id="ytick_2">
     <g id="line2d_11">
      <g>
       <use style="stroke:#000000;stroke-width:0.8;" x="57.6" xlink:href="#m9560e36e28" y="277.502974"/>
      </g>
     </g>
     <g id="text_11">
      <!-- 0.5 -->
      <g transform="translate(21.974375 284.341568)scale(0.18 -0.18)">
       <use xlink:href="#DejaVuSans-48"/>
       <use x="63.623047" xlink:href="#DejaVuSans-46"/>
       <use x="95.410156" xlink:href="#DejaVuSans-53"/>
      </g>
     </g>
    </g>
    <g id="ytick_3">
     <g id="line2d_12">
      <g>
       <use style="stroke:#000000;stroke-width:0.8;" x="57.6" xlink:href="#m9560e36e28" y="247.421949"/>
      </g>
     </g>
     <g id="text_12">
      <!-- 1.0 -->
      <g transform="translate(21.974375 254.260543)scale(0.18 -0.18)">
       <use xlink:href="#DejaVuSans-49"/>
       <use x="63.623047" xlink:href="#DejaVuSans-46"/>
       <use x="95.410156" xlink:href="#DejaVuSans-48"/>
      </g>
     </g>
    </g>
    <g id="ytick_4">
     <g id="line2d_13">
      <g>
       <use style="stroke:#000000;stroke-width:0.8;" x="57.6" xlink:href="#m9560e36e28" y="217.340923"/>
      </g>
     </g>
     <g id="text_13">
      <!-- 1.5 -->
      <g transform="translate(21.974375 224.179517)scale(0.18 -0.18)">
       <use xlink:href="#DejaVuSans-49"/>
       <use x="63.623047" xlink:href="#DejaVuSans-46"/>
       <use x="95.410156" xlink:href="#DejaVuSans-53"/>
      </g>
     </g>
    </g>
    <g id="ytick_5">
     <g id="line2d_14">
      <g>
       <use style="stroke:#000000;stroke-width:0.8;" x="57.6" xlink:href="#m9560e36e28" y="187.259898"/>
      </g>
     </g>
     <g id="text_14">
      <!-- 2.0 -->
      <g transform="translate(21.974375 194.098491)scale(0.18 -0.18)">
       <use xlink:href="#DejaVuSans-50"/>
       <use x="63.623047" xlink:href="#DejaVuSans-46"/>
       <use x="95.410156" xlink:href="#DejaVuSans-48"/>
      </g>
     </g>
    </g>
    <g id="ytick_6">
     <g id="line2d_15">
      <g>
       <use style="stroke:#000000;stroke-width:0.8;" x="57.6" xlink:href="#m9560e36e28" y="157.178872"/>
      </g>
     </g>
     <g id="text_15">
      <!-- 2.5 -->
      <g transform="translate(21.974375 164.017466)scale(0.18 -0.18)">
       <use xlink:href="#DejaVuSans-50"/>
       <use x="63.623047" xlink:href="#DejaVuSans-46"/>
       <use x="95.410156" xlink:href="#DejaVuSans-53"/>
      </g>
     </g>
    </g>
    <g id="ytick_7">
     <g id="line2d_16">
      <g>
       <use style="stroke:#000000;stroke-width:0.8;" x="57.6" xlink:href="#m9560e36e28" y="127.097846"/>
      </g>
     </g>
     <g id="text_16">
      <!-- 3.0 -->
      <defs>
       <path d="M 40.578125 39.3125 
Q 47.65625 37.796875 51.625 33 
Q 55.609375 28.21875 55.609375 21.1875 
Q 55.609375 10.40625 48.1875 4.484375 
Q 40.765625 -1.421875 27.09375 -1.421875 
Q 22.515625 -1.421875 17.65625 -0.515625 
Q 12.796875 0.390625 7.625 2.203125 
L 7.625 11.71875 
Q 11.71875 9.328125 16.59375 8.109375 
Q 21.484375 6.890625 26.8125 6.890625 
Q 36.078125 6.890625 40.9375 10.546875 
Q 45.796875 14.203125 45.796875 21.1875 
Q 45.796875 27.640625 41.28125 31.265625 
Q 36.765625 34.90625 28.71875 34.90625 
L 20.21875 34.90625 
L 20.21875 43.015625 
L 29.109375 43.015625 
Q 36.375 43.015625 40.234375 45.921875 
Q 44.09375 48.828125 44.09375 54.296875 
Q 44.09375 59.90625 40.109375 62.90625 
Q 36.140625 65.921875 28.71875 65.921875 
Q 24.65625 65.921875 20.015625 65.03125 
Q 15.375 64.15625 9.8125 62.3125 
L 9.8125 71.09375 
Q 15.4375 72.65625 20.34375 73.4375 
Q 25.25 74.21875 29.59375 74.21875 
Q 40.828125 74.21875 47.359375 69.109375 
Q 53.90625 64.015625 53.90625 55.328125 
Q 53.90625 49.265625 50.4375 45.09375 
Q 46.96875 40.921875 40.578125 39.3125 
z
" id="DejaVuSans-51"/>
      </defs>
      <g transform="translate(21.974375 133.93644)scale(0.18 -0.18)">
       <use xlink:href="#DejaVuSans-51"/>
       <use x="63.623047" xlink:href="#DejaVuSans-46"/>
       <use x="95.410156" xlink:href="#DejaVuSans-48"/>
      </g>
     </g>
    </g>
    <g id="ytick_8">
     <g id="line2d_17">
      <g>
       <use style="stroke:#000000;stroke-width:0.8;" x="57.6" xlink:href="#m9560e36e28" y="97.016821"/>
      </g>
     </g>
     <g id="text_17">
      <!-- 3.5 -->
      <g transform="translate(21.974375 103.855415)scale(0.18 -0.18)">
       <use xlink:href="#DejaVuSans-51"/>
       <use x="63.623047" xlink:href="#DejaVuSans-46"/>
       <use x="95.410156" xlink:href="#DejaVuSans-53"/>
      </g>
     </g>
    </g>
    <g id="ytick_9">
     <g id="line2d_18">
      <g>
       <use style="stroke:#000000;stroke-width:0.8;" x="57.6" xlink:href="#m9560e36e28" y="66.935795"/>
      </g>
     </g>
     <g id="text_18">
      <!-- 4.0 -->
      <defs>
       <path d="M 37.796875 64.3125 
L 12.890625 25.390625 
L 37.796875 25.390625 
z
M 35.203125 72.90625 
L 47.609375 72.90625 
L 47.609375 25.390625 
L 58.015625 25.390625 
L 58.015625 17.1875 
L 47.609375 17.1875 
L 47.609375 0 
L 37.796875 0 
L 37.796875 17.1875 
L 4.890625 17.1875 
L 4.890625 26.703125 
z
" id="DejaVuSans-52"/>
      </defs>
      <g transform="translate(21.974375 73.774389)scale(0.18 -0.18)">
       <use xlink:href="#DejaVuSans-52"/>
       <use x="63.623047" xlink:href="#DejaVuSans-46"/>
       <use x="95.410156" xlink:href="#DejaVuSans-48"/>
      </g>
     </g>
    </g>
   </g>
   <g id="LineCollection_1">
    <path clip-path="url(#p9d0565b21f)" d="M 128.446984 307.584 
L 129.622506 306.660873 
L 130.493917 305.737747 
L 130.902179 304.81462 
L 130.855593 303.891494 
L 130.549353 302.968367 
L 129.860407 302.045241 
L 128.869891 301.122114 
L 128.106321 300.548906 
L 127.554436 300.198988 
L 125.841548 299.275861 
L 124.901488 298.898236 
L 123.742288 298.352735 
L 121.696656 297.468653 
L 121.604798 297.429608 
L 119.395632 296.506482 
L 118.491823 296.170075 
L 116.798554 295.583355 
L 115.28699 295.131167 
L 113.648699 294.660229 
L 112.082157 294.178742 
L 110.62036 293.737102 
L 108.877324 293.147514 
L 107.814657 292.813976 
L 105.672492 292.194591 
L 104.249995 291.890849 
L 102.467659 291.514576 
L 100.239359 290.967723 
L 99.262826 290.701827 
L 96.057993 290.140909 
L 95.443239 290.044596 
L 92.853161 289.670203 
L 89.648328 289.288375 
L 87.449387 289.12147 
L 86.443495 289.048801 
L 83.238662 288.94104 
L 80.033829 288.949163 
L 76.828997 289.076602 
L 76.051607 289.12147 
L 73.624164 289.268224 
L 70.419331 289.598145 
L 70.013155 290.044596 
L 69.275449 290.967723 
L 68.50323 291.890849 
L 67.79069 292.813976 
L 67.214498 293.662161 
L 67.201852 293.737102 
L 67.027668 294.660229 
L 66.851609 295.583355 
L 66.706997 296.506482 
L 66.582429 297.429608 
L 66.465308 298.352735 
L 66.359847 299.275861 
L 66.283271 300.198988 
L 66.219318 301.122114 
L 66.168363 302.045241 
L 66.132922 302.968367 
L 66.117168 303.891494 
L 66.114771 304.81462 
L 66.135773 305.737747 
L 66.180601 306.660873 
L 66.241073 307.584 
" style="fill:none;stroke:#4d94ff;stroke-width:1.5;"/>
   </g>
   <g id="LineCollection_2">
    <path clip-path="url(#p9d0565b21f)" d="M 156.857978 307.584 
L 158.374588 306.759193 
L 160.363327 305.714065 
L 161.428363 305.160538 
L 163.623974 303.84413 
L 164.482139 303.260031 
L 166.263088 301.974196 
L 167.535914 301.001952 
L 168.694557 300.104261 
L 170.589689 298.543015 
L 170.937048 298.234326 
L 172.386028 296.364391 
L 173.643465 295.132907 
L 174.182119 294.494457 
L 175.848373 292.624522 
L 176.69724 291.459233 
L 177.210764 290.754587 
L 178.383835 288.884652 
L 179.420831 287.014717 
L 179.751016 285.843949 
L 179.927601 285.144783 
L 180.22891 283.274848 
L 180.22891 281.404913 
L 179.751016 279.621448 
L 179.725126 279.534978 
L 179.177378 277.665044 
L 178.3112 275.795109 
L 177.40341 273.925174 
L 176.69724 272.514542 
L 176.469281 272.055239 
L 175.46258 270.185304 
L 174.109532 268.31537 
L 173.643465 267.764447 
L 172.292899 266.445435 
L 170.589689 265.089136 
L 169.891298 264.5755 
L 167.535914 262.957614 
L 167.162104 262.705565 
L 164.482139 260.852322 
L 164.456494 260.835631 
L 161.428363 259.5341 
L 159.878037 258.965696 
L 158.374588 258.343084 
L 155.432316 257.095761 
L 155.320813 257.063083 
L 152.267037 256.310238 
L 149.213262 255.624495 
L 147.390878 255.225826 
L 146.159486 254.964164 
L 143.105711 254.327327 
L 140.051936 253.78886 
L 137.703943 253.355892 
L 136.99816 253.239672 
L 133.944385 252.802115 
L 130.890609 252.401202 
L 127.836834 251.988072 
L 124.783059 251.509105 
L 124.571451 251.485957 
L 121.729283 251.160209 
L 118.675508 250.648616 
L 115.621732 250.32533 
L 112.567957 250.133523 
L 109.514182 250.005863 
L 106.460406 250.005863 
L 103.406631 250.215533 
L 100.352855 250.459356 
L 97.29908 250.79342 
L 94.245305 251.231873 
L 92.785078 251.485957 
L 91.191529 251.753114 
L 88.137754 252.481085 
L 85.083979 253.132804 
L 84.220093 253.355892 
L 82.030203 253.998433 
L 78.976428 255.073594 
L 78.547862 255.225826 
L 75.922652 256.204056 
L 73.492434 257.095761 
L 72.868877 257.429731 
L 70.520423 258.965696 
L 69.815102 259.382378 
L 69.341752 260.835631 
L 68.955613 262.705565 
L 68.572367 264.5755 
L 68.225231 266.445435 
L 67.947333 268.31537 
L 67.714507 270.185304 
L 67.541279 272.055239 
L 67.383697 273.925174 
L 67.231548 275.795109 
L 67.086373 277.665044 
L 66.994569 279.534978 
L 66.90172 281.404913 
L 66.90172 283.274848 
L 66.957524 285.144783 
L 67.04557 287.014717 
L 67.219374 288.884652 
L 67.415985 290.754587 
L 67.648122 292.624522 
L 67.934842 294.494457 
L 68.211599 296.364391 
L 68.423705 298.234326 
L 68.739977 300.104261 
L 69.083948 301.974196 
L 69.457771 303.84413 
L 69.815102 305.374461 
L 70.220624 305.714065 
L 72.457761 307.584 
" style="fill:none;stroke:#ff8533;stroke-width:1.5;"/>
   </g>
   <g id="LineCollection_3">
    <path clip-path="url(#p9d0565b21f)" d="M 165.840634 307.584 
L 166.699574 306.552346 
L 166.849691 305.520692 
L 166.353754 304.489038 
L 165.527599 303.457384 
L 164.864365 302.994305 
L 163.920018 302.42573 
L 162.041619 301.751192 
L 161.093244 301.394076 
L 159.218872 300.681354 
L 158.382041 300.362422 
L 156.396126 299.749286 
L 154.839534 299.330768 
L 153.573379 299.032979 
L 150.750633 298.482197 
L 149.455432 298.299115 
L 147.927886 298.099466 
L 145.10514 297.625275 
L 142.475936 297.267461 
L 142.282393 297.239795 
L 139.459647 296.921229 
L 136.6369 296.592525 
L 133.814154 296.31581 
L 132.951712 296.235807 
L 130.991408 296.03739 
L 128.168661 295.760897 
L 125.345915 295.472349 
L 122.962564 295.204153 
L 122.523168 295.164504 
L 119.700422 294.937341 
L 116.877675 294.729891 
L 114.054929 294.50945 
L 111.232182 294.301569 
L 109.498916 294.172499 
L 108.409436 294.079363 
L 105.58669 293.857702 
L 102.763943 293.702379 
L 99.941197 293.488323 
L 97.11845 293.322592 
L 94.295704 293.186744 
L 93.315377 293.140845 
L 91.472957 293.036595 
L 88.650211 292.864952 
L 85.827464 292.772398 
L 83.004718 292.721524 
L 80.181972 292.667841 
L 77.359225 292.667841 
L 74.536479 292.729557 
L 71.713732 292.845772 
L 68.890986 293.019437 
L 67.280836 293.140845 
L 66.068239 293.216794 
L 65.344384 294.172499 
L 64.574824 295.204153 
L 64.038787 296.235807 
L 63.522016 297.267461 
L 63.245493 297.840235 
L 63.157199 298.299115 
L 62.98622 299.330768 
L 62.848006 300.362422 
L 62.741879 301.394076 
L 62.639263 302.42573 
L 62.579751 303.457384 
L 62.546974 304.489038 
L 62.527298 305.520692 
L 62.533254 306.552346 
L 62.567331 307.584 
" style="fill:none;stroke:#00b300;stroke-width:1.5;"/>
   </g>
   <g id="LineCollection_4">
    <path clip-path="url(#p9d0565b21f)" d="M 431.901757 297.136817 
L 424.262946 297.136817 
L 416.624135 297.136817 
L 408.985323 297.136817 
L 401.346512 297.136817 
L 393.707701 297.136817 
L 386.068889 297.136817 
L 378.430078 297.136817 
L 370.791266 297.136817 
L 363.152455 297.136817 
L 355.513644 297.136817 
L 347.874832 297.136817 
L 340.236021 297.136817 
L 332.59721 297.136817 
L 324.958398 297.136817 
L 317.319587 297.136817 
L 309.680775 297.136817 
L 302.041964 297.136817 
L 294.403153 297.136817 
L 286.764341 297.136817 
L 279.12553 297.136817 
L 271.486719 297.136817 
L 263.847907 297.136817 
L 256.209096 297.136817 
L 248.570284 297.136817 
L 240.931473 297.136817 
L 233.292662 297.136817 
L 225.65385 297.136817 
L 218.015039 297.136817 
L 210.376228 297.136817 
L 202.737416 297.136817 
L 195.098605 297.136817 
L 193.354799 296.884516 
L 187.459793 296.083591 
L 185.019139 295.695684 
L 179.820982 295.025422 
L 175.022375 294.506852 
L 172.182171 294.169991 
L 164.543359 293.514804 
L 161.302032 293.318021 
L 156.904548 293.020503 
L 149.265737 292.735028 
L 141.626925 292.595635 
L 133.988114 292.566225 
L 126.349302 292.675915 
L 118.710491 292.939439 
L 111.07168 293.233803 
L 109.071462 293.318021 
L 103.432868 293.528013 
L 95.794057 293.908905 
L 88.155246 294.398523 
L 86.379366 294.506852 
L 80.516434 294.82152 
L 72.877623 295.165713 
L 72.450094 295.695684 
L 71.703919 296.884516 
L 71.060863 298.073347 
L 70.389587 299.262179 
L 69.960844 300.45101 
L 69.609916 301.639842 
L 69.297774 302.828674 
L 69.108481 304.017505 
L 69.025115 305.206337 
L 69.023924 306.395168 
L 69.096835 307.584 
" style="fill:none;stroke:#ffff33;stroke-width:1.5;"/>
   </g>
   <g id="patch_3">
    <path d="M 57.6 307.584 
L 57.6 41.472 
" style="fill:none;stroke:#000000;stroke-linecap:square;stroke-linejoin:miter;stroke-width:0.8;"/>
   </g>
   <g id="patch_4">
    <path d="M 343.296 307.584 
L 343.296 41.472 
" style="fill:none;stroke:#000000;stroke-linecap:square;stroke-linejoin:miter;stroke-width:0.8;"/>
   </g>
   <g id="patch_5">
    <path d="M 57.6 307.584 
L 343.296 307.584 
" style="fill:none;stroke:#000000;stroke-linecap:square;stroke-linejoin:miter;stroke-width:0.8;"/>
   </g>
   <g id="patch_6">
    <path d="M 57.6 41.472 
L 343.296 41.472 
" style="fill:none;stroke:#000000;stroke-linecap:square;stroke-linejoin:miter;stroke-width:0.8;"/>
   </g>
  </g>
  <g id="axes_2">
   <g id="patch_7">
    <path clip-path="url(#p9a4cd77422)" d="M 367.2 307.584 
L 361.152 295.488 
L 361.152 53.568 
L 367.2 41.472 
L 367.2 41.472 
L 373.248 53.568 
L 373.248 295.488 
L 367.2 307.584 
z
" style="fill:#ffffff;stroke:#ffffff;stroke-linejoin:miter;stroke-width:0.01;"/>
   </g>
   <g id="QuadMesh_1">
    <path clip-path="url(#p9a4cd77422)" d="M 367.2 307.584 
L 367.2 307.584 
L 373.248 295.488 
L 361.152 295.488 
L 367.2 307.584 
" style="fill:#ffffff;"/>
    <path clip-path="url(#p9a4cd77422)" d="M 361.152 295.488 
L 373.248 295.488 
L 373.248 235.008 
L 361.152 235.008 
L 361.152 295.488 
" style="fill:#ffffff;"/>
    <path clip-path="url(#p9a4cd77422)" d="M 361.152 235.008 
L 373.248 235.008 
L 373.248 174.528 
L 361.152 174.528 
L 361.152 235.008 
" style="fill:#f0f0f0;"/>
    <path clip-path="url(#p9a4cd77422)" d="M 361.152 174.528 
L 373.248 174.528 
L 373.248 114.048 
L 361.152 114.048 
L 361.152 174.528 
" style="fill:#d3d3d3;"/>
    <path clip-path="url(#p9a4cd77422)" d="M 361.152 114.048 
L 373.248 114.048 
L 373.248 53.568 
L 361.152 53.568 
L 361.152 114.048 
" style="fill:#b8b8b8;"/>
    <path clip-path="url(#p9a4cd77422)" d="M 361.152 53.568 
L 373.248 53.568 
L 367.2 41.472 
L 367.2 41.472 
L 361.152 53.568 
" style="fill:#a0a0a0;"/>
   </g>
   <g id="matplotlib.axis_3"/>
   <g id="matplotlib.axis_4">
    <g id="ytick_10">
     <g id="line2d_19">
      <defs>
       <path d="M 0 0 
L 3.5 0 
" id="m2ed5225194" style="stroke:#000000;stroke-width:0.8;"/>
      </defs>
      <g>
       <use style="stroke:#000000;stroke-width:0.8;" x="373.248" xlink:href="#m2ed5225194" y="295.488"/>
      </g>
     </g>
     <g id="text_19">
      <!-- 0.00 -->
      <g transform="translate(380.248 302.326594)scale(0.18 -0.18)">
       <use xlink:href="#DejaVuSans-48"/>
       <use x="63.623047" xlink:href="#DejaVuSans-46"/>
       <use x="95.410156" xlink:href="#DejaVuSans-48"/>
       <use x="159.033203" xlink:href="#DejaVuSans-48"/>
      </g>
     </g>
    </g>
    <g id="ytick_11">
     <g id="line2d_20">
      <g>
       <use style="stroke:#000000;stroke-width:0.8;" x="373.248" xlink:href="#m2ed5225194" y="235.008"/>
      </g>
     </g>
     <g id="text_20">
      <!-- 0.47 -->
      <g transform="translate(380.248 241.846594)scale(0.18 -0.18)">
       <use xlink:href="#DejaVuSans-48"/>
       <use x="63.623047" xlink:href="#DejaVuSans-46"/>
       <use x="95.410156" xlink:href="#DejaVuSans-52"/>
       <use x="159.033203" xlink:href="#DejaVuSans-55"/>
      </g>
     </g>
    </g>
    <g id="ytick_12">
     <g id="line2d_21">
      <g>
       <use style="stroke:#000000;stroke-width:0.8;" x="373.248" xlink:href="#m2ed5225194" y="174.528"/>
      </g>
     </g>
     <g id="text_21">
      <!-- 1.43 -->
      <g transform="translate(380.248 181.366594)scale(0.18 -0.18)">
       <use xlink:href="#DejaVuSans-49"/>
       <use x="63.623047" xlink:href="#DejaVuSans-46"/>
       <use x="95.410156" xlink:href="#DejaVuSans-52"/>
       <use x="159.033203" xlink:href="#DejaVuSans-51"/>
      </g>
     </g>
    </g>
    <g id="ytick_13">
     <g id="line2d_22">
      <g>
       <use style="stroke:#000000;stroke-width:0.8;" x="373.248" xlink:href="#m2ed5225194" y="114.048"/>
      </g>
     </g>
     <g id="text_22">
      <!-- 9.15 -->
      <defs>
       <path d="M 10.984375 1.515625 
L 10.984375 10.5 
Q 14.703125 8.734375 18.5 7.8125 
Q 22.3125 6.890625 25.984375 6.890625 
Q 35.75 6.890625 40.890625 13.453125 
Q 46.046875 20.015625 46.78125 33.40625 
Q 43.953125 29.203125 39.59375 26.953125 
Q 35.25 24.703125 29.984375 24.703125 
Q 19.046875 24.703125 12.671875 31.3125 
Q 6.296875 37.9375 6.296875 49.421875 
Q 6.296875 60.640625 12.9375 67.421875 
Q 19.578125 74.21875 30.609375 74.21875 
Q 43.265625 74.21875 49.921875 64.515625 
Q 56.59375 54.828125 56.59375 36.375 
Q 56.59375 19.140625 48.40625 8.859375 
Q 40.234375 -1.421875 26.421875 -1.421875 
Q 22.703125 -1.421875 18.890625 -0.6875 
Q 15.09375 0.046875 10.984375 1.515625 
z
M 30.609375 32.421875 
Q 37.25 32.421875 41.125 36.953125 
Q 45.015625 41.5 45.015625 49.421875 
Q 45.015625 57.28125 41.125 61.84375 
Q 37.25 66.40625 30.609375 66.40625 
Q 23.96875 66.40625 20.09375 61.84375 
Q 16.21875 57.28125 16.21875 49.421875 
Q 16.21875 41.5 20.09375 36.953125 
Q 23.96875 32.421875 30.609375 32.421875 
z
" id="DejaVuSans-57"/>
      </defs>
      <g transform="translate(380.248 120.886594)scale(0.18 -0.18)">
       <use xlink:href="#DejaVuSans-57"/>
       <use x="63.623047" xlink:href="#DejaVuSans-46"/>
       <use x="95.410156" xlink:href="#DejaVuSans-49"/>
       <use x="159.033203" xlink:href="#DejaVuSans-53"/>
      </g>
     </g>
    </g>
    <g id="ytick_14">
     <g id="line2d_23">
      <g>
       <use style="stroke:#000000;stroke-width:0.8;" x="373.248" xlink:href="#m2ed5225194" y="53.568"/>
      </g>
     </g>
     <g id="text_23">
      <!-- 16.67 -->
      <defs>
       <path d="M 33.015625 40.375 
Q 26.375 40.375 22.484375 35.828125 
Q 18.609375 31.296875 18.609375 23.390625 
Q 18.609375 15.53125 22.484375 10.953125 
Q 26.375 6.390625 33.015625 6.390625 
Q 39.65625 6.390625 43.53125 10.953125 
Q 47.40625 15.53125 47.40625 23.390625 
Q 47.40625 31.296875 43.53125 35.828125 
Q 39.65625 40.375 33.015625 40.375 
z
M 52.59375 71.296875 
L 52.59375 62.3125 
Q 48.875 64.0625 45.09375 64.984375 
Q 41.3125 65.921875 37.59375 65.921875 
Q 27.828125 65.921875 22.671875 59.328125 
Q 17.53125 52.734375 16.796875 39.40625 
Q 19.671875 43.65625 24.015625 45.921875 
Q 28.375 48.1875 33.59375 48.1875 
Q 44.578125 48.1875 50.953125 41.515625 
Q 57.328125 34.859375 57.328125 23.390625 
Q 57.328125 12.15625 50.6875 5.359375 
Q 44.046875 -1.421875 33.015625 -1.421875 
Q 20.359375 -1.421875 13.671875 8.265625 
Q 6.984375 17.96875 6.984375 36.375 
Q 6.984375 53.65625 15.1875 63.9375 
Q 23.390625 74.21875 37.203125 74.21875 
Q 40.921875 74.21875 44.703125 73.484375 
Q 48.484375 72.75 52.59375 71.296875 
z
" id="DejaVuSans-54"/>
      </defs>
      <g transform="translate(380.248 60.406594)scale(0.18 -0.18)">
       <use xlink:href="#DejaVuSans-49"/>
       <use x="63.623047" xlink:href="#DejaVuSans-54"/>
       <use x="127.246094" xlink:href="#DejaVuSans-46"/>
       <use x="159.033203" xlink:href="#DejaVuSans-54"/>
       <use x="222.65625" xlink:href="#DejaVuSans-55"/>
      </g>
     </g>
    </g>
   </g>
   <g id="patch_8">
    <path d="M 367.2 307.584 
L 361.152 295.488 
L 361.152 53.568 
L 367.2 41.472 
L 367.2 41.472 
L 373.248 53.568 
L 373.248 295.488 
L 367.2 307.584 
z
" style="fill:none;stroke:#000000;stroke-linejoin:miter;stroke-width:0.8;"/>
   </g>
  </g>
 </g>
 <defs>
  <clipPath id="p9d0565b21f">
   <rect height="266.112" width="285.696" x="57.6" y="41.472"/>
  </clipPath>
  <clipPath id="p9a4cd77422">
   <rect height="266.112" width="12.096" x="361.152" y="41.472"/>
  </clipPath>
 </defs>
</svg>
